<svg width="500" height="500" viewBox="0 0 500 500" fill="none" xmlns="http://www.w3.org/2000/svg">
<path d="M257 67.15V72.35C257 73.99 258.15 74.65 259.57 73.83L283.39 60.1C284.145 59.6169 284.776 58.9619 285.229 58.1884C285.683 57.415 285.947 56.5451 286 55.65V50.45C286 48.81 284.85 48.14 283.43 48.96L259.6 62.7C258.846 63.1842 258.218 63.8398 257.766 64.6131C257.314 65.3865 257.052 66.2558 257 67.15V67.15Z" fill="#F0F0F0"/>
<path d="M74.41 212.89L50.62 226.62C50.2913 226.822 49.989 227.063 49.72 227.34V238.08C50.0373 238.03 50.3425 237.922 50.62 237.76L74.41 224C75.159 223.516 75.7838 222.864 76.2338 222.094C76.6837 221.324 76.9462 220.46 77 219.57V214.37C77 212.73 75.83 212.07 74.41 212.89Z" fill="#F0F0F0"/>
<path d="M74.19 324.73L50.4 338.46C50.1557 338.609 49.9278 338.783 49.72 338.98V349.87C49.9593 349.816 50.1888 349.725 50.4 349.6L74.19 335.86C74.938 335.372 75.5605 334.715 76.007 333.942C76.4535 333.169 76.7115 332.301 76.76 331.41V326.21C76.76 324.57 75.61 323.91 74.19 324.73Z" fill="#F0F0F0"/>
<path d="M74.41 267.58L50.62 281.32C50.2868 281.515 49.9836 281.758 49.72 282.04V292.78C50.039 292.731 50.345 292.619 50.62 292.45L74.41 278.72C75.1617 278.235 75.7881 277.579 76.2382 276.805C76.6882 276.032 76.9493 275.163 77 274.27V269.07C77 267.43 75.83 266.76 74.41 267.58Z" fill="#F0F0F0"/>
<path d="M338 87.37L314.16 101.1C313.412 101.588 312.789 102.245 312.343 103.018C311.896 103.791 311.638 104.658 311.59 105.55V110.75C311.59 112.39 312.74 113.06 314.16 112.24L338 98.5C338.748 98.0125 339.37 97.3555 339.817 96.5823C340.263 95.8091 340.521 94.9416 340.57 94.05V88.85C340.52 87.21 339.37 86.55 338 87.37Z" fill="#F0F0F0"/>
<path d="M353 65.09L329.18 78.82C328.432 79.3075 327.809 79.9646 327.363 80.7377C326.916 81.5109 326.658 82.3785 326.61 83.27V88.47C326.61 90.11 327.76 90.78 329.18 89.96L353 76.22C353.748 75.7324 354.37 75.0754 354.817 74.3023C355.263 73.5291 355.521 72.6615 355.57 71.77V66.57C355.54 64.93 354.39 64.27 353 65.09Z" fill="#F0F0F0"/>
<path d="M183.19 231.26L159.4 245C158.652 245.487 158.03 246.144 157.583 246.918C157.137 247.691 156.879 248.558 156.83 249.45V254.65C156.83 256.29 157.98 256.95 159.4 256.13L183.19 242.4C183.938 241.912 184.561 241.255 185.007 240.482C185.454 239.709 185.712 238.841 185.76 237.95V232.75C185.76 231.11 184.61 230.44 183.19 231.26Z" fill="#F0F0F0"/>
<path d="M249.68 168.58V173.78C249.68 175.42 250.83 176.08 252.25 175.27L276 161.53C276.748 161.043 277.37 160.385 277.817 159.612C278.263 158.839 278.521 157.972 278.57 157.08V151.88C278.57 150.24 277.42 149.58 276 150.4L252.21 164.13C251.469 164.622 250.855 165.281 250.415 166.054C249.976 166.827 249.724 167.692 249.68 168.58V168.58Z" fill="#F0F0F0"/>
<path d="M218.73 147.05V152.25C218.73 153.88 219.88 154.55 221.3 153.73L245.09 140C245.839 139.514 246.462 138.857 246.909 138.084C247.356 137.31 247.613 136.442 247.66 135.55V130.35C247.66 128.71 246.51 128.05 245.09 128.87L221.3 142.59C220.551 143.079 219.928 143.738 219.482 144.513C219.035 145.288 218.778 146.157 218.73 147.05V147.05Z" fill="#F0F0F0"/>
<path d="M291.07 73.4198L267.28 87.1498C266.531 87.639 265.908 88.2977 265.462 89.0726C265.015 89.8475 264.758 90.7168 264.71 91.6098V96.8098C264.71 98.4398 265.86 99.1098 267.28 98.2898L291.07 84.5498C291.818 84.0623 292.44 83.4053 292.887 82.6321C293.334 81.8589 293.592 80.9914 293.64 80.0998V74.8998C293.64 73.2598 292.49 72.5998 291.07 73.4198Z" fill="#F0F0F0"/>
<path d="M167.26 172.13L143.47 185.86C142.722 186.348 142.1 187.005 141.654 187.778C141.207 188.551 140.949 189.419 140.9 190.31V195.51C140.9 197.15 142.05 197.82 143.47 197L167.26 183.26C168.008 182.772 168.63 182.115 169.077 181.342C169.523 180.569 169.781 179.702 169.83 178.81V173.61C169.83 172 168.68 171.31 167.26 172.13Z" fill="#F0F0F0"/>
<path d="M252.25 230L276 216.23C276.749 215.741 277.372 215.082 277.818 214.307C278.265 213.532 278.522 212.663 278.57 211.77V206.57C278.57 204.94 277.42 204.27 276 205.09L252.21 218.83C251.462 219.317 250.839 219.974 250.393 220.748C249.946 221.521 249.688 222.388 249.64 223.28V228.48C249.68 230.12 250.83 230.78 252.25 230Z" fill="#F0F0F0"/>
<path d="M81.57 287.37L105.36 273.64C106.108 273.152 106.73 272.495 107.177 271.722C107.624 270.949 107.882 270.081 107.93 269.19V264C107.93 262.36 106.78 261.7 105.36 262.51L81.57 276.24C80.822 276.727 80.1995 277.384 79.753 278.158C79.3064 278.931 79.0485 279.798 79 280.69V285.89C79 287.53 80.15 288.19 81.57 287.37Z" fill="#F0F0F0"/>
<path d="M221.3 357.19L245.09 343.46C245.838 342.972 246.46 342.315 246.907 341.542C247.354 340.769 247.612 339.901 247.66 339.01V333.81C247.66 332.17 246.51 331.5 245.09 332.32L221.3 346.06C220.552 346.547 219.929 347.204 219.483 347.978C219.036 348.751 218.778 349.618 218.73 350.51V355.71C218.73 357.35 219.88 358 221.3 357.19Z" fill="#F0F0F0"/>
<path d="M323.91 301L347.7 287.26C348.448 286.772 349.07 286.115 349.517 285.342C349.963 284.569 350.221 283.702 350.27 282.81V277.61C350.27 275.97 349.12 275.31 347.7 276.13L323.91 289.86C323.162 290.348 322.539 291.005 322.093 291.778C321.646 292.551 321.388 293.418 321.34 294.31V299.51C321.34 301.15 322.49 301.82 323.91 301Z" fill="#F0F0F0"/>
<path d="M107.93 405.93V400.73C107.93 399.09 106.78 398.42 105.36 399.24L81.57 413C80.8246 413.485 80.2038 414.139 79.7574 414.909C79.311 415.678 79.0516 416.542 79 417.43V422.63C79 424.27 80.15 424.93 81.57 424.11L105.36 410.38C106.108 409.892 106.73 409.235 107.177 408.462C107.624 407.689 107.882 406.821 107.93 405.93V405.93Z" fill="#F0F0F0"/>
<path d="M156.83 58V63.2C156.83 64.83 157.98 65.5 159.4 64.68L183.19 51C183.938 50.5125 184.561 49.8555 185.007 49.0823C185.454 48.3091 185.712 47.4416 185.76 46.55V41.35C185.76 39.71 184.61 39.05 183.19 39.87L159.4 53.56C158.654 54.0472 158.033 54.7028 157.586 55.4739C157.14 56.2451 156.881 57.1104 156.83 58V58Z" fill="#F0F0F0"/>
<path d="M59.38 247.93L49.72 253.51V264.65L59.38 259.06C60.1384 258.579 60.7715 257.925 61.227 257.151C61.6826 256.377 61.9475 255.506 62 254.61V249.41C62 247.77 60.8 247.11 59.38 247.93Z" fill="#F0F0F0"/>
<path d="M97.4999 401.21L121.29 387.47C122.038 386.982 122.66 386.325 123.107 385.552C123.553 384.779 123.811 383.912 123.86 383.02V377.82C123.86 376.18 122.71 375.52 121.29 376.34L97.4999 390.07C96.7519 390.558 96.1294 391.215 95.6829 391.988C95.2364 392.761 94.9784 393.628 94.9299 394.52V399.72C94.9299 401.36 96.0799 402 97.4999 401.21Z" fill="#F0F0F0"/>
<path d="M74.41 362.39L50.62 376.12C50.2913 376.322 49.989 376.564 49.72 376.84V387.58C50.0373 387.53 50.3425 387.422 50.62 387.26L74.41 373.52C75.1617 373.035 75.7881 372.379 76.2382 371.605C76.6882 370.832 76.9493 369.963 77 369.07V363.87C77 362.23 75.83 361.57 74.41 362.39Z" fill="#F0F0F0"/>
<path d="M187.78 79.93V85.13C187.78 86.77 188.93 87.43 190.35 86.61L214.14 72.88C214.888 72.3925 215.511 71.7355 215.957 70.9623C216.404 70.1891 216.662 69.3216 216.71 68.43V63.23C216.71 61.59 215.56 60.92 214.14 61.74L190.35 75.4801C189.602 75.9676 188.98 76.6246 188.533 77.3978C188.086 78.171 187.829 79.0385 187.78 79.93Z" fill="#F0F0F0"/>
<path d="M59.38 165.89L49.72 171.47V182.6L59.38 177C60.1346 176.52 60.7652 175.868 61.2205 175.099C61.6758 174.329 61.9429 173.462 62 172.57V167.37C62 165.73 60.8 165.07 59.38 165.89Z" fill="#F0F0F0"/>
<path d="M105.36 125.77L81.57 139.5C80.8154 139.992 80.1888 140.657 79.7419 141.44C79.295 142.222 79.0407 143.1 79 144V149.2C79 150.84 80.15 151.5 81.57 150.69L105.36 136.95C106.108 136.462 106.73 135.805 107.177 135.032C107.624 134.259 107.882 133.392 107.93 132.5V127.3C107.93 125.61 106.78 125 105.36 125.77Z" fill="#F0F0F0"/>
<path d="M167.26 62.7399L143.47 76.4699C142.722 76.9574 142.099 77.6145 141.653 78.3876C141.206 79.1608 140.948 80.0284 140.9 80.9199V86.1199C140.9 87.7599 142.05 88.4299 143.47 87.6099L167.26 73.8699C168.008 73.3823 168.63 72.7253 169.077 71.9521C169.523 71.179 169.781 70.3114 169.83 69.4199V64.2199C169.83 62.5799 168.68 61.9199 167.26 62.7399Z" fill="#F0F0F0"/>
<path d="M159.4 365.53L183.19 351.79C183.938 351.302 184.561 350.645 185.007 349.872C185.454 349.099 185.712 348.231 185.76 347.34V342.14C185.76 340.5 184.61 339.84 183.19 340.66L159.4 354.39C158.652 354.877 158.03 355.534 157.583 356.308C157.137 357.081 156.879 357.948 156.83 358.84V364C156.83 365.68 158 366.35 159.4 365.53Z" fill="#F0F0F0"/>
<path d="M200.78 325.06V319.86C200.78 318.22 199.63 317.56 198.21 318.38L174.43 332.11C173.682 332.598 173.059 333.255 172.613 334.028C172.166 334.801 171.908 335.668 171.86 336.56V341.76C171.86 343.4 173.02 344.07 174.43 343.25L198.22 329.51C198.966 329.021 199.587 328.364 200.031 327.591C200.476 326.818 200.732 325.951 200.78 325.06V325.06Z" fill="#F0F0F0"/>
<path d="M167.26 144.78L143.47 158.52C142.717 159.009 142.091 159.671 141.644 160.45C141.197 161.229 140.942 162.103 140.9 163V168.2C140.9 169.84 142.05 170.5 143.47 169.68L167.26 155.95C168.009 155.461 168.632 154.802 169.078 154.027C169.525 153.252 169.782 152.383 169.83 151.49V146.29C169.83 144.63 168.68 144 167.26 144.78Z" fill="#F0F0F0"/>
<path d="M198.21 84.65L174.43 98.39C173.682 98.8775 173.059 99.5345 172.613 100.308C172.166 101.081 171.908 101.948 171.86 102.84V108C171.86 109.64 173.02 110.3 174.43 109.48L198.22 95.75C198.969 95.2608 199.592 94.6021 200.038 93.8272C200.485 93.0523 200.742 92.183 200.79 91.29V86.09C200.78 84.5 199.63 83.83 198.21 84.65Z" fill="#F0F0F0"/>
<path d="M94.9299 257.78V263C94.9299 264.64 96.0799 265.31 97.4999 264.49L121.29 250.75C122.038 250.262 122.66 249.605 123.107 248.832C123.553 248.059 123.811 247.192 123.86 246.3V241.1C123.86 239.46 122.71 238.8 121.29 239.62L97.4999 253.33C96.7519 253.818 96.1294 254.475 95.6829 255.248C95.2364 256.021 94.9784 256.888 94.9299 257.78V257.78Z" fill="#F0F0F0"/>
<path d="M97.4999 373.86L121.29 360.12C122.038 359.632 122.66 358.975 123.107 358.202C123.553 357.429 123.811 356.561 123.86 355.67V350.47C123.86 348.83 122.71 348.17 121.29 348.99L97.4999 362.72C96.7525 363.208 96.1304 363.865 95.684 364.638C95.2375 365.411 94.9792 366.279 94.9299 367.17V372.38C94.9299 374 96.0799 374.68 97.4999 373.86Z" fill="#F0F0F0"/>
<path d="M152.24 276.45L128.45 290.19C127.702 290.678 127.079 291.335 126.633 292.108C126.186 292.881 125.928 293.748 125.88 294.64V299.84C125.88 301.48 127.03 302.14 128.45 301.32L152.24 287.59C152.988 287.102 153.61 286.445 154.057 285.672C154.503 284.899 154.761 284.032 154.81 283.14V277.94C154.81 276.3 153.66 275.63 152.24 276.45Z" fill="#F0F0F0"/>
<path d="M187.78 204.26V209.46C187.78 211.1 188.93 211.77 190.35 210.95L214.14 197.21C214.888 196.722 215.511 196.065 215.957 195.292C216.404 194.519 216.662 193.652 216.71 192.76V187.56C216.71 185.92 215.56 185.26 214.14 186.08L190.35 199.81C189.602 200.298 188.98 200.955 188.533 201.728C188.086 202.501 187.829 203.368 187.78 204.26Z" fill="#F0F0F0"/>
<path d="M326.05 127.1V132.3C326.05 133.94 327.2 134.6 328.62 133.78L352.41 120.05C353.161 119.564 353.787 118.908 354.237 118.135C354.687 117.361 354.949 116.493 355 115.6V110.4C355 108.76 353.85 108.09 352.43 108.91L328.64 122.65C327.888 123.135 327.262 123.791 326.812 124.565C326.362 125.338 326.101 126.207 326.05 127.1V127.1Z" fill="#F0F0F0"/>
<path d="M330.22 168.46V163.26C330.22 161.62 329.07 160.95 327.65 161.77L303.86 175.51C303.112 175.997 302.49 176.654 302.043 177.428C301.596 178.201 301.339 179.068 301.29 179.96V185.16C301.29 186.8 302.44 187.46 303.86 186.64L327.65 172.91C328.397 172.422 329.02 171.765 329.466 170.991C329.912 170.218 330.171 169.351 330.22 168.46Z" fill="#F0F0F0"/>
<path d="M361.17 150.62V145.41C361.17 143.78 360.02 143.11 358.6 143.93L334.81 157.67C334.062 158.158 333.44 158.815 332.993 159.588C332.546 160.361 332.288 161.228 332.24 162.12V167.32C332.24 168.96 333.39 169.62 334.81 168.8L358.6 155.07C359.347 154.582 359.97 153.925 360.416 153.152C360.862 152.379 361.121 151.511 361.17 150.62Z" fill="#F0F0F0"/>
<path d="M260.12 133.93L236.33 147.66C235.582 148.147 234.96 148.804 234.513 149.578C234.066 150.351 233.808 151.218 233.76 152.11V157.31C233.76 158.95 234.91 159.62 236.33 158.8L260.12 145.06C260.868 144.572 261.49 143.915 261.937 143.142C262.384 142.369 262.642 141.501 262.69 140.61V135.41C262.69 133.77 261.54 133.11 260.12 133.93Z" fill="#F0F0F0"/>
<path d="M200.78 243V237.8C200.78 236.16 199.63 235.49 198.21 236.31L174.43 250.05C173.682 250.537 173.059 251.194 172.613 251.968C172.166 252.741 171.908 253.608 171.86 254.5V259.7C171.86 261.34 173.02 262 174.43 261.18L198.22 247.45C198.965 246.961 199.586 246.303 200.03 245.53C200.475 244.757 200.732 243.89 200.78 243Z" fill="#F0F0F0"/>
<path d="M249.68 281.05V275.85C249.68 274.21 248.53 273.54 247.11 274.36L223.32 288.1C222.572 288.587 221.95 289.244 221.503 290.018C221.056 290.791 220.798 291.658 220.75 292.55V297.75C220.75 299.39 221.9 300.05 223.32 299.23L247.11 285.5C247.858 285.012 248.48 284.355 248.927 283.582C249.374 282.809 249.632 281.941 249.68 281.05V281.05Z" fill="#F0F0F0"/>
<path d="M231.74 361.91V356.71C231.74 355.08 230.59 354.41 229.17 355.23L205.38 369C204.632 369.488 204.01 370.145 203.563 370.918C203.117 371.691 202.859 372.559 202.81 373.45V378.65C202.81 380.29 203.96 380.95 205.38 380.13L229.17 366.4C229.923 365.908 230.548 365.244 230.995 364.464C231.442 363.684 231.697 362.808 231.74 361.91V361.91Z" fill="#F0F0F0"/>
<path d="M125.88 75.8598V81.0598C125.88 82.6898 127.03 83.3598 128.45 82.5398L152.24 68.7998C152.988 68.3123 153.61 67.6553 154.057 66.8821C154.503 66.1089 154.761 65.2414 154.81 64.3498V59.1498C154.81 57.5098 153.66 56.8498 152.24 57.6698L128.45 71.3998C127.701 71.889 127.078 72.5477 126.632 73.3226C126.185 74.0975 125.928 74.9668 125.88 75.8598V75.8598Z" fill="#F0F0F0"/>
<path d="M169.83 397.6V392.4C169.83 390.76 168.68 390.09 167.26 390.91L143.47 404.65C142.722 405.138 142.099 405.795 141.653 406.568C141.206 407.341 140.948 408.208 140.9 409.1V414.3C140.9 415.94 142.05 416.6 143.47 415.78L167.26 402.05C168.007 401.562 168.629 400.905 169.076 400.132C169.522 399.359 169.781 398.491 169.83 397.6Z" fill="#F0F0F0"/>
<path d="M59.38 439.36L49.72 445V456.13L59.38 450.55C60.1439 450.063 60.7802 449.401 61.236 448.618C61.6918 447.835 61.9537 446.955 62 446.05V440.85C62 439.21 60.8 438.55 59.38 439.36Z" fill="#F0F0F0"/>
<path d="M74.41 171L50.62 184.69C50.2868 184.885 49.9836 185.128 49.72 185.41V196.15C50.039 196.101 50.345 195.989 50.62 195.82L74.41 182.09C75.1617 181.605 75.7881 180.949 76.2382 180.175C76.6882 179.402 76.9493 178.533 77 177.64V172.44C77 170.8 75.83 170.13 74.41 171Z" fill="#F0F0F0"/>
<path d="M190.35 347.69L214.14 334C214.888 333.512 215.511 332.855 215.957 332.082C216.404 331.309 216.662 330.442 216.71 329.55V324.35C216.71 322.71 215.56 322.05 214.14 322.87L190.35 336.6C189.602 337.088 188.98 337.745 188.533 338.518C188.086 339.291 187.829 340.158 187.78 341.05V346.25C187.78 347.84 188.93 348.51 190.35 347.69Z" fill="#F0F0F0"/>
<path d="M229.17 66.8099L205.38 80.5499C204.632 81.0375 204.01 81.6945 203.563 82.4676C203.117 83.2408 202.859 84.1084 202.81 84.9999V90.1999C202.81 91.8399 203.96 92.4999 205.38 91.6799L229.17 77.9999C229.919 77.5108 230.542 76.852 230.988 76.0771C231.435 75.3022 231.692 74.433 231.74 73.5399V68.3399C231.74 66.6599 230.59 65.9999 229.17 66.8099Z" fill="#F0F0F0"/>
<path d="M345.3 33.8599L321.51 47.5999C320.762 48.0875 320.139 48.7445 319.693 49.5177C319.246 50.2908 318.988 51.1584 318.94 52.0499V57.2499C318.94 58.8899 320.09 59.5499 321.51 58.7299L345.3 44.9999C346.048 44.5124 346.67 43.8554 347.117 43.0822C347.564 42.309 347.821 41.4415 347.87 40.5499V35.3499C347.87 33.7099 346.72 33.0499 345.3 33.8599Z" fill="#F0F0F0"/>
<path d="M112.52 214.84L136.31 201.1C137.058 200.612 137.68 199.955 138.127 199.182C138.574 198.409 138.831 197.541 138.88 196.65V191.45C138.88 189.81 137.73 189.15 136.31 189.97L112.52 203.7C111.773 204.188 111.15 204.845 110.704 205.618C110.258 206.391 109.999 207.259 109.95 208.15V213.35C110 215 111.1 215.66 112.52 214.84Z" fill="#F0F0F0"/>
<path d="M231.74 279.87V274.67C231.74 273.03 230.59 272.37 229.17 273.19L205.38 286.92C204.632 287.407 204.01 288.064 203.563 288.838C203.117 289.611 202.859 290.478 202.81 291.37V296.57C202.81 298.21 203.96 298.88 205.38 298.06L229.17 284.32C229.918 283.832 230.541 283.175 230.987 282.402C231.434 281.629 231.692 280.761 231.74 279.87V279.87Z" fill="#F0F0F0"/>
<path d="M276.54 304.37L300.33 290.64C301.077 290.152 301.699 289.495 302.146 288.721C302.592 287.948 302.851 287.081 302.9 286.19V281C302.9 279.36 301.75 278.69 300.33 279.51L276.54 293.25C275.792 293.737 275.169 294.394 274.723 295.168C274.276 295.941 274.018 296.808 273.97 297.7V302.9C274 304.53 275.12 305.19 276.54 304.37Z" fill="#F0F0F0"/>
<path d="M317.93 263.9V258.7C317.93 257.07 316.78 256.4 315.36 257.22L291.57 271C290.822 271.488 290.2 272.145 289.753 272.918C289.306 273.691 289.048 274.559 289 275.45V280.65C289 282.29 290.15 282.95 291.57 282.13L315.36 268.4C316.114 267.907 316.74 267.242 317.187 266.46C317.634 265.677 317.888 264.8 317.93 263.9V263.9Z" fill="#F0F0F0"/>
<path d="M354.67 221V215.8C354.67 214.16 353.52 213.49 352.1 214.31L328.31 228.05C327.562 228.537 326.94 229.194 326.493 229.968C326.046 230.741 325.788 231.608 325.74 232.5V237.7C325.74 239.34 326.89 240 328.31 239.18L352.1 225.45C352.847 224.962 353.47 224.305 353.916 223.532C354.362 222.758 354.621 221.891 354.67 221Z" fill="#F0F0F0"/>
<path d="M307.5 286.53L331.29 272.8C332.036 272.31 332.657 271.653 333.103 270.88C333.549 270.107 333.808 269.241 333.86 268.35V263.14C333.86 261.51 332.7 260.84 331.29 261.66L307.5 275.4C306.752 275.888 306.129 276.545 305.683 277.318C305.236 278.091 304.978 278.958 304.93 279.85V285.05C304.93 286.69 306.08 287.35 307.5 286.53Z" fill="#F0F0F0"/>
<path d="M336.72 219.82V214.62C336.72 212.98 335.57 212.32 334.15 213.13L310.36 226.87C309.612 227.357 308.99 228.015 308.543 228.788C308.096 229.561 307.839 230.428 307.79 231.32V236.52C307.79 238.16 308.94 238.82 310.36 238L334.15 224.27C334.898 223.782 335.521 223.125 335.967 222.352C336.414 221.579 336.672 220.711 336.72 219.82V219.82Z" fill="#F0F0F0"/>
<path d="M319.79 191.08L343.58 177.35C344.326 176.86 344.947 176.203 345.393 175.43C345.839 174.657 346.098 173.791 346.15 172.9V167.7C346.15 166.06 344.99 165.39 343.58 166.21L319.79 180C319.042 180.488 318.419 181.145 317.973 181.918C317.526 182.691 317.268 183.558 317.22 184.45V189.65C317.22 191.24 318.37 191.9 319.79 191.08Z" fill="#F0F0F0"/>
<path d="M262.69 207.33V202.13C262.69 200.5 261.54 199.83 260.12 200.65L236.33 214.39C235.582 214.878 234.96 215.535 234.513 216.308C234.066 217.081 233.808 217.948 233.76 218.84V224C233.76 225.64 234.91 226.3 236.33 225.48L260.12 211.75C260.864 211.265 261.483 210.612 261.929 209.845C262.376 209.077 262.636 208.216 262.69 207.33Z" fill="#F0F0F0"/>
<path d="M58.26 320.29L49.72 325.22V336.36L58.26 331.42C59.004 330.935 59.6241 330.283 60.0704 329.515C60.5167 328.748 60.7769 327.886 60.83 327V321.8C60.83 320.13 59.68 319.47 58.26 320.29Z" fill="#F0F0F0"/>
<path d="M75.53 393.41L51.74 407.15C50.8664 407.722 50.1729 408.53 49.74 409.48V418.29C50.0274 418.509 50.3787 418.628 50.74 418.628C51.1013 418.628 51.4526 418.509 51.74 418.29L75.53 404.56C76.278 404.072 76.9005 403.415 77.347 402.642C77.7935 401.869 78.0515 401.001 78.1 400.11V394.91C78.1 393.26 77 392.59 75.53 393.41Z" fill="#F0F0F0"/>
<path d="M94.9299 148.39V153.59C94.9299 155.23 96.0799 155.9 97.4999 155.08L121.29 141.34C122.038 140.852 122.66 140.195 123.107 139.422C123.553 138.649 123.811 137.781 123.86 136.89V131.69C123.86 130.05 122.71 129.39 121.29 130.21L97.4999 143.94C96.7519 144.427 96.1294 145.084 95.6829 145.858C95.2364 146.631 94.9784 147.498 94.9299 148.39V148.39Z" fill="#F0F0F0"/>
<path d="M51.4275 474C51.3515 474 51.2767 473.981 51.2111 473.943C51.1455 473.905 51.0915 473.85 51.0549 473.785C50.9994 473.688 50.9853 473.573 51.0157 473.466C51.046 473.359 51.1184 473.267 51.2169 473.212L381.355 286.056C381.454 286 381.572 285.985 381.682 286.014C381.792 286.043 381.886 286.114 381.943 286.211C381.999 286.308 382.015 286.424 381.985 286.532C381.956 286.64 381.883 286.732 381.785 286.788L51.6462 473.944C51.5799 473.982 51.5042 474.001 51.4275 474V474Z" fill="#E0E0E0"/>
<path d="M194 477.17C192.281 477.186 190.586 476.759 189.08 475.93L150.45 453.63C149.425 453.114 148.564 452.324 147.962 451.348C147.36 450.372 147.041 449.247 147.041 448.1C147.041 446.953 147.36 445.828 147.962 444.852C148.564 443.875 149.425 443.085 150.45 442.57L193.93 417.47C195.44 416.65 197.132 416.22 198.85 416.22C200.569 416.22 202.26 416.65 203.77 417.47L242.39 439.76C243.412 440.278 244.27 441.069 244.87 442.045C245.469 443.021 245.787 444.144 245.787 445.29C245.787 446.435 245.469 447.559 244.87 448.535C244.27 449.511 243.412 450.302 242.39 450.82L198.91 475.93C197.407 476.758 195.716 477.185 194 477.17Z" fill="#E0E0E0"/>
<path d="M264.69 44.9199C264.69 44.7699 264.69 44.6199 264.62 44.4799C264.55 44.3399 264.62 44.2799 264.55 44.1799C264.553 44.1566 264.553 44.1331 264.55 44.1099C264.533 44.0412 264.509 43.9743 264.48 43.9099C264.486 43.8734 264.486 43.8363 264.48 43.7999C264.453 43.7239 264.419 43.6503 264.38 43.5799C264.306 43.4216 264.212 43.2737 264.1 43.1399C264.059 43.082 264.012 43.0284 263.96 42.9799C263.914 42.9223 263.86 42.8718 263.8 42.8299C263.716 42.7586 263.625 42.695 263.53 42.6399L263.37 42.5499C262.44 41.9999 260.1 40.6499 259.42 40.2599C258.931 40.0325 258.389 39.9413 257.852 39.9958C257.316 40.0504 256.803 40.2487 256.37 40.5699L106.82 126.8C105.529 127.605 104.465 128.727 103.73 130.06C103.53 130.397 103.352 130.748 103.2 131.11C103.05 131.47 102.91 131.83 102.8 132.19L102.65 132.74C102.529 133.268 102.465 133.808 102.46 134.35V397.35C102.46 397.48 102.46 397.61 102.46 397.73C102.46 397.85 102.46 397.97 102.46 398.08L102.52 398.41C102.536 398.516 102.563 398.62 102.6 398.72C102.682 398.969 102.792 399.207 102.93 399.43C103.061 399.637 103.227 399.819 103.42 399.97C103.5 400.039 103.587 400.099 103.68 400.15L104.43 400.58L105.75 401.35L107.11 402.13L107.49 402.35L107.6 402.42L107.76 402.51C107.937 402.605 108.125 402.679 108.32 402.73H108.55H108.84C109.548 402.71 110.238 402.503 110.84 402.13L260.35 316C261.619 315.173 262.676 314.058 263.433 312.747C264.191 311.435 264.628 309.963 264.71 308.45V45.4499C264.71 45.2499 264.7 45.0799 264.69 44.9199ZM130.47 133.34C130.464 133.237 130.464 133.133 130.47 133.03C130.47 132.9 130.47 132.77 130.47 132.63C130.551 131.095 130.993 129.601 131.762 128.27C132.53 126.939 133.602 125.808 134.89 124.97L135.2 124.81C135.438 124.693 135.686 124.596 135.94 124.52H136.08C136.192 124.937 136.249 125.368 136.25 125.8C136.165 127.332 135.721 128.823 134.953 130.152C134.185 131.481 133.115 132.611 131.83 133.45C131.453 133.668 131.05 133.836 130.63 133.95C130.558 133.752 130.504 133.548 130.47 133.34V133.34ZM230.07 75.0999C230.151 73.5663 230.593 72.0735 231.359 70.7426C232.125 69.4117 233.195 68.2802 234.48 67.4399C234.606 67.3653 234.736 67.2985 234.87 67.2399L235.09 67.1399L235.39 67.0299L235.68 66.9599C235.789 67.371 235.842 67.7946 235.84 68.2199C235.759 69.7547 235.317 71.2486 234.548 72.5798C233.78 73.911 232.708 75.0418 231.42 75.8799C231.05 76.1013 230.649 76.2664 230.23 76.3699C230.121 75.9553 230.068 75.5284 230.07 75.0999V75.0999Z" fill="#37474F"/>
<path d="M106.54 136.72V399.72C106.499 400.208 106.567 400.699 106.74 401.158C106.913 401.616 107.187 402.03 107.54 402.37L103.71 400.16C103.262 399.851 102.906 399.427 102.681 398.932C102.455 398.437 102.369 397.89 102.43 397.35V134.35C102.484 132.834 102.924 131.357 103.71 130.06L107.8 132.42C107.017 133.721 106.583 135.202 106.54 136.72V136.72Z" fill="#263238"/>
<path d="M109.09 351.76L262.16 263.39V79.8298L109.09 168.2V351.76Z" fill="white"/>
<path d="M135.15 124.81C135.387 124.689 135.634 124.592 135.89 124.52C135.636 124.596 135.389 124.693 135.15 124.81V124.81Z" fill="#263238"/>
<path d="M139.26 127.53C139.175 129.062 138.731 130.553 137.963 131.882C137.195 133.211 136.125 134.341 134.84 135.18C132.84 136.35 131.1 135.76 130.58 133.91C131 133.796 131.404 133.628 131.78 133.41C133.065 132.571 134.135 131.441 134.903 130.112C135.671 128.783 136.115 127.292 136.2 125.76C136.199 125.328 136.142 124.897 136.03 124.48H135.89C137.82 124 139.26 125.13 139.26 127.53Z" fill="#263238"/>
<path d="M235.68 66.9998L235.39 67.0698L235.68 66.9998Z" fill="#263238"/>
<path d="M238.9 69.9999C238.819 71.5347 238.377 73.0286 237.608 74.3598C236.84 75.691 235.768 76.8218 234.48 77.6599C232.48 78.8299 230.75 78.2299 230.23 76.3799C230.649 76.2764 231.05 76.1113 231.42 75.8899C232.708 75.0518 233.78 73.921 234.548 72.5898C235.317 71.2586 235.759 69.7647 235.84 68.2299C235.842 67.8046 235.789 67.381 235.68 66.9699C237.54 66.4899 238.9 67.6499 238.9 69.9999Z" fill="#263238"/>
<path d="M129.37 211C129.227 211.001 129.086 210.974 128.954 210.921C128.821 210.867 128.701 210.788 128.6 210.687C128.499 210.587 128.418 210.467 128.363 210.336C128.308 210.204 128.28 210.063 128.28 209.92V173.31C128.28 173.119 128.331 172.931 128.428 172.766C128.525 172.6 128.663 172.464 128.83 172.37L156.33 156.49C156.453 156.419 156.59 156.373 156.731 156.355C156.872 156.337 157.015 156.346 157.153 156.383C157.29 156.421 157.419 156.484 157.532 156.571C157.645 156.658 157.739 156.767 157.81 156.89C157.881 157.013 157.927 157.15 157.945 157.291C157.963 157.432 157.954 157.575 157.917 157.713C157.879 157.85 157.816 157.979 157.729 158.092C157.642 158.205 157.533 158.299 157.41 158.37L130.41 173.93V209.93C130.408 210.208 130.298 210.474 130.105 210.673C129.911 210.873 129.648 210.99 129.37 211V211Z" fill="#5C45BF"/>
<path d="M129.37 324.27C129.179 324.272 128.992 324.22 128.83 324.12C128.663 324.026 128.525 323.89 128.428 323.724C128.331 323.559 128.28 323.371 128.28 323.18V286.59C128.306 286.32 128.431 286.07 128.632 285.887C128.833 285.705 129.094 285.604 129.365 285.604C129.636 285.604 129.897 285.705 130.098 285.887C130.299 286.07 130.424 286.32 130.45 286.59V321.3L156.33 306.37C156.453 306.298 156.588 306.251 156.729 306.232C156.87 306.213 157.014 306.221 157.151 306.258C157.289 306.294 157.418 306.357 157.531 306.443C157.644 306.529 157.739 306.637 157.81 306.76C157.882 306.884 157.928 307.021 157.947 307.163C157.966 307.305 157.956 307.45 157.919 307.588C157.882 307.726 157.818 307.856 157.73 307.97C157.643 308.083 157.534 308.178 157.41 308.25L129.91 324.12C129.748 324.22 129.561 324.272 129.37 324.27Z" fill="#5C45BF"/>
<path d="M241.88 146C241.594 146 241.319 145.886 241.116 145.684C240.914 145.481 240.8 145.206 240.8 144.92V110.23L214.93 125.16C214.681 125.303 214.385 125.342 214.107 125.267C213.83 125.192 213.593 125.009 213.45 124.76C213.307 124.511 213.268 124.215 213.343 123.937C213.418 123.66 213.601 123.423 213.85 123.28L241.34 107.41C241.504 107.316 241.691 107.267 241.88 107.267C242.069 107.267 242.255 107.316 242.42 107.41C242.587 107.504 242.726 107.64 242.822 107.806C242.919 107.971 242.97 108.159 242.97 108.35V144.94C242.965 145.225 242.847 145.496 242.643 145.694C242.439 145.893 242.165 146.003 241.88 146Z" fill="#5C45BF"/>
<path d="M214.39 275.18C214.199 275.182 214.012 275.133 213.847 275.038C213.681 274.943 213.544 274.806 213.45 274.64C213.379 274.517 213.332 274.38 213.314 274.239C213.295 274.098 213.305 273.954 213.342 273.817C213.379 273.679 213.443 273.55 213.53 273.438C213.618 273.325 213.726 273.23 213.85 273.16L240.85 257.6V221.6C240.876 221.33 241.001 221.08 241.202 220.897C241.403 220.715 241.664 220.614 241.935 220.614C242.206 220.614 242.467 220.715 242.668 220.897C242.869 221.08 242.994 221.33 243.02 221.6V258.19C243.02 258.381 242.969 258.569 242.872 258.734C242.776 258.9 242.637 259.036 242.47 259.13L214.93 275C214.768 275.104 214.582 275.165 214.39 275.18V275.18Z" fill="#5C45BF"/>
<path d="M225 235.46L232.38 231.2V211.38C232.31 211.38 232.27 211.38 232.24 211.38L225.33 215.38C224.98 215.58 224.96 215.87 224.96 216.22C224.96 219.12 224.96 222.02 224.96 224.93C224.96 225.4 225.07 225.51 225.43 225.29C226.32 224.74 227.22 224.29 228.12 223.72C228.53 223.46 228.71 223.5 228.7 224.11C228.7 225.32 228.7 226.51 228.7 227.69C228.732 227.893 228.696 228.1 228.598 228.281C228.501 228.461 228.347 228.605 228.16 228.69C227.24 229.19 226.33 229.75 225.41 230.26C225.254 230.335 225.126 230.458 225.045 230.611C224.964 230.764 224.934 230.939 224.96 231.11C224.96 232.56 224.96 234.01 224.96 235.46L221.22 237.62V212.73C220.22 213.3 219.32 213.84 218.41 214.35C217.31 214.98 217.47 215.1 217.41 213.63C217.41 212.42 217.41 211.21 217.41 209.94L213.67 212.1V207.1C212.67 207.61 211.67 208.22 210.67 208.79C209.94 209.21 209.94 209.21 209.94 208.27V205.27C209.94 204.27 209.94 204.27 210.73 203.79L213.65 202.1V197.1C212.56 197.74 211.52 198.31 210.44 198.96C210.06 199.2 209.93 199.1 209.94 198.58C209.94 197.47 209.94 196.38 209.94 195.29C209.94 194.2 209.94 194.29 210.73 193.82L213.68 192.11C213.68 190.57 213.68 189.11 213.68 187.7C213.68 187.15 213.52 187.14 213.16 187.36C212.25 187.92 211.33 188.36 210.42 188.96C210.03 189.2 209.92 189.08 209.93 188.57C209.93 187.34 209.93 186.14 209.93 184.9C209.93 184.38 209.8 184.31 209.42 184.54C208.51 185.1 207.59 185.63 206.68 186.12C206.498 186.207 206.351 186.354 206.262 186.535C206.173 186.716 206.148 186.922 206.19 187.12C206.19 188.35 206.19 189.61 206.19 190.85C206.217 191.007 206.194 191.169 206.124 191.313C206.054 191.457 205.941 191.574 205.8 191.65C204.69 192.27 203.58 192.91 202.47 193.54C202.47 185.72 202.47 177.9 202.47 170.08C202.47 168.67 202.47 168.67 201.39 169.29L198.77 170.8V165.8C199.87 165.17 200.92 164.54 201.98 163.96C202.162 163.871 202.309 163.725 202.399 163.545C202.49 163.364 202.518 163.158 202.48 162.96C202.48 160.09 202.48 157.22 202.48 154.33C202.48 153.79 202.36 153.66 201.95 153.91C201.11 154.43 200.27 154.85 199.43 155.39C198.9 155.73 198.7 155.68 198.71 154.89C198.71 152.14 198.71 149.43 198.71 146.68C198.71 146.03 198.6 145.86 198.08 146.17C194.747 148.117 191.413 150.04 188.08 151.94C187.85 152.043 187.661 152.22 187.543 152.443C187.426 152.666 187.386 152.922 187.43 153.17C187.43 155.91 187.43 158.68 187.43 161.42C187.474 161.671 187.433 161.929 187.314 162.154C187.194 162.378 187.003 162.557 186.77 162.66C185.91 163.11 185.05 163.66 184.19 164.14C183.81 164.37 183.67 164.28 183.68 163.76C183.68 162.58 183.68 161.43 183.68 160.24C183.68 159.65 183.57 159.47 183.1 159.77C182.22 160.32 181.34 160.82 180.47 161.29C180.282 161.373 180.127 161.517 180.03 161.698C179.932 161.879 179.897 162.087 179.93 162.29C179.93 163.49 179.93 164.72 179.93 165.95C179.904 166.23 179.8 166.496 179.63 166.72C178.5 167.41 177.37 168.05 176.18 168.72V158.78C174.98 159.47 173.85 160.11 172.72 160.78C172.57 160.985 172.477 161.227 172.45 161.48C172.45 162.74 172.45 163.99 172.45 165.22C172.491 165.42 172.463 165.627 172.37 165.809C172.277 165.991 172.126 166.136 171.94 166.22C171.03 166.73 170.11 167.29 169.2 167.79C169.017 167.877 168.867 168.022 168.775 168.203C168.683 168.384 168.653 168.59 168.69 168.79C168.69 169.88 168.69 170.98 168.69 172.08C168.69 173.18 168.69 173.08 169.48 172.64C171.48 171.46 173.57 170.27 175.62 169.11C175.8 169.01 176.13 169.04 176.13 169.17C176.13 170.65 176.13 172.17 176.13 173.76C175.02 174.39 173.98 175.02 172.95 175.58C172.751 175.673 172.588 175.83 172.487 176.025C172.386 176.22 172.352 176.443 172.39 176.66C172.39 178.08 172.39 179.52 172.39 180.95L176.11 178.83V183.83L172.52 186V191C173.59 190.39 174.66 189.79 175.73 189.15C176.13 188.91 176.27 188.97 176.26 189.53C176.26 190.98 176.26 192.39 176.26 193.82L180.14 191.65C180.14 193.31 179.98 195 180.08 196.6C182.39 195.27 184.64 193.95 186.94 192.66C187.12 192.55 187.46 192.59 187.47 192.72C187.47 194.2 187.47 195.72 187.47 197.31C183.9 199.38 180.35 201.41 176.79 203.49C176.58 203.61 176.25 203.64 176.25 204.16C176.25 205.67 176.25 207.16 176.25 208.77C177.35 208.13 178.39 207.56 179.42 206.92C179.87 206.65 180.04 206.72 180.02 207.35C180.02 208.54 180.02 209.68 180.02 210.87C180.02 211.51 180.17 211.56 180.62 211.3C182.72 210.06 184.82 208.87 186.92 207.64C187.34 207.39 187.51 207.44 187.5 208.05C187.5 209.23 187.5 210.4 187.5 211.55C187.536 211.77 187.498 211.996 187.391 212.191C187.284 212.387 187.115 212.541 186.91 212.63C186.02 213.12 185.12 213.68 184.23 214.17C184.065 214.249 183.929 214.379 183.842 214.541C183.756 214.703 183.724 214.888 183.75 215.07C183.75 216.21 183.75 217.38 183.75 218.5C183.804 218.763 183.767 219.037 183.645 219.277C183.524 219.516 183.324 219.708 183.08 219.82C182.24 220.25 181.4 220.82 180.56 221.25C180.363 221.343 180.201 221.498 180.1 221.691C179.999 221.884 179.964 222.105 180 222.32C180 225.44 180 228.46 180 231.63L176.26 233.79C176.26 235.22 176.26 236.65 176.26 238.09C176.26 238.61 176.39 238.69 176.77 238.46C177.82 237.83 178.88 237.23 179.99 236.59C180.14 239.59 179.99 242.75 180.05 245.79C180.086 246.005 180.051 246.226 179.95 246.419C179.849 246.612 179.687 246.767 179.49 246.86C178.42 247.45 177.34 248.09 176.27 248.72C176.27 250.12 176.27 251.54 176.27 252.93C176.31 253.154 176.273 253.385 176.164 253.586C176.055 253.786 175.88 253.942 175.67 254.03C174.85 254.47 174.03 255.03 173.21 255.43C172.62 255.71 172.5 256.07 172.52 256.78C172.52 258.09 172.52 259.44 172.52 260.78C173.6 260.18 174.67 259.61 175.74 258.97C176.18 258.7 176.29 258.83 176.29 259.4C176.29 262.21 176.29 265.02 176.29 267.81C176.337 268.057 176.3 268.313 176.186 268.537C176.072 268.761 175.887 268.942 175.66 269.05C173.36 270.37 171.1 271.6 168.81 273.05C168.81 274.5 168.81 275.88 168.81 277.27C168.81 277.82 168.93 277.94 169.34 277.69C170.23 277.14 171.13 276.69 172.03 276.12C172.42 275.88 172.58 275.94 172.57 276.51C172.57 277.72 172.57 278.91 172.57 280.09C172.592 280.292 172.552 280.495 172.456 280.674C172.36 280.853 172.211 280.998 172.03 281.09C171.12 281.59 170.2 282.09 169.29 282.68C169.08 282.852 168.924 283.081 168.84 283.34C168.84 284.84 168.84 286.34 168.84 287.85L176.31 283.54C176.31 282.11 176.31 280.74 176.31 279.39C176.269 279.173 176.3 278.948 176.399 278.751C176.499 278.554 176.661 278.395 176.86 278.3C177.77 277.81 178.69 277.3 179.6 276.72C179.99 276.48 180.11 276.6 180.1 277.11C180.1 278.34 180.1 279.54 180.1 280.77C180.1 281.22 180.17 281.4 180.55 281.17C182.75 279.88 184.94 278.62 187.13 277.37C187.285 277.292 187.411 277.166 187.49 277.012C187.569 276.857 187.597 276.681 187.57 276.51C187.57 275.3 187.57 274.06 187.57 272.86C187.547 272.659 187.585 272.456 187.68 272.278C187.775 272.099 187.921 271.954 188.1 271.86C189 271.37 189.89 270.86 190.79 270.31C191.21 270.05 191.32 270.23 191.31 270.75C191.31 271.88 191.31 272.98 191.31 274.12C191.31 274.86 191.46 274.93 191.99 274.63C195.52 272.52 199.04 270.63 202.57 268.45C202.57 263.77 202.57 259.11 202.57 254.45C202.57 253.81 202.67 253.45 203.2 253.21C204.04 252.78 204.88 252.21 205.72 251.78C205.934 251.692 206.111 251.532 206.221 251.327C206.33 251.123 206.365 250.887 206.32 250.66C206.32 249.46 206.32 248.22 206.32 247.01C206.293 246.829 206.324 246.645 206.408 246.483C206.493 246.321 206.626 246.191 206.79 246.11C207.73 245.6 208.66 245.06 209.59 244.5C209.96 244.27 210.06 244.41 210.06 244.87C210.06 246.15 210.06 247.4 210.06 248.68C210.06 249.13 210.18 249.22 210.5 249.02C211.62 248.36 212.67 247.77 213.8 247.11C213.8 250.37 213.8 253.49 213.8 256.6C213.812 256.748 213.777 256.897 213.7 257.024C213.622 257.152 213.507 257.252 213.37 257.31C212.42 257.86 211.47 258.39 210.52 258.96C210.15 259.18 210.04 259.06 210.05 258.59C210.05 257.36 210.05 256.16 210.05 254.93C210.05 254.44 209.97 254.26 209.56 254.51C208.65 255.07 207.74 255.6 206.82 256.1C206.643 256.195 206.499 256.341 206.406 256.52C206.313 256.698 206.276 256.9 206.3 257.1C206.3 258.21 206.3 259.32 206.3 260.47C206.3 261.18 206.44 261.32 206.97 260.99C207.97 260.35 208.97 259.81 210.04 259.2V264L213.78 261.84C213.78 260.58 213.78 259.39 213.78 258.19C213.78 256.79 213.62 257.02 214.7 256.4C216.7 255.24 218.7 254.07 220.7 252.95C220.919 252.847 221.099 252.675 221.209 252.459C221.319 252.244 221.355 251.998 221.31 251.76C221.16 246.25 222.12 247.46 217.99 249.51C217.83 249.59 217.55 249.51 217.55 249.35C217.55 247.89 217.55 246.4 217.55 244.86C219.81 243.45 222.03 242.26 224.29 240.92C225.05 240.48 225.05 240.48 225.05 239.43C224.92 238.1 224.89 236.86 225 235.46ZM176.31 178.83V173.83C177.56 173.12 178.75 172.36 179.99 171.61C179.99 170.17 180.08 168.7 180.08 167.27C180.051 167.099 180.076 166.924 180.154 166.769C180.231 166.614 180.356 166.489 180.51 166.41C181.51 165.88 182.42 165.33 183.37 164.77C183.71 164.57 183.81 164.69 183.81 165.12C183.81 169.707 183.81 174.293 183.81 178.88C183.834 179.063 183.801 179.248 183.715 179.411C183.629 179.574 183.494 179.707 183.33 179.79C182.41 180.29 181.5 180.79 180.58 181.37C180.2 181.6 180.06 181.52 180.07 181C180.07 179.54 180.07 178.15 180.07 176.71L176.31 178.83ZM183.24 189.77C182.24 190.33 181.24 190.95 180.19 191.55C180.108 191.374 180.044 191.189 180 191C180 189.74 180 188.47 180 187.22C179.97 187.039 179.998 186.853 180.081 186.689C180.163 186.526 180.296 186.393 180.46 186.31C181.39 185.81 182.32 185.31 183.25 184.7C183.64 184.47 183.75 184.62 183.74 185.11C183.74 186.31 183.74 187.51 183.74 188.68C183.782 188.897 183.75 189.121 183.651 189.319C183.551 189.516 183.389 189.674 183.19 189.77H183.24ZM210.34 214L213.66 212.11V217.05C212.47 217.74 211.33 218.41 210.18 219.05C210.1 219.05 209.95 218.9 209.95 218.74C209.95 217.42 209.95 216.07 209.95 214.74C209.93 214.591 209.957 214.44 210.027 214.307C210.097 214.175 210.206 214.067 210.34 214V214ZM202.85 198.38C203.85 197.81 204.78 197.27 205.75 196.69C206.07 196.5 206.21 196.56 206.21 197.01C206.21 198.29 206.21 199.56 206.21 200.82C206.23 200.992 206.197 201.166 206.115 201.318C206.032 201.47 205.905 201.593 205.75 201.67C204.82 202.19 203.88 202.67 202.95 203.29C202.55 203.53 202.46 203.36 202.46 202.87C202.46 201.48 202.46 200.11 202.46 198.73C202.578 198.604 202.709 198.49 202.85 198.39V198.38ZM202.47 209.12C202.444 208.947 202.474 208.771 202.557 208.618C202.64 208.464 202.771 208.342 202.93 208.27C203.41 208.01 203.88 207.73 204.36 207.45C204.84 207.17 205.31 206.92 205.78 206.63C206.09 206.44 206.21 206.54 206.2 206.95C206.2 208.25 206.2 209.54 206.2 210.82C206.222 210.98 206.192 211.143 206.115 211.285C206.037 211.427 205.917 211.541 205.77 211.61C204.77 212.15 203.87 212.69 202.91 213.26C202.59 213.46 202.46 213.37 202.47 212.92C202.48 211.66 202.48 210.39 202.47 209.13V209.12ZM198.73 180.18C198.757 180.349 198.73 180.522 198.653 180.675C198.576 180.827 198.452 180.952 198.3 181.03C197.3 181.57 196.36 182.13 195.4 182.7C195.14 182.85 194.99 182.85 194.99 182.44C194.99 180.94 194.99 179.44 194.99 177.93C196.06 177.31 197.13 176.71 198.2 176.07C198.58 175.84 198.7 175.94 198.69 176.46C198.71 177.72 198.72 179 198.73 180.19V180.18ZM191.23 184.43C191.268 184.628 191.24 184.834 191.149 185.015C191.059 185.195 190.912 185.341 190.73 185.43C189.82 185.93 188.9 186.43 187.99 187.01C187.6 187.24 187.48 187.12 187.49 186.62C187.49 183.73 187.49 180.86 187.49 177.99C187.49 177.67 187.49 177.34 187.83 177.13L195 173V178C194 178.61 192.89 179.27 191.84 179.83C191.608 179.935 191.419 180.116 191.302 180.343C191.186 180.57 191.15 180.83 191.2 181.08C191.25 182.13 191.21 183.3 191.23 184.44V184.43ZM187.49 163C187.451 162.8 187.48 162.593 187.573 162.412C187.665 162.231 187.816 162.086 188 162C188.78 161.57 189.57 161.1 190.36 160.65C191.36 160.08 191.22 160.29 191.22 158.96C191.22 157.96 191.22 156.9 191.22 155.89C191.197 155.689 191.235 155.486 191.33 155.308C191.425 155.129 191.571 154.984 191.75 154.89C192.65 154.4 193.54 153.89 194.44 153.34C194.86 153.08 195.02 153.16 195.01 153.76C195.01 155.22 195.01 156.54 195.01 158L198.73 155.85C198.73 157.45 198.73 158.94 198.73 160.46C198.639 160.712 198.475 160.931 198.26 161.09C195.95 162.45 193.63 163.74 191.32 165.23C191.32 166.67 191.25 168.14 191.25 169.56C191.281 169.742 191.252 169.929 191.168 170.094C191.083 170.258 190.947 170.39 190.78 170.47C189.86 170.97 188.95 171.47 188.04 172.05C187.66 172.28 187.51 172.21 187.52 171.69C187.513 168.783 187.503 165.887 187.49 163ZM180.07 231.51C181.21 230.85 182.35 230.18 183.49 229.51C183.58 229.51 183.74 229.65 183.74 229.8C183.74 231.133 183.74 232.493 183.74 233.88C183.715 234.089 183.624 234.285 183.48 234.44C182.35 235.12 181.23 235.76 180.07 236.44V231.51ZM183.76 273.61C183.785 273.794 183.751 273.981 183.663 274.144C183.575 274.308 183.437 274.439 183.27 274.52C182.34 275.04 181.41 275.58 180.47 276.14C180.15 276.33 180.01 276.26 180.02 275.8C180.02 275.16 180.02 274.54 180.02 273.9C180.02 273.26 180.02 272.6 180.02 271.9C180.073 271.633 180.202 271.387 180.39 271.19C181.39 270.59 182.33 270.06 183.29 269.49C183.64 269.28 183.73 269.44 183.73 269.86C183.75 271.12 183.75 272.36 183.76 273.6V273.61ZM183.76 258.61C183.733 258.885 183.633 259.147 183.47 259.37C182.36 260.05 181.25 260.68 180.05 261.37V258C180.05 256.42 180.05 256.41 181.22 255.74L183.89 254.25C183.761 255.706 183.711 257.168 183.74 258.63L183.76 258.61ZM186.85 252.49C185.85 253.01 184.85 253.64 183.85 254.22C183.708 252.781 183.668 251.334 183.73 249.89C183.73 249.42 183.62 249.3 183.26 249.52C182.33 250.08 181.39 250.62 180.46 251.12C180.31 251.21 180.03 251.12 180.02 250.98C180.02 249.52 180.02 248.03 180.02 246.43L182.91 244.77C183.83 244.23 183.75 244.4 183.75 243.13V234.32L186.19 232.91C187.48 232.16 187.48 232.16 187.48 233.91C187.48 239.68 187.48 245.46 187.48 251.23C187.5 251.91 187.37 252.22 186.83 252.51L186.85 252.49ZM194.47 263.07C190.38 265.19 191.36 266.07 191.25 260.56C191.25 260.08 191.13 259.99 190.78 260.21C186.58 262.48 187.69 263.15 187.5 257.8C187.466 257.583 187.504 257.36 187.609 257.166C187.713 256.973 187.879 256.82 188.08 256.73C190.39 255.42 192.7 254.07 195.02 252.73C195.02 255.81 195.02 258.91 195.02 261.98C195.065 262.202 195.033 262.433 194.929 262.635C194.826 262.836 194.657 262.997 194.45 263.09L194.47 263.07ZM198.75 250.56L195 252.72C195 249.59 195 246.46 195 243.33C194.981 243.171 195.01 243.01 195.086 242.869C195.161 242.727 195.277 242.613 195.42 242.54C196.42 242 197.36 241.44 198.33 240.87C198.58 240.72 198.74 240.71 198.74 241.12C198.72 244.23 198.73 247.35 198.73 250.58L198.75 250.56ZM198.75 234.92C198.773 235.121 198.735 235.324 198.64 235.502C198.546 235.681 198.399 235.826 198.22 235.92C197.33 236.4 196.43 236.92 195.54 237.47C195.14 237.71 194.98 237.66 195 237.09C195 235.87 195 234.7 195 233.49C195 232.95 194.9 232.82 194.48 233.07C193.57 233.64 192.65 234.07 191.74 234.68C191.37 234.9 191.21 234.84 191.22 234.31C191.22 233.06 191.22 231.82 191.22 230.58C191.193 230.398 191.227 230.213 191.315 230.052C191.404 229.892 191.542 229.764 191.71 229.69C192.66 229.16 193.61 228.59 194.57 228.05C194.716 227.983 194.836 227.871 194.913 227.731C194.991 227.59 195.021 227.429 195 227.27C195 225.85 195 224.4 195 222.88C192.69 224.08 190.39 225.5 188.08 226.83C187.63 227.09 187.47 227.01 187.48 226.39C187.48 225.18 187.48 223.99 187.48 222.8C187.441 222.6 187.47 222.393 187.563 222.212C187.655 222.031 187.806 221.886 187.99 221.8C188.88 221.3 189.78 220.8 190.68 220.26C190.868 220.176 191.023 220.033 191.121 219.852C191.218 219.671 191.253 219.463 191.22 219.26C191.22 212.86 191.29 206.36 191.16 200C190.1 200.62 189.08 201.18 188.06 201.81C187.6 202.09 187.46 201.97 187.47 201.36C187.47 199.98 187.47 198.63 187.47 197.17L194.98 192.84V188.84C194.98 187.84 194.98 187.84 195.72 187.42C196.46 187 197.37 186.5 198.19 185.99C198.61 185.73 198.72 185.87 198.71 186.4C198.71 189.51 198.71 192.54 198.71 195.65L202.44 193.5V198.67C202.32 198.686 202.203 198.716 202.09 198.76C199.74 200.16 197.39 201.38 195.04 202.89V207.81L197.95 206.13C198.74 205.68 198.74 205.68 198.74 206.7V220.7C201.06 219.35 203.34 218.06 205.66 216.7C206.08 216.45 206.24 216.5 206.22 217.11C206.22 218.27 206.22 219.42 206.22 220.55C206.266 220.787 206.231 221.032 206.12 221.246C206.01 221.46 205.83 221.631 205.61 221.73C203.31 223.02 201.05 224.35 198.74 225.68C198.73 228.8 198.72 231.86 198.74 234.94L198.75 234.92ZM213.67 237C210.12 239.06 206.6 241.08 203.05 243.15C202.6 243.41 202.46 243.34 202.46 242.72C202.46 238.247 202.46 233.783 202.46 229.33C202.421 229.093 202.462 228.849 202.576 228.638C202.69 228.426 202.871 228.258 203.09 228.16C206.423 226.267 209.757 224.347 213.09 222.4C213.58 222.11 213.71 222.22 213.71 222.86C213.66 227.59 213.68 232.27 213.67 237ZM150.58 253.5C150.21 253.72 150.06 253.67 150.06 253.15C150.06 250.24 150.06 247.35 150.06 244.46C150.035 244.261 150.071 244.06 150.162 243.882C150.252 243.703 150.395 243.556 150.57 243.46C152.75 242.22 154.923 240.967 157.09 239.7C157.48 239.47 157.58 239.6 157.58 240.1C157.58 241.56 157.58 243 157.58 244.45C159.87 243.13 162.16 241.79 164.45 240.5C164.662 240.412 164.838 240.254 164.947 240.051C165.057 239.849 165.093 239.616 165.05 239.39C165.05 238.01 165.05 236.6 165.05 235.2C162.56 236.39 160.05 238.11 157.58 239.38C157.58 237.9 157.58 236.5 157.58 235.08C157.58 234.6 157.46 234.5 157.11 234.71C156.19 235.26 155.28 235.71 154.37 236.31C153.95 236.56 153.83 236.44 153.83 235.9C153.83 232.79 153.83 229.77 153.83 226.65C151.52 227.99 149.25 229.28 146.94 230.65C146.46 230.94 146.3 230.82 146.32 230.17C146.32 229.01 146.32 227.86 146.32 226.73C146.274 226.504 146.308 226.269 146.415 226.065C146.523 225.861 146.698 225.7 146.91 225.61C150.46 223.55 154.01 221.61 157.56 219.42C157.56 216.22 157.56 213.11 157.56 209.99C157.56 209.58 157.39 209.6 157.14 209.75C156.14 210.31 155.2 210.88 154.23 211.42C154.087 211.493 153.97 211.61 153.896 211.754C153.823 211.897 153.796 212.06 153.82 212.22C153.82 213.72 153.82 215.12 153.82 216.65L151.34 218.09C150.05 218.83 150.05 218.83 150.05 217.09V213.83C148.95 214.47 147.95 215.08 146.95 215.61C146.42 215.88 146.3 216.21 146.3 216.85C146.3 219.85 146.37 222.85 146.3 225.97L138.93 230.23C138.82 231.77 138.93 233.12 138.87 234.62C138.87 235.2 139.03 235.23 139.42 234.99C140.34 234.44 141.25 233.99 142.17 233.4C142.5 233.2 142.62 233.3 142.62 233.74C142.62 234.99 142.62 236.24 142.62 237.47C142.648 237.664 142.611 237.862 142.515 238.034C142.419 238.206 142.27 238.341 142.09 238.42C141.22 238.91 140.34 239.42 139.46 239.92C139.252 240.019 139.083 240.182 138.976 240.386C138.87 240.59 138.833 240.823 138.87 241.05C138.87 244.05 138.82 247.19 138.87 250.2C139.97 249.57 141.01 248.95 142.1 248.36C142.25 248.27 142.53 248.36 142.53 248.44C142.53 249.95 142.53 251.44 142.53 253.11L138.87 255.22V260.22C139.97 259.58 141.01 259 142.05 258.37C142.44 258.14 142.56 258.25 142.55 258.75C142.55 260.01 142.55 261.24 142.55 262.49C142.55 262.92 142.66 263.04 143 262.84C143.947 262.273 144.897 261.723 145.85 261.19C146.004 261.108 146.129 260.98 146.207 260.824C146.286 260.669 146.315 260.493 146.29 260.32C146.29 258.88 146.29 257.44 146.29 255.97L149.96 253.85C150.01 255.25 149.96 256.66 149.96 258.09C149.96 258.58 150.05 258.75 150.45 258.51C151.39 257.94 152.32 257.4 153.25 256.89C153.435 256.805 153.586 256.66 153.677 256.478C153.768 256.296 153.794 256.089 153.75 255.89C153.75 254.47 153.75 253.03 153.75 251.59C152.76 252.25 151.67 252.86 150.58 253.5ZM146.33 255.94C145.14 256.63 144.02 257.29 142.89 257.94C142.8 257.94 142.62 257.83 142.62 257.69C142.62 256.22 142.62 254.69 142.62 253.15C143.81 252.46 144.91 251.82 146 251.22C146.12 251.15 146.32 251.29 146.33 251.44C146.34 252.87 146.33 254.36 146.33 255.94ZM149.56 239.1C148.81 239.51 148.06 239.95 147.31 240.39C146.22 241.04 146.31 240.78 146.31 242.23C146.31 243.23 146.31 244.28 146.31 245.29C146.338 245.474 146.306 245.663 146.22 245.828C146.134 245.994 145.997 246.127 145.83 246.21C144.9 246.73 143.97 247.21 143.04 247.82C142.68 248.04 142.57 247.91 142.57 247.45C142.57 245.98 142.57 244.52 142.57 243.06C142.57 241.6 142.57 240.28 142.57 238.9C142.529 238.683 142.56 238.458 142.659 238.261C142.759 238.064 142.921 237.905 143.12 237.81C145.25 236.61 147.39 235.37 149.52 234.12C149.89 233.9 150.05 233.95 150.04 234.48C150.04 235.71 150.04 236.93 150.04 238.13C150.073 238.322 150.044 238.519 149.958 238.693C149.872 238.867 149.732 239.01 149.56 239.1V239.1ZM206.92 176.1L232.38 161.4V127.48C232.38 126.48 232.38 126.48 231.61 126.9L206.92 141.15C206.2 141.56 206.2 141.57 206.2 142.52V175.52C206.2 176.47 206.2 176.47 206.92 176.06V176.1ZM210.57 144C216.37 140.667 222.167 137.333 227.96 134C228.54 133.67 228.66 133.87 228.65 134.58C228.65 138.44 228.65 142.29 228.65 146.14C228.65 149.99 228.65 153.85 228.65 157.69C228.696 157.95 228.654 158.218 228.531 158.451C228.408 158.685 228.21 158.871 227.97 158.98C222.17 162.313 216.373 165.647 210.58 168.98C210.09 169.26 209.92 169.2 209.92 168.51C209.92 160.75 209.92 152.997 209.92 145.25C209.876 144.999 209.916 144.741 210.034 144.515C210.151 144.289 210.34 144.108 210.57 144ZM139.57 215C147.843 210.213 156.11 205.437 164.37 200.67C165.09 200.26 165.09 200.26 165.09 199.3V166.3C165.09 165.35 165.09 165.35 164.37 165.76C155.89 170.69 147.37 175.48 138.94 180.48C138.86 191.86 138.94 203.13 138.94 214.48C138.86 215.17 139 215.28 139.53 215H139.57ZM142.64 184.08C142.606 183.851 142.646 183.617 142.754 183.412C142.862 183.207 143.032 183.042 143.24 182.94C149.093 179.607 154.943 176.23 160.79 172.81C161.26 172.53 161.36 172.72 161.36 173.29C161.36 177.23 161.36 181.15 161.36 185.07C161.36 188.99 161.36 192.78 161.36 196.62C161.399 196.858 161.359 197.103 161.245 197.317C161.131 197.53 160.95 197.7 160.73 197.8C154.903 201.133 149.073 204.5 143.24 207.9C142.8 208.16 142.63 208.1 142.63 207.48C142.623 199.653 142.613 191.843 142.6 184.05L142.64 184.08ZM164.43 255.5C155.93 260.427 147.433 265.337 138.94 270.23C138.85 281.63 138.94 292.91 138.94 304.28C138.94 304.98 139.08 305.09 139.61 304.78C148.117 299.853 156.623 294.94 165.13 290.04C165.13 278.707 165.13 267.373 165.13 256.04C165.06 255.27 164.92 255.16 164.39 255.47L164.43 255.5ZM160.73 287.59C154.91 290.923 149.097 294.28 143.29 297.66C142.77 297.96 142.63 297.82 142.64 297.16C142.64 289.42 142.64 281.69 142.64 273.97C142.591 273.71 142.63 273.44 142.752 273.205C142.873 272.969 143.07 272.781 143.31 272.67C146.23 271.01 149.16 269.31 152.08 267.62C155 265.93 157.86 264.3 160.75 262.62C161.24 262.33 161.37 262.46 161.36 263.1C161.36 270.88 161.36 278.657 161.36 286.43C161.382 286.665 161.328 286.901 161.208 287.103C161.088 287.306 160.907 287.466 160.69 287.56L160.73 287.59ZM232.38 171.35L228.69 173.48C228.69 171.97 228.69 170.57 228.69 169.15C228.69 168.68 228.58 168.56 228.21 168.78C227.28 169.34 226.35 169.88 225.42 170.39C225.253 170.475 225.117 170.611 225.033 170.778C224.948 170.945 224.919 171.135 224.95 171.32C224.95 172.55 224.95 173.79 224.95 175.05C224.95 175.53 225.07 175.61 225.42 175.4C226.34 174.84 227.25 174.4 228.17 173.79C228.59 173.53 228.7 173.68 228.69 174.21C228.69 175.42 228.69 176.62 228.69 177.79C228.721 177.994 228.684 178.202 228.584 178.383C228.485 178.564 228.329 178.707 228.14 178.79C225.82 180.11 223.56 181.43 221.23 182.79C221.23 184.4 221.23 185.93 221.23 187.44C221.23 187.57 221.5 187.63 221.64 187.55C222.5 187.09 223.36 186.55 224.22 186.08C225.08 185.61 224.93 185.68 224.93 186.65C224.93 189.41 224.93 192.16 224.93 194.92C224.93 195.46 225.06 195.58 225.47 195.33C226.35 194.79 227.23 194.33 228.1 193.79C228.53 193.53 228.69 193.61 228.68 194.2C228.68 195.32 228.68 196.42 228.68 197.49C228.741 197.761 228.705 198.046 228.579 198.294C228.453 198.542 228.245 198.738 227.99 198.85C225.72 200.08 223.48 201.51 221.21 202.71C221.21 199.64 221.21 196.64 221.21 193.57C221.21 192.95 221.07 192.84 220.62 193.13C219.74 193.67 218.86 194.13 217.98 194.65C217.785 194.742 217.625 194.896 217.524 195.087C217.423 195.278 217.386 195.496 217.42 195.71C217.42 198.77 217.36 201.88 217.42 204.91C218.66 204.16 219.85 203.54 221.08 202.91C221.08 204.54 221.17 206.08 221.15 207.78C222.23 207.15 223.22 206.63 224.15 205.99C224.74 205.61 224.87 205.82 224.84 206.55C224.84 207.72 224.84 208.84 224.84 210C224.84 210.42 224.93 210.56 225.28 210.35C226.28 209.78 227.18 209.23 228.13 208.71C228.285 208.631 228.411 208.505 228.492 208.351C228.572 208.197 228.603 208.022 228.58 207.85C228.58 206.71 228.58 205.56 228.58 204.41C228.58 203.47 228.58 203.46 229.3 203.05L232.24 201.35C232.41 196.46 232.24 191.73 232.31 186.89C232.31 186.42 232.16 186.4 231.85 186.59C230.93 187.13 230.02 187.59 229.1 188.18C228.69 188.43 228.56 188.3 228.57 187.76C228.57 186.55 228.57 185.36 228.57 184.18C228.531 183.98 228.56 183.773 228.653 183.592C228.745 183.411 228.896 183.266 229.08 183.18C229.94 182.71 230.8 182.18 231.66 181.71C231.891 181.61 232.082 181.436 232.202 181.214C232.321 180.993 232.363 180.738 232.32 180.49C232.33 177.45 232.43 174.35 232.34 171.32L232.38 171.35ZM172.5 230.89C172.5 229.68 172.5 228.47 172.5 227.26C172.5 225.84 172.5 225.84 173.57 225.26L176.2 223.75V213.82L172.62 215.89C172.548 215.96 172.488 216.041 172.44 216.13C172.472 216.203 172.492 216.281 172.5 216.36C172.5 219.36 172.5 222.36 172.5 225.36C172.523 225.519 172.493 225.681 172.416 225.822C172.338 225.963 172.217 226.074 172.07 226.14C171.07 226.68 170.17 227.22 169.22 227.79C168.86 228 168.75 227.88 168.75 227.41C168.75 226.18 168.75 224.98 168.75 223.75C168.75 223.25 168.65 223.12 168.26 223.35C166.1 224.61 163.95 225.85 161.79 227.08C161.606 227.166 161.455 227.311 161.363 227.492C161.27 227.673 161.241 227.88 161.28 228.08C161.28 229.29 161.28 230.51 161.28 231.73C161.28 232.25 161.4 232.36 161.78 232.12C162.69 231.57 163.61 231.12 164.52 230.53C164.91 230.29 165.03 230.42 165.02 230.92C165.02 232.38 165.02 233.83 165.02 235.28C167.54 233.66 170 232.29 172.5 230.89ZM229.22 242.99C230.12 242.52 231.01 241.99 231.91 241.46C232.075 241.377 232.209 241.245 232.293 241.081C232.378 240.918 232.408 240.732 232.38 240.55C232.38 239.3 232.38 238.03 232.38 236.75C232.38 236.34 232.27 236.25 231.97 236.44C230.97 237.01 230.03 237.57 229.06 238.11C228.908 238.193 228.786 238.321 228.71 238.477C228.635 238.634 228.611 238.809 228.64 238.98C228.64 240.2 228.64 241.43 228.64 242.63C228.662 242.832 228.622 243.035 228.526 243.214C228.429 243.393 228.281 243.538 228.1 243.63C227.2 244.12 226.31 244.63 225.41 245.17C225.232 245.25 225.085 245.387 224.991 245.558C224.897 245.729 224.862 245.927 224.89 246.12C224.89 248.993 224.89 251.87 224.89 254.75C224.89 255.32 225.05 255.36 225.44 255.12C226.5 254.48 227.56 253.89 228.62 253.28L231.91 251.38C232.067 251.311 232.198 251.193 232.281 251.043C232.364 250.893 232.395 250.72 232.37 250.55C232.37 249.29 232.37 248.02 232.37 246.74C232.37 246.25 232.23 246.2 231.89 246.41C230.97 246.96 230.06 247.41 229.14 248C228.77 248.23 228.62 248.13 228.63 247.62C228.63 246.44 228.63 245.27 228.63 244.11C228.596 243.886 228.634 243.657 228.741 243.457C228.847 243.257 229.015 243.096 229.22 243V242.99ZM172.52 206.43C172.509 206.265 172.485 206.101 172.45 205.94L169.14 207.85C168.78 208.05 168.78 208.35 168.78 208.68C168.78 211.59 168.78 214.48 168.78 217.39C168.78 217.97 168.95 217.99 169.33 217.76C170.312 217.1 171.361 216.547 172.46 216.11C172.497 215.908 172.52 215.705 172.53 215.5L172.52 206.43ZM175.78 243.95L168.78 247.95C168.78 249.38 168.78 250.8 168.78 252.24C168.78 252.8 168.93 252.85 169.32 252.62C171.63 251.27 173.94 249.94 176.24 248.62C176.24 247.16 176.24 245.71 176.24 244.24C176.27 243.76 176.12 243.73 175.78 243.93V243.95ZM164.67 215.4C163.67 215.99 162.67 216.55 161.67 217.11C161.536 217.175 161.426 217.28 161.354 217.411C161.282 217.542 161.253 217.692 161.27 217.84C161.27 219.17 161.27 220.51 161.27 221.84C161.27 222.28 161.43 222.29 161.71 222.12C162.2 221.82 162.71 221.55 163.19 221.26C163.67 220.97 164.19 220.75 164.61 220.42C164.801 220.228 164.933 219.985 164.99 219.72C164.99 218.37 164.99 217.04 164.99 215.72C165.05 215.32 165 215.21 164.67 215.38V215.4ZM142.21 218.4C141.21 218.93 140.21 219.5 139.21 220.1C139.03 220.271 138.901 220.489 138.84 220.73C138.84 222.23 138.84 223.73 138.84 225.29C140.03 224.6 141.14 223.97 142.25 223.29C142.412 223.123 142.517 222.91 142.55 222.68C142.55 221.33 142.55 219.99 142.55 218.68C142.58 218.52 142.35 218.34 142.21 218.41V218.4ZM172.52 200.27C172.52 200.69 172.59 200.85 172.94 200.64C173.94 200.07 174.87 199.51 175.84 198.97C175.984 198.898 176.101 198.784 176.177 198.642C176.252 198.501 176.281 198.339 176.26 198.18C176.26 196.72 176.26 195.24 176.26 193.77L172.55 195.92C172.52 197.38 172.53 198.82 172.52 200.28V200.27ZM164.63 205.43L161.73 207.11C161.586 207.183 161.468 207.3 161.392 207.443C161.317 207.586 161.288 207.749 161.31 207.91C161.31 209.22 161.31 210.53 161.31 211.85C161.31 212.24 161.44 212.28 161.71 212.12C162.71 211.54 163.71 210.97 164.66 210.41C164.793 210.344 164.903 210.239 164.972 210.108C165.042 209.977 165.07 209.827 165.05 209.68C165.05 209.03 165.05 208.37 165.05 207.68C165.05 206.99 165.05 206.37 165.05 205.68C165.06 205.33 164.93 205.26 164.63 205.44V205.43ZM153.91 246.62V251.57L157.63 249.43V244.43L153.91 246.62ZM169.19 182.92C169.047 182.994 168.93 183.111 168.854 183.254C168.779 183.397 168.75 183.56 168.77 183.72C168.77 184.98 168.77 186.23 168.77 187.51C168.77 188.05 168.94 188.06 169.29 187.85C170.36 187.21 171.43 186.61 172.5 186V181C171.4 181.64 170.29 182.28 169.19 182.89V182.92ZM169.28 192.8C169.094 192.884 168.943 193.029 168.85 193.211C168.757 193.392 168.729 193.6 168.77 193.8C168.77 195.007 168.77 196.227 168.77 197.46C168.77 197.99 168.91 198.06 169.28 197.83C170.35 197.19 171.43 196.58 172.5 195.96V190.96C171.43 191.58 170.35 192.21 169.28 192.8V192.8ZM217 175.21C216 175.78 215.06 176.34 214.09 176.88C213.947 176.953 213.831 177.067 213.756 177.209C213.68 177.35 213.651 177.511 213.67 177.67C213.67 178.98 213.67 180.31 213.67 181.61C213.67 181.78 213.84 181.98 213.93 181.93C215.06 181.32 216.19 180.65 217.38 179.93C217.38 178.34 217.38 176.93 217.38 175.42C217.41 175.05 217.26 175.06 217 175.21ZM168.78 263.38C168.78 264.74 168.78 266.11 168.78 267.46C168.78 267.6 168.96 267.75 169.06 267.7C170.19 267.08 171.32 266.41 172.47 265.75V260.75L169.25 262.65C169.101 262.701 168.974 262.801 168.888 262.933C168.803 263.066 168.765 263.223 168.78 263.38V263.38ZM209.57 229.38C209.08 229.61 208.57 229.93 208.09 230.21C207.61 230.49 207.09 230.79 206.61 231.06C206.475 231.125 206.363 231.23 206.29 231.36C206.217 231.491 206.185 231.641 206.2 231.79C206.2 233.12 206.2 234.47 206.2 235.79C206.2 235.95 206.42 236.11 206.54 236.05C207.54 235.51 208.54 234.93 209.54 234.31C209.713 234.126 209.831 233.897 209.88 233.65C209.88 232.3 209.88 230.96 209.88 229.65C209.91 229.52 209.7 229.36 209.57 229.42V229.38ZM171.94 241.13C172.149 241.041 172.321 240.883 172.428 240.683C172.535 240.483 172.571 240.253 172.53 240.03C172.53 238.65 172.53 237.24 172.53 235.84L176.24 233.67V228.73L172.53 230.87C172.53 232.52 172.53 234.17 172.53 235.87C171.46 236.48 170.39 237.12 169.32 237.7C169.143 237.795 168.999 237.941 168.906 238.12C168.813 238.298 168.776 238.5 168.8 238.7C168.8 240.11 168.8 241.55 168.8 242.98L157.62 249.45C157.62 250.9 157.62 252.36 157.62 253.82C157.62 254.32 157.76 254.35 158.1 254.15L168.82 247.95C168.82 246.29 168.82 244.64 168.82 242.95C169.84 242.39 170.89 241.75 171.94 241.17V241.13ZM214.31 161.79C217.84 159.73 221.31 157.72 224.87 155.68C224.98 150.91 224.87 146.29 224.93 141.55C224.93 140.83 224.76 140.74 224.24 141.05C220.71 143.16 217.24 145.05 213.67 147.22C213.67 151.93 213.67 156.6 213.67 161.32C213.66 162.05 213.82 162.12 214.31 161.83V161.79ZM146.31 200.29C146.31 200.86 146.43 200.98 146.87 200.72C148.57 199.72 150.27 198.72 151.97 197.72C153.67 196.72 155.3 195.78 156.97 194.85C157.18 194.762 157.355 194.606 157.464 194.406C157.573 194.205 157.61 193.974 157.57 193.75C157.57 189.25 157.57 184.75 157.57 180.22C157.57 179.68 157.45 179.57 157.04 179.8C153.64 181.8 150.24 183.763 146.84 185.69C146.663 185.785 146.519 185.931 146.426 186.11C146.333 186.288 146.296 186.49 146.32 186.69C146.34 191.31 146.34 195.81 146.33 200.33L146.31 200.29ZM157 269.73C153.47 271.8 150 273.81 146.42 275.85C146.32 280.62 146.42 285.24 146.37 289.97C146.37 290.67 146.51 290.81 147.05 290.49C150.58 288.38 154.05 286.49 157.62 284.32C157.62 279.61 157.62 274.94 157.62 270.23C157.59 269.56 157.46 269.43 157 269.73Z" fill="#263238"/>
<path d="M150.35 351.47C150.382 350.461 150.502 349.457 150.71 348.47C150.914 347.515 151.222 346.587 151.63 345.7C152.032 344.844 152.543 344.044 153.15 343.32C153.76 342.599 154.491 341.99 155.31 341.52C155.946 341.097 156.687 340.859 157.45 340.83C157.732 340.828 158.011 340.882 158.272 340.988C158.533 341.095 158.77 341.252 158.97 341.45C159.411 341.935 159.73 342.517 159.9 343.15C160.124 343.979 160.248 344.832 160.27 345.69C160.27 346.01 160.27 346.37 160.27 346.77C160.27 347.17 160.27 347.57 160.27 348C160.27 348.43 160.27 348.83 160.27 349.23C160.27 349.63 160.27 350 160.27 350.34C160.231 351.294 160.118 352.244 159.93 353.18C159.745 354.103 159.456 355.002 159.07 355.86L160.34 357.93C160.354 357.999 160.354 358.071 160.34 358.14C160.353 358.303 160.318 358.466 160.24 358.61C160.184 358.735 160.094 358.843 159.98 358.92L158.38 359.84C158.18 359.94 158.03 359.94 157.93 359.84C157.84 359.74 157.76 359.65 157.71 359.58L157.17 358.7C156.89 358.997 156.589 359.275 156.27 359.53C155.957 359.784 155.622 360.012 155.27 360.21C154.626 360.633 153.88 360.878 153.11 360.92C152.542 360.919 151.997 360.697 151.59 360.3C151.145 359.82 150.828 359.235 150.67 358.6C150.452 357.773 150.331 356.924 150.31 356.07C150.31 355.74 150.31 355.38 150.31 354.99C150.31 354.6 150.31 354.19 150.31 353.76C150.31 353.33 150.31 352.92 150.31 352.52C150.31 352.12 150.34 351.8 150.35 351.47ZM157.99 347.19C158.063 346.302 157.783 345.422 157.21 344.74C156.73 344.34 156.1 344.36 155.31 344.81C154.48 345.312 153.819 346.05 153.41 346.93C152.91 347.977 152.644 349.12 152.63 350.28C152.63 350.95 152.63 351.69 152.63 352.5C152.63 353.31 152.63 354.03 152.63 354.67C152.59 355.107 152.638 355.547 152.772 355.964C152.906 356.382 153.123 356.768 153.41 357.1C153.89 357.5 154.52 357.47 155.31 357.02C156.137 356.519 156.798 355.785 157.21 354.91C157.708 353.866 157.975 352.727 157.99 351.57C157.99 350.9 157.99 350.16 157.99 349.36C157.99 348.56 158 347.83 158 347.19H157.99Z" fill="#FAFAFA"/>
<path d="M167.32 334.89C168.73 334.08 169.79 333.97 170.52 334.55C171.25 335.13 171.62 336.31 171.62 338.1C171.627 339.309 171.438 340.511 171.06 341.66C170.694 342.737 170.127 343.734 169.39 344.6L171.72 349.67C171.756 349.752 171.773 349.841 171.77 349.93C171.771 350.09 171.733 350.248 171.66 350.39C171.612 350.523 171.521 350.636 171.4 350.71L169.97 351.54C169.74 351.67 169.58 351.69 169.47 351.54C169.373 351.45 169.295 351.341 169.24 351.22L167 346.48L164.76 347.78V353.83C164.756 354.028 164.709 354.223 164.62 354.4C164.558 354.561 164.446 354.697 164.3 354.79L162.94 355.58C162.896 355.619 162.839 355.641 162.78 355.641C162.721 355.641 162.664 355.619 162.62 355.58C162.569 355.523 162.531 355.457 162.507 355.384C162.483 355.312 162.474 355.236 162.48 355.16V338.37C162.484 338.172 162.531 337.977 162.62 337.8C162.685 337.638 162.796 337.499 162.94 337.4L167.32 334.89ZM164.79 344.53L167.23 343.12C167.845 342.779 168.372 342.3 168.77 341.72C169.184 341.023 169.382 340.219 169.34 339.41C169.34 338.41 169.15 337.9 168.77 337.8C168.226 337.725 167.673 337.865 167.23 338.19L164.79 339.6V344.53Z" fill="#FAFAFA"/>
<path d="M184.91 337.15C184.923 336.936 184.984 336.727 185.09 336.54C185.161 336.398 185.268 336.277 185.4 336.19L186.77 335.4C186.817 335.364 186.875 335.344 186.935 335.344C186.995 335.344 187.053 335.364 187.1 335.4C187.151 335.458 187.189 335.527 187.21 335.601C187.23 335.676 187.234 335.754 187.22 335.83C187.179 336.616 187.065 337.396 186.88 338.16C186.672 339.005 186.37 339.823 185.98 340.6C185.562 341.423 185.045 342.192 184.44 342.89C183.8 343.623 183.043 344.245 182.2 344.73C181.584 345.129 180.873 345.357 180.14 345.39C179.574 345.389 179.03 345.171 178.62 344.78C178.141 344.308 177.796 343.718 177.62 343.07C177.371 342.211 177.233 341.324 177.21 340.43C177.21 339.78 177.21 339.06 177.21 338.27C177.21 337.48 177.21 336.74 177.21 336.06C177.25 335.01 177.388 333.965 177.62 332.94C177.845 331.962 178.181 331.013 178.62 330.11C179.022 329.261 179.533 328.468 180.14 327.75C180.721 327.053 181.418 326.461 182.2 326C182.871 325.564 183.642 325.306 184.44 325.25C184.998 325.238 185.543 325.422 185.98 325.77C186.405 326.148 186.716 326.636 186.88 327.18C187.076 327.803 187.19 328.448 187.22 329.1C187.23 329.3 187.189 329.5 187.1 329.68C187.024 329.833 186.911 329.964 186.77 330.06L185.4 330.85C185.352 330.879 185.296 330.895 185.24 330.895C185.184 330.895 185.128 330.879 185.08 330.85C184.98 330.8 184.92 330.66 184.9 330.45C184.867 330.146 184.786 329.849 184.66 329.57C184.549 329.329 184.372 329.124 184.15 328.98C183.904 328.841 183.621 328.781 183.34 328.81C182.935 328.871 182.547 329.014 182.2 329.23C181.76 329.492 181.37 329.83 181.05 330.23C180.72 330.629 180.445 331.069 180.23 331.54C180.001 332.031 179.833 332.548 179.73 333.08C179.611 333.623 179.541 334.175 179.52 334.73C179.52 335.4 179.52 336.13 179.52 336.93C179.52 337.73 179.52 338.45 179.52 339.09C179.531 339.574 179.602 340.054 179.73 340.52C179.813 340.871 179.985 341.195 180.23 341.46C180.448 341.68 180.741 341.808 181.05 341.82C181.46 341.816 181.861 341.691 182.2 341.46C182.625 341.222 183.01 340.918 183.34 340.56C183.653 340.221 183.928 339.849 184.16 339.45C184.372 339.075 184.547 338.68 184.68 338.27C184.794 337.905 184.871 337.53 184.91 337.15V337.15Z" fill="#FAFAFA"/>
<path d="M188.79 329.27C188.83 328.278 188.951 327.292 189.15 326.32C189.355 325.369 189.664 324.444 190.07 323.56C190.472 322.704 190.983 321.904 191.59 321.18C192.197 320.453 192.929 319.841 193.75 319.37C194.39 318.956 195.129 318.718 195.89 318.68C196.173 318.677 196.453 318.731 196.715 318.839C196.976 318.947 197.213 319.107 197.41 319.31C197.86 319.788 198.18 320.373 198.34 321.01C198.569 321.838 198.694 322.691 198.71 323.55C198.71 323.87 198.71 324.23 198.71 324.62C198.71 325.01 198.71 325.43 198.71 325.85C198.71 326.27 198.71 326.69 198.71 327.09C198.71 327.49 198.71 327.86 198.71 328.2C198.68 329.189 198.559 330.173 198.35 331.14C198.146 332.094 197.838 333.023 197.43 333.91C197.027 334.764 196.513 335.561 195.9 336.28C195.293 336.997 194.566 337.603 193.75 338.07C193.105 338.491 192.36 338.733 191.59 338.77C191.308 338.772 191.029 338.718 190.768 338.611C190.507 338.505 190.27 338.348 190.07 338.15C189.621 337.673 189.304 337.087 189.15 336.45C188.936 335.623 188.816 334.774 188.79 333.92C188.79 333.6 188.79 333.24 188.79 332.85C188.79 332.46 188.79 332.04 188.79 331.62C188.79 331.2 188.79 330.78 188.79 330.38C188.79 329.98 188.78 329.61 188.79 329.27ZM196.43 324.99C196.469 324.552 196.42 324.11 196.287 323.691C196.153 323.272 195.936 322.884 195.65 322.55C195.17 322.14 194.54 322.16 193.75 322.62C192.918 323.12 192.256 323.858 191.85 324.74C191.354 325.788 191.089 326.93 191.07 328.09C191.07 328.76 191.07 329.5 191.07 330.3C191.07 331.1 191.07 331.83 191.07 332.48C191.032 332.916 191.082 333.356 191.216 333.773C191.35 334.191 191.565 334.577 191.85 334.91C192.33 335.31 192.96 335.28 193.75 334.82C194.579 334.325 195.241 333.594 195.65 332.72C196.15 331.677 196.417 330.537 196.43 329.38C196.43 328.71 196.43 327.97 196.43 327.17C196.43 326.37 196.45 325.64 196.43 325V324.99Z" fill="#FAFAFA"/>
<path d="M205.56 312.81C206.213 312.391 206.957 312.137 207.73 312.07C208.01 312.051 208.291 312.091 208.555 312.187C208.818 312.284 209.059 312.434 209.26 312.63C209.726 313.102 210.051 313.694 210.2 314.34C210.443 315.23 210.578 316.147 210.6 317.07C210.653 318.33 210.653 319.61 210.6 320.91C210.562 321.983 210.428 323.051 210.2 324.1C210.001 325.066 209.689 326.006 209.27 326.9C208.875 327.738 208.367 328.519 207.76 329.22C207.152 329.907 206.436 330.492 205.64 330.95L201.39 333.4C201.345 333.437 201.289 333.458 201.23 333.458C201.172 333.458 201.115 333.437 201.07 333.4C201.022 333.342 200.985 333.275 200.963 333.203C200.941 333.131 200.933 333.055 200.94 332.98V316.18C200.94 315.983 200.984 315.788 201.07 315.61C201.135 315.451 201.247 315.315 201.39 315.22L205.56 312.81ZM208.32 318.39C208.309 317.906 208.238 317.426 208.11 316.96C208.023 316.606 207.843 316.282 207.59 316.02C207.474 315.91 207.337 315.825 207.188 315.768C207.039 315.711 206.88 315.685 206.72 315.69C206.275 315.721 205.844 315.866 205.47 316.11L203.21 317.41V329.1L205.56 327.75C206.012 327.484 206.417 327.146 206.76 326.75C207.093 326.349 207.375 325.909 207.6 325.44C207.827 324.947 207.998 324.431 208.11 323.9C208.23 323.347 208.301 322.785 208.32 322.22C208.373 320.92 208.373 319.643 208.32 318.39Z" fill="#FAFAFA"/>
<path d="M220.67 319C220.714 318.961 220.771 318.939 220.83 318.939C220.889 318.939 220.946 318.961 220.99 319C221.041 319.055 221.08 319.119 221.104 319.19C221.128 319.261 221.137 319.336 221.13 319.41V321.25C221.127 321.451 221.079 321.649 220.99 321.83C220.928 321.991 220.816 322.127 220.67 322.22L213.27 326.49C213.226 326.529 213.169 326.551 213.11 326.551C213.051 326.551 212.994 326.529 212.95 326.49C212.899 326.433 212.861 326.367 212.837 326.294C212.813 326.222 212.804 326.146 212.81 326.07V309.33C212.814 309.132 212.862 308.937 212.95 308.76C213.015 308.598 213.127 308.459 213.27 308.36L220.54 304.17C220.584 304.131 220.641 304.109 220.7 304.109C220.759 304.109 220.816 304.131 220.86 304.17C220.909 304.228 220.945 304.295 220.967 304.367C220.99 304.439 220.997 304.515 220.99 304.59V306.43C220.99 306.627 220.946 306.822 220.86 307C220.795 307.159 220.683 307.295 220.54 307.39L215.09 310.54V314.67L220.17 311.74C220.214 311.701 220.271 311.679 220.33 311.679C220.389 311.679 220.446 311.701 220.49 311.74C220.539 311.798 220.575 311.865 220.597 311.937C220.62 312.009 220.627 312.085 220.62 312.16V314C220.62 314.197 220.576 314.392 220.49 314.57C220.425 314.729 220.313 314.865 220.17 314.96L215.09 317.89V322.21L220.67 319Z" fill="#FAFAFA"/>
<path d="M191.36 472.62L152.74 450.32C151.985 449.829 151.356 449.166 150.906 448.386C150.456 447.605 150.197 446.73 150.15 445.83V440.58C150.198 439.681 150.458 438.805 150.908 438.025C151.358 437.245 151.986 436.582 152.74 436.09L196.23 411C197.034 410.591 197.923 410.377 198.825 410.377C199.727 410.377 200.616 410.591 201.42 411L240 433.28C240.754 433.772 241.382 434.435 241.832 435.215C242.282 435.995 242.541 436.871 242.59 437.77V443C242.543 443.9 242.284 444.775 241.834 445.556C241.384 446.336 240.755 446.999 240 447.49L196.51 472.6C195.713 473.006 194.832 473.219 193.937 473.222C193.043 473.226 192.16 473.02 191.36 472.62V472.62Z" fill="#37474F"/>
<path d="M196.23 411L152.74 436.11C151.31 436.93 151.31 438.28 152.74 439.11L191.36 461.41C192.164 461.819 193.053 462.032 193.955 462.032C194.857 462.032 195.746 461.819 196.55 461.41L240 436.27C241.43 435.45 241.43 434.1 240 433.27L201.42 411C200.616 410.591 199.727 410.377 198.825 410.377C197.923 410.377 197.034 410.591 196.23 411V411Z" fill="#455A64"/>
<path d="M194 462V473.23C193.098 473.247 192.207 473.033 191.41 472.61L152.79 450.31C152.037 449.819 151.409 449.158 150.959 448.38C150.509 447.601 150.249 446.728 150.2 445.83V440.57C150.244 439.767 150.455 438.982 150.82 438.266C151.185 437.55 151.696 436.917 152.32 436.41C151.38 437.23 151.54 438.34 152.79 439.07L191.41 461.37C192.204 461.801 193.097 462.019 194 462V462Z" fill="#263238"/>
<path d="M190.32 438C190.67 436.58 193.11 435.17 195.57 435L197.86 434.81C199.14 434.7 200.31 434.03 200.49 433.29C200.67 432.55 199.79 432.05 198.49 432.16L196.2 432.35C193.779 432.536 191.427 433.25 189.31 434.44C187.31 435.58 186.04 436.99 185.69 438.44L183.59 447C182.86 449.93 186.4 452 191.47 451.55L193.76 451.36C196.181 451.172 198.532 450.459 200.65 449.27C202.65 448.12 203.91 446.71 204.26 445.27L205.26 441.19C205.44 440.46 204.56 439.95 203.26 440.06C201.96 440.17 200.81 440.84 200.63 441.57L199.63 445.65C199.28 447.06 196.84 448.47 194.38 448.65L192.08 448.84C189.55 449.05 187.78 448.02 188.14 446.56L190.28 437.94L190.32 438ZM207.06 434L209.19 425.38C209.354 424.679 209.268 423.942 208.947 423.298C208.625 422.653 208.089 422.141 207.43 421.85C205.532 420.924 203.404 420.577 201.31 420.85L199 421C196.582 421.188 194.234 421.901 192.12 423.09C190.12 424.23 188.85 425.65 188.5 427.09L187.58 430.82C187.4 431.55 188.28 432.06 189.58 431.95C190.88 431.84 192.03 431.17 192.21 430.44L193.13 426.71C193.285 426.274 193.525 425.872 193.835 425.529C194.146 425.186 194.521 424.907 194.94 424.71C195.996 424.111 197.17 423.753 198.38 423.66L200.68 423.47C201.725 423.337 202.786 423.514 203.73 423.98C204.061 424.125 204.331 424.382 204.491 424.705C204.652 425.029 204.694 425.399 204.61 425.75L202.48 434.37C202.13 435.79 199.68 437.2 197.23 437.37C195.96 437.48 194.79 438.15 194.6 438.89C194.41 439.63 195.3 440.13 196.6 440.02C199.017 439.832 201.364 439.122 203.48 437.94C205.48 436.79 206.75 435.38 207.11 433.94L207.06 434Z" fill="white"/>
<path d="M228.26 400.65V395.4C228.307 394.5 228.566 393.624 229.016 392.844C229.466 392.064 230.095 391.401 230.85 390.91L297 352.69C297.804 352.281 298.693 352.067 299.595 352.067C300.497 352.067 301.386 352.281 302.19 352.69L340.82 375C341.577 375.49 342.208 376.152 342.659 376.933C343.111 377.713 343.372 378.589 343.42 379.49V384.74C343.372 385.64 343.111 386.517 342.659 387.297C342.208 388.078 341.577 388.74 340.82 389.23L274.66 427.45C273.856 427.859 272.967 428.072 272.065 428.072C271.163 428.072 270.274 427.859 269.47 427.45L230.85 405.15C230.095 404.657 229.466 403.992 229.016 403.21C228.566 402.428 228.307 401.551 228.26 400.65V400.65Z" fill="#E0E0E0"/>
<path d="M343.41 379.48V384.73C343.363 385.63 343.104 386.505 342.654 387.286C342.204 388.066 341.575 388.729 340.82 389.22L274.66 427.44C273.865 427.868 272.973 428.082 272.07 428.06V416.82C272.972 416.837 273.863 416.623 274.66 416.2L340.82 378C342.07 377.28 342.23 376.16 341.29 375.34C341.911 375.845 342.421 376.474 342.786 377.187C343.151 377.9 343.363 378.68 343.41 379.48V379.48Z" fill="#F0F0F0"/>
<path d="M242.89 412.09L232.89 414.03V425.3C232.894 425.498 232.943 425.692 233.033 425.868C233.123 426.044 233.252 426.198 233.41 426.317C233.568 426.437 233.75 426.519 233.944 426.557C234.138 426.596 234.339 426.59 234.53 426.54L257.53 420.54V409.27L242.89 412.09Z" fill="#F0F0F0"/>
<path d="M272.07 416.35C271.249 416.372 270.436 416.182 269.71 415.8L257.53 408.8L234.35 414.89H234.12C233.963 414.886 233.81 414.838 233.678 414.753C233.547 414.667 233.441 414.546 233.374 414.405C233.307 414.263 233.28 414.105 233.297 413.949C233.314 413.793 233.374 413.644 233.47 413.52L243.56 400.7L231.09 393.5C230.847 393.438 230.631 393.297 230.477 393.098C230.323 392.9 230.239 392.656 230.239 392.405C230.239 392.154 230.323 391.91 230.477 391.711C230.631 391.513 230.847 391.372 231.09 391.31L297.25 353.09C297.982 352.721 298.79 352.53 299.61 352.53C300.43 352.53 301.238 352.721 301.97 353.09L340.59 375.39C340.833 375.452 341.049 375.593 341.203 375.792C341.357 375.99 341.441 376.234 341.441 376.485C341.441 376.736 341.357 376.98 341.203 377.178C341.049 377.377 340.833 377.518 340.59 377.58L274.43 415.8C273.703 416.182 272.891 416.372 272.07 416.35Z" fill="#FAFAFA"/>
<path d="M299.61 353C300.35 352.986 301.081 353.154 301.74 353.49L340.36 375.79C340.73 376.01 340.97 376.27 340.97 376.48C340.97 376.69 340.73 376.96 340.36 377.18L274.2 415.39C273.538 415.719 272.809 415.89 272.07 415.89C271.331 415.89 270.602 415.719 269.94 415.39L257.94 408.46L257.61 408.27L257.24 408.37L234.24 414.37H234.13C234.06 414.368 233.992 414.347 233.933 414.308C233.875 414.269 233.829 414.214 233.8 414.15C233.768 414.087 233.756 414.017 233.765 413.947C233.774 413.878 233.804 413.812 233.85 413.76L243.6 401.36L244.27 400.52L243.34 399.98L231.34 393.05C230.96 392.83 230.73 392.56 230.73 392.35C230.73 392.14 230.96 391.88 231.34 391.66L297.5 353.44C298.158 353.102 298.89 352.933 299.63 352.95L299.61 353ZM299.63 352.02C298.725 351.999 297.829 352.213 297.03 352.64L230.87 390.86C229.44 391.68 229.44 393.02 230.87 393.86L242.87 400.79L233.12 413.19C232.97 413.381 232.875 413.611 232.848 413.852C232.82 414.094 232.861 414.339 232.965 414.559C233.068 414.779 233.232 414.966 233.436 415.099C233.64 415.231 233.877 415.304 234.12 415.31C234.236 415.324 234.354 415.324 234.47 415.31L257.47 409.31L269.47 416.24C270.271 416.662 271.165 416.876 272.07 416.86C272.972 416.877 273.863 416.663 274.66 416.24L340.82 378C342.26 377.17 342.26 375.83 340.82 375L302.2 352.7C301.405 352.272 300.513 352.058 299.61 352.08L299.63 352.02Z" fill="#E0E0E0"/>
<path d="M273.53 401.06C273.143 401.038 272.768 400.918 272.44 400.71L255 390.63C254.4 390.29 254.64 389.81 255.72 389.19L256.83 388.55C257.897 387.93 258.727 387.79 259.32 388.13L274.26 396.76L278.39 394.38C278.692 394.204 279.046 394.14 279.39 394.2C279.834 394.287 280.258 394.457 280.64 394.7L281.5 395.19C281.844 395.352 282.14 395.6 282.36 395.91C282.45 396.11 282.36 396.3 282.05 396.47L274.62 400.76C274.292 400.959 273.914 401.063 273.53 401.06Z" fill="#5C45BF"/>
<path d="M268 385L266.34 384C265.75 383.66 266.07 383.13 267.34 382.42C268.61 381.71 269.57 381.42 270.17 381.81L271.83 382.81C272.42 383.15 272.1 383.68 270.83 384.4C269.56 385.12 268.62 385.35 268 385ZM283.88 394.4L271.08 387C270.493 386.66 270.753 386.17 271.86 385.53L272.63 385.08C273.743 384.413 274.593 384.263 275.18 384.63L288 392C288.593 392.34 288.333 392.83 287.22 393.47L286.45 393.92C285.36 394.6 284.51 394.75 283.91 394.41L283.88 394.4Z" fill="#5C45BF"/>
<path d="M290.87 390.39L282.03 385.29C281.082 384.718 280.1 384.204 279.09 383.75C278.44 383.48 278.09 383.31 277.93 383.24C277.59 383.04 277.74 382.68 278.36 382.14C278.911 381.651 279.507 381.215 280.14 380.84C280.435 380.646 280.79 380.564 281.14 380.61C281.484 380.68 281.819 380.787 282.14 380.93C282.51 381.09 282.8 381.22 283.02 381.3C282.81 380.732 282.81 380.108 283.02 379.54C283.323 378.864 283.854 378.315 284.52 377.99C285.518 377.408 286.668 377.14 287.82 377.22C289.117 377.327 290.371 377.738 291.48 378.42L301.48 384.21C302.07 384.56 301.83 385.03 300.76 385.65L299.82 386.2C298.75 386.82 297.92 386.96 297.32 386.61L288.23 381.36C287.836 381.116 287.398 380.953 286.94 380.88C286.538 380.837 286.134 380.928 285.79 381.14C285.552 381.249 285.365 381.448 285.272 381.693C285.178 381.938 285.185 382.21 285.29 382.45L295 388C295.3 388.17 295.39 388.37 295.28 388.61C295.027 388.966 294.681 389.246 294.28 389.42L293.28 389.98C292.29 390.6 291.46 390.73 290.87 390.39Z" fill="#5C45BF"/>
<path d="M315.68 376.58C315.98 376.75 315.68 377.11 314.68 377.67L313.13 378.56C312.875 378.731 312.59 378.853 312.29 378.92C312.036 378.973 311.774 378.973 311.52 378.92L302.71 376.68L302.4 376.86L308.4 380.32C308.993 380.66 308.753 381.14 307.68 381.76L306.79 382.27C305.717 382.89 304.887 383.03 304.3 382.69L285.12 371.61C284.52 371.27 284.76 370.79 285.84 370.17L286.72 369.66C287.8 369.04 288.63 368.9 289.22 369.24L300.75 375.9L300.89 375.82L297.7 371.26C297.57 371.06 297.54 370.9 297.6 370.8C297.792 370.607 298.015 370.448 298.26 370.33L299.7 369.5C300.7 368.92 301.35 368.72 301.7 368.91C301.857 369.027 301.987 369.177 302.08 369.35L305.38 374.27L315 376.4C315.233 376.431 315.462 376.492 315.68 376.58V376.58Z" fill="#5C45BF"/>
<path d="M52.3299 111.74C53.8999 109.32 55.8099 107.99 57.5099 107.86L66.0999 78.1199C65.5327 77.7847 65.061 77.3096 64.7299 76.7399C62.8199 73.6599 63.5099 67.7399 66.2599 63.4999C69.0099 59.2599 72.7899 58.3399 74.6899 61.4299C76.5899 64.5199 75.9099 70.4299 73.1599 74.6699C71.5899 77.0899 69.6799 78.4199 67.9799 78.5499L59.3899 108.29C59.955 108.628 60.426 109.102 60.7599 109.67C61.163 110.347 61.4471 111.087 61.5999 111.86L80.6699 99.0899C80.8151 96.2139 81.7079 93.4255 83.2599 90.9999C85.9999 86.7899 89.7899 85.8599 91.6899 88.9999C93.5899 92.1399 92.9099 97.9999 90.1599 102.24C87.4099 106.48 83.6299 107.4 81.7299 104.31C81.3225 103.635 81.0381 102.894 80.8899 102.12L61.8199 114.84C61.6662 117.708 60.7741 120.488 59.2299 122.91C56.4799 127.14 52.6999 128.07 50.7899 124.98C48.8799 121.89 49.5799 116 52.3299 111.74Z" fill="#E0E0E0"/>
<path d="M62.17 467L70.85 462C70.85 462 76 440.54 74 421.22C71.11 394.06 53.23 383.84 46.43 386.22C39.63 388.6 37.67 396.47 48.91 412.64C55.5 422.15 63.65 442 62.17 467Z" fill="#5C45BF"/>
<g opacity="0.65">
<path opacity="0.65" d="M62.17 467L70.85 462C70.85 462 76 440.54 74 421.22C71.11 394.06 53.23 383.84 46.43 386.22C39.63 388.6 37.67 396.47 48.91 412.64C55.5 422.15 63.65 442 62.17 467Z" fill="white"/>
</g>
<path d="M65.7602 456.48H65.6802C65.5229 456.449 65.3843 456.357 65.2945 456.224C65.2047 456.091 65.1708 455.928 65.2002 455.77C69.9602 430.72 61.2002 402.57 50.3702 390.86C50.2843 390.739 50.2454 390.591 50.2609 390.443C50.2764 390.296 50.3451 390.159 50.4542 390.058C50.5634 389.958 50.7054 389.9 50.8538 389.897C51.0021 389.894 51.1466 389.945 51.2602 390.04C62.2602 401.97 71.2102 430.58 66.3802 456.04C66.3436 456.174 66.2618 456.291 66.1488 456.371C66.0358 456.451 65.8985 456.49 65.7602 456.48V456.48Z" fill="white"/>
<path d="M40.3201 479.64C39.0201 480.3 35.5701 477.35 34.6101 476.64C32.9652 475.391 31.6674 473.742 30.8401 471.85C29.9202 469.7 29.6896 467.317 30.1801 465.03C30.4328 463.822 30.7669 462.633 31.1801 461.47L32.4001 458C32.8645 456.896 33.0992 455.708 33.0901 454.51C32.9001 452.1 30.8701 450.32 29.0101 448.78C26.9601 447.07 24.8401 444.85 25.0101 441.98C25.279 439.754 26.2776 437.679 27.8501 436.08C29.3101 434.41 31.0201 432.95 32.3601 431.18C33.4036 429.948 33.993 428.395 34.0301 426.78C33.9507 425.787 33.6682 424.82 33.2001 423.94C32.2801 422.01 31.0301 420.23 30.4301 418.18C29.8301 416.13 30.0501 413.63 31.7001 412.27C33.0501 411.16 34.9701 411.09 36.7001 411.27C38.3222 411.555 39.8638 412.186 41.2201 413.12C45.6601 415.89 48.0001 421.44 52.7401 423.63C54.6349 424.329 56.5721 424.907 58.5401 425.36C60.4601 425.98 62.4001 427.07 63.2101 428.92C64.8101 432.56 61.2901 436.78 62.3501 440.61C63.2801 444.01 66.4601 445.45 68.1301 448.55C68.8064 449.915 69.0306 451.46 68.7701 452.96C68.4809 455.505 67.7285 457.976 66.5501 460.25C65.2302 462.588 63.7674 464.842 62.1701 467C62.1701 467 40.5201 479.54 40.3201 479.64Z" fill="#5C45BF"/>
<g opacity="0.3">
<path opacity="0.3" d="M40.3201 479.64C39.0201 480.3 35.5701 477.35 34.6101 476.64C32.9652 475.391 31.6674 473.742 30.8401 471.85C29.9202 469.7 29.6896 467.317 30.1801 465.03C30.4328 463.822 30.7669 462.633 31.1801 461.47L32.4001 458C32.8645 456.896 33.0992 455.708 33.0901 454.51C32.9001 452.1 30.8701 450.32 29.0101 448.78C26.9601 447.07 24.8401 444.85 25.0101 441.98C25.279 439.754 26.2776 437.679 27.8501 436.08C29.3101 434.41 31.0201 432.95 32.3601 431.18C33.4036 429.948 33.993 428.395 34.0301 426.78C33.9507 425.787 33.6682 424.82 33.2001 423.94C32.2801 422.01 31.0301 420.23 30.4301 418.18C29.8301 416.13 30.0501 413.63 31.7001 412.27C33.0501 411.16 34.9701 411.09 36.7001 411.27C38.3222 411.555 39.8638 412.186 41.2201 413.12C45.6601 415.89 48.0001 421.44 52.7401 423.63C54.6349 424.329 56.5721 424.907 58.5401 425.36C60.4601 425.98 62.4001 427.07 63.2101 428.92C64.8101 432.56 61.2901 436.78 62.3501 440.61C63.2801 444.01 66.4601 445.45 68.1301 448.55C68.8064 449.915 69.0306 451.46 68.7701 452.96C68.4809 455.505 67.7285 457.976 66.5501 460.25C65.2302 462.588 63.7674 464.842 62.1701 467C62.1701 467 40.5201 479.54 40.3201 479.64Z" fill="white"/>
</g>
<path d="M52.88 473.09C52.7289 473.075 52.5894 473.002 52.4907 472.886C52.3919 472.771 52.3416 472.622 52.35 472.47C54.43 449.94 45.05 424.47 37.68 416.84C37.6238 416.787 37.579 416.723 37.5481 416.653C37.5173 416.582 37.5012 416.505 37.5007 416.428C37.5003 416.351 37.5155 416.275 37.5455 416.204C37.5755 416.132 37.6197 416.068 37.6753 416.015C37.7309 415.961 37.7967 415.919 37.8689 415.892C37.9411 415.865 38.0181 415.852 38.0953 415.856C38.1724 415.859 38.248 415.878 38.3176 415.911C38.3872 415.945 38.4493 415.992 38.5 416.05C46.02 423.83 55.6 449.72 53.5 472.57C53.4938 472.645 53.4727 472.718 53.4381 472.785C53.4035 472.852 53.356 472.911 53.2983 472.959C53.2407 473.007 53.1741 473.044 53.1023 473.066C53.0305 473.089 52.955 473.097 52.88 473.09V473.09Z" fill="white"/>
<path d="M50.6401 445.31H50.4801C45.207 443.564 39.7574 442.403 34.2301 441.85C34.1552 441.844 34.0822 441.823 34.0154 441.788C33.9486 441.754 33.8894 441.706 33.841 441.648C33.7927 441.591 33.7562 441.524 33.7338 441.452C33.7113 441.381 33.7033 441.305 33.7101 441.23C33.7137 441.154 33.7329 441.08 33.7666 441.012C33.8004 440.943 33.8479 440.883 33.9061 440.834C33.9644 440.785 34.0321 440.749 34.1051 440.728C34.1781 440.706 34.2547 440.7 34.3301 440.71C39.9554 441.282 45.5015 442.466 50.8701 444.24C51.0103 444.294 51.1241 444.4 51.1875 444.536C51.2509 444.673 51.259 444.828 51.2101 444.97C51.1613 445.078 51.0805 445.169 50.9786 445.23C50.8767 445.291 50.7585 445.319 50.6401 445.31V445.31Z" fill="white"/>
</svg>
