<svg width="418" height="449" viewBox="0 0 418 449" fill="none" xmlns="http://www.w3.org/2000/svg">
<path d="M209 448.15C324.289 448.15 417.75 394.191 417.75 327.63C417.75 261.069 324.289 207.11 209 207.11C93.7106 207.11 0.25 261.069 0.25 327.63C0.25 394.191 93.7106 448.15 209 448.15Z" fill="#F5F5F5"/>
<path d="M129.76 382.79C158.142 382.79 181.15 369.506 181.15 353.12C181.15 336.734 158.142 323.45 129.76 323.45C101.378 323.45 78.37 336.734 78.37 353.12C78.37 369.506 101.378 382.79 129.76 382.79Z" fill="#E0E0E0"/>
<path d="M76.42 45.0002L69.67 48.8402V46.4702C69.67 46.2902 69.67 46.1202 69.67 45.9602C69.67 45.8002 69.67 45.6302 69.67 45.4802V45.4202C69.43 42.2502 67.03 41.0402 64.11 42.7302C62.7837 43.5419 61.6479 44.6299 60.78 45.9202C60.12 41.6202 56.62 40.0702 52.38 42.5202C47.67 45.2402 43.85 51.8502 43.85 57.2902V62.4102C43.8494 62.8149 43.743 63.2124 43.5412 63.5633C43.3395 63.9141 43.0495 64.2061 42.7 64.4102L38.7 66.7402C37.8394 67.2464 37.1257 67.9683 36.6294 68.8346C36.1331 69.7009 35.8713 70.6818 35.87 71.6802C35.8776 72.0907 35.9921 72.4922 36.2024 72.8449C36.4126 73.1976 36.7112 73.4894 37.0687 73.6913C37.4262 73.8933 37.8302 73.9985 38.2408 73.9966C38.6514 73.9946 39.0544 73.8856 39.41 73.6802L76.31 52.3702C77.2887 51.804 78.1014 50.9904 78.6666 50.011C79.2317 49.0316 79.5295 47.9209 79.53 46.7902C79.5241 46.4287 79.4245 46.0748 79.241 45.7633C79.0574 45.4518 78.7962 45.1932 78.4828 45.0128C78.1695 44.8325 77.8147 44.7365 77.4531 44.7343C77.0915 44.7321 76.7356 44.8237 76.42 45.0002V45.0002Z" fill="#E6E6E6"/>
<path d="M115.92 2.92008L110.92 5.76008V4.00008C110.92 3.88008 110.92 3.75008 110.92 3.63008C110.92 3.51008 110.92 3.39008 110.92 3.27008C110.74 0.930081 108.97 0.0300807 106.8 1.27008C105.824 1.87201 104.988 2.67687 104.35 3.63008C103.86 0.450081 101.26 -0.699921 98.13 1.12008C96.2981 2.3111 94.7724 3.91663 93.6761 5.80678C92.5799 7.69692 91.9441 9.81858 91.82 12.0001V15.7901C91.8204 16.0896 91.742 16.384 91.5929 16.6437C91.4437 16.9034 91.2289 17.1194 90.97 17.2701L88 19.0001C87.3617 19.3721 86.832 19.9048 86.4635 20.5452C86.0951 21.1856 85.9008 21.9113 85.9 22.6501C85.9015 22.9561 85.9832 23.2563 86.1369 23.5209C86.2906 23.7855 86.511 24.0051 86.7762 24.1579C87.0413 24.3107 87.3418 24.3913 87.6478 24.3917C87.9538 24.3921 88.2545 24.3122 88.52 24.1601L115.81 8.39008C116.537 7.9737 117.142 7.37232 117.561 6.64697C117.981 5.92162 118.201 5.09813 118.2 4.26008C118.195 3.99468 118.123 3.73493 117.989 3.50571C117.855 3.27649 117.664 3.08548 117.436 2.95098C117.207 2.81649 116.947 2.74302 116.682 2.73761C116.416 2.73219 116.154 2.79503 115.92 2.92008V2.92008Z" fill="#E6E6E6"/>
<path d="M63.08 305.71L52.66 311.77C52.66 311.77 57.92 295 55 278.07C54.2937 274.09 52.8561 270.276 50.76 266.82C49.94 265.12 43.65 254.58 49.18 249.72C54.71 244.86 67.71 254.52 67.13 280.55C66.8477 289.074 65.4869 297.528 63.08 305.71V305.71Z" fill="#5C45BF"/>
<path opacity="0.5" d="M63.08 305.71L52.66 311.77C52.66 311.77 57.92 295 55 278.07C54.2937 274.09 52.8561 270.276 50.76 266.82C49.94 265.12 43.65 254.58 49.18 249.72C54.71 244.86 67.71 254.52 67.13 280.55C66.8477 289.074 65.4869 297.528 63.08 305.71V305.71Z" fill="black"/>
<path d="M58.24 308.9H58.11C58.0183 308.864 57.9441 308.794 57.9031 308.705C57.862 308.615 57.8574 308.513 57.89 308.42C57.89 308.31 61.82 297.5 61.61 280.1C61.4 262.7 52.36 253.59 52.27 253.5C52.2352 253.465 52.2076 253.424 52.1888 253.379C52.17 253.333 52.1603 253.284 52.1603 253.235C52.1603 253.186 52.17 253.137 52.1888 253.092C52.2076 253.046 52.2352 253.005 52.27 252.97C52.3048 252.935 52.3462 252.908 52.3916 252.889C52.4371 252.87 52.4858 252.86 52.535 252.86C52.5843 252.86 52.633 252.87 52.6785 252.889C52.7239 252.908 52.7652 252.935 52.8 252.97C52.89 253.07 62.15 262.46 62.36 280.09C62.57 297.72 58.63 308.57 58.59 308.68C58.5592 308.747 58.5097 308.803 58.4476 308.842C58.3855 308.881 58.3134 308.901 58.24 308.9V308.9Z" fill="white"/>
<path d="M55 310.45L37.77 320.58C37.77 320.58 29.88 319.42 30.47 311.99C31.06 304.56 34.28 302.81 30.28 299.55C26.28 296.29 25.28 296.07 25.45 292.87C25.62 289.67 27.8 288.28 28.81 287.01C29.82 285.74 32.64 283.09 30.66 279.23C28.68 275.37 26 271.65 30 269.88C32.38 268.82 36.39 270.14 39 272.97C41.61 275.8 43.85 277.82 46.37 278.47C48.89 279.12 54.14 279.18 53.96 283.47C53.78 287.76 52.66 289.31 53.71 291.23C55.73 294.91 64.2 296.87 55 310.45Z" fill="#5C45BF"/>
<path opacity="0.2" d="M55 310.45L37.77 320.58C37.77 320.58 29.88 319.42 30.47 311.99C31.06 304.56 34.28 302.81 30.28 299.55C26.28 296.29 25.28 296.07 25.45 292.87C25.62 289.67 27.8 288.28 28.81 287.01C29.82 285.74 32.64 283.09 30.66 279.23C28.68 275.37 26 271.65 30 269.88C32.38 268.82 36.39 270.14 39 272.97C41.61 275.8 43.85 277.82 46.37 278.47C48.89 279.12 54.14 279.18 53.96 283.47C53.78 287.76 52.66 289.31 53.71 291.23C55.73 294.91 64.2 296.87 55 310.45Z" fill="black"/>
<path d="M48 314.94C47.9508 314.938 47.9027 314.925 47.8586 314.903C47.8144 314.882 47.7752 314.851 47.7434 314.814C47.7115 314.776 47.6877 314.732 47.6733 314.685C47.659 314.638 47.6544 314.589 47.66 314.54C47.66 314.29 49.52 288.99 31.97 272.41C31.9241 272.38 31.8853 272.339 31.8565 272.293C31.8276 272.246 31.8092 272.193 31.8027 272.138C31.7962 272.084 31.8017 272.028 31.8187 271.976C31.8357 271.923 31.864 271.875 31.9014 271.835C31.9389 271.795 31.9847 271.763 32.0356 271.742C32.0865 271.721 32.1414 271.711 32.1965 271.714C32.2515 271.716 32.3054 271.73 32.3543 271.756C32.4033 271.781 32.4461 271.817 32.48 271.86C50.29 288.7 48.42 314.35 48.4 314.6C48.3962 314.649 48.3828 314.696 48.3606 314.74C48.3384 314.783 48.3079 314.822 48.2707 314.853C48.2335 314.885 48.1905 314.909 48.144 314.924C48.0975 314.939 48.0486 314.944 48 314.94V314.94Z" fill="white"/>
<path d="M44.89 292.93C44.7927 292.92 44.7031 292.873 44.6398 292.798C44.5765 292.724 44.5443 292.628 44.55 292.53C44.6804 290.431 45.2435 288.382 46.2037 286.512C47.164 284.641 48.5007 282.989 50.13 281.66C50.1699 281.631 50.2151 281.611 50.2629 281.6C50.3108 281.589 50.3604 281.588 50.4088 281.596C50.4572 281.604 50.5035 281.622 50.5449 281.649C50.5863 281.675 50.622 281.71 50.65 281.75C50.6805 281.789 50.7027 281.833 50.7152 281.881C50.7278 281.929 50.7304 281.979 50.7229 282.027C50.7154 282.076 50.6979 282.123 50.6716 282.165C50.6453 282.206 50.6107 282.242 50.57 282.27C49.0357 283.54 47.7763 285.109 46.8685 286.881C45.9607 288.654 45.4236 290.593 45.29 292.58C45.2874 292.629 45.275 292.678 45.2534 292.723C45.2318 292.767 45.2014 292.807 45.1641 292.84C45.1268 292.872 45.0833 292.897 45.0362 292.913C44.9891 292.928 44.9394 292.934 44.89 292.93V292.93Z" fill="white"/>
<path d="M46.1601 297.31C46.1077 297.31 46.056 297.299 46.0078 297.278C45.9597 297.258 45.9163 297.228 45.88 297.19C45.88 297.14 41.48 292.46 31.56 293.82C31.5114 293.827 31.4618 293.824 31.4143 293.812C31.3667 293.8 31.322 293.778 31.2829 293.748C31.2438 293.718 31.211 293.681 31.1865 293.638C31.162 293.596 31.1462 293.549 31.1401 293.5C31.1286 293.402 31.1555 293.304 31.2152 293.225C31.2749 293.147 31.3627 293.095 31.46 293.08C41.79 291.66 46.25 296.48 46.46 296.69C46.5291 296.761 46.5677 296.856 46.5677 296.955C46.5677 297.054 46.5291 297.149 46.46 297.22C46.4193 297.255 46.3715 297.282 46.3198 297.297C46.268 297.313 46.2136 297.317 46.1601 297.31V297.31Z" fill="white"/>
<path d="M144.15 120.61L142.33 116.69C145.44 116.63 151.85 120.56 154.33 122.46L171.87 138.13L177.09 156.13C177.09 156.13 165.25 157.73 146.69 138.52L144.15 120.61Z" fill="#FFA8A7"/>
<path d="M167.73 130.53C167.73 130.53 158.59 134.12 156.37 147.24L143 137.89L142.31 116.69C142.31 116.69 148.18 114.8 167.73 130.53Z" fill="#5C45BF"/>
<path opacity="0.3" d="M167.73 130.53C167.73 130.53 158.59 134.12 156.37 147.24L143 137.89L142.31 116.69C142.31 116.69 148.18 114.8 167.73 130.53Z" fill="white"/>
<path d="M134.797 334.917L149.162 334.551L148.421 305.46L134.055 305.826L134.797 334.917Z" fill="#FFA8A7"/>
<path d="M152.93 189C152.93 189 153.93 238.5 153.6 258.11C153.34 272.87 151.04 317.11 151.04 317.11C151.04 317.11 141.72 323.2 131.9 318.11C131.9 318.11 126.24 273.43 127.62 259.97C127.8 258.335 127.8 256.685 127.62 255.05L118.96 180.12L152.93 189Z" fill="#37474F"/>
<path d="M144.17 330.52C144.17 330.52 136.17 329.61 134.6 327.02V325.33C134.6 325.33 133.22 326.07 133.48 328.87C133.72 331.46 132.68 335.87 132.53 341.27C132.522 341.71 132.616 342.146 132.805 342.543C132.994 342.941 133.273 343.289 133.62 343.56C135.16 344.75 138.43 346.56 144.17 346.82C146.17 346.91 154.24 352.08 160.95 352.08C167.66 352.08 172.04 348.75 172.04 344.08C172.04 339.41 158.37 335.22 158.37 335.22L151.8 328.84C151.8 328.84 153.07 321.9 148.89 323.57C144.71 325.24 144.17 327 144.17 330.52Z" fill="#37474F"/>
<path d="M145.66 334.54C145.617 334.55 145.573 334.55 145.53 334.54C145.476 334.523 145.426 334.496 145.383 334.459C145.34 334.423 145.304 334.378 145.278 334.328C145.252 334.278 145.236 334.223 145.231 334.167C145.227 334.111 145.233 334.054 145.25 334C145.762 332.597 146.628 331.35 147.763 330.38C148.898 329.409 150.265 328.748 151.73 328.46C151.785 328.45 151.842 328.451 151.897 328.464C151.951 328.476 152.003 328.499 152.049 328.532C152.095 328.564 152.133 328.606 152.163 328.654C152.192 328.701 152.212 328.755 152.22 328.81C152.23 328.866 152.229 328.923 152.217 328.979C152.205 329.034 152.182 329.086 152.149 329.133C152.117 329.179 152.075 329.219 152.027 329.249C151.979 329.28 151.926 329.3 151.87 329.31C150.56 329.587 149.341 330.19 148.327 331.065C147.313 331.939 146.537 333.055 146.07 334.31C146.031 334.384 145.972 334.445 145.899 334.486C145.826 334.527 145.743 334.546 145.66 334.54Z" fill="#FAFAFA"/>
<path d="M148.28 337.17H148.15C148.096 337.152 148.046 337.123 148.003 337.086C147.96 337.048 147.925 337.003 147.9 336.951C147.875 336.9 147.86 336.845 147.857 336.788C147.853 336.731 147.861 336.674 147.88 336.62C148.387 335.217 149.25 333.969 150.384 333C151.518 332.03 152.885 331.372 154.35 331.09C154.454 331.087 154.555 331.122 154.635 331.188C154.714 331.254 154.768 331.347 154.785 331.449C154.802 331.551 154.782 331.656 154.727 331.745C154.673 331.833 154.589 331.899 154.49 331.93C153.18 332.207 151.961 332.81 150.947 333.685C149.933 334.559 149.157 335.675 148.69 336.93C148.652 337.005 148.593 337.068 148.52 337.11C148.447 337.153 148.364 337.173 148.28 337.17V337.17Z" fill="#FAFAFA"/>
<path d="M150.6 339.42C150.557 339.429 150.513 339.429 150.47 339.42C150.416 339.403 150.366 339.375 150.323 339.339C150.28 339.303 150.244 339.258 150.218 339.208C150.192 339.158 150.176 339.103 150.171 339.047C150.167 338.99 150.173 338.934 150.19 338.88C150.7 337.476 151.566 336.228 152.701 335.257C153.836 334.287 155.204 333.626 156.67 333.34C156.783 333.321 156.898 333.348 156.991 333.415C157.084 333.482 157.146 333.582 157.165 333.695C157.183 333.808 157.157 333.923 157.09 334.016C157.023 334.109 156.923 334.171 156.81 334.19C155.499 334.465 154.28 335.068 153.265 335.942C152.251 336.817 151.475 337.934 151.01 339.19C150.971 339.264 150.912 339.325 150.839 339.366C150.766 339.407 150.683 339.426 150.6 339.42V339.42Z" fill="#FAFAFA"/>
<path d="M172 344.11C172 348.7 167.71 352 161.13 352.11L151.73 348.34C151.73 338.6 158.33 335.29 158.33 335.29C158.33 335.29 172 339.46 172 344.11Z" fill="#EBEBEB"/>
<path d="M132.76 341.67C134.37 342.92 137.76 344.83 143.76 345.09C145.87 345.18 154.29 350.59 161.31 350.59C166.13 350.59 169.79 348.95 171.62 346.35C170.43 349.78 166.48 352.08 160.91 352.08C154.2 352.08 146.15 346.91 144.13 346.82C138.39 346.57 135.13 344.75 133.58 343.56C133.262 343.308 133.003 342.992 132.818 342.631C132.633 342.271 132.528 341.875 132.51 341.47C132.588 341.543 132.671 341.61 132.76 341.67Z" fill="#263238"/>
<path d="M144.61 196C144.61 196 143.3 207.2 134.71 213.12L127.13 251.12L122.26 203.6L144.61 196Z" fill="#263238"/>
<path d="M92.9976 342.806L107.324 343.926L109.592 314.914L95.2655 313.794L92.9976 342.806Z" fill="#FFA8A7"/>
<path d="M100.79 190.18C100.79 190.18 99.0599 196.74 98.2099 223.82C97.5499 245.28 97.0399 257.62 96.8699 261.82C96.822 262.863 96.7085 263.902 96.5299 264.93C94.7685 275.766 93.5902 286.688 92.9999 297.65C91.7699 318.51 91.6799 328.42 91.6799 328.42C91.6799 328.42 100.54 335.34 111.23 329.91L121.57 267.68L132.43 210C132.43 210 147.37 204.3 148.69 189.09L100.79 190.18Z" fill="#37474F"/>
<path d="M93.52 336.16L93.3 339C94.255 340.334 95.5357 341.401 97.02 342.1C97.02 342.1 98.56 336.46 101.3 336.17C104.04 335.88 109.7 335.63 108.94 338.77C108.511 340.406 108.246 342.081 108.15 343.77L113.41 353.59C113.41 353.59 124.1 362.79 119.63 368.66C115.16 374.53 100.17 371.4 98.7 362.18C98.4631 360.793 97.9431 359.47 97.1723 358.293C96.4015 357.117 95.3965 356.111 94.22 355.34C93.2502 354.735 92.4871 353.85 92.0317 352.802C91.5763 351.753 91.4502 350.592 91.67 349.47C91.94 347.37 92.58 343.32 92.38 341.47C92.18 339.62 91.68 336.18 93.52 336.16Z" fill="#37474F"/>
<path d="M119.63 368.64C115.92 373.52 104.97 372.18 100.51 366.31C100.311 365.36 100.21 364.391 100.21 363.42C100.21 352.94 113.41 353.57 113.41 353.57C113.41 353.57 124.1 362.77 119.63 368.64Z" fill="#EBEBEB"/>
<path d="M91.67 349.45C91.67 349.3 91.67 349.11 91.73 348.94C91.8373 349.777 92.13 350.579 92.5867 351.288C93.0434 351.998 93.6526 352.596 94.37 353.04C95.588 353.836 96.6287 354.875 97.427 356.091C98.2254 357.308 98.7643 358.676 99.0099 360.11C100.52 369.53 115.68 372.8 120.48 367C120.301 367.595 120.013 368.151 119.63 368.64C115.16 374.52 100.17 371.38 98.7 362.16C98.4631 360.773 97.9431 359.45 97.1723 358.273C96.4015 357.097 95.3965 356.091 94.22 355.32C93.2502 354.715 92.4871 353.83 92.0317 352.782C91.5763 351.733 91.4502 350.572 91.67 349.45V349.45Z" fill="#263238"/>
<path d="M100.39 346C100.332 346.001 100.275 345.99 100.221 345.967C100.168 345.945 100.12 345.912 100.08 345.87C100.04 345.83 100.008 345.783 99.9861 345.73C99.9643 345.678 99.9531 345.622 99.9531 345.565C99.9531 345.508 99.9643 345.452 99.9861 345.4C100.008 345.348 100.04 345.3 100.08 345.26C101.191 344.26 102.544 343.567 104.004 343.248C105.465 342.929 106.983 342.995 108.41 343.44C108.509 343.484 108.587 343.563 108.63 343.662C108.674 343.76 108.678 343.872 108.643 343.974C108.607 344.076 108.535 344.161 108.44 344.212C108.345 344.263 108.235 344.277 108.13 344.25C106.85 343.873 105.495 343.824 104.191 344.109C102.887 344.394 101.676 345.003 100.67 345.88C100.596 345.955 100.496 345.999 100.39 346V346Z" fill="#FAFAFA"/>
<path d="M102.22 349.6C102.16 349.599 102.101 349.586 102.046 349.562C101.991 349.538 101.941 349.504 101.9 349.46C101.822 349.38 101.778 349.272 101.778 349.16C101.778 349.048 101.822 348.94 101.9 348.86C103.01 347.861 104.361 347.168 105.819 346.849C107.278 346.53 108.794 346.596 110.22 347.04C110.274 347.057 110.324 347.085 110.366 347.121C110.409 347.158 110.444 347.202 110.469 347.253C110.495 347.303 110.509 347.358 110.513 347.414C110.517 347.471 110.509 347.527 110.49 347.58C110.454 347.687 110.376 347.775 110.275 347.826C110.174 347.876 110.057 347.885 109.95 347.85C109.9 347.85 105.68 346.47 102.49 349.48C102.418 349.551 102.322 349.594 102.22 349.6V349.6Z" fill="#FAFAFA"/>
<path d="M104 353.24C103.942 353.238 103.884 353.225 103.831 353.201C103.778 353.177 103.73 353.143 103.69 353.1C103.612 353.02 103.568 352.912 103.568 352.8C103.568 352.688 103.612 352.58 103.69 352.5C104.8 351.501 106.15 350.808 107.609 350.489C109.068 350.17 110.584 350.236 112.01 350.68C112.068 350.695 112.122 350.721 112.168 350.758C112.215 350.794 112.254 350.84 112.282 350.893C112.31 350.945 112.327 351.003 112.332 351.062C112.337 351.121 112.33 351.181 112.31 351.237C112.291 351.293 112.26 351.345 112.219 351.389C112.179 351.432 112.13 351.467 112.075 351.491C112.021 351.515 111.962 351.527 111.903 351.527C111.843 351.526 111.784 351.514 111.73 351.49C110.451 351.113 109.098 351.064 107.796 351.349C106.494 351.634 105.284 352.243 104.28 353.12C104.204 353.192 104.105 353.235 104 353.24V353.24Z" fill="#FAFAFA"/>
<path d="M115 119.06L105.82 122L100.82 149.13L103.82 162.28C104.223 164.075 104.297 165.928 104.04 167.75L100.84 190.23C100.84 190.23 109.9 196 126.56 196C143.22 196 152.93 189 152.93 189L151.67 137.82C151.189 129.873 147.875 122.362 142.33 116.65V116.65L131 118L115 119.06Z" fill="#5C45BF"/>
<path d="M143.88 76C143.88 76 152.65 83.69 145.03 100.83L136.12 77.66L143.88 76Z" fill="#263238"/>
<path d="M114.98 119.06L125.75 124.71L130.96 118.01V97.3201H114.98V119.06Z" fill="#FFA8A7"/>
<path d="M131 116.69C125.61 116.69 117.43 111.89 117.43 108.55L115.63 97.3201H131V116.69Z" fill="#F28F8F"/>
<path d="M126.71 71.26C132.09 71.26 143.52 74.26 144.84 88.32C146.16 102.38 144.1 114.32 137.62 114.32C124.91 114.32 112.7 112.7 112.62 91.9C112.51 73.58 121.47 71.26 126.71 71.26Z" fill="#FFA8A7"/>
<path d="M115 104.25L117.08 97.9C117.236 98.0286 117.426 98.1102 117.626 98.1355C117.827 98.1608 118.031 98.1286 118.214 98.0428C118.397 97.9569 118.552 97.8209 118.661 97.6505C118.77 97.4801 118.829 97.2823 118.83 97.08V85.75C118.83 85.75 124.12 84.25 123.56 79.75C123.56 79.75 126.26 82.17 136.64 82.17C147.02 82.17 149.53 73.38 148.49 68.49C148.49 68.49 146.57 70.49 141.08 70.49C135.59 70.49 112.77 63.6 112.18 77.4C112.18 77.4 110.25 74.57 107.18 77.4L111.18 79.77C111.18 79.77 106.44 79.62 107.18 86.59C107.67 91.17 109.34 99.19 110.43 104.14C111.038 106.906 112.689 109.331 115.04 110.91L115 104.25Z" fill="#263238"/>
<path d="M134.58 92.54V101.58L139.87 99.95L134.58 92.54Z" fill="#F28F8F"/>
<path d="M126.17 94.0001C126.17 94.3343 126.269 94.6611 126.455 94.939C126.64 95.2169 126.904 95.4335 127.213 95.5614C127.522 95.6893 127.862 95.7228 128.19 95.6576C128.517 95.5924 128.819 95.4314 129.055 95.1951C129.291 94.9587 129.452 94.6576 129.517 94.3298C129.583 94.0019 129.549 93.6621 129.421 93.3533C129.293 93.0445 129.077 92.7806 128.799 92.5949C128.521 92.4092 128.194 92.3101 127.86 92.3101C127.412 92.3101 126.982 92.4881 126.665 92.8051C126.348 93.122 126.17 93.5518 126.17 94.0001Z" fill="#263238"/>
<path d="M138.81 92.8001C138.81 93.1344 138.909 93.4611 139.095 93.739C139.28 94.0169 139.544 94.2336 139.853 94.3615C140.162 94.4894 140.502 94.5228 140.83 94.4576C141.157 94.3924 141.459 94.2315 141.695 93.9951C141.931 93.7588 142.092 93.4576 142.157 93.1298C142.223 92.802 142.189 92.4622 142.061 92.1534C141.933 91.8446 141.717 91.5806 141.439 91.3949C141.161 91.2092 140.834 91.1101 140.5 91.1101C140.052 91.1101 139.622 91.2882 139.305 91.6051C138.988 91.922 138.81 92.3519 138.81 92.8001Z" fill="#263238"/>
<path d="M142.56 89.28L139.26 87.28C139.26 87.28 140.53 85.96 141.79 86.75C142.162 87.0422 142.435 87.4415 142.573 87.8939C142.711 88.3464 142.706 88.8302 142.56 89.28V89.28Z" fill="#263238"/>
<path d="M124.42 90.5L127.73 88.5C127.73 88.5 126.46 87.18 125.19 87.97C124.818 88.2622 124.545 88.6614 124.407 89.1139C124.269 89.5664 124.274 90.0502 124.42 90.5V90.5Z" fill="#263238"/>
<path d="M134.15 105.92C134.15 105.92 131.7 104.34 129.34 102.58C129.34 102.58 127.97 105.25 130.12 106.58C132.27 107.91 134.15 105.92 134.15 105.92Z" fill="#F28F8F"/>
<path d="M117.2 97.9999L111.35 91.6499L115.55 89.1299L117.2 97.9999Z" fill="#253239"/>
<path d="M116.23 95.5299C118.15 98.8399 117.66 102.87 114.98 104.25C113.27 105.14 108.2 103.25 106.28 99.9099C104.36 96.5699 105.45 93.7499 108.05 92.2399C110.65 90.7299 114.32 92.2099 116.23 95.5299Z" fill="#FFA8A7"/>
<path d="M131 118L133.18 121.46C133.598 122.124 133.871 122.869 133.982 123.646C134.093 124.423 134.039 125.214 133.824 125.969C133.609 126.723 133.238 127.424 132.734 128.026C132.23 128.627 131.605 129.116 130.9 129.46C129.615 130.087 128.213 130.438 126.784 130.49C125.356 130.542 123.932 130.295 122.605 129.764C121.277 129.232 120.076 128.429 119.078 127.405C118.08 126.382 117.307 125.16 116.81 123.82L115 119.06L123 115.6L131 118Z" fill="#FFA8A7"/>
<path d="M104.47 155.39L100.44 163.89L79.75 172.07L88.09 146.8L104.47 155.39Z" fill="#FFA8A7"/>
<path d="M107 121.57C107 121.57 113.9 128.66 110.92 138.65C109.239 144.405 107.067 150.006 104.43 155.39C104.43 155.39 92.7999 155.74 88.0599 146.8L93.9799 131.8C94.9102 129.451 96.3766 127.351 98.2621 125.669C100.148 123.986 102.4 122.768 104.84 122.11L107 121.57Z" fill="#5C45BF"/>
<path opacity="0.3" d="M107 121.57C107 121.57 113.9 128.66 110.92 138.65C109.239 144.405 107.067 150.006 104.43 155.39C104.43 155.39 92.7999 155.74 88.0599 146.8L93.9799 131.8C94.9102 129.451 96.3766 127.351 98.2621 125.669C100.148 123.986 102.4 122.768 104.84 122.11L107 121.57Z" fill="white"/>
<path d="M101.6 162.31L81 168.41C81 168.41 80.88 168.74 79.79 172.08C78.12 177.21 83.4 189.62 102.19 180.61C120.98 171.6 127.82 166.78 127.82 166.78L125.82 155.39C125.82 155.39 107.57 160.56 101.6 162.31Z" fill="#FFA8A7"/>
<path d="M101.05 162.57L91.3199 165.38L102.21 160.13L101.05 162.57Z" fill="#F28F8F"/>
<path d="M128.65 171.9L140.85 170.6C141.287 170.553 141.699 170.375 142.032 170.089C142.366 169.804 142.606 169.424 142.72 169L149.38 143.91C149.426 143.739 149.43 143.559 149.394 143.386C149.357 143.212 149.28 143.05 149.169 142.912C149.058 142.773 148.916 142.663 148.755 142.59C148.593 142.517 148.417 142.482 148.24 142.49L136.44 143.04C136.001 143.062 135.58 143.222 135.238 143.496C134.895 143.771 134.647 144.147 134.53 144.57L127.43 170.47C127.382 170.649 127.378 170.836 127.419 171.017C127.459 171.197 127.543 171.365 127.663 171.506C127.784 171.647 127.936 171.756 128.108 171.825C128.28 171.894 128.466 171.919 128.65 171.9V171.9Z" fill="#37474F"/>
<path d="M144.61 146.19C144.612 146.399 144.677 146.603 144.796 146.776C144.915 146.948 145.083 147.081 145.277 147.157C145.472 147.233 145.686 147.249 145.89 147.203C146.094 147.158 146.28 147.052 146.424 146.899C146.567 146.747 146.662 146.555 146.696 146.349C146.73 146.142 146.701 145.93 146.614 145.74C146.526 145.55 146.384 145.39 146.205 145.282C146.026 145.173 145.819 145.12 145.61 145.13C145.473 145.13 145.338 145.158 145.213 145.212C145.087 145.265 144.974 145.345 144.881 145.444C144.787 145.543 144.715 145.661 144.668 145.789C144.622 145.917 144.602 146.054 144.61 146.19Z" fill="#263238"/>
<path d="M125.75 155.39C125.75 155.39 129.27 149.25 133.66 147.76L131.9 154.51C131.9 154.51 135.23 154.77 139 154.77C142.77 154.77 146.89 152.24 148.12 151.58C149.35 150.92 150.42 155.49 145.67 164.07C140.92 172.65 127.78 166.78 127.78 166.78L125.75 155.39Z" fill="#FFA8A7"/>
<path d="M156.15 126.9L155 119.35L162.28 119.68C162.28 119.68 181.46 136.55 183.67 140.28C185.88 144.01 187.81 154.75 177.04 156.09L173.9 153.62C170.546 150.976 167.747 147.696 165.66 143.97L156.15 126.9Z" fill="#FFA8A7"/>
<path d="M157.39 113.29C157.39 113.29 154.8 107.42 154.33 106.01C153.65 104.01 151.9 105.16 151.41 106.49C150.92 107.82 151.49 109.26 152.7 111.17C153.91 113.08 157.39 113.29 157.39 113.29Z" fill="#FFA8A7"/>
<path d="M156.15 126.9C156.15 126.9 149.95 126.53 146.15 122.52L150.81 113.43C150.81 113.43 143.68 111.53 141.51 109.85C139.34 108.17 140.6 107.07 141.78 107.17C142.78 107.26 152.31 109.63 154.53 110.68C156.38 111.57 158.92 113.99 162.27 119.68L166.07 129.86L156.15 126.9Z" fill="#FFA8A7"/>
<path d="M150.85 113.43C150.85 113.43 147.09 110.43 145.62 114.09C144.15 117.75 142.4 119.25 143.23 120.84C144.06 122.43 148.32 129.28 149.62 125.05C150.92 120.82 150.85 113.43 150.85 113.43Z" fill="#FFA8A7"/>
<path d="M167.73 147.48C167.678 147.48 167.627 147.468 167.58 147.445C167.534 147.423 167.492 147.39 167.46 147.35C166.716 146.316 166.032 145.241 165.41 144.13L156 127.21C153.872 126.99 151.796 126.412 149.86 125.5C149.779 125.768 149.638 126.013 149.447 126.218C149.256 126.422 149.021 126.58 148.76 126.68C148.719 126.692 148.676 126.696 148.634 126.692C148.592 126.687 148.551 126.674 148.514 126.654C148.477 126.633 148.444 126.606 148.417 126.572C148.391 126.539 148.371 126.501 148.36 126.46C148.346 126.419 148.341 126.375 148.345 126.332C148.348 126.288 148.361 126.246 148.382 126.208C148.402 126.169 148.43 126.135 148.464 126.108C148.499 126.081 148.538 126.061 148.58 126.05C148.9 125.96 149.16 125.59 149.36 124.96C149.35 124.927 149.35 124.893 149.36 124.86C149.403 124.792 149.471 124.743 149.548 124.723C149.626 124.702 149.709 124.712 149.78 124.75C151.785 125.74 153.954 126.357 156.18 126.57C156.235 126.575 156.288 126.593 156.335 126.622C156.382 126.652 156.422 126.692 156.45 126.74L166 143.81C166.603 144.899 167.271 145.951 168 146.96C168.027 146.994 168.046 147.034 168.057 147.076C168.068 147.118 168.071 147.162 168.064 147.205C168.057 147.248 168.042 147.289 168.019 147.326C167.996 147.363 167.966 147.395 167.93 147.42C167.871 147.46 167.801 147.481 167.73 147.48V147.48Z" fill="#F28F8F"/>
<path d="M149.62 125.37C149.557 125.369 149.495 125.352 149.44 125.32C148.335 124.559 147.328 123.666 146.44 122.66C146.408 122.626 146.383 122.587 146.367 122.543C146.352 122.499 146.345 122.453 146.349 122.407C146.352 122.36 146.366 122.315 146.388 122.275C146.41 122.234 146.44 122.198 146.477 122.17C146.514 122.141 146.556 122.121 146.601 122.11C146.646 122.1 146.693 122.098 146.739 122.107C146.784 122.115 146.827 122.133 146.866 122.16C146.904 122.186 146.936 122.22 146.96 122.26C147.816 123.209 148.783 124.052 149.84 124.77C149.875 124.795 149.906 124.827 149.929 124.863C149.952 124.9 149.968 124.941 149.975 124.983C149.983 125.026 149.982 125.07 149.972 125.112C149.963 125.154 149.945 125.194 149.92 125.23C149.888 125.278 149.842 125.317 149.79 125.342C149.737 125.366 149.678 125.376 149.62 125.37V125.37Z" fill="#F28F8F"/>
<path d="M146 113.75C145.935 113.75 145.872 113.729 145.82 113.69C145.748 113.643 145.697 113.57 145.678 113.485C145.66 113.401 145.675 113.313 145.72 113.24C145.917 112.922 146.175 112.647 146.48 112.43C144.678 111.904 142.961 111.123 141.38 110.11C139.91 108.97 139.99 108.11 140.17 107.67C140.332 107.366 140.588 107.121 140.899 106.971C141.21 106.822 141.561 106.776 141.9 106.84C142.53 106.93 149.33 108.79 154.39 110.17C155.569 110.675 156.617 111.445 157.45 112.42C157.51 112.483 157.544 112.568 157.544 112.655C157.544 112.743 157.51 112.827 157.45 112.89C157.42 112.921 157.384 112.945 157.345 112.962C157.305 112.979 157.263 112.988 157.22 112.988C157.177 112.988 157.135 112.979 157.095 112.962C157.056 112.945 157.02 112.921 156.99 112.89C156.224 112.007 155.275 111.301 154.21 110.82C146.44 108.7 142.27 107.59 141.83 107.52C141.64 107.488 141.444 107.511 141.266 107.587C141.089 107.663 140.937 107.789 140.83 107.95C140.66 108.37 141.04 108.95 141.83 109.62C143.601 110.709 145.517 111.544 147.52 112.1C147.587 112.122 147.644 112.165 147.684 112.223C147.724 112.281 147.743 112.35 147.74 112.42C147.738 112.491 147.714 112.559 147.671 112.615C147.628 112.67 147.568 112.711 147.5 112.73C147.006 112.868 146.583 113.19 146.32 113.63C146.282 113.677 146.232 113.712 146.176 113.733C146.12 113.754 146.059 113.76 146 113.75Z" fill="#F28F8F"/>
<path d="M151.08 114.19C151.04 114.199 150.999 114.199 150.96 114.19L147.21 112.71C147.169 112.696 147.132 112.673 147.101 112.644C147.07 112.615 147.045 112.579 147.028 112.539C147.011 112.5 147.002 112.457 147.003 112.414C147.003 112.371 147.012 112.329 147.03 112.29C147.061 112.21 147.123 112.145 147.201 112.109C147.28 112.074 147.369 112.071 147.45 112.1L151.21 113.58C151.289 113.615 151.352 113.679 151.385 113.759C151.419 113.839 151.42 113.929 151.39 114.01C151.361 114.067 151.317 114.114 151.262 114.146C151.207 114.178 151.144 114.193 151.08 114.19Z" fill="#F28F8F"/>
<path d="M338.472 350.458C337.051 340.706 340.691 303.558 348.952 289.415C357.214 275.272 370.906 260.436 382.83 262.654C393.877 264.711 394.755 278.692 383.316 289.704C371.877 300.715 354.36 315.008 351.055 331.647L342.043 359.967L338.472 350.458Z" fill="#5C45BF"/>
<path opacity="0.1" d="M338.472 350.458C337.051 340.706 340.691 303.558 348.952 289.415C357.214 275.272 370.906 260.436 382.83 262.654C393.877 264.711 394.755 278.692 383.316 289.704C371.877 300.715 354.36 315.008 351.055 331.647L342.043 359.967L338.472 350.458Z" fill="black"/>
<path d="M341.118 347.396C341.269 347.355 341.403 347.267 341.499 347.144C341.595 347.021 341.648 346.87 341.65 346.714C342.158 312.443 364.077 280.691 379.029 271.852C379.193 271.755 379.312 271.598 379.36 271.413C379.407 271.229 379.38 271.034 379.283 270.87C379.187 270.706 379.029 270.587 378.845 270.539C378.661 270.492 378.465 270.519 378.301 270.616C363.061 279.628 340.726 311.9 340.171 346.691C340.169 346.785 340.187 346.878 340.221 346.966C340.256 347.053 340.307 347.133 340.373 347.201C340.438 347.268 340.516 347.322 340.603 347.36C340.689 347.397 340.782 347.417 340.876 347.419C340.957 347.43 341.04 347.422 341.118 347.396V347.396Z" fill="white"/>
<path d="M346.48 365.282C347.242 359.574 351.24 349.73 360.276 339.978C371.345 328.03 389.717 321.49 392.282 314.558C395.344 306.215 388.342 300.519 376.395 304.32C360.345 309.427 342.436 329.463 342.667 355.241L346.48 365.282Z" fill="#5C45BF"/>
<path d="M343.256 359.886C343.391 359.852 343.513 359.781 343.609 359.681C343.705 359.581 343.771 359.456 343.799 359.32C349.854 329.278 374.072 313.159 383.963 310.386C384.147 310.345 384.307 310.233 384.41 310.076C384.514 309.919 384.552 309.728 384.518 309.543C384.494 309.45 384.451 309.364 384.393 309.289C384.335 309.213 384.262 309.151 384.179 309.104C384.096 309.058 384.004 309.029 383.909 309.019C383.815 309.009 383.719 309.018 383.628 309.046C372.697 312.108 348.618 328.458 342.447 359.089C342.429 359.181 342.429 359.277 342.447 359.369C342.466 359.462 342.503 359.55 342.555 359.628C342.608 359.706 342.675 359.774 342.754 359.826C342.833 359.878 342.921 359.914 343.014 359.932C343.097 359.932 343.179 359.917 343.256 359.886V359.886Z" fill="white"/>
<path d="M324.045 378.828C324.203 380.274 324.404 384.327 331.749 385.34C339.094 386.353 343.716 383.915 345.679 380.38C347.642 376.844 347.188 373.963 347.494 370.692C347.8 367.42 350.513 365.679 351.293 363.99C352.433 361.51 350.766 357.658 350.766 357.658L324.045 378.828Z" fill="#263238"/>
<path d="M270.403 367.368C270.23 367.959 270.184 368.58 270.265 369.191C270.347 369.801 270.556 370.388 270.878 370.914C272.522 372.214 274.415 373.166 276.44 373.71C278.465 374.255 280.58 374.38 282.655 374.079C287.137 373.469 291.407 371.793 295.108 369.193C297.947 367.292 301.307 366.322 304.722 366.418C308.257 366.302 310.843 365.521 311.117 364.592C311.582 362.956 311.581 361.933 310.811 361.975L270.403 367.368Z" fill="#263238"/>
<path d="M349.014 352.002C348.096 358.703 335.105 358.165 336.16 352.815L333.849 336.552L348.55 337.006L349.014 352.002Z" fill="#FFA8A7"/>
<path d="M324.53 375.536C325.185 374.322 327.074 372.591 327.908 371.504C332.312 365.897 334.969 359.118 335.548 352.012C335.548 351.622 335.622 350.862 336.023 350.619C336.424 350.377 336.815 350.714 337.237 350.904C337.963 351.212 338.731 351.411 339.516 351.495C342.112 351.791 344.993 351.168 345.637 351.252C346.281 351.337 346.302 352.888 346.26 354.577C347.188 353.996 347.494 352.835 348.318 352.16C348.771 351.791 348.972 351.78 348.961 351.179C348.961 350.788 348.961 350.429 348.961 350.039C349.637 349.849 350.196 352.403 350.745 354.355C351.378 356.624 352.17 359.178 351.283 361.479C350.708 362.732 350 363.921 349.172 365.024C347.77 366.942 346.857 369.174 346.513 371.525C346.407 372.581 346.513 373.636 346.344 374.628C346.101 376.354 345.369 377.974 344.233 379.296C343.098 380.618 341.607 381.588 339.938 382.089C335.453 383.482 328.731 383.261 324.784 380.137C323.412 379.05 323.876 376.717 324.53 375.536Z" fill="#37474F"/>
<path d="M307.814 350.883C304.247 353.648 299.963 355.273 295.583 353.279L294.528 325.914L309.302 328.563L307.814 350.883Z" fill="#FFA8A7"/>
<path d="M273.389 362.64C274.371 362.323 275.331 361.975 276.281 361.584C278.934 360.504 281.496 359.212 283.943 357.722C284.998 357.067 286.053 356.381 287.108 355.611C288.164 354.841 289.219 354.007 290.274 353.163C290.824 352.68 291.322 352.143 291.762 351.559C292.651 350.47 293.396 349.271 293.979 347.992C294.067 347.69 294.262 347.431 294.527 347.263C294.706 347.201 294.898 347.187 295.084 347.224C295.27 347.261 295.442 347.348 295.583 347.474C295.837 347.681 296.109 347.865 296.395 348.023L297.261 348.382C298.184 348.759 299.159 348.998 300.152 349.089C303.888 349.416 304.004 348.667 304.163 349.87C304.198 350.32 304.198 350.771 304.163 351.221C306.136 350.894 307.687 350.261 307.772 349.511L308.004 347.126C309.967 346.947 310.115 350.461 310.748 354.408C311.265 357.574 312.035 359.906 311.149 362.26C308.183 364.845 302.949 364.223 299.973 364.708C295.752 365.404 293.778 368.528 287.921 370.554C278.423 373.826 272.503 370.058 270.73 368.444C269.58 366.407 269.347 363.927 273.389 362.64Z" fill="#37474F"/>
<path d="M344.867 189.059C345.616 200.668 346.977 217.669 347.452 231.082C348.339 256.284 347.99 285.02 347.99 285.02C349.4 290.305 350.308 295.711 350.703 301.167C351.304 317.271 351.199 353.427 351.199 353.427C351.199 353.427 344.518 360.149 334.535 354.872C334.535 354.872 325.681 304.217 323.211 288.302C320.847 273.158 316.236 242.923 316.236 242.923L314.125 285.896C315.727 292.648 316.257 299.611 315.697 306.528C315.159 313.915 310.948 350.334 310.948 350.334C307.107 353.933 295.92 351.97 293.472 349.11C293.472 349.11 289.557 295.289 289.114 287.5C288.174 270.689 285.673 207.992 286.929 198.262C288.185 188.532 344.867 189.059 344.867 189.059Z" fill="#263238"/>
<path d="M316.236 242.881L313.302 223.484C313.302 223.484 305.25 221.965 299.361 217.595C299.361 217.595 301.651 222.777 310.558 226.471L313.492 244.538L314.188 285.854L316.236 242.881Z" fill="black"/>
<path d="M332.688 111.229C333.226 113.414 336.909 113.076 338.556 112.664C339.532 112.459 340.4 111.904 340.995 111.103C341.59 110.302 341.871 109.31 341.785 108.316C342.618 108.094 343.369 107.636 343.948 106.997C344.338 106.482 344.561 105.861 344.587 105.216C344.614 104.571 344.442 103.933 344.096 103.388C344.765 102.912 345.289 102.262 345.613 101.508C345.937 100.754 346.048 99.9261 345.932 99.1138C345.707 97.938 345.062 96.8842 344.117 96.1484C343.203 95.4081 342.064 95.0023 340.888 94.998C340.508 94.998 340.128 95.7579 340.677 95.8212C341.532 95.9871 342.337 96.3482 343.03 96.8765C343.751 97.3808 344.309 98.0852 344.634 98.9028C344.837 99.5519 344.837 100.248 344.633 100.896C344.429 101.545 344.032 102.116 343.495 102.533C343.302 102.291 343.086 102.069 342.851 101.868C342.117 101.212 341.154 100.87 340.17 100.918C339.807 100.909 339.448 101.004 339.136 101.191C338.824 101.378 338.572 101.649 338.408 101.974C338.155 102.797 339.009 103.493 339.643 103.852C340.102 104.112 340.612 104.271 341.138 104.318C341.664 104.366 342.194 104.3 342.693 104.127C342.775 104.1 342.856 104.068 342.935 104.032C342.991 104.141 343.04 104.254 343.083 104.369C343.653 105.878 342.735 106.818 341.5 107.24C340.751 105.689 338.724 104.559 337.099 105.372C336.893 105.462 336.712 105.602 336.573 105.778C336.434 105.955 336.341 106.164 336.303 106.386C336.264 106.607 336.281 106.835 336.352 107.049C336.423 107.262 336.545 107.455 336.709 107.609C337.385 108.248 338.28 108.603 339.21 108.601C339.635 108.632 340.062 108.632 340.487 108.601C340.581 109.278 340.423 109.965 340.044 110.532C339.661 110.965 339.187 111.307 338.656 111.534C338.125 111.76 337.55 111.865 336.973 111.841C335.662 111.946 334.362 111.533 333.353 110.691C333.047 110.427 332.604 110.902 332.688 111.229ZM342.323 103.124C341.98 103.222 341.619 103.242 341.267 103.184C340.915 103.125 340.58 102.99 340.286 102.786C339.843 102.491 339.347 102.058 340.139 102.005C340.564 102.01 340.983 102.114 341.362 102.308C341.741 102.502 342.07 102.781 342.323 103.124ZM340.118 107.504C339.671 107.522 339.223 107.48 338.788 107.377C338.471 107.303 337.089 106.596 337.796 106.322C338.334 106.079 339.284 106.617 339.664 106.955C339.839 107.117 339.991 107.301 340.118 107.504V107.504Z" fill="#263238"/>
<path d="M335.253 70.409C335.484 70.4417 335.713 70.4875 335.939 70.5462C335.777 69.8498 335.856 69.1193 336.163 68.4736C336.469 67.8278 336.986 67.3049 337.627 66.9897C338.447 66.6607 339.363 66.6641 340.181 66.999C340.998 67.3339 341.653 67.9741 342.007 68.7838L337.226 70.9683C338.779 71.5212 340.075 72.6253 340.867 74.071C342.176 76.7726 340.445 82.5136 338.704 89.5843C337.722 94.0435 336.435 98.43 334.852 102.713C334.05 104.823 332.604 104.823 332.604 104.823V97.7631L332.91 91.906C332.91 91.906 329.153 86.7666 328.741 82.5558C328.203 77.142 329.343 74.9258 329.343 74.9258L335.253 70.409Z" fill="#263238"/>
<path d="M309.27 64.3409C311.63 64.3451 313.935 65.0491 315.894 66.3639C317.853 67.6786 319.379 69.545 320.277 71.7269C321.175 73.9088 321.405 76.308 320.94 78.621C320.474 80.934 319.332 83.0568 317.659 84.7208C315.986 86.3848 313.857 87.5151 311.542 87.9688C309.227 88.4224 306.829 88.179 304.652 87.2693C302.474 86.3596 300.616 84.8246 299.312 82.8584C298.007 80.8922 297.316 78.5833 297.324 76.2239C297.328 74.6592 297.641 73.1107 298.243 71.6667C298.846 70.2228 299.727 68.9116 300.836 67.8082C301.945 66.7047 303.261 65.8306 304.708 65.2357C306.156 64.6408 307.706 64.3367 309.27 64.3409V64.3409Z" fill="#263238"/>
<path d="M332.688 90.9772C334.102 92.2014 335.253 89.0354 336.445 87.8112C337.638 86.587 341.5 84.888 343.421 88.9615C345.342 93.0351 341.648 98.7444 338.746 100.085C334.525 102.058 332.604 97.7841 332.604 97.7841V115.461C328.14 123.502 318.484 121.624 313.914 122.753C313.232 120.698 313.232 118.477 313.914 116.421V110.67C311.992 111.039 310.028 111.142 308.078 110.976C304.216 110.364 302.147 107.187 300.997 103.008C299.139 96.296 298.749 85.0146 301.335 71.9813C305.661 68.6465 320.278 69.1952 329.322 74.894C328.689 86.5026 331.274 89.753 332.688 90.9772Z" fill="#FFA8A7"/>
<path d="M313.924 110.67C313.924 110.67 322.536 108.97 325.533 107.377C327.326 106.472 328.799 105.039 329.754 103.272C329.294 105.034 328.483 106.685 327.369 108.126C325.164 110.933 313.935 112.97 313.935 112.97L313.924 110.67Z" fill="#F28F8F"/>
<path d="M295.435 84.0017C295.508 84.6827 295.784 85.3261 296.226 85.8485C296.373 86.048 296.481 86.2737 296.543 86.5134C296.765 88.1985 297.118 89.8639 297.598 91.4945C297.987 92.577 298.704 93.5104 299.651 94.1636C300.598 94.8167 301.725 95.1566 302.875 95.1354C303.482 95.1648 304.091 95.1259 304.69 95.0193C304.736 95.0264 304.782 95.0264 304.827 95.0193C305.352 94.9155 305.858 94.7304 306.326 94.4705H306.41L306.547 94.3861L306.695 94.27C306.751 94.2447 306.801 94.2088 306.843 94.1645C306.906 94.1318 306.963 94.0891 307.012 94.0378L307.16 93.8901L307.455 93.6052C307.955 93.0502 308.365 92.4198 308.669 91.7372C309.481 90.017 309.323 87.5792 310.589 87.3365C310.642 87.3415 310.695 87.3415 310.748 87.3365H310.916C312.647 87.3998 312.394 90.0382 313.323 91.9483C313.837 93.1576 314.709 94.1803 315.823 94.8785C316.936 95.5766 318.236 95.9168 319.549 95.853H320.024H320.414C320.715 95.8366 321.015 95.8013 321.311 95.7475L321.596 95.6841L321.871 95.6103H322.04C322.405 95.492 322.758 95.3401 323.095 95.1565C323.211 95.0721 323.327 95.0087 323.443 94.9349C323.65 94.7774 323.847 94.6083 324.034 94.4283C324.529 93.9276 324.923 93.3364 325.195 92.687C325.709 91.0896 326.087 89.4515 326.324 87.7903C326.379 87.5386 326.479 87.2989 326.62 87.0832C327.08 86.6001 327.386 85.9898 327.496 85.3314C327.524 84.9871 327.436 84.6434 327.244 84.356C327.052 84.0685 326.769 83.8544 326.44 83.7484L325.533 83.6007C322.588 83.1891 318.747 82.9569 316.436 83.5373C313.523 84.2655 312.499 85.1731 310.895 85.1203C309.291 85.0676 308.447 84.065 305.714 83.1258C303.603 82.3659 299.952 82.3343 297.208 82.5242C296.902 82.5242 296.638 82.5242 296.353 82.5875C295.899 82.5031 295.393 83.2102 295.435 84.0017ZM314.378 86.1757C314.605 85.9026 314.89 85.6829 315.212 85.5319C315.262 85.4997 315.315 85.4715 315.37 85.4475H315.444C315.584 85.3946 315.721 85.3348 315.855 85.2681C315.971 85.2681 316.109 85.1836 316.235 85.1309C316.642 84.9813 317.058 84.8579 317.481 84.7615L317.977 84.656C318.388 84.5821 318.821 84.5188 319.243 84.4766H319.549C322.325 84.3077 324.045 84.9937 324.657 85.5319C325.269 86.0701 324.952 88.6979 324.657 89.9854C324.657 89.9854 324.657 90.0593 324.657 90.0804C324.666 90.1149 324.666 90.1513 324.657 90.1859C324.627 90.3611 324.585 90.5339 324.53 90.703C324.508 90.8147 324.477 90.9242 324.435 91.0302V91.0302C324.372 91.2096 324.309 91.389 324.235 91.5789C324.217 91.6433 324.189 91.704 324.15 91.7583C324.142 91.8005 324.124 91.8402 324.098 91.8744C324.098 91.8744 324.098 91.9483 324.098 91.9905L324.013 92.1488C324.013 92.2121 323.95 92.2649 323.908 92.3177C323.879 92.3834 323.84 92.444 323.791 92.4971C323.759 92.5606 323.72 92.6207 323.675 92.6765C323.231 93.284 322.637 93.7657 321.95 94.0747C321.264 94.3836 320.509 94.5091 319.76 94.4389C318.992 94.4867 318.223 94.3682 317.506 94.0913C316.788 93.8145 316.139 93.3858 315.602 92.8348C314.944 92.0775 314.496 91.1603 314.304 90.1753C313.987 88.6662 313.819 86.9566 314.378 86.1757ZM298.073 84.5082C298.268 84.3193 298.502 84.1753 298.759 84.0861L299.055 83.97H299.234H299.392H299.498H299.656C299.869 83.9265 300.084 83.8948 300.3 83.875H300.648H300.849C300.904 83.8854 300.962 83.8854 301.018 83.875C301.165 83.8647 301.313 83.8647 301.461 83.875H301.777C302.205 83.8974 302.631 83.9432 303.054 84.0122C305.028 84.3394 307.086 85.2997 307.603 86.1229C308.12 86.946 307.972 88.624 307.687 90.0804C307.621 90.406 307.533 90.7268 307.423 91.0407C307.415 91.0647 307.415 91.0906 307.423 91.1146C307.428 91.1496 307.428 91.1851 307.423 91.2201C307.423 91.2201 307.423 91.2201 307.423 91.2834C307.408 91.323 307.39 91.3618 307.371 91.3995C307.371 91.4839 307.297 91.5578 307.254 91.6317C307.224 91.7041 307.188 91.7746 307.149 91.8428V91.9061L307.065 92.0538L306.98 92.1699C306.52 92.824 305.888 93.3385 305.155 93.6569C304.421 93.9753 303.614 94.0852 302.822 93.9745C302.086 93.9567 301.363 93.7688 300.711 93.4257C298.77 92.3704 298.316 90.1753 298.094 89.2044C297.799 87.6426 297.472 85.0465 298.073 84.5082Z" fill="#263238"/>
<path d="M326.261 83.6533L338.925 86.4921C337.782 86.7865 336.764 87.4415 336.023 88.3601L326.251 86.5027L326.261 83.6533Z" fill="#263238"/>
<path d="M314.304 90.133C314.489 91.133 314.937 92.0655 315.602 92.8347C316.126 93.3823 316.76 93.8124 317.462 94.0962C318.164 94.3801 318.919 94.5112 319.676 94.481C320.425 94.5512 321.18 94.4257 321.866 94.1168C322.553 93.8079 323.147 93.3261 323.591 92.7186C323.636 92.6629 323.675 92.6028 323.707 92.5392C323.756 92.4862 323.795 92.4255 323.823 92.3598C323.823 92.307 323.887 92.2542 323.929 92.1909L324.013 92.0326C324.013 92.0326 324.013 91.9588 324.013 91.9165C324.039 91.8823 324.058 91.8426 324.066 91.8005C324.105 91.7462 324.133 91.6854 324.151 91.6211C324.224 91.4311 324.288 91.2517 324.351 91.0723C324.392 90.9663 324.424 90.8568 324.446 90.7451C324.501 90.576 324.543 90.4032 324.573 90.228C324.582 90.1935 324.582 90.157 324.573 90.1225C324.573 90.1225 324.573 90.0592 324.573 90.0275C324.858 88.74 325.206 86.165 324.573 85.574C323.939 84.983 322.24 84.2971 319.465 84.5187H319.159C318.737 84.5187 318.304 84.6242 317.892 84.6981L317.396 84.8036C316.974 84.9 316.558 85.0234 316.151 85.173C316.025 85.173 315.887 85.2574 315.771 85.3102C315.637 85.3769 315.5 85.4368 315.36 85.4896H315.286C315.231 85.5136 315.178 85.5418 315.127 85.574C314.806 85.725 314.521 85.9448 314.294 86.2178C313.819 86.9565 313.988 88.6661 314.304 90.133Z" fill="#37474F"/>
<path d="M297.421 89.2931C297.504 90.3608 297.872 91.3879 298.488 92.2687C298.979 92.9014 299.599 93.4236 300.309 93.8006C301.019 94.1775 301.801 94.4006 302.604 94.455C303.387 94.6137 304.198 94.5681 304.958 94.3228C305.717 94.0774 306.399 93.6407 306.937 93.0553C306.99 93.002 307.038 92.9435 307.079 92.8807C307.136 92.8307 307.185 92.7717 307.222 92.7061C307.228 92.6509 307.301 92.6028 307.353 92.5413L307.46 92.3852C307.46 92.3852 307.468 92.3079 307.473 92.2637C307.504 92.2309 307.528 92.1914 307.542 92.1482C307.588 92.0958 307.626 92.0354 307.651 91.97C307.75 91.7796 307.837 91.599 307.925 91.4184C307.98 91.3121 308.026 91.2011 308.062 91.0867C308.139 90.9159 308.203 90.7398 308.254 90.5598C308.268 90.5247 308.272 90.4866 308.266 90.4493C308.266 90.4493 308.273 90.3831 308.276 90.3499C308.722 89.0346 309.38 86.3788 308.778 85.6882C308.176 84.9976 306.459 84.0864 303.503 84.0029L303.18 83.9681C304.296 83.8206 302.734 83.9201 303.18 83.9681L302.411 83.8645C301.954 83.9173 301.274 83.7541 300.828 83.8645C300.694 83.8501 298.933 83.926 298.804 83.9681C298.655 84.0226 298.871 84.0266 298.717 84.066L299.611 84.2075C299.434 83.6753 298.545 84.1795 298.488 84.2075C298.131 84.329 298 84.6461 297.662 84.9198C297.077 85.6391 297.252 87.7216 297.421 89.2931Z" fill="#37474F"/>
<path d="M298.411 62.7683C298.411 62.6311 298.411 62.4833 298.464 62.3356C298.482 62.0629 298.581 61.8018 298.749 61.5863C299.329 60.9848 300.49 62.5044 300.859 62.8527C301.255 63.1969 301.667 63.5209 302.094 63.8236C302.497 64.0241 302.885 64.2534 303.255 64.5096C302.996 63.0753 302.996 61.6064 303.255 60.1722C303.434 59.2224 303.698 57.0062 304.88 56.7846C305.577 56.6368 306.189 57.2278 306.706 57.7133C311.423 62.1245 317.586 60.0877 323.264 60.2671C328.024 60.4149 333.754 62.3778 335.928 66.979C336.909 69.0897 337.078 71.3164 335.137 72.7728C333.891 73.7226 332.667 73.6804 331.971 75.1895C331.802 75.5588 330.715 80.0545 331.358 80.0123C330.193 80.1312 329.023 79.8326 328.057 79.1698C327.09 78.507 326.391 77.5229 326.082 76.3925C325.966 75.8965 325.702 74.9995 325.596 74.493C325.57 74.3445 325.513 74.2033 325.428 74.0789C325.343 73.9545 325.232 73.8498 325.103 73.7718C324.974 73.6938 324.83 73.6443 324.68 73.6267C324.53 73.6092 324.379 73.6238 324.235 73.6698C322.789 73.9864 321.85 74.5774 320.489 74.9468C316.601 76.0648 312.514 76.3063 308.521 75.6538C305.663 75.1113 303.04 73.7041 301.007 71.6225C299.976 70.4126 299.211 68.9985 298.764 67.4726C298.316 65.9468 298.196 64.3437 298.411 62.7683V62.7683Z" fill="#263238"/>
<path d="M316.953 81.3209L321.174 81.9647C321.248 81.3997 321.1 80.8282 320.762 80.3699C320.423 79.9115 319.921 79.6019 319.359 79.5058C319.082 79.4641 318.799 79.4783 318.527 79.5474C318.255 79.6164 317.999 79.7391 317.775 79.9081C317.551 80.0771 317.363 80.2891 317.222 80.5317C317.081 80.7743 316.989 81.0426 316.953 81.3209Z" fill="#263238"/>
<path d="M315.982 100.718L312.468 101.636C312.518 101.87 312.614 102.092 312.751 102.288C312.888 102.484 313.063 102.651 313.266 102.778C313.469 102.905 313.695 102.99 313.932 103.028C314.168 103.065 314.41 103.055 314.642 102.998C315.116 102.864 315.521 102.552 315.77 102.127C316.02 101.702 316.096 101.197 315.982 100.718V100.718Z" fill="#F28F8F"/>
<path d="M301.144 81.5637L305.366 81.0993C305.349 80.8225 305.276 80.552 305.151 80.3042C305.026 80.0564 304.853 79.8365 304.641 79.6579C304.428 79.4792 304.182 79.3456 303.917 79.265C303.651 79.1845 303.372 79.1587 303.097 79.1892C302.529 79.2606 302.011 79.5465 301.648 79.988C301.285 80.4296 301.105 80.9934 301.144 81.5637V81.5637Z" fill="#263238"/>
<path d="M311.381 87.3682L310.811 97.2145L305.323 95.7792L310.801 87.2522C311 87.2456 311.199 87.2854 311.381 87.3682V87.3682Z" fill="#F28F8F"/>
<path d="M334.957 94.2066C334.955 94.7163 335.104 95.2152 335.386 95.64C335.668 96.0649 336.069 96.3965 336.539 96.5931C337.01 96.7896 337.528 96.8421 338.028 96.7439C338.528 96.6457 338.988 96.4013 339.349 96.0416C339.71 95.6819 339.957 95.2231 340.057 94.7234C340.157 94.2236 340.107 93.7053 339.912 93.2342C339.717 92.763 339.387 92.3602 338.964 92.0768C338.54 91.7934 338.042 91.6421 337.532 91.6421C337.194 91.6407 336.86 91.706 336.547 91.8343C336.235 91.9625 335.951 92.1512 335.712 92.3895C335.473 92.6277 335.283 92.9109 335.153 93.2227C335.024 93.5346 334.957 93.8689 334.957 94.2066Z" fill="#263238"/>
<path d="M334.683 89.5104C334.904 88.7319 335.293 88.0114 335.823 87.3997C336.091 87.143 336.413 86.9477 336.764 86.8274C337.116 86.7071 337.49 86.6648 337.859 86.7032C337.859 86.7032 337.933 86.7876 337.859 86.8087C337.574 86.9776 337.374 87.0726 337.089 87.2731C336.805 87.4653 336.543 87.6882 336.308 87.9379C336.101 88.1774 335.934 88.4481 335.812 88.74C335.66 89.0747 335.561 89.4306 335.516 89.7953C335.447 90.3697 335.531 90.9522 335.759 91.4838C335.877 91.7786 336.041 92.0528 336.245 92.2964C336.464 92.4751 336.656 92.6849 336.815 92.9191C336.973 93.2462 336.519 93.8056 336.171 93.6156C335.511 93.2008 335.015 92.5707 334.767 91.8321C334.458 91.0942 334.428 90.2688 334.683 89.5104V89.5104Z" fill="#263238"/>
<path d="M298.105 124.568C294.538 126.911 289.61 129.951 288.407 133.254C287.204 136.557 283.731 155.711 283.352 161.885C286.514 163.375 289.902 164.33 293.377 164.713L298.105 124.568Z" fill="#455A64"/>
<path d="M340.244 115.44C349.278 120.4 358.185 127.808 360.105 130.658C360.105 130.658 354.829 148.25 350.175 156.598C345.521 164.945 343.03 189.629 343.03 189.629C343.03 189.629 311.201 200.183 301.229 201.016C291.256 201.85 289.989 197.608 289.989 197.608C289.989 197.608 289.778 170.011 292.1 151.595C294.422 133.18 293.915 127.703 298.137 124.569C300.87 122.553 312.647 117.445 312.647 117.445V122.722C319.085 122.848 340.244 115.44 340.244 115.44Z" fill="#37474F"/>
<path d="M310.167 125.55C309.583 124.359 309.349 123.027 309.492 121.708L312.151 119.777V123.122L310.167 125.55Z" fill="#5C45BF"/>
<path opacity="0.25" d="M310.167 125.55C309.583 124.359 309.349 123.027 309.492 121.708L312.151 119.777V123.122L310.167 125.55Z" fill="black"/>
<path d="M315.338 123.513L322.219 119.587L327.39 123.682L316.942 128.019L315.338 123.513Z" fill="#5C45BF"/>
<path opacity="0.25" d="M315.338 123.513L322.219 119.587L327.39 123.682L316.942 128.019L315.338 123.513Z" fill="black"/>
<path d="M332.604 107.968V109.361C332.34 110.68 329.744 113.741 323.19 116.674C316.637 119.608 313.914 122.743 313.914 122.743C315.684 122.79 317.436 123.114 319.106 123.703C322.093 124.758 327.053 128.557 328.467 128.515C329.881 128.473 331.833 124.568 335.538 120.674C338.703 117.403 340.244 115.398 340.244 115.398C340.244 115.398 335.158 108 332.604 107.968Z" fill="#455A64"/>
<path d="M313.914 122.743C311.539 123.006 309.313 124.653 308.732 123.798C308.152 122.943 310.167 114.997 313.893 112.58L313.914 122.743Z" fill="#455A64"/>
<path d="M290.908 164.386C290.908 164.386 290.623 169.314 290.549 171.003C290.475 172.691 293.293 201.607 293.293 201.607L283.352 205.829C283.352 205.829 282.148 194.684 281.758 188.479C281.436 182.089 281.722 175.682 282.613 169.346C283.394 164.069 283.668 162.043 283.668 162.043C285.995 163.07 288.42 163.855 290.908 164.386V164.386Z" fill="#F28F8F"/>
<path d="M284.153 219.96C284.153 219.96 284.153 220.403 284.153 222.07C284.402 224.861 284.962 227.614 285.821 230.281C286.443 231.843 287.931 235.272 288.712 235.673C289.45 236.085 290.305 236.237 291.14 236.106C292.712 235.958 294.358 236.771 295.846 236.053C296.423 235.739 297.031 235.488 297.662 235.304C298.58 235.082 299.635 235.357 300.458 234.871C300.986 234.565 301.313 233.995 301.83 233.679C302.59 233.215 303.593 233.383 304.405 233.014C304.725 232.851 305.008 232.624 305.239 232.349C305.469 232.073 305.641 231.754 305.745 231.41C306.21 230.017 305.745 228.444 305.471 227.051C305.959 226.366 306.207 225.539 306.178 224.698C306.209 222.895 306 221.095 305.555 219.348C305.207 218.292 297.989 214.187 297.989 214.187L296.564 213.248C293.536 212.573 290.364 213.083 287.699 214.672C283.467 217.364 284.153 219.96 284.153 219.96Z" fill="#FFA8A7"/>
<path d="M286.106 219.759C284.196 222.925 285.315 228.634 285.325 228.698C284.727 226.537 284.335 224.325 284.154 222.091C284.154 220.403 284.154 219.981 284.154 219.981C284.154 219.981 283.468 217.342 287.647 214.704C290.311 213.114 293.483 212.605 296.512 213.279C296.512 213.279 288.016 216.561 286.106 219.759Z" fill="#F28F8F"/>
<path d="M305.418 227.02C304.745 224.961 303.705 223.041 302.347 221.352C301.545 220.614 300.87 219.675 301.672 219.991C302.474 220.308 303.593 220.487 304.036 219.928C304.479 219.368 304.574 220.339 304.036 221.099C303.498 221.859 303.951 222.439 304.532 223.685C304.977 224.751 305.276 225.873 305.418 227.02V227.02Z" fill="#F28F8F"/>
<path d="M357.351 131.006C360.359 132.061 360.76 140.293 360.106 147.68C359.451 155.067 353.689 172.533 351.061 178.612C348.117 185.44 346.334 189.376 344.371 191.518C342.408 193.661 338.302 195.423 333.047 198.146C328.298 200.605 325.048 201.85 316.943 204.362C307.803 207.201 304.279 207.369 302.337 208.731C300.395 210.092 299.846 213.047 297.936 214.155L296.512 213.216C293.299 213.987 290.231 215.27 287.425 217.015C286.168 217.794 285.06 218.791 284.154 219.959V222.07C284.154 222.07 281.842 223.041 279.88 218.904C277.917 214.767 277.02 208.562 279.278 205.85C281.536 203.137 288.692 199.423 294.496 197.608C300.3 195.792 303.181 193.893 309.956 189.798C317.175 185.44 322.188 182.538 325.786 180.575C327.148 179.783 328.066 178.823 328.678 176.353C329.163 174.369 330.609 168.502 331.496 164.09C332.91 156.714 336.086 134.404 357.351 131.006Z" fill="#FFA8A7"/>
<path d="M360.105 130.658C360.105 130.658 361.509 130.9 361.699 136.747C361.949 142.279 361.684 147.822 360.907 153.305C360.137 157.79 355.631 171.034 355.631 171.034C355.631 171.034 342.682 175.256 329.427 170.222C329.427 170.222 332.54 151.12 333.712 146.055C334.883 140.989 351.293 125.36 360.105 130.658Z" fill="#455A64"/>
<path d="M314.283 131.038C313.545 135.786 312.531 147.068 312.531 162.993C312.531 166.898 306.833 174.823 305.492 174.654C304.152 174.485 301.693 167.035 301.345 162.708C301.883 152.239 308.215 135.998 310.98 130.447L314.283 131.038Z" fill="#5C45BF"/>
<path opacity="0.15" d="M310.769 130.9C310.831 130.745 310.901 130.594 310.98 130.447L314.283 131.038L314.083 132.431C312.84 132.298 311.676 131.761 310.769 130.9V130.9Z" fill="black"/>
<path d="M315.339 123.513C314.301 123.269 313.239 123.142 312.173 123.133C311.332 123.788 310.641 124.616 310.146 125.561C310.053 127.229 310.33 128.898 310.959 130.447C311.433 130.78 311.975 131.005 312.545 131.107C313.116 131.21 313.702 131.186 314.262 131.038C315.425 130.314 316.35 129.265 316.922 128.019C317.002 126.368 316.434 124.751 315.339 123.513V123.513Z" fill="#5C45BF"/>
</svg>
