<svg width="500" height="500" viewBox="0 0 500 500" fill="none" xmlns="http://www.w3.org/2000/svg">
<path d="M417.76 449.3C444.689 449.3 466.52 436.697 466.52 421.15C466.52 405.603 444.689 393 417.76 393C390.831 393 369 405.603 369 421.15C369 436.697 390.831 449.3 417.76 449.3Z" fill="#EBEBEB"/>
<path d="M103.37 294.18C128.979 294.18 149.74 282.195 149.74 267.41C149.74 252.625 128.979 240.64 103.37 240.64C77.7606 240.64 57 252.625 57 267.41C57 282.195 77.7606 294.18 103.37 294.18Z" fill="#EBEBEB"/>
<path d="M176.54 336.79C202.149 336.79 222.91 324.805 222.91 310.02C222.91 295.235 202.149 283.25 176.54 283.25C150.931 283.25 130.17 295.235 130.17 310.02C130.17 324.805 150.931 336.79 176.54 336.79Z" fill="#EBEBEB"/>
<path d="M250.64 380.1C276.249 380.1 297.01 368.115 297.01 353.33C297.01 338.545 276.249 326.56 250.64 326.56C225.031 326.56 204.27 338.545 204.27 353.33C204.27 368.115 225.031 380.1 250.64 380.1Z" fill="#EBEBEB"/>
<path d="M442.26 405.182C441.03 396.742 444.18 364.592 451.33 352.352C458.48 340.112 470.33 327.272 480.65 329.192C490.21 330.972 490.97 343.072 481.07 352.602C471.17 362.132 456.01 374.502 453.15 388.902L445.35 413.412L442.26 405.182Z" fill="#5C45BF"/>
<path opacity="0.1" d="M442.26 405.182C441.03 396.742 444.18 364.592 451.33 352.352C458.48 340.112 470.33 327.272 480.65 329.192C490.21 330.972 490.97 343.072 481.07 352.602C471.17 362.132 456.01 374.502 453.15 388.902L445.35 413.412L442.26 405.182Z" fill="black"/>
<path d="M444.55 402.532C444.681 402.497 444.796 402.42 444.879 402.314C444.962 402.207 445.008 402.077 445.01 401.942C445.45 372.282 464.42 344.802 477.36 337.152C477.502 337.068 477.605 336.932 477.646 336.772C477.687 336.613 477.664 336.444 477.58 336.302C477.497 336.16 477.36 336.057 477.201 336.016C477.041 335.974 476.872 335.998 476.73 336.082C463.54 343.882 444.21 371.812 443.73 401.922C443.729 402.003 443.743 402.084 443.773 402.16C443.803 402.235 443.848 402.305 443.905 402.363C443.961 402.422 444.029 402.468 444.104 402.501C444.178 402.533 444.259 402.55 444.34 402.552C444.411 402.561 444.482 402.554 444.55 402.532V402.532Z" fill="white"/>
<path d="M449.19 418.012C449.85 413.072 453.31 404.552 461.13 396.112C470.71 385.772 486.61 380.112 488.83 374.112C491.48 366.892 485.42 361.962 475.08 365.252C461.19 369.672 445.69 387.012 445.89 409.322L449.19 418.012Z" fill="#5C45BF"/>
<path d="M446.4 413.342C446.517 413.312 446.622 413.251 446.706 413.164C446.789 413.077 446.846 412.969 446.87 412.852C452.11 386.852 473.07 372.902 481.63 370.502C481.789 370.466 481.928 370.37 482.017 370.233C482.107 370.097 482.14 369.932 482.11 369.772C482.09 369.692 482.053 369.617 482.003 369.552C481.952 369.487 481.889 369.432 481.817 369.392C481.745 369.352 481.666 369.327 481.584 369.318C481.502 369.309 481.419 369.317 481.34 369.342C471.88 371.992 451.04 386.142 445.7 412.652C445.684 412.732 445.684 412.814 445.7 412.894C445.716 412.975 445.748 413.051 445.793 413.119C445.839 413.186 445.897 413.245 445.966 413.29C446.034 413.335 446.11 413.366 446.19 413.382C446.262 413.382 446.333 413.368 446.4 413.342V413.342Z" fill="white"/>
<path d="M375.23 57.59L384.16 62.75C384.16 62.35 384.09 61.95 384.09 61.57V59C384.09 54.39 387.32 52.52 391.31 54.82C393.032 55.8853 394.503 57.3114 395.62 59C396.27 53.2 400.82 51 406.34 54.23C412.34 57.68 417.15 66.06 417.15 72.95V76.83C417.187 78.376 416.876 79.9105 416.24 81.32L423.66 85.6C424.824 86.3625 425.792 87.3879 426.487 88.5934C427.182 89.7988 427.584 91.1507 427.66 92.54C427.66 95.1 425.86 96.14 423.66 94.86L375.23 66.86C374.063 66.101 373.092 65.0765 372.397 63.8703C371.702 62.6641 371.302 61.3104 371.23 59.92C371.22 57.35 373 56.31 375.23 57.59Z" fill="#EBEBEB"/>
<path d="M337 83.63L343.74 87.53C343.74 87.22 343.69 86.93 343.69 86.63V84.68C343.69 81.2 346.13 79.79 349.14 81.53C350.438 82.3249 351.547 83.393 352.39 84.66C352.88 80.28 356.31 78.66 360.48 81.06C364.99 83.66 368.64 89.99 368.64 95.19V98.11C368.67 99.2776 368.434 100.437 367.95 101.5L373.55 104.74C374.425 105.315 375.153 106.089 375.674 106.997C376.195 107.906 376.495 108.924 376.55 109.97C376.55 111.9 375.19 112.69 373.55 111.72L337 90.62C336.125 90.0423 335.397 89.2672 334.876 88.3571C334.355 87.4469 334.055 86.4272 334 85.38C334 83.45 335.31 82.67 337 83.63Z" fill="#EBEBEB"/>
<path d="M263.44 205C255.67 173.71 246.79 166.45 255.09 162.23C263.62 161.4 268.02 166.44 269.5 175.42C270.23 179.82 271.81 197.86 273.79 204.93C275.54 211.14 277.88 218.88 280.48 223.63C280.948 224.47 281.71 225.108 282.62 225.42C285.05 226.29 285.77 227.64 287.74 228.97C289.29 229.97 290.43 230.1 290.36 230.55C290.223 231.067 289.895 231.512 289.442 231.796C288.989 232.08 288.445 232.181 287.92 232.08C286.92 231.934 285.944 231.651 285.02 231.24C286.216 232.878 287.636 234.339 289.24 235.58C293.04 238.58 293.67 240.82 287.64 242.2C283.86 243.06 280.33 241.39 275.64 233.68C273.858 230.867 272.281 227.929 270.92 224.89C267.66 217 264.69 210.08 263.44 205Z" fill="#FFA8A7"/>
<path d="M236.63 344.55V343.34C237.11 344.76 239.33 350.89 242.7 353.96C245.38 356.41 249.03 359.23 249.96 361.96C250.89 364.69 244.88 365.74 242.37 365.3C239.47 364.79 235.71 363.14 233.66 360.62C232.22 358.85 231.3 356.76 230.27 355.37C229.24 353.98 226.88 352.42 226.27 350.81C225.97 349.93 226.33 347.99 226.76 346.36C227.19 344.73 227.58 343.2 228.09 343.36V344.28C229.302 345.228 230.801 345.736 232.34 345.72C233.63 345.74 236.64 345.5 236.63 344.55Z" fill="#263238"/>
<path d="M245.12 356.11C244.29 355.37 243.46 354.65 242.7 353.95C240.35 351.81 238.55 348.17 237.52 345.68C236.932 344.266 236.629 342.751 236.63 341.22V336.38H228.14V344.25V344.46C228.55 346.22 232.45 350.91 234.66 353.97C236.14 356.02 238.96 358.63 242.33 359.08C245.57 359.54 247.2 358.53 245.12 356.11Z" fill="#FFA8A7"/>
<path d="M269.75 336.18V335C270.22 336.42 272.45 342.55 275.81 345.62C278.49 348.07 282.15 350.89 283.07 353.62C283.99 356.35 277.99 357.4 275.49 356.96C272.58 356.45 268.82 354.8 266.77 352.28C265.33 350.51 264.42 348.42 263.39 347.03C262.36 345.64 259.99 344.08 259.44 342.47C259.13 341.59 259.49 339.65 259.92 338.02C260.35 336.39 260.74 334.87 261.26 335.02V335.94C262.468 336.889 263.964 337.397 265.5 337.38C266.74 337.37 269.76 337.13 269.75 336.18Z" fill="#263238"/>
<path d="M278.24 347.74C277.41 347 276.57 346.28 275.81 345.59C273.46 343.44 271.67 339.8 270.64 337.31C270.051 335.897 269.748 334.381 269.75 332.85V328H261.26V335.87V336.08C261.67 337.84 265.56 342.53 267.78 345.59C269.26 347.64 272.08 350.25 275.45 350.7C278.68 351.17 280.31 350.16 278.24 347.74Z" fill="#FFA8A7"/>
<path d="M229.83 212.61C223.25 226.98 230.07 277.61 230.07 277.61C229.87 279.94 227.2 284.54 226.21 294.8C225.03 306.93 228.05 337.4 228.05 337.4C229.344 338.151 230.803 338.574 232.298 338.634C233.793 338.693 235.28 338.386 236.63 337.74C236.63 337.74 244.72 291.86 246.24 279.8C247.57 269.27 250.12 246.12 250.12 246.12L257.36 279.74C256.302 283.132 255.536 286.608 255.07 290.13C254.38 297.22 261.26 330.26 261.26 330.26C261.26 330.26 264.19 331.33 269.75 330.51C269.75 330.51 272.18 286.68 272.82 278.13C273.89 263.78 270.08 218.99 267.45 210.49L229.83 212.61Z" fill="#5C45BF"/>
<path opacity="0.1" d="M250.12 246.13L252.26 232.78C252.26 232.78 261.26 230.91 265.4 227.05C265.4 227.05 261.1 232.41 254.71 234.16L252.31 244.44L256.5 275.56L250.12 246.13Z" fill="black"/>
<path d="M241.44 162.66C233 163.24 232.44 167.32 230.3 171.78C228.751 175.212 228.607 179.114 229.9 182.65L235.78 199.65C233.384 203.782 231.391 208.136 229.83 212.65C244.59 220.88 263.01 216.55 267.45 210.54C267.64 209.27 266.5 199.3 265.79 192.79C268.39 186.27 269.08 182.14 267.98 177.79C265.98 169.79 258.05 162 254.55 162.28L241.44 162.66Z" fill="#F5F5F5"/>
<path d="M251.47 154.91H245.25C243.189 154.919 241.146 154.522 239.238 153.741C237.33 152.961 235.595 151.812 234.131 150.36C232.668 148.909 231.505 147.183 230.708 145.282C229.912 143.381 229.498 141.341 229.49 139.28V139.28C229.469 134.293 231.429 129.502 234.939 125.959C238.45 122.417 243.223 120.414 248.21 120.39V120.39C250.68 120.379 253.128 120.856 255.414 121.791C257.701 122.727 259.78 124.103 261.534 125.843C263.288 127.582 264.683 129.65 265.638 131.928C266.593 134.206 267.09 136.65 267.1 139.12V139.12C267.113 141.184 266.719 143.23 265.94 145.141C265.161 147.052 264.013 148.791 262.561 150.258C261.109 151.725 259.382 152.891 257.479 153.689C255.576 154.487 253.534 154.902 251.47 154.91V154.91Z" fill="#263238"/>
<path d="M243.34 116C246.03 120 243.18 122.66 239.22 125.35C235.26 128.04 231.71 129.68 229.02 125.73C226.33 121.78 227.81 117.36 231.77 114.73C235.73 112.1 240.66 112.05 243.34 116Z" fill="#263238"/>
<path d="M233.66 128.24L229.66 131.18C229.455 130.928 229.304 130.637 229.215 130.325C229.125 130.013 229.1 129.686 229.14 129.363C229.18 129.041 229.285 128.73 229.448 128.45C229.612 128.169 229.83 127.924 230.09 127.73C230.634 127.332 231.312 127.162 231.979 127.258C232.646 127.353 233.25 127.706 233.66 128.24V128.24Z" fill="#263238"/>
<path d="M259.84 128.8C261.84 129.96 264.31 134.95 264.11 145.43C263.94 154.31 261.11 156.51 259.63 157.15C258.15 157.79 255.4 157.42 252.69 156.98L252.85 162.37C252.85 162.37 257.41 166.11 257.19 168.55C256.97 170.99 250.86 172.12 247.34 169.75C245.046 168.155 242.922 166.328 241 164.3C240.909 164.198 240.859 164.066 240.86 163.93V150.49C240.86 150.49 239.27 152.05 236.56 149.69C234.32 147.75 233.56 144.46 235.28 142.69C235.729 142.267 236.272 141.957 236.864 141.786C237.456 141.615 238.081 141.587 238.686 141.705C239.291 141.824 239.859 142.084 240.343 142.466C240.827 142.848 241.214 143.339 241.47 143.9C241.47 143.9 245.8 144.04 251.54 140.85C253.774 139.636 255.69 137.912 257.132 135.818C258.574 133.724 259.502 131.32 259.84 128.8Z" fill="#FFA8A7"/>
<path d="M254.19 143.24C254.194 143.46 254.133 143.676 254.014 143.861C253.896 144.046 253.726 144.192 253.525 144.282C253.325 144.371 253.102 144.399 252.885 144.363C252.668 144.327 252.467 144.227 252.306 144.078C252.146 143.928 252.033 143.734 251.981 143.52C251.93 143.307 251.942 143.083 252.017 142.876C252.092 142.67 252.227 142.49 252.403 142.359C252.58 142.228 252.791 142.152 253.01 142.14C253.312 142.132 253.605 142.243 253.825 142.448C254.046 142.654 254.177 142.938 254.19 143.24Z" fill="#263238"/>
<path d="M254.52 150.76L257.12 151.58C257.073 151.754 256.991 151.917 256.88 152.059C256.769 152.2 256.631 152.319 256.473 152.406C256.316 152.494 256.142 152.549 255.963 152.569C255.784 152.588 255.603 152.572 255.43 152.52C255.082 152.399 254.794 152.149 254.624 151.821C254.455 151.494 254.418 151.114 254.52 150.76V150.76Z" fill="#F28F8F"/>
<path d="M263.33 139.77L261.06 138.22C261.153 138.066 261.277 137.933 261.424 137.829C261.571 137.724 261.738 137.651 261.914 137.614C262.09 137.576 262.272 137.575 262.448 137.611C262.625 137.646 262.792 137.717 262.94 137.82C263.241 138.034 263.45 138.355 263.522 138.717C263.594 139.08 263.526 139.456 263.33 139.77V139.77Z" fill="#263238"/>
<path d="M262.82 142.4C262.822 142.619 262.759 142.834 262.639 143.018C262.52 143.202 262.349 143.347 262.148 143.435C261.947 143.523 261.725 143.549 261.509 143.512C261.293 143.474 261.092 143.374 260.933 143.224C260.773 143.074 260.661 142.88 260.61 142.667C260.56 142.453 260.573 142.23 260.648 142.024C260.724 141.818 260.858 141.638 261.034 141.508C261.21 141.378 261.421 141.302 261.64 141.29C261.943 141.282 262.238 141.394 262.459 141.602C262.68 141.81 262.81 142.097 262.82 142.4Z" fill="#263238"/>
<path d="M257.79 141.22L257.76 148.5L261.29 147.39L257.79 141.22Z" fill="#F28F8F"/>
<path d="M252.69 157C249.83 156.63 243.95 155 243.03 152.65C243.392 153.84 244.116 154.889 245.1 155.65C246.86 157.14 252.74 158.83 252.74 158.83L252.69 157Z" fill="#F28F8F"/>
<path d="M245.21 214.2C244.055 213.934 242.964 213.44 242.002 212.747C241.041 212.054 240.227 211.176 239.608 210.165C238.99 209.154 238.58 208.029 238.401 206.857C238.223 205.685 238.28 204.489 238.57 203.34C238.611 203.181 238.661 203.024 238.72 202.87C238.921 202.247 239.327 201.71 239.871 201.347C240.416 200.984 241.068 200.816 241.72 200.87V200.87C240.827 200.185 240.079 199.329 239.519 198.352C238.96 197.375 238.6 196.297 238.46 195.18L236.24 184.71C236.026 182.974 236.179 181.213 236.69 179.54L230.76 172.68L229.67 173.44C228.769 176.451 228.853 179.67 229.91 182.63L235.79 199.63C233.358 203.743 231.363 208.1 229.84 212.63C234.641 215.211 239.94 216.733 245.379 217.092C250.819 217.451 256.271 216.638 261.37 214.71C256 215.567 250.516 215.394 245.21 214.2V214.2Z" fill="#E0E0E0"/>
<path d="M242 239.3L220.54 227C220.54 227 210.1 241.34 217.21 245.39C224.32 249.44 231.37 253.57 238.45 257.66C246.47 254.56 242 239.3 242 239.3Z" fill="#37474F"/>
<path d="M238.45 241.34L221.66 231.63V232.56L238.45 242.37V241.34Z" fill="#5C45BF"/>
<path d="M242 239.3C240.62 243.8 236.47 256.55 238.46 257.7C240.45 258.85 246.6 254.89 246.46 252.5C246.11 245.77 242 239.3 242 239.3Z" fill="#455A64"/>
<path d="M236.07 162.62C236.948 162.533 237.831 162.727 238.591 163.175C239.352 163.622 239.95 164.3 240.3 165.11C243.73 171.63 241.37 238.95 241.37 238.95L239.05 237.62C239.05 237.62 239.86 215.92 239.78 196.16C239.72 181.65 239.18 167.95 238.56 166.46C238.264 165.602 237.685 164.871 236.918 164.386C236.151 163.9 235.242 163.69 234.34 163.79C234.525 163.48 234.776 163.215 235.075 163.013C235.374 162.811 235.714 162.677 236.07 162.62V162.62Z" fill="#263238"/>
<path d="M214.73 205C221.29 178.18 226.38 166.67 233.56 164C234.098 163.791 234.675 163.706 235.25 163.75C235.825 163.793 236.383 163.966 236.883 164.253C237.383 164.541 237.812 164.937 238.138 165.412C238.465 165.888 238.681 166.43 238.77 167C239.389 172.412 238.052 177.868 235 182.38C235 182.38 225.43 202.58 223.9 209.76C222.56 216.04 221.05 223.94 221.13 229.36C221.15 230.337 221.527 231.272 222.19 231.99C223.95 233.89 223.95 235.42 225.09 237.52C225.97 239.16 226.94 239.78 226.67 240.14C226.307 240.534 225.808 240.775 225.273 240.816C224.739 240.857 224.209 240.694 223.79 240.36C222.974 239.766 222.244 239.063 221.62 238.27C221.916 240.278 222.495 242.234 223.34 244.08C225.34 248.51 224.83 250.77 218.85 249.19C215.1 248.19 212.75 245.08 212.19 236.07C211.911 232.744 211.878 229.401 212.09 226.07C212.92 217.56 213.49 210.05 214.73 205Z" fill="#FFA8A7"/>
<path d="M210.34 167C210.94 161.14 210.94 158.66 210.76 157.93C209.94 154.6 207.62 151.93 205.18 147.93C201 141 194.68 130.18 191.77 126C189.47 122.72 186.99 120.8 183.2 121C180.56 121.15 182.61 131.6 185.2 139.13L199.15 158.38C199.609 159.009 199.82 159.785 199.74 160.56L198.38 174.28L202.83 180.23C202.83 180.23 209.57 174.47 210.34 167Z" fill="#FFA8A7"/>
<path d="M210.42 166.16C210.22 165.16 209.52 164.27 207.69 164.34C205.86 164.41 204.43 166.77 204.43 166.77L209.59 169.06C209.86 168.38 210.12 167.68 210.34 166.98C210.37 166.7 210.4 166.43 210.42 166.16Z" fill="#F28F8F"/>
<path d="M181.67 120.9C181.67 120.9 187.4 120.18 190.58 123.64C193.76 127.1 195.31 129.99 198.39 135.1C202.1 141.26 203.71 144.42 203.71 144.42C203.71 144.42 197.91 152.17 189.36 151.16L181.67 120.9Z" fill="#37474F"/>
<path d="M191.576 102.392C196.204 97.7647 196.204 90.2617 191.576 85.634C186.949 81.0063 179.446 81.0063 174.818 85.634C170.19 90.2617 170.19 97.7647 174.818 102.392C179.446 107.02 186.949 107.02 191.576 102.392Z" fill="#263238"/>
<path d="M154.83 308.77H163.18V294.48H154.83V308.77Z" fill="#FFA8A7"/>
<path d="M183.77 298.77L192.11 299.06L192.53 283.94L184.19 283.66L183.77 298.77Z" fill="#FFA8A7"/>
<path d="M155.38 181.23C155.38 189.23 154.38 237.5 154.38 237.5C154.18 239.79 152.04 244.02 152.5 252.83C153.13 264.83 154.17 295.89 154.17 295.89C154.17 295.89 158.08 299.77 163.6 295.89C163.6 295.89 171.16 252.89 172.66 241.01C173.96 230.66 176.18 202.55 176.18 202.55L180.8 241.55C180.8 241.55 179.44 249.33 179.14 254.82C178.84 260.31 183.67 288.17 183.67 288.17C185.021 289.016 186.57 289.494 188.163 289.555C189.756 289.616 191.338 289.26 192.75 288.52C192.75 288.52 196.35 246.03 197.21 241.07C198.07 236.11 194.44 181.21 194.44 181.21L155.38 181.23Z" fill="#EBEBEB"/>
<path d="M163.4 123.58C161.623 123.892 159.979 124.724 158.674 125.969C157.37 127.215 156.464 128.82 156.07 130.58C155.609 132.662 155.377 134.788 155.38 136.92V181.22C161.23 187.59 181.63 190.56 194.38 181.22C194.38 181.22 194.13 142.09 193.18 135.66C191.51 124.49 186.18 120.51 180.8 120.92L167.91 122.77L163.4 123.58Z" fill="#5C45BF"/>
<path d="M162.72 102.43C162.72 102.43 164.64 111.43 165.41 112.94C165.924 113.853 166.769 114.533 167.77 114.84L167.64 108.49L162.72 102.43Z" fill="#263238"/>
<path d="M165.13 89.51C164.458 89.4336 163.778 89.5109 163.14 89.7361C162.503 89.9613 161.925 90.3286 161.45 90.81C159.87 92.42 160.76 97.48 162.72 102.43L166.34 102.85L165.13 89.51Z" fill="#263238"/>
<path d="M167.42 102.85C166.7 103.29 165.67 101.85 164.77 100.96C163.87 100.07 160.96 98.74 159.5 101.81C158.04 104.88 160.79 109.07 163.08 109.81C167.08 111.06 167.64 108.51 167.64 108.51L167.94 122.8C168.816 124.717 170.153 126.386 171.832 127.66C173.51 128.934 175.478 129.772 177.56 130.1C184.56 131.05 183.14 125.26 180.83 122.42V118.08C182.595 118.36 184.385 118.45 186.17 118.35C189.08 117.9 190.91 115.6 191.8 112.45C193.22 107.38 193.8 103.29 192.55 93.33C191.23 82.42 178.55 82.33 171.68 86.62C164.81 90.91 167.42 102.85 167.42 102.85Z" fill="#FFA8A7"/>
<path d="M167.42 104.07C167.06 104.07 165.67 101.78 164.77 100.96C163.52 99.8201 165.13 89.5101 165.13 89.5101C164.802 88.6182 164.743 87.6501 164.958 86.7246C165.172 85.7991 165.653 84.9565 166.34 84.3001C168.05 82.4101 170.92 82.2001 175.81 81.4401C178.37 81.0301 182.26 80.3201 184.81 79.8401C187.87 79.2701 190.4 78.6701 192.56 80.5501C193.407 81.2822 194.007 82.2592 194.276 83.3465C194.544 84.4337 194.469 85.5775 194.06 86.6201C193.841 87.097 193.547 87.5358 193.19 87.9201C192.607 88.6134 191.846 89.1353 190.99 89.4301C190.99 89.4301 189.66 90.6201 184.99 91.1801C180.705 91.5022 176.4 91.4219 172.13 90.9401C170.79 90.7601 170.5 92.0601 169.78 95.6201C169.18 98.7501 168.65 104.05 167.42 104.07Z" fill="#263238"/>
<path d="M165.14 90.3101L160.76 88.0001C160.898 87.7042 161.095 87.4396 161.339 87.2224C161.583 87.0053 161.868 86.8402 162.178 86.7372C162.488 86.6342 162.815 86.5956 163.141 86.6236C163.466 86.6516 163.782 86.7457 164.07 86.9001C164.649 87.2258 165.081 87.7597 165.28 88.3932C165.479 89.0268 165.429 89.7122 165.14 90.3101Z" fill="#263238"/>
<path d="M180.82 118.06C180.82 118.06 174.32 116.75 172.04 115.54C170.705 114.842 169.61 113.759 168.9 112.43C169.246 113.76 169.855 115.008 170.69 116.1C172.35 118.22 180.82 119.79 180.82 119.79V118.06Z" fill="#F28F8F"/>
<path d="M179.26 101.23C179.276 101.411 179.254 101.593 179.195 101.765C179.137 101.937 179.044 102.095 178.921 102.229C178.798 102.363 178.649 102.47 178.483 102.543C178.316 102.617 178.137 102.654 177.955 102.654C177.773 102.654 177.594 102.617 177.427 102.543C177.261 102.47 177.112 102.363 176.989 102.229C176.866 102.095 176.773 101.937 176.714 101.765C176.656 101.593 176.634 101.411 176.65 101.23C176.646 101.056 176.676 100.883 176.74 100.72C176.803 100.558 176.898 100.41 177.019 100.284C177.14 100.159 177.284 100.058 177.444 99.989C177.604 99.9197 177.776 99.8826 177.95 99.88C178.302 99.8879 178.636 100.034 178.882 100.287C179.127 100.539 179.263 100.878 179.26 101.23V101.23Z" fill="#263238"/>
<path d="M177.87 96.31L175.09 97.85C174.888 97.4681 174.843 97.0226 174.965 96.6081C175.086 96.1936 175.364 95.8428 175.74 95.63C175.923 95.5291 176.125 95.4665 176.333 95.4462C176.542 95.4259 176.752 95.4483 176.951 95.5119C177.151 95.5755 177.335 95.6791 177.493 95.8163C177.651 95.9536 177.779 96.1215 177.87 96.31Z" fill="#263238"/>
<path d="M180.23 110.23L183.23 111.34C183.168 111.54 183.066 111.724 182.931 111.884C182.796 112.043 182.63 112.173 182.443 112.266C182.256 112.36 182.052 112.414 181.844 112.427C181.635 112.44 181.427 112.41 181.23 112.34C180.819 112.191 180.483 111.886 180.296 111.491C180.109 111.096 180.085 110.643 180.23 110.23V110.23Z" fill="#F28F8F"/>
<path d="M190.88 97.39L188.33 95.39C188.45 95.2188 188.603 95.0737 188.781 94.9637C188.959 94.8537 189.157 94.781 189.364 94.7502C189.571 94.7193 189.782 94.7308 189.984 94.7841C190.186 94.8374 190.375 94.9313 190.54 95.06C190.889 95.3279 191.119 95.721 191.183 96.1561C191.246 96.5911 191.137 97.0337 190.88 97.39V97.39Z" fill="#263238"/>
<path d="M190.09 100.86C190.078 101.114 189.992 101.359 189.842 101.565C189.693 101.771 189.486 101.928 189.247 102.017C189.009 102.107 188.75 102.124 188.502 102.067C188.253 102.011 188.027 101.882 187.852 101.698C187.676 101.514 187.558 101.283 187.512 101.032C187.467 100.782 187.496 100.524 187.596 100.29C187.696 100.056 187.862 99.856 188.074 99.7156C188.287 99.5752 188.535 99.5003 188.79 99.5C188.965 99.5039 189.137 99.5422 189.297 99.6126C189.457 99.6831 189.601 99.7844 189.722 99.9107C189.842 100.037 189.937 100.186 190 100.349C190.063 100.512 190.094 100.685 190.09 100.86V100.86Z" fill="#263238"/>
<path d="M183.45 99.62L183.88 107.46L187.97 106.06L183.45 99.62Z" fill="#F28F8F"/>
<path d="M163.18 304.65V303.46C163.98 303.81 165.83 310.88 169.18 313.9C171.82 316.3 175.41 319.08 176.32 321.75C177.23 324.42 171.32 326.08 168.86 325.64C166 325.13 161.05 323.12 159.86 321.26C158.67 319.4 158.03 316.64 157.02 315.26C156.01 313.88 153.68 312.37 153.13 310.79C152.83 309.92 153.19 308.02 153.61 306.41C154.03 304.8 154.42 303.31 154.92 303.41V304.32C156.11 305.249 157.58 305.746 159.09 305.73C160.23 305.82 163.19 305.58 163.18 304.65Z" fill="#263238"/>
<path d="M192.2 296.49C192.63 296.49 192.98 297.11 193.94 298.15C195.366 299.595 197.026 300.789 198.85 301.68C201.97 303.25 208.05 305.68 210.85 306.89C212.57 307.66 212.48 309.74 210.71 310.89C208.94 312.04 204.65 312.89 199.5 311.77C196.69 311.14 193.04 308.55 190.73 308.69C188.42 308.83 184.1 308.8 182.39 307.62C180.68 306.44 181.39 303.94 181.85 301.78C182.38 299.43 183.13 295.78 183.91 295.98V296.73C184.91 298.24 190.02 298.86 192.22 297.73L192.2 296.49Z" fill="#263238"/>
<path d="M176.15 202.55C180.463 201.205 184.429 198.932 187.77 195.89C187.77 195.89 185.52 200.09 178.86 203.99L180.77 241.57L176.15 202.55Z" fill="#E0E0E0"/>
<path d="M142.46 193.78C142.727 197.567 143.228 201.335 143.96 205.06C146.46 214.7 149.66 217.59 153.96 217.87C160.77 218.33 160.81 215.78 157.76 211.39C156.429 209.475 155.416 207.358 154.76 205.12C155.76 205.954 156.858 206.663 158.03 207.23C158.553 207.502 159.158 207.567 159.727 207.413C160.295 207.26 160.785 206.898 161.1 206.4C161.32 205.94 160.1 205.48 158.83 203.89C157.17 201.89 156.32 200.24 154.02 198.55C153.254 197.797 152.768 196.806 152.64 195.74C152.3 194.37 152.06 172.51 153.3 167.99L159.15 146.99C163.92 143.72 168.99 127.54 161.75 124.1C154.95 124.87 149.99 133.76 142.58 161.22C141.2 166.05 141.69 186.3 142.46 193.78Z" fill="#FFA8A7"/>
<path d="M163.18 123.67C164.112 124.497 164.856 125.514 165.363 126.652C165.87 127.791 166.128 129.024 166.12 130.27C166.31 134.85 164.12 141.45 162.87 145.58C161.62 149.71 158.87 157.18 158.87 157.18C158.87 157.18 147.68 155.9 145.13 149.33C145.13 149.33 150.38 132.33 155.42 126.85C156.382 125.759 157.583 124.905 158.928 124.353C160.274 123.802 161.729 123.568 163.18 123.67V123.67Z" fill="#37474F"/>
<path d="M209 159.79L208.11 159.03C207.977 158.942 207.825 158.887 207.667 158.87C207.509 158.852 207.349 158.873 207.2 158.93L197.64 161.53C197.158 161.688 196.717 161.949 196.346 162.294C195.975 162.64 195.683 163.061 195.49 163.53L188.6 183.39C188.519 183.551 188.489 183.732 188.512 183.91C188.535 184.088 188.611 184.255 188.73 184.39L189.64 185.18V184.52H189.71L199.28 181.92C199.762 181.762 200.203 181.501 200.574 181.156C200.945 180.81 201.237 180.389 201.43 179.92C202.78 176.01 206.96 163.92 208.32 160.05C208.357 159.936 208.38 159.819 208.39 159.7L209 159.79Z" fill="#455A64"/>
<path d="M189.45 184.18L196.33 164.31C196.524 163.842 196.816 163.421 197.187 163.076C197.558 162.731 197.999 162.47 198.48 162.31L208.05 159.71C208.94 159.47 209.41 159.98 209.11 160.84C207.76 164.75 203.58 176.84 202.23 180.71C202.034 181.177 201.742 181.597 201.371 181.942C201 182.287 200.56 182.549 200.08 182.71L190.51 185.31C189.62 185.55 189.15 185 189.45 184.18Z" fill="#263238"/>
<path d="M206.31 168.84C205.64 170.84 203.23 172.21 199.31 173.15C195.39 174.09 193.17 178.28 193.81 179.56C194.45 180.84 200.81 182.02 203.38 181.66C205.95 181.3 208.51 177.6 209.28 176.46C210.05 175.32 210.96 167.33 210.14 166.24C209.811 165.905 209.412 165.647 208.97 165.486C208.529 165.325 208.058 165.265 207.59 165.31L206.31 168.84Z" fill="#FFA8A7"/>
<path d="M132.93 140L108.34 125.94C108.34 125.94 96.34 142.39 104.52 147.04C112.7 151.69 120.76 156.41 128.87 161.1C138.07 157.49 132.93 140 132.93 140Z" fill="#5C45BF"/>
<path opacity="0.2" d="M132.93 140L108.34 125.94C108.34 125.94 96.34 142.39 104.52 147.04C112.7 151.69 120.76 156.41 128.87 161.1C138.07 157.49 132.93 140 132.93 140Z" fill="black"/>
<path d="M128.87 142.34L112.64 132.96V134.03L128.87 143.51V142.34Z" fill="#263238"/>
<path d="M132.93 140C131.35 145.17 126.59 159.78 128.87 161.1C131.15 162.42 138.21 157.88 138.07 155.1C137.66 147.41 132.93 140 132.93 140Z" fill="#5C45BF"/>
<path d="M96.6799 34.63H99.8499C104.571 34.63 109.098 36.5054 112.436 39.8435C115.775 43.1816 117.65 47.7092 117.65 52.43V90.25H78.8799V52.43C78.8799 47.7092 80.7552 43.1816 84.0934 39.8435C87.4315 36.5054 91.959 34.63 96.6799 34.63V34.63Z" fill="#263238"/>
<path d="M133.17 121.11C135.49 118.95 134.54 116.43 131.32 109.52C128.1 102.61 120.44 86.63 118.52 83.2C115.17 77.2 111.24 76.9 105.33 76.92C102.95 76.92 108.98 83.74 111.7 90.35C114.15 96.35 123.7 115.9 123.7 115.9L133.17 121.11Z" fill="#B16668"/>
<path d="M95.4 276C94.55 275.24 93.69 274.49 92.91 273.78C90.49 271.58 88.65 267.84 87.59 265.29C86.9884 263.835 86.6792 262.275 86.68 260.7V255.7H78V263.78V264H78.05C78.47 265.81 82.47 270.63 84.74 273.77C86.26 275.88 89.16 278.56 92.62 279.02C95.85 279.47 97.53 278.43 95.4 276Z" fill="#B16668"/>
<path d="M120.59 262.69C120.833 262.547 121.044 262.357 121.21 262.13C121.89 261.2 121.35 260.69 120.86 259.95C120.26 258.912 119.757 257.821 119.36 256.69C118.96 255.69 118.43 253.93 118.43 253.93C118.43 253.93 118.43 252.62 118.43 252.1V247.1H109.71V255.41C110.16 257.34 111.92 259.22 113.08 260.76C113.97 261.95 116.28 262.56 117.67 262.86C118.284 263.015 118.921 263.055 119.55 262.98C119.913 262.955 120.267 262.857 120.59 262.69V262.69Z" fill="#B16668"/>
<path d="M79.6999 128.6C72.9399 143.36 79.9399 195.36 79.9399 195.36C79.7399 197.75 76.9999 202.47 75.9399 213.01C74.7299 225.47 77.8299 256.74 77.8299 256.74C79.1587 257.512 80.656 257.947 82.1915 258.008C83.7269 258.069 85.2541 257.754 86.6399 257.09C86.6399 257.09 94.9999 210 96.5499 197.6C97.9099 186.79 100.55 163.03 100.55 163.03L105.75 197.59C104.663 201.069 103.877 204.636 103.4 208.25C102.69 215.54 109.75 249.46 109.75 249.46C109.75 249.46 112.75 250.56 118.47 249.72C118.47 249.72 120.96 204.72 121.62 195.93C122.73 181.19 121.05 135.17 118.34 126.44L79.6999 128.6Z" fill="#37474F"/>
<path d="M100.53 163L102.72 149.29C102.72 149.29 112.01 147.37 116.22 143.41C116.22 143.41 111.8 148.9 105.22 150.7L102.76 161.26L104.96 192.56L100.53 163Z" fill="#263238"/>
<path d="M86.6999 262.46V261.2C87.5399 261.56 89.4899 268.99 92.9599 272.15C95.7199 274.66 99.4799 277.57 100.43 280.37C101.38 283.17 95.2 284.89 92.62 284.44C89.62 283.91 84.4399 281.8 83.1399 279.85C81.8399 277.9 81.2299 275.01 80.1399 273.58C79.0499 272.15 76.6499 270.58 76.0699 268.9C75.7599 267.99 76.1299 265.99 76.5699 264.31C77.0099 262.63 77.4199 261.06 77.9499 261.21V262.21C79.1921 263.186 80.7304 263.708 82.3099 263.69C83.6099 263.69 86.7099 263.43 86.6999 262.46Z" fill="#263238"/>
<path d="M118.43 253.93C118.88 253.93 119.37 254.63 120.37 255.71C121.866 257.22 123.603 258.47 125.51 259.41C128.78 261.05 135.14 263.57 138.02 264.87C139.82 265.68 139.74 267.87 137.88 269.08C136.02 270.29 131.53 271.21 126.14 270.01C123.2 269.35 119.38 266.64 116.96 266.78C114.54 266.92 110.02 266.9 108.23 265.66C106.44 264.42 107.16 261.8 107.66 259.55C108.21 257.08 108.9 253.24 109.72 253.4V254.25C110.72 255.84 116.19 256.49 118.5 255.32L118.43 253.93Z" fill="#263238"/>
<path d="M91.62 77.32C82.95 77.92 82.35 82.1 80.18 86.68C78.53 90.16 79.07 94.32 80.33 97.96L85.81 115.31C85.81 115.31 83 122.15 79.7 128.6C94.85 137.06 113.77 132.6 118.32 126.44C118.52 125.13 117.32 114.9 116.62 108.22C119.29 101.52 120 97.28 118.87 92.85C116.78 84.64 108.67 76.64 105.08 76.93L91.62 77.32Z" fill="#5C45BF"/>
<path d="M77.9399 42.63L80.5599 46.85C80.2915 47.0351 79.9885 47.1641 79.669 47.2291C79.3495 47.2942 79.0202 47.294 78.7008 47.2287C78.3814 47.1633 78.0785 47.034 77.8102 46.8487C77.542 46.6633 77.314 46.4257 77.1399 46.15C76.7966 45.5726 76.6881 44.8853 76.837 44.2303C76.9859 43.5752 77.3807 43.0023 77.9399 42.63Z" fill="#263238"/>
<path d="M111.29 42.47C113.29 43.68 115.87 48.83 115.62 59.63C115.4 68.78 112.44 71 111 71.7C109.56 72.4 106.64 71.95 103.84 71.49V77C103.84 77 107.7 81.48 107.46 84C107.22 86.52 101.89 87.11 98.27 84.65C95.9306 82.9667 93.9234 80.8645 92.35 78.45V65.15C92.35 65.15 90.46 67.67 87.35 65.62C84.24 63.57 84.15 58.5 85.94 56.68C87.73 54.86 91.58 55.44 92.3 58C92.3 58 96.75 58.17 102.68 54.91C104.993 53.6605 106.978 51.8826 108.474 49.7209C109.971 47.5592 110.935 45.0749 111.29 42.47Z" fill="#B16668"/>
<path d="M104.37 57.33C104.382 57.484 104.364 57.6389 104.315 57.7856C104.267 57.9323 104.189 58.0679 104.088 58.1843C103.986 58.3007 103.863 58.3957 103.724 58.4637C103.585 58.5316 103.434 58.5712 103.28 58.58C102.978 58.5721 102.689 58.4503 102.473 58.2391C102.257 58.0278 102.128 57.7427 102.113 57.4406C102.098 57.1386 102.197 56.842 102.391 56.6101C102.585 56.3782 102.86 56.2282 103.16 56.19C103.314 56.1847 103.468 56.21 103.613 56.2646C103.758 56.3191 103.89 56.4017 104.003 56.5077C104.115 56.6138 104.206 56.741 104.269 56.8821C104.332 57.0233 104.366 57.1755 104.37 57.33Z" fill="#263238"/>
<path d="M105.7 65.09L108.38 65.94C108.337 66.1235 108.258 66.2962 108.145 66.4475C108.033 66.5987 107.891 66.7252 107.728 66.8191C107.565 66.9129 107.384 66.9721 107.196 66.9929C107.009 67.0137 106.82 66.9957 106.64 66.94C106.27 66.8187 105.964 66.5559 105.788 66.2092C105.612 65.8624 105.58 65.46 105.7 65.09V65.09Z" fill="#9A4A4D"/>
<path d="M113.81 53.8L111.48 52.18C111.578 52.0242 111.707 51.89 111.858 51.7854C112.01 51.6808 112.181 51.6081 112.361 51.5716C112.542 51.5352 112.728 51.5357 112.908 51.5732C113.088 51.6108 113.259 51.6845 113.41 51.79C113.723 52.0087 113.94 52.34 114.014 52.7146C114.089 53.0892 114.016 53.4781 113.81 53.8Z" fill="#263238"/>
<path d="M113.27 56.4999C113.282 56.654 113.264 56.8088 113.215 56.9555C113.167 57.1022 113.089 57.2378 112.988 57.3542C112.886 57.4707 112.763 57.5656 112.624 57.6336C112.485 57.7016 112.334 57.7411 112.18 57.7499C111.878 57.742 111.589 57.6203 111.373 57.409C111.157 57.1977 111.028 56.9126 111.013 56.6105C110.998 56.3085 111.097 56.0119 111.291 55.78C111.485 55.5481 111.76 55.3981 112.06 55.3599C112.214 55.3546 112.368 55.3799 112.513 55.4345C112.658 55.489 112.79 55.5717 112.903 55.6777C113.015 55.7837 113.106 55.9109 113.169 56.0521C113.232 56.1932 113.266 56.3454 113.27 56.4999V56.4999Z" fill="#263238"/>
<path d="M107.65 55.84L107.83 62.77L111.48 61.64L107.65 55.84Z" fill="#9A4A4D"/>
<path d="M103.79 71.49C100.85 71.1 94.79 69.36 93.85 66.97C94.2377 68.1772 94.9885 69.2353 96 70C97.81 71.55 103.82 73.3 103.82 73.3L103.79 71.49Z" fill="#9A4A4D"/>
<path opacity="0.1" d="M95.49 130.24C91.37 129.24 87.18 124.75 89.07 120.35C89.6051 119.11 90.5326 118.081 91.71 117.42C92.1406 117.173 92.6381 117.068 93.1319 117.12C93.6256 117.172 94.0903 117.379 94.46 117.71C92.46 116.41 89.07 110.08 88.61 107.77L86.27 100C86.0505 98.2174 86.2072 96.4085 86.73 94.6901L80.64 87.6901L79.52 88.4701C78.52 91.4701 79.27 94.9701 80.33 98.0201L85.81 115.37C85.81 115.37 83 122.15 79.7 128.6C84.6288 131.25 90.0682 132.813 95.6519 133.184C101.236 133.555 106.834 132.725 112.07 130.75C106.561 131.627 100.935 131.454 95.49 130.24V130.24Z" fill="black"/>
<path d="M65.8999 118.81C72.4599 92 77.1599 82.52 82.3499 79.39C84.283 78.2749 86.4783 77.695 88.7099 77.71C89.4185 78.6022 89.8466 79.6845 89.9399 80.82C90.5623 86.222 89.2361 91.6688 86.1999 96.18C86.1999 96.18 76.6299 116.38 75.0999 123.56C73.7599 129.84 72.2499 137.74 72.3299 143.16C72.3503 144.137 72.7273 145.072 73.3899 145.79C75.1499 147.69 75.1499 149.22 76.2899 151.32C77.1699 152.96 78.14 153.57 77.87 153.94C77.5065 154.335 77.0065 154.576 76.4715 154.615C75.9365 154.654 75.4068 154.488 74.9899 154.15C74.1717 153.563 73.441 152.863 72.8199 152.07C73.1163 154.078 73.6953 156.034 74.5399 157.88C76.5399 162.31 76.03 164.57 70.05 162.99C66.3 161.99 63.9499 158.88 63.3899 149.87C63.1112 146.544 63.0778 143.201 63.2899 139.87C64.0899 131.36 64.6599 123.85 65.8999 118.81Z" fill="#B16668"/>
<path d="M103.2 116.66C105 117.18 106.75 116.95 109.2 117.88C111.04 118.662 112.99 119.158 114.98 119.35C117.14 119.53 119.26 117.25 124.79 114.11C130.04 111.11 136.51 117.29 133.15 121.11C131.966 122.249 130.579 123.154 129.06 123.78C126.55 124.78 124.06 125.31 117.63 127.26C116.548 127.63 115.497 128.088 114.49 128.63C113.242 129.194 111.955 129.669 110.64 130.05C107.637 131.036 104.431 131.233 101.33 130.62C99.4108 130.306 97.6417 129.388 96.28 128C95.13 126.7 94.09 124.23 94.48 122.49C94.5822 121.963 94.8608 121.487 95.27 121.14C96.27 120.35 97.82 120.85 98.95 121.03C100.266 121.302 101.606 121.443 102.95 121.45C105.11 121.36 106.62 121 106.32 120.68C106.02 120.36 104.76 120.51 103.05 119.68C101.34 118.85 100.28 117.21 100.77 116.33C101.26 115.45 101.4 116.14 103.2 116.66Z" fill="#B16668"/>
<path d="M123.14 115C123.14 115 126.08 114.51 127.99 117.85C129.9 121.19 130.9 138.85 130.9 138.85L128.9 137.68C128.9 137.68 128.22 123.55 126.52 119.52C126.082 118.496 125.329 117.638 124.371 117.07C123.413 116.502 122.299 116.253 121.19 116.36C121.398 116.007 121.68 115.703 122.017 115.468C122.353 115.233 122.736 115.074 123.14 115V115Z" fill="#263238"/>
<path d="M55.38 162.36H46.64V298.66C46.6771 299.043 46.8151 299.41 47.04 299.723C47.2648 300.035 47.5684 300.283 47.92 300.44C48.8769 300.928 49.9358 301.183 51.01 301.183C52.0842 301.183 53.1431 300.928 54.1 300.44C54.4516 300.283 54.7552 300.035 54.9801 299.723C55.2049 299.41 55.3429 299.043 55.38 298.66V298.66V162.36Z" fill="#37474F"/>
<path d="M51.01 164.88C53.4235 164.88 55.38 163.752 55.38 162.36C55.38 160.968 53.4235 159.84 51.01 159.84C48.5965 159.84 46.64 160.968 46.64 162.36C46.64 163.752 48.5965 164.88 51.01 164.88Z" fill="#455A64"/>
<path d="M53.64 179.21C84.69 208.67 122.25 229.72 165.28 243.67V235C122.28 221 84.69 200 53.64 170.55V179.21Z" fill="#5C45BF"/>
<path opacity="0.7" d="M53.64 179.21C84.69 208.67 122.25 229.72 165.28 243.67V235C122.28 221 84.69 200 53.64 170.55V179.21Z" fill="white"/>
<path d="M167.17 227.25H158.44V363.54C158.473 363.926 158.61 364.295 158.835 364.61C159.06 364.925 159.366 365.174 159.72 365.33C160.677 365.813 161.733 366.065 162.805 366.065C163.877 366.065 164.934 365.813 165.89 365.33C166.244 365.174 166.55 364.925 166.775 364.61C167 364.295 167.137 363.926 167.17 363.54V227.25Z" fill="#37474F"/>
<path d="M159.72 229C160.677 229.483 161.733 229.735 162.805 229.735C163.877 229.735 164.934 229.483 165.89 229C167.6 228 167.6 226.42 165.89 225.43C164.934 224.947 163.877 224.695 162.805 224.695C161.733 224.695 160.677 224.947 159.72 225.43C158 226.45 158 228 159.72 229Z" fill="#455A64"/>
<path d="M164.91 243.29C195.96 272.75 233.52 293.8 276.55 307.75V299.1C233.55 285.1 195.96 264.1 164.91 234.64V243.29Z" fill="#5C45BF"/>
<path opacity="0.7" d="M164.91 243.29C195.96 272.75 233.52 293.8 276.55 307.75V299.1C233.55 285.1 195.96 264.1 164.91 234.64V243.29Z" fill="white"/>
<path d="M279 292.13H270.26V428.43C270.294 428.815 270.431 429.184 270.656 429.499C270.881 429.814 271.186 430.063 271.54 430.22C272.498 430.703 273.557 430.955 274.63 430.955C275.703 430.955 276.762 430.703 277.72 430.22C278.072 430.061 278.376 429.812 278.601 429.497C278.826 429.183 278.964 428.815 279 428.43V428.43V292.13Z" fill="#37474F"/>
<path d="M274.6 294.65C277.013 294.65 278.97 293.522 278.97 292.13C278.97 290.738 277.013 289.61 274.6 289.61C272.186 289.61 270.23 290.738 270.23 292.13C270.23 293.522 272.186 294.65 274.6 294.65Z" fill="#455A64"/>
<path d="M429.774 429.735C429.911 430.987 430.084 434.494 436.441 435.371C442.798 436.248 446.798 434.138 448.497 431.078C450.196 428.018 449.803 425.525 450.068 422.694C450.333 419.862 452.68 418.355 453.356 416.894C454.343 414.748 452.9 411.414 452.9 411.414L429.774 429.735Z" fill="#263238"/>
<path d="M383.348 419.817C383.199 420.329 383.159 420.866 383.23 421.395C383.3 421.923 383.481 422.431 383.759 422.886C385.183 424.011 386.821 424.835 388.573 425.306C390.326 425.777 392.156 425.886 393.952 425.626C397.831 425.097 401.527 423.647 404.73 421.397C407.187 419.752 410.095 418.912 413.05 418.995C416.11 418.894 418.348 418.218 418.585 417.415C418.987 415.999 418.987 415.113 418.32 415.15L383.348 419.817Z" fill="#263238"/>
<path d="M451.383 406.518C450.589 412.318 439.345 411.852 440.259 407.222L438.259 393.147L450.981 393.54L451.383 406.518Z" fill="#FFA8A7"/>
<path d="M430.194 426.886C430.76 425.835 432.395 424.338 433.117 423.397C436.928 418.544 439.228 412.678 439.729 406.527C439.729 406.189 439.793 405.532 440.14 405.322C440.487 405.112 440.825 405.404 441.19 405.568C441.819 405.835 442.484 406.007 443.163 406.08C445.41 406.336 447.904 405.797 448.461 405.87C449.018 405.943 449.036 407.285 449 408.747C449.803 408.244 450.068 407.24 450.781 406.655C451.173 406.336 451.347 406.326 451.338 405.806C451.338 405.468 451.338 405.157 451.338 404.819C451.922 404.655 452.406 406.865 452.881 408.555C453.429 410.519 454.114 412.729 453.347 414.72C452.849 415.805 452.237 416.834 451.52 417.789C450.306 419.449 449.516 421.38 449.219 423.415C449.127 424.328 449.219 425.242 449.073 426.1C448.862 427.594 448.228 428.996 447.246 430.14C446.263 431.285 444.973 432.124 443.529 432.558C439.647 433.763 433.829 433.571 430.413 430.868C429.226 429.927 429.628 427.909 430.194 426.886Z" fill="#37474F"/>
<path d="M415.727 405.55C412.639 407.943 408.931 409.35 405.141 407.623L404.228 383.94L417.014 386.233L415.727 405.55Z" fill="#FFA8A7"/>
<path d="M385.933 415.725C386.783 415.451 387.614 415.149 388.436 414.811C390.732 413.877 392.949 412.759 395.067 411.469C395.98 410.902 396.893 410.309 397.807 409.642C398.72 408.975 399.633 408.254 400.547 407.523C401.022 407.105 401.454 406.64 401.835 406.135C402.604 405.192 403.248 404.155 403.753 403.048C403.829 402.787 403.998 402.563 404.227 402.417C404.382 402.363 404.548 402.351 404.709 402.384C404.87 402.416 405.019 402.49 405.141 402.6C405.361 402.779 405.596 402.938 405.844 403.075L406.593 403.386C407.392 403.712 408.236 403.918 409.096 403.997C412.329 404.281 412.429 403.632 412.566 404.673C412.597 405.062 412.597 405.453 412.566 405.842C414.274 405.559 415.617 405.011 415.69 404.363L415.891 402.299C417.59 402.143 417.718 405.185 418.266 408.601C418.713 411.341 419.38 413.359 418.613 415.396C416.046 417.634 411.516 417.095 408.94 417.515C405.287 418.118 403.579 420.821 398.51 422.575C390.29 425.406 385.166 422.146 383.632 420.748C382.636 418.985 382.435 416.839 385.933 415.725Z" fill="#37474F"/>
<path d="M447.794 265.498C448.442 275.545 449.621 290.259 450.032 301.868C450.799 323.678 450.497 348.548 450.497 348.548C451.717 353.122 452.503 357.801 452.845 362.523C453.365 376.46 453.274 407.751 453.274 407.751C453.274 407.751 447.492 413.569 438.852 409.003C438.852 409.003 431.189 365.162 429.052 351.389C427.006 338.283 423.015 312.115 423.015 312.115L421.188 349.307C422.575 355.15 423.034 361.176 422.549 367.162C422.083 373.556 418.439 405.075 418.439 405.075C415.114 408.19 405.433 406.491 403.314 404.016C403.314 404.016 399.926 357.435 399.542 350.695C398.729 336.145 396.564 281.884 397.651 273.463C398.738 265.042 447.794 265.498 447.794 265.498Z" fill="#263238"/>
<path d="M423.015 312.079L420.476 295.292C420.476 295.292 413.507 293.976 408.411 290.195C408.411 290.195 410.393 294.68 418.101 297.876L420.64 313.513L421.243 349.27L423.015 312.079Z" fill="black"/>
<path d="M437.254 198.139C437.72 200.03 440.907 199.738 442.332 199.382C443.177 199.204 443.928 198.723 444.443 198.03C444.958 197.337 445.201 196.479 445.127 195.619C445.848 195.426 446.498 195.029 446.999 194.477C447.337 194.031 447.53 193.493 447.552 192.935C447.575 192.377 447.427 191.825 447.127 191.353C447.706 190.942 448.16 190.379 448.44 189.726C448.721 189.074 448.816 188.357 448.716 187.654C448.521 186.637 447.963 185.725 447.145 185.088C446.354 184.447 445.368 184.096 444.351 184.092C444.022 184.092 443.693 184.75 444.168 184.805C444.908 184.948 445.605 185.261 446.205 185.718C446.829 186.154 447.311 186.764 447.593 187.472C447.769 188.033 447.768 188.635 447.592 189.197C447.416 189.759 447.072 190.253 446.607 190.613C446.44 190.404 446.253 190.211 446.049 190.038C445.414 189.47 444.581 189.174 443.73 189.216C443.415 189.208 443.105 189.29 442.835 189.452C442.565 189.613 442.346 189.848 442.204 190.129C441.985 190.842 442.725 191.445 443.273 191.755C443.671 191.98 444.112 192.118 444.567 192.158C445.022 192.199 445.481 192.143 445.912 191.993C445.984 191.969 446.054 191.942 446.123 191.91C446.171 192.005 446.213 192.103 446.25 192.203C446.744 193.509 445.949 194.322 444.88 194.687C444.232 193.344 442.478 192.367 441.072 193.07C440.893 193.148 440.737 193.269 440.617 193.422C440.496 193.575 440.416 193.756 440.382 193.948C440.349 194.139 440.363 194.337 440.425 194.521C440.486 194.706 440.592 194.873 440.734 195.007C441.319 195.559 442.094 195.867 442.898 195.865C443.266 195.892 443.636 195.892 444.004 195.865C444.085 196.45 443.948 197.045 443.62 197.537C443.289 197.911 442.879 198.207 442.419 198.403C441.959 198.599 441.461 198.69 440.962 198.669C439.828 198.76 438.703 198.403 437.829 197.674C437.565 197.445 437.181 197.856 437.254 198.139ZM445.593 191.125C445.296 191.209 444.983 191.227 444.679 191.176C444.374 191.126 444.084 191.009 443.83 190.833C443.446 190.577 443.017 190.202 443.702 190.157C444.071 190.161 444.433 190.251 444.761 190.419C445.089 190.587 445.374 190.828 445.593 191.125ZM443.684 194.915C443.297 194.931 442.91 194.894 442.533 194.806C442.259 194.742 441.063 194.13 441.675 193.892C442.14 193.682 442.962 194.148 443.291 194.44C443.443 194.581 443.575 194.74 443.684 194.915V194.915Z" fill="#263238"/>
<path d="M439.473 162.811C439.673 162.84 439.872 162.879 440.067 162.93C439.927 162.327 439.996 161.695 440.261 161.136C440.526 160.577 440.973 160.125 441.528 159.852C442.238 159.567 443.031 159.57 443.738 159.86C444.446 160.15 445.013 160.704 445.319 161.405L441.181 163.295C442.525 163.774 443.647 164.729 444.332 165.981C445.465 168.319 443.967 173.287 442.46 179.407C441.611 183.266 440.497 187.062 439.126 190.769C438.432 192.595 437.181 192.595 437.181 192.595V186.485L437.446 181.416C437.446 181.416 434.194 176.968 433.838 173.324C433.372 168.638 434.359 166.72 434.359 166.72L439.473 162.811Z" fill="#263238"/>
<path d="M416.987 157.56C419.029 157.563 421.024 158.173 422.72 159.31C424.415 160.448 425.735 162.064 426.512 163.952C427.29 165.84 427.489 167.917 427.086 169.919C426.683 171.92 425.695 173.758 424.247 175.198C422.799 176.638 420.957 177.616 418.953 178.009C416.949 178.401 414.874 178.191 412.989 177.403C411.105 176.616 409.497 175.287 408.368 173.586C407.239 171.884 406.641 169.886 406.648 167.844C406.651 166.49 406.922 165.15 407.443 163.9C407.965 162.65 408.727 161.515 409.687 160.56C410.647 159.605 411.786 158.849 413.039 158.334C414.291 157.819 415.633 157.556 416.987 157.56V157.56Z" fill="#263238"/>
<path d="M437.254 180.612C438.478 181.672 439.473 178.932 440.506 177.872C441.538 176.813 444.88 175.342 446.543 178.868C448.205 182.393 445.008 187.334 442.497 188.494C438.843 190.202 437.181 186.503 437.181 186.503V201.802C433.318 208.761 424.96 207.136 421.006 208.113C420.416 206.334 420.416 204.412 421.006 202.633V197.655C419.342 197.975 417.643 198.064 415.955 197.92C412.612 197.39 410.822 194.641 409.826 191.024C408.219 185.216 407.881 175.452 410.119 164.172C413.863 161.286 426.513 161.761 434.34 166.693C433.792 176.74 436.03 179.553 437.254 180.612Z" fill="#FFA8A7"/>
<path d="M421.015 197.655C421.015 197.655 428.468 196.185 431.061 194.806C432.613 194.022 433.888 192.782 434.715 191.253C434.317 192.778 433.615 194.207 432.651 195.454C430.742 197.884 421.024 199.646 421.024 199.646L421.015 197.655Z" fill="#F28F8F"/>
<path d="M405.013 174.575C405.076 175.165 405.315 175.721 405.698 176.173C405.825 176.346 405.918 176.541 405.972 176.749C406.164 178.207 406.47 179.649 406.885 181.06C407.221 181.997 407.843 182.805 408.662 183.37C409.481 183.935 410.457 184.229 411.452 184.211C411.978 184.236 412.505 184.203 413.023 184.11C413.062 184.117 413.102 184.117 413.142 184.11C413.596 184.021 414.034 183.86 414.439 183.636H414.512L414.63 183.562L414.758 183.462C414.806 183.44 414.85 183.409 414.886 183.371C414.941 183.342 414.99 183.305 415.032 183.261L415.16 183.133L415.416 182.887C415.849 182.406 416.203 181.861 416.466 181.27C417.169 179.781 417.032 177.671 418.128 177.461C418.174 177.466 418.22 177.466 418.265 177.461H418.412C419.909 177.516 419.69 179.799 420.494 181.453C420.939 182.499 421.694 183.384 422.658 183.989C423.621 184.593 424.747 184.887 425.883 184.832H426.294H426.632C426.892 184.818 427.151 184.787 427.408 184.741L427.655 184.686L427.892 184.622H428.038C428.354 184.52 428.66 184.388 428.952 184.229C429.052 184.156 429.152 184.101 429.253 184.037C429.432 183.901 429.602 183.755 429.764 183.599C430.193 183.166 430.534 182.654 430.769 182.092C431.214 180.709 431.541 179.292 431.746 177.854C431.794 177.636 431.88 177.429 432.002 177.242C432.401 176.824 432.665 176.296 432.76 175.726C432.785 175.428 432.708 175.131 432.542 174.882C432.376 174.633 432.131 174.448 431.847 174.356L431.061 174.228C428.513 173.872 425.189 173.671 423.188 174.173C420.668 174.803 419.782 175.589 418.393 175.543C417.005 175.498 416.274 174.63 413.909 173.817C412.082 173.159 408.922 173.132 406.547 173.296C406.282 173.296 406.054 173.296 405.807 173.351C405.415 173.278 404.976 173.89 405.013 174.575ZM421.407 176.457C421.604 176.22 421.851 176.03 422.129 175.9C422.173 175.872 422.218 175.847 422.266 175.826H422.33C422.451 175.781 422.57 175.729 422.686 175.671C422.786 175.671 422.905 175.598 423.015 175.552C423.367 175.423 423.727 175.316 424.093 175.233L424.522 175.141C424.878 175.077 425.253 175.023 425.618 174.986H425.883C428.285 174.84 429.774 175.434 430.303 175.9C430.833 176.365 430.559 178.64 430.303 179.754C430.303 179.754 430.303 179.818 430.303 179.836C430.311 179.866 430.311 179.897 430.303 179.927C430.278 180.079 430.241 180.229 430.194 180.375C430.175 180.472 430.147 180.566 430.112 180.658V180.658C430.057 180.813 430.002 180.969 429.938 181.133C429.923 181.189 429.898 181.241 429.865 181.288C429.857 181.325 429.842 181.359 429.819 181.389C429.819 181.389 429.819 181.453 429.819 181.489L429.746 181.626C429.746 181.681 429.691 181.727 429.655 181.772C429.63 181.829 429.596 181.882 429.554 181.928C429.526 181.983 429.493 182.035 429.454 182.083C429.069 182.609 428.555 183.026 427.961 183.293C427.367 183.56 426.714 183.669 426.065 183.608C425.401 183.65 424.735 183.547 424.114 183.307C423.493 183.068 422.931 182.697 422.467 182.22C421.897 181.564 421.51 180.771 421.343 179.918C421.069 178.612 420.923 177.133 421.407 176.457ZM407.296 175.014C407.465 174.85 407.668 174.725 407.89 174.648L408.146 174.548H408.301H408.438H408.529H408.666C408.85 174.51 409.036 174.483 409.223 174.466H409.525H409.698C409.747 174.474 409.796 174.474 409.844 174.466C409.972 174.457 410.1 174.457 410.228 174.466H410.502C410.872 174.485 411.241 174.525 411.607 174.584C413.315 174.867 415.096 175.699 415.544 176.411C415.991 177.123 415.863 178.576 415.617 179.836C415.559 180.118 415.483 180.396 415.388 180.667C415.381 180.688 415.381 180.71 415.388 180.731C415.392 180.761 415.392 180.792 415.388 180.822C415.388 180.822 415.388 180.822 415.388 180.877C415.375 180.911 415.36 180.945 415.343 180.978C415.343 181.051 415.279 181.115 415.242 181.179C415.216 181.241 415.185 181.302 415.151 181.361V181.416L415.078 181.544L415.005 181.644C414.607 182.211 414.06 182.656 413.425 182.931C412.79 183.207 412.092 183.302 411.406 183.206C410.769 183.191 410.144 183.028 409.58 182.731C407.899 181.818 407.506 179.918 407.314 179.078C407.059 177.726 406.776 175.479 407.296 175.014Z" fill="#263238"/>
<path d="M431.692 174.274L442.652 176.731C441.663 176.985 440.782 177.552 440.14 178.347L431.683 176.74L431.692 174.274Z" fill="#263238"/>
<path d="M421.344 179.882C421.503 180.747 421.891 181.554 422.467 182.22C422.92 182.694 423.469 183.066 424.076 183.312C424.684 183.557 425.337 183.671 425.992 183.645C426.641 183.705 427.294 183.597 427.888 183.329C428.482 183.062 428.996 182.645 429.381 182.119C429.42 182.071 429.453 182.019 429.481 181.964C429.523 181.918 429.557 181.866 429.582 181.809C429.582 181.763 429.637 181.717 429.673 181.663L429.746 181.526C429.746 181.526 429.746 181.462 429.746 181.425C429.769 181.396 429.784 181.361 429.792 181.325C429.825 181.278 429.85 181.225 429.865 181.169C429.929 181.005 429.984 180.85 430.039 180.694C430.074 180.603 430.102 180.508 430.121 180.411C430.168 180.265 430.205 180.115 430.23 179.964C430.239 179.934 430.239 179.902 430.23 179.872C430.23 179.872 430.23 179.818 430.23 179.79C430.477 178.676 430.778 176.447 430.23 175.936C429.682 175.424 428.212 174.831 425.81 175.023H425.545C425.18 175.023 424.805 175.114 424.449 175.178L424.02 175.269C423.654 175.353 423.294 175.459 422.942 175.589C422.832 175.589 422.714 175.662 422.613 175.708C422.497 175.765 422.378 175.817 422.257 175.863H422.193C422.145 175.884 422.1 175.908 422.056 175.936C421.778 176.067 421.531 176.257 421.334 176.493C420.923 177.132 421.07 178.612 421.344 179.882Z" fill="#37474F"/>
<path d="M406.732 179.155C406.803 180.079 407.122 180.968 407.655 181.73C408.08 182.278 408.617 182.729 409.231 183.056C409.846 183.382 410.522 183.575 411.217 183.622C411.895 183.759 412.597 183.72 413.254 183.508C413.912 183.295 414.502 182.917 414.967 182.411C415.013 182.365 415.055 182.314 415.091 182.26C415.14 182.216 415.182 182.165 415.214 182.108C415.22 182.061 415.283 182.019 415.327 181.966L415.42 181.831C415.42 181.831 415.427 181.764 415.431 181.726C415.458 181.697 415.479 181.663 415.491 181.626C415.531 181.58 415.563 181.528 415.585 181.471C415.671 181.307 415.747 181.15 415.822 180.994C415.87 180.902 415.91 180.806 415.941 180.707C416.007 180.559 416.063 180.407 416.107 180.251C416.119 180.221 416.123 180.188 416.117 180.155C416.117 180.155 416.124 180.098 416.127 180.069C416.513 178.931 417.082 176.632 416.561 176.035C416.04 175.437 414.554 174.648 411.996 174.576L411.716 174.546C412.682 174.418 411.33 174.505 411.716 174.546L411.05 174.456C410.655 174.502 410.066 174.361 409.68 174.456C409.564 174.444 408.04 174.51 407.929 174.546C407.8 174.593 407.987 174.597 407.853 174.631L408.627 174.753C408.474 174.293 407.704 174.729 407.655 174.753C407.346 174.858 407.233 175.133 406.94 175.37C406.434 175.992 406.586 177.795 406.732 179.155Z" fill="#37474F"/>
<path d="M407.589 156.199C407.589 156.08 407.589 155.952 407.634 155.824C407.65 155.588 407.735 155.362 407.881 155.176C408.383 154.655 409.388 155.97 409.708 156.272C410.049 156.57 410.406 156.85 410.776 157.112C411.125 157.286 411.461 157.484 411.781 157.706C411.557 156.464 411.557 155.193 411.781 153.952C411.936 153.13 412.164 151.212 413.187 151.02C413.79 150.892 414.32 151.404 414.767 151.824C418.85 155.641 424.184 153.879 429.098 154.034C433.217 154.162 438.176 155.861 440.058 159.843C440.907 161.67 441.053 163.597 439.373 164.857C438.295 165.679 437.236 165.643 436.633 166.949C436.487 167.268 435.546 171.159 436.103 171.123C435.094 171.226 434.082 170.967 433.245 170.393C432.409 169.82 431.804 168.968 431.536 167.99C431.436 167.561 431.208 166.784 431.116 166.346C431.094 166.217 431.044 166.095 430.97 165.988C430.897 165.88 430.801 165.789 430.689 165.722C430.578 165.654 430.453 165.611 430.323 165.596C430.194 165.581 430.062 165.594 429.938 165.633C428.687 165.907 427.874 166.419 426.696 166.739C423.331 167.706 419.794 167.915 416.338 167.351C413.865 166.881 411.595 165.663 409.835 163.862C408.942 162.814 408.281 161.591 407.894 160.27C407.506 158.95 407.402 157.562 407.589 156.199V156.199Z" fill="#263238"/>
<path d="M423.636 172.255L427.289 172.812C427.353 172.323 427.225 171.829 426.932 171.432C426.639 171.035 426.204 170.767 425.718 170.684C425.478 170.648 425.233 170.66 424.998 170.72C424.762 170.78 424.541 170.886 424.347 171.032C424.153 171.179 423.991 171.362 423.868 171.572C423.746 171.782 423.667 172.014 423.636 172.255Z" fill="#263238"/>
<path d="M422.796 189.042L419.754 189.837C419.797 190.04 419.881 190.232 419.999 190.401C420.118 190.571 420.27 190.715 420.445 190.825C420.621 190.935 420.817 191.009 421.021 191.041C421.226 191.074 421.435 191.065 421.636 191.015C422.046 190.899 422.396 190.63 422.612 190.262C422.829 189.894 422.894 189.457 422.796 189.042V189.042Z" fill="#F28F8F"/>
<path d="M409.954 172.465L413.607 172.063C413.593 171.824 413.53 171.59 413.422 171.375C413.314 171.161 413.164 170.971 412.98 170.816C412.796 170.661 412.583 170.546 412.354 170.476C412.124 170.406 411.882 170.384 411.644 170.41C411.153 170.472 410.704 170.72 410.39 171.102C410.076 171.484 409.92 171.972 409.954 172.465V172.465Z" fill="#263238"/>
<path d="M418.814 177.489L418.32 186.01L413.571 184.768L418.311 177.388C418.484 177.383 418.656 177.417 418.814 177.489V177.489Z" fill="#F28F8F"/>
<path d="M439.218 183.407C439.216 183.848 439.345 184.28 439.589 184.648C439.832 185.015 440.18 185.302 440.587 185.472C440.994 185.643 441.442 185.688 441.875 185.603C442.308 185.518 442.706 185.307 443.019 184.995C443.331 184.684 443.544 184.287 443.631 183.854C443.718 183.422 443.674 182.973 443.506 182.565C443.337 182.158 443.052 181.809 442.685 181.564C442.318 181.319 441.887 181.188 441.446 181.188C441.154 181.186 440.864 181.243 440.594 181.354C440.324 181.465 440.078 181.628 439.871 181.834C439.664 182.041 439.499 182.286 439.387 182.556C439.275 182.825 439.218 183.115 439.218 183.407Z" fill="#263238"/>
<path d="M438.98 179.343C439.171 178.669 439.508 178.045 439.967 177.516C440.199 177.294 440.477 177.125 440.782 177.021C441.086 176.917 441.409 176.88 441.729 176.913C441.729 176.913 441.793 176.986 441.729 177.005C441.483 177.151 441.309 177.233 441.063 177.406C440.817 177.573 440.59 177.766 440.387 177.982C440.208 178.189 440.063 178.423 439.958 178.676C439.826 178.966 439.74 179.274 439.702 179.589C439.642 180.086 439.714 180.591 439.912 181.051C440.014 181.306 440.156 181.543 440.332 181.754C440.522 181.909 440.688 182.09 440.825 182.293C440.962 182.576 440.569 183.06 440.268 182.896C439.697 182.537 439.268 181.991 439.053 181.352C438.786 180.713 438.76 179.999 438.98 179.343V179.343Z" fill="#263238"/>
<path d="M407.324 209.684C404.237 211.712 399.971 214.342 398.93 217.201C397.889 220.06 394.884 236.637 394.555 241.98C397.292 243.269 400.224 244.096 403.232 244.428L407.324 209.684Z" fill="#455A64"/>
<path d="M443.793 201.784C451.612 206.076 459.32 212.488 460.982 214.954C460.982 214.954 456.416 230.179 452.388 237.404C448.36 244.628 446.205 265.992 446.205 265.992C446.205 265.992 418.658 275.125 410.027 275.846C401.396 276.568 400.3 272.896 400.3 272.896C400.3 272.896 400.117 249.012 402.127 233.075C404.136 217.137 403.698 212.397 407.351 209.684C409.717 207.94 419.909 203.519 419.909 203.519V208.086C425.481 208.195 443.793 201.784 443.793 201.784Z" fill="#37474F"/>
<path d="M417.763 210.533C417.258 209.503 417.055 208.35 417.179 207.209L419.48 205.537V208.433L417.763 210.533Z" fill="#5C45BF"/>
<path opacity="0.25" d="M417.763 210.533C417.258 209.503 417.055 208.35 417.179 207.209L419.48 205.537V208.433L417.763 210.533Z" fill="black"/>
<path d="M422.239 208.771L428.194 205.373L432.669 208.917L423.627 212.671L422.239 208.771Z" fill="#5C45BF"/>
<path opacity="0.25" d="M422.239 208.771L428.194 205.373L432.669 208.917L423.627 212.671L422.239 208.771Z" fill="black"/>
<path d="M437.181 195.317V196.523C436.953 197.664 434.706 200.313 429.034 202.852C423.362 205.391 421.006 208.104 421.006 208.104C422.538 208.145 424.054 208.425 425.499 208.935C428.084 209.848 432.377 213.136 433.601 213.1C434.824 213.063 436.514 209.684 439.72 206.314C442.46 203.482 443.794 201.747 443.794 201.747C443.794 201.747 439.391 195.344 437.181 195.317Z" fill="#455A64"/>
<path d="M421.006 208.104C418.951 208.332 417.023 209.757 416.521 209.017C416.019 208.277 417.763 201.4 420.987 199.308L421.006 208.104Z" fill="#455A64"/>
<path d="M401.095 244.144C401.095 244.144 400.848 248.41 400.784 249.871C400.72 251.332 403.159 276.358 403.159 276.358L394.555 280.011C394.555 280.011 393.514 270.366 393.176 264.996C392.897 259.465 393.145 253.921 393.916 248.437C394.592 243.87 394.829 242.117 394.829 242.117C396.843 243.006 398.942 243.685 401.095 244.144V244.144Z" fill="#F28F8F"/>
<path d="M395.249 292.241C395.249 292.241 395.249 292.625 395.249 294.068C395.465 296.483 395.949 298.866 396.692 301.174C397.231 302.525 398.519 305.494 399.195 305.841C399.833 306.197 400.573 306.329 401.296 306.215C402.656 306.087 404.081 306.791 405.369 306.17C405.868 305.898 406.395 305.68 406.94 305.521C407.735 305.329 408.648 305.567 409.36 305.147C409.817 304.882 410.1 304.389 410.548 304.115C411.205 303.713 412.073 303.859 412.776 303.539C413.053 303.398 413.298 303.202 413.498 302.963C413.697 302.725 413.846 302.448 413.936 302.151C414.338 300.945 413.936 299.584 413.699 298.379C414.121 297.785 414.336 297.07 414.311 296.342C414.337 294.781 414.156 293.224 413.772 291.711C413.47 290.798 407.223 287.245 407.223 287.245L405.99 286.432C403.369 285.848 400.624 286.29 398.318 287.665C394.656 289.994 395.249 292.241 395.249 292.241Z" fill="#FFA8A7"/>
<path d="M396.939 292.068C395.286 294.808 396.254 299.749 396.263 299.804C395.746 297.934 395.406 296.02 395.249 294.086C395.249 292.625 395.249 292.259 395.249 292.259C395.249 292.259 394.656 289.976 398.273 287.693C400.579 286.317 403.324 285.876 405.945 286.46C405.945 286.46 398.592 289.3 396.939 292.068Z" fill="#F28F8F"/>
<path d="M413.653 298.351C413.071 296.569 412.17 294.908 410.995 293.447C410.301 292.807 409.717 291.994 410.411 292.268C411.105 292.542 412.073 292.698 412.457 292.214C412.84 291.729 412.922 292.57 412.457 293.227C411.991 293.885 412.384 294.387 412.886 295.465C413.272 296.388 413.53 297.359 413.653 298.351V298.351Z" fill="#F28F8F"/>
<path d="M458.599 215.255C461.202 216.169 461.549 223.293 460.983 229.686C460.416 236.08 455.429 251.195 453.155 256.456C450.607 262.366 449.063 265.772 447.365 267.626C445.666 269.481 442.113 271.006 437.564 273.362C433.454 275.49 430.641 276.568 423.627 278.742C415.717 281.199 412.667 281.345 410.986 282.523C409.306 283.701 408.831 286.259 407.178 287.218L405.945 286.405C403.164 287.073 400.509 288.183 398.081 289.693C396.993 290.367 396.034 291.23 395.249 292.241V294.068C395.249 294.068 393.249 294.908 391.55 291.328C389.851 287.747 389.075 282.377 391.03 280.03C392.984 277.682 399.177 274.467 404.2 272.896C409.223 271.325 411.717 269.681 417.58 266.138C423.828 262.366 428.166 259.854 431.281 258.155C432.459 257.47 433.253 256.639 433.783 254.502C434.203 252.785 435.455 247.706 436.222 243.889C437.446 237.504 440.195 218.196 458.599 215.255Z" fill="#FFA8A7"/>
<path d="M460.983 214.954C460.983 214.954 462.197 215.164 462.362 220.224C462.578 225.012 462.349 229.809 461.677 234.554C461.01 238.436 457.11 249.898 457.11 249.898C457.11 249.898 445.903 253.552 434.432 249.195C434.432 249.195 437.126 232.664 438.14 228.28C439.154 223.896 453.356 210.369 460.983 214.954Z" fill="#455A64"/>
<path d="M421.325 215.283C420.686 219.393 419.809 229.156 419.809 242.939C419.809 246.318 414.877 253.177 413.717 253.031C412.557 252.885 410.429 246.437 410.128 242.692C410.593 233.632 416.074 219.575 418.467 214.771L421.325 215.283Z" fill="#5C45BF"/>
<path opacity="0.15" d="M418.284 215.164C418.338 215.03 418.398 214.899 418.467 214.771L421.325 215.283L421.152 216.488C420.076 216.374 419.068 215.908 418.284 215.164V215.164Z" fill="black"/>
<path d="M422.239 208.771C421.34 208.559 420.421 208.449 419.499 208.442C418.771 209.009 418.173 209.725 417.745 210.542C417.664 211.987 417.904 213.431 418.448 214.771C418.859 215.06 419.327 215.255 419.821 215.343C420.315 215.431 420.822 215.411 421.307 215.283C422.314 214.656 423.114 213.748 423.609 212.671C423.679 211.242 423.187 209.842 422.239 208.771V208.771Z" fill="#5C45BF"/>
</svg>
