<svg width="54" height="54" viewBox="0 0 54 54" fill="none" xmlns="http://www.w3.org/2000/svg">
<rect width="54" height="54" rx="20" fill="#557EBA" fill-opacity="0.4"/>
<mask id="mask0" style="mask-type:alpha" maskUnits="userSpaceOnUse" x="11" y="11" width="33" height="33">
<g clip-path="url(#clip0)">
<path d="M20.9607 20.9603H34.283M36.9475 26.2892H18.2962H36.9475ZM36.9475 26.2892C37.6542 26.2892 38.3319 26.57 38.8316 27.0696C39.3313 27.5693 39.612 28.2471 39.612 28.9537V36.9471C39.612 37.6538 39.3313 38.3315 38.8316 38.8312C38.3319 39.3309 37.6542 39.6116 36.9475 39.6116H18.2962C17.5895 39.6116 16.9118 39.3309 16.4121 38.8312C15.9124 38.3315 15.6317 37.6538 15.6317 36.9471V28.9537C15.6317 28.2471 15.9124 27.5693 16.4121 27.0696C16.9118 26.57 17.5895 26.2892 18.2962 26.2892H36.9475ZM36.9475 26.2892V23.6248C36.9475 22.9181 36.6668 22.2404 36.1671 21.7407C35.6674 21.241 34.9897 20.9603 34.283 20.9603L36.9475 26.2892ZM18.2962 26.2892V23.6248C18.2962 22.9181 18.5769 22.2404 19.0766 21.7407C19.5763 21.241 20.254 20.9603 20.9607 20.9603L18.2962 26.2892ZM20.9607 20.9603V18.2958C20.9607 17.5892 21.2414 16.9114 21.7411 16.4118C22.2408 15.9121 22.9185 15.6313 23.6251 15.6313H31.6186C32.3252 15.6313 33.0029 15.9121 33.5026 16.4118C34.0023 16.9114 34.283 17.5892 34.283 18.2958V20.9603H20.9607Z" stroke="black" stroke-width="2" strokeLinecap="round" stroke-linejoin="round"/>
</g>
</mask>
<g mask="url(#mask0)">
<rect width="54" height="54" rx="20" fill="#557EBA"/>
</g>
<defs>
<clipPath id="clip0">
<rect width="31.9737" height="31.9737" fill="white" transform="translate(11.3685 11.3682)"/>
</clipPath>
</defs>
</svg>
