<svg width="75" height="75" viewBox="0 0 75 75" fill="none" xmlns="http://www.w3.org/2000/svg">
<mask id="mask0" style="mask-type:alpha" maskUnits="userSpaceOnUse" x="0" y="0" width="75" height="75">
<g clip-path="url(#clip0)">
<path d="M69.8862 61.3639H57.9545C50.4357 61.3639 44.3184 55.2466 44.3184 47.7278C44.3184 40.2089 50.4357 34.0917 57.9545 34.0917H69.8862C70.8284 34.0917 71.5908 33.3293 71.5908 32.3871V27.2736C71.5908 23.6992 68.8182 20.7923 65.3153 20.5104L55.526 3.41197C54.6189 1.8306 53.154 0.700349 51.4012 0.231021C49.6566 -0.235112 47.8324 0.00969961 46.271 0.918474L12.7128 20.4554H6.81898C3.05876 20.4554 0.000854492 23.5132 0.000854492 27.2736V68.182C0.000854492 71.9422 3.0586 75.0001 6.81898 75.0001H64.7726C68.5328 75.0001 71.5908 71.9424 71.5908 68.182V63.0684C71.5908 62.1263 70.8284 61.3639 69.8862 61.3639ZM57.64 13.9683L61.3541 20.4554H46.4974L57.64 13.9683ZM19.4883 20.4554L47.9871 3.86468C48.7578 3.41357 49.6582 3.29372 50.5189 3.52351C51.3895 3.7565 52.1153 4.31915 52.5664 5.10647L52.5699 5.11271L26.2176 20.4554H19.4883Z" fill="black"/>
<path d="M69.8858 37.5007H57.9541C52.3145 37.5007 47.727 42.0882 47.727 47.7278C47.727 53.3675 52.3145 57.955 57.9541 57.955H69.8858C72.7056 57.955 74.9994 55.6612 74.9994 52.8414V42.6143C74.9994 39.7945 72.7056 37.5007 69.8858 37.5007ZM57.9541 51.1368C56.0749 51.1368 54.5451 49.6071 54.5451 47.7278C54.5451 45.8486 56.0749 44.3189 57.9541 44.3189C59.8334 44.3189 61.3631 45.8486 61.3631 47.7278C61.3633 49.6071 59.8335 51.1368 57.9541 51.1368Z" fill="black"/>
</g>
</mask>
<g mask="url(#mask0)">
<rect y="2" width="75" height="75" fill="#557EBA"/>
<rect x="8" y="-5" width="61" height="26" rx="6" fill="#92AED7"/>
</g>
<defs>
<clipPath id="clip0">
<rect width="75" height="75" fill="white"/>
</clipPath>
</defs>
</svg>
