<svg width="75" height="75" viewBox="0 0 75 75" fill="none" xmlns="http://www.w3.org/2000/svg">
<mask id="mask0" style="mask-type:alpha" maskUnits="userSpaceOnUse" x="0" y="0" width="75" height="75">
<g clip-path="url(#clip0)">
<path d="M36.9656 36.1277C41.9289 36.1277 46.2268 34.3476 49.7384 30.8354C53.25 27.3238 55.0301 23.0271 55.0301 18.0633C55.0301 13.1011 53.25 8.8039 49.7378 5.29115C46.2256 1.78012 41.9284 0 36.9656 0C32.0017 0 27.7051 1.78012 24.1934 5.29173C20.6818 8.80333 18.9011 13.1006 18.9011 18.0633C18.9011 23.0271 20.6818 27.3244 24.194 30.836C27.7062 34.347 32.0035 36.1277 36.9656 36.1277Z" fill="black"/>
<path d="M68.5736 57.6711C68.4723 56.2097 68.2674 54.6155 67.9659 52.9321C67.6615 51.2361 67.2695 49.6328 66.8003 48.1674C66.3157 46.6527 65.6565 45.157 64.8417 43.7236C63.9959 42.2359 63.0026 40.9404 61.8879 39.8744C60.7224 38.7592 59.2953 37.8626 57.645 37.2085C56.0005 36.5579 54.178 36.2284 52.2285 36.2284C51.4629 36.2284 50.7225 36.5425 49.2926 37.4735C48.4125 38.0474 47.3831 38.7111 46.2341 39.4453C45.2517 40.0713 43.9207 40.6578 42.2768 41.1888C40.6729 41.7078 39.0444 41.971 37.4371 41.971C35.8297 41.971 34.2018 41.7078 32.5962 41.1888C30.954 40.6583 29.623 40.0718 28.6417 39.4458C27.5036 38.7186 26.4736 38.0548 25.5804 37.4729C24.1522 36.5419 23.4112 36.2278 22.6456 36.2278C20.6955 36.2278 18.8736 36.5579 17.2297 37.2091C15.5806 37.862 14.1529 38.7586 12.9862 39.875C11.8721 40.9416 10.8782 42.2365 10.0336 43.7236C9.21936 45.157 8.56018 46.6522 8.07495 48.1679C7.60632 49.6333 7.21436 51.2361 6.90994 52.9321C6.60839 54.6132 6.40354 56.2079 6.30226 57.6728C6.2027 59.1079 6.15234 60.5973 6.15234 62.1016C6.15234 66.0166 7.39689 69.1861 9.85107 71.5235C12.2749 73.8301 15.4821 75.0002 19.3823 75.0002H55.4953C59.3954 75.0002 62.6015 73.8306 65.0259 71.5235C67.4807 69.1878 68.7252 66.0178 68.7252 62.1011C68.7246 60.5899 68.6737 59.0993 68.5736 57.6711Z" fill="black"/>
</g>
</mask>
<g mask="url(#mask0)">
<rect y="2" width="75" height="75" fill="#557EBA"/>
<rect x="17" y="-5" width="40" height="42" rx="19.5" fill="#92AED7"/>
</g>
<defs>
<clipPath id="clip0">
<rect width="75" height="75" fill="white"/>
</clipPath>
</defs>
</svg>
