<svg width="75" height="75" viewBox="0 0 75 75" fill="none" xmlns="http://www.w3.org/2000/svg">
<mask id="mask0" style="mask-type:alpha" maskUnits="userSpaceOnUse" x="0" y="0" width="75" height="75">
<g clip-path="url(#clip0)">
<path d="M19.0779 20.254L12.5802 20.756C10.7721 20.8958 9.16183 21.8434 8.16194 23.3558L0.668293 34.6895C-0.0900506 35.8365 -0.210606 37.2719 0.345591 38.5293C0.901934 39.7867 2.04524 40.6629 3.40387 40.8734L9.35328 41.7948C10.745 34.4091 14.0766 27.0416 19.0779 20.254Z" fill="black"/>
<path d="M33.2052 65.6467L34.1267 71.5961C34.3372 72.9547 35.2135 74.098 36.4707 74.6542C36.9938 74.8857 37.5475 74.9999 38.0985 74.9999C38.8723 74.9999 39.6408 74.7745 40.3107 74.3315L51.6446 66.838C53.1571 65.838 54.1047 64.2276 54.2441 62.4198L54.7461 55.9221C47.9584 60.9235 40.591 64.2551 33.2052 65.6467Z" fill="black"/>
<path d="M30.9676 61.5229C31.1741 61.5229 31.3818 61.5059 31.5891 61.4713C34.6834 60.954 37.6658 60.0824 40.5108 58.9416L16.0584 34.4891C14.9176 37.334 14.046 40.3164 13.5286 43.4108C13.3247 44.6306 13.7338 45.8732 14.6082 46.7477L28.2522 60.3918C28.9782 61.1176 29.958 61.5229 30.9676 61.5229Z" fill="black"/>
<path d="M69.0199 33.2521C75.0036 21.6838 75.2252 9.45886 74.9124 3.72551C74.8054 1.76102 73.2392 0.194823 71.2745 0.0877435C70.341 0.0367673 69.2346 0 67.9876 0C61.5766 0 51.4325 0.971038 41.7479 5.98032C34.0514 9.9613 23.9591 18.727 18.0049 30.2467C18.0752 30.3017 18.1439 30.36 18.2086 30.4247L44.5756 56.7917C44.6404 56.8564 44.6985 56.925 44.7535 56.9953C56.2732 51.0409 65.0389 40.9487 69.0199 33.2521ZM43.608 15.8553C47.8913 11.572 54.8611 11.5716 59.1447 15.8553C61.2198 17.9303 62.3625 20.6893 62.3625 23.6238C62.3625 26.5583 61.2198 29.3173 59.1447 31.3922C57.0033 33.5337 54.1893 34.6046 51.3764 34.6049C48.5626 34.6051 45.75 33.5343 43.608 31.3922C41.5329 29.3173 40.39 26.5583 40.39 23.6238C40.39 20.6893 41.5329 17.9303 43.608 15.8553Z" fill="black"/>
<path d="M46.7151 28.285C49.2852 30.8551 53.4673 30.8552 56.0374 28.285C57.2823 27.0399 57.968 25.3846 57.968 23.6239C57.968 21.8631 57.2823 20.2078 56.0374 18.9629C54.7524 17.6778 53.0643 17.0353 51.3762 17.0353C49.6883 17.0353 48.0002 17.6778 46.7152 18.9629C45.4703 20.2078 44.7844 21.8631 44.7844 23.6239C44.7844 25.3846 45.4701 27.04 46.7151 28.285Z" fill="black"/>
<path d="M2.24202 61.8068C2.80437 61.8068 3.36672 61.5923 3.79563 61.1631L10.9694 53.9894C11.8275 53.1313 11.8275 51.7401 10.9694 50.882C10.1115 50.0239 8.72014 50.0239 7.86204 50.882L0.688257 58.0558C-0.169849 58.9139 -0.169849 60.305 0.688257 61.1631C1.11731 61.5922 1.67966 61.8068 2.24202 61.8068Z" fill="black"/>
<path d="M17.5437 57.4564C16.6857 56.5983 15.2944 56.5983 14.4363 57.4564L0.644067 71.2487C-0.214038 72.1068 -0.214038 73.498 0.644067 74.3561C1.07312 74.7851 1.63547 74.9996 2.19783 74.9996C2.76018 74.9996 3.32253 74.7851 3.75144 74.3559L17.5435 60.5638C18.4018 59.7057 18.4018 58.3146 17.5437 57.4564Z" fill="black"/>
<path d="M21.0104 64.0308L13.8368 71.2046C12.9787 72.0627 12.9787 73.4538 13.8368 74.3119C14.2659 74.741 14.8282 74.9556 15.3904 74.9556C15.9526 74.9556 16.5151 74.7411 16.944 74.3119L24.1178 67.1382C24.9759 66.2801 24.9759 64.8889 24.1178 64.0308C23.2599 63.1727 21.8686 63.1727 21.0104 64.0308Z" fill="black"/>
</g>
</mask>
<g mask="url(#mask0)">
<rect width="75" height="75" fill="#557EBA"/>
<rect x="1.75598" y="42" width="40.1283" height="25.0336" transform="rotate(43.2173 1.75598 42)" fill="#92AED7"/>
<ellipse cx="52" cy="23" rx="8" ry="9" fill="#92AED7"/>
</g>
<defs>
<clipPath id="clip0">
<rect width="75" height="75" fill="white"/>
</clipPath>
</defs>
</svg>
