<svg width="75" height="75" viewBox="0 0 75 75" fill="none" xmlns="http://www.w3.org/2000/svg">
<mask id="mask0" style="mask-type:alpha" maskUnits="userSpaceOnUse" x="0" y="0" width="75" height="75">
<path d="M44.1347 8.22686C44.3315 8.29219 44.5332 8.14219 44.5238 7.93506C44.307 3.17856 40.4999 0 36.3303 0C32.1355 0 28.354 3.21943 28.137 7.93799C28.1275 8.14512 28.3294 8.29512 28.526 8.22978C33.3328 6.63032 39.4114 6.65625 44.1347 8.22686Z" fill="black"/>
<path d="M65.8807 55.0913C61.996 51.7618 59.7679 46.9175 59.7679 41.8023V39.8265C59.7679 39.6405 59.5973 39.5039 59.4149 39.5406C49.4648 41.5332 39.8461 33.8709 39.8461 23.4375C39.8461 16.354 43.7288 12.5609 44.9823 11.4854C45.1487 11.3426 45.1054 11.0729 44.9017 10.9921C29.7196 4.96835 12.8929 16.16 12.8929 32.8125V41.8023C12.8929 46.8142 10.7401 51.6988 6.78015 55.0913C6.12683 55.6509 5.59363 56.3584 5.23767 57.1348C3.41511 61.0962 6.32532 65.625 10.6781 65.625H61.8781C65.0368 65.625 67.7317 63.2189 67.9558 60.068C68.0972 58.0786 67.2495 56.2637 65.8807 55.0913Z" fill="black"/>
<path d="M36.3306 75C40.68 75 44.4226 72.3541 46.0327 68.5866C46.1577 68.2942 45.9489 67.9688 45.6309 67.9688H27.0303C26.7123 67.9688 26.5036 68.2942 26.6285 68.5866C28.2387 72.3541 31.9813 75 36.3306 75Z" fill="black"/>
<path d="M56.252 37.5C64.0555 37.5 70.3145 31.1821 70.3145 23.4375C70.3145 15.6841 64.0054 9.375 56.252 9.375C48.4546 9.375 42.1895 15.7074 42.1895 23.4375C42.1895 31.1909 48.4985 37.5 56.252 37.5ZM54.4326 19.7988C53.8525 20.0874 53.1494 19.853 52.8594 19.2744C52.5708 18.6958 52.8052 17.9912 53.3838 17.7012L55.7275 16.5293C56.501 16.1426 57.4238 16.7017 57.4238 17.5781V27.9785C57.4238 28.0594 57.4895 28.125 57.5703 28.125H58.5559C59.1802 28.125 59.7251 28.5964 59.7651 29.2194C59.8089 29.902 59.2688 30.4688 58.5957 30.4688H53.948C53.3237 30.4688 52.7788 29.9974 52.7388 29.3744C52.695 28.6917 53.2351 28.125 53.9082 28.125H54.9336C55.0145 28.125 55.0801 28.0594 55.0801 27.9785V19.7111C55.0801 19.6021 54.9652 19.5312 54.8678 19.5801L54.4326 19.7988Z" fill="black"/>
</mask>
<g mask="url(#mask0)">
<rect y="-1" width="75" height="78" fill="#557EBA"/>
<circle cx="56.5" cy="23.5" r="14.5" fill="#92AED7"/>
</g>
</svg>
