<svg width="75" height="75" viewBox="0 0 75 75" fill="none" xmlns="http://www.w3.org/2000/svg">
<mask id="mask0" style="mask-type:alpha" maskUnits="userSpaceOnUse" x="0" y="0" width="75" height="75">
<path d="M68.2617 0H56.25C54.9555 0 53.9062 1.04941 53.9062 2.34375C53.9062 3.63809 54.9555 4.6875 56.25 4.6875H68.2617C69.3926 4.6875 70.3125 5.60742 70.3125 6.73828V18.75C70.3125 20.0443 71.3618 21.0938 72.6562 21.0938C73.9507 21.0938 75 20.0443 75 18.75V6.73828C75 3.02285 71.9771 0 68.2617 0Z" fill="black"/>
<path d="M2.34375 21.0938C3.63823 21.0938 4.6875 20.0443 4.6875 18.75V6.73828C4.6875 5.60742 5.60742 4.6875 6.73828 4.6875H18.75C20.0445 4.6875 21.0938 3.63809 21.0938 2.34375C21.0938 1.04941 20.0445 0 18.75 0H6.73828C3.02285 0 0 3.02285 0 6.73828V18.75C0 20.0443 1.04927 21.0938 2.34375 21.0938Z" fill="black"/>
<path d="M18.75 70.3125H6.73828C5.60742 70.3125 4.6875 69.3926 4.6875 68.2617V56.25C4.6875 54.9557 3.63823 53.9062 2.34375 53.9062C1.04927 53.9062 0 54.9557 0 56.25V68.2617C0 71.9771 3.02285 75 6.73828 75H18.75C20.0445 75 21.0938 73.9506 21.0938 72.6562C21.0938 71.3619 20.0445 70.3125 18.75 70.3125Z" fill="black"/>
<path d="M72.6562 53.9062C71.3618 53.9062 70.3125 54.9557 70.3125 56.25V68.2617C70.3125 69.3926 69.3926 70.3125 68.2617 70.3125H56.25C54.9555 70.3125 53.9062 71.3619 53.9062 72.6562C53.9062 73.9506 54.9555 75 56.25 75H68.2617C71.9771 75 75 71.9771 75 68.2617V56.25C75 54.9557 73.9507 53.9062 72.6562 53.9062Z" fill="black"/>
<path d="M61.8164 65.625C63.9166 65.625 65.625 63.9164 65.625 61.8164V55.3711C65.625 53.2711 63.9166 51.5625 61.8164 51.5625H56.25V43.6523C56.25 41.5523 54.5416 39.8438 52.4414 39.8438H43.6523C41.5522 39.8438 39.8438 41.5523 39.8438 43.6523V52.4414C39.8438 54.5414 41.5522 56.25 43.6523 56.25H51.5625V61.8164C51.5625 63.9164 53.2709 65.625 55.3711 65.625H61.8164ZM60.2051 60.9375H56.9824C56.578 60.9375 56.25 60.6095 56.25 60.2051V56.9824C56.25 56.578 56.578 56.25 56.9824 56.25H60.2051C60.6095 56.25 60.9375 56.578 60.9375 56.9824V60.2051C60.9375 60.6095 60.6095 60.9375 60.2051 60.9375Z" fill="black"/>
<path d="M28.418 9.375H16.1133C12.3979 9.375 9.375 12.3979 9.375 16.1133V28.418C9.375 32.1334 12.3979 35.1562 16.1133 35.1562H28.418C32.1334 35.1562 35.1562 32.1334 35.1562 28.418V16.1133C35.1562 12.3979 32.1334 9.375 28.418 9.375ZM25.7812 23.4375C25.7812 24.7318 24.732 25.7812 23.4375 25.7812H21.0938C19.7993 25.7812 18.75 24.7318 18.75 23.4375V21.0938C18.75 19.7994 19.7993 18.75 21.0938 18.75H23.4375C24.732 18.75 25.7812 19.7994 25.7812 21.0938V23.4375Z" fill="black"/>
<path d="M58.8867 9.375H46.582C42.8666 9.375 39.8438 12.3979 39.8438 16.1133V28.418C39.8438 32.1334 42.8666 35.1562 46.582 35.1562H58.8867C62.6021 35.1562 65.625 32.1334 65.625 28.418V16.1133C65.625 12.3979 62.6021 9.375 58.8867 9.375ZM56.25 23.4375C56.25 24.7318 55.2007 25.7812 53.9062 25.7812H51.5625C50.268 25.7812 49.2188 24.7318 49.2188 23.4375V21.0938C49.2188 19.7994 50.268 18.75 51.5625 18.75H53.9062C55.2007 18.75 56.25 19.7994 56.25 21.0938V23.4375Z" fill="black"/>
<path d="M28.418 39.8438H16.1133C12.3979 39.8438 9.375 42.8666 9.375 46.582V58.8867C9.375 62.6021 12.3979 65.625 16.1133 65.625H28.418C32.1334 65.625 35.1562 62.6021 35.1562 58.8867V46.582C35.1562 42.8666 32.1334 39.8438 28.418 39.8438ZM25.7812 53.9062C25.7812 55.2006 24.732 56.25 23.4375 56.25H21.0938C19.7993 56.25 18.75 55.2006 18.75 53.9062V51.5625C18.75 50.2682 19.7993 49.2188 21.0938 49.2188H23.4375C24.732 49.2188 25.7812 50.2682 25.7812 51.5625V53.9062Z" fill="black"/>
</mask>
<g mask="url(#mask0)">
<rect y="-1" width="75" height="78" fill="#557EBA"/>
<rect x="75" y="68" width="7" height="23" transform="rotate(90 75 68)" fill="#92AED7"/>
<rect x="23" y="69" width="7" height="23" transform="rotate(90 23 69)" fill="#92AED7"/>
<rect x="68" y="52" width="7" height="23" fill="#92AED7"/>
<rect width="7" height="23" fill="#92AED7"/>
<rect y="52" width="7" height="23" fill="#92AED7"/>
<rect x="68" width="7" height="23" fill="#92AED7"/>
<rect x="75" width="7" height="23" transform="rotate(90 75 0)" fill="#92AED7"/>
<rect x="23" width="7" height="23" transform="rotate(90 23 0)" fill="#92AED7"/>
</g>
</svg>
