<svg width="500" height="500" viewBox="0 0 500 500" fill="none" xmlns="http://www.w3.org/2000/svg">
<path d="M87.38 402.18C177.81 448.65 324.38 448.65 414.83 402.18C505.28 355.71 505.26 280.36 414.83 233.88C324.4 187.4 177.83 187.41 87.38 233.88C-3.07 280.35 -3 355.71 87.38 402.18Z" fill="#F5F5F5"/>
<path d="M407.51 277.69C407.62 271.48 414.12 255.24 420.71 247.28C427.3 239.32 437.53 233.61 444.71 236.2C451.38 238.61 450.5 247.39 442.26 253.08C434.02 258.77 421.66 265.88 417.91 275.89L410.19 288.13L407.51 277.69Z" fill="#557EBA"/>
<path opacity="0.1" d="M407.51 277.69C407.62 271.48 414.12 255.24 420.71 247.28C427.3 239.32 437.53 233.61 444.71 236.2C451.38 238.61 450.5 247.39 442.26 253.08C434.02 258.77 421.66 265.88 417.91 275.89L410.19 288.13L407.51 277.69Z" fill="black"/>
<path d="M408.69 282.73C408.787 282.724 408.879 282.686 408.953 282.623C409.027 282.56 409.079 282.475 409.1 282.38C413.63 261.24 431.1 244.3 441.42 240.67C441.477 240.651 441.529 240.621 441.574 240.581C441.619 240.541 441.656 240.493 441.682 240.439C441.708 240.385 441.723 240.326 441.726 240.266C441.729 240.206 441.72 240.146 441.7 240.09C441.68 240.034 441.649 239.983 441.609 239.939C441.569 239.895 441.52 239.859 441.466 239.834C441.412 239.809 441.354 239.795 441.295 239.792C441.235 239.79 441.176 239.799 441.12 239.82C430.59 243.52 412.81 260.73 408.21 282.19C408.189 282.308 408.213 282.429 408.278 282.529C408.343 282.63 408.444 282.701 408.56 282.73H408.69Z" fill="white"/>
<path d="M411.61 296.36C412.67 292.89 417.04 287.2 424.02 282.56C431.74 277.43 441.44 275.18 443.74 271.11C446.5 266.24 442.43 261.51 434.58 262.35C426.73 263.19 412.75 273.64 410.27 289.71L411.61 296.36Z" fill="#557EBA"/>
<path d="M410.16 292.67C410.247 292.664 410.331 292.633 410.401 292.582C410.472 292.531 410.527 292.461 410.56 292.38C417.38 274.33 431.35 268.19 437.78 267.47C437.839 267.464 437.897 267.446 437.949 267.417C438.001 267.389 438.047 267.35 438.084 267.304C438.122 267.257 438.149 267.204 438.166 267.146C438.182 267.089 438.187 267.029 438.18 266.97C438.175 266.91 438.158 266.852 438.13 266.799C438.102 266.746 438.063 266.7 438.016 266.662C437.97 266.625 437.916 266.597 437.858 266.581C437.8 266.566 437.739 266.562 437.68 266.57C430.57 267.36 416.68 273.63 409.68 292.06C409.638 292.171 409.641 292.295 409.69 292.404C409.739 292.513 409.829 292.597 409.94 292.64C410.007 292.676 410.085 292.687 410.16 292.67V292.67Z" fill="white"/>
<path d="M104.15 336.43L111.72 332.1C111.72 332.1 115.35 312.1 112.64 294.9C108.82 270.72 92.36 262.38 86.38 264.79C80.4 267.2 78.99 274.35 89.79 288.32C96.16 296.57 104.36 314 104.15 336.43Z" fill="#557EBA"/>
<g opacity="0.1">
<path opacity="0.1" d="M104.15 336.43L111.72 332.1C111.72 332.1 115.35 312.1 112.64 294.9C108.82 270.72 92.36 262.38 86.38 264.79C80.4 267.2 78.99 274.35 89.79 288.32C96.16 296.57 104.36 314 104.15 336.43Z" fill="black"/>
</g>
<path d="M106.89 326.83H106.82C106.749 326.821 106.681 326.799 106.619 326.763C106.557 326.728 106.503 326.68 106.46 326.623C106.417 326.566 106.386 326.501 106.369 326.432C106.352 326.362 106.349 326.29 106.36 326.22C109.49 303.59 100.36 278.79 90.16 268.79C90.1092 268.741 90.0688 268.682 90.0412 268.616C90.0137 268.551 89.9995 268.481 89.9995 268.41C89.9995 268.339 90.0137 268.269 90.0412 268.204C90.0688 268.138 90.1092 268.079 90.16 268.03C90.2611 267.93 90.3977 267.874 90.54 267.874C90.6823 267.874 90.8189 267.93 90.92 268.03C101.34 278.21 110.61 303.41 107.44 326.38C107.416 326.508 107.348 326.623 107.247 326.706C107.147 326.788 107.02 326.832 106.89 326.83Z" fill="white"/>
<path d="M83.15 348.56C81.96 349.25 79.49 347.75 78.55 347.11C76.9306 346.011 75.6219 344.512 74.75 342.76C73.7578 340.772 73.4084 338.525 73.75 336.33C73.9394 335.176 74.2101 334.036 74.56 332.92L75.56 329.6C75.9459 328.531 76.1092 327.394 76.04 326.26C75.75 323.99 73.74 322.4 71.91 321.03C69.91 319.51 67.78 317.51 67.79 314.78C67.9394 312.664 68.783 310.657 70.19 309.07C71.5 307.42 73.05 305.96 74.19 304.21C75.1291 303.009 75.6301 301.524 75.61 300C75.4889 299.063 75.1757 298.161 74.69 297.35C73.5782 295.66 72.6082 293.88 71.79 292.03C71.12 290.12 71.22 287.75 72.71 286.38C73.3764 285.883 74.1353 285.523 74.9423 285.322C75.7492 285.121 76.5881 285.083 77.41 285.21C78.9574 285.403 80.4447 285.928 81.77 286.75C86.11 289.16 88.58 294.29 93.18 296.15C95.0073 296.716 96.8675 297.17 98.75 297.51C99.6915 297.685 100.586 298.055 101.376 298.596C102.167 299.136 102.836 299.836 103.34 300.65C105.03 304.02 101.89 308.18 103.08 311.76C104.08 314.93 107.21 316.14 108.94 318.99C109.641 320.253 109.924 321.706 109.75 323.14C109.596 325.56 109.003 327.932 108 330.14C106.873 332.335 105.586 334.444 104.15 336.45C104.08 336.5 83.33 348.46 83.15 348.56Z" fill="#557EBA"/>
<path d="M95.44 342C95.3691 341.997 95.2993 341.981 95.2348 341.951C95.1703 341.922 95.1122 341.88 95.0639 341.828C95.0156 341.776 94.978 341.715 94.9534 341.648C94.9287 341.582 94.9173 341.511 94.92 341.44C95.81 320.02 85.71 296.36 78.37 289.49C78.2722 289.388 78.2176 289.252 78.2176 289.11C78.2176 288.968 78.2722 288.832 78.37 288.73C78.4711 288.63 78.6077 288.574 78.75 288.574C78.8923 288.574 79.0289 288.63 79.13 288.73C86.62 295.73 96.92 319.79 96.02 341.52C96.0048 341.66 95.9357 341.788 95.8274 341.878C95.7191 341.967 95.5801 342.011 95.44 342V342Z" fill="white"/>
<path d="M92.23 316.7H92.07C86.9937 315.299 81.7793 314.457 76.52 314.19C76.4491 314.187 76.3793 314.171 76.3148 314.141C76.2503 314.112 76.1922 314.07 76.1439 314.018C76.0956 313.966 76.058 313.905 76.0334 313.838C76.0087 313.772 75.9973 313.701 76 313.63C76.0012 313.559 76.0169 313.488 76.046 313.423C76.075 313.358 76.117 313.299 76.1693 313.251C76.2216 313.202 76.2831 313.165 76.3503 313.141C76.4174 313.116 76.4888 313.106 76.56 313.11C81.9135 313.39 87.2211 314.248 92.39 315.67C92.5093 315.711 92.6103 315.793 92.6756 315.901C92.7408 316.009 92.7661 316.137 92.7471 316.262C92.7281 316.386 92.6659 316.501 92.5715 316.584C92.477 316.668 92.3562 316.716 92.23 316.72V316.7Z" fill="white"/>
<path d="M85.79 340.61L194.92 403.61C196.262 404.291 197.745 404.646 199.25 404.646C200.755 404.646 202.238 404.291 203.58 403.61L410.21 284.3C412.6 282.92 412.6 280.68 410.21 279.3L301.07 216.3C299.728 215.619 298.245 215.264 296.74 215.264C295.235 215.264 293.752 215.619 292.41 216.3L85.79 335.61C83.4 337 83.4 339.23 85.79 340.61Z" fill="#37474F"/>
<path d="M144.77 369.88C146.63 370.822 148.685 371.313 150.77 371.313C152.855 371.313 154.91 370.822 156.77 369.88C160.09 367.96 160.09 364.88 156.77 362.94C154.91 361.998 152.855 361.507 150.77 361.507C148.685 361.507 146.63 361.998 144.77 362.94C141.45 364.86 141.45 368 144.77 369.88Z" fill="#263238"/>
<path d="M194.92 403.62L85.79 340.62C83.65 339.39 83.43 337.47 85.11 336.09C84.0435 336.934 83.1671 337.994 82.5381 339.201C81.9092 340.407 81.5418 341.732 81.46 343.09V347.16C81.5405 348.663 81.9746 350.125 82.727 351.428C83.4795 352.732 84.5289 353.839 85.79 354.66L194.92 417.66C196.255 418.354 197.745 418.699 199.25 418.66V404.65C197.743 404.68 196.252 404.325 194.92 403.62V403.62Z" fill="#455A64"/>
<path d="M410.21 298.37C411.47 297.548 412.519 296.44 413.271 295.137C414.023 293.834 414.458 292.372 414.54 290.87V286.8C414.456 285.442 414.086 284.116 413.456 282.91C412.825 281.704 411.947 280.644 410.88 279.8C412.57 281.18 412.35 283.1 410.21 284.34L203.58 403.62C202.246 404.317 200.755 404.661 199.25 404.62V418.7C200.755 418.741 202.246 418.397 203.58 417.7L410.21 298.37Z" fill="#263238"/>
<path d="M212.91 390.56L109.91 331.08C108.47 330.25 108.47 328.91 109.91 328.08L279.33 230.21C280.136 229.801 281.026 229.587 281.93 229.587C282.834 229.587 283.724 229.801 284.53 230.21L387.58 289.68C389.02 290.5 389.02 291.85 387.58 292.68L218.1 390.56C217.296 390.969 216.407 391.183 215.505 391.183C214.603 391.183 213.714 390.969 212.91 390.56V390.56Z" fill="#FAFAFA"/>
<path d="M186.12 310.53L247.05 345.7L208.59 367.91C207.918 368.245 207.176 368.42 206.425 368.42C205.674 368.42 204.932 368.245 204.26 367.91L147.66 335.23C147.399 335.141 147.172 334.973 147.011 334.749C146.851 334.525 146.764 334.256 146.764 333.98C146.764 333.704 146.851 333.435 147.011 333.211C147.172 332.987 147.399 332.819 147.66 332.73L186.12 310.53Z" fill="#E6E6E6"/>
<path d="M247 345.7L239.82 317.16C239.657 316.479 239.278 315.869 238.74 315.42V315.42C238.195 314.958 237.521 314.675 236.81 314.61L186.08 310.53L247 345.7Z" fill="#E0E0E0"/>
<path d="M247 345.7L192.47 343.45C191.817 343.424 191.195 343.166 190.714 342.722C190.234 342.279 189.928 341.679 189.85 341.03L186.07 310.52L247 345.7Z" fill="#E0E0E0"/>
<path d="M247 345.7L192.47 343.45C191.817 343.424 191.195 343.166 190.714 342.722C190.234 342.279 189.928 341.679 189.85 341.03L186.07 310.52L192.8 340.52C192.861 340.787 193.005 341.028 193.212 341.208C193.418 341.388 193.677 341.497 193.95 341.52L247 345.7Z" fill="#FAFAFA"/>
<path d="M198.3 343.36L206.43 369.16L208.59 367.91L198.3 343.36Z" fill="#FAFAFA"/>
<path d="M145.5 333.98L147.66 332.73L190.18 338.67L145.5 333.98Z" fill="#FAFAFA"/>
<path d="M220.78 297.7L269.25 325.7C269.921 326.04 270.663 326.217 271.415 326.217C272.167 326.217 272.909 326.04 273.58 325.7L342.37 286C342.631 285.911 342.858 285.743 343.019 285.519C343.179 285.295 343.266 285.026 343.266 284.75C343.266 284.474 343.179 284.205 343.019 283.981C342.858 283.757 342.631 283.589 342.37 283.5L293.9 255.5C293.229 255.16 292.487 254.983 291.735 254.983C290.983 254.983 290.241 255.16 289.57 255.5L220.78 295.2C220.519 295.289 220.292 295.457 220.131 295.681C219.971 295.905 219.884 296.174 219.884 296.45C219.884 296.726 219.971 296.995 220.131 297.219C220.292 297.443 220.519 297.611 220.78 297.7Z" fill="#E6E6E6"/>
<path d="M259.32 294C258.742 293.103 258.4 292.074 258.325 291.01C258.25 289.946 258.444 288.879 258.89 287.91C259.79 285.91 261.75 283.99 264.76 282.26C268.06 280.32 271.703 279.033 275.49 278.47C279.184 277.938 282.944 278.073 286.59 278.87C290.351 279.688 293.959 281.096 297.28 283.04C300.493 284.887 302.68 286.793 303.84 288.76C304.407 289.598 304.745 290.568 304.822 291.577C304.899 292.585 304.713 293.596 304.28 294.51C303.4 296.38 301.55 298.13 298.75 299.75C296.065 301.372 293.045 302.357 289.92 302.63C287.319 302.883 284.702 302.347 282.41 301.09C281.999 300.912 281.631 300.648 281.329 300.318C281.028 299.987 280.8 299.595 280.66 299.17C280.593 298.802 280.626 298.423 280.754 298.071C280.883 297.72 281.102 297.409 281.39 297.17C279.779 297.301 278.158 297.19 276.58 296.84C275.033 296.507 273.549 295.933 272.18 295.14C269.873 293.807 268.667 292.36 268.56 290.8C268.453 289.24 269.557 287.807 271.87 286.5C274.661 284.863 277.855 284.042 281.09 284.13C284.394 284.203 287.623 285.122 290.47 286.8C291.648 287.457 292.698 288.321 293.57 289.35C294.263 290.112 294.715 291.062 294.87 292.08L285.87 297.3C285.14 297.72 284.74 298.09 284.68 298.41C284.62 298.73 284.88 299.07 285.45 299.41C286.695 300.015 288.121 300.136 289.45 299.75C291.408 299.292 293.282 298.526 295 297.48C297.26 296.18 298.69 294.78 299.29 293.31C299.591 292.597 299.705 291.819 299.623 291.049C299.541 290.28 299.265 289.544 298.82 288.91C297.613 287.186 296.008 285.78 294.14 284.81C290.303 282.54 285.964 281.252 281.51 281.06C276.991 280.933 272.531 282.106 268.66 284.44C266.2 285.86 264.62 287.36 263.92 288.94C263.569 289.675 263.414 290.489 263.47 291.302C263.526 292.115 263.791 292.9 264.24 293.58C265.451 295.363 267.087 296.816 269 297.81C270.271 298.537 271.611 299.137 273 299.6C274.296 300.048 275.637 300.35 277 300.5C277.145 300.511 277.288 300.549 277.42 300.61C277.49 300.61 277.49 300.74 277.42 300.87L276.1 302.72C276.046 302.792 275.982 302.856 275.91 302.91C275.715 302.976 275.504 302.976 275.31 302.91C273.661 302.702 272.039 302.32 270.47 301.77C268.83 301.226 267.249 300.519 265.75 299.66C262.65 298 260.51 296.05 259.32 294ZM280.17 294.87C281.549 295.045 282.948 294.783 284.17 294.12L289.4 291.12C288.78 290.07 287.866 289.225 286.77 288.69C285.101 287.711 283.205 287.184 281.27 287.16C279.342 287.126 277.443 287.625 275.78 288.6C274.32 289.44 273.61 290.27 273.65 291.09C273.65 291.91 274.47 292.76 276 293.64C277.283 294.352 278.706 294.775 280.17 294.88V294.87Z" fill="#FAFAFA"/>
<path d="M347.26 252.9C347.671 253.112 348.127 253.223 348.59 253.223C349.053 253.223 349.509 253.112 349.92 252.9C350.079 252.845 350.217 252.741 350.314 252.604C350.411 252.467 350.464 252.303 350.464 252.135C350.464 251.967 350.411 251.803 350.314 251.666C350.217 251.529 350.079 251.425 349.92 251.37C349.506 251.165 349.051 251.059 348.59 251.059C348.129 251.059 347.674 251.165 347.26 251.37C347.101 251.425 346.963 251.529 346.866 251.666C346.769 251.803 346.716 251.967 346.716 252.135C346.716 252.303 346.769 252.467 346.866 252.604C346.963 252.741 347.101 252.845 347.26 252.9V252.9Z" fill="#263238"/>
<path d="M351.5 264.94C352.322 265.359 353.232 265.577 354.155 265.577C355.078 265.577 355.988 265.359 356.81 264.94C358.28 264.1 358.28 262.72 356.81 261.88C355.988 261.461 355.078 261.243 354.155 261.243C353.232 261.243 352.322 261.461 351.5 261.88C350 262.72 350 264.1 351.5 264.94Z" fill="#263238"/>
<path d="M347.76 259.61C348.76 259.04 348.69 258.1 347.64 257.5L330.18 247.41C329.619 247.109 328.994 246.947 328.357 246.937C327.721 246.926 327.091 247.068 326.52 247.35C325.52 247.91 325.6 248.86 326.64 249.46L344.1 259.54C344.662 259.837 345.286 259.998 345.922 260.01C346.557 260.022 347.187 259.885 347.76 259.61V259.61Z" fill="#263238"/>
<path d="M121.38 132.44C121.435 131.366 121.744 130.32 122.281 129.389C122.818 128.457 123.568 127.666 124.47 127.08L282.7 35.73C283.659 35.2418 284.719 34.9873 285.795 34.9873C286.871 34.9873 287.931 35.2418 288.89 35.73L292.37 37.73C293.27 38.315 294.02 39.1046 294.557 40.0344C295.094 40.9642 295.403 42.0078 295.46 43.08V164.38C295.398 165.452 295.087 166.496 294.55 167.426C294.014 168.357 293.267 169.149 292.37 169.74L134.14 261.09C133.182 261.573 132.123 261.825 131.05 261.825C129.977 261.825 128.918 261.573 127.96 261.09L124.47 259.09C123.573 258.499 122.826 257.707 122.29 256.776C121.753 255.846 121.442 254.802 121.38 253.73V132.44Z" fill="#557EBA"/>
<path opacity="0.4" d="M122.28 129.39L131.06 134.45L294.56 40.05C294.039 39.109 293.289 38.3146 292.38 37.74L288.88 35.74C287.923 35.2519 286.864 34.9974 285.79 34.9974C284.716 34.9974 283.657 35.2519 282.7 35.74L124.48 127.08C123.558 127.645 122.799 128.441 122.28 129.39V129.39Z" fill="white"/>
<path opacity="0.1" d="M121.38 132.43V253.71C121.437 254.785 121.748 255.831 122.287 256.762C122.825 257.694 123.577 258.485 124.48 259.07L127.96 261.07C128.229 261.226 128.514 261.354 128.81 261.45C129.223 261.586 129.649 261.683 130.08 261.74C130.893 261.845 131.717 261.815 132.52 261.65C132.723 261.609 132.923 261.555 133.12 261.49C133.248 261.456 133.372 261.409 133.49 261.35C133.256 261.45 133.004 261.502 132.75 261.502C132.496 261.502 132.244 261.45 132.01 261.35C131.686 261.133 131.426 260.833 131.259 260.481C131.092 260.129 131.023 259.738 131.06 259.35V138C131.029 137.45 131.167 136.904 131.454 136.434C131.742 135.964 132.166 135.593 132.67 135.37L131.06 134.43L122.28 129.37C121.726 130.297 121.416 131.35 121.38 132.43V132.43Z" fill="black"/>
<path opacity="0.2" d="M131.06 134.45L204.34 161.83C206.874 162.773 209.654 162.825 212.222 161.978C214.79 161.131 216.994 159.435 218.47 157.17L230.24 139.17L295.14 39.73L232.58 139.82L295.46 164.43C295.396 165.528 295.052 166.592 294.46 167.52L232.41 140.1L218.73 162C217.213 164.431 214.869 166.232 212.13 167.073C209.391 167.915 206.44 167.74 203.82 166.58L194.09 162.28L132 261.34C131.676 261.123 131.417 260.823 131.249 260.471C131.082 260.119 131.013 259.728 131.05 259.34V257.34L193.78 162.2L131.06 134.45Z" fill="black"/>
<path d="M149.19 106.13L138.37 99.9L138.27 99.84C133.47 97.13 126.89 97.54 119.6 101.74C104.93 110.21 93.04 130.81 93.04 147.74C93.04 156.19 96.04 162.14 100.79 164.92L110.63 170.53L112.98 166.6C115.657 165.991 118.226 164.98 120.6 163.6C135.27 155.13 147.16 134.53 147.16 117.6C147.159 115.315 146.88 113.038 146.33 110.82L149.19 106.13Z" fill="#37474F"/>
<path d="M129.86 107.65C115.18 116.12 103.29 136.72 103.29 153.65C103.29 170.58 115.18 177.46 129.85 168.99C144.52 160.52 156.42 139.91 156.42 122.99C156.42 106.07 144.53 99.17 129.86 107.65Z" fill="#455A64"/>
<path d="M121.6 140.34C121.506 140.242 121.437 140.122 121.4 139.992C121.364 139.861 121.36 139.723 121.39 139.59C121.44 139.229 121.578 138.886 121.79 138.59L130 126.4C130.21 126.11 130.41 125.82 130.63 125.54C130.813 125.278 131.048 125.057 131.32 124.89L134.32 123.19C134.419 123.116 134.539 123.073 134.662 123.067C134.786 123.06 134.909 123.09 135.016 123.153C135.123 123.216 135.208 123.309 135.262 123.421C135.317 123.532 135.337 123.657 135.32 123.78V151.92C135.304 152.274 135.197 152.619 135.01 152.92C134.844 153.232 134.6 153.494 134.3 153.68L131.24 155.44C131.138 155.517 131.017 155.565 130.89 155.577C130.763 155.589 130.635 155.566 130.52 155.51C130.415 155.437 130.332 155.337 130.279 155.221C130.227 155.105 130.206 154.977 130.22 154.85V133.34L124.87 141.27C124.693 141.56 124.436 141.793 124.13 141.94C124.019 141.996 123.895 142.02 123.772 142.009C123.648 141.999 123.53 141.954 123.43 141.88L121.6 140.34Z" fill="#FAFAFA"/>
<path d="M366.61 237.33V235.54H367.05C367.713 234.324 368.723 233.332 369.95 232.69C372.451 231.423 375.216 230.763 378.02 230.763C380.824 230.763 383.589 231.423 386.09 232.69C387.317 233.332 388.327 234.324 388.99 235.54H389.43V237.27C389.43 238.98 388.35 240.7 386.09 242.01C383.594 243.267 380.838 243.921 378.044 243.92C375.249 243.918 372.494 243.26 370 242C367.71 240.72 366.6 239 366.61 237.33Z" fill="#263238"/>
<path d="M386.09 230.88C383.59 229.608 380.825 228.946 378.02 228.946C375.215 228.946 372.45 229.608 369.95 230.88C365.49 233.45 365.49 237.62 369.95 240.2C372.451 241.467 375.216 242.127 378.02 242.127C380.824 242.127 383.589 241.467 386.09 240.2C390.55 237.62 390.55 233.45 386.09 230.88Z" fill="#455A64"/>
<path d="M381 167V234.78C380.976 235.038 380.884 235.286 380.733 235.497C380.582 235.708 380.377 235.874 380.14 235.98C379.496 236.31 378.783 236.482 378.06 236.482C377.337 236.482 376.624 236.31 375.98 235.98C375.743 235.874 375.538 235.708 375.387 235.497C375.236 235.286 375.144 235.038 375.12 234.78V167H381Z" fill="#37474F"/>
<path d="M375.08 174.38V176.5L380.96 179.89V177.78L375.08 174.38Z" fill="#263238"/>
<path d="M412.59 149.05L412.09 150.05L406.71 160.83L404.16 166L395.52 183.33L394.57 185.24H394.4C394.052 185.252 393.708 185.172 393.4 185.01L354.89 162.75C354.603 162.568 354.363 162.322 354.189 162.03C354.015 161.738 353.913 161.409 353.89 161.07V146.19C353.89 138.77 358.78 129.93 364.81 126.45C367.67 124.8 370.26 124.67 372.21 125.76L412.59 149.05Z" fill="#455A64"/>
<path d="M405.32 149.84C402.88 150.74 394.03 158.05 394.03 169.57C394.03 179.25 394.03 184.27 394.03 185.18H394.39H394.56L395.51 183.27L404.16 166L406.71 160.88L407.3 159.71L405.32 149.84Z" fill="#37474F"/>
<path d="M415.76 173C415.664 173.163 415.526 173.298 415.36 173.39L415.26 173.45L395.37 185C395.123 185.131 394.85 185.207 394.57 185.22H394.4V169.57C394.449 166.739 395.037 163.942 396.13 161.33L397.13 161.89L404.18 165.96L415.12 172.29L415.68 172.61C415.741 172.653 415.783 172.717 415.797 172.789C415.812 172.862 415.799 172.937 415.76 173Z" fill="#37474F"/>
<path d="M412.59 149.05C410.66 148.05 408.11 148.22 405.32 149.84C401.896 151.992 399.129 155.043 397.32 158.66C396.861 159.527 396.451 160.418 396.09 161.33C394.997 163.942 394.409 166.739 394.36 169.57V185.21H394.53C394.81 185.197 395.083 185.121 395.33 184.99L415.21 173.5L415.31 173.44C415.467 173.337 415.603 173.204 415.71 173.05V173.05C415.99 172.699 416.151 172.269 416.17 171.82V157C416.22 153 414.82 150.23 412.59 149.05ZM414.81 172.45L395.81 183.45C395.65 183.54 395.52 183.45 395.52 183.28V169.57C395.571 166.934 396.11 164.33 397.11 161.89C397.121 161.837 397.142 161.786 397.17 161.74C397.553 160.774 397.994 159.833 398.49 158.92C400.174 155.598 402.728 152.795 405.88 150.81C407.101 150.035 408.505 149.597 409.95 149.54C410.696 149.532 411.431 149.711 412.09 150.06C413.99 151.06 415.09 153.53 415.09 156.96V171.96C415.085 172.058 415.057 172.153 415.008 172.238C414.959 172.323 414.892 172.396 414.81 172.45V172.45Z" fill="#455A64"/>
<path d="M415.1 157V172.33L397.1 161.93C397.111 161.877 397.131 161.826 397.16 161.78C399.09 156.96 402.34 152.87 405.87 150.85C407.091 150.075 408.495 149.637 409.94 149.58C413.13 149.54 415.1 152.39 415.1 157Z" fill="#263238"/>
<path d="M382.16 164.6L383.75 163.68C384.089 163.527 384.463 163.465 384.833 163.502C385.204 163.539 385.558 163.673 385.86 163.89C386.733 164.46 387.46 165.228 387.981 166.132C388.502 167.035 388.803 168.049 388.86 169.09C388.896 169.456 388.836 169.825 388.685 170.16C388.534 170.495 388.298 170.785 388 171V171L386.53 171.85L386.26 171.4C385.958 171.334 385.668 171.222 385.4 171.07C384.527 170.5 383.8 169.732 383.279 168.828C382.758 167.925 382.457 166.911 382.4 165.87C382.402 165.611 382.433 165.353 382.49 165.1L382.16 164.6Z" fill="#E0E0E0"/>
<path d="M384.35 164.77C385.223 165.339 385.949 166.105 386.47 167.007C386.991 167.908 387.293 168.92 387.35 169.96C387.35 171.88 386 172.65 384.35 171.7C383.477 171.129 382.751 170.361 382.23 169.458C381.709 168.555 381.407 167.541 381.35 166.5C381.34 164.59 382.69 163.81 384.35 164.77Z" fill="#FAFAFA"/>
<path d="M384.35 169.06C384.119 169.06 383.898 168.968 383.735 168.805C383.572 168.642 383.48 168.421 383.48 168.19V143.58C383.48 143.349 383.572 143.128 383.735 142.965C383.898 142.802 384.119 142.71 384.35 142.71C384.581 142.71 384.802 142.802 384.965 142.965C385.128 143.128 385.22 143.349 385.22 143.58V168.19C385.22 168.421 385.128 168.642 384.965 168.805C384.802 168.968 384.581 169.06 384.35 169.06V169.06Z" fill="#EBEBEB"/>
<path d="M383.48 146.01L374.76 140.98L377.49 146.23L374.76 148.33L383.48 153.37V146.01Z" fill="#557EBA"/>
<path d="M410.56 162C410.554 161.866 410.516 161.736 410.45 161.62C410.384 161.503 410.292 161.404 410.18 161.33L390.46 149.95C390.34 149.891 390.209 149.86 390.075 149.86C389.941 149.86 389.81 149.891 389.69 149.95L389.25 150.2C389.138 150.274 389.046 150.373 388.98 150.49C388.914 150.606 388.876 150.736 388.87 150.87V166C388.878 166.133 388.917 166.263 388.983 166.379C389.049 166.495 389.14 166.594 389.25 166.67L409 178C409.12 178.059 409.251 178.09 409.385 178.09C409.519 178.09 409.65 178.059 409.77 178L410.21 177.75C410.322 177.676 410.414 177.577 410.48 177.461C410.546 177.344 410.584 177.214 410.59 177.08L410.56 162Z" fill="#F0F0F0"/>
<path d="M410.45 161.6L409.36 162.23L389 150.47C389.066 150.353 389.158 150.254 389.27 150.18L389.71 149.93C389.828 149.866 389.961 149.833 390.095 149.833C390.229 149.833 390.362 149.866 390.48 149.93L410.2 161.31C410.305 161.386 410.39 161.485 410.45 161.6V161.6Z" fill="#FAFAFA"/>
<path d="M410.56 162V177.11C410.554 177.244 410.516 177.374 410.45 177.491C410.384 177.607 410.292 177.706 410.18 177.78L409.74 178.03L409.64 178.08H409.48C409.378 178.1 409.272 178.1 409.17 178.08H409.1H409.05C409.079 178.095 409.112 178.103 409.145 178.103C409.178 178.103 409.211 178.095 409.24 178.08C409.281 178.053 409.313 178.016 409.335 177.972C409.356 177.928 409.364 177.879 409.36 177.83V162.67C409.363 162.601 409.344 162.534 409.306 162.476C409.268 162.419 409.214 162.375 409.15 162.35L409.36 162.23L410.45 161.6C410.522 161.721 410.56 161.859 410.56 162V162Z" fill="#E0E0E0"/>
<path d="M409.36 162.23L400.22 165.64C399.904 165.756 399.558 165.762 399.239 165.657C398.919 165.552 398.645 165.341 398.46 165.06L397 162.82L388.91 150.42L396.7 162.9L388.87 166C388.877 166.135 388.919 166.266 388.99 166.38L396.73 162.96L398.43 165.69C398.619 165.994 398.911 166.219 399.253 166.324C399.595 166.428 399.963 166.406 400.29 166.26L401.5 165.73L409.24 178C409.281 177.973 409.313 177.936 409.335 177.892C409.356 177.848 409.364 177.799 409.36 177.75V177.5L401.54 165.64L409.36 162.23Z" fill="#E0E0E0"/>
<path d="M425.82 164.42L421.82 168.99L421.74 169.09L418 173.42C417.777 173.665 417.522 173.877 417.24 174.05L396.24 186.15C396.169 186.191 396.091 186.219 396.01 186.23H396L403.56 177.5L404 177C409.575 170.917 415.97 165.639 423 161.32C425.75 159.73 427.51 159.16 428.18 159.49C429 159.94 428.24 161.63 425.82 164.42Z" fill="#37474F"/>
</svg>
