<svg width="500" height="500" viewBox="0 0 500 500" fill="none" xmlns="http://www.w3.org/2000/svg">
<path d="M250.05 486.05C365.428 486.05 458.96 432.051 458.96 365.44C458.96 298.829 365.428 244.83 250.05 244.83C134.672 244.83 41.14 298.829 41.14 365.44C41.14 432.051 134.672 486.05 250.05 486.05Z" fill="#F5F5F5"/>
<path d="M134.32 428.24C159.449 428.24 179.82 416.478 179.82 401.97C179.82 387.461 159.449 375.7 134.32 375.7C109.191 375.7 88.8199 387.461 88.8199 401.97C88.8199 416.478 109.191 428.24 134.32 428.24Z" fill="#EBEBEB"/>
<path d="M369.92 428.24C395.049 428.24 415.42 416.478 415.42 401.97C415.42 387.461 395.049 375.7 369.92 375.7C344.791 375.7 324.42 387.461 324.42 401.97C324.42 416.478 344.791 428.24 369.92 428.24Z" fill="#EBEBEB"/>
<path d="M251.98 443.77C280.511 443.77 303.64 430.415 303.64 413.94C303.64 397.465 280.511 384.11 251.98 384.11C223.449 384.11 200.32 397.465 200.32 413.94C200.32 430.415 223.449 443.77 251.98 443.77Z" fill="#EBEBEB"/>
<path d="M46.9999 168.9C49.5458 173.892 50.5616 179.524 49.9199 185.09C49.3199 189.84 47.6699 194.44 48.2699 199.28C49.2099 206.92 54.5699 213.01 58.8999 219.02C61.416 222.243 63.4382 225.822 64.8999 229.64C66.4799 234.34 66.0999 239.23 65.2199 244.03C63.5599 253.15 61.2199 261.72 66.3299 270.19C69.1499 274.85 72.9599 278.8 75.6099 283.57C78.4671 288.834 80.2547 294.612 80.8699 300.57C80.9299 301.11 81.9699 301.29 81.9199 300.68C81.5677 295.679 80.3319 290.78 78.2699 286.21C76.1799 281.59 73.1399 277.71 70.1399 273.67C67.1399 269.63 64.5299 265.17 64.2599 259.9C64.0099 254.98 65.2599 250.13 66.2599 245.35C67.1199 240.96 67.7599 236.43 66.8299 232C65.9424 228.297 64.3685 224.793 62.1899 221.67C57.8099 215.05 51.6199 209 49.7999 201.06C48.4699 195.24 50.7999 189.73 51.1799 183.97C51.5849 178.633 50.3085 173.304 47.5299 168.73C47.3199 168.39 46.7999 168.47 47.0099 168.9H46.9999Z" fill="#37474F"/>
<path d="M45.6799 177.44C45.4299 175.85 48.0599 170.95 48.6799 170.86C49.2999 170.77 52.9499 174.58 53.2199 176.28C53.2384 176.618 53.1677 176.954 53.015 177.256C52.8623 177.558 52.6329 177.815 52.3499 178C51.5899 178.549 50.7103 178.91 49.7837 179.052C48.857 179.195 47.9098 179.115 47.0199 178.82C46.6916 178.733 46.393 178.558 46.1554 178.315C45.9179 178.072 45.7501 177.77 45.6699 177.44H45.6799Z" fill="#92E3A9"/>
<path opacity="0.1" d="M45.6799 177.44C45.4299 175.85 48.0599 170.95 48.6799 170.86C49.2999 170.77 52.9499 174.58 53.2199 176.28C53.2384 176.618 53.1677 176.954 53.015 177.256C52.8623 177.558 52.6329 177.815 52.3499 178C51.5899 178.549 50.7103 178.91 49.7837 179.052C48.857 179.195 47.9098 179.115 47.0199 178.82C46.6916 178.733 46.393 178.558 46.1554 178.315C45.9179 178.072 45.7501 177.77 45.6699 177.44H45.6799Z" fill="black"/>
<path d="M22.16 145.57C24 157.79 36 171.75 49 172.74C61.07 167.28 68.31 150.99 66.43 138.74C64.55 126.49 54.93 116.32 40.68 118.51C26.43 120.7 20.28 133.35 22.16 145.57Z" fill="#92E3A9"/>
<path opacity="0.05" d="M66.4399 145.31C66.4399 145.31 64.9999 157.54 50.5799 160.7C36.7399 163.76 22.9999 150.15 21.8699 139.92C21.7724 141.808 21.8696 143.702 22.1599 145.57C23.9999 157.79 35.9999 171.75 48.9999 172.74C58.9999 168.22 65.6799 156.26 66.6099 145.34L66.4399 145.31Z" fill="black"/>
<path d="M453.11 217.31C450.852 220.461 449.325 224.075 448.64 227.89C447.98 231.68 448.64 235.46 448.83 239.26C449.13 244.26 448.05 248.45 444.73 252.26C442.1 255.26 438.92 257.76 436.54 261C431.76 267.51 430.68 274.79 431.66 282.66C432.77 291.57 434.84 299.95 430.55 308.41C428.25 312.95 425.21 317.09 423.6 321.97C422.161 326.721 421.546 331.682 421.78 336.64C421.78 337.19 422.83 337.36 422.84 336.75C422.758 332.02 423.368 327.304 424.65 322.75C425.96 318.57 428.32 314.9 430.46 311.11C432.629 307.544 433.994 303.548 434.46 299.4C434.656 295.67 434.404 291.93 433.71 288.26C433.05 283.99 432.25 279.66 432.46 275.33C432.721 271.032 434.081 266.872 436.41 263.25C440.51 256.74 448.47 252.74 449.84 244.65C450.5 240.73 449.66 236.75 449.47 232.83C449.21 227.39 451 222.43 453.63 217.75C453.8 217.46 453.31 216.99 453.09 217.3L453.11 217.31Z" fill="#37474F"/>
<path d="M454.42 226.25C454.76 224.67 452.42 219.62 451.83 219.48C451.24 219.34 447.33 222.93 446.96 224.61C446.918 224.945 446.966 225.285 447.097 225.596C447.229 225.906 447.44 226.177 447.71 226.38C448.437 226.972 449.292 227.384 450.207 227.586C451.122 227.787 452.072 227.772 452.98 227.54C453.312 227.47 453.619 227.314 453.872 227.087C454.125 226.861 454.314 226.572 454.42 226.25V226.25Z" fill="#92E3A9"/>
<path opacity="0.1" d="M454.42 226.25C454.76 224.67 452.42 219.62 451.83 219.48C451.24 219.34 447.33 222.93 446.96 224.61C446.918 224.945 446.966 225.285 447.097 225.596C447.229 225.906 447.44 226.177 447.71 226.38C448.437 226.972 449.292 227.384 450.207 227.586C451.122 227.787 452.072 227.772 452.98 227.54C453.312 227.47 453.619 227.314 453.872 227.087C454.125 226.861 454.314 226.572 454.42 226.25V226.25Z" fill="black"/>
<path d="M479.92 196C477.27 208.07 464.44 221.24 451.42 221.4C439.72 215.17 433.54 198.46 436.2 186.4C438.86 174.34 449.11 164.76 463.2 167.86C477.29 170.96 482.58 183.87 479.92 196Z" fill="#92E3A9"/>
<path opacity="0.05" d="M435.75 192.85C435.75 192.85 436.46 205.15 450.59 209.23C464.21 213.16 478.79 200.46 480.59 190.32C480.558 192.214 480.337 194.1 479.93 195.95C477.28 208.02 464.45 221.19 451.43 221.35C441.73 216.19 435.84 203.83 435.61 192.87L435.75 192.85Z" fill="black"/>
<path d="M304.32 43.59C299.65 43.13 293.32 50.93 297.9 54.68C300.44 56.76 305.97 55.86 305.9 51.97C305.889 51.8622 305.843 51.7609 305.769 51.6815C305.695 51.6021 305.597 51.549 305.49 51.53C301.82 50.69 298.18 52.27 298.8 56.53C299.133 58.3665 300.078 60.0358 301.482 61.2654C302.886 62.4951 304.666 63.2123 306.53 63.3C306.75 63.3 306.67 62.92 306.53 62.88C303.33 62.21 300.31 60.22 299.68 56.8C299.538 56.1948 299.526 55.5662 299.645 54.9559C299.764 54.3456 300.011 53.7676 300.37 53.26C300.798 52.746 301.363 52.3644 302 52.16C302.55 51.99 304.52 51.68 305 52.16C305.86 53.05 303.52 54.56 302.82 54.8C302.129 55.0481 301.392 55.1408 300.66 55.0717C299.929 55.0026 299.222 54.7733 298.59 54.4C296.65 53.04 297.13 50.48 298.07 48.67C299.34 46.22 301.56 44.23 304.42 44.13C304.68 44.13 304.54 43.64 304.34 43.62L304.32 43.59Z" fill="#92E3A9"/>
<path d="M305.87 197.23C307.34 193.92 307.18 190.49 311.46 189.4C313.34 188.92 317.79 188.48 319.2 190.15C319.457 190.553 319.561 191.035 319.493 191.509C319.425 191.982 319.19 192.415 318.83 192.73C317.72 193.73 316.89 192.53 316.6 191.47C316.377 190.491 316.463 189.467 316.846 188.54C317.229 187.612 317.891 186.826 318.74 186.29C320.536 185.107 322.709 184.64 324.833 184.981C326.956 185.321 328.874 186.445 330.21 188.13C330.37 188.33 330.54 188.13 330.47 187.91C327.19 180.36 311.47 185.61 316.47 192.85C318 195.04 320.7 193.11 320.19 190.79C319.63 188.22 315.25 188.35 313.31 188.48C311.344 188.481 309.448 189.212 307.99 190.53C306.28 192.21 306.05 194.87 305.69 197.13C305.69 197.23 305.78 197.38 305.85 197.23H305.87Z" fill="#92E3A9"/>
<path d="M418 34.8801C421.07 33.9801 425.29 34.2301 427.86 36.3001C429.86 37.9001 430.98 41.3701 428.05 42.5601C426.9 43.0201 423.11 43.0201 422.66 41.4601C422.34 40.3701 423.51 39.7201 424.45 39.5801C427.2 39.1501 429.78 42.0501 429.71 44.6401C429.62 48.5301 425.09 49.8201 421.89 49.8501C421.68 49.8501 421.73 50.2501 421.89 50.2601C427.34 50.7901 433.42 45.7401 428.57 40.6801C427.27 39.3201 425.23 38.3501 423.35 39.1001C422.29 39.5301 421.45 40.4901 421.98 41.6401C422.83 43.4901 426.25 43.8101 427.91 43.3401C428.35 43.223 428.761 43.0169 429.119 42.7345C429.476 42.4521 429.772 42.0995 429.987 41.6983C430.203 41.2972 430.334 40.8561 430.372 40.4023C430.41 39.9485 430.355 39.4917 430.21 39.0601C428.87 34.1401 421.98 33.0601 417.9 34.5901C417.78 34.5901 417.83 34.9201 417.97 34.8801H418Z" fill="#92E3A9"/>
<path d="M458.23 241.31C461.3 240.41 465.52 240.66 468.09 242.73C470.09 244.33 471.21 247.8 468.28 248.99C467.13 249.45 463.34 249.45 462.89 247.88C462.57 246.8 463.74 246.15 464.67 246C467.43 245.58 470 248.48 469.94 251.07C469.85 254.96 465.32 256.25 462.12 256.28C461.91 256.28 461.96 256.68 462.12 256.69C467.57 257.22 473.65 252.17 468.8 247.11C467.5 245.75 465.46 244.78 463.58 245.53C462.52 245.95 461.68 246.92 462.21 248.07C463.06 249.92 466.48 250.24 468.14 249.76C468.58 249.645 468.993 249.441 469.351 249.16C469.709 248.879 470.005 248.527 470.221 248.126C470.437 247.726 470.567 247.285 470.605 246.831C470.643 246.377 470.587 245.921 470.44 245.49C469.1 240.56 462.21 239.49 458.13 241.02C458.01 241.02 458.05 241.35 458.2 241.31H458.23Z" fill="#92E3A9"/>
<path d="M435.73 91.7901C432.07 92.8801 428.67 99.32 432.07 102.25C434.96 104.74 440.8 104.18 439.83 99.4301C439.821 99.3759 439.798 99.3252 439.763 99.283C439.727 99.2408 439.682 99.2088 439.63 99.1901C435.79 98.2701 434.52 102.75 435.33 105.71C436.58 110.31 441.22 110.25 444.57 107.85C444.68 107.77 444.63 107.45 444.47 107.53C441.73 108.9 437.89 110.12 436.22 106.62C435.33 104.75 435.3 101.62 437.02 100.21C437.467 99.7926 438.058 99.5634 438.67 99.57C439.95 99.72 439.73 101.1 439.01 101.98C437.86 103.38 435.55 103.23 434.01 102.69C428.74 100.82 432.36 93.99 435.8 92.07C435.9 92.01 435.88 91.7501 435.73 91.7901V91.7901Z" fill="#92E3A9"/>
<path d="M354.34 75.7001C350.02 75.1501 340.73 78.7901 343.15 84.7001C344.44 87.8501 350.2 89.8701 352.09 86.2601C352.131 86.1618 352.131 86.0515 352.092 85.9526C352.053 85.8537 351.977 85.7739 351.88 85.7301C342.88 80.6301 333.4 95.3601 342.95 100.73C343.25 100.9 343.24 100.39 343.07 100.26C342.246 99.696 341.543 98.9731 341.001 98.134C340.46 97.2948 340.092 96.3561 339.918 95.3728C339.743 94.3894 339.767 93.3813 339.987 92.4072C340.208 91.4332 340.62 90.5129 341.2 89.7001C342.173 88.1467 343.558 86.8936 345.2 86.0801C346.43 85.5001 349.52 84.6801 350.67 85.8801C351.19 86.4401 351.18 85.7401 350.91 86.3901C350.653 86.7762 350.261 87.0512 349.81 87.1601C348.828 87.4719 347.769 87.4366 346.81 87.0601C344.81 86.3601 343.24 84.5201 343.81 82.3101C344.86 77.8801 350.5 76.3101 354.45 76.2401C354.72 76.2401 354.55 75.7301 354.34 75.7001Z" fill="#92E3A9"/>
<path d="M374 35.8301C374 35.8301 373.74 40.6701 377.33 43.3601L381.09 42.2101C381.09 42.2101 378.58 41.0101 377.33 35.8301H374Z" fill="#455A64"/>
<path d="M310.66 153C310.66 153 310.39 157.84 313.98 160.53L317.75 159.38C317.75 159.38 315.23 158.18 313.98 153H310.66Z" fill="#455A64"/>
<path d="M341.4 207.54C341.4 207.54 341.13 212.37 344.73 215.06L348.49 213.92C348.49 213.92 345.98 212.71 344.73 207.54H341.4Z" fill="#37474F"/>
<path d="M459.26 60.08C459.26 60.08 457.06 64.4 452.61 64.93L449.92 62.05C449.92 62.05 452.7 62.27 456.38 58.42L459.26 60.08Z" fill="#455A64"/>
<path d="M433.47 214.54C433.47 214.54 431.28 218.86 426.82 219.38L424.13 216.51C424.13 216.51 426.92 216.72 430.59 212.87L433.47 214.54Z" fill="#455A64"/>
<path d="M371.92 123.81C371.92 123.81 369.73 128.13 365.27 128.65L362.58 125.78C362.58 125.78 365.37 125.99 369.04 122.14L371.92 123.81Z" fill="#92E3A9"/>
<path d="M331.91 70.5001C331.91 70.5001 329.72 74.8201 325.27 75.3501L322.58 72.4701C322.58 72.4701 325.36 72.6901 329.04 68.8401L331.91 70.5001Z" fill="#455A64"/>
<path d="M415 77.0001C415 77.0001 410.19 77.6001 407.26 74.1901L408.15 70.3601C408.15 70.3601 409.52 72.7901 414.77 73.6801L415 77.0001Z" fill="#92E3A9"/>
<path d="M345.26 53.39C345.26 53.39 340.46 53.99 337.53 50.59L338.41 46.76C338.41 46.76 339.79 49.18 345.04 50.08L345.26 53.39Z" fill="#92E3A9"/>
<path d="M264.39 42.89C264.39 42.89 259.59 43.49 256.66 40.09L257.54 36.26C257.54 36.26 258.92 38.68 264.16 39.58L264.39 42.89Z" fill="#92E3A9"/>
<path d="M321.93 107.41C321.93 107.41 317.13 108 314.2 104.6L315.08 100.77C315.08 100.77 316.46 103.2 321.71 104.09L321.93 107.41Z" fill="#92E3A9"/>
<path d="M465.82 143.22C465.82 143.22 461.01 143.81 458.09 140.41L458.97 136.58C458.97 136.58 460.35 139.01 465.59 139.9L465.82 143.22Z" fill="#92E3A9"/>
<path d="M382.07 94.75C382.07 94.75 379.88 99.07 375.42 99.6L372.73 96.72C372.73 96.72 376.02 97.23 379.73 93.38L382.07 94.75Z" fill="#455A64"/>
<path d="M386.91 101.13C386.91 101.13 386.05 105.9 381.91 107.68L378.51 105.68C380.916 104.595 382.915 102.774 384.22 100.48L386.91 101.13Z" fill="#37474F"/>
<path d="M217.89 39.8501C222.57 39.3901 228.89 47.1801 224.31 50.9301C221.78 53.0201 216.24 52.1101 216.31 48.2201C216.323 48.114 216.37 48.015 216.444 47.9376C216.518 47.8602 216.615 47.8085 216.72 47.7901C220.4 46.9501 224.03 48.5201 223.41 52.7901C223.079 54.6246 222.135 56.2925 220.732 57.5205C219.33 58.7486 217.552 59.4642 215.69 59.5501C215.46 59.5501 215.54 59.1701 215.69 59.1401C218.89 58.4601 221.91 56.4701 222.53 53.0501C222.675 52.4466 222.688 51.8191 222.569 51.21C222.45 50.601 222.201 50.0247 221.84 49.5201C221.408 48.9883 220.826 48.5982 220.17 48.4001C219.63 48.2301 217.65 47.9201 217.22 48.4001C216.35 49.3001 218.7 50.8001 219.4 51.0401C220.089 51.2915 220.825 51.386 221.555 51.3168C222.285 51.2476 222.991 51.0164 223.62 50.6401C225.56 49.2901 225.08 46.7301 224.14 44.9101C222.88 42.4701 220.65 40.4701 217.79 40.3801C217.54 40.3801 217.67 39.8901 217.87 39.8701L217.89 39.8501Z" fill="#92E3A9"/>
<path d="M210.39 203.77C208.92 200.46 209.07 197.03 204.8 195.93C202.92 195.45 198.47 195.01 197.05 196.69C196.796 197.092 196.693 197.572 196.761 198.043C196.829 198.514 197.063 198.946 197.42 199.26C198.54 200.26 199.42 199.06 199.66 198.01C199.884 197.03 199.798 196.004 199.415 195.075C199.032 194.145 198.37 193.358 197.52 192.82C195.719 191.624 193.533 191.15 191.398 191.493C189.263 191.836 187.336 192.97 186 194.67C185.85 194.86 185.68 194.67 185.75 194.45C189.03 186.9 204.75 192.15 199.75 199.39C198.22 201.58 195.51 199.64 196.02 197.33C196.59 194.76 201.02 194.89 202.9 195.01C204.868 195.014 206.766 195.744 208.23 197.06C209.94 198.75 210.17 201.41 210.53 203.66C210.53 203.77 210.44 203.91 210.37 203.77H210.39Z" fill="#92E3A9"/>
<path d="M87.5 34.8801C84.43 33.9801 80.21 34.2301 77.63 36.3001C75.63 37.9001 74.5199 41.3701 77.4499 42.5601C78.5999 43.0201 82.3899 43.0201 82.8399 41.4601C83.1599 40.3701 81.99 39.7201 81.05 39.5801C78.3 39.1501 75.72 42.0501 75.78 44.6401C75.88 48.5301 80.41 49.8201 83.61 49.8501C83.82 49.8501 83.77 50.2501 83.61 50.2601C78.16 50.7901 72.08 45.7401 76.92 40.6801C78.23 39.3201 80.27 38.3501 82.15 39.1001C83.21 39.5301 84.0499 40.4901 83.5199 41.6401C82.6699 43.4901 79.2499 43.8101 77.5899 43.3401C77.1499 43.223 76.7385 43.0169 76.3812 42.7345C76.0239 42.4521 75.7284 42.0995 75.5128 41.6983C75.2972 41.2972 75.1662 40.8561 75.1279 40.4023C75.0896 39.9485 75.1447 39.4917 75.29 39.0601C76.63 34.1401 83.51 33.0601 87.6 34.5901C87.72 34.5901 87.67 34.9201 87.53 34.8801H87.5Z" fill="#92E3A9"/>
<path d="M51.79 237.61C48.72 236.71 44.5 236.96 41.92 239.03C39.92 240.63 38.8 244.1 41.74 245.29C42.89 245.75 46.67 245.75 47.13 244.19C47.44 243.1 46.27 242.45 45.34 242.31C42.58 241.88 40.01 244.78 40.07 247.37C40.16 251.26 44.69 252.55 47.89 252.58C48.11 252.58 48.05 252.98 47.89 253C42.44 253.52 36.36 248.47 41.2 243.41C42.51 242.05 44.54 241.08 46.42 241.83C47.49 242.26 48.33 243.22 47.8 244.37C46.95 246.22 43.52 246.54 41.86 246.07C41.4201 245.953 41.0088 245.747 40.6519 245.465C40.2949 245.182 39.9999 244.829 39.7851 244.428C39.5704 244.026 39.4404 243.585 39.4034 243.131C39.3664 242.678 39.4231 242.221 39.57 241.79C40.9 236.87 47.79 235.84 51.88 237.32C52 237.32 51.95 237.65 51.81 237.61H51.79Z" fill="#92E3A9"/>
<path d="M59.66 93.64C63.32 94.73 66.72 101.17 63.32 104.1C60.43 106.6 54.59 106.03 55.56 101.28C55.571 101.227 55.5949 101.177 55.6298 101.135C55.6647 101.093 55.7095 101.06 55.76 101.04C59.6 100.13 60.87 104.61 60.06 107.57C58.81 112.16 54.17 112.11 50.82 109.7C50.71 109.62 50.76 109.31 50.92 109.39C53.66 110.76 57.5 111.97 59.17 108.47C60.06 106.6 60.09 103.47 58.37 102.07C57.9238 101.65 57.3331 101.417 56.72 101.42C55.44 101.57 55.66 102.96 56.38 103.83C57.53 105.23 59.84 105.08 61.38 104.54C66.65 102.68 63.03 95.84 59.59 93.92C59.49 93.86 59.51 93.6 59.66 93.64V93.64Z" fill="#92E3A9"/>
<path d="M71.29 175.54C65.06 176.04 66.18 187.87 71.21 189.47C71.5191 189.581 71.8471 189.629 72.175 189.612C72.5029 189.594 72.8241 189.512 73.12 189.37C73.489 189.099 73.7852 188.74 73.9824 188.327C74.1795 187.913 74.2714 187.458 74.25 187C73.65 185 70.25 187.54 69.86 188.33C69.2125 189.371 68.9104 190.59 68.9966 191.813C69.0828 193.036 69.5529 194.2 70.34 195.14C72.9 197.91 77.8 198 81 196.4C81.16 196.31 81.19 196.62 81.08 196.7C77.63 198.91 71.85 198.59 69.29 195.09C67.29 192.29 68.66 184.86 73.12 185.52C77.28 186.13 74.4 190.87 71.25 190.24C68.1 189.61 66.96 185.43 66.66 182.84C66.28 179.58 67.25 175.18 71.29 175.25C71.42 175.25 71.41 175.53 71.29 175.54V175.54Z" fill="#92E3A9"/>
<path d="M149.53 75.7001C153.85 75.1501 163.14 78.7901 160.72 84.7001C159.43 87.8501 153.67 89.8701 151.78 86.2601C151.739 86.1618 151.739 86.0515 151.778 85.9526C151.817 85.8537 151.893 85.7739 151.99 85.7301C160.99 80.6301 170.47 95.3601 160.92 100.73C160.62 100.9 160.63 100.39 160.8 100.26C161.625 99.6959 162.33 98.9726 162.872 98.1326C163.414 97.2926 163.783 96.3528 163.957 95.3683C164.132 94.3838 164.107 93.3744 163.886 92.3993C163.665 91.4243 163.252 90.5032 162.67 89.6901C161.697 88.1367 160.312 86.8836 158.67 86.0701C157.44 85.4901 154.35 84.6701 153.2 85.8701C152.68 86.4301 152.69 85.7301 152.96 86.3801C153.217 86.7662 153.609 87.0412 154.06 87.1501C155.042 87.4619 156.101 87.4266 157.06 87.0501C159.06 86.3501 160.63 84.5101 160.06 82.3001C159.01 77.8701 153.37 76.3001 149.42 76.2301C149.15 76.2301 149.32 75.7201 149.53 75.6901V75.7001Z" fill="#92E3A9"/>
<path d="M132 44.63C132 44.63 132.27 49.47 128.67 52.16L124.91 51C124.91 51 127.42 49.8 128.67 44.62L132 44.63Z" fill="#455A64"/>
<path d="M209.71 164.41C209.71 164.41 209.98 169.25 206.38 171.94L202.62 170.8C202.62 170.8 205.13 169.59 206.38 164.41H209.71Z" fill="#455A64"/>
<path d="M194.85 222.26C194.85 222.26 195.11 227.1 191.52 229.79L187.76 228.64C187.76 228.64 190.27 227.44 191.52 222.26H194.85Z" fill="#37474F"/>
<path d="M44.61 60.08C44.61 60.08 46.81 64.4 51.26 64.93L54 62.05C54 62.05 51.22 62.27 47.54 58.42L44.61 60.08Z" fill="#455A64"/>
<path d="M91.13 209.27C91.13 209.27 93.32 213.59 97.78 214.12L100.47 211.24C100.47 211.24 97.68 211.46 94.01 207.61L91.13 209.27Z" fill="#455A64"/>
<path d="M138.49 129.41C138.49 129.41 140.68 133.73 145.14 134.26L147.82 131.38C147.82 131.38 145.04 131.6 141.37 127.75L138.49 129.41Z" fill="#92E3A9"/>
<path d="M182 72.8701C182 72.8701 184.19 77.1901 188.65 77.7201L191.33 74.8401C191.33 74.8401 188.55 75.0601 184.88 71.2101L182 72.8701Z" fill="#455A64"/>
<path d="M88.86 77.0001C88.86 77.0001 93.67 77.6001 96.6 74.1901L95.71 70.3601C95.71 70.3601 94.34 72.7901 89.09 73.6801L88.86 77.0001Z" fill="#92E3A9"/>
<path d="M171 39.55C171 39.55 175.81 40.15 178.74 36.75L177.86 32.92C177.86 32.92 176.48 35.34 171.23 36.24L171 39.55Z" fill="#92E3A9"/>
<path d="M181.91 103.37C181.91 103.37 186.71 103.96 189.64 100.56L188.76 96.7301C188.76 96.7301 187.38 99.1601 182.13 100.05L181.91 103.37Z" fill="#92E3A9"/>
<path d="M26 198.46C26 198.46 30.81 199.06 33.74 195.66L32.86 191.82C32.86 191.82 31.48 194.25 26.23 195.14L26 198.46Z" fill="#92E3A9"/>
<path d="M121.8 94.75C121.8 94.75 123.99 99.07 128.45 99.6L131.14 96.72C131.14 96.72 127.85 97.23 124.14 93.38L121.8 94.75Z" fill="#455A64"/>
<path d="M117 101.13C117 101.13 117.86 105.9 122 107.68L125.4 105.68C122.994 104.595 120.995 102.774 119.69 100.48L117 101.13Z" fill="#37474F"/>
<path d="M274.88 76.24C274.88 76.24 272.69 80.56 268.23 81.09L265.54 78.22C265.54 78.22 268.83 78.72 272.54 74.87L274.88 76.24Z" fill="#455A64"/>
<path d="M253.32 71.06C253.32 71.06 252.46 75.83 248.32 77.62L244.92 75.62C247.328 74.5332 249.328 72.7085 250.63 70.41L253.32 71.06Z" fill="#37474F"/>
<path d="M380.52 308.28C380.623 311.705 381.025 315.115 381.72 318.47C383.38 339.37 385.55 344.28 388.05 358.75C388.32 360.37 388.97 363.58 389.05 364.65C389.17 366 389.79 376.21 390.34 379.25C391.13 383.71 398.54 383.82 399.11 378.64C399.49 375.19 398.57 366.09 398.5 364.43C398.5 364.43 398.5 361.49 398.5 360.06C398.5 353.56 399.57 341.06 400.19 329.77C400.66 321.26 398.9 317.03 397.85 312.77C397.85 312.77 399.99 298.98 402.59 283.77C405.19 268.56 411.52 251.14 398.86 237.36L381.39 243.36C381.39 243.36 379.6 271.28 380.28 293.98C380.42 300.46 380.53 305.11 380.52 308.28Z" fill="#FFBDA7"/>
<path d="M372.41 332.9C375.1 336.47 376.82 340.8 378.59 344.9C377.815 347.047 376.78 349.093 375.51 350.99L368.37 341.68C369.76 338.75 371.08 335.82 372.41 332.9Z" fill="#263238"/>
<path d="M375.51 351C372.34 351 369.16 351 365.98 351C364.39 348.95 362.78 346.92 361.2 344.87C364.52 344.97 367.84 345.17 371.2 345.26L375.51 351Z" fill="black"/>
<path d="M364 328.89C366 327.42 366.18 329.17 367.9 329.97C369.1 330.53 371.1 331.28 372.27 332.88C373.91 335.12 372.62 339.11 371.82 341.98C371.056 344.773 371.087 347.724 371.91 350.5C372.86 354.64 372.77 358.02 369.6 361.64C367.07 364.54 359.04 368.06 356.28 366.27C351.57 363.27 358.48 356.55 358.38 352.55C358.262 347.456 357.591 342.39 356.38 337.44C356.2 336.65 356.11 335.81 356.59 335.44C358.74 333.51 362 330.36 364 328.89Z" fill="#37474F"/>
<path d="M367.53 237.34C363.68 241.89 345.1 264.95 340.26 272.84C337.08 278.02 339.26 284.84 341.02 290.54C343.31 298.15 346.57 306.85 348.48 312.46C352.05 322.92 354.69 328.46 357.56 337.52C359.22 339.25 362.19 337.76 363.83 336.6C365.24 335.6 366.75 332.06 366.57 330.28C366.05 325.12 366.12 324.28 365.46 318.28C364.46 308.7 364.64 293.74 358.13 285.09C367.88 274.28 378.57 266.69 385.68 254.04C378 249.9 373.14 230.71 367.53 237.34Z" fill="#FFBDA7"/>
<path d="M388.86 363.32C387.65 363.47 387.59 364.44 387.55 369.16C387.617 374.202 387.309 379.243 386.63 384.24C385.75 389.55 384.82 395.24 389.15 399.94C391.69 402.71 395.86 403.36 398.8 398.88C401.54 394.71 403.27 390.76 401.94 386.02C400.713 381.966 400.007 377.772 399.84 373.54C399.63 366.95 400 363.43 398.5 363.44V364.44C398.01 365.31 396.5 366.44 393.84 366.55C390.84 366.67 389.49 365.55 389.05 364.66C389 364.21 388.93 363.77 388.86 363.32Z" fill="#37474F"/>
<path d="M368.05 233C366.13 236.63 359.56 244.26 351.88 254.75C346.57 262.01 337.26 273.03 336.77 278.44C336.28 283.85 349.34 316.27 349.34 316.27C349.34 316.27 360.23 317.55 365.15 312.06C365.32 302.99 364.15 291.97 359.33 285.56C361.47 283.39 376.96 267.26 379.78 263.89C379.78 263.89 379.32 279.77 379.29 288.77C379.26 297.77 380.29 315.77 381.07 321.53C381.85 327.29 382.9 335.84 383.35 338.53C383.35 338.53 390.08 344.75 400.35 338.32C400.35 338.32 401.35 329.24 401.03 325.23C400.71 321.22 399.34 316.38 398.52 312.92C398.52 312.92 402.52 288.48 404.47 277.65C406.42 266.82 410.12 250.26 400.33 234.37C400.37 234.36 381.86 240.44 368.05 233Z" fill="#455A64"/>
<path d="M379.78 263.87C379.78 263.87 373.57 259.93 371 255.37C371 255.37 372.35 260.79 376 263.87L365 279.65L379.78 263.87Z" fill="#37474F"/>
<path d="M343.11 166.55C350.81 184.07 361.23 190.18 366.11 201.42C372.27 200.93 380.73 190.67 376.06 184.36C370.79 182.21 353.61 163.96 352.53 156.19C351.58 149.29 347.73 138.58 347.83 132.83C347.87 131.872 348.254 130.959 348.91 130.26C350.78 128.2 350.76 126.57 351.91 124.26C352.83 122.5 353.86 121.83 353.56 121.44C353.167 121.027 352.632 120.777 352.062 120.742C351.493 120.707 350.931 120.888 350.49 121.25C349.618 121.888 348.843 122.649 348.19 123.51C348.483 121.36 349.079 119.263 349.96 117.28C351.96 112.52 351.46 110.11 345.09 111.87C341.09 112.98 338.62 116.34 338.14 125.98C337.911 129.977 337.934 133.985 338.21 137.98C339 145.38 339.84 152.47 340.83 158.59C341.246 161.33 342.012 164.005 343.11 166.55V166.55Z" fill="#FFBDA7"/>
<path d="M367.32 228.09C366.77 225.51 366.12 220.64 365.73 217.09C359.24 211.01 361.06 204.38 363.42 199.5C368.14 189.74 372.71 184.2 376.98 184.36L388.68 185.23C395.06 185.98 399.43 186.71 400.97 187.04C404.91 187.9 404.79 190.76 404.97 194.93C405.456 199.225 405.311 203.567 404.54 207.82L399.16 219.45L398.68 226.61C398.68 226.61 405.2 239.7 406.38 248.2C403.119 247.258 400.208 245.376 398.01 242.79C398.01 242.79 392.94 250.44 380.36 251.07C367.78 251.7 361.56 240.52 361.56 240.52L367.32 228.09Z" fill="#92E3A9"/>
<path opacity="0.1" d="M392.47 213.52C391.547 215.306 390.127 216.787 388.381 217.785C386.635 218.782 384.638 219.253 382.63 219.14C380.693 219.096 378.801 218.542 377.147 217.532C375.493 216.522 374.135 215.093 373.21 213.39C373.21 213.39 373.58 221.07 382.65 220.98C391.72 220.89 392.47 213.52 392.47 213.52Z" fill="black"/>
<path d="M395.37 141.32C399.65 143.53 401.84 146.19 405.37 147.17C408.9 148.15 411.75 147.1 414.37 144.92C417.37 142.45 418.79 139.33 421.9 137.41C425.01 135.49 428.9 134.3 432.35 135.48C436.67 136.95 439.07 141.58 440.19 146C441.57 151.49 441.05 157.67 437.94 162.48C432.286 171.021 423.842 177.334 414.05 180.34C402.023 184.004 389.042 182.838 377.86 177.09C373.26 174.73 371.78 172.68 368.45 168.85C365.12 165.02 363.88 160.34 364.92 154.14C365.92 148.21 369.08 144.39 375.13 141.22C378.239 139.53 381.724 138.653 385.263 138.671C388.801 138.688 392.278 139.599 395.37 141.32Z" fill="#92E3A9"/>
<path opacity="0.5" d="M395.37 141.32C399.65 143.53 401.84 146.19 405.37 147.17C408.9 148.15 411.75 147.1 414.37 144.92C417.37 142.45 418.79 139.33 421.9 137.41C425.01 135.49 428.9 134.3 432.35 135.48C436.67 136.95 439.07 141.58 440.19 146C441.57 151.49 441.05 157.67 437.94 162.48C432.286 171.021 423.842 177.334 414.05 180.34C402.023 184.004 389.042 182.838 377.86 177.09C373.26 174.73 371.78 172.68 368.45 168.85C365.12 165.02 363.88 160.34 364.92 154.14C365.92 148.21 369.08 144.39 375.13 141.22C378.239 139.53 381.724 138.653 385.263 138.671C388.801 138.688 392.278 139.599 395.37 141.32Z" fill="black"/>
<path d="M373.53 148.8C371.31 150.04 368.53 155.47 368.47 167.01C368.47 176.78 371.57 179.27 373.14 180.01C374.71 180.75 377.79 180.39 380.78 180.01L380.64 185.88C380.64 185.88 372.19 194.69 379.02 195.72C382.43 196.24 386.8 194.18 389.76 191.95C391.665 190.383 393.041 188.267 393.7 185.89L393.94 173.13C393.94 173.13 395.65 174.88 398.69 172.35C401.2 170.26 402.11 166.66 400.24 164.67C399.754 164.197 399.163 163.845 398.515 163.645C397.867 163.445 397.181 163.402 396.513 163.519C395.845 163.636 395.214 163.911 394.673 164.319C394.132 164.728 393.696 165.259 393.4 165.87C393.4 165.87 391.65 165.97 389.98 162.68C387.043 162.931 384.106 162.199 381.63 160.6C379.555 159.28 377.768 157.554 376.376 155.526C374.985 153.498 374.017 151.211 373.53 148.8V148.8Z" fill="#FFBDA7"/>
<path d="M381.16 164.24C381.132 164.57 381.235 164.897 381.446 165.151C381.658 165.406 381.961 165.567 382.29 165.6C382.624 165.616 382.95 165.501 383.199 165.278C383.448 165.055 383.599 164.743 383.62 164.41C383.631 164.248 383.61 164.086 383.559 163.933C383.507 163.779 383.426 163.637 383.32 163.515C383.214 163.393 383.084 163.293 382.939 163.221C382.794 163.149 382.637 163.106 382.475 163.095C382.313 163.084 382.151 163.105 381.998 163.156C381.844 163.208 381.702 163.289 381.58 163.395C381.458 163.501 381.358 163.631 381.286 163.776C381.214 163.921 381.171 164.078 381.16 164.24V164.24Z" fill="#263238"/>
<g style="mix-blend-mode:multiply" opacity="0.5">
<g style="mix-blend-mode:multiply" opacity="0.5">
<path d="M379.44 172.38L375.58 173.51C375.646 173.766 375.763 174.007 375.923 174.218C376.082 174.429 376.283 174.606 376.511 174.739C376.74 174.872 376.993 174.958 377.256 174.993C377.518 175.027 377.785 175.009 378.04 174.94C378.56 174.778 378.996 174.42 379.257 173.943C379.518 173.465 379.584 172.905 379.44 172.38V172.38Z" fill="#F0997A"/>
</g>
</g>
<path d="M370.15 160.15L372.68 158.49C372.581 158.318 372.447 158.169 372.288 158.051C372.129 157.933 371.947 157.849 371.754 157.804C371.561 157.759 371.361 157.754 371.166 157.789C370.971 157.825 370.785 157.9 370.62 158.01C370.282 158.238 370.045 158.588 369.958 158.986C369.87 159.384 369.939 159.801 370.15 160.15Z" fill="#263238"/>
<path d="M383 160L385.8 161.16C385.89 160.98 385.942 160.782 385.952 160.581C385.961 160.379 385.929 160.178 385.857 159.99C385.784 159.802 385.673 159.631 385.531 159.488C385.389 159.345 385.218 159.233 385.03 159.16C384.649 159.012 384.225 159.016 383.847 159.173C383.468 159.329 383.165 159.626 383 160Z" fill="#263238"/>
<path d="M370.74 163.72C370.733 163.961 370.797 164.199 370.923 164.403C371.05 164.608 371.234 164.772 371.453 164.873C371.672 164.974 371.915 165.009 372.153 164.973C372.392 164.937 372.614 164.832 372.793 164.67C372.972 164.509 373.1 164.298 373.16 164.065C373.221 163.832 373.211 163.586 373.133 163.358C373.055 163.13 372.912 162.93 372.721 162.783C372.53 162.636 372.3 162.548 372.06 162.53C371.895 162.521 371.73 162.544 371.574 162.599C371.418 162.654 371.274 162.739 371.152 162.85C371.029 162.96 370.929 163.094 370.859 163.244C370.788 163.393 370.748 163.555 370.74 163.72Z" fill="#263238"/>
<g style="mix-blend-mode:multiply" opacity="0.5">
<g style="mix-blend-mode:multiply" opacity="0.5">
<path d="M376.65 163.16L376.28 170.55L372.42 169.25L376.65 163.16Z" fill="#F0997A"/>
</g>
</g>
<g style="mix-blend-mode:multiply" opacity="0.5">
<g style="mix-blend-mode:multiply" opacity="0.5">
<path d="M380.78 180C383.94 179.67 390.44 178 391.51 175.43C391.079 176.715 390.262 177.836 389.17 178.64C387.17 180.25 380.74 181.96 380.74 181.96L380.78 180Z" fill="#F0997A"/>
</g>
</g>
<path d="M393.4 165.82L393.28 170.95C392.821 170.94 392.368 170.839 391.948 170.653C391.528 170.467 391.149 170.201 390.832 169.868C390.515 169.535 390.267 169.144 390.102 168.715C389.937 168.286 389.858 167.829 389.87 167.37L389.98 162.63L393.4 165.82Z" fill="#92E3A9"/>
<path opacity="0.5" d="M393.4 165.82L393.28 170.95C392.821 170.94 392.368 170.839 391.948 170.653C391.528 170.467 391.149 170.201 390.832 169.868C390.515 169.535 390.267 169.144 390.102 168.715C389.937 168.286 389.858 167.829 389.87 167.37L389.98 162.63L393.4 165.82Z" fill="black"/>
<path d="M426.73 168C419.46 185.7 410.46 196.54 404.59 207.86C394.59 208.45 393.68 193 398.19 186.58C398.19 186.58 415.57 165.58 417.11 157.87C418.47 151.04 421.49 140.15 421.24 134.4C421.185 133.442 420.78 132.538 420.1 131.86C418.19 129.86 418.17 128.21 416.92 125.97C415.92 124.23 414.92 123.59 415.2 123.19C415.584 122.766 416.114 122.504 416.684 122.456C417.254 122.407 417.82 122.577 418.27 122.93C419.155 123.546 419.947 124.287 420.62 125.13C420.272 122.99 419.626 120.91 418.7 118.95C416.55 114.24 417.03 111.81 423.44 113.42C427.44 114.42 430.01 117.74 430.73 127.36C431.056 131.351 431.126 135.36 430.94 139.36C430.34 146.78 429.66 153.88 428.83 160.03C428.471 162.765 427.765 165.443 426.73 168Z" fill="#FFBDA7"/>
<path d="M227.48 377.23C228.21 379.17 229.3 381.1 231.48 381.82C235.96 383.31 241.78 379.46 244.19 376.59C247.11 373.11 247.55 369.4 249.69 366.51C251.83 363.62 254.85 361.79 256.31 359.29C256.911 358.355 257.266 357.284 257.341 356.175C257.416 355.067 257.209 353.957 256.74 352.95C256.052 351.698 255.008 350.678 253.74 350.02C253.41 349.82 252.83 349.8 252.47 349.6L227.48 377.23Z" fill="#263238"/>
<path d="M236.79 359C236.479 360.798 235.775 362.505 234.73 364C232.87 366.48 230.48 368.31 228.29 370.46C227.501 371.095 226.86 371.893 226.41 372.8C225.49 375.2 226.57 377.14 228.26 379.01C228.998 379.683 229.886 380.17 230.85 380.43C232.27 380.82 233.77 380.82 235.19 380.43C237.928 379.492 240.377 377.862 242.3 375.7C246.09 371.46 245.85 365.89 250.37 362.17C254.89 358.45 257.93 354.48 253.32 349.68C251.08 347.34 248.58 346.34 247.91 345.5C246.71 344.01 243.91 346.62 243.02 347.38C242.13 348.14 241.27 349.04 240.36 349.84C239.522 350.783 238.753 351.786 238.06 352.84C237.772 353.134 237.533 353.472 237.35 353.84C237.193 354.33 237.132 354.846 237.17 355.36C237.165 356.583 237.038 357.802 236.79 359V359Z" fill="#37474F"/>
<path d="M242.37 375.67C242.897 375.114 243.372 374.512 243.79 373.87C243.078 371.727 241.67 369.882 239.79 368.63C238.625 367.838 237.304 367.304 235.916 367.063C234.528 366.821 233.104 366.878 231.74 367.23C230.355 368.081 229.046 369.051 227.83 370.13C227.035 370.817 226.432 371.699 226.08 372.69C225.767 373.857 225.813 375.091 226.213 376.231C226.612 377.371 227.347 378.364 228.32 379.08C229.022 379.728 229.88 380.183 230.81 380.4C232.234 380.79 233.736 380.79 235.16 380.4C237.907 379.423 240.38 377.801 242.37 375.67V375.67Z" fill="#FAFAFA"/>
<path d="M244.74 337.92L247.44 346.19C247.44 346.19 249.51 348.9 246.25 352.04C242.99 355.18 239.34 355.04 237.77 353.13L233.12 344.35L244.74 337.92Z" fill="#C8856A"/>
<path d="M312.73 321.2C313.92 321.76 317.06 321.97 318.79 320.79C322.4 318.33 323.17 311.08 322.04 307.07C320.66 302.21 317.96 299.75 317.04 296.83C316.12 293.91 316.37 289.73 315.15 287.18C314.655 286.192 313.951 285.323 313.088 284.632C312.225 283.942 311.223 283.446 310.15 283.18C309.47 282.994 308.757 282.965 308.064 283.095C307.371 283.225 306.717 283.511 306.15 283.93L305.06 284.73L312.73 321.2Z" fill="#263238"/>
<path d="M303.55 302.84C304.831 304.163 305.774 305.775 306.3 307.54C307.22 310.44 307.3 313.54 307.69 316.54C307.772 317.545 308.033 318.527 308.46 319.44C309.56 321.55 312.07 321.94 314.57 321.62C315.567 321.404 316.5 320.963 317.3 320.33C318.456 319.42 319.338 318.209 319.85 316.83C320.708 314.043 320.839 311.082 320.23 308.23C319.32 302.81 313.87 299.23 313.94 293.89C314.01 288.55 310.88 281.64 304.16 285.18C300.821 287.041 297.786 289.402 295.16 292.18C296.76 294.58 298.4 296.97 299.97 299.39C300.275 300.003 300.662 300.571 301.12 301.08C301.81 301.69 302.71 302.02 303.4 302.68L303.55 302.84Z" fill="#37474F"/>
<path d="M320.23 308.32C320.098 307.573 319.887 306.842 319.6 306.14C317.483 305.398 315.173 305.419 313.07 306.2C311.706 306.625 310.461 307.365 309.436 308.361C308.411 309.356 307.635 310.579 307.17 311.93C307.03 313.55 307.03 315.18 307.17 316.8C307.273 317.844 307.615 318.85 308.17 319.74C309.64 321.87 312.01 322.03 314.51 321.74C315.506 321.522 316.439 321.081 317.24 320.45C318.393 319.538 319.275 318.328 319.79 316.95C320.673 314.159 320.825 311.187 320.23 308.32V308.32Z" fill="#FAFAFA"/>
<path d="M296.68 288.9L300.91 288.72C302.004 289.209 302.966 289.951 303.717 290.885C304.468 291.818 304.986 292.917 305.23 294.09C305.425 295.296 305.367 296.529 305.061 297.712C304.754 298.894 304.206 300 303.45 300.96L296.45 301.88L296.66 289.18" fill="#C8856A"/>
<path d="M297 288.36L267.79 288.65C267.79 288.65 273.09 249.46 271.34 226.52L224.46 221.13L224.32 221.42C216.63 241.89 208.51 268.59 204.09 288.71C202.73 294.91 203.43 296.6 208.25 305.71C215.02 318.49 226.54 335.59 234.79 348.57C241.31 347.99 244.79 346.01 246.29 340.62C241.17 328.69 236.84 302.95 225.29 292.03C231.74 280.53 237.79 267.32 243.95 254.63C244.14 262.71 244.95 289.2 247.76 300.11C249.5 306.96 253.3 311.05 260.88 309.84C271.44 308.15 299.34 301.9 299.34 301.9C304.94 301.1 303.54 290.63 297 288.36Z" fill="#92E3A9"/>
<path opacity="0.2" d="M297 288.36L267.79 288.65C267.79 288.65 273.09 249.46 271.34 226.52L224.46 221.13L224.32 221.42C216.63 241.89 208.51 268.59 204.09 288.71C202.73 294.91 203.43 296.6 208.25 305.71C215.02 318.49 226.54 335.59 234.79 348.57C241.31 347.99 244.79 346.01 246.29 340.62C241.17 328.69 236.84 302.95 225.29 292.03C231.74 280.53 237.79 267.32 243.95 254.63C244.14 262.71 244.95 289.2 247.76 300.11C249.5 306.96 253.3 311.05 260.88 309.84C271.44 308.15 299.34 301.9 299.34 301.9C304.94 301.1 303.54 290.63 297 288.36Z" fill="black"/>
<path opacity="0.2" d="M267.82 288.65C267.82 288.65 268.22 293.94 265.96 297.89C267.561 296.39 268.802 294.547 269.59 292.5C270.79 289.24 280.15 290.01 287.15 288.5L267.82 288.65Z" fill="black"/>
<path opacity="0.2" d="M243.94 254.65L243.48 247.27C239.482 244.98 235.931 241.985 233 238.43C235.262 242.028 238.077 245.247 241.34 247.97L242.04 253.19L231.84 279.73L243.94 254.65Z" fill="black"/>
<path opacity="0.2" d="M225.3 292C224.67 292.918 223.873 293.708 222.95 294.33C225.68 295.826 228.087 297.848 230.03 300.28C232.143 303.152 234.067 306.159 235.79 309.28C233 302.46 229.69 296.18 225.3 292Z" fill="black"/>
<path d="M207.64 142.89C209.08 146.6 226.86 172.89 231.13 179.18C243.27 174 235.19 159.73 235.19 159.73C235.19 159.73 222.43 139.08 220.36 135.6C219.872 134.713 219.566 133.737 219.46 132.73C219.2 130.89 218.3 108.31 219.4 101.49C219.606 100.279 220.25 99.1863 221.21 98.42C223.76 96.35 224.65 94.42 226.46 92C227.87 90.09 229.21 89.49 228.92 89C228.532 88.4417 227.947 88.051 227.283 87.9063C226.619 87.7615 225.925 87.8736 225.34 88.22C224.021 88.9415 222.792 89.8176 221.68 90.83C222.324 88.2095 223.388 85.7105 224.83 83.43C228.11 78.19 227.92 75.26 220.09 76.17C215.18 76.74 210.4 80.54 208.09 91.81C207.42 95.05 207.27 99.94 207.02 104.14C206.48 113.68 206.12 128.78 206.3 135.39C206.36 138.71 206.21 139.19 207.64 142.89Z" fill="#C8856A"/>
<path d="M242.88 157C238.67 156.38 224.88 141.29 224.88 141.29C221.03 141.07 211.59 150.94 213.46 154.96C219.07 164.3 226.2 172.96 228.14 178.96C229.75 182.34 234.06 179.47 235.92 172.36C238.53 162.53 246.3 157.54 242.88 157Z" fill="#92E3A9"/>
<path opacity="0.3" d="M242.88 157C238.67 156.38 224.88 141.29 224.88 141.29C221.03 141.07 211.59 150.94 213.46 154.96C219.07 164.3 226.2 172.96 228.14 178.96C229.75 182.34 234.06 179.47 235.92 172.36C238.53 162.53 246.3 157.54 242.88 157Z" fill="black"/>
<path d="M274.09 174.83L273.09 192.75L272 230.86C258.17 237.33 237.75 233.43 223.86 222.24C223.86 222.24 224.65 178.38 227.51 168.24C230.37 158.1 235.51 156.09 242.66 156.31C250.21 156.55 259.91 157.61 259.91 157.61L268.17 159.81C268.17 159.81 274.26 171.24 274.09 174.83Z" fill="#455A64"/>
<path d="M279.94 145.32C280.88 144.84 285.21 147 287.85 150.73C290.49 154.46 290.67 159.73 289.85 160.73C289.03 161.73 278.4 157 278.4 157L279.94 145.32Z" fill="#92E3A9"/>
<path opacity="0.6" d="M279.94 145.32C280.88 144.84 285.21 147 287.85 150.73C290.49 154.46 290.67 159.73 289.85 160.73C289.03 161.73 278.4 157 278.4 157L279.94 145.32Z" fill="black"/>
<path d="M297.38 148.13C295.61 151.69 275.43 176.18 270.58 182.05C258.99 175.75 268.38 162.31 268.38 162.31C268.38 162.31 283 143 285.4 139.68C285.971 138.843 286.372 137.902 286.58 136.91C287 135.09 290.03 112.7 289.58 105.81C289.488 104.588 288.951 103.442 288.07 102.59C285.73 100.28 285.02 98.29 283.45 95.69C282.22 93.69 280.95 92.94 281.28 92.45C281.72 91.932 282.339 91.5989 283.014 91.5174C283.689 91.4358 284.369 91.6117 284.92 92.01C286.168 92.8527 287.31 93.8432 288.32 94.96C287.921 92.2882 287.094 89.6983 285.87 87.29C283.1 81.77 283.57 78.86 291.28 80.5C296.11 81.5 300.52 85.78 301.79 97.21C302.15 100.5 301.84 105.38 301.69 109.58C301.33 119.14 300.27 134.2 299.47 140.77C299.05 144.09 299.16 144.58 297.38 148.13Z" fill="#C8856A"/>
<path d="M265.41 159.27L279.94 145.27C279.94 145.27 278.63 157.27 289.83 160.7L273.14 181.81C271.21 185.03 265.92 180.81 264.74 173.59C263.09 163.53 265.41 159.27 265.41 159.27Z" fill="#92E3A9"/>
<path opacity="0.3" d="M265.41 159.27L279.94 145.27C279.94 145.27 278.63 157.27 289.83 160.7L273.14 181.81C271.21 185.03 265.92 180.81 264.74 173.59C263.09 163.53 265.41 159.27 265.41 159.27Z" fill="black"/>
<path d="M257.69 125.51C257.573 128.065 256.7 130.528 255.182 132.587C253.665 134.646 251.571 136.209 249.165 137.077C246.759 137.946 244.15 138.081 241.667 137.467C239.184 136.852 236.939 135.515 235.216 133.624C233.494 131.734 232.37 129.374 231.989 126.845C231.607 124.316 231.984 121.731 233.072 119.416C234.16 117.101 235.91 115.161 238.101 113.841C240.292 112.521 242.825 111.88 245.38 112C248.803 112.163 252.021 113.677 254.328 116.21C256.636 118.743 257.845 122.087 257.69 125.51Z" fill="#263238"/>
<path d="M266.67 135.14C266.67 135.14 264.11 144.87 263.2 146.45C262.598 147.438 261.638 148.154 260.52 148.45L261 141.53L266.67 135.14Z" fill="#263238"/>
<path d="M264.71 120.92C265.445 120.869 266.182 120.987 266.865 121.264C267.548 121.541 268.158 121.971 268.65 122.52C270.29 124.37 269.07 129.84 266.65 135.14L262.65 135.4L264.71 120.92Z" fill="#263238"/>
<path d="M261.52 135.35C262.29 135.86 263.52 134.4 264.52 133.42C265.52 132.44 268.8 131.2 270.23 134.62C271.66 138.04 268.45 142.47 265.91 143.14C261.52 144.29 261.01 141.49 261.01 141.49L259.93 157.49C254.24 164.12 239.36 162.83 245.93 155.93L246.16 151.19C244.222 151.397 242.268 151.397 240.33 151.19C237.17 150.55 235.33 147.94 234.49 144.46C233.2 138.87 232.83 134.38 234.65 123.58C236.65 111.74 250.51 112.27 257.76 117.33C265.01 122.39 261.52 135.35 261.52 135.35Z" fill="#C8856A"/>
<path d="M261.46 136.68C261.86 136.68 263.46 134.27 264.51 133.42C265.94 132.24 264.71 120.92 264.71 120.92C265.225 119.953 265.437 118.853 265.319 117.764C265.202 116.674 264.759 115.645 264.05 114.81C262.28 112.67 259.79 110.03 251.27 110.63C245.19 111.06 238.52 112.63 233.33 109.78C232.751 111.489 232.699 113.332 233.18 115.07C233.662 116.809 234.655 118.363 236.03 119.53C236.03 119.53 237.89 120.87 242.92 121.72C247.565 122.283 252.251 122.417 256.92 122.12C258.39 121.98 258.64 123.42 259.25 127.34C259.82 130.79 260.12 136.59 261.46 136.68Z" fill="#263238"/>
<path d="M264.66 121.8L269.56 119.45C269.423 119.121 269.22 118.824 268.964 118.575C268.708 118.327 268.405 118.134 268.072 118.007C267.739 117.879 267.383 117.821 267.027 117.836C266.671 117.85 266.322 117.936 266 118.09C265.34 118.414 264.831 118.982 264.581 119.674C264.331 120.366 264.359 121.128 264.66 121.8V121.8Z" fill="#263238"/>
<path d="M246.13 151.24C246.13 151.24 253.29 150.15 255.83 148.95C257.322 148.255 258.572 147.131 259.42 145.72C258.978 147.154 258.25 148.484 257.28 149.63C255.36 151.86 246.05 153.13 246.05 153.13L246.13 151.24Z" fill="#AF6152"/>
<path d="M248.7 133C248.696 133.281 248.776 133.557 248.928 133.793C249.08 134.03 249.299 134.216 249.556 134.329C249.813 134.441 250.098 134.476 250.375 134.428C250.652 134.379 250.909 134.251 251.113 134.057C251.317 133.864 251.46 133.615 251.523 133.341C251.586 133.068 251.568 132.781 251.469 132.518C251.371 132.255 251.197 132.026 250.97 131.861C250.742 131.696 250.471 131.602 250.19 131.59C250 131.585 249.81 131.617 249.632 131.685C249.454 131.753 249.291 131.855 249.153 131.986C249.015 132.117 248.903 132.274 248.826 132.448C248.748 132.622 248.705 132.81 248.7 133V133Z" fill="#263238"/>
<path d="M250.46 127.68L253.46 129.5C253.697 129.093 253.769 128.61 253.659 128.152C253.549 127.693 253.266 127.295 252.87 127.04C252.672 126.915 252.451 126.832 252.219 126.797C251.988 126.761 251.752 126.774 251.525 126.834C251.299 126.894 251.088 127 250.904 127.146C250.721 127.291 250.57 127.473 250.46 127.68V127.68Z" fill="#263238"/>
<path d="M247.18 142.74L243.88 143.8C243.938 144.02 244.039 144.225 244.177 144.405C244.316 144.585 244.489 144.736 244.687 144.847C244.884 144.959 245.102 145.03 245.328 145.057C245.553 145.083 245.782 145.064 246 145C246.455 144.855 246.834 144.536 247.055 144.113C247.276 143.69 247.321 143.196 247.18 142.74V142.74Z" fill="#AF6152"/>
<path d="M236.23 128.19L239.1 126.19C238.98 125.996 238.821 125.829 238.633 125.698C238.446 125.568 238.234 125.477 238.01 125.431C237.787 125.385 237.556 125.385 237.333 125.431C237.109 125.478 236.897 125.569 236.71 125.7C236.328 125.976 236.066 126.387 235.976 126.85C235.887 127.313 235.978 127.792 236.23 128.19V128.19Z" fill="#263238"/>
<path d="M236.9 132C236.878 132.195 236.896 132.393 236.953 132.581C237.01 132.769 237.106 132.943 237.234 133.092C237.361 133.242 237.518 133.363 237.695 133.449C237.872 133.535 238.064 133.584 238.261 133.592C238.457 133.6 238.653 133.568 238.836 133.497C239.019 133.426 239.186 133.318 239.326 133.18C239.466 133.042 239.575 132.877 239.648 132.694C239.721 132.512 239.756 132.316 239.75 132.12C239.773 131.925 239.754 131.727 239.697 131.539C239.64 131.351 239.544 131.177 239.417 131.028C239.289 130.878 239.132 130.757 238.955 130.671C238.778 130.585 238.586 130.536 238.39 130.528C238.193 130.52 237.997 130.552 237.814 130.623C237.631 130.694 237.464 130.801 237.324 130.94C237.185 131.078 237.075 131.243 237.002 131.426C236.929 131.608 236.894 131.804 236.9 132Z" fill="#263238"/>
<path d="M244.21 131L243.34 139.53L238.95 137.79L244.21 131Z" fill="#AF6152"/>
<path d="M150.74 374.94L151.14 373.55C151.21 375.34 151.71 383.09 154.53 387.73C156.78 391.41 160.02 395.86 160.17 399.28C160.32 402.7 153.1 401.91 150.38 400.57C147.23 399.01 143.48 395.87 141.98 392.31C140.92 389.81 140.58 387.11 139.86 385.18C139.14 383.25 136.96 380.68 136.86 378.65C136.81 377.54 137.86 375.45 138.86 373.72C139.86 371.99 141.11 370.31 141.65 370.64C141.59 370.85 141.08 371.78 141.08 371.78C141.55 372.78 143.28 374.11 145.45 374.83C146.9 375.3 150.43 376 150.74 374.94Z" fill="#263238"/>
<path d="M86.14 348.35L87.14 348.04C86.14 349.52 82.26 356.63 81.79 362.04C81.41 366.34 81.38 371.84 79.47 374.68C77.56 377.52 72.21 372.6 70.83 369.91C69.21 366.79 68.06 362.03 68.96 358.28C69.6 355.64 70.96 353.28 71.49 351.28C72.02 349.28 71.83 345.94 72.95 344.28C73.57 343.35 75.66 342.28 77.52 341.52C79.23 340.81 81.36 340.11 81.6 340.7C81.43 340.83 80.46 341.27 80.46 341.27C80.26 342.35 80.85 344.46 82.17 346.33C83.2027 347.465 84.6146 348.183 86.14 348.35V348.35Z" fill="#263238"/>
<path d="M175 314.11C176 311.04 178.51 304.52 178 301.33C175.81 286.42 170.95 269.41 169.32 264.04C167.13 256.84 164.57 246.22 161.81 234.04C161.88 230.65 161.91 227.63 161.91 227.63L129.91 230.39C126.22 239.39 120.36 254.86 122.58 274.39C123.606 283.504 124.121 292.668 124.12 301.84C121.12 303.7 117.79 305.84 115.12 307.69C107.98 312.69 82.96 339.1 82.96 339.1L80.38 341.16L80.18 341.31V341.37C78.8 343.03 77.18 350.11 75.87 354.37C75 357.26 74.57 361.82 76.58 365.37C78.48 368.7 80.58 369.52 81.4 365.81C81.51 364.48 81.59 363.17 81.7 361.95C82.03 358.17 84.18 353.84 85.79 351.07C87.1 348.82 87.97 346.93 90.43 345.34C90.43 345.34 120.34 325.82 134.72 316.64C137.09 315.164 139.135 313.221 140.731 310.929C142.326 308.638 143.438 306.045 144 303.31C145 298.13 148.55 285.38 149.76 278.96L156.76 305.63C155.17 308.21 152.21 317.38 150.46 328.63C148.12 343.63 142.59 366.56 142.59 366.56L141.18 371.8L141.11 372.04C140.99 374.19 143.88 380.86 145.39 385.09C146.39 387.93 148.75 391.86 152.45 393.5C155.96 395.05 158.16 394.44 156.6 390.98C155.933 389.837 155.341 388.651 154.83 387.43C153.226 383.959 152.135 380.274 151.59 376.49C151.284 373.959 151.628 371.391 152.59 369.03C152.59 369.03 169.69 330.53 175 314.11Z" fill="#FFA8A7"/>
<path d="M128.12 235.15C128.12 235.15 121.87 244.56 120.61 252.5C118.45 266.02 121.4 287.61 121.4 287.61C121.4 287.61 125.56 285.19 126.15 280.61C126.15 280.61 127.87 284.74 131.02 286.82C134.97 289.45 141.02 290.94 148.67 288.63L149.74 278.95L151.25 287.1C156.209 287.567 161.209 286.911 165.88 285.18C173.35 282.32 175.01 274.06 175.01 274.06L162.07 235.14C162.07 235.14 162.8 241.61 147.38 242.21C131.96 242.81 128.12 235.15 128.12 235.15Z" fill="#455A64"/>
<path d="M184.12 171.13C176.64 188.73 166.29 194.97 161.58 206.27C155.41 205.85 146.84 195.69 151.43 189.33C156.67 187.12 173.64 168.66 174.62 160.88C175.49 153.97 179.21 143.21 179.04 137.46C178.987 136.505 178.593 135.6 177.93 134.91C176.04 132.91 176.03 131.23 174.82 128.98C173.87 127.23 172.82 126.57 173.13 126.18C173.518 125.761 174.05 125.504 174.62 125.461C175.189 125.419 175.754 125.593 176.2 125.95C177.077 126.585 177.861 127.339 178.53 128.19C178.206 126.044 177.583 123.953 176.68 121.98C174.58 117.24 175.09 114.83 181.49 116.51C185.49 117.57 188.01 120.91 188.61 130.51C188.885 134.505 188.908 138.512 188.68 142.51C187.98 149.92 187.22 157.01 186.31 163.15C185.926 165.893 185.19 168.575 184.12 171.13Z" fill="#FFA8A7"/>
<path d="M129.23 231.85L128.66 224.69L123.14 213.13C122.327 208.884 122.131 204.542 122.56 200.24C122.74 196.07 122.56 193.24 126.56 192.31C128.1 191.96 132.46 191.18 138.84 190.31L150.52 189.31C154.79 189.09 159.42 194.58 164.26 204.31C166.68 209.17 168.58 215.78 162.16 221.93C162.16 223.2 162.32 227.49 162.16 230.06C157.099 232.637 151.555 234.127 145.884 234.435C140.213 234.743 134.541 233.863 129.23 231.85V231.85Z" fill="#92E3A9"/>
<path d="M159.86 158.46V158.1C158.81 146.89 152.38 144.81 140.63 146.01C131.95 146.9 124.08 151.01 121.46 158.66C120.492 161.536 120.199 164.596 120.605 167.603C121.011 170.61 122.104 173.484 123.8 176C127.39 181.32 133.46 184.29 142.04 183.49C153.22 184.8 160.91 169.66 159.86 158.46Z" fill="#263238"/>
<path d="M86 171C83.99 169.459 82.3727 167.465 81.28 165.18C79.52 161.51 78.71 155.89 82.81 153.38C83.2754 153.081 83.8014 152.89 84.35 152.82C86.17 152.64 87.63 154.17 89.05 155.31C90.4278 156.385 92.0051 157.177 93.6907 157.638C95.3762 158.1 97.1366 158.223 98.87 158C102.63 157.52 105.99 155.43 108.94 153.06C109.846 152.262 110.855 151.59 111.94 151.06C112.837 150.69 113.791 150.48 114.76 150.44C117.978 150.281 121.153 151.227 123.76 153.12C124.252 153.403 124.683 153.781 125.026 154.233C125.37 154.684 125.619 155.2 125.76 155.75C125.818 156.138 125.761 156.534 125.596 156.89C125.43 157.245 125.164 157.545 124.83 157.75C124.07 158.18 123.08 157.75 122.28 157.66C120.273 157.377 118.23 157.808 116.51 158.88C114.87 160 113.84 161.8 112.74 163.45C109.26 168.66 104.12 173.18 97.93 174.08C95.8366 174.381 93.7044 174.263 91.6567 173.734C89.6089 173.206 87.6863 172.276 86 171Z" fill="#263238"/>
<path d="M152.15 153.14C154.45 154.22 157.65 159.44 158.46 170.95C159.14 180.7 156.22 183.4 154.7 184.24C153.18 185.08 150.08 184.94 147.07 184.73L147.61 190.57C147.61 190.57 156.61 198.77 149.91 200.27C146.55 201.03 142.05 199.27 138.91 197.27C136.9 195.837 135.381 193.818 134.56 191.49L133.44 178.78C133.44 178.78 131.85 180.64 128.65 178.33C126 176.42 124.84 172.89 126.57 170.77C127.022 170.265 127.586 169.875 128.218 169.631C128.85 169.387 129.53 169.297 130.204 169.367C130.878 169.437 131.525 169.666 132.093 170.035C132.66 170.404 133.132 170.903 133.47 171.49C133.47 171.49 135.23 171.49 136.67 168.07C139.615 168.12 142.493 167.187 144.85 165.42C146.832 163.971 148.5 162.136 149.755 160.026C151.009 157.915 151.824 155.573 152.15 153.14Z" fill="#FFA8A7"/>
<path d="M145.6 169.06C145.656 169.383 145.582 169.715 145.395 169.985C145.208 170.254 144.922 170.439 144.6 170.5C144.271 170.537 143.94 170.444 143.678 170.24C143.417 170.036 143.245 169.738 143.2 169.41C143.166 169.245 143.165 169.076 143.199 168.911C143.233 168.746 143.3 168.59 143.396 168.453C143.493 168.315 143.616 168.198 143.759 168.11C143.903 168.022 144.062 167.965 144.229 167.941C144.395 167.917 144.564 167.927 144.727 167.971C144.889 168.015 145.04 168.092 145.172 168.197C145.303 168.302 145.411 168.433 145.49 168.581C145.569 168.729 145.617 168.892 145.63 169.06H145.6Z" fill="#263238"/>
<g style="mix-blend-mode:multiply" opacity="0.5">
<g style="mix-blend-mode:multiply" opacity="0.5">
<path d="M147.88 177.06L151.81 177.93C151.762 178.19 151.663 178.438 151.519 178.659C151.374 178.881 151.187 179.071 150.969 179.22C150.75 179.369 150.504 179.473 150.245 179.526C149.986 179.579 149.72 179.581 149.46 179.53C148.928 179.403 148.466 179.075 148.171 178.614C147.876 178.153 147.772 177.596 147.88 177.06V177.06Z" fill="#F28F8F"/>
</g>
</g>
<path d="M156.31 164.22L153.67 162.74C153.759 162.566 153.881 162.411 154.03 162.286C154.18 162.16 154.353 162.065 154.539 162.007C154.726 161.95 154.922 161.93 155.116 161.949C155.31 161.968 155.499 162.027 155.67 162.12C156.028 162.319 156.295 162.649 156.414 163.041C156.534 163.432 156.496 163.855 156.31 164.22V164.22Z" fill="#263238"/>
<path d="M143.5 164.92L140.78 166.27C140.687 166.098 140.629 165.909 140.611 165.714C140.592 165.52 140.613 165.323 140.672 165.137C140.73 164.95 140.826 164.777 140.953 164.628C141.08 164.479 141.235 164.358 141.41 164.27C141.776 164.093 142.195 164.061 142.584 164.182C142.972 164.302 143.299 164.566 143.5 164.92V164.92Z" fill="#263238"/>
<path d="M156 167.82C156.025 168.06 155.979 168.302 155.867 168.516C155.756 168.729 155.584 168.906 155.373 169.023C155.162 169.14 154.922 169.192 154.681 169.174C154.441 169.155 154.211 169.066 154.021 168.918C153.831 168.77 153.688 168.569 153.611 168.34C153.534 168.112 153.526 167.866 153.588 167.633C153.649 167.399 153.778 167.19 153.958 167.029C154.138 166.869 154.361 166.765 154.6 166.73C154.93 166.69 155.262 166.783 155.524 166.987C155.787 167.191 155.958 167.49 156 167.82V167.82Z" fill="#263238"/>
<g style="mix-blend-mode:multiply" opacity="0.5">
<g style="mix-blend-mode:multiply" opacity="0.5">
<path d="M150.03 167.67L150.91 175.02L154.68 173.46L150.03 167.67Z" fill="#F28F8F"/>
</g>
</g>
<g style="mix-blend-mode:multiply" opacity="0.5">
<g style="mix-blend-mode:multiply" opacity="0.5">
<path d="M147.07 184.73C143.9 184.61 137.29 183.36 136.07 180.91C136.597 182.148 137.49 183.195 138.63 183.91C140.71 185.37 147.27 186.63 147.27 186.63L147.07 184.73Z" fill="#F28F8F"/>
</g>
</g>
<path d="M123.87 153.55L125.31 148.29C125.661 148.367 125.992 148.514 126.284 148.723C126.576 148.931 126.823 149.197 127.01 149.503C127.197 149.81 127.32 150.151 127.371 150.506C127.423 150.861 127.402 151.223 127.31 151.57C127.102 152.28 126.628 152.882 125.987 153.251C125.347 153.619 124.588 153.727 123.87 153.55Z" fill="#263238"/>
<path d="M123.41 154L120.41 149.46C120.698 149.248 121.026 149.097 121.374 149.016C121.723 148.934 122.084 148.924 122.436 148.985C122.788 149.047 123.124 149.179 123.424 149.374C123.724 149.569 123.981 149.823 124.18 150.12C124.574 150.742 124.714 151.492 124.57 152.214C124.427 152.936 124.012 153.575 123.41 154V154Z" fill="#263238"/>
<path d="M133.5 171.48L133.98 176.6C134.438 176.557 134.882 176.425 135.289 176.21C135.695 175.996 136.056 175.703 136.349 175.349C136.643 174.996 136.863 174.588 136.999 174.148C137.135 173.709 137.183 173.248 137.14 172.79L136.7 168.06L133.5 171.48Z" fill="#263238"/>
<path d="M100.53 173.54C108.01 191.15 117.14 201.88 123.14 213.13C133.14 213.6 133.88 198.13 129.29 191.77C129.29 191.77 111.66 170.97 110.03 163.3C108.58 156.48 105.44 145.62 105.61 139.87C105.655 138.913 106.05 138.005 106.72 137.32C108.61 135.32 108.61 133.65 109.83 131.4C110.77 129.64 111.83 128.99 111.52 128.59C111.127 128.176 110.593 127.923 110.023 127.883C109.453 127.842 108.888 128.016 108.44 128.37C107.567 129.002 106.786 129.752 106.12 130.6C106.438 128.454 107.058 126.363 107.96 124.39C110.06 119.66 109.55 117.24 103.16 118.93C99.16 119.93 96.64 123.32 96.04 132.93C95.7668 136.948 95.7535 140.98 96 145C96.69 152.41 97.45 159.51 98.36 165.64C98.7463 168.354 99.4755 171.009 100.53 173.54V173.54Z" fill="#FFA8A7"/>
<path d="M151.25 286.83L149.74 279.37L151.29 265.15C154.568 263.769 157.653 261.971 160.47 259.8C158.733 262.276 156.613 264.46 154.19 266.27L150.74 278.5L151.25 286.83Z" fill="#37474F"/>
<path opacity="0.1" d="M135.33 218.69C136.277 220.464 137.716 221.926 139.474 222.902C141.232 223.877 143.234 224.325 145.24 224.19C147.178 224.122 149.063 223.544 150.705 222.513C152.347 221.482 153.687 220.036 154.59 218.32C154.59 218.32 154.31 226 145.24 226.02C136.17 226.04 135.33 218.69 135.33 218.69Z" fill="black"/>
</svg>
