<svg width="500" height="500" viewBox="0 0 500 500" fill="none" xmlns="http://www.w3.org/2000/svg">
<path d="M77.6699 454.51C-17.5101 399.56 -17.5101 310.51 77.6699 255.51C172.85 200.51 327.16 200.51 422.33 255.51C517.5 310.51 517.51 399.51 422.33 454.51C327.15 509.51 172.84 509.46 77.6699 454.51Z" fill="#F5F5F5"/>
<path d="M127.34 450.49L118 445.1C117.833 445.046 117.687 444.941 117.584 444.799C117.48 444.657 117.425 444.486 117.425 444.31C117.425 444.134 117.48 443.963 117.584 443.821C117.687 443.679 117.833 443.574 118 443.52L185.19 404.73C185.366 404.629 185.519 404.492 185.641 404.329C185.762 404.166 185.849 403.98 185.895 403.783C185.942 403.585 185.948 403.38 185.913 403.18C185.877 402.98 185.802 402.79 185.69 402.62C183.593 399.324 182.742 395.388 183.29 391.52C184.18 385.43 188.64 379.79 195.85 375.63C203.64 371.13 213.94 368.63 224.85 368.63C235.76 368.63 246.06 371.1 253.85 375.63C262.07 380.37 266.6 386.83 266.6 393.82C266.6 400.81 262.08 407.27 253.85 412.02C246.08 416.51 235.79 419.02 224.85 419.02C220.45 419.032 216.06 418.617 211.74 417.78C210.745 417.628 209.727 417.792 208.83 418.25L198.36 424.25C197.462 424.703 196.442 424.857 195.45 424.69L188.39 423.09C187.398 422.923 186.379 423.078 185.48 423.53L183.35 424.76C182.95 425.024 182.613 425.373 182.364 425.783C182.115 426.193 181.96 426.653 181.91 427.13L181.68 432.34C181.632 432.818 181.478 433.278 181.229 433.689C180.98 434.099 180.642 434.448 180.24 434.71L177.56 436.26C176.641 436.747 175.642 437.062 174.61 437.19L168.37 437.74C167.341 437.862 166.342 438.167 165.42 438.64L162.85 440.08C162.457 440.323 162.139 440.671 161.93 441.084C161.722 441.497 161.632 441.959 161.67 442.42L161.83 443.66C161.866 444.121 161.777 444.583 161.571 444.997C161.365 445.411 161.05 445.761 160.66 446.01L152.9 450.49C151.989 450.972 150.98 451.242 149.95 451.28H130.29C129.26 451.242 128.251 450.972 127.34 450.49V450.49ZM235.14 383.71C232.849 383.661 230.582 384.191 228.55 385.25C227.31 385.97 226.55 386.84 226.55 387.59C226.55 388.34 227.3 389.22 228.55 389.94C230.599 390.953 232.854 391.48 235.14 391.48C237.426 391.48 239.681 390.953 241.73 389.94C242.97 389.22 243.73 388.34 243.73 387.59C243.73 386.84 242.98 385.97 241.73 385.25C239.698 384.19 237.431 383.66 235.14 383.71V383.71Z" fill="#E0E0E0"/>
<path d="M375.64 412.24C420.662 412.24 457.16 391.171 457.16 365.18C457.16 339.189 420.662 318.12 375.64 318.12C330.618 318.12 294.12 339.189 294.12 365.18C294.12 391.171 330.618 412.24 375.64 412.24Z" fill="#E0E0E0"/>
<path d="M382.35 139.34L378.92 134.2C378.774 134.036 378.57 133.935 378.35 133.92C377.57 133.935 376.792 133.858 376.03 133.69C376.013 133.682 375.994 133.678 375.975 133.678C375.956 133.678 375.937 133.682 375.92 133.69C375.906 133.701 375.894 133.714 375.886 133.73C375.877 133.745 375.872 133.762 375.87 133.78L375.42 138.28C375.418 138.409 375.381 138.536 375.313 138.646C375.245 138.755 375.148 138.844 375.032 138.903C374.917 138.962 374.788 138.988 374.659 138.978C374.53 138.969 374.406 138.925 374.3 138.85L369.67 136.18C369.47 136.052 369.3 135.882 369.172 135.682C369.044 135.481 368.961 135.256 368.93 135.02L368.47 129.87C368.427 129.602 368.301 129.354 368.11 129.16C367.18 128.299 366.308 127.377 365.5 126.4C365.44 126.333 365.362 126.284 365.275 126.26C365.189 126.235 365.097 126.235 365.01 126.26L362.01 127.26C361.774 127.34 361.517 127.336 361.283 127.251C361.048 127.166 360.85 127.003 360.72 126.79L357.32 120.89C357.2 120.672 357.158 120.42 357.199 120.175C357.241 119.93 357.365 119.706 357.55 119.54L359.93 117.54C359.992 117.474 360.036 117.394 360.059 117.307C360.082 117.219 360.082 117.128 360.06 117.04C359.613 115.853 359.249 114.637 358.97 113.4C358.893 113.138 358.74 112.905 358.53 112.73L354.3 109.73C354.113 109.584 353.96 109.4 353.851 109.189C353.743 108.978 353.681 108.747 353.67 108.51V103.16C353.664 103.032 353.692 102.905 353.75 102.792C353.807 102.678 353.894 102.581 354 102.51C354.111 102.446 354.237 102.412 354.365 102.412C354.493 102.412 354.619 102.446 354.73 102.51L358.85 104.37C358.85 104.37 358.92 104.37 358.95 104.37C358.98 104.37 358.95 104.37 359.02 104.28C359.263 103.531 359.599 102.815 360.02 102.15C360.064 102.051 360.087 101.943 360.087 101.835C360.087 101.726 360.064 101.619 360.02 101.52L357.31 96C357.2 95.7739 357.179 95.5146 357.251 95.2737C357.323 95.0327 357.484 94.8279 357.7 94.7L360.7 92.98C360.919 92.8564 361.176 92.8196 361.421 92.8771C361.665 92.9345 361.879 93.0819 362.02 93.29L365.44 98.44C365.589 98.6058 365.798 98.7063 366.02 98.72C366.797 98.7047 367.572 98.7819 368.33 98.95C368.369 98.9655 368.412 98.9655 368.45 98.95C368.457 98.936 368.461 98.9206 368.461 98.905C368.461 98.8893 368.457 98.8739 368.45 98.86L368.91 94.36C368.912 94.2306 368.949 94.1042 369.017 93.9944C369.086 93.8845 369.183 93.7955 369.298 93.7368C369.413 93.6781 369.543 93.6521 369.672 93.6614C369.801 93.6708 369.925 93.7152 370.03 93.79L374.66 96.46C374.86 96.5861 375.03 96.7544 375.157 96.953C375.285 97.1517 375.368 97.3759 375.4 97.61L375.86 102.76C375.905 103.031 376.031 103.281 376.22 103.48C377.15 104.341 378.022 105.263 378.83 106.24C378.893 106.303 378.971 106.35 379.057 106.374C379.143 106.399 379.233 106.401 379.32 106.38L382.32 105.38C382.558 105.305 382.814 105.311 383.048 105.398C383.281 105.485 383.479 105.648 383.61 105.86L387.01 111.75C387.131 111.969 387.174 112.223 387.132 112.47C387.09 112.717 386.966 112.942 386.78 113.11L384.39 115.11C384.328 115.175 384.284 115.256 384.263 115.344C384.241 115.432 384.244 115.523 384.27 115.61C384.712 116.795 385.076 118.008 385.36 119.24C385.433 119.504 385.587 119.739 385.8 119.91L390.02 122.91C390.209 123.054 390.365 123.238 390.475 123.449C390.586 123.66 390.649 123.892 390.66 124.13V129.47C390.665 129.599 390.637 129.727 390.579 129.842C390.522 129.957 390.436 130.056 390.33 130.13C390.218 130.19 390.092 130.221 389.965 130.221C389.838 130.221 389.713 130.19 389.6 130.13L385.48 128.27C385.465 128.263 385.447 128.259 385.43 128.259C385.413 128.259 385.396 128.263 385.38 128.27C385.362 128.281 385.347 128.295 385.335 128.313C385.322 128.33 385.314 128.349 385.31 128.37C385.063 129.114 384.727 129.826 384.31 130.49C384.266 130.591 384.243 130.7 384.243 130.81C384.243 130.92 384.266 131.029 384.31 131.13L387.05 136.66C387.161 136.886 387.182 137.145 387.109 137.386C387.037 137.627 386.877 137.832 386.66 137.96L383.66 139.68C383.511 139.765 383.342 139.809 383.17 139.81C383.005 139.805 382.844 139.76 382.701 139.678C382.558 139.596 382.438 139.48 382.35 139.34ZM385.78 127.56L389.89 129.42V124.08C389.882 123.964 389.85 123.851 389.797 123.748C389.743 123.645 389.67 123.554 389.58 123.48L385.35 120.48C384.985 120.2 384.725 119.805 384.61 119.36C384.336 118.158 383.982 116.975 383.55 115.82C383.473 115.589 383.465 115.341 383.525 115.105C383.585 114.869 383.712 114.656 383.89 114.49L386.28 112.43C386.33 112.378 386.363 112.311 386.374 112.24C386.385 112.168 386.373 112.095 386.34 112.03L382.94 106.14C382.9 106.079 382.842 106.032 382.773 106.007C382.705 105.982 382.63 105.979 382.56 106L379.56 107C379.327 107.074 379.076 107.079 378.84 107.013C378.604 106.948 378.392 106.814 378.23 106.63C377.449 105.68 376.604 104.785 375.7 103.95C375.371 103.625 375.16 103.199 375.1 102.74L374.63 97.5899C374.612 97.4756 374.57 97.3662 374.508 97.2682C374.446 97.1703 374.365 97.0858 374.27 97.0199L369.65 94.35L369.2 98.8399C369.189 98.9647 369.151 99.0855 369.089 99.1943C369.027 99.303 368.942 99.397 368.84 99.47C368.737 99.5425 368.619 99.5925 368.495 99.6166C368.371 99.6408 368.243 99.6385 368.12 99.61C367.422 99.4509 366.706 99.377 365.99 99.39C365.751 99.3944 365.515 99.3412 365.301 99.2351C365.087 99.1289 364.901 98.9728 364.76 98.78L361.34 93.63C361.306 93.5825 361.256 93.5492 361.198 93.5363C361.141 93.5234 361.081 93.5318 361.03 93.56L358.03 95.28C357.978 95.3096 357.938 95.3579 357.92 95.4154C357.901 95.4728 357.905 95.5352 357.93 95.5899L360.68 101.12C360.774 101.339 360.815 101.577 360.801 101.814C360.787 102.052 360.719 102.283 360.6 102.49C360.225 103.117 359.929 103.789 359.72 104.49C359.682 104.61 359.62 104.721 359.538 104.815C359.455 104.91 359.354 104.986 359.24 105.04C359.127 105.092 359.004 105.119 358.88 105.119C358.756 105.119 358.633 105.092 358.52 105.04L354.41 103.18V108.53C354.42 108.645 354.452 108.758 354.505 108.861C354.559 108.964 354.632 109.055 354.72 109.13L358.95 112.13C359.313 112.416 359.573 112.813 359.69 113.26C359.961 114.462 360.312 115.645 360.74 116.8C360.822 117.03 360.834 117.278 360.776 117.515C360.717 117.751 360.59 117.965 360.41 118.13L358.02 120.18C357.969 120.233 357.935 120.301 357.922 120.374C357.91 120.447 357.919 120.522 357.95 120.59L361.36 126.48C361.4 126.541 361.459 126.587 361.527 126.613C361.595 126.638 361.67 126.64 361.74 126.62L364.74 125.62C364.973 125.55 365.222 125.549 365.456 125.616C365.69 125.683 365.9 125.817 366.06 126C366.848 126.948 367.696 127.843 368.6 128.68C368.925 129.008 369.135 129.433 369.2 129.89L369.66 135.03C369.68 135.145 369.723 135.255 369.786 135.353C369.85 135.451 369.933 135.535 370.03 135.6L374.65 138.28L375.1 133.78C375.112 133.658 375.149 133.539 375.209 133.433C375.269 133.326 375.351 133.233 375.45 133.16C375.555 133.085 375.674 133.034 375.8 133.01C375.926 132.986 376.056 132.989 376.18 133.02C376.879 133.18 377.594 133.253 378.31 133.24C378.548 133.235 378.783 133.287 378.996 133.394C379.208 133.5 379.392 133.657 379.53 133.85L382.95 138.99C382.985 139.04 383.036 139.075 383.095 139.09C383.154 139.105 383.216 139.098 383.27 139.07L386.27 137.35C386.321 137.319 386.358 137.27 386.375 137.212C386.392 137.155 386.386 137.094 386.36 137.04L383.62 131.5C383.524 131.283 383.482 131.047 383.496 130.81C383.51 130.574 383.58 130.344 383.7 130.14C384.072 129.511 384.367 128.839 384.58 128.14C384.616 128.018 384.677 127.905 384.76 127.809C384.843 127.712 384.945 127.634 385.06 127.58C385.17 127.532 385.29 127.508 385.41 127.51C385.536 127.503 385.661 127.52 385.78 127.56V127.56ZM371.98 125.66C367.57 123.11 363.98 116.89 363.98 111.79C363.98 109.24 364.86 107.32 366.46 106.4C368.06 105.48 370.15 105.67 372.36 106.95C376.78 109.5 380.36 115.72 380.36 120.82C380.36 123.37 379.48 125.28 377.88 126.2C377.206 126.589 376.439 126.79 375.66 126.78C374.364 126.726 373.104 126.34 372 125.66H371.98ZM366.83 107.06C365.48 107.84 364.73 109.52 364.73 111.79C364.877 114.436 365.644 117.01 366.97 119.305C368.295 121.6 370.142 123.55 372.36 125C374.36 126.14 376.16 126.33 377.51 125.55C378.86 124.77 379.61 123.09 379.61 120.82C379.468 118.174 378.705 115.598 377.383 113.302C376.061 111.005 374.217 109.052 372 107.6C371.005 106.988 369.868 106.643 368.7 106.6C368.047 106.583 367.401 106.742 366.83 107.06V107.06Z" fill="#EBEBEB"/>
<path d="M345 132.78L347.11 135.5C347.367 135.853 347.517 136.274 347.54 136.71C347.534 137.244 347.558 137.778 347.61 138.31C347.62 138.394 347.612 138.478 347.586 138.558C347.561 138.639 347.518 138.712 347.461 138.774C347.403 138.836 347.334 138.884 347.256 138.917C347.178 138.949 347.094 138.964 347.01 138.96H345.5C345.419 138.954 345.337 138.969 345.263 139.003C345.189 139.037 345.124 139.09 345.076 139.156C345.028 139.222 344.998 139.3 344.988 139.381C344.978 139.462 344.989 139.544 345.02 139.62L346.18 143.31C346.261 143.512 346.384 143.695 346.541 143.847C346.698 143.999 346.885 144.116 347.09 144.19L348.84 144.73C349.265 144.889 349.619 145.194 349.84 145.59C350.16 146.22 350.51 146.84 350.84 147.44C351.065 147.801 351.157 148.229 351.1 148.65L350.6 150.78C350.575 151 350.598 151.223 350.667 151.434C350.736 151.644 350.85 151.837 351 152L353.43 154.76C353.7 155.07 354.06 155.1 354.22 154.82L355.1 153.31C355.26 153.03 355.66 153.03 356 153.31C356.343 153.567 356.7 153.804 357.07 154.02C357.466 154.258 357.786 154.605 357.99 155.02L359.27 158.37C359.361 158.57 359.499 158.744 359.674 158.877C359.848 159.009 360.053 159.096 360.27 159.13L362.13 159.42C362.52 159.49 362.77 159.24 362.68 158.88L361.89 155.65C361.851 155.478 361.872 155.297 361.951 155.139C362.029 154.98 362.159 154.854 362.32 154.78C362.509 154.689 362.69 154.582 362.86 154.46C363.017 154.36 363.204 154.32 363.388 154.348C363.572 154.375 363.74 154.468 363.86 154.61L366.05 156.79C366.35 157.09 366.69 157.09 366.8 156.79L367.59 154.73C367.639 154.533 367.643 154.327 367.602 154.128C367.56 153.928 367.474 153.741 367.35 153.58L365.24 150.87C364.978 150.515 364.825 150.091 364.8 149.65C364.811 149.119 364.787 148.588 364.73 148.06C364.72 147.976 364.728 147.89 364.754 147.809C364.781 147.728 364.825 147.654 364.883 147.592C364.941 147.53 365.012 147.482 365.091 147.45C365.17 147.419 365.255 147.405 365.34 147.41H366.82C366.902 147.418 366.985 147.404 367.061 147.371C367.137 147.337 367.202 147.285 367.251 147.218C367.301 147.152 367.332 147.074 367.342 146.992C367.353 146.91 367.341 146.826 367.31 146.75L366.14 143C366.059 142.797 365.935 142.613 365.776 142.463C365.617 142.313 365.428 142.199 365.22 142.13L363.47 141.59C363.049 141.425 362.697 141.121 362.47 140.73C362.15 140.1 361.81 139.48 361.47 138.87C361.254 138.509 361.162 138.088 361.21 137.67L361.71 135.54C361.734 135.332 361.714 135.122 361.652 134.922C361.59 134.723 361.487 134.538 361.35 134.38L358.92 131.62C358.64 131.3 358.29 131.28 358.12 131.56L357.25 133.06C357.09 133.34 356.69 133.35 356.34 133.06C356.001 132.806 355.647 132.572 355.28 132.36C354.882 132.122 354.559 131.775 354.35 131.36L353 128C352.907 127.801 352.768 127.627 352.594 127.493C352.42 127.359 352.216 127.269 352 127.23L350.14 126.94C349.75 126.88 349.5 127.12 349.59 127.48L350.38 130.72C350.412 130.892 350.387 131.07 350.31 131.227C350.232 131.383 350.106 131.511 349.95 131.59C349.759 131.677 349.578 131.785 349.41 131.91C349.251 132.005 349.064 132.041 348.881 132.011C348.698 131.982 348.532 131.89 348.41 131.75L346.22 129.57C345.92 129.27 345.58 129.28 345.46 129.57L344.67 131.64C344.634 131.843 344.645 132.051 344.702 132.248C344.759 132.446 344.861 132.628 345 132.78V132.78ZM351.41 137.73C352.34 135.3 355.23 135.73 357.86 138.73C360.49 141.73 361.86 146.12 360.94 148.55C360.02 150.98 357.12 150.55 354.49 147.55C351.86 144.55 350.46 140.16 351.39 137.73H351.41Z" fill="#EBEBEB"/>
<path d="M231.8 308.71C222.8 311.23 215.68 327.81 215.64 343.86C215.551 352.229 216.16 360.592 217.46 368.86L221.73 371.33L222.96 372.04L227.25 374.51L229.89 376.04C228.965 369.476 228.965 362.814 229.89 356.25V356.25C230.433 352.595 231.396 349.014 232.76 345.58C235.44 338.82 239.76 332.05 241.44 327.4C245.61 315.82 240.22 306.36 231.8 308.71Z" fill="#92E3A9"/>
<g opacity="0.65">
<path opacity="0.65" d="M231.8 308.71C222.8 311.23 215.68 327.81 215.64 343.86C215.551 352.229 216.16 360.592 217.46 368.86L221.73 371.33L222.96 372.04L227.25 374.51L229.89 376.04C228.965 369.476 228.965 362.814 229.89 356.25V356.25C230.433 352.595 231.396 349.014 232.76 345.58C235.44 338.82 239.76 332.05 241.44 327.4C245.61 315.82 240.22 306.36 231.8 308.71Z" fill="white"/>
</g>
<path d="M234.76 314.84C225.76 324.97 219.05 347.84 222.96 372.06L221.73 371.35C218.07 347.05 224.86 324.26 233.93 314.09C234.032 313.988 234.168 313.929 234.312 313.925C234.456 313.922 234.595 313.973 234.702 314.07C234.809 314.166 234.874 314.3 234.885 314.443C234.896 314.587 234.851 314.729 234.76 314.84Z" fill="white"/>
<path d="M243 337.48C241 338.48 236.27 342.71 234.75 345.41C232.763 348.862 231.109 352.495 229.81 356.26C227.831 362.136 226.95 368.325 227.21 374.52L229.85 376.05L231.08 376.76L232.2 377.4L236.59 379.93C237.54 375.837 238.984 371.875 240.89 368.13C246.05 357.92 255.56 350.41 256.28 344.7C257.18 337.84 252 332.84 243 337.48Z" fill="#92E3A9"/>
<path opacity="0.3" d="M243 337.48C241 338.48 236.27 342.71 234.75 345.41C232.763 348.862 231.109 352.495 229.81 356.26C227.831 362.136 226.95 368.325 227.21 374.52L229.85 376.05L231.08 376.76L232.2 377.4L236.59 379.93C237.54 375.837 238.984 371.875 240.89 368.13C246.05 357.92 255.56 350.41 256.28 344.7C257.18 337.84 252 332.84 243 337.48Z" fill="white"/>
<path d="M248.34 343.73C242.59 347.56 232.94 359.05 232.24 377.41L231.12 376.77C231.94 358.4 241.43 346.99 247.72 342.77C247.781 342.724 247.851 342.69 247.925 342.672C247.999 342.653 248.077 342.65 248.152 342.663C248.228 342.676 248.3 342.704 248.364 342.745C248.428 342.787 248.483 342.841 248.526 342.905C248.568 342.968 248.597 343.04 248.611 343.115C248.625 343.191 248.623 343.268 248.605 343.343C248.588 343.417 248.555 343.487 248.51 343.549C248.464 343.61 248.406 343.662 248.34 343.7V343.73Z" fill="white"/>
<path d="M51.45 385.57C51.1681 385.572 50.8913 385.496 50.65 385.35C50.4048 385.213 50.201 385.013 50.0602 384.77C49.9194 384.527 49.8468 384.251 49.85 383.97V318.28C49.8794 317.619 50.0674 316.976 50.3981 316.403C50.7288 315.83 51.1925 315.346 51.75 314.99L71.1 303.82C71.4055 303.624 71.7587 303.515 72.1216 303.504C72.4845 303.494 72.8435 303.582 73.16 303.76C73.4019 303.896 73.6148 304.078 73.7864 304.295C73.958 304.513 74.0849 304.763 74.16 305.03L75.72 310.24C75.7496 310.358 75.8054 310.468 75.8833 310.561C75.9612 310.655 76.0592 310.73 76.17 310.78C76.2838 310.821 76.4058 310.834 76.5259 310.819C76.6459 310.803 76.7604 310.759 76.86 310.69L118.78 286.5C119.016 286.342 119.286 286.244 119.568 286.212C119.85 286.181 120.135 286.218 120.4 286.32L120.61 286.43C120.852 286.606 121.046 286.841 121.174 287.111C121.301 287.382 121.358 287.681 121.34 287.98V343.27C121.309 343.93 121.12 344.573 120.79 345.146C120.459 345.718 119.996 346.203 119.44 346.56L52.25 385.35C52.008 385.494 51.7316 385.57 51.45 385.57ZM72.2 304.83C72.0441 304.832 71.8919 304.877 71.76 304.96L52.41 316.12C52.05 316.361 51.7519 316.683 51.54 317.06C51.3141 317.428 51.1867 317.848 51.17 318.28V384C51.1693 384.049 51.1821 384.097 51.2067 384.139C51.2314 384.182 51.2671 384.216 51.31 384.24C51.3522 384.266 51.4006 384.279 51.45 384.279C51.4993 384.279 51.5477 384.266 51.59 384.24L118.77 345.44C119.126 345.199 119.422 344.88 119.637 344.508C119.852 344.135 119.979 343.719 120.01 343.29V288C120.028 287.848 119.988 287.695 119.9 287.57L119.82 287.52C119.678 287.535 119.541 287.583 119.42 287.66L77.51 311.83C77.2377 311.995 76.9321 312.097 76.6154 312.128C76.2987 312.159 75.9791 312.119 75.68 312.01C75.3832 311.888 75.1186 311.699 74.907 311.458C74.6953 311.217 74.5423 310.93 74.46 310.62L72.89 305.41C72.8385 305.203 72.7097 305.024 72.53 304.91C72.4295 304.853 72.3153 304.825 72.2 304.83V304.83Z" fill="#92E3A9"/>
<path d="M141.73 357.8L141.22 357.51L140.63 357.17L140.11 356.87C139.684 356.589 139.318 356.226 139.035 355.802C138.752 355.378 138.556 354.901 138.46 354.4L131.46 301.54C131.442 301.186 131.342 300.842 131.168 300.533C130.995 300.224 130.752 299.96 130.46 299.76L129.56 299.24C129.206 299.062 128.81 298.982 128.415 299.008C128.019 299.034 127.637 299.166 127.31 299.39L91 320C90.5886 320.237 90.131 320.383 89.6583 320.428C89.1855 320.473 88.7086 320.416 88.26 320.26C87.9886 320.021 87.7558 319.741 87.57 319.43L86.4 317.43C86.1112 316.926 85.6936 316.509 85.19 316.22L84.29 315.7C83.7865 315.411 83.2158 315.258 82.635 315.258C82.0541 315.258 81.4835 315.411 80.98 315.7L64.3 325.34C63.4773 325.872 62.8159 326.62 62.3876 327.501C61.9593 328.382 61.7803 329.364 61.87 330.34L70.28 393.45C70.3841 394.072 70.6154 394.666 70.9596 395.194C71.3037 395.722 71.7532 396.174 72.28 396.52L73.9 397.46C74.2036 397.641 74.5471 397.744 74.9 397.76C75.1865 397.77 75.4702 397.701 75.72 397.56L142.72 357.95C142.556 358.014 142.379 358.034 142.205 358.008C142.031 357.982 141.867 357.91 141.73 357.8V357.8Z" fill="#92E3A9"/>
<path opacity="0.25" d="M141.73 357.8L140.12 356.87C139.691 356.591 139.323 356.229 139.038 355.804C138.753 355.38 138.556 354.902 138.46 354.4L131.46 301.54C131.459 301.157 131.35 300.781 131.147 300.456C130.944 300.131 130.654 299.869 130.31 299.699C129.966 299.53 129.582 299.46 129.2 299.497C128.818 299.534 128.455 299.677 128.15 299.91L92.15 320.67C91.3886 321.109 90.4841 321.228 89.6349 321.001C88.7857 320.775 88.0612 320.22 87.62 319.46L86.45 317.46C86.2326 317.083 85.9427 316.752 85.5972 316.487C85.2516 316.221 84.8571 316.027 84.4362 315.915C84.0154 315.802 83.5765 315.774 83.1447 315.832C82.7129 315.889 82.2967 316.031 81.92 316.25L65.2 325.9C64.3861 326.427 63.7303 327.164 63.3023 328.034C62.8744 328.904 62.6905 329.874 62.77 330.84L71.1 393.33C71.195 393.833 71.3899 394.311 71.6734 394.737C71.9568 395.163 72.3229 395.528 72.75 395.81L74.37 396.74C74.5131 396.843 74.6809 396.907 74.8566 396.925C75.0322 396.942 75.2094 396.913 75.37 396.84L142.75 357.94C142.583 358.011 142.4 358.036 142.221 358.011C142.041 357.987 141.871 357.914 141.73 357.8Z" fill="black"/>
<path opacity="0.25" d="M72.7399 395.77L74.3599 396.7C74.503 396.804 74.6708 396.867 74.8465 396.885C75.0221 396.902 75.1993 396.873 75.3599 396.8L142.74 357.9C142.579 357.973 142.402 358.002 142.226 357.985C142.051 357.967 141.883 357.903 141.74 357.8L140.13 356.87C139.703 356.6 139.338 356.242 139.06 355.82L71.6899 394.72C71.9615 395.141 72.3194 395.498 72.7399 395.77V395.77Z" fill="black"/>
<path d="M73.1299 335.74V390.6C73.1375 390.731 73.1759 390.858 73.2419 390.971C73.308 391.084 73.3998 391.179 73.5099 391.25L73.9299 391.5C74.0461 391.559 74.1746 391.59 74.3049 391.59C74.4352 391.59 74.5636 391.559 74.6799 391.5L135.46 356.4C135.57 356.329 135.662 356.234 135.728 356.121C135.794 356.008 135.832 355.881 135.84 355.75V300.89C135.832 300.759 135.794 300.632 135.728 300.52C135.662 300.407 135.57 300.311 135.46 300.24L135 300C134.884 299.941 134.755 299.911 134.625 299.911C134.495 299.911 134.366 299.941 134.25 300L73.5099 335.09C73.3998 335.161 73.308 335.257 73.2419 335.37C73.1759 335.482 73.1375 335.609 73.1299 335.74V335.74Z" fill="#FAFAFA"/>
<path d="M135.83 300.79C135.834 300.747 135.834 300.703 135.83 300.66V300.59C135.802 300.52 135.761 300.456 135.71 300.4C135.682 300.359 135.648 300.322 135.61 300.29L135.53 300.24L135 300C134.884 299.941 134.755 299.911 134.625 299.911C134.495 299.911 134.366 299.941 134.25 300L73.51 335.09C73.3994 335.158 73.3095 335.255 73.25 335.37L74.42 336.05C74.4821 335.937 74.5715 335.84 74.68 335.77L135.46 300.68C135.64 300.57 135.79 300.63 135.83 300.79Z" fill="#E0E0E0"/>
<path d="M74.5799 391.54C74.4199 391.54 74.3099 391.48 74.3099 391.28V336.42C74.3122 336.289 74.3503 336.161 74.4199 336.05L73.2499 335.37C73.1772 335.48 73.1389 335.608 73.1399 335.74V390.6C73.1431 390.73 73.1785 390.858 73.2431 390.972C73.3077 391.085 73.3993 391.181 73.5099 391.25L73.9299 391.5C74.133 391.598 74.3664 391.612 74.5799 391.54Z" fill="#E0E0E0"/>
<g opacity="0.1">
<path opacity="0.1" d="M74.5799 391.54C74.4199 391.54 74.3099 391.48 74.3099 391.28V336.42C74.3122 336.289 74.3503 336.161 74.4199 336.05L73.2499 335.37C73.1772 335.48 73.1389 335.608 73.1399 335.74V390.6C73.1431 390.73 73.1785 390.858 73.2431 390.972C73.3077 391.085 73.3993 391.181 73.5099 391.25L73.9299 391.5C74.133 391.598 74.3664 391.612 74.5799 391.54Z" fill="black"/>
</g>
<path d="M144 305.37C144.038 305.015 143.98 304.656 143.832 304.33C143.685 304.005 143.452 303.725 143.16 303.52L142.33 303.04C142.009 302.894 141.654 302.835 141.303 302.871C140.952 302.906 140.616 303.033 140.33 303.24L78.6699 338.82C77.8309 339.368 77.1335 340.107 76.6347 340.976C76.1359 341.845 75.8498 342.819 75.7999 343.82V395.89C75.8187 396.069 75.7887 396.251 75.713 396.414C75.6373 396.578 75.5188 396.718 75.3699 396.82L75.7799 397.53L143.57 358.4C143.717 358.297 143.834 358.156 143.907 357.993C143.981 357.829 144.01 357.648 143.99 357.47L144 305.37Z" fill="#92E3A9"/>
<path opacity="0.25" d="M75.78 397.51C76.0545 397.338 76.2768 397.094 76.4231 396.806C76.5694 396.517 76.634 396.193 76.61 395.87V344.27C76.6624 343.27 76.9495 342.296 77.4481 341.427C77.9467 340.559 78.6428 339.82 79.48 339.27L141.11 303.69C142.7 302.78 143.99 303.52 143.99 305.35V357.43C144.01 357.609 143.981 357.789 143.908 357.953C143.834 358.116 143.717 358.257 143.57 358.36L75.78 397.51Z" fill="white"/>
<path d="M124.4 349.56L117.57 343.78C117.13 343.41 116.4 343.78 115.95 344.69L113.47 349.45C113.03 350.3 112.32 350.71 111.88 350.38L106.06 346C105.62 345.66 104.9 346.08 104.46 346.92L95.3599 364.43V370.43L124.36 353.67L124.4 349.56ZM120.93 339.78C121.728 339.211 122.38 338.461 122.833 337.592C123.287 336.724 123.529 335.76 123.54 334.78C123.54 332.86 122.38 331.97 120.93 332.78C120.135 333.351 119.485 334.101 119.033 334.97C118.582 335.838 118.341 336.801 118.33 337.78C118.33 339.73 119.49 340.61 120.93 339.78V339.78ZM127.71 321.85L92.0599 342.45C91.5612 342.808 91.1531 343.277 90.8683 343.82C90.5835 344.364 90.43 344.967 90.4199 345.58V377.75C90.4199 378.95 91.1599 379.51 92.0599 378.99L127.71 358.38C128.207 358.022 128.614 357.552 128.897 357.009C129.18 356.465 129.332 355.863 129.34 355.25V323.08C129.34 321.88 128.61 321.32 127.71 321.85V321.85ZM126.47 355.06L93.2999 374.24V345.77L126.47 326.59V355.06Z" fill="white"/>
<path d="M51.4499 270.68C51.1687 270.677 50.8931 270.601 50.6499 270.46C50.4061 270.322 50.2035 270.121 50.0629 269.878C49.9223 269.636 49.8488 269.36 49.8499 269.08V203.38C49.8702 202.72 50.0596 202.076 50.3999 201.51C50.7231 200.933 51.1876 200.448 51.7499 200.1L71.0999 188.93C71.4045 188.732 71.7572 188.622 72.1202 188.609C72.4831 188.597 72.8425 188.684 73.1599 188.86C73.6464 189.136 74.0054 189.592 74.1599 190.13L75.7199 195.35C75.7495 195.468 75.8053 195.578 75.8832 195.671C75.9611 195.765 76.0591 195.84 76.1699 195.89C76.2841 195.929 76.4057 195.941 76.5253 195.925C76.6449 195.91 76.7594 195.867 76.8599 195.8L118.78 171.61C119.015 171.45 119.285 171.35 119.567 171.319C119.85 171.287 120.136 171.325 120.4 171.43L120.61 171.54C120.852 171.714 121.046 171.946 121.174 172.216C121.301 172.485 121.359 172.783 121.34 173.08V228.37C121.311 229.031 121.124 229.675 120.793 230.248C120.462 230.821 119.998 231.305 119.44 231.66L52.2599 270.46C52.0132 270.602 51.7343 270.677 51.4499 270.68V270.68ZM72.1999 189.93C72.0433 189.936 71.8912 189.985 71.7599 190.07L52.4099 201.23C52.0499 201.471 51.7518 201.793 51.5399 202.17C51.314 202.535 51.1865 202.952 51.1699 203.38V269.08C51.1703 269.129 51.1836 269.177 51.2083 269.219C51.2331 269.261 51.2684 269.296 51.3109 269.321C51.3534 269.345 51.4015 269.358 51.4505 269.358C51.4994 269.357 51.5475 269.345 51.5899 269.32L118.77 230.53C119.126 230.287 119.423 229.966 119.637 229.592C119.852 229.218 119.979 228.8 120.01 228.37V173.08C120.026 172.928 119.987 172.776 119.9 172.65H119.82C119.678 172.665 119.541 172.713 119.42 172.79L77.5099 196.94C77.2377 197.105 76.932 197.207 76.6153 197.238C76.2986 197.269 75.979 197.229 75.6799 197.12C75.3843 196.996 75.1208 196.807 74.9095 196.566C74.6981 196.325 74.5443 196.039 74.4599 195.73L72.8899 190.51C72.838 190.306 72.7089 190.13 72.5299 190.02C72.4303 189.96 72.3161 189.929 72.1999 189.93V189.93Z" fill="#92E3A9"/>
<path d="M141.73 243.11L141.22 242.81L140.63 242.47L140.11 242.17C139.683 241.89 139.317 241.527 139.034 241.103C138.75 240.679 138.555 240.201 138.46 239.7L131.46 186.84C131.441 186.487 131.341 186.142 131.167 185.834C130.994 185.525 130.752 185.26 130.46 185.06L129.56 184.54C129.205 184.361 128.809 184.282 128.413 184.31C128.017 184.338 127.636 184.473 127.31 184.7L90.9999 205.34C90.5886 205.577 90.131 205.723 89.6582 205.768C89.1854 205.813 88.7085 205.756 88.2599 205.6C87.9883 205.357 87.7555 205.074 87.5699 204.76L86.3999 202.76C86.1143 202.254 85.6959 201.836 85.1899 201.55L84.2899 201.03C83.7914 200.74 83.2258 200.584 82.6489 200.579C82.072 200.574 81.5036 200.719 80.9999 201L64.2999 210.65C63.486 211.177 62.8301 211.914 62.4022 212.784C61.9743 213.654 61.7903 214.624 61.8699 215.59L70.2799 278.71C70.3852 279.331 70.617 279.925 70.961 280.453C71.3051 280.981 71.754 281.433 72.2799 281.78L73.8999 282.71C74.2026 282.894 74.5461 283.001 74.8999 283.02C75.1864 283.03 75.4701 282.961 75.7199 282.82L142.72 243.21C142.561 243.281 142.385 243.309 142.212 243.292C142.038 243.274 141.872 243.212 141.73 243.11Z" fill="#92E3A9"/>
<path opacity="0.25" d="M141.73 243.11L140.12 242.17C139.689 241.893 139.32 241.532 139.034 241.107C138.749 240.682 138.553 240.203 138.46 239.7L131.46 186.84C131.455 186.458 131.344 186.085 131.14 185.762C130.936 185.439 130.647 185.179 130.305 185.01C129.962 184.842 129.579 184.771 129.199 184.806C128.819 184.841 128.456 184.981 128.15 185.21L92.1399 206C91.7632 206.219 91.347 206.361 90.9152 206.418C90.4834 206.476 90.0445 206.448 89.6237 206.335C89.2028 206.223 88.8083 206.029 88.4627 205.763C88.1172 205.498 87.8273 205.167 87.6099 204.79L86.4399 202.79C86.0004 202.028 85.2766 201.472 84.4272 201.243C83.5779 201.014 82.6725 201.132 81.9099 201.57L65.1899 211.22C64.3672 211.752 63.7058 212.5 63.2775 213.381C62.8492 214.262 62.6701 215.244 62.7599 216.22L71.0899 278.71C71.1849 279.211 71.38 279.689 71.6635 280.113C71.947 280.537 72.3131 280.9 72.7399 281.18L74.3599 282.12C74.5029 282.223 74.6707 282.287 74.8464 282.305C75.022 282.322 75.1992 282.293 75.3599 282.22L142.74 243.32C142.568 243.38 142.384 243.392 142.206 243.355C142.028 243.318 141.863 243.233 141.73 243.11Z" fill="black"/>
<path opacity="0.25" d="M72.7399 281.07L74.3599 282.01C74.503 282.113 74.6708 282.177 74.8465 282.195C75.0221 282.212 75.1993 282.183 75.3599 282.11L142.74 243.21C142.579 243.283 142.402 243.312 142.226 243.295C142.051 243.277 141.883 243.213 141.74 243.11L140.13 242.17C139.705 241.918 139.34 241.577 139.06 241.17L71.6799 280C71.9512 280.43 72.3129 280.795 72.7399 281.07V281.07Z" fill="black"/>
<path d="M73.1299 221V275.87C73.1375 276.001 73.1759 276.128 73.2419 276.241C73.308 276.354 73.3998 276.449 73.5099 276.52L73.9299 276.76C74.0461 276.819 74.1746 276.85 74.3049 276.85C74.4352 276.85 74.5636 276.819 74.6799 276.76L135.46 241.67C135.57 241.599 135.662 241.504 135.728 241.391C135.794 241.278 135.832 241.151 135.84 241.02V186.2C135.832 186.069 135.794 185.942 135.728 185.829C135.662 185.716 135.57 185.621 135.46 185.55L135.04 185.3C134.924 185.241 134.795 185.21 134.665 185.21C134.535 185.21 134.406 185.241 134.29 185.3L73.5099 220.39C73.4049 220.457 73.3162 220.546 73.2504 220.652C73.1847 220.757 73.1435 220.876 73.1299 221V221Z" fill="#FAFAFA"/>
<path d="M135.83 186.1C135.834 186.053 135.834 186.007 135.83 185.96V185.89C135.797 185.822 135.757 185.759 135.71 185.7C135.682 185.662 135.648 185.628 135.61 185.6H135.53L135.11 185.35C134.994 185.291 134.865 185.26 134.735 185.26C134.605 185.26 134.476 185.291 134.36 185.35L73.51 220.39C73.4015 220.46 73.3121 220.557 73.25 220.67L74.42 221.35C74.4821 221.237 74.5715 221.14 74.68 221.07L135.46 186C135.64 185.88 135.79 185.93 135.83 186.1Z" fill="#E0E0E0"/>
<path d="M74.5799 276.84C74.4199 276.84 74.3099 276.78 74.3099 276.58V221.72C74.3136 221.589 74.3516 221.462 74.4199 221.35L73.2499 220.67C73.1783 220.78 73.14 220.909 73.1399 221.04V275.91C73.1429 276.039 73.1784 276.166 73.2431 276.277C73.3077 276.389 73.3995 276.483 73.5099 276.55L73.9299 276.8C74.0298 276.851 74.139 276.88 74.2508 276.887C74.3625 276.894 74.4746 276.878 74.5799 276.84V276.84Z" fill="#E0E0E0"/>
<g opacity="0.1">
<path opacity="0.1" d="M74.5799 276.84C74.4199 276.84 74.3099 276.78 74.3099 276.58V221.72C74.3136 221.589 74.3516 221.462 74.4199 221.35L73.2499 220.67C73.1783 220.78 73.14 220.909 73.1399 221.04V275.91C73.1429 276.039 73.1784 276.166 73.2431 276.277C73.3077 276.389 73.3995 276.483 73.5099 276.55L73.9299 276.8C74.0298 276.851 74.139 276.88 74.2508 276.887C74.3625 276.894 74.4746 276.878 74.5799 276.84V276.84Z" fill="black"/>
</g>
<path d="M144 190.68C144.04 190.323 143.983 189.962 143.835 189.635C143.687 189.308 143.454 189.026 143.16 188.82L142.33 188.34C142.008 188.195 141.653 188.138 141.302 188.175C140.95 188.212 140.615 188.342 140.33 188.55L78.6699 224.13C77.8292 224.676 77.1306 225.414 76.6315 226.284C76.1325 227.153 75.8474 228.129 75.7999 229.13V281.21C75.8187 281.389 75.7887 281.571 75.713 281.734C75.6373 281.898 75.5188 282.038 75.3699 282.14L75.7799 282.85L143.57 243.71C143.717 243.607 143.834 243.466 143.907 243.303C143.981 243.139 144.01 242.958 143.99 242.78L144 190.68Z" fill="#92E3A9"/>
<path opacity="0.25" d="M75.7798 282.82C76.0543 282.648 76.2766 282.404 76.4229 282.115C76.5691 281.826 76.6337 281.503 76.6098 281.18V229.58C76.6613 228.58 76.9481 227.605 77.4468 226.737C77.9454 225.868 78.642 225.129 79.4798 224.58L141.11 189C142.7 188.08 143.99 188.82 143.99 190.66V242.73C144.01 242.908 143.981 243.089 143.907 243.253C143.833 243.416 143.717 243.557 143.57 243.66L75.7798 282.82Z" fill="white"/>
<path d="M125.89 223.82L109.25 233.43C108.41 228.7 104.93 226.79 100.77 229.19C95.9698 231.96 92.0898 239.38 92.0898 245.77C92.0898 252.16 95.9698 255.1 100.77 252.33C104.96 249.91 108.47 243.91 109.27 238.17L118.76 232.69V237C118.76 238.31 119.56 238.92 120.55 238.35C121.092 237.96 121.535 237.448 121.845 236.856C122.154 236.264 122.32 235.608 122.33 234.94V230.65L125.89 228.59C126.435 228.202 126.881 227.691 127.192 227.099C127.503 226.506 127.67 225.849 127.68 225.18C127.68 223.85 126.88 223.25 125.89 223.82ZM100.77 248.35C97.6198 250.16 95.0798 248.24 95.0798 244.05C95.0798 239.86 97.6198 234.99 100.77 233.17C103.92 231.35 106.46 233.28 106.46 237.47C106.46 241.66 103.91 246.53 100.77 248.35Z" fill="#FAFAFA"/>
<path d="M51.4499 155.78C51.1695 155.78 50.8939 155.708 50.6499 155.57C50.4068 155.431 50.2048 155.23 50.0643 154.988C49.9238 154.745 49.8498 154.47 49.8499 154.19V88.49C49.8703 87.8268 50.0596 87.1797 50.3999 86.61C50.7288 86.0375 51.1921 85.5535 51.7499 85.2L71.0999 74C71.4109 73.8131 71.767 73.7144 72.1299 73.7144C72.4927 73.7144 72.8488 73.8131 73.1599 74C73.4018 74.1356 73.6147 74.3175 73.7863 74.5354C73.9579 74.7534 74.0848 75.003 74.1599 75.27L75.7199 80.48C75.7495 80.5993 75.8052 80.7105 75.883 80.8056C75.9608 80.9007 76.0588 80.9774 76.1699 81.03C76.2841 81.0687 76.4057 81.0807 76.5253 81.0651C76.6449 81.0495 76.7593 81.0067 76.8599 80.94L118.78 56.75C119.015 56.5915 119.285 56.4916 119.567 56.4585C119.849 56.4255 120.134 56.4603 120.4 56.56L120.61 56.67C120.852 56.8461 121.046 57.0805 121.174 57.3514C121.301 57.6223 121.358 57.9211 121.34 58.22V113.51C121.31 114.171 121.122 114.814 120.792 115.387C120.461 115.96 119.997 116.444 119.44 116.8L52.2599 155.6C52.0096 155.728 51.7308 155.79 51.4499 155.78V155.78ZM72.1999 75C72.0451 75.0087 71.8945 75.0532 71.7599 75.13L52.4099 86.34C52.0501 86.5765 51.7519 86.8953 51.5399 87.27C51.314 87.6382 51.1866 88.0584 51.1699 88.49V154.19C51.1703 154.239 51.1835 154.287 51.2083 154.329C51.233 154.371 51.2684 154.406 51.3109 154.431C51.3534 154.455 51.4015 154.468 51.4505 154.468C51.4994 154.467 51.5475 154.454 51.5899 154.43L118.77 115.63C119.127 115.39 119.424 115.071 119.639 114.699C119.854 114.326 119.981 113.909 120.01 113.48V58.19C120.026 58.0381 119.987 57.8856 119.9 57.76H119.82C119.676 57.7694 119.538 57.8178 119.42 57.9L77.5099 82.05C77.2379 82.2159 76.9317 82.3175 76.6145 82.347C76.2974 82.3764 75.9777 82.333 75.6799 82.22C75.3822 82.0994 75.1169 81.911 74.9051 81.6696C74.6933 81.4283 74.5408 81.1408 74.4599 80.83L72.8899 75.62C72.838 75.4161 72.7089 75.2404 72.5299 75.13C72.4346 75.056 72.32 75.0108 72.1999 75V75Z" fill="#92E3A9"/>
<path d="M141.73 128.41L141.22 128.12L140.63 127.78L140.11 127.48C139.684 127.199 139.318 126.836 139.035 126.412C138.752 125.988 138.556 125.511 138.46 125.01L131.46 72.1501C131.441 71.7952 131.341 71.4494 131.167 71.1392C130.994 70.8289 130.752 70.5624 130.46 70.3601L129.56 69.8501C129.206 69.6697 128.81 69.5885 128.414 69.6149C128.018 69.6413 127.637 69.7744 127.31 70.0001L91 90.6401C90.5886 90.8774 90.131 91.0235 89.6583 91.0684C89.1855 91.1132 88.7086 91.0558 88.26 90.9001C87.986 90.6592 87.753 90.3756 87.57 90.0601L86.4 88.0601C86.1112 87.5565 85.6936 87.1388 85.19 86.8501L84.29 86.3301C83.7865 86.0405 83.2158 85.8881 82.635 85.8881C82.0541 85.8881 81.4835 86.0405 80.98 86.3301L64.3 96.0001C63.4773 96.5324 62.8159 97.2798 62.3876 98.1611C61.9593 99.0425 61.7803 100.024 61.87 101L70.28 164C70.3841 164.622 70.6154 165.216 70.9596 165.744C71.3037 166.272 71.7532 166.724 72.28 167.07L74 168C74.3036 168.181 74.647 168.284 75 168.3C75.2865 168.31 75.5702 168.241 75.82 168.1L142.82 128.49C142.65 128.584 142.457 128.626 142.263 128.612C142.07 128.598 141.884 128.528 141.73 128.41Z" fill="#92E3A9"/>
<path opacity="0.25" d="M141.73 128.41L140.12 127.48C139.691 127.201 139.323 126.839 139.038 126.414C138.753 125.99 138.556 125.512 138.46 125.01L131.46 72.15C131.459 71.7666 131.35 71.3912 131.147 71.066C130.944 70.7408 130.654 70.4787 130.31 70.3093C129.966 70.1399 129.582 70.0699 129.2 70.1071C128.818 70.1444 128.455 70.2873 128.15 70.52L92.15 91.28C91.7727 91.4983 91.356 91.64 90.9238 91.6968C90.4916 91.7536 90.0525 91.7245 89.6316 91.6112C89.2107 91.4978 88.8163 91.3024 88.4711 91.0362C88.1259 90.77 87.8367 90.4383 87.62 90.06L86.45 88.06C86.2326 87.6826 85.9427 87.3518 85.5972 87.0866C85.2516 86.8214 84.8571 86.627 84.4362 86.5146C84.0154 86.4022 83.5765 86.374 83.1447 86.4315C82.7129 86.4891 82.2967 86.6313 81.92 86.85L65.19 96.47C64.3761 96.9967 63.7203 97.7343 63.2923 98.6042C62.8644 99.4741 62.6805 100.444 62.76 101.41L71.09 163.9C71.1849 164.403 71.3799 164.881 71.6633 165.307C71.9468 165.733 72.3129 166.098 72.74 166.38L74.36 167.31C74.5031 167.413 74.6709 167.477 74.8466 167.495C75.0222 167.512 75.1994 167.483 75.36 167.41L142.74 128.51C142.578 128.585 142.399 128.615 142.221 128.598C142.044 128.58 141.874 128.515 141.73 128.41V128.41Z" fill="black"/>
<path opacity="0.25" d="M72.7399 166.38L74.3599 167.31C74.503 167.414 74.6708 167.477 74.8465 167.495C75.0221 167.512 75.1993 167.483 75.3599 167.41L142.74 128.51C142.579 128.583 142.402 128.612 142.226 128.595C142.051 128.577 141.883 128.514 141.74 128.41L140.13 127.48C139.708 127.225 139.343 126.884 139.06 126.48L71.6899 165.38C71.967 165.783 72.3245 166.123 72.7399 166.38V166.38Z" fill="black"/>
<path d="M73.1299 106.35V161.21C73.1375 161.341 73.1759 161.468 73.2419 161.581C73.308 161.694 73.3998 161.789 73.5099 161.86L73.9299 162.1C74.0461 162.159 74.1746 162.19 74.3049 162.19C74.4352 162.19 74.5636 162.159 74.6799 162.1L135.46 127C135.57 126.929 135.662 126.834 135.728 126.721C135.794 126.608 135.832 126.481 135.84 126.35V71.5001C135.832 71.3694 135.794 71.2424 135.728 71.1295C135.662 71.0165 135.57 70.9208 135.46 70.8501L135.04 70.6101C134.924 70.5512 134.795 70.5205 134.665 70.5205C134.535 70.5205 134.406 70.5512 134.29 70.6101L73.5099 105.7C73.3998 105.771 73.308 105.867 73.2419 105.979C73.1759 106.092 73.1375 106.219 73.1299 106.35V106.35Z" fill="#FAFAFA"/>
<path d="M135.83 71.4001C135.833 71.3534 135.833 71.3067 135.83 71.2601V71.2001C135.8 71.128 135.759 71.0607 135.71 71.0001C135.679 70.9643 135.646 70.9308 135.61 70.9001L135.53 70.8501L135.11 70.6101C134.994 70.5512 134.865 70.5205 134.735 70.5205C134.605 70.5205 134.476 70.5512 134.36 70.6101L73.51 105.7C73.3994 105.768 73.3095 105.865 73.25 105.98L74.42 106.66C74.4821 106.547 74.5715 106.45 74.68 106.38L135.46 71.2801C135.64 71.1801 135.79 71.2401 135.83 71.4001Z" fill="#E0E0E0"/>
<path d="M74.5799 162.15C74.4199 162.15 74.3099 162.09 74.3099 161.89V107C74.3122 106.869 74.3503 106.741 74.4199 106.63L73.2499 106C73.1772 106.11 73.1389 106.238 73.1399 106.37V161.23C73.1431 161.36 73.1785 161.488 73.2431 161.602C73.3077 161.715 73.3993 161.811 73.5099 161.88L73.9299 162.13C74.1356 162.221 74.369 162.229 74.5799 162.15V162.15Z" fill="#E0E0E0"/>
<g opacity="0.1">
<path opacity="0.1" d="M74.5799 162.15C74.4199 162.15 74.3099 162.09 74.3099 161.89V107C74.3122 106.869 74.3503 106.741 74.4199 106.63L73.2499 106C73.1772 106.11 73.1389 106.238 73.1399 106.37V161.23C73.1431 161.36 73.1785 161.488 73.2431 161.602C73.3077 161.715 73.3993 161.811 73.5099 161.88L73.9299 162.13C74.1356 162.221 74.369 162.229 74.5799 162.15V162.15Z" fill="black"/>
</g>
<path d="M144 76C144.033 75.6437 143.974 75.2848 143.826 74.9587C143.679 74.6325 143.449 74.3504 143.16 74.14L142.33 73.67C142.009 73.5239 141.654 73.4654 141.303 73.5005C140.952 73.5357 140.616 73.6631 140.33 73.87L78.6699 109.43C77.8309 109.978 77.1335 110.717 76.6347 111.586C76.1359 112.455 75.8498 113.429 75.7999 114.43V166.5C75.8187 166.679 75.7887 166.861 75.713 167.024C75.6373 167.188 75.5188 167.328 75.3699 167.43L75.7799 168.14L143.57 129C143.715 128.898 143.831 128.759 143.905 128.597C143.979 128.435 144.008 128.257 143.99 128.08L144 76Z" fill="#92E3A9"/>
<path opacity="0.25" d="M75.78 168.12C76.0545 167.948 76.2768 167.704 76.4231 167.415C76.5694 167.126 76.634 166.803 76.61 166.48V114.88C76.6624 113.88 76.9495 112.906 77.4481 112.037C77.9467 111.169 78.6428 110.43 79.48 109.88L141.11 74.3001C142.7 73.3901 143.99 74.1301 143.99 75.9601V128.04C144.008 128.217 143.979 128.395 143.905 128.557C143.831 128.719 143.715 128.858 143.57 128.96L75.78 168.12Z" fill="white"/>
<path d="M109.88 118.66C113.46 116.59 116.36 111.05 116.36 106.28C116.36 101.51 113.46 99.28 109.88 101.38C106.3 103.48 103.4 108.99 103.4 113.76C103.4 118.53 106.3 120.73 109.88 118.66ZM120.78 121.53C120.35 118.35 118.12 117.13 115.51 118.64L104.25 125.14C101.65 126.64 99.4198 130.43 98.9798 134.14L98.1998 140.7C98.1298 141.31 98.4598 141.7 98.8998 141.39L120.9 128.71C121.135 128.541 121.323 128.314 121.446 128.052C121.569 127.789 121.622 127.499 121.6 127.21L120.78 121.53Z" fill="#FAFAFA"/>
<path d="M190.4 146.14C189.899 146.137 189.406 146.007 188.97 145.76C188.534 145.51 188.173 145.148 187.924 144.712C187.674 144.277 187.545 143.782 187.55 143.28V79.74C187.537 79.4012 187.439 79.0711 187.263 78.7809C187.088 78.4906 186.842 78.2496 186.548 78.0807C186.254 77.9117 185.922 77.8202 185.583 77.8149C185.244 77.8095 184.909 77.8904 184.61 78.05L156 94.59L155.55 93.81L184.18 77.27C184.614 77.0193 185.107 76.8871 185.608 76.8868C186.11 76.8865 186.602 77.0181 187.037 77.2683C187.471 77.5185 187.833 77.8786 188.084 78.3124C188.336 78.7462 188.469 79.2386 188.47 79.74V143.28C188.482 143.618 188.579 143.948 188.753 144.238C188.927 144.529 189.172 144.77 189.465 144.94C189.758 145.11 190.089 145.203 190.427 145.21C190.766 145.217 191.1 145.138 191.4 144.98L219.2 128.92L219.65 129.7L191.85 145.76C191.407 146.01 190.908 146.141 190.4 146.14V146.14Z" fill="#455A64"/>
<path d="M155.75 92.08C156.75 91.5 157.58 91.97 157.58 93.14C157.549 93.7759 157.367 94.3953 157.049 94.9466C156.731 95.498 156.285 95.9654 155.75 96.31C154.75 96.9 153.92 96.42 153.92 95.31C153.947 94.6651 154.127 94.0358 154.445 93.4742C154.763 92.9126 155.211 92.4347 155.75 92.08V92.08Z" fill="#455A64"/>
<path d="M219.4 127.2C220.4 126.61 221.23 127.08 221.23 128.2C221.199 128.836 221.017 129.455 220.699 130.007C220.38 130.558 219.935 131.025 219.4 131.37C218.4 131.96 217.57 131.48 217.57 130.37C217.601 129.734 217.783 129.115 218.101 128.563C218.419 128.012 218.865 127.545 219.4 127.2Z" fill="#455A64"/>
<path d="M155.75 206.24C156.75 205.66 157.58 206.13 157.58 207.3C157.544 207.935 157.359 208.552 157.041 209.102C156.724 209.653 156.281 210.121 155.75 210.47C154.75 211.05 153.92 210.58 153.92 209.41C153.951 208.774 154.133 208.155 154.451 207.603C154.769 207.052 155.215 206.585 155.75 206.24V206.24Z" fill="#455A64"/>
<path d="M219.4 148.33C220.4 147.75 221.23 148.22 221.23 149.39C221.199 150.026 221.017 150.645 220.699 151.197C220.38 151.748 219.935 152.215 219.4 152.56C218.4 153.15 217.57 152.67 217.57 151.51C217.605 150.874 217.788 150.254 218.106 149.702C218.424 149.15 218.867 148.68 219.4 148.33V148.33Z" fill="#455A64"/>
<path d="M156 208.74L155.55 207.96L184.9 190.96C185.713 190.491 186.388 189.816 186.859 189.003C187.329 188.191 187.578 187.269 187.58 186.33V171.94C187.579 170.844 187.867 169.766 188.414 168.817C188.962 167.867 189.75 167.078 190.7 166.53L219.21 150.06L219.66 150.84L191.15 167.31C190.338 167.78 189.664 168.455 189.195 169.268C188.727 170.08 188.48 171.002 188.48 171.94V186.38C188.479 187.477 188.189 188.555 187.64 189.504C187.09 190.454 186.3 191.242 185.35 191.79L156 208.74Z" fill="#455A64"/>
<path d="M155.75 324.62C156.75 324.04 157.58 324.51 157.58 325.68C157.549 326.316 157.367 326.935 157.049 327.487C156.731 328.038 156.285 328.505 155.75 328.85C154.75 329.43 153.92 328.96 153.92 327.79C153.951 327.154 154.133 326.535 154.451 325.983C154.769 325.432 155.215 324.965 155.75 324.62Z" fill="#455A64"/>
<path d="M219.4 190.77C220.4 190.18 221.23 190.66 221.23 191.77C221.203 192.415 221.023 193.044 220.705 193.606C220.386 194.167 219.939 194.645 219.4 195C218.4 195.58 217.57 195.11 217.57 193.94C217.601 193.304 217.783 192.685 218.101 192.133C218.419 191.582 218.865 191.115 219.4 190.77V190.77Z" fill="#455A64"/>
<path d="M156 327.13L155.55 326.35L184.89 309.35C185.703 308.878 186.378 308.201 186.849 307.387C187.319 306.573 187.567 305.65 187.57 304.71V214.22C187.57 213.123 187.858 212.044 188.406 211.093C188.953 210.142 189.741 209.351 190.69 208.8L219.2 192.34L219.65 193.12L191.14 209.59C190.328 210.06 189.654 210.735 189.185 211.548C188.717 212.36 188.47 213.282 188.47 214.22V304.76C188.468 305.858 188.177 306.937 187.628 307.888C187.079 308.839 186.29 309.629 185.34 310.18L156 327.13Z" fill="#455A64"/>
<path d="M303.53 164.37L237.53 202.47V225.26L240.07 226.72L306.07 188.62V165.83L303.53 164.37Z" fill="#37474F"/>
<path d="M240.07 203.94L306.07 165.83V188.62L240.07 226.72V203.94Z" fill="#455A64"/>
<path d="M237.53 202.47L240.07 203.94V226.72L237.53 225.26V202.47Z" fill="#263238"/>
<path d="M271.943 199.27C271.725 199.393 271.577 199.358 271.496 199.163L268.806 191.768L268.782 191.629C268.782 191.555 268.806 191.477 268.854 191.394C268.902 191.311 268.959 191.251 269.023 191.214L269.65 190.857C269.803 190.77 269.912 190.791 269.976 190.921L272.329 197.454L274.693 188.236C274.709 188.172 274.746 188.095 274.802 188.008C274.858 187.92 274.927 187.854 275.007 187.808L275.634 187.451C275.699 187.414 275.755 187.41 275.803 187.438C275.86 187.461 275.888 187.51 275.888 187.584L275.864 187.751L273.161 198.215C273.081 198.502 272.936 198.704 272.727 198.823L271.943 199.27ZM276.651 196.59C276.587 196.626 276.526 196.633 276.47 196.609C276.422 196.572 276.398 196.516 276.398 196.442C276.398 196.387 276.402 196.343 276.41 196.31L279.245 185.784C279.269 185.659 279.321 185.537 279.402 185.417C279.482 185.297 279.587 185.201 279.716 185.128L281.501 184.111C281.63 184.038 281.734 184.015 281.815 184.044C281.895 184.072 281.947 184.135 281.972 184.232L284.795 191.537L284.819 191.649C284.819 191.723 284.791 191.808 284.734 191.905C284.686 191.988 284.626 192.05 284.553 192.091L283.069 192.936C282.876 193.046 282.748 193.022 282.683 192.864L282.213 191.716L278.992 193.55L278.533 195.227C278.469 195.458 278.336 195.63 278.135 195.745L276.651 196.59ZM281.73 189.992L280.608 186.965L279.486 191.269L281.73 189.992ZM288.098 190.073C288.018 190.119 287.949 190.13 287.893 190.107C287.845 190.07 287.821 190.005 287.821 189.912V181.749L285.504 183.068C285.424 183.114 285.356 183.125 285.299 183.101C285.251 183.064 285.227 182.999 285.227 182.907V182.323C285.227 182.231 285.251 182.139 285.299 182.046C285.356 181.949 285.424 181.878 285.504 181.832L291.319 178.522C291.408 178.472 291.476 178.465 291.525 178.503C291.581 178.526 291.609 178.589 291.609 178.691V179.274C291.609 179.366 291.581 179.461 291.525 179.558C291.468 179.645 291.4 179.712 291.319 179.758L289.015 181.069V189.232C289.015 189.325 288.987 189.419 288.931 189.516C288.874 189.604 288.806 189.671 288.726 189.716L288.098 190.073ZM293.239 187.147C293.159 187.193 293.09 187.204 293.034 187.181C292.986 187.143 292.962 187.078 292.962 186.986V177.921C292.962 177.819 292.986 177.726 293.034 177.643C293.09 177.547 293.159 177.475 293.239 177.43L298.222 174.593C298.302 174.547 298.366 174.543 298.415 174.581C298.471 174.604 298.499 174.667 298.499 174.768V175.296C298.499 175.389 298.475 175.481 298.427 175.573C298.379 175.656 298.31 175.723 298.222 175.773L294.12 178.108V181.148L297.956 178.965C298.037 178.919 298.101 178.915 298.149 178.952C298.206 178.975 298.234 179.038 298.234 179.14V179.653C298.234 179.746 298.206 179.841 298.149 179.938C298.101 180.021 298.037 180.085 297.956 180.131L294.12 182.315V185.466L298.318 183.076C298.407 183.026 298.475 183.014 298.523 183.042C298.572 183.071 298.596 183.135 298.596 183.237V183.779C298.596 183.871 298.568 183.966 298.511 184.063C298.463 184.146 298.399 184.21 298.318 184.256L293.239 187.147Z" fill="#FAFAFA"/>
<path d="M301.48 59.18C290.83 68.75 281.63 68.25 275.87 63.82C270.13 74.89 260.93 86 250.28 88.75L244.19 105.17C244.19 105.17 247.45 108.93 247.45 117.92C247.418 121.685 246.915 125.431 245.95 129.07C244.84 133.5 243.41 138.07 243.41 145.75C243.41 150.94 244.09 155.99 246.72 160.59C248.324 163.353 250.619 165.652 253.38 167.26L244.13 161.92C241.22 160.304 238.801 157.93 237.13 155.05C234.51 150.45 233.82 145.4 233.82 140.21C233.82 132.55 235.25 127.96 236.36 123.52C237.333 119.886 237.841 116.142 237.87 112.38C237.87 103.38 234.61 99.63 234.61 99.63L240.69 83.21C251.34 80.47 260.54 69.35 266.29 58.28C272.04 62.71 281.29 63.21 291.89 53.65L301.48 59.18Z" fill="#92E3A9"/>
<path opacity="0.8" d="M269.65 60.23L266.28 58.28C267.313 59.0754 268.446 59.7311 269.65 60.23Z" fill="white"/>
<path opacity="0.85" d="M291.88 53.65C283.12 61.52 275.34 62.57 269.65 60.23L275.87 63.82C281.63 68.25 290.87 68.75 301.48 59.18L291.88 53.65Z" fill="white"/>
<path opacity="0.65" d="M266.28 58.28C260.53 69.35 251.33 80.47 240.68 83.21L250.28 88.75C260.93 86.01 270.13 74.89 275.87 63.82L266.28 58.28Z" fill="white"/>
<path opacity="0.55" d="M240.68 83.21L234.6 99.63L244.19 105.17L250.28 88.75L240.68 83.21Z" fill="white"/>
<path opacity="0.4" d="M246.72 160.59C244.09 155.99 243.41 150.94 243.41 145.75C243.41 138.09 244.84 133.5 245.95 129.07C246.915 125.431 247.418 121.685 247.45 117.92C247.45 108.92 244.19 105.17 244.19 105.17L234.6 99.63C234.6 99.63 237.86 103.39 237.86 112.38C237.831 116.142 237.323 119.886 236.35 123.52C235.24 127.96 233.81 132.52 233.81 140.21C233.81 145.4 234.5 150.45 237.12 155.05C238.791 157.93 241.21 160.304 244.12 161.92L253.37 167.26C250.613 165.651 248.321 163.352 246.72 160.59V160.59Z" fill="white"/>
<path d="M275.88 171.84C259.96 172.01 250.88 167.84 246.72 160.59C244.09 155.99 243.41 150.94 243.41 145.75C243.41 138.09 244.83 133.5 245.95 129.06C246.919 125.425 247.426 121.682 247.46 117.92C247.46 108.92 244.2 105.18 244.2 105.18L250.27 88.7501C260.93 86.0101 270.13 74.8901 275.88 63.8201C281.62 68.2501 290.82 68.7501 301.48 59.1801L307.56 68.6001C305.474 73.8546 304.369 79.4471 304.3 85.1001C304.238 88.2984 304.75 91.482 305.81 94.5001C307.631 98.8521 308.494 103.545 308.34 108.26C308.315 114.626 307.185 120.94 305 126.92C300.9 138.92 291.79 153.64 275.88 171.84Z" fill="#92E3A9"/>
<path opacity="0.75" d="M275.88 171.84C259.96 172.01 250.88 167.84 246.72 160.59C244.09 155.99 243.41 150.94 243.41 145.75C243.41 138.09 244.83 133.5 245.95 129.06C246.919 125.425 247.426 121.682 247.46 117.92C247.46 108.92 244.2 105.18 244.2 105.18L250.27 88.7501C260.93 86.0101 270.13 74.8901 275.88 63.8201C281.62 68.2501 290.82 68.7501 301.48 59.1801L307.56 68.6001C305.474 73.8546 304.369 79.4471 304.3 85.1001C304.238 88.2984 304.75 91.482 305.81 94.5001C307.631 98.8521 308.494 103.545 308.34 108.26C308.315 114.626 307.185 120.94 305 126.92C300.9 138.92 291.79 153.64 275.88 171.84Z" fill="white"/>
<path opacity="0.75" d="M274 167.7C261.68 167.56 253.71 164.48 250.32 158.54C248.41 155.19 247.55 151.24 247.55 145.75C247.545 140.953 248.219 136.179 249.55 131.57L249.94 130.07C250.996 126.106 251.544 122.023 251.57 117.92C251.57 111.37 250 107.08 248.76 104.71L253.42 92.1C264.82 88.1 273.06 76.88 277.42 69.5C279.773 70.4988 282.304 71.0091 284.86 71C290.01 71 295.25 69.08 300.47 65.29L302.92 69.09C301.137 74.239 300.195 79.6415 300.13 85.09C300.071 88.7586 300.663 92.4086 301.88 95.87C302 96.23 302.14 96.59 302.27 96.96C303.69 100.548 304.341 104.395 304.18 108.25C304.159 114.155 303.113 120.012 301.09 125.56C297.06 137.39 287.93 151.56 274 167.7Z" fill="#92E3A9"/>
<path opacity="0.4" d="M274 167.7C261.68 167.56 253.71 164.48 250.32 158.54C248.41 155.19 247.55 151.24 247.55 145.75C247.545 140.953 248.219 136.179 249.55 131.57L249.94 130.07C250.996 126.106 251.544 122.023 251.57 117.92C251.57 111.37 250 107.08 248.76 104.71L253.42 92.1C264.82 88.1 273.06 76.88 277.42 69.5C279.773 70.4988 282.304 71.0091 284.86 71C290.01 71 295.25 69.08 300.47 65.29L302.92 69.09C301.137 74.239 300.195 79.6415 300.13 85.09C300.071 88.7586 300.663 92.4086 301.88 95.87C302 96.23 302.14 96.59 302.27 96.96C303.69 100.548 304.341 104.395 304.18 108.25C304.159 114.155 303.113 120.012 301.09 125.56C297.06 137.39 287.93 151.56 274 167.7Z" fill="white"/>
<path opacity="0.15" d="M274 167.7C261.68 167.56 253.71 164.48 250.32 158.54C248.41 155.19 247.55 151.24 247.55 145.75C247.545 140.953 248.219 136.179 249.55 131.57L249.94 130.07C250.996 126.106 251.544 122.023 251.57 117.92C251.57 111.37 250 107.08 248.76 104.71L253.42 92.1C264.82 88.1 273.06 76.88 277.42 69.5C279.773 70.4988 282.304 71.0091 284.86 71C290.01 71 295.25 69.08 300.47 65.29L302.92 69.09C301.137 74.239 300.195 79.6415 300.13 85.09C300.071 88.7586 300.663 92.4086 301.88 95.87C302 96.23 302.14 96.59 302.27 96.96C303.69 100.548 304.341 104.395 304.18 108.25C304.159 114.155 303.113 120.012 301.09 125.56C297.06 137.39 287.93 151.56 274 167.7Z" fill="#92E3A9"/>
<path opacity="0.8" d="M253.13 162C257.33 165.7 264.31 167.64 273.99 167.75L267.81 164.23C262.827 164.305 257.866 163.551 253.13 162V162Z" fill="white"/>
<path opacity="0.25" d="M299.74 67.23L302.95 69.09L300.5 65.29L299.11 66.26L299.74 67.23Z" fill="#92E3A9"/>
<path d="M298.69 94C297.475 90.5417 296.882 86.8952 296.94 83.23C297.007 77.7816 297.949 72.3793 299.73 67.23L299.11 66.23C294.34 69.38 289.58 70.97 284.89 70.97C282.334 70.979 279.803 70.4687 277.45 69.47C273.08 76.85 264.84 88.11 253.45 92.07L248.79 104.68C250.03 107.05 251.6 111.34 251.6 117.89C251.587 122.001 251.049 126.094 250 130.07L249.61 131.57C248.279 136.179 247.606 140.953 247.61 145.75C247.61 151.24 248.47 155.19 250.38 158.54C251.386 160.263 252.75 161.75 254.38 162.9C258.5 164.78 263.983 165.763 270.83 165.85C284.77 149.7 293.9 135.53 297.97 123.72C299.969 118.164 300.994 112.305 301 106.4C301.161 102.544 300.51 98.6982 299.09 95.11L298.69 94Z" fill="#92E3A9"/>
<path d="M281.6 134.13L266.68 142.75L268.99 115.75C267.2 114.75 266.07 112.48 266.07 109.14C266.07 103.2 269.68 96.29 274.14 93.72C278.6 91.15 282.22 93.87 282.22 99.82C282.132 103.352 281.122 106.799 279.29 109.82L281.6 134.13Z" fill="#92E3A9"/>
<path opacity="0.25" d="M281.6 134.13L266.68 142.75L268.99 115.75C267.2 114.75 266.07 112.48 266.07 109.14C266.07 103.2 269.68 96.29 274.14 93.72C278.6 91.15 282.22 93.87 282.22 99.82C282.132 103.352 281.122 106.799 279.29 109.82L281.6 134.13Z" fill="black"/>
<path opacity="0.15" d="M281.6 134.13L268.08 126.33L266.68 142.75L281.6 134.13Z" fill="black"/>
<path opacity="0.15" d="M274.14 93.7201C271.22 95.4001 268.67 98.9401 267.26 102.85L279.26 109.85C281.092 106.829 282.102 103.382 282.19 99.8501C282.22 93.8701 278.6 91.1401 274.14 93.7201Z" fill="black"/>
<path d="M250.32 377.58C235.38 368.96 211.18 368.96 196.24 377.58C189.99 381.19 186.07 383.58 185.06 388.32V393.2C185.188 397.178 186.851 400.951 189.7 403.73L122.7 437.56V442.42L130.21 446.75H151.21L159.45 442V437.4L166.02 433.73L175.15 432.93L178.79 430.83L179.16 422.67L185.91 418.77L195.8 421.01L208.68 413.57C222.54 416.89 239.1 415.31 250.37 408.8C257.86 404.48 261.59 398.8 261.57 393.14V388.32C260.84 383.25 257 381.46 250.32 377.58ZM240.99 391.58C238.615 392.779 235.991 393.404 233.33 393.404C230.669 393.404 228.045 392.779 225.67 391.58C221.44 389.13 221.44 385.17 225.67 382.73C228.045 381.531 230.669 380.906 233.33 380.906C235.991 380.906 238.615 381.531 240.99 382.73C245.22 385.13 245.22 389.09 241 391.54L240.99 391.58Z" fill="#92E3A9"/>
<path opacity="0.2" d="M250.32 377.58C235.38 368.96 211.18 368.96 196.24 377.58C189.99 381.19 186.07 383.58 185.06 388.32V393.2C185.188 397.178 186.851 400.951 189.7 403.73L122.7 437.56V442.42L130.21 446.75H151.21L159.45 442V437.4L166.02 433.73L175.15 432.93L178.79 430.83L179.16 422.67L185.91 418.77L195.8 421.01L208.68 413.57C222.54 416.89 239.1 415.31 250.37 408.8C257.86 404.48 261.59 398.8 261.57 393.14V388.32C260.84 383.25 257 381.46 250.32 377.58ZM240.99 391.58C238.615 392.779 235.991 393.404 233.33 393.404C230.669 393.404 228.045 392.779 225.67 391.58C221.44 389.13 221.44 385.17 225.67 382.73C228.045 381.531 230.669 380.906 233.33 380.906C235.991 380.906 238.615 381.531 240.99 382.73C245.22 385.13 245.22 389.09 241 391.54L240.99 391.58Z" fill="black"/>
<path d="M250.32 372.71C235.38 364.09 211.18 364.09 196.24 372.71C183.97 379.8 181.81 390.49 189.7 398.86L122.7 437.56L130.21 441.89H151.21L159.45 437.13L158.89 432.84L166.02 428.84L175.15 428.04L178.79 425.94L179.16 417.77L185.91 413.88L195.8 416.11L208.68 408.68C222.54 412 239.1 410.41 250.37 403.9C265.25 395.31 265.25 381.33 250.32 372.71ZM240.99 386.71C238.615 387.909 235.991 388.534 233.33 388.534C230.669 388.534 228.045 387.909 225.67 386.71C221.44 384.27 221.44 380.31 225.67 377.87C228.043 376.662 230.667 376.032 233.33 376.032C235.993 376.032 238.617 376.662 240.99 377.87C245.22 380.27 245.22 384.23 241 386.67L240.99 386.71Z" fill="#92E3A9"/>
<path opacity="0.3" d="M250.32 372.71C235.38 364.09 211.18 364.09 196.24 372.71C183.97 379.8 181.81 390.49 189.7 398.86L122.7 437.56L130.21 441.89H151.21L159.45 437.13L158.89 432.84L166.02 428.84L175.15 428.04L178.79 425.94L179.16 417.77L185.91 413.88L195.8 416.11L208.68 408.68C222.54 412 239.1 410.41 250.37 403.9C265.25 395.31 265.25 381.33 250.32 372.71ZM240.99 386.71C238.615 387.909 235.991 388.534 233.33 388.534C230.669 388.534 228.045 387.909 225.67 386.71C221.44 384.27 221.44 380.31 225.67 377.87C228.043 376.662 230.667 376.032 233.33 376.032C235.993 376.032 238.617 376.662 240.99 377.87C245.22 380.27 245.22 384.23 241 386.67L240.99 386.71Z" fill="white"/>
<path d="M223.28 406C213.83 406 205.01 403.91 198.44 400.13C192.72 396.82 189.44 392.52 189.44 388.32C189.44 384.12 192.72 379.82 198.44 376.52C205.01 372.73 213.83 370.64 223.28 370.64C232.73 370.64 241.55 372.73 248.12 376.52C253.84 379.82 257.12 384.13 257.12 388.32C257.12 392.51 253.84 396.82 248.12 400.13C241.55 403.91 232.73 406 223.28 406ZM223.28 372C214.07 372 205.49 374 199.13 377.69C193.85 380.74 190.82 384.61 190.82 388.3C190.82 391.99 193.82 395.86 199.13 398.92C205.49 402.59 214.06 404.61 223.28 404.61C232.5 404.61 241.07 402.61 247.43 398.92C252.71 395.86 255.74 392 255.74 388.3C255.74 384.6 252.74 380.74 247.43 377.69C241.07 374 232.49 372 223.28 372Z" fill="#92E3A9"/>
<path opacity="0.1" d="M237 408.91V413.78C227.627 415.811 217.921 415.739 208.58 413.57V408.71C217.921 410.881 227.629 410.949 237 408.91Z" fill="black"/>
<path opacity="0.1" d="M195.74 416.14V421.01L185.85 418.77V413.91L195.74 416.14Z" fill="black"/>
<path opacity="0.1" d="M179.1 417.81V422.67L178.73 430.83V425.97L179.1 417.81Z" fill="black"/>
<path opacity="0.1" d="M175.09 428.07V432.93L165.96 433.74V428.87L175.09 428.07Z" fill="black"/>
<path opacity="0.1" d="M151.15 441.89H130.2V446.76H151.15V441.89Z" fill="black"/>
<path opacity="0.15" d="M122.69 437.56V442.42L130.2 446.75V441.89L126.91 439.99V442.09L125.09 441.04V438.92L122.69 437.56Z" fill="black"/>
<path d="M125.09 438.92L126.91 439.99V442.09L125.09 441.04V438.92Z" fill="#92E3A9"/>
<path opacity="0.3" d="M125.09 438.92L126.91 439.99V442.09L125.09 441.04V438.92Z" fill="white"/>
<path d="M125.09 438.92V441.04L193.81 401.36L192 400.29L125.09 438.92Z" fill="#92E3A9"/>
<path opacity="0.15" d="M192 400.29V402.41L193.81 401.36L192 400.29Z" fill="black"/>
<path d="M345.9 388.21L336.47 369.63L317.47 380.74L340.87 408.36C340.87 408.36 352.46 407.29 354.33 401.24C356.2 395.19 349.09 390.22 345.9 388.21Z" fill="#C8856A"/>
<path d="M359.27 395.51C360.331 396.28 361.226 397.256 361.9 398.38C362.67 399.52 362.43 405.02 363.16 407.57C363.89 410.12 364.45 410.8 365.67 414C367.02 417.54 369.52 420.78 366.67 429.89C363.82 439 359.32 443.35 355.5 445.57C354.079 446.306 352.501 446.69 350.9 446.69C350.9 446.69 345.9 444.8 346.66 441.84C347.42 438.88 359.27 395.51 359.27 395.51Z" fill="#263238"/>
<path d="M337.32 405.51C337.46 406.45 338.77 407.89 339.32 408.66C341.12 411.23 341.94 414.72 342.56 417.76C345.51 432.18 339.78 439.51 347.56 444.92C349.81 446.34 354.48 445.92 361.56 436.86C365.19 432.22 367.25 422.67 365.84 418.35C364.43 414.03 362.49 411.21 361.58 407.89C360.67 404.57 361.15 398.36 359.31 395.51C358.12 393.898 356.582 392.575 354.81 391.64C353.43 390.8 350.42 389.7 349.02 388.9C347.62 388.1 346.84 387.19 345.94 388.21L347.56 390.21C350.09 393.72 349.38 394.21 349.32 396.09C349.431 398.097 349.746 400.087 350.26 402.03C348.46 399.76 347.73 397.78 345.76 398.13C343.79 398.48 343.56 398.38 340.76 401.02C337.96 403.66 337.2 404.68 337.32 405.51Z" fill="#455A64"/>
<path d="M361.52 436.86C365.15 432.22 367.21 422.67 365.8 418.35C365.325 416.924 364.77 415.525 364.14 414.16C364.2 414.45 364.28 414.75 364.32 415C364.41 415.56 364.49 416.12 364.54 416.68C364.871 418.889 364.623 421.146 363.82 423.23C363.01 425.02 361.12 429.53 358.7 429.63C357.32 429.69 356.16 428.34 355.63 426.81C355.41 426.16 355.04 424.41 355.04 424.41C352.814 424.924 350.687 425.795 348.74 426.99C345.22 429.31 345.34 429.83 345.34 429.83C345.553 430.846 345.593 431.891 345.46 432.92C345.255 434.028 344.808 435.076 344.15 435.99C343.881 436.267 343.579 436.509 343.25 436.71C343.4 440.04 344.25 442.65 347.52 444.92C349.77 446.34 354.44 446 361.52 436.86Z" fill="#37474F"/>
<path d="M342.54 417.76C343.302 421.553 343.604 425.425 343.44 429.29C344.77 432.98 345.93 432.87 346.09 430.96C346.25 429.05 343.7 421.11 341.8 414.55C342.09 415.63 342.33 416.73 342.54 417.76Z" fill="#37474F"/>
<path d="M351.32 394.65C351.479 392.78 350.98 390.913 349.91 389.37C349.56 389.21 349.24 389.05 348.98 388.9C347.46 388.04 346.8 387.19 345.9 388.21L347.52 390.21C350.05 393.72 349.34 394.21 349.28 396.09C349.391 398.097 349.706 400.087 350.22 402.03C351.69 408.29 353.03 410.38 353.73 416.3C354.43 422.22 353.24 426.18 354.07 426.52C354.9 426.86 356.59 426.18 356.9 421.44C357.21 416.7 355.11 408.74 353.64 404.97C352.17 401.2 351 397.17 351.32 394.65Z" fill="#37474F"/>
<path d="M355.46 424.82C355.378 424.903 355.274 424.962 355.16 424.99C351.01 425.84 348.8 426.89 345.71 430.53C345.606 430.645 345.462 430.716 345.307 430.727C345.153 430.738 344.999 430.689 344.88 430.59C344.761 430.489 344.687 430.345 344.674 430.189C344.661 430.034 344.71 429.88 344.81 429.76C348.07 425.92 350.51 424.76 354.92 423.83C355.074 423.8 355.233 423.832 355.364 423.918C355.495 424.004 355.587 424.137 355.62 424.29C355.639 424.385 355.634 424.483 355.606 424.575C355.578 424.667 355.528 424.752 355.46 424.82V424.82Z" fill="#EBEBEB"/>
<path d="M354.71 419.89C354.631 419.973 354.531 420.032 354.42 420.06C350.12 421.06 347.74 422.27 344.42 426.06C344.371 426.123 344.309 426.176 344.238 426.214C344.168 426.252 344.09 426.275 344.01 426.281C343.931 426.288 343.85 426.278 343.774 426.252C343.699 426.226 343.629 426.184 343.57 426.13C343.509 426.078 343.459 426.015 343.422 425.944C343.386 425.872 343.363 425.794 343.357 425.715C343.35 425.635 343.36 425.554 343.384 425.478C343.409 425.402 343.448 425.331 343.5 425.27C346.96 421.27 349.5 419.89 354.11 418.84C354.235 418.813 354.366 418.828 354.483 418.88C354.599 418.933 354.696 419.022 354.759 419.134C354.821 419.245 354.846 419.374 354.83 419.501C354.815 419.629 354.758 419.747 354.67 419.84L354.71 419.89Z" fill="#EBEBEB"/>
<path d="M354.82 414.46C354.729 414.55 354.615 414.613 354.49 414.64C349.76 415.74 346.98 417.21 343.36 421.44C343.244 421.573 343.08 421.655 342.904 421.668C342.728 421.681 342.554 421.625 342.42 421.51C342.287 421.394 342.205 421.23 342.192 421.054C342.179 420.878 342.236 420.704 342.35 420.57C346.16 416.13 349.17 414.51 354.19 413.34C354.362 413.301 354.543 413.332 354.693 413.425C354.843 413.519 354.95 413.668 354.99 413.84C355.014 413.949 355.011 414.063 354.982 414.171C354.952 414.279 354.897 414.378 354.82 414.46V414.46Z" fill="#EBEBEB"/>
<path d="M354 409.82C353.915 409.912 353.803 409.975 353.68 410C349.04 411.07 346.35 412.48 342.8 416.63C342.748 416.707 342.68 416.771 342.602 416.82C342.523 416.869 342.435 416.9 342.343 416.913C342.251 416.925 342.158 416.918 342.069 416.892C341.98 416.866 341.898 416.822 341.827 416.762C341.756 416.702 341.699 416.628 341.659 416.544C341.619 416.46 341.597 416.369 341.595 416.277C341.592 416.184 341.609 416.092 341.645 416.007C341.68 415.921 341.733 415.844 341.8 415.78C345.53 411.43 348.47 409.86 353.39 408.78C353.474 408.759 353.56 408.756 353.645 408.769C353.73 408.783 353.811 408.814 353.884 408.859C353.957 408.905 354.02 408.965 354.069 409.036C354.118 409.106 354.153 409.186 354.17 409.27C354.186 409.369 354.179 409.47 354.149 409.565C354.12 409.66 354.069 409.748 354 409.82V409.82Z" fill="#EBEBEB"/>
<path d="M352.33 405.3C352.243 405.39 352.132 405.453 352.01 405.48C347.37 406.56 344.68 407.97 341.13 412.12C341.012 412.232 340.857 412.297 340.694 412.301C340.531 412.305 340.372 412.25 340.248 412.144C340.124 412.039 340.044 411.891 340.022 411.73C340 411.568 340.039 411.405 340.13 411.27C343.87 406.91 346.79 405.35 351.71 404.21C351.848 404.175 351.994 404.186 352.125 404.241C352.256 404.297 352.366 404.394 352.436 404.518C352.507 404.642 352.534 404.786 352.515 404.927C352.496 405.068 352.431 405.199 352.33 405.3V405.3Z" fill="#EBEBEB"/>
<path d="M340.78 389.7L328.49 399.75L321.54 404.11L329.47 419.11L351.83 408.41L340.78 389.7Z" fill="#C8856A"/>
<path d="M365.82 322.61C365.82 322.61 321.09 315.19 301.95 315.32C282.42 315.44 280.61 330.1 285.5 339.08C294.86 356.28 327.39 392.75 327.39 392.75C327.39 392.75 338.32 387.75 341.68 378.29L334.25 361.29L357.61 368.77L369.53 360.77L370.53 354.68L365.82 322.61Z" fill="#92E3A9"/>
<path opacity="0.4" d="M365.82 322.61C365.82 322.61 321.09 315.19 301.95 315.32C282.42 315.44 280.61 330.1 285.5 339.08C294.86 356.28 327.39 392.75 327.39 392.75C327.39 392.75 338.32 387.75 341.68 378.29L334.25 361.29L357.61 368.77L369.53 360.77L370.53 354.68L365.82 322.61Z" fill="black"/>
<path d="M365.82 322.61L443.24 335.5C443.24 335.5 444.01 354.03 436.72 370.63C434.141 376.461 430.13 381.546 425.06 385.413C419.99 389.281 414.026 391.804 407.72 392.75C399.954 393.81 392.136 394.444 384.3 394.65C380.53 397.544 376.419 399.965 372.06 401.86C365.93 404.3 339 415.6 339 415.6C339 415.6 331.42 409.19 332.17 395.83L357.64 368.75C363.4 361.75 365.42 359.45 368.64 357.87C363.68 348.37 365.27 333.07 365.82 322.61Z" fill="#92E3A9"/>
<path opacity="0.3" d="M365.82 322.61L443.24 335.5C443.24 335.5 444.01 354.03 436.72 370.63C434.141 376.461 430.13 381.546 425.06 385.413C419.99 389.281 414.026 391.804 407.72 392.75C399.954 393.81 392.136 394.444 384.3 394.65C380.53 397.544 376.419 399.965 372.06 401.86C365.93 404.3 339 415.6 339 415.6C339 415.6 331.42 409.19 332.17 395.83L357.64 368.75C363.4 361.75 365.42 359.45 368.64 357.87C363.68 348.37 365.27 333.07 365.82 322.61Z" fill="black"/>
<g opacity="0.3">
<path opacity="0.3" d="M330.36 346.78C333.955 352.052 337.247 357.524 340.22 363.17L334.22 361.27C327.5 345.27 326.12 340.58 315.37 333.08C315.4 333.08 323.11 336 330.36 346.78Z" fill="black"/>
<path opacity="0.3" d="M390 385.67C390 385.67 390.09 389.6 384.29 394.67C380.52 397.564 376.409 399.985 372.05 401.88C365.93 404.3 339 415.6 339 415.6C339 415.6 337.53 414.92 335.43 410.96C342.43 409.31 365.37 400.32 372.79 397.18C386 391.58 390 385.67 390 385.67Z" fill="black"/>
<path opacity="0.3" d="M361.46 364.21C358.85 367.27 357.61 368.75 357.61 368.75L353.87 367.52C353.87 367.52 360.5 360.31 364.77 356.52C365.513 355.791 366.335 355.147 367.22 354.6C365.06 348.93 365.14 339.6 365.14 339.6C365.86 344.531 367.802 349.202 370.79 353.19C374.321 352.362 377.991 352.321 381.54 353.07C389.03 354.32 410.74 358.02 410.74 358.02C410.74 358.02 389.93 356.14 379.1 355.72C368.27 355.3 364.07 361.15 361.46 364.21Z" fill="black"/>
</g>
<path d="M293.36 411.92C288.1 414 284.86 416.08 282.43 419.26C280 422.44 279.25 425.65 281.56 429.5C283.87 433.35 288.11 437.86 293.15 437.57C298.19 437.28 301.29 436.02 305.96 433.49L293.36 411.92Z" fill="#263238"/>
<path d="M335.4 416.37C335.48 417.95 328.83 421.09 321.93 424.37C314.53 427.9 312.71 430.2 306.67 433.17C299.77 436.57 297.15 436.77 291.79 435.28C286.43 433.79 279.79 426.12 284.43 419.07C288.18 413.33 293.04 411.75 300.43 409.81C306.295 408.327 312.057 406.463 317.68 404.23C323.01 402.16 327.4 398.45 328.5 399.74C327.74 400.1 322.17 403.54 323.22 404.48C323.48 404.96 324.27 404.81 325.64 404.24C325.934 404.093 326.257 404.008 326.585 403.993C326.914 403.977 327.243 404.031 327.55 404.15C328.168 404.55 328.65 405.129 328.93 405.81C329.569 407.183 330.127 408.592 330.6 410.03C331.01 411.03 330.84 410.44 331.23 411.43C331.62 412.42 332.48 414.19 332.37 415.2C332.31 415.81 331.86 416 331.37 416.3C330.88 416.6 330.25 416.96 329.8 417.3C329.63 417.43 329.31 417.89 329.41 418.12C329.51 418.35 330.54 418.32 330.94 418.12C331.34 417.92 332.01 417.79 332.5 417.61C332.99 417.43 334.18 416.94 335.4 416.37Z" fill="#455A64"/>
<path d="M309 432C308 432.5 301.74 435.41 299.78 433.67C297.65 431.78 302.67 428.76 302.67 428.76C302.67 428.76 303.44 424.04 297.74 417.08C296.74 417.85 292.63 417.81 292.68 415.39C292.73 412.97 299.68 409.99 299.74 409.95C292.68 411.84 288.03 413.46 284.39 419.04C279.79 426.09 286.39 433.76 291.75 435.25C297.11 436.74 299.75 436.54 306.63 433.14C307.36 432.85 308.43 432.4 309 432Z" fill="#37474F"/>
<path d="M302 428.33C299.39 429.2 301.18 431.58 305 430.81C310.73 429.65 315.5 426.4 321.88 424.38C328.78 421.09 335.81 418.02 335.36 416.28C334.13 416.74 331.48 417.84 331.48 417.84C330.97 418.06 329.63 418.56 329.63 418.56C324.4 420.82 318.63 424.45 312.95 425.99C308 427.34 304.65 427.46 302 428.33Z" fill="#37474F"/>
<path d="M298.16 418C300.55 416.62 300.96 415.43 305.65 413.28C310.34 411.13 318.27 406.52 323.17 403.66C325.01 402.443 326.786 401.131 328.49 399.73C327.68 398.8 324.69 399.65 321.7 401.54C318.71 403.43 316.89 404.62 313.93 406.17C308.17 409.63 301.61 411.96 298.32 414.08C295.03 416.2 295.76 419.4 298.16 418Z" fill="#37474F"/>
<path d="M297.8 417.38C297.833 417.461 297.881 417.536 297.94 417.6C300.57 420.913 302.13 424.949 302.41 429.17C302.422 429.34 302.496 429.5 302.617 429.62C302.739 429.74 302.9 429.811 303.07 429.82C303.15 429.814 303.228 429.792 303.299 429.754C303.37 429.716 303.432 429.664 303.482 429.602C303.532 429.539 303.568 429.466 303.589 429.388C303.609 429.31 303.613 429.229 303.6 429.15C302.87 421.23 298.95 416.93 298.73 416.69C298.678 416.631 298.613 416.583 298.541 416.55C298.468 416.517 298.39 416.5 298.31 416.5C298.231 416.5 298.152 416.517 298.08 416.55C298.007 416.583 297.943 416.631 297.89 416.69C297.813 416.786 297.764 416.901 297.749 417.022C297.733 417.144 297.751 417.268 297.8 417.38V417.38Z" fill="#F0F0F0"/>
<path d="M302.44 414C302.47 414.069 302.511 414.133 302.56 414.19C305.572 418.183 307.482 422.897 308.1 427.86C308.117 428.027 308.195 428.182 308.318 428.297C308.441 428.411 308.602 428.476 308.77 428.48C308.851 428.473 308.93 428.449 309.001 428.41C309.072 428.37 309.133 428.316 309.182 428.251C309.23 428.185 309.264 428.11 309.281 428.031C309.298 427.952 309.297 427.869 309.28 427.79C308.651 422.524 306.613 417.525 303.38 413.32C303.332 413.256 303.271 413.204 303.201 413.166C303.131 413.128 303.053 413.105 302.974 413.1C302.894 413.094 302.814 413.105 302.74 413.133C302.665 413.161 302.597 413.204 302.54 413.26C302.453 413.36 302.397 413.484 302.379 413.615C302.362 413.747 302.383 413.88 302.44 414V414Z" fill="#F0F0F0"/>
<path d="M312.66 427.37C312.706 427.483 312.781 427.581 312.878 427.655C312.974 427.729 313.089 427.776 313.21 427.79C313.291 427.79 313.37 427.774 313.444 427.742C313.518 427.709 313.584 427.662 313.639 427.603C313.694 427.544 313.735 427.474 313.761 427.397C313.787 427.321 313.797 427.24 313.79 427.16C313.51 418.78 308.11 410.92 307.86 410.65C307.809 410.589 307.744 410.54 307.672 410.506C307.599 410.473 307.52 410.455 307.44 410.455C307.36 410.455 307.281 410.473 307.209 410.506C307.136 410.54 307.072 410.589 307.02 410.65C306.917 410.786 306.865 410.954 306.875 411.124C306.884 411.294 306.953 411.456 307.07 411.58C307.13 411.64 312.35 419.32 312.59 427.12C312.601 427.206 312.625 427.291 312.66 427.37V427.37Z" fill="#F0F0F0"/>
<path d="M317 424.63C317.043 424.742 317.116 424.84 317.211 424.912C317.307 424.985 317.421 425.029 317.54 425.04C317.62 425.045 317.699 425.032 317.773 425.003C317.848 424.975 317.915 424.93 317.971 424.874C318.027 424.817 318.07 424.749 318.097 424.674C318.125 424.599 318.136 424.519 318.13 424.44C317.952 418.642 315.739 413.091 311.88 408.76C311.827 408.7 311.763 408.653 311.69 408.62C311.618 408.587 311.539 408.57 311.46 408.57C311.381 408.57 311.302 408.587 311.23 408.62C311.157 408.653 311.093 408.7 311.04 408.76C310.944 408.903 310.903 409.075 310.923 409.245C310.943 409.416 311.024 409.574 311.15 409.69C314.68 413.762 316.718 418.915 316.93 424.3C316.935 424.413 316.958 424.525 317 424.63V424.63Z" fill="#F0F0F0"/>
<path d="M322.51 422.28C322.554 422.389 322.626 422.485 322.719 422.557C322.812 422.629 322.923 422.675 323.04 422.69C323.12 422.696 323.2 422.685 323.275 422.657C323.35 422.629 323.418 422.584 323.475 422.527C323.531 422.47 323.574 422.401 323.601 422.326C323.628 422.25 323.638 422.17 323.63 422.09C323.63 413.38 317.47 406.63 317.19 406.36C317.138 406.301 317.075 406.253 317.003 406.22C316.932 406.188 316.854 406.171 316.775 406.171C316.696 406.171 316.619 406.188 316.547 406.22C316.475 406.253 316.412 406.301 316.36 406.36C316.259 406.498 316.211 406.669 316.226 406.84C316.24 407.011 316.317 407.171 316.44 407.29C316.5 407.35 322.44 413.88 322.44 421.97C322.44 422.077 322.464 422.183 322.51 422.28V422.28Z" fill="#EBEBEB"/>
<path d="M364.84 256.66C361.15 262.18 347.1 281.37 347.1 281.37C342.99 276.62 338.1 270.77 333.99 265.7C328.55 259.05 326.39 257.7 323.5 247.3C322.78 244.69 320.79 241.75 319.84 240.18C318.469 237.811 317.541 235.212 317.1 232.51C316.95 231.18 313.55 231.56 312.92 235.85C312.5 238.06 313.23 240.24 313.23 242.43C313.23 243.1 313.6 244.51 312.76 244.43C307.69 243.7 303.96 237.94 297.9 233.86C295.71 232.4 290.11 230.86 288.9 234.06C288.8 234.83 289.35 235.36 289.56 236.06C289.575 236.153 289.575 236.247 289.56 236.34C289.565 236.676 289.532 237.012 289.46 237.34C289.32 237.98 289.05 238.58 288.92 239.22C288.72 240.195 288.839 241.208 289.26 242.11C289.657 242.743 289.992 243.413 290.26 244.11C290.062 245.468 290.249 246.853 290.8 248.11C291.321 249.211 291.969 250.248 292.73 251.2C293.141 251.882 293.476 252.606 293.73 253.36C294.37 254.577 295.204 255.682 296.2 256.63C299.413 260.207 303.117 263.311 307.2 265.85C309.07 266.94 311.06 267.85 312.83 269.12C314.148 270.052 315.324 271.17 316.32 272.44C317.527 274.085 318.594 275.827 319.51 277.65V277.75C327.63 291.84 328.35 297.04 336.9 308.2C344.12 317.13 349.15 313.34 360.05 302.84C373.45 289.93 380.62 282.5 380.62 282.5L384 239.59C376.08 242.24 368.54 251.14 364.84 256.66Z" fill="#C8856A"/>
<path d="M313.38 248C312.992 250.224 313.129 252.508 313.78 254.669C314.431 256.831 315.578 258.81 317.13 260.45C312.5 259.21 310.63 253.24 313.38 248Z" fill="#AF6152"/>
<path d="M388.1 238.26C380.66 239.52 374.87 242.46 365.51 254.84C356.15 267.22 347.1 280.71 347.1 280.71L339.57 272.47C341.96 273.85 341.57 284.4 337.7 289.18C335.275 292.078 331.916 294.04 328.2 294.73C330.362 298.914 332.804 302.946 335.51 306.8C339.34 312.05 341.79 313.39 345.07 313.39C348.35 313.39 351.95 311.5 360.51 303.39C369.07 295.28 382.66 282.27 382.66 282.27L388.1 238.26Z" fill="#92E3A9"/>
<path opacity="0.55" d="M388.1 238.26C380.66 239.52 374.87 242.46 365.51 254.84C356.15 267.22 347.1 280.71 347.1 280.71L339.57 272.47C341.96 273.85 341.57 284.4 337.7 289.18C335.275 292.078 331.916 294.04 328.2 294.73C330.362 298.914 332.804 302.946 335.51 306.8C339.34 312.05 341.79 313.39 345.07 313.39C348.35 313.39 351.95 311.5 360.51 303.39C369.07 295.28 382.66 282.27 382.66 282.27L388.1 238.26Z" fill="white"/>
<path opacity="0.35" d="M347.1 280.71C351.1 285.11 353.89 292.78 353.61 296.71C355.28 292.08 353.61 284.2 348.61 278.51L347.1 280.71Z" fill="#92E3A9"/>
<path opacity="0.35" d="M331.47 300.37C332.407 300.169 333.324 299.884 334.21 299.52C336.022 298.781 337.675 297.702 339.08 296.34C341.779 293.745 343.538 290.325 344.08 286.62C344.08 286.43 344.31 286.49 344.3 286.62C344.094 290.662 342.327 294.466 339.37 297.23C337.861 298.602 336.116 299.69 334.22 300.44C333.452 300.739 332.663 300.983 331.86 301.17L331.37 300.35L331.47 300.37Z" fill="#92E3A9"/>
<path d="M375.51 265.28C376.51 244.49 381.25 238.75 391.8 237.58L409.2 235.75C414.37 236.81 432.14 242.47 438.12 244.55C441.98 245.88 443.64 254.07 444.46 266.89C445.14 277.3 445.24 286.03 444.89 300.42C444.61 312.49 444.31 326.23 440.63 343C426.22 348.46 384.63 343.25 368.01 324.24C369.34 319.94 374.67 312.17 375.51 303.53C375 285.43 375.19 271.81 375.51 265.28Z" fill="#263238"/>
<path d="M438.51 244.28L425.51 239.7C425.51 239.7 423.16 245.17 418.12 255.7C413.08 266.23 412.91 270.94 412.44 289.23C411.97 307.52 408.62 339.67 406.44 347.09C414.5 348.21 421.44 359.89 442.18 356.27C442.18 356.27 446.53 335.09 447.18 299C447.57 280.25 447.67 249.56 438.51 244.28Z" fill="#92E3A9"/>
<path opacity="0.35" d="M438.51 244.28L425.51 239.7C425.51 239.7 423.16 245.17 418.12 255.7C413.08 266.23 412.91 270.94 412.44 289.23C411.97 307.52 408.62 339.67 406.44 347.09C414.5 348.21 421.44 359.89 442.18 356.27C442.18 356.27 446.53 335.09 447.18 299C447.57 280.25 447.67 249.56 438.51 244.28Z" fill="white"/>
<path d="M413.17 272.78C415.17 256.36 422.08 255.51 423.67 260.9C429.67 251.96 429.9 244.28 429.8 241.21C428.17 238.39 426.9 236.02 426.36 234.95C425.64 233.55 424.82 233.84 424.82 233.84L424.77 238.01C424.77 238.01 423.77 242.79 418.91 248.82C415.3 253.26 414 258.93 413.17 272.78Z" fill="#92E3A9"/>
<path opacity="0.55" d="M413.17 272.78C415.17 256.36 422.08 255.51 423.67 260.9C429.67 251.96 429.9 244.28 429.8 241.21C428.17 238.39 426.9 236.02 426.36 234.95C425.64 233.55 424.82 233.84 424.82 233.84L424.77 238.01C424.77 238.01 423.77 242.79 418.91 248.82C415.3 253.26 414 258.93 413.17 272.78Z" fill="white"/>
<path d="M401.33 238.16C393.93 241.04 388.5 249.26 386.75 260.63C385 272 383.58 301.02 382.35 309.63C381.12 318.24 375.64 333.17 375.64 333.17C375.64 333.17 366.55 329.43 364.04 322.3C368.22 316.85 372.1 309.3 372.82 302.12C373.54 294.94 372.88 272.17 373.96 263.44C375.04 254.71 375.96 242.67 386.3 238.64C390.75 236.9 401.25 236.22 401.25 236.22L401.33 238.16Z" fill="#92E3A9"/>
<path opacity="0.35" d="M401.33 238.16C393.93 241.04 388.5 249.26 386.75 260.63C385 272 383.58 301.02 382.35 309.63C381.12 318.24 375.64 333.17 375.64 333.17C375.64 333.17 366.55 329.43 364.04 322.3C368.22 316.85 372.1 309.3 372.82 302.12C373.54 294.94 372.88 272.17 373.96 263.44C375.04 254.71 375.96 242.67 386.3 238.64C390.75 236.9 401.25 236.22 401.25 236.22L401.33 238.16Z" fill="white"/>
<path d="M386 267.19C387 258.83 391.77 243.86 400.83 240.81C401.176 239.969 401.359 239.07 401.37 238.16L401.29 233.81C398.576 234.762 395.982 236.027 393.56 237.58C389.65 240.11 382.9 248.19 381.16 254.7C385 251.37 386.6 256.79 386 267.19Z" fill="#92E3A9"/>
<path opacity="0.55" d="M386 267.19C387 258.83 391.77 243.86 400.83 240.81C401.176 239.969 401.359 239.07 401.37 238.16L401.29 233.81C398.576 234.762 395.982 236.027 393.56 237.58C389.65 240.11 382.9 248.19 381.16 254.7C385 251.37 386.6 256.79 386 267.19Z" fill="white"/>
<path d="M424.76 227.31C425.76 221.46 431.63 215.38 434.28 210.31C436.83 205.4 438.36 201.59 438.1 196.96C437.94 194.22 436.23 190.5 434.2 189.71C436.6 179.54 428.98 174.77 424.93 173.79C423.026 173.382 421.152 172.848 419.32 172.19C417.12 171.26 416.63 169.48 414.86 167.96C411.81 165.35 406.65 165.26 404.67 169.19C402.67 166.54 399.88 166.6 396.67 167.39C395.319 167.689 394.131 168.491 393.349 169.633C392.568 170.775 392.25 172.172 392.46 173.54C388.2 171.13 384.26 174.12 383.86 176.63C383.56 178.48 383.95 180.05 382.73 181.7C381.35 183.57 378.73 183.52 377.99 182.01C377.54 184.64 378.56 186.65 381.41 186.52C380.925 187.247 380.605 188.071 380.472 188.935C380.339 189.799 380.397 190.681 380.64 191.52C380.979 192.576 381.631 193.504 382.51 194.181C383.389 194.858 384.452 195.252 385.56 195.31C385.85 196.76 385.91 198.08 386.81 199.31C387.661 200.581 388.807 201.627 390.15 202.36C394.46 204.44 399.24 205.13 403.89 206.12L409.41 207.29C409.73 207.36 411.41 207.47 411.59 207.75L424.76 227.31Z" fill="#263238"/>
<path d="M431.88 219.77C427.76 222.21 424.98 219.54 424.98 219.54L424.74 238.75C421.49 246.99 408.47 251.11 401.23 250.87C400.104 246.703 400.138 242.308 401.33 238.16L401.25 232.87C398.912 232.904 396.574 232.79 394.25 232.53C389.67 231.88 386.25 228.14 384.95 223.16C383.527 216.685 383.367 209.996 384.48 203.46C384.799 201.874 384.89 200.251 384.75 198.64C384.33 194.37 385.11 191.89 386.23 188.31C391.3 184.31 402.99 182.94 413.85 189.61C412.56 196.09 415.05 201.24 419.76 203.73C419.53 205.48 419.29 209.9 422.16 209.83C424.24 209.78 424.39 207.18 426.53 204.9C428.67 202.62 433.63 202.03 435.53 205.42C438.24 210.15 436.41 217.1 431.88 219.77Z" fill="#C8856A"/>
<path d="M401.25 232.87C408.53 232.05 414.06 231.28 417.88 226.03C419.66 223.326 421.145 220.44 422.31 217.42C422.31 217.42 421.54 223.86 419.14 228.22C417.29 231.58 412.7 234.36 401.28 235.29L401.25 232.87Z" fill="#AF6152"/>
<path d="M404.91 204.69C404.932 205.092 405.072 205.479 405.312 205.802C405.552 206.126 405.882 206.371 406.261 206.508C406.64 206.644 407.05 206.667 407.442 206.571C407.833 206.476 408.188 206.268 408.461 205.972C408.735 205.677 408.915 205.307 408.98 204.91C409.045 204.512 408.992 204.104 408.826 203.737C408.661 203.37 408.391 203.06 408.05 202.845C407.709 202.63 407.313 202.521 406.91 202.53C406.36 202.556 405.842 202.797 405.468 203.201C405.094 203.605 404.894 204.14 404.91 204.69V204.69Z" fill="#263238"/>
<path d="M405.5 198L410.13 199.91C410.372 199.276 410.36 198.573 410.098 197.948C409.835 197.322 409.342 196.822 408.72 196.55C408.414 196.429 408.086 196.37 407.757 196.377C407.428 196.385 407.104 196.459 406.803 196.594C406.503 196.729 406.233 196.923 406.009 197.165C405.785 197.406 405.612 197.69 405.5 198V198Z" fill="#263238"/>
<path d="M387.84 199.25L392.57 197.52C392.474 197.206 392.314 196.914 392.101 196.664C391.887 196.414 391.625 196.209 391.33 196.064C391.035 195.919 390.713 195.836 390.385 195.82C390.056 195.803 389.728 195.855 389.42 195.97C388.786 196.209 388.268 196.683 387.974 197.294C387.68 197.905 387.632 198.605 387.84 199.25Z" fill="#263238"/>
<path d="M389 204.06C389.063 204.443 389.236 204.799 389.498 205.085C389.759 205.371 390.099 205.575 390.474 205.672C390.85 205.768 391.245 205.754 391.613 205.63C391.98 205.506 392.304 205.278 392.544 204.973C392.784 204.669 392.93 204.301 392.965 203.915C393 203.529 392.922 203.141 392.741 202.798C392.559 202.456 392.282 202.173 391.943 201.985C391.603 201.797 391.217 201.712 390.83 201.74C390.557 201.77 390.292 201.854 390.051 201.987C389.81 202.12 389.599 202.3 389.428 202.516C389.258 202.732 389.132 202.98 389.059 203.245C388.985 203.51 388.965 203.787 389 204.06Z" fill="#263238"/>
<path d="M391.89 211.59L399 214.78L401.25 200.78C398.6 199.86 395.17 206.27 391.89 211.59Z" fill="#AF6152"/>
<path d="M405.68 217.71L397.1 219.51C397.192 220.082 397.399 220.629 397.708 221.119C398.017 221.609 398.422 222.032 398.898 222.361C399.374 222.691 399.912 222.921 400.48 223.038C401.047 223.154 401.632 223.155 402.2 223.04C403.355 222.772 404.362 222.067 405.011 221.074C405.659 220.081 405.899 218.876 405.68 217.71V217.71Z" fill="#AF6152"/>
<path d="M404.64 219.1C404.992 219.06 405.348 219.06 405.7 219.1C405.594 220.035 405.2 220.914 404.573 221.616C403.946 222.318 403.117 222.809 402.2 223.02C401.736 223.095 401.264 223.095 400.8 223.02C400.82 222 401.228 221.026 401.942 220.298C402.656 219.569 403.621 219.141 404.64 219.1Z" fill="#FFA8A7"/>
<path opacity="0.15" d="M316.88 359.91C317.476 359.013 318.177 358.19 318.97 357.46C326.97 350.06 341.97 340.27 354.77 332.13L412.86 365.68C412.941 365.728 413.008 365.796 413.054 365.877C413.101 365.959 413.125 366.051 413.125 366.145C413.125 366.239 413.101 366.331 413.054 366.413C413.008 366.494 412.941 366.562 412.86 366.61L370.67 391L316.88 359.91Z" fill="black"/>
<path d="M299.27 342.85V343.79C299.27 344.469 299.448 345.135 299.787 345.723C300.125 346.311 300.613 346.8 301.2 347.14L368.74 386.14C369.329 386.474 369.993 386.649 370.67 386.65C371.351 386.651 372.02 386.471 372.61 386.13L409.43 364.94C410.015 364.6 410.5 364.113 410.837 363.527C411.173 362.941 411.351 362.276 411.35 361.6V360.3C411.35 360.387 411.326 360.473 411.282 360.548C411.238 360.624 411.176 360.686 411.1 360.73L370.67 384.08L299.27 342.85Z" fill="#37474F"/>
<path d="M370.67 384.08V386.65C369.993 386.649 369.329 386.474 368.74 386.14L301.2 347.14C300.611 346.801 300.122 346.313 299.781 345.725C299.44 345.137 299.261 344.47 299.26 343.79V342.85L370.67 384.08Z" fill="#263238"/>
<path d="M299.26 342.85L339.31 319.73C339.661 319.528 340.06 319.422 340.465 319.422C340.87 319.422 341.269 319.528 341.62 319.73L411.1 359.85C411.177 359.896 411.24 359.962 411.284 360.04C411.328 360.118 411.351 360.206 411.351 360.295C411.351 360.385 411.328 360.473 411.284 360.551C411.24 360.628 411.177 360.694 411.1 360.74L370.67 384.08L299.26 342.85Z" fill="#455A64"/>
<path d="M371.04 380.68L392.64 368.22L329.48 331.75L307.76 344.15L371.04 380.68Z" fill="#37474F"/>
<path d="M307.76 344.15L308.59 344.62L329.48 332.7L391.81 368.7L392.64 368.22L329.48 331.75L307.76 344.15Z" fill="#263238"/>
<path d="M381.66 346.02L381.26 346.25L370.67 352.36L351.84 341.49L351.45 341.27L362.44 334.93L381.66 346.02Z" fill="#263238"/>
<path d="M381.26 346.25L370.67 352.36L351.84 341.49L362.44 335.38L381.26 346.25Z" fill="#37474F"/>
<path d="M360.38 350.62C363.77 347.26 368.68 342.62 372.81 341.24C373.759 340.873 374.731 340.569 375.72 340.33C374.287 340.141 372.867 339.86 371.47 339.49C370.07 339.062 368.826 338.235 367.89 337.11C367.53 336.65 367.27 335.91 367.73 335.54C367.898 335.405 368.105 335.328 368.32 335.32C371.41 335.23 373.85 334.75 376.66 334.54C377.919 334.362 379.198 334.386 380.45 334.61C381.6 334.93 382.75 335.26 383.88 335.61C389.02 337.39 393.88 336.91 400.96 333.67C408.04 330.43 433.6 314.67 433.6 314.67L428.18 344.67L408 352.51L407.79 352.59C406.18 353.19 404.72 354.45 400.86 355.64C396.28 357.04 390.43 355.38 386.45 355.17C382.47 354.96 375.7 356.8 372 358.29C368.3 359.78 363.89 354.11 362 354.79C360.11 355.47 357 354 360.38 350.62Z" fill="#C8856A"/>
<path d="M377.43 338.14C379.35 338.054 381.267 338.367 383.06 339.06C380.57 339.18 378.105 339.606 375.72 340.33C374.287 340.141 372.867 339.86 371.47 339.49C370.239 339.101 369.122 338.414 368.22 337.49C370.44 339 374.75 338.42 377.43 338.14Z" fill="#AF6152"/>
<path d="M369.58 384.65C368.942 384.897 368.258 384.998 367.576 384.946C366.894 384.894 366.233 384.69 365.64 384.35L298.39 345.52C297.807 345.183 297.306 344.722 296.922 344.168C296.538 343.615 296.281 342.984 296.17 342.32L288.8 298.41C288.76 298.162 288.74 297.911 288.74 297.66C288.741 296.441 289.227 295.272 290.09 294.41L360 334.77C360.43 335.018 360.801 335.358 361.084 335.766C361.368 336.174 361.558 336.64 361.64 337.13L369.58 384.65Z" fill="#263238"/>
<path d="M370.67 384.08L370.21 384.35C370.006 384.462 369.796 384.562 369.58 384.65L361.58 337.13C361.498 336.64 361.308 336.174 361.024 335.766C360.741 335.358 360.37 335.018 359.94 334.77L290.05 294.41C290.333 294.136 290.649 293.898 290.99 293.7L360.99 334.13C361.42 334.381 361.79 334.723 362.074 335.133C362.357 335.542 362.547 336.009 362.63 336.5L370.67 384.08Z" fill="#455A64"/>
<path d="M361 335.66L362.08 335.04C362.409 335.468 362.628 335.969 362.72 336.5L370.72 384.08L370.26 384.35C370.056 384.462 369.846 384.562 369.63 384.65L361.63 337.13C361.54 336.597 361.324 336.093 361 335.66Z" fill="#37474F"/>
<path d="M331.71 344.12C331.21 341.18 328.18 337.28 324.93 335.4C321.68 333.52 319.44 334.4 319.93 337.32C320.42 340.24 323.46 344.17 326.71 346.04C329.96 347.91 332.2 347.06 331.71 344.12Z" fill="#92E3A9"/>
<path d="M414 328.72C424.77 320.92 433.64 314.72 433.64 314.72L430.56 281.62C430.56 281.62 428.23 265.25 431.92 255.98C435.75 246.37 439.53 244.98 439.53 244.98C443.293 246.362 446.811 248.337 449.95 250.83C454.12 254.48 456.11 262.96 457.12 274.92C458 285.42 459.66 311.75 459.92 317.92C460.26 325.72 459.92 331.98 451.64 335.75C442.93 339.75 416.82 348.65 416.82 348.65L414 328.72Z" fill="#C8856A"/>
<path d="M438.51 244.28C446.98 246.99 451.3 248.55 454.88 258.47C458.46 268.39 458.33 286.61 459.42 301.21C460.51 315.81 461.32 325.34 458.98 329.95C457.7 332.48 455.36 334.8 446.98 337.95C438.6 341.1 430.53 343.95 430.53 343.95C430.53 343.95 429.73 331.05 420.53 322.37L433.17 314.68C433.17 314.68 430.26 284.87 429.56 276.68C428.86 268.49 428 251.34 438.51 244.28Z" fill="#92E3A9"/>
<path opacity="0.55" d="M438.51 244.28C446.98 246.99 451.3 248.55 454.88 258.47C458.46 268.39 458.33 286.61 459.42 301.21C460.51 315.81 461.32 325.34 458.98 329.95C457.7 332.48 455.36 334.8 446.98 337.95C438.6 341.1 430.53 343.95 430.53 343.95C430.53 343.95 429.73 331.05 420.53 322.37L433.17 314.68C433.17 314.68 430.26 284.87 429.56 276.68C428.86 268.49 428 251.34 438.51 244.28Z" fill="white"/>
<path opacity="0.35" d="M433.16 314.73C438.1 312.4 447.92 314.5 450.02 316.27C447.52 311.95 440.84 310.4 432.83 311.4L433.16 314.73Z" fill="#92E3A9"/>
<path opacity="0.35" d="M430 323.72C431.524 324.84 432.758 326.307 433.6 328C434.479 329.574 435.151 331.254 435.6 333C436.122 335.017 436.407 337.087 436.45 339.17C436.495 340.06 436.495 340.951 436.45 341.84L435.51 342.18C435.777 339.207 435.53 336.21 434.78 333.32C434.306 331.599 433.635 329.937 432.78 328.37C431.865 326.831 430.864 325.345 429.78 323.92C429.81 323.87 429.83 323.63 430 323.72Z" fill="#92E3A9"/>
<path d="M415.63 139.46L420.14 130.99L416.51 120.53V114.13L427.6 120.53V126.94L422.83 135.19C422.757 135.318 422.645 135.42 422.51 135.48L415.63 139.46Z" fill="#92E3A9"/>
<path opacity="0.3" d="M415.63 139.46L420.14 130.99L416.51 120.53V114.13L427.6 120.53V126.94L422.83 135.19C422.757 135.318 422.645 135.42 422.51 135.48L415.63 139.46Z" fill="black"/>
<path d="M395.73 67.0899C395.793 65.9382 396.127 64.8176 396.704 63.8187C397.28 62.8198 398.084 61.9706 399.05 61.3399L401.76 59.7699C402.79 59.2473 403.93 58.9749 405.085 58.9749C406.24 58.9749 407.38 59.2473 408.41 59.7699L442.14 79.2099C443.111 79.8446 443.918 80.7 444.495 81.7064C445.072 82.7127 445.403 83.8413 445.46 84.9999V130.68C445.397 131.833 445.064 132.956 444.487 133.956C443.911 134.957 443.107 135.808 442.14 136.44L439.43 138C438.4 138.523 437.26 138.795 436.105 138.795C434.95 138.795 433.81 138.523 432.78 138L420.64 131L415.88 139.24C415.813 139.359 415.712 139.456 415.591 139.52C415.47 139.583 415.332 139.61 415.196 139.597C415.06 139.585 414.93 139.533 414.823 139.448C414.715 139.364 414.634 139.25 414.59 139.12L409.59 124.6L399.07 118.6C398.103 117.968 397.299 117.117 396.723 116.116C396.146 115.116 395.813 113.993 395.75 112.84L395.73 67.0899Z" fill="#92E3A9"/>
<path opacity="0.3" d="M445.46 130.64C445.397 131.793 445.064 132.916 444.488 133.916C443.911 134.917 443.107 135.768 442.14 136.4L439.43 138C438.493 138.471 437.467 138.739 436.419 138.785C435.371 138.832 434.325 138.656 433.35 138.27C434.92 138.86 436.11 137.98 436.11 136.08V90.3699C436.061 89.2094 435.717 88.0804 435.11 87.0899L444.47 81.6899C445.077 82.6766 445.422 83.8024 445.47 84.9599L445.46 130.64Z" fill="black"/>
<path opacity="0.3" d="M395.84 66.1499C396.23 64.7399 397.51 64.2899 399.05 65.1499L432.78 84.5899C433.767 85.1967 434.577 86.0519 435.13 87.0699L444.48 81.6699C443.922 80.659 443.117 79.8058 442.14 79.1899L408.42 59.7699C407.386 59.2518 406.246 58.9819 405.09 58.9819C403.934 58.9819 402.793 59.2518 401.76 59.7699L399.05 61.3399C398.217 61.883 397.504 62.5892 396.952 63.416C396.4 64.2427 396.022 65.1728 395.84 66.1499V66.1499Z" fill="white"/>
<path d="M403.72 83.7599C404.01 92.2199 405.91 109.01 416.46 119.17C423.87 115.17 427.46 103.52 427.21 96.3199C427.198 95.9834 427.063 95.663 426.83 95.4199C426.65 95.2303 426.432 95.0805 426.19 94.9799C422.97 93.6799 418.01 88.2199 415.59 82.7499C415.42 82.3599 415.17 82.2399 414.91 82.3699C414.823 82.4245 414.746 82.4919 414.68 82.5699V82.6199C412.4 85.4599 407.74 85.6199 404.55 83.3399C404.31 83.1699 404.11 83.1199 403.98 83.1899C403.76 83.2999 403.7 83.4799 403.72 83.7599Z" fill="#FAFAFA"/>
</svg>
