<svg width="500" height="500" viewBox="0 0 500 500" fill="none" xmlns="http://www.w3.org/2000/svg">
<path d="M249.95 479.45C364.969 479.45 458.21 424.144 458.21 355.92C458.21 287.696 364.969 232.39 249.95 232.39C134.931 232.39 41.6899 287.696 41.6899 355.92C41.6899 424.144 134.931 479.45 249.95 479.45Z" fill="#F0F0F0"/>
<path d="M128.33 421.35C162.688 421.35 190.54 405.268 190.54 385.43C190.54 365.592 162.688 349.51 128.33 349.51C93.9725 349.51 66.1201 365.592 66.1201 385.43C66.1201 405.268 93.9725 421.35 128.33 421.35Z" fill="#E0E0E0"/>
<path d="M331.32 441.66C329.036 441.688 326.784 441.126 324.78 440.03L157.94 343.7C156.707 343.108 155.666 342.179 154.937 341.021C154.208 339.863 153.822 338.523 153.822 337.155C153.822 335.787 154.208 334.447 154.937 333.289C155.666 332.131 156.707 331.202 157.94 330.61L258.61 272.49C260.624 271.413 262.872 270.85 265.155 270.85C267.439 270.85 269.687 271.413 271.7 272.49L438.54 368.81C441.16 370.32 444.45 371.76 444.45 375.36C444.45 378.96 441.16 380.36 438.54 381.9L337.87 440C335.866 441.107 333.61 441.678 331.32 441.66V441.66Z" fill="#E0E0E0"/>
<path d="M414.49 334.88L402.16 327.77C402.16 327.77 398.16 308.53 400.86 289.23C405.39 256.34 423.25 251.42 430.07 253.75C436.89 256.08 438.9 264 427.66 280.26C421 289.85 412.92 309.82 414.49 334.88Z" fill="#37474F"/>
<path d="M406.74 324.13H406.82C406.979 324.105 407.123 324.019 407.22 323.89C407.317 323.762 407.36 323.6 407.34 323.44C403.75 298.12 413.84 270.33 425.25 259.1C425.306 259.044 425.35 258.978 425.381 258.905C425.411 258.832 425.427 258.754 425.427 258.675C425.427 258.596 425.411 258.518 425.381 258.445C425.35 258.372 425.306 258.306 425.25 258.25C425.195 258.193 425.129 258.147 425.056 258.116C424.983 258.085 424.904 258.069 424.825 258.069C424.746 258.069 424.667 258.085 424.594 258.116C424.521 258.147 424.455 258.193 424.4 258.25C412.78 269.68 402.49 297.93 406.13 323.62C406.152 323.765 406.226 323.897 406.338 323.991C406.451 324.084 406.594 324.134 406.74 324.13V324.13Z" fill="white"/>
<path d="M437.34 348C438.72 348.69 442.34 345.55 443.34 344.79C445.089 343.462 446.467 341.705 447.34 339.69C448.307 337.404 448.541 334.875 448.01 332.45C447.729 331.169 447.358 329.909 446.9 328.68L445.67 325C445.17 323.831 444.918 322.571 444.93 321.3C445.11 318.74 447.27 316.85 449.23 315.21C451.4 313.39 453.64 311.03 453.46 307.98C453.179 305.625 452.124 303.43 450.46 301.74C448.91 299.97 447.09 298.43 445.66 296.55C444.554 295.243 443.923 293.601 443.87 291.89C443.959 290.841 444.258 289.821 444.75 288.89C445.75 286.89 447.04 284.95 447.67 282.78C448.3 280.61 448.05 277.95 446.31 276.51C444.87 275.33 442.83 275.27 440.99 275.51C439.264 275.821 437.626 276.503 436.19 277.51C431.5 280.46 429.04 286.35 424.01 288.69C422.07 289.6 419.91 289.89 417.87 290.55C415.83 291.21 413.78 292.37 412.92 294.34C411.05 298.65 415.47 302.76 412.34 306.95C411.34 308.25 410.11 309.3 409.08 310.54C406.17 314.06 404.88 317.75 405.7 323.46C405.982 325.517 406.708 327.488 407.829 329.236C408.95 330.983 410.438 332.466 412.19 333.58C412.19 333.58 437.13 347.88 437.34 348Z" fill="#455A64"/>
<path d="M424 341.08C424.16 341.065 424.308 340.987 424.411 340.863C424.514 340.74 424.564 340.58 424.55 340.42C422.27 316.53 432.14 289.49 439.94 281.37C440.002 281.314 440.052 281.245 440.087 281.169C440.122 281.092 440.14 281.009 440.142 280.926C440.143 280.842 440.127 280.758 440.094 280.681C440.062 280.603 440.014 280.534 439.953 280.476C439.892 280.418 439.82 280.373 439.741 280.344C439.662 280.315 439.578 280.303 439.495 280.308C439.411 280.313 439.329 280.335 439.254 280.374C439.179 280.412 439.113 280.465 439.06 280.53C431.11 288.81 421.06 316.3 423.35 340.53C423.356 340.609 423.378 340.686 423.414 340.756C423.45 340.826 423.5 340.889 423.561 340.94C423.621 340.991 423.691 341.03 423.766 341.054C423.842 341.078 423.921 341.087 424 341.08V341.08Z" fill="white"/>
<path d="M426.27 311.6H426.45C432.041 309.735 437.818 308.484 443.68 307.87C443.838 307.852 443.983 307.773 444.084 307.65C444.185 307.527 444.234 307.369 444.22 307.21C444.215 307.131 444.194 307.053 444.158 306.982C444.123 306.911 444.073 306.848 444.012 306.796C443.951 306.745 443.881 306.706 443.805 306.683C443.729 306.66 443.649 306.652 443.57 306.66C437.603 307.288 431.722 308.562 426.03 310.46C425.881 310.518 425.761 310.632 425.695 310.778C425.63 310.924 425.624 311.09 425.68 311.24C425.728 311.354 425.811 311.451 425.917 311.515C426.023 311.58 426.146 311.61 426.27 311.6V311.6Z" fill="white"/>
<path d="M96.1 368.34L103.91 365.53C104.812 356.147 104.634 346.692 103.38 337.35C100.21 316.37 85 298.52 72 296C55.24 292.78 57.8 308.35 67.23 315.3C82.27 326.39 93.79 343 96.1 368.34Z" fill="#92E3A9"/>
<g opacity="0.2">
<path opacity="0.2" d="M96.1 368.34L103.91 365.53C104.812 356.147 104.634 346.692 103.38 337.35C100.21 316.37 85 298.52 72 296C55.24 292.78 57.8 308.35 67.23 315.3C82.27 326.39 93.79 343 96.1 368.34Z" fill="black"/>
</g>
<path d="M99.9301 367.37H99.8401C99.7221 367.345 99.6103 367.297 99.5111 367.229C99.4119 367.16 99.3273 367.073 99.2622 366.971C99.1971 366.87 99.1528 366.757 99.1318 366.638C99.1108 366.519 99.1136 366.398 99.1401 366.28C103.33 347.08 88.4401 310.85 67.4801 300.1C67.2626 299.989 67.0983 299.795 67.0233 299.563C66.9482 299.33 66.9687 299.077 67.0801 298.86C67.1915 298.642 67.3847 298.478 67.6172 298.403C67.8498 298.328 68.1026 298.349 68.3201 298.46C89.9201 309.54 105.25 346.89 100.93 366.67C100.878 366.889 100.747 367.081 100.563 367.21C100.379 367.339 100.154 367.396 99.9301 367.37Z" fill="white"/>
<path d="M101.09 366.54C101.47 364.27 101.7 360.93 101.77 360.11C102.03 357.212 101.69 354.291 100.77 351.53C99.5542 347.878 97.1221 344.754 93.88 342.68C92.12 341.59 90.05 340.78 88.88 339.04C87.88 337.54 87.88 335.66 87.71 333.89C87.44 330.99 86.62 327.89 84.36 326.09C82.1 324.29 78.97 324.09 76.09 324.35C71.94 324.67 68.09 325.12 64.24 323.12C61.1988 321.401 58.0526 319.874 54.82 318.55C50.73 317.01 41.52 314.72 39.41 320.47C39.1678 321.266 39.1058 322.107 39.2286 322.93C39.3514 323.753 39.6559 324.539 40.12 325.23C41.0561 326.604 42.1958 327.828 43.5 328.86L49.81 334.43C50.5655 335.016 51.212 335.73 51.72 336.54C52.92 338.72 51.95 341.42 52.16 343.9C52.3054 345.164 52.7241 346.382 53.3872 347.468C54.0503 348.554 54.9419 349.483 56 350.19C58.1235 351.599 60.6457 352.283 63.19 352.14C66.57 352.01 72.19 349.57 74.11 353.62C74.6501 354.991 74.9478 356.446 74.99 357.92C75.0348 359.4 75.4769 360.84 76.27 362.09C77.57 363.81 79.89 364.36 82.03 364.64C85.03 365.04 88.11 365.15 90.89 366.33C92.03 366.81 92.72 368.33 93.37 369.33C95.48 368.59 97.82 367.81 101.09 366.54Z" fill="#92E3A9"/>
<path d="M97.3999 368.66C97.2431 368.645 97.0937 368.586 96.9684 368.491C96.843 368.395 96.7466 368.267 96.6899 368.12C89.0499 347.93 70.8799 331.79 45.5299 322.67C45.3245 322.591 45.1582 322.435 45.0667 322.235C44.9752 322.035 44.9657 321.807 45.0403 321.601C45.115 321.394 45.2677 321.224 45.4658 321.129C45.6639 321.033 45.8916 321.019 46.0999 321.09C71.9199 330.38 90.4399 346.87 98.2599 367.53C98.335 367.738 98.3259 367.968 98.2344 368.17C98.1428 368.371 97.9762 368.529 97.7699 368.61C97.6508 368.65 97.5253 368.667 97.3999 368.66V368.66Z" fill="white"/>
<path d="M329.09 431.89L162.25 335.56C161.042 334.772 160.036 333.711 159.315 332.461C158.594 331.212 158.178 329.81 158.1 328.37V306.5C158.178 305.06 158.594 303.658 159.315 302.408C160.036 301.159 161.042 300.098 162.25 299.31L262.92 241.19C264.205 240.534 265.627 240.192 267.07 240.192C268.513 240.192 269.935 240.534 271.22 241.19L438.06 337.51C439.269 338.298 440.274 339.359 440.995 340.608C441.716 341.858 442.133 343.26 442.21 344.7V366.57C442.133 368.01 441.716 369.412 440.995 370.661C440.274 371.911 439.269 372.972 438.06 373.76L337.39 431.89C336.104 432.541 334.682 432.88 333.24 432.88C331.798 432.88 330.377 432.541 329.09 431.89V431.89Z" fill="#92E3A9"/>
<path opacity="0.2" d="M442.21 344.7V366.58C442.132 368.019 441.715 369.419 440.994 370.666C440.273 371.914 439.268 372.974 438.06 373.76L337.39 431.88C336.115 432.563 334.686 432.908 333.24 432.88V401.42C334.686 401.444 336.114 401.1 337.39 400.42L438.06 342.3C440.21 341.06 440.35 339.11 438.48 337.78C439.573 338.588 440.474 339.627 441.119 340.823C441.763 342.019 442.136 343.343 442.21 344.7Z" fill="black"/>
<path opacity="0.1" d="M333.24 401.42V432.88C331.794 432.909 330.364 432.565 329.09 431.88L162.25 335.56C161.041 334.775 160.035 333.716 159.314 332.468C158.593 331.22 158.177 329.819 158.1 328.38V306.49C158.178 305.135 158.552 303.814 159.196 302.62C159.841 301.426 160.74 300.388 161.83 299.58C159.97 300.91 160.12 302.86 162.25 304.1L329.1 400.43C330.374 401.105 331.799 401.446 333.24 401.42V401.42Z" fill="black"/>
<path d="M438.06 342.3L337.39 400.43C336.104 401.081 334.682 401.42 333.24 401.42C331.798 401.42 330.377 401.081 329.09 400.43L162.25 304.1C159.96 302.78 159.96 300.63 162.25 299.31L262.92 241.19C264.205 240.534 265.627 240.192 267.07 240.192C268.513 240.192 269.935 240.534 271.22 241.19L438.06 337.51C440.35 338.83 440.35 341 438.06 342.3Z" fill="#92E3A9"/>
<path d="M223.07 339.83C220.88 338.56 218.84 338.51 217.18 339.48C216.62 339.8 214.29 341.12 213.69 341.48C211.88 342.6 210.55 344.96 210.03 348.32C209.438 347.414 208.724 346.593 207.91 345.88L208.51 345.54C209.71 344.84 210.28 343.08 210.28 340.71C210.28 334.93 207.6 331.43 204.2 329.47L198.08 326L195.21 327.65V324.34L190.71 321.75L187.35 323.69V330.69L182.82 317.17L178.32 314.58L175 316.48V319.76C173.28 314.11 170.1 309.22 166.45 307.11C165.609 306.53 164.628 306.188 163.609 306.12C162.59 306.051 161.571 306.258 160.66 306.72V306.72L160.53 306.79L157.24 308.68C155.53 309.52 153.13 312.55 153.13 319.06C153.13 327.93 157.25 337.19 163.13 340.56C165.4 341.87 167.43 341.94 169.06 340.99C169.62 340.66 171.8 339.4 172.34 339.1C173.552 338.364 174.498 337.26 175.04 335.95V346.89L179.54 349.48L182.9 347.54V340.54L187.35 354L191.85 356.59L194.72 354.94V358.25L202.21 362.57C204.05 363.64 205.54 363.8 206.62 363.19C207.21 362.87 209.48 361.54 210.04 361.19C210.438 360.967 210.78 360.655 211.04 360.28C212.67 365.99 215.82 370.94 219.75 373.22C221.94 374.48 223.91 374.58 225.51 373.74C226.14 373.41 228.41 372.05 228.95 371.74C231.46 370.37 233.04 366.63 233.04 361.22C233 352.41 228.55 343 223.07 339.83ZM167.4 332.33C167.052 332.223 166.717 332.078 166.4 331.9C162.72 329.77 161.31 324.43 161.31 319.9C161.266 318.332 161.524 316.77 162.07 315.3C162.42 315.396 162.756 315.537 163.07 315.72C166.56 317.72 168.14 323.18 168.14 327.72C168.177 329.289 167.926 330.851 167.4 332.33ZM202.58 353.59V350.73C203.416 351.757 203.881 353.036 203.9 354.36L202.58 353.59ZM224.06 365.05C223.711 364.943 223.375 364.796 223.06 364.61C219.38 362.49 217.97 357.14 217.97 352.61C217.926 351.042 218.184 349.48 218.73 348.01C219.077 348.115 219.412 348.256 219.73 348.43C223.23 350.43 224.8 355.89 224.8 360.43C224.837 362.002 224.586 363.568 224.06 365.05V365.05Z" fill="#92E3A9"/>
<path d="M325.75 413L329.03 411.14L332 407.9C330.28 403.7 327.87 400.31 324.4 398.31C322.33 397.12 320.47 397.03 318.95 397.83C318.32 398.17 315.95 399.54 315.39 399.88C314.228 400.635 313.325 401.727 312.8 403.01V392.17L308.3 389.57L304.94 391.51V398.51L300.38 385L295.88 382.41L293 384.08V380.76L288.51 378.17L285.15 380.1V383.59C283.4 378.06 280.15 373.36 276.57 371.27L270.85 367.97L267.5 369.91V391.85L263.4 381.91L265 381C266.39 380.22 267.24 378.2 267.24 374.9C267.24 368.9 264.46 364.27 260.8 362.16L253.75 358.09L250.38 360V376.62L245 353L240.84 350.6L237.48 352.54L229.48 378.33L234.31 381.12L237.67 379.18L238.2 377.28L243.28 380.22L244.74 387.13L249.57 389.92L250.34 389.48V390.37L254.84 392.96L258.2 391.02V389.59L260.86 396.44L266.58 399.74L267.47 399.23V400.23L273.18 403.54C275.42 404.83 277.51 404.95 279.18 404.03L282.66 402.03C283.733 401.352 284.584 400.375 285.11 399.22V410.46L289.6 413.05L292.47 411.4V414.71L296.97 417.31L300.33 415.37V408.37L304.86 421.88L309.36 424.48L312.72 422.54V419.31C314.4 424.86 317.45 429.7 320.96 431.73C322.96 432.89 325.07 433.21 326.76 432.25C327.33 431.93 329.48 430.65 330.02 430.36C331.63 429.51 332.9 427.54 333.43 424.07V417.48L325.75 413ZM258.75 374.44L258.23 374.13V371C258.856 372.105 259.164 373.361 259.12 374.63V374.72L258.75 374.44ZM275.35 381.58C277.312 384.452 278.358 387.852 278.35 391.33C278.392 392.826 278.109 394.314 277.52 395.69C277.013 395.585 276.527 395.4 276.08 395.14L275.39 394.73L275.35 381.58ZM325.54 422.11C325.548 422.706 325.481 423.301 325.34 423.88C325.089 423.795 324.848 423.684 324.62 423.55C323.261 422.615 322.193 421.315 321.54 419.8L325.54 422.11ZM324.36 412.2L321 414.17V418.6C320.088 416.284 319.613 413.819 319.6 411.33C319.544 409.616 319.861 407.909 320.53 406.33C320.783 406.409 321.027 406.513 321.26 406.64C322.98 407.64 324.47 409.54 325.61 412.93L324.36 412.2Z" fill="#92E3A9"/>
<path opacity="0.2" d="M219.71 341.77C225.19 344.93 229.64 354.35 229.64 363.22C229.64 368.63 228.06 372.37 225.54 373.74C226.25 373.36 228.39 372.09 228.91 371.8C231.42 370.43 233 366.69 233 361.28C233 352.41 228.55 342.99 223.07 339.83C220.88 338.56 218.84 338.51 217.18 339.48C216.62 339.8 214.29 341.12 213.69 341.48C215.35 340.45 217.45 340.46 219.71 341.77Z" fill="black"/>
<path opacity="0.3" d="M202.58 353.59V350.73C202.007 350.097 201.331 349.566 200.58 349.16L199.17 348.35V355.53L200.58 356.34C202.71 357.57 203.88 357.25 203.88 354.86C203.88 354.68 203.88 354.52 203.88 354.35L202.58 353.59Z" fill="black"/>
<path opacity="0.2" d="M187.31 342.46L187.35 342.49V330.65L182.82 317.14L178.32 314.55L174.97 316.49L179.46 319.08L187.31 342.46Z" fill="black"/>
<path opacity="0.1" d="M179.46 319.08L182.82 317.14L187.35 330.65V342.49L179.46 319.08Z" fill="black"/>
<path opacity="0.3" d="M202.57 340.85C202.582 339.844 202.306 338.856 201.775 338.001C201.243 337.147 200.478 336.463 199.57 336.03L199.21 335.83V342.38L199.57 342.59C201.51 343.71 202.57 343.39 202.57 340.85Z" fill="black"/>
<path opacity="0.2" d="M210 348.34C209.417 347.43 208.706 346.608 207.89 345.9L208.51 345.54C209.69 344.84 210.26 343.09 210.26 340.73C210.26 334.95 207.58 331.45 204.18 329.49L198.08 326L195.21 327.65V324.34L190.71 321.75L187.35 323.69L191.85 326.28V356.66L194.72 355.01V327.89L200.84 331.43C204.24 333.43 206.92 336.88 206.92 342.67C206.92 345.46 206.13 347.4 204.45 347.76C206.92 349.85 208.66 352.95 208.66 357.85C208.66 360.63 207.93 362.5 206.59 363.23C207.18 362.91 209.45 361.58 210.01 361.23C210.408 361.007 210.75 360.695 211.01 360.32C210.206 357.534 209.792 354.65 209.78 351.75C209.767 350.609 209.841 349.469 210 348.34V348.34Z" fill="black"/>
<path opacity="0.3" d="M223.07 364.61C219.39 362.49 217.98 357.14 217.98 352.61C217.936 351.042 218.194 349.48 218.74 348.01C218.89 348.06 219.04 348.11 219.2 348.18C216.09 346.81 214.62 350.26 214.62 354.55C214.62 359.08 216.03 364.43 219.71 366.55C221.9 367.81 223.3 366.94 224.06 365.05C223.714 364.942 223.382 364.795 223.07 364.61V364.61Z" fill="black"/>
<path opacity="0.2" d="M166.41 307.11C164.26 305.87 162.27 305.8 160.63 306.7L160.44 306.81L157.23 308.65C157.778 308.344 158.378 308.144 159 308.06C160.43 307.935 161.861 308.286 163.07 309.06C168.54 312.23 172.99 321.64 172.99 330.52C172.99 335.88 171.43 339.6 168.99 341C169.55 340.67 171.72 339.41 172.26 339.11C173.475 338.375 174.425 337.271 174.97 335.96V319.75C173.24 314.1 170.05 309.21 166.41 307.11Z" fill="black"/>
<path opacity="0.3" d="M161.32 319.9C161.276 318.332 161.534 316.77 162.08 315.3C162.233 315.344 162.383 315.398 162.53 315.46C159.42 314.1 157.96 317.54 157.96 321.84C157.96 326.37 159.37 331.71 163.05 333.84C165.23 335.1 166.63 334.22 167.4 332.33C167.052 332.223 166.717 332.078 166.4 331.9C162.73 329.77 161.32 324.43 161.32 319.9Z" fill="black"/>
<path opacity="0.2" d="M263.41 381.91L265 381C266.39 380.22 267.24 378.2 267.24 374.9C267.24 368.9 264.46 364.27 260.8 362.16L253.75 358.09L250.38 360L257.44 364.07C261.09 366.18 263.87 370.84 263.87 376.81C263.87 381.37 262.24 383.49 259.87 383.27L266.66 399.75L267.55 399.24V391.82L263.41 381.91Z" fill="black"/>
<path opacity="0.3" d="M320.54 406.35L320.87 406.47C318.29 405.36 316.25 408.26 316.25 413.27C316.25 418.28 318.5 423.92 321.25 425.52C323.01 426.52 324.75 426.11 325.33 423.91C325.079 423.825 324.838 423.715 324.61 423.58C323.251 422.645 322.183 421.345 321.53 419.83L320.99 419.51V418.6C320.078 416.284 319.603 413.819 319.59 411.33C319.543 409.621 319.867 407.922 320.54 406.35Z" fill="black"/>
<path opacity="0.2" d="M276.58 371.27L270.86 367.97L267.51 369.91L273.22 373.21C278.63 376.33 283.17 385.29 283.17 394.13C283.17 399.55 281.48 403.03 278.93 404.22L279.23 404.09L282.71 402.09C283.783 401.412 284.634 400.435 285.16 399.28V383.59C283.41 378.06 280.19 373.36 276.58 371.27Z" fill="black"/>
<path opacity="0.3" d="M275.36 394.76V381.61C274.66 380.595 273.754 379.74 272.7 379.1L272 378.7V396.7L272.7 397.1C274.84 398.34 276.54 397.69 277.49 395.72C276.983 395.615 276.497 395.43 276.05 395.17L275.36 394.76Z" fill="black"/>
<path opacity="0.3" d="M254.88 393L258.24 391.06V389.63L254.88 381V393Z" fill="black"/>
<path opacity="0.2" d="M297.02 386.95L304.86 410.34L304.91 410.37V398.53L300.38 385.01L295.88 382.42L293.01 384.08V380.76L288.52 378.17L285.16 380.11L289.65 382.7V413.08L292.52 411.43V384.36L297.02 386.95Z" fill="black"/>
<path opacity="0.3" d="M235.81 375.92L234.35 381.15L237.71 379.22L238.24 377.32L235.81 375.92Z" fill="black"/>
<path opacity="0.3" d="M239.54 363.16L237.34 370.73L241.79 373.3L239.59 363.19L239.54 363.16Z" fill="black"/>
<path opacity="0.3" d="M297.02 398.48V417.33V417.34L300.38 415.4V408.38L297.07 398.51L297.02 398.48Z" fill="black"/>
<path opacity="0.2" d="M312.77 403V392.17L308.27 389.57L304.91 391.51L309.41 394.11V424.49L312.77 422.55V419.32C311.883 416.449 311.422 413.464 311.4 410.46C311.319 407.904 311.786 405.36 312.77 403Z" fill="black"/>
<path opacity="0.2" d="M245.01 353.05L240.84 350.64L237.49 352.58L241.65 354.98L249.61 389.96L250.38 389.52V376.65L245.01 353.05Z" fill="black"/>
<path opacity="0.3" d="M258.24 374.16V371C257.526 369.935 256.547 369.073 255.4 368.5L254.88 368.2V376.2L255.4 376.5C257.08 377.5 259.09 378.5 259.13 374.77L258.76 374.57L258.24 374.16Z" fill="black"/>
<path opacity="0.2" d="M325.75 413L329.03 411.14L332 407.9C330.28 403.7 327.87 400.31 324.4 398.31C322.33 397.12 320.47 397.03 318.95 397.83C318.38 398.14 316.38 399.3 315.59 399.76C317.12 398.96 318.97 399.06 321.04 400.25C324.51 402.25 326.92 405.64 328.64 409.83L325.7 413.11C325.679 413.058 325.662 413.005 325.65 412.95L324.4 412.23L321 414.17L330.11 419.43V426C329.59 429.44 328.33 431.41 326.74 432.27H326.8C327.37 431.95 329.52 430.67 330.06 430.38C331.67 429.53 332.94 427.56 333.47 424.09V417.5L325.75 413Z" fill="black"/>
<path opacity="0.1" d="M175 335.93V319.75C174.78 319.01 174.52 318.28 174.25 317.57L170.89 319.49C172.262 322.997 172.984 326.724 173.02 330.49C173.02 335.85 171.46 339.57 169.02 340.97C169.58 340.64 171.76 339.38 172.3 339.08C173.512 338.344 174.458 337.24 175 335.93V335.93Z" fill="black"/>
<path opacity="0.1" d="M191.85 326.23L195.21 324.29V327.6L194.72 327.89V354.95L191.85 356.61V326.23Z" fill="black"/>
<path opacity="0.1" d="M241.65 354.98L245.01 353.05L250.38 376.65V389.52L249.61 389.96L241.65 354.98Z" fill="black"/>
<path opacity="0.1" d="M263.41 381.91L261.7 382.91C261.148 383.271 260.481 383.414 259.83 383.31L266.62 399.79L267.51 399.28V391.86L263.41 381.91Z" fill="black"/>
<path opacity="0.1" d="M293.01 380.76L289.65 382.7V413.08L292.52 411.43V384.36L293.01 384.08V380.76Z" fill="black"/>
<path opacity="0.1" d="M297.02 386.95L300.38 385.01L304.91 398.53V410.37L297.02 386.95Z" fill="black"/>
<path opacity="0.1" d="M328.61 409.83L331.97 407.89L329.03 411.17L325.67 413.11L328.61 409.83Z" fill="black"/>
<path opacity="0.1" d="M330.12 426C329.6 429.44 328.34 431.41 326.75 432.27H326.81C327.38 431.95 329.53 430.67 330.07 430.38C331.68 429.53 332.95 427.56 333.48 424.09V417.5L330.12 419.44V426Z" fill="black"/>
<path opacity="0.1" d="M283.17 394.13C283.17 399.55 281.48 403.03 278.93 404.22L279.23 404.09L282.71 402.09C283.783 401.412 284.634 400.435 285.16 399.28V383.59C284.97 383 284.77 382.42 284.55 381.86L281.19 383.79C282.47 387.088 283.141 390.592 283.17 394.13V394.13Z" fill="black"/>
<path opacity="0.1" d="M233 361.28C232.957 357.66 232.28 354.076 231 350.69L227.64 352.63C228.92 356.016 229.597 359.6 229.64 363.22C229.64 368.63 228.06 372.37 225.54 373.74C226.25 373.36 228.39 372.09 228.91 371.8C231.42 370.43 233 366.69 233 361.28Z" fill="black"/>
<path opacity="0.1" d="M208.66 357.85C208.66 360.63 207.93 362.5 206.59 363.23C207.18 362.91 209.45 361.58 210.01 361.23C210.408 361.007 210.75 360.695 211.01 360.32C210.206 357.534 209.792 354.65 209.78 351.75C209.777 350.609 209.861 349.469 210.03 348.34C209.447 347.43 208.736 346.608 207.92 345.9L205.21 347.47H205.11C205.067 347.499 205.02 347.523 204.97 347.54C204.811 347.626 204.638 347.687 204.46 347.72C206.92 349.85 208.66 353 208.66 357.85Z" fill="black"/>
<path opacity="0.3" d="M179.46 330.61V349.46L182.82 347.52V340.51L179.51 330.63L179.46 330.61Z" fill="black"/>
<path opacity="0.1" d="M309.41 394.11V424.49L312.77 422.55V419.32C311.883 416.449 311.422 413.464 311.4 410.46C311.321 407.907 311.788 405.367 312.77 403.01V392.17L309.41 394.11Z" fill="black"/>
<path d="M163.05 309.05C168.53 312.22 172.98 321.63 172.98 330.51C172.98 339.39 168.72 343.81 163.05 340.51C157.22 337.14 153.05 327.88 153.05 319.01C153.05 310.14 157.62 305.92 163.05 309.05ZM163.05 333.84C166.64 335.91 168.12 332.24 168.12 327.71C168.12 323.18 166.54 317.71 163.05 315.71C159.56 313.71 157.96 317.3 157.96 321.83C157.96 326.36 159.37 331.71 163.05 333.84V333.84Z" fill="#92E3A9"/>
<path d="M179.46 349.46L174.96 346.87V316.48L179.46 319.08L187.3 342.46V323.64L191.8 326.23V356.61L187.3 354.02L179.46 330.63V349.46Z" fill="#92E3A9"/>
<path d="M200.84 331.43C204.24 333.43 206.92 336.88 206.92 342.67C206.92 345.46 206.13 347.4 204.45 347.76C206.92 349.85 208.66 352.95 208.66 357.85C208.66 362.75 206.3 364.96 202.21 362.59L194.72 358.27V327.89L200.84 331.43ZM199.58 342.59C201.51 343.71 202.58 343.39 202.58 340.85C202.592 339.844 202.316 338.856 201.785 338.001C201.253 337.147 200.488 336.463 199.58 336.03L199.22 335.83V342.38L199.58 342.59ZM200.58 356.34C202.71 357.57 203.88 357.25 203.88 354.86C203.946 353.692 203.668 352.529 203.082 351.517C202.496 350.504 201.626 349.685 200.58 349.16L199.17 348.35V355.53L200.58 356.34Z" fill="#92E3A9"/>
<path d="M219.71 341.77C225.19 344.93 229.64 354.35 229.64 363.22C229.64 372.09 225.38 376.53 219.71 373.22C213.88 369.86 209.77 360.59 209.77 351.72C209.77 342.85 214.29 338.63 219.71 341.77ZM219.71 366.55C223.3 368.62 224.78 364.95 224.78 360.42C224.78 355.89 223.21 350.42 219.71 348.42C216.21 346.42 214.62 350.01 214.62 354.54C214.62 359.07 216 364.43 219.71 366.55V366.55Z" fill="#92E3A9"/>
<path d="M249.61 390L244.78 387.21L243.32 380.3L235.81 375.96L234.35 381.2L229.52 378.41L237.52 352.62L241.68 355.02L249.61 390ZM239.61 363.23H239.56L237.36 370.8L241.81 373.37L239.61 363.23Z" fill="#92E3A9"/>
<path d="M257.44 364.1C261.09 366.21 263.87 370.87 263.87 376.84C263.87 381.4 262.24 383.52 259.87 383.3L266.66 399.78L260.94 396.48L254.94 381V393L250.44 390.41V360L257.44 364.1ZM255.44 376.4C257.14 377.4 259.17 378.4 259.17 374.58C259.17 370.76 257.17 369.43 255.44 368.45L254.92 368.15V376.15L255.44 376.4Z" fill="#92E3A9"/>
<path d="M273.22 373.21C278.63 376.33 283.17 385.29 283.17 394.13C283.17 402.97 278.65 406.73 273.22 403.59L267.51 400.29V369.91L273.22 373.21ZM272.7 397.1C276.02 399.02 278.29 396.43 278.32 391.36C278.35 386.29 276 381 272.7 379.1L272 378.7V396.7L272.7 397.1Z" fill="#92E3A9"/>
<path d="M289.65 413.08L285.16 410.49V380.1L289.65 382.7V413.08Z" fill="#92E3A9"/>
<path d="M297 417.34L292.5 414.74V384.36L297 387L304.84 410.39H304.89V391.51L309.39 394.11V424.49L304.89 421.89L297.05 398.51H297V417.34Z" fill="#92E3A9"/>
<path d="M330.12 426C329.04 433.08 324.88 434 321.01 431.72C315.7 428.65 311.4 419.13 311.4 410.44C311.4 401.75 315.46 397.03 321.01 400.23C324.48 402.23 326.89 405.62 328.61 409.81L325.67 413.09C324.52 409.59 323.02 407.65 321.27 406.64C318.5 405.04 316.27 407.98 316.27 413.25C316.27 418.52 318.52 423.9 321.27 425.5C323.43 426.74 325.55 425.83 325.55 422.11L321 419.51V414.17L330.11 419.43L330.12 426Z" fill="#92E3A9"/>
<path opacity="0.1" d="M241.65 329.65C267.839 329.65 289.07 317.392 289.07 302.27C289.07 287.148 267.839 274.89 241.65 274.89C215.461 274.89 194.23 287.148 194.23 302.27C194.23 317.392 215.461 329.65 241.65 329.65Z" fill="black"/>
<path opacity="0.1" d="M330.11 382.06C359.541 382.06 383.4 368.284 383.4 351.29C383.4 334.296 359.541 320.52 330.11 320.52C300.679 320.52 276.82 334.296 276.82 351.29C276.82 368.284 300.679 382.06 330.11 382.06Z" fill="black"/>
<path d="M153.46 24.85L189 45.29C189.413 45.5596 189.757 45.9228 190.004 46.3502C190.251 46.7776 190.393 47.2572 190.42 47.75V96.28C190.393 96.7711 190.249 97.2488 190.001 97.6732C189.752 98.0976 189.405 98.4565 188.99 98.72L183.92 101.57C183.477 101.789 182.989 101.904 182.495 101.904C182.001 101.904 181.513 101.789 181.07 101.57L145.54 81.11C145.125 80.8422 144.78 80.4794 144.533 80.0516C144.286 79.6238 144.144 79.1433 144.12 78.65V30.12C144.147 29.6299 144.289 29.1532 144.536 28.729C144.783 28.3048 145.127 27.9452 145.54 27.68L150.62 24.83C151.062 24.6115 151.549 24.4995 152.042 24.5029C152.536 24.5064 153.021 24.6253 153.46 24.85V24.85Z" fill="#92E3A9"/>
<path d="M182.44 100.73V52.2C182.412 51.7066 182.267 51.2269 182.016 50.8009C181.766 50.3748 181.417 50.0145 181 49.75L145.54 29.3C144.75 28.85 144.12 29.22 144.12 30.12V78.65C144.144 79.1433 144.286 79.6238 144.533 80.0515C144.78 80.4793 145.125 80.8422 145.54 81.11L181 101.55C181.81 102 182.44 101.64 182.44 100.73Z" fill="#92E3A9"/>
<path opacity="0.2" d="M181 101.55C181.444 101.767 181.931 101.88 182.425 101.88C182.919 101.88 183.406 101.767 183.85 101.55L188.92 98.7C189.335 98.4365 189.682 98.0776 189.931 97.6532C190.179 97.2288 190.323 96.7512 190.35 96.26V47.74C190.325 47.2295 190.17 46.7338 189.9 46.3L182 50.81C182.258 51.2291 182.403 51.7081 182.42 52.2V100.73C182.44 101.56 181.86 102 181 101.55Z" fill="black"/>
<path opacity="0.4" d="M144.14 29.86C144.25 29.15 144.83 28.86 145.54 29.3L181 49.75C181.42 50.0103 181.765 50.3757 182 50.81L189.91 46.3C189.665 45.8887 189.321 45.545 188.91 45.3L153.46 24.84C153.019 24.6183 152.533 24.5029 152.04 24.5029C151.547 24.5029 151.061 24.6183 150.62 24.84L145.54 27.69C145.165 27.9308 144.846 28.249 144.605 28.6233C144.363 28.9976 144.205 29.4193 144.14 29.86V29.86Z" fill="white"/>
<path d="M194.25 83.74C195.14 83.21 201.81 79.45 202.03 79.33C202.193 79.2277 202.331 79.091 202.436 78.9295C202.541 78.7681 202.609 78.5857 202.635 78.3952C202.662 78.2046 202.647 78.0106 202.59 77.8266C202.534 77.6426 202.438 77.4731 202.31 77.33L190.25 62.26L182.44 66.69L194.5 81.75C194.624 81.8931 194.716 82.0606 194.77 82.2416C194.825 82.4226 194.841 82.613 194.818 82.8006C194.794 82.9882 194.731 83.1688 194.634 83.3306C194.536 83.4924 194.405 83.6319 194.25 83.74V83.74Z" fill="#92E3A9"/>
<path opacity="0.4" d="M194.25 83.74C195.14 83.21 201.81 79.45 202.03 79.33C202.193 79.2277 202.331 79.091 202.436 78.9295C202.541 78.7681 202.609 78.5857 202.635 78.3952C202.662 78.2046 202.647 78.0106 202.59 77.8266C202.534 77.6426 202.438 77.4731 202.31 77.33L190.25 62.26L182.44 66.69L194.5 81.75C194.624 81.8931 194.716 82.0606 194.77 82.2416C194.825 82.4226 194.841 82.613 194.818 82.8006C194.794 82.9882 194.731 83.1688 194.634 83.3306C194.536 83.4924 194.405 83.6319 194.25 83.74V83.74Z" fill="white"/>
<path d="M182.44 66.7L194.5 81.7C194.674 81.872 194.794 82.0907 194.847 82.3296C194.9 82.5686 194.882 82.8176 194.796 83.0468C194.711 83.276 194.561 83.4756 194.365 83.6217C194.168 83.7677 193.934 83.8539 193.69 83.87L182.44 85.09V66.7Z" fill="#92E3A9"/>
<path d="M159.73 57.59C159.73 54.79 161.21 53.37 163.03 54.42C164.85 55.47 166.32 58.59 166.32 61.42C166.32 64.25 164.85 65.64 163.03 64.59C161.21 63.54 159.73 60.39 159.73 57.59Z" fill="#FAFAFA"/>
<path d="M167 82.46L159 77.8399C158.383 77.3426 157.897 76.7014 157.585 75.9727C157.273 75.244 157.144 74.4499 157.21 73.66L157.59 69.3399C157.86 66.2199 159.68 64.81 161.83 66.05L164.17 67.4C166.32 68.65 168.17 72.1499 168.41 75.5899L168.79 80.35C169 82.09 168.12 83.09 167 82.46Z" fill="#FAFAFA"/>
<path d="M168.3 57.17C168.3 54.09 169.92 52.53 171.92 53.69C173.92 54.85 175.54 58.28 175.54 61.35C175.54 64.42 173.92 65.99 171.92 64.84C169.92 63.69 168.3 60.25 168.3 57.17Z" fill="#FAFAFA"/>
<path d="M176.09 84.36L170.8 81.3L170.42 76.56C170.14 73.0784 168.847 69.7549 166.7 67C166.892 66.7037 167.144 66.4501 167.438 66.2549C167.733 66.0597 168.064 65.927 168.412 65.8651C168.76 65.8033 169.116 65.8135 169.46 65.8952C169.804 65.9768 170.127 66.1282 170.41 66.34L173 67.83C175.36 69.2 177.35 73.04 177.65 76.83L178.07 82.05C178.22 84 177.29 85.05 176.09 84.36Z" fill="#FAFAFA"/>
<path d="M158.27 52.5C158.27 49.57 156.73 46.31 154.83 45.22C152.93 44.13 151.39 45.6 151.39 48.53C151.39 51.46 152.93 54.71 154.83 55.81C156.73 56.91 158.27 55.43 158.27 52.5Z" fill="#FAFAFA"/>
<path d="M159.79 63.61C157.92 63.69 156.52 65.52 156.25 68.61L155.89 72.69L150.89 69.79C150.235 69.2751 149.719 68.6048 149.389 67.8399C149.059 67.075 148.925 66.2397 149 65.41L149.4 60.92C149.68 57.65 151.58 56.19 153.82 57.48L156.27 58.9C157.923 60.0469 159.158 61.6999 159.79 63.61Z" fill="#FAFAFA"/>
<path d="M403.43 113.82V99.69L391.5 98.69C391.327 98.6693 391.152 98.7044 391 98.79C390.54 99.04 380.93 104.57 380.78 104.66C380.669 104.727 380.574 104.817 380.502 104.925C380.43 105.033 380.383 105.156 380.365 105.285C380.347 105.413 380.358 105.544 380.397 105.668C380.435 105.792 380.502 105.905 380.59 106L393.23 119.72L403.43 113.82Z" fill="#92E3A9"/>
<path d="M393.23 119.68L380.59 106C380.47 105.871 380.392 105.71 380.366 105.536C380.34 105.362 380.367 105.184 380.444 105.026C380.521 104.868 380.644 104.737 380.797 104.65C380.949 104.564 381.125 104.525 381.3 104.54L393.23 105.54V119.68Z" fill="#92E3A9"/>
<path d="M403.42 99.69L393.23 105.55L381.3 104.55C381.161 104.538 381.02 104.559 380.89 104.61C381.84 104.05 390.57 99.03 391 98.8C391.152 98.7144 391.327 98.6793 391.5 98.7L403.42 99.69Z" fill="#92E3A9"/>
<path opacity="0.5" d="M403.42 99.69L393.23 105.55L381.3 104.55C381.161 104.538 381.02 104.559 380.89 104.61C381.84 104.05 390.57 99.03 391 98.8C391.152 98.7144 391.327 98.6793 391.5 98.7L403.42 99.69Z" fill="white"/>
<path d="M402.43 80.7L437.92 101.14C438.332 101.411 438.675 101.775 438.921 102.202C439.168 102.629 439.311 103.108 439.34 103.6V152.13C439.315 152.622 439.172 153.1 438.923 153.525C438.674 153.949 438.327 154.308 437.91 154.57L432.83 157.42C432.389 157.639 431.903 157.754 431.41 157.754C430.917 157.754 430.431 157.639 429.99 157.42L394.5 137C394.088 136.731 393.745 136.37 393.498 135.944C393.252 135.519 393.108 135.041 393.08 134.55V86C393.108 85.5091 393.252 85.0317 393.501 84.6075C393.749 84.1832 394.095 83.8242 394.51 83.56L399.59 80.72C400.029 80.4953 400.515 80.3765 401.008 80.373C401.501 80.3695 401.988 80.4815 402.43 80.7V80.7Z" fill="#92E3A9"/>
<path d="M431.41 156.59V108.05C431.383 107.56 431.241 107.083 430.996 106.657C430.751 106.232 430.41 105.87 430 105.6L394.5 85.15C393.72 84.7 393.08 85.07 393.08 85.97V134.51C393.102 135.008 393.242 135.493 393.489 135.926C393.736 136.359 394.083 136.727 394.5 137L430 157.41C430.77 157.86 431.41 157.49 431.41 156.59Z" fill="#92E3A9"/>
<path opacity="0.2" d="M430 157.41C430.443 157.625 430.928 157.737 431.42 157.737C431.912 157.737 432.397 157.625 432.84 157.41L437.92 154.56C438.333 154.297 438.679 153.939 438.927 153.517C439.176 153.095 439.321 152.619 439.35 152.13V103.6C439.328 103.084 439.17 102.584 438.89 102.15L431 106.66C431.258 107.079 431.403 107.558 431.42 108.05V156.58C431.41 157.41 430.82 157.89 430 157.41Z" fill="black"/>
<path opacity="0.4" d="M393.1 85.72C393.21 85 393.8 84.72 394.5 85.15L430 105.6C430.415 105.866 430.759 106.23 431 106.66L438.9 102.15C438.656 101.738 438.312 101.394 437.9 101.15L402.43 80.7C401.989 80.4807 401.503 80.3665 401.01 80.3665C400.517 80.3665 400.031 80.4807 399.59 80.7L394.51 83.55C394.135 83.7912 393.815 84.1094 393.572 84.4835C393.329 84.8576 393.168 85.2791 393.1 85.72V85.72Z" fill="white"/>
<path d="M397.71 117.21L399.2 122.21C399.256 122.35 399.346 122.474 399.461 122.571C399.576 122.669 399.713 122.737 399.86 122.77L402.8 123.48C403.111 123.562 403.379 123.758 403.55 124.03C404.016 124.98 404.544 125.899 405.13 126.78C405.284 127.009 405.345 127.288 405.3 127.56L404.35 130.79C404.331 130.927 404.344 131.066 404.389 131.196C404.435 131.327 404.51 131.445 404.61 131.54L408.05 135.18C408.105 135.256 408.184 135.312 408.275 135.34C408.365 135.367 408.462 135.363 408.55 135.33C408.578 135.312 408.602 135.288 408.62 135.26L410.23 132.81C410.34 132.63 410.63 132.65 410.89 132.81C411.15 132.97 411.53 133.22 411.84 133.4C412.15 133.58 412.5 133.77 412.84 133.93C413.137 134.068 413.379 134.3 413.53 134.59L415.22 139.14C415.288 139.269 415.386 139.379 415.506 139.461C415.627 139.543 415.765 139.594 415.91 139.61L419.04 139.92C419.133 139.957 419.237 139.957 419.33 139.92V139.92C419.382 139.889 419.423 139.843 419.447 139.787C419.47 139.731 419.475 139.669 419.46 139.61L418.46 135.13C418.439 135.013 418.461 134.892 418.522 134.789C418.582 134.686 418.677 134.609 418.79 134.57C419.283 134.378 419.743 134.108 420.15 133.77C420.263 133.71 420.394 133.689 420.521 133.71C420.647 133.732 420.763 133.795 420.85 133.89L424.05 136.81C424.142 136.907 424.267 136.968 424.4 136.98H424.52C424.554 136.957 424.581 136.926 424.6 136.89L426.03 133.74C426.062 133.611 426.061 133.475 426.028 133.346C425.995 133.217 425.93 133.098 425.84 133L422.84 129.36C422.653 129.139 422.551 128.859 422.55 128.57C422.625 127.712 422.625 126.848 422.55 125.99C422.549 125.931 422.559 125.872 422.582 125.818C422.604 125.763 422.637 125.713 422.679 125.672C422.721 125.631 422.772 125.599 422.827 125.578C422.882 125.557 422.941 125.547 423 125.55L425.69 125.4C425.96 125.4 426.13 125.18 426.05 124.95L424.57 119.95C424.512 119.812 424.422 119.69 424.307 119.594C424.192 119.498 424.056 119.432 423.91 119.4L420.97 118.69C420.658 118.605 420.39 118.405 420.22 118.13C419.754 117.183 419.226 116.268 418.64 115.39C418.488 115.16 418.427 114.882 418.47 114.61L419.47 111.37C419.48 111.232 419.462 111.092 419.415 110.962C419.369 110.831 419.295 110.711 419.2 110.61L415.76 106.98C415.56 106.77 415.3 106.73 415.18 106.91L413.58 109.35C413.47 109.53 413.18 109.51 412.91 109.35C412.297 108.924 411.652 108.546 410.98 108.22C410.681 108.086 410.438 107.853 410.29 107.56L408.6 103.01C408.532 102.881 408.434 102.771 408.314 102.689C408.193 102.607 408.055 102.556 407.91 102.54L404.78 102.23C404.686 102.198 404.584 102.198 404.49 102.23C404.433 102.256 404.388 102.302 404.362 102.359C404.337 102.416 404.332 102.48 404.35 102.54L405.35 107.02C405.369 107.136 405.348 107.255 405.29 107.357C405.231 107.459 405.14 107.538 405.03 107.58C404.532 107.769 404.069 108.04 403.66 108.38C403.547 108.442 403.416 108.464 403.289 108.442C403.162 108.421 403.046 108.356 402.96 108.26L399.76 105.34C399.59 105.19 399.42 105.14 399.3 105.2C399.261 105.219 399.229 105.251 399.21 105.29L397.79 108.44C397.759 108.57 397.759 108.706 397.79 108.837C397.821 108.967 397.883 109.088 397.97 109.19L400.97 112.81C401.156 113.035 401.258 113.318 401.26 113.61C401.26 114.04 401.2 114.49 401.2 114.94C401.2 115.39 401.2 115.77 401.27 116.19C401.27 116.249 401.258 116.308 401.235 116.363C401.211 116.418 401.177 116.467 401.134 116.508C401.091 116.55 401.04 116.582 400.985 116.602C400.929 116.623 400.869 116.633 400.81 116.63L398.13 116.78C398.067 116.769 398.003 116.769 397.94 116.78V116.78C397.896 116.793 397.856 116.814 397.82 116.842C397.785 116.871 397.756 116.906 397.734 116.946C397.713 116.986 397.7 117.03 397.695 117.076C397.691 117.121 397.696 117.167 397.71 117.21ZM409.49 126.35C406.28 122.97 404.76 117.84 406.09 114.91C406.286 114.388 406.617 113.928 407.049 113.577C407.481 113.225 407.999 112.995 408.55 112.91H408.67H408.78H408.92C409.687 112.895 410.447 113.059 411.14 113.39C411.412 113.505 411.676 113.639 411.93 113.79C412.806 114.315 413.604 114.962 414.3 115.71C416.611 118.116 417.987 121.269 418.18 124.6C418.184 124.904 418.167 125.208 418.13 125.51C418.071 126.075 417.926 126.628 417.7 127.15C417.468 127.742 417.062 128.25 416.535 128.607C416.009 128.964 415.386 129.154 414.75 129.15H414.46H414.13L413.86 129.1H413.73H413.56C411.972 128.584 410.561 127.631 409.49 126.35Z" fill="white"/>
<path d="M317.9 122.25C311.3 123.55 307.03 127.03 305.61 137.37C303.92 149.79 301.22 168.88 301.22 168.88C301.22 168.88 292.45 193.73 287.98 199.31C286.694 200.801 285.268 202.164 283.72 203.38C279.61 208.53 270.05 211.96 274.39 214.86C277.72 217.08 282.75 217.52 287.51 214.86C293.94 211.28 296.57 207.15 299.76 201.86C303.76 195.27 317.49 170.61 317.49 170.61L317.9 122.25Z" fill="#C8856A"/>
<path d="M289.57 196.86C288.72 198.28 285.79 198.63 283 199.19C280.21 199.75 278.07 201.39 276.13 201.79C274.46 202.13 274.94 204.12 277.92 204.28C280.9 204.44 284.41 202.17 284.99 204.28C285.57 206.39 291.08 200.64 289.57 196.86Z" fill="#C8856A"/>
<path d="M295.4 183.38L293.62 187.52C296.47 187.71 303.4 191.17 304.62 193.52L307.07 189.26L295.4 183.38Z" fill="#EBEBEB"/>
<path d="M317.9 122.25C317.9 122.25 311.19 122.04 307.95 127.8C304.71 133.56 300.7 168.8 300.7 168.8L294.23 185.21C296.96 185.02 305.32 189.28 306.4 191.87L317.68 173.39L317.9 122.25Z" fill="#37474F"/>
<path d="M358.52 336.55H348.73V353.31H358.52V336.55Z" fill="#C8856A"/>
<path d="M319.49 329.34L309.71 329.67L309.22 311.94L319.49 311.6V329.34Z" fill="#C8856A"/>
<path d="M358.16 194.88C358.16 204.23 357.78 280.62 357.78 280.62C358.01 283.31 360.6 288.1 360.78 297.79C361.08 311.79 358.92 344.93 358.92 344.93C357.23 345.761 355.378 346.212 353.494 346.25C351.611 346.288 349.742 345.913 348.02 345.15C348.02 345.15 340.33 298.33 338.57 284.43C337.04 272.29 332.78 217.85 332.78 217.85L325.29 269.63C326.427 274.733 326.837 279.972 326.51 285.19C326.05 291.62 320.09 323.84 320.09 323.84C318.385 324.804 316.49 325.382 314.537 325.533C312.584 325.683 310.622 325.402 308.79 324.71C308.79 324.71 308.21 274.13 308.09 268.23C307.96 261.5 309.5 192.86 309.5 192.86L358.16 194.88Z" fill="#37474F"/>
<path d="M348.73 348.48V347.08C348.2 347.08 347.88 347.59 347.68 348.85C347.53 349.75 347.4 350.44 347.1 351.62C346.669 353.331 346.097 355.003 345.39 356.62C344.01 360.03 342.85 361.3 339.68 365.29C338.611 366.396 337.609 367.564 336.68 368.79C336.09 369.84 335.88 372.79 336.88 373.45C340.58 375.91 346.19 375.98 350.16 374.81C351.642 374.4 352.974 373.572 353.997 372.424C355.021 371.277 355.692 369.859 355.93 368.34C356.07 367.44 356.02 366.51 356.12 365.6C356.468 363.537 357.308 361.589 358.57 359.92C359.309 358.957 359.942 357.918 360.46 356.82C361.28 354.82 360.62 352.55 360.09 350.54C359.64 348.81 359.15 346.91 358.56 347.07C358.56 347.28 358.56 348.14 358.56 348.14C357.85 348.93 355.88 349.71 353.66 349.79C352.19 349.86 348.72 349.57 348.73 348.48Z" fill="#263238"/>
<path d="M309.61 326.65C309.61 326.91 308.7 327.71 307.61 328.65C306.537 329.576 305.416 330.444 304.25 331.25C301.867 332.99 299.364 334.561 296.76 335.95C293.67 337.65 290.88 338.68 287.18 340.35C286.802 340.507 286.461 340.742 286.18 341.04C285.953 341.302 285.798 341.619 285.73 341.96C285.621 342.658 285.708 343.373 285.981 344.025C286.255 344.677 286.705 345.239 287.28 345.65C288.438 346.463 289.752 347.025 291.14 347.3C294.278 348.184 297.585 348.284 300.77 347.59C303.392 346.805 305.868 345.595 308.1 344.01C310.084 342.609 312.339 341.638 314.72 341.16C316.8 340.86 319.35 340.96 321.15 339.72C323.15 338.34 322.35 335.4 321.79 332.87C321.17 330.11 320.4 325.8 319.48 325.99V326.99C318.31 328.77 312.23 329.5 309.65 328.19L309.61 326.65Z" fill="#263238"/>
<path d="M332.8 217.85C327.735 216.261 323.079 213.581 319.16 210C319.16 210 321.79 214.93 329.62 219.51L325.83 266.76L332.8 217.85Z" fill="#263238"/>
<path d="M341.18 123.16C344.51 123.96 351.23 125.06 352.73 131.7C354.54 139.7 355.13 157.02 355.13 157.02L355.75 195.64C349.01 200.55 322.85 203.22 308.66 192.86C308.66 192.86 311.79 146.49 311.79 139.27C311.79 132.05 315.79 123.39 326.88 122.74L341.18 123.16Z" fill="#F5F5F5"/>
<path d="M327 122C324.436 125.141 322.562 128.787 321.5 132.7C320.16 138.54 318.89 204.82 318.89 204.82C318.89 204.82 311.32 203.9 308.08 201.36C308.08 201.36 307.42 147.19 308.77 138.77C311.18 123.88 311 122.4 327 121V122Z" fill="#455A64"/>
<path d="M344.1 121C344.1 121 334.87 126.67 334.77 149.26C334.68 168.78 334.98 207.62 334.98 207.62C334.98 207.62 350.3 208.62 359.98 202.79C359.98 202.79 357.98 178.13 357.83 164.34C361.83 144.76 365.33 125.67 359.7 124.12C354.07 122.57 344.1 121 344.1 121Z" fill="#455A64"/>
<path d="M345.13 133.38L340.91 138.61L343.02 144.57L337.47 158.8L344.17 144.57L341.82 138.95L345.13 133.38Z" fill="#37474F"/>
<path d="M315.33 131.7L316.25 137.11L312.59 141.87L317.68 157.9L313.74 142.05L317.12 137.6L315.33 131.7Z" fill="#37474F"/>
<path d="M338.8 89.33C338.802 91.9926 338.014 94.5959 336.536 96.8107C335.059 99.0255 332.957 100.752 330.498 101.773C328.039 102.793 325.332 103.061 322.72 102.543C320.109 102.024 317.709 100.743 315.826 98.8612C313.942 96.9792 312.66 94.5809 312.139 91.9696C311.619 89.3583 311.885 86.6515 312.904 84.1914C313.922 81.7313 315.647 79.6286 317.861 78.1491C320.075 76.6697 322.677 75.88 325.34 75.88C328.908 75.88 332.33 77.2967 334.854 79.8188C337.378 82.3409 338.797 85.7619 338.8 89.33V89.33Z" fill="#263238"/>
<path d="M348.6 98.9C348.6 98.9 346.42 109.14 345.54 110.82C344.96 111.862 344 112.64 342.86 112.99L343.02 105.78L348.6 98.9Z" fill="#263238"/>
<path d="M345.86 84.22C346.616 84.1381 347.381 84.2278 348.098 84.4823C348.815 84.7368 349.465 85.1496 350 85.69C351.8 87.53 350.79 93.27 348.56 98.9L344.45 99.37L345.86 84.22Z" fill="#263238"/>
<path d="M343.26 99.37C344.08 99.86 345.26 98.28 346.26 97.22C347.26 96.16 350.59 94.71 352.26 98.22C353.93 101.73 350.8 106.46 348.19 107.28C343.69 108.69 343.02 105.81 343.02 105.81L342.68 124.18C339.57 128.18 332.59 132.86 328.83 132.18C325.83 131.64 325.17 126.57 328.04 123.25V116.66C326.045 116.99 324.02 117.104 322 117C318.69 116.49 316.6 113.88 315.61 110.3C314.09 104.83 313.61 98.69 314.75 88.59C316.16 76.18 330.67 76.07 338.45 80.97C346.23 85.87 343.26 99.37 343.26 99.37Z" fill="#C8856A"/>
<path d="M343.26 100.76C343.67 100.76 345.26 98.15 346.26 97.22C347.68 95.93 345.85 84.22 345.85 84.22C346.338 83.1899 346.504 82.0363 346.325 80.9104C346.147 79.7845 345.633 78.7388 344.85 77.91C342.91 75.76 340.19 73.15 331.37 74.19C325.07 74.94 318.22 76.9 312.69 74.19C312.18 75.994 312.219 77.9093 312.803 79.6908C313.388 81.4722 314.49 83.0388 315.97 84.19C315.97 84.19 317.97 85.48 323.24 86.12C328.105 86.4872 332.993 86.3935 337.84 85.84C339.37 85.64 339.69 87.12 340.52 91.16C341.27 94.71 341.87 100.73 343.26 100.76Z" fill="#263238"/>
<path d="M345.85 85.13L350.85 82.46C350.691 82.1247 350.465 81.8253 350.187 81.5798C349.909 81.3343 349.583 81.148 349.231 81.032C348.878 80.9161 348.506 80.8729 348.136 80.9052C347.766 80.9376 347.407 81.0446 347.08 81.22C346.417 81.5941 345.922 82.2062 345.693 82.9322C345.465 83.6582 345.521 84.4438 345.85 85.13V85.13Z" fill="#263238"/>
<path d="M328.05 116.64C328.05 116.64 335.44 115.15 338.05 113.78C339.565 112.989 340.806 111.758 341.61 110.25C341.229 111.757 340.549 113.172 339.61 114.41C337.72 116.82 328.1 118.75 328.1 118.75L328.05 116.64Z" fill="#AF6152"/>
<path d="M327.35 97.11C327.364 97.3993 327.462 97.6783 327.633 97.9123C327.803 98.1463 328.039 98.3251 328.31 98.4264C328.582 98.5278 328.877 98.5473 329.159 98.4825C329.442 98.4178 329.699 98.2716 329.899 98.0621C330.099 97.8526 330.233 97.589 330.285 97.304C330.336 97.0189 330.303 96.725 330.189 96.4586C330.076 96.1923 329.886 95.9651 329.645 95.8054C329.403 95.6456 329.12 95.5603 328.83 95.56C328.429 95.5705 328.048 95.7394 327.77 96.0298C327.493 96.3202 327.342 96.7085 327.35 97.11V97.11Z" fill="#263238"/>
<path d="M328.62 92.77L331.78 94.52C332.004 94.0812 332.048 93.5721 331.902 93.1014C331.757 92.6307 331.433 92.2355 331 92C330.794 91.8917 330.568 91.8257 330.336 91.8059C330.104 91.7861 329.87 91.8128 329.648 91.8845C329.426 91.9563 329.221 92.0715 329.045 92.2236C328.868 92.3756 328.724 92.5614 328.62 92.77V92.77Z" fill="#263238"/>
<path d="M328.72 107.75L325.34 109C325.414 109.227 325.533 109.436 325.69 109.616C325.847 109.796 326.038 109.943 326.253 110.047C326.467 110.152 326.701 110.212 326.939 110.225C327.177 110.237 327.416 110.202 327.64 110.12C328.088 109.937 328.449 109.59 328.65 109.149C328.851 108.709 328.876 108.208 328.72 107.75Z" fill="#AF6152"/>
<path d="M315.31 93.87L318.63 92.37C318.548 92.1452 318.42 91.9396 318.256 91.766C318.091 91.5925 317.892 91.4545 317.672 91.3608C317.451 91.2671 317.214 91.2195 316.975 91.2211C316.736 91.2227 316.499 91.2734 316.28 91.37C315.822 91.5758 315.464 91.9533 315.283 92.4212C315.101 92.889 315.111 93.4094 315.31 93.87Z" fill="#263238"/>
<path d="M316 97.11C316.014 97.3993 316.112 97.6783 316.283 97.9123C316.454 98.1463 316.689 98.3251 316.961 98.4264C317.232 98.5278 317.527 98.5473 317.809 98.4825C318.092 98.4178 318.349 98.2716 318.549 98.0621C318.749 97.8526 318.883 97.589 318.935 97.304C318.986 97.0189 318.953 96.725 318.839 96.4586C318.726 96.1923 318.536 95.9651 318.295 95.8054C318.053 95.6456 317.77 95.5603 317.48 95.56C317.079 95.5705 316.698 95.7394 316.42 96.0298C316.143 96.3202 315.992 96.7085 316 97.11Z" fill="#263238"/>
<path d="M323.03 96.31L322.55 105.21L317.9 103.62L323.03 96.31Z" fill="#AF6152"/>
<path d="M323.45 131.14C324.36 133.29 326.03 134.14 329.07 134.51C330.595 134.618 332.126 134.415 333.57 133.913C335.014 133.411 336.341 132.621 337.47 131.59L334.6 128.73L328.9 131.44L327.35 127.8L323.45 131.14Z" fill="#37474F"/>
<path d="M325.83 130C325.393 131.286 325.223 132.647 325.33 134C325.473 135.223 325.939 136.386 326.68 137.37C327.159 137.677 327.703 137.869 328.269 137.929C328.834 137.99 329.407 137.918 329.94 137.72C330.914 136.885 331.696 135.85 332.233 134.685C332.77 133.52 333.049 132.253 333.05 130.97L328.9 131.44L325.83 130Z" fill="#455A64"/>
<path d="M326.68 137.37C323.45 150.03 321.5 171.57 321.89 173.74C322.28 175.91 324.71 183.74 326.58 183.74C328.45 183.74 331.74 175.99 331.49 174.01C331.02 170.24 329.16 137.35 329.94 137.69L326.68 137.37Z" fill="#455A64"/>
<path d="M329.94 137.72C329.414 137.953 328.835 138.043 328.263 137.982C327.691 137.92 327.145 137.709 326.68 137.37L326.57 137.79C326.975 138.213 327.49 138.515 328.057 138.662C328.624 138.808 329.221 138.794 329.78 138.62L329.94 137.72Z" fill="#37474F"/>
<path d="M328.9 131.44C334.76 128.49 341.84 124.18 342.78 119.44L342.83 116.8C342.83 116.8 345.13 117.53 345.73 121.4C345.23 127.2 341.2 133.16 335.96 136.15L333.05 131L328.9 131.44Z" fill="#E0E0E0"/>
<path d="M328.06 118.46C327.115 118.848 326.298 119.492 325.7 120.32C322.19 125 322.52 133 322.52 133L325.83 130L328.9 131.48C327.755 128.903 327.454 126.029 328.04 123.27L328.06 118.46Z" fill="#E0E0E0"/>
<path d="M359.69 124.16C364.27 125.34 367.3 125.71 370.44 131.7C373.17 136.91 385.77 158.7 388.44 163.93C389.78 166.52 391.11 169.48 387.57 173.07C384.73 175.93 366.04 193.48 362.99 196.48C360.797 198.805 357.817 200.231 354.63 200.48C349.88 200.9 347.56 199.22 346.72 198.19C341.72 192 351.32 191.06 354.63 189.01C356.162 188.073 357.533 186.894 358.69 185.52L358.49 182.24C358.49 182.24 361.99 182.24 363.11 181.35C364.23 180.46 374.2 167.5 374.2 167.5C374.2 167.5 359.94 148.73 358.11 144.8C356.28 140.87 354.2 127.18 359.69 124.16Z" fill="#C8856A"/>
<path d="M365.67 177.57L363.38 180.71C363.289 182.712 363.953 184.674 365.24 186.21C366.569 187.917 368.282 189.288 370.24 190.21L373.24 187.32L365.67 177.57Z" fill="#EBEBEB"/>
<path d="M364.35 178.77C364.35 178.77 365.09 186.99 372.18 189.26C372.18 189.26 389.04 173.17 390.62 170.99C392.2 168.81 391.1 166.52 387.71 160.57C384.32 154.62 371 130.33 368.79 127.8C366.58 125.27 363.01 124.8 357.88 123.7C355.372 128.297 354.615 133.648 355.75 138.76C357.75 146.98 359.58 149.16 359.58 149.16L372.67 167.71L364.35 178.77Z" fill="#37474F"/>
<path d="M230.51 283.71C230.571 284.744 230.309 285.771 229.76 286.65C228.384 288.938 226.761 291.067 224.92 293C222.33 295.79 218.45 299.08 215.67 301.5C214.13 302.85 214.07 304.89 216.28 305.6C220.397 306.612 224.745 306.007 228.43 303.91C231.19 302.43 235.12 295.58 237.43 294.54C240.06 293.35 241.54 292.75 242.43 291.54C243.76 289.72 244.1 288.36 242.96 286.24C241.72 283.93 239.85 280.36 239.08 280.75L239.32 281.49C238.72 283.38 233.57 285.58 230.93 285.05L230.51 283.71Z" fill="#37474F"/>
<path d="M250.67 296.51V295.24C250.42 297.17 247.86 303.1 244.36 306.3C241.57 308.84 237.77 311.77 236.8 314.6C235.83 317.43 241.29 318.72 244.89 318.36C248.39 317.93 251.614 316.242 253.96 313.61C256.25 310.99 256.21 309.19 257.28 307.75C258.35 306.31 260.81 304.68 261.39 303.01C261.71 302.09 261.33 300.08 260.88 298.38C260.43 296.68 260.03 295.1 259.5 295.24V296.24C258.24 297.227 256.68 297.753 255.08 297.73C253.79 297.75 250.66 297.49 250.67 296.51Z" fill="#37474F"/>
<path d="M265.15 204C266.44 191.35 269.03 171.28 266.15 157.11C251.53 154.9 237.05 152.92 222.27 151.11C218.71 169.47 217.01 218.37 218.88 225.22C224.06 246.22 226.71 261.9 229.8 282.84C230.086 284.241 229.844 285.697 229.12 286.93C227.949 288.971 226.546 290.87 224.94 292.59C223.7 293.91 222.53 295.38 221.19 296.67C221.057 296.799 220.953 296.954 220.885 297.127C220.818 297.3 220.789 297.485 220.8 297.67C221.05 299.67 223.94 299.35 225.96 298.67C228.518 297.712 230.732 296.013 232.32 293.79C233.67 292.07 236.32 288.96 237.72 287.12C238.278 286.415 238.767 285.658 239.18 284.86C239.652 283.811 239.747 282.631 239.45 281.52C239.395 281.229 239.355 280.935 239.33 280.64C239.25 277.77 242.11 246.53 241.26 239.4C240.33 231.66 239.26 229.46 236.67 222.99C238.49 209.66 240.21 195.52 241.99 181.99C242.3 196.61 242.36 213.29 244.24 227.32C245.74 238.55 246.47 246.32 247.66 257.32C248.8 267.87 250.18 287.32 250.31 290.21C250.421 292.034 250.368 293.865 250.15 295.68C249.274 299.724 247.27 303.438 244.37 306.39C243.7 307 242.97 307.63 242.24 308.27C240.76 309.92 241.18 311.36 244.66 311.66C248.14 311.96 251.21 309.86 253.85 306.66C255.03 305.22 259.5 297.84 259.5 296.34C259.5 295.9 259.5 295.49 259.5 295.13C259.528 292.382 259.772 289.64 260.23 286.93C261.69 278.29 264.83 262.71 265.35 255.8C266.18 244.8 265.35 239.49 262.56 230.8C263.62 220 263.89 216.29 265.15 204Z" fill="#FFA8A7"/>
<path d="M224.25 143.36C221.754 152.769 220.065 162.374 219.2 172.07C217.93 187.43 216.6 218.67 217.2 221.75C217.8 224.83 226.81 263.47 226.81 263.47C229.194 264.635 231.886 265.016 234.5 264.56C236.691 264.088 238.761 263.168 240.58 261.86C240.58 261.86 242.52 244.29 241.8 237.44C241.08 230.59 237.65 222.44 237.65 222.44L242 181.93C242 181.93 241.46 206.03 242.8 220.12C244.14 234.21 248.6 267.04 248.6 267.04C249.465 267.994 250.526 268.749 251.71 269.255C252.894 269.76 254.173 270.004 255.46 269.97C258.308 269.932 261.108 269.223 263.63 267.9C263.63 267.9 265.21 260.58 265.87 254.8C266.801 246.902 265.982 238.896 263.47 231.35C263.47 231.35 266.8 192.93 267.97 184.54C269.14 176.15 272.16 161.1 262.57 147.17C261.64 146.78 224.25 143.36 224.25 143.36Z" fill="#37474F"/>
<path d="M242 181.93V180.12C242 180.12 233 177.3 228.67 171.73C228.67 171.73 230.74 177.02 239.67 181.93C239.67 181.93 239.48 205.65 239.5 205.4C239.52 205.15 242 181.93 242 181.93Z" fill="#263238"/>
<path d="M219.27 104.39C216.06 113.84 210.7 140.99 210.7 140.99C210.7 140.99 200.7 155.58 197.28 159.77C195.57 161.88 191.87 166.07 191.87 166.07L200.24 172.65C206.3 165.65 215.44 156.36 219.24 151.54C221.04 149.23 222.54 147.25 223.02 145.22L226.83 121.07C226.83 121.07 226.83 101.77 229.83 99.23C232.83 96.69 233.63 96.17 233.63 96.17C229.76 95.9 221.79 97 219.27 104.39Z" fill="#FFA8A7"/>
<path d="M235.3 95.9C230.08 95.3 223.4 95.4 220.14 101.24C216.88 107.08 211.45 137.16 211.45 137.16C211.45 137.16 216.58 141.16 222.13 141.09L235.3 95.9Z" fill="#455A64"/>
<path d="M220.79 124C221.734 128.495 222.1 133.092 221.88 137.68C221.46 143.68 217.17 154.78 217.17 154.78C217.17 154.78 220.55 157.85 229.75 156.41C237.23 155.24 234.59 132.66 230.29 128.29C227.782 125.707 224.386 124.173 220.79 124V124Z" fill="#37474F"/>
<path d="M248.67 96.33C248.67 96.33 261.17 97.77 262.67 98.44C250.95 106.68 260.44 125.03 260.44 125.03L255.95 139.1C258.83 142.8 261.49 145.62 263.73 148.71C265.476 151.038 266.886 153.6 267.92 156.32C270.92 164.15 237.47 176.59 219.21 162.17C219.94 157.64 221.1 152.93 222.14 148.71C223.57 142.86 224.79 137.93 224.38 135.64C219.13 119.47 218.81 116.56 219.74 112.95C222.36 102.8 232.74 95.95 235.26 95.95L248.67 96.33Z" fill="#92E3A9"/>
<path d="M248.67 96.33C248.67 96.33 260.37 97.33 262.67 98.44C264.97 99.55 268.78 106.12 265.36 115.71C261.94 125.3 258.85 136.56 259.2 138.83C259.55 141.1 267.7 152.83 267.7 152.83C265.33 154.36 262.82 155.95 260.2 156.43L256 147.28L257 156.97C257 156.97 249.49 158.79 244.12 158.33C244.11 158.33 240.14 121.15 248.67 96.33Z" fill="#455A64"/>
<path d="M219 92.84H238.36C241.388 92.84 244.387 92.2435 247.185 91.0847C249.983 89.9258 252.525 88.2272 254.666 86.0859C256.807 83.9446 258.506 81.4025 259.665 78.6047C260.824 75.8069 261.42 72.8083 261.42 69.78V69.78C261.417 64.1556 259.182 58.7623 255.205 54.7852C251.228 50.8081 245.835 48.5727 240.21 48.57V48.57C237.425 48.57 234.667 49.1186 232.093 50.1845C229.52 51.2504 227.182 52.8127 225.212 54.7823C223.243 56.7518 221.681 59.09 220.615 61.6633C219.549 64.2366 219 66.9947 219 69.78V92.84Z" fill="#263238"/>
<path d="M227.11 58.15C224.86 59.47 222.11 65.15 222.37 76.92C222.6 86.92 225.85 89.4 227.48 90.12C229.11 90.84 232.25 90.4 235.3 89.89V95.89C235.3 95.89 231.08 100.79 231.3 103.55C231.52 106.31 237.39 106.95 241.3 104.26C245.21 101.57 248.58 96.32 248.58 96.32L248.52 82.51C248.52 82.51 250.31 84.25 253.36 81.59C255.88 79.39 256.73 75.68 254.77 73.68C254.261 73.203 253.646 72.8541 252.975 72.6623C252.304 72.4706 251.597 72.4414 250.913 72.5773C250.229 72.7132 249.587 73.0102 249.04 73.4437C248.494 73.8772 248.058 74.4347 247.77 75.07C247.77 75.07 246.07 70.36 239.03 68.07C232.78 66 229.33 63.6 227.11 58.15Z" fill="#FFA8A7"/>
<path d="M233.82 74C233.818 74.247 233.889 74.4891 234.024 74.6961C234.159 74.9031 234.352 75.0659 234.578 75.1643C234.805 75.2627 235.055 75.2923 235.298 75.2495C235.542 75.2067 235.767 75.0933 235.946 74.9235C236.126 74.7536 236.251 74.5348 236.307 74.2942C236.363 74.0536 236.347 73.8019 236.261 73.5703C236.175 73.3387 236.023 73.1375 235.824 72.9916C235.625 72.8458 235.387 72.7618 235.14 72.75C234.8 72.7419 234.47 72.8688 234.222 73.103C233.975 73.3371 233.831 73.6596 233.82 74Z" fill="#263238"/>
<path d="M233.21 82.89L230.29 83.82C230.342 84.0163 230.433 84.2001 230.557 84.3602C230.682 84.5204 230.838 84.6536 231.015 84.7517C231.193 84.8499 231.389 84.911 231.591 84.9313C231.793 84.9517 231.997 84.9308 232.19 84.87C232.584 84.7372 232.911 84.4562 233.101 84.0866C233.292 83.7171 233.331 83.2879 233.21 82.89V82.89Z" fill="#F28F8F"/>
<path d="M223.63 71L226.18 69.23C226.074 69.0587 225.934 68.9108 225.768 68.7956C225.603 68.6803 225.415 68.6001 225.218 68.5598C225.02 68.5196 224.817 68.5201 224.619 68.5614C224.422 68.6027 224.235 68.6839 224.07 68.8C223.729 69.0407 223.493 69.403 223.411 69.8123C223.33 70.2216 223.408 70.6467 223.63 71V71Z" fill="#263238"/>
<path d="M237.21 71.47L234.66 69.7C234.768 69.5294 234.91 69.3825 235.076 69.268C235.243 69.1534 235.431 69.0737 235.629 69.0335C235.827 68.9934 236.031 68.9936 236.229 69.0343C236.426 69.0749 236.614 69.1551 236.78 69.27C237.12 69.5121 237.353 69.8752 237.433 70.2844C237.513 70.6936 237.433 71.1179 237.21 71.47V71.47Z" fill="#263238"/>
<path d="M224.3 73.72C224.298 73.9666 224.369 74.2082 224.504 74.4149C224.638 74.6216 224.83 74.7844 225.056 74.883C225.282 74.9816 225.532 75.0117 225.775 74.9696C226.018 74.9275 226.243 74.8151 226.423 74.6462C226.603 74.4774 226.729 74.2595 226.786 74.0196C226.843 73.7798 226.828 73.5284 226.744 73.2967C226.66 73.0651 226.509 72.8633 226.311 72.7163C226.113 72.5694 225.876 72.4837 225.63 72.47C225.289 72.4619 224.958 72.5885 224.709 72.8224C224.46 73.0563 224.313 73.3787 224.3 73.72Z" fill="#263238"/>
<path d="M230.37 72.77L230.17 80.35L226.18 79.11L230.37 72.77Z" fill="#F28F8F"/>
<path d="M235.3 89.89C238.52 89.46 245.15 87.56 246.18 84.89C245.765 86.2137 244.956 87.379 243.86 88.23C241.86 89.93 235.3 91.84 235.3 91.84V89.89Z" fill="#F28F8F"/>
<path d="M278.49 142C279.41 136.48 278.49 134.68 276.54 129.27L265.69 135.61C265.69 135.61 267.28 139.68 267.15 142C267.06 143.58 264.9 159.39 262.86 164.9C262.492 165.872 261.78 166.676 260.86 167.16C258.39 168.48 257.33 169.93 255.43 171.67C253.93 173.03 252.72 173.31 252.87 173.79C253.104 174.32 253.53 174.743 254.062 174.973C254.594 175.203 255.194 175.223 255.74 175.03C256.958 174.641 258.126 174.111 259.22 173.45C258.252 175.53 256.955 177.441 255.38 179.11C251.79 182.94 251.47 185.43 258.16 185.95C262.34 186.27 265.87 183.95 269.65 174.95C270.827 171.641 271.796 168.261 272.55 164.83C274.57 156.9 277.56 147.54 278.49 142Z" fill="#FFA8A7"/>
<path d="M262.66 98.44C267.37 100.56 268.96 104.63 271.39 111.02C273.66 117.02 278.69 135.35 278.69 135.35C278.69 135.35 272.99 140.98 266.45 139.35L258.11 119C258.11 119 254.19 105.7 262.66 98.44Z" fill="#37474F"/>
<path d="M93.6901 368.56C92.9801 368.83 92.5701 370.18 92.2501 373.47C92.0501 375.47 91.3601 378.2 94.4701 379.85C95.6069 380.437 96.8696 380.737 98.1487 380.725C99.4279 380.712 100.685 380.388 101.81 379.78C104.5 378.11 105.34 374.3 108.5 371.78C111.27 369.61 115.72 367.44 117.27 364.09C118.55 361.33 118.55 357.38 113.96 357.59C108.37 357.85 105.2 362.26 101.41 362.35C99.2901 362.43 94.4101 368.3 93.6901 368.56Z" fill="#263238"/>
<path d="M93.7001 366.94V370.26C93.7001 371.88 100.6 374.26 102.53 370.59C102.68 370.27 103.43 365.73 103.43 365.73L93.7001 366.94Z" fill="#FFBDA7"/>
<path d="M125.67 387.88C125.67 387.88 124.36 387.88 123.85 393.23C123.65 395.23 123.16 399.45 123.85 400.97C124.54 402.49 128.32 403.15 132.55 403.53C135.71 403.81 138.55 405.34 141.48 406.99C144.25 408.553 147.361 409.411 150.54 409.49C154.54 409.49 157.93 409.09 160.78 406.83C162.3 405.63 164.22 403.1 162.78 401.2C162.194 400.62 161.45 400.226 160.64 400.07C158.86 399.41 157.07 398.8 155.25 398.23C152.538 397.432 149.89 396.429 147.33 395.23C143.6 393.39 139.44 391.33 136.62 388.18L125.67 387.88Z" fill="#263238"/>
<path d="M125.69 385.11C125.69 385.11 125.69 387.57 125.69 388.98C125.69 390.39 127.33 392.49 131.63 392.36C134.63 392.27 136.76 391.47 136.63 388.98V385.39L125.69 385.11Z" fill="#FFBDA7"/>
<path d="M91.77 322.9C92.532 317.029 93.8718 311.248 95.77 305.64C95.77 305.64 94.66 290.72 94.17 276.58C93.7267 262.092 94.1307 247.591 95.38 233.15C95.38 233.15 143.38 228.59 144.21 246.25C145.04 263.91 143.86 308.82 143.21 316.57C142.56 324.32 141.97 331.57 140.33 346.01C138.92 358.43 136.64 385.39 136.64 385.39C134.926 386.255 133.024 386.682 131.105 386.633C129.185 386.584 127.308 386.061 125.64 385.11C125.64 385.11 122.02 348.91 121.64 339.97C121.1 328.37 123.81 321.97 123.81 321.97C123.81 321.97 122.81 314.68 120.99 299.68C119.73 289.08 118.05 277.01 118.05 277.01C118.05 277.01 116.41 291.95 115.41 300.28C114.49 308 112.92 314.1 110.6 328.49C108.6 340.98 103.11 367.4 103.11 367.4C97.46 370.4 93.68 366.94 93.68 366.94C93.68 366.94 90.19 333.73 91.77 322.9Z" fill="#37474F"/>
<path d="M118.07 277L115.8 262.26C115.8 262.26 106.45 259.26 101.69 253.72C101.69 253.72 104.23 260.2 112.94 263.72L116.43 276.14L117.03 286.39L118.07 277Z" fill="#263238"/>
<path d="M105.26 174C97.7701 172.19 93.0301 175.82 90.2601 186C87.8901 194.74 84.4201 212.82 83.0701 219.57C82.5701 222.07 81.5901 224.94 86.8501 228.09C94.4778 232.504 102.351 236.481 110.43 240L113.31 229.23L101.69 205.4L105.26 174Z" fill="#92E3A9"/>
<path opacity="0.25" d="M105.26 174C97.7701 172.19 93.0301 175.82 90.2601 186C87.8901 194.74 84.4201 212.82 83.0701 219.57C82.5701 222.07 81.5901 224.94 86.8501 228.09C94.4778 232.504 102.351 236.481 110.43 240L113.31 229.23L101.69 205.4L105.26 174Z" fill="black"/>
<path d="M125.96 169.21L123.72 184.98L109.53 184.49L110.9 166.07L125.96 169.21Z" fill="#FFBDA7"/>
<path d="M136.14 149.75C136.14 149.75 139.95 155.33 139.53 155.89C139.11 156.45 136.39 156.99 136.39 156.99L136.14 149.75Z" fill="#F0997A"/>
<path d="M130.19 148.83C130.176 147.914 130.434 147.015 130.932 146.246C131.429 145.477 132.143 144.873 132.984 144.51C133.824 144.147 134.754 144.041 135.654 144.206C136.555 144.371 137.386 144.8 138.044 145.438C138.701 146.075 139.154 146.893 139.346 147.789C139.539 148.684 139.461 149.616 139.124 150.467C138.786 151.318 138.204 152.05 137.45 152.571C136.697 153.091 135.806 153.376 134.89 153.39C134.282 153.399 133.678 153.289 133.113 153.065C132.548 152.84 132.032 152.507 131.596 152.084C131.159 151.66 130.81 151.155 130.569 150.597C130.328 150.038 130.199 149.438 130.19 148.83ZM131.19 148.83C131.202 149.542 131.425 150.234 131.83 150.819C132.236 151.405 132.806 151.857 133.468 152.118C134.13 152.379 134.855 152.439 135.551 152.288C136.247 152.138 136.882 151.784 137.377 151.272C137.872 150.761 138.204 150.114 138.332 149.413C138.459 148.713 138.376 147.99 138.092 147.337C137.809 146.684 137.338 146.129 136.74 145.744C136.141 145.358 135.442 145.158 134.73 145.17C133.782 145.194 132.882 145.59 132.225 146.274C131.568 146.957 131.207 147.872 131.22 148.82L131.19 148.83Z" fill="#263238"/>
<path d="M125.58 134.31C133.12 135.78 135.35 139.05 136.24 150.99C137.18 163.46 135.97 167.4 134.36 169.11C133.27 170.26 127.12 170.56 124 169.76C120.1 168.76 111.27 165.76 107.06 159.56C102.06 152.25 100.68 142.26 105.79 138.07C113 132.17 122.51 133.72 125.58 134.31Z" fill="#FFBDA7"/>
<path d="M125.84 170.08C129.09 170.43 133.45 170.08 134.36 169.08C130.73 169.31 126.28 167.49 126.28 167.49L125.84 170.08Z" fill="#F0997A"/>
<path d="M137.41 137.32L137.18 137.56C135.69 139.02 133.77 139.96 132.18 141.34C130.485 142.877 129.275 144.875 128.7 147.09C128.21 148.91 128.04 151.09 126.08 151.93C126.08 151.93 124.76 147.12 120.7 147.79C116.64 148.46 116.15 153.7 118.78 156.79C121.41 159.88 123.78 158.66 123.78 158.66C123.78 158.66 123.78 165.57 120.78 169.52C120.78 169.52 117.32 170.7 110.9 169.44C106.9 168.66 101.31 163.84 98.9001 158.67C93.7801 147.73 93.2801 137.83 100.26 134.74C100.94 129.66 104.9 127.32 109.44 126.2C116.23 124.53 122.67 128.47 129.38 126.86C130.79 126.52 132.15 125.99 133.58 125.79C133.74 125.745 133.91 125.745 134.07 125.79C134.42 125.96 134.4 126.45 134.31 126.79C133.967 128.146 133.305 129.401 132.38 130.45C134.965 130.563 137.548 130.196 140 129.37C140.181 130.804 140.042 132.26 139.595 133.635C139.147 135.009 138.401 136.268 137.41 137.32V137.32Z" fill="#263238"/>
<path d="M101.28 137.24L96.7401 134.66C96.9095 134.362 97.136 134.1 97.4066 133.89C97.6772 133.679 97.9866 133.524 98.3171 133.433C98.6477 133.342 98.993 133.317 99.3332 133.359C99.6735 133.402 100.002 133.511 100.3 133.68C100.598 133.849 100.86 134.076 101.071 134.347C101.281 134.617 101.436 134.927 101.527 135.257C101.618 135.588 101.643 135.933 101.601 136.273C101.559 136.613 101.45 136.942 101.28 137.24Z" fill="#263238"/>
<path d="M126.18 154.63L125.96 149.41C126.303 149.396 126.645 149.449 126.967 149.567C127.289 149.684 127.585 149.865 127.838 150.097C128.09 150.329 128.295 150.608 128.439 150.92C128.584 151.231 128.666 151.567 128.68 151.91C128.695 152.253 128.641 152.595 128.524 152.917C128.406 153.239 128.226 153.535 127.993 153.788C127.761 154.04 127.482 154.245 127.171 154.389C126.859 154.534 126.523 154.616 126.18 154.63Z" fill="#263238"/>
<path d="M139 147.73L125.04 149.76L125.62 150.73L139.02 148.78L139 147.73Z" fill="#263238"/>
<path d="M93.8701 182.25C95.5301 175.77 97.8701 173.66 103.5 173.51C106.406 173.708 109.298 174.078 112.16 174.62C112.75 177.35 119.82 179.21 126.97 177.73C129.1 178.35 134.73 179.89 136.49 180.53C141.55 182.36 144.01 187.62 144.34 204.3C144.34 204.3 145.34 243.86 144.34 250.69C131.58 255.69 118.34 255.44 111.02 253.81C95.8001 250.4 94.0201 244.07 94.0201 244.07C94.0201 244.07 94.8201 228.19 95.3301 216.12C94.5701 208.43 93.4201 202.65 93.0101 196.51C92.6351 191.74 92.9246 186.941 93.8701 182.25V182.25Z" fill="#92E3A9"/>
<path d="M180.23 179.52C181.46 176.4 183.23 170.84 186.17 167.04C189.11 163.24 190.17 160.45 191.3 162.11C192.82 164.31 189.39 168.71 190.15 169.11C190.91 169.51 193.77 175.34 194.06 178.56C194.35 181.78 185.82 189.88 185.82 189.88L180.23 179.52Z" fill="#FFBDA7"/>
<path d="M136.49 180.53C139.096 181.031 141.535 182.179 143.58 183.87C147.13 186.87 165.05 200.87 165.05 200.87L181.15 177.52L189.03 186.59C189.03 186.59 177.23 209.05 172.29 217.45C170.75 220.08 166.85 220.57 160.12 216.69C154.52 213.46 136.12 201.91 136.12 201.91C136.12 201.91 131.53 188.56 136.49 180.53Z" fill="#FFBDA7"/>
<path d="M135.52 180.2C137.38 180.306 139.199 180.786 140.87 181.61C143.54 182.97 165.05 200.47 165.05 200.47L170.54 192.94C174.97 194.06 178.22 196.09 181.62 200.56C181.62 200.56 175.62 213.37 173.1 217.68C170.58 221.99 168.4 221.06 163.62 219C158.84 216.94 139.13 205.4 139.13 205.4C139.13 205.4 133.52 201.57 132.64 195.17C131 183 135.52 180.2 135.52 180.2Z" fill="#92E3A9"/>
<path opacity="0.1" d="M135.52 180.2C137.38 180.306 139.199 180.786 140.87 181.61C143.54 182.97 165.05 200.47 165.05 200.47L170.54 192.94C174.97 194.06 178.22 196.09 181.62 200.56C181.62 200.56 175.62 213.37 173.1 217.68C170.58 221.99 168.4 221.06 163.62 219C158.84 216.94 139.13 205.4 139.13 205.4C139.13 205.4 133.52 201.57 132.64 195.17C131 183 135.52 180.2 135.52 180.2Z" fill="black"/>
<path opacity="0.1" d="M165.05 200.47C166.654 202.031 168.173 203.676 169.6 205.4C169.6 205.4 169.48 202.32 166 199.17L165.05 200.47Z" fill="black"/>
<path d="M170.54 192.94L173.34 188.88C175.664 189.245 177.874 190.138 179.8 191.49C181.578 192.609 183.044 194.161 184.06 196L181.62 200.56C178.645 197.107 174.829 194.482 170.54 192.94V192.94Z" fill="#92E3A9"/>
<path opacity="0.25" d="M170.54 192.94L173.34 188.88C175.664 189.245 177.874 190.138 179.8 191.49C181.578 192.609 183.044 194.161 184.06 196L181.62 200.56C178.645 197.107 174.829 194.482 170.54 192.94V192.94Z" fill="black"/>
<path d="M182.37 196.51C182.37 196.709 182.291 196.9 182.15 197.04C182.01 197.181 181.819 197.26 181.62 197.26C181.421 197.26 181.23 197.181 181.09 197.04C180.949 196.9 180.87 196.709 180.87 196.51C180.87 196.311 180.949 196.12 181.09 195.98C181.23 195.839 181.421 195.76 181.62 195.76C181.819 195.76 182.01 195.839 182.15 195.98C182.291 196.12 182.37 196.311 182.37 196.51Z" fill="#455A64"/>
<path d="M110.57 170.52L110.45 172.04C110.45 172.04 111.2 174.18 115.45 174.98C122.69 176.33 125.22 174.08 125.22 174.08L125.4 172.78C125.4 172.78 126.1 172.49 127.27 173.39C129.051 175.246 130.721 177.206 132.27 179.26C132.27 179.26 130.89 178.85 126.37 180.78C121.856 182.535 116.883 182.722 112.25 181.31C110.96 180.88 109.805 180.119 108.902 179.103C107.998 178.087 107.377 176.851 107.1 175.52C107 174.2 109.32 170 110.57 170.52Z" fill="#92E3A9"/>
<path opacity="0.25" d="M110.57 170.52L110.45 172.04C110.45 172.04 111.2 174.18 115.45 174.98C122.69 176.33 125.22 174.08 125.22 174.08L125.4 172.78C125.4 172.78 126.1 172.49 127.27 173.39C129.051 175.246 130.721 177.206 132.27 179.26C132.27 179.26 130.89 178.85 126.37 180.78C121.856 182.535 116.883 182.722 112.25 181.31C110.96 180.88 109.805 180.119 108.902 179.103C107.998 178.087 107.377 176.851 107.1 175.52C107 174.2 109.32 170 110.57 170.52Z" fill="black"/>
<path d="M189.91 168.65C189.91 168.65 200.22 167.76 201.73 168.65C203.24 169.54 202.78 174 201.73 176.74C200.68 179.48 195.42 181.26 190.54 184.56C190.53 184.07 189.91 168.65 189.91 168.65Z" fill="#FFBDA7"/>
<path d="M190.54 184.54C192.54 183.07 192.54 181.27 192.96 178.4C193.38 175.53 201.23 172.4 201.48 174.58C201.73 176.76 202.48 178.51 200.02 181.1C197.56 183.69 194.15 186.47 190.54 184.54Z" fill="#FFA8A7"/>
<path d="M191.09 166.07C189.21 168.51 188.89 171.39 187.9 172.98C186.91 174.57 185.4 176.4 187.58 176.69C189.76 176.98 192.41 174.14 193.58 171.55C194.186 170.093 195.322 168.92 196.76 168.27C195.76 167.92 196.27 163.81 195.55 163.27C195.58 163.25 191.87 164.76 191.09 166.07Z" fill="#FFA8A7"/>
</svg>
