<svg width="500" height="500" viewBox="0 0 500 500" fill="none" xmlns="http://www.w3.org/2000/svg">
<path d="M412.5 250.46C322.16 198.31 176.19 198.31 86.44 250.46C-3.31004 302.61 -2.83005 387.18 87.5 439.33C177.83 491.48 323.82 491.49 413.57 439.33C503.32 387.17 502.83 302.62 412.5 250.46Z" fill="#F5F5F5"/>
<path d="M226.45 438.35L91.3098 360.31L118.32 344.65L253.49 422.74L226.45 438.35Z" fill="#E6E6E6"/>
<path d="M365.77 363.75V363.74L288.17 318.94H288.18L210.58 274.14L132.98 229.34L55.8899 274.14L133.48 318.94L211.08 363.74V363.75L288.68 408.55H288.67L366.27 453.35L443.37 408.55L365.77 363.75Z" fill="#E6E6E6"/>
<path d="M424.36 403.33L419.74 399.53C419.45 392.25 419.17 384.53 420.38 377.38C421.59 370.23 424.38 363.08 429.56 357.91C431.71 355.74 434.38 353.91 437.42 353.55C440.46 353.19 443.84 354.73 444.89 357.6C445.94 360.47 444.33 363.87 442.57 366.54C438.83 372.23 434.36 377.42 430.69 383.16C426.829 389.203 424.644 396.164 424.36 403.33V403.33Z" fill="#92E3A9"/>
<path d="M424.36 404.32L428.98 408.12C432.4 400.91 437.11 394.22 443.62 389.6C445.942 388.154 448.112 386.479 450.1 384.6C451.96 382.6 453.26 379.84 452.72 377.17C452.03 373.73 448.38 371.46 444.87 371.44C441.36 371.42 438.08 373.2 435.37 375.44C427 382.23 422.26 393.77 424.36 404.32Z" fill="#92E3A9"/>
<path opacity="0.3" d="M424.36 404.32L428.98 408.12C432.4 400.91 437.11 394.22 443.62 389.6C445.942 388.154 448.112 386.479 450.1 384.6C451.96 382.6 453.26 379.84 452.72 377.17C452.03 373.73 448.38 371.46 444.87 371.44C441.36 371.42 438.08 373.2 435.37 375.44C427 382.23 422.26 393.77 424.36 404.32Z" fill="black"/>
<path d="M421.75 401.59C421.643 401.587 421.541 401.543 421.467 401.467C421.392 401.39 421.35 401.287 421.35 401.18C421.54 390.38 423.97 370.42 438.09 358.18C438.13 358.145 438.177 358.119 438.227 358.102C438.277 358.085 438.33 358.078 438.383 358.082C438.436 358.086 438.488 358.1 438.535 358.124C438.583 358.147 438.625 358.18 438.66 358.22C438.695 358.26 438.721 358.307 438.738 358.357C438.755 358.407 438.762 358.46 438.758 358.513C438.754 358.566 438.74 358.618 438.717 358.665C438.693 358.713 438.66 358.755 438.62 358.79C432.62 363.96 422.62 376.36 422.15 401.23C422.14 401.329 422.094 401.421 422.02 401.487C421.946 401.554 421.85 401.591 421.75 401.59V401.59Z" fill="white"/>
<path d="M426.6 406.56C426.547 406.555 426.496 406.54 426.45 406.515C426.403 406.49 426.362 406.456 426.328 406.415C426.295 406.374 426.27 406.327 426.255 406.276C426.239 406.226 426.234 406.173 426.24 406.12C427.18 396.41 431.42 383.03 446.24 374.46C446.333 374.409 446.443 374.396 446.545 374.424C446.648 374.452 446.736 374.519 446.79 374.61C446.817 374.656 446.834 374.707 446.841 374.759C446.848 374.812 446.844 374.865 446.83 374.916C446.816 374.968 446.792 375.015 446.76 375.057C446.727 375.099 446.686 375.134 446.64 375.16C432.12 383.55 427.96 396.67 427.03 406.16C427.032 406.216 427.022 406.271 427 406.322C426.979 406.374 426.947 406.42 426.906 406.458C426.865 406.496 426.817 406.524 426.764 406.542C426.711 406.56 426.655 406.566 426.6 406.56V406.56Z" fill="white"/>
<path d="M62.1599 227.57C60.3499 225.84 58.2799 223.95 58.1599 221.45C58.1663 220.33 58.5144 219.239 59.1578 218.322C59.8011 217.405 60.7089 216.707 61.7599 216.32C62.8207 215.961 63.943 215.819 65.0598 215.903C66.1767 215.987 67.2651 216.296 68.2599 216.81C70.241 217.855 72.0056 219.267 73.4599 220.97C77.8422 225.839 81.0144 231.672 82.719 237.997C84.4235 244.321 84.6122 250.959 83.2699 257.37C83.2292 257.804 83.0945 258.224 82.8752 258.6C82.6559 258.977 82.3572 259.301 81.9999 259.55C80.7899 260.19 79.4099 259.06 78.5899 257.97C76.7837 255.567 75.4284 252.857 74.5899 249.97C73.8599 247.54 74.1899 244.87 73.2799 242.58C71.0499 237 66.4699 231.69 62.1599 227.57Z" fill="#92E3A9"/>
<path d="M80.9999 256.27C80.9365 256.271 80.8734 256.26 80.8146 256.236C80.7557 256.213 80.7023 256.177 80.6574 256.133C80.6126 256.088 80.5773 256.034 80.5536 255.975C80.53 255.917 80.5185 255.854 80.5199 255.79C80.4605 248.768 78.8397 241.847 75.7749 235.529C72.71 229.211 68.278 223.654 62.7999 219.26C62.7495 219.221 62.7074 219.172 62.6761 219.117C62.6447 219.061 62.6247 219 62.6173 218.937C62.6099 218.874 62.6151 218.809 62.6327 218.748C62.6503 218.687 62.6799 218.63 62.7199 218.58C62.758 218.53 62.8058 218.488 62.8605 218.457C62.9151 218.426 62.9755 218.406 63.0379 218.398C63.1004 218.391 63.1638 218.396 63.2242 218.414C63.2847 218.431 63.341 218.46 63.3899 218.5C68.9857 222.982 73.5126 228.654 76.6418 235.104C79.771 241.555 81.4237 248.621 81.4799 255.79C81.4812 255.854 81.4697 255.917 81.4461 255.975C81.4225 256.034 81.3872 256.088 81.3423 256.133C81.2975 256.177 81.244 256.213 81.1852 256.236C81.1263 256.26 81.0633 256.271 80.9999 256.27V256.27Z" fill="white"/>
<path d="M75.05 275.47C72.05 276.47 68.17 275.81 66.41 273.14C64.33 270 65.63 265.14 62.85 262.62C61.3 261.2 59.01 261.06 56.95 260.62C54.89 260.18 52.59 259.06 52.29 256.97C51.88 254.21 55.29 251.92 54.8 249.16C54.31 246.4 50.58 245.6 49.47 243.08C48.47 240.79 50.25 238.01 52.61 237.15C54.97 236.29 57.61 236.88 59.95 237.76C62.29 238.64 64.59 239.76 67.08 240.09C69.57 240.42 72.66 239.9 74.57 241.68C77.11 244.06 75.66 248.6 77.62 251.47C78.94 253.4 81.43 254.07 83.33 255.47C84.5117 256.326 85.4708 257.453 86.1268 258.756C86.7828 260.059 87.1166 261.501 87.1 262.96C87.04 266.13 85.37 268.41 82.99 270.23C80.45 272.13 78.18 274.46 75.05 275.47Z" fill="#92E3A9"/>
<path opacity="0.2" d="M75.05 275.47C72.05 276.47 68.17 275.81 66.41 273.14C64.33 270 65.63 265.14 62.85 262.62C61.3 261.2 59.01 261.06 56.95 260.62C54.89 260.18 52.59 259.06 52.29 256.97C51.88 254.21 55.29 251.92 54.8 249.16C54.31 246.4 50.58 245.6 49.47 243.08C48.47 240.79 50.25 238.01 52.61 237.15C54.97 236.29 57.61 236.88 59.95 237.76C62.29 238.64 64.59 239.76 67.08 240.09C69.57 240.42 72.66 239.9 74.57 241.68C77.11 244.06 75.66 248.6 77.62 251.47C78.94 253.4 81.43 254.07 83.33 255.47C84.5117 256.326 85.4708 257.453 86.1268 258.756C86.7828 260.059 87.1166 261.501 87.1 262.96C87.04 266.13 85.37 268.41 82.99 270.23C80.45 272.13 78.18 274.46 75.05 275.47Z" fill="black"/>
<path d="M73.6699 253.86V253.81C73.2099 253.15 72.7399 252.5 72.2399 251.87C67.7299 246.285 61.6146 242.219 54.7199 240.22C54.6589 240.2 54.5945 240.193 54.5306 240.199C54.4667 240.205 54.4048 240.224 54.3486 240.255C54.2924 240.286 54.2431 240.328 54.2038 240.379C54.1644 240.43 54.1359 240.488 54.1199 240.55C54.0857 240.673 54.101 240.805 54.1627 240.917C54.2244 241.029 54.3275 241.113 54.4499 241.15C61.1441 243.095 67.0787 247.05 71.4499 252.48C71.5899 252.65 71.7099 252.83 71.8399 253C66.3799 251 60.8399 252.14 57.8399 254.53C57.7903 254.57 57.7491 254.619 57.7186 254.675C57.6882 254.731 57.6692 254.792 57.6627 254.855C57.6562 254.919 57.6623 254.983 57.6807 255.043C57.6991 255.104 57.7294 255.161 57.7699 255.21C57.8134 255.267 57.8694 255.312 57.9337 255.344C57.9979 255.375 58.0685 255.391 58.1399 255.39C58.2526 255.389 58.3616 255.35 58.4499 255.28C61.3899 252.91 67.4499 251.86 72.9599 254.52C76.3999 259.559 78.4206 265.431 78.8099 271.52C78.8175 271.642 78.8715 271.757 78.9607 271.84C79.0499 271.924 79.1676 271.97 79.2899 271.97C79.353 271.966 79.4147 271.95 79.4715 271.922C79.5283 271.895 79.579 271.856 79.6208 271.808C79.6626 271.761 79.6947 271.706 79.7151 271.646C79.7355 271.586 79.744 271.523 79.7399 271.46C79.3426 265.153 77.2451 259.071 73.6699 253.86V253.86Z" fill="white"/>
<path d="M134.03 208.25L70.88 244.95L70.8 275.79L134.36 312.48L197.5 275.79L197.59 244.95L134.03 208.25Z" fill="#92E3A9"/>
<path opacity="0.2" d="M197.59 244.95L134.03 208.25L70.8801 244.95L134.44 281.64L197.59 244.95Z" fill="white"/>
<path opacity="0.3" d="M134.44 281.64L134.36 312.48L197.5 275.79L197.59 244.95L134.44 281.64Z" fill="black"/>
<path d="M209.48 212.41L146.33 249.11L146.25 319.35L209.81 356.05L272.96 319.35L273.04 249.11L209.48 212.41Z" fill="#92E3A9"/>
<path opacity="0.2" d="M273.04 249.11L209.48 212.41L146.33 249.11L209.89 285.81L273.04 249.11Z" fill="white"/>
<path opacity="0.3" d="M209.89 285.81L209.81 356.05L272.96 319.35L273.04 249.11L209.89 285.81Z" fill="black"/>
<path d="M286.75 216.88L223.6 253.57L223.52 363.76L287.08 400.46L350.22 363.76L350.31 253.57L286.75 216.88Z" fill="#92E3A9"/>
<path opacity="0.2" d="M350.31 253.57L286.75 216.88L223.6 253.57L287.16 290.27L350.31 253.57Z" fill="white"/>
<path opacity="0.3" d="M287.16 290.27L287.08 400.46L350.22 363.76L350.31 253.57L287.16 290.27Z" fill="black"/>
<path d="M286.79 216.59L223.64 253.28L223.56 363.61L287.12 400.31L350.26 363.61L350.35 253.28L286.79 216.59Z" fill="#92E3A9"/>
<path opacity="0.2" d="M350.35 253.28L286.79 216.59L223.64 253.28L287.2 289.98L350.35 253.28Z" fill="white"/>
<path opacity="0.3" d="M287.2 289.98L287.12 400.31L350.26 363.61L350.35 253.28L287.2 289.98Z" fill="black"/>
<path d="M365.81 205.81L302.67 242.51L302.58 409.43L366.14 446.13L429.29 409.43L429.37 242.51L365.81 205.81Z" fill="#92E3A9"/>
<path opacity="0.2" d="M429.37 242.51L365.81 205.81L302.67 242.51L366.23 279.21L429.37 242.51Z" fill="white"/>
<path opacity="0.3" d="M366.23 279.21L366.14 446.13L429.29 409.43L429.37 242.51L366.23 279.21Z" fill="black"/>
<path d="M250.36 249.81L246 246.89L213.1 313.67L217.42 316.59L236.74 305.44C235.9 336.83 227.19 352.57 218.74 361.61L217.39 361.95L216.6 362.13L215.02 362.47L214.31 362.62L213.1 362.84L212.21 362.99L210.93 363.19L210.08 363.32C209.61 363.39 209.08 363.44 208.65 363.5L207.9 363.6L205.9 363.8H205.69C204.96 363.87 204.22 363.92 203.48 363.97C202.54 364.04 201.59 364.08 200.63 364.12H199.77H197.68H196.83C195.68 364.12 194.52 364.12 193.36 364.06H192.76C191.68 364.06 190.6 363.96 189.51 363.89H188.96C187.85 363.81 186.74 363.72 185.62 363.6L184.82 363.52C183.82 363.41 182.82 363.3 181.82 363.17L181.23 363.09C180.14 362.94 179.05 362.78 177.95 362.6L177.16 362.46C176.26 362.31 175.37 362.15 174.47 361.98L173.63 361.82C172.56 361.61 171.48 361.38 170.39 361.14L169.9 361.03C168.97 360.82 168.03 360.59 167.09 360.36L166.09 360.12L163.58 359.46L162.81 359.25C161.74 358.95 160.66 358.64 159.58 358.31L158.83 358.08C158.003 357.833 157.173 357.573 156.34 357.3L155.34 356.96L152.91 356.13L152.06 355.84C150.993 355.46 149.923 355.07 148.85 354.67L148.27 354.44C147.38 354.11 146.49 353.76 145.6 353.44L144.6 353.02L142.3 352.07L141.3 351.64L138.3 350.35L138.02 350.23C136.94 349.74 135.85 349.23 134.77 348.73L133.77 348.28C132.99 347.91 132.2 347.53 131.42 347.14L130.34 346.61C129.51 346.2 128.69 345.78 127.86 345.35L127.03 344.93L123.76 343.19C123.16 342.88 122.57 342.55 121.98 342.19C121.67 342.02 121.36 341.86 121.06 341.68L118.41 340.19L118.33 340.14L91.3101 355.92V360.31C122.01 377.98 152.08 386.39 178.31 384.65C190.78 383.83 201.42 380.78 210.08 375.58C209.87 375.71 209.66 375.85 209.44 375.97L236.54 360.22C238.946 358.826 241.233 357.237 243.38 355.47C243.67 355.24 243.97 354.99 244.26 354.74L244.52 354.52L245.21 353.91L245.45 353.7L246.36 352.87L246.51 352.72L247.28 351.99L247.56 351.72L248.32 350.95L248.5 350.76C248.81 350.44 249.12 350.12 249.43 349.76C249.5 349.67 249.58 349.59 249.66 349.5C249.9 349.24 250.14 348.97 250.38 348.69L250.65 348.37C250.95 348.03 251.24 347.68 251.53 347.32L251.59 347.25C251.9 346.87 252.21 346.48 252.51 346.08C252.6 345.96 252.69 345.85 252.77 345.73C253.01 345.42 253.24 345.1 253.48 344.78L253.73 344.43L254.63 343.11C254.677 343.049 254.72 342.986 254.76 342.92L255.33 342.05L255.5 341.77L255.93 341.06C256.11 340.77 256.29 340.48 256.46 340.18L256.89 339.43L257.4 338.51L257.83 337.71C257.99 337.39 258.16 337.07 258.32 336.71L258.74 335.88C258.81 335.72 258.88 335.58 258.96 335.43C259.04 335.28 259.21 334.89 259.33 334.61L259.51 334.23C259.77 333.65 260.03 333.05 260.29 332.44C260.34 332.31 260.4 332.16 260.46 332.03C260.66 331.52 260.87 331.03 261.07 330.49L261.26 329.98C261.26 329.86 261.35 329.75 261.4 329.64L261.61 329.03C261.81 328.48 262 327.93 262.19 327.37C262.3 327.05 262.41 326.72 262.51 326.37C262.69 325.81 262.87 325.25 263.04 324.67C263.1 324.46 263.17 324.27 263.23 324.06C263.29 323.85 263.31 323.75 263.36 323.6C263.49 323.14 263.62 322.66 263.75 322.18C263.88 321.7 263.96 321.38 264.07 320.97C264.18 320.56 264.31 319.97 264.43 319.47C264.51 319.17 264.58 318.88 264.65 318.57C264.65 318.45 264.71 318.31 264.73 318.19C264.83 317.75 264.92 317.31 265.02 316.87L265.32 315.41C265.41 314.95 265.49 314.49 265.57 314.03C265.65 313.57 265.71 313.34 265.77 313.03C265.77 312.86 265.82 312.69 265.85 312.52L266.06 311.22C266.15 310.67 266.23 310.11 266.31 309.54C266.39 308.97 266.44 308.64 266.5 308.18C266.5 307.87 266.59 307.57 266.63 307.25L266.72 306.42C266.77 305.97 266.83 305.53 266.87 305.07C266.94 304.46 267 303.83 267.06 303.21C267.11 302.75 267.15 302.29 267.19 301.82L267.25 301.18C267.25 300.73 267.32 300.26 267.35 299.8C267.38 299.34 267.42 298.92 267.44 298.47C267.44 297.72 267.53 296.95 267.57 296.18C267.57 295.78 267.57 295.39 267.63 294.99C267.63 294.91 267.63 294.83 267.63 294.75C267.63 293.75 267.7 292.68 267.73 291.63V291.38C267.73 290.23 267.73 289.05 267.73 287.86C267.73 287.74 267.73 287.63 267.73 287.51L283.48 278.42L250.36 249.81Z" fill="#455A64"/>
<path d="M250.36 249.81L217.46 316.59L213.14 313.67L246 246.89L250.36 249.81ZM211.63 374.59C212.22 374.21 212.79 373.82 213.36 373.41L214.04 372.93C214.79 372.38 215.53 371.82 216.25 371.23L217.12 370.49L217.38 370.27L217.96 369.77L218.07 369.67L218.31 369.46C218.61 369.19 218.92 368.91 219.22 368.62L219.38 368.47L219.62 368.25L220.15 367.74L220.42 367.47C220.48 367.41 220.54 367.34 220.61 367.28L221.18 366.71L221.36 366.52L221.99 365.85L222.29 365.53L222.52 365.28L223.24 364.46L223.52 364.14L223.8 363.81L224.4 363.09C224.405 363.067 224.405 363.043 224.4 363.02C224.49 362.92 224.57 362.81 224.65 362.71C224.88 362.43 225.1 362.14 225.33 361.85L225.59 361.51L226.12 360.78L226.29 360.55L226.54 360.2L227.05 359.46L227.45 358.89C227.488 358.82 227.531 358.753 227.58 358.69L227.91 358.16C228.05 357.96 228.18 357.75 228.31 357.54C228.44 357.33 228.6 357.07 228.75 356.83C228.9 356.59 229.1 356.25 229.27 355.95C229.44 355.65 229.56 355.45 229.71 355.2L230.04 354.6L230.22 354.28L230.64 353.48C230.75 353.28 230.85 353.07 230.96 352.86L231.14 352.51C231.28 352.24 231.41 351.96 231.55 351.68L231.62 351.53L232.15 350.42C232.21 350.29 232.26 350.16 232.32 350.04C232.49 349.67 232.65 349.28 232.82 348.9C232.91 348.68 233.01 348.47 233.1 348.25C233.19 348.03 233.22 347.96 233.27 347.82C233.48 347.32 233.68 346.82 233.88 346.3C233.95 346.12 234.01 345.95 234.08 345.78C234.15 345.61 234.23 345.37 234.31 345.16L234.43 344.83C234.62 344.28 234.82 343.73 235 343.17C235.09 342.93 235.17 342.67 235.25 342.42L235.33 342.19C235.51 341.63 235.68 341.07 235.86 340.49V340.42C235.96 340.09 236.06 339.76 236.15 339.42C236.24 339.08 236.41 338.48 236.54 338C236.54 338 236.54 337.92 236.54 337.87C236.63 337.51 236.73 337.16 236.82 336.79C236.95 336.3 237.07 335.79 237.19 335.29L237.49 334.01C237.59 333.58 237.68 333.13 237.77 332.69C237.83 332.42 237.88 332.15 237.94 331.88C238 331.61 238.03 331.45 238.07 331.23C238.16 330.77 238.25 330.31 238.33 329.85C238.41 329.42 238.49 328.99 238.56 328.55C238.56 328.47 238.56 328.39 238.56 328.3C238.64 327.87 238.71 327.44 238.77 327C238.86 326.45 238.95 325.89 239.03 325.33L239.21 323.96C239.29 323.38 239.37 322.79 239.44 322.2L239.59 320.86C239.66 320.24 239.72 319.62 239.78 318.99C239.78 318.53 239.87 318.07 239.91 317.61C239.96 316.94 240.02 316.26 240.06 315.61C240.06 315.17 240.13 314.73 240.16 314.28C240.21 313.53 240.25 312.76 240.29 311.99C240.29 311.59 240.29 311.21 240.35 310.8C240.4 309.7 240.43 308.57 240.46 307.43C240.46 307.35 240.46 307.27 240.46 307.19C240.46 305.91 240.46 304.59 240.46 303.25L236.59 305.48C235.75 336.87 227.04 352.61 218.59 361.65C216.875 363.475 215.044 365.189 213.11 366.78C210.915 368.576 208.573 370.185 206.11 371.59C205.67 371.84 205.22 372.08 204.77 372.32L203.9 372.78C203.42 373.03 202.9 373.26 202.43 373.49L201.61 373.88C201 374.16 200.37 374.42 199.74 374.68L199.5 374.78C198.61 375.14 197.72 375.48 196.81 375.78C196.33 375.95 195.81 376.1 195.35 376.26L194.5 376.54C193.89 376.73 193.26 376.91 192.63 377.08L191.69 377.33C191.17 377.47 190.63 377.61 190.09 377.73L188.99 377.98C188.397 378.12 187.797 378.25 187.19 378.37L186.72 378.45L184.78 378.8L183.94 378.93L182.28 379.16L181.36 379.28L179.65 379.47L178.8 379.56C177.96 379.64 177.11 379.71 176.25 379.76C175.39 379.81 174.3 379.87 173.32 379.91H172.53C171.84 379.91 171.15 379.91 170.45 379.91H169.59C168.44 379.91 167.29 379.91 166.12 379.85H165.95C164.73 379.85 163.51 379.74 162.29 379.66H161.75C160.61 379.58 159.46 379.48 158.31 379.36H158.13C156.99 379.24 155.84 379.11 154.68 378.96L154.09 378.88C152.79 378.7 151.49 378.5 150.18 378.28H150.02L147.33 377.8L146.5 377.64C145.42 377.43 144.34 377.2 143.26 376.96L142.77 376.85C141.83 376.64 140.89 376.42 139.95 376.18L138.95 375.94C138.12 375.73 137.28 375.51 136.45 375.28H136.37C135.07 374.92 133.76 374.55 132.45 374.16L131.69 373.92C130.69 373.62 129.69 373.31 128.69 372.99C127.69 372.67 126.69 372.34 125.69 371.99L124.84 371.7C123.74 371.31 122.63 370.9 121.53 370.49L121.04 370.3L118.38 369.3L117.38 368.88C116.38 368.47 115.38 368.04 114.32 367.61L114.21 367.56C113.21 367.13 112.15 366.68 111.12 366.22L111 366C109.92 365.51 108.84 365 107.76 364.51L106.76 364.05C105.98 363.683 105.2 363.303 104.42 362.91L103.33 362.38C102.42 361.93 101.51 361.46 100.6 360.99L100.02 360.7C98.9301 360.13 97.8401 359.56 96.7501 358.97L94.9501 357.97L94.0601 357.48C93.1501 356.97 92.2301 356.48 91.3201 355.93V360.32C122.02 377.99 152.09 386.4 178.32 384.66C190.79 383.84 201.43 380.79 210.09 375.59C210.36 375.44 210.62 375.28 210.88 375.11C211.14 374.94 211.37 374.76 211.63 374.59Z" fill="#37474F"/>
<path opacity="0.2" d="M94.9401 358L96.7401 359C97.8301 359.59 98.9201 360.16 100.01 360.73L100.59 361.02C101.5 361.49 102.41 361.96 103.32 362.41L104.41 362.94C105.19 363.327 105.97 363.707 106.75 364.08L107.75 364.54C108.83 365.05 109.91 365.54 110.99 366.03L111.26 366.15C112.26 366.61 113.32 367.06 114.35 367.49L114.46 367.54C115.46 367.97 116.46 368.4 117.52 368.81L118.52 369.23L121.18 370.23L121.67 370.42C122.77 370.83 123.88 371.24 124.98 371.63L125.83 371.92C126.83 372.27 127.83 372.6 128.83 372.92C129.83 373.24 130.83 373.55 131.83 373.85L132.59 374.09C133.9 374.48 135.21 374.85 136.51 375.21H136.59C137.42 375.44 138.26 375.66 139.09 375.87L140.09 376.11C141.03 376.35 141.97 376.57 142.91 376.78L143.4 376.89C144.48 377.13 145.56 377.36 146.64 377.57L147.47 377.73L150.16 378.21H150.32C151.63 378.43 152.93 378.63 154.23 378.81L154.82 378.89C155.98 379.04 157.13 379.17 158.27 379.29H158.45C159.6 379.41 160.75 379.51 161.89 379.59H162.43C163.65 379.67 164.87 379.74 166.09 379.78H166.26C167.43 379.78 168.58 379.84 169.73 379.84H170.59C171.29 379.84 171.98 379.84 172.67 379.84H173.46C174.46 379.84 175.46 379.76 176.39 379.69C177.32 379.62 178.1 379.57 178.94 379.49L179.79 379.4L181.5 379.21L182.42 379.09L184.08 378.86L184.92 378.73L186.86 378.38L187.33 378.3C187.937 378.18 188.537 378.05 189.13 377.91L190.23 377.66C190.77 377.54 191.31 377.4 191.83 377.26L192.77 377.01C193.4 376.84 194.03 376.66 194.64 376.47L195.49 376.19C195.98 376.03 196.49 375.88 196.95 375.71C197.86 375.39 198.75 375.05 199.64 374.71L199.88 374.61C200.51 374.35 201.14 374.09 201.75 373.81L202.57 373.42C203.06 373.19 203.57 372.96 204.04 372.71L204.91 372.25C205.36 372.01 205.81 371.77 206.25 371.52C208.713 370.115 211.055 368.506 213.25 366.71C215.184 365.119 217.015 363.405 218.73 361.58L217.38 361.92L216.59 362.1L215.01 362.44L214.3 362.59L213.09 362.81L212.2 362.96L210.92 363.16L210.07 363.29C209.6 363.36 209.07 363.41 208.64 363.47L207.89 363.57L205.89 363.77H205.68C204.95 363.84 204.21 363.89 203.47 363.94C202.53 364.01 201.58 364.05 200.62 364.09H199.76H197.67H196.82C195.67 364.09 194.51 364.09 193.35 364.03H192.75C191.67 364.03 190.59 363.93 189.5 363.86H188.95C187.84 363.78 186.73 363.69 185.61 363.57L184.81 363.49C183.81 363.38 182.81 363.27 181.81 363.14L181.22 363.06C180.13 362.91 179.04 362.75 177.94 362.57L177.15 362.43C176.25 362.28 175.36 362.12 174.46 361.95L173.62 361.79C172.55 361.58 171.47 361.35 170.38 361.11L169.89 361C168.96 360.79 168.02 360.56 167.08 360.33L166.08 360.09L163.57 359.43L162.8 359.22C161.73 358.92 160.65 358.61 159.57 358.28L158.82 358.05C157.993 357.803 157.163 357.543 156.33 357.27L155.33 356.93L152.9 356.1L152.05 355.81C150.983 355.43 149.913 355.04 148.84 354.64L148.26 354.41C147.37 354.08 146.48 353.73 145.59 353.41L144.59 352.99L142.29 352.04L141.29 351.61L138.29 350.32L138.01 350.2C136.93 349.71 135.84 349.2 134.76 348.7L133.76 348.25C132.98 347.88 132.19 347.5 131.41 347.11L130.33 346.58C129.5 346.17 128.68 345.75 127.85 345.32L127.02 344.9L123.75 343.16C123.15 342.85 122.56 342.52 121.97 342.16C121.66 341.99 121.35 341.83 121.05 341.65L118.4 340.16L118.32 340.11L91.3101 355.92C92.2201 356.45 93.1401 356.92 94.0501 357.47L94.9401 358Z" fill="white"/>
<path d="M71.8501 79.39C76.2901 76.83 80.0401 78.09 81.2401 82.07C82.3024 79.884 83.9501 78.0355 86.0001 76.73C89.4801 74.73 92.3101 76.34 92.3201 80.33V82.17L97.0001 79.47C99.4401 78.07 101.42 79.2 101.43 82C101.348 83.5253 100.906 85.0096 100.142 86.332C99.377 87.6544 98.3109 88.7776 97.0301 89.61L57.5001 112.45C55.0601 113.85 53.0801 112.73 53.0701 109.93C53.1493 108.403 53.5894 106.916 54.3542 105.591C55.119 104.267 56.1868 103.142 57.4701 102.31L62.1401 99.61V96.24C62.1101 90.05 66.4701 82.51 71.8501 79.39Z" fill="#E6E6E6"/>
<path d="M110.61 94.35C113.8 92.52 116.49 93.42 117.35 96.28C118.117 94.705 119.309 93.3752 120.79 92.44C123.28 91 125.32 92.16 125.32 95.03V96.35L128.67 94.41C130.42 93.41 131.84 94.21 131.84 96.22C131.785 97.3159 131.471 98.383 130.923 99.3339C130.375 100.285 129.61 101.092 128.69 101.69L100.3 118.08C98.5501 119.08 97.1301 118.28 97.1201 116.27C97.1812 115.174 97.4991 114.108 98.048 113.158C98.5969 112.208 99.3615 111.4 100.28 110.8L103.63 108.87V106.44C103.758 104.017 104.457 101.659 105.67 99.558C106.883 97.4569 108.576 95.6724 110.61 94.35V94.35Z" fill="#E6E6E6"/>
<path d="M433.45 89.55C430.26 87.71 427.57 88.61 426.71 91.47C425.942 89.8978 424.751 88.5713 423.27 87.64C420.78 86.2 418.74 87.36 418.74 90.23V91.54L415.39 89.61C413.64 88.61 412.22 89.41 412.22 91.42C412.275 92.5159 412.59 93.583 413.137 94.5339C413.685 95.4847 414.45 96.2922 415.37 96.89L443.76 113.28C445.51 114.28 446.93 113.48 446.94 111.47C446.879 110.374 446.561 109.308 446.012 108.358C445.463 107.408 444.699 106.6 443.78 106L440.43 104.06V101.64C440.299 99.218 439.598 96.8611 438.385 94.7605C437.173 92.6599 435.482 90.8748 433.45 89.55V89.55Z" fill="#E6E6E6"/>
<path d="M257.57 61C257.571 60.8636 257.535 60.7295 257.467 60.6116C257.398 60.4937 257.299 60.3964 257.18 60.33V60.33L253.72 58.4C253.606 58.3342 253.477 58.2996 253.345 58.2996C253.213 58.2996 253.084 58.3342 252.97 58.4L229.24 72.1C228.802 72.3379 228.452 72.7093 228.24 73.16C228.109 73.4596 228.041 73.783 228.04 74.11V82.93L219.82 91.43C219.09 92.19 219.01 93.34 219.58 93.52L222.86 95.32C222.914 95.381 222.983 95.427 223.06 95.4533C223.137 95.4795 223.22 95.4853 223.3 95.47L228.07 94.89V101.37C228.07 101.504 228.105 101.635 228.171 101.751C228.238 101.867 228.334 101.963 228.45 102.03V102.03L231.9 103.94H231.95C232.058 103.996 232.178 104.025 232.3 104.025C232.422 104.025 232.542 103.996 232.65 103.94L256.38 90.23C256.732 90.028 257.025 89.7367 257.228 89.3856C257.432 89.0345 257.539 88.6359 257.54 88.23L257.57 61ZM232.14 74.46L232.06 74.55L232.14 74.46ZM231.91 74.75C231.915 74.7765 231.915 74.8036 231.91 74.83C231.915 74.8036 231.915 74.7765 231.91 74.75ZM231.58 75.53C231.584 75.5633 231.584 75.5968 231.58 75.63C231.584 75.5968 231.584 75.5633 231.58 75.53V75.53ZM232.31 74.29L232.39 74.22L232.31 74.29Z" fill="#92E3A9"/>
<path opacity="0.1" d="M231.6 103.29C231.6 103.421 231.635 103.55 231.699 103.664C231.764 103.778 231.857 103.873 231.97 103.94L228.52 102C228.404 101.933 228.308 101.837 228.241 101.721C228.175 101.605 228.14 101.474 228.14 101.34V94.8601L231.61 94.4401L231.6 103.29Z" fill="black"/>
<path opacity="0.2" d="M229.21 72.09L252.94 58.39C253.054 58.3242 253.183 58.2896 253.315 58.2896C253.447 58.2896 253.576 58.3242 253.69 58.39V58.39L257.15 60.32C257.033 60.2515 256.9 60.2153 256.765 60.2153C256.63 60.2153 256.497 60.2515 256.38 60.32L232.68 74C232.232 74.2522 231.88 74.6462 231.68 75.12L228.23 73.12C228.442 72.6834 228.784 72.3234 229.21 72.09Z" fill="white"/>
<path opacity="0.1" d="M228.08 82.92V74.1C228.081 73.773 228.149 73.4496 228.28 73.15L231.73 75.15C231.613 75.432 231.556 75.7349 231.56 76.04V84.87L228.09 82.93L228.08 82.92Z" fill="black"/>
<path opacity="0.05" d="M219.86 91.42L228.08 82.92L231.55 84.86L223.34 93.35C222.7 94 222.56 94.95 222.9 95.35L219.62 93.55C219.05 93.33 219.13 92.18 219.86 91.42Z" fill="white"/>
<path d="M245.69 72.77C245.766 72.7108 245.859 72.6786 245.955 72.6786C246.051 72.6786 246.144 72.7108 246.22 72.77L250.87 77.22C251.2 77.53 250.87 78.43 250.35 78.74L247.78 80.22L247.84 90.79L243.72 93.17L243.66 82.6L241.09 84.08C240.55 84.4 240.24 83.86 240.56 83.18L245.16 73.38C245.277 73.1315 245.46 72.9202 245.69 72.77V72.77Z" fill="white"/>
<path opacity="0.1" d="M242.64 242.31C241.07 238.64 237.8 235.16 232.84 232.31C218.39 223.96 195.04 223.96 180.68 232.31C166.32 240.66 166.4 254.18 180.85 262.52C192.45 269.22 209.79 270.52 223.6 266.47V253.57L242.64 242.31Z" fill="black"/>
<path d="M155.77 149.71L172.62 136.55L174.26 139.51L157.16 152.92L155.77 149.71Z" fill="#263238"/>
<path d="M186.75 161.55L196.21 160.69C195.01 166.69 192.9 175.01 192.9 175.01L184.18 169.41L186.75 161.55Z" fill="#455A64"/>
<path d="M134.86 200.26C134.85 198.095 135.553 195.986 136.86 194.26C137.901 193.071 139.002 191.936 140.16 190.86C140.988 190.063 141.618 189.084 142 188C142.366 186.754 142.912 185.569 143.62 184.48C144.408 183.222 145.645 182.31 147.08 181.93C147.361 181.863 147.652 181.856 147.936 181.907C148.22 181.959 148.491 182.069 148.73 182.23L148.45 181.88C148.201 181.566 147.867 181.33 147.487 181.201C147.108 181.071 146.699 181.054 146.31 181.15C144.841 181.532 143.576 182.467 142.78 183.76C142.048 184.862 141.488 186.069 141.12 187.34C140.742 188.476 140.098 189.505 139.24 190.34C138.06 191.437 136.938 192.595 135.88 193.81C134.542 195.566 133.818 197.713 133.82 199.92C133.784 200.375 133.84 200.832 133.985 201.265C134.129 201.698 134.359 202.098 134.66 202.44C135.014 202.754 135.459 202.947 135.93 202.99C135.837 202.932 135.75 202.865 135.67 202.79C135.369 202.446 135.141 202.045 135.002 201.609C134.862 201.174 134.814 200.715 134.86 200.26V200.26Z" fill="black"/>
<path d="M149.19 182.59C149.062 182.431 148.91 182.293 148.74 182.18C148.501 182.019 148.23 181.909 147.946 181.857C147.662 181.806 147.371 181.813 147.09 181.88C145.655 182.26 144.418 183.172 143.63 184.43C142.914 185.533 142.365 186.736 142 188C141.628 189.109 140.997 190.113 140.16 190.93C139.002 192.006 137.901 193.141 136.86 194.33C135.553 196.056 134.85 198.165 134.86 200.33C134.824 200.776 134.878 201.224 135.019 201.648C135.16 202.073 135.385 202.464 135.68 202.8C135.76 202.875 135.847 202.942 135.94 203C136.273 203.199 136.645 203.321 137.031 203.357C137.417 203.394 137.806 203.343 138.17 203.21C139.002 202.886 139.728 202.339 140.27 201.63C140.84 200.96 141.27 200.21 141.88 199.53C142.854 198.448 143.944 197.475 145.13 196.63L148.34 194.17L149.8 183.47C149.8 183.47 149.53 183 149.19 182.59Z" fill="#263238"/>
<path d="M172.08 180.79L171.59 194C165.59 187.92 149.97 182.25 149.97 182.25C144.05 186.61 145.37 191.62 147.59 194C159.83 200.66 173.81 209.62 177.01 208.88C180.21 208.14 184.45 203.28 187.56 194.12L181.56 183.82L172.08 180.79Z" fill="#37474F"/>
<path d="M214.44 251.72C214.31 251.99 214.127 252.231 213.902 252.428C213.677 252.626 213.414 252.776 213.13 252.87C212.565 253.058 211.975 253.162 211.38 253.18C210.092 253.315 208.793 253.295 207.51 253.12C206.223 252.949 205.009 252.426 204 251.61C203.132 250.762 202.379 249.804 201.76 248.76C200.105 246.339 198.053 244.216 195.69 242.48C195.752 242.911 195.838 243.339 195.95 243.76C198.223 245.44 200.188 247.501 201.76 249.85C202.381 250.895 203.134 251.856 204 252.71C205.011 253.522 206.225 254.044 207.51 254.22C208.794 254.385 210.092 254.405 211.38 254.28C211.976 254.259 212.565 254.151 213.13 253.96C213.414 253.866 213.677 253.716 213.902 253.518C214.127 253.321 214.31 253.08 214.44 252.81C214.608 252.404 214.632 251.952 214.51 251.53C214.491 251.595 214.468 251.658 214.44 251.72V251.72Z" fill="#263238"/>
<path d="M213.91 249.31C213.317 248.69 212.645 248.152 211.91 247.71C208.652 245.489 206.222 242.25 205 238.5L195.82 239.02C195.413 240.131 195.368 241.342 195.69 242.48C198.053 244.216 200.105 246.339 201.76 248.76C202.379 249.804 203.132 250.762 204 251.61C205.009 252.426 206.224 252.949 207.51 253.12C208.793 253.295 210.092 253.315 211.38 253.18C211.975 253.162 212.565 253.058 213.13 252.87C213.414 252.776 213.677 252.626 213.902 252.428C214.127 252.231 214.31 251.99 214.44 251.72C214.468 251.658 214.491 251.595 214.51 251.53C214.597 251.139 214.587 250.733 214.483 250.346C214.378 249.96 214.182 249.604 213.91 249.31V249.31Z" fill="#37474F"/>
<path d="M165.75 159.75C163.75 169.45 164.52 173.75 172.08 180.75C179.64 187.75 192.08 197.75 192.08 197.75C189.08 207.62 193.56 220.61 193.73 225.62C193.9 230.63 195.13 239.1 195.13 239.1C202.03 242.8 205.73 239.1 205.73 239.1V195.59C205.733 191.773 204.351 188.085 201.84 185.21L186.75 168V161.58L165.75 159.75Z" fill="#455A64"/>
<path d="M218.94 134.16C220.248 134.595 221.644 134.695 223 134.45C223 131.83 223 128.9 223.21 125.09C223.7 116.87 221.48 112.34 219.65 110.7C217.82 109.06 214.65 109.03 213.48 110.07C212.31 111.11 215.18 114.89 215.59 118.18C213.95 116.26 213.12 115.61 211.59 116.78C212.493 117.829 213.173 119.05 213.59 120.37C213.92 122.02 215.68 123.17 216.17 124.53C216.55 125.59 216.17 128.98 215.54 131.89C216.463 132.923 217.633 133.704 218.94 134.16Z" fill="#E08F6E"/>
<path opacity="0.2" d="M218.94 134.16C220.248 134.595 221.644 134.695 223 134.45C223 131.83 223 128.9 223.21 125.09C223.7 116.87 221.48 112.34 219.65 110.7C217.82 109.06 214.65 109.03 213.48 110.07C212.31 111.11 215.18 114.89 215.59 118.18C213.95 116.26 213.12 115.61 211.59 116.78C212.493 117.829 213.173 119.05 213.59 120.37C213.92 122.02 215.68 123.17 216.17 124.53C216.55 125.59 216.17 128.98 215.54 131.89C216.463 132.923 217.633 133.704 218.94 134.16Z" fill="black"/>
<path d="M218.94 134.16C217.622 133.708 216.441 132.927 215.51 131.89C215.33 132.76 215.13 133.59 214.93 134.29C214.93 134.29 208.58 125.58 207.15 123.93C205.72 122.28 204.41 118.35 198.15 117.62L198.9 132.98C198.9 132.98 211.51 147.33 215.83 149.75C220.15 152.17 221.59 149.03 222.47 143.22C222.863 140.314 223.03 137.382 222.97 134.45C221.623 134.69 220.238 134.59 218.94 134.16V134.16Z" fill="#455A64"/>
<path opacity="0.3" d="M214 143.59C213 140.02 214.49 135.59 215 134.29L213.92 132.81C213.13 134.499 212.726 136.344 212.74 138.209C212.754 140.074 213.185 141.913 214 143.59V143.59Z" fill="black"/>
<path d="M179.56 117.29C175.94 116.8 172.08 117.41 168.13 118.07C167.403 126.658 167.403 135.292 168.13 143.88L165 160.65C177.25 168.05 192.87 164.76 196 162.65C200.93 143.42 202.16 125.25 198.18 117.65L188.44 116L179.56 117.29Z" fill="#37474F"/>
<path d="M187.37 124.77L184.51 122.5C185.41 122.063 186.347 121.705 187.31 121.43L188.44 121.99L187.37 124.77Z" fill="#92E3A9"/>
<path d="M190.44 124.53L191.07 124.14L192.13 121.84L190.9 121.43L190.17 121.99L190.44 124.53Z" fill="#92E3A9"/>
<path d="M188.14 126.35C185.98 134.93 175.92 140.52 167.63 139.92C166.454 139.811 165.276 140.115 164.3 140.78C163.081 141.659 161.999 142.714 161.09 143.91C160.971 144.07 160.89 144.255 160.853 144.451C160.816 144.647 160.824 144.848 160.875 145.041C160.927 145.233 161.022 145.411 161.153 145.562C161.284 145.712 161.447 145.831 161.63 145.91C163.465 146.646 165.358 147.228 167.29 147.65C169.307 148.118 171.41 148.063 173.4 147.49C188.47 143.13 190.56 133.49 190.15 126.34L188.14 126.35Z" fill="#92E3A9"/>
<path opacity="0.3" d="M190.17 126.73C190.17 126.6 190.17 126.47 190.17 126.35H188.17C188.17 126.35 188.17 126.43 188.17 126.47C188.454 126.707 188.802 126.857 189.17 126.9C189.512 126.93 189.857 126.872 190.17 126.73Z" fill="black"/>
<path d="M188.44 122C189.013 121.91 189.597 121.91 190.17 122C190.659 122.622 190.97 123.365 191.07 124.15C190.922 124.943 190.608 125.696 190.15 126.36C189.63 126.75 188.15 126.36 188.15 126.36C187.768 125.855 187.433 125.316 187.15 124.75C187.064 124.574 187.019 124.381 187.019 124.185C187.019 123.989 187.064 123.796 187.15 123.62C187.457 122.993 187.897 122.44 188.44 122V122Z" fill="#92E3A9"/>
<path opacity="0.3" d="M193.89 165.64C192.353 167.51 190.195 168.766 187.81 169.18L192.9 175C192.366 173.156 191.505 171.422 190.36 169.88C191.971 168.894 193.212 167.403 193.89 165.64V165.64Z" fill="black"/>
<path d="M189.22 121.73C191.54 121.11 193.02 123.73 193.02 123.73C193.16 118.04 190.21 115.86 190.21 115.86L189.22 121.73Z" fill="#455A64"/>
<path d="M179.34 93.62C178.34 92.93 177.27 92.25 176.23 91.57C176.49 91.2548 176.817 91.0015 177.187 90.8285C177.557 90.6555 177.961 90.5672 178.37 90.57C178.836 90.6064 179.269 90.8214 179.58 91.17C179.883 91.5293 180.037 91.9909 180.01 92.46C180.11 90.6 181.71 88.93 183.38 88.12C185.101 87.3871 186.982 87.1148 188.84 87.33C190.69 87.45 192.53 87.81 194.38 87.87C196.526 87.951 198.669 87.6496 200.71 86.98C200.935 86.9043 201.177 86.8914 201.409 86.9425C201.641 86.9937 201.855 87.107 202.028 87.2704C202.2 87.4337 202.325 87.641 202.389 87.8699C202.453 88.0989 202.453 88.3409 202.39 88.57C202.033 89.7507 201.433 90.844 200.63 91.78C201.059 91.9021 201.505 91.9495 201.95 91.92C202.191 91.9037 202.431 91.9542 202.645 92.0659C202.859 92.1776 203.038 92.3462 203.162 92.553C203.286 92.7598 203.35 92.9969 203.348 93.2381C203.346 93.4793 203.278 93.7153 203.15 93.92C202.333 95.1163 201.182 96.0451 199.84 96.59C194.91 104.37 181.62 111.32 181.62 111.32C181.17 111.26 180.742 111.093 180.371 110.832C180 110.571 179.698 110.223 179.49 109.82C179.094 109.002 178.841 108.123 178.74 107.22C178.167 103.813 177.697 100.39 177.33 96.95C177.199 96.2255 177.23 95.4812 177.42 94.77C177.524 94.4286 177.733 94.1284 178.016 93.9115C178.299 93.6945 178.643 93.5716 179 93.56" fill="#263238"/>
<path d="M180.63 105.66C180.27 108.87 179.56 114.41 179.56 114.41C182.36 118.19 187.78 119.02 189.22 121.73C190.15 118.72 190.757 115.619 191.03 112.48L181.78 105.21L180.63 105.66Z" fill="#E08F6E"/>
<path opacity="0.2" d="M180.63 105.66C180.27 108.87 179.56 114.41 179.56 114.41C182.36 118.19 187.78 119.02 189.22 121.73C190.15 118.72 190.757 115.619 191.03 112.48L181.78 105.21L180.63 105.66Z" fill="black"/>
<path opacity="0.3" d="M181.78 105.21L181.54 105.3C181.424 107.885 182.286 110.419 183.954 112.398C185.621 114.377 187.973 115.656 190.54 115.98C190.91 113.81 190.99 112.48 190.99 112.48L181.78 105.21Z" fill="black"/>
<path d="M199.84 96.61C200.537 101.956 199.943 107.39 198.11 112.46C197.875 113.088 197.452 113.63 196.9 114.011C196.347 114.391 195.691 114.594 195.02 114.59C188.02 114.59 182.46 112.19 181.49 105.95C181.137 106.399 180.648 106.722 180.097 106.87C179.545 107.018 178.96 106.983 178.43 106.77C177.436 106.312 176.638 105.514 176.18 104.52C175.884 104.005 175.687 103.438 175.6 102.85C175.514 102.255 175.661 101.65 176.01 101.16C176.335 100.797 176.766 100.546 177.241 100.442C177.717 100.338 178.213 100.386 178.66 100.58C179.567 100.988 180.283 101.729 180.66 102.65C180.81 102.99 181.01 103.4 181.38 103.41C181.75 103.42 181.98 102.99 182.1 102.63C182.543 101.163 182.736 99.6313 182.67 98.1C183.779 98.311 184.926 98.093 185.88 97.49C186.805 96.8551 187.45 95.8881 187.68 94.79C187.977 95.3536 188.404 95.8382 188.926 96.2034C189.447 96.5687 190.049 96.8041 190.68 96.89C191.294 96.9738 191.92 96.9095 192.504 96.7025C193.089 96.4955 193.615 96.1518 194.04 95.7C194.761 96.4364 195.701 96.9204 196.72 97.08C197.784 97.2273 198.867 97.0641 199.84 96.61Z" fill="#E08F6E"/>
<path opacity="0.2" d="M199.84 96.61C200.537 101.956 199.943 107.39 198.11 112.46C197.875 113.088 197.452 113.63 196.9 114.011C196.347 114.391 195.691 114.594 195.02 114.59C188.02 114.59 182.46 112.19 181.49 105.95C181.137 106.399 180.648 106.722 180.097 106.87C179.545 107.018 178.96 106.983 178.43 106.77C177.436 106.312 176.638 105.514 176.18 104.52C175.884 104.005 175.687 103.438 175.6 102.85C175.514 102.255 175.661 101.65 176.01 101.16C176.335 100.797 176.766 100.546 177.241 100.442C177.717 100.338 178.213 100.386 178.66 100.58C179.567 100.988 180.283 101.729 180.66 102.65C180.81 102.99 181.01 103.4 181.38 103.41C181.75 103.42 181.98 102.99 182.1 102.63C182.543 101.163 182.736 99.6313 182.67 98.1C183.779 98.311 184.926 98.093 185.88 97.49C186.805 96.8551 187.45 95.8881 187.68 94.79C187.977 95.3536 188.404 95.8382 188.926 96.2034C189.447 96.5687 190.049 96.8041 190.68 96.89C191.294 96.9738 191.92 96.9095 192.504 96.7025C193.089 96.4955 193.615 96.1518 194.04 95.7C194.761 96.4364 195.701 96.9204 196.72 97.08C197.784 97.2273 198.867 97.0641 199.84 96.61Z" fill="black"/>
<path d="M193.45 102.67L196.66 106.72L193.62 107.73L193.45 102.67Z" fill="#E08F6E"/>
<path opacity="0.3" d="M193.45 102.67L196.66 106.72L193.62 107.73L193.45 102.67Z" fill="black"/>
<path d="M190.82 109.65L193.35 110.48C193.183 110.777 192.924 111.012 192.612 111.149C192.3 111.287 191.952 111.318 191.62 111.24C191.326 111.106 191.086 110.875 190.94 110.586C190.795 110.297 190.752 109.967 190.82 109.65V109.65Z" fill="#E08F6E"/>
<path opacity="0.3" d="M190.82 109.65L193.35 110.48C193.183 110.777 192.924 111.012 192.612 111.149C192.3 111.287 191.952 111.318 191.62 111.24C191.326 111.106 191.086 110.875 190.94 110.586C190.795 110.297 190.752 109.967 190.82 109.65V109.65Z" fill="black"/>
<path d="M192.45 111.2C192.179 111.28 191.891 111.28 191.62 111.2C191.387 111.104 191.187 110.943 191.045 110.735C190.903 110.527 190.825 110.282 190.82 110.03C191.166 109.98 191.519 110.051 191.82 110.23C191.984 110.342 192.124 110.486 192.232 110.652C192.34 110.819 192.414 111.005 192.45 111.2Z" fill="#E08F6E"/>
<path d="M189 103.46C189.002 103.579 189.029 103.696 189.077 103.804C189.125 103.912 189.195 104.01 189.282 104.091C189.368 104.172 189.47 104.235 189.582 104.276C189.693 104.317 189.811 104.335 189.93 104.33C190.111 104.326 190.286 104.268 190.434 104.164C190.581 104.059 190.695 103.914 190.759 103.745C190.824 103.576 190.836 103.392 190.796 103.215C190.755 103.039 190.663 102.879 190.531 102.756C190.399 102.632 190.233 102.551 190.054 102.522C189.876 102.493 189.693 102.518 189.529 102.594C189.364 102.669 189.226 102.792 189.132 102.946C189.038 103.101 188.992 103.279 189 103.46V103.46Z" fill="#263238"/>
<path d="M196.53 102.91C196.543 103.149 196.648 103.373 196.824 103.535C196.999 103.698 197.231 103.786 197.47 103.78C197.65 103.774 197.825 103.714 197.971 103.609C198.117 103.504 198.229 103.357 198.292 103.188C198.355 103.019 198.366 102.835 198.324 102.66C198.283 102.484 198.19 102.325 198.057 102.203C197.925 102.08 197.759 102 197.581 101.972C197.403 101.944 197.22 101.969 197.057 102.045C196.893 102.121 196.756 102.243 196.662 102.397C196.568 102.551 196.522 102.73 196.53 102.91V102.91Z" fill="#263238"/>
<path d="M197.29 99.28L199.34 100.6C199.42 100.348 199.421 100.078 199.342 99.8258C199.263 99.5736 199.109 99.3517 198.9 99.19C198.65 99.0547 198.367 98.9915 198.082 99.0074C197.798 99.0233 197.524 99.1176 197.29 99.28Z" fill="#263238"/>
<path d="M189.55 99.44L187.55 100.89C187.455 100.644 187.438 100.376 187.501 100.12C187.563 99.8646 187.703 99.6342 187.9 99.46C188.143 99.297 188.429 99.2083 188.722 99.2047C189.015 99.2011 189.303 99.2829 189.55 99.44V99.44Z" fill="#263238"/>
<path d="M179.56 114.41L179.74 112.99C179.621 112.974 179.5 112.974 179.38 112.99C178.38 113.52 176.55 116.41 176.55 116.41C177.2 117.95 180.33 122.74 182.79 124.41C185.64 122.98 187.7 120.98 189.22 121.71C188.63 118.4 179.56 114.41 179.56 114.41Z" fill="#455A64"/>
<path d="M174 167.08C180.85 157.48 195.92 135.25 195 117.08L198.11 117.6C199.4 135.49 185.22 158.82 175.35 170.92L174 167.08Z" fill="#263238"/>
<path d="M171.88 174.7L151 157.08L147.31 170.08C147.289 170.163 147.288 170.25 147.307 170.333C147.326 170.417 147.365 170.494 147.42 170.56L147.49 170.62L168.11 189.06C168.041 188.991 167.991 188.904 167.966 188.809C167.942 188.714 167.943 188.614 167.97 188.52L171.88 174.7Z" fill="#92E3A9"/>
<path opacity="0.15" d="M171.88 174.7L151 157.08L147.31 170.08C147.289 170.163 147.288 170.25 147.307 170.333C147.326 170.417 147.365 170.494 147.42 170.56L147.49 170.62L168.11 189.06C168.041 188.991 167.991 188.904 167.966 188.809C167.942 188.714 167.943 188.614 167.97 188.52L171.88 174.7Z" fill="black"/>
<path d="M170.98 177.88L174.26 166.3L170.98 177.88Z" fill="#92E3A9"/>
<path d="M176.51 165.09L176.5 165.08L176.51 165.1V165.09Z" fill="#92E3A9"/>
<path d="M168.1 189.13H168.11L168.09 189.12L168.1 189.13Z" fill="#92E3A9"/>
<path d="M176.72 165.71C176.734 165.599 176.722 165.486 176.686 165.381C176.65 165.275 176.589 165.179 176.51 165.1V165.1C176.427 165.022 176.326 164.964 176.217 164.931C176.108 164.898 175.992 164.891 175.88 164.91V164.91C175.507 164.974 175.159 165.142 174.878 165.395C174.596 165.648 174.392 165.976 174.29 166.34L171 177.88L168 188.58C167.973 188.674 167.972 188.774 167.996 188.869C168.021 188.964 168.071 189.051 168.14 189.12V189.12C168.208 189.188 168.294 189.236 168.387 189.259C168.48 189.281 168.578 189.278 168.67 189.25L172.76 188.01C173.067 187.92 173.341 187.742 173.548 187.499C173.756 187.256 173.889 186.957 173.93 186.64L176.72 165.71Z" fill="#92E3A9"/>
<path opacity="0.3" d="M176.72 165.71C176.734 165.599 176.722 165.486 176.686 165.381C176.65 165.275 176.589 165.179 176.51 165.1V165.1C176.427 165.022 176.326 164.964 176.217 164.931C176.108 164.898 175.992 164.891 175.88 164.91V164.91C175.507 164.974 175.159 165.142 174.878 165.395C174.596 165.648 174.392 165.976 174.29 166.34L171 177.88L168 188.58C167.973 188.674 167.972 188.774 167.996 188.869C168.021 188.964 168.071 189.051 168.14 189.12V189.12C168.208 189.188 168.294 189.236 168.387 189.259C168.48 189.281 168.578 189.278 168.67 189.25L172.76 188.01C173.067 187.92 173.341 187.742 173.548 187.499C173.756 187.256 173.889 186.957 173.93 186.64L176.72 165.71Z" fill="black"/>
<path d="M164.54 167.19L160.84 180.45L161.42 181.01L165 167.85L164.54 167.19Z" fill="#92E3A9"/>
<path d="M156.69 160.17L153 173.44L153.58 174L157.16 160.84L156.69 160.17Z" fill="#92E3A9"/>
<path d="M155.82 146.61C155.738 146.537 155.641 146.482 155.535 146.451C155.43 146.42 155.319 146.413 155.21 146.43C154.837 146.493 154.489 146.662 154.208 146.915C153.926 147.168 153.722 147.496 153.62 147.86L150.79 157.86C150.626 158.451 150.633 159.077 150.81 159.665C150.987 160.252 151.327 160.777 151.79 161.18L153.97 163.07L168.81 176C169.041 176.202 169.32 176.343 169.621 176.408C169.921 176.473 170.233 176.461 170.528 176.373C170.822 176.286 171.09 176.125 171.305 175.905C171.521 175.686 171.677 175.416 171.76 175.12L174.26 166.32C174.362 165.956 174.566 165.628 174.848 165.375C175.129 165.122 175.477 164.953 175.85 164.89C175.963 164.871 176.078 164.878 176.187 164.911C176.297 164.944 176.397 165.002 176.48 165.08L155.82 146.61Z" fill="#92E3A9"/>
<path opacity="0.2" d="M155.82 146.61C155.738 146.537 155.641 146.482 155.535 146.451C155.43 146.42 155.319 146.413 155.21 146.43C154.837 146.493 154.489 146.662 154.208 146.915C153.926 147.168 153.722 147.496 153.62 147.86L150.79 157.86C150.626 158.451 150.633 159.077 150.81 159.665C150.987 160.252 151.327 160.777 151.79 161.18L153.97 163.07L168.81 176C169.041 176.202 169.32 176.343 169.621 176.408C169.921 176.473 170.233 176.461 170.528 176.373C170.822 176.286 171.09 176.125 171.305 175.905C171.521 175.686 171.677 175.416 171.76 175.12L174.26 166.32C174.362 165.956 174.566 165.628 174.848 165.375C175.129 165.122 175.477 164.953 175.85 164.89C175.963 164.871 176.078 164.878 176.187 164.911C176.297 164.944 176.397 165.002 176.48 165.08L155.82 146.61Z" fill="white"/>
<path d="M143 147.58L143.67 157.69C145.1 167.77 146.96 169.36 151.57 170.69C156.18 172.02 153.48 166.26 152.88 165.19C152.439 164.236 152.126 163.227 151.95 162.19C154.22 164.25 154.8 164.03 155.7 163.4C156.06 163.12 154.36 161.64 154.36 161.64C153.459 159.704 152.288 157.906 150.88 156.3L151.41 147.56L143 147.58Z" fill="#E08F6E"/>
<path opacity="0.2" d="M143 147.58L143.67 157.69C145.1 167.77 146.96 169.36 151.57 170.69C156.18 172.02 153.48 166.26 152.88 165.19C152.439 164.236 152.126 163.227 151.95 162.19C154.22 164.25 154.8 164.03 155.7 163.4C156.06 163.12 154.36 161.64 154.36 161.64C153.459 159.704 152.288 157.906 150.88 156.3L151.41 147.56L143 147.58Z" fill="black"/>
<path d="M173 117.35C166.51 116.26 162.24 119.53 159.28 121.43C157.14 122.81 149.28 128.73 145.1 131.9C144.273 132.528 143.606 133.343 143.154 134.278C142.702 135.213 142.478 136.242 142.5 137.28L142.73 147.97C144.111 148.697 145.659 149.047 147.218 148.984C148.778 148.921 150.293 148.447 151.61 147.61L152.37 139.77C152.37 139.77 161.49 135.33 167.62 132.54C173.75 129.75 174.49 121.92 173 117.35Z" fill="#455A64"/>
<path opacity="0.1" d="M146.48 250.46C144.804 249.897 143.048 249.614 141.28 249.62C135.7 249.62 131.18 252.21 131.18 255.4C131.18 258.59 135.7 261.19 141.28 261.19C143.049 261.198 144.806 260.911 146.48 260.34V250.46Z" fill="black"/>
<path opacity="0.1" d="M391.21 226.31C405.66 234.66 405.73 248.18 391.38 256.53C377.03 264.88 353.67 264.87 339.22 256.53C324.77 248.19 324.69 234.66 339.05 226.31C353.41 217.96 376.76 218 391.21 226.31Z" fill="black"/>
<path d="M409.6 131.79L408 131C411.6 133.62 417.79 147.73 420.1 153.47C420.129 153.544 420.187 153.604 420.26 153.636C420.333 153.668 420.416 153.669 420.49 153.64C420.564 153.611 420.624 153.553 420.656 153.48C420.688 153.407 420.689 153.324 420.66 153.25C419.89 151.33 414.06 136.89 409.6 131.79Z" fill="#E0E0E0"/>
<path d="M384.72 231.2L386.15 228.75L384.29 227.57C383.963 227.409 383.598 227.341 383.235 227.373C382.872 227.405 382.524 227.535 382.23 227.75C381.398 228.287 380.705 229.014 380.21 229.871C379.714 230.728 379.43 231.691 379.38 232.68C379.339 233.041 379.401 233.406 379.558 233.733C379.716 234.06 379.962 234.337 380.27 234.53V234.53L382.09 235.69L383.6 233.11C384.074 232.538 384.453 231.893 384.72 231.2V231.2Z" fill="#37474F"/>
<path d="M384.09 228.92C385.66 228.01 386.95 228.74 386.95 230.56C386.899 231.548 386.613 232.511 386.118 233.368C385.623 234.225 384.931 234.952 384.1 235.49C382.53 236.4 381.24 235.67 381.24 233.86C381.291 232.87 381.577 231.906 382.072 231.048C382.567 230.189 383.259 229.46 384.09 228.92V228.92Z" fill="#455A64"/>
<path d="M353.51 230.5L352.08 228.05L353.94 226.87C354.267 226.709 354.632 226.641 354.995 226.673C355.358 226.705 355.706 226.835 356 227.05C356.831 227.588 357.523 228.315 358.018 229.172C358.514 230.029 358.799 230.991 358.85 231.98C358.891 232.341 358.829 232.706 358.671 233.033C358.514 233.36 358.267 233.637 357.96 233.83V233.83L356.14 235L354.63 232.42C354.155 231.845 353.776 231.197 353.51 230.5V230.5Z" fill="#37474F"/>
<path d="M354.15 228.23C352.57 227.32 351.28 228.04 351.28 229.86C351.331 230.849 351.617 231.811 352.112 232.668C352.607 233.525 353.299 234.252 354.13 234.79C355.7 235.7 356.99 234.97 356.99 233.16C356.94 232.172 356.656 231.211 356.162 230.354C355.669 229.497 354.979 228.769 354.15 228.23V228.23Z" fill="#455A64"/>
<path d="M363.75 224.43H369.05V233.56C369.029 233.795 368.946 234.02 368.809 234.211C368.671 234.403 368.485 234.554 368.27 234.65C367.689 234.946 367.047 235.1 366.395 235.1C365.743 235.1 365.101 234.946 364.52 234.65C364.306 234.554 364.121 234.402 363.986 234.21C363.85 234.019 363.769 233.794 363.75 233.56V233.56V224.43Z" fill="#EBEBEB"/>
<path d="M382.94 226.99V229.16L369.05 232.67V228.06L382.94 226.99Z" fill="#E0E0E0"/>
<path d="M382.94 226.99L381.97 226.66L369.05 227.34V228.06L382.94 226.99Z" fill="#F5F5F5"/>
<path d="M384.34 246.73L382.9 244.28L384.76 243.1C385.087 242.936 385.454 242.865 385.819 242.895C386.184 242.925 386.534 243.055 386.83 243.27C387.66 243.811 388.351 244.541 388.846 245.399C389.341 246.257 389.627 247.22 389.68 248.21C389.713 248.57 389.647 248.932 389.49 249.258C389.334 249.584 389.092 249.861 388.79 250.06V250.06L387 251.23L385.49 248.65C385.003 248.078 384.615 247.429 384.34 246.73V246.73Z" fill="#37474F"/>
<path d="M385 244.45C383.42 243.54 382.14 244.27 382.13 246.08C382.187 247.068 382.477 248.029 382.976 248.883C383.475 249.738 384.168 250.463 385 251C386.58 251.91 387.86 251.18 387.87 249.36C387.811 248.374 387.52 247.415 387.022 246.562C386.523 245.709 385.83 244.985 385 244.45V244.45Z" fill="#455A64"/>
<path d="M365.84 253L367.27 250.55L365.41 249.37C365.083 249.206 364.716 249.135 364.351 249.165C363.986 249.195 363.636 249.325 363.34 249.54C362.512 250.081 361.822 250.809 361.327 251.665C360.832 252.522 360.545 253.482 360.49 254.47C360.455 254.832 360.52 255.196 360.677 255.523C360.834 255.851 361.077 256.13 361.38 256.33L363.21 257.49L364.72 254.91C365.191 254.336 365.569 253.691 365.84 253V253Z" fill="#37474F"/>
<path d="M365.2 250.68C366.78 249.77 368.06 250.5 368.07 252.31C368.016 253.298 367.73 254.259 367.235 255.116C366.74 255.973 366.049 256.7 365.22 257.24C363.64 258.15 362.36 257.42 362.35 255.61C362.404 254.622 362.69 253.661 363.185 252.804C363.68 251.947 364.371 251.22 365.2 250.68V250.68Z" fill="#455A64"/>
<path d="M345.78 243.33L347.21 240.88L345.35 239.7C345.024 239.538 344.659 239.468 344.296 239.498C343.933 239.528 343.585 239.657 343.29 239.87C342.459 240.408 341.767 241.135 341.272 241.992C340.777 242.849 340.491 243.811 340.44 244.8C340.405 245.162 340.47 245.526 340.627 245.854C340.784 246.181 341.027 246.46 341.33 246.66L343.15 247.82L344.66 245.24C345.134 244.668 345.513 244.023 345.78 243.33V243.33Z" fill="#37474F"/>
<path d="M345.15 241.06C346.72 240.15 348.01 240.88 348.01 242.69C347.958 243.677 347.674 244.638 347.18 245.495C346.687 246.352 345.998 247.08 345.17 247.62C343.59 248.53 342.3 247.8 342.3 245.99C342.351 245.001 342.637 244.039 343.132 243.182C343.627 242.325 344.319 241.598 345.15 241.06V241.06Z" fill="#455A64"/>
<path d="M386.28 241.42V244.95L367.68 234.9V230.03L386.28 241.42Z" fill="#E0E0E0"/>
<path d="M387.36 240.82L368.75 229.76L367.68 230.03L386.28 241.42L387.36 240.82Z" fill="#F5F5F5"/>
<path d="M387.36 244.34L386.28 244.95V241.42L387.36 240.82V244.34Z" fill="#F0F0F0"/>
<path d="M366.43 230.03L364.16 248.01V251.23L366.43 235.1V230.03Z" fill="#E0E0E0"/>
<path d="M364.16 248.02H362.85V251.23H364.16V248.02Z" fill="#F0F0F0"/>
<path d="M362.85 248.01L364.91 230.03H366.43L364.16 248.01H362.85Z" fill="#F5F5F5"/>
<path d="M344.41 238.05V241.42L363.75 233.56V229.43L344.41 238.05Z" fill="#E0E0E0"/>
<path d="M343.66 240.92L344.41 241.42V238.05L343.66 237.56V240.92Z" fill="#F0F0F0"/>
<path d="M346.71 237.02L344.41 238.05L343.66 237.56L363.75 228.51V229.43L346.71 237.02Z" fill="#F5F5F5"/>
<path d="M353.96 225.15V227.36L359.6 230.38L363.75 228.51V227.6L353.96 225.15Z" fill="#E0E0E0"/>
<path d="M353.96 225.15L354.41 224.97L363.75 226.99V227.6L353.96 225.15Z" fill="#F5F5F5"/>
<path d="M362.06 208.14H370.74V223.14C370.698 223.522 370.557 223.886 370.331 224.197C370.105 224.508 369.801 224.753 369.45 224.91C368.501 225.393 367.45 225.645 366.385 225.645C365.32 225.645 364.27 225.393 363.32 224.91C362.972 224.751 362.672 224.502 362.45 224.19C362.229 223.877 362.094 223.512 362.06 223.13V223.13V208.14Z" fill="#E0E0E0"/>
<path d="M418 140.57C417.47 140.58 416.942 140.499 416.44 140.33L415.84 140.15L416.31 138.42L415.13 137C414.26 136.713 413.367 136.506 412.46 136.38C409.71 136.01 406.66 136.64 404.78 138.69C402.9 140.74 402.55 143.57 402.47 146.27C402.33 150.91 402.9 155.53 403.18 160.17C403.619 164.807 403.26 169.484 402.12 174C400.81 178.45 398.12 182.65 394.02 184.89C392.402 185.742 390.677 186.371 388.89 186.76L374.71 175.56L355.16 169.41L329.55 182.55C328.882 182.942 328.317 183.487 327.9 184.14C325.9 187.14 326.25 192.56 329.77 194.57L365.12 213.34C366.29 213.961 367.591 214.292 368.915 214.306C370.239 214.32 371.548 214.016 372.73 213.42L397.49 200.88C399.057 200.085 400.44 198.971 401.549 197.608C402.658 196.246 403.469 194.666 403.93 192.97L418.11 140.59L418 140.57Z" fill="#37474F"/>
<path d="M329.55 182.52L355.16 169.38L374.71 175.53L388.89 186.73C387.79 187 386.67 187.22 385.57 187.44C382.635 187.866 379.798 188.807 377.19 190.22C374.67 191.77 372.64 194.42 372.62 197.38L373.52 204.38L372.73 204.77C371.549 205.37 370.241 205.677 368.916 205.665C367.592 205.653 366.29 205.322 365.12 204.7L329.77 185.93C329.016 185.49 328.376 184.881 327.9 184.15C328.312 183.483 328.878 182.924 329.55 182.52V182.52Z" fill="#455A64"/>
<path opacity="0.1" d="M329.55 182.52L355.16 169.38L374.71 175.53L388.89 186.73C387.79 187 386.67 187.22 385.57 187.44C382.635 187.866 379.798 188.807 377.19 190.22C374.67 191.77 372.64 194.42 372.62 197.38L373.52 204.38L372.73 204.77C371.549 205.37 370.241 205.677 368.916 205.665C367.592 205.653 366.29 205.322 365.12 204.7L329.77 185.93C329.016 185.49 328.376 184.881 327.9 184.15C328.312 183.483 328.878 182.924 329.55 182.52V182.52Z" fill="black"/>
<path d="M333.27 160.55C333.27 160.55 353.83 166.55 359.27 161.26C366.04 154.62 363.2 137.88 362.4 131.33C361.6 124.78 362.4 120.24 364.21 118.33C366.02 116.42 368.65 113.59 377.21 117.12C368.6 121.55 371.21 144.23 373.9 152.69C367.15 159.63 363.9 168.8 363.79 173.8C363.79 173.8 346.22 178.09 337.05 183.12L333.27 160.55Z" fill="#455A64"/>
<path opacity="0.1" d="M333.27 160.55C333.27 160.55 353.83 166.55 359.27 161.26C366.04 154.62 363.2 137.88 362.4 131.33C361.6 124.78 362.4 120.24 364.21 118.33C366.02 116.42 368.65 113.59 377.21 117.12C368.6 121.55 369.73 144.23 372.45 152.69C365.7 159.63 363.92 168.8 363.79 173.8C363.79 173.8 346.22 178.09 337.05 183.12L333.27 160.55Z" fill="white"/>
<path d="M337 183.12L332.79 180.85C332.79 169.29 331.09 170.43 327.9 165.85C324.71 161.27 329.6 158.5 333.27 160.51C336.94 162.52 338.44 168.63 337 183.12Z" fill="#455A64"/>
<path opacity="0.2" d="M337 183.12L332.79 180.85C332.79 169.29 331.09 170.43 327.9 165.85C324.71 161.27 329.6 158.5 333.27 160.51C336.94 162.52 338.44 168.63 337 183.12Z" fill="white"/>
<path d="M377.16 117.12C377.16 117.12 400.16 127.12 411.4 132.64L410.58 136.73L373.85 120.05C374.717 118.835 375.849 117.833 377.16 117.12V117.12Z" fill="#455A64"/>
<path opacity="0.1" d="M377.16 117.12C377.16 117.12 400.16 127.12 411.4 132.64L410.58 136.73L373.85 120.05C374.717 118.835 375.849 117.833 377.16 117.12V117.12Z" fill="white"/>
<path d="M370.16 151.09C367.83 143.86 368.31 127.46 373.85 120.09L410.58 136.77L402.19 178.84L388.89 186.77L363.74 173.8C363.87 168.8 363.41 158 370.16 151.09Z" fill="#455A64"/>
<path d="M392.89 159.52C392.27 159.16 391.76 159.45 391.76 160.17C391.78 160.559 391.892 160.938 392.086 161.275C392.281 161.612 392.553 161.898 392.88 162.11C393.5 162.47 394.01 162.19 394.01 161.47C393.992 161.079 393.881 160.699 393.686 160.36C393.491 160.02 393.218 159.733 392.89 159.52V159.52Z" fill="#455A64"/>
<path d="M387.21 156.18C386.58 155.82 386.08 156.11 386.07 156.83C386.093 157.219 386.208 157.598 386.404 157.935C386.6 158.272 386.873 158.558 387.2 158.77C387.82 159.13 388.33 158.85 388.33 158.13C388.309 157.74 388.197 157.36 388.003 157.021C387.808 156.683 387.537 156.394 387.21 156.18V156.18Z" fill="#455A64"/>
<path d="M381.52 152.84C380.9 152.48 380.39 152.77 380.39 153.49C380.411 153.879 380.524 154.257 380.718 154.594C380.913 154.931 381.184 155.217 381.51 155.43C382.14 155.79 382.64 155.51 382.65 154.79C382.627 154.399 382.513 154.019 382.317 153.68C382.121 153.342 381.848 153.054 381.52 152.84Z" fill="#455A64"/>
<path d="M375.84 149.5C375.21 149.14 374.71 149.43 374.71 150.15C374.73 150.539 374.842 150.918 375.036 151.255C375.231 151.592 375.503 151.878 375.83 152.09C376.45 152.45 376.96 152.17 376.96 151.45C376.939 151.06 376.827 150.68 376.633 150.341C376.438 150.003 376.167 149.714 375.84 149.5V149.5Z" fill="#455A64"/>
<g opacity="0.2">
<path opacity="0.2" d="M392.89 159.52C392.27 159.16 391.76 159.45 391.76 160.17C391.78 160.559 391.892 160.938 392.086 161.275C392.281 161.612 392.553 161.898 392.88 162.11C393.5 162.47 394.01 162.19 394.01 161.47C393.992 161.079 393.881 160.699 393.686 160.36C393.491 160.02 393.218 159.733 392.89 159.52V159.52Z" fill="white"/>
<path opacity="0.2" d="M387.21 156.18C386.58 155.82 386.08 156.11 386.07 156.83C386.093 157.219 386.208 157.598 386.404 157.935C386.6 158.272 386.873 158.558 387.2 158.77C387.82 159.13 388.33 158.85 388.33 158.13C388.309 157.74 388.197 157.36 388.003 157.021C387.808 156.683 387.537 156.394 387.21 156.18V156.18Z" fill="white"/>
<path opacity="0.2" d="M381.52 152.84C380.9 152.48 380.39 152.77 380.39 153.49C380.411 153.879 380.524 154.257 380.718 154.594C380.913 154.931 381.184 155.217 381.51 155.43C382.14 155.79 382.64 155.51 382.65 154.79C382.627 154.399 382.513 154.019 382.317 153.68C382.121 153.342 381.848 153.054 381.52 152.84Z" fill="white"/>
<path opacity="0.2" d="M375.84 149.5C375.21 149.14 374.71 149.43 374.71 150.15C374.73 150.539 374.842 150.918 375.036 151.255C375.231 151.592 375.503 151.878 375.83 152.09C376.45 152.45 376.96 152.17 376.96 151.45C376.939 151.06 376.827 150.68 376.633 150.341C376.438 150.003 376.167 149.714 375.84 149.5V149.5Z" fill="white"/>
</g>
<path d="M377.19 190.22C379.798 188.807 382.635 187.866 385.57 187.44C386.67 187.22 387.79 187 388.89 186.73C390.677 186.342 392.402 185.712 394.02 184.86C398.08 182.62 400.81 178.42 402.12 173.97C403.258 169.461 403.616 164.79 403.18 160.16C402.9 155.52 402.33 150.9 402.47 146.26C402.55 143.56 402.96 140.67 404.78 138.68C406.6 136.69 409.71 136 412.46 136.37C413.367 136.496 414.26 136.703 415.13 136.99L416.35 138.42L415.88 140.15L403.93 184.28C403.102 187.345 401.139 189.98 398.44 191.65C398.13 191.84 397.82 192.03 397.49 192.19L373.49 204.34L372.59 197.34C372.64 194.42 374.67 191.77 377.19 190.22Z" fill="#37474F"/>
<path d="M377.16 185.47C385.93 182.97 394.54 182.65 397.72 176.35C400.9 170.05 401.12 161.35 399.53 146.24C399.333 144.292 399.38 142.327 399.67 140.39C400.61 134.74 404.01 132.32 407.92 132.26C411.79 132.193 415.541 133.601 418.41 136.2C418.967 136.665 419.411 137.249 419.71 137.91C419.849 138.236 419.899 138.592 419.855 138.944C419.811 139.295 419.675 139.629 419.46 139.91C419.105 140.279 418.621 140.497 418.11 140.52H418C417.47 140.53 416.942 140.449 416.44 140.28L415.84 140.1C414.77 139.76 413.71 139.36 412.62 139.1C411.314 138.715 409.925 138.715 408.62 139.1C408.006 139.341 407.458 139.723 407.019 140.214C406.579 140.706 406.261 141.293 406.09 141.93C402.39 154.01 407.09 166.99 402.92 176.93C399.52 186 387.76 189.77 379.47 192.46C380.278 192.142 380.99 191.622 381.54 190.95C381.953 190.311 382.145 189.553 382.085 188.794C382.026 188.035 381.718 187.317 381.21 186.75C380.689 186.224 380.049 185.833 379.343 185.61C378.637 185.387 377.888 185.339 377.16 185.47V185.47Z" fill="#455A64"/>
<path opacity="0.1" d="M377.16 185.47C385.93 182.97 394.54 182.65 397.72 176.35C400.9 170.05 401.12 161.35 399.53 146.24C399.333 144.292 399.38 142.327 399.67 140.39C400.61 134.74 404.01 132.32 407.92 132.26C411.79 132.193 415.541 133.601 418.41 136.2C418.967 136.665 419.411 137.249 419.71 137.91C419.849 138.236 419.899 138.592 419.855 138.944C419.811 139.295 419.675 139.629 419.46 139.91C419.105 140.279 418.621 140.497 418.11 140.52H418C417.47 140.53 416.942 140.449 416.44 140.28L415.84 140.1C414.77 139.76 413.71 139.36 412.62 139.1C411.314 138.715 409.925 138.715 408.62 139.1C408.006 139.341 407.458 139.723 407.019 140.214C406.579 140.706 406.261 141.293 406.09 141.93C402.39 154.01 407.09 166.99 402.92 176.93C399.52 186 387.76 189.77 379.47 192.46C380.278 192.142 380.99 191.622 381.54 190.95C381.953 190.311 382.145 189.553 382.085 188.794C382.026 188.035 381.718 187.317 381.21 186.75C380.689 186.224 380.049 185.833 379.343 185.61C378.637 185.387 377.888 185.339 377.16 185.47V185.47Z" fill="white"/>
<path d="M371.08 191.68C371.593 190.25 372.351 188.92 373.32 187.75C374.302 186.574 375.657 185.769 377.16 185.47C377.908 185.332 378.678 185.383 379.401 185.619C380.124 185.855 380.777 186.268 381.3 186.82C381.808 187.387 382.116 188.105 382.175 188.864C382.235 189.623 382.043 190.381 381.63 191.02C381.08 191.692 380.368 192.212 379.56 192.53C378.898 192.808 378.254 193.125 377.63 193.48C375.993 194.584 374.816 196.249 374.32 198.16C373.828 200.055 373.569 202.002 373.55 203.96V204.34L369.44 202.06C369.25 198.523 369.809 194.986 371.08 191.68V191.68Z" fill="#455A64"/>
<path opacity="0.2" d="M371.08 191.68C371.593 190.25 372.351 188.92 373.32 187.75C374.302 186.574 375.657 185.769 377.16 185.47C377.908 185.332 378.678 185.383 379.401 185.619C380.124 185.855 380.777 186.268 381.3 186.82C381.808 187.387 382.116 188.105 382.175 188.864C382.235 189.623 382.043 190.381 381.63 191.02C381.08 191.692 380.368 192.212 379.56 192.53C378.898 192.808 378.254 193.125 377.63 193.48C375.993 194.584 374.816 196.249 374.32 198.16C373.828 200.055 373.569 202.002 373.55 203.96V204.34L369.44 202.06C369.25 198.523 369.809 194.986 371.08 191.68V191.68Z" fill="white"/>
<path d="M426.65 151.44L425.99 150.72L386.68 166.6L390.34 179.85L391 180.56L430.3 164.69L426.65 151.44Z" fill="#92E3A9"/>
<path opacity="0.2" d="M386.68 166.6L390.34 179.85L391 180.56L387.34 167.32L386.68 166.6Z" fill="black"/>
<path opacity="0.2" d="M426.65 151.44L425.99 150.72L386.68 166.6L387.34 167.32L426.65 151.44Z" fill="white"/>
<path d="M407.83 169.53L406.28 163.9C406.26 163.824 406.222 163.754 406.17 163.695C406.118 163.636 406.053 163.59 405.98 163.56V163.56H405.88H405.77C405.697 163.551 405.623 163.551 405.55 163.56C405.464 163.588 405.385 163.636 405.32 163.7V163.7C405.254 163.755 405.199 163.823 405.16 163.9V163.9C405.135 163.951 405.115 164.005 405.1 164.06C405.097 164.087 405.097 164.113 405.1 164.14C405.08 164.222 405.08 164.308 405.1 164.39L405.72 166.64L402.22 168L401.6 165.75C401.576 165.655 401.524 165.569 401.451 165.503C401.378 165.437 401.287 165.395 401.19 165.38H401C400.927 165.366 400.853 165.366 400.78 165.38C400.693 165.418 400.612 165.469 400.54 165.53C400.475 165.587 400.421 165.654 400.38 165.73V165.73C400.355 165.781 400.335 165.835 400.32 165.89C400.32 165.89 400.32 165.95 400.32 165.97C400.305 166.053 400.305 166.137 400.32 166.22L401.88 171.85C401.9 171.927 401.938 171.999 401.99 172.06C402.023 172.089 402.06 172.113 402.1 172.13C402.12 172.135 402.14 172.135 402.16 172.13C402.16 172.13 402.16 172.13 402.16 172.13C402.21 172.14 402.26 172.14 402.31 172.13H402.4C402.49 172.128 402.578 172.108 402.66 172.07C402.825 172.011 402.963 171.895 403.049 171.742C403.136 171.59 403.164 171.412 403.13 171.24L402.5 168.95L405.91 167.57L406.54 169.86C406.583 169.99 406.672 170.101 406.79 170.17C406.79 170.17 406.79 170.17 406.84 170.17C406.889 170.18 406.941 170.18 406.99 170.17H407.07C407.117 170.176 407.163 170.176 407.21 170.17H407.33C407.467 170.124 407.587 170.038 407.676 169.925C407.764 169.811 407.818 169.674 407.83 169.53V169.53Z" fill="white"/>
<path d="M400.29 171.83C400.268 171.762 400.231 171.698 400.183 171.645C400.135 171.592 400.076 171.549 400.01 171.52H399.81C399.75 171.511 399.69 171.511 399.63 171.52C399.558 171.55 399.491 171.591 399.43 171.64V171.64C399.378 171.688 399.331 171.742 399.29 171.8L399.18 171.95C399.129 172.031 399.072 172.108 399.01 172.18L398.96 172.25L398.76 172.45C398.725 172.498 398.685 172.542 398.64 172.58V172.58C398.59 172.63 398.52 172.67 398.46 172.72L398.27 172.86L398.05 172.97L397.77 173.11L397.45 173.21H397.37H397.28C396.741 173.33 396.176 173.232 395.708 172.938C395.24 172.645 394.906 172.178 394.78 171.64V171.64C394.694 171.314 394.671 170.975 394.71 170.64V170.64C394.728 170.477 394.761 170.316 394.81 170.16C394.806 170.12 394.806 170.08 394.81 170.04C394.85 169.919 394.9 169.802 394.96 169.69C395.024 169.561 395.097 169.437 395.18 169.32L395.23 169.26C395.319 169.141 395.42 169.03 395.53 168.93L395.64 168.85C395.874 168.646 396.141 168.484 396.43 168.37C397.023 168.118 397.686 168.086 398.3 168.28C398.433 168.322 398.576 168.322 398.71 168.28C398.876 168.223 399.016 168.107 399.102 167.954C399.189 167.801 399.216 167.622 399.18 167.45C399.151 167.359 399.099 167.276 399.03 167.21C398.972 167.16 398.903 167.123 398.83 167.1V167.1C398.738 167.075 398.644 167.055 398.55 167.04H398.35H398.2C398.014 167.02 397.826 167.02 397.64 167.04C397.386 167.053 397.135 167.093 396.89 167.16C396.644 167.22 396.403 167.301 396.17 167.4C395.904 167.5 395.65 167.628 395.41 167.78C395.193 167.92 394.986 168.073 394.79 168.24C394.794 168.257 394.794 168.274 394.79 168.29C394.62 168.45 394.46 168.621 394.31 168.8L394.24 168.89C394.098 169.073 393.971 169.267 393.86 169.47C393.79 169.59 393.75 169.73 393.69 169.85C393.63 169.97 393.6 170.06 393.56 170.16C393.524 170.281 393.497 170.405 393.48 170.53C393.444 170.644 393.417 170.761 393.4 170.88C393.39 171.043 393.39 171.207 393.4 171.37C393.395 171.45 393.395 171.53 393.4 171.61C393.411 171.854 393.451 172.096 393.52 172.33V172.33C393.591 172.572 393.684 172.806 393.8 173.03C393.841 173.097 393.888 173.161 393.94 173.22C394.018 173.358 394.109 173.488 394.21 173.61C394.292 173.695 394.379 173.775 394.47 173.85L394.63 174L394.74 174.08H394.82C394.928 174.153 395.041 174.217 395.16 174.27L395.24 174.32C395.699 174.505 396.19 174.595 396.685 174.587C397.18 174.578 397.668 174.47 398.12 174.27C399.11 173.893 399.94 173.187 400.47 172.27C400.47 172.188 400.455 172.108 400.424 172.032C400.393 171.957 400.347 171.888 400.29 171.83V171.83Z" fill="white"/>
<path d="M411 168.25L409.45 162.62C409.425 162.533 409.378 162.454 409.313 162.391C409.248 162.328 409.168 162.283 409.08 162.26C409.033 162.255 408.987 162.255 408.94 162.26H408.88C408.811 162.246 408.739 162.246 408.67 162.26C408.583 162.298 408.503 162.349 408.43 162.41C408.368 162.47 408.315 162.537 408.27 162.61V162.61C408.244 162.661 408.224 162.715 408.21 162.77C408.206 162.796 408.206 162.824 408.21 162.85C408.19 162.932 408.19 163.018 408.21 163.1L409.76 168.72C409.79 168.828 409.854 168.923 409.942 168.991C410.03 169.059 410.138 169.098 410.25 169.1H410.3C410.389 169.093 410.477 169.073 410.56 169.04C410.713 168.978 410.839 168.866 410.92 168.723C411 168.579 411.028 168.412 411 168.25V168.25Z" fill="white"/>
<path d="M413.7 167.76L415.06 167.22L417.92 166.06C418.067 166.002 418.189 165.894 418.264 165.755C418.339 165.616 418.362 165.455 418.33 165.3C418.299 165.198 418.235 165.109 418.148 165.048C418.061 164.986 417.956 164.955 417.85 164.96C417.781 164.946 417.709 164.946 417.64 164.96L414.04 166.42L413.55 164.62L416.63 163.38C416.776 163.322 416.897 163.216 416.974 163.08C417.05 162.943 417.077 162.784 417.05 162.63C417.032 162.56 416.999 162.494 416.952 162.439C416.905 162.384 416.846 162.339 416.78 162.31H416.68H416.57C416.5 162.301 416.43 162.301 416.36 162.31V162.31L413.28 163.55L412.8 161.81L416.34 160.38C416.417 160.349 416.488 160.305 416.55 160.25C416.639 160.176 416.706 160.079 416.744 159.97C416.783 159.861 416.792 159.744 416.77 159.63V159.63C416.751 159.583 416.724 159.539 416.69 159.5C416.646 159.449 416.591 159.408 416.53 159.38V159.38H416.34C416.264 159.383 416.19 159.4 416.12 159.43L411.96 161.11C411.873 161.148 411.793 161.199 411.72 161.26C411.655 161.317 411.601 161.385 411.56 161.46C411.533 161.51 411.516 161.564 411.51 161.62V161.7C411.49 161.782 411.49 161.868 411.51 161.95L413.03 167.47C413.054 167.551 413.095 167.626 413.15 167.69V167.69H413.2L413.3 167.76H413.37H413.51H413.65H413.7Z" fill="white"/>
<path d="M423.47 159.63C423.398 159.637 423.327 159.654 423.26 159.68V159.68L420.17 160.93L419.66 159.09L423.21 157.66C423.361 157.606 423.487 157.499 423.566 157.36C423.645 157.22 423.671 157.057 423.64 156.9C423.622 156.83 423.588 156.764 423.542 156.709C423.495 156.654 423.436 156.609 423.37 156.58C423.307 156.57 423.243 156.57 423.18 156.58V156.58C423.108 156.587 423.037 156.604 422.97 156.63V156.63L418.79 158.32C418.704 158.348 418.625 158.396 418.56 158.46V158.46C418.496 158.514 418.442 158.578 418.4 158.65V158.65C418.374 158.697 418.357 158.747 418.35 158.8C418.346 158.83 418.346 158.86 418.35 158.89C418.34 158.96 418.34 159.03 418.35 159.1V159.1L419.89 164.68C419.91 164.76 419.952 164.832 420.01 164.89V164.89H420.07C420.098 164.916 420.128 164.939 420.16 164.96V164.96C420.219 164.971 420.281 164.971 420.34 164.96H420.46H420.55H420.64L420.73 164.9H420.79H420.84C420.939 164.818 421.013 164.71 421.053 164.588C421.094 164.466 421.1 164.335 421.07 164.21L420.47 162.02L423.55 160.77C423.705 160.717 423.836 160.611 423.919 160.469C424.002 160.328 424.03 160.161 424 160C423.972 159.884 423.902 159.783 423.805 159.715C423.707 159.647 423.588 159.617 423.47 159.63V159.63Z" fill="white"/>
<path d="M407 130H406.94C406.674 130.016 406.409 130.056 406.15 130.12C400.96 131.44 396.04 143.44 391.94 164.75C391.933 164.789 391.933 164.829 391.941 164.867C391.949 164.906 391.965 164.942 391.987 164.975C392.01 165.007 392.038 165.035 392.071 165.057C392.104 165.078 392.141 165.093 392.18 165.1H392.24C392.311 165.099 392.38 165.074 392.434 165.028C392.489 164.983 392.526 164.92 392.54 164.85C394.96 152.25 400.09 130.91 406.97 130.59H407.18C407.486 130.66 407.773 130.796 408.02 130.99L409.61 131.75C408.63 130.67 407.73 130 407 130Z" fill="#E6E6E6"/>
</svg>
