<?xml version='1.0' encoding='utf-8'?>
<!DOCTYPE svg PUBLIC '-//W3C//DTD SVG 1.1//EN' 'http://www.w3.org/Graphics/SVG/1.1/DTD/svg11.dtd'>
<svg version="1.1" xmlns="http://www.w3.org/2000/svg" viewBox="0 0 512 512" xmlns:xlink="http://www.w3.org/1999/xlink" enable-background="new 0 0 512 512">
  <g>
    <path d="m480.6,204.7h-107.6v-26.6c0-11.3-9.1-20.4-20.4-20.4h-38.7v-16.7c17.8-14 28.1-34 28.1-55.3 0-41.2-38.5-74.7-85.9-74.7s-85.9,33.5-85.9,74.7c0,21.3 10.3,41.3 28.1,55.3v16.7h-38.7c-11.3,0-20.4,9.1-20.4,20.4v26.6h-107.8c-11.3,0-20.4,9.1-20.4,20.4v255.5c0,11.3 9.1,20.4 20.4,20.4h449.2c11.3,0 20.4-9.1 20.4-20.4v-255.5c5.68434e-14-11.2-9.1-20.4-20.4-20.4zm-251.8-92.2c-11.2-6.5-17.9-16.5-17.9-26.8 0-18.4 20.6-33.9 45.1-33.9 24.4,0 45.1,15.5 45.1,33.9 0,10.3-6.7,20.4-17.9,26.8-6.3,3.6-10.2,10.4-10.2,17.7v27.4h-34v-27.4c-5.68434e-14-7.3-3.9-14-10.2-17.7zm-48.9,86h152.3v52.4h-152.3v-52.4zm280.3,261.7h-408.4v-214.7h87.2v25.8c0,11.3 9.1,20.4 20.4,20.4h193.1c11.3,0 20.4-9.1 20.4-20.4v-25.8h87.2v214.7z"/>
  </g>
</svg>
