<svg width="500" height="500" viewBox="0 0 500 500" fill="none" xmlns="http://www.w3.org/2000/svg">
<path d="M250.05 486.05C365.428 486.05 458.96 432.051 458.96 365.44C458.96 298.829 365.428 244.83 250.05 244.83C134.672 244.83 41.1401 298.829 41.1401 365.44C41.1401 432.051 134.672 486.05 250.05 486.05Z" fill="#F5F5F5"/>
<path d="M251.98 443.77C280.511 443.77 303.64 430.415 303.64 413.94C303.64 397.465 280.511 384.11 251.98 384.11C223.449 384.11 200.32 397.465 200.32 413.94C200.32 430.415 223.449 443.77 251.98 443.77Z" fill="#EBEBEB"/>
<path d="M46.9999 168.9C49.5458 173.891 50.5616 179.523 49.9199 185.09C49.3199 189.84 47.6699 194.44 48.2699 199.28C49.2099 206.92 54.5699 213.01 58.8999 219.02C61.416 222.242 63.4382 225.822 64.8999 229.64C66.4799 234.34 66.0999 239.23 65.2199 244.03C63.5599 253.15 61.2199 261.72 66.3299 270.19C69.1499 274.85 72.9599 278.8 75.6099 283.57C78.4671 288.834 80.2547 294.612 80.8699 300.57C80.9299 301.11 81.9699 301.29 81.9199 300.68C81.5677 295.679 80.3319 290.78 78.2699 286.21C76.1799 281.59 73.1399 277.71 70.1399 273.67C67.1399 269.63 64.5299 265.17 64.2599 259.9C64.0099 254.98 65.2599 250.13 66.2599 245.35C67.1199 240.96 67.7599 236.43 66.8299 232C65.9424 228.297 64.3685 224.793 62.1899 221.67C57.8099 215.05 51.6199 209 49.7999 201.06C48.4699 195.24 50.7999 189.73 51.1799 183.97C51.5849 178.633 50.3085 173.304 47.5299 168.73C47.3199 168.39 46.7999 168.47 47.0099 168.9H46.9999Z" fill="#37474F"/>
<path d="M45.6803 177.44C45.4303 175.85 48.0603 170.95 48.6803 170.86C49.3003 170.77 52.9503 174.58 53.2203 176.28C53.2387 176.618 53.1681 176.954 53.0154 177.256C52.8627 177.558 52.6333 177.815 52.3503 178C51.5903 178.549 50.7107 178.91 49.7841 179.052C48.8574 179.195 47.9102 179.115 47.0203 178.82C46.692 178.733 46.3934 178.558 46.1558 178.315C45.9182 178.072 45.7505 177.77 45.6703 177.44H45.6803Z" fill="#92E3A9"/>
<path opacity="0.1" d="M45.6803 177.44C45.4303 175.85 48.0603 170.95 48.6803 170.86C49.3003 170.77 52.9503 174.58 53.2203 176.28C53.2387 176.618 53.1681 176.954 53.0154 177.256C52.8627 177.558 52.6333 177.815 52.3503 178C51.5903 178.549 50.7107 178.91 49.7841 179.052C48.8574 179.195 47.9102 179.115 47.0203 178.82C46.692 178.733 46.3934 178.558 46.1558 178.315C45.9182 178.072 45.7505 177.77 45.6703 177.44H45.6803Z" fill="black"/>
<path d="M22.1601 145.57C24.0001 157.79 36.0001 171.75 49.0001 172.74C61.0701 167.28 68.3101 150.99 66.4301 138.74C64.5501 126.49 54.9301 116.32 40.6801 118.51C26.4301 120.7 20.2801 133.35 22.1601 145.57Z" fill="#92E3A9"/>
<path opacity="0.05" d="M66.4402 145.31C66.4402 145.31 65.0002 157.54 50.5802 160.7C36.7402 163.76 23.0002 150.15 21.8702 139.92C21.7726 141.808 21.8698 143.702 22.1602 145.57C24.0002 157.79 36.0002 171.75 49.0002 172.74C59.0002 168.22 65.6802 156.26 66.6102 145.34L66.4402 145.31Z" fill="black"/>
<path d="M453.11 217.31C450.852 220.461 449.325 224.075 448.64 227.89C447.98 231.68 448.64 235.46 448.83 239.26C449.13 244.26 448.05 248.45 444.73 252.26C442.1 255.26 438.92 257.76 436.54 261C431.76 267.51 430.68 274.79 431.66 282.66C432.77 291.57 434.84 299.95 430.55 308.41C428.25 312.95 425.21 317.09 423.6 321.97C422.161 326.721 421.546 331.682 421.78 336.64C421.78 337.19 422.83 337.36 422.84 336.75C422.758 332.02 423.368 327.304 424.65 322.75C425.96 318.57 428.32 314.9 430.46 311.11C432.629 307.544 433.994 303.548 434.46 299.4C434.656 295.67 434.404 291.93 433.71 288.26C433.05 283.99 432.25 279.66 432.46 275.33C432.721 271.032 434.081 266.872 436.41 263.25C440.51 256.74 448.47 252.74 449.84 244.65C450.5 240.73 449.66 236.75 449.47 232.83C449.21 227.39 451 222.43 453.63 217.75C453.8 217.46 453.31 216.99 453.09 217.3L453.11 217.31Z" fill="#37474F"/>
<path d="M454.42 226.25C454.76 224.67 452.42 219.62 451.83 219.48C451.24 219.34 447.33 222.93 446.96 224.61C446.918 224.945 446.966 225.285 447.097 225.596C447.229 225.906 447.44 226.177 447.71 226.38C448.437 226.972 449.292 227.384 450.207 227.586C451.122 227.787 452.072 227.772 452.98 227.54C453.312 227.47 453.619 227.314 453.872 227.087C454.125 226.861 454.314 226.572 454.42 226.25V226.25Z" fill="#92E3A9"/>
<path opacity="0.1" d="M454.42 226.25C454.76 224.67 452.42 219.62 451.83 219.48C451.24 219.34 447.33 222.93 446.96 224.61C446.918 224.945 446.966 225.285 447.097 225.596C447.229 225.906 447.44 226.177 447.71 226.38C448.437 226.972 449.292 227.384 450.207 227.586C451.122 227.787 452.072 227.772 452.98 227.54C453.312 227.47 453.619 227.314 453.872 227.087C454.125 226.861 454.314 226.572 454.42 226.25V226.25Z" fill="black"/>
<path d="M479.92 196C477.27 208.07 464.44 221.24 451.42 221.4C439.72 215.17 433.54 198.46 436.2 186.4C438.86 174.34 449.11 164.76 463.2 167.86C477.29 170.96 482.58 183.87 479.92 196Z" fill="#92E3A9"/>
<path opacity="0.05" d="M435.75 192.85C435.75 192.85 436.46 205.15 450.59 209.23C464.21 213.16 478.79 200.46 480.59 190.32C480.558 192.214 480.337 194.1 479.93 195.95C477.28 208.02 464.45 221.19 451.43 221.35C441.73 216.19 435.84 203.83 435.61 192.87L435.75 192.85Z" fill="black"/>
<path d="M304.32 43.5898C299.65 43.1298 293.32 50.9298 297.9 54.6798C300.44 56.7598 305.97 55.8598 305.9 51.9698C305.889 51.8619 305.843 51.7606 305.769 51.6813C305.695 51.6019 305.597 51.5487 305.49 51.5298C301.82 50.6898 298.18 52.2698 298.8 56.5298C299.133 58.3662 300.078 60.0356 301.482 61.2652C302.886 62.4948 304.666 63.2121 306.53 63.2998C306.75 63.2998 306.67 62.9198 306.53 62.8798C303.33 62.2098 300.31 60.2198 299.68 56.7998C299.538 56.1945 299.526 55.5659 299.645 54.9557C299.764 54.3454 300.011 53.7673 300.37 53.2598C300.798 52.7457 301.363 52.3642 302 52.1598C302.55 51.9898 304.52 51.6798 305 52.1598C305.86 53.0498 303.52 54.5598 302.82 54.7998C302.129 55.0478 301.392 55.1406 300.66 55.0715C299.929 55.0023 299.222 54.773 298.59 54.3998C296.65 53.0398 297.13 50.4798 298.07 48.6698C299.34 46.2198 301.56 44.2298 304.42 44.1298C304.68 44.1298 304.54 43.6398 304.34 43.6198L304.32 43.5898Z" fill="#92E3A9"/>
<path d="M305.87 197.23C307.34 193.92 307.18 190.49 311.46 189.4C313.34 188.92 317.79 188.48 319.2 190.15C319.457 190.553 319.561 191.035 319.493 191.508C319.425 191.982 319.19 192.415 318.83 192.73C317.72 193.73 316.89 192.53 316.6 191.47C316.377 190.491 316.463 189.467 316.846 188.539C317.229 187.612 317.891 186.826 318.74 186.29C320.536 185.107 322.709 184.64 324.833 184.98C326.956 185.321 328.874 186.445 330.21 188.13C330.37 188.33 330.54 188.13 330.47 187.91C327.19 180.36 311.47 185.61 316.47 192.85C318 195.04 320.7 193.11 320.19 190.79C319.63 188.22 315.25 188.35 313.31 188.48C311.344 188.481 309.448 189.211 307.99 190.53C306.28 192.21 306.05 194.87 305.69 197.13C305.69 197.23 305.78 197.38 305.85 197.23H305.87Z" fill="#92E3A9"/>
<path d="M418 34.8798C421.07 33.9798 425.29 34.2298 427.86 36.2998C429.86 37.8998 430.98 41.3698 428.05 42.5598C426.9 43.0198 423.11 43.0198 422.66 41.4598C422.34 40.3698 423.51 39.7198 424.45 39.5798C427.2 39.1498 429.78 42.0498 429.71 44.6398C429.62 48.5298 425.09 49.8198 421.89 49.8498C421.68 49.8498 421.73 50.2498 421.89 50.2598C427.34 50.7898 433.42 45.7398 428.57 40.6798C427.27 39.3198 425.23 38.3498 423.35 39.0998C422.29 39.5298 421.45 40.4898 421.98 41.6398C422.83 43.4898 426.25 43.8098 427.91 43.3398C428.35 43.2228 428.762 43.0167 429.119 42.7343C429.476 42.4519 429.772 42.0992 429.987 41.6981C430.203 41.2969 430.334 40.8558 430.372 40.4021C430.41 39.9483 430.355 39.4915 430.21 39.0598C428.87 34.1398 421.98 33.0598 417.9 34.5898C417.78 34.5898 417.83 34.9198 417.97 34.8798H418Z" fill="#92E3A9"/>
<path d="M458.23 241.31C461.3 240.41 465.52 240.66 468.09 242.73C470.09 244.33 471.21 247.8 468.28 248.99C467.13 249.45 463.34 249.45 462.89 247.88C462.57 246.8 463.74 246.15 464.67 246C467.43 245.58 470 248.48 469.94 251.07C469.85 254.96 465.32 256.25 462.12 256.28C461.91 256.28 461.96 256.68 462.12 256.69C467.57 257.22 473.65 252.17 468.8 247.11C467.5 245.75 465.46 244.78 463.58 245.53C462.52 245.95 461.68 246.92 462.21 248.07C463.06 249.92 466.48 250.24 468.14 249.76C468.58 249.645 468.993 249.441 469.351 249.16C469.709 248.879 470.005 248.527 470.221 248.126C470.437 247.725 470.567 247.284 470.605 246.831C470.643 246.377 470.587 245.921 470.44 245.49C469.1 240.56 462.21 239.49 458.13 241.02C458.01 241.02 458.05 241.35 458.2 241.31H458.23Z" fill="#92E3A9"/>
<path d="M435.73 91.7898C432.07 92.8798 428.67 99.3198 432.07 102.25C434.96 104.74 440.8 104.18 439.83 99.4298C439.821 99.3757 439.797 99.3249 439.762 99.2828C439.727 99.2406 439.681 99.2085 439.63 99.1898C435.79 98.2698 434.52 102.75 435.33 105.71C436.58 110.31 441.22 110.25 444.57 107.85C444.68 107.77 444.63 107.45 444.47 107.53C441.73 108.9 437.89 110.12 436.22 106.62C435.33 104.75 435.3 101.62 437.02 100.21C437.467 99.7923 438.058 99.5631 438.67 99.5698C439.95 99.7198 439.73 101.1 439.01 101.98C437.86 103.38 435.55 103.23 434.01 102.69C428.74 100.82 432.36 93.9898 435.8 92.0698C435.9 92.0098 435.88 91.7498 435.73 91.7898V91.7898Z" fill="#92E3A9"/>
<path d="M354.34 75.6997C350.02 75.1497 340.73 78.7897 343.15 84.6997C344.44 87.8497 350.2 89.8697 352.09 86.2597C352.131 86.1614 352.132 86.0511 352.092 85.9523C352.053 85.8534 351.977 85.7736 351.88 85.7297C342.88 80.6297 333.4 95.3597 342.95 100.73C343.25 100.9 343.24 100.39 343.07 100.26C342.246 99.6956 341.543 98.9728 341.002 98.1336C340.46 97.2944 340.092 96.3557 339.918 95.3724C339.744 94.3891 339.767 93.3809 339.988 92.4069C340.208 91.4329 340.62 90.5125 341.2 89.6997C342.173 88.1464 343.558 86.8933 345.2 86.0797C346.43 85.4997 349.52 84.6797 350.67 85.8797C351.19 86.4397 351.18 85.7397 350.91 86.3897C350.654 86.7758 350.261 87.0508 349.81 87.1597C348.828 87.4715 347.769 87.4362 346.81 87.0597C344.81 86.3597 343.24 84.5197 343.81 82.3097C344.86 77.8797 350.5 76.3097 354.45 76.2397C354.72 76.2397 354.55 75.7297 354.34 75.6997Z" fill="#92E3A9"/>
<path d="M374 35.8301C374 35.8301 373.74 40.6701 377.33 43.3601L381.09 42.2101C381.09 42.2101 378.58 41.0101 377.33 35.8301H374Z" fill="#455A64"/>
<path d="M310.66 153C310.66 153 310.39 157.84 313.98 160.53L317.75 159.38C317.75 159.38 315.23 158.18 313.98 153H310.66Z" fill="#455A64"/>
<path d="M341.4 207.54C341.4 207.54 341.13 212.37 344.73 215.06L348.49 213.92C348.49 213.92 345.98 212.71 344.73 207.54H341.4Z" fill="#37474F"/>
<path d="M459.26 60.0799C459.26 60.0799 457.06 64.3999 452.61 64.9299L449.92 62.0499C449.92 62.0499 452.7 62.2699 456.38 58.4199L459.26 60.0799Z" fill="#455A64"/>
<path d="M433.47 214.54C433.47 214.54 431.28 218.86 426.82 219.38L424.13 216.51C424.13 216.51 426.92 216.72 430.59 212.87L433.47 214.54Z" fill="#455A64"/>
<path d="M371.92 123.81C371.92 123.81 369.73 128.13 365.27 128.65L362.58 125.78C362.58 125.78 365.37 125.99 369.04 122.14L371.92 123.81Z" fill="#92E3A9"/>
<path d="M331.91 70.4998C331.91 70.4998 329.72 74.8198 325.27 75.3498L322.58 72.4698C322.58 72.4698 325.36 72.6898 329.04 68.8398L331.91 70.4998Z" fill="#455A64"/>
<path d="M415 76.9999C415 76.9999 410.19 77.5999 407.26 74.1899L408.15 70.3599C408.15 70.3599 409.52 72.7899 414.77 73.6799L415 76.9999Z" fill="#92E3A9"/>
<path d="M345.26 53.3898C345.26 53.3898 340.46 53.9898 337.53 50.5898L338.41 46.7598C338.41 46.7598 339.79 49.1798 345.04 50.0798L345.26 53.3898Z" fill="#92E3A9"/>
<path d="M264.39 42.8898C264.39 42.8898 259.59 43.4898 256.66 40.0898L257.54 36.2598C257.54 36.2598 258.92 38.6798 264.16 39.5798L264.39 42.8898Z" fill="#92E3A9"/>
<path d="M321.93 107.41C321.93 107.41 317.13 108 314.2 104.6L315.08 100.77C315.08 100.77 316.46 103.2 321.71 104.09L321.93 107.41Z" fill="#92E3A9"/>
<path d="M465.82 143.22C465.82 143.22 461.01 143.81 458.09 140.41L458.97 136.58C458.97 136.58 460.35 139.01 465.59 139.9L465.82 143.22Z" fill="#92E3A9"/>
<path d="M382.07 94.7499C382.07 94.7499 379.88 99.0699 375.42 99.5999L372.73 96.7199C372.73 96.7199 376.02 97.2299 379.73 93.3799L382.07 94.7499Z" fill="#455A64"/>
<path d="M386.91 101.13C386.91 101.13 386.05 105.9 381.91 107.68L378.51 105.68C380.915 104.595 382.915 102.774 384.22 100.48L386.91 101.13Z" fill="#37474F"/>
<path d="M217.89 39.8501C222.57 39.3901 228.89 47.1801 224.31 50.9301C221.78 53.0201 216.24 52.1101 216.31 48.2201C216.323 48.114 216.37 48.015 216.444 47.9376C216.518 47.8602 216.615 47.8085 216.72 47.7901C220.4 46.9501 224.03 48.5201 223.41 52.7901C223.079 54.6246 222.135 56.2925 220.732 57.5205C219.33 58.7486 217.552 59.4642 215.69 59.5501C215.46 59.5501 215.54 59.1701 215.69 59.1401C218.89 58.4601 221.91 56.4701 222.53 53.0501C222.675 52.4466 222.688 51.8191 222.569 51.21C222.45 50.601 222.201 50.0247 221.84 49.5201C221.408 48.9883 220.826 48.5982 220.17 48.4001C219.63 48.2301 217.65 47.9201 217.22 48.4001C216.35 49.3001 218.7 50.8001 219.4 51.0401C220.089 51.2915 220.825 51.386 221.555 51.3168C222.285 51.2476 222.991 51.0164 223.62 50.6401C225.56 49.2901 225.08 46.7301 224.14 44.9101C222.88 42.4701 220.65 40.4701 217.79 40.3801C217.54 40.3801 217.67 39.8901 217.87 39.8701L217.89 39.8501Z" fill="#92E3A9"/>
<path d="M210.39 203.77C208.92 200.46 209.07 197.03 204.8 195.93C202.92 195.45 198.47 195.01 197.05 196.69C196.796 197.092 196.694 197.572 196.761 198.043C196.829 198.514 197.063 198.945 197.42 199.26C198.54 200.26 199.42 199.06 199.66 198.01C199.884 197.03 199.799 196.004 199.415 195.075C199.032 194.145 198.37 193.357 197.52 192.82C195.719 191.624 193.533 191.15 191.398 191.492C189.264 191.835 187.336 192.97 186 194.67C185.85 194.86 185.68 194.67 185.75 194.45C189.03 186.9 204.75 192.15 199.75 199.39C198.22 201.58 195.51 199.64 196.02 197.33C196.59 194.76 201.02 194.89 202.9 195.01C204.868 195.014 206.766 195.744 208.23 197.06C209.94 198.75 210.17 201.41 210.53 203.66C210.53 203.77 210.44 203.91 210.37 203.77H210.39Z" fill="#92E3A9"/>
<path d="M87.5001 34.8798C84.4301 33.9798 80.2101 34.2298 77.6301 36.2998C75.6301 37.8998 74.5201 41.3698 77.4501 42.5598C78.6001 43.0198 82.3901 43.0198 82.8401 41.4598C83.1601 40.3698 81.9901 39.7198 81.0501 39.5798C78.3001 39.1498 75.7201 42.0498 75.7801 44.6398C75.8801 48.5298 80.4101 49.8198 83.6101 49.8498C83.8201 49.8498 83.7701 50.2498 83.6101 50.2598C78.1601 50.7898 72.0801 45.7398 76.9201 40.6798C78.2301 39.3198 80.2701 38.3498 82.1501 39.0998C83.2101 39.5298 84.0501 40.4898 83.5201 41.6398C82.6701 43.4898 79.2501 43.8098 77.5901 43.3398C77.15 43.2228 76.7386 43.0167 76.3813 42.7343C76.024 42.4519 75.7285 42.0992 75.5129 41.6981C75.2974 41.2969 75.1664 40.8558 75.128 40.4021C75.0897 39.9483 75.1449 39.4915 75.2901 39.0598C76.6301 34.1398 83.5101 33.0598 87.6001 34.5898C87.7201 34.5898 87.6701 34.9198 87.5301 34.8798H87.5001Z" fill="#92E3A9"/>
<path d="M51.7902 237.61C48.7202 236.71 44.5002 236.96 41.9202 239.03C39.9202 240.63 38.8002 244.1 41.7402 245.29C42.8902 245.75 46.6702 245.75 47.1302 244.19C47.4402 243.1 46.2702 242.45 45.3402 242.31C42.5802 241.88 40.0102 244.78 40.0702 247.37C40.1602 251.26 44.6902 252.55 47.8902 252.58C48.1102 252.58 48.0502 252.98 47.8902 253C42.4402 253.52 36.3602 248.47 41.2002 243.41C42.5102 242.05 44.5402 241.08 46.4202 241.83C47.4902 242.26 48.3302 243.22 47.8002 244.37C46.9502 246.22 43.5202 246.54 41.8602 246.07C41.4202 245.953 41.0089 245.747 40.652 245.465C40.295 245.182 40 244.829 39.7853 244.428C39.5705 244.026 39.4406 243.585 39.4036 243.131C39.3666 242.678 39.4233 242.221 39.5702 241.79C40.9002 236.87 47.7902 235.84 51.8802 237.32C52.0002 237.32 51.9502 237.65 51.8102 237.61H51.7902Z" fill="#92E3A9"/>
<path d="M59.6602 93.6399C63.3202 94.7299 66.7202 101.17 63.3202 104.1C60.4302 106.6 54.5902 106.03 55.5602 101.28C55.5711 101.226 55.5951 101.177 55.63 101.135C55.6649 101.093 55.7096 101.06 55.7602 101.04C59.6002 100.13 60.8702 104.61 60.0602 107.57C58.8102 112.16 54.1702 112.11 50.8202 109.7C50.7102 109.62 50.7602 109.31 50.9202 109.39C53.6602 110.76 57.5002 111.97 59.1702 108.47C60.0602 106.6 60.0902 103.47 58.3702 102.07C57.9239 101.65 57.3332 101.417 56.7202 101.42C55.4402 101.57 55.6602 102.96 56.3802 103.83C57.5302 105.23 59.8402 105.08 61.3802 104.54C66.6502 102.68 63.0302 95.8399 59.5902 93.9199C59.4902 93.8599 59.5102 93.5999 59.6602 93.6399V93.6399Z" fill="#92E3A9"/>
<path d="M71.29 175.54C65.06 176.04 66.18 187.87 71.21 189.47C71.5191 189.58 71.8471 189.629 72.175 189.611C72.5029 189.594 72.8241 189.512 73.12 189.37C73.489 189.098 73.7852 188.74 73.9824 188.327C74.1795 187.913 74.2714 187.457 74.25 187C73.65 185 70.25 187.54 69.86 188.33C69.2125 189.371 68.9104 190.59 68.9966 191.813C69.0828 193.036 69.5529 194.2 70.34 195.14C72.9 197.91 77.8 198 81 196.4C81.16 196.31 81.19 196.62 81.08 196.7C77.63 198.91 71.85 198.59 69.29 195.09C67.29 192.29 68.66 184.86 73.12 185.52C77.28 186.13 74.4 190.87 71.25 190.24C68.1 189.61 66.96 185.43 66.66 182.84C66.28 179.58 67.25 175.18 71.29 175.25C71.42 175.25 71.41 175.53 71.29 175.54V175.54Z" fill="#92E3A9"/>
<path d="M149.53 75.6997C153.85 75.1497 163.14 78.7897 160.72 84.6997C159.43 87.8497 153.67 89.8697 151.78 86.2597C151.739 86.1614 151.739 86.0511 151.778 85.9523C151.817 85.8534 151.893 85.7736 151.99 85.7297C160.99 80.6297 170.47 95.3597 160.92 100.73C160.62 100.9 160.63 100.39 160.8 100.26C161.625 99.6956 162.33 98.9723 162.872 98.1322C163.414 97.2922 163.783 96.3524 163.957 95.3679C164.132 94.3834 164.107 93.374 163.886 92.399C163.665 91.4239 163.252 90.5028 162.67 89.6897C161.697 88.1364 160.312 86.8833 158.67 86.0697C157.44 85.4897 154.35 84.6697 153.2 85.8697C152.68 86.4297 152.69 85.7297 152.96 86.3797C153.217 86.7658 153.609 87.0408 154.06 87.1497C155.042 87.4615 156.101 87.4262 157.06 87.0497C159.06 86.3497 160.63 84.5097 160.06 82.2997C159.01 77.8697 153.37 76.2997 149.42 76.2297C149.15 76.2297 149.32 75.7197 149.53 75.6897V75.6997Z" fill="#92E3A9"/>
<path d="M132 44.6301C132 44.6301 132.27 49.4701 128.67 52.1601L124.91 51.0001C124.91 51.0001 127.42 49.8001 128.67 44.6201L132 44.6301Z" fill="#455A64"/>
<path d="M209.71 164.41C209.71 164.41 209.98 169.25 206.38 171.94L202.62 170.8C202.62 170.8 205.13 169.59 206.38 164.41H209.71Z" fill="#455A64"/>
<path d="M194.85 222.26C194.85 222.26 195.11 227.1 191.52 229.79L187.76 228.64C187.76 228.64 190.27 227.44 191.52 222.26H194.85Z" fill="#37474F"/>
<path d="M44.6099 60.0799C44.6099 60.0799 46.8099 64.3999 51.2599 64.9299L53.9999 62.0499C53.9999 62.0499 51.2199 62.2699 47.5399 58.4199L44.6099 60.0799Z" fill="#455A64"/>
<path d="M91.1299 209.27C91.1299 209.27 93.3199 213.59 97.7799 214.12L100.47 211.24C100.47 211.24 97.6799 211.46 94.0099 207.61L91.1299 209.27Z" fill="#455A64"/>
<path d="M138.49 129.41C138.49 129.41 140.68 133.73 145.14 134.26L147.82 131.38C147.82 131.38 145.04 131.6 141.37 127.75L138.49 129.41Z" fill="#92E3A9"/>
<path d="M182 72.87C182 72.87 184.19 77.19 188.65 77.72L191.33 74.84C191.33 74.84 188.55 75.06 184.88 71.21L182 72.87Z" fill="#455A64"/>
<path d="M88.8599 76.9999C88.8599 76.9999 93.6699 77.5999 96.5999 74.1899L95.7099 70.3599C95.7099 70.3599 94.3399 72.7899 89.0899 73.6799L88.8599 76.9999Z" fill="#92E3A9"/>
<path d="M171 39.5499C171 39.5499 175.81 40.1499 178.74 36.7499L177.86 32.9199C177.86 32.9199 176.48 35.3399 171.23 36.2399L171 39.5499Z" fill="#92E3A9"/>
<path d="M181.91 103.37C181.91 103.37 186.71 103.96 189.64 100.56L188.76 96.73C188.76 96.73 187.38 99.16 182.13 100.05L181.91 103.37Z" fill="#92E3A9"/>
<path d="M26 198.46C26 198.46 30.81 199.06 33.74 195.66L32.86 191.82C32.86 191.82 31.48 194.25 26.23 195.14L26 198.46Z" fill="#92E3A9"/>
<path d="M121.8 94.7499C121.8 94.7499 123.99 99.0699 128.45 99.5999L131.14 96.7199C131.14 96.7199 127.85 97.2299 124.14 93.3799L121.8 94.7499Z" fill="#455A64"/>
<path d="M117 101.13C117 101.13 117.86 105.9 122 107.68L125.4 105.68C122.994 104.595 120.995 102.774 119.69 100.48L117 101.13Z" fill="#37474F"/>
<path d="M274.88 76.2401C274.88 76.2401 272.69 80.5601 268.23 81.0901L265.54 78.2201C265.54 78.2201 268.83 78.7201 272.54 74.8701L274.88 76.2401Z" fill="#455A64"/>
<path d="M253.32 71.0602C253.32 71.0602 252.46 75.8302 248.32 77.6202L244.92 75.6202C247.328 74.5333 249.328 72.7087 250.63 70.4102L253.32 71.0602Z" fill="#37474F"/>
<path d="M227.48 377.23C228.21 379.17 229.3 381.1 231.48 381.82C235.96 383.31 241.78 379.46 244.19 376.59C247.11 373.11 247.55 369.4 249.69 366.51C251.83 363.62 254.85 361.79 256.31 359.29C256.911 358.356 257.266 357.284 257.341 356.175C257.416 355.067 257.209 353.957 256.74 352.95C256.052 351.698 255.008 350.678 253.74 350.02C253.41 349.82 252.83 349.8 252.47 349.6L227.48 377.23Z" fill="#263238"/>
<path d="M236.79 359C236.479 360.798 235.775 362.505 234.73 364C232.87 366.48 230.48 368.31 228.29 370.46C227.501 371.095 226.86 371.894 226.41 372.8C225.49 375.2 226.57 377.14 228.26 379.01C228.998 379.683 229.886 380.17 230.85 380.43C232.27 380.821 233.77 380.821 235.19 380.43C237.928 379.492 240.377 377.863 242.3 375.7C246.09 371.46 245.85 365.89 250.37 362.17C254.89 358.45 257.93 354.48 253.32 349.68C251.08 347.34 248.58 346.34 247.91 345.5C246.71 344.01 243.91 346.62 243.02 347.38C242.13 348.14 241.27 349.04 240.36 349.84C239.522 350.784 238.753 351.786 238.06 352.84C237.772 353.135 237.533 353.472 237.35 353.84C237.193 354.331 237.132 354.847 237.17 355.36C237.165 356.583 237.038 357.803 236.79 359V359Z" fill="#37474F"/>
<path d="M242.37 375.67C242.897 375.114 243.372 374.512 243.79 373.87C243.077 371.727 241.67 369.882 239.79 368.63C238.624 367.838 237.304 367.304 235.916 367.063C234.528 366.821 233.104 366.878 231.74 367.23C230.354 368.081 229.046 369.051 227.83 370.13C227.034 370.817 226.431 371.699 226.08 372.69C225.766 373.857 225.813 375.091 226.212 376.231C226.612 377.371 227.347 378.364 228.32 379.08C229.022 379.728 229.88 380.183 230.81 380.4C232.234 380.79 233.736 380.79 235.16 380.4C237.907 379.423 240.38 377.801 242.37 375.67V375.67Z" fill="#FAFAFA"/>
<path d="M244.74 337.92L247.44 346.19C247.44 346.19 249.51 348.9 246.25 352.04C242.99 355.18 239.34 355.04 237.77 353.13L233.12 344.35L244.74 337.92Z" fill="#FFA8A7"/>
<path d="M312.73 321.2C313.92 321.76 317.06 321.97 318.79 320.79C322.4 318.33 323.17 311.08 322.04 307.07C320.66 302.21 317.96 299.75 317.04 296.83C316.12 293.91 316.37 289.73 315.15 287.18C314.654 286.192 313.951 285.323 313.088 284.633C312.225 283.942 311.222 283.447 310.15 283.18C309.47 282.994 308.756 282.966 308.063 283.095C307.371 283.225 306.716 283.511 306.15 283.93L305.06 284.73L312.73 321.2Z" fill="#263238"/>
<path d="M303.55 302.84C304.83 304.164 305.774 305.776 306.3 307.54C307.22 310.44 307.3 313.54 307.69 316.54C307.772 317.545 308.033 318.527 308.46 319.44C309.56 321.55 312.07 321.94 314.57 321.62C315.566 321.404 316.5 320.963 317.3 320.33C318.455 319.42 319.338 318.209 319.85 316.83C320.708 314.043 320.838 311.083 320.23 308.23C319.32 302.81 313.87 299.23 313.94 293.89C314.01 288.55 310.88 281.64 304.16 285.18C300.821 287.042 297.786 289.402 295.16 292.18C296.76 294.58 298.4 296.97 299.97 299.39C300.274 300.003 300.661 300.572 301.12 301.08C301.81 301.69 302.71 302.02 303.4 302.68L303.55 302.84Z" fill="#37474F"/>
<path d="M320.23 308.32C320.098 307.573 319.887 306.842 319.6 306.14C317.483 305.398 315.173 305.419 313.07 306.2C311.706 306.625 310.461 307.365 309.436 308.361C308.411 309.356 307.634 310.579 307.17 311.93C307.03 313.55 307.03 315.18 307.17 316.8C307.273 317.844 307.615 318.85 308.17 319.74C309.64 321.87 312.01 322.03 314.51 321.74C315.506 321.522 316.439 321.081 317.24 320.45C318.393 319.538 319.275 318.328 319.79 316.95C320.673 314.159 320.825 311.187 320.23 308.32V308.32Z" fill="#FAFAFA"/>
<path d="M296.68 288.9L300.91 288.72C302.003 289.21 302.965 289.952 303.716 290.885C304.467 291.819 304.986 292.917 305.23 294.09C305.424 295.296 305.367 296.529 305.06 297.712C304.754 298.894 304.205 300 303.45 300.96L296.45 301.88L296.66 289.18" fill="#FFA8A7"/>
<path d="M297 288.36L267.79 288.65C267.79 288.65 273.09 249.46 271.34 226.52L224.46 221.13L224.32 221.42C216.63 241.89 208.51 268.59 204.09 288.71C202.73 294.91 203.43 296.6 208.25 305.71C215.02 318.49 226.54 335.59 234.79 348.57C241.31 347.99 244.79 346.01 246.29 340.62C241.17 328.69 236.84 302.95 225.29 292.03C231.74 280.53 237.79 267.32 243.95 254.63C244.14 262.71 244.95 289.2 247.76 300.11C249.5 306.96 253.3 311.05 260.88 309.84C271.44 308.15 299.34 301.9 299.34 301.9C304.94 301.1 303.54 290.63 297 288.36Z" fill="#92E3A9"/>
<path opacity="0.2" d="M297 288.36L267.79 288.65C267.79 288.65 273.09 249.46 271.34 226.52L224.46 221.13L224.32 221.42C216.63 241.89 208.51 268.59 204.09 288.71C202.73 294.91 203.43 296.6 208.25 305.71C215.02 318.49 226.54 335.59 234.79 348.57C241.31 347.99 244.79 346.01 246.29 340.62C241.17 328.69 236.84 302.95 225.29 292.03C231.74 280.53 237.79 267.32 243.95 254.63C244.14 262.71 244.95 289.2 247.76 300.11C249.5 306.96 253.3 311.05 260.88 309.84C271.44 308.15 299.34 301.9 299.34 301.9C304.94 301.1 303.54 290.63 297 288.36Z" fill="black"/>
<path opacity="0.2" d="M267.82 288.65C267.82 288.65 268.22 293.94 265.96 297.89C267.561 296.39 268.801 294.547 269.59 292.5C270.79 289.24 280.15 290.01 287.15 288.5L267.82 288.65Z" fill="black"/>
<path opacity="0.2" d="M243.94 254.65L243.48 247.27C239.482 244.98 235.931 241.985 233 238.43C235.262 242.028 238.076 245.248 241.34 247.97L242.04 253.19L231.84 279.73L243.94 254.65Z" fill="black"/>
<path opacity="0.2" d="M225.3 292C224.67 292.918 223.873 293.708 222.95 294.33C225.68 295.826 228.086 297.848 230.03 300.28C232.142 303.152 234.066 306.159 235.79 309.28C233 302.46 229.69 296.18 225.3 292Z" fill="black"/>
<path d="M207.64 142.89C209.08 146.6 226.86 172.89 231.13 179.18C243.27 174 235.19 159.73 235.19 159.73C235.19 159.73 222.43 139.08 220.36 135.6C219.872 134.713 219.566 133.737 219.46 132.73C219.2 130.89 218.3 108.31 219.4 101.49C219.606 100.279 220.25 99.1865 221.21 98.4202C223.76 96.3502 224.65 94.4202 226.46 92.0002C227.87 90.0902 229.21 89.4902 228.92 89.0002C228.532 88.442 227.947 88.0512 227.283 87.9065C226.619 87.7618 225.925 87.8739 225.34 88.2202C224.02 88.9417 222.792 89.8179 221.68 90.8302C222.323 88.2097 223.387 85.7107 224.83 83.4302C228.11 78.1902 227.92 75.2602 220.09 76.1702C215.18 76.7402 210.4 80.5402 208.09 91.8102C207.42 95.0502 207.27 99.9402 207.02 104.14C206.48 113.68 206.12 128.78 206.3 135.39C206.36 138.71 206.21 139.19 207.64 142.89Z" fill="#FFA8A7"/>
<path d="M242.88 157C238.67 156.38 224.88 141.29 224.88 141.29C221.03 141.07 211.59 150.94 213.46 154.96C219.07 164.3 226.2 172.96 228.14 178.96C229.75 182.34 234.06 179.47 235.92 172.36C238.53 162.53 246.3 157.54 242.88 157Z" fill="#92E3A9"/>
<path opacity="0.3" d="M242.88 157C238.67 156.38 224.88 141.29 224.88 141.29C221.03 141.07 211.59 150.94 213.46 154.96C219.07 164.3 226.2 172.96 228.14 178.96C229.75 182.34 234.06 179.47 235.92 172.36C238.53 162.53 246.3 157.54 242.88 157Z" fill="black"/>
<path d="M274.09 174.83L273.09 192.75L272 230.86C258.17 237.33 237.75 233.43 223.86 222.24C223.86 222.24 224.65 178.38 227.51 168.24C230.37 158.1 235.51 156.09 242.66 156.31C250.21 156.55 259.91 157.61 259.91 157.61L268.17 159.81C268.17 159.81 274.26 171.24 274.09 174.83Z" fill="#455A64"/>
<path d="M279.94 145.32C280.88 144.84 285.21 147 287.85 150.73C290.49 154.46 290.67 159.73 289.85 160.73C289.03 161.73 278.4 157 278.4 157L279.94 145.32Z" fill="#92E3A9"/>
<path opacity="0.6" d="M279.94 145.32C280.88 144.84 285.21 147 287.85 150.73C290.49 154.46 290.67 159.73 289.85 160.73C289.03 161.73 278.4 157 278.4 157L279.94 145.32Z" fill="black"/>
<path d="M297.38 148.13C295.61 151.69 275.43 176.18 270.58 182.05C258.99 175.75 268.38 162.31 268.38 162.31C268.38 162.31 283 143 285.4 139.68C285.971 138.843 286.371 137.902 286.58 136.91C287 135.09 290.03 112.7 289.58 105.81C289.488 104.588 288.951 103.442 288.07 102.59C285.73 100.28 285.02 98.2903 283.45 95.6903C282.22 93.6903 280.95 92.9403 281.28 92.4503C281.72 91.9323 282.339 91.5993 283.014 91.5177C283.688 91.4362 284.369 91.6121 284.92 92.0103C286.168 92.853 287.309 93.8435 288.32 94.9603C287.921 92.2886 287.093 89.6986 285.87 87.2903C283.1 81.7703 283.57 78.8603 291.28 80.5003C296.11 81.5003 300.52 85.7803 301.79 97.2103C302.15 100.5 301.84 105.38 301.69 109.58C301.33 119.14 300.27 134.2 299.47 140.77C299.05 144.09 299.16 144.58 297.38 148.13Z" fill="#FFA8A7"/>
<path d="M265.41 159.27L279.94 145.27C279.94 145.27 278.63 157.27 289.83 160.7L273.14 181.81C271.21 185.03 265.92 180.81 264.74 173.59C263.09 163.53 265.41 159.27 265.41 159.27Z" fill="#92E3A9"/>
<path opacity="0.3" d="M265.41 159.27L279.94 145.27C279.94 145.27 278.63 157.27 289.83 160.7L273.14 181.81C271.21 185.03 265.92 180.81 264.74 173.59C263.09 163.53 265.41 159.27 265.41 159.27Z" fill="black"/>
<path d="M257.69 125.51C257.572 128.065 256.699 130.528 255.182 132.587C253.664 134.646 251.57 136.209 249.164 137.077C246.758 137.946 244.149 138.082 241.666 137.467C239.183 136.852 236.939 135.515 235.216 133.624C233.493 131.734 232.37 129.375 231.988 126.845C231.606 124.316 231.983 121.731 233.071 119.416C234.159 117.101 235.91 115.161 238.1 113.841C240.291 112.521 242.825 111.88 245.38 112C248.802 112.163 252.02 113.677 254.328 116.21C256.635 118.743 257.844 122.087 257.69 125.51Z" fill="#263238"/>
<path d="M266.67 135.14C266.67 135.14 264.11 144.87 263.2 146.45C262.598 147.438 261.638 148.154 260.52 148.45L261 141.53L266.67 135.14Z" fill="#263238"/>
<path d="M264.71 120.92C265.445 120.869 266.182 120.987 266.865 121.264C267.548 121.542 268.158 121.971 268.65 122.52C270.29 124.37 269.07 129.84 266.65 135.14L262.65 135.4L264.71 120.92Z" fill="#263238"/>
<path d="M261.52 135.35C262.29 135.86 263.52 134.4 264.52 133.42C265.52 132.44 268.8 131.2 270.23 134.62C271.66 138.04 268.45 142.47 265.91 143.14C261.52 144.29 261.01 141.49 261.01 141.49L259.93 157.49C254.24 164.12 239.36 162.83 245.93 155.93L246.16 151.19C244.222 151.397 242.268 151.397 240.33 151.19C237.17 150.55 235.33 147.94 234.49 144.46C233.2 138.87 232.83 134.38 234.65 123.58C236.65 111.74 250.51 112.27 257.76 117.33C265.01 122.39 261.52 135.35 261.52 135.35Z" fill="#FFA8A7"/>
<path d="M261.46 136.68C261.86 136.68 263.46 134.27 264.51 133.42C265.94 132.24 264.71 120.92 264.71 120.92C265.224 119.953 265.436 118.853 265.319 117.764C265.201 116.674 264.759 115.645 264.05 114.81C262.28 112.67 259.79 110.03 251.27 110.63C245.19 111.06 238.52 112.63 233.33 109.78C232.751 111.489 232.698 113.332 233.18 115.071C233.661 116.809 234.654 118.363 236.03 119.53C236.03 119.53 237.89 120.87 242.92 121.72C247.564 122.284 252.251 122.418 256.92 122.12C258.39 121.98 258.64 123.42 259.25 127.34C259.82 130.79 260.12 136.59 261.46 136.68Z" fill="#263238"/>
<path d="M264.66 121.8L269.56 119.45C269.422 119.121 269.22 118.824 268.964 118.576C268.708 118.327 268.404 118.134 268.071 118.007C267.738 117.879 267.383 117.821 267.027 117.836C266.671 117.85 266.321 117.937 266 118.09C265.339 118.414 264.83 118.982 264.581 119.675C264.331 120.367 264.359 121.129 264.66 121.8V121.8Z" fill="#263238"/>
<path d="M246.13 151.24C246.13 151.24 253.29 150.15 255.83 148.95C257.322 148.256 258.572 147.131 259.42 145.72C258.978 147.155 258.25 148.485 257.28 149.63C255.36 151.86 246.05 153.13 246.05 153.13L246.13 151.24Z" fill="#9A4A4D"/>
<path d="M248.7 133C248.696 133.281 248.775 133.557 248.928 133.794C249.08 134.03 249.298 134.216 249.556 134.329C249.813 134.442 250.098 134.476 250.375 134.428C250.652 134.38 250.908 134.251 251.113 134.058C251.317 133.865 251.459 133.616 251.523 133.342C251.586 133.068 251.568 132.781 251.469 132.518C251.371 132.255 251.197 132.027 250.969 131.862C250.742 131.697 250.471 131.602 250.19 131.59C249.999 131.585 249.81 131.617 249.632 131.685C249.454 131.753 249.291 131.856 249.153 131.987C249.014 132.118 248.903 132.275 248.825 132.448C248.748 132.622 248.705 132.81 248.7 133V133Z" fill="#263238"/>
<path d="M250.46 127.68L253.46 129.5C253.697 129.093 253.768 128.61 253.658 128.152C253.549 127.694 253.266 127.296 252.87 127.04C252.672 126.915 252.451 126.832 252.219 126.797C251.988 126.762 251.751 126.774 251.525 126.834C251.299 126.894 251.088 127.001 250.904 127.146C250.721 127.292 250.57 127.474 250.46 127.68V127.68Z" fill="#263238"/>
<path d="M247.18 142.74L243.88 143.8C243.938 144.02 244.039 144.226 244.177 144.406C244.316 144.585 244.489 144.736 244.687 144.848C244.884 144.959 245.102 145.031 245.328 145.057C245.553 145.083 245.782 145.064 246 145C246.455 144.855 246.834 144.537 247.055 144.113C247.276 143.69 247.321 143.196 247.18 142.74V142.74Z" fill="#9A4A4D"/>
<path d="M236.23 128.19L239.1 126.19C238.979 125.996 238.82 125.829 238.633 125.699C238.446 125.568 238.234 125.477 238.01 125.431C237.786 125.385 237.556 125.386 237.332 125.432C237.108 125.478 236.897 125.569 236.71 125.7C236.327 125.976 236.065 126.387 235.976 126.85C235.887 127.313 235.977 127.792 236.23 128.19V128.19Z" fill="#263238"/>
<path d="M236.9 132C236.878 132.195 236.896 132.393 236.953 132.581C237.01 132.769 237.106 132.943 237.234 133.092C237.361 133.242 237.518 133.363 237.695 133.449C237.872 133.535 238.064 133.584 238.26 133.592C238.457 133.6 238.653 133.568 238.836 133.497C239.019 133.426 239.186 133.319 239.326 133.18C239.466 133.042 239.575 132.877 239.648 132.694C239.721 132.512 239.756 132.316 239.75 132.12C239.772 131.925 239.754 131.727 239.697 131.539C239.64 131.351 239.544 131.177 239.416 131.028C239.289 130.878 239.132 130.757 238.955 130.671C238.778 130.585 238.586 130.536 238.389 130.528C238.193 130.52 237.997 130.552 237.814 130.623C237.631 130.694 237.464 130.802 237.324 130.94C237.184 131.078 237.075 131.243 237.002 131.426C236.929 131.608 236.894 131.804 236.9 132Z" fill="#263238"/>
<path d="M244.21 131L243.34 139.53L238.95 137.79L244.21 131Z" fill="#F28F8F"/>
</svg>
