<svg width="500" height="500" viewBox="0 0 500 500" fill="none" xmlns="http://www.w3.org/2000/svg">
<path d="M404.91 269.55C491.03 318.35 491.49 397.46 405.91 446.25C320.33 495.04 181.2 495 95.08 446.25C8.95996 397.5 8.50997 318.35 94.08 269.56C179.65 220.77 318.8 220.76 404.91 269.55Z" fill="#F5F5F5"/>
<path d="M321.69 49.2299L326.1 46.6699L325.84 137.8L321.44 140.37L321.69 49.2299Z" fill="#F0F0F0"/>
<path d="M321.44 140.37L325.84 137.8L452.98 211.2L448.57 213.76L321.44 140.37Z" fill="#F5F5F5"/>
<path d="M316.64 40.48L453.91 119.73L453.62 222.52L316.35 143.26L316.64 40.48ZM448.57 213.76L448.83 122.63L321.69 49.23L321.44 140.36L448.57 213.76Z" fill="#E0E0E0"/>
<path d="M316.64 40.4802L321.05 37.9102L458.32 117.17L453.91 119.73L316.64 40.4802Z" fill="#F5F5F5"/>
<path d="M453.91 119.73L458.32 117.17L458.03 219.96L453.62 222.52L453.91 119.73Z" fill="#F0F0F0"/>
<path d="M382.72 84.4702L382.46 175.6L387.53 178.53L387.79 87.3902L382.72 84.4702Z" fill="#E0E0E0"/>
<path d="M387.79 87.3901L387.53 178.53L391.94 175.97L392.19 89.9301L387.79 87.3901Z" fill="#F0F0F0"/>
<path opacity="0.2" d="M387.79 91.4902L387.8 87.3902L382.73 84.4702L382.71 88.5602L387.79 91.4902Z" fill="black"/>
<path opacity="0.2" d="M387.78 91.4901L391.34 89.4401L387.79 87.3901L387.78 91.4901Z" fill="black"/>
<path d="M108.35 327C105.52 328.64 105.5 331.29 108.35 332.92L118.48 338.81C120.065 339.616 121.817 340.036 123.595 340.036C125.373 340.036 127.125 339.616 128.71 338.81L250.84 267.86C253.67 266.23 253.7 263.57 250.84 261.93L240.7 256.04C239.115 255.234 237.363 254.813 235.585 254.813C233.807 254.813 232.055 255.234 230.47 256.04L108.35 327Z" fill="#E6E6E6"/>
<path d="M125.49 400L215.76 452.45C217.019 453.182 218.449 453.567 219.905 453.567C221.361 453.567 222.791 453.182 224.05 452.45L388 357.83C388.313 357.648 388.573 357.387 388.754 357.073C388.935 356.759 389.03 356.402 389.03 356.04C389.03 355.678 388.935 355.321 388.754 355.007C388.573 354.693 388.313 354.432 388 354.25L299 302.53C297.746 301.81 296.326 301.431 294.88 301.431C293.434 301.431 292.014 301.81 290.76 302.53L125.51 396.43C125.198 396.611 124.938 396.87 124.757 397.182C124.576 397.495 124.48 397.849 124.478 398.209C124.476 398.57 124.568 398.925 124.746 399.239C124.923 399.553 125.18 399.816 125.49 400Z" fill="#E6E6E6"/>
<path d="M86.8499 87.4299L86.9199 109.44L89.5799 110.99L89.5099 85.8999L86.8499 87.4299Z" fill="#F0F0F0"/>
<path d="M58.1199 126.07L58.1299 129.15L89.5799 110.99L86.9199 109.44L58.1199 126.07Z" fill="#F5F5F5"/>
<path d="M92.7198 80.3398L54.8198 102.22L54.9098 134.72L92.8198 112.84L92.7198 80.3398ZM58.1198 129.15V126.07L58.0498 104.07L86.8498 87.4398L89.5098 85.9099L89.5798 111L58.1198 129.15Z" fill="#E0E0E0"/>
<path d="M92.7199 80.34L90.0599 78.79L52.1499 100.67L54.8199 102.22L92.7199 80.34Z" fill="#F5F5F5"/>
<path d="M52.1499 100.67L52.2399 133.17L54.9099 134.72L54.8199 102.22L52.1499 100.67Z" fill="#F0F0F0"/>
<path d="M86.8499 133.3L86.9199 155.31L89.5799 156.86L89.5099 131.76L86.8499 133.3Z" fill="#F0F0F0"/>
<path d="M58.1199 171.94L58.1299 175.02L89.5799 156.86L86.9199 155.31L58.1199 171.94Z" fill="#F5F5F5"/>
<path d="M92.7198 126.2L54.8198 148.09L54.9098 180.59L92.8198 158.7L92.7198 126.2ZM58.1198 175V171.91L58.0498 149.91L86.8498 133.29L89.5098 131.75L89.5798 156.85L58.1198 175Z" fill="#E0E0E0"/>
<path d="M92.7199 126.2L90.0599 124.65L52.1499 146.54L54.8199 148.09L92.7199 126.2Z" fill="#F5F5F5"/>
<path d="M52.1499 146.54L52.2399 179.03L54.9099 180.59L54.8199 148.09L52.1499 146.54Z" fill="#F0F0F0"/>
<path d="M77.6999 95.79L85.5599 101.97L85.5699 108.01L59.4499 123.09L59.4299 117.05L64.4099 107.17L68.8799 110.64L67.2999 115.55L69.5999 111.19L77.6999 95.79Z" fill="#E0E0E0"/>
<path d="M69.1199 98.8302C70.3499 98.1202 71.3499 98.6902 71.3599 100.11C71.3257 100.888 71.1064 101.647 70.7204 102.324C70.3343 103 69.7925 103.575 69.1399 104C67.9099 104.71 66.9099 104.14 66.8999 102.73C66.9326 101.95 67.151 101.189 67.5372 100.511C67.9233 99.8327 68.466 99.2564 69.1199 98.8302V98.8302Z" fill="#E0E0E0"/>
<path d="M77.6999 141.66L85.5599 147.84L85.5699 153.88L59.4499 168.96L59.4299 162.92L64.4099 153.03L68.8799 156.5L67.2999 161.41L69.5999 157.05L77.6999 141.66Z" fill="#E0E0E0"/>
<path d="M69.1199 144.7C70.3499 143.99 71.3499 144.56 71.3599 145.97C71.3195 146.741 71.0973 147.492 70.7115 148.161C70.3257 148.83 69.7872 149.399 69.1399 149.82C67.9099 150.53 66.9099 149.96 66.8999 148.54C66.9419 147.77 67.1648 147.022 67.5505 146.354C67.9363 145.687 68.4739 145.12 69.1199 144.7V144.7Z" fill="#E0E0E0"/>
<path d="M397.11 279.36L397.1 282.77L340.96 250.35L340.97 246.94L397.11 279.36Z" fill="#92E3A9"/>
<path d="M377.11 273.24L377.1 276.65L340.94 255.77L340.95 252.36L377.11 273.24Z" fill="#92E3A9"/>
<path d="M360.71 225.93C361.298 226.27 361.817 226.718 362.24 227.25C364.02 229.38 364.46 232.25 364.7 234.74C365.04 238.19 365.39 241.64 365.7 245.09C365.827 246.902 366.163 248.694 366.7 250.43C367.277 252.312 368.368 253.995 369.85 255.29C370.02 255.424 370.201 255.544 370.39 255.65C370.906 255.995 371.514 256.179 372.135 256.179C372.756 256.179 373.364 255.995 373.88 255.65C374.871 254.752 375.656 253.65 376.18 252.42C376.831 250.976 377.901 249.76 379.25 248.93C379.939 248.631 380.692 248.508 381.44 248.57C382.189 248.633 382.91 248.88 383.54 249.29C383.805 249.446 384.059 249.62 384.3 249.81C387.21 252.04 388.93 256.42 390.3 260.22C391.67 264.02 393.42 268.43 396.35 270.56C396.543 270.703 396.743 270.837 396.95 270.96C397.836 271.495 398.869 271.738 399.901 271.654C400.933 271.569 401.912 271.162 402.7 270.49C404.31 269.26 405.61 267.49 407.62 266.95C408.686 266.742 409.792 266.897 410.76 267.39V283.99L341 243.74L341.08 216.15C342.39 218.412 343.316 220.875 343.82 223.44C344.42 226.76 344.28 230.37 346.52 233.3C347.064 234.013 347.744 234.611 348.52 235.06C349.361 235.592 350.37 235.792 351.35 235.62C352.73 235.26 353.6 233.97 354.17 232.45C354.94 230.45 355.29 227.95 356.51 226.45C357.03 225.872 357.741 225.502 358.513 225.406C359.284 225.311 360.065 225.497 360.71 225.93Z" fill="#92E3A9"/>
<path opacity="0.4" d="M360.71 225.93C361.298 226.27 361.817 226.718 362.24 227.25C364.02 229.38 364.46 232.25 364.7 234.74C365.04 238.19 365.39 241.64 365.7 245.09C365.827 246.902 366.163 248.694 366.7 250.43C367.277 252.312 368.368 253.995 369.85 255.29C370.02 255.424 370.201 255.544 370.39 255.65C370.906 255.995 371.514 256.179 372.135 256.179C372.756 256.179 373.364 255.995 373.88 255.65C374.871 254.752 375.656 253.65 376.18 252.42C376.831 250.976 377.901 249.76 379.25 248.93C379.939 248.631 380.692 248.508 381.44 248.57C382.189 248.633 382.91 248.88 383.54 249.29C383.805 249.446 384.059 249.62 384.3 249.81C387.21 252.04 388.93 256.42 390.3 260.22C391.67 264.02 393.42 268.43 396.35 270.56C396.543 270.703 396.743 270.837 396.95 270.96C397.836 271.495 398.869 271.738 399.901 271.654C400.933 271.569 401.912 271.162 402.7 270.49C404.31 269.26 405.61 267.49 407.62 266.95C408.686 266.742 409.792 266.897 410.76 267.39V283.99L341 243.74L341.08 216.15C342.39 218.412 343.316 220.875 343.82 223.44C344.42 226.76 344.28 230.37 346.52 233.3C347.064 234.013 347.744 234.611 348.52 235.06C349.361 235.592 350.37 235.792 351.35 235.62C352.73 235.26 353.6 233.97 354.17 232.45C354.94 230.45 355.29 227.95 356.51 226.45C357.03 225.872 357.741 225.502 358.513 225.406C359.284 225.311 360.065 225.497 360.71 225.93Z" fill="white"/>
<path d="M421.8 138.77L343.15 93.3598C342.852 93.155 342.51 93.0245 342.152 92.9792C341.793 92.934 341.429 92.9753 341.09 93.0998V93.0998H341.03L340.91 93.1698L337.73 94.9998H337.66H337.61C337.324 95.2285 337.098 95.5243 336.953 95.8609C336.809 96.1975 336.749 96.5647 336.78 96.9298L336.72 118.13C336.775 119.2 337.083 120.242 337.618 121.17C338.153 122.098 338.901 122.886 339.8 123.47L418.45 169C418.766 169.23 419.137 169.37 419.526 169.407C419.915 169.444 420.307 169.376 420.66 169.21V169.21L423.9 167.34C424.204 167.109 424.444 166.804 424.596 166.453C424.748 166.103 424.808 165.72 424.77 165.34L424.83 144.14C424.781 143.07 424.482 142.026 423.955 141.093C423.429 140.161 422.691 139.365 421.8 138.77V138.77Z" fill="#92E3A9"/>
<path opacity="0.3" d="M421.8 138.77L343.15 93.3598C342.852 93.155 342.51 93.0245 342.152 92.9792C341.793 92.934 341.429 92.9753 341.09 93.0998V93.0998H341.03L340.91 93.1698L337.73 94.9998C338.078 94.8498 338.459 94.7921 338.835 94.8324C339.212 94.8727 339.572 95.0096 339.88 95.2298L418.53 140.64C419.808 141.47 420.77 142.707 421.26 144.15L424.54 142.28C424.049 140.834 423.083 139.597 421.8 138.77V138.77Z" fill="white"/>
<path opacity="0.2" d="M421.26 144.17C421.484 144.754 421.602 145.374 421.61 146L421.55 167.21C421.592 167.592 421.532 167.979 421.376 168.33C421.219 168.682 420.972 168.985 420.66 169.21V169.21L423.9 167.34C424.204 167.109 424.444 166.804 424.596 166.453C424.748 166.103 424.808 165.72 424.77 165.34L424.83 144.14C424.818 143.518 424.7 142.902 424.48 142.32L421.26 144.17Z" fill="black"/>
<path d="M358.76 114.41C360.47 117.41 360.61 120.56 359.19 121.92L353.57 118.68L353.18 115.28C353.166 115.182 353.132 115.088 353.08 115.004C353.029 114.92 352.96 114.847 352.88 114.79C352.72 114.7 352.59 114.79 352.57 114.92L351.75 119.92L350.69 111.92C350.673 111.823 350.637 111.731 350.584 111.648C350.531 111.566 350.461 111.495 350.38 111.44C350.354 111.417 350.323 111.402 350.289 111.396C350.255 111.391 350.22 111.395 350.188 111.409C350.157 111.422 350.13 111.445 350.111 111.473C350.091 111.502 350.081 111.535 350.08 111.57L349.31 117.06L348.54 112.94C348.501 112.757 348.394 112.596 348.24 112.49C348.09 112.41 347.97 112.49 347.94 112.58L347.24 115.01L342.65 112.36C341.24 109.36 341.4 106.36 343.13 105.36C343.682 105.111 344.29 105.012 344.892 105.074C345.494 105.135 346.07 105.355 346.56 105.71C347.986 106.599 349.16 107.838 349.97 109.31L350.97 110.99L351.97 110.43C352.521 110.184 353.127 110.087 353.727 110.148C354.327 110.21 354.9 110.427 355.39 110.78C356.804 111.683 357.964 112.932 358.76 114.41V114.41ZM352.85 117.41L352.05 122.33C352.05 122.48 351.9 122.53 351.75 122.44C351.667 122.389 351.596 122.321 351.542 122.239C351.489 122.158 351.454 122.066 351.44 121.97L350.44 114.09L349.73 119.17C349.73 119.33 349.58 119.38 349.42 119.31C349.341 119.258 349.273 119.19 349.221 119.111C349.17 119.032 349.135 118.943 349.12 118.85L348.25 114.22L347.82 115.75C347.82 115.88 347.66 115.92 347.52 115.84L343.24 113.37L344.12 114.9L350.94 126.71L357.8 122.79L358.68 122.29L353.35 119.21C353.267 119.156 353.196 119.086 353.143 119.003C353.089 118.92 353.054 118.827 353.04 118.73L352.85 117.41Z" fill="#92E3A9"/>
<path d="M350.38 111.45C350.461 111.505 350.531 111.576 350.584 111.658C350.637 111.741 350.673 111.833 350.69 111.93L351.75 119.93L352.57 114.93C352.57 114.77 352.72 114.71 352.88 114.8C352.96 114.857 353.029 114.93 353.08 115.014C353.132 115.098 353.166 115.192 353.18 115.29L353.57 118.69L359.19 121.93L362.38 123.77C362.47 123.829 362.545 123.909 362.599 124.003C362.653 124.096 362.684 124.202 362.69 124.31C362.69 124.5 362.55 124.58 362.37 124.48L358.64 122.33L353.31 119.25C353.227 119.196 353.156 119.126 353.103 119.043C353.049 118.96 353.014 118.867 353 118.77L352.85 117.45L352.05 122.37C352.05 122.52 351.9 122.57 351.75 122.48C351.667 122.429 351.596 122.361 351.542 122.279C351.489 122.198 351.454 122.106 351.44 122.01L350.44 114.13L349.73 119.21C349.729 119.243 349.72 119.276 349.702 119.304C349.684 119.332 349.658 119.355 349.628 119.369C349.598 119.384 349.565 119.39 349.531 119.386C349.498 119.383 349.466 119.37 349.44 119.35C349.355 119.302 349.282 119.236 349.227 119.157C349.171 119.077 349.135 118.986 349.12 118.89L348.25 114.26L347.82 115.79C347.82 115.92 347.66 115.96 347.52 115.88L343.24 113.41L339.51 111.25C339.421 111.194 339.346 111.118 339.292 111.027C339.238 110.937 339.206 110.835 339.2 110.73C339.2 110.53 339.34 110.45 339.51 110.54L342.69 112.38L347.28 115.03L347.98 112.6C347.98 112.47 348.13 112.43 348.26 112.5C348.341 112.551 348.411 112.619 348.466 112.698C348.521 112.777 348.56 112.866 348.58 112.96L349.35 117.08L350.12 111.59C350.123 111.561 350.134 111.533 350.15 111.509C350.166 111.485 350.188 111.466 350.213 111.452C350.239 111.438 350.267 111.431 350.296 111.43C350.325 111.43 350.354 111.437 350.38 111.45V111.45Z" fill="white"/>
<path opacity="0.4" d="M358.76 114.41C360.47 117.41 360.61 120.56 359.19 121.92L353.57 118.68L353.18 115.28C353.166 115.182 353.132 115.088 353.08 115.004C353.029 114.92 352.96 114.847 352.88 114.79C352.72 114.7 352.59 114.79 352.57 114.92L351.75 119.92L350.69 111.92C350.673 111.823 350.637 111.731 350.584 111.648C350.531 111.566 350.461 111.495 350.38 111.44C350.354 111.417 350.323 111.402 350.289 111.396C350.255 111.391 350.22 111.395 350.188 111.409C350.157 111.422 350.13 111.445 350.111 111.473C350.091 111.502 350.081 111.535 350.08 111.57L349.31 117.06L348.54 112.94C348.501 112.757 348.394 112.596 348.24 112.49C348.09 112.41 347.97 112.49 347.94 112.58L347.24 115.01L342.65 112.36C341.24 109.36 341.4 106.36 343.13 105.36C343.682 105.111 344.29 105.012 344.892 105.074C345.494 105.135 346.07 105.355 346.56 105.71C347.986 106.599 349.16 107.838 349.97 109.31L350.97 110.99L351.97 110.43C352.521 110.184 353.127 110.087 353.727 110.148C354.327 110.21 354.9 110.427 355.39 110.78C356.804 111.683 357.964 112.932 358.76 114.41V114.41ZM352.85 117.41L352.05 122.33C352.05 122.48 351.9 122.53 351.75 122.44C351.667 122.389 351.596 122.321 351.542 122.239C351.489 122.158 351.454 122.066 351.44 121.97L350.44 114.09L349.73 119.17C349.73 119.33 349.58 119.38 349.42 119.31C349.341 119.258 349.273 119.19 349.221 119.111C349.17 119.032 349.135 118.943 349.12 118.85L348.25 114.22L347.82 115.75C347.82 115.88 347.66 115.92 347.52 115.84L343.24 113.37L344.12 114.9L350.94 126.71L357.8 122.79L358.68 122.29L353.35 119.21C353.267 119.156 353.196 119.086 353.143 119.003C353.089 118.92 353.054 118.827 353.04 118.73L352.85 117.41Z" fill="white"/>
<path d="M405.6 153.57L405.59 157.07L364.82 133.53L364.83 130.03L405.6 153.57Z" fill="white"/>
<path d="M413.45 151.23L413.44 154.74L364.84 126.68L364.85 123.17L413.45 151.23Z" fill="white"/>
<path d="M381.57 125.95L381.56 129.45L364.86 119.81L364.87 116.31L381.57 125.95Z" fill="white"/>
<path d="M421.8 180.11L343.15 134.7C342.852 134.495 342.51 134.364 342.152 134.319C341.793 134.274 341.429 134.315 341.09 134.44V134.44H341.03L340.91 134.51L337.73 136.34H337.66H337.61C337.324 136.568 337.098 136.864 336.953 137.201C336.809 137.537 336.749 137.905 336.78 138.27L336.72 159.47C336.775 160.54 337.083 161.582 337.618 162.51C338.153 163.438 338.901 164.226 339.8 164.81L418.45 210.22C418.766 210.449 419.137 210.59 419.526 210.627C419.915 210.664 420.307 210.596 420.66 210.43V210.43L423.9 208.56C424.206 208.331 424.448 208.026 424.6 207.675C424.753 207.324 424.811 206.94 424.77 206.56L424.83 185.35C424.762 184.302 424.454 183.284 423.928 182.375C423.403 181.466 422.674 180.691 421.8 180.11V180.11Z" fill="#92E3A9"/>
<path opacity="0.3" d="M421.8 180.11L343.15 134.7C342.852 134.495 342.51 134.364 342.152 134.319C341.793 134.274 341.429 134.315 341.09 134.44V134.44H341.03L340.91 134.51L337.73 136.34C338.078 136.19 338.459 136.132 338.835 136.172C339.212 136.213 339.572 136.349 339.88 136.57L418.53 182C419.808 182.83 420.77 184.066 421.26 185.51L424.54 183.64C424.052 182.187 423.086 180.942 421.8 180.11V180.11Z" fill="white"/>
<path opacity="0.2" d="M421.26 185.51C421.485 186.094 421.603 186.714 421.61 187.34L421.55 208.55C421.592 208.932 421.532 209.319 421.376 209.67C421.219 210.022 420.972 210.325 420.66 210.55L423.9 208.68C424.206 208.451 424.448 208.146 424.6 207.795C424.753 207.444 424.811 207.06 424.77 206.68L424.83 185.47C424.817 184.851 424.699 184.239 424.48 183.66L421.26 185.51Z" fill="black"/>
<path d="M409.7 197.19L409.69 200.69L387.43 187.84L387.44 184.33L409.7 197.19Z" fill="white"/>
<path d="M412.51 191.93L412.5 195.44L387.44 180.97L387.45 177.47L412.51 191.93Z" fill="white"/>
<path d="M398.61 177.04L398.6 180.54L387.46 174.11L387.47 170.61L398.61 177.04Z" fill="white"/>
<path d="M353.12 156.79C353.481 157.023 353.782 157.339 353.997 157.711C354.213 158.083 354.337 158.5 354.36 158.93V161.3C354.36 162.08 353.79 162.4 353.11 162.01L351.05 160.82C350.692 160.584 350.395 160.267 350.181 159.895C349.968 159.524 349.844 159.108 349.82 158.68V156.31C349.82 155.52 350.38 155.21 351.06 155.6L353.12 156.79Z" fill="white"/>
<path opacity="0.4" d="M352.12 147.73L352.42 147.92V150.77C352.32 150.697 352.217 150.631 352.11 150.57C348.16 148.29 344.94 150.12 344.92 154.67C344.973 156.697 345.472 158.687 346.38 160.5L344.26 160.77C343.128 158.417 342.511 155.85 342.45 153.24C342.46 147.13 346.8 144.66 352.12 147.73Z" fill="white"/>
<path d="M352.42 147.92C357.6 151.1 361.75 158.38 361.73 164.37C361.71 170.36 357.37 172.95 352.06 169.88C348.613 167.685 345.898 164.514 344.26 160.77L346.38 160.5C347.604 163.182 349.576 165.453 352.06 167.04C356.06 169.32 359.24 167.48 359.25 162.94C359.117 160.524 358.432 158.171 357.248 156.062C356.064 153.952 354.413 152.142 352.42 150.77V147.92Z" fill="white"/>
<path opacity="0.4" d="M373.56 160.11L373.87 160.3V163.15C373.77 163.077 373.667 163.01 373.56 162.95C369.61 160.67 366.39 162.5 366.38 167.05C366.43 169.076 366.925 171.066 367.83 172.88L365.72 173.15C364.581 170.799 363.96 168.231 363.9 165.62C363.91 159.51 368.25 157 373.56 160.11Z" fill="white"/>
<path d="M374.57 169.17C374.928 169.405 375.226 169.722 375.44 170.093C375.653 170.465 375.777 170.882 375.8 171.31V173.67C375.8 174.46 375.25 174.78 374.56 174.39L372.5 173.2C372.141 172.965 371.843 172.648 371.629 172.277C371.416 171.905 371.293 171.488 371.27 171.06V168.69C371.27 167.9 371.83 167.59 372.52 167.98L374.57 169.17Z" fill="white"/>
<path d="M373.87 160.3C379.04 163.48 383.19 170.76 383.17 176.75C383.15 182.74 378.82 185.33 373.5 182.26C370.054 180.067 367.342 176.894 365.71 173.15L367.82 172.88C369.047 175.562 371.023 177.833 373.51 179.42C377.46 181.7 380.68 179.86 380.7 175.32C380.567 172.903 379.881 170.549 378.695 168.439C377.509 166.33 375.855 164.52 373.86 163.15L373.87 160.3Z" fill="white"/>
<path d="M346.44 181.29C346.945 181.616 347.365 182.059 347.664 182.581C347.963 183.103 348.133 183.689 348.16 184.29V187.58C348.16 188.67 347.39 189.11 346.43 188.58L343.57 186.93C343.069 186.6 342.653 186.156 342.355 185.635C342.058 185.113 341.889 184.529 341.86 183.93V180.64C341.86 179.55 342.64 179.11 343.58 179.64L346.44 181.29Z" fill="#92E3A9"/>
<path d="M346.42 190.55C346.924 190.877 347.342 191.32 347.64 191.842C347.937 192.364 348.105 192.949 348.13 193.55V196.84C348.13 197.93 347.36 198.37 346.41 197.84L343.55 196.19C343.046 195.863 342.628 195.42 342.33 194.898C342.033 194.376 341.864 193.79 341.84 193.19V189.89C341.84 188.8 342.61 188.36 343.56 188.89L346.42 190.55Z" fill="#92E3A9"/>
<path d="M346.39 199.82C346.895 200.147 347.314 200.59 347.613 201.112C347.912 201.633 348.083 202.219 348.11 202.82V206.11C348.11 207.2 347.33 207.64 346.38 207.11L343.52 205.46C343.017 205.132 342.599 204.689 342.301 204.167C342.004 203.645 341.835 203.06 341.81 202.46V199.17C341.81 198.09 342.58 197.65 343.53 198.17L346.39 199.82Z" fill="#92E3A9"/>
<path d="M394.52 229.59L394.51 232.86L351.05 207.76L351.06 204.49L394.52 229.59Z" fill="#92E3A9"/>
<path d="M411.85 230.31L411.84 233.59L351.07 198.51L351.08 195.23L411.85 230.31Z" fill="#92E3A9"/>
<path d="M403.83 216.41L403.82 219.68L351.1 189.25L351.11 185.97L403.83 216.41Z" fill="#92E3A9"/>
<path d="M244.3 71.51C244.3 63.08 241.3 57.16 236.49 54.37L225.7 48L225.55 47.92C225.119 47.6701 224.671 47.4496 224.21 47.26C224.125 47.2255 224.038 47.1955 223.95 47.17L223.49 47.01C223.26 46.93 223.04 46.83 222.8 46.76C222.56 46.69 222.28 46.64 222.03 46.58L221.55 46.48C221.468 46.4541 221.385 46.4341 221.3 46.42C220.764 46.3259 220.223 46.2625 219.68 46.23H219.19C218.77 46.23 218.35 46.23 217.91 46.23L217.47 46.28L216.67 46.36C216.42 46.36 216.17 46.36 215.92 46.43L215.25 46.58C214.89 46.64 214.53 46.72 214.16 46.81C213.96 46.81 213.77 46.88 213.57 46.94C213.12 47.06 212.67 47.2 212.21 47.35H212.07C211.52 47.53 210.98 47.74 210.42 47.97L209.76 48.27L209.13 48.56C208.32 48.94 207.51 49.35 206.68 49.83L127.8 95.38C126.94 95.88 126.09 96.42 125.25 97L124.45 97.58C123.88 97.99 123.32 98.41 122.76 98.85L121.85 99.61C121.34 100.04 120.85 100.48 120.34 100.93L119.44 101.77L118.87 102.3C118.68 102.49 118.49 102.71 118.3 102.91C117.7 103.52 117.1 104.15 116.52 104.8C116.34 105.01 116.14 105.2 115.95 105.41L115.5 105.96C115.15 106.37 114.81 106.8 114.5 107.22C114.19 107.64 114.04 107.77 113.82 108.05C113.6 108.33 113.47 108.53 113.3 108.77C113.13 109.01 112.8 109.43 112.56 109.77L112.04 110.46C111.76 110.86 111.5 111.27 111.23 111.68L110.71 112.45L110.5 112.77C110.02 113.52 109.56 114.27 109.11 115.04L109.03 115.19L108.77 115.65C108.46 116.19 108.15 116.74 107.86 117.29C107.72 117.54 107.6 117.8 107.47 118.06L107.06 118.86C106.95 119.1 106.82 119.33 106.71 119.56C106.4 120.19 106.12 120.82 105.84 121.46L105.69 121.79L105.64 121.88C105.3 122.68 104.97 123.48 104.64 124.28C104.59 124.43 104.54 124.58 104.48 124.73C104.42 124.88 104.28 125.31 104.17 125.6C104.06 125.89 103.87 126.4 103.74 126.81C103.61 127.22 103.55 127.43 103.45 127.75C103.35 128.07 103.22 128.48 103.12 128.84C103.02 129.2 102.97 129.3 102.91 129.53C102.79 129.94 102.71 130.35 102.61 130.76C102.51 131.17 102.37 131.67 102.27 132.12C102.27 132.28 102.19 132.44 102.15 132.6C102.08 132.93 102.05 133.25 101.99 133.6C101.85 134.31 101.72 135.02 101.62 135.73C101.62 135.93 101.54 136.13 101.52 136.32C101.46 136.77 101.43 137.21 101.39 137.66C101.35 138.11 101.32 138.29 101.3 138.6C101.22 139.6 101.17 140.6 101.18 141.55L101.52 293.76C101.52 302.19 104.52 308.12 109.33 310.91L120.13 317.3C119.827 317.112 119.533 316.908 119.25 316.69C124.17 320.12 131.25 320 139.14 315.44L218 269.88C232.76 261.36 244.7 240.69 244.65 223.71L244.3 71.51Z" fill="#92E3A9"/>
<path opacity="0.6" d="M244.3 71.51C244.3 63.08 241.3 57.16 236.49 54.37L225.7 48L225.55 47.92C225.119 47.6701 224.671 47.4496 224.21 47.26C224.125 47.2255 224.038 47.1955 223.95 47.17L223.49 47.01C223.26 46.93 223.04 46.83 222.8 46.76C222.56 46.69 222.28 46.64 222.03 46.58L221.55 46.48C221.468 46.4541 221.385 46.4341 221.3 46.42C220.764 46.3259 220.223 46.2625 219.68 46.23H219.19C218.77 46.23 218.35 46.23 217.91 46.23L217.47 46.28L216.67 46.36C216.42 46.36 216.17 46.36 215.92 46.43L215.25 46.58C214.89 46.64 214.53 46.72 214.16 46.81C213.96 46.81 213.77 46.88 213.57 46.94C213.12 47.06 212.67 47.2 212.21 47.35H212.07C211.52 47.53 210.98 47.74 210.42 47.97L209.76 48.27L209.13 48.56C208.32 48.94 207.51 49.35 206.68 49.83L127.8 95.38C126.94 95.88 126.09 96.42 125.25 97L124.45 97.58C123.88 97.99 123.32 98.41 122.76 98.85L121.85 99.61C121.34 100.04 120.85 100.48 120.34 100.93L119.44 101.77L118.87 102.3C118.68 102.49 118.49 102.71 118.3 102.91C117.7 103.52 117.1 104.15 116.52 104.8C116.34 105.01 116.14 105.2 115.95 105.41L115.5 105.96C115.15 106.37 114.81 106.8 114.5 107.22C114.19 107.64 114.04 107.77 113.82 108.05C113.6 108.33 113.47 108.53 113.3 108.77C113.13 109.01 112.8 109.43 112.56 109.77L112.04 110.46C111.76 110.86 111.5 111.27 111.23 111.68L110.71 112.45L110.5 112.77C110.02 113.52 109.56 114.27 109.11 115.04L109.03 115.19L108.77 115.65C108.46 116.19 108.15 116.74 107.86 117.29C107.72 117.54 107.6 117.8 107.47 118.06L107.06 118.86C106.95 119.1 106.82 119.33 106.71 119.56C106.4 120.19 106.12 120.82 105.84 121.46L105.69 121.79L105.64 121.88C105.3 122.68 104.97 123.48 104.64 124.28C104.59 124.43 104.54 124.58 104.48 124.73C104.42 124.88 104.28 125.31 104.17 125.6C104.06 125.89 103.87 126.4 103.74 126.81C103.61 127.22 103.55 127.43 103.45 127.75C103.35 128.07 103.22 128.48 103.12 128.84C103.02 129.2 102.97 129.3 102.91 129.53C102.79 129.94 102.71 130.35 102.61 130.76C102.51 131.17 102.37 131.67 102.27 132.12C102.27 132.28 102.19 132.44 102.15 132.6C102.08 132.93 102.05 133.25 101.99 133.6C101.85 134.31 101.72 135.02 101.62 135.73C101.62 135.93 101.54 136.13 101.52 136.32C101.46 136.77 101.43 137.21 101.39 137.66C101.35 138.11 101.32 138.29 101.3 138.6C101.22 139.6 101.17 140.6 101.18 141.55L101.52 293.76C101.52 302.19 104.52 308.12 109.33 310.91L120.13 317.3C119.827 317.112 119.533 316.908 119.25 316.69C124.17 320.12 131.25 320 139.14 315.44L218 269.88C232.76 261.36 244.7 240.69 244.65 223.71L244.3 71.51Z" fill="white"/>
<path opacity="0.1" d="M112.3 300.12L112 147.92L101.2 141.53L101.54 293.74C101.54 302.17 104.54 308.1 109.35 310.89L120.15 317.28C115.31 314.49 112.33 308.56 112.3 300.12Z" fill="black"/>
<path opacity="0.3" d="M220.56 54.67C221.314 54.3238 222.085 54.0167 222.87 53.75H223.01C223.67 53.53 224.32 53.36 225.01 53.21L226.1 52.97C226.58 52.88 227.05 52.81 227.52 52.76L228.32 52.67C228.893 52.6403 229.467 52.6403 230.04 52.67H230.43C231.101 52.7101 231.769 52.7936 232.43 52.92L232.91 53.03C233.404 53.1461 233.892 53.2897 234.37 53.46L234.83 53.61C235.434 53.8452 236.019 54.126 236.58 54.45L225.7 48L225.55 47.92C225.119 47.6701 224.671 47.4496 224.21 47.26C224.125 47.2255 224.038 47.1955 223.95 47.17L223.49 47.01C223.26 46.93 223.04 46.83 222.8 46.76C222.56 46.69 222.28 46.64 222.03 46.58L221.55 46.48C221.468 46.4541 221.385 46.4341 221.3 46.42C220.764 46.3259 220.223 46.2625 219.68 46.23H219.19C218.77 46.23 218.35 46.23 217.91 46.23L217.47 46.28L216.67 46.36C216.42 46.36 216.17 46.36 215.92 46.43L215.25 46.58C214.89 46.64 214.53 46.72 214.16 46.81C213.96 46.81 213.77 46.88 213.57 46.94C213.12 47.06 212.67 47.2 212.21 47.35H212.07C211.52 47.53 210.98 47.74 210.42 47.97L209.76 48.27L209.13 48.56C208.32 48.94 207.51 49.35 206.68 49.83L127.8 95.38C126.94 95.88 126.09 96.42 125.25 97L124.45 97.59C123.88 97.99 123.32 98.41 122.76 98.85L121.85 99.61C121.34 100.04 120.85 100.48 120.34 100.93L119.44 101.77L118.87 102.3C118.68 102.49 118.49 102.71 118.3 102.91C117.7 103.52 117.1 104.15 116.52 104.8C116.34 105.01 116.14 105.2 115.95 105.41L115.5 105.96C115.15 106.37 114.81 106.8 114.5 107.22C114.19 107.64 114.04 107.77 113.82 108.05C113.6 108.33 113.47 108.53 113.3 108.77C113.13 109.01 112.8 109.43 112.56 109.77L112.04 110.46C111.76 110.86 111.5 111.27 111.23 111.68L110.71 112.45L110.5 112.77C110.02 113.52 109.56 114.27 109.11 115.04L109.03 115.19L108.77 115.65C108.46 116.2 108.15 116.74 107.86 117.29C107.72 117.54 107.6 117.8 107.47 118.06L107.06 118.86C106.95 119.1 106.82 119.33 106.71 119.56C106.4 120.19 106.12 120.82 105.84 121.46L105.69 121.79L105.64 121.88C105.3 122.68 104.97 123.48 104.64 124.28C104.59 124.43 104.54 124.58 104.48 124.73C104.42 124.88 104.28 125.31 104.17 125.6C104.06 125.89 103.87 126.4 103.74 126.81C103.61 127.22 103.55 127.43 103.45 127.75C103.35 128.07 103.22 128.48 103.12 128.84C103.02 129.2 102.97 129.3 102.91 129.53C102.79 129.94 102.71 130.35 102.61 130.76C102.51 131.17 102.37 131.67 102.27 132.12C102.27 132.28 102.19 132.44 102.15 132.6C102.08 132.93 102.05 133.25 101.99 133.6C101.85 134.31 101.72 135.02 101.62 135.73C101.62 135.93 101.54 136.13 101.52 136.32C101.46 136.77 101.43 137.21 101.39 137.66C101.35 138.11 101.32 138.29 101.3 138.6C101.22 139.6 101.17 140.6 101.18 141.55L111.98 147.94C111.98 146.94 111.98 145.94 112.09 144.99C112.09 144.67 112.16 144.36 112.19 144.04C112.25 143.4 112.33 142.76 112.42 142.12C112.51 141.48 112.65 140.7 112.79 139.99C112.88 139.5 112.96 138.99 113.07 138.53C113.18 138.07 113.29 137.62 113.41 137.16C113.57 136.53 113.73 135.89 113.91 135.25C114.02 134.89 114.14 134.52 114.25 134.15C114.48 133.44 114.72 132.72 114.97 132.01C115.07 131.72 115.17 131.42 115.28 131.13C115.65 130.13 116.04 129.13 116.47 128.2L116.62 127.86C117.01 126.99 117.41 126.13 117.84 125.27C117.97 125 118.11 124.73 118.25 124.47C118.66 123.66 119.1 122.86 119.55 122.06L119.81 121.6C120.35 120.67 120.91 119.76 121.49 118.86L122.01 118.08C122.44 117.44 122.88 116.81 123.33 116.18L124.08 115.18C124.47 114.66 124.88 114.18 125.28 113.64L126.28 112.37L127.28 111.22C127.86 110.57 128.46 109.94 129.06 109.33C129.44 108.94 129.81 108.56 130.2 108.19C130.59 107.82 130.8 107.62 131.1 107.35C131.6 106.89 132.1 106.45 132.61 106.03L133.52 105.27C134.08 104.83 134.64 104.41 135.21 104C135.48 103.81 135.74 103.6 136.01 103.42C136.85 102.84 137.7 102.3 138.56 101.8L217.44 56.26C218.27 55.78 219.08 55.37 219.89 54.99L220.56 54.67Z" fill="white"/>
<path d="M125.75 300.08C125.75 303.39 126.48 305.08 126.85 305.6C126.963 305.61 127.077 305.61 127.19 305.6C127.8 305.6 129.52 305.42 132.4 303.76L211.28 258.22C221.93 252.07 231.28 235.96 231.2 223.73L231.12 184.63L125.62 246.2L125.75 300.08Z" fill="#92E3A9"/>
<path d="M230.86 71.5498C230.86 68.1998 230.1 66.5498 229.74 66.0298H229.29H228.98L228.54 66.0998L228.12 66.1898C227.86 66.2498 227.49 66.3498 227.22 66.4398H227.09C226.82 66.5398 226.46 66.6798 226.09 66.8698L225.72 67.0398C225.12 67.3198 224.65 67.5598 224.24 67.7998L145.36 113.34C144.87 113.63 144.36 113.97 143.75 114.34L143.15 114.77C142.76 115.06 142.37 115.35 141.99 115.65L141.45 116.09L141.34 116.19C140.96 116.5 140.6 116.82 140.24 117.14L139.57 117.77L138.85 118.5L138.72 118.63C138.26 119.09 137.81 119.57 137.38 120.06L137.23 120.22L136.59 120.94L135.78 121.94C135.46 122.34 135.14 122.74 134.84 123.15L134.25 123.93C133.9 124.43 133.55 124.93 133.25 125.44L132.83 126.06C132.35 126.81 131.9 127.54 131.51 128.21L131.29 128.6C130.93 129.23 130.59 129.87 130.29 130.51L129.97 131.14C129.63 131.82 129.31 132.5 128.97 133.14C128.91 133.27 128.86 133.4 128.79 133.54C128.51 134.2 128.22 134.92 127.91 135.73L127.67 136.41C127.47 136.96 127.29 137.51 127.12 138.06C127.03 138.34 126.94 138.62 126.86 138.89C126.72 139.37 126.6 139.84 126.48 140.34L126.41 140.61L126.23 141.33L126.11 141.95L126.03 142.39C125.93 142.9 125.84 143.39 125.77 143.91C125.7 144.43 125.65 144.79 125.61 145.23L125.54 145.87C125.48 146.62 125.46 147.24 125.46 147.79L125.67 241.64L231.17 180.07L230.86 71.5498Z" fill="#455A64"/>
<path d="M125.61 241.74L125.62 246.22L231.12 184.65L231.1 180.17L125.61 241.74Z" fill="white"/>
<path d="M214.05 124.46L204 130.27L193.22 136.5L204 130.27C207.62 122.27 207.12 114.27 202.5 111.67C199.92 110.2 196.5 110.67 193.18 112.67C189.292 115.087 186.09 118.461 183.88 122.47L181.13 127.23L180.66 121.15C180.66 120.64 180.24 120.44 179.73 120.7C179.489 120.858 179.282 121.064 179.124 121.304C178.966 121.545 178.859 121.816 178.81 122.1L177.95 127.71L176.37 126.81C173.79 125.34 170.37 125.81 167.04 127.76C163.153 130.175 159.954 133.55 157.75 137.56C153.15 145.56 152.7 154.02 156.36 157.83L146.29 163.64C146.016 163.813 145.788 164.05 145.626 164.331C145.464 164.611 145.373 164.927 145.36 165.25C145.36 165.84 145.78 166.08 146.29 165.79L158 159L161.61 161.06L180.3 171.7L182.43 168.01L182.52 169.16C182.52 169.68 182.96 169.88 183.45 169.61C183.703 169.443 183.917 169.224 184.077 168.967C184.238 168.709 184.341 168.421 184.38 168.12L184.75 163.99L198.86 139.55L202.45 133.34L214.11 126.61C214.372 126.429 214.589 126.189 214.744 125.909C214.898 125.63 214.986 125.319 215 125C215 124.4 214.57 124.16 214.05 124.46Z" fill="#92E3A9"/>
<path d="M179.72 120.65C180.23 120.39 180.61 120.59 180.65 121.1L181.12 127.18L183.51 157.54L186.4 125.91C186.43 125.617 186.524 125.334 186.677 125.082C186.829 124.829 187.035 124.613 187.28 124.45C187.76 124.17 188.15 124.3 188.23 124.77L191.65 143.25L192.29 137.94C192.331 137.648 192.435 137.369 192.594 137.12C192.752 136.872 192.962 136.66 193.21 136.5L204 130.27L214.06 124.46C214.58 124.16 215 124.4 215 125C214.981 125.322 214.887 125.636 214.726 125.915C214.564 126.195 214.34 126.433 214.07 126.61L202.41 133.34L194 138.18L192.67 149.18C192.63 149.469 192.529 149.745 192.374 149.992C192.219 150.239 192.013 150.449 191.77 150.61C191.3 150.88 190.92 150.74 190.83 150.28L187.56 132.53L184.7 164L184.33 168.13C184.291 168.431 184.188 168.719 184.027 168.976C183.867 169.233 183.653 169.453 183.4 169.62C182.91 169.89 182.51 169.69 182.47 169.17L182.38 168.02L179.38 129.7L174.38 162.19C174.33 162.471 174.223 162.739 174.067 162.978C173.91 163.217 173.707 163.422 173.47 163.58C172.95 163.85 172.58 163.65 172.54 163.14L170.54 140.14L168.27 152.27C168.214 152.542 168.105 152.801 167.949 153.031C167.792 153.261 167.592 153.458 167.36 153.61L158 159L146.33 165.74C145.82 166.03 145.4 165.74 145.4 165.2C145.413 164.876 145.504 164.561 145.666 164.28C145.828 164 146.056 163.763 146.33 163.59L156.4 157.78L166.66 151.85L170.06 133.72C170.113 133.445 170.221 133.184 170.377 132.952C170.534 132.72 170.735 132.522 170.97 132.37C171.49 132.11 171.85 132.32 171.9 132.81L173.84 154.81L177.99 127.64L178.85 122.03C178.896 121.754 178.996 121.489 179.145 121.252C179.295 121.015 179.49 120.81 179.72 120.65V120.65Z" fill="white"/>
<path d="M167.16 191.19L167.19 204.24L163.36 206.45L163.33 196.72L161.38 197.84V194.53L167.16 191.19Z" fill="white"/>
<path d="M172.79 187.64C175.48 186.09 177.38 186.64 177.39 189.08C177.39 190.36 177.11 191.68 175.45 194.36L173.84 197L177.66 194.8V198.21L168.56 203.47V200.77L172.66 194.03C173.172 193.361 173.48 192.559 173.55 191.72C173.55 191.1 173.17 190.92 172.44 191.34C171.649 191.848 171.058 192.615 170.77 193.51H167.88C168.774 191.036 170.513 188.957 172.79 187.64Z" fill="white"/>
<path d="M183.56 181.42C186.56 179.7 188.71 180.95 188.72 185.27C188.785 187.205 188.347 189.124 187.45 190.839C186.553 192.555 185.226 194.009 183.6 195.06C180.6 196.8 178.44 195.54 178.43 191.21C178.368 189.274 178.808 187.356 179.707 185.64C180.606 183.925 181.933 182.471 183.56 181.42V181.42ZM183.56 191.54C184.3 191.11 184.85 190.01 184.84 187.54C184.83 185.07 184.28 184.54 183.54 185C182.8 185.46 182.24 186.53 182.25 189C182.26 191.47 182.82 192 183.56 191.55" fill="white"/>
<path d="M193.67 184.77C194.6 184.23 195.4 184.58 195.4 185.89C195.393 186.513 195.232 187.124 194.932 187.67C194.632 188.216 194.202 188.68 193.68 189.02C193.24 189.27 192.92 189.33 192.68 189.18V189.51L191.28 190.32V184.75L192.75 183.9V185.65C192.968 185.276 193.287 184.971 193.67 184.77V184.77ZM193.32 187.91C193.508 187.784 193.66 187.613 193.761 187.411C193.863 187.21 193.911 186.985 193.9 186.76C193.9 186.23 193.64 186.11 193.32 186.3C193.134 186.421 192.983 186.59 192.883 186.788C192.783 186.987 192.737 187.208 192.75 187.43C192.75 187.96 193 188.09 193.32 187.91" fill="white"/>
<path d="M198.24 182.12C199.17 181.59 199.96 181.95 199.96 183.27C199.957 183.89 199.798 184.499 199.5 185.042C199.201 185.585 198.771 186.045 198.25 186.38C197.86 186.6 197.56 186.67 197.34 186.55V188.29L195.87 189.14V183.59L197.27 182.78V183.11C197.494 182.696 197.83 182.353 198.24 182.12V182.12ZM197.9 185.27C198.087 185.147 198.239 184.977 198.341 184.777C198.443 184.577 198.491 184.354 198.48 184.13C198.48 183.6 198.22 183.47 197.89 183.66C197.702 183.785 197.549 183.957 197.447 184.158C197.346 184.36 197.298 184.585 197.31 184.81C197.31 185.34 197.57 185.46 197.9 185.27" fill="white"/>
<path d="M205.15 178.13C205.96 177.67 206.57 177.88 206.57 179.13V181.47L205.1 182.32V180.32C205.1 179.8 204.94 179.7 204.71 179.83C204.551 179.94 204.424 180.091 204.343 180.267C204.262 180.443 204.23 180.637 204.25 180.83V182.83L202.78 183.68V181.68C202.78 181.16 202.62 181.06 202.37 181.2C202.211 181.31 202.084 181.461 202.003 181.637C201.922 181.813 201.89 182.007 201.91 182.2V184.2L200.43 185.05V180.95L201.83 180.15V180.52C202.073 180.107 202.417 179.763 202.83 179.52C203.3 179.25 203.7 179.22 203.95 179.52C204.208 178.951 204.625 178.468 205.15 178.13Z" fill="white"/>
<path d="M144.09 247C147.63 244.95 150.51 246.6 150.53 250.66C150.415 252.881 149.775 255.044 148.662 256.97C147.55 258.896 145.997 260.531 144.13 261.74C140.58 263.79 137.7 262.15 137.69 258.07C137.807 255.851 138.448 253.691 139.561 251.767C140.673 249.843 142.225 248.209 144.09 247V247Z" fill="white"/>
<path d="M221.34 208.35L221.35 211.12L157.49 247.99L157.48 245.23L221.34 208.35Z" fill="white"/>
<path d="M221.41 229.86V232.63L157.55 269.5L157.54 266.73L221.41 229.86Z" fill="white"/>
<path d="M191.8 252.14L191.81 254.9L157.56 274.67V271.91L191.8 252.14Z" fill="white"/>
<path d="M182.67 247.04V249.81L157.53 264.33V261.56L182.67 247.04Z" fill="white"/>
<path d="M214.39 217.55L214.4 220.31L157.5 253.16V250.4L214.39 217.55Z" fill="white"/>
<path d="M196.69 217.41L196.7 220.17L157.47 242.82V240.05L196.69 217.41Z" fill="white"/>
<path d="M144.15 268.47C147.69 266.42 150.58 268.06 150.59 272.13C150.473 274.351 149.832 276.512 148.719 278.438C147.607 280.364 146.055 281.999 144.19 283.21C140.65 285.26 137.76 283.61 137.75 279.54C137.867 277.321 138.509 275.161 139.621 273.237C140.733 271.313 142.285 269.679 144.15 268.47V268.47Z" fill="white"/>
<path d="M303.94 297.61L293.01 291.26L147.36 363.79L158.32 370.12L303.94 297.61Z" fill="#455A64"/>
<path d="M374.59 338.67L229.22 411.05L240.98 417.84L386.3 345.47L374.59 338.67Z" fill="#455A64"/>
<path opacity="0.3" d="M303.94 297.61L293.01 291.26L147.36 363.79L158.32 370.12L303.94 297.61Z" fill="white"/>
<path d="M229.22 411.05L158.32 370.12L147.36 363.79L126.98 361.11L220.28 415.33L240.98 417.84L229.22 411.05Z" fill="#455A64"/>
<path opacity="0.5" d="M229.22 411.05L158.32 370.12L147.36 363.79L126.98 361.11L220.28 415.33L240.98 417.84L229.22 411.05Z" fill="white"/>
<path opacity="0.3" d="M374.59 338.67L229.22 411.05L240.98 417.84L386.3 345.47L374.59 338.67Z" fill="white"/>
<path d="M220.28 415.33L126.98 361.11L127 385.71L127.02 396.55L220.31 450.77L220.28 415.33Z" fill="#455A64"/>
<path d="M136 388.47V380.29C135.999 379.938 136.09 379.592 136.265 379.287C136.44 378.982 136.692 378.728 136.997 378.552C137.301 378.375 137.646 378.282 137.998 378.282C138.35 378.281 138.695 378.374 139 378.55L208.72 419.07C209.48 419.509 210.111 420.14 210.55 420.9C210.989 421.66 211.22 422.522 211.22 423.4V431.58C211.221 431.931 211.13 432.277 210.955 432.582C210.78 432.888 210.528 433.141 210.223 433.318C209.919 433.494 209.574 433.587 209.222 433.588C208.87 433.588 208.525 433.496 208.22 433.32L138.53 392.8C137.764 392.365 137.127 391.735 136.683 390.975C136.239 390.214 136.003 389.35 136 388.47V388.47Z" fill="#37474F"/>
<path d="M220.28 415.33L220.31 450.77L386.34 354.91L386.3 345.47L240.98 417.84L220.28 415.33Z" fill="#455A64"/>
<path opacity="0.1" d="M220.28 415.33L220.31 450.77L386.34 354.91L386.3 345.47L240.98 417.84L220.28 415.33Z" fill="white"/>
<path d="M303.94 297.61L303.93 302.08H294.96L303.94 297.61Z" fill="#455A64"/>
<path d="M296.41 301.36L158.32 370.12L229.22 411.05L370.44 340.73L303.06 301.57C302.056 300.986 300.923 300.661 299.762 300.624C298.601 300.587 297.449 300.84 296.41 301.36V301.36Z" fill="#37474F"/>
<path d="M222.11 307.19C221.314 307.19 220.551 307.506 219.989 308.069C219.426 308.631 219.11 309.394 219.11 310.19V409.88C220.924 411.012 222.98 411.697 225.11 411.88V310.2C225.111 309.805 225.035 309.414 224.884 309.049C224.734 308.684 224.513 308.352 224.235 308.072C223.956 307.793 223.625 307.571 223.26 307.419C222.896 307.268 222.505 307.19 222.11 307.19V307.19Z" fill="#E0E0E0"/>
<path opacity="0.2" d="M222.11 307.19C221.314 307.19 220.551 307.506 219.989 308.069C219.426 308.631 219.11 309.394 219.11 310.19V409.88C220.924 411.012 222.98 411.697 225.11 411.88V310.2C225.111 309.805 225.035 309.414 224.884 309.049C224.734 308.684 224.513 308.352 224.235 308.072C223.956 307.793 223.625 307.571 223.26 307.419C222.896 307.268 222.505 307.19 222.11 307.19V307.19Z" fill="black"/>
<path opacity="0.3" d="M222.11 307.19C221.314 307.19 220.551 307.506 219.989 308.069C219.426 308.631 219.11 309.394 219.11 310.19V318.82C220.883 319.135 222.679 319.296 224.48 319.3H225.12V310.2C225.121 309.804 225.044 309.412 224.893 309.047C224.743 308.681 224.521 308.348 224.241 308.069C223.961 307.789 223.629 307.567 223.263 307.416C222.898 307.266 222.506 307.189 222.11 307.19V307.19Z" fill="black"/>
<path d="M143.14 264.55C142.344 264.55 141.581 264.866 141.019 265.428C140.456 265.991 140.14 266.754 140.14 267.55V365.27C141.977 366.312 144.031 366.914 146.14 367.03V267.56C146.141 267.165 146.065 266.774 145.914 266.409C145.764 266.044 145.543 265.712 145.265 265.432C144.986 265.152 144.655 264.931 144.29 264.779C143.926 264.628 143.535 264.55 143.14 264.55V264.55Z" fill="#E0E0E0"/>
<path opacity="0.2" d="M143.14 264.55C142.344 264.55 141.581 264.866 141.019 265.428C140.456 265.991 140.14 266.754 140.14 267.55V365.27C141.977 366.312 144.031 366.914 146.14 367.03V267.56C146.141 267.165 146.065 266.774 145.914 266.409C145.764 266.044 145.543 265.712 145.265 265.432C144.986 265.152 144.655 264.931 144.29 264.779C143.926 264.628 143.535 264.55 143.14 264.55V264.55Z" fill="black"/>
<path opacity="0.3" d="M143.14 264.55C142.344 264.55 141.581 264.866 141.019 265.428C140.456 265.991 140.14 266.754 140.14 267.55V275.38L146.14 278.86V267.56C146.141 267.165 146.065 266.774 145.914 266.409C145.764 266.044 145.543 265.712 145.265 265.432C144.986 265.152 144.655 264.931 144.29 264.779C143.926 264.628 143.535 264.55 143.14 264.55V264.55Z" fill="black"/>
<path d="M165.94 244.24C165.739 243.959 165.47 243.734 165.159 243.584C164.849 243.433 164.505 243.363 164.16 243.38L144.84 247.78C145.197 247.744 145.557 247.805 145.883 247.956C146.209 248.107 146.487 248.344 146.69 248.64C147.293 249.439 147.698 250.369 147.872 251.355C148.046 252.34 147.984 253.353 147.69 254.31C147.611 254.659 147.439 254.981 147.193 255.241C146.946 255.502 146.635 255.691 146.29 255.79L165.52 251.39C165.868 251.294 166.184 251.106 166.434 250.846C166.684 250.585 166.859 250.262 166.94 249.91C167.228 248.952 167.287 247.941 167.114 246.956C166.94 245.971 166.538 245.041 165.94 244.24V244.24Z" fill="#455A64"/>
<path d="M144.71 247.81L144.83 247.76L144.71 247.81Z" fill="#455A64"/>
<path d="M147.73 254.31C148.023 253.353 148.086 252.34 147.912 251.355C147.738 250.369 147.333 249.439 146.73 248.64C146.527 248.344 146.248 248.108 145.923 247.956C145.597 247.805 145.237 247.744 144.88 247.78L144.76 247.83C144.444 247.946 144.161 248.137 143.935 248.386C143.708 248.635 143.545 248.935 143.46 249.26C143.168 250.217 143.107 251.23 143.28 252.215C143.454 253.2 143.858 254.131 144.46 254.93C144.66 255.225 144.935 255.461 145.257 255.614C145.578 255.767 145.935 255.831 146.29 255.8H146.34C146.684 255.699 146.994 255.507 147.239 255.245C147.483 254.983 147.653 254.66 147.73 254.31Z" fill="#263238"/>
<path d="M259.77 299.45C259.572 299.168 259.306 298.94 258.996 298.788C258.687 298.636 258.344 298.564 258 298.58L238.68 303C239.038 302.965 239.399 303.027 239.725 303.18C240.05 303.334 240.328 303.572 240.53 303.87C241.131 304.668 241.534 305.596 241.708 306.58C241.882 307.563 241.821 308.574 241.53 309.53C241.444 309.878 241.269 310.197 241.021 310.457C240.774 310.717 240.463 310.907 240.12 311.01L259.35 306.62C259.695 306.518 260.007 306.327 260.256 306.068C260.505 305.808 260.682 305.489 260.77 305.14C261.065 304.18 261.128 303.164 260.954 302.174C260.781 301.185 260.375 300.252 259.77 299.45Z" fill="#455A64"/>
<path d="M238.54 303C238.58 302.996 238.62 302.996 238.66 303H238.54Z" fill="#455A64"/>
<path d="M241.57 309.51C241.861 308.554 241.922 307.543 241.748 306.56C241.575 305.576 241.171 304.648 240.57 303.85C240.368 303.552 240.09 303.313 239.765 303.16C239.439 303.007 239.078 302.945 238.72 302.98C238.68 302.975 238.64 302.975 238.6 302.98C238.285 303.097 238.002 303.29 237.778 303.541C237.553 303.791 237.392 304.093 237.31 304.42C237.017 305.375 236.954 306.386 237.128 307.37C237.302 308.354 237.707 309.283 238.31 310.08C238.51 310.374 238.785 310.611 239.107 310.763C239.428 310.916 239.785 310.981 240.14 310.95C240.482 310.853 240.794 310.67 241.045 310.418C241.295 310.166 241.476 309.853 241.57 309.51V309.51Z" fill="#263238"/>
<g opacity="0.4">
<path opacity="0.4" d="M165.94 244.24C165.738 243.959 165.47 243.734 165.159 243.584C164.848 243.433 164.505 243.363 164.16 243.38L144.84 247.78C145.197 247.744 145.557 247.805 145.883 247.956C146.208 248.107 146.487 248.344 146.69 248.64C147.293 249.439 147.698 250.369 147.872 251.355C148.046 252.34 147.983 253.353 147.69 254.31C147.611 254.659 147.439 254.981 147.192 255.241C146.946 255.502 146.634 255.691 146.29 255.79L165.52 251.39C165.868 251.294 166.184 251.106 166.434 250.846C166.684 250.585 166.859 250.262 166.94 249.91C167.228 248.952 167.287 247.941 167.113 246.956C166.94 245.971 166.538 245.041 165.94 244.24V244.24Z" fill="white"/>
<path opacity="0.4" d="M144.71 247.81L144.83 247.76L144.71 247.81Z" fill="white"/>
</g>
<g opacity="0.4">
<path opacity="0.4" d="M259.77 299.45C259.572 299.168 259.306 298.94 258.996 298.788C258.687 298.636 258.344 298.564 258 298.58L238.68 303C239.038 302.965 239.399 303.027 239.725 303.18C240.05 303.334 240.328 303.572 240.53 303.87C241.131 304.668 241.534 305.596 241.708 306.58C241.882 307.563 241.821 308.574 241.53 309.53C241.444 309.878 241.269 310.197 241.021 310.457C240.774 310.717 240.463 310.907 240.12 311.01L259.35 306.62C259.695 306.518 260.007 306.327 260.256 306.068C260.505 305.808 260.682 305.489 260.77 305.14C261.065 304.18 261.128 303.164 260.954 302.174C260.781 301.185 260.375 300.252 259.77 299.45Z" fill="white"/>
<path opacity="0.4" d="M238.54 303C238.58 302.996 238.62 302.996 238.66 303H238.54Z" fill="white"/>
</g>
<path d="M238.28 304.52L230.6 306.44C224.297 308.028 217.623 307.091 212 303.83L141.64 263.21C140.945 262.816 140.383 262.222 140.028 261.506C139.673 260.79 139.541 259.983 139.649 259.191C139.756 258.399 140.099 257.657 140.632 257.062C141.165 256.466 141.865 256.044 142.64 255.85L145.72 255.09C146.78 254.23 146.66 249.56 144.41 249.22L141.18 250.01C139.234 250.483 137.474 251.53 136.129 253.015C134.785 254.5 133.918 256.355 133.64 258.339C133.361 260.323 133.686 262.344 134.57 264.142C135.455 265.939 136.859 267.43 138.6 268.42L209 309C213.709 311.733 219.056 313.175 224.5 313.18C227.065 313.159 229.617 312.823 232.1 312.18L239.62 310.31C240.65 309.54 240.53 304.87 238.28 304.52Z" fill="#E0E0E0"/>
<path d="M149.91 275.38V254.53L195.03 280.59V301.43L149.91 275.38Z" fill="#455A64"/>
<path d="M195.03 280.59L222.11 293.8V301.43H195.03V280.59Z" fill="#455A64"/>
<path d="M149.91 254.53L195.03 280.59L222.11 293.8L176.98 267.75L149.91 254.53Z" fill="#455A64"/>
<path opacity="0.1" d="M195.03 280.59L222.11 293.8V301.43H195.03V280.59Z" fill="white"/>
<path opacity="0.3" d="M149.91 254.53L195.03 280.59L222.11 293.8L176.98 267.75L149.91 254.53Z" fill="white"/>
<path opacity="0.2" d="M300.55 337.2C317.82 347.2 317.91 363.33 300.76 373.3C283.61 383.27 255.7 383.3 238.43 373.3C221.16 363.3 221.08 347.17 238.23 337.2C255.38 327.23 283.29 327.23 300.55 337.2Z" fill="black"/>
<path d="M267.87 224.53L271.66 208C266.492 208.723 261.606 210.792 257.49 214L237.65 229.6L251.3 233.81L267.87 224.53Z" fill="#FFA8A7"/>
<path d="M277.14 298.86L279.91 305.11C280.686 306.871 282.006 308.337 283.676 309.292C285.346 310.248 287.279 310.643 289.19 310.42L312.59 307.75C314.557 307.528 316.547 307.673 318.46 308.18L323.58 309.54V297.54L322.18 297.95C319.487 298.75 316.629 298.819 313.9 298.15L305.37 296.05C301.333 295.058 297.104 295.162 293.12 296.35V296.35L292.25 289.27L277.14 298.86Z" fill="#F28F8F"/>
<path d="M340.73 314.66C340.642 311.763 339.425 309.014 337.34 307C335.8 305.54 333.86 304.56 332.4 303C330.71 301.19 330.01 299.2 328.57 297.15C328.316 296.804 327.97 296.537 327.57 296.38C327.424 296.365 327.276 296.365 327.13 296.38C326.62 296.421 326.124 296.563 325.67 296.8V296.8C326.252 296.9 326.772 297.223 327.12 297.7C328.57 299.7 329.59 302.1 331.29 303.87C332.74 305.38 334.68 306.34 336.22 307.77C338.296 309.716 339.516 312.406 339.61 315.25C339.69 318.06 338.66 322.91 336.61 322.91C337.257 323.067 337.94 322.963 338.51 322.62C340.29 320.85 340.78 316.75 340.73 314.66Z" fill="#EBEBEB"/>
<path d="M328.57 297.15C330.01 299.2 330.71 301.15 332.4 303C333.86 304.56 335.8 305.54 337.34 307C339.425 309.014 340.642 311.763 340.73 314.66C340.73 316.75 340.29 320.85 338.58 322.59C340.76 321.28 341.36 316.65 341.29 314.39C341.194 311.549 339.979 308.86 337.91 306.91C336.37 305.48 334.42 304.52 332.97 303C331.27 301.23 330.58 299.28 329.13 297.29C328.95 297.043 328.721 296.836 328.458 296.679C328.195 296.523 327.903 296.421 327.6 296.38C327.989 296.542 328.324 296.809 328.57 297.15V297.15Z" fill="#455A64"/>
<path d="M321.66 297.64C321.164 297.858 320.618 297.938 320.08 297.87C320.08 297.87 318.5 297.71 317.98 297.61C316.98 297.42 316.88 298.55 316.88 298.55C317.475 298.613 318.075 298.613 318.67 298.55C318.805 298.758 318.983 298.935 319.192 299.069C319.4 299.204 319.635 299.293 319.88 299.33C320.381 299.428 320.871 299.579 321.34 299.78C321.573 299.886 321.769 300.058 321.904 300.275C322.039 300.492 322.107 300.745 322.1 301C322.01 301.56 321.46 301.89 321.1 302.36C320.933 302.633 320.838 302.945 320.824 303.265C320.81 303.585 320.877 303.903 321.02 304.19C320.699 304.052 320.341 304.03 320.005 304.126C319.67 304.223 319.378 304.433 319.18 304.72C318.804 305.325 318.578 306.01 318.52 306.72C318.417 307.193 318.384 307.678 318.42 308.16C318.437 308.403 318.503 308.64 318.615 308.857C318.727 309.074 318.882 309.265 319.07 309.42C319.262 309.569 319.497 309.65 319.74 309.65C319.983 309.65 320.219 309.569 320.41 309.42C321.69 311.5 327.54 312.29 330.47 316.22C333.4 320.15 334.04 322.94 336.64 322.94C338.64 322.94 339.64 318.09 339.64 315.28C339.546 312.436 338.326 309.746 336.25 307.8C334.71 306.37 332.77 305.41 331.32 303.9C329.62 302.13 328.6 299.73 327.15 297.73C326.802 297.253 326.282 296.93 325.7 296.83C325.524 296.81 325.346 296.81 325.17 296.83C323.96 296.878 322.769 297.153 321.66 297.64V297.64Z" fill="#92E3A9"/>
<path d="M335.88 322.21L336.54 320.4C336.585 320.283 336.66 320.18 336.759 320.102C336.858 320.025 336.976 319.975 337.1 319.96C339.1 319.72 339.73 319.42 340.6 318.5C340.475 319.623 340.114 320.707 339.54 321.68C339.204 322.264 338.654 322.694 338.007 322.881C337.36 323.067 336.665 322.995 336.07 322.68C335.985 322.641 335.917 322.57 335.882 322.483C335.847 322.395 335.846 322.298 335.88 322.21V322.21Z" fill="#455A64"/>
<path d="M323.22 305.37C323.219 305.442 323.204 305.513 323.175 305.578C323.146 305.643 323.103 305.702 323.05 305.75C322.386 306.321 321.932 307.098 321.76 307.957C321.588 308.816 321.708 309.707 322.1 310.49C322.149 310.607 322.151 310.737 322.108 310.856C322.064 310.974 321.977 311.072 321.864 311.129C321.752 311.186 321.621 311.198 321.5 311.163C321.379 311.128 321.275 311.048 321.21 310.94C320.721 309.956 320.57 308.839 320.78 307.76C320.992 306.683 321.559 305.708 322.39 304.99C322.492 304.904 322.623 304.862 322.755 304.871C322.888 304.88 323.012 304.941 323.1 305.04C323.179 305.132 323.221 305.249 323.22 305.37Z" fill="#37474F"/>
<path d="M326.29 306.78C326.29 306.915 326.236 307.045 326.14 307.14C325.508 307.767 325.047 308.547 324.804 309.403C324.561 310.26 324.542 311.165 324.75 312.03C324.766 312.096 324.769 312.164 324.758 312.231C324.747 312.298 324.724 312.361 324.689 312.419C324.653 312.477 324.607 312.527 324.552 312.566C324.498 312.606 324.436 312.635 324.37 312.65C324.304 312.666 324.236 312.669 324.17 312.658C324.103 312.648 324.039 312.624 323.981 312.589C323.924 312.553 323.874 312.507 323.834 312.453C323.794 312.398 323.766 312.336 323.75 312.27C323.504 311.235 323.527 310.153 323.818 309.129C324.109 308.105 324.657 307.172 325.41 306.42C325.457 306.374 325.512 306.336 325.573 306.311C325.634 306.286 325.699 306.272 325.765 306.272C325.831 306.272 325.896 306.286 325.957 306.311C326.018 306.336 326.074 306.374 326.12 306.42C326.172 306.465 326.214 306.52 326.243 306.582C326.273 306.644 326.289 306.712 326.29 306.78V306.78Z" fill="#37474F"/>
<path d="M329 309C329.001 309.075 328.984 309.15 328.951 309.217C328.918 309.285 328.87 309.344 328.81 309.39C328.246 309.854 327.812 310.456 327.55 311.138C327.289 311.82 327.21 312.558 327.32 313.28C327.341 313.411 327.309 313.545 327.233 313.653C327.156 313.762 327.04 313.836 326.91 313.86C326.779 313.881 326.645 313.849 326.537 313.773C326.429 313.696 326.355 313.58 326.33 313.45C326.188 312.55 326.285 311.628 326.611 310.776C326.938 309.925 327.482 309.175 328.19 308.6C328.294 308.518 328.425 308.481 328.557 308.496C328.688 308.511 328.808 308.577 328.89 308.68C328.963 308.771 329.002 308.884 329 309Z" fill="#37474F"/>
<path d="M331.23 311.15C331.229 311.22 331.213 311.289 331.184 311.353C331.154 311.417 331.112 311.474 331.06 311.52C330.579 311.964 330.209 312.515 329.982 313.128C329.754 313.742 329.675 314.4 329.75 315.05C329.767 315.181 329.731 315.314 329.651 315.419C329.57 315.524 329.451 315.593 329.32 315.61C329.255 315.62 329.188 315.617 329.125 315.6C329.061 315.584 329.001 315.554 328.949 315.514C328.896 315.474 328.853 315.424 328.82 315.366C328.788 315.309 328.767 315.246 328.76 315.18C328.663 314.37 328.76 313.548 329.044 312.783C329.327 312.018 329.789 311.332 330.39 310.78C330.437 310.733 330.492 310.696 330.553 310.671C330.614 310.645 330.679 310.632 330.745 310.632C330.811 310.632 330.876 310.645 330.937 310.671C330.998 310.696 331.054 310.733 331.1 310.78C331.187 310.883 331.234 311.015 331.23 311.15V311.15Z" fill="#37474F"/>
<path d="M267 256.06C266.25 266.68 269.09 279.06 270 282.72L268.43 286.48C268.04 296.13 282.26 301.4 288.78 297.64C299 281.3 304.18 272.44 302.17 262.16L267 256.06Z" fill="#263238"/>
<path opacity="0.3" d="M270.85 281.08L277.14 268.56C271.88 266.99 267.87 260.72 267.87 260.72C268.68 266.05 273.76 269.43 273.76 269.43C271.527 272.884 270.504 276.982 270.85 281.08V281.08Z" fill="black"/>
<path d="M289 294.08C287.66 288.08 278.55 281.55 270.78 283.64L263.52 299.69C262.299 302.394 261.561 305.291 261.34 308.25L258.45 347C258.253 349.712 257.763 352.394 256.99 355L256.9 355.3L267 358C267.04 353.524 267.88 349.091 269.48 344.91L277.2 324.77C278.695 320.849 279.376 316.664 279.2 312.47L279.08 309.3L289 294.08Z" fill="#FFA8A7"/>
<path d="M251.22 375C254.114 374.91 256.859 373.693 258.87 371.61C260.34 370.07 261.32 368.13 262.87 366.68C264.68 364.98 266.68 364.28 268.72 362.84C269.066 362.587 269.333 362.24 269.49 361.84C269.505 361.694 269.505 361.547 269.49 361.4C269.451 360.891 269.312 360.395 269.08 359.94V359.94C268.984 360.524 268.66 361.046 268.18 361.39C266.18 362.84 263.79 363.86 262.02 365.56C260.5 367.01 259.54 368.96 258.11 370.49C256.164 372.567 253.474 373.786 250.63 373.88C247.83 373.96 242.97 372.94 242.97 370.88C242.813 371.527 242.917 372.21 243.26 372.78C245 374.52 249.12 375 251.22 375Z" fill="#EBEBEB"/>
<path d="M268.72 362.8C266.72 364.24 264.72 364.94 262.87 366.64C261.32 368.09 260.34 370.03 258.87 371.57C256.859 373.653 254.114 374.869 251.22 374.96C249.12 375.02 245.03 374.52 243.28 372.81C244.59 374.99 249.23 375.59 251.48 375.52C254.323 375.429 257.013 374.214 258.96 372.14C260.39 370.6 261.35 368.66 262.87 367.2C264.64 365.51 266.59 364.81 268.59 363.36C268.838 363.182 269.046 362.953 269.201 362.69C269.356 362.426 269.455 362.134 269.49 361.83C269.328 362.219 269.062 362.554 268.72 362.8Z" fill="#455A64"/>
<path d="M268.24 355.89C268.02 355.398 267.94 354.855 268.01 354.32C268.01 354.32 268.16 352.73 268.26 352.22C268.45 351.22 267.68 351.17 267.68 351.17C267.68 351.17 267.53 351.96 267.4 352.89C267.185 353.028 267 353.206 266.854 353.416C266.708 353.625 266.605 353.861 266.55 354.11C266.452 354.612 266.301 355.101 266.1 355.57C265.995 355.804 265.823 356.001 265.606 356.136C265.389 356.271 265.136 356.339 264.88 356.33C264.33 356.25 263.99 355.69 263.53 355.33C263.255 355.163 262.942 355.068 262.62 355.054C262.299 355.04 261.979 355.108 261.69 355.25C261.831 354.932 261.856 354.574 261.759 354.239C261.662 353.904 261.45 353.614 261.16 353.42C260.557 353.04 259.871 352.81 259.16 352.75C258.683 352.652 258.196 352.619 257.71 352.65C257.468 352.666 257.232 352.732 257.017 352.844C256.802 352.956 256.612 353.111 256.46 353.3C256.309 353.491 256.227 353.727 256.227 353.97C256.227 354.214 256.309 354.45 256.46 354.64C254.37 355.92 253.58 361.77 249.65 364.7C245.72 367.63 242.93 368.28 242.93 370.87C242.93 372.87 247.79 373.87 250.59 373.87C253.434 373.776 256.124 372.557 258.07 370.48C259.5 368.95 260.46 367 261.98 365.55C263.75 363.85 266.14 362.83 268.14 361.38C268.448 361.148 268.694 360.845 268.858 360.497C269.021 360.148 269.098 359.765 269.08 359.38C269.011 358.176 268.727 356.994 268.24 355.89V355.89Z" fill="#92E3A9"/>
<path d="M243.66 370.11L245.47 370.77C245.591 370.813 245.698 370.889 245.778 370.99C245.857 371.091 245.907 371.213 245.92 371.34C246.15 373.34 246.45 373.97 247.37 374.83C246.251 374.711 245.17 374.353 244.2 373.78C243.616 373.442 243.185 372.891 242.998 372.242C242.812 371.593 242.884 370.897 243.2 370.3C243.241 370.219 243.31 370.154 243.395 370.12C243.479 370.085 243.573 370.081 243.66 370.11V370.11Z" fill="#455A64"/>
<path d="M260.51 357.46C260.437 357.46 260.365 357.444 260.3 357.413C260.234 357.382 260.176 357.336 260.13 357.28C259.554 356.62 258.778 356.167 257.92 355.99C257.058 355.819 256.163 355.942 255.38 356.34C255.261 356.4 255.122 356.41 254.996 356.367C254.869 356.325 254.765 356.234 254.705 356.115C254.645 355.996 254.635 355.858 254.678 355.731C254.72 355.604 254.811 355.5 254.93 355.44C255.918 354.936 257.048 354.779 258.136 354.995C259.225 355.211 260.209 355.787 260.93 356.63C261.015 356.73 261.058 356.859 261.048 356.99C261.039 357.121 260.979 357.243 260.88 357.33C260.83 357.376 260.772 357.411 260.708 357.433C260.645 357.455 260.577 357.465 260.51 357.46V357.46Z" fill="#37474F"/>
<path d="M259.09 360.52C258.955 360.52 258.826 360.466 258.73 360.37C258.105 359.739 257.327 359.279 256.472 359.035C255.618 358.792 254.714 358.773 253.85 358.98C253.786 358.997 253.719 359 253.653 358.99C253.587 358.98 253.524 358.958 253.468 358.923C253.411 358.889 253.361 358.843 253.322 358.79C253.283 358.736 253.255 358.675 253.24 358.61C253.224 358.547 253.22 358.481 253.229 358.417C253.239 358.353 253.261 358.291 253.294 358.235C253.328 358.179 253.372 358.13 253.425 358.092C253.477 358.053 253.537 358.025 253.6 358.01C254.636 357.762 255.718 357.785 256.742 358.075C257.767 358.366 258.699 358.915 259.45 359.67C259.519 359.741 259.566 359.83 259.584 359.927C259.603 360.024 259.592 360.124 259.554 360.215C259.515 360.306 259.45 360.384 259.368 360.438C259.286 360.492 259.189 360.521 259.09 360.52V360.52Z" fill="#37474F"/>
<path d="M256.91 363.19C256.834 363.189 256.758 363.172 256.689 363.139C256.62 363.106 256.559 363.059 256.51 363C256.048 362.433 255.447 361.996 254.764 361.733C254.082 361.47 253.343 361.39 252.62 361.5C252.487 361.521 252.352 361.489 252.243 361.41C252.134 361.332 252.061 361.213 252.04 361.08C252.019 360.948 252.051 360.812 252.13 360.703C252.209 360.594 252.327 360.521 252.46 360.5C253.359 360.359 254.279 360.456 255.129 360.782C255.978 361.109 256.727 361.653 257.3 362.36C257.361 362.434 257.4 362.523 257.412 362.618C257.424 362.712 257.408 362.809 257.367 362.895C257.326 362.981 257.262 363.054 257.18 363.104C257.099 363.155 257.006 363.181 256.91 363.18V363.19Z" fill="#37474F"/>
<path d="M254.73 365.46C254.66 365.461 254.59 365.446 254.526 365.416C254.462 365.387 254.406 365.344 254.36 365.29C253.914 364.811 253.36 364.443 252.745 364.217C252.13 363.991 251.471 363.913 250.82 363.99C250.688 364.002 250.557 363.963 250.453 363.881C250.349 363.799 250.28 363.681 250.26 363.55C250.252 363.484 250.257 363.418 250.274 363.354C250.292 363.29 250.322 363.23 250.363 363.178C250.404 363.126 250.455 363.082 250.513 363.05C250.571 363.018 250.634 362.997 250.7 362.99C251.51 362.894 252.332 362.991 253.097 363.275C253.862 363.558 254.548 364.019 255.1 364.62C255.162 364.693 255.202 364.782 255.216 364.877C255.23 364.972 255.217 365.068 255.178 365.156C255.14 365.244 255.077 365.319 254.998 365.372C254.919 365.426 254.826 365.457 254.73 365.46V365.46Z" fill="#37474F"/>
<path d="M293.5 207.13C288.026 206.7 282.529 206.66 277.05 207.01C274.59 207.047 272.169 207.627 269.96 208.71C268.553 209.608 267.339 210.778 266.391 212.152C265.443 213.526 264.78 215.076 264.44 216.71C263.788 219.977 263.58 223.317 263.82 226.64C264.11 237.5 264.92 246.77 266.09 257.57C276.88 263.8 291.09 266.75 303.09 263.33C303.26 249.33 302.57 234.52 299.75 220.8C298.75 215.84 297.3 210.48 293.5 207.13Z" fill="#455A64"/>
<path opacity="0.3" d="M293.5 207.13C288.026 206.7 282.529 206.66 277.05 207.01C274.59 207.047 272.169 207.627 269.96 208.71C268.553 209.608 267.339 210.778 266.391 212.152C265.443 213.526 264.78 215.076 264.44 216.71C263.788 219.977 263.58 223.317 263.82 226.64C264.11 237.5 264.92 246.77 266.09 257.57C276.88 263.8 291.09 266.75 303.09 263.33C303.26 249.33 302.57 234.52 299.75 220.8C298.75 215.84 297.3 210.48 293.5 207.13Z" fill="white"/>
<path d="M326.11 235C326.247 233.521 326.015 232.031 325.436 230.663C324.856 229.295 323.948 228.092 322.79 227.16L302.89 211.09C300.195 208.907 296.942 207.521 293.5 207.09L291.55 206.94C289.77 208.59 288.99 220.34 297.01 225.11L314.31 235.21L314.14 257.44L308.22 264.2C308.113 264.318 308.036 264.459 307.994 264.613C307.953 264.766 307.948 264.927 307.982 265.083C308.015 265.238 308.085 265.383 308.185 265.507C308.286 265.63 308.414 265.727 308.56 265.79C308.901 265.95 309.279 266.01 309.652 265.964C310.026 265.918 310.378 265.768 310.67 265.53L312.59 263.96C311.4 266.2 310.36 268.75 309.17 270.96C308.873 271.395 308.726 271.915 308.75 272.44C308.79 272.662 308.879 272.873 309.011 273.056C309.142 273.239 309.313 273.391 309.51 273.5C309.9 273.723 310.333 273.859 310.78 273.9C312.343 274.084 313.926 273.802 315.33 273.09C316.73 272.38 317.966 271.386 318.96 270.17C320.861 267.882 322 265.057 322.22 262.09C324.007 253.138 325.306 244.094 326.11 235V235Z" fill="#FFA8A7"/>
<path d="M273.47 202.88V204.68C273.425 205.999 273.182 207.303 272.75 208.55C272.57 209.075 272.57 209.645 272.75 210.17C272.935 210.611 273.218 211.005 273.576 211.322C273.934 211.638 274.36 211.87 274.82 212C275.734 212.245 276.692 212.276 277.62 212.09C280.395 211.617 282.915 210.183 284.74 208.04L284.33 195.73L273.47 202.88Z" fill="#FFA8A7"/>
<path opacity="0.2" d="M282.15 201.08C283.031 199.541 283.595 197.841 283.81 196.08L273.47 202.87V204.67C273.46 205.196 273.41 205.721 273.32 206.24C274.778 205.987 276.199 205.554 277.55 204.95C279.428 204.136 281.027 202.791 282.15 201.08Z" fill="black"/>
<path d="M262 182.91C260.819 182.948 259.65 182.662 258.62 182.082C257.59 181.502 256.739 180.65 256.16 179.62C256.078 179.469 256.042 179.297 256.057 179.126C256.071 178.955 256.136 178.791 256.242 178.656C256.348 178.521 256.492 178.42 256.655 178.366C256.818 178.311 256.994 178.306 257.16 178.35C257.977 178.495 258.813 178.495 259.63 178.35C258.688 177.124 257.999 175.722 257.604 174.226C257.209 172.731 257.116 171.172 257.33 169.64C257.356 169.47 257.422 169.308 257.523 169.168C257.623 169.028 257.755 168.913 257.908 168.833C258.061 168.754 258.23 168.711 258.402 168.709C258.575 168.706 258.745 168.745 258.9 168.82C262.29 170.502 266.063 171.264 269.84 171.03C271.84 170.89 273.84 170.46 275.84 170.31C277.852 170.061 279.894 170.372 281.74 171.21C282.668 171.636 283.462 172.308 284.036 173.152C284.611 173.996 284.944 174.981 285 176C285.23 175.674 285.527 175.401 285.873 175.201C286.218 175 286.603 174.877 287 174.84C287.415 174.79 287.836 174.825 288.236 174.944C288.637 175.063 289.009 175.262 289.33 175.53L285.87 177.45C286.519 177.321 287.192 177.409 287.785 177.702C288.379 177.995 288.858 178.476 289.15 179.07C289.658 180.234 289.878 181.503 289.79 182.77C289.855 184.44 289.782 186.112 289.57 187.77C289.343 189.446 288.685 191.035 287.66 192.38C286.759 193.48 285.556 194.293 284.2 194.72C282.352 195.236 280.391 195.173 278.58 194.54C276.782 193.913 275.072 193.06 273.49 192C269.389 189.329 265.543 186.286 262 182.91V182.91Z" fill="#263238"/>
<path d="M261.78 179.56C260.621 186.521 261.389 193.665 264 200.22C264.476 201.792 265.465 203.158 266.81 204.1C268.29 204.95 270.13 204.77 271.81 204.52C274.55 204.211 277.222 203.458 279.72 202.29C282.239 201.104 284.202 198.99 285.2 196.39C286.095 196.573 287.023 196.492 287.873 196.159C288.723 195.825 289.458 195.253 289.99 194.51C291.045 192.97 291.591 191.137 291.55 189.27C291.55 188.09 291.33 186.69 290.27 186.17C289.749 186.011 289.195 185.997 288.666 186.129C288.138 186.261 287.655 186.535 287.27 186.92C285.847 188.065 284.801 189.612 284.27 191.36C283.49 188.47 282.27 185.68 281.49 182.8C281.314 181.629 280.717 180.562 279.81 179.8C278.6 179.02 277.02 179.47 275.62 179.8C271.062 180.902 266.298 180.819 261.78 179.56Z" fill="#FFA8A7"/>
<path d="M270.19 188.32L266.82 194.01L270.84 194.76L270.19 188.32Z" fill="#F28F8F"/>
<path d="M274.72 196.72L271.66 198.21C271.922 198.558 272.291 198.81 272.709 198.929C273.128 199.048 273.574 199.028 273.98 198.87C274.333 198.653 274.6 198.32 274.735 197.928C274.87 197.536 274.865 197.109 274.72 196.72Z" fill="#F28F8F"/>
<path opacity="0.3" d="M274.72 196.72L271.66 198.21C271.922 198.558 272.291 198.81 272.709 198.929C273.128 199.048 273.574 199.028 273.98 198.87C274.333 198.653 274.6 198.32 274.735 197.928C274.87 197.536 274.865 197.109 274.72 196.72Z" fill="black"/>
<path d="M272.92 199C273.276 199.07 273.644 199.035 273.98 198.9C274.26 198.743 274.488 198.506 274.634 198.219C274.78 197.933 274.837 197.609 274.8 197.29C274.363 197.286 273.939 197.434 273.6 197.71C273.407 197.869 273.247 198.065 273.131 198.287C273.014 198.508 272.942 198.751 272.92 199V199Z" fill="#F28F8F"/>
<path d="M276 188.55C276.031 188.779 275.993 189.013 275.89 189.22C275.787 189.427 275.625 189.599 275.424 189.713C275.223 189.828 274.992 189.879 274.761 189.861C274.531 189.844 274.31 189.757 274.129 189.614C273.948 189.47 273.814 189.275 273.744 189.054C273.675 188.834 273.672 188.597 273.738 188.376C273.804 188.154 273.934 187.957 274.113 187.81C274.291 187.663 274.51 187.572 274.74 187.55C275.04 187.516 275.34 187.603 275.577 187.79C275.813 187.977 275.965 188.251 276 188.55Z" fill="#263238"/>
<path d="M266.33 189.15C266.36 189.308 266.356 189.471 266.32 189.627C266.283 189.784 266.215 189.931 266.118 190.059C266.022 190.188 265.9 190.295 265.76 190.374C265.62 190.453 265.465 190.502 265.305 190.518C265.146 190.534 264.984 190.517 264.831 190.467C264.678 190.418 264.538 190.337 264.418 190.23C264.298 190.123 264.201 189.992 264.135 189.846C264.068 189.699 264.032 189.541 264.03 189.38C264.026 189.09 264.131 188.808 264.325 188.592C264.518 188.375 264.786 188.239 265.075 188.21C265.364 188.181 265.653 188.262 265.885 188.436C266.118 188.61 266.277 188.865 266.33 189.15Z" fill="#263238"/>
<path d="M264.75 184.69L262.37 186.69C262.228 186.384 262.183 186.043 262.24 185.71C262.297 185.378 262.454 185.071 262.69 184.83C262.986 184.615 263.336 184.488 263.7 184.463C264.064 184.439 264.428 184.517 264.75 184.69Z" fill="#263238"/>
<path d="M274.58 183.55L277.31 185.06C277.39 184.734 277.367 184.391 277.245 184.078C277.124 183.765 276.909 183.497 276.63 183.31C276.299 183.16 275.933 183.103 275.572 183.145C275.211 183.188 274.868 183.328 274.58 183.55V183.55Z" fill="#263238"/>
<path d="M275.34 251.08C275.34 250.8 275.34 250.53 275.27 250.26C274.934 247.954 273.939 245.793 272.404 244.039C270.87 242.284 268.861 241.01 266.62 240.37L251.74 231.37L241.74 226.37L237.62 229.62C236.693 230.341 235.997 231.318 235.62 232.43V232.43C235.136 233.915 235.249 235.53 235.936 236.932C236.623 238.334 237.83 239.413 239.3 239.94L263.3 248.4C264.869 250.041 265.866 252.146 266.14 254.4C266.203 255.062 266.334 255.715 266.53 256.35C266.866 257.104 267.438 257.729 268.159 258.131C268.88 258.533 269.712 258.691 270.53 258.58C271.34 258.456 272.11 258.145 272.778 257.671C273.447 257.197 273.995 256.574 274.38 255.85C275.152 254.385 275.485 252.729 275.34 251.08V251.08Z" fill="#FFA8A7"/>
<path d="M267.32 240.37V238.92H266.26V239.45L264 238.13C263.765 237.993 263.497 237.921 263.225 237.921C262.953 237.921 262.685 237.993 262.45 238.13L258.68 240.31V239.68L257.68 239.77V241.2C257.681 241.29 257.705 241.378 257.751 241.455C257.797 241.532 257.862 241.596 257.94 241.64L261.04 243.44C261.277 243.573 261.544 243.643 261.815 243.643C262.087 243.643 262.354 243.573 262.59 243.44L267.14 240.81C267.215 240.768 267.277 240.707 267.321 240.634C267.365 240.56 267.389 240.476 267.39 240.39V240.39L267.32 240.37Z" fill="#92E3A9"/>
<path d="M262.41 236.94L258.56 239.17C258.491 239.207 258.433 239.262 258.393 239.328C258.353 239.395 258.331 239.472 258.331 239.55C258.331 239.628 258.353 239.705 258.393 239.772C258.433 239.839 258.491 239.894 258.56 239.93L261.2 241.45C261.4 241.568 261.628 241.63 261.86 241.63C262.092 241.63 262.32 241.568 262.52 241.45L266.38 239.22C266.446 239.182 266.502 239.126 266.54 239.059C266.578 238.993 266.598 238.917 266.598 238.84C266.598 238.763 266.578 238.688 266.54 238.621C266.502 238.554 266.446 238.499 266.38 238.46L263.73 236.94C263.53 236.822 263.302 236.76 263.07 236.76C262.838 236.76 262.61 236.822 262.41 236.94V236.94Z" fill="#92E3A9"/>
<path opacity="0.3" d="M267.32 240.37V238.92H266.26V239.45L264 238.13C263.765 237.993 263.497 237.921 263.225 237.921C262.953 237.921 262.685 237.993 262.45 238.13L258.68 240.31V239.68L257.68 239.77V241.2C257.681 241.29 257.705 241.378 257.751 241.455C257.797 241.532 257.862 241.596 257.94 241.64L261.04 243.44C261.277 243.573 261.544 243.643 261.815 243.643C262.087 243.643 262.354 243.573 262.59 243.44L267.14 240.81C267.215 240.768 267.277 240.707 267.321 240.634C267.365 240.56 267.389 240.476 267.39 240.39V240.39L267.32 240.37Z" fill="black"/>
<path d="M262.4 236.7L257.87 239.32C257.791 239.364 257.725 239.429 257.679 239.507C257.633 239.585 257.609 239.675 257.609 239.765C257.609 239.856 257.633 239.945 257.679 240.023C257.725 240.101 257.791 240.166 257.87 240.21L261 242C261.237 242.133 261.503 242.203 261.775 242.203C262.046 242.203 262.313 242.133 262.55 242L267.1 239.37C267.177 239.324 267.24 239.259 267.284 239.181C267.328 239.103 267.351 239.015 267.351 238.925C267.351 238.836 267.328 238.748 267.284 238.67C267.24 238.592 267.177 238.526 267.1 238.48L264 236.7C263.759 236.554 263.482 236.476 263.2 236.476C262.918 236.476 262.641 236.554 262.4 236.7V236.7Z" fill="#92E3A9"/>
<path opacity="0.5" d="M262.41 236.94L258.56 239.17C258.491 239.207 258.433 239.262 258.393 239.328C258.353 239.395 258.331 239.472 258.331 239.55C258.331 239.628 258.353 239.705 258.393 239.772C258.433 239.839 258.491 239.894 258.56 239.93L261.2 241.45C261.4 241.568 261.628 241.63 261.86 241.63C262.092 241.63 262.32 241.568 262.52 241.45L266.38 239.22C266.446 239.182 266.502 239.126 266.54 239.059C266.578 238.993 266.598 238.917 266.598 238.84C266.598 238.763 266.578 238.688 266.54 238.621C266.502 238.554 266.446 238.499 266.38 238.46L263.73 236.94C263.53 236.822 263.302 236.76 263.07 236.76C262.838 236.76 262.61 236.822 262.41 236.94V236.94Z" fill="white"/>
<path d="M260.7 247.46C260.09 246.89 259.76 243.78 260.97 242.77L257.87 240.98C256.87 242.25 257.12 244.98 257.68 246.36C257.746 246.518 257.845 246.66 257.971 246.775C258.097 246.891 258.247 246.978 258.41 247.03C259.01 247.23 260.02 247.58 260.41 247.71C260.529 247.753 260.657 247.769 260.783 247.757C260.909 247.745 261.031 247.705 261.14 247.64L260.7 247.46Z" fill="#455A64"/>
</svg>
