<svg width="500" height="500" viewBox="0 0 500 500" fill="none" xmlns="http://www.w3.org/2000/svg">
<path d="M250 441.27C381.549 441.27 488.19 379.7 488.19 303.75C488.19 227.8 381.549 166.23 250 166.23C118.451 166.23 11.8101 227.8 11.8101 303.75C11.8101 379.7 118.451 441.27 250 441.27Z" fill="#F5F5F5"/>
<path d="M44.28 254.47L330.55 419.75L463.88 342.77L177.62 177.5L44.28 254.47Z" fill="#E0E0E0"/>
<path d="M68.8201 327.18C79.5786 327.18 88.3001 322.143 88.3001 315.93C88.3001 309.717 79.5786 304.68 68.8201 304.68C58.0616 304.68 49.3401 309.717 49.3401 315.93C49.3401 322.143 58.0616 327.18 68.8201 327.18Z" fill="#E0E0E0"/>
<path d="M358.03 239.69C383.153 239.69 403.52 227.933 403.52 213.43C403.52 198.927 383.153 187.17 358.03 187.17C332.907 187.17 312.54 198.927 312.54 213.43C312.54 227.933 332.907 239.69 358.03 239.69Z" fill="#E0E0E0"/>
<path d="M398.577 206.456C420.97 184.063 420.97 147.758 398.577 125.365C376.184 102.972 339.879 102.972 317.486 125.365C295.093 147.758 295.093 184.063 317.486 206.456C339.879 228.849 376.184 228.849 398.577 206.456Z" fill="#92E3A9"/>
<path opacity="0.3" d="M398.577 206.456C420.97 184.063 420.97 147.758 398.577 125.365C376.184 102.972 339.879 102.972 317.486 125.365C295.093 147.758 295.093 184.063 317.486 206.456C339.879 228.849 376.184 228.849 398.577 206.456Z" fill="black"/>
<path opacity="0.1" d="M343.5 117.35C338.14 119.97 332.85 124.8 333.36 130.74C333.581 132.336 334.115 133.872 334.932 135.261C335.749 136.649 336.832 137.862 338.12 138.83C340.705 140.746 343.533 142.31 346.53 143.48L376.71 156.81C379.623 158.252 382.718 159.295 385.91 159.91C387.51 160.206 389.153 160.175 390.741 159.819C392.329 159.463 393.829 158.79 395.15 157.84C399.25 154.54 399.65 148.42 398.66 143.25C393.89 118.39 365.56 106.55 343.5 117.35Z" fill="white"/>
<g opacity="0.2">
<path opacity="0.2" d="M331.61 121.43C332.16 124.19 334.51 126.43 338.22 127.66C342.349 128.807 346.69 128.964 350.891 128.12C355.092 127.275 359.035 125.453 362.4 122.8C365.34 120.22 366.65 117.27 366.1 114.5C365.59 111.97 363.56 109.91 360.38 108.62C359.15 108.57 357.92 108.56 356.68 108.62C357.524 108.77 358.356 108.98 359.17 109.25C362.52 110.38 364.64 112.33 365.12 114.73C365.6 117.13 364.4 119.73 361.74 122.08C356.09 127.08 345.68 129.15 338.54 126.74C335.18 125.61 333.07 123.66 332.54 121.26C332.01 118.86 333.25 116.26 335.91 113.91C336.741 113.185 337.639 112.539 338.59 111.98C337.36 112.41 336.16 112.9 334.98 113.41C332.29 115.91 331.07 118.75 331.61 121.43Z" fill="black"/>
<path opacity="0.2" d="M305.61 189.13L305.52 188.93L305.61 189.13Z" fill="black"/>
<path opacity="0.2" d="M409.48 140.57C409.57 140.75 409.65 140.93 409.74 141.1L409.48 140.57Z" fill="black"/>
<path opacity="0.2" d="M306.3 190.67L306.71 191.48L306.3 190.67Z" fill="black"/>
<path opacity="0.2" d="M412.43 184C410.151 187.992 407.198 191.558 403.7 194.54C385 211 350.58 217.93 327 210C322.617 208.599 318.512 206.443 314.87 203.63C315.92 204.84 317.02 205.99 318.16 207.1C320.86 208.671 323.715 209.958 326.68 210.94C338.68 214.94 353.33 215.24 367.39 212.41C381.45 209.58 394.91 203.67 404.39 195.34C406.744 193.29 408.879 191.001 410.76 188.51C411.36 187 411.92 185.54 412.43 184Z" fill="black"/>
<path opacity="0.2" d="M402.33 177.37C382.65 194.7 346.43 201.97 321.6 193.58C312.16 190.4 305.48 185.36 302.25 179.1C302.51 180.23 302.8 181.35 303.13 182.45C306.88 187.6 313.07 191.76 321.28 194.53C333.85 198.77 349.28 199.06 364.09 196.09C378.9 193.12 393.03 186.89 402.99 178.09C409.5 172.36 413.6 166.09 415.06 159.92C414.94 158.79 414.78 157.65 414.59 156.52C414 163.57 409.8 170.8 402.33 177.37Z" fill="black"/>
<path opacity="0.2" d="M415.31 168.84C415.31 169.07 415.31 169.3 415.26 169.53C415.28 169.3 415.29 169.07 415.31 168.84Z" fill="black"/>
<path opacity="0.2" d="M391.72 119.52L392.24 119.89L391.72 119.52Z" fill="black"/>
<path opacity="0.2" d="M321.36 159.93C331.85 163.47 344.74 163.71 357.09 161.23C369.44 158.75 381.25 153.56 389.56 146.23C396.42 140.23 400.08 133.47 400.14 126.97C399.8 126.6 399.45 126.25 399.14 125.9C399.5 132.43 395.96 139.3 388.94 145.48C372.51 159.91 342.36 166 321.68 159C312.81 156 306.89 151.05 304.68 144.88C304.5 145.34 304.31 145.8 304.14 146.27C306.73 152.22 312.69 157 321.36 159.93Z" fill="black"/>
<path opacity="0.2" d="M301 160.48C303.51 167.76 310.41 173.58 320.71 177.05C332.42 181.05 346.82 181.28 360.61 178.51C374.4 175.74 387.61 169.94 396.87 161.76C405.04 154.58 409.14 146.54 408.64 138.85C408.22 138.07 407.79 137.3 407.33 136.54C408.93 144.6 404.98 153.29 396.21 161.02C377.88 177.14 344.15 183.91 321.03 176.11C309.95 172.37 302.95 165.89 301.31 157.85C301.18 158.72 301.08 159.59 300.99 160.47L301 160.48Z" fill="black"/>
<path opacity="0.2" d="M300.75 163.22C300.75 162.85 300.75 162.48 300.82 162.11C300.79 162.48 300.77 162.85 300.75 163.22Z" fill="black"/>
<path opacity="0.2" d="M390.1 118.38L389.6 118.04L390.1 118.38Z" fill="black"/>
<path opacity="0.2" d="M326.28 142.78C334.28 145.49 344.15 145.67 353.59 143.78C363.03 141.89 372.05 137.92 378.4 132.33C384.16 127.25 386.97 121.55 386.45 116.13C386.08 115.92 385.73 115.71 385.36 115.51C386.19 120.82 383.51 126.51 377.74 131.58C365.27 142.58 342.33 147.15 326.6 141.84C319.32 139.38 314.6 135.18 313.37 129.97C313.11 130.29 312.85 130.63 312.6 130.97C314.21 136.15 319 140.33 326.28 142.78Z" fill="black"/>
<path opacity="0.2" d="M308.69 136.7L309.09 136.04L308.69 136.7Z" fill="black"/>
<path opacity="0.2" d="M310.47 133.89C310.33 134.09 310.2 134.3 310.06 134.51L310.47 133.89Z" fill="black"/>
</g>
<path opacity="0.1" d="M343.42 198.74C309.26 185.62 304.16 160.43 306.86 140.11C303.082 147.608 300.996 155.844 300.75 164.236C300.504 172.628 302.105 180.972 305.438 188.678C308.771 196.384 313.756 203.264 320.04 208.832C326.324 214.4 333.754 218.52 341.805 220.9C349.856 223.281 358.332 223.865 366.634 222.611C374.935 221.356 382.86 218.294 389.848 213.64C396.836 208.986 402.717 202.855 407.075 195.679C411.433 188.503 414.163 180.457 415.07 172.11C412.43 189.67 377.55 211.85 343.42 198.74Z" fill="black"/>
<path d="M44.28 247.28L330.55 412.56L463.88 335.58L177.62 170.3L44.28 247.28Z" fill="#92E3A9"/>
<path opacity="0.8" d="M44.28 247.28L330.55 412.56L463.88 335.58L177.62 170.3L44.28 247.28Z" fill="white"/>
<path opacity="0.05" d="M343 355.5C346 356.06 349.31 356.02 352 357.5C353.771 358.697 355.443 360.035 357 361.5C361.884 366.05 368.325 368.555 375 368.5C381.32 368.65 395.93 364.5 396 356.27C396.07 351.15 390.36 348.27 385.62 346.27C358.649 335.232 335.005 317.384 317 294.47C310.31 285.92 304.15 276.47 294.81 270.91C288.86 267.38 282.02 265.72 275.34 263.91C238.876 254.065 204.074 238.866 172.07 218.81C177.989 207.145 182.103 194.65 184.27 181.75C176.49 179.03 168.96 185.75 161.27 188.75C155.27 191.1 149.27 191.02 143.27 190.09L117.79 204.8C118.85 208.54 120.55 212.18 121.71 215.91C123.49 221.59 123.71 228.62 119.24 232.59C116.69 234.87 113.16 235.59 109.8 236.28L95.7999 239.06C91.7999 239.85 87.1799 241.12 85.6199 244.89C83.7099 249.5 87.7699 254.42 92.0299 257.03C99.9599 261.9 109.41 263.47 118.15 266.66C138.64 274.13 154.68 290.26 173.76 300.82C187.023 308.153 201.633 312.725 216.71 314.26C232.28 315.85 248.15 314.17 263.5 317.16C275.57 319.51 287.85 322.81 299.68 326.37C306.112 328.186 312.273 330.853 318 334.3C320.853 336.066 323.499 338.146 325.89 340.5C328.18 342.79 329.74 345.76 331.75 348.31C334.84 352.32 338.24 354.6 343 355.5Z" fill="black"/>
<path d="M44.28 247.28V249.88L330.55 415.15V412.56L44.28 247.28Z" fill="#92E3A9"/>
<path opacity="0.6" d="M44.28 247.28V249.88L330.55 415.15V412.56L44.28 247.28Z" fill="white"/>
<path d="M330.55 412.56L463.88 335.58V338.18L330.55 415.15V412.56Z" fill="#92E3A9"/>
<path opacity="0.45" d="M330.55 412.56L463.88 335.58V338.18L330.55 415.15V412.56Z" fill="white"/>
<path d="M82.5299 291.9C81.9682 289.862 81.2044 287.885 80.2499 286C80.1599 285.79 80.0499 285.58 79.9399 285.36C79.0319 283.598 78.5724 281.64 78.602 279.658C78.6317 277.677 79.1496 275.733 80.1099 274C80.1699 273.88 80.2399 273.76 80.3099 273.64C81.4901 271.628 82.0987 269.332 82.0699 267C81.9994 265.712 81.6143 264.462 80.9483 263.359C80.2823 262.255 79.3558 261.332 78.2499 260.67C77.6801 260.343 77.0887 260.056 76.4799 259.81C75.9145 259.591 75.4284 259.207 75.0857 258.707C74.743 258.207 74.5596 257.616 74.5599 257.01V253.54H63.4699V257C63.4686 257.608 63.2823 258.202 62.9358 258.702C62.5894 259.202 62.099 259.585 61.5299 259.8C60.9165 260.035 60.3215 260.316 59.7499 260.64C58.6399 261.294 57.7069 262.211 57.0324 263.309C56.3578 264.407 55.9622 265.653 55.8799 266.94C55.8306 269.287 56.4217 271.603 57.5899 273.64C57.6499 273.76 57.7199 273.87 57.7799 273.98C58.7296 275.726 59.2346 277.68 59.2503 279.668C59.266 281.657 58.7919 283.618 57.8699 285.38C57.7599 285.59 57.6599 285.8 57.5599 286.01C56.5901 287.884 55.8095 289.85 55.2299 291.88C54.8341 293.854 54.653 295.866 54.6899 297.88L54.6299 314.02C54.6299 316.11 55.9899 318.21 58.7499 319.81C61.2145 321.162 63.9447 321.961 66.7499 322.15C68.081 322.259 69.4188 322.259 70.7499 322.15C73.549 321.971 76.2772 321.193 78.7499 319.87C81.5199 318.29 82.9099 316.2 82.9199 314.11V302.44C82.9199 300.99 82.9899 299.44 82.9899 297.95C83.0637 295.922 82.9094 293.893 82.5299 291.9V291.9Z" fill="#92E3A9"/>
<path opacity="0.3" d="M82.5299 291.9C81.9682 289.862 81.2044 287.885 80.2499 286C80.1599 285.79 80.0499 285.58 79.9399 285.36C79.0319 283.598 78.5724 281.64 78.602 279.658C78.6317 277.677 79.1496 275.733 80.1099 274C80.1699 273.88 80.2399 273.76 80.3099 273.64C81.4901 271.628 82.0987 269.332 82.0699 267C81.9994 265.712 81.6143 264.462 80.9483 263.359C80.2823 262.255 79.3558 261.332 78.2499 260.67C77.6801 260.343 77.0887 260.056 76.4799 259.81C75.9145 259.591 75.4284 259.207 75.0857 258.707C74.743 258.207 74.5596 257.616 74.5599 257.01V253.54H63.4699V257C63.4686 257.608 63.2823 258.202 62.9358 258.702C62.5894 259.202 62.099 259.585 61.5299 259.8C60.9165 260.035 60.3215 260.316 59.7499 260.64C58.6399 261.294 57.7069 262.211 57.0324 263.309C56.3578 264.407 55.9622 265.653 55.8799 266.94C55.8306 269.287 56.4217 271.603 57.5899 273.64C57.6499 273.76 57.7199 273.87 57.7799 273.98C58.7296 275.726 59.2346 277.68 59.2503 279.668C59.266 281.657 58.7919 283.618 57.8699 285.38C57.7599 285.59 57.6599 285.8 57.5599 286.01C56.5901 287.884 55.8095 289.85 55.2299 291.88C54.8341 293.854 54.653 295.866 54.6899 297.88L54.6299 314.02C54.6299 316.11 55.9899 318.21 58.7499 319.81C61.2145 321.162 63.9447 321.961 66.7499 322.15C68.081 322.259 69.4188 322.259 70.7499 322.15C73.549 321.971 76.2772 321.193 78.7499 319.87C81.5199 318.29 82.9099 316.2 82.9199 314.11V302.44C82.9199 300.99 82.9899 299.44 82.9899 297.95C83.0637 295.922 82.9094 293.893 82.5299 291.9V291.9Z" fill="black"/>
<path opacity="0.1" d="M80.1099 274C80.1699 273.88 80.2399 273.76 80.3099 273.64C81.3014 271.916 81.8799 269.985 81.9999 268C81.7626 268.802 81.4267 269.571 80.9999 270.29C79.6363 272.297 77.9463 274.061 75.9999 275.51C74.0999 277.06 71.9999 278.82 71.7599 281.26C71.5199 283.7 73.1899 285.77 75.0899 287.2C76.9899 288.63 79.1999 289.63 80.9099 291.29C81.6373 292.022 82.2843 292.83 82.8399 293.7C82.7741 293.102 82.6773 292.508 82.5499 291.92C81.9831 289.875 81.2125 287.891 80.2499 286C80.1599 285.79 80.0499 285.58 79.9399 285.36C79.0319 283.598 78.5724 281.64 78.602 279.659C78.6317 277.677 79.1496 275.734 80.1099 274V274Z" fill="black"/>
<path d="M61.6 257.32V259.18C61.6572 259.844 61.8903 260.482 62.2751 261.026C62.66 261.571 63.1828 262.004 63.79 262.28C65.4431 263.113 67.2686 263.547 69.12 263.547C70.9713 263.547 72.7968 263.113 74.45 262.28C75.1008 261.929 75.6646 261.437 76.1 260.84C76.454 260.369 76.65 259.799 76.66 259.21V257.32C76.6604 257.151 76.6402 256.983 76.6 256.82C76.4535 256.26 76.1872 255.738 75.8195 255.291C75.4517 254.844 74.9913 254.482 74.47 254.23L74.36 254.17C72.7207 253.356 70.9152 252.932 69.085 252.932C67.2547 252.932 65.4492 253.356 63.81 254.17C63.2889 254.419 62.8268 254.776 62.4544 255.217C62.082 255.659 61.8078 256.174 61.65 256.73C61.615 256.925 61.5983 257.122 61.6 257.32Z" fill="#92E3A9"/>
<path opacity="0.1" d="M61.6 257.32V259.18C61.6572 259.844 61.8903 260.482 62.2751 261.026C62.66 261.571 63.1828 262.004 63.79 262.28C65.4431 263.113 67.2686 263.547 69.12 263.547C70.9713 263.547 72.7968 263.113 74.45 262.28C75.1008 261.929 75.6646 261.437 76.1 260.84C76.454 260.369 76.65 259.799 76.66 259.21V257.32C76.6604 257.151 76.6402 256.983 76.6 256.82C76.4535 256.26 76.1872 255.738 75.8195 255.291C75.4517 254.844 74.9913 254.482 74.47 254.23L74.36 254.17C72.7207 253.356 70.9152 252.932 69.085 252.932C67.2547 252.932 65.4492 253.356 63.81 254.17C63.2889 254.419 62.8268 254.776 62.4544 255.217C62.082 255.659 61.8078 256.174 61.65 256.73C61.615 256.925 61.5983 257.122 61.6 257.32Z" fill="black"/>
<path opacity="0.2" d="M74.4498 260.42C77.4498 258.74 77.4498 255.98 74.4498 254.28C72.8031 253.436 70.9809 252.992 69.1308 252.984C67.2806 252.975 65.4544 253.402 63.7998 254.23C60.8598 255.92 60.7998 258.67 63.7998 260.38C65.4467 261.224 67.2695 261.667 69.12 261.674C70.9706 261.681 72.7967 261.251 74.4498 260.42Z" fill="black"/>
<path d="M61.6098 255.14V256.26C61.59 256.436 61.59 256.614 61.6098 256.79C61.7599 257.347 62.0289 257.866 62.3983 258.309C62.7677 258.753 63.2287 259.111 63.7498 259.36C65.1979 260.148 66.8117 260.583 68.4598 260.63C70.5189 260.781 72.5793 260.355 74.4098 259.4C75.074 259.062 75.6573 258.584 76.1198 258C76.362 257.67 76.5292 257.291 76.6098 256.89C76.6543 256.72 76.6745 256.545 76.6698 256.37V255.22C76.6118 254.557 76.3784 253.921 75.9935 253.378C75.6087 252.835 75.0862 252.404 74.4798 252.13L74.0798 251.91C72.4653 251.17 70.7051 250.802 68.9293 250.833C67.1535 250.864 65.4073 251.294 63.8198 252.09C63.2145 252.357 62.6911 252.781 62.3028 253.316C61.9145 253.852 61.6754 254.482 61.6098 255.14V255.14Z" fill="#92E3A9"/>
<path opacity="0.1" d="M61.6098 255.14V256.26C61.59 256.436 61.59 256.614 61.6098 256.79C61.7599 257.347 62.0289 257.866 62.3983 258.309C62.7677 258.753 63.2287 259.111 63.7498 259.36C65.1979 260.148 66.8117 260.583 68.4598 260.63C70.5189 260.781 72.5793 260.355 74.4098 259.4C75.074 259.062 75.6573 258.584 76.1198 258C76.362 257.67 76.5292 257.291 76.6098 256.89C76.6543 256.72 76.6745 256.545 76.6698 256.37V255.22C76.6118 254.557 76.3784 253.921 75.9935 253.378C75.6087 252.835 75.0862 252.404 74.4798 252.13L74.0798 251.91C72.4653 251.17 70.7051 250.802 68.9293 250.833C67.1535 250.864 65.4073 251.294 63.8198 252.09C63.2145 252.357 62.6911 252.781 62.3028 253.316C61.9145 253.852 61.6754 254.482 61.6098 255.14V255.14Z" fill="black"/>
<path d="M61.6099 255.1C61.6099 257.5 64.9699 259.45 69.1299 259.46C73.2899 259.47 76.6699 257.55 76.6799 255.16C76.6899 252.77 73.3199 250.82 69.1599 250.8C64.9999 250.78 61.6199 252.71 61.6099 255.1Z" fill="#92E3A9"/>
<path d="M66.5499 250.66V254.56C66.5406 254.623 66.5406 254.687 66.5499 254.75C66.6027 254.942 66.696 255.121 66.8237 255.275C66.9513 255.428 67.1103 255.553 67.2899 255.64C67.7924 255.909 68.3501 256.06 68.9199 256.08C69.633 256.128 70.3457 255.979 70.9799 255.65C71.2038 255.526 71.3983 255.356 71.5499 255.15C71.6362 255.037 71.6976 254.908 71.7299 254.77C71.7349 254.71 71.7349 254.65 71.7299 254.59V250.68C71.7106 250.45 71.6299 250.229 71.4962 250.041C71.3625 249.853 71.1808 249.704 70.9699 249.61L70.8299 249.53C70.271 249.275 69.6623 249.148 69.0482 249.159C68.4341 249.169 67.83 249.316 67.2799 249.59C67.076 249.69 66.9014 249.841 66.7734 250.028C66.6455 250.216 66.5685 250.433 66.5499 250.66V250.66Z" fill="#92E3A9"/>
<path opacity="0.1" d="M66.5499 250.66V254.56C66.5406 254.623 66.5406 254.687 66.5499 254.75C66.6027 254.942 66.696 255.121 66.8237 255.275C66.9513 255.428 67.1103 255.553 67.2899 255.64C67.7924 255.909 68.3501 256.06 68.9199 256.08C69.633 256.128 70.3457 255.979 70.9799 255.65C71.2038 255.526 71.3983 255.356 71.5499 255.15C71.6362 255.037 71.6976 254.908 71.7299 254.77C71.7349 254.71 71.7349 254.65 71.7299 254.59V250.68C71.7106 250.45 71.6299 250.229 71.4962 250.041C71.3625 249.853 71.1808 249.704 70.9699 249.61L70.8299 249.53C70.271 249.275 69.6623 249.148 69.0482 249.159C68.4341 249.169 67.83 249.316 67.2799 249.59C67.076 249.69 66.9014 249.841 66.7734 250.028C66.6455 250.216 66.5685 250.433 66.5499 250.66V250.66Z" fill="black"/>
<path d="M66.5498 250.65C66.5498 251.48 67.7098 252.15 69.1598 252.16C70.6098 252.17 71.7698 251.5 71.7698 250.67C71.7698 249.84 70.6098 249.16 69.1698 249.16C67.7298 249.16 66.5598 249.82 66.5498 250.65Z" fill="#92E3A9"/>
<path opacity="0.5" d="M68.24 250.66C68.24 250.95 68.65 251.19 69.16 251.19C69.67 251.19 70.09 250.96 70.09 250.66C70.09 250.36 69.68 250.13 69.16 250.13C68.64 250.13 68.24 250.36 68.24 250.66Z" fill="#92E3A9"/>
<path opacity="0.3" d="M68.24 250.66C68.24 250.95 68.65 251.19 69.16 251.19C69.67 251.19 70.09 250.96 70.09 250.66C70.09 250.36 69.68 250.13 69.16 250.13C68.64 250.13 68.24 250.36 68.24 250.66Z" fill="black"/>
<path d="M194.8 223.28C194.8 223.28 201.71 167.12 200.14 146.61C199.34 136.1 194.26 133.71 186.48 134.31C178.7 134.91 134.2 158.56 134.2 158.56L140.5 173.86L177.57 162.23C177.57 162.23 173.8 184.08 172.93 188.23C172.06 192.38 170.23 197.97 168.79 202.98C168.08 205.44 167.09 208.65 167.09 210.2C167.09 213.86 194.8 223.28 194.8 223.28Z" fill="#FFA8A7"/>
<path d="M177.57 162.23C182.72 161.23 187.88 158.23 189.5 155.76C188.662 158.492 186.817 160.805 184.34 162.23C181.988 163.749 179.497 165.042 176.9 166.09L177.57 162.23Z" fill="#F28F8F"/>
<path d="M264.84 222.29C264.06 219.43 259.04 216.42 244.08 213.9C229.12 211.38 215.51 213.9 215.44 215.67C215.37 217.44 219.13 229.28 236.37 231.43C253.61 233.58 266.42 228.56 264.84 222.29Z" fill="#263238"/>
<path d="M219.84 246.6C219.84 246.6 210.09 183.35 211.49 170.44C212.94 157.1 218 150.91 226.49 150.04C237.58 156.49 243.49 171.88 250.58 187.04C257.67 202.2 265.36 234.75 265.76 250.3C266.16 265.85 253.88 276.92 239.94 278.95C226 280.98 219.84 246.6 219.84 246.6Z" fill="#FFA8A7"/>
<path d="M235.16 197.09C230.657 193.472 227.616 188.346 226.6 182.66L240.51 177.81L249.92 185.64C250.01 185.84 250.1 186.04 250.2 186.24L250.56 187.03C250.83 187.6 251.1 188.21 251.37 188.84L251.61 189.38L252.23 190.88L252.44 191.4C252.71 192.1 252.99 192.8 253.26 193.54C253.53 194.27 253.81 195.02 254.08 195.79C254.08 195.95 254.19 196.12 254.25 196.28C254.49 196.97 254.73 197.66 254.97 198.38C254.97 198.48 255.04 198.58 255.07 198.69C255.64 200.38 256.19 202.14 256.74 203.95L256.83 204.24C257.09 205.13 257.36 206.03 257.62 206.93C257.62 206.93 244.7 205.07 235.16 197.09Z" fill="#F28F8F"/>
<path d="M223.59 150.59C228.88 148.49 235.34 153.39 238.75 155.59C245.67 160.03 288.05 193.05 297.93 200.79C300.07 202.08 302.25 203.33 304.47 204.51L292.83 222.71C291.872 220.093 290.373 217.708 288.43 215.71C277.87 208.17 257.43 204.06 244.27 198.94C234.04 194.94 231.9 192.7 228.44 186.85C225.76 182.26 216.23 154.05 223.59 150.59Z" fill="#FFA8A7"/>
<path d="M219.62 246.94L215.44 215.67C215.44 215.67 219.19 224.3 238.55 226.56C257.91 228.82 265.33 225.56 264.84 222.29C264.84 222.29 269.9 241.86 267.94 254.59C265.98 267.32 246.57 280.85 246.57 280.85L219.62 246.94Z" fill="#37474F"/>
<path opacity="0.15" d="M228.19 251.189C226.42 251.189 224.75 251.299 223.19 251.399L244.71 278.48H249.71C255.28 274.04 266.48 264.089 267.94 254.589C269.37 245.259 267.04 232.259 265.69 225.979C266.46 233.179 250.32 250.759 228.19 251.189Z" fill="black"/>
<path d="M325.12 178.06C318.12 176.76 314.87 181.8 312.28 185.97C309.69 190.14 305.38 197.79 303.46 199.09C301.54 200.39 300.46 199.09 297.7 201.16C294.94 203.23 292.94 207.16 293.79 208.59L295.79 212.06C294.64 211.94 293.479 212.09 292.397 212.498C291.315 212.906 290.344 213.56 289.56 214.41C286.56 217.41 288.12 217.92 289.81 219.61C291.5 221.3 295.47 228.99 299.45 231.09C299.45 231.09 310.16 227.87 317.94 215.72C325.72 203.57 325.12 178.06 325.12 178.06Z" fill="#92E3A9"/>
<path d="M301.64 232.7C301.23 232.626 300.839 232.467 300.494 232.234C300.148 232.001 299.855 231.698 299.633 231.345C299.411 230.992 299.265 230.597 299.204 230.185C299.143 229.772 299.169 229.352 299.28 228.95C300.474 225.2 302.26 221.665 304.57 218.48C307.27 214.67 312.31 207.48 313.16 203.56C314.01 199.64 315.84 188.62 318.83 184.01C321.82 179.4 324.89 176.74 328.83 178.22C332.77 179.7 320.33 209.22 316.68 214.22C313.03 219.22 301.64 232.7 301.64 232.7Z" fill="#37474F"/>
<path d="M303.94 232.06C313.79 226.81 317.04 221.7 319.94 215.06C322.84 208.42 329.65 202.27 331.4 196.3C333.15 190.33 333.35 175.02 326.58 178.73C319.81 182.44 318.4 196.13 315.42 204.04C312.44 211.95 294.28 237.21 303.94 232.06Z" fill="#263238"/>
<path d="M244.74 248.26C249.25 247.58 257.9 249.44 265.74 260.4C274.17 272.17 275.74 292.71 270.46 294.4C270.46 294.4 258.19 292.95 249.78 288.55C241.37 284.15 227.21 254.3 244.74 248.26Z" fill="#263238"/>
<path d="M388.56 346.22C375.49 341.09 364.81 332.28 355.56 322.42C348.13 312.31 316.25 269.06 310.71 262.97C308.71 260.81 303.98 255.26 297.41 253.86C274.14 248.92 231.08 249.61 231.08 249.61L214.52 246.82L181.52 277.88C186.07 282.72 191.79 286.95 200.13 291.31C208.47 295.67 217.52 298.81 229.69 297.78C254.07 295.72 268.69 288.83 281.75 285.78C285.53 284.9 289.45 284.09 292.42 290.29C295.39 296.49 295.63 299.59 304.42 306.19C315.7 314.65 334.3 324.11 342.42 334.19C343.759 336.66 344.557 339.387 344.76 342.19C345.53 352.81 354.45 350.73 361.64 355.35C365.55 357.86 368.47 360.92 373.19 361.97C377.488 362.854 381.928 362.772 386.19 361.73C390.02 360.81 395.53 358.05 397.41 354.31C399.87 349.34 392.3 347.7 388.56 346.22Z" fill="#FFA8A7"/>
<path d="M388.56 346.22C375.49 341.09 364.81 332.28 355.56 322.42C348.13 312.31 316.25 269.06 310.71 262.97C308.71 260.81 303.98 255.26 297.41 253.86C274.14 248.92 231.08 249.61 231.08 249.61L214.52 246.82L181.52 277.88C186.07 282.72 191.79 286.95 200.13 291.31C208.47 295.67 217.52 298.81 229.69 297.78C254.07 295.72 268.69 288.83 281.75 285.78C285.53 284.9 289.45 284.09 292.42 290.29C295.39 296.49 295.63 299.59 304.42 306.19C315.7 314.65 334.3 324.11 342.42 334.19C343.759 336.66 344.557 339.387 344.76 342.19C345.53 352.81 354.45 350.73 361.64 355.35C365.55 357.86 368.47 360.92 373.19 361.97C377.488 362.854 381.928 362.772 386.19 361.73C390.02 360.81 395.53 358.05 397.41 354.31C399.87 349.34 392.3 347.7 388.56 346.22Z" fill="#FFA8A7"/>
<path d="M303.64 301.16C301.158 298.416 299.278 295.183 298.12 291.67C297.224 288.74 296.069 285.895 294.67 283.17C290.61 276.17 263.67 285.1 251.74 288.76C251.07 289.76 248.28 292.76 247.27 295.25C261.73 292.31 272.13 288.01 281.7 285.78C285.48 284.9 289.4 284.09 292.37 290.29C295.34 296.49 295.58 299.59 304.37 306.19C308.95 309.62 314.75 313.19 320.56 316.97C314.06 311.94 309.16 306.89 303.64 301.16Z" fill="#F28F8F"/>
<path d="M217.05 246.82C217.05 246.82 240.73 247.97 244.74 248.26C244.74 248.26 235.84 250.67 246.68 272.57C257.52 294.47 270.47 294.37 270.47 294.37C253.47 299.8 244.64 305.91 222.97 303.37C197.14 299.64 181.47 280.3 181.47 280.3L217.05 246.82Z" fill="#455A64"/>
<path opacity="0.15" d="M270.4 294.37L269.81 294.32C267.88 294.09 262.15 292.84 255.71 285.99C250.62 287.371 245.455 288.456 240.24 289.24C220.93 292.07 206.43 288.67 184.85 277.16L181.51 280.29C190.081 289.954 201.076 297.155 213.36 301.15C214.11 301.39 214.87 301.61 215.65 301.83C216.38 302.03 217.11 302.21 217.86 302.39L218.05 302.44C218.74 302.6 219.44 302.74 220.14 302.87L220.51 302.95C221.32 303.1 222.15 303.24 222.99 303.36C224.34 303.52 225.65 303.65 226.91 303.74C228.17 303.83 229.38 303.9 230.55 303.93H232.29H233.96C235.61 303.93 237.18 303.8 238.69 303.65C239.69 303.55 240.69 303.43 241.69 303.28C243.999 302.929 246.286 302.449 248.54 301.84C249.42 301.6 250.29 301.35 251.16 301.09C253.33 300.43 255.47 299.68 257.67 298.89L260.34 297.89C263.49 296.73 266.82 295.51 270.54 294.32L270.4 294.37Z" fill="black"/>
<path d="M137.91 217C128.29 220.35 119.19 226.18 126.85 243.28C137.91 267.95 187.71 295.36 213.32 301.18C200.32 281.51 211.14 260.66 219.62 246.96L217.39 230.26C217.39 230.26 209.7 226.57 196.98 216.73C184.26 206.89 179 204.22 160.05 210C147.05 213.92 137.91 217 137.91 217Z" fill="#92E3A9"/>
<path opacity="0.05" d="M176.87 272.76C150.69 257.76 142.46 244.4 132.19 231.57L125.47 239.78C125.65 240.306 125.85 240.846 126.07 241.4V241.49C126.3 242.07 126.54 242.65 126.81 243.26C131.65 254.05 143.9 265.37 158.3 275.18C160.36 276.58 162.457 277.946 164.59 279.28C165.66 279.95 166.73 280.6 167.8 281.28C175.132 285.685 182.719 289.652 190.52 293.16C197.84 296.532 205.46 299.211 213.28 301.16C210.43 296.929 208.527 292.133 207.7 287.1C198.61 284.33 188.86 279.64 176.87 272.76Z" fill="black"/>
<path d="M130.68 220.33C130.68 220.33 98.39 203.07 93.28 200.75L121.5 184.16L115.5 168.59C115.5 168.59 73.5 183.52 65.5 187.81C61.31 190.07 59.5 191.95 59.5 195.17C59.5 200.53 64.61 207.5 71.68 213.53C86.74 226.36 107.16 238.3 127.04 249.26C131.6 252.64 136.35 256.89 136.35 256.89C141.63 259.48 149.23 235.29 130.68 220.33Z" fill="#FFA8A7"/>
<path d="M160.91 160.35C159.911 158.031 158.466 155.932 156.656 154.172C154.846 152.413 152.707 151.026 150.361 150.093C148.016 149.16 145.509 148.698 142.985 148.733C140.461 148.769 137.968 149.301 135.65 150.3C133.331 151.298 131.232 152.744 129.473 154.554C127.713 156.364 126.327 158.503 125.393 160.848C124.46 163.194 123.998 165.7 124.034 168.225C124.069 170.749 124.601 173.241 125.6 175.56C125.74 175.87 125.9 176.17 126.05 176.47L121.16 187.09L114 173.8C114.001 172.751 113.613 171.739 112.911 170.96C112.209 170.18 111.243 169.689 110.2 169.58C109.671 169.536 109.139 169.6 108.636 169.768C108.133 169.936 107.669 170.205 107.273 170.557C106.876 170.909 106.556 171.339 106.33 171.819C106.104 172.299 105.978 172.82 105.96 173.35L111.47 173.82C110.268 174.627 109.345 175.787 108.83 177.14C107.51 180.56 112.07 187.53 118.19 193.65C118.19 193.65 126.84 205.86 128.93 207.58C130.283 208.61 131.979 209.082 133.67 208.9L134.19 184.9C137.702 186.795 141.718 187.55 145.679 187.059C149.639 186.567 153.349 184.854 156.292 182.158C159.234 179.462 161.264 175.916 162.099 172.013C162.934 168.11 162.532 164.044 160.95 160.38L160.91 160.35Z" fill="#263238"/>
<path d="M125.42 191.26C124.62 192.37 122.18 190.96 120.25 190.14C118.32 189.32 113.14 189.28 112.94 194.79C112.74 200.3 119.52 204.79 123.41 204.38C130.11 203.69 129.41 199.53 129.41 199.53L139.3 221.28C150.69 227.53 171.89 217.71 159.17 211.54L156.36 205.06C158.789 204.405 161.138 203.479 163.36 202.3C167.36 199.76 168.66 195.16 167.96 189.89C166.82 181.43 164.96 174.99 156.81 160.89C147.81 145.47 128.81 153.45 121.4 164.29C113.99 175.13 125.42 191.26 125.42 191.26Z" fill="#FFA8A7"/>
<path d="M126.2 193.08C125.66 193.32 122.12 190.78 120.2 190.14C117.6 189.24 113.39 172.85 113.39 172.85C113.39 172.85 109.96 169.85 111.84 164.31C113.4 159.79 119.12 156.78 123.08 154.78C130.22 151.17 138.2 147.05 141.71 139.49C141.98 138.9 142.39 138.21 143.04 138.2C143.457 138.245 143.84 138.449 144.11 138.77C145.753 140.62 146.681 142.996 146.73 145.47C146.73 145.71 146.8 145.99 147.02 146.06C147.24 146.13 147.43 145.94 147.56 145.78C148.29 144.893 148.843 143.875 149.19 142.78C149.68 141.29 152.19 145.08 152.38 145.6C152.97 147.247 153.224 148.995 153.128 150.741C153.032 152.488 152.587 154.198 151.82 155.77C150.26 158.89 147.04 160.84 144.11 162.55C137.56 166.37 126.36 170 124.8 170.44C122.68 171.03 123.08 173.15 124.29 178.93C125.4 184 128 192.25 126.2 193.08Z" fill="#263238"/>
<path d="M156.31 205.06C156.31 205.06 144.61 207.54 140.44 207.2C138.001 207.014 135.675 206.101 133.76 204.58C135.123 206.337 136.823 207.806 138.76 208.9C142.6 211 157.4 207.64 157.4 207.64L156.31 205.06Z" fill="#F28F8F"/>
<path d="M138 174.62L134.49 178.41C133.989 177.922 133.695 177.26 133.671 176.561C133.647 175.862 133.894 175.181 134.36 174.66C134.592 174.41 134.872 174.21 135.183 174.073C135.495 173.935 135.831 173.862 136.171 173.858C136.512 173.854 136.85 173.92 137.164 174.051C137.478 174.182 137.763 174.375 138 174.62V174.62Z" fill="#263238"/>
<path d="M149.23 194L154.38 193.75C154.413 194.089 154.377 194.432 154.274 194.757C154.171 195.082 154.003 195.383 153.781 195.642C153.558 195.901 153.286 196.112 152.98 196.263C152.674 196.414 152.341 196.501 152 196.52C151.302 196.539 150.624 196.288 150.107 195.818C149.591 195.348 149.276 194.696 149.23 194V194Z" fill="#F28F8F"/>
<path d="M159.21 168.589L154.21 167.299C154.277 166.967 154.41 166.652 154.603 166.373C154.796 166.094 155.044 165.857 155.331 165.678C155.619 165.498 155.94 165.379 156.275 165.327C156.61 165.276 156.952 165.294 157.28 165.379C157.95 165.568 158.524 166.005 158.882 166.601C159.241 167.198 159.358 167.909 159.21 168.589Z" fill="#263238"/>
<path d="M148.54 176.42L151.95 188.69L157.94 185.05L148.54 176.42Z" fill="#F28F8F"/>
<path d="M139 181.91C138.998 182.355 139.128 182.791 139.374 183.163C139.62 183.534 139.971 183.824 140.382 183.996C140.793 184.168 141.246 184.214 141.683 184.128C142.12 184.042 142.522 183.829 142.837 183.514C143.153 183.2 143.368 182.799 143.456 182.363C143.544 181.926 143.5 181.473 143.33 181.061C143.16 180.65 142.871 180.297 142.501 180.05C142.131 179.802 141.695 179.67 141.25 179.67C140.655 179.67 140.084 179.906 139.663 180.325C139.241 180.745 139.003 181.315 139 181.91Z" fill="#263238"/>
<path d="M155.26 175.57C155.26 175.997 155.387 176.414 155.624 176.77C155.861 177.125 156.199 177.402 156.593 177.565C156.988 177.729 157.422 177.772 157.841 177.688C158.26 177.605 158.645 177.399 158.947 177.097C159.249 176.795 159.455 176.41 159.539 175.991C159.622 175.572 159.579 175.138 159.416 174.743C159.252 174.348 158.975 174.011 158.62 173.774C158.265 173.536 157.847 173.41 157.42 173.41C156.847 173.41 156.298 173.637 155.893 174.042C155.488 174.447 155.26 174.997 155.26 175.57V175.57Z" fill="#263238"/>
<path d="M343.43 344.42C342.58 345 343.89 348.67 344.66 349.56C346.26 351.124 348.243 352.241 350.41 352.8C354.347 354.012 358.029 355.937 361.27 358.48C365.251 361.717 369.888 364.051 374.86 365.32C380.77 366.63 387.58 364.95 393.54 361.43C399.78 357.73 399.2 354.2 398.34 351.83L343.43 344.42Z" fill="#37474F"/>
<path d="M356.93 323.88C358.93 326.01 369.81 336.76 378.16 339.51C384.8 341.69 393.46 343.76 397.24 347.82C401.18 352.04 395.32 357.44 387.24 360.53C378.82 363.76 373.1 361.15 367.51 358.35C363.58 356.35 357.79 352.35 354.88 350.74C351.97 349.13 346.58 348.24 344.33 345.85C343.09 344.54 342.2 340.85 341.66 337.63C341.17 334.63 339.19 331.91 340.2 331.75L341.83 333.54C349.45 335 357.37 327.93 356.93 323.88Z" fill="#92E3A9"/>
<path d="M93.28 200.75C88.5034 203.332 83.3451 205.135 78 206.09C78 206.09 86.48 208.26 96.62 202.37L93.28 200.75Z" fill="#F28F8F"/>
</svg>
