<svg width="71" height="89" viewBox="0 0 71 89" fill="none" xmlns="http://www.w3.org/2000/svg">
<path d="M12.9276 21.7013C13.2364 20.4121 13.7496 19.1755 14.4495 18.0347C16.1452 15.2398 18.2027 12.6604 20.5731 10.3576C22.3539 8.45931 24.4973 6.90367 26.8884 5.77422C29.1361 4.8574 31.6652 4.79592 33.9587 5.60234C34.2666 5.76588 34.6131 5.8517 34.9654 5.8517C35.3176 5.8517 35.664 5.76588 35.972 5.60234C36.5112 5.23567 36.8348 4.68567 37.5059 4.45651C37.932 4.36484 38.374 4.36484 38.8001 4.45651C41.1053 4.9528 43.2335 6.01969 44.9716 7.55026C46.9382 9.0323 48.6593 10.79 50.0766 12.7638C50.3693 13.1363 50.5997 13.5499 50.7597 13.9899C50.9228 14.4359 50.8969 14.9253 50.6878 15.3534C50.0886 16.4992 48.2911 17.0149 47.2485 17.5534C45.8225 18.2524 44.4084 18.9513 43.0183 19.7076L33.8629 24.692L16.9181 33.8586C16.7143 33.9732 14.6172 34.8899 14.6172 35.1191C13.7282 32.1543 13.1343 29.1157 12.8437 26.044C12.6496 24.6003 12.6778 23.1372 12.9276 21.7013V21.7013Z" fill="#D2D096"/>
<path opacity="0.6" d="M16.9551 23.8585C16.0113 22.9064 14.8491 22.1903 13.5658 21.77C12.2825 21.3497 10.9154 21.2375 9.57897 21.4428C4.66157 21.9864 1.05958 27.0472 1.05958 27.0472C2.30955 27.8444 3.71366 28.3793 5.18391 28.6183C6.65417 28.8573 8.15883 28.7953 9.60354 28.4362C12.4622 27.6611 15.0214 26.0676 16.9551 23.8585Z" fill="white"/>
<path d="M10.3594 45.6993C4.63808 36.0583 11.2558 21.9204 25.1406 14.1214C39.0253 6.32237 54.9192 7.81561 60.6406 17.4566C66.3619 27.0976 59.7442 41.2355 45.8594 49.0345C31.9747 56.8335 16.0808 55.3403 10.3594 45.6993Z" fill="#E7D88A"/>
<path d="M20 33.1707C20.5529 38.9474 21.0817 50.4603 25.8533 56.9999C25.8533 56.9999 33.8843 57.0181 40.3965 56.5458C53.4211 55.5558 55.9726 45.2582 58 33.8048C57.4933 21.3915 49.1908 21.0754 35.7067 22.6903C28.6133 24.6233 28.1067 25.1065 28.1067 25.1065C28.1067 25.1065 21.2124 26.2181 20 33.1707Z" fill="#C8856A"/>
<path d="M19.491 56.4693C23.0994 57.5861 24.8026 55.0833 24.8026 55.0833L26.8618 73.8892C28.4782 76.5612 30.8898 78.6157 33.7323 79.7423C38.2452 81.3577 43.0854 79.3335 47.8581 84.0001C50.9277 78.1668 52.6694 75.2552 47.0402 71.0374L46.434 65.4634C48.5059 65.4771 50.5744 65.2868 52.6116 64.895C56.4606 63.8979 58.6738 60.5077 59.5014 56.0305C60.8196 48.8113 59.5013 38.2617 55.8159 24.8004C51.1586 21.6594 36.7441 22.3375 28.0262 29.1578C29.1135 37.1349 27.2371 40.9539 27.4873 43.8755C27.1372 44.7725 26.6244 45.5917 25.9766 46.2886C24.6486 47.7045 23.2149 44.4738 21.9159 43.2972C20.6168 42.1205 15.9788 41.7317 14.3718 46.1789C12.7649 50.6261 16.7197 55.6217 19.491 56.4693Z" fill="#C8856A"/>
<path d="M47.3605 85.2289C44.8805 83.9689 39.5105 81.8889 37.1505 84.8489C34.7905 87.8089 33.4705 88.6689 31.7205 88.2989C29.9705 87.9289 22.5705 82.5589 19.8805 80.0489C17.1905 77.5389 17.6005 76.2589 17.6005 76.2589C19.0933 74.7961 20.3484 73.1091 21.3205 71.2589C22.5905 68.1089 23.0405 66.4189 24.5305 66.1889L25.1405 71.5089C25.1405 71.5089 26.2705 73.5689 30.7405 76.1089C35.2105 78.6489 43.7605 78.8189 47.3605 85.2289Z" fill="#263238"/>
<path d="M47.2702 84.5389C48.5602 83.1489 51.3502 79.7189 53.7002 80.1889C56.0502 80.6589 57.1502 81.9689 57.1202 80.7389C57.0902 79.5089 54.6902 75.2489 52.7502 72.7389C48.8902 67.8089 47.4902 66.8789 45.9302 66.7389L46.4202 71.4789C46.4202 71.4789 49.4202 74.8289 49.2702 76.9289C49.1202 79.0289 47.3902 82.4589 47.2702 84.5389Z" fill="#263238"/>
<path d="M39.1403 40.8189C39.5503 41.8889 38.1403 41.1889 37.0003 41.6489C35.8603 42.1089 35.2703 43.5589 34.8503 42.4889C34.6864 41.9336 34.7371 41.337 34.9922 40.8173C35.2474 40.2976 35.6883 39.8926 36.2279 39.6826C36.7674 39.4725 37.3661 39.4728 37.9055 39.6832C38.4449 39.8937 38.8856 40.299 39.1403 40.8189V40.8189Z" fill="#263238"/>
<path d="M54.2204 39.6489C54.2704 40.7989 53.2204 39.6489 51.9204 39.7589C50.6204 39.8689 49.6804 41.0189 49.6304 39.8689C49.6621 39.2985 49.9042 38.76 50.3097 38.3576C50.7153 37.9552 51.2555 37.7173 51.8262 37.69C52.3969 37.6626 52.9574 37.8477 53.3996 38.2095C53.8418 38.5713 54.1342 39.0841 54.2204 39.6489V39.6489Z" fill="#263238"/>
<path d="M36.2903 35.3389L32.1403 37.8989C31.8065 37.3253 31.7075 36.6448 31.8641 35.9998C32.0206 35.3549 32.4206 34.7956 32.9803 34.4389C33.2559 34.2772 33.5609 34.1722 33.8776 34.1299C34.1943 34.0877 34.5162 34.1091 34.8245 34.193C35.1328 34.2768 35.4213 34.4213 35.673 34.6181C35.9247 34.8149 36.1345 35.0599 36.2903 35.3389V35.3389Z" fill="#263238"/>
<path d="M53.6605 35.7389L48.9805 34.1789C49.0661 33.8726 49.2127 33.5868 49.4115 33.3386C49.6103 33.0905 49.8572 32.885 50.1374 32.7346C50.4176 32.5843 50.7253 32.4921 51.042 32.4636C51.3587 32.4351 51.6779 32.4709 51.9805 32.5689C52.6156 32.7782 53.1451 33.2251 53.4582 33.8159C53.7714 34.4068 53.8438 35.0958 53.6605 35.7389V35.7389Z" fill="#263238"/>
<path d="M42.0205 35.5389L43.9505 49.2289L51.0505 46.2289C48.0205 40.4089 45.0105 36.5389 42.0205 35.5389Z" fill="#AF6152"/>
<path d="M25.8905 43.1989C27.4505 51.7889 30.5805 54.3389 33.7105 54.5389C37.9305 54.8189 40.2205 52.2189 45.7105 50.5389C49.3405 49.4489 53.3905 50.2789 56.0805 50.7389C56.6005 50.8289 57.2005 50.8989 57.7705 50.9589C58.0435 50.9816 58.3183 50.9463 58.5766 50.8552C58.835 50.7641 59.0712 50.6193 59.2696 50.4304C59.468 50.2415 59.6241 50.0126 59.7276 49.759C59.8312 49.5054 59.8799 49.2327 59.8705 48.9589C59.7787 45.6323 59.4444 42.3168 58.8705 39.0389L58.3105 35.9689C58.3105 35.9689 61.3105 49.3289 61.4005 53.4689C61.4905 57.6089 60.8205 60.8489 57.8405 63.6789C54.8605 66.5089 48.8405 68.4589 40.4405 67.7489C32.0405 67.0389 28.6105 63.6089 27.2505 60.8689C22.8405 51.9789 23.5005 47.3989 22.2005 45.7789C20.9005 44.1589 25.8905 43.1989 25.8905 43.1989Z" fill="#263238"/>
<path d="M41.3006 54.6689L47.1306 55.4589C47.0948 55.8461 46.9814 56.2222 46.7973 56.5647C46.6132 56.9072 46.362 57.2092 46.0588 57.4527C45.7556 57.6962 45.4065 57.8763 45.0323 57.9821C44.6581 58.088 44.2665 58.1175 43.8806 58.0689C43.0947 57.9451 42.3872 57.522 41.9062 56.8882C41.4253 56.2544 41.2083 55.4591 41.3006 54.6689V54.6689Z" fill="#B16668"/>
<path d="M42.0603 55.5389C41.8255 55.5331 41.5908 55.5532 41.3604 55.5989C41.4675 56.2222 41.7688 56.7957 42.2214 57.2375C42.674 57.6793 43.2546 57.9668 43.8804 58.0589C44.1946 58.1142 44.5161 58.1142 44.8304 58.0589C44.7817 57.3631 44.4666 56.7128 43.9506 56.2435C43.4347 55.7741 42.7576 55.5217 42.0603 55.5389V55.5389Z" fill="#AF6152"/>
</svg>
