<svg width="50" height="71" viewBox="0 0 50 71" fill="none" xmlns="http://www.w3.org/2000/svg">
<path d="M15.7109 24.473C15.7109 34.273 23.3409 42.223 32.7109 42.223C42.0809 42.223 49.7109 34.223 49.7109 24.473C49.7109 14.723 42.0809 6.72299 32.7109 6.72299C23.3409 6.72299 15.7109 14.673 15.7109 24.473Z" fill="#263238"/>
<path d="M3.93088 35.683C3.93088 35.683 6.54088 48.473 7.59088 50.573C8.27069 51.8549 9.42149 52.8228 10.8009 53.273L10.6209 44.273L3.93088 35.683Z" fill="#263238"/>
<path d="M7.21088 17.363C7.21088 17.363 5.33088 16.893 3.34088 20.003C1.64088 22.673 1.25088 28.663 3.93088 35.683L8.85088 36.273L7.21088 17.363Z" fill="#263238"/>
<path d="M10.3309 36.273C9.33088 36.893 8.58088 34.773 7.33088 33.443C6.08088 32.113 2.62089 30.633 0.640889 34.983C-0.142134 36.7908 -0.210145 38.8284 0.450597 40.6844C1.11134 42.5404 2.45162 44.0766 4.20089 44.983C5.17843 45.4725 6.27787 45.6651 7.36361 45.5372C8.44935 45.4092 9.4739 44.9663 10.3109 44.263L10.9909 62.483C18.1509 73.563 34.3709 73.163 28.5409 61.953V57.813C28.5409 57.813 33.4309 58.583 35.8109 58.203C39.8109 57.563 42.2709 54.303 43.4709 49.833C45.4009 42.653 46.1409 36.833 44.4709 22.733C42.6709 7.25297 25.3909 7.09297 16.0509 13.213C6.71088 19.333 10.3309 36.273 10.3309 36.273Z" fill="#FFA8A7"/>
<path d="M10.3309 38.003C9.83086 38.003 8.60086 34.603 7.33086 33.443C5.62086 31.833 7.17087 17.363 7.17087 17.363C6.7229 16.1014 6.63914 14.7393 6.92917 13.4324C7.2192 12.1255 7.87131 10.9266 8.81087 9.97298C11.1409 7.30298 15.0409 6.97298 21.7009 5.91298C24.3551 5.58569 26.9891 5.11163 29.5909 4.49298C32.2909 3.72298 34.9609 1.93298 37.4809 0.652979C38.2669 0.130903 39.2152 -0.0893035 40.1509 0.0329803C40.5749 0.18195 40.9533 0.437892 41.2493 0.776018C41.5454 1.11414 41.7492 1.523 41.8409 1.96298C42.0175 2.84616 42.0344 3.75383 41.8909 4.64298C43.4409 2.94298 46.4509 3.19298 48.0209 4.86298C48.7696 5.74143 49.2596 6.81062 49.4362 7.95129C49.6128 9.09196 49.469 10.2593 49.0209 11.323C48.0823 13.4363 46.5279 15.2172 44.5609 16.433C36.1909 22.083 26.3209 20.513 16.9509 19.433C16.5076 19.3421 16.0479 19.3732 15.6209 19.523C14.1609 20.183 13.8409 24.743 13.6209 26.053C12.7209 30.463 12.0009 37.973 10.3309 38.003Z" fill="#263238"/>
<path d="M6.99088 17.853L1.99088 13.193C2.26167 12.8335 2.60462 12.5345 2.99771 12.3153C3.39081 12.0961 3.82537 11.9615 4.27354 11.9201C4.72172 11.8786 5.1736 11.9313 5.60022 12.0748C6.02684 12.2182 6.41878 12.4492 6.75089 12.753C7.41912 13.4203 7.81411 14.3132 7.85851 15.2565C7.9029 16.1999 7.59348 17.1258 6.99088 17.853V17.853Z" fill="#263238"/>
<path d="M7.00086 18.033L0.400857 19.853C0.2353 19.4343 0.158833 18.9856 0.176339 18.5357C0.193846 18.0858 0.30495 17.6444 0.502542 17.2398C0.700133 16.8352 0.979886 16.4763 1.32395 16.1858C1.66802 15.8954 2.06885 15.6799 2.50086 15.553C3.42542 15.3232 4.40264 15.451 5.23701 15.9108C6.07137 16.3707 6.70134 17.1286 7.00086 18.033V18.033Z" fill="#263238"/>
<path d="M28.5609 57.853C28.5609 57.853 19.7109 55.993 16.6109 54.283C14.7759 53.2766 13.2876 51.7395 12.3409 49.873C12.8035 51.7484 13.6291 53.515 14.7709 55.073C17.0309 58.073 28.5609 60.303 28.5609 60.303V57.853Z" fill="#F28F8F"/>
<path d="M25.2909 27.073L21.4909 29.253C21.2224 28.711 21.1648 28.0886 21.3293 27.5066C21.4937 26.9246 21.8685 26.4244 22.3809 26.103C22.6326 25.9613 22.9113 25.8738 23.1989 25.8463C23.4865 25.8187 23.7767 25.8517 24.0508 25.9431C24.325 26.0344 24.5769 26.1822 24.7905 26.3768C25.004 26.5714 25.1745 26.8085 25.2909 27.073Z" fill="#263238"/>
<path d="M29.2209 46.733L33.2709 48.313C33.1923 48.592 33.0567 48.8517 32.8728 49.0758C32.6889 49.2998 32.4606 49.4834 32.2023 49.6149C31.944 49.7464 31.6612 49.823 31.3719 49.8399C31.0825 49.8568 30.7927 49.8136 30.5209 49.713C29.9682 49.4718 29.5272 49.0307 29.2861 48.4781C29.045 47.9254 29.0217 47.3021 29.2209 46.733V46.733Z" fill="#F28F8F"/>
<path d="M44.4809 28.723L40.4809 26.783C40.5805 26.5135 40.7354 26.2678 40.9356 26.0617C41.1358 25.8556 41.3769 25.6936 41.6434 25.5863C41.91 25.4789 42.196 25.4285 42.4832 25.4383C42.7703 25.448 43.0523 25.5178 43.3109 25.643C43.8507 25.9224 44.2686 26.3911 44.4845 26.9594C44.7003 27.5277 44.6991 28.1556 44.4809 28.723V28.723Z" fill="#263238"/>
<path d="M42.5709 33.443C42.5437 33.7878 42.4166 34.1171 42.2053 34.3909C41.9939 34.6646 41.7073 34.8708 41.3807 34.9844C41.054 35.0979 40.7013 35.1138 40.3657 35.0301C40.0301 34.9464 39.7262 34.7668 39.4911 34.5131C39.2559 34.2595 39.0998 33.9429 39.0417 33.6019C38.9836 33.261 39.0261 32.9105 39.164 32.5934C39.3019 32.2762 39.5291 32.006 39.8181 31.8159C40.107 31.6259 40.4451 31.5241 40.7909 31.523C41.2808 31.5438 41.7426 31.7572 42.0759 32.1168C42.4093 32.4763 42.5872 32.9529 42.5709 33.443V33.443Z" fill="#263238"/>
<path d="M28.0309 33.773C28.0036 34.1182 27.8763 34.4479 27.6645 34.7219C27.4526 34.9958 27.1655 35.202 26.8383 35.3152C26.511 35.4284 26.1578 35.4437 25.822 35.3592C25.4862 35.2747 25.1824 35.094 24.9476 34.8395C24.7129 34.5849 24.5576 34.2673 24.5006 33.9258C24.4437 33.5842 24.4876 33.2335 24.627 32.9165C24.7663 32.5995 24.9952 32.33 25.2854 32.1411C25.5756 31.9522 25.9146 31.8521 26.2609 31.853C26.749 31.8763 27.2083 32.0909 27.5395 32.4501C27.8707 32.8094 28.0472 33.2846 28.0309 33.773Z" fill="#263238"/>
<path d="M33.2709 32.073L33.4709 43.273L39.8309 41.823L33.2709 32.073Z" fill="#F28F8F"/>
</svg>
