<svg width="76" height="186" viewBox="0 0 76 186" fill="none" xmlns="http://www.w3.org/2000/svg">
<path d="M0.500732 62.6573C1.22182 63.8507 3.18937 62.6573 6.6815 61.2876C10.1736 59.9178 8.74176 44.4661 8.74176 44.4661C8.74176 44.4661 3.23058 44.4661 2.25196 49.6547C1.27334 54.8433 0.500732 62.6573 0.500732 62.6573Z" fill="#263238"/>
<path d="M29.1178 35.5522C32.373 35.5522 39.5427 39.2673 40.6861 41.7785C41.8296 44.2898 46.187 80.5996 43.4263 83.9826C39.9547 88.2165 22.8237 96.539 15.3862 96.3003C9.20541 96.1032 3.33368 90.3957 2.39626 88.7354C0.851072 86.0061 2.77741 48.7935 4.73466 45.6596C7.90745 40.6267 24.987 35.6249 29.1178 35.5522Z" fill="#EAEA67"/>
<path opacity="0.5" d="M29.1178 35.5522C32.373 35.5522 39.5427 39.2673 40.6861 41.7785C41.8296 44.2898 46.187 80.5996 43.4263 83.9826C39.9547 88.2165 22.8237 96.539 15.3862 96.3003C9.20541 96.1032 3.33368 90.3957 2.39626 88.7354C0.851072 86.0061 2.77741 48.7935 4.73466 45.6596C7.90745 40.6267 24.987 35.6249 29.1178 35.5522Z" fill="black"/>
<path d="M2.46827 64.5779C2.56098 63.0214 2.66399 61.4648 2.7773 59.9912C2.7773 59.3997 2.87002 58.8082 2.92152 58.2375C3.01423 57.0752 3.11725 55.9649 3.22026 54.9064C3.22026 54.3875 3.32327 53.8687 3.37478 53.3706C3.45719 52.6338 3.5396 51.9178 3.62201 51.2951C3.70442 50.6725 3.79713 50.0084 3.87954 49.4376L3.97225 48.8876C4.09195 47.8156 4.3661 46.7668 4.78605 45.7745C4.87876 45.6396 4.98178 45.4943 5.09509 45.349C5.12709 45.2963 5.16512 45.2475 5.20841 45.2037L5.45564 44.9132L5.55865 44.716L5.83677 44.4462C5.89858 44.3839 5.9501 44.3217 6.01191 44.2698L6.45486 43.8754L6.7639 43.616L6.98023 43.45L7.34077 43.1802C7.39462 43.1295 7.45327 43.0843 7.51589 43.0453L7.93824 42.7443C10.8535 43.9688 13.604 45.1311 13.6864 45.183C14.7113 45.8974 15.5291 46.8736 16.0559 48.0116C16.5827 49.1495 16.7994 50.4081 16.6841 51.6583V71.9042C16.6841 74.3533 18.7443 96.9652 11.8734 95.668H11.6055C6.98023 94.0181 3.14815 90.1889 2.40646 88.871C2.24125 88.4783 2.14035 88.0612 2.10772 87.6361C2.10772 87.387 2.04591 87.1276 2.01501 86.8267V86.3701C2.01501 85.8823 1.9532 85.3323 1.9326 84.7512C1.9326 84.5644 1.9326 84.3569 1.9326 84.1493C1.85019 81.0362 1.9326 76.7504 2.09742 72.1533C2.09742 71.2401 2.17983 70.3062 2.22103 69.3618L2.31375 67.4836C2.31375 67.1722 2.31375 66.8609 2.31375 66.5496C2.33435 65.8232 2.37555 65.2006 2.46827 64.5779Z" fill="#EAEA67"/>
<path opacity="0.4" d="M2.46827 64.5779C2.56098 63.0214 2.66399 61.4648 2.7773 59.9912C2.7773 59.3997 2.87002 58.8082 2.92152 58.2375C3.01423 57.0752 3.11725 55.9649 3.22026 54.9064C3.22026 54.3875 3.32327 53.8687 3.37478 53.3706C3.45719 52.6338 3.5396 51.9178 3.62201 51.2951C3.70442 50.6725 3.79713 50.0084 3.87954 49.4376L3.97225 48.8876C4.09195 47.8156 4.3661 46.7668 4.78605 45.7745C4.87876 45.6396 4.98178 45.4943 5.09509 45.349C5.12709 45.2963 5.16512 45.2475 5.20841 45.2037L5.45564 44.9132L5.55865 44.716L5.83677 44.4462C5.89858 44.3839 5.9501 44.3217 6.01191 44.2698L6.45486 43.8754L6.7639 43.616L6.98023 43.45L7.34077 43.1802C7.39462 43.1295 7.45327 43.0843 7.51589 43.0453L7.93824 42.7443C10.8535 43.9688 13.604 45.1311 13.6864 45.183C14.7113 45.8974 15.5291 46.8736 16.0559 48.0116C16.5827 49.1495 16.7994 50.4081 16.6841 51.6583V71.9042C16.6841 74.3533 18.7443 96.9652 11.8734 95.668H11.6055C6.98023 94.0181 3.14815 90.1889 2.40646 88.871C2.24125 88.4783 2.14035 88.0612 2.10772 87.6361C2.10772 87.387 2.04591 87.1276 2.01501 86.8267V86.3701C2.01501 85.8823 1.9532 85.3323 1.9326 84.7512C1.9326 84.5644 1.9326 84.3569 1.9326 84.1493C1.85019 81.0362 1.9326 76.7504 2.09742 72.1533C2.09742 71.2401 2.17983 70.3062 2.22103 69.3618L2.31375 67.4836C2.31375 67.1722 2.31375 66.8609 2.31375 66.5496C2.33435 65.8232 2.37555 65.2006 2.46827 64.5779Z" fill="black"/>
<path opacity="0.5" d="M4.11646 47.7563C4.22156 47.038 4.42976 46.3389 4.73454 45.6809C7.90733 40.6064 24.9868 35.6046 29.1176 35.532C32.3728 35.532 39.5425 39.247 40.686 41.7583C41.0266 42.8413 41.2714 43.9526 41.4174 45.079C34.9276 48.545 18.1777 56.2552 16.4574 55.6222C14.3353 54.8439 4.31218 48.0054 4.09586 47.7044L4.11646 47.7563Z" fill="black"/>
<path d="M1.05705 71.9147C1.25278 71.8109 4.14745 69.6836 4.43589 69.5175C5.02306 69.2166 13.4289 75.0071 14.2015 75.9825C14.7475 76.6674 13.8513 87.1588 13.5113 87.9059C13.398 88.1757 10.2561 90.0436 10.1428 90.303C9.80286 91.0502 0.871631 85.1663 0.377174 83.755C-0.117287 82.3437 0.202048 72.3505 1.05705 71.9147Z" fill="#EAEA67"/>
<path opacity="0.18" d="M1.05705 71.9147C1.25278 71.8109 4.14745 69.6836 4.43589 69.5175C5.02306 69.2166 13.4289 75.0071 14.2015 75.9825C14.7475 76.6674 13.8513 87.1588 13.5113 87.9059C13.398 88.1757 10.2561 90.0436 10.1428 90.303C9.80286 91.0502 0.871631 85.1663 0.377174 83.755C-0.117287 82.3437 0.202048 72.3505 1.05705 71.9147Z" fill="black"/>
<path d="M10.8227 78.3791C11.3687 79.064 10.4724 89.5554 10.1428 90.3025C9.81316 91.0497 0.871631 85.1658 0.377174 83.7545C-0.117287 82.3432 0.202048 72.3396 1.05705 71.9141C1.64423 71.6132 10.0501 77.4037 10.8227 78.3791Z" fill="#EAEA67"/>
<path opacity="0.4" d="M4.43588 69.5175C4.10624 69.6732 1.25278 71.8212 1.06735 71.9146C1.64422 71.6241 10.0501 77.4042 10.8227 78.3796L14.2015 75.9825C13.4289 74.9967 5.02305 69.2166 4.43588 69.5175Z" fill="black"/>
<path opacity="0.3" d="M10.8227 78.3791C11.3687 79.064 10.4724 89.5554 10.1428 90.3025C9.81316 91.0497 0.871631 85.1658 0.377174 83.7545C-0.117287 82.3432 0.202048 72.3396 1.05705 71.9141C1.64423 71.6132 10.0501 77.4037 10.8227 78.3791Z" fill="black"/>
<path d="M14.2015 75.9819C13.5834 75.5668 11.6983 76.563 10.8845 77.2583C10.0707 77.9536 9.16422 81.2431 7.07306 81.7516C4.9819 82.2601 2.04603 79.4583 1.42795 77.6734C0.809872 75.8885 0.109389 72.1216 1.12921 70.7933C1.57682 70.1087 2.25276 69.6079 3.03489 69.3814C3.81702 69.155 4.65376 69.2177 5.39394 69.5584C6.87733 70.3678 14.0367 74.3423 14.2015 75.9819Z" fill="#EAEA67"/>
<path opacity="0.1" d="M14.2015 75.9819C13.5834 75.5668 11.6983 76.563 10.8845 77.2583C10.0707 77.9536 9.16422 81.2431 7.07306 81.7516C4.9819 82.2601 2.04603 79.4583 1.42795 77.6734C0.809872 75.8885 0.109389 72.1216 1.12921 70.7933C1.57682 70.1087 2.25276 69.6079 3.03489 69.3814C3.81702 69.155 4.65376 69.2177 5.39394 69.5584C6.87733 70.3678 14.0367 74.3423 14.2015 75.9819Z" fill="black"/>
<path d="M4.77587 77.383C5.01528 77.5362 5.20824 77.7527 5.33362 78.009C5.45899 78.2653 5.51194 78.5513 5.48666 78.8358C5.49056 78.9503 5.46355 79.0637 5.40852 79.1639C5.35349 79.2641 5.2725 79.3474 5.17419 79.4049C5.07586 79.4625 4.9639 79.492 4.85021 79.4905C4.73653 79.489 4.6254 79.4564 4.52864 79.3962C4.28588 79.244 4.09049 79.0261 3.96481 78.7674C3.83912 78.5086 3.7882 78.2195 3.81785 77.933C3.81226 77.8181 3.83839 77.7039 3.89335 77.603C3.94831 77.5021 4.02992 77.4186 4.12915 77.3616C4.2284 77.3047 4.34137 77.2764 4.45553 77.2803C4.56969 77.284 4.68057 77.3196 4.77587 77.383Z" fill="#37474F"/>
<path d="M16.6841 55.7156C15.5591 52.5364 13.3012 49.8919 10.3488 48.296C5.19817 45.1828 4.99215 46.2205 3.30274 49.1054C1.78845 51.7412 1.12916 61.558 1.04675 62.5957C0.964344 63.6335 -0.148189 63.3533 0.0166316 57.3137C0.181452 51.2742 1.10856 45.5149 6.71246 41.9762C14.2736 37.2027 25.9346 34.1311 31.4355 35.366C36.9364 36.6008 41.8295 39.4131 41.3969 45.1828C41.4175 45.1413 34.2478 54.6676 16.6841 55.7156Z" fill="#37474F"/>
<path d="M19.7539 80.32C19.1358 84.7303 19.0843 89.2341 18.8062 93.8104C18.219 103.285 17.776 110.414 16.7459 122.006C15.0928 127.075 13.8965 132.284 13.1714 137.572C12.337 143.424 12.0485 153.189 10.3591 159.613L10.0913 160.65C10.6372 165.102 16.3751 167.022 17.3846 164.459C17.3846 164.459 27.3356 139.253 30.529 131.034C33.3604 123.552 35.687 115.886 37.4927 108.09L40.0371 125.544C40.0371 125.544 38.9349 130.1 39.9341 138.142C40.717 144.452 44.0546 155.68 43.7765 162.757C43.9323 163.672 44.3721 164.516 45.0327 165.165C45.6933 165.813 46.541 166.234 47.454 166.368C50.0396 166.898 52.3162 164.189 52.3677 163.815C52.4913 162.923 54.5928 135.444 55.1491 128.886C56.3852 114.462 55.9732 90.4897 54.8297 80.32H19.7539Z" fill="#FFA8A7"/>
<path d="M56.2721 115.145C56.2721 108.234 55.9219 87.7084 55.1596 80.0293H19.548L16.3237 121.631C15.2843 124.708 14.4413 127.848 13.7999 131.033C12.6462 136.543 11.5439 149.712 11.5439 149.712C11.5439 149.712 12.4093 151.953 15.8396 153.178C17.9116 153.899 20.1812 153.777 22.1646 152.835C22.1646 152.835 26.4293 141.846 27.4388 139.542C28.8089 136.429 30.6528 131.77 32.5895 126.28C34.5261 120.791 37.2972 110.808 37.2972 110.808L39.6561 125.512C38.9454 129.373 39.1411 136.367 40.0785 141.846C41.0159 147.325 42.2109 153.676 42.2109 153.676C42.2109 153.676 44.1784 154.828 48.3092 154.714C52.44 154.6 53.6041 153.012 53.6041 153.012C53.6041 153.012 55.4789 132.88 55.8807 125.595C56.2824 118.31 56.2721 115.145 56.2721 115.145Z" fill="#455A64"/>
<path d="M37.2764 110.84C38.595 105.537 40.3668 96.9755 40.3668 96.9755C40.3668 96.9755 45.7853 97.0274 48.6078 93.2916C47.0214 97.2868 41.912 98.8746 41.912 98.8746L38.904 111.826L39.6457 125.544L37.2764 110.84Z" fill="#37474F"/>
<path d="M66.6351 177.285C66.7758 177.728 66.7947 178.201 66.6894 178.655C66.5842 179.107 66.3589 179.524 66.0377 179.859C63.6337 181.397 60.7287 181.929 57.9408 181.343C53.9852 180.647 52.9138 179.796 51.3789 178.385C49.844 176.974 48.4431 175.5 46.6609 175.023C44.8788 174.546 42.4889 173.788 41.9739 173.238C41.4588 172.688 41.6339 170.384 41.6339 170.384L66.6351 177.285Z" fill="#263238"/>
<path d="M43.591 160.421C43.4351 160.418 43.2825 160.467 43.1574 160.561C43.0324 160.656 42.9422 160.789 42.9008 160.94C42.7463 161.573 42.53 163.42 42.221 164.458C41.7578 166.667 41.5743 168.926 41.675 171.182C41.8398 172.386 45.2701 173.258 46.9801 174.015C48.7405 174.834 50.3444 175.958 51.7187 177.336C53.7303 179.113 56.2618 180.18 58.9296 180.377C62.02 180.48 65.4915 179.64 66.3466 178.239C67.3767 176.506 67.6239 174.804 63.1635 172.479C62.3188 172.044 59.7331 170.352 58.7339 169.657C57.6199 168.911 56.5844 168.052 55.6435 167.094C54.9918 166.445 54.4147 165.725 53.9232 164.946C53.6972 164.495 53.5276 164.017 53.4184 163.524C53.2728 163.019 53.1525 162.506 53.0579 161.988C53.0538 161.841 53.0185 161.697 52.9546 161.564C52.8906 161.432 52.7994 161.315 52.6871 161.22C52.5039 161.134 52.2983 161.109 52.0999 161.148C51.0546 161.231 50.0197 161.415 49.0095 161.698C48.6082 161.781 48.2457 161.996 47.9794 162.31C47.8188 162.564 47.7364 162.86 47.7424 163.161C47.7389 163.456 47.7148 163.751 47.6703 164.043C47.6595 164.151 47.6164 164.251 47.5467 164.333C47.3819 164.489 47.145 164.333 47.0111 164.219C46.5835 163.739 46.1943 163.225 45.847 162.683C45.6513 162.403 44.6933 162.196 44.4254 161.967C44.165 161.802 43.914 161.622 43.6734 161.428C43.4365 161.137 43.591 160.784 43.591 160.421Z" fill="#37474F"/>
<path d="M51.7189 177.337C51.0686 176.72 50.3805 176.145 49.6587 175.614C49.6587 175.614 54.4282 177.763 56.6532 176.372C57.0632 176.129 57.3713 175.745 57.5194 175.29C57.6673 174.835 57.645 174.341 57.4567 173.902C57.4567 173.529 60.9386 172.086 62.3086 171.982C62.5884 172.166 62.8772 172.335 63.1739 172.491C67.6344 174.815 67.4181 176.517 66.357 178.25C65.502 179.651 62.9576 180.658 58.9916 180.481C56.2954 180.246 53.7457 179.144 51.7189 177.337Z" fill="#455A64"/>
<path d="M57.1476 172.791C59.929 174.057 58.7031 174.534 57.8996 174.617C57.0961 174.7 53.2126 172.199 50.4106 169.761C47.6087 167.322 44.9509 164.572 43.8693 163.607C43.4572 163.254 43.0246 162.829 42.6434 162.434C42.7464 161.801 42.8289 161.241 42.901 160.94C43.0246 160.411 43.6633 160.276 43.6633 160.276L43.7457 161.314C43.9549 161.558 44.2152 161.754 44.508 161.884C45.0181 162.045 45.4862 162.318 45.878 162.683C46.2253 163.226 46.6145 163.74 47.0421 164.219C49.7917 167.744 53.2315 170.662 57.1476 172.791Z" fill="#263238"/>
<path d="M57.7142 174.181C57.6533 174.183 57.5943 174.161 57.5493 174.119C57.5223 174.093 57.5006 174.062 57.4859 174.027C57.4712 173.992 57.4635 173.955 57.4635 173.917C57.4635 173.879 57.4712 173.842 57.4859 173.807C57.5006 173.772 57.5223 173.74 57.5493 173.714C58.2492 173.05 59.0816 172.544 59.9911 172.228C60.9005 171.914 61.8661 171.798 62.8236 171.888C62.8603 171.893 62.8956 171.906 62.9274 171.924C62.9594 171.944 62.9871 171.969 63.0092 171.999C63.0313 172.029 63.0471 172.063 63.056 172.1C63.0648 172.135 63.0663 172.173 63.0605 172.21C63.0479 172.282 63.0073 172.348 62.9475 172.39C62.8877 172.433 62.8135 172.45 62.7412 172.438C61.8762 172.366 61.0057 172.476 60.1849 172.76C59.364 173.044 58.6105 173.496 57.9717 174.088C57.9418 174.126 57.9017 174.155 57.8562 174.172C57.8107 174.189 57.7614 174.192 57.7142 174.181Z" fill="#F0F0F0"/>
<path d="M55.3036 172.677C55.2388 172.672 55.1771 172.648 55.1285 172.604C55.0769 172.551 55.0479 172.48 55.0479 172.407C55.0479 172.333 55.0769 172.263 55.1285 172.21C55.8107 171.525 56.631 170.997 57.5341 170.66C58.4371 170.323 59.4014 170.186 60.3616 170.259C60.3978 170.263 60.4329 170.273 60.4648 170.292C60.4966 170.31 60.5244 170.333 60.5467 170.362C60.5688 170.393 60.5849 170.426 60.5937 170.461C60.6027 170.496 60.6043 170.534 60.5985 170.57C60.5882 170.644 60.5505 170.71 60.4931 170.757C60.4356 170.802 60.3628 170.825 60.2894 170.819C59.4233 170.761 58.5545 170.887 57.7399 171.189C56.9251 171.491 56.1828 171.963 55.5612 172.573C55.5304 172.61 55.4906 172.64 55.4456 172.658C55.4006 172.677 55.3517 172.683 55.3036 172.677Z" fill="#F0F0F0"/>
<path d="M53.0889 170.975C53.0564 170.976 53.024 170.97 52.9938 170.957C52.9638 170.945 52.9365 170.926 52.9138 170.902C52.8622 170.849 52.8333 170.779 52.8333 170.705C52.8333 170.631 52.8622 170.56 52.9138 170.508C53.6116 169.839 54.4434 169.33 55.3533 169.013C56.2631 168.696 57.2297 168.58 58.1881 168.671C58.261 168.683 58.3263 168.724 58.3704 168.784C58.4145 168.844 58.4341 168.919 58.425 168.993C58.4199 169.03 58.4077 169.065 58.3888 169.097C58.37 169.13 58.345 169.158 58.3152 169.179C58.2854 169.202 58.2516 169.218 58.2156 169.227C58.1796 169.235 58.1422 169.238 58.1057 169.231C57.2406 169.159 56.3699 169.268 55.5488 169.551C54.7278 169.835 53.9742 170.288 53.3362 170.881C53.3059 170.917 53.2675 170.943 53.2243 170.959C53.1811 170.976 53.1346 170.981 53.0889 170.975Z" fill="#F0F0F0"/>
<path d="M51.1316 169.439C51.0679 169.439 51.0061 169.417 50.9565 169.377C50.9073 169.324 50.8799 169.253 50.8799 169.179C50.8799 169.107 50.9073 169.036 50.9565 168.982C51.62 168.289 52.4223 167.744 53.3103 167.387C54.1983 167.029 55.1516 166.865 56.1071 166.907C56.1809 166.915 56.2484 166.953 56.2948 167.012C56.3411 167.07 56.3625 167.145 56.3543 167.218C56.3462 167.293 56.309 167.36 56.251 167.407C56.1931 167.454 56.119 167.476 56.0453 167.467C55.1784 167.428 54.313 167.573 53.5054 167.894C52.6979 168.213 51.9663 168.701 51.3582 169.325C51.3302 169.359 51.2956 169.386 51.2566 169.406C51.2177 169.425 51.1751 169.437 51.1316 169.439Z" fill="#F0F0F0"/>
<path d="M49.0405 167.644C48.9768 167.644 48.9149 167.622 48.8654 167.581C48.8386 167.557 48.8172 167.526 48.8025 167.492C48.7879 167.458 48.7804 167.422 48.7804 167.384C48.7804 167.348 48.7879 167.311 48.8025 167.277C48.8172 167.243 48.8386 167.213 48.8654 167.187C49.5912 166.427 50.4802 165.845 51.4642 165.485C52.4481 165.126 53.5008 164.999 54.5414 165.112C54.5786 165.115 54.6148 165.125 54.6479 165.142C54.6809 165.159 54.71 165.183 54.7332 165.212C54.7565 165.242 54.7735 165.276 54.783 165.312C54.7925 165.348 54.7945 165.387 54.7886 165.423C54.7784 165.497 54.7407 165.563 54.6832 165.61C54.6258 165.656 54.5529 165.678 54.4796 165.672C53.5389 165.577 52.5889 165.693 51.6981 166.012C50.8075 166.332 49.9982 166.847 49.3289 167.519C49.3012 167.569 49.258 167.608 49.2057 167.631C49.1536 167.654 49.0955 167.658 49.0405 167.644Z" fill="#F0F0F0"/>
<path d="M16.4782 177.741C16.2165 179.932 15.3771 182.015 14.0471 183.77C13.4128 184.475 12.5753 184.964 11.6517 185.167C10.7282 185.37 9.76484 185.277 8.89642 184.901C6.98038 184.216 4.61109 182.701 4.34325 180.273C4.09835 178.062 4.37725 175.826 5.15705 173.745L16.4782 177.741Z" fill="#263238"/>
<path d="M10.7093 157.827C9.99853 157.962 8.89633 161.459 7.96921 165.091C6.93908 168.982 6.07378 170.103 5.21877 173.289C4.18864 176.942 4.36377 178.208 5.46601 180.553C6.56825 182.898 11.1626 185.638 13.9748 182.691C16.2617 180.283 16.5811 177.793 16.8695 174.088C17.0652 171.135 17.4403 168.196 17.9923 165.288C18.5074 162.528 19.8466 160.099 19.177 159.757C19.0637 160.162 17.9511 163.078 17.4464 162.683C17.2094 162.611 17.2094 162.216 17.3536 161.5C17.4 161.349 17.4139 161.189 17.3943 161.031C17.3749 160.874 17.3223 160.723 17.2403 160.587C17.0124 160.341 16.7131 160.174 16.3853 160.11C15.6024 159.882 14.5311 159.529 13.7276 159.383C13.2537 159.29 13.5216 159.311 13.0477 159.238C12.4679 159.078 11.8628 159.032 11.2656 159.103C10.9875 159.197 10.9359 159.435 10.8432 159.684C10.7505 159.933 10.6372 160.297 10.5239 160.546C10.4106 160.795 10.2973 160.836 10.184 160.815C10.0706 160.795 9.99853 160.307 10.0397 160.099C10.0809 159.892 10.1118 159.549 10.1531 159.3C10.1943 159.051 10.5548 158.512 10.7093 157.827Z" fill="#37474F"/>
<path d="M5.55866 172.095C5.41444 172.625 4.60064 175.914 5.55866 176.661C6.51668 177.409 7.5365 174.752 7.5365 174.752C9.725 174.564 11.9166 175.076 13.7997 176.215C13.5318 176.776 13.8821 178.727 14.9637 178.436C16.0453 178.145 16.8385 174.534 16.8488 174.482C16.5604 178.042 16.1999 180.428 13.9851 182.784C11.1728 185.731 6.56818 183.033 5.47624 180.646C4.38431 178.26 4.2504 177.004 5.22902 173.382C5.32173 172.978 5.43505 172.428 5.55866 172.095Z" fill="#455A64"/>
<path d="M7.77351 175.011C7.59838 176.35 6.38282 175.759 6.42403 173.86C6.48584 171.006 7.56747 168.391 7.96922 165.143C8.89634 161.5 9.8853 157.879 10.7094 157.879C10.5961 158.512 10.2149 159.954 10.2149 159.954C10.2149 160.224 9.96771 160.836 9.96771 160.836C9.37019 163.565 8.19585 166.71 7.90741 169.563C7.74259 172.064 7.95893 173.683 7.77351 175.011Z" fill="#263238"/>
<path d="M13.3569 176.132C13.9891 174.827 14.4995 173.465 14.8815 172.064C15.4686 169.615 17.1168 165.35 17.9718 162.725C18.353 161.687 19.1359 159.882 19.1462 159.85C19.62 160.141 19.4655 161.542 18.8474 163.171C18.2294 164.8 17.8173 165.797 17.3847 167.322C16.2927 170.435 15.7674 173.808 15.0772 175.624C14.387 177.44 12.9242 177.419 13.3569 176.132Z" fill="#263238"/>
<path d="M13.6659 176.236H13.5629C11.688 175.165 9.52352 174.722 7.38213 174.97C7.30457 174.982 7.2252 174.965 7.16014 174.92C7.09508 174.877 7.04922 174.809 7.03188 174.731C7.0276 174.693 7.03088 174.655 7.04155 174.618C7.0522 174.581 7.07002 174.547 7.09397 174.516C7.11793 174.486 7.14754 174.462 7.18109 174.444C7.21464 174.425 7.25146 174.414 7.28942 174.41C9.5841 174.125 11.9086 174.598 13.9131 175.759C13.9459 175.777 13.9743 175.803 13.9966 175.834C14.0188 175.864 14.0344 175.9 14.0421 175.937C14.05 175.974 14.0497 176.013 14.0417 176.05C14.0338 176.088 14.018 176.123 13.9956 176.153C13.9532 176.196 13.9003 176.227 13.8422 176.241C13.7841 176.256 13.7232 176.254 13.6659 176.236Z" fill="#F0F0F0"/>
<path d="M14.8301 173.662H14.7374C12.5246 172.478 10.0263 171.942 7.52643 172.116C7.44902 172.126 7.37098 172.106 7.30795 172.059C7.2449 172.013 7.20151 171.945 7.18647 171.867C7.18347 171.788 7.21057 171.71 7.26225 171.651C7.31393 171.591 7.38631 171.554 7.46461 171.545C10.1012 171.346 12.7392 171.912 15.067 173.175C15.1006 173.193 15.1299 173.218 15.1532 173.248C15.1765 173.278 15.1931 173.314 15.2018 173.351C15.2106 173.388 15.2114 173.427 15.2041 173.465C15.1968 173.503 15.1817 173.538 15.1597 173.569C15.12 173.616 15.0675 173.65 15.0089 173.667C14.9502 173.683 14.888 173.682 14.8301 173.662Z" fill="#F0F0F0"/>
<path d="M7.3616 169.864C7.30562 169.855 7.25359 169.829 7.21162 169.791C7.16965 169.752 7.13949 169.702 7.12466 169.646C7.11275 169.571 7.13095 169.494 7.17532 169.432C7.21969 169.369 7.28663 169.328 7.3616 169.314C11.1628 168.526 15.7572 170.632 15.9014 170.726C15.9333 170.745 15.9608 170.772 15.9821 170.804C16.0033 170.835 16.0177 170.87 16.0245 170.907C16.0313 170.945 16.0303 170.982 16.0215 171.019C16.0127 171.056 15.9964 171.09 15.9735 171.12C15.926 171.185 15.8556 171.229 15.7768 171.242C15.698 171.256 15.6172 171.238 15.5511 171.193C15.5511 171.193 11.0186 169.117 7.4955 169.864H7.3616Z" fill="#F0F0F0"/>
<path d="M8.25779 167.531C8.2035 167.52 8.15287 167.495 8.11121 167.459C8.06954 167.423 8.03834 167.376 8.02086 167.323C8.01335 167.286 8.01327 167.246 8.02061 167.209C8.02794 167.172 8.04256 167.136 8.06361 167.104C8.08467 167.072 8.11174 167.045 8.14329 167.024C8.17486 167.002 8.21026 166.988 8.24749 166.981C12.4298 166.047 16.2927 168.537 16.4267 168.631C16.4539 168.656 16.4754 168.688 16.4901 168.723C16.5048 168.757 16.5125 168.795 16.5125 168.833C16.5125 168.87 16.5048 168.908 16.4901 168.943C16.4754 168.977 16.4539 169.009 16.4267 169.035C16.3749 169.094 16.3032 169.133 16.2254 169.142C16.1475 169.152 16.0688 169.132 16.0043 169.087C16.0043 169.087 12.2237 166.659 8.34019 167.531H8.25779Z" fill="#F0F0F0"/>
<path d="M8.86544 164.634C8.81213 164.625 8.7626 164.6 8.72252 164.564C8.68244 164.527 8.65343 164.48 8.63881 164.427C8.62972 164.39 8.62818 164.352 8.63425 164.315C8.6403 164.277 8.65387 164.241 8.67409 164.209C8.69432 164.177 8.72081 164.15 8.75193 164.128C8.78305 164.107 8.81816 164.092 8.85514 164.084C12.7902 163.15 16.9417 165.724 17.0962 165.828C17.1274 165.848 17.1539 165.875 17.1742 165.908C17.1943 165.939 17.2078 165.974 17.2136 166.011C17.2195 166.049 17.2175 166.086 17.2079 166.122C17.1984 166.159 17.1814 166.193 17.158 166.222C17.1059 166.284 17.033 166.325 16.9534 166.336C16.8737 166.348 16.7925 166.329 16.7253 166.284C16.7253 166.284 12.6048 163.763 9.01996 164.634H8.86544Z" fill="#EBEBEB"/>
<path d="M19.8569 64.9406C19.8569 61.1322 19.0328 50.9626 18.9916 49.323C18.8989 46.0334 20.0217 42.3599 21.8554 41.7788L28.7366 40.2118C28.7366 40.2118 41.5411 39.1741 43.3748 39.0807C46.8154 38.8939 51.3376 40.7929 51.3376 40.7929C53.4803 42.7335 53.7894 46.4485 54.1087 55.6946C54.2117 58.6832 55.5715 76.5424 55.5715 85.3733C48.8035 91.4648 27.7065 91.5478 18.9813 85.5082C18.9504 85.5082 19.7745 72.8481 19.8569 64.9406Z" fill="#EAEA67"/>
<path d="M31.724 33.4252C30.6424 30.4677 27.1605 28.1743 25.3784 23.5357C22.937 17.2056 21.6287 9.59921 28.613 6.61058C28.9839 4.20307 32.9498 1.49462 36.2978 1.03803C38.6648 0.723194 41.0704 0.885445 43.3747 1.51537C45.9565 2.24084 48.6448 2.50426 51.317 2.29366C52.3783 2.07266 53.4803 2.16639 54.4898 2.56348C54.9389 2.85099 55.3066 3.25041 55.5574 3.7231C55.8083 4.19578 55.9338 4.72569 55.9217 5.26154C55.8737 6.3386 55.4838 7.3717 54.8092 8.20868C55.3659 8.36077 55.8564 8.6961 56.2022 9.16134C56.548 9.62657 56.7294 10.195 56.7176 10.776C56.7057 11.3572 56.5014 11.9175 56.1368 12.3681C55.7723 12.8187 55.2687 13.1334 54.7061 13.2624C54.9495 13.8522 55.0068 14.503 54.8705 15.1268C54.7341 15.7505 54.4106 16.3168 53.9439 16.7492C52.9914 17.6028 51.7768 18.1011 50.5032 18.1605C50.5032 18.1605 49.7512 20.682 49.6379 20.9103C49.2016 21.8128 48.6396 22.648 47.9691 23.3905C47.2999 24.1336 46.5259 24.7734 45.6719 25.2895C44.6864 25.7704 43.6496 26.136 42.5815 26.3791C41.9445 26.5428 41.3239 26.7651 40.7273 27.0432C40.348 27.3511 40.0027 27.699 39.6972 28.0809L33.7636 33.861C33.2589 34.3384 32.2391 33.4148 31.724 33.4252Z" fill="#263238"/>
<path d="M31.487 23.9612C31.4407 24.0119 31.3889 24.0572 31.3324 24.0961C30.4671 24.6565 30.4774 23.1517 29.6327 22.1555C29.4004 21.9011 29.1136 21.7035 28.7941 21.5777C28.4746 21.4518 28.1308 21.4009 27.7888 21.4292C27.2287 21.4108 26.6758 21.5609 26.2006 21.8603C25.7255 22.1597 25.3496 22.5948 25.1208 23.1102C24.9231 23.637 24.8319 24.1984 24.8527 24.7612C24.8736 25.324 25.006 25.877 25.2421 26.3876C25.4782 26.898 25.8133 27.3559 26.2276 27.734C26.6421 28.1122 27.1272 28.4029 27.6549 28.5894C28.2721 28.8364 28.9477 28.8953 29.5979 28.7588C30.248 28.6223 30.8441 28.2964 31.3118 27.8215L31.6518 39.2364C31.6518 39.2364 32.0947 40.3364 34.4743 41.4468C36.8539 42.5571 39.625 42.1005 42.3445 44.975C43.7146 41.1666 45.4349 41.8619 44.1472 38.4789V36.1233C45.6389 36.1344 47.1231 35.9102 48.5459 35.4591C49.9623 34.9345 51.2132 34.0368 52.168 32.8595C53.1228 31.6824 53.7468 30.2686 53.9747 28.7658C54.3558 26.597 53.6862 24.6772 53.6862 22.4773C53.6862 21.1697 53.7583 19.1047 53.6862 18.2537C53.6347 17.216 53.1506 13.0651 52.0071 11.6746C50.2868 14.5595 42.3239 15.3688 36.4934 13.0131C36.5387 14.5752 36.1839 16.1227 35.4633 17.5066C34.5789 18.9139 33.333 20.0542 31.8578 20.8065C32.0535 21.6144 32.0535 22.458 31.8578 23.2659C31.796 23.5261 31.6683 23.7656 31.487 23.9612Z" fill="#FFA8A7"/>
<path d="M41.0261 18.5445L37.9358 19.7794C37.782 19.3444 37.8038 18.8659 37.9964 18.4467C38.189 18.0277 38.5371 17.7013 38.9659 17.5379C39.3718 17.4013 39.8145 17.4302 40.1996 17.6183C40.5846 17.8065 40.8813 18.1389 41.0261 18.5445Z" fill="#263238"/>
<path d="M41.2013 29.1496L44.2917 30.3534C44.1196 30.7758 43.7916 31.1146 43.3766 31.2985C42.9616 31.4824 42.4921 31.4969 42.0666 31.3392C41.8647 31.2555 41.6816 31.132 41.5282 30.9756C41.3747 30.8193 41.254 30.6334 41.1732 30.4291C41.0925 30.2249 41.0534 30.0063 41.0582 29.7865C41.0631 29.5667 41.1117 29.3501 41.2013 29.1496Z" fill="#F28F8F"/>
<path d="M39.4191 22.2391C39.4402 22.5109 39.5406 22.7703 39.7079 22.9847C39.8752 23.199 40.1018 23.3587 40.359 23.4435C40.6162 23.5283 40.8926 23.5344 41.1532 23.4611C41.4139 23.3879 41.6473 23.2384 41.8237 23.0317C42.0002 22.825 42.112 22.5703 42.1449 22.2997C42.1779 22.0291 42.1305 21.7547 42.0088 21.5111C41.8871 21.2677 41.6966 21.0659 41.4612 20.9314C41.2258 20.7968 40.9561 20.7355 40.6861 20.7552C40.3234 20.7843 39.9868 20.9566 39.7496 21.2345C39.5123 21.5124 39.3935 21.8734 39.4191 22.2391Z" fill="#263238"/>
<path d="M49.0198 21.5744C49.0409 21.8462 49.1413 22.1056 49.3086 22.32C49.4759 22.5343 49.7024 22.6939 49.9597 22.7786C50.2169 22.8635 50.4933 22.8697 50.754 22.7964C51.0146 22.723 51.2479 22.5737 51.4244 22.367C51.601 22.1603 51.7126 21.9055 51.7456 21.635C51.7786 21.3643 51.7312 21.09 51.6095 20.8464C51.4879 20.6029 51.2973 20.4011 51.0619 20.2665C50.8265 20.132 50.5568 20.0707 50.2868 20.0904C49.9241 20.1196 49.5876 20.2919 49.3502 20.5698C49.113 20.8477 48.9942 21.2087 49.0198 21.5744Z" fill="#263238"/>
<path d="M52.1102 18.9909L48.958 17.7353C49.0235 17.5214 49.1321 17.3234 49.2769 17.1537C49.4217 16.9839 49.5997 16.8461 49.7998 16.7487C49.9999 16.6513 50.2177 16.5965 50.4398 16.5878C50.6618 16.579 50.8833 16.6163 51.0903 16.6976C51.5244 16.8694 51.8743 17.2057 52.0649 17.6345C52.2556 18.0633 52.2719 18.5503 52.1102 18.9909Z" fill="#263238"/>
<path d="M45.703 19.2396L46.5786 26.7008L50.0295 25.4659L45.703 19.2396Z" fill="#F28F8F"/>
<path d="M44.1267 36.165C41.247 35.9003 38.447 35.0681 35.8857 33.716C34.4843 32.7682 33.4056 31.4098 32.7953 29.8245C33.1152 31.2929 33.7478 32.6738 34.6495 33.8716C37.9872 37.5037 44.0855 37.7735 44.0855 37.7735L44.1267 36.165Z" fill="#F28F8F"/>
<path d="M32.4347 23.9609C35.2733 25.1683 38.4071 25.4865 41.4277 24.8741C44.5181 24.0647 46.2694 22.7986 47.6086 22.7986C48.7841 23.3496 50.0335 23.7237 51.3169 23.909C52.1333 23.997 52.9568 23.8305 53.676 23.4317C53.676 23.4317 54.8297 28.1118 53.5729 30.6957C52.8434 32.3217 51.6714 33.7061 50.1929 34.6887C48.7142 35.6712 46.9896 36.2117 45.2186 36.2475C42.0561 36.3305 35.5457 35.5834 32.857 30.6957C32.7746 30.5815 32.4347 23.9609 32.4347 23.9609Z" fill="#EAEA67"/>
<path opacity="0.55" d="M32.4347 23.9609C35.2733 25.1683 38.4071 25.4865 41.4277 24.8741C44.5181 24.0647 46.2694 22.7986 47.6086 22.7986C48.7841 23.3496 50.0335 23.7237 51.3169 23.909C52.1333 23.997 52.9568 23.8305 53.676 23.4317C53.676 23.4317 54.8297 28.1118 53.5729 30.6957C52.8434 32.3217 51.6714 33.7061 50.1929 34.6887C48.7142 35.6712 46.9896 36.2117 45.2186 36.2475C42.0561 36.3305 35.5457 35.5834 32.857 30.6957C32.7746 30.5815 32.4347 23.9609 32.4347 23.9609Z" fill="white"/>
<path d="M53.7172 23.4317C52.9657 23.7473 52.1432 23.8514 51.3376 23.7326C49.4525 23.4109 48.6181 22.7986 47.6498 22.7986C46.2694 22.7986 44.477 24.0543 41.469 24.8741C38.4484 25.4865 35.3145 25.1683 32.476 23.9609C32.476 23.9609 32.8159 30.5919 32.888 30.7476C33.2858 31.449 33.7781 32.0916 34.3508 32.657C33.977 32.2139 33.7438 31.668 33.6812 31.09C33.6297 30.1976 33.2898 25.2788 33.2898 25.2788C34.3654 25.599 35.4641 25.8349 36.5759 25.9844C39.3859 26.27 42.2218 25.8309 44.8169 24.708C45.5773 24.3879 46.3585 24.1209 47.1553 23.909C47.9849 23.7446 48.8441 23.8275 49.6276 24.1477C51.0151 24.7321 52.5692 24.7728 53.9851 24.2618C53.8099 23.8364 53.7172 23.4317 53.7172 23.4317Z" fill="white"/>
<path d="M32.4347 23.9616C31.6219 23.3935 30.756 22.907 29.8491 22.5088C30.1423 23.0201 30.3938 23.5545 30.6011 24.1069L32.6613 25.2795L32.4347 23.9616Z" fill="white"/>
<path d="M31.312 27.8626C31.7541 28.6376 32.3504 29.3123 33.0632 29.8446C33.0632 29.8446 32.8572 30.8201 32.8469 30.7371C31.9631 30.1032 31.1845 29.3327 30.5394 28.4541C30.8263 28.2992 31.087 28.0995 31.312 27.8626Z" fill="white"/>
<path d="M51.3687 40.2017C56.7253 40.7206 58.9607 42.1734 61.9893 47.061C64.204 50.6204 70.0552 60.6552 70.0552 60.6552C70.0552 60.6552 71.0853 65.989 64.5337 64.7542C57.9821 63.5193 55.4377 61.091 55.4377 61.091L51.3687 40.2017Z" fill="#FFA8A7"/>
<path d="M67.0162 64.4321C65.1311 63.6019 61.7728 61.983 60.8354 61.0076C59.898 60.0321 59.9392 54.8435 57.436 54.6152L57.0652 62.3566L63.7198 67.348L67.0162 64.4321Z" fill="#F28F8F"/>
<path d="M51.2655 39.9321C54.737 40.3783 57.5596 40.7312 60.001 43.8028C62.4424 46.8745 67.3561 55.2177 67.3561 55.2177C67.3561 55.2177 64.5644 61.2261 55.4787 60.6139L51.2655 39.9321Z" fill="#EAEA67"/>
<path opacity="0.4" d="M51.2655 39.9321C54.737 40.3783 57.5596 40.7312 60.001 43.8028C62.4424 46.8745 67.3561 55.2177 67.3561 55.2177C67.3561 55.2177 64.5644 61.2261 55.4787 60.6139L51.2655 39.9321Z" fill="white"/>
<path d="M46.1354 39.2678C46.1354 39.2678 48.6489 39.9423 51.5539 47.1129C52.6213 49.9999 53.2465 53.0335 53.4081 56.11C53.5421 57.7496 55.592 59.4307 55.4684 61.4854C55.8805 59.5137 57.0239 57.8533 57.0136 55.9543C57.0136 51.1808 55.9835 43.097 51.3067 39.9319C49.6354 39.4045 47.8846 39.1797 46.1354 39.2678Z" fill="#263238"/>
<path d="M70.055 60.6548C72.6406 64.1623 75.0408 68.2925 75.5353 71.3122C76.174 75.2348 75.2778 79.5102 70.1065 78.2857C68.3195 77.9106 66.5881 77.3036 64.9559 76.4801C62.5517 75.3012 60.3082 73.8155 58.2807 72.0594C55.7983 69.9234 53.6182 67.4549 51.8012 64.7227C50.8595 63.3421 50.3336 61.7169 50.2869 60.0426C50.3471 59.3859 50.4678 58.7363 50.6474 58.1021C50.699 57.6053 50.699 57.1045 50.6474 56.6077C50.5592 55.3203 50.632 54.0269 50.8637 52.7578C50.9997 52.1707 51.1894 51.5974 51.4303 51.0456C51.5449 50.7704 51.7012 50.5148 51.8939 50.288C51.8939 50.2361 52.4295 49.7692 52.4295 49.7692C52.4295 49.7692 52.6047 50.3607 52.7592 51.1908C52.9243 52.1968 53.1514 53.1915 53.4391 54.1691C53.727 55.0617 54.1893 55.8875 54.7988 56.5974C55.0193 56.9034 55.3236 57.1378 55.6744 57.2719C56.3337 57.5002 56.8076 57.3756 56.8282 57.22C56.9284 55.9669 56.9456 54.7085 56.8797 53.4531C57.6729 53.4531 58.6 54.9993 58.8163 57.0851C58.9128 58.1327 59.0781 59.1727 59.3108 60.1982C59.6816 61.6199 61.5668 63.3114 64.5438 64.7227C67.047 64.5774 67.9536 61.6303 70.055 60.6548Z" fill="#FFA8A7"/>
<path d="M64.1008 64.5466C66.4907 65.6362 68.314 65.8853 70.8997 67.6598C69.6166 66.1646 68.0376 64.9558 66.2641 64.1108C65.5268 64.1569 64.799 64.3035 64.1008 64.5466Z" fill="#F28F8F"/>
<path opacity="0.2" d="M42.5714 47.767C42.9299 47.767 43.2204 47.4743 43.2204 47.1132C43.2204 46.7521 42.9299 46.4595 42.5714 46.4595C42.213 46.4595 41.9224 46.7521 41.9224 47.1132C41.9224 47.4743 42.213 47.767 42.5714 47.767Z" fill="white"/>
<path opacity="0.2" d="M43.0658 51.399C43.4243 51.399 43.7148 51.1063 43.7148 50.7453C43.7148 50.3841 43.4243 50.0915 43.0658 50.0915C42.7074 50.0915 42.4168 50.3841 42.4168 50.7453C42.4168 51.1063 42.7074 51.399 43.0658 51.399Z" fill="white"/>
<path opacity="0.2" d="M43.5087 55.2073C43.8671 55.2073 44.1577 54.9146 44.1577 54.5536C44.1577 54.1925 43.8671 53.8998 43.5087 53.8998C43.1502 53.8998 42.8597 54.1925 42.8597 54.5536C42.8597 54.9146 43.1502 55.2073 43.5087 55.2073Z" fill="white"/>
<path d="M42.3445 45.0164C40.1812 43.2938 39.182 42.941 38.0283 43.7089C36.7616 44.8682 35.6157 46.1548 34.6082 47.5484C32.9633 46.3458 31.4903 44.9212 30.2302 43.3146C28.6335 41.1353 28.7365 40.2014 28.7365 40.2014C29.4326 39.5414 30.0202 38.7743 30.4774 37.9288C31.0543 36.7354 31.0234 36.3307 31.5076 36.2788V37.576C32.5692 39.0227 33.9115 40.2373 35.453 41.1457C37.7089 42.2561 39.9752 41.9551 42.3445 45.0164Z" fill="#EAEA67"/>
<path opacity="0.4" d="M42.3445 45.0164C40.1812 43.2938 39.182 42.941 38.0283 43.7089C36.7616 44.8682 35.6157 46.1548 34.6082 47.5484C32.9633 46.3458 31.4903 44.9212 30.2302 43.3146C28.6335 41.1353 28.7365 40.2014 28.7365 40.2014C29.4326 39.5414 30.0202 38.7743 30.4774 37.9288C31.0543 36.7354 31.0234 36.3307 31.5076 36.2788V37.576C32.5692 39.0227 33.9115 40.2373 35.453 41.1457C37.7089 42.2561 39.9752 41.9551 42.3445 45.0164Z" fill="white"/>
<path d="M42.3446 45.017C42.7087 43.8319 43.1704 42.6795 43.725 41.5718C43.9045 41.0316 44.0119 40.4698 44.0443 39.9011L44.1371 37.0993C44.3172 37.0934 44.4959 37.1355 44.655 37.2211C44.8141 37.3067 44.9481 37.4328 45.0436 37.587C45.435 38.1473 46.4239 39.2577 46.4239 39.2577C46.4239 39.2577 48.3812 43.1492 47.9691 45.8887C46.939 43.8756 46.0016 42.8794 44.9715 42.8378C43.2821 42.7652 42.3446 45.017 42.3446 45.017Z" fill="#EAEA67"/>
<path opacity="0.4" d="M42.3446 45.017C42.7087 43.8319 43.1704 42.6795 43.725 41.5718C43.9045 41.0316 44.0119 40.4698 44.0443 39.9011L44.1371 37.0993C44.3172 37.0934 44.4959 37.1355 44.655 37.2211C44.8141 37.3067 44.9481 37.4328 45.0436 37.587C45.435 38.1473 46.4239 39.2577 46.4239 39.2577C46.4239 39.2577 48.3812 43.1492 47.9691 45.8887C46.939 43.8756 46.0016 42.8794 44.9715 42.8378C43.2821 42.7652 42.3446 45.017 42.3446 45.017Z" fill="white"/>
<path d="M27.3149 40.565C27.3149 40.565 32.4655 45.8574 32.8776 55.4563C33.8356 79.7493 18.9812 83.9936 18.9812 83.9936C18.8128 82.414 18.8128 80.8205 18.9812 79.2408C18.9812 79.2408 28.2523 69.009 27.8094 56.5979C27.4694 47.7461 24.0597 42.4952 21.8655 41.8103C23.5466 40.9332 25.4227 40.5045 27.3149 40.565Z" fill="#263238"/>
<path d="M13.5217 82.4369C15.8195 81.7714 17.9344 80.5819 19.7024 78.9605C24.1011 75.3389 24.3586 74.8097 28.0258 71.5616C29.262 70.472 30.3848 69.3824 30.9102 68.8947C31.9613 68.1066 32.8975 67.1739 33.6916 66.1239C34.4428 65.1691 34.9868 64.0661 35.2883 62.8863C35.6339 61.6413 35.7764 60.3481 35.7106 59.0571C35.6488 58.6835 35.5252 58.3203 35.4737 57.9363C35.4326 57.4149 35.4326 56.8909 35.4737 56.3694C35.5371 55.4552 35.4324 54.5369 35.1646 53.6609C34.924 52.9257 34.5105 52.26 33.9594 51.7204C33.5473 51.3157 33.0014 50.7968 32.3421 50.9836C32.4348 51.544 32.5687 52.2081 32.682 52.9864C32.4899 54.1519 31.9799 55.2405 31.2089 56.1307C29.8286 57.926 28.6439 58.8495 28.4791 58.476C28.3143 58.1024 28.8396 56.9816 28.6748 55.1449C28.51 53.3081 28.0258 52.6336 27.4696 52.4883C26.5837 52.26 26.5837 53.2251 26.1922 54.6883C25.739 56.4316 24.9767 57.3864 24.8634 59.9703C24.7603 62.2429 25.1209 62.7721 23.8332 63.7683C23.1121 64.3391 20.6501 65.6881 20.6501 65.6881C20.6501 65.6881 21.3609 63.2391 22.525 59.0363C24.7912 50.8902 23.8641 43.5743 20.681 42.3187C16.715 43.263 14.1603 44.4875 12.0692 51.1185C9.84409 58.175 9.78229 59.2439 7.45422 73.2842C5.78541 83.5473 10.081 83.4331 13.5217 82.4369Z" fill="#FFA8A7"/>
<path d="M20.6707 65.7297C17.776 67.8571 11.4717 70.9183 10.627 74.3221C10.627 74.3221 10.7609 71.6033 14.5826 68.3656C16.6941 66.5502 18.947 64.9087 21.3197 63.4571L20.6707 65.7297Z" fill="#F28F8F"/>
<path d="M21.8553 41.7785C18.4868 42.6606 15.2213 43.3144 13.6967 46.1266C11.7703 49.6548 11.3686 51.5642 10.4209 55.5491C9.47316 59.5339 8.81387 63.7989 8.81387 63.7989C10.7242 65.0053 12.8852 65.751 15.1285 65.9782C19.0018 66.4244 20.9385 65.2933 20.9385 65.2933L23.4417 56.234C23.4417 56.234 25.708 47.1124 21.8553 41.7785Z" fill="#EAEA67"/>
<path opacity="0.4" d="M21.8553 41.7785C18.4868 42.6606 15.2213 43.3144 13.6967 46.1266C11.7703 49.6548 11.3686 51.5642 10.4209 55.5491C9.47316 59.5339 8.81387 63.7989 8.81387 63.7989C10.7242 65.0053 12.8852 65.751 15.1285 65.9782C19.0018 66.4244 20.9385 65.2933 20.9385 65.2933L23.4417 56.234C23.4417 56.234 25.708 47.1124 21.8553 41.7785Z" fill="white"/>
</svg>
