<svg width="263" height="286" viewBox="0 0 263 286" fill="none" xmlns="http://www.w3.org/2000/svg">
<path d="M225.345 115.273L134.504 44.7302L43.6121 115.195C-6.53736 154.203 -6.53736 217.447 43.6121 256.455C93.7613 295.463 175.13 295.488 225.339 256.533C275.546 217.578 275.559 154.324 225.345 115.273Z" fill="#F5F5F5"/>
<path d="M0 223.41L24.37 237.48L146.23 167.12L121.87 153.05L0 223.41Z" fill="#E0E0E0"/>
<path d="M154.126 110.806C147.291 114.919 147.291 121.58 154.126 125.658C160.96 129.737 172.04 129.771 178.874 125.658C185.709 121.546 185.709 114.896 178.874 110.806C172.04 106.716 160.96 106.693 154.126 110.806Z" fill="#E0E0E0"/>
<path d="M175.444 211.052C158.852 220.815 158.852 236.646 175.444 246.408C192.037 256.171 218.948 256.171 235.551 246.408C252.155 236.646 252.144 220.815 235.551 211.052C218.959 201.29 192.037 201.29 175.444 211.052Z" fill="#E0E0E0"/>
<path d="M156.155 120.071C150.619 114.393 147.363 91.2396 152.767 86.7302H180.238C185.631 91.2396 182.386 114.382 176.85 120.071L176.706 120.225L176.507 120.413C176.348 120.571 176.182 120.723 176.008 120.865L175.876 120.964C175.743 121.079 175.602 121.186 175.455 121.284C175.228 121.451 174.992 121.607 174.746 121.747C172.196 123.05 169.369 123.73 166.502 123.73C163.636 123.73 160.81 123.05 158.259 121.747C158.01 121.607 157.769 121.451 157.539 121.284L157.14 120.986L156.985 120.854C156.808 120.71 156.653 120.567 156.498 120.424L156.277 120.203C156.23 120.165 156.189 120.119 156.155 120.071Z" fill="#71AAE2"/>
<g opacity="0.8">
<path opacity="0.8" d="M155.99 119.623C150.494 113.962 147.262 90.8797 152.626 86.384H179.897C185.25 90.8797 182.029 113.951 176.533 119.623L176.39 119.777L176.192 119.964C176.035 120.122 175.87 120.273 175.698 120.414L175.566 120.513C175.434 120.628 175.294 120.734 175.148 120.832C174.923 120.999 174.689 121.154 174.445 121.294C171.913 122.593 169.107 123.271 166.261 123.271C163.416 123.271 160.611 122.593 158.078 121.294C157.831 121.154 157.592 120.999 157.364 120.832L156.968 120.535L156.814 120.403C156.638 120.261 156.484 120.118 156.33 119.975L156.111 119.755C156.064 119.716 156.024 119.671 155.99 119.623Z" fill="white"/>
</g>
<path d="M177.314 84.5165C183.562 88.2202 183.562 94.2179 177.314 97.944C171.067 101.67 160.933 101.648 154.686 97.944C148.438 94.2402 148.438 88.2538 154.686 84.5165C160.933 80.7791 171.067 80.8239 177.314 84.5165Z" fill="#71AAE2"/>
<g opacity="0.9">
<path opacity="0.9" d="M177.522 84.5702C183.744 88.2085 183.744 94.1001 177.522 97.7603C171.301 101.421 161.211 101.399 154.989 97.7603C148.768 94.122 148.768 88.2415 154.989 84.5702C161.211 80.899 171.301 80.9429 177.522 84.5702Z" fill="white"/>
</g>
<path d="M174.63 86.6307C179.123 89.1723 179.123 93.2934 174.63 95.8245C172.114 97.0765 169.325 97.7302 166.496 97.7302C163.667 97.7302 160.878 97.0765 158.362 95.8245C153.879 93.2934 153.879 89.1723 158.362 86.6307C160.879 85.3808 163.667 84.7302 166.496 84.7302C169.325 84.7302 172.113 85.3808 174.63 86.6307Z" fill="#71AAE2"/>
<g opacity="0.75">
<path opacity="0.75" d="M174.533 86.3182C179.105 88.9892 179.105 93.32 174.533 95.98C171.973 97.2957 169.135 97.9827 166.256 97.9827C163.377 97.9827 160.539 97.2957 157.979 95.98C153.417 93.32 153.417 88.9892 157.979 86.3182C160.54 85.0047 163.377 84.321 166.256 84.321C169.135 84.321 171.972 85.0047 174.533 86.3182Z" fill="white"/>
</g>
<path d="M157.735 90.7085C160.293 89.4082 163.126 88.7302 166 88.7302C168.874 88.7302 171.707 89.4082 174.265 90.7085C175.371 91.3124 176.31 92.1768 177 93.2264C176.316 94.2804 175.376 95.1459 174.265 95.7443C171.708 97.049 168.875 97.7302 166 97.7302C163.125 97.7302 160.292 97.049 157.735 95.7443C156.622 95.1492 155.681 94.2826 155 93.2264C155.688 92.1746 156.627 91.3102 157.735 90.7085Z" fill="#FAFAFA"/>
<path d="M155.111 49.7298L164.074 56.9036L155.393 52.8621C155.409 55.6922 155.916 58.4982 156.891 61.1531C159.265 62.5791 161.522 64.1935 163.64 65.9831L156.999 63.3326C156.829 67.1035 157.291 70.8766 158.367 74.4931C158.844 76.2564 160.808 79.6298 162.056 82.1598C162.618 83.324 163.261 84.4466 163.977 85.5221C164.018 85.5955 164.065 85.6645 164.118 85.7302C165.637 84.854 167.214 84.003 168.849 83.1783C170.374 79.1763 171.37 74.9892 171.812 70.7255C173.732 53.2017 160.58 43.1036 150 39.7302C152.278 42.7301 154.009 46.1166 155.111 49.7298Z" fill="#71AAE2"/>
<path opacity="0.5" d="M155.111 49.7298L164.074 56.9036L155.393 52.8621C155.409 55.6922 155.916 58.4982 156.891 61.1531C159.265 62.5791 161.522 64.1935 163.64 65.9831L156.999 63.3326C156.829 67.1035 157.291 70.8766 158.367 74.4931C158.844 76.2564 160.808 79.6298 162.056 82.1598C162.618 83.324 163.261 84.4466 163.977 85.5221C164.018 85.5955 164.065 85.6645 164.118 85.7302C165.637 84.854 167.214 84.003 168.849 83.1783C170.374 79.1763 171.37 74.9892 171.812 70.7255C173.732 53.2017 160.58 43.1036 150 39.7302C152.278 42.7301 154.009 46.1166 155.111 49.7298Z" fill="white"/>
<path d="M163 50.7302C164.785 52.6682 166.095 54.9817 166.831 57.494C167.655 59.9645 168.206 62.5162 168.473 65.1031C169.057 70.278 168.387 75.5155 166.518 80.3874C166.506 80.4181 166.499 80.4511 166.499 80.4851C166.5 80.5181 166.507 80.551 166.521 80.5817C166.534 80.6125 166.554 80.6399 166.579 80.663C166.603 80.6861 166.632 80.7047 166.664 80.7168C166.728 80.7377 166.8 80.7344 166.862 80.7058C166.925 80.6773 166.974 80.6257 166.999 80.5631C168.811 75.6056 169.404 70.2956 168.73 65.0702C168.42 62.4701 167.825 59.9118 166.954 57.439C166.177 54.9345 164.824 52.6386 163 50.7302Z" fill="#FAFAFA"/>
<path d="M195 58.7318C191.46 62.9693 188.191 67.4122 185.21 72.0365L175.704 73.5196L182.717 74.7062L178.956 80.4851L169.608 82.3638L176.905 83.4624C176.905 83.4624 174.876 90.3729 169.653 93.2514C166.775 94.8444 165.359 95.0861 164.497 94.2841C163.886 93.7238 163.75 90.4169 163.24 87.4615C162.547 82.8131 163.363 78.0713 165.574 73.8932C166.361 72.3441 167.368 70.9093 168.565 69.6304C175.477 62.2475 188.541 58.6439 195 58.7318Z" fill="#71AAE2"/>
<path opacity="0.65" d="M195 58.7318C191.46 62.9693 188.191 67.4122 185.21 72.0365L175.704 73.5196L182.717 74.7062L178.956 80.4851L169.608 82.3638L176.905 83.4624C176.905 83.4624 174.876 90.3729 169.653 93.2514C166.775 94.8444 165.359 95.0861 164.497 94.2841C163.886 93.7238 163.75 90.4169 163.24 87.4615C162.547 82.8131 163.363 78.0713 165.574 73.8932C166.361 72.3441 167.368 70.9093 168.565 69.6304C175.477 62.2475 188.541 58.6439 195 58.7318Z" fill="white"/>
<path d="M140.022 62.7741C140.795 62.7654 141.57 62.8016 142.339 62.884C145.384 63.2529 148.374 63.9898 151.241 65.0802C152.344 65.4755 153.37 65.9257 154.418 66.4198C154.947 66.6757 155.466 66.9393 155.973 67.2105C158.517 68.5293 160.821 70.2621 162.79 72.3387C163.709 73.3346 164.499 74.4404 165.14 75.633C165.228 75.7867 165.317 75.9405 165.394 76.0942C165.592 76.4895 165.769 76.8958 165.934 77.2801C167.524 80.6854 168.214 84.4387 167.942 88.1843C167.854 90.8198 166.949 93.8396 166.431 94.3447C166.361 94.4095 166.283 94.4644 166.199 94.5094C165.438 94.9926 164.236 94.7071 161.996 93.4113C157.484 90.9076 155.719 84.5496 155.719 84.5496L161.985 83.4515L153.943 81.8483L150.634 76.775L156.646 75.6769L148.483 74.436C145.891 70.3708 143.058 66.4616 140 62.7302L140.022 62.7741Z" fill="#71AAE2"/>
<path opacity="0.65" d="M140.022 62.7741C140.795 62.7654 141.57 62.8016 142.339 62.884C145.384 63.2529 148.374 63.9898 151.241 65.0802C152.344 65.4755 153.37 65.9257 154.418 66.4198C154.947 66.6757 155.466 66.9393 155.973 67.2105C158.517 68.5293 160.821 70.2621 162.79 72.3387C163.709 73.3346 164.499 74.4404 165.14 75.633C165.228 75.7867 165.317 75.9405 165.394 76.0942C165.592 76.4895 165.769 76.8958 165.934 77.2801C167.524 80.6854 168.214 84.4387 167.942 88.1843C167.854 90.8198 166.949 93.8396 166.431 94.3447C166.361 94.4095 166.283 94.4644 166.199 94.5094C165.438 94.9926 164.236 94.7071 161.996 93.4113C157.484 90.9076 155.719 84.5496 155.719 84.5496L161.985 83.4515L153.943 81.8483L150.634 76.775L156.646 75.6769L148.483 74.436C145.891 70.3708 143.058 66.4616 140 62.7302L140.022 62.7741Z" fill="white"/>
<path opacity="0.3" d="M142.226 62.8019C145.166 63.1722 148.052 63.9118 150.82 65.0062C151.885 65.4029 152.876 65.8548 153.887 66.3507C154.399 66.6075 154.899 66.872 155.389 67.1442C157.845 68.4679 160.07 70.207 161.971 72.2911C162.858 73.2908 163.62 74.4006 164.239 75.5975C164.324 75.7518 164.409 75.9061 164.484 76.0604C164.676 76.4571 164.846 76.8649 165.006 77.2507C166.54 80.6683 167.207 84.4354 166.944 88.1947C166.859 90.8398 165.986 93.8706 165.485 94.3776C165.418 94.4426 165.342 94.4977 165.261 94.5429C165.116 94.641 164.954 94.7049 164.782 94.7302C165.315 90.6193 163.366 80.1933 160.405 75.9061C157.327 71.4976 150.032 64.9841 140 62.7468C140.742 62.7126 141.486 62.7314 142.226 62.8019Z" fill="#71AAE2"/>
<path d="M102.21 189.21L80.72 176.8V21.71L102.21 34.12V189.21Z" fill="#71AAE2"/>
<path d="M102.21 34.12L139.82 12.4099V167.5L102.21 189.21V34.12Z" fill="#71AAE2"/>
<path opacity="0.2" d="M102.21 34.12L139.82 12.4099V167.5L102.21 189.21V34.12Z" fill="white"/>
<g opacity="0.2">
<path opacity="0.2" d="M106.18 182.99C106.064 182.991 105.95 182.96 105.85 182.9C105.749 182.843 105.666 182.76 105.607 182.66C105.549 182.559 105.519 182.446 105.52 182.33V36.4099C105.519 36.2941 105.549 36.1803 105.607 36.08C105.666 35.9798 105.749 35.897 105.85 35.8399L135.48 18.7099C135.58 18.651 135.694 18.6199 135.81 18.6199C135.926 18.6199 136.04 18.651 136.14 18.7099C136.239 18.7692 136.321 18.8526 136.379 18.9523C136.436 19.052 136.468 19.1648 136.47 19.2799V165.21C136.468 165.325 136.436 165.438 136.379 165.537C136.321 165.637 136.239 165.72 136.14 165.78L106.48 182.91C106.388 182.96 106.285 182.987 106.18 182.99ZM106.84 36.7799V181.19L135.19 164.82V20.4299L106.84 36.7799Z" fill="black"/>
</g>
<path d="M139.82 12.41L118.33 0L80.72 21.71L102.21 34.12L139.82 12.41Z" fill="#71AAE2"/>
<path opacity="0.6" d="M139.82 12.41L118.33 0L80.72 21.71L102.21 34.12L139.82 12.41Z" fill="white"/>
<path d="M116.79 38.1099L125.24 33.23C125.87 32.87 126.39 33.1599 126.39 33.8899V37.45C126.368 37.8501 126.253 38.2395 126.053 38.5868C125.853 38.9342 125.575 39.2299 125.24 39.45L116.79 44.3302C116.15 44.6902 115.64 44.4002 115.64 43.6702V40.1099C115.66 39.7095 115.775 39.3195 115.975 38.9719C116.175 38.6242 116.454 38.3289 116.79 38.1099Z" fill="white"/>
<path d="M116.27 44.8002C116.109 44.8002 115.95 44.7592 115.81 44.6802C115.646 44.5722 115.513 44.4232 115.425 44.2472C115.337 44.0722 115.297 43.8762 115.31 43.6802V40.1199C115.332 39.6645 115.462 39.2209 115.69 38.826C115.918 38.4312 116.237 38.0965 116.62 37.8499L125.08 32.9899C125.244 32.8734 125.438 32.8044 125.639 32.7903C125.84 32.7762 126.041 32.8176 126.22 32.9099C126.382 33.0196 126.513 33.1693 126.601 33.3444C126.689 33.5196 126.73 33.7143 126.72 33.9099V37.4699C126.698 37.9253 126.568 38.369 126.34 38.7638C126.112 39.1587 125.793 39.4934 125.41 39.7399L116.95 44.6202C116.744 44.7422 116.509 44.8042 116.27 44.8002ZM116.95 38.3999C116.663 38.5865 116.423 38.8372 116.25 39.1322C116.076 39.4272 115.974 39.7585 115.95 40.0999V43.6602C115.938 43.7432 115.948 43.8282 115.977 43.9072C116.007 43.9852 116.056 44.0552 116.12 44.1102C116.201 44.1362 116.286 44.1422 116.37 44.1282C116.453 44.1142 116.532 44.0802 116.6 44.0302L125.06 39.1499C125.347 38.9634 125.587 38.7127 125.76 38.4177C125.934 38.1227 126.036 37.7914 126.06 37.4499V33.8899C126.09 33.8059 126.089 33.7142 126.058 33.6307C126.027 33.5472 125.967 33.4774 125.89 33.4333C125.812 33.3892 125.722 33.3738 125.634 33.3896C125.546 33.4054 125.467 33.4516 125.41 33.5199L116.95 38.3999Z" fill="#455A64"/>
<path opacity="0.15" d="M112.7 52.8803V55.4403L128.82 46.1403V43.5703L112.7 52.8803Z" fill="black"/>
<path d="M112.7 52.8803L128.82 43.5703L129.32 45.1703L113.21 54.4703L112.7 52.8803Z" fill="#71AAE2"/>
<path opacity="0.6" d="M112.7 52.8803L128.82 43.5703L129.32 45.1703L113.21 54.4703L112.7 52.8803Z" fill="white"/>
<path opacity="0.15" d="M112.7 56.2502V58.8102L128.82 49.5102V46.9402L112.7 56.2502Z" fill="black"/>
<path d="M112.7 56.2502L128.82 46.9402L129.32 48.5402L113.21 57.8402L112.7 56.2502Z" fill="#71AAE2"/>
<path opacity="0.6" d="M112.7 56.2502L128.82 46.9402L129.32 48.5402L113.21 57.8402L112.7 56.2502Z" fill="white"/>
<path opacity="0.15" d="M112.7 59.6203V62.1803L128.82 52.8803V50.3103L112.7 59.6203Z" fill="black"/>
<path d="M112.7 59.6203L128.82 50.3103L129.32 51.9103L113.21 61.2103L112.7 59.6203Z" fill="#71AAE2"/>
<path opacity="0.6" d="M112.7 59.6203L128.82 50.3103L129.32 51.9103L113.21 61.2103L112.7 59.6203Z" fill="white"/>
<path opacity="0.15" d="M112.7 62.9902V65.5502L128.82 56.2502V53.6802L112.7 62.9902Z" fill="black"/>
<path d="M112.7 62.9902L128.82 53.6802L129.32 55.2802L113.21 64.5802L112.7 62.9902Z" fill="#71AAE2"/>
<path opacity="0.6" d="M112.7 62.9902L128.82 53.6802L129.32 55.2802L113.21 64.5802L112.7 62.9902Z" fill="white"/>
<path opacity="0.15" d="M112.7 158.34V160.9L128.82 151.6V149.03L112.7 158.34Z" fill="black"/>
<path d="M112.7 158.34L128.82 149.03L129.32 150.63L113.21 159.93L112.7 158.34Z" fill="#71AAE2"/>
<path opacity="0.6" d="M112.7 158.34L128.82 149.03L129.32 150.63L113.21 159.93L112.7 158.34Z" fill="white"/>
<path opacity="0.15" d="M112.7 161.71V164.27L128.82 154.97V152.4L112.7 161.71Z" fill="black"/>
<path d="M112.7 161.71L128.82 152.4L129.32 154L113.21 163.3L112.7 161.71Z" fill="#71AAE2"/>
<path opacity="0.6" d="M112.7 161.71L128.82 152.4L129.32 154L113.21 163.3L112.7 161.71Z" fill="white"/>
<path opacity="0.15" d="M112.7 165.08V167.64L128.82 158.34V155.77L112.7 165.08Z" fill="black"/>
<path d="M112.7 165.08L128.82 155.77L129.32 157.37L113.21 166.68L112.7 165.08Z" fill="#71AAE2"/>
<path opacity="0.6" d="M112.7 165.08L128.82 155.77L129.32 157.37L113.21 166.68L112.7 165.08Z" fill="white"/>
<path opacity="0.15" d="M112.7 168.45V171.01L128.82 161.71V159.14L112.7 168.45Z" fill="black"/>
<path d="M112.7 168.45L128.82 159.14L129.32 160.74L113.21 170.05L112.7 168.45Z" fill="#71AAE2"/>
<path opacity="0.6" d="M112.7 168.45L128.82 159.14L129.32 160.74L113.21 170.05L112.7 168.45Z" fill="white"/>
<path d="M132.15 84.5403C132.024 84.4833 131.886 84.4613 131.749 84.4753C131.612 84.4893 131.481 84.5393 131.37 84.6203L128.29 86.4003C127.953 86.6183 127.674 86.9133 127.474 87.2613C127.274 87.6093 127.159 87.9993 127.14 88.4003V104.4C127.126 104.538 127.149 104.678 127.207 104.805C127.265 104.931 127.356 105.04 127.47 105.12L128.29 105.59C128.415 105.646 128.554 105.669 128.691 105.655C128.828 105.641 128.959 105.591 129.07 105.51L132.15 103.73C132.488 103.513 132.769 103.218 132.969 102.87C133.17 102.522 133.283 102.131 133.3 101.73V85.7303C133.315 85.5943 133.293 85.4563 133.236 85.3313C133.18 85.2073 133.092 85.0993 132.98 85.0203L132.15 84.5403Z" fill="#E0E0E0"/>
<path d="M132.15 85.0702L129.07 86.8502C128.735 87.0692 128.458 87.3652 128.259 87.7132C128.061 88.0602 127.948 88.4502 127.93 88.8502V104.85C127.93 105.58 128.44 105.85 129.07 105.51L132.15 103.73C132.488 103.513 132.769 103.218 132.97 102.87C133.17 102.522 133.283 102.131 133.3 101.73V85.7302C133.3 84.9902 132.79 84.7102 132.15 85.0702Z" fill="white"/>
<path d="M131.67 86.4201L129.56 87.6401C129.33 87.7871 129.138 87.9881 129 88.2241C128.863 88.4611 128.784 88.7271 128.77 89.0001V99.9301C128.77 100.44 129.12 100.64 129.56 100.39L131.67 99.1701C131.897 99.0201 132.086 98.8191 132.222 98.5831C132.357 98.3461 132.435 98.0821 132.45 97.8101V86.8701C132.48 86.3701 132.1 86.1701 131.67 86.4201Z" fill="#263238"/>
<path d="M131.88 86.5401C131.885 86.4801 131.885 86.4201 131.88 86.3601C131.821 86.3711 131.763 86.3911 131.71 86.4201L129.6 87.6401C129.37 87.7871 129.178 87.9881 129.04 88.2241C128.903 88.4611 128.824 88.7271 128.81 89.0001V99.9301C128.799 99.9891 128.799 100.05 128.81 100.11C128.87 100.102 128.928 100.081 128.98 100.05L131.09 98.8301C131.318 98.6831 131.509 98.4841 131.646 98.2491C131.784 98.0151 131.864 97.7511 131.88 97.4801V86.5401Z" fill="#37474F"/>
<path d="M64.6099 210.92L43.1199 198.51L43.1099 43.4302L64.5999 55.8302L64.6099 210.92Z" fill="#71AAE2"/>
<path d="M64.6001 55.8302L102.21 34.1199V189.21L64.6101 210.92L64.6001 55.8302Z" fill="#71AAE2"/>
<path opacity="0.2" d="M64.6001 55.8302L102.21 34.1199V189.21L64.6101 210.92L64.6001 55.8302Z" fill="white"/>
<g opacity="0.2">
<path opacity="0.2" d="M68.5702 204.71C68.4542 204.709 68.3404 204.678 68.2402 204.62C68.1414 204.56 68.0593 204.477 68.0016 204.377C67.9439 204.278 67.9125 204.165 67.9102 204.05V58.1202C67.9125 58.0052 67.9439 57.8922 68.0016 57.7922C68.0593 57.6922 68.1414 57.6092 68.2402 57.5502L97.9102 40.4199C98.0107 40.3596 98.1254 40.327 98.2426 40.3257C98.3598 40.3243 98.4752 40.3542 98.577 40.4122C98.6788 40.4703 98.7634 40.5544 98.822 40.6559C98.8805 40.7575 98.911 40.8727 98.9102 40.9899V186.92C98.911 187.036 98.8808 187.149 98.8228 187.25C98.7648 187.35 98.681 187.433 98.5802 187.49L68.9002 204.62C68.8006 204.68 68.6864 204.711 68.5702 204.71ZM69.2302 58.5102V202.9L97.5802 186.54V42.1399L69.2302 58.5102Z" fill="black"/>
</g>
<path d="M102.21 34.12L80.7199 21.71L43.1099 43.4303L64.5999 55.8303L102.21 34.12Z" fill="#71AAE2"/>
<path opacity="0.6" d="M102.21 34.12L80.7199 21.71L43.1099 43.4303L64.5999 55.8303L102.21 34.12Z" fill="white"/>
<path d="M79.18 59.8302L87.63 54.9502C88.27 54.5802 88.78 54.8802 88.78 55.6102V59.1702C88.7614 59.5712 88.6474 59.9612 88.4474 60.3092C88.2473 60.6572 87.9671 60.9522 87.63 61.1702L79.18 65.9902C78.55 66.3602 78.04 66.0602 78.04 65.3302V61.7702C78.0668 61.3802 78.1836 61.0022 78.3815 60.6652C78.5793 60.3292 78.8527 60.0432 79.18 59.8302Z" fill="white"/>
<path d="M78.67 66.5202C78.5086 66.5232 78.3495 66.4812 78.21 66.4002C78.046 66.2912 77.9128 66.1422 77.8234 65.9672C77.7341 65.7922 77.6915 65.5962 77.7 65.4002V61.8402C77.7219 61.3832 77.8533 60.9392 78.083 60.5442C78.3128 60.1492 78.6341 59.8152 79.02 59.5702L87.47 54.6902C87.6299 54.5442 87.8329 54.4532 88.0485 54.4322C88.2641 54.4112 88.4807 54.4612 88.6656 54.5742C88.8506 54.6872 88.9939 54.8562 89.0741 55.0582C89.1542 55.2592 89.1668 55.4812 89.11 55.6902V59.2402C89.0901 59.6962 88.9606 60.1402 88.7325 60.5352C88.5045 60.9302 88.1847 61.2642 87.8 61.5102L79.35 66.4002C79.1367 66.4952 78.9031 66.5362 78.67 66.5202ZM79.35 60.1102C79.062 60.2952 78.8215 60.5462 78.6478 60.8412C78.4742 61.1362 78.3722 61.4682 78.35 61.8102V65.3702C78.35 65.6002 78.41 65.7602 78.52 65.8202C78.63 65.8802 78.8 65.8202 79 65.7402L87.45 60.8602C87.7381 60.6742 87.9786 60.4242 88.1522 60.1292C88.3259 59.8332 88.4279 59.5022 88.45 59.1602V55.6102C88.45 55.3802 88.39 55.2102 88.28 55.1502C88.1995 55.1242 88.1138 55.1172 88.0303 55.1312C87.9468 55.1452 87.8678 55.1792 87.8 55.2302L79.35 60.1102Z" fill="#455A64"/>
<path opacity="0.15" d="M75.1001 74.5903V77.1503L91.2201 67.8503V65.2803L75.1001 74.5903Z" fill="black"/>
<path d="M75.1001 74.5903L91.2201 65.2803L91.7201 66.8803L75.6001 76.1803L75.1001 74.5903Z" fill="#71AAE2"/>
<path opacity="0.6" d="M75.1001 74.5903L91.2201 65.2803L91.7201 66.8803L75.6001 76.1803L75.1001 74.5903Z" fill="white"/>
<path opacity="0.15" d="M75.1001 77.9601V80.5201L91.2201 71.2202V68.6501L75.1001 77.9601Z" fill="black"/>
<path d="M75.1001 77.9601L91.2201 68.6501L91.7201 70.2501L75.6001 79.5502L75.1001 77.9601Z" fill="#71AAE2"/>
<path opacity="0.6" d="M75.1001 77.9601L91.2201 68.6501L91.7201 70.2501L75.6001 79.5502L75.1001 77.9601Z" fill="white"/>
<path opacity="0.15" d="M75.1001 81.3303V83.8903L91.2201 74.5903V72.0203L75.1001 81.3303Z" fill="black"/>
<path d="M75.1001 81.3303L91.2201 72.0203L91.7201 73.6203L75.6001 82.9303L75.1001 81.3303Z" fill="#71AAE2"/>
<path opacity="0.6" d="M75.1001 81.3303L91.2201 72.0203L91.7201 73.6203L75.6001 82.9303L75.1001 81.3303Z" fill="white"/>
<path opacity="0.15" d="M75.1001 84.7001V87.2601L91.2201 77.9601V75.3901L75.1001 84.7001Z" fill="black"/>
<path d="M75.1001 84.7001L91.2201 75.3901L91.7201 76.9901L75.6001 86.3001L75.1001 84.7001Z" fill="#71AAE2"/>
<path opacity="0.6" d="M75.1001 84.7001L91.2201 75.3901L91.7201 76.9901L75.6001 86.3001L75.1001 84.7001Z" fill="white"/>
<path opacity="0.15" d="M75.1001 180.05V182.62L91.2201 173.31V170.75L75.1001 180.05Z" fill="black"/>
<path d="M75.1001 180.05L91.2201 170.75L91.7201 172.34L75.6001 181.65L75.1001 180.05Z" fill="#71AAE2"/>
<path opacity="0.6" d="M75.1001 180.05L91.2201 170.75L91.7201 172.34L75.6001 181.65L75.1001 180.05Z" fill="white"/>
<path opacity="0.15" d="M75.1001 183.42V185.99L91.2201 176.68V174.12L75.1001 183.42Z" fill="black"/>
<path d="M75.1001 183.42L91.2201 174.12L91.7201 175.71L75.6001 185.02L75.1001 183.42Z" fill="#71AAE2"/>
<path opacity="0.6" d="M75.1001 183.42L91.2201 174.12L91.7201 175.71L75.6001 185.02L75.1001 183.42Z" fill="white"/>
<path opacity="0.15" d="M75.1001 186.79V189.36L91.2201 180.05V177.49L75.1001 186.79Z" fill="black"/>
<path d="M75.1001 186.79L91.2201 177.49L91.7201 179.08L75.6001 188.39L75.1001 186.79Z" fill="#71AAE2"/>
<path opacity="0.6" d="M75.1001 186.79L91.2201 177.49L91.7201 179.08L75.6001 188.39L75.1001 186.79Z" fill="white"/>
<path opacity="0.15" d="M75.1001 190.16V192.73L91.2201 183.42V180.86L75.1001 190.16Z" fill="black"/>
<path d="M75.1001 190.16L91.2201 180.86L91.7201 182.45L75.6001 191.76L75.1001 190.16Z" fill="#71AAE2"/>
<path opacity="0.6" d="M75.1001 190.16L91.2201 180.86L91.7201 182.45L75.6001 191.76L75.1001 190.16Z" fill="white"/>
<path d="M94.55 106.25C94.4227 106.193 94.2829 106.171 94.1444 106.185C94.0058 106.199 93.8733 106.249 93.76 106.33L90.68 108.11C90.3453 108.329 90.0675 108.625 89.8693 108.973C89.6712 109.32 89.5583 109.71 89.54 110.11V126.11C89.5235 126.248 89.5456 126.389 89.6038 126.516C89.662 126.643 89.7541 126.752 89.87 126.83L90.69 127.3C90.815 127.359 90.9537 127.382 91.0911 127.368C91.2285 127.354 91.3595 127.303 91.47 127.22L94.55 125.44C94.8852 125.221 95.1635 124.925 95.3617 124.578C95.56 124.23 95.6725 123.84 95.69 123.44V107.44C95.7054 107.302 95.6838 107.163 95.6276 107.036C95.5713 106.91 95.4824 106.801 95.37 106.72L94.55 106.25Z" fill="#E0E0E0"/>
<path d="M94.5501 106.78L91.4801 108.56C91.1441 108.779 90.8648 109.074 90.6649 109.422C90.465 109.769 90.3503 110.159 90.3301 110.56V126.56C90.3301 127.29 90.8401 127.56 91.4801 127.22L94.5601 125.44C94.8953 125.221 95.1735 124.925 95.3718 124.578C95.57 124.23 95.6826 123.84 95.7001 123.44V107.44C95.6901 106.71 95.1801 106.42 94.5501 106.78Z" fill="white"/>
<path d="M94.0599 108.13L91.9499 109.35C91.7226 109.5 91.5336 109.701 91.3981 109.937C91.2626 110.173 91.1845 110.438 91.1699 110.71V121.65C91.1699 122.15 91.5199 122.35 91.9499 122.1L94.0599 120.88C94.2903 120.732 94.4821 120.532 94.6195 120.295C94.7569 120.059 94.8359 119.793 94.8499 119.52V108.58C94.8499 108.08 94.4799 107.88 94.0599 108.13Z" fill="#263238"/>
<path d="M94.2701 108.25C94.2804 108.19 94.2804 108.129 94.2701 108.07C94.2111 108.082 94.1539 108.103 94.1001 108.13L91.9901 109.35C91.7627 109.5 91.5737 109.701 91.4382 109.937C91.3028 110.173 91.2246 110.438 91.2101 110.71V121.65C91.2047 121.71 91.2047 121.77 91.2101 121.83L91.3801 121.77L93.4901 120.55C93.7204 120.402 93.9123 120.202 94.0496 119.965C94.187 119.729 94.266 119.463 94.2801 119.19L94.2701 108.25Z" fill="#37474F"/>
<path d="M27 232.63L5.51001 220.23V65.1401L27 77.5501V232.63Z" fill="#71AAE2"/>
<path d="M27 77.5503L64.6 55.8303L64.61 210.92L27 232.63V77.5503Z" fill="#71AAE2"/>
<path opacity="0.2" d="M27 77.5503L64.6 55.8303L64.61 210.92L27 232.63V77.5503Z" fill="white"/>
<g opacity="0.2">
<path opacity="0.2" d="M30.9701 226.42C30.8509 226.42 30.7337 226.389 30.6301 226.33C30.5293 226.273 30.4455 226.19 30.3875 226.09C30.3295 225.989 30.2993 225.876 30.3001 225.76V79.8403C30.3006 79.7233 30.3312 79.6083 30.389 79.5063C30.4468 79.4053 30.5298 79.3203 30.6301 79.2603L60.3101 62.1303C60.4101 62.0713 60.524 62.0403 60.6401 62.0403C60.7561 62.0403 60.8701 62.0713 60.9701 62.1303C61.0703 62.1903 61.1533 62.2753 61.2111 62.3763C61.2689 62.4783 61.2995 62.5933 61.3001 62.7103V208.63C61.2998 208.745 61.2692 208.859 61.2112 208.959C61.1533 209.059 61.0702 209.142 60.9701 209.2L31.3001 226.33C31.1995 226.387 31.0859 226.418 30.9701 226.42ZM31.6301 80.2203V224.62L59.9801 208.25V63.8503L31.6301 80.2203Z" fill="black"/>
</g>
<path d="M64.6 55.8302L43.11 43.4302L5.51001 65.1402L27 77.5502L64.6 55.8302Z" fill="#71AAE2"/>
<path opacity="0.6" d="M64.6 55.8302L43.11 43.4302L5.51001 65.1402L27 77.5502L64.6 55.8302Z" fill="white"/>
<path d="M41.5701 81.5402L50.0302 76.6602C50.6602 76.2902 51.1702 76.5902 51.1702 77.3202V80.8802C51.1527 81.2802 51.0401 81.6702 50.8419 82.0182C50.6436 82.3652 50.3654 82.6612 50.0302 82.8802L41.5701 87.7602C40.9401 88.1302 40.4302 87.8302 40.4302 87.1002V83.5402C40.4476 83.1402 40.5602 82.7502 40.7584 82.4022C40.9567 82.0542 41.2349 81.7592 41.5701 81.5402Z" fill="white"/>
<path d="M41.06 88.2301C40.8987 88.2321 40.7398 88.1901 40.6 88.1101C40.4371 88.0011 40.3053 87.8511 40.2177 87.6761C40.13 87.5011 40.0895 87.3051 40.1 87.1101V83.5501C40.1208 83.0941 40.2507 82.6501 40.4786 82.2551C40.7066 81.8601 41.026 81.5261 41.41 81.2801L49.86 76.4001C50.0266 76.2881 50.2194 76.2221 50.4194 76.2081C50.6194 76.1941 50.8195 76.2331 51 76.3201C51.1629 76.4291 51.2947 76.5781 51.3824 76.7541C51.47 76.9291 51.5106 77.1241 51.5 77.3201V80.8801C51.4792 81.3351 51.3494 81.7791 51.1214 82.1741C50.8935 82.5691 50.5741 82.9041 50.19 83.1501L41.74 87.9901C41.5384 88.1281 41.3039 88.2111 41.06 88.2301ZM41.74 81.8201C41.4536 82.0071 41.2143 82.2581 41.0409 82.5531C40.8674 82.8471 40.7644 83.1781 40.74 83.5201V87.0801C40.7283 87.1641 40.7377 87.2511 40.7674 87.3311C40.7971 87.4111 40.846 87.4831 40.91 87.5401C40.9906 87.5661 41.0762 87.5721 41.1598 87.5581C41.2433 87.5441 41.3222 87.5101 41.39 87.4601L49.84 82.5701C50.1268 82.3851 50.3665 82.1361 50.5401 81.8431C50.7137 81.5501 50.8164 81.2201 50.84 80.8801V77.3201C50.8517 77.2351 50.8423 77.1491 50.8127 77.0681C50.783 76.9881 50.734 76.9171 50.67 76.8601C50.5894 76.8341 50.5038 76.8271 50.4203 76.8411C50.3368 76.8551 50.2578 76.8891 50.19 76.9401L41.74 81.8201Z" fill="#455A64"/>
<path opacity="0.15" d="M37.49 96.3002V98.8702L53.61 89.5602V87.0002L37.49 96.3002Z" fill="black"/>
<path d="M37.49 96.3002L53.61 87.0002L54.11 88.5902L37.99 97.9002L37.49 96.3002Z" fill="#71AAE2"/>
<path opacity="0.6" d="M37.49 96.3002L53.61 87.0002L54.11 88.5902L37.99 97.9002L37.49 96.3002Z" fill="white"/>
<path opacity="0.15" d="M37.49 99.6701V102.24L53.61 92.9301V90.3701L37.49 99.6701Z" fill="black"/>
<path d="M37.49 99.6701L53.61 90.3701L54.11 91.9601L37.99 101.27L37.49 99.6701Z" fill="#71AAE2"/>
<path opacity="0.6" d="M37.49 99.6701L53.61 90.3701L54.11 91.9601L37.99 101.27L37.49 99.6701Z" fill="white"/>
<path opacity="0.15" d="M37.49 103.04V105.61L53.61 96.3002V93.7402L37.49 103.04Z" fill="black"/>
<path d="M37.49 103.04L53.61 93.7402L54.11 95.3302L37.99 104.64L37.49 103.04Z" fill="#71AAE2"/>
<path opacity="0.6" d="M37.49 103.04L53.61 93.7402L54.11 95.3302L37.99 104.64L37.49 103.04Z" fill="white"/>
<path opacity="0.15" d="M37.49 106.41V108.98L53.61 99.6701V97.1101L37.49 106.41Z" fill="black"/>
<path d="M37.49 106.41L53.61 97.1101L54.11 98.7001L37.99 108.01L37.49 106.41Z" fill="#71AAE2"/>
<path opacity="0.6" d="M37.49 106.41L53.61 97.1101L54.11 98.7001L37.99 108.01L37.49 106.41Z" fill="white"/>
<path opacity="0.15" d="M37.49 201.76V204.33L53.61 195.02V192.46L37.49 201.76Z" fill="black"/>
<path d="M37.49 201.76L53.61 192.46L54.11 194.05L37.99 203.36L37.49 201.76Z" fill="#71AAE2"/>
<path opacity="0.6" d="M37.49 201.76L53.61 192.46L54.11 194.05L37.99 203.36L37.49 201.76Z" fill="white"/>
<path opacity="0.15" d="M37.49 205.13V207.7L53.61 198.39V195.83L37.49 205.13Z" fill="black"/>
<path d="M37.49 205.13L53.61 195.83L54.11 197.42L37.99 206.73L37.49 205.13Z" fill="#71AAE2"/>
<path opacity="0.6" d="M37.49 205.13L53.61 195.83L54.11 197.42L37.99 206.73L37.49 205.13Z" fill="white"/>
<path opacity="0.15" d="M37.49 208.5V211.07L53.61 201.76V199.2L37.49 208.5Z" fill="black"/>
<path d="M37.49 208.5L53.61 199.2L54.11 200.79L37.99 210.1L37.49 208.5Z" fill="#71AAE2"/>
<path opacity="0.6" d="M37.49 208.5L53.61 199.2L54.11 200.79L37.99 210.1L37.49 208.5Z" fill="white"/>
<path opacity="0.15" d="M37.49 211.87V214.44L53.61 205.13V202.57L37.49 211.87Z" fill="black"/>
<path d="M37.49 211.87L53.61 202.57L54.11 204.16L37.99 213.47L37.49 211.87Z" fill="#71AAE2"/>
<path opacity="0.6" d="M37.49 211.87L53.61 202.57L54.11 204.16L37.99 213.47L37.49 211.87Z" fill="white"/>
<path d="M56.94 127.99C56.8156 127.931 56.6776 127.906 56.5404 127.918C56.4032 127.93 56.2719 127.979 56.16 128.06L53.08 129.84C52.744 130.059 52.4647 130.354 52.2648 130.702C52.0649 131.049 51.9502 131.439 51.93 131.84V147.84C51.9146 147.978 51.9372 148.119 51.9953 148.245C52.0534 148.372 52.1449 148.481 52.26 148.56L53.08 149.03C53.2044 149.089 53.3424 149.114 53.4796 149.101C53.6167 149.089 53.7481 149.04 53.86 148.96L56.94 147.18C57.2748 146.96 57.5533 146.664 57.7531 146.317C57.9528 145.969 58.0682 145.58 58.09 145.18V129.18C58.1033 129.042 58.0808 128.904 58.0248 128.778C57.9687 128.651 57.8809 128.542 57.77 128.46L56.94 127.99Z" fill="#E0E0E0"/>
<path d="M56.94 128.5L53.86 130.28C53.5234 130.498 53.2437 130.793 53.0437 131.141C52.8438 131.489 52.7294 131.879 52.71 132.28V148.28C52.71 149.01 53.23 149.28 53.86 148.95L56.94 147.17C57.2748 146.95 57.5533 146.654 57.753 146.307C57.9528 145.959 58.0682 145.57 58.09 145.17V129.17C58.09 128.43 57.57 128.13 56.94 128.5Z" fill="white"/>
<path d="M56.4801 129.84L54.3601 131.06C54.1327 131.21 53.9437 131.411 53.8082 131.647C53.6727 131.883 53.5946 132.148 53.5801 132.42V143.36C53.5801 143.86 53.9301 144.06 54.3601 143.81L56.4801 142.59C56.7074 142.44 56.8964 142.239 57.0319 142.003C57.1674 141.766 57.2455 141.502 57.2601 141.23V130.3C57.2401 129.79 56.8901 129.59 56.4801 129.84Z" fill="#263238"/>
<path d="M56.66 129.99C56.6654 129.93 56.6654 129.87 56.66 129.81L56.49 129.87L54.37 131.09C54.1426 131.24 53.9536 131.441 53.8181 131.677C53.6827 131.913 53.6045 132.178 53.59 132.45V143.39C53.5846 143.45 53.5846 143.51 53.59 143.57L53.77 143.51L55.88 142.29C56.1074 142.14 56.2964 141.939 56.4318 141.703C56.5673 141.466 56.6455 141.202 56.66 140.93V129.99Z" fill="#37474F"/>
<path d="M172 109.206C172.761 110.483 174.836 109.206 178.52 107.739C182.204 106.273 180.693 89.7302 180.693 89.7302C180.693 89.7302 174.88 89.7302 173.847 95.2851C172.815 100.84 172 109.206 172 109.206Z" fill="#263238"/>
<path d="M202.535 80.7302C206.059 80.7302 213.82 84.6438 215.058 87.2893C216.296 89.9348 221.013 128.185 218.024 131.749C214.266 136.209 195.722 144.976 187.67 144.725C180.979 144.517 174.623 138.505 173.608 136.756C171.936 133.881 174.021 94.6792 176.14 91.3778C179.574 86.0759 198.063 80.8067 202.535 80.7302Z" fill="#71AAE2"/>
<path opacity="0.5" d="M202.535 80.7302C206.059 80.7302 213.82 84.6438 215.058 87.2893C216.296 89.9348 221.013 128.185 218.024 131.749C214.266 136.209 195.722 144.976 187.67 144.725C180.979 144.517 174.623 138.505 173.608 136.756C171.936 133.881 174.021 94.6792 176.14 91.3778C179.574 86.0759 198.063 80.8067 202.535 80.7302Z" fill="black"/>
<path d="M173.603 110.81C173.701 109.164 173.811 107.519 173.931 105.961C173.931 105.336 174.029 104.711 174.084 104.107C174.182 102.879 174.292 101.705 174.401 100.586C174.401 100.038 174.51 99.4893 174.565 98.9627C174.653 98.1839 174.74 97.427 174.828 96.7689C174.915 96.1107 175.013 95.4087 175.101 94.8054L175.199 94.224C175.326 93.0909 175.617 91.983 176.063 90.9332C176.162 90.7906 176.271 90.6371 176.391 90.4835C176.425 90.4276 176.466 90.376 176.512 90.3299L176.774 90.0228L176.883 89.8144L177.179 89.5292C177.244 89.4634 177.299 89.3976 177.364 89.3427L177.835 88.9259L178.163 88.6516L178.392 88.4761L178.775 88.1909C178.832 88.1372 178.894 88.09 178.961 88.0483L179.409 87.7302C182.504 89.0246 185.423 90.2531 185.511 90.308C186.599 91.0638 187.467 92.0949 188.026 93.2982C188.586 94.5015 188.815 95.831 188.693 97.1528V118.554C188.693 121.143 190.88 145.045 183.586 143.673H183.302C178.392 141.929 174.325 137.882 173.537 136.489C173.362 136.074 173.255 135.633 173.22 135.183C173.22 134.92 173.155 134.646 173.122 134.328V133.845C173.122 133.329 173.056 132.748 173.034 132.134C173.034 131.936 173.034 131.717 173.034 131.498C172.947 128.207 173.034 123.676 173.209 118.817C173.209 117.852 173.297 116.865 173.34 115.866L173.439 113.881C173.439 113.552 173.439 113.223 173.439 112.894C173.461 112.126 173.505 111.468 173.603 110.81Z" fill="#71AAE2"/>
<path opacity="0.4" d="M173.603 110.81C173.701 109.164 173.811 107.519 173.931 105.961C173.931 105.336 174.029 104.711 174.084 104.107C174.182 102.879 174.292 101.705 174.401 100.586C174.401 100.038 174.51 99.4893 174.565 98.9627C174.653 98.1839 174.74 97.427 174.828 96.7689C174.915 96.1107 175.013 95.4087 175.101 94.8054L175.199 94.224C175.326 93.0909 175.617 91.983 176.063 90.9332C176.162 90.7906 176.271 90.6371 176.391 90.4835C176.425 90.4276 176.466 90.376 176.512 90.3299L176.774 90.0228L176.883 89.8144L177.179 89.5292C177.244 89.4634 177.299 89.3976 177.364 89.3427L177.835 88.9259L178.163 88.6516L178.392 88.4761L178.775 88.1909C178.832 88.1372 178.894 88.09 178.961 88.0483L179.409 87.7302C182.504 89.0246 185.423 90.2531 185.511 90.308C186.599 91.0638 187.467 92.0949 188.026 93.2982C188.586 94.5015 188.815 95.831 188.693 97.1528V118.554C188.693 121.143 190.88 145.045 183.586 143.673H183.302C178.392 141.929 174.325 137.882 173.537 136.489C173.362 136.074 173.255 135.633 173.22 135.183C173.22 134.92 173.155 134.646 173.122 134.328V133.845C173.122 133.329 173.056 132.748 173.034 132.134C173.034 131.936 173.034 131.717 173.034 131.498C172.947 128.207 173.034 123.676 173.209 118.817C173.209 117.852 173.297 116.865 173.34 115.866L173.439 113.881C173.439 113.552 173.439 113.223 173.439 112.894C173.461 112.126 173.505 111.468 173.603 110.81Z" fill="black"/>
<path opacity="0.5" d="M176.022 93.0922C176.131 92.3072 176.349 91.5427 176.667 90.8236C179.983 85.2769 197.831 79.8096 202.147 79.7302C205.549 79.7302 213.041 83.791 214.236 86.536C214.592 87.7202 214.847 88.935 215 90.1657C208.218 93.9542 190.715 102.382 188.917 101.69C186.7 100.839 176.226 93.3644 176 93.0355L176.022 93.0922Z" fill="black"/>
<path d="M172.027 118.386C172.247 118.271 175.502 115.926 175.826 115.743C176.486 115.411 185.938 121.795 186.806 122.87C187.42 123.625 186.413 135.192 186.03 136.015C185.903 136.313 182.37 138.372 182.243 138.658C181.861 139.482 171.819 132.995 171.263 131.439C170.707 129.883 171.066 118.866 172.027 118.386Z" fill="#71AAE2"/>
<path opacity="0.18" d="M172.027 118.386C172.247 118.271 175.502 115.926 175.826 115.743C176.486 115.411 185.938 121.795 186.806 122.87C187.42 123.625 186.413 135.192 186.03 136.015C185.903 136.313 182.37 138.372 182.243 138.658C181.861 139.482 171.819 132.995 171.263 131.439C170.707 129.883 171.066 118.866 172.027 118.386Z" fill="black"/>
<path d="M182.809 125.745C183.413 126.487 182.422 137.85 182.058 138.66C181.693 139.469 171.805 133.096 171.259 131.567C170.712 130.039 171.065 119.203 172.01 118.742C172.66 118.417 181.955 124.688 182.809 125.745Z" fill="#71AAE2"/>
<path opacity="0.4" d="M175.591 115.743C175.239 115.918 172.198 118.339 172 118.444C172.615 118.117 181.575 124.631 182.398 125.73L186 123.029C185.176 121.918 176.216 115.404 175.591 115.743Z" fill="black"/>
<path opacity="0.3" d="M182.809 125.745C183.413 126.487 182.422 137.85 182.058 138.66C181.693 139.469 171.805 133.096 171.259 131.567C170.712 130.039 171.065 119.203 172.01 118.742C172.66 118.417 181.955 124.688 182.809 125.745Z" fill="black"/>
<path d="M186 123.234C185.363 122.771 183.421 123.881 182.583 124.656C181.744 125.431 180.81 129.096 178.656 129.663C176.502 130.229 173.477 127.107 172.84 125.118C172.203 123.13 171.482 118.932 172.532 117.452C172.993 116.689 173.69 116.132 174.496 115.88C175.301 115.626 176.163 115.697 176.926 116.076C178.454 116.978 185.83 121.407 186 123.234Z" fill="#71AAE2"/>
<path opacity="0.1" d="M186 123.234C185.363 122.771 183.421 123.881 182.583 124.656C181.744 125.431 180.81 129.096 178.656 129.663C176.502 130.229 173.477 127.107 172.84 125.118C172.203 123.13 171.482 118.932 172.532 117.452C172.993 116.689 173.69 116.132 174.496 115.88C175.301 115.626 176.163 115.697 176.926 116.076C178.454 116.978 185.83 121.407 186 123.234Z" fill="black"/>
<path d="M176.148 124.823C176.432 124.962 176.662 125.158 176.811 125.389C176.96 125.621 177.022 125.881 176.993 126.138C176.998 126.242 176.965 126.344 176.9 126.434C176.835 126.525 176.738 126.601 176.622 126.653C176.505 126.705 176.371 126.732 176.236 126.73C176.102 126.729 175.97 126.699 175.854 126.645C175.566 126.508 175.334 126.31 175.185 126.076C175.036 125.842 174.974 125.58 175.01 125.321C175.002 125.217 175.034 125.113 175.099 125.022C175.165 124.931 175.262 124.855 175.38 124.805C175.497 124.753 175.632 124.728 175.768 124.73C175.903 124.734 176.034 124.766 176.148 124.823Z" fill="#37474F"/>
<path d="M188.722 101.852C187.527 98.4423 185.128 95.605 181.992 93.8931C176.521 90.5538 176.303 91.6669 174.508 94.7613C172.9 97.5886 172.199 108.118 172.112 109.232C172.024 110.345 170.843 110.044 171.018 103.566C171.193 97.0877 172.178 90.91 178.13 87.1143C186.161 81.9941 198.548 78.6993 204.391 80.0239C210.234 81.3485 215.431 84.365 214.972 90.5538C214.994 90.5093 207.378 100.728 188.722 101.852Z" fill="#37474F"/>
<path d="M192.335 127.73C191.674 132.391 191.619 137.15 191.322 141.986C190.693 151.997 190.22 159.531 189.118 171.78C187.349 177.137 186.07 182.642 185.294 188.228C184.402 194.413 184.093 204.732 182.286 211.519L182 212.616C182.584 217.32 188.721 219.349 189.801 216.64C189.801 216.64 200.445 190.005 203.86 181.32C206.889 173.415 209.377 165.314 211.309 157.075L214.03 175.519C214.03 175.519 212.851 180.333 213.92 188.831C214.758 195.498 218.327 207.363 218.03 214.842C218.196 215.81 218.667 216.701 219.373 217.386C220.08 218.072 220.987 218.518 221.964 218.658C224.729 219.217 227.164 216.355 227.219 215.96C227.351 215.017 229.599 185.98 230.194 179.05C231.516 163.807 231.076 138.477 229.853 127.73H192.335Z" fill="#FFA8A7"/>
<path d="M231 164.872C231 157.562 230.632 135.852 229.831 127.73H192.411L189.023 171.732C187.93 174.986 187.045 178.307 186.371 181.675C185.158 187.503 184 201.432 184 201.432C184 201.432 184.909 203.802 188.514 205.097C190.691 205.86 193.076 205.731 195.16 204.735C195.16 204.735 199.641 193.112 200.702 190.675C202.142 187.383 204.079 182.455 206.114 176.649C208.149 170.842 211.061 160.284 211.061 160.284L213.54 175.836C212.793 179.919 212.999 187.317 213.984 193.112C214.969 198.907 216.225 205.624 216.225 205.624C216.225 205.624 218.292 206.843 222.633 206.722C226.973 206.601 228.196 204.922 228.196 204.922C228.196 204.922 230.166 183.629 230.589 175.924C231.011 168.219 231 164.872 231 164.872Z" fill="#455A64"/>
<path d="M211 160.229C212.396 154.639 214.273 145.614 214.273 145.614C214.273 145.614 220.011 145.668 223 141.73C221.32 145.942 215.909 147.616 215.909 147.616L212.724 161.268L213.509 175.73L211 160.229Z" fill="#37474F"/>
<path d="M241.874 230.13C242.02 230.605 242.039 231.113 241.931 231.598C241.822 232.085 241.589 232.531 241.257 232.889C238.771 234.539 235.768 235.11 232.887 234.48C228.798 233.735 227.69 232.822 226.103 231.309C224.517 229.796 223.069 228.216 221.226 227.704C219.384 227.192 216.914 226.38 216.381 225.79C215.849 225.2 216.03 222.73 216.03 222.73L241.874 230.13Z" fill="#263238"/>
<path d="M218.072 212.73C217.905 212.727 217.742 212.78 217.609 212.878C217.476 212.977 217.38 213.117 217.336 213.276C217.171 213.942 216.94 215.885 216.611 216.977C216.117 219.301 215.921 221.677 216.029 224.05C216.204 225.316 219.862 226.233 221.685 227.03C223.562 227.891 225.272 229.073 226.737 230.523C228.881 232.392 231.581 233.515 234.425 233.721C237.72 233.83 241.421 232.946 242.333 231.473C243.431 229.65 243.695 227.859 238.939 225.414C238.039 224.956 235.282 223.177 234.217 222.445C233.028 221.66 231.924 220.757 230.922 219.749C230.226 219.067 229.611 218.309 229.087 217.49C228.846 217.016 228.666 216.513 228.549 215.994C228.393 215.463 228.266 214.923 228.165 214.379C228.161 214.224 228.123 214.072 228.054 213.932C227.986 213.794 227.889 213.67 227.77 213.571C227.574 213.48 227.354 213.454 227.143 213.494C226.029 213.582 224.926 213.776 223.849 214.073C223.42 214.16 223.034 214.387 222.75 214.717C222.579 214.984 222.491 215.296 222.498 215.612C222.493 215.923 222.468 216.233 222.421 216.54C222.409 216.653 222.363 216.759 222.289 216.846C222.113 217.009 221.861 216.846 221.718 216.725C221.262 216.22 220.847 215.681 220.477 215.11C220.268 214.815 219.247 214.597 218.961 214.357C218.683 214.183 218.415 213.993 218.159 213.789C217.907 213.484 218.072 213.112 218.072 212.73Z" fill="#37474F"/>
<path d="M226.258 230.387C225.545 229.736 224.791 229.128 224 228.567C224 228.567 229.227 230.837 231.665 229.368C232.114 229.112 232.452 228.705 232.615 228.225C232.776 227.745 232.752 227.223 232.546 226.758C232.546 226.364 236.361 224.84 237.863 224.73C238.17 224.924 238.486 225.104 238.811 225.267C243.699 227.723 243.462 229.521 242.299 231.352C241.362 232.832 238.574 233.895 234.228 233.709C231.273 233.46 228.479 232.296 226.258 230.387Z" fill="#455A64"/>
<path d="M232.192 225.818C235.105 227.142 233.821 227.641 232.98 227.728C232.138 227.815 228.07 225.2 225.136 222.649C222.201 220.099 219.417 217.223 218.284 216.214C217.852 215.845 217.399 215.4 217 214.988C217.108 214.326 217.194 213.74 217.27 213.425C217.399 212.871 218.068 212.73 218.068 212.73L218.155 213.815C218.374 214.072 218.647 214.276 218.953 214.412C219.487 214.581 219.977 214.866 220.388 215.248C220.752 215.816 221.159 216.352 221.607 216.854C224.487 220.541 228.09 223.591 232.192 225.818Z" fill="#263238"/>
<path d="M233.268 226.725C233.203 226.727 233.14 226.707 233.092 226.672C233.063 226.649 233.04 226.623 233.023 226.592C233.008 226.563 233 226.531 233 226.498C233 226.466 233.008 226.434 233.023 226.403C233.04 226.374 233.063 226.346 233.092 226.324C233.841 225.754 234.733 225.319 235.707 225.048C236.682 224.778 237.716 224.678 238.742 224.756C238.782 224.76 238.82 224.771 238.854 224.787C238.888 224.804 238.918 224.825 238.941 224.851C238.965 224.877 238.982 224.906 238.991 224.938C239.001 224.968 239.003 225.001 238.996 225.032C238.983 225.094 238.939 225.15 238.875 225.187C238.811 225.224 238.731 225.239 238.654 225.228C237.727 225.167 236.794 225.261 235.915 225.504C235.036 225.748 234.228 226.137 233.544 226.645C233.512 226.678 233.469 226.703 233.42 226.717C233.372 226.731 233.319 226.734 233.268 226.725Z" fill="#F0F0F0"/>
<path d="M230.276 225.727C230.206 225.724 230.139 225.692 230.087 225.638C230.031 225.574 230 225.486 230 225.395C230 225.305 230.031 225.218 230.087 225.153C230.824 224.312 231.71 223.661 232.686 223.247C233.662 222.832 234.703 222.665 235.741 222.753C235.78 222.758 235.817 222.772 235.852 222.794C235.886 222.816 235.917 222.846 235.94 222.882C235.964 222.918 235.982 222.959 235.991 223.002C236.001 223.047 236.002 223.091 235.997 223.136C235.986 223.227 235.944 223.308 235.882 223.366C235.821 223.422 235.742 223.45 235.663 223.442C234.727 223.371 233.789 223.525 232.908 223.897C232.028 224.268 231.225 224.849 230.554 225.6C230.521 225.647 230.477 225.683 230.43 225.704C230.381 225.727 230.328 225.735 230.276 225.727Z" fill="#F0F0F0"/>
<path d="M228.274 223.727C228.239 223.728 228.204 223.72 228.172 223.704C228.139 223.688 228.11 223.664 228.086 223.634C228.031 223.567 228 223.475 228 223.38C228 223.286 228.031 223.195 228.086 223.127C228.834 222.271 229.727 221.615 230.703 221.209C231.678 220.802 232.716 220.652 233.743 220.769C233.822 220.786 233.892 220.838 233.939 220.914C233.987 220.991 234.008 221.087 233.998 221.182C233.992 221.23 233.979 221.275 233.959 221.316C233.938 221.358 233.911 221.394 233.879 221.422C233.847 221.451 233.812 221.471 233.773 221.483C233.735 221.494 233.694 221.496 233.655 221.488C232.727 221.395 231.793 221.535 230.913 221.9C230.032 222.264 229.223 222.846 228.539 223.607C228.507 223.652 228.465 223.687 228.419 223.708C228.372 223.728 228.323 223.735 228.274 223.727Z" fill="#F0F0F0"/>
<path d="M226.229 221.73C226.171 221.73 226.115 221.713 226.07 221.681C226.024 221.639 226 221.584 226 221.526C226 221.469 226.024 221.413 226.07 221.37C226.675 220.824 227.408 220.395 228.219 220.114C229.03 219.832 229.9 219.702 230.773 219.735C230.839 219.742 230.902 219.771 230.944 219.817C230.986 219.864 231.006 219.922 230.998 219.98C230.991 220.039 230.957 220.092 230.904 220.129C230.851 220.166 230.783 220.183 230.716 220.177C229.924 220.146 229.134 220.26 228.397 220.513C227.659 220.765 226.991 221.149 226.436 221.64C226.411 221.667 226.379 221.689 226.343 221.704C226.308 221.72 226.269 221.729 226.229 221.73Z" fill="#F0F0F0"/>
<path d="M223.303 219.724C223.229 219.724 223.157 219.707 223.1 219.676C223.068 219.656 223.043 219.632 223.026 219.606C223.01 219.58 223 219.552 223 219.523C223 219.495 223.01 219.466 223.026 219.44C223.043 219.413 223.068 219.39 223.1 219.37C223.945 218.781 224.98 218.33 226.126 218.051C227.271 217.773 228.497 217.673 229.708 217.762C229.751 217.764 229.793 217.771 229.832 217.785C229.87 217.799 229.905 217.817 229.931 217.84C229.959 217.862 229.978 217.889 229.989 217.917C230.001 217.945 230.003 217.975 229.996 218.003C229.984 218.06 229.94 218.111 229.874 218.148C229.806 218.183 229.721 218.201 229.636 218.196C228.541 218.122 227.435 218.212 226.398 218.46C225.36 218.707 224.419 219.106 223.639 219.627C223.607 219.666 223.557 219.697 223.495 219.714C223.435 219.731 223.367 219.735 223.303 219.724Z" fill="#F0F0F0"/>
<path d="M189 230.889C188.722 233.172 187.829 235.339 186.414 237.166C185.739 237.902 184.848 238.41 183.866 238.621C182.883 238.832 181.859 238.736 180.935 238.344C178.897 237.631 176.377 236.053 176.092 233.525C175.831 231.225 176.128 228.896 176.957 226.73L189 230.889Z" fill="#263238"/>
<path d="M182.663 209.73C181.896 209.875 180.707 213.62 179.706 217.509C178.595 221.677 177.661 222.877 176.738 226.288C175.626 230.2 175.815 231.556 177.005 234.068C178.194 236.579 183.153 239.513 186.188 236.357C188.656 233.779 189 231.112 189.312 227.144C189.523 223.981 189.927 220.834 190.523 217.72C191.079 214.764 192.524 212.164 191.802 211.797C191.68 212.231 190.479 215.353 189.934 214.931C189.678 214.853 189.678 214.431 189.834 213.664C189.884 213.502 189.899 213.331 189.877 213.162C189.856 212.994 189.8 212.832 189.712 212.686C189.465 212.423 189.143 212.244 188.789 212.175C187.944 211.931 186.788 211.553 185.921 211.397C185.409 211.297 185.698 211.319 185.187 211.242C184.561 211.07 183.909 211.022 183.264 211.097C182.964 211.197 182.908 211.453 182.808 211.719C182.708 211.986 182.586 212.375 182.463 212.642C182.341 212.909 182.219 212.953 182.097 212.931C181.974 212.909 181.896 212.386 181.941 212.164C181.985 211.942 182.019 211.575 182.063 211.308C182.108 211.042 182.497 210.464 182.663 209.73Z" fill="#37474F"/>
<path d="M177.047 224.73C176.894 225.305 176.033 228.874 177.047 229.685C178.061 230.496 179.141 227.613 179.141 227.613C181.457 227.409 183.778 227.966 185.772 229.201C185.488 229.809 185.859 231.926 187.004 231.611C188.149 231.296 188.989 227.377 189 227.32C188.695 231.183 188.313 233.773 185.968 236.329C182.991 239.528 178.116 236.6 176.96 234.01C175.804 231.419 175.662 230.057 176.698 226.127C176.796 225.687 176.916 225.091 177.047 224.73Z" fill="#455A64"/>
<path d="M179.575 227.959C179.371 229.383 177.953 228.754 178.001 226.734C178.073 223.697 179.335 220.915 179.804 217.459C180.885 213.584 182.039 209.73 183 209.73C182.868 210.404 182.423 211.938 182.423 211.938C182.423 212.226 182.135 212.877 182.135 212.877C181.438 215.781 180.068 219.126 179.732 222.163C179.539 224.823 179.792 226.546 179.575 227.959Z" fill="#263238"/>
<path d="M185.09 228.771C185.81 227.405 186.391 225.98 186.826 224.513C187.495 221.95 189.372 217.486 190.346 214.739C190.78 213.653 191.672 211.763 191.684 211.73C192.224 212.034 192.048 213.501 191.344 215.206C190.64 216.911 190.17 217.954 189.677 219.55C188.434 222.808 187.835 226.338 187.049 228.239C186.263 230.139 184.597 230.118 185.09 228.771Z" fill="#263238"/>
<path d="M185.619 229.715H185.516C183.646 228.6 181.487 228.139 179.351 228.397C179.274 228.41 179.195 228.392 179.129 228.345C179.064 228.3 179.019 228.23 179.002 228.149C178.998 228.109 179.001 228.069 179.011 228.031C179.022 227.992 179.04 227.957 179.063 227.925C179.087 227.894 179.117 227.868 179.151 227.85C179.184 227.83 179.221 227.818 179.259 227.814C181.547 227.518 183.866 228.011 185.865 229.218C185.898 229.237 185.926 229.264 185.949 229.297C185.971 229.329 185.987 229.365 185.994 229.404C186.002 229.443 186.002 229.483 185.994 229.522C185.986 229.56 185.97 229.597 185.948 229.628C185.905 229.673 185.852 229.705 185.795 229.72C185.737 229.735 185.675 229.733 185.619 229.715Z" fill="#F0F0F0"/>
<path d="M186.622 226.716H186.53C184.323 225.625 181.832 225.131 179.339 225.292C179.262 225.3 179.184 225.281 179.121 225.239C179.059 225.196 179.015 225.133 179 225.063C178.997 224.99 179.024 224.918 179.075 224.864C179.128 224.808 179.2 224.774 179.278 224.766C181.906 224.583 184.537 225.104 186.859 226.267C186.891 226.284 186.921 226.307 186.945 226.335C186.967 226.362 186.984 226.395 186.993 226.429C187.001 226.464 187.002 226.499 186.995 226.533C186.988 226.569 186.973 226.601 186.951 226.63C186.911 226.673 186.859 226.705 186.8 226.72C186.742 226.735 186.68 226.733 186.622 226.716Z" fill="#F0F0F0"/>
<path d="M179.243 222.419C179.187 222.41 179.134 222.386 179.091 222.349C179.05 222.313 179.018 222.265 179.004 222.212C178.991 222.141 179.01 222.068 179.055 222.009C179.1 221.95 179.167 221.909 179.243 221.897C183.084 221.15 187.726 223.147 187.871 223.236C187.904 223.255 187.932 223.28 187.953 223.31C187.974 223.339 187.989 223.373 187.995 223.408C188.003 223.443 188.001 223.479 187.992 223.514C187.984 223.549 187.967 223.581 187.944 223.61C187.896 223.672 187.825 223.713 187.745 223.726C187.666 223.739 187.584 223.722 187.517 223.679C187.517 223.679 182.938 221.71 179.378 222.419H179.243Z" fill="#F0F0F0"/>
<path d="M180.257 219.69C180.199 219.677 180.146 219.647 180.102 219.601C180.057 219.553 180.025 219.494 180.006 219.427C179.999 219.38 179.997 219.332 180.006 219.284C180.014 219.237 180.029 219.191 180.051 219.152C180.074 219.111 180.102 219.077 180.136 219.05C180.169 219.023 180.207 219.004 180.246 218.995C184.676 217.814 188.768 220.962 188.909 221.08C188.938 221.113 188.961 221.154 188.976 221.197C188.992 221.241 189 221.289 189 221.336C189 221.384 188.992 221.432 188.976 221.475C188.961 221.52 188.938 221.559 188.909 221.592C188.855 221.666 188.779 221.715 188.696 221.727C188.614 221.74 188.53 221.715 188.462 221.657C188.462 221.657 184.458 218.588 180.344 219.69H180.257Z" fill="#F0F0F0"/>
<path d="M180.274 216.65C180.211 216.638 180.154 216.608 180.107 216.564C180.06 216.518 180.026 216.461 180.01 216.397C179.999 216.352 179.998 216.306 180.004 216.26C180.011 216.214 180.028 216.17 180.05 216.131C180.074 216.092 180.106 216.059 180.142 216.032C180.178 216.007 180.218 215.988 180.262 215.979C184.844 214.839 189.679 217.979 189.859 218.106C189.895 218.131 189.926 218.164 189.95 218.203C189.973 218.241 189.989 218.284 189.996 218.33C190.003 218.376 190.001 218.421 189.989 218.465C189.978 218.51 189.959 218.551 189.931 218.587C189.87 218.663 189.786 218.712 189.692 218.726C189.6 218.74 189.505 218.717 189.427 218.663C189.427 218.663 184.628 215.586 180.453 216.65H180.274Z" fill="#EBEBEB"/>
<path d="M191.958 111.167C191.958 107.128 191.057 96.3439 191.012 94.6052C190.911 91.1168 192.138 87.2213 194.143 86.6051L201.665 84.9434C201.665 84.9434 215.663 83.843 217.667 83.7439C221.428 83.5459 226.372 85.5596 226.372 85.5596C228.714 87.6175 229.052 91.557 229.401 101.362C229.514 104.531 231 123.47 231 132.834C223.602 139.294 200.539 139.382 191.001 132.977C190.967 132.977 191.868 119.552 191.958 111.167Z" fill="#71AAE2"/>
<path d="M204.975 78.1247C203.806 74.999 200.041 72.5752 198.114 67.6727C195.474 60.9825 194.06 52.9433 201.611 49.7846C202.012 47.2402 206.301 44.3776 209.92 43.8951C212.48 43.5628 215.081 43.7338 217.572 44.3996C220.364 45.1662 223.271 45.4448 226.16 45.2221C227.307 44.9885 228.499 45.0883 229.59 45.5073C230.076 45.8111 230.474 46.2333 230.744 46.7335C231.016 47.2325 231.152 47.7929 231.138 48.3588C231.087 49.4973 230.665 50.5897 229.936 51.4736C230.538 51.6349 231.068 51.9891 231.441 52.4805C231.816 52.9729 232.012 53.5728 231.999 54.187C231.986 54.8012 231.766 55.3934 231.371 55.8694C230.977 56.3465 230.432 56.6788 229.824 56.8148C230.087 57.4389 230.149 58.1265 230.002 58.7857C229.854 59.4448 229.505 60.0437 229 60.4999C227.97 61.4025 226.657 61.929 225.28 61.9915C225.28 61.9915 224.467 64.6566 224.344 64.8979C223.872 65.8521 223.265 66.7349 222.54 67.5191C221.816 68.3044 220.979 68.9811 220.056 69.5262C218.99 70.0351 217.87 70.4211 216.715 70.6778C216.026 70.8511 215.355 71.0858 214.71 71.3797C214.3 71.7054 213.927 72.0728 213.596 72.4765L207.18 78.5854C206.635 79.0899 205.532 78.1138 204.975 78.1247Z" fill="#263238"/>
<path d="M205.036 67.6439C204.987 67.6973 204.932 67.7453 204.872 67.7857C203.955 68.3747 203.966 66.7932 203.07 65.7461C202.823 65.4789 202.52 65.2717 202.181 65.1386C201.843 65.0066 201.478 64.9532 201.115 64.9826C200.521 64.9641 199.936 65.1212 199.431 65.4364C198.928 65.7505 198.529 66.2086 198.287 66.7495C198.077 67.3036 197.981 67.8937 198.003 68.4848C198.025 69.0771 198.166 69.6573 198.416 70.1939C198.666 70.7305 199.021 71.2126 199.46 71.6096C199.9 72.0066 200.414 72.3131 200.973 72.5084C201.628 72.7679 202.344 72.8301 203.033 72.6861C203.722 72.5433 204.354 72.2008 204.85 71.7012L205.211 83.6988C205.211 83.6988 205.68 84.8549 208.203 86.0219C210.726 87.1889 213.663 86.709 216.546 89.7302C217.999 85.7274 219.822 86.4582 218.457 82.9026V80.4267C220.039 80.4387 221.612 80.2031 223.12 79.7287C224.622 79.1779 225.948 78.2344 226.96 76.9965C227.972 75.7597 228.634 74.2731 228.876 72.6938C229.28 70.4142 228.57 68.3965 228.57 66.0842C228.57 64.71 228.646 62.5395 228.57 61.6451C228.515 60.5545 228.002 56.1917 226.79 54.7302C224.966 57.7623 216.524 58.613 210.343 56.1372C210.391 57.7787 210.016 59.406 209.251 60.8599C208.313 62.3388 206.993 63.5375 205.429 64.3282C205.637 65.1779 205.637 66.0646 205.429 66.9131C205.364 67.1869 205.228 67.4389 205.036 67.6439Z" fill="#FFA8A7"/>
<path d="M215 62.1377L212.095 63.7302C211.951 63.1695 211.971 62.5525 212.152 62.0119C212.333 61.4712 212.661 61.051 213.063 60.8395C213.445 60.6642 213.861 60.7004 214.223 60.9439C214.585 61.1861 214.863 61.6144 215 62.1377Z" fill="#263238"/>
<path d="M215.133 73.7302L218 74.7778C217.84 75.1453 217.537 75.4406 217.151 75.6005C216.766 75.7603 216.331 75.773 215.936 75.6357C215.749 75.5635 215.579 75.456 215.436 75.3196C215.294 75.1833 215.182 75.0216 215.107 74.8437C215.032 74.6658 214.996 74.4762 215 74.2847C215.005 74.0933 215.05 73.9045 215.133 73.7302Z" fill="#F28F8F"/>
<path d="M213.004 66.3468C213.026 66.6422 213.137 66.9241 213.32 67.1576C213.504 67.3899 213.752 67.5636 214.033 67.656C214.315 67.7485 214.617 67.7541 214.902 67.6752C215.188 67.5951 215.444 67.4327 215.637 67.2083C215.831 66.9839 215.953 66.7065 215.989 66.4133C216.025 66.119 215.973 65.8201 215.84 65.5563C215.707 65.2912 215.498 65.0725 215.24 64.9259C214.983 64.7793 214.687 64.7127 214.391 64.7342C213.994 64.7657 213.625 64.9529 213.366 65.2551C213.105 65.5574 212.976 65.9498 213.004 66.3468Z" fill="#263238"/>
<path d="M224.003 65.3468C224.018 65.6422 224.091 65.9242 224.213 66.1576C224.336 66.3899 224.501 66.5635 224.688 66.656C224.876 66.7485 225.078 66.7541 225.268 66.6752C225.459 66.5951 225.629 66.4327 225.758 66.2083C225.887 65.9839 225.968 65.7065 225.993 65.4133C226.017 65.119 225.982 64.8201 225.893 64.5562C225.805 64.2912 225.665 64.0725 225.493 63.9259C225.322 63.7793 225.125 63.7127 224.928 63.7342C224.663 63.7657 224.417 63.9529 224.244 64.2551C224.07 64.5574 223.984 64.9498 224.003 65.3468Z" fill="#263238"/>
<path d="M226.865 62.7302L223 61.1636C223.081 60.8969 223.213 60.6496 223.392 60.4386C223.568 60.2262 223.787 60.054 224.032 59.9323C224.278 59.8119 224.545 59.7433 224.817 59.7316C225.089 59.7213 225.36 59.7679 225.614 59.8689C226.146 60.0838 226.575 60.5033 226.809 61.038C227.043 61.5727 227.063 62.1813 226.865 62.7302Z" fill="#263238"/>
<path d="M220 62.7302L221.012 70.7302L225 69.4062L220 62.7302Z" fill="#F28F8F"/>
<path d="M218 80.9091C214.95 80.6095 211.985 79.6672 209.273 78.1362C207.789 77.0635 206.646 75.5255 206 73.7302C206.338 75.3928 207.009 76.9566 207.964 78.3125C211.498 82.4247 217.956 82.7302 217.956 82.7302L218 80.9091Z" fill="#F28F8F"/>
<path d="M206 67.9396C209.006 69.1964 212.323 69.5268 215.521 68.8898C218.793 68.0476 220.647 66.7302 222.064 66.7302C223.309 67.3036 224.632 67.6934 225.991 67.8856C226.854 67.9774 227.727 67.8046 228.488 67.3889C228.488 67.3889 229.71 72.2587 228.379 74.9473C227.607 76.6393 226.366 78.0798 224.801 79.1023C223.235 80.1248 221.409 80.6874 219.534 80.7241C216.186 80.8105 209.294 80.0331 206.447 74.9473C206.36 74.8286 206 67.9396 206 67.9396Z" fill="#71AAE2"/>
<path opacity="0.55" d="M206 67.9396C209.006 69.1964 212.323 69.5268 215.521 68.8898C218.793 68.0476 220.647 66.7302 222.064 66.7302C223.309 67.3036 224.632 67.6934 225.991 67.8856C226.854 67.9774 227.727 67.8046 228.488 67.3889C228.488 67.3889 229.71 72.2587 228.379 74.9473C227.607 76.6393 226.366 78.0798 224.801 79.1023C223.235 80.1248 221.409 80.6874 219.534 80.7241C216.186 80.8105 209.294 80.0331 206.447 74.9473C206.36 74.8286 206 67.9396 206 67.9396Z" fill="white"/>
<path d="M228.714 67.3723C227.909 67.6923 227.03 67.7986 226.169 67.6776C224.153 67.3513 223.261 66.7302 222.226 66.7302C220.75 66.7302 218.833 68.0039 215.616 68.8355C212.387 69.4565 209.035 69.1344 206 67.9092C206 67.9092 206.364 74.6355 206.441 74.7934C206.866 75.5049 207.392 76.1565 208.005 76.7302C207.605 76.2808 207.356 75.7271 207.289 75.1407C207.234 74.2355 206.87 69.246 206.87 69.246C208.02 69.5713 209.196 69.8102 210.384 69.9618C213.389 70.2513 216.422 69.806 219.196 68.6671C220.009 68.3429 220.844 68.0713 221.697 67.8565C222.584 67.6902 223.502 67.7744 224.341 68.0986C225.824 68.6913 227.486 68.7334 229 68.2144C228.813 67.7828 228.714 67.3723 228.714 67.3723Z" fill="white"/>
<path d="M205.758 68.3033C204.891 67.6886 203.967 67.1617 203 66.7302C203.313 67.2842 203.581 67.8628 203.802 68.4606L206 69.7302L205.758 68.3033Z" fill="white"/>
<path d="M204.612 71.7302C204.962 72.5378 205.435 73.2406 206 73.7952C206 73.7952 205.837 74.8115 205.829 74.725C205.128 74.0644 204.511 73.2622 204 72.3465C204.227 72.1854 204.433 71.9778 204.612 71.7302Z" fill="white"/>
<path d="M226 84.7302C231.715 85.2965 234.1 86.8822 237.331 92.2168C239.694 96.1016 245.937 107.054 245.937 107.054C245.937 107.054 247.036 112.876 240.046 111.528C233.056 110.18 230.341 107.53 230.341 107.53L226 84.7302Z" fill="#FFA8A7"/>
<path d="M243 110.753C240.916 109.905 237.204 108.253 236.168 107.257C235.131 106.261 235.177 100.963 232.41 100.73L232 108.634L239.356 113.73L243 110.753Z" fill="#F28F8F"/>
<path d="M226 84.7302C229.668 85.2039 232.65 85.5784 235.229 88.8389C237.809 92.0995 243 100.956 243 100.956C243 100.956 240.051 107.334 230.451 106.684L226 84.7302Z" fill="#71AAE2"/>
<path opacity="0.4" d="M226 84.7302C229.668 85.2039 232.65 85.5784 235.229 88.8389C237.809 92.0995 243 100.956 243 100.956C243 100.956 240.051 107.334 230.451 106.684L226 84.7302Z" fill="white"/>
<path d="M220 83.7504C220 83.7504 222.773 84.4784 225.977 92.2178C227.154 95.3337 227.844 98.6087 228.023 101.928C228.17 103.698 230.432 105.513 230.295 107.73C230.75 105.602 232.011 103.81 232 101.76C232 96.6083 230.864 87.8833 225.705 84.4672C223.861 83.8982 221.93 83.6552 220 83.7504Z" fill="#263238"/>
<path d="M245.99 107.097C248.736 110.76 251.284 115.072 251.809 118.226C252.487 122.322 251.536 126.786 246.045 125.507C244.147 125.116 242.309 124.482 240.576 123.622C238.023 122.391 235.641 120.839 233.488 119.006C230.852 116.776 228.537 114.198 226.608 111.345C225.608 109.904 225.049 108.207 225 106.458C225.065 105.772 225.192 105.094 225.383 104.431C225.438 103.914 225.438 103.39 225.383 102.871C225.289 101.527 225.366 100.176 225.613 98.851C225.757 98.2377 225.958 97.6395 226.214 97.0631C226.336 96.7759 226.502 96.5093 226.706 96.272C226.706 96.2178 227.275 95.7302 227.275 95.7302C227.275 95.7302 227.461 96.3479 227.625 97.2148C227.8 98.2658 228.042 99.3039 228.347 100.325C228.653 101.257 229.143 102.119 229.791 102.86C230.025 103.18 230.348 103.425 230.721 103.565C231.421 103.803 231.924 103.673 231.946 103.51C232.052 102.203 232.07 100.888 232 99.577C232.843 99.577 233.827 101.192 234.057 103.37C234.16 104.464 234.335 105.55 234.582 106.62C234.976 108.105 236.977 109.871 240.138 111.345C242.796 111.193 243.759 108.116 245.99 107.097Z" fill="#FFA8A7"/>
<path d="M240 111.221C242.461 112.45 244.338 112.73 247 114.73C245.678 113.045 244.054 111.683 242.227 110.73C241.468 110.783 240.719 110.948 240 111.221Z" fill="#F28F8F"/>
<path opacity="0.2" d="M216.5 92.7302C216.776 92.7302 217 92.5064 217 92.2302C217 91.954 216.776 91.7302 216.5 91.7302C216.224 91.7302 216 91.954 216 92.2302C216 92.5064 216.224 92.7302 216.5 92.7302Z" fill="white"/>
<path opacity="0.2" d="M217 96.7302C217.552 96.7302 218 96.5064 218 96.2302C218 95.954 217.552 95.7302 217 95.7302C216.448 95.7302 216 95.954 216 96.2302C216 96.5064 216.448 96.7302 217 96.7302Z" fill="white"/>
<path opacity="0.2" d="M217.5 100.73C217.776 100.73 218 100.506 218 100.23C218 99.954 217.776 99.7302 217.5 99.7302C217.224 99.7302 217 99.954 217 100.23C217 100.506 217.224 100.73 217.5 100.73Z" fill="white"/>
<path d="M216 90.0341C213.775 88.1998 212.747 87.8242 211.56 88.6418C210.256 89.8761 209.078 91.2462 208.042 92.7302C206.349 91.4496 204.834 89.9324 203.538 88.2219C201.895 85.9015 202.001 84.907 202.001 84.907C202.718 84.2043 203.322 83.3877 203.792 82.4871C204.386 81.2164 204.354 80.7855 204.852 80.7302V82.1114C205.945 83.6518 207.325 84.9457 208.911 85.9125C211.231 87.0949 213.563 86.7744 216 90.0341Z" fill="#71AAE2"/>
<path opacity="0.4" d="M216 90.0341C213.775 88.1998 212.747 87.8242 211.56 88.6418C210.256 89.8761 209.078 91.2462 208.042 92.7302C206.349 91.4496 204.834 89.9324 203.538 88.2219C201.895 85.9015 202.001 84.907 202.001 84.907C202.718 84.2043 203.322 83.3877 203.792 82.4871C204.386 81.2164 204.354 80.7855 204.852 80.7302V82.1114C205.945 83.6518 207.325 84.9457 208.911 85.9125C211.231 87.0949 213.563 86.7744 216 90.0341Z" fill="white"/>
<path d="M216 89.8377C216.384 88.6243 216.872 87.4449 217.458 86.3101C217.647 85.7576 217.761 85.1817 217.795 84.5995L217.893 81.7307C218.083 81.7254 218.271 81.7679 218.44 81.856C218.608 81.9432 218.749 82.0728 218.85 82.2301C219.264 82.8038 220.308 83.9407 220.308 83.9407C220.308 83.9407 222.375 87.9252 221.94 90.7302C220.852 88.6689 219.862 87.6489 218.774 87.6064C216.99 87.532 216 89.8377 216 89.8377Z" fill="#71AAE2"/>
<path opacity="0.4" d="M216 89.8377C216.384 88.6243 216.872 87.4449 217.458 86.3101C217.647 85.7576 217.761 85.1817 217.795 84.5995L217.893 81.7307C218.083 81.7254 218.271 81.7679 218.44 81.856C218.608 81.9432 218.749 82.0728 218.85 82.2301C219.264 82.8038 220.308 83.9407 220.308 83.9407C220.308 83.9407 222.375 87.9252 221.94 90.7302C220.852 88.6689 219.862 87.6489 218.774 87.6064C216.99 87.532 216 89.8377 216 89.8377Z" fill="white"/>
<path d="M200.021 85.7361C200.021 85.7361 205.513 91.3411 205.953 101.507C206.974 127.235 191.134 131.73 191.134 131.73C190.955 130.058 190.955 128.369 191.134 126.697C191.134 126.697 201.021 115.86 200.548 102.716C200.186 93.3414 196.55 87.7803 194.21 87.0549C196.003 86.1263 198.003 85.6724 200.021 85.7361Z" fill="#263238"/>
<path d="M185.744 130.27C188.151 129.565 190.366 128.304 192.217 126.584C196.824 122.744 197.094 122.183 200.935 118.738C202.23 117.583 203.406 116.428 203.956 115.911C205.056 115.075 206.037 114.086 206.869 112.973C207.656 111.96 208.225 110.791 208.541 109.539C208.903 108.22 209.053 106.848 208.984 105.479C208.919 105.083 208.789 104.698 208.735 104.291C208.692 103.738 208.692 103.183 208.735 102.629C208.802 101.66 208.692 100.686 208.412 99.7572C208.159 98.9781 207.727 98.2717 207.149 97.6995C206.718 97.2704 206.146 96.7202 205.456 96.9183C205.553 97.5124 205.693 98.2167 205.812 99.042C205.61 100.278 205.076 101.432 204.269 102.376C202.823 104.28 201.582 105.259 201.41 104.863C201.237 104.467 201.787 103.278 201.615 101.331C201.442 99.3831 200.935 98.6678 200.352 98.5138C199.424 98.2717 199.425 99.295 199.015 100.847C198.54 102.695 197.741 103.707 197.623 106.447C197.515 108.857 197.892 109.418 196.544 110.475C195.789 111.08 193.21 112.51 193.21 112.51C193.21 112.51 193.954 109.914 195.174 105.457C197.547 96.8192 196.576 89.0617 193.242 87.7302C189.089 88.7316 186.413 90.03 184.223 97.0613C181.892 104.544 181.827 105.677 179.389 120.565C177.641 131.448 182.14 131.327 185.744 130.27Z" fill="#FFA8A7"/>
<path d="M193.332 112.24C190.355 114.59 183.869 117.971 183 121.73C183 121.73 183.138 118.727 187.069 115.151C189.242 113.147 191.559 111.334 194 109.73L193.332 112.24Z" fill="#F28F8F"/>
<path d="M194.647 86.7302C191.122 87.6738 187.705 88.3732 186.11 91.3817C184.094 95.1562 183.673 97.1989 182.682 101.462C181.69 105.725 181 110.287 181 110.287C182.999 111.579 185.26 112.376 187.608 112.619C191.661 113.096 193.688 111.886 193.688 111.886L196.307 102.195C196.307 102.195 198.679 92.4364 194.647 86.7302Z" fill="#71AAE2"/>
<path opacity="0.4" d="M194.647 86.7302C191.122 87.6738 187.705 88.3732 186.11 91.3817C184.094 95.1562 183.673 97.1989 182.682 101.462C181.69 105.725 181 110.287 181 110.287C182.999 111.579 185.26 112.376 187.608 112.619C191.661 113.096 193.688 111.886 193.688 111.886L196.307 102.195C196.307 102.195 198.679 92.4364 194.647 86.7302Z" fill="white"/>
</svg>
