<svg xmlns="http://www.w3.org/2000/svg" viewBox="0 0 500 500"><g id="freepik--Floor--inject-94"><ellipse id="freepik--floor--inject-94" cx="254.89" cy="344.42" rx="230.7" ry="133.19" style="fill:#f5f5f5"></ellipse></g><g id="freepik--Shadows--inject-94"><path id="freepik--Shadow--inject-94" d="M260.84,453.58l78.75-45.71-59.2-34.18L275,365.28s-29-6.22-38.46-1.49-59.28,22.63-59.28,22.63-83.93-66.58-89.9-70-41.09,18.33-25.56,33.23,47,33.37,61.43,39.66,39.18,12.27,39.18,12.27-3.92,5.52,7.59,14,61.61,31.49,68.46,33.78c7.74,2.58,17.06,1.19,17.06,1.19Z" style="fill:#e0e0e0"></path><path id="freepik--shadow--inject-94" d="M471.38,331.11l-53.76,31a3,3,0,0,1-2.68,0L302,296.8c-.74-.43-.74-1.12,0-1.54l53.77-31a2.92,2.92,0,0,1,2.67,0l113,65.3C472.12,330,472.12,330.69,471.38,331.11Z" style="fill:#e0e0e0"></path></g><g id="freepik--Books--inject-94"><g id="freepik--books--inject-94"><polygon points="361.06 191.34 314.31 218.14 314.31 297.42 361.06 270.62 361.06 191.34" style="fill:#90CAF9"></polygon><polygon points="361.06 191.34 314.31 218.14 314.31 297.42 361.06 270.62 361.06 191.34" style="opacity:0.35000000000000003"></polygon><path d="M315.64,219.46l45.42-25.88q3.09,3.6,9.16,5L325.15,224.4S322.58,223.8,315.64,219.46Z" style="fill:#f5f5f5"></path><path d="M329,224.26a8.5,8.5,0,0,1-7.7,0l-6.75-3.9c-2.13-1.22-2.13-3.21,0-4.44l44.83-25.55,1.68,1-44.19,25.31c-1.28.73-1.27,1.93,0,2.66l6.28,3.58a5.08,5.08,0,0,0,4.62,0l44.17-25.27,1.9,1.1Z" style="fill:#90CAF9"></path><path d="M329,224.26a8.5,8.5,0,0,1-7.7,0l-6.75-3.9c-2.13-1.22-2.13-3.21,0-4.44l44.83-25.55,1.68,1-44.19,25.31c-1.28.73-1.27,1.93,0,2.66l6.28,3.58a5.08,5.08,0,0,0,4.62,0l44.17-25.27,1.9,1.1Z" style="opacity:0.25"></path><path d="M373.83,198.72V278L329,303.54a8.56,8.56,0,0,1-7.7,0l-6.76-3.9a2.71,2.71,0,0,1-1.59-2.22V218.14a2.71,2.71,0,0,0,1.59,2.22l6.76,3.91a8.56,8.56,0,0,0,7.7,0Z" style="fill:#90CAF9"></path><path d="M373.83,198.72V278L329,303.54a8.56,8.56,0,0,1-7.7,0l-6.76-3.9a2.71,2.71,0,0,1-1.59-2.22V218.14a2.71,2.71,0,0,0,1.59,2.22l6.76,3.91a8.56,8.56,0,0,0,7.7,0Z" style="opacity:0.05"></path><path d="M325.15,225.19a7.89,7.89,0,0,1-3.85-.92l-6.76-3.91a2.71,2.71,0,0,1-1.59-2.22v79.28a2.71,2.71,0,0,0,1.59,2.22l6.76,3.9a7.89,7.89,0,0,0,3.85.92Z" style="fill:#90CAF9"></path><path d="M325.15,225.19a7.89,7.89,0,0,1-3.85-.92l-6.76-3.91a2.71,2.71,0,0,1-1.59-2.22v79.28a2.71,2.71,0,0,0,1.59,2.22l6.76,3.9a7.89,7.89,0,0,0,3.85.92Z" style="opacity:0.2"></path><polygon points="372.44 209.34 333.28 232.1 333.28 307.05 372.44 284.3 372.44 209.34" style="fill:#90CAF9"></polygon><polygon points="372.44 209.34 333.28 232.1 333.28 307.05 372.44 284.3 372.44 209.34" style="fill:#fff;opacity:0.55"></polygon><path d="M334.54,233.34l37.9-21.88a15.94,15.94,0,0,0,8.67,4.77L343.53,238S341.1,237.45,334.54,233.34Z" style="fill:#f5f5f5"></path><path d="M347.17,237.89a8,8,0,0,1-7.28,0l-6.38-3.69c-2-1.16-2-3,0-4.2l37.35-21.57,1.58.91L335.7,230.69a1.33,1.33,0,0,0,0,2.52l5.93,3.38a4.81,4.81,0,0,0,4.37,0l36.72-21.3,1.8,1Z" style="fill:#90CAF9"></path><path d="M347.17,237.89a8,8,0,0,1-7.28,0l-6.38-3.69c-2-1.16-2-3,0-4.2l37.35-21.57,1.58.91L335.7,230.69a1.33,1.33,0,0,0,0,2.52l5.93,3.38a4.81,4.81,0,0,0,4.37,0l36.72-21.3,1.8,1Z" style="fill:#fff;opacity:0.8"></path><path d="M384.52,216.32v74.95l-37.35,21.57a8,8,0,0,1-7.28,0l-6.39-3.69a2.54,2.54,0,0,1-1.5-2.1v-75a2.56,2.56,0,0,0,1.5,2.1l6.39,3.69a8,8,0,0,0,7.28,0Z" style="fill:#90CAF9"></path><path d="M384.52,216.32v74.95l-37.35,21.57a8,8,0,0,1-7.28,0l-6.39-3.69a2.54,2.54,0,0,1-1.5-2.1v-75a2.56,2.56,0,0,0,1.5,2.1l6.39,3.69a8,8,0,0,0,7.28,0Z" style="fill:#fff;opacity:0.7000000000000001"></path><path d="M343.53,238.76a7.42,7.42,0,0,1-3.64-.87l-6.39-3.69a2.56,2.56,0,0,1-1.5-2.1v75a2.54,2.54,0,0,0,1.5,2.1l6.39,3.69a7.42,7.42,0,0,0,3.64.87Z" style="fill:#90CAF9"></path><path d="M343.53,238.76a7.42,7.42,0,0,1-3.64-.87l-6.39-3.69a2.56,2.56,0,0,1-1.5-2.1v75a2.54,2.54,0,0,0,1.5,2.1l6.39,3.69a7.42,7.42,0,0,0,3.64.87Z" style="fill:#fff;opacity:0.55"></path><polygon points="421.54 222.6 421.96 228.3 371.56 255.34 370.42 252.02 421.54 222.6" style="fill:#90CAF9"></polygon><polygon points="421.54 222.6 421.96 228.3 371.56 255.34 370.42 252.02 421.54 222.6" style="opacity:0.35000000000000003"></polygon><polygon points="371.09 253.34 419.91 225.16 428.4 230.06 378.62 259.18 371.09 253.34" style="fill:#f5f5f5"></polygon><path d="M387.79,256.16l6.07,48.76a4,4,0,0,1-1.81,3.13l-28.32,16.39a3.5,3.5,0,0,1-1.47.42L378.62,261a3.45,3.45,0,0,0,1.47-.41l2-1.18Z" style="fill:#90CAF9"></path><path d="M387.79,256.16l6.07,48.76a4,4,0,0,1-1.81,3.13l-28.32,16.39a3.5,3.5,0,0,1-1.47.42L378.62,261a3.45,3.45,0,0,0,1.47-.41l2-1.18Z" style="opacity:0.35000000000000003"></path><path d="M376.47,260.61l-5.05-4.32-3.71-3.18c-.38-.6-.82-1.05-.58-1.55L351,314.88l0,.06c-.24.5-.31,1.62.38,2l8.75,7.49a3.73,3.73,0,0,0,2.16.42L378.62,261A3.75,3.75,0,0,1,376.47,260.61Z" style="fill:#90CAF9"></path><path d="M376.47,260.61l-5.05-4.32-3.71-3.18c-.38-.6-.82-1.05-.58-1.55L351,314.88l0,.06c-.24.5-.31,1.62.38,2l8.75,7.49a3.73,3.73,0,0,0,2.16.42L378.62,261A3.75,3.75,0,0,1,376.47,260.61Z" style="opacity:0.25"></path><path d="M367.71,251c-1,.58-.75,1.22,0,2.09l8.76,7.5a4,4,0,0,0,3.62,0l7.7-4.45c1-.57,1.18-1.41.39-1.86a3.61,3.61,0,0,0-3.22.23L378.88,258a1.36,1.36,0,0,1-1.21,0l-6.4-5.56c-.33-.19-.33-.5,0-.7l50.27-29.18-2.41-1.39Z" style="fill:#90CAF9"></path><path d="M367.71,251c-1,.58-.75,1.22,0,2.09l8.76,7.5a4,4,0,0,0,3.62,0l7.7-4.45c1-.57,1.18-1.41.39-1.86a3.61,3.61,0,0,0-3.22.23L378.88,258a1.36,1.36,0,0,1-1.21,0l-6.4-5.56c-.33-.19-.33-.5,0-.7l50.27-29.18-2.41-1.39Z" style="opacity:0.15"></path><polygon points="431.28 223.46 385.5 250.06 385.5 337.66 431.28 311.07 431.28 223.46" style="fill:#455a64"></polygon><path d="M387,251.51l44.3-25.57q3.42,4,10.13,5.57L397.48,257S394.65,256.31,387,251.51Z" style="fill:#f5f5f5"></path><path d="M401.74,256.82a9.39,9.39,0,0,1-8.51,0l-7.46-4.3c-2.35-1.36-2.35-3.56,0-4.92l43.66-25.21,1.85,1.07-42.94,24.95c-1.41.81-1.41,2.13,0,2.94l6.93,4a5.68,5.68,0,0,0,5.11,0l42.93-24.9,2.09,1.21Z" style="fill:#263238"></path><path d="M445.4,231.61v87.61l-43.66,25.2a9.39,9.39,0,0,1-8.51,0l-7.46-4.3a3,3,0,0,1-1.76-2.46v-87.6a3,3,0,0,0,1.76,2.45l7.46,4.32a9.45,9.45,0,0,0,8.51,0Z" style="fill:#455a64"></path><path d="M397.48,257.85a8.65,8.65,0,0,1-4.25-1l-7.46-4.32a3,3,0,0,1-1.76-2.45v87.6a3,3,0,0,0,1.76,2.46l7.46,4.3a8.65,8.65,0,0,0,4.25,1Z" style="fill:#37474f"></path><polygon points="450 234.27 404.22 260.87 404.22 348.48 450 321.88 450 234.27" style="fill:#90CAF9"></polygon><polygon points="450 234.27 404.22 260.87 404.22 348.48 450 321.88 450 234.27" style="opacity:0.35000000000000003"></polygon><path d="M405.7,262.32,450,236.75q3.42,4,10.13,5.57L416.2,267.79S413.36,267.12,405.7,262.32Z" style="fill:#ebebeb"></path><path d="M405.7,262.32,450,236.75q3.42,4,10.13,5.57L416.2,267.79S413.36,267.12,405.7,262.32Z" style="fill:#f5f5f5"></path><path d="M420.46,267.63a9.39,9.39,0,0,1-8.51,0l-7.46-4.3c-2.35-1.36-2.35-3.56,0-4.92l43.66-25.2,1.85,1.06-42.94,25c-1.41.81-1.41,2.13,0,2.94l6.93,4a5.68,5.68,0,0,0,5.11,0L462,241.22l2.1,1.21Z" style="fill:#90CAF9"></path><path d="M420.46,267.63a9.39,9.39,0,0,1-8.51,0l-7.46-4.3c-2.35-1.36-2.35-3.56,0-4.92l43.66-25.2,1.85,1.06-42.94,25c-1.41.81-1.41,2.13,0,2.94l6.93,4a5.68,5.68,0,0,0,5.11,0L462,241.22l2.1,1.21Z" style="opacity:0.25"></path><path d="M464.11,242.42V330l-43.65,25.21a9.45,9.45,0,0,1-8.51,0l-7.46-4.31a3,3,0,0,1-1.76-2.46v-87.6a3,3,0,0,0,1.76,2.45l7.46,4.32a9.39,9.39,0,0,0,8.51,0Z" style="fill:#90CAF9"></path><path d="M416.2,268.66a8.65,8.65,0,0,1-4.25-1l-7.46-4.32a3,3,0,0,1-1.76-2.45v87.6a3,3,0,0,0,1.76,2.46l7.46,4.31a8.75,8.75,0,0,0,4.25,1Z" style="opacity:0.15"></path></g></g><g id="freepik--Shelves--inject-94"><g id="freepik--book-shelf--inject-94"><g id="freepik--Shelf--inject-94"><path d="M205.55,103.87V97.42h0a2.2,2.2,0,0,0-1.29-1.72l-39-22.37a6.67,6.67,0,0,0-6,0L47.19,137.65a2.19,2.19,0,0,0-1.29,1.72h0v6.45h0a2.19,2.19,0,0,0,1.29,1.72l39,22.38a6.67,6.67,0,0,0,6,0l112.08-64.33a2.19,2.19,0,0,0,1.29-1.72Z" style="fill:#f0f0f0"></path><path d="M47.19,141.09l39,22.37a6.67,6.67,0,0,0,6,0L204.26,99.14c1.65-1,1.65-2.49,0-3.44l-39-22.37a6.67,6.67,0,0,0-6,0L47.19,137.65C45.54,138.6,45.54,140.14,47.19,141.09Z" style="fill:#fafafa"></path><path d="M89.17,164.18v6.45a6.32,6.32,0,0,1-3-.71l-39-22.37a2.23,2.23,0,0,1-1.29-1.72h0v-6.46h0a1.63,1.63,0,0,1,.25-.73c-.45.83-.11,1.79,1,2.45l39,22.37A6,6,0,0,0,89.17,164.18Z" style="fill:#e0e0e0"></path></g><polygon points="94.26 115.37 127.3 134.2 181.87 102.88 148.84 84.05 94.26 115.37" style="fill:#e0e0e0"></polygon><path d="M127.67,132.77,95.81,114.48a13.24,13.24,0,0,0-.17-8.26l31.66,18.09S127.9,126.3,127.67,132.77Z" style="fill:#fff"></path><path d="M125.67,121.73a6.72,6.72,0,0,1,3.06,5.27v6.16c0,1.94-1.37,2.72-3.06,1.75l-31.4-18v-1.52l31,17.67c1,.58,1.83.11,1.83-1.06l0-5.71a4,4,0,0,0-1.83-3.16L94.27,105.44v-1.73Z" style="fill:#ebebeb"></path><path d="M94.27,103.71l54.57-31.32,31.4,18a6.72,6.72,0,0,1,3.06,5.27v6.16a2.13,2.13,0,0,1-.9,2l-54.57,31.32a2.13,2.13,0,0,0,.9-2V127a6.73,6.73,0,0,0-3.07-5.27Z" style="fill:#e0e0e0"></path><path d="M127.84,124a6.23,6.23,0,0,1,.9,3v6.16a2.13,2.13,0,0,1-.9,2l54.57-31.32a2.13,2.13,0,0,0,.9-2V95.68a6.16,6.16,0,0,0-.9-3Z" style="fill:#ebebeb"></path><polygon points="94.27 99.91 127.3 118.74 181.87 87.43 148.84 68.59 94.27 99.91" style="fill:#e0e0e0"></polygon><path d="M127.67,117.31,95.81,99a13.27,13.27,0,0,0-.17-8.27l31.66,18.09S127.9,110.85,127.67,117.31Z" style="fill:#fff"></path><path d="M125.67,106.27a6.72,6.72,0,0,1,3.06,5.27v6.16c0,1.94-1.37,2.73-3.06,1.76l-31.4-18V99.91l31,17.67c1,.58,1.84.11,1.84-1l0-5.71a4,4,0,0,0-1.84-3.16L94.27,90V88.25Z" style="fill:#ebebeb"></path><path d="M94.27,88.25l54.57-31.31,31.4,18a6.72,6.72,0,0,1,3.06,5.27v6.16a2.14,2.14,0,0,1-.9,2l-54.57,31.31a2.13,2.13,0,0,0,.9-2v-6.16a6.72,6.72,0,0,0-3.06-5.27Z" style="fill:#fafafa"></path><path d="M127.84,108.54a6.27,6.27,0,0,1,.9,3v6.16a2.13,2.13,0,0,1-.9,2L182.4,88.36a2.14,2.14,0,0,0,.9-2V80.23a6.13,6.13,0,0,0-.9-3Z" style="fill:#f0f0f0"></path><polygon points="80.26 56.49 115.4 76.79 115.4 143.64 80.26 123.35 80.26 56.49" style="fill:#e0e0e0"></polygon><path d="M114.27,77.9l-34-19.52a14.31,14.31,0,0,1-7.78,4.26l33.73,19.43S108.38,81.56,114.27,77.9Z" style="fill:#fff"></path><path d="M102.94,82a7.22,7.22,0,0,0,6.53,0l5.73-3.28c1.8-1,1.8-2.72,0-3.75L81.68,55.68l-1.42.81,33,19a1.19,1.19,0,0,1,0,2.25l-5.33,3a4.36,4.36,0,0,1-3.92,0L71,61.8l-1.61.92Z" style="fill:#fafafa"></path><path d="M69.42,62.72v66.85l33.52,19.23a7.22,7.22,0,0,0,6.53,0l5.73-3.28a2.29,2.29,0,0,0,1.35-1.88V76.79a2.26,2.26,0,0,1-1.35,1.87L109.47,82a7.29,7.29,0,0,1-6.53,0Z" style="fill:#e0e0e0"></path><path d="M106.2,82.73a6.78,6.78,0,0,0,3.27-.77l5.73-3.3a2.26,2.26,0,0,0,1.35-1.87v66.85a2.29,2.29,0,0,1-1.35,1.88l-5.73,3.28a6.67,6.67,0,0,1-3.27.78Z" style="fill:#ebebeb"></path><polygon points="65.89 64.74 101.03 85.04 101.03 151.89 65.89 131.6 65.89 64.74" style="fill:#ebebeb"></polygon><path d="M99.9,86.15l-34-19.52a14.31,14.31,0,0,1-7.78,4.26L91.83,90.32S94,89.81,99.9,86.15Z" style="fill:#fff"></path><path d="M88.57,90.2a7.22,7.22,0,0,0,6.53,0l5.73-3.28c1.8-1,1.8-2.72,0-3.75L67.31,63.93l-1.42.81,33,19a1.18,1.18,0,0,1,0,2.25l-5.32,3a4.36,4.36,0,0,1-3.92,0l-32.95-19L55.05,71Z" style="fill:#fafafa"></path><path d="M55.05,71v66.85l33.52,19.23a7.22,7.22,0,0,0,6.53,0l5.73-3.28a2.29,2.29,0,0,0,1.35-1.88V85a2.26,2.26,0,0,1-1.35,1.87l-5.73,3.3a7.29,7.29,0,0,1-6.53,0Z" style="fill:#ebebeb"></path><path d="M91.83,91a6.78,6.78,0,0,0,3.27-.77l5.73-3.3A2.26,2.26,0,0,0,102.18,85v66.85a2.29,2.29,0,0,1-1.35,1.88l-5.73,3.28a6.67,6.67,0,0,1-3.27.78Z" style="fill:#f0f0f0"></path></g><g id="freepik--book-shelf--inject-94"><g id="freepik--shelf--inject-94"><path d="M314,103.87V97.42h0a2.2,2.2,0,0,1,1.29-1.72l39-22.37a6.65,6.65,0,0,1,6,0l112.08,64.32a2.19,2.19,0,0,1,1.29,1.72h0v6.45h0a2.19,2.19,0,0,1-1.29,1.72l-39,22.38a6.65,6.65,0,0,1-6,0L315.28,105.59a2.19,2.19,0,0,1-1.29-1.72Z" style="fill:#f0f0f0"></path><path d="M472.34,141.09l-39,22.37a6.65,6.65,0,0,1-6,0L315.28,99.14c-1.65-1-1.65-2.49,0-3.44l39-22.37a6.65,6.65,0,0,1,6,0l112.08,64.32C474,138.6,474,140.14,472.34,141.09Z" style="fill:#fafafa"></path><path d="M430.36,164.18v6.45a6.32,6.32,0,0,0,3-.71l39-22.37a2.19,2.19,0,0,0,1.29-1.72h0v-6.46h0a1.61,1.61,0,0,0-.24-.73c.45.83.11,1.79-1.05,2.45l-39,22.37A5.94,5.94,0,0,1,430.36,164.18Z" style="fill:#e0e0e0"></path></g><polygon points="425.27 115.37 392.24 134.2 337.67 102.88 370.7 84.05 425.27 115.37" style="fill:#e0e0e0"></polygon><path d="M391.86,132.77l31.87-18.29a13.24,13.24,0,0,1,.17-8.26l-31.66,18.09S391.63,126.3,391.86,132.77Z" style="fill:#fff"></path><path d="M393.87,121.73A6.7,6.7,0,0,0,390.8,127v6.16c0,1.94,1.37,2.72,3.07,1.75l31.4-18v-1.52l-31,17.67c-1,.58-1.84.11-1.84-1.06l0-5.71a4,4,0,0,1,1.84-3.16l30.95-17.67v-1.73Z" style="fill:#ebebeb"></path><path d="M425.27,103.71,370.7,72.39l-31.4,18a6.72,6.72,0,0,0-3.06,5.27v6.16a2.14,2.14,0,0,0,.89,2l54.57,31.32a2.14,2.14,0,0,1-.89-2V127a6.72,6.72,0,0,1,3.06-5.27Z" style="fill:#e0e0e0"></path><path d="M391.7,124a6.13,6.13,0,0,0-.9,3v6.16a2.14,2.14,0,0,0,.89,2l-54.57-31.32a2.14,2.14,0,0,1-.89-2V95.68a6.25,6.25,0,0,1,.89-3Z" style="fill:#ebebeb"></path><polygon points="425.27 99.91 392.24 118.74 337.67 87.43 370.7 68.59 425.27 99.91" style="fill:#e0e0e0"></polygon><path d="M391.86,117.31,423.73,99a13.2,13.2,0,0,1,.17-8.27l-31.66,18.09S391.63,110.85,391.86,117.31Z" style="fill:#fff"></path><path d="M393.86,106.27a6.72,6.72,0,0,0-3.06,5.27v6.16c0,1.94,1.37,2.73,3.06,1.76l31.41-18V99.91l-31,17.67c-1,.58-1.84.11-1.84-1l0-5.71a4,4,0,0,1,1.84-3.16L425.27,90V88.25Z" style="fill:#ebebeb"></path><path d="M425.27,88.25,370.7,56.94,339.3,75a6.73,6.73,0,0,0-3.07,5.27v6.16a2.16,2.16,0,0,0,.9,2l54.57,31.31a2.15,2.15,0,0,1-.9-2v-6.16a6.72,6.72,0,0,1,3.06-5.27Z" style="fill:#fafafa"></path><path d="M391.7,108.54a6.16,6.16,0,0,0-.9,3v6.16a2.15,2.15,0,0,0,.9,2L337.13,88.36a2.16,2.16,0,0,1-.9-2V80.23a6.23,6.23,0,0,1,.9-3Z" style="fill:#f0f0f0"></path><polygon points="439.28 56.49 404.14 76.79 404.14 143.64 439.28 123.35 439.28 56.49" style="fill:#e0e0e0"></polygon><path d="M405.27,77.9l34-19.52a14.28,14.28,0,0,0,7.77,4.26L413.33,82.07S411.15,81.56,405.27,77.9Z" style="fill:#fff"></path><path d="M416.6,82a7.24,7.24,0,0,1-6.54,0l-5.72-3.28c-1.81-1-1.81-2.72,0-3.75l33.51-19.24,1.43.81-33,19a1.19,1.19,0,0,0,0,2.25l5.32,3a4.38,4.38,0,0,0,3.93,0l32.95-19,1.61.92Z" style="fill:#fafafa"></path><path d="M450.11,62.72v66.85L416.6,148.8a7.24,7.24,0,0,1-6.54,0l-5.72-3.28a2.29,2.29,0,0,1-1.35-1.88V76.79a2.26,2.26,0,0,0,1.35,1.87l5.72,3.3a7.31,7.31,0,0,0,6.54,0Z" style="fill:#e0e0e0"></path><path d="M413.33,82.73a6.84,6.84,0,0,1-3.27-.77l-5.72-3.3A2.26,2.26,0,0,1,403,76.79v66.85a2.29,2.29,0,0,0,1.35,1.88l5.72,3.28a6.73,6.73,0,0,0,3.27.78Z" style="fill:#ebebeb"></path><polygon points="453.65 64.74 418.51 85.04 418.51 151.89 453.65 131.6 453.65 64.74" style="fill:#ebebeb"></polygon><path d="M419.64,86.15l34-19.52a14.32,14.32,0,0,0,7.77,4.26L427.7,90.32S425.52,89.81,419.64,86.15Z" style="fill:#fff"></path><path d="M431,90.2a7.24,7.24,0,0,1-6.54,0l-5.72-3.28c-1.81-1-1.81-2.72,0-3.75l33.52-19.24,1.42.81-33,19a1.19,1.19,0,0,0,0,2.25l5.32,3a4.38,4.38,0,0,0,3.93,0l32.95-19,1.61.92Z" style="fill:#fafafa"></path><path d="M464.48,71v66.85L431,157.05a7.24,7.24,0,0,1-6.54,0l-5.72-3.28a2.29,2.29,0,0,1-1.35-1.88V85a2.26,2.26,0,0,0,1.35,1.87l5.72,3.3a7.31,7.31,0,0,0,6.54,0Z" style="fill:#ebebeb"></path><path d="M427.7,91a6.84,6.84,0,0,1-3.27-.77l-5.72-3.3A2.26,2.26,0,0,1,417.36,85v66.85a2.29,2.29,0,0,0,1.35,1.88l5.72,3.28a6.73,6.73,0,0,0,3.27.78Z" style="fill:#f0f0f0"></path></g></g><g id="freepik--speech-bubble--inject-94"><g id="freepik--speach-bubble--inject-94"><path d="M251.51,201.19l-4.8-9L250.58,181v-6.83L238.74,181v6.84l5.09,8.81a.72.72,0,0,0,.34.31h0Z" style="fill:#90CAF9"></path><path d="M251.51,201.19l-4.8-9L250.58,181v-6.83L238.74,181v6.84l5.09,8.81a.72.72,0,0,0,.34.31h0Z" style="opacity:0.2"></path><path d="M279.78,119.83a7.84,7.84,0,0,0-3.55-6.15L273.34,112a7.86,7.86,0,0,0-7.1,0l-44.31,25.63a7.83,7.83,0,0,0-3.54,6.15v48.75a7.84,7.84,0,0,0,3.54,6.15l2.89,1.67a7.86,7.86,0,0,0,7.1,0l14.25-8.24,5.08,8.8a.76.76,0,0,0,1.37-.13l5.37-15.5,18.24-10.56a7.85,7.85,0,0,0,3.55-6.15Z" style="fill:#90CAF9"></path><path d="M218.39,192.54a7.84,7.84,0,0,0,3.54,6.15l2.89,1.67a7.92,7.92,0,0,0,6.49.28c-1.67.63-2.94-.31-2.94-2.33V149.55a7.25,7.25,0,0,1,1-3.49l-10-5.77a7.27,7.27,0,0,0-1,3.5Z" style="opacity:0.2"></path><path d="M279.66,118.82c-.41-1.51-1.78-2-3.42-1l-44.32,25.63a7,7,0,0,0-2.5,2.65l-10-5.76a7,7,0,0,1,2.5-2.65L266.24,112a7.92,7.92,0,0,1,7.1,0l2.9,1.68A7.79,7.79,0,0,1,279.66,118.82Z" style="fill:#fff;opacity:0.5"></path><path d="M239.14,161.64a22.81,22.81,0,0,1,1.86-8.77h0l0-.06c1.37-3.17,3.37-5.85,5.6-7.16,3.83-2.26,7,2.32,7.52,7.72.46-6,3.59-14.26,7.41-16.5,2.23-1.31,4.25-1,5.64.56l0,0h0c1.18,1.35,1.91,3.6,1.93,6.55,0,9.12-5.45,17.4-10,26.11l-5,8.41-4.78-2.69C244.72,172.57,239.18,170.77,239.14,161.64Z" style="fill:#fafafa"></path></g></g><g id="freepik--Character--inject-94"><g id="freepik--character--inject-94"><path d="M277.45,351.34s-3.19-17.39-7.59-35.8c-3.73-15.56-14.26-26.3-33.76-20.64l18.45,62.87a16.11,16.11,0,0,0,10.74,11.52l12.16,3.87,37.06,13.59,3.75-11.68C313.21,372.1,277.45,351.34,277.45,351.34Z" style="fill:#ffa8a7"></path><path d="M232.34,294.9s12.51-3.18,18.59-1.53,13.89,3.93,18.11,17.44,7.2,31.44,7.2,31.44-5.86,10.62-24.51,8.74Z" style="fill:#90CAF9"></path><g id="freepik--Book--inject-94"><polygon points="261.43 444.82 339.34 399.84 289.57 371.11 211.66 416.09 261.43 444.82" style="fill:#90CAF9"></polygon><polygon points="261.43 444.82 339.34 399.84 289.57 371.11 211.66 416.09 261.43 444.82" style="opacity:0.15"></polygon><path d="M299.35,421.74v-1.4c0-1.71,3.06-6.61,6.88-8.82l30.95-17.86v6.24Z" style="fill:#f5f5f5"></path><path d="M337.17,393.66l-30.95,17.87c-3.82,2.2-6.89,7.1-6.88,8.81v1.4l-47.61-27.49h0v-1.39c0-1.72,3.06-6.62,6.88-8.82l30.93-17.86h0Z" style="fill:#fafafa"></path><path d="M337.17,393.66l-30.95,17.87c-3.82,2.2-6.89,7.1-6.88,8.81v1.4l-47.61-27.49h0v-1.39c0-1.72,3.06-6.62,6.88-8.82l30.95-17.87Z" style="fill:#fafafa"></path><path d="M299.34,420.44l-3-1.71-3.91-2.26a7.67,7.67,0,0,1,4.81.69A4,4,0,0,1,299.34,420.44Z" style="fill:#f0f0f0"></path><path d="M299.34,420.44l-3-1.71-3.91-2.26a7.67,7.67,0,0,1,4.81.69A4,4,0,0,1,299.34,420.44Z" style="fill:#e0e0e0"></path><polygon points="261.44 446.12 261.43 444.82 211.66 416.09 211.66 417.38 261.44 446.12" style="fill:#90CAF9"></polygon><polygon points="261.44 446.12 261.43 444.82 211.66 416.09 211.66 417.38 261.44 446.12" style="opacity:0.30000000000000004"></polygon><polygon points="261.44 446.12 339.35 401.14 339.34 399.84 261.43 444.82 261.44 446.12" style="fill:#90CAF9"></polygon><path d="M299.34,420.44c0-1.71-3.15-3.14-7-.95l-30.93,17.73v6.41l37.92-21.89S299.36,422.16,299.34,420.44Z" style="fill:#f5f5f5"></path><polygon points="261.43 443.63 261.43 437.22 213.82 409.73 213.82 416.14 261.43 443.63" style="fill:#ebebeb"></polygon><path d="M292.37,419.49l-1.39.8-29.55,16.93-42.06-24.28-5.55-3.21L244.76,392c2.8-1.61,4.37-1.49,5.48-.86h0L298.5,419C296.76,418,294.72,418.24,292.37,419.49Z" style="fill:#fafafa"></path><polygon points="259.26 432.39 285.61 417.19 287 416.39 288.01 416.98 286.62 417.77 260.28 432.97 259.26 432.39" style="fill:#e0e0e0"></polygon><polygon points="256.83 430.98 283.18 415.78 284.56 414.99 285.58 415.57 284.19 416.37 257.84 431.57 256.83 430.98" style="fill:#e0e0e0"></polygon><polygon points="254.4 429.58 280.74 414.38 282.13 413.58 283.14 414.17 281.76 414.96 255.41 430.16 254.4 429.58" style="fill:#e0e0e0"></polygon><polygon points="251.96 428.17 278.31 412.97 279.7 412.18 280.71 412.76 279.32 413.56 252.98 428.76 251.96 428.17" style="fill:#e0e0e0"></polygon><polygon points="249.53 426.77 275.88 411.57 277.26 410.77 278.28 411.36 276.89 412.15 250.54 427.35 249.53 426.77" style="fill:#e0e0e0"></polygon><polygon points="247.1 425.36 273.44 410.16 274.83 409.37 275.85 409.95 274.46 410.75 248.11 425.95 247.1 425.36" style="fill:#e0e0e0"></polygon><polygon points="244.66 423.96 271.01 408.76 272.4 407.96 273.41 408.55 272.03 409.34 245.68 424.54 244.66 423.96" style="fill:#e0e0e0"></polygon><polygon points="242.23 422.55 268.58 407.35 269.97 406.56 270.98 407.14 269.59 407.94 243.25 423.14 242.23 422.55" style="fill:#e0e0e0"></polygon><polygon points="239.8 421.15 266.15 405.95 267.53 405.15 268.55 405.74 267.16 406.53 240.81 421.74 239.8 421.15" style="fill:#e0e0e0"></polygon><polygon points="237.37 419.75 263.71 404.54 265.1 403.75 266.11 404.33 264.73 405.13 238.38 420.33 237.37 419.75" style="fill:#e0e0e0"></polygon><polygon points="234.93 418.34 261.28 403.14 262.67 402.35 263.68 402.93 262.29 403.72 235.95 418.93 234.93 418.34" style="fill:#e0e0e0"></polygon><polygon points="232.5 416.94 258.85 401.73 260.23 400.94 261.25 401.53 259.86 402.32 233.51 417.52 232.5 416.94" style="fill:#e0e0e0"></polygon><polygon points="230.07 415.53 256.41 400.33 257.8 399.54 258.81 400.12 257.43 400.91 231.08 416.12 230.07 415.53" style="fill:#e0e0e0"></polygon><polygon points="227.63 414.13 253.98 398.92 255.37 398.13 256.38 398.72 255 399.51 228.65 414.71 227.63 414.13" style="fill:#e0e0e0"></polygon><polygon points="225.2 412.72 251.55 397.52 252.94 396.73 253.95 397.31 252.56 398.1 226.22 413.31 225.2 412.72" style="fill:#e0e0e0"></polygon><polygon points="222.77 411.32 249.12 396.11 250.5 395.32 251.51 395.91 250.13 396.7 223.78 411.9 222.77 411.32" style="fill:#e0e0e0"></polygon><polygon points="220.34 409.91 246.68 394.71 248.07 393.92 249.08 394.5 247.7 395.3 221.35 410.5 220.34 409.91" style="fill:#e0e0e0"></polygon><path d="M292.66,417.83c-.57.06-1.78.45-2.45.6-2.81.63-7.77,2.9-12.53,5.28-6.35,3.18-12.33,6.57-12.33,6.57l-43.56-25.12,23-13.15a9.78,9.78,0,0,1,2.83-1.18,6.09,6.09,0,0,1,2,.68l.31-.53.35.17L298.5,419A7.87,7.87,0,0,0,292.66,417.83Z" style="opacity:0.1"></path><polygon points="261.4 438.62 266.12 436.22 261.43 439.08 256.71 436.36 261.4 438.62" style="fill:#e6e6e6"></polygon><polygon points="261.43 441.82 270.09 436.83 261.44 441.49 251.7 436.2 261.43 441.82" style="fill:#e6e6e6"></polygon><polygon points="213.82 411.15 221.1 415.54 213.82 411.82 213.82 411.15" style="fill:#e6e6e6"></polygon><polygon points="213.83 413.65 224.64 420.26 213.82 414.25 213.83 413.65" style="fill:#e6e6e6"></polygon><path d="M292.47,416.47a15.86,15.86,0,0,0-1.85.31c-2.82.64-7.78,2.9-12.53,5.28-6.35,3.18-12.34,6.58-12.34,6.58l-47.63-27.48s18.12-10.43,25.23-11.81c3.34-.64,5.39-.19,6.63.52h0l47.29,27.3A7.67,7.67,0,0,0,292.47,416.47Z" style="fill:#f5f5f5"></path><path d="M291.87,414a7.73,7.73,0,0,0-4.81-.7,18.49,18.49,0,0,0-1.85.32,45.64,45.64,0,0,0-7.78,3c-1.55.71-3.16,1.49-4.75,2.29-3.82,1.91-7.51,3.9-9.84,5.19l1.08.62c2.33-1.28,6-3.27,9.84-5.18,1.59-.8,3.2-1.58,4.75-2.3a45.45,45.45,0,0,1,7.78-3,14,14,0,0,1,1.86-.32,7.79,7.79,0,0,1,4.8.69Z" style="fill:#e0e0e0"></path><path d="M289.44,412.63a7.75,7.75,0,0,0-4.81-.69,16.37,16.37,0,0,0-1.86.31,46.51,46.51,0,0,0-7.78,3c-1.55.71-3.16,1.5-4.75,2.29-3.82,1.92-7.51,3.91-9.84,5.19l1.08.62c2.33-1.28,6-3.27,9.84-5.18,1.59-.8,3.21-1.58,4.76-2.29a45.59,45.59,0,0,1,7.77-3,16.53,16.53,0,0,1,1.86-.32,7.73,7.73,0,0,1,4.81.7Z" style="fill:#e0e0e0"></path><path d="M287,411.23a7.73,7.73,0,0,0-4.81-.7,16.53,16.53,0,0,0-1.86.32,45.4,45.4,0,0,0-7.77,3c-1.55.72-3.16,1.5-4.75,2.3C264,418,260.3,420,258,421.31l1.09.63c2.33-1.29,6-3.28,9.84-5.19,1.59-.8,3.2-1.58,4.75-2.29a45.32,45.32,0,0,1,7.78-3,18.49,18.49,0,0,1,1.85-.32,7.73,7.73,0,0,1,4.81.7Z" style="fill:#e0e0e0"></path><path d="M284.56,409.82a7.73,7.73,0,0,0-4.81-.7,18.49,18.49,0,0,0-1.85.32,45.32,45.32,0,0,0-7.78,3c-1.55.71-3.16,1.49-4.75,2.29-3.82,1.91-7.51,3.9-9.84,5.19l1.08.62c2.33-1.28,6-3.27,9.84-5.19,1.59-.79,3.2-1.57,4.75-2.29a46.51,46.51,0,0,1,7.78-3,15.86,15.86,0,0,1,1.85-.31,7.74,7.74,0,0,1,4.81.69Z" style="fill:#e0e0e0"></path><path d="M282.12,408.41a7.71,7.71,0,0,0-4.8-.7,18.18,18.18,0,0,0-1.86.32,45.64,45.64,0,0,0-7.78,3c-1.55.71-3.16,1.5-4.75,2.29-3.82,1.92-7.51,3.91-9.84,5.19l1.08.62c2.33-1.28,6-3.27,9.84-5.18,1.59-.8,3.2-1.58,4.75-2.3a45.45,45.45,0,0,1,7.78-3,16.53,16.53,0,0,1,1.86-.32,7.74,7.74,0,0,1,4.81.7Z" style="fill:#e0e0e0"></path><path d="M279.69,407a7.81,7.81,0,0,0-4.81-.69,14.54,14.54,0,0,0-1.86.32,45.45,45.45,0,0,0-7.78,3c-1.54.72-3.16,1.5-4.75,2.29-3.82,1.92-7.51,3.91-9.84,5.19l1.08.63c2.34-1.29,6-3.28,9.85-5.19,1.59-.8,3.2-1.58,4.75-2.29a45.59,45.59,0,0,1,7.77-3c.67-.15,1.29-.25,1.86-.32a7.73,7.73,0,0,1,4.81.7Z" style="fill:#e0e0e0"></path><path d="M277.25,405.6a7.73,7.73,0,0,0-4.81-.7,16.53,16.53,0,0,0-1.86.32,46.26,46.26,0,0,0-7.77,3c-1.55.72-3.16,1.5-4.75,2.3-3.83,1.91-7.51,3.9-9.84,5.18l1.08.63c2.33-1.28,6-3.27,9.84-5.19,1.59-.79,3.2-1.58,4.75-2.29a45.32,45.32,0,0,1,7.78-3,18.49,18.49,0,0,1,1.85-.32,7.73,7.73,0,0,1,4.81.7Z" style="fill:#e0e0e0"></path><path d="M274.81,404.19a7.73,7.73,0,0,0-4.81-.7,18.49,18.49,0,0,0-1.85.32,45.32,45.32,0,0,0-7.78,3c-1.55.71-3.16,1.49-4.75,2.29-3.82,1.91-7.51,3.9-9.84,5.19l1.08.62c2.33-1.28,6-3.27,9.84-5.18,1.59-.8,3.2-1.58,4.75-2.3a45.45,45.45,0,0,1,7.78-3,14,14,0,0,1,1.86-.32,7.79,7.79,0,0,1,4.8.69Z" style="fill:#e0e0e0"></path><path d="M268.65,402.71a16.53,16.53,0,0,0-1.86.32c-2.81.63-7.77,2.9-12.53,5.28-3.82,1.91-7.51,3.9-9.84,5.18l-1.08-.62c2.33-1.28,6-3.27,9.84-5.19,4.75-2.38,9.72-4.64,12.53-5.28a16,16,0,0,1,1.86-.31,7.72,7.72,0,0,1,4.8.69l1.09.63A7.73,7.73,0,0,0,268.65,402.71Z" style="fill:#e0e0e0"></path><path d="M266.21,401.3c-.57.07-1.19.17-1.86.32-2.81.63-7.77,2.9-12.52,5.28-3.83,1.91-7.51,3.9-9.84,5.19l-1.09-.63c2.34-1.28,6-3.27,9.84-5.18,4.76-2.38,9.72-4.65,12.53-5.28a16.53,16.53,0,0,1,1.86-.32,7.73,7.73,0,0,1,4.81.7L271,402A7.73,7.73,0,0,0,266.21,401.3Z" style="fill:#e0e0e0"></path><path d="M263.77,399.9a15.86,15.86,0,0,0-1.85.31c-2.82.64-7.78,2.9-12.53,5.28-3.82,1.92-7.51,3.91-9.84,5.19l-1.08-.62c2.33-1.29,6-3.28,9.84-5.19,4.75-2.38,9.71-4.65,12.53-5.28a18.49,18.49,0,0,1,1.85-.32,7.73,7.73,0,0,1,4.81.7l1.08.62A7.74,7.74,0,0,0,263.77,399.9Z" style="fill:#e0e0e0"></path><path d="M261.34,398.49a16.15,16.15,0,0,0-1.86.32c-2.81.63-7.78,2.9-12.53,5.28-3.82,1.91-7.51,3.9-9.84,5.18l-1.08-.62c2.33-1.28,6-3.27,9.84-5.19,4.75-2.38,9.71-4.64,12.53-5.28a18.49,18.49,0,0,1,1.85-.32,7.73,7.73,0,0,1,4.81.7l1.09.63A7.75,7.75,0,0,0,261.34,398.49Z" style="fill:#e0e0e0"></path><path d="M258.9,397.08c-.57.07-1.19.17-1.86.32-2.81.63-7.77,2.9-12.53,5.28-3.82,1.91-7.5,3.9-9.84,5.19l-1.08-.63c2.33-1.28,6-3.27,9.84-5.18,4.75-2.39,9.72-4.65,12.53-5.28a14.54,14.54,0,0,1,1.86-.32,7.82,7.82,0,0,1,4.81.69l1.08.63A7.73,7.73,0,0,0,258.9,397.08Z" style="fill:#e0e0e0"></path><path d="M256.46,395.67a18.49,18.49,0,0,0-1.85.32c-2.82.64-7.78,2.9-12.53,5.28-3.83,1.92-7.51,3.91-9.84,5.19l-1.09-.63c2.34-1.28,6-3.27,9.85-5.18,4.75-2.38,9.71-4.65,12.52-5.28a16.53,16.53,0,0,1,1.86-.32,7.73,7.73,0,0,1,4.81.7l1.08.62A7.73,7.73,0,0,0,256.46,395.67Z" style="fill:#e0e0e0"></path><path d="M254,394.27a14,14,0,0,0-1.86.32c-2.82.63-7.78,2.89-12.53,5.28-3.82,1.91-7.51,3.9-9.84,5.18l-1.08-.62c2.33-1.29,6-3.28,9.84-5.19,4.75-2.38,9.71-4.65,12.53-5.28a18.49,18.49,0,0,1,1.85-.32,7.73,7.73,0,0,1,4.81.7l1.08.62A7.79,7.79,0,0,0,254,394.27Z" style="fill:#e0e0e0"></path><path d="M251.59,392.86a16.53,16.53,0,0,0-1.86.32c-2.81.63-7.78,2.9-12.53,5.28-3.82,1.91-7.51,3.9-9.84,5.18l-1.08-.62c2.33-1.28,6-3.27,9.84-5.19,4.75-2.38,9.72-4.64,12.53-5.28a15.67,15.67,0,0,1,1.86-.31,7.72,7.72,0,0,1,4.8.69l1.09.63A7.74,7.74,0,0,0,251.59,392.86Z" style="fill:#e0e0e0"></path><path d="M249.15,391.45c-.57.07-1.19.17-1.86.32-2.81.63-7.77,2.9-12.52,5.28-3.83,1.91-7.51,3.9-9.85,5.19l-1.08-.63c2.33-1.28,6-3.27,9.84-5.18,4.76-2.38,9.72-4.65,12.53-5.28a16.53,16.53,0,0,1,1.86-.32,7.73,7.73,0,0,1,4.81.7l1.08.62A7.73,7.73,0,0,0,249.15,391.45Z" style="fill:#e0e0e0"></path><path d="M301.77,409a15.58,15.58,0,0,0-3.86,3.3l-1-.57a15.58,15.58,0,0,1,3.86-3.3l27.73-16,1,.58Z" style="fill:#e0e0e0"></path><path d="M299.33,407.55a15.51,15.51,0,0,0-3.85,3.3l-1-.57a15.3,15.3,0,0,1,3.85-3.3l27.74-16,1,.57Z" style="fill:#e0e0e0"></path><path d="M296.9,406.14a15.76,15.76,0,0,0-3.86,3.3l-1-.57a15.76,15.76,0,0,1,3.86-3.3l27.73-16,1,.58Z" style="fill:#e0e0e0"></path><path d="M294.46,404.74a15.3,15.3,0,0,0-3.85,3.3l-1-.58a15.47,15.47,0,0,1,3.85-3.29l27.74-16,1,.57Z" style="fill:#e0e0e0"></path><path d="M292,403.33a15.76,15.76,0,0,0-3.86,3.3l-1-.57a15.76,15.76,0,0,1,3.86-3.3l27.74-16,1,.57Z" style="fill:#e0e0e0"></path><path d="M289.59,401.93a15.3,15.3,0,0,0-3.85,3.3l-1-.58a15.47,15.47,0,0,1,3.85-3.29l27.74-16,1,.57Z" style="fill:#e0e0e0"></path><path d="M287.16,400.52a15.54,15.54,0,0,0-3.85,3.3l-1-.57a15.33,15.33,0,0,1,3.85-3.3l27.74-16,1,.57Z" style="fill:#e0e0e0"></path><path d="M284.72,399.12a15.47,15.47,0,0,0-3.85,3.29l-1-.57a15.72,15.72,0,0,1,3.85-3.3l27.74-16,1,.57Z" style="fill:#e0e0e0"></path><path d="M282.29,397.71a15.33,15.33,0,0,0-3.85,3.3l-1-.57a15.33,15.33,0,0,1,3.85-3.3l27.74-16,1,.57Z" style="fill:#e0e0e0"></path><path d="M279.86,396.31A15.51,15.51,0,0,0,276,399.6l-1-.57a15.58,15.58,0,0,1,3.86-3.3l27.73-16,1,.57Z" style="fill:#e0e0e0"></path><path d="M277.42,394.9a15.51,15.51,0,0,0-3.85,3.3l-1-.57a15.3,15.3,0,0,1,3.85-3.3l27.74-16,1,.57Z" style="fill:#e0e0e0"></path><path d="M275,393.49a15.76,15.76,0,0,0-3.86,3.3l-1-.57a15.76,15.76,0,0,1,3.86-3.3l27.74-16,1,.58Z" style="fill:#e0e0e0"></path><path d="M272.55,392.09a15.3,15.3,0,0,0-3.85,3.3l-1-.58a15.47,15.47,0,0,1,3.85-3.29l27.74-16,1,.57Z" style="fill:#e0e0e0"></path><path d="M270.12,390.68a15.76,15.76,0,0,0-3.86,3.3l-1-.57a15.76,15.76,0,0,1,3.86-3.3l27.74-16,1,.57Z" style="fill:#e0e0e0"></path><path d="M267.68,389.28a15.3,15.3,0,0,0-3.85,3.3l-1-.58a15.47,15.47,0,0,1,3.85-3.29l27.74-16,1,.57Z" style="fill:#e0e0e0"></path><path d="M265.25,387.87a15.54,15.54,0,0,0-3.85,3.3l-1-.57a15.33,15.33,0,0,1,3.85-3.3l27.74-16,1,.57Z" style="fill:#e0e0e0"></path><path d="M262.82,386.47a15.33,15.33,0,0,0-3.86,3.29l-1-.57a15.33,15.33,0,0,1,3.86-3.29l27.73-16,1,.57Z" style="fill:#e0e0e0"></path><polygon points="330.68 399.12 337.16 395.69 337.17 395.16 330.68 399.12" style="fill:#e6e6e6"></polygon><polygon points="337.17 397.6 326.35 403.65 337.17 397.21 337.17 397.6" style="fill:#e6e6e6"></polygon><path d="M225.54,397.09c5.85-3.09,13.68-6.94,17.81-7.74,3.34-.64,5.39-.19,6.63.52h0l47.29,27.3a7.67,7.67,0,0,0-4.81-.69S269.06,402.19,254,397.31A48.77,48.77,0,0,0,225.54,397.09Z" style="opacity:0.02"></path></g><path d="M117.51,230.25a62.58,62.58,0,0,1-3.89,10.82c-1,2.14-2.33,5.53-4.79,5.36.17-.58.32-1.15.44-1.69,0,0-.16-2.31-7.66-4.18s-9.49,0-9.49,0l-.33,1.25a37.16,37.16,0,0,1-3.86-1.43c-1.75-.78-4.56-2.08-5.5-3.85a6.73,6.73,0,0,1-.62-2.12c-.25-1.43-.51-2.85-.76-4.28a19.56,19.56,0,0,1-.45-6,4.56,4.56,0,0,1,2.05-3.57,5.17,5.17,0,0,1,2.3-.45c2.73-.13,6.19-1.3,8.9-1.56,2.53-.25,5-.84,7.51-1.06a21.94,21.94,0,0,1,7.64,1C114.32,220.17,118.93,225,117.51,230.25Z" style="fill:#455a64"></path><path d="M87.88,233.17c.45-5.16.62-12.83.62-12.83h0l-.44.09c-2.68.44-6.06,1.84-8.77,2.17a5.05,5.05,0,0,0-2.26.61,4.56,4.56,0,0,0-1.8,3.71,19.85,19.85,0,0,0,.87,6l1,4.21a7.21,7.21,0,0,0,.76,2.08c1.07,1.69,4,2.79,5.76,3.45a36.43,36.43,0,0,0,3.95,1.16l.25-1.27A53.37,53.37,0,0,1,87.88,233.17Z" style="fill:#37474f"></path><path d="M71,244.69l-3.38-12.55,19.52-.51,4.2,11.58s-1.8,1.83-2.83,3.06a12.16,12.16,0,0,1-14.7,3.29,4.93,4.93,0,0,1-1.46-1Z" style="fill:#ffa8a7"></path><path d="M30.75,194.61c-.41,3.84.11,11.88,5.1,16.56s16.79,10.91,21.63,13.71c6.26,3.62,10.46,11.34,10.46,11.34s3,3.54,11.51,2.25c6-.91,8.67-3.3,9.51-5,0,0,.24-2.78.42-4.35a52.77,52.77,0,0,0,.07-14Z" style="fill:#455a64"></path><path d="M86.56,220c-4.93,3.67-13.23,4.56-22.84-1s-22.5-11.43-27.51-15.28c-6.77-5.2-10.38-16,8.23-14.89,13.85.78,21.43,11.11,28.31,13.73S96.09,212.85,86.56,220Z" style="fill:#37474f"></path><path d="M103.4,331.62c-11-5.16-13.81-7.06-16.59-11.76C82,311.68,76.47,272.61,70.4,242.63c2.9,3.34,18.65-.43,19.38-4.33,0,0,25.61,53.3,29.32,72.21,12.47,1.87,31.33,4.71,37.39,6,30.11,6.61,37.4,20.12,43.89,31.47l-20.93,21.13C158.73,357.45,114.34,336.77,103.4,331.62Z" style="fill:#90CAF9"></path><path d="M103.4,331.62c-11-5.16-13.81-7.06-16.59-11.76C82,311.68,76.47,272.61,70.4,242.63c2.9,3.34,18.65-.43,19.38-4.33,0,0,25.61,53.3,29.32,72.21,12.47,1.87,31.33,4.71,37.39,6,30.11,6.61,37.4,20.12,43.89,31.47l-20.93,21.13C158.73,357.45,114.34,336.77,103.4,331.62Z" style="opacity:0.4"></path><path d="M109.27,244.74c-.12.54-.27,1.11-.44,1.69-1,3.91-2.11,8.39-2.13,8.73l-16.91-5.71,2-7.63.33-1.25s2-1.87,9.49,0S109.27,244.74,109.27,244.74Z" style="fill:#ffa8a7"></path><path d="M148.74,385.14c-34.16-11.7-73.59-32.1-81.17-42.2S88.88,248.6,88.88,248.6c2.36-2.23,19.07,1.33,18.77,6-1.64,23.63-.19,54.79-7.28,68.8a250.21,250.21,0,0,1,36.2,7c18.39-5.89,34.14,3.55,34.14,3.55Z" style="fill:#90CAF9"></path><path d="M148.74,385.14c-34.16-11.7-73.59-32.1-81.17-42.2S88.88,248.6,88.88,248.6c2.36-2.23,19.07,1.33,18.77,6-1.64,23.63-.19,54.79-7.28,68.8a250.21,250.21,0,0,1,36.2,7c18.39-5.89,34.14,3.55,34.14,3.55Z" style="opacity:0.30000000000000004"></path><path d="M84.05,325.7c10.54.86,16.32-2.31,16.32-2.31A43.58,43.58,0,0,0,103.93,312C100.79,321.18,84.05,325.7,84.05,325.7Z" style="opacity:0.05"></path><path d="M222.24,295c-11.73,4.8-16.57,6.11-22.2,9-6.27,3.22-8.16,7.63-12.4,13.81-4.1,4.31-8.29,6.19-10.66,5.63-4.09-.37-19.79,6-27.57,21.25-8.27,16.17-6.62,32.48-1.24,41.5,12.47,3.87,27.27,9,52.14,7.2,11.35-.84,28.18-11.43,35.14-18.26,15.64-15.33,21.07-27.78,24.94-46.52C265.14,305.52,254.34,281.81,222.24,295Z" style="fill:#455a64"></path><circle cx="260.98" cy="264.56" r="23.19" transform="translate(-94.85 157.38) rotate(-28.63)" style="fill:#263238"></circle><path d="M228.79,286.42l-5.41,13c-1.46,4-.36,11.56,9.37,15.25a11,11,0,0,0,10.86-1.28l5.73-8.27Z" style="fill:#ffa8a7"></path><path d="M222.24,276s1.19,6.3,2.48,9.11a9.4,9.4,0,0,0,6.85,5l.77-8.74Z" style="fill:#263238"></path><path d="M228.22,252.36a8.24,8.24,0,0,0-7,2c-3.11,2.8-2.07,12.25,1,21.64l6.64,1.2Z" style="fill:#263238"></path><path d="M222.52,282.57a5.8,5.8,0,0,0,1.24.67,10.54,10.54,0,0,0,4.29.86,4.34,4.34,0,0,0,4.3-2.73l-.64,7.14-1.65,18.75a21.47,21.47,0,0,0,2.73-.26,55.19,55.19,0,0,0,7.74-1.86c2.38-.73,3.93-1.37,3.93-1.37a71.08,71.08,0,0,0,9.38,3.09h0s6.56,1.42,9.83,1.13c5.43-.48,9.1-4.52,11.11-10.24,3.21-9.2,4.69-16.69,3.64-35.25-1.16-20.34-24.61-22.05-37.79-14.87s-8.73,24.31-8.73,24.31c-.86-2.72-1.45-4.52-3-6.35s-7.77-3-10.81,2.47C215.28,273.1,218.77,280.08,222.52,282.57Z" style="fill:#ffa8a7"></path><path d="M246.65,258.59a10.5,10.5,0,0,1-.32,2.25c0,.17-.05.34-.07.5A24.57,24.57,0,0,1,238,275.85a14.17,14.17,0,0,1-2,1.45c-.75.45-2,1.1-2.79.62s-.77-1.22-.84-2.09a33.13,33.13,0,0,0-.5-3.89c-2-5.93-3.82-7.26-6-7.77.31-1.95.72-3.88,1.05-5.69s.67-3.51,1-5.26c.45-2.2-.47-4.36-.4-6.63a8.32,8.32,0,0,1,1.76-5.13,9.87,9.87,0,0,1,3.19-2.3c5-2.48,10.69-3,16.1-4.4,3.08-.76,6.08-1.79,9.11-2.68,2-.61,4.23-1.15,6.27-.54s3.73,2.85,3,4.85c2.91-1.87,5.76-2.14,8.77-.48a6.86,6.86,0,0,1,3.57,7.22,8.68,8.68,0,0,1,5.62,1.1,4.94,4.94,0,0,1,2.31,5,6.66,6.66,0,0,1-2.15,3.24c-2.67,2.52-6.23,4.08-9.62,5.42a41.51,41.51,0,0,1-12,2.66A42.06,42.06,0,0,1,246.65,258.59Z" style="fill:#263238"></path><path d="M228.13,253.84,220.31,249a4.47,4.47,0,0,1,6.26-1.64A4.85,4.85,0,0,1,228.13,253.84Z" style="fill:#263238"></path><path d="M232.75,292.09s1.07,6.39,3.38,9.76c.77,1.12,4.44,4.57,11,6.55l2-2.89-4.65-1.75a25.67,25.67,0,0,1-5.4-2.9C236.53,298.9,233.32,293.79,232.75,292.09Z" style="fill:#f28f8f"></path><path d="M258.7,280.93a2.42,2.42,0,1,1-2.25-2.66A2.46,2.46,0,0,1,258.7,280.93Z" style="fill:#263238"></path><path d="M256.77,272l-5.72,1.41a3.1,3.1,0,0,1,2.23-3.66A2.87,2.87,0,0,1,256.77,272Z" style="fill:#263238"></path><path d="M254.85,295.47l5.37,2.42a2.89,2.89,0,0,1-3.85,1.58A3.08,3.08,0,0,1,254.85,295.47Z" style="fill:#f28f8f"></path><path d="M277.85,272.72l-5.36-2.58a2.86,2.86,0,0,1,3.88-1.45A3.12,3.12,0,0,1,277.85,272.72Z" style="fill:#263238"></path><path d="M275.37,280.16a2.42,2.42,0,1,1-2.25-2.67A2.46,2.46,0,0,1,275.37,280.16Z" style="fill:#263238"></path><polygon points="264.95 278.24 262.67 292.7 271.52 292.34 264.95 278.24" style="fill:#f28f8f"></polygon><path d="M327.07,391.57c-1-2.43-.67-6.45-2.24-10-1.08-2.42-3.28-4.32-6.57-6.51L316,381.46l2.7,1.56c1,1.5,1.39,4.16,2.8,6.74C323.86,394,328,393.73,327.07,391.57Z" style="fill:#ffa8a7"></path><path d="M202.2,304.55c-15.77,3.83-19,11-25.44,34-4.15,14.87-11.26,48.21-12,54.77-1,8.79-.89,9.54,7.91,15.51,8.18,5.55,52.32,30.13,62.34,33.55s22.05,1.24,22.05,1.24L239,433.15s1.52-.53,6.05-1.87,6.81-2.07,8.47-3.72.31-3.44-5.06-3-12-2.79-18.91-1.9l-35.61-29.34,11.21-48.49S214.73,311.42,202.2,304.55Z" style="fill:#ffa8a7"></path><path d="M205.32,301.55c-16.16,4.25-23,9.7-26.56,19.8-3.51,9.9-9.81,40.79-9.81,40.79s5,5.16,14.77,7.78,16.14,0,16.14,0,8.71-31.75,10.37-39C214.78,311.14,205.32,301.55,205.32,301.55Z" style="fill:#90CAF9"></path></g></g></svg>