<svg width="500" height="500" viewBox="0 0 500 500" fill="none" xmlns="http://www.w3.org/2000/svg">
<path d="M111.364 457.841C29.5454 407.33 29.5454 325.474 111.364 274.918C193.182 224.361 325.83 224.361 407.639 274.918C489.449 325.474 489.458 407.284 407.639 457.841C325.821 508.398 193.174 508.352 111.364 457.841Z" fill="#F5F5F5"/>
<path d="M263.474 409.24C308.496 409.24 344.994 388.171 344.994 362.18C344.994 336.19 308.496 315.12 263.474 315.12C218.451 315.12 181.954 336.19 181.954 362.18C181.954 388.171 218.451 409.24 263.474 409.24Z" fill="#E0E0E0"/>
<path d="M270.184 136.34L266.754 131.2C266.608 131.036 266.403 130.935 266.184 130.92C265.404 130.935 264.625 130.858 263.864 130.69C263.846 130.682 263.828 130.678 263.809 130.678C263.79 130.678 263.771 130.682 263.754 130.69C263.74 130.701 263.728 130.714 263.719 130.73C263.711 130.745 263.705 130.762 263.704 130.78L263.254 135.28C263.252 135.409 263.215 135.536 263.146 135.646C263.078 135.755 262.981 135.844 262.866 135.903C262.75 135.962 262.621 135.988 262.492 135.978C262.363 135.969 262.239 135.925 262.134 135.85L257.504 133.18C257.303 133.052 257.133 132.882 257.005 132.682C256.877 132.481 256.795 132.256 256.764 132.02L256.304 126.87C256.26 126.602 256.134 126.354 255.944 126.16C255.014 125.299 254.142 124.377 253.334 123.4C253.273 123.333 253.195 123.284 253.109 123.26C253.022 123.235 252.93 123.235 252.844 123.26L249.844 124.26C249.607 124.34 249.351 124.336 249.116 124.251C248.882 124.166 248.683 124.003 248.554 123.79L245.154 117.89C245.034 117.672 244.991 117.42 245.033 117.175C245.075 116.93 245.198 116.706 245.384 116.54L247.764 114.54C247.825 114.474 247.87 114.394 247.892 114.307C247.915 114.219 247.915 114.128 247.894 114.04C247.446 112.853 247.082 111.637 246.804 110.4C246.726 110.138 246.573 109.905 246.364 109.73L242.134 106.73C241.947 106.584 241.793 106.4 241.685 106.189C241.576 105.978 241.514 105.747 241.504 105.51V100.16C241.498 100.032 241.525 99.9054 241.583 99.7915C241.641 99.6776 241.727 99.5806 241.834 99.51C241.945 99.4459 242.07 99.4122 242.199 99.4122C242.327 99.4122 242.453 99.4459 242.564 99.51L246.684 101.37C246.684 101.37 246.754 101.37 246.784 101.37C246.814 101.37 246.784 101.37 246.854 101.28C247.096 100.531 247.432 99.8153 247.854 99.15C247.897 99.0507 247.92 98.9434 247.92 98.835C247.92 98.7265 247.897 98.6192 247.854 98.5199L245.144 93C245.033 92.7739 245.012 92.5146 245.084 92.2737C245.157 92.0327 245.317 91.8279 245.534 91.7L248.534 89.98C248.752 89.8564 249.01 89.8196 249.254 89.8771C249.499 89.9345 249.713 90.0819 249.854 90.29L253.274 95.44C253.423 95.6058 253.631 95.7063 253.854 95.72C254.63 95.7047 255.405 95.7819 256.164 95.95C256.202 95.9655 256.245 95.9655 256.284 95.95C256.291 95.936 256.294 95.9206 256.294 95.905C256.294 95.8893 256.291 95.8739 256.284 95.86L256.744 91.36C256.745 91.2306 256.782 91.1042 256.851 90.9944C256.919 90.8845 257.016 90.7955 257.131 90.7368C257.247 90.6781 257.376 90.6521 257.505 90.6614C257.634 90.6708 257.758 90.7152 257.864 90.79L262.494 93.46C262.693 93.5861 262.863 93.7544 262.991 93.953C263.119 94.1517 263.202 94.3759 263.234 94.61L263.694 99.76C263.739 100.031 263.864 100.281 264.054 100.48C264.984 101.341 265.855 102.263 266.664 103.24C266.726 103.303 266.804 103.35 266.89 103.374C266.976 103.399 267.067 103.401 267.154 103.38L270.154 102.38C270.391 102.305 270.647 102.311 270.881 102.398C271.115 102.485 271.313 102.648 271.444 102.86L274.844 108.75C274.964 108.969 275.007 109.223 274.965 109.47C274.924 109.717 274.8 109.942 274.614 110.11L272.224 112.11C272.161 112.175 272.117 112.256 272.096 112.344C272.075 112.432 272.077 112.523 272.104 112.61C272.545 113.795 272.909 115.008 273.194 116.24C273.266 116.504 273.42 116.739 273.634 116.91L277.854 119.91C278.043 120.054 278.198 120.238 278.309 120.449C278.419 120.66 278.482 120.892 278.494 121.13V126.47C278.498 126.599 278.47 126.727 278.413 126.842C278.355 126.957 278.269 127.056 278.164 127.13C278.051 127.19 277.926 127.221 277.799 127.221C277.671 127.221 277.546 127.19 277.434 127.13L273.314 125.27C273.298 125.263 273.281 125.259 273.264 125.259C273.246 125.259 273.229 125.263 273.214 125.27C273.196 125.281 273.18 125.295 273.168 125.313C273.156 125.33 273.148 125.349 273.144 125.37C272.897 126.114 272.561 126.826 272.144 127.49C272.099 127.591 272.077 127.7 272.077 127.81C272.077 127.92 272.099 128.029 272.144 128.13L274.884 133.66C274.994 133.886 275.015 134.145 274.943 134.386C274.871 134.627 274.71 134.832 274.494 134.96L271.494 136.68C271.344 136.765 271.175 136.809 271.004 136.81C270.839 136.805 270.678 136.76 270.535 136.678C270.391 136.596 270.271 136.48 270.184 136.34ZM273.614 124.56L277.724 126.42V121.08C277.715 120.964 277.683 120.851 277.63 120.748C277.577 120.645 277.503 120.554 277.414 120.48L273.184 117.48C272.819 117.2 272.558 116.805 272.444 116.36C272.169 115.158 271.815 113.975 271.384 112.82C271.307 112.589 271.298 112.341 271.358 112.105C271.419 111.869 271.545 111.656 271.724 111.49L274.114 109.43C274.164 109.378 274.196 109.311 274.207 109.24C274.218 109.168 274.206 109.095 274.174 109.03L270.774 103.14C270.734 103.079 270.675 103.032 270.607 103.007C270.538 102.982 270.464 102.979 270.394 103L267.394 104C267.16 104.074 266.91 104.079 266.673 104.013C266.437 103.948 266.225 103.814 266.064 103.63C265.282 102.68 264.437 101.785 263.534 100.95C263.205 100.625 262.993 100.199 262.934 99.74L262.464 94.5899C262.445 94.4756 262.404 94.3662 262.342 94.2682C262.28 94.1703 262.199 94.0858 262.104 94.0199L257.484 91.35L257.034 95.8399C257.022 95.9647 256.984 96.0855 256.922 96.1943C256.86 96.303 256.775 96.397 256.674 96.47C256.57 96.5425 256.453 96.5925 256.328 96.6166C256.204 96.6408 256.077 96.6385 255.954 96.61C255.255 96.4509 254.54 96.377 253.824 96.39C253.585 96.3944 253.348 96.3412 253.134 96.2351C252.92 96.1289 252.735 95.9728 252.594 95.78L249.174 90.63C249.139 90.5825 249.089 90.5492 249.032 90.5363C248.975 90.5234 248.915 90.5318 248.864 90.56L245.864 92.28C245.811 92.3096 245.771 92.3579 245.753 92.4154C245.734 92.4728 245.738 92.5352 245.764 92.5899L248.514 98.12C248.607 98.339 248.648 98.5766 248.635 98.8144C248.621 99.0521 248.552 99.2833 248.434 99.49C248.058 100.117 247.762 100.789 247.554 101.49C247.516 101.61 247.454 101.721 247.371 101.815C247.289 101.91 247.187 101.986 247.074 102.04C246.961 102.092 246.838 102.119 246.714 102.119C246.589 102.119 246.466 102.092 246.354 102.04L242.244 100.18V105.53C242.253 105.645 242.286 105.758 242.339 105.861C242.392 105.964 242.465 106.055 242.554 106.13L246.784 109.13C247.147 109.416 247.407 109.813 247.524 110.26C247.795 111.462 248.145 112.645 248.574 113.8C248.655 114.03 248.668 114.278 248.609 114.515C248.55 114.751 248.423 114.965 248.244 115.13L245.854 117.18C245.802 117.233 245.768 117.301 245.755 117.374C245.743 117.447 245.753 117.522 245.784 117.59L249.194 123.48C249.233 123.541 249.292 123.587 249.36 123.613C249.429 123.638 249.504 123.64 249.574 123.62L252.574 122.62C252.807 122.55 253.055 122.549 253.289 122.616C253.523 122.683 253.733 122.817 253.894 123C254.681 123.948 255.529 124.843 256.434 125.68C256.758 126.008 256.969 126.433 257.034 126.89L257.494 132.03C257.513 132.145 257.556 132.255 257.62 132.353C257.683 132.451 257.766 132.535 257.864 132.6L262.484 135.28L262.934 130.78C262.945 130.658 262.982 130.539 263.042 130.433C263.103 130.326 263.185 130.233 263.284 130.16C263.388 130.085 263.507 130.034 263.633 130.01C263.759 129.986 263.889 129.989 264.014 130.02C264.712 130.18 265.427 130.253 266.144 130.24C266.381 130.235 266.617 130.287 266.829 130.394C267.042 130.5 267.225 130.657 267.364 130.85L270.784 135.99C270.818 136.04 270.87 136.075 270.928 136.09C270.987 136.105 271.05 136.098 271.104 136.07L274.104 134.35C274.154 134.319 274.192 134.27 274.208 134.212C274.225 134.155 274.22 134.094 274.194 134.04L271.454 128.5C271.358 128.283 271.315 128.047 271.329 127.81C271.343 127.574 271.413 127.344 271.534 127.14C271.905 126.511 272.201 125.839 272.414 125.14C272.449 125.018 272.511 124.905 272.594 124.809C272.676 124.712 272.779 124.634 272.894 124.58C273.004 124.532 273.123 124.508 273.244 124.51C273.369 124.503 273.494 124.52 273.614 124.56V124.56ZM259.814 122.66C255.404 120.11 251.814 113.89 251.814 108.79C251.814 106.24 252.694 104.32 254.294 103.4C255.894 102.48 257.984 102.67 260.194 103.95C264.614 106.5 268.194 112.72 268.194 117.82C268.194 120.37 267.314 122.28 265.714 123.2C265.039 123.589 264.272 123.79 263.494 123.78C262.198 123.726 260.938 123.34 259.834 122.66H259.814ZM254.664 104.06C253.314 104.84 252.564 106.52 252.564 108.79C252.711 111.436 253.478 114.01 254.803 116.305C256.129 118.6 257.975 120.55 260.194 122C262.194 123.14 263.994 123.33 265.344 122.55C266.694 121.77 267.444 120.09 267.444 117.82C267.301 115.174 266.538 112.598 265.216 110.302C263.894 108.005 262.05 106.052 259.834 104.6C258.838 103.988 257.701 103.643 256.534 103.6C255.88 103.583 255.234 103.742 254.664 104.06V104.06Z" fill="#EBEBEB"/>
<path d="M232.834 129.78L234.944 132.5C235.201 132.853 235.35 133.273 235.374 133.71C235.368 134.244 235.391 134.778 235.444 135.31C235.454 135.393 235.446 135.478 235.42 135.558C235.394 135.638 235.351 135.712 235.294 135.774C235.237 135.836 235.167 135.884 235.089 135.916C235.012 135.949 234.928 135.963 234.844 135.96H233.334C233.252 135.954 233.17 135.969 233.096 136.003C233.022 136.037 232.958 136.09 232.91 136.156C232.862 136.222 232.831 136.3 232.822 136.381C232.812 136.462 232.823 136.544 232.854 136.62L234.014 140.31C234.095 140.512 234.218 140.695 234.375 140.847C234.531 140.999 234.719 141.115 234.924 141.19L236.674 141.73C237.098 141.889 237.453 142.194 237.674 142.59C237.994 143.22 238.344 143.84 238.674 144.44C238.898 144.801 238.99 145.229 238.934 145.65L238.434 147.78C238.409 148 238.431 148.223 238.5 148.434C238.569 148.644 238.683 148.837 238.834 149L241.264 151.76C241.534 152.07 241.894 152.1 242.054 151.82L242.934 150.31C243.094 150.03 243.494 150.03 243.834 150.31C244.176 150.567 244.533 150.804 244.904 151.02C245.3 151.258 245.619 151.605 245.824 152.02L247.104 155.37C247.194 155.57 247.333 155.744 247.507 155.876C247.682 156.009 247.887 156.096 248.104 156.13L249.964 156.42C250.354 156.49 250.604 156.24 250.514 155.88L249.724 152.65C249.685 152.478 249.706 152.297 249.784 152.139C249.863 151.98 249.993 151.854 250.154 151.78C250.342 151.689 250.523 151.582 250.694 151.46C250.85 151.36 251.038 151.32 251.222 151.348C251.405 151.375 251.573 151.468 251.694 151.61L253.884 153.79C254.184 154.09 254.524 154.09 254.634 153.79L255.424 151.73C255.473 151.532 255.477 151.327 255.435 151.127C255.394 150.928 255.308 150.741 255.184 150.58L253.074 147.87C252.811 147.515 252.658 147.091 252.634 146.65C252.644 146.119 252.621 145.588 252.564 145.06C252.553 144.975 252.561 144.89 252.588 144.809C252.614 144.728 252.658 144.654 252.716 144.592C252.775 144.53 252.846 144.481 252.925 144.45C253.004 144.419 253.089 144.405 253.174 144.41H254.654C254.736 144.418 254.819 144.404 254.894 144.371C254.97 144.337 255.036 144.285 255.085 144.218C255.134 144.152 255.166 144.074 255.176 143.992C255.186 143.91 255.175 143.826 255.144 143.75L253.974 140C253.893 139.797 253.769 139.613 253.61 139.463C253.451 139.313 253.261 139.199 253.054 139.13L251.304 138.59C250.883 138.425 250.53 138.121 250.304 137.73C249.984 137.1 249.644 136.48 249.304 135.87C249.087 135.509 248.996 135.088 249.044 134.67L249.544 132.54C249.567 132.332 249.547 132.122 249.485 131.922C249.423 131.722 249.321 131.538 249.184 131.38L246.754 128.62C246.474 128.3 246.124 128.28 245.954 128.56L245.084 130.06C244.924 130.34 244.524 130.35 244.174 130.06C243.834 129.806 243.48 129.572 243.114 129.36C242.715 129.121 242.393 128.775 242.184 128.36L240.834 125C240.741 124.801 240.602 124.627 240.428 124.493C240.254 124.359 240.05 124.269 239.834 124.23L237.974 123.94C237.584 123.88 237.334 124.12 237.424 124.48L238.214 127.72C238.245 127.892 238.221 128.07 238.143 128.226C238.066 128.383 237.94 128.511 237.784 128.59C237.593 128.677 237.412 128.785 237.244 128.91C237.085 129.005 236.897 129.04 236.715 129.011C236.532 128.982 236.365 128.889 236.244 128.75L234.054 126.57C233.754 126.27 233.414 126.28 233.294 126.57L232.504 128.64C232.467 128.842 232.478 129.051 232.535 129.248C232.593 129.446 232.695 129.628 232.834 129.78V129.78ZM239.244 134.73C240.174 132.3 243.064 132.73 245.694 135.73C248.324 138.73 249.694 143.12 248.774 145.55C247.854 147.98 244.954 147.55 242.324 144.55C239.694 141.55 238.294 137.16 239.224 134.73H239.244Z" fill="#EBEBEB"/>
<path d="M233.734 385.21L224.304 366.63L205.304 377.74L228.704 405.36C228.704 405.36 240.294 404.29 242.164 398.24C244.034 392.19 236.924 387.22 233.734 385.21Z" fill="#C8856A"/>
<path d="M247.104 392.51C248.165 393.28 249.059 394.256 249.734 395.38C250.504 396.52 250.264 402.02 250.994 404.57C251.724 407.12 252.284 407.8 253.504 411C254.854 414.54 257.354 417.78 254.504 426.89C251.654 436 247.154 440.35 243.334 442.57C241.912 443.306 240.334 443.69 238.734 443.69C238.734 443.69 233.734 441.8 234.494 438.84C235.254 435.88 247.104 392.51 247.104 392.51Z" fill="#263238"/>
<path d="M225.154 402.51C225.294 403.45 226.604 404.89 227.154 405.66C228.954 408.23 229.774 411.72 230.394 414.76C233.344 429.18 227.614 436.51 235.394 441.92C237.644 443.34 242.314 442.92 249.394 433.86C253.024 429.22 255.084 419.67 253.674 415.35C252.264 411.03 250.324 408.21 249.414 404.89C248.504 401.57 248.984 395.36 247.144 392.51C245.954 390.898 244.416 389.575 242.644 388.64C241.264 387.8 238.254 386.7 236.854 385.9C235.454 385.1 234.674 384.19 233.774 385.21L235.394 387.21C237.924 390.72 237.214 391.21 237.154 393.09C237.265 395.097 237.58 397.087 238.094 399.03C236.294 396.76 235.564 394.78 233.594 395.13C231.624 395.48 231.394 395.38 228.594 398.02C225.794 400.66 225.034 401.68 225.154 402.51Z" fill="#455A64"/>
<path d="M249.354 433.86C252.984 429.22 255.044 419.67 253.634 415.35C253.158 413.923 252.604 412.525 251.974 411.16C252.034 411.45 252.114 411.75 252.154 412C252.244 412.56 252.324 413.12 252.374 413.68C252.704 415.889 252.456 418.145 251.654 420.23C250.844 422.02 248.954 426.53 246.534 426.63C245.154 426.69 243.994 425.34 243.464 423.81C243.244 423.16 242.874 421.41 242.874 421.41C240.648 421.924 238.521 422.795 236.574 423.99C233.054 426.31 233.174 426.83 233.174 426.83C233.386 427.846 233.427 428.89 233.294 429.92C233.089 431.027 232.642 432.076 231.984 432.99C231.715 433.267 231.413 433.508 231.084 433.71C231.234 437.04 232.084 439.65 235.354 441.92C237.604 443.34 242.274 443 249.354 433.86Z" fill="#37474F"/>
<path d="M230.374 414.76C231.135 418.553 231.437 422.424 231.274 426.29C232.604 429.98 233.764 429.87 233.924 427.96C234.084 426.05 231.534 418.11 229.634 411.55C229.924 412.63 230.164 413.73 230.374 414.76Z" fill="#37474F"/>
<path d="M239.154 391.65C239.312 389.78 238.813 387.912 237.744 386.37C237.394 386.21 237.074 386.05 236.814 385.9C235.294 385.04 234.634 384.19 233.734 385.21L235.354 387.21C237.884 390.72 237.174 391.21 237.114 393.09C237.225 395.097 237.54 397.087 238.054 399.03C239.524 405.29 240.864 407.38 241.564 413.3C242.264 419.22 241.074 423.18 241.904 423.52C242.734 423.86 244.424 423.18 244.734 418.44C245.044 413.7 242.944 405.74 241.474 401.97C240.004 398.2 238.834 394.17 239.154 391.65Z" fill="#37474F"/>
<path d="M243.294 421.82C243.211 421.903 243.107 421.962 242.994 421.99C238.844 422.84 236.634 423.89 233.544 427.53C233.44 427.645 233.295 427.716 233.141 427.727C232.986 427.738 232.833 427.689 232.714 427.59C232.594 427.489 232.52 427.345 232.507 427.189C232.494 427.034 232.543 426.879 232.644 426.76C235.904 422.92 238.344 421.76 242.754 420.83C242.907 420.8 243.066 420.832 243.197 420.917C243.328 421.003 243.42 421.137 243.454 421.29C243.472 421.384 243.467 421.482 243.44 421.575C243.412 421.667 243.362 421.751 243.294 421.82V421.82Z" fill="#EBEBEB"/>
<path d="M242.544 416.89C242.465 416.973 242.364 417.031 242.254 417.06C237.954 418.06 235.574 419.27 232.254 423.06C232.204 423.123 232.142 423.175 232.072 423.213C232.001 423.251 231.924 423.274 231.844 423.281C231.764 423.288 231.684 423.278 231.608 423.252C231.532 423.226 231.463 423.184 231.404 423.13C231.343 423.078 231.292 423.015 231.256 422.943C231.219 422.872 231.197 422.794 231.19 422.714C231.184 422.634 231.193 422.554 231.218 422.478C231.242 422.402 231.282 422.331 231.334 422.27C234.794 418.27 237.334 416.89 241.944 415.84C242.069 415.813 242.199 415.827 242.316 415.88C242.433 415.933 242.529 416.022 242.592 416.134C242.655 416.245 242.68 416.374 242.664 416.501C242.648 416.628 242.592 416.747 242.504 416.84L242.544 416.89Z" fill="#EBEBEB"/>
<path d="M242.654 411.46C242.563 411.55 242.448 411.612 242.324 411.64C237.594 412.74 234.814 414.21 231.194 418.44C231.078 418.573 230.914 418.655 230.738 418.668C230.562 418.681 230.388 418.624 230.254 418.51C230.12 418.394 230.038 418.23 230.025 418.054C230.012 417.878 230.069 417.704 230.184 417.57C233.994 413.13 237.004 411.51 242.024 410.34C242.196 410.301 242.377 410.331 242.526 410.425C242.676 410.519 242.783 410.668 242.824 410.84C242.848 410.949 242.845 411.063 242.815 411.171C242.786 411.279 242.73 411.378 242.654 411.46V411.46Z" fill="#EBEBEB"/>
<path d="M241.834 406.82C241.748 406.912 241.636 406.975 241.514 407C236.874 408.07 234.184 409.48 230.634 413.63C230.581 413.707 230.514 413.771 230.435 413.82C230.356 413.869 230.268 413.9 230.176 413.913C230.085 413.925 229.991 413.918 229.902 413.892C229.813 413.866 229.731 413.822 229.66 413.762C229.59 413.702 229.533 413.627 229.493 413.544C229.453 413.46 229.431 413.369 229.428 413.277C229.426 413.184 229.443 413.092 229.478 413.006C229.513 412.921 229.566 412.844 229.634 412.78C233.364 408.43 236.304 406.86 241.224 405.78C241.307 405.759 241.394 405.756 241.479 405.769C241.564 405.783 241.645 405.814 241.718 405.859C241.79 405.905 241.853 405.965 241.902 406.036C241.952 406.106 241.986 406.186 242.004 406.27C242.019 406.369 242.012 406.469 241.983 406.565C241.953 406.66 241.902 406.747 241.834 406.82V406.82Z" fill="#EBEBEB"/>
<path d="M240.164 402.3C240.077 402.39 239.966 402.452 239.844 402.48C235.204 403.56 232.514 404.97 228.964 409.12C228.845 409.232 228.69 409.296 228.527 409.301C228.365 409.305 228.206 409.249 228.082 409.144C227.958 409.038 227.877 408.891 227.855 408.729C227.833 408.568 227.872 408.404 227.964 408.27C231.704 403.91 234.624 402.35 239.544 401.21C239.682 401.174 239.828 401.185 239.959 401.241C240.09 401.297 240.199 401.394 240.27 401.518C240.34 401.642 240.368 401.786 240.349 401.927C240.33 402.068 240.264 402.199 240.164 402.3V402.3Z" fill="#EBEBEB"/>
<path d="M228.614 386.7L216.324 396.75L209.374 401.11L217.304 416.11L239.664 405.41L228.614 386.7Z" fill="#C8856A"/>
<path d="M253.654 319.61C253.654 319.61 208.924 312.19 189.784 312.32C170.254 312.44 168.444 327.1 173.334 336.08C182.694 353.28 215.224 389.75 215.224 389.75C215.224 389.75 226.154 384.75 229.514 375.29L222.084 358.29L245.444 365.77L257.364 357.77L258.364 351.68L253.654 319.61Z" fill="#5AAAE7"/>
<path opacity="0.4" d="M253.654 319.61C253.654 319.61 208.924 312.19 189.784 312.32C170.254 312.44 168.444 327.1 173.334 336.08C182.694 353.28 215.224 389.75 215.224 389.75C215.224 389.75 226.154 384.75 229.514 375.29L222.084 358.29L245.444 365.77L257.364 357.77L258.364 351.68L253.654 319.61Z" fill="black"/>
<path d="M253.654 319.61L331.074 332.5C331.074 332.5 331.844 351.03 324.554 367.63C321.974 373.461 317.964 378.546 312.894 382.413C307.824 386.28 301.859 388.804 295.554 389.75C287.787 390.81 279.969 391.444 272.134 391.65C268.363 394.544 264.252 396.965 259.894 398.86C253.764 401.3 226.834 412.6 226.834 412.6C226.834 412.6 219.254 406.19 220.004 392.83L245.474 365.75C251.234 358.75 253.254 356.45 256.474 354.87C251.514 345.37 253.104 330.07 253.654 319.61Z" fill="#5AAAE7"/>
<path opacity="0.3" d="M253.654 319.61L331.074 332.5C331.074 332.5 331.844 351.03 324.554 367.63C321.974 373.461 317.964 378.546 312.894 382.413C307.824 386.28 301.859 388.804 295.554 389.75C287.787 390.81 279.969 391.444 272.134 391.65C268.363 394.544 264.252 396.965 259.894 398.86C253.764 401.3 226.834 412.6 226.834 412.6C226.834 412.6 219.254 406.19 220.004 392.83L245.474 365.75C251.234 358.75 253.254 356.45 256.474 354.87C251.514 345.37 253.104 330.07 253.654 319.61Z" fill="black"/>
<g opacity="0.3">
<path opacity="0.3" d="M218.194 343.78C221.788 349.052 225.08 354.524 228.054 360.17L222.054 358.27C215.334 342.27 213.954 337.58 203.204 330.08C203.234 330.08 210.944 333 218.194 343.78Z" fill="black"/>
<path opacity="0.3" d="M277.834 382.67C277.834 382.67 277.924 386.6 272.124 391.67C268.353 394.564 264.242 396.985 259.884 398.88C253.764 401.3 226.834 412.6 226.834 412.6C226.834 412.6 225.364 411.92 223.264 407.96C230.264 406.31 253.204 397.32 260.624 394.18C273.834 388.58 277.834 382.67 277.834 382.67Z" fill="black"/>
<path opacity="0.3" d="M249.294 361.21C246.684 364.27 245.444 365.75 245.444 365.75L241.704 364.52C241.704 364.52 248.334 357.31 252.604 353.52C253.346 352.791 254.168 352.147 255.054 351.6C252.894 345.93 252.974 336.6 252.974 336.6C253.694 341.53 255.636 346.202 258.624 350.19C262.155 349.362 265.825 349.321 269.374 350.07C276.864 351.32 298.574 355.02 298.574 355.02C298.574 355.02 277.764 353.14 266.934 352.72C256.104 352.3 251.904 358.15 249.294 361.21Z" fill="black"/>
</g>
<path d="M181.194 408.92C175.934 411 172.694 413.08 170.264 416.26C167.834 419.44 167.084 422.65 169.394 426.5C171.704 430.35 175.944 434.86 180.984 434.57C186.024 434.28 189.124 433.02 193.794 430.49L181.194 408.92Z" fill="#263238"/>
<path d="M223.234 413.37C223.314 414.95 216.664 418.09 209.764 421.37C202.364 424.9 200.544 427.2 194.504 430.17C187.604 433.57 184.984 433.77 179.624 432.28C174.264 430.79 167.624 423.12 172.264 416.07C176.014 410.33 180.874 408.75 188.264 406.81C194.129 405.327 199.891 403.463 205.514 401.23C210.844 399.16 215.234 395.45 216.334 396.74C215.574 397.1 210.004 400.54 211.054 401.48C211.314 401.96 212.104 401.81 213.474 401.24C213.768 401.092 214.09 401.008 214.419 400.993C214.748 400.977 215.077 401.031 215.384 401.15C216.002 401.55 216.483 402.129 216.764 402.81C217.403 404.182 217.96 405.592 218.434 407.03C218.844 408.03 218.674 407.44 219.064 408.43C219.454 409.42 220.314 411.19 220.204 412.2C220.144 412.81 219.694 413 219.204 413.3C218.714 413.6 218.084 413.96 217.634 414.3C217.464 414.43 217.144 414.89 217.244 415.12C217.344 415.35 218.374 415.32 218.774 415.12C219.174 414.92 219.844 414.79 220.334 414.61C220.824 414.43 222.014 413.94 223.234 413.37Z" fill="#455A64"/>
<path d="M196.834 429C195.834 429.5 189.574 432.41 187.614 430.67C185.484 428.78 190.504 425.76 190.504 425.76C190.504 425.76 191.274 421.04 185.574 414.08C184.574 414.85 180.464 414.81 180.514 412.39C180.564 409.97 187.514 406.99 187.574 406.95C180.514 408.84 175.864 410.46 172.224 416.04C167.624 423.09 174.224 430.76 179.584 432.25C184.944 433.74 187.584 433.54 194.464 430.14C195.194 429.85 196.264 429.4 196.834 429Z" fill="#37474F"/>
<path d="M189.834 425.33C187.224 426.2 189.014 428.58 192.834 427.81C198.564 426.65 203.334 423.4 209.714 421.38C216.614 418.09 223.644 415.02 223.194 413.28C221.964 413.74 219.314 414.84 219.314 414.84C218.804 415.06 217.464 415.56 217.464 415.56C212.234 417.82 206.464 421.45 200.784 422.99C195.834 424.34 192.484 424.46 189.834 425.33Z" fill="#37474F"/>
<path d="M185.994 415C188.384 413.62 188.794 412.43 193.484 410.28C198.174 408.13 206.104 403.52 211.004 400.66C212.844 399.442 214.619 398.131 216.324 396.73C215.514 395.8 212.524 396.65 209.534 398.54C206.544 400.43 204.724 401.62 201.764 403.17C196.004 406.63 189.444 408.96 186.154 411.08C182.864 413.2 183.594 416.4 185.994 415Z" fill="#37474F"/>
<path d="M185.634 414.38C185.667 414.461 185.714 414.535 185.774 414.6C188.404 417.913 189.963 421.949 190.244 426.17C190.256 426.34 190.329 426.5 190.451 426.619C190.572 426.739 190.733 426.81 190.904 426.82C190.984 426.814 191.062 426.791 191.133 426.754C191.204 426.716 191.266 426.664 191.316 426.601C191.366 426.538 191.402 426.465 191.422 426.388C191.442 426.31 191.446 426.229 191.434 426.15C190.704 418.23 186.784 413.93 186.564 413.69C186.511 413.63 186.446 413.582 186.374 413.55C186.302 413.517 186.223 413.5 186.144 413.5C186.064 413.5 185.986 413.517 185.913 413.55C185.841 413.582 185.776 413.63 185.724 413.69C185.647 413.785 185.598 413.9 185.582 414.022C185.566 414.144 185.584 414.267 185.634 414.38V414.38Z" fill="#F0F0F0"/>
<path d="M190.274 411C190.304 411.069 190.344 411.133 190.394 411.19C193.405 415.183 195.316 419.897 195.934 424.86C195.951 425.027 196.028 425.182 196.151 425.297C196.275 425.411 196.436 425.476 196.604 425.48C196.685 425.473 196.763 425.449 196.834 425.41C196.905 425.37 196.967 425.316 197.015 425.251C197.063 425.185 197.097 425.11 197.114 425.031C197.131 424.951 197.131 424.869 197.114 424.79C196.484 419.524 194.446 414.525 191.214 410.32C191.165 410.256 191.104 410.204 191.034 410.166C190.964 410.128 190.887 410.105 190.807 410.1C190.728 410.094 190.648 410.105 190.573 410.133C190.498 410.161 190.43 410.204 190.374 410.26C190.287 410.36 190.231 410.483 190.213 410.615C190.195 410.746 190.216 410.88 190.274 411V411Z" fill="#F0F0F0"/>
<path d="M200.494 424.37C200.539 424.483 200.614 424.581 200.711 424.655C200.808 424.729 200.923 424.776 201.044 424.79C201.124 424.79 201.204 424.774 201.278 424.742C201.352 424.709 201.418 424.662 201.472 424.603C201.527 424.544 201.569 424.474 201.595 424.397C201.621 424.321 201.631 424.24 201.624 424.16C201.344 415.78 195.944 407.92 195.694 407.65C195.642 407.589 195.578 407.54 195.505 407.506C195.433 407.473 195.354 407.455 195.274 407.455C195.194 407.455 195.115 407.473 195.042 407.506C194.97 407.54 194.905 407.589 194.854 407.65C194.75 407.786 194.699 407.954 194.708 408.124C194.717 408.294 194.786 408.456 194.904 408.58C194.964 408.64 200.184 416.32 200.424 424.12C200.435 424.206 200.458 424.291 200.494 424.37V424.37Z" fill="#F0F0F0"/>
<path d="M204.834 421.63C204.876 421.742 204.949 421.84 205.045 421.912C205.14 421.985 205.254 422.029 205.374 422.04C205.453 422.044 205.533 422.032 205.607 422.003C205.681 421.974 205.749 421.93 205.804 421.873C205.86 421.817 205.903 421.749 205.931 421.674C205.958 421.599 205.969 421.519 205.964 421.44C205.785 415.642 203.573 410.091 199.714 405.76C199.661 405.7 199.596 405.653 199.524 405.62C199.452 405.587 199.373 405.57 199.294 405.57C199.214 405.57 199.136 405.587 199.063 405.62C198.991 405.653 198.926 405.7 198.874 405.76C198.778 405.903 198.737 406.075 198.757 406.245C198.777 406.416 198.857 406.573 198.984 406.69C202.513 410.762 204.552 415.915 204.764 421.3C204.768 421.413 204.792 421.525 204.834 421.63V421.63Z" fill="#F0F0F0"/>
<path d="M210.344 419.28C210.387 419.389 210.459 419.485 210.553 419.557C210.646 419.629 210.757 419.675 210.874 419.69C210.954 419.696 211.034 419.685 211.109 419.657C211.184 419.629 211.252 419.584 211.308 419.527C211.364 419.47 211.407 419.401 211.434 419.326C211.461 419.25 211.471 419.17 211.464 419.09C211.464 410.38 205.304 403.63 205.024 403.36C204.972 403.301 204.908 403.253 204.837 403.22C204.765 403.188 204.687 403.171 204.609 403.171C204.53 403.171 204.452 403.188 204.381 403.22C204.309 403.253 204.245 403.301 204.194 403.36C204.092 403.498 204.045 403.669 204.059 403.84C204.074 404.011 204.15 404.171 204.274 404.29C204.334 404.35 210.274 410.88 210.274 418.97C210.274 419.077 210.298 419.183 210.344 419.28V419.28Z" fill="#EBEBEB"/>
<path d="M252.674 253.66C248.984 259.18 234.934 278.37 234.934 278.37C230.824 273.62 225.934 267.77 221.824 262.7C216.384 256.05 214.224 254.7 211.334 244.3C210.614 241.69 208.624 238.75 207.674 237.18C206.303 234.81 205.374 232.211 204.934 229.51C204.784 228.18 201.384 228.56 200.754 232.85C200.334 235.06 201.064 237.24 201.064 239.43C201.064 240.1 201.434 241.51 200.594 241.43C195.524 240.7 191.794 234.94 185.734 230.86C183.544 229.4 177.944 227.86 176.734 231.06C176.634 231.83 177.184 232.36 177.394 233.06C177.409 233.152 177.409 233.247 177.394 233.34C177.399 233.676 177.365 234.011 177.294 234.34C177.154 234.98 176.884 235.58 176.754 236.22C176.553 237.195 176.673 238.208 177.094 239.11C177.49 239.743 177.825 240.413 178.094 241.11C177.896 242.467 178.083 243.853 178.634 245.11C179.155 246.211 179.802 247.248 180.564 248.2C180.974 248.881 181.309 249.606 181.564 250.36C182.204 251.577 183.038 252.681 184.034 253.63C187.247 257.207 190.95 260.311 195.034 262.85C196.904 263.94 198.894 264.85 200.664 266.12C201.982 267.051 203.157 268.17 204.154 269.44C205.361 271.084 206.428 272.827 207.344 274.65V274.75C215.464 288.84 216.184 294.04 224.734 305.2C231.954 314.13 236.984 310.34 247.884 299.84C261.284 286.93 268.454 279.5 268.454 279.5L271.834 236.59C263.914 239.24 256.374 248.14 252.674 253.66Z" fill="#C8856A"/>
<path d="M201.214 245C200.826 247.224 200.963 249.507 201.614 251.669C202.265 253.831 203.412 255.81 204.964 257.45C200.334 256.21 198.464 250.24 201.214 245Z" fill="#AF6152"/>
<path d="M275.934 235.26C268.494 236.52 262.704 239.46 253.344 251.84C243.984 264.22 234.934 277.71 234.934 277.71L227.404 269.47C229.794 270.85 229.404 281.4 225.534 286.18C223.108 289.077 219.749 291.04 216.034 291.73C218.195 295.913 220.637 299.946 223.344 303.8C227.174 309.05 229.624 310.39 232.904 310.39C236.184 310.39 239.784 308.5 248.344 300.39C256.904 292.28 270.494 279.27 270.494 279.27L275.934 235.26Z" fill="#5AAAE7"/>
<path opacity="0.55" d="M275.934 235.26C268.494 236.52 262.704 239.46 253.344 251.84C243.984 264.22 234.934 277.71 234.934 277.71L227.404 269.47C229.794 270.85 229.404 281.4 225.534 286.18C223.108 289.077 219.749 291.04 216.034 291.73C218.195 295.913 220.637 299.946 223.344 303.8C227.174 309.05 229.624 310.39 232.904 310.39C236.184 310.39 239.784 308.5 248.344 300.39C256.904 292.28 270.494 279.27 270.494 279.27L275.934 235.26Z" fill="white"/>
<path opacity="0.35" d="M234.934 277.71C238.934 282.11 241.724 289.78 241.444 293.71C243.114 289.08 241.444 281.2 236.444 275.51L234.934 277.71Z" fill="#5AAAE7"/>
<path opacity="0.35" d="M219.304 297.37C220.24 297.169 221.157 296.884 222.044 296.52C223.855 295.781 225.508 294.701 226.914 293.34C229.613 290.745 231.372 287.325 231.914 283.62C231.914 283.43 232.144 283.49 232.134 283.62C231.928 287.662 230.16 291.466 227.204 294.23C225.695 295.602 223.95 296.689 222.054 297.44C221.285 297.739 220.497 297.983 219.694 298.17L219.204 297.35L219.304 297.37Z" fill="#5AAAE7"/>
<path d="M263.344 262.28C264.344 241.49 269.084 235.75 279.634 234.58L297.034 232.75C302.204 233.81 319.974 239.47 325.954 241.55C329.814 242.88 331.474 251.07 332.294 263.89C332.974 274.3 333.074 283.03 332.724 297.42C332.444 309.49 332.144 323.23 328.464 340C314.054 345.46 272.464 340.25 255.844 321.24C257.174 316.94 262.504 309.17 263.344 300.53C262.834 282.43 263.024 268.81 263.344 262.28Z" fill="#263238"/>
<path d="M326.344 241.28L313.344 236.7C313.344 236.7 310.994 242.17 305.954 252.7C300.914 263.23 300.744 267.94 300.274 286.23C299.804 304.52 296.454 336.67 294.274 344.09C302.334 345.21 309.274 356.89 330.014 353.27C330.014 353.27 334.364 332.09 335.014 296C335.404 277.25 335.504 246.56 326.344 241.28Z" fill="#5AAAE7"/>
<path opacity="0.35" d="M326.344 241.28L313.344 236.7C313.344 236.7 310.994 242.17 305.954 252.7C300.914 263.23 300.744 267.94 300.274 286.23C299.804 304.52 296.454 336.67 294.274 344.09C302.334 345.21 309.274 356.89 330.014 353.27C330.014 353.27 334.364 332.09 335.014 296C335.404 277.25 335.504 246.56 326.344 241.28Z" fill="white"/>
<path d="M301.004 269.78C303.004 253.36 309.914 252.51 311.504 257.9C317.504 248.96 317.734 241.28 317.634 238.21C316.004 235.39 314.734 233.02 314.194 231.95C313.474 230.55 312.654 230.84 312.654 230.84L312.604 235.01C312.604 235.01 311.604 239.79 306.744 245.82C303.134 250.26 301.834 255.93 301.004 269.78Z" fill="#5AAAE7"/>
<path opacity="0.55" d="M301.004 269.78C303.004 253.36 309.914 252.51 311.504 257.9C317.504 248.96 317.734 241.28 317.634 238.21C316.004 235.39 314.734 233.02 314.194 231.95C313.474 230.55 312.654 230.84 312.654 230.84L312.604 235.01C312.604 235.01 311.604 239.79 306.744 245.82C303.134 250.26 301.834 255.93 301.004 269.78Z" fill="white"/>
<path d="M289.164 235.16C281.764 238.04 276.334 246.26 274.584 257.63C272.834 269 271.414 298.02 270.184 306.63C268.954 315.24 263.474 330.17 263.474 330.17C263.474 330.17 254.384 326.43 251.874 319.3C256.054 313.85 259.934 306.3 260.654 299.12C261.374 291.94 260.714 269.17 261.794 260.44C262.874 251.71 263.794 239.67 274.134 235.64C278.584 233.9 289.084 233.22 289.084 233.22L289.164 235.16Z" fill="#5AAAE7"/>
<path opacity="0.35" d="M289.164 235.16C281.764 238.04 276.334 246.26 274.584 257.63C272.834 269 271.414 298.02 270.184 306.63C268.954 315.24 263.474 330.17 263.474 330.17C263.474 330.17 254.384 326.43 251.874 319.3C256.054 313.85 259.934 306.3 260.654 299.12C261.374 291.94 260.714 269.17 261.794 260.44C262.874 251.71 263.794 239.67 274.134 235.64C278.584 233.9 289.084 233.22 289.084 233.22L289.164 235.16Z" fill="white"/>
<path d="M273.834 264.19C274.834 255.83 279.604 240.86 288.664 237.81C289.01 236.969 289.193 236.069 289.204 235.16L289.124 230.81C286.409 231.762 283.815 233.027 281.394 234.58C277.484 237.11 270.734 245.19 268.994 251.7C272.834 248.37 274.434 253.79 273.834 264.19Z" fill="#5AAAE7"/>
<path opacity="0.55" d="M273.834 264.19C274.834 255.83 279.604 240.86 288.664 237.81C289.01 236.969 289.193 236.069 289.204 235.16L289.124 230.81C286.409 231.762 283.815 233.027 281.394 234.58C277.484 237.11 270.734 245.19 268.994 251.7C272.834 248.37 274.434 253.79 273.834 264.19Z" fill="white"/>
<path d="M312.594 224.31C313.594 218.46 319.464 212.38 322.114 207.31C324.664 202.4 326.194 198.59 325.934 193.96C325.774 191.22 324.064 187.5 322.034 186.71C324.434 176.54 316.814 171.77 312.764 170.79C310.86 170.382 308.986 169.847 307.154 169.19C304.954 168.26 304.464 166.48 302.694 164.96C299.644 162.35 294.484 162.26 292.504 166.19C290.504 163.54 287.714 163.6 284.504 164.39C283.152 164.689 281.965 165.49 281.183 166.633C280.401 167.775 280.083 169.172 280.294 170.54C276.034 168.13 272.094 171.12 271.694 173.63C271.394 175.48 271.784 177.05 270.564 178.7C269.184 180.57 266.564 180.52 265.824 179.01C265.374 181.64 266.394 183.65 269.244 183.52C268.759 184.247 268.439 185.071 268.306 185.935C268.173 186.798 268.23 187.681 268.474 188.52C268.813 189.576 269.465 190.504 270.344 191.181C271.222 191.858 272.286 192.251 273.394 192.31C273.684 193.76 273.744 195.08 274.644 196.31C275.495 197.581 276.641 198.627 277.984 199.36C282.294 201.44 287.074 202.13 291.724 203.12L297.244 204.29C297.564 204.36 299.244 204.47 299.424 204.75L312.594 224.31Z" fill="#263238"/>
<path d="M319.714 216.77C315.594 219.21 312.814 216.54 312.814 216.54L312.574 235.75C309.324 243.99 296.304 248.11 289.064 247.87C287.938 243.703 287.972 239.308 289.164 235.16L289.084 229.87C286.745 229.903 284.408 229.79 282.084 229.53C277.504 228.88 274.084 225.14 272.784 220.16C271.36 213.685 271.201 206.996 272.314 200.46C272.632 198.874 272.723 197.251 272.584 195.64C272.164 191.37 272.944 188.89 274.064 185.31C279.134 181.31 290.824 179.94 301.684 186.61C300.394 193.09 302.884 198.24 307.594 200.73C307.364 202.48 307.124 206.9 309.994 206.83C312.074 206.78 312.224 204.18 314.364 201.9C316.504 199.62 321.464 199.03 323.364 202.42C326.074 207.15 324.244 214.1 319.714 216.77Z" fill="#C8856A"/>
<path d="M289.084 229.87C296.364 229.05 301.894 228.28 305.714 223.03C307.494 220.326 308.979 217.44 310.144 214.42C310.144 214.42 309.374 220.86 306.974 225.22C305.124 228.58 300.534 231.36 289.114 232.29L289.084 229.87Z" fill="#AF6152"/>
<path d="M292.744 201.69C292.765 202.092 292.905 202.479 293.145 202.802C293.385 203.125 293.716 203.371 294.094 203.507C294.473 203.644 294.884 203.666 295.275 203.571C295.667 203.476 296.021 203.268 296.295 202.972C296.568 202.677 296.749 202.307 296.814 201.91C296.879 201.512 296.825 201.104 296.66 200.737C296.494 200.37 296.224 200.06 295.883 199.845C295.543 199.63 295.146 199.521 294.744 199.53C294.194 199.556 293.676 199.797 293.302 200.201C292.928 200.605 292.727 201.139 292.744 201.69V201.69Z" fill="#263238"/>
<path d="M293.334 195L297.964 196.91C298.205 196.276 298.194 195.573 297.931 194.947C297.669 194.322 297.175 193.821 296.554 193.55C296.247 193.428 295.92 193.37 295.591 193.377C295.262 193.385 294.937 193.458 294.637 193.593C294.337 193.729 294.066 193.923 293.843 194.164C293.619 194.406 293.446 194.69 293.334 195V195Z" fill="#263238"/>
<path d="M275.674 196.25L280.404 194.52C280.307 194.205 280.147 193.914 279.934 193.664C279.721 193.413 279.459 193.209 279.164 193.064C278.868 192.919 278.547 192.836 278.218 192.819C277.89 192.803 277.562 192.854 277.254 192.97C276.62 193.209 276.102 193.683 275.808 194.294C275.514 194.904 275.466 195.605 275.674 196.25Z" fill="#263238"/>
<path d="M276.834 201.06C276.897 201.442 277.07 201.798 277.331 202.085C277.593 202.371 277.932 202.575 278.308 202.671C278.683 202.768 279.079 202.754 279.446 202.63C279.814 202.506 280.137 202.278 280.377 201.973C280.617 201.669 280.764 201.301 280.799 200.915C280.834 200.529 280.756 200.141 280.574 199.798C280.393 199.455 280.115 199.173 279.776 198.985C279.437 198.797 279.05 198.712 278.664 198.74C278.39 198.769 278.125 198.853 277.885 198.987C277.644 199.12 277.432 199.3 277.262 199.516C277.091 199.732 276.966 199.98 276.892 200.245C276.819 200.51 276.799 200.787 276.834 201.06Z" fill="#263238"/>
<path d="M279.724 208.59L286.834 211.78L289.084 197.78C286.434 196.86 283.004 203.27 279.724 208.59Z" fill="#AF6152"/>
<path d="M293.514 214.71L284.934 216.51C285.026 217.082 285.233 217.629 285.542 218.119C285.85 218.609 286.255 219.032 286.732 219.361C287.208 219.691 287.746 219.921 288.313 220.038C288.881 220.154 289.466 220.155 290.034 220.04C291.189 219.771 292.196 219.067 292.844 218.074C293.493 217.081 293.733 215.875 293.514 214.71V214.71Z" fill="#AF6152"/>
<path d="M292.474 216.1C292.826 216.06 293.181 216.06 293.534 216.1C293.427 217.035 293.034 217.914 292.407 218.616C291.78 219.318 290.951 219.809 290.034 220.02C289.57 220.094 289.097 220.094 288.634 220.02C288.653 219 289.062 218.026 289.775 217.298C290.489 216.569 291.454 216.14 292.474 216.1Z" fill="#FFA8A7"/>
<path opacity="0.15" d="M204.714 356.91C205.31 356.012 206.011 355.19 206.804 354.46C214.804 347.06 229.804 337.27 242.604 329.13L300.694 362.68C300.774 362.727 300.841 362.795 300.888 362.877C300.935 362.958 300.959 363.051 300.959 363.145C300.959 363.239 300.935 363.331 300.888 363.412C300.841 363.494 300.774 363.562 300.694 363.61L258.504 388L204.714 356.91Z" fill="black"/>
<path d="M187.104 339.85V340.79C187.103 341.468 187.282 342.135 187.62 342.723C187.959 343.311 188.447 343.799 189.034 344.14L256.574 383.14C257.162 383.473 257.827 383.649 258.504 383.65C259.185 383.65 259.854 383.471 260.444 383.13L297.264 361.94C297.848 361.6 298.333 361.112 298.67 360.526C299.007 359.94 299.184 359.276 299.184 358.6V357.3C299.183 357.387 299.16 357.472 299.116 357.548C299.072 357.623 299.009 357.686 298.934 357.73L258.504 381.08L187.104 339.85Z" fill="#37474F"/>
<path d="M258.504 381.08V383.65C257.827 383.649 257.162 383.473 256.574 383.14L189.034 344.14C188.445 343.801 187.955 343.313 187.615 342.725C187.274 342.137 187.094 341.469 187.094 340.79V339.85L258.504 381.08Z" fill="#263238"/>
<path d="M187.094 339.85L227.144 316.73C227.495 316.528 227.893 316.422 228.299 316.422C228.704 316.422 229.102 316.528 229.454 316.73L298.934 356.85C299.01 356.896 299.074 356.961 299.118 357.039C299.161 357.117 299.185 357.205 299.185 357.295C299.185 357.384 299.161 357.472 299.118 357.55C299.074 357.628 299.01 357.694 298.934 357.74L258.504 381.08L187.094 339.85Z" fill="#455A64"/>
<path d="M258.874 377.68L280.474 365.22L217.314 328.75L195.594 341.15L258.874 377.68Z" fill="#37474F"/>
<path d="M195.594 341.15L196.424 341.62L217.314 329.7L279.644 365.7L280.474 365.22L217.314 328.75L195.594 341.15Z" fill="#263238"/>
<path d="M269.494 343.02L269.094 343.25L258.504 349.36L239.674 338.49L239.284 338.27L250.274 331.93L269.494 343.02Z" fill="#263238"/>
<path d="M269.094 343.25L258.504 349.36L239.674 338.49L250.274 332.38L269.094 343.25Z" fill="#37474F"/>
<path d="M248.214 347.62C251.604 344.26 256.514 339.62 260.644 338.24C261.592 337.872 262.565 337.568 263.554 337.33C262.121 337.14 260.701 336.86 259.304 336.49C257.904 336.062 256.66 335.235 255.724 334.11C255.364 333.65 255.104 332.91 255.564 332.54C255.731 332.405 255.938 332.328 256.154 332.32C259.244 332.23 261.684 331.75 264.494 331.54C265.753 331.362 267.032 331.386 268.284 331.61C269.434 331.93 270.584 332.26 271.714 332.61C276.854 334.39 281.714 333.91 288.794 330.67C295.874 327.43 321.434 311.67 321.434 311.67L316.014 341.67L295.834 349.51L295.624 349.59C294.014 350.19 292.554 351.45 288.694 352.64C284.114 354.04 278.264 352.38 274.284 352.17C270.304 351.96 263.534 353.8 259.834 355.29C256.134 356.78 251.724 351.11 249.834 351.79C247.944 352.47 244.834 351 248.214 347.62Z" fill="#C8856A"/>
<path d="M265.264 335.14C267.184 335.053 269.101 335.367 270.894 336.06C268.404 336.179 265.939 336.606 263.554 337.33C262.121 337.14 260.701 336.86 259.304 336.49C258.072 336.101 256.956 335.414 256.054 334.49C258.274 336 262.584 335.42 265.264 335.14Z" fill="#AF6152"/>
<path d="M257.414 381.65C256.776 381.896 256.091 381.997 255.41 381.945C254.728 381.893 254.067 381.69 253.474 381.35L186.224 342.52C185.641 342.183 185.139 341.721 184.756 341.168C184.372 340.615 184.115 339.984 184.004 339.32L176.634 295.41C176.594 295.162 176.574 294.911 176.574 294.66C176.575 293.44 177.061 292.271 177.924 291.41L247.834 331.77C248.264 332.018 248.634 332.358 248.918 332.766C249.201 333.174 249.391 333.64 249.474 334.13L257.414 381.65Z" fill="#263238"/>
<path d="M258.504 381.08L258.044 381.35C257.84 381.462 257.629 381.562 257.414 381.65L249.414 334.13C249.331 333.64 249.141 333.174 248.858 332.766C248.574 332.358 248.204 332.018 247.774 331.77L177.884 291.41C178.167 291.136 178.482 290.897 178.824 290.7L248.824 331.13C249.254 331.381 249.624 331.723 249.907 332.132C250.191 332.542 250.381 333.009 250.464 333.5L258.504 381.08Z" fill="#455A64"/>
<path d="M248.834 332.66L249.914 332.04C250.242 332.467 250.462 332.968 250.554 333.5L258.554 381.08L258.094 381.35C257.89 381.462 257.679 381.562 257.464 381.65L249.464 334.13C249.373 333.597 249.157 333.093 248.834 332.66Z" fill="#37474F"/>
<path d="M219.544 341.12C219.044 338.18 216.014 334.28 212.764 332.4C209.514 330.52 207.274 331.4 207.764 334.32C208.254 337.24 211.294 341.17 214.544 343.04C217.794 344.91 220.034 344.06 219.544 341.12Z" fill="#5AAAE7"/>
<path d="M301.834 325.72C312.604 317.92 321.474 311.72 321.474 311.72L318.394 278.62C318.394 278.62 316.064 262.25 319.754 252.98C323.584 243.37 327.364 241.98 327.364 241.98C331.127 243.361 334.645 245.336 337.784 247.83C341.954 251.48 343.944 259.96 344.954 271.92C345.834 282.42 347.494 308.75 347.754 314.92C348.094 322.72 347.754 328.98 339.474 332.75C330.764 336.75 304.654 345.65 304.654 345.65L301.834 325.72Z" fill="#C8856A"/>
<path d="M326.344 241.28C334.814 243.99 339.134 245.55 342.714 255.47C346.294 265.39 346.164 283.61 347.254 298.21C348.344 312.81 349.154 322.34 346.814 326.95C345.534 329.48 343.194 331.8 334.814 334.95C326.434 338.1 318.364 340.95 318.364 340.95C318.364 340.95 317.564 328.05 308.364 319.37L321.004 311.68C321.004 311.68 318.094 281.87 317.394 273.68C316.694 265.49 315.834 248.34 326.344 241.28Z" fill="#5AAAE7"/>
<path opacity="0.55" d="M326.344 241.28C334.814 243.99 339.134 245.55 342.714 255.47C346.294 265.39 346.164 283.61 347.254 298.21C348.344 312.81 349.154 322.34 346.814 326.95C345.534 329.48 343.194 331.8 334.814 334.95C326.434 338.1 318.364 340.95 318.364 340.95C318.364 340.95 317.564 328.05 308.364 319.37L321.004 311.68C321.004 311.68 318.094 281.87 317.394 273.68C316.694 265.49 315.834 248.34 326.344 241.28Z" fill="white"/>
<path opacity="0.35" d="M320.994 311.73C325.934 309.4 335.754 311.5 337.854 313.27C335.354 308.95 328.674 307.4 320.664 308.4L320.994 311.73Z" fill="#5AAAE7"/>
<path opacity="0.35" d="M317.834 320.72C319.357 321.839 320.592 323.307 321.434 325C322.312 326.574 322.984 328.254 323.434 330C323.956 332.016 324.241 334.087 324.284 336.17C324.329 337.059 324.329 337.95 324.284 338.84L323.344 339.18C323.611 336.206 323.364 333.209 322.614 330.32C322.14 328.598 321.469 326.937 320.614 325.37C319.699 323.831 318.697 322.345 317.614 320.92C317.644 320.87 317.664 320.63 317.834 320.72Z" fill="#5AAAE7"/>
<path d="M304.246 131.156L308.41 123.329L305.057 113.681V107.783L315.31 113.681V119.578L310.904 127.188C310.838 127.31 310.73 127.404 310.601 127.454V127.454L304.246 131.156Z" fill="#5AAAE7"/>
<path opacity="0.3" d="M304.246 131.156L308.41 123.329L305.057 113.681V107.783L315.31 113.681V119.578L310.904 127.188C310.838 127.31 310.73 127.404 310.601 127.454V127.454L304.246 131.156Z" fill="black"/>
<path d="M285.834 64.4749C285.892 63.412 286.201 62.3776 286.735 61.4557C287.269 60.5338 288.014 59.7502 288.908 59.1684L291.414 57.7332C292.367 57.2512 293.42 57 294.489 57C295.557 57 296.611 57.2512 297.564 57.7332L328.759 75.6427C329.654 76.2245 330.398 77.0081 330.932 77.93C331.467 78.852 331.775 79.8863 331.834 80.9492V123.027C331.775 124.09 331.467 125.125 330.932 126.047C330.398 126.969 329.654 127.752 328.759 128.334L326.253 129.781C325.3 130.263 324.247 130.514 323.178 130.514C322.11 130.514 321.056 130.263 320.104 129.781L308.87 123.329L304.476 130.927C304.413 131.039 304.319 131.13 304.205 131.19C304.092 131.249 303.963 131.275 303.835 131.263C303.707 131.252 303.585 131.204 303.484 131.125C303.383 131.046 303.307 130.939 303.265 130.818L298.617 117.444L288.933 111.872C288.038 111.29 287.293 110.506 286.759 109.584C286.225 108.662 285.916 107.628 285.858 106.565L285.834 64.4749Z" fill="#5AAAE7"/>
<path opacity="0.3" d="M331.834 123.028C331.775 124.091 331.467 125.125 330.932 126.047C330.398 126.969 329.654 127.752 328.759 128.334L326.253 129.782C325.385 130.214 324.434 130.459 323.464 130.501C322.495 130.542 321.527 130.379 320.624 130.023C322.077 130.565 323.178 129.757 323.178 128.009V85.9425C323.143 84.8778 322.834 83.8399 322.283 82.9274L330.926 77.9465C331.481 78.8625 331.794 79.9042 331.834 80.9737V123.028Z" fill="black"/>
<path opacity="0.3" d="M285.942 63.6069C286.294 62.3044 287.492 61.8943 288.908 62.7144L320.104 80.6239C321.015 81.1797 321.763 81.9662 322.27 82.9033L330.926 77.9344C330.41 77.0001 329.664 76.2117 328.759 75.643L297.576 57.7335C296.619 57.2579 295.564 57.0103 294.495 57.0103C293.426 57.0103 292.371 57.2579 291.414 57.7335L288.908 59.1808C288.137 59.6783 287.477 60.3276 286.967 61.0887C286.457 61.8499 286.108 62.7067 285.942 63.6069V63.6069Z" fill="white"/>
<path d="M299.677 109.395C299.176 109.269 298.736 108.97 298.434 108.55L293.735 101.926C293.57 101.694 293.452 101.431 293.389 101.152C293.325 100.874 293.317 100.586 293.365 100.305C293.413 100.023 293.516 99.7543 293.668 99.5127C293.819 99.271 294.017 99.0617 294.25 98.8966C294.483 98.7315 294.746 98.6138 295.024 98.5503C295.302 98.4868 295.59 98.4788 295.872 98.5266C296.153 98.5744 296.422 98.6772 296.664 98.829C296.906 98.9809 297.115 99.1788 297.28 99.4116L300.279 103.629L313.545 86.3678C313.719 86.1413 313.936 85.9513 314.183 85.8087C314.431 85.6661 314.704 85.5736 314.987 85.5365C315.27 85.4994 315.558 85.5185 315.834 85.5926C316.11 85.6667 316.368 85.7944 316.595 85.9685C316.821 86.1425 317.011 86.3595 317.154 86.6069C317.296 86.8544 317.389 87.1275 317.426 87.4107C317.463 87.6939 317.444 87.9816 317.37 88.2575C317.296 88.5333 317.168 88.7918 316.994 89.0183L301.94 108.564C301.733 108.835 301.466 109.053 301.16 109.201C300.853 109.349 300.516 109.424 300.176 109.418C300.009 109.429 299.842 109.421 299.677 109.395V109.395Z" fill="#FAFAFA"/>
</svg>
