<svg width="500" height="500" viewBox="0 0 500 500" fill="none" xmlns="http://www.w3.org/2000/svg">
<path d="M97.6084 442.07C169.071 484.643 284.936 484.643 356.399 442.07C427.862 399.497 427.871 330.489 356.399 287.926C284.927 245.363 169.071 245.353 97.5995 287.926C26.1276 330.499 26.1364 399.477 97.6084 442.07Z" fill="#F5F5F5"/>
<path d="M70.19 388.85L73.93 391C74.6011 391.34 75.3428 391.517 76.095 391.517C76.8473 391.517 77.589 391.34 78.26 391L251.08 291.23C251.343 291.144 251.571 290.977 251.733 290.754C251.895 290.53 251.983 290.261 251.983 289.985C251.983 289.709 251.895 289.44 251.733 289.216C251.571 288.993 251.343 288.826 251.08 288.74L247.37 286.62C246.699 286.28 245.957 286.103 245.205 286.103C244.453 286.103 243.711 286.28 243.04 286.62L70.19 386.35C69.9288 386.439 69.702 386.607 69.5413 386.831C69.3806 387.055 69.2942 387.324 69.2942 387.6C69.2942 387.876 69.3806 388.145 69.5413 388.369C69.702 388.593 69.9288 388.761 70.19 388.85V388.85Z" fill="#E0E0E0"/>
<path d="M319.68 424.79C348.808 424.79 372.42 411.847 372.42 395.88C372.42 379.913 348.808 366.97 319.68 366.97C290.553 366.97 266.94 379.913 266.94 395.88C266.94 411.847 290.553 424.79 319.68 424.79Z" fill="#E0E0E0"/>
<path d="M336.676 364.553C336.616 359.443 340.186 348.823 345.406 342.123C350.626 335.423 358.896 330.473 364.846 332.433C370.386 334.253 369.846 341.493 363.236 346.363C356.626 351.233 346.626 357.363 343.776 365.703L337.726 375.943L336.676 364.553Z" fill="#5AAAE7"/>
<path opacity="0.1" d="M336.676 364.553C336.616 359.443 340.186 348.823 345.406 342.123C350.626 335.423 358.896 330.473 364.846 332.433C370.386 334.253 369.846 341.493 363.236 346.363C356.626 351.233 346.626 357.363 343.776 365.703L337.726 375.943L336.676 364.553Z" fill="black"/>
<path d="M336.386 371.553C336.467 371.543 336.543 371.508 336.602 371.452C336.662 371.397 336.701 371.323 336.716 371.243C339.926 353.763 353.866 339.423 362.266 336.193C362.36 336.157 362.436 336.085 362.477 335.993C362.519 335.902 362.522 335.797 362.486 335.703C362.468 335.658 362.442 335.616 362.408 335.581C362.374 335.546 362.334 335.518 362.289 335.498C362.245 335.479 362.197 335.468 362.148 335.467C362.1 335.466 362.051 335.475 362.006 335.493C353.436 338.783 339.236 353.363 336.006 371.113C335.997 371.161 335.998 371.21 336.009 371.258C336.019 371.305 336.039 371.35 336.067 371.39C336.094 371.43 336.13 371.464 336.171 371.49C336.212 371.517 336.258 371.534 336.306 371.543L336.386 371.553Z" fill="white"/>
<path d="M339.166 382.683C339.956 379.803 343.406 375.023 349.026 371.033C355.256 366.633 363.176 364.543 364.966 361.153C367.116 357.073 363.656 353.293 357.216 354.153C350.776 355.013 339.556 363.963 337.896 377.223L339.166 382.683Z" fill="#5AAAE7"/>
<path d="M337.836 379.683C337.907 379.676 337.975 379.648 338.032 379.604C338.089 379.56 338.132 379.501 338.156 379.433C343.316 364.433 354.656 359.053 359.926 358.303C360.023 358.288 360.111 358.236 360.171 358.158C360.23 358.079 360.257 357.981 360.246 357.883C360.24 357.834 360.224 357.787 360.199 357.744C360.175 357.702 360.142 357.665 360.103 357.635C360.064 357.605 360.019 357.583 359.972 357.571C359.924 357.559 359.874 357.556 359.826 357.563C353.996 358.393 342.726 363.873 337.446 379.193C337.43 379.239 337.423 379.287 337.427 379.336C337.43 379.384 337.442 379.432 337.463 379.476C337.485 379.519 337.515 379.558 337.551 379.59C337.587 379.622 337.63 379.647 337.676 379.663C337.726 379.684 337.782 379.691 337.836 379.683V379.683Z" fill="white"/>
<path d="M74.8499 386.33L74.0899 385.89C73.4507 385.474 72.9185 384.913 72.5363 384.253C72.1541 383.593 71.9327 382.852 71.8899 382.09V125.83C71.9335 125.067 72.1552 124.325 72.5372 123.664C72.9193 123.002 73.451 122.439 74.0899 122.02L239.21 26.7001C239.892 26.3547 240.646 26.1748 241.41 26.1748C242.174 26.1748 242.928 26.3547 243.61 26.7001L244.36 27.14C245.001 27.5567 245.534 28.1191 245.917 28.7812C246.299 29.4434 246.519 30.1865 246.56 30.9501V287.2C246.519 287.964 246.299 288.707 245.917 289.369C245.534 290.031 245.001 290.593 244.36 291.01L79.2499 386.33C78.5679 386.675 77.8143 386.855 77.0499 386.855C76.2855 386.855 75.5318 386.675 74.8499 386.33V386.33Z" fill="#5AAAE7"/>
<path opacity="0.4" d="M246.54 30.6C246.39 29.46 245.47 29.04 244.37 29.67L79.2398 125C78.5933 125.408 78.0602 125.972 77.6898 126.64L72.5398 123.64C72.9151 122.972 73.4513 122.408 74.0998 122L239.21 26.7001C239.892 26.3547 240.645 26.1748 241.41 26.1748C242.174 26.1748 242.928 26.3547 243.61 26.7001L244.37 27.14C244.955 27.5316 245.45 28.0421 245.824 28.6384C246.198 29.2346 246.442 29.9031 246.54 30.6V30.6Z" fill="white"/>
<path opacity="0.1" d="M78.8799 386.5C78.2389 386.755 77.5511 386.872 76.8617 386.843C76.1723 386.814 75.4969 386.639 74.8799 386.33L74.1099 385.89C73.4707 385.472 72.9392 384.909 72.5586 384.247C72.1781 383.585 71.9592 382.843 71.9199 382.08V125.83C71.9431 125.067 72.1636 124.323 72.5599 123.67L77.7099 126.67C77.3013 127.311 77.0574 128.042 76.9999 128.8V385.06C76.9999 386.32 77.8399 386.91 78.8799 386.5Z" fill="black"/>
<path d="M96.5199 293.65L95.7599 293.21C95.1207 292.794 94.5885 292.233 94.2063 291.573C93.8241 290.913 93.6027 290.172 93.5599 289.41V243.35C93.6027 242.587 93.8241 241.845 94.2062 241.183C94.5883 240.521 95.1205 239.959 95.7599 239.54L245.67 152.91C246.35 152.565 247.102 152.385 247.865 152.385C248.628 152.385 249.38 152.565 250.06 152.91L250.82 153.35C251.461 153.767 251.994 154.329 252.377 154.991C252.759 155.653 252.98 156.397 253.02 157.16V203.22C252.98 203.982 252.759 204.724 252.377 205.385C251.994 206.045 251.461 206.606 250.82 207.02L100.92 293.65C100.238 293.995 99.4843 294.175 98.7199 294.175C97.9555 294.175 97.2019 293.995 96.5199 293.65V293.65Z" fill="#EBEBEB"/>
<path d="M253 156.81C252.85 155.67 251.93 155.25 250.82 155.88L100.91 242.52C100.264 242.928 99.7304 243.492 99.36 244.16L94.21 241.16C94.5807 240.486 95.1177 239.918 95.77 239.51L245.67 152.88C246.35 152.535 247.102 152.355 247.865 152.355C248.628 152.355 249.38 152.535 250.06 152.88L250.82 153.32C251.413 153.71 251.915 154.224 252.292 154.827C252.668 155.429 252.909 156.106 253 156.81Z" fill="#FAFAFA"/>
<path d="M100.54 293.83C99.8985 294.085 99.2102 294.201 98.5206 294.17C97.831 294.139 97.1558 293.962 96.54 293.65L95.76 293.22C95.1254 292.798 94.5979 292.234 94.2195 291.573C93.841 290.912 93.6221 290.171 93.58 289.41V243.35C93.6031 242.587 93.8236 241.843 94.22 241.19L99.37 244.19C98.9778 244.845 98.7544 245.587 98.72 246.35V292.42C98.71 293.64 99.51 294.23 100.54 293.83Z" fill="#E0E0E0"/>
<path d="M122.11 239.43C130.66 234.49 137.59 238.33 137.59 248.01C137.59 257.69 130.65 269.45 122.09 274.28C113.53 279.11 106.6 275.28 106.6 265.7C106.6 256.12 113.56 244.37 122.11 239.43Z" fill="#5AAAE7"/>
<path d="M96.5199 356.07L95.7599 355.63C95.1207 355.214 94.5885 354.653 94.2063 353.993C93.8241 353.333 93.6027 352.592 93.5599 351.83V305.77C93.6027 305.007 93.8241 304.265 94.2062 303.603C94.5883 302.941 95.1205 302.379 95.7599 301.96L245.67 215.33C246.35 214.985 247.102 214.805 247.865 214.805C248.628 214.805 249.38 214.985 250.06 215.33L250.82 215.77C251.462 216.186 251.995 216.748 252.378 217.411C252.76 218.073 252.98 218.816 253.02 219.58V265.64C252.98 266.402 252.759 267.144 252.377 267.805C251.994 268.465 251.461 269.026 250.82 269.44L100.92 356.07C100.238 356.415 99.4843 356.595 98.7199 356.595C97.9555 356.595 97.2019 356.415 96.5199 356.07V356.07Z" fill="#EBEBEB"/>
<path d="M253 219.22C252.85 218.08 251.93 217.67 250.82 218.3L100.91 304.94C100.266 305.346 99.7334 305.907 99.36 306.57L94.21 303.57C94.5891 302.923 95.1258 302.383 95.77 302L245.67 215.37C246.35 215.025 247.102 214.845 247.865 214.845C248.628 214.845 249.38 215.025 250.06 215.37L250.82 215.81C251.405 216.191 251.902 216.692 252.278 217.28C252.654 217.868 252.9 218.529 253 219.22Z" fill="#FAFAFA"/>
<path d="M100.54 356.24C99.8993 356.497 99.2113 356.614 98.5217 356.585C97.8321 356.556 97.1566 356.38 96.54 356.07L95.76 355.63C95.1237 355.21 94.595 354.646 94.2163 353.985C93.8377 353.323 93.6197 352.582 93.58 351.82V305.77C93.6018 305.007 93.8224 304.262 94.22 303.61L99.37 306.61C98.9789 307.269 98.7557 308.014 98.72 308.78V354.85C98.71 356.06 99.51 356.65 100.54 356.24Z" fill="#E0E0E0"/>
<path d="M122.11 301.85C130.66 296.91 137.59 300.75 137.59 310.43C137.59 320.11 130.65 331.87 122.09 336.7C113.53 341.53 106.6 337.7 106.6 328.12C106.6 318.54 113.56 306.78 122.11 301.85Z" fill="#5AAAE7"/>
<path d="M96.5199 189.27L95.7599 188.83C95.1205 188.412 94.5883 187.849 94.2062 187.187C93.8241 186.525 93.6027 185.783 93.5599 185.02V139C93.6027 138.238 93.8241 137.498 94.2063 136.837C94.5885 136.177 95.1207 135.616 95.7599 135.2L245.67 48.53C246.35 48.1848 247.102 48.0049 247.865 48.0049C248.628 48.0049 249.38 48.1848 250.06 48.53L250.82 48.97C251.461 49.3845 251.994 49.945 252.377 50.6056C252.759 51.2661 252.98 52.0078 253.02 52.77V98.83C252.98 99.5935 252.759 100.337 252.377 100.999C251.994 101.661 251.461 102.223 250.82 102.64L100.92 189.27C100.238 189.615 99.4843 189.795 98.7199 189.795C97.9555 189.795 97.2019 189.615 96.5199 189.27Z" fill="#EBEBEB"/>
<path d="M253 52.42C252.85 51.28 251.93 50.87 250.82 51.5L100.91 138.14C100.262 138.541 99.7278 139.102 99.36 139.77L94.21 136.77C94.5784 136.097 95.1161 135.532 95.77 135.13L245.67 48.5C246.35 48.1548 247.102 47.9749 247.865 47.9749C248.628 47.9749 249.38 48.1548 250.06 48.5L250.82 48.94C251.413 49.3283 251.915 49.8404 252.291 50.4411C252.668 51.0419 252.909 51.7169 253 52.42V52.42Z" fill="#FAFAFA"/>
<path d="M100.54 189.44C99.8992 189.697 99.2113 189.814 98.5217 189.785C97.8321 189.756 97.1566 189.58 96.5399 189.27L95.7599 188.83C95.1192 188.409 94.5869 187.843 94.2064 187.177C93.8258 186.512 93.6078 185.766 93.5699 185V139C93.5914 138.233 93.812 137.486 94.2099 136.83L99.3599 139.83C98.9673 140.489 98.744 141.234 98.7099 142V188C98.7099 189.26 99.5099 189.84 100.54 189.44Z" fill="#E0E0E0"/>
<path d="M122.11 135.05C130.66 130.11 137.59 133.95 137.59 143.62C137.59 153.29 130.65 165.06 122.09 169.9C113.53 174.74 106.6 170.9 106.6 161.32C106.6 151.74 113.56 140 122.11 135.05Z" fill="#5AAAE7"/>
<path d="M107.06 247.75L106.3 247.31C105.659 246.893 105.125 246.331 104.743 245.669C104.361 245.007 104.14 244.264 104.1 243.5V197.44C104.142 196.677 104.363 195.934 104.745 195.272C105.127 194.611 105.66 194.048 106.3 193.63L256.2 107C256.882 106.655 257.636 106.475 258.4 106.475C259.164 106.475 259.918 106.655 260.6 107L261.36 107.43C261.999 107.849 262.531 108.412 262.913 109.074C263.295 109.735 263.516 110.477 263.56 111.24V157.3C263.517 158.063 263.296 158.805 262.914 159.467C262.532 160.129 261.999 160.692 261.36 161.11L111.45 247.75C110.77 248.095 110.018 248.275 109.255 248.275C108.492 248.275 107.74 248.095 107.06 247.75V247.75Z" fill="#37474F"/>
<path d="M263.54 110.9C263.39 109.76 262.47 109.34 261.36 109.98L111.45 196.62C110.801 197.024 110.265 197.584 109.89 198.25L104.75 195.25C105.117 194.577 105.651 194.009 106.3 193.6L256.2 107C256.882 106.655 257.636 106.475 258.4 106.475C259.164 106.475 259.918 106.655 260.6 107L261.36 107.43C261.951 107.818 262.451 108.329 262.828 108.928C263.204 109.527 263.447 110.199 263.54 110.9Z" fill="#455A64"/>
<path d="M111.08 247.92C110.439 248.176 109.751 248.292 109.062 248.263C108.372 248.234 107.697 248.059 107.08 247.75L106.31 247.31C105.672 246.891 105.141 246.328 104.761 245.666C104.38 245.004 104.161 244.262 104.12 243.5V197.44C104.147 196.676 104.371 195.932 104.77 195.28L109.91 198.28C109.521 198.936 109.301 199.678 109.27 200.44V246.51C109.25 247.73 110 248.32 111.08 247.92Z" fill="#263238"/>
<path d="M132.65 193.52C141.2 188.59 148.13 192.43 148.13 202.1C148.13 211.77 141.19 223.54 132.63 228.38C124.07 233.22 117.13 229.38 117.14 219.8C117.15 210.22 124.1 198.46 132.65 193.52Z" fill="#F5F5F5"/>
<path d="M133 221.35C132.73 221.555 132.403 221.674 132.064 221.69C131.725 221.706 131.389 221.619 131.1 221.44L124.3 216.3C123.39 215.61 123.5 213.72 124.55 212.06C125.6 210.4 127.19 209.62 128.09 210.31L132.83 213.9L146 185.61C146.82 183.84 148.39 182.61 149.51 182.96C150.63 183.31 150.87 184.96 150.04 186.7L135 219C134.584 219.929 133.915 220.723 133.07 221.29L133 221.35Z" fill="#5AAAE7"/>
<path d="M263.52 179.3L259.17 176.79C257.28 175.71 254.97 176.79 253.75 177.53L251 176C247.71 174 243.13 178.17 242.11 179.16L240.93 178.49C237.44 176.39 231.09 182.02 231.09 182.02V161L233.85 159.67L229.46 157.13C228.831 156.851 228.14 156.742 227.455 156.814C226.771 156.886 226.117 157.136 225.56 157.54C223.936 158.598 222.584 160.024 221.614 161.702C220.644 163.381 220.085 165.264 219.98 167.2V215.77C215.98 212.77 211.7 210.97 207.98 211.64C205.017 212.333 202.424 214.118 200.72 216.64C198.88 219.9 201.92 221.94 205.84 226.42C209.76 230.9 213.16 236.22 216.7 239.52C218.447 241.29 220.523 242.703 222.81 243.68V250L227.11 252.49L255.59 231.08V224.75C255.59 224.75 259.65 208.53 260.95 201.75C262.2 195.23 263.35 184.82 261.2 179.42L263.53 179.26L263.52 179.3Z" fill="#5AAAE7"/>
<path opacity="0.4" d="M263.52 179.3L259.17 176.79C257.28 175.71 254.97 176.79 253.75 177.53L251 176C247.71 174 243.13 178.17 242.11 179.16L240.93 178.49C237.44 176.39 231.09 182.02 231.09 182.02V161L233.85 159.67L229.46 157.13C228.831 156.851 228.14 156.742 227.455 156.814C226.771 156.886 226.117 157.136 225.56 157.54C223.936 158.598 222.584 160.024 221.614 161.702C220.644 163.381 220.085 165.264 219.98 167.2V215.77C215.98 212.77 211.7 210.97 207.98 211.64C205.017 212.333 202.424 214.118 200.72 216.64C198.88 219.9 201.92 221.94 205.84 226.42C209.76 230.9 213.16 236.22 216.7 239.52C218.447 241.29 220.523 242.703 222.81 243.68V250L227.11 252.49L255.59 231.08V224.75C255.59 224.75 259.65 208.53 260.95 201.75C262.2 195.23 263.35 184.82 261.2 179.42L263.53 179.26L263.52 179.3Z" fill="white"/>
<path d="M231.41 235.12L209.87 222.69L200.44 217.24C199.24 220.18 202.15 222.24 205.83 226.45C209.72 230.9 213.15 236.25 216.69 239.55C218.437 241.32 220.512 242.733 222.8 243.71V250L227.1 252.49L233.39 247.76C232.58 242.42 231.41 235.12 231.41 235.12Z" fill="#5AAAE7"/>
<path d="M224.29 169.71L219.99 167.22V218.17L224.29 218.28V169.71Z" fill="#5AAAE7"/>
<path d="M258.08 182.57L261.42 180.11C261.34 179.89 261.28 179.67 261.19 179.46L262.41 179.38L259.73 179.26L255.26 176.79C254.738 177 254.233 177.25 253.75 177.54L255.15 178.35L258.08 182.57Z" fill="#5AAAE7"/>
<path d="M246.25 181.84L249.38 179.46L245.06 176.84C244.017 177.51 243.043 178.28 242.15 179.14L245.15 180.88L246.25 181.84Z" fill="#5AAAE7"/>
<path d="M239.71 181.61L235.43 179.11L235.45 179.07V184.48L240.43 182.66L239.71 181.61Z" fill="#5AAAE7"/>
<g opacity="0.15">
<path opacity="0.15" d="M231.41 235.12L209.87 222.69L200.44 217.24C199.24 220.18 202.15 222.24 205.83 226.45C209.72 230.9 213.15 236.25 216.69 239.55C218.437 241.32 220.512 242.733 222.8 243.71V250L227.1 252.49L233.39 247.76C232.58 242.42 231.41 235.12 231.41 235.12Z" fill="black"/>
<path opacity="0.15" d="M224.29 169.71L219.99 167.22V218.17L224.29 218.28V169.71Z" fill="black"/>
<path opacity="0.15" d="M258.08 182.57L261.42 180.11C261.34 179.89 261.28 179.67 261.19 179.46L262.41 179.38L259.73 179.26L255.26 176.79C254.738 177 254.233 177.25 253.75 177.54L255.15 178.35L258.08 182.57Z" fill="black"/>
<path opacity="0.15" d="M246.25 181.84L249.38 179.46L245.06 176.84C244.017 177.51 243.043 178.28 242.15 179.14L245.15 180.88L246.25 181.84Z" fill="black"/>
<path opacity="0.15" d="M239.71 181.61L235.43 179.11L235.45 179.07V184.48L240.43 182.66L239.71 181.61Z" fill="black"/>
</g>
<path d="M227.1 252.53V246.2C224.813 245.209 222.741 243.783 221 242C217.46 238.7 214 233.34 210.14 228.9C206.28 224.46 203.14 222.37 205.02 219.12C206.724 216.598 209.317 214.813 212.28 214.12C216.02 213.45 220.28 215.28 224.28 218.25V169.71C224.383 167.775 224.942 165.892 225.909 164.214C226.877 162.535 228.227 161.109 229.85 160.05V160.05C232.93 158.27 235.43 159.71 235.43 163.27V184.48C235.43 184.48 243.12 177.66 246.22 181.84C246.22 181.84 253.78 173.93 257.22 180.61C257.22 180.61 262.76 176.14 265.22 181.33C267.68 186.52 266.52 197.5 265.22 204.28C263.92 211.06 259.85 227.28 259.85 227.28V233.61L227.1 252.53Z" fill="#5AAAE7"/>
<path d="M235.45 193.59C235.45 193.59 236.15 183.91 239.71 181.59H239.58C238.107 182.384 236.722 183.333 235.45 184.42V184.24C235.437 184.268 235.43 184.299 235.43 184.33C235.43 184.361 235.437 184.392 235.45 184.42V193.59Z" fill="#455A64"/>
<path d="M246.25 181.84V190.7C246.25 190.7 247.25 181.59 249.25 179.39C248.163 180.094 247.157 180.916 246.25 181.84V181.84Z" fill="#455A64"/>
<path d="M257.21 180.61V189.5C257.21 189.5 257.75 180.55 259.68 179.23C258.794 179.567 257.961 180.032 257.21 180.61Z" fill="#455A64"/>
<path d="M225.54 151.44C224.84 151.84 224.28 151.61 224.28 150.91V143.91C224.317 143.501 224.451 143.106 224.67 142.759C224.889 142.411 225.187 142.12 225.54 141.91V141.91C226.23 141.51 226.79 141.75 226.79 142.44V149.44C226.755 149.849 226.623 150.243 226.406 150.591C226.189 150.938 225.892 151.229 225.54 151.44V151.44Z" fill="#EBEBEB"/>
<path d="M215 162.53C214.51 163.37 213.72 163.83 213.23 163.53L209.16 161.18C208.67 160.9 208.67 159.98 209.16 159.18C209.65 158.33 210.44 157.87 210.93 158.18L215 160.53C215.53 160.76 215.53 161.68 215 162.53Z" fill="#EBEBEB"/>
<path d="M210.69 177.06V177.26C210.647 177.695 210.503 178.113 210.268 178.481C210.034 178.85 209.716 179.158 209.34 179.38L203.78 182.59C203.04 183.02 202.43 182.77 202.43 182.02V181.82C202.475 181.386 202.62 180.969 202.855 180.601C203.089 180.233 203.406 179.924 203.78 179.7L209.34 176.49C210.09 176.06 210.69 176.31 210.69 177.06Z" fill="#EBEBEB"/>
<path d="M240.38 160.12V159.92C240.421 159.484 240.565 159.063 240.8 158.693C241.034 158.323 241.353 158.013 241.73 157.79L247.29 154.58C248.03 154.15 248.64 154.41 248.64 155.15V155.35C248.595 155.784 248.45 156.201 248.215 156.569C247.981 156.937 247.664 157.246 247.29 157.47L241.73 160.68C241 161.11 240.38 160.86 240.38 160.12Z" fill="#EBEBEB"/>
<path d="M236 150.4C235.51 150.12 235.51 149.21 236 148.4L240.07 141.4C240.56 140.55 241.35 140.09 241.84 140.4C242.33 140.69 242.33 141.6 241.84 142.45L237.77 149.45C237.32 150.23 236.52 150.69 236 150.4Z" fill="#EBEBEB"/>
<path d="M343.51 268.34C344.28 239.77 341.99 232.93 334.39 227.7L331.44 244.25C331.44 244.25 334.9 263.75 334.53 270.25C334.21 275.96 333.65 283.1 332.3 287.71C332.063 288.541 331.524 289.254 330.79 289.71C328.85 290.92 328.07 292.16 326.61 293.71C325.47 294.91 324.5 295.2 324.61 295.58C324.831 295.999 325.201 296.321 325.647 296.48C326.094 296.639 326.584 296.625 327.02 296.44C327.988 296.05 328.907 295.55 329.76 294.95C329.09 296.701 328.141 298.332 326.95 299.78C324.23 303.11 324.11 305.16 329.6 305.21C333.03 305.21 335.77 303.12 338.36 295.55C339.364 292.774 340.17 289.93 340.77 287.04C342.13 279.49 343.39 272.94 343.51 268.34Z" fill="#C8856A"/>
<path d="M328 225.53C331.63 225 336.56 225.76 339.75 231.46C342.94 237.16 343.75 246.97 344.08 256.72C344.08 256.72 337.75 262.01 330.15 259.41L328 225.53Z" fill="#5AAAE7"/>
<path opacity="0.1" d="M328 225.53C331.63 225 336.56 225.76 339.75 231.46C342.94 237.16 343.75 246.97 344.08 256.72C344.08 256.72 337.75 262.01 330.15 259.41L328 225.53Z" fill="black"/>
<path d="M338.67 382.64C339.24 382.86 339.39 383.96 339.48 386.14C339.54 387.79 339.9 390.68 337.96 391.25C336.02 391.82 333.19 391.53 331.96 389.98C330.41 387.98 329.37 386.32 327.16 383.98C325.24 381.92 323.16 379.98 322.4 377.12C321.7 374.51 322.28 373.38 324.06 372.62C326.5 371.62 330.35 374.99 332.26 375.52C333.9 376 338.09 382.42 338.67 382.64Z" fill="#263238"/>
<path d="M338.67 380.62V383.3C337.663 383.944 336.5 384.301 335.305 384.332C334.11 384.364 332.93 384.069 331.89 383.48C331.78 383.22 331.19 379.65 331.19 379.65L338.67 380.62Z" fill="#C8856A"/>
<path d="M317 398.09C317.468 399.525 317.861 400.984 318.18 402.46C318.51 404.08 318.98 406.79 318.42 408.01C317.86 409.23 315.64 410.01 312.2 410.01C309.98 410.01 306.52 411.5 304.15 412.82C301.78 414.14 296.6 414.73 294.01 414.43C290.96 414.07 287.8 412.3 287.3 411.03C286.8 409.76 287.46 408.46 294.66 405.39C294.73 405.39 304.66 402.13 308.14 398.29L317 398.09Z" fill="#263238"/>
<path d="M317 395.19C317 395.19 317 397.19 317 398.32C317 399.45 315.67 401.15 312.19 401.02C309.75 400.94 308.05 400.28 308.19 398.27V395.37L317 395.19Z" fill="#C8856A"/>
<path d="M340.41 345.05C339.817 340.291 338.758 335.602 337.25 331.05C337.25 331.05 338.2 319.05 338.66 307.59C339.16 295.25 338.66 279.75 338.87 276.67C338.87 276.67 299.07 268.67 298.36 282.87C297.65 297.07 299.93 333.43 300.36 339.69C300.79 345.95 301.91 351.5 303.21 361.69C304.51 371.88 308.06 395.37 308.06 395.37C309.438 396.071 310.967 396.421 312.513 396.39C314.058 396.358 315.572 395.946 316.92 395.19C316.92 395.19 319.72 366.68 319.43 359.45C319.204 354.097 318.283 348.796 316.69 343.68C316.69 343.68 317.44 331.92 318.11 321.68C318.78 311.44 319.48 306.54 319.63 302.1L320.49 301.67C320.49 301.67 321.36 319.31 321.83 325.58C322.3 331.85 323.3 337.85 325.11 349.48C326.69 359.58 331.37 380.93 331.37 380.93C335.91 383.39 338.63 380.61 338.63 380.61C338.63 380.61 341.64 353.81 340.41 345.05Z" fill="#37474F"/>
<path d="M319.67 302.11C319.67 302.11 329.33 297.35 334.16 293.06C334.16 293.06 329.67 299.38 323.78 302.18C323.78 302.18 321.69 324.1 321.7 323.66L320.49 302.07L319.67 302.11Z" fill="#263238"/>
<path d="M311.08 221.01L313.44 233.97L325.14 233.12L322.69 218.42L311.08 221.01Z" fill="#C8856A"/>
<path d="M337.51 232.17C336.35 228.65 331.88 224.81 327.41 225.64C320.762 226.769 314.21 228.404 307.81 230.53C303.71 232 299.98 235.53 299.64 249.01C299.64 249.01 298.27 280.43 298.25 286.5C308.53 290.57 319.25 290.45 325.14 289.16C337.46 286.47 338.94 281.36 338.94 281.36C338.94 281.36 339.1 258.77 338.73 249.01C338.42 240.72 338.31 234.59 337.51 232.17Z" fill="#5AAAE7"/>
<path d="M302.05 205.24C302.05 205.24 299.05 209.98 299.44 210.43C299.83 210.88 302.07 211.24 302.07 211.24L302.05 205.24Z" fill="#C8856A"/>
<path d="M310.29 192.15C304.1 193.6 302.37 196.37 302 206.27C301.62 216.61 302.75 219.83 304.14 221.19C305.07 222.11 310.14 222.19 312.72 221.4C315.91 220.4 323.12 217.7 326.4 212.4C330.26 206.2 331.13 197.9 326.77 194.59C320.63 190 312.81 191.55 310.29 192.15Z" fill="#C8856A"/>
<path d="M311.21 221.72C313.31 220.03 313.12 218.94 313.12 218.94C311.62 220.35 306.04 221.55 304.12 221.19C304.91 222 308.54 222.12 311.21 221.72Z" fill="#9A4A4D"/>
<path d="M302.07 194.72C303.89 197.83 307.83 199.32 307.83 199.32C309.02 200.67 308.36 205.95 310.45 206.78C310.45 206.78 311.35 202.94 314.58 203.35C317.81 203.76 318.36 207.88 316.37 210.43C314.38 212.98 312.47 212.07 312.47 212.07C312.47 212.07 312.69 217.52 315.18 220.56C315.18 220.56 317.95 221.39 322.98 220.19C326.08 219.46 330.39 215.47 332.14 211.32C335.86 202.52 335.95 194.68 330.34 192.46C329.65 188.46 326.45 186.73 322.83 185.98C315.04 184.38 310.02 189.24 304.02 188.82C300.58 188.58 299.94 191.07 302.07 194.72Z" fill="#263238"/>
<path d="M330.47 193.8L334.14 191.52C333.838 191.033 333.354 190.687 332.797 190.556C332.239 190.426 331.652 190.523 331.165 190.825C330.678 191.127 330.332 191.611 330.201 192.169C330.071 192.727 330.168 193.313 330.47 193.8V193.8Z" fill="#263238"/>
<path d="M308.13 230.48C308.13 230.48 302.31 231.56 299.27 236.16C296.23 240.76 283.07 257.26 283.07 257.26C283.07 257.26 264.15 247.79 263.22 246.66C262.29 245.53 262.81 243.27 263.07 242.02C263.33 240.77 263.75 238.02 264.07 237.22C264.55 235.85 262.54 236.22 261.35 237.49C260.16 238.76 259.64 241.25 259.05 241.68C258.46 242.11 253.95 236.93 251.77 234.43C249.59 231.93 248.56 230.18 247.09 231.21C246.04 231.96 246.72 233.44 248.28 235.58C249.014 236.477 249.682 237.427 250.28 238.42C250.47 238.8 249.89 239.11 249.67 239.31C249.24 239.69 248.49 240.31 248.43 240.91C248.462 241.243 248.462 241.577 248.43 241.91C248.22 242.62 247.34 242.91 247.09 243.65C246.91 244.16 247.09 244.72 247.01 245.25C246.94 245.59 246.76 245.89 246.69 246.25C246.671 246.59 246.724 246.929 246.846 247.247C246.969 247.564 247.158 247.851 247.4 248.09C248.93 249.92 251.03 250.62 253.04 251.73C254.71 252.66 256.44 253.06 258.37 253.92C260.3 254.78 282.98 271.54 286.52 269.59C290.06 267.64 308.2 246.44 308.2 246.44C309.733 244.058 310.542 241.282 310.529 238.45C310.517 235.617 309.683 232.849 308.13 230.48Z" fill="#C8856A"/>
<path d="M310.16 229.8C307.66 230.08 304.16 229.62 299.25 234.88C295.309 239.394 291.636 244.136 288.25 249.08C288.895 251.678 290.276 254.034 292.227 255.866C294.179 257.699 296.617 258.929 299.25 259.41C299.25 259.41 307.83 250.62 310.25 245.77C312.67 240.92 313.1 233.06 310.16 229.8Z" fill="#5AAAE7"/>
<path opacity="0.1" d="M310.16 229.8C307.66 230.08 304.16 229.62 299.25 234.88C295.309 239.394 291.636 244.136 288.25 249.08C288.895 251.678 290.276 254.034 292.227 255.866C294.179 257.699 296.617 258.929 299.25 259.41C299.25 259.41 307.83 250.62 310.25 245.77C312.67 240.92 313.1 233.06 310.16 229.8Z" fill="black"/>
<path d="M327.983 215C327.983 212 334.192 209.159 335.401 206.251C336.61 203.344 337.229 201.291 336.891 198.757C336.694 197.264 335.619 195.29 334.494 194.945C334.683 194.018 334.685 193.062 334.502 192.135C334.319 191.207 333.953 190.327 333.428 189.547C332.902 188.768 332.227 188.105 331.444 187.599C330.661 187.093 329.785 186.754 328.87 186.603C327.831 186.464 326.803 186.253 325.792 185.972C324.568 185.555 324.231 184.601 323.219 183.818C321.468 182.512 318.692 182.691 317.792 184.931C316.59 183.56 315.107 183.71 313.42 184.285C312.7 184.509 312.091 185.005 311.719 185.673C311.346 186.34 311.238 187.128 311.416 187.874C309.026 186.733 307.037 188.549 306.924 189.942C306.84 190.968 307.114 191.808 306.531 192.77C305.87 193.854 304.478 193.94 304 193.143C303.866 194.579 304.499 195.663 306.024 195.469C305.794 195.89 305.656 196.358 305.621 196.839C305.586 197.32 305.654 197.803 305.821 198.254C306.046 198.822 306.437 199.305 306.939 199.639C307.442 199.973 308.033 200.141 308.632 200.121C308.748 200.894 309.034 201.63 309.469 202.274C309.981 202.935 316.23 201.656 316.983 202C319.387 202.962 317.438 204.655 319.983 205L321.953 205.684C322.129 205.684 323.029 205.684 323.141 205.849L327.983 215Z" fill="#263238"/>
</svg>
