<svg width="120" height="196" viewBox="0 0 120 196" fill="none" xmlns="http://www.w3.org/2000/svg">
<path d="M90.9047 87.9635C84.9288 74.5812 51.2003 76.687 42.9498 79.3982C42.9498 79.3982 49.8313 64.205 49.8313 63.689C49.8313 63.1731 47.9411 39.4148 47.9411 39.4148L76.2571 37.3616C76.2571 37.3616 79.4688 61.1147 83.0333 66.5476C86.5978 71.9806 90.9047 87.9635 90.9047 87.9635Z" fill="#EA67A8"/>
<path opacity="0.4" d="M90.9047 87.9635C84.9288 74.5812 51.2003 76.687 42.9498 79.3982C42.9498 79.3982 49.8313 64.205 49.8313 63.689C49.8313 63.1731 47.9411 39.4148 47.9411 39.4148L76.2571 37.3616C76.2571 37.3616 79.4688 61.1147 83.0333 66.5476C86.5978 71.9806 90.9047 87.9635 90.9047 87.9635Z" fill="black"/>
<path d="M105.252 53.3128C107.111 52.6601 108.938 51.5545 112.097 50.1173C115.256 48.6801 116.983 48.28 117.731 50.2858C118.478 52.2916 118.952 56.8926 116.841 59.1406C114.73 61.3885 110.433 59.4933 105.958 61.2463L105.252 53.3128Z" fill="#F28F8F"/>
<path d="M71.4868 33.1869C77.0415 33.1237 78.1683 34.0871 80.3586 36.6773C83.3229 40.1729 87.7298 48.8224 91.884 55.5081L106.663 52.9602L109.017 60.5251C109.017 60.5251 95.8223 65.3684 92.2052 66.316C88.6775 67.2215 87.3507 67.8427 84.2232 63.8996C82.2014 61.3516 76.8783 53.7076 76.8783 53.7076L71.4868 33.1869Z" fill="#FFBDA7"/>
<path d="M71.4868 32.992C74.488 32.8446 77.2311 32.992 79.2634 35.161C81.2958 37.3299 83.2281 40.2359 86.3661 45.6478C89.5042 51.0596 91.884 55.2396 91.884 55.2396L96.649 54.7132C96.649 54.7132 95.6328 55.9029 95.5275 58.3983C95.4222 60.8937 96.2699 63.6628 98.3707 64.3682C95.8723 65.3874 93.3224 66.2745 90.7309 67.0268C87.7035 67.8006 86.7242 66.8162 85.3184 65.5316C83.9126 64.2471 73.6929 50.1594 73.6929 50.1594L71.4868 32.992Z" fill="#EA67A8"/>
<path opacity="0.15" d="M91.884 55.2133C90.1149 55.6081 87.2138 57.5823 86.8137 59.3669C86.8137 59.3669 86.8874 56.2504 91.3417 54.2657L91.884 55.2133Z" fill="black"/>
<path d="M105.905 51.2651C108.457 50.0033 111.338 49.5637 114.15 50.0069C116.514 50.5333 116.725 51.9021 114.619 53.097C112.066 54.3552 109.186 54.7932 106.374 54.3499C103.925 53.8498 103.715 52.4706 105.905 51.2651Z" fill="#263238"/>
<path d="M103.631 48.7382L115.509 46.9431L116.741 61.0726C116.741 61.599 116.362 62.1676 115.514 62.6941C113.339 63.8759 110.819 64.2597 108.39 63.7785C107.39 63.5311 106.811 63.1047 106.684 62.6046L103.631 48.7382Z" fill="#F0F0F0"/>
<path d="M115.509 46.9431L115.762 49.8122C115.483 50.0722 115.178 50.3016 114.851 50.4966C112.444 51.9496 108.206 52.6023 105.373 51.9338C105.252 51.9338 105.147 51.8706 105.036 51.839C104.76 51.755 104.489 51.653 104.226 51.5337L103.615 48.7382L115.509 46.9431Z" fill="#E0E0E0"/>
<path d="M102.941 49.2647L102.62 47.1273L103.999 46.9167C104.173 46.7904 104.357 46.6693 104.568 46.5429C107.063 45.0742 111.297 44.4372 114.045 45.1057C114.256 45.1572 114.463 45.2205 114.666 45.2953L116.014 45.09L116.335 47.2326C116.446 47.9275 115.909 48.7224 114.703 49.4489C112.297 50.9019 108.064 51.5547 105.226 50.8914C103.82 50.5597 103.046 49.9648 102.941 49.2647Z" fill="#37474F"/>
<path d="M104.315 44.9003C106.811 43.4316 111.049 42.7946 113.792 43.4579C116.535 44.1212 116.783 45.8532 114.377 47.3115C111.97 48.7697 107.737 49.4173 104.899 48.7487C102.061 48.0801 101.819 46.3639 104.315 44.9003Z" fill="#455A64"/>
<path d="M103.767 46.427L103.931 44.6003L107.327 44.0738C108.428 43.7598 109.563 43.583 110.707 43.5474L114.003 43.0209L114.703 44.7214C115.014 45.332 114.608 46.0796 113.445 46.7587C111.047 47.999 108.311 48.4311 105.647 47.9906C104.273 47.6905 103.646 47.1009 103.767 46.427Z" fill="#37474F"/>
<path d="M105.231 43.2473C107.453 42.161 109.953 41.7808 112.397 42.1576C114.45 42.5892 114.629 43.7737 112.797 44.7898C110.577 45.8749 108.079 46.2552 105.637 45.8795C103.541 45.4689 103.33 44.2844 105.231 43.2473Z" fill="#455A64"/>
<path d="M104.62 44.6951C104.687 44.7899 104.778 44.8647 104.884 44.9109C105.165 45.0511 105.464 45.1504 105.773 45.2057C106.913 45.3932 108.077 45.3932 109.217 45.2057C110.345 45.0535 111.44 44.7117 112.455 44.195C112.726 44.0601 112.973 43.8824 113.187 43.6685C113.27 43.5915 113.33 43.4932 113.361 43.3842C113.361 43.3316 113.129 43.0526 112.25 42.8578C111.128 42.6671 109.981 42.6671 108.859 42.8578C107.713 43.0137 106.601 43.3588 105.568 43.8791C104.778 44.295 104.594 44.6319 104.62 44.6951Z" fill="#263238"/>
<path d="M104.884 44.9108C105.165 45.051 105.464 45.1503 105.773 45.2056C106.913 45.3931 108.077 45.3931 109.217 45.2056C110.345 45.0533 111.44 44.7116 112.455 44.1948C112.726 44.06 112.973 43.8822 113.187 43.6684C112.918 43.5246 112.628 43.4235 112.329 43.3683C111.207 43.1776 110.06 43.1776 108.938 43.3683C107.792 43.5242 106.68 43.8693 105.647 44.3896C105.368 44.524 105.111 44.6997 104.884 44.9108Z" fill="#37474F"/>
<g opacity="0.5">
<path opacity="0.5" d="M106.905 44.653C106.779 44.5909 106.641 44.5561 106.501 44.5506C106.36 44.5452 106.22 44.5693 106.089 44.6214C105.952 44.7267 106.089 44.9109 106.421 45.032C106.549 45.0942 106.687 45.1291 106.829 45.1345C106.97 45.14 107.111 45.1158 107.242 45.0636C107.374 44.9583 107.227 44.774 106.905 44.653Z" fill="black"/>
</g>
<path d="M116.504 56.482C116.588 57.0085 116.141 57.6139 115.145 58.1772C112.741 59.3643 110.028 59.776 107.379 59.357C106.226 59.1253 105.605 58.6831 105.521 58.1567L104.399 53.0712C104.489 53.6292 105.152 54.1241 106.374 54.3505C109.179 54.7885 112.051 54.351 114.598 53.0975C115.651 52.4971 116.125 51.8548 116.041 51.2968L116.504 56.482Z" fill="#455A64"/>
<path d="M112.929 57.3354C113.057 57.0279 113.166 56.7136 113.255 56.393C113.467 55.8081 113.88 55.318 114.419 55.0085C114.455 54.9869 114.497 54.979 114.537 54.9869C114.578 54.9948 114.615 55.0174 114.64 55.0506C114.803 55.3822 114.873 55.7518 114.842 56.1203C114.81 56.4883 114.679 56.8416 114.463 57.1411C114.247 57.4406 113.953 57.676 113.613 57.8213C113.273 57.9666 112.9 58.0171 112.534 57.9671C112.525 57.9629 112.518 57.9571 112.512 57.9502C112.505 57.9434 112.501 57.935 112.498 57.9266C112.494 57.9176 112.493 57.9081 112.494 57.8987C112.495 57.8892 112.498 57.8802 112.502 57.8723C112.679 57.7234 112.824 57.5407 112.929 57.3354Z" fill="#EA67A8"/>
<path d="M114.071 54.8922C113.781 55.0643 113.523 55.2854 113.308 55.545C113.081 55.8177 112.914 56.1351 112.818 56.4768C112.717 56.9037 112.504 57.2959 112.202 57.6139C112.171 57.6455 112.128 57.6629 112.084 57.6629C112.04 57.6629 111.997 57.6455 111.965 57.6139C111.726 57.2875 111.605 56.89 111.62 56.4857C111.635 56.0819 111.787 55.6945 112.05 55.387C112.256 55.0543 112.563 54.7958 112.927 54.65C113.291 54.5042 113.692 54.4784 114.071 54.5763C114.106 54.5858 114.137 54.6058 114.159 54.6347C114.181 54.6632 114.194 54.6984 114.194 54.7342C114.194 54.7706 114.181 54.8058 114.159 54.8343C114.137 54.8627 114.106 54.8832 114.071 54.8922Z" fill="#EA67A8"/>
<path d="M115.682 48.9222L115.851 50.8385C115.851 50.8385 115.888 51.2965 114.156 52.3862C113.68 52.6773 113.337 53.1417 113.197 53.6813C113.129 53.9188 113.108 54.1673 113.134 54.4131C113.208 54.7342 113.492 54.9396 113.45 55.2975C113.38 55.5434 113.278 55.7792 113.145 55.9977C113.039 56.2641 113.02 56.5568 113.092 56.8342C113.164 57.1117 113.323 57.3591 113.545 57.5402C113.671 57.6402 113.829 57.7297 113.866 57.8824C113.903 58.0351 113.776 58.2298 113.682 58.3825C113.376 58.8721 113.387 59.6565 114.019 59.8671C114.332 59.9434 114.658 59.9434 114.972 59.8671C114.931 60.0098 114.934 60.1619 114.981 60.3025C115.028 60.4435 115.116 60.5667 115.235 60.6568C115.898 61.1253 116.814 60.4041 117.283 59.9829C117.906 59.3543 118.369 58.5852 118.631 57.7402C118.931 56.9295 119.326 56.2083 119.157 55.3028C119.011 54.8279 118.928 54.3357 118.91 53.8393C118.982 53.4824 119.015 53.1186 119.01 52.7548C118.926 52.2283 118.447 51.8282 118.252 51.3228C118.152 50.9798 118.09 50.6266 118.068 50.2699C117.873 49.0696 116.704 48.9012 115.682 48.9222Z" fill="#FFBDA7"/>
<path d="M84.3338 48.6592C83.702 57.0822 81.4063 56.8295 85.3183 65.5053C89.2304 74.1811 92.4579 78.3453 93.2582 83.8467C93.9237 88.7174 93.5651 93.6739 92.2052 98.3977C90.7099 87.2633 87.4402 77.9294 83.0912 71.1225C78.7422 64.3155 79.2582 50.5491 84.3338 48.6592Z" fill="#EA67A8"/>
<path opacity="0.15" d="M84.3338 48.6592C83.702 57.0822 81.4063 56.8295 85.3183 65.5053C89.2304 74.1811 92.4579 78.3453 93.2582 83.8467C93.9237 88.7174 93.5651 93.6739 92.2052 98.3977C90.7099 87.2633 87.4402 77.9294 83.0912 71.1225C78.7422 64.3155 79.2582 50.5491 84.3338 48.6592Z" fill="black"/>
<path d="M52.8956 34.5134L59.7403 33.2552L71.292 32.9499C72.9505 32.8762 79.0792 37.6879 83.2965 43.5841C85.6448 46.8481 86.4556 51.6387 81.717 56.8242C81.3221 61.7254 83.1386 64.6103 81.6801 66.2213L82.2593 80.3511C78.8264 89.0164 55.9968 89.1269 45.7245 81.7093C46.7354 76.0079 51.8741 69.6905 52.2901 64.6103C50.5684 62.6467 51.5688 62.4256 50.3209 56.0451C49.3258 50.9596 47.125 41.831 47.3619 40.3306C47.8779 36.993 52.8956 34.5134 52.8956 34.5134Z" fill="#FAFAFA"/>
<path d="M68.0171 24.7743C68.5436 23.7477 68.9754 22.5843 69.7967 21.7525C70.6181 20.9207 71.7027 20.489 72.6504 19.8625L75.699 17.8515C79.3846 15.7141 79.0318 10.8287 78.0367 8.3123C75.8148 2.68984 69.6125 0.757781 65.7794 0.678814C58.5504 0.52088 55.0859 2.50032 54.4646 6.26442C51.7373 6.26442 50.5052 8.03328 49.8998 8.89665C48.1412 11.3288 47.5936 15.5299 48.3571 18.4464C49.4364 22.5474 52.3375 24.7637 54.0118 26.1536C55.4176 27.3328 56.8024 27.9487 57.6553 29.944C57.6553 29.9177 66.9641 26.8695 68.0171 24.7743Z" fill="#37474F"/>
<path d="M55.6809 24.9427C54.3804 25.1796 53.3484 24.5268 52.5692 23.6582C50.8264 21.7208 50.679 19.7572 51.5161 18.4569C52.1954 17.404 53.8539 16.7143 55.0069 17.4461C56.239 18.2305 56.2758 18.8675 56.7392 19.7467C57.2025 20.6258 59.0137 20.5574 59.4665 17.0249C59.8877 13.7241 60.409 10.7076 62.0306 9.223C64.4579 7.01719 67.1378 7.39623 68.0961 8.69655C69.0859 7.1646 70.5918 6.55392 72.2345 7.44361C73.8772 8.33331 75.1145 10.8023 75.6463 17.067C76.1728 23.4528 74.825 27.9697 73.356 29.0332C72.245 29.8386 70.8287 30.0071 68.4331 30.0861L68.6647 33.8133C68.6647 33.8133 72.8768 42.3628 72.8189 47.8326C72.8189 47.8326 70.7129 44.4317 64.5948 39.4094L57.9344 34.0449L57.2552 23.9582C57.0893 24.2352 56.8603 24.469 56.5865 24.6401C56.3132 24.8113 56.0026 24.915 55.6809 24.9427Z" fill="#FFBDA7"/>
<path d="M65.8742 17.2829C65.7478 17.5104 65.5467 17.6871 65.305 17.783C65.0628 17.879 64.7954 17.8883 64.5474 17.8094C64.4289 17.7936 64.3152 17.7525 64.2141 17.6888C64.113 17.6252 64.0272 17.5406 63.9619 17.4407C63.8961 17.3408 63.8529 17.228 63.835 17.1099C63.8171 16.9919 63.825 16.8713 63.8577 16.7565C63.9798 16.5243 64.1794 16.342 64.4215 16.2411C64.6637 16.1402 64.9333 16.127 65.1845 16.2037C65.3056 16.2197 65.4214 16.2619 65.5246 16.3274C65.6273 16.3929 65.7147 16.48 65.7805 16.5829C65.8463 16.6857 65.8884 16.8016 65.9047 16.9225C65.9211 17.0435 65.9105 17.1665 65.8742 17.2829Z" fill="#263238"/>
<path d="M64.8053 16.1774C64.1419 16.1774 63.7523 17.0776 63.1152 16.7038C63.161 16.8251 63.2316 16.9356 63.3222 17.0286C63.4122 17.1216 63.5207 17.195 63.6407 17.2443C63.7607 17.2937 63.8897 17.3179 64.0193 17.3155C64.1488 17.3131 64.2767 17.2841 64.3947 17.2303C64.6948 17.0987 64.8053 16.1774 64.8053 16.1774Z" fill="#263238"/>
<path d="M74.0931 14.6403L71.8554 13.4821C71.9234 13.3327 72.0213 13.1986 72.1424 13.0883C72.264 12.978 72.4067 12.8936 72.562 12.8403C72.7173 12.7871 72.8821 12.7662 73.0454 12.7788C73.2091 12.7913 73.3686 12.8372 73.5139 12.9135C73.8125 13.0731 74.0389 13.3408 74.1468 13.6618C74.2542 13.9829 74.2353 14.3329 74.0931 14.6403Z" fill="#263238"/>
<path d="M71.4237 16.988C71.55 17.2208 71.7548 17.4013 72.0012 17.4977C72.2482 17.5941 72.5209 17.6 72.7715 17.5145C72.8905 17.4931 73.0037 17.4461 73.1032 17.3767C73.2028 17.3073 73.2854 17.2172 73.3465 17.1126C73.4076 17.008 73.4455 16.8913 73.4571 16.7708C73.4686 16.6502 73.4539 16.5285 73.4139 16.4142C73.2902 16.1803 73.0864 15.9986 72.84 15.902C72.5941 15.8054 72.3208 15.8004 72.0713 15.8877C71.9517 15.9085 71.838 15.955 71.738 16.0241C71.6379 16.0932 71.5542 16.1833 71.4926 16.2879C71.431 16.3927 71.3931 16.5095 71.381 16.6304C71.3689 16.7513 71.3836 16.8733 71.4237 16.988Z" fill="#263238"/>
<path d="M72.4767 15.8352C73.1401 15.8352 73.5718 16.6933 74.1879 16.309C74.1473 16.4327 74.082 16.5469 73.9957 16.6443C73.9093 16.7417 73.804 16.8202 73.6861 16.875C73.5676 16.9299 73.4397 16.9598 73.3096 16.963C73.1796 16.9661 73.0501 16.9424 72.9295 16.8934C72.5978 16.7512 72.4767 15.8352 72.4767 15.8352Z" fill="#263238"/>
<path d="M65.2687 13.6346L62.7677 14.6401C62.6935 14.4808 62.6529 14.308 62.6482 14.1325C62.6435 13.9569 62.6745 13.7821 62.7393 13.619C62.8046 13.4558 62.902 13.3077 63.0268 13.1836C63.151 13.0596 63.2995 12.9622 63.4627 12.8975C63.8007 12.7656 64.1767 12.7685 64.5126 12.9057C64.849 13.0428 65.1197 13.3037 65.2687 13.6346Z" fill="#263238"/>
<path d="M64.1156 9.58105C63.735 10.3386 63.5265 11.1709 63.5049 12.0185C63.4364 12.8819 63.4206 14.8982 62.8836 16.1195C62.6925 16.6157 62.3781 17.0549 61.9701 17.3957C61.5615 17.7365 61.0734 17.9677 60.5511 18.0674C59.8745 18.1913 59.178 18.1443 58.524 17.9305C58.1239 17.762 57.3078 17.5146 57.0814 15.8563C57.3194 16.09 57.6047 16.2696 57.9185 16.3827C58.1565 16.4728 58.4072 16.5243 58.6609 16.5354C59.0416 16.5234 59.4128 16.4146 59.7398 16.2193C60.0673 16.0241 60.3389 15.7487 60.5301 15.4193C61.2461 14.277 61.1461 12.7871 61.3356 11.4921C61.5726 9.86007 61.7937 8.01224 63.2311 7.15414C63.9013 6.74809 64.7027 6.61721 65.4672 6.78894C66.2322 6.96067 66.9004 7.42173 67.3326 8.07542C65.632 7.42789 64.579 8.77559 64.1156 9.58105Z" fill="#37474F"/>
<path d="M65.0371 22.8633L68.5436 23.8689C68.4726 24.1132 68.3515 24.3402 68.1877 24.5352C68.0245 24.7302 67.8218 24.8889 67.5933 25.0014C67.3653 25.1138 67.1157 25.1774 66.8614 25.1882C66.6071 25.199 66.3533 25.1566 66.1164 25.0639C65.8995 24.9928 65.6984 24.8789 65.5262 24.7291C65.354 24.5792 65.2129 24.3964 65.1124 24.1912C65.0118 23.9861 64.9533 23.763 64.9407 23.5349C64.9275 23.3068 64.9602 23.0785 65.0371 22.8633Z" fill="#B16668"/>
<path d="M67.122 25.1375C67.0557 24.6665 66.8161 24.2372 66.4497 23.9334C66.0838 23.6297 65.6178 23.4733 65.1423 23.495C65.0844 23.495 65.0265 23.495 64.9686 23.495C64.9686 23.8421 65.0797 24.1799 65.2866 24.4586C65.4935 24.7374 65.7842 24.9422 66.1164 25.0428C66.4392 25.1542 66.784 25.1868 67.122 25.1375Z" fill="#F0997A"/>
<path d="M68.0013 15.3298L68.6805 21.5998L72.0924 20.31L68.0013 15.3298Z" fill="#F0997A"/>
<path d="M68.4173 30.1176C66.0943 30.0377 63.7971 29.5972 61.6095 28.812C60.8197 28.4961 59.7245 27.0905 58.8242 25.5112C58.8242 25.5112 59.5034 28.6383 61.2304 29.6859C63.8629 31.2652 68.5068 31.5548 68.5068 31.5548L68.4173 30.1176Z" fill="#F0997A"/>
<path d="M57.2815 33.7027C57.4542 36.7746 58.304 39.7704 59.7703 42.4754C61.2366 45.1803 63.2832 47.5275 65.7636 49.3487C68.2382 51.1649 70.8655 52.1546 73.0453 52.1546C73.7019 52.1623 74.3553 52.0591 74.9776 51.8493C75.5836 51.6476 76.1286 51.2954 76.5614 50.8259C76.9942 50.3564 77.3006 49.7847 77.4522 49.1644C78.4052 45.553 75.0829 38.9671 71.3131 34.6819C70.756 34.035 70.111 33.4697 69.3966 33.0025H68.6068C68.6 33.0618 68.6126 33.1216 68.6416 33.1736C68.671 33.2256 68.7158 33.267 68.77 33.292C69.5703 33.7336 70.2843 34.3169 70.8761 35.0135C70.8819 35.0277 70.8908 35.0404 70.9024 35.0504L71.1867 35.382C72.2398 36.6718 73.0822 38.288 72.9137 39.6463C72.7663 40.8571 71.7922 41.6573 70.0179 42.0205C66.8588 42.6681 64.0788 41.1624 62.3097 39.7831C59.7456 37.7879 58.0607 35.0451 57.8817 33.5816L57.2815 33.7027ZM61.9464 40.2569C63.8102 41.7099 66.7429 43.2945 70.1284 42.6049C72.6768 42.0784 73.3612 40.7571 73.4823 39.7305C73.5339 39.267 73.5018 38.7981 73.3876 38.3459C75.8727 42.0942 77.5997 46.4058 76.9047 49.017C76.7767 49.5453 76.5161 50.0323 76.1475 50.432C75.779 50.8318 75.3146 51.1311 74.7986 51.3018C72.5925 52.0809 69.1912 51.128 66.1216 48.8801C61.8485 45.7242 58.9647 41.0351 58.0765 35.7979C59.0585 37.5259 60.3737 39.0416 61.9464 40.2569Z" fill="#EA67A8"/>
<path d="M68.6015 33.0185C73.6718 35.6244 79.0212 38.5725 82.7226 42.8262C79.3582 37.9145 73.8456 33.0132 71.8764 32.9501C70.7844 32.9043 69.6909 32.9272 68.6015 33.0185Z" fill="#EA67A8"/>
<path opacity="0.15" d="M68.6015 33.0185C73.6718 35.6244 79.0212 38.5725 82.7226 42.8262C79.3582 37.9145 73.8456 33.0132 71.8764 32.9501C70.7844 32.9043 69.6909 32.9272 68.6015 33.0185Z" fill="black"/>
<path d="M80.6008 152.585C81.2379 164.34 81.817 171.079 82.3014 174.696C82.7121 177.754 83.2176 180.623 84.1232 182.708C85.0362 184.754 86.2719 186.64 87.7825 188.294C87.7825 188.294 91.3522 191.679 90.6309 192.089C89.9096 192.5 82.9122 193.669 79.711 192.9C76.5098 192.131 76.0254 189.483 74.6512 184.672C73.277 179.86 71.7554 172.979 71.7554 172.979C71.9033 172.639 72.0233 172.286 72.1134 171.926C72.3345 171.126 69.8546 162.977 68.77 159.687L80.6008 152.585Z" fill="#FFBDA7"/>
<path d="M69.9178 179.102C70.1127 180.244 71.0762 181.545 71.4974 183.313C71.9802 185.341 72.2624 187.411 72.3398 189.494L72.4662 192.405L73.256 192.374C73.256 192.374 73.098 188.688 73.0296 187.078C72.9611 185.467 73.2559 184.229 74.0194 184.024C74.0141 184.04 73.7403 178.939 69.9178 179.102Z" fill="#EA67A8"/>
<path opacity="0.3" d="M69.9178 179.102C70.1127 180.244 71.0762 181.545 71.4974 183.313C71.9802 185.341 72.2624 187.411 72.3398 189.494L72.4662 192.405L73.256 192.374C73.256 192.374 73.098 188.688 73.0296 187.078C72.9611 185.467 73.2559 184.229 74.0194 184.024C74.0141 184.04 73.7403 178.939 69.9178 179.102Z" fill="black"/>
<path d="M72.0344 172.105C71.6027 173.479 70.3812 174.896 69.8599 176.975C69.654 177.853 69.7257 178.772 70.0653 179.607C70.7234 180.228 71.1446 180.439 71.6448 180.865C72.5104 181.496 73.2096 182.327 73.6824 183.287C74.5796 185.315 75.3346 187.403 75.9412 189.536C76.5677 191.642 76.8362 192.905 78.7264 193.858C80.2007 194.595 84.6445 195.269 87.614 195.28C91.6734 195.28 93.2424 193.121 91.6418 191.658C90.0412 190.194 88.2774 188.578 87.793 188.273C86.5083 188.193 85.2247 188.45 84.0706 189.02C81.8645 190.126 81.2221 191.484 78.7738 190.441C76.5572 189.494 74.9724 185.467 74.8144 179.728C74.6301 173.221 72.0344 172.105 72.0344 172.105Z" fill="#EA67A8"/>
<path d="M58.9821 140.956C58.9821 140.956 45.2296 155.017 43.1867 158.486C41.6703 161.066 40.4909 162.972 39.9118 165.104C39.3326 167.236 39.3853 170.679 39.5116 172.427C39.5116 172.427 40.1645 177.165 39.3642 177.028C38.5639 176.891 32.5722 173.537 30.603 171.016C28.6338 168.494 29.8764 166.188 31.7613 161.719C33.6462 157.249 36.9212 151.079 36.9212 151.079C37.1822 150.955 37.4249 150.795 37.6425 150.605C38.764 149.726 45.0927 137.281 47.2409 132.833L58.9821 140.956Z" fill="#F0997A"/>
<path d="M31.5559 154.643C31.0294 155.628 30.9504 157.202 30.1817 158.802C29.319 160.633 28.2767 162.374 27.07 163.998L25.401 166.272L26.017 166.73L29.0602 162.582C29.9869 161.313 30.9557 160.566 31.6612 160.871C31.6612 160.871 34.5676 156.838 31.5559 154.643Z" fill="#EA67A8"/>
<path opacity="0.3" d="M31.5559 154.643C31.0294 155.628 30.9504 157.202 30.1817 158.802C29.319 160.633 28.2767 162.374 27.07 163.998L25.401 166.272L26.017 166.73L29.0602 162.582C29.9869 161.313 30.9557 160.566 31.6612 160.871C31.6612 160.871 34.5676 156.838 31.5559 154.643Z" fill="black"/>
<path d="M37.4003 150.632C36.242 151.411 34.4571 151.742 32.7986 153.001C32.1133 153.537 31.6112 154.273 31.3612 155.106C31.477 155.975 31.6718 156.386 31.7824 157.007C32.0573 158.009 32.0826 159.062 31.8561 160.076C31.3066 162.157 30.6134 164.198 29.7816 166.183C28.9813 168.152 28.4127 169.284 29.2551 171.147C29.9238 172.6 32.8828 175.801 35.1257 177.612C38.1848 180.086 40.6963 179.391 40.3646 177.312C40.0329 175.232 39.6222 171.837 39.4379 171.31C39.4379 171.31 38.7587 170.315 36.2314 170.721C33.8674 171.105 33.5989 172.737 32.3668 170.463C31.2611 168.404 31.4981 162.514 34.8572 158.076C38.6903 153.048 37.4003 150.632 37.4003 150.632Z" fill="#EA67A8"/>
<path opacity="0.15" d="M37.4003 150.632C36.242 151.411 34.4571 151.742 32.7986 153.001C32.1133 153.537 31.6112 154.273 31.3612 155.106C31.477 155.975 31.6718 156.386 31.7824 157.007C32.0573 158.009 32.0826 159.062 31.8561 160.076C31.3066 162.157 30.6134 164.198 29.7816 166.183C28.9813 168.152 28.4127 169.284 29.2551 171.147C29.9238 172.6 32.8828 175.801 35.1257 177.612C38.1848 180.086 40.6963 179.391 40.3646 177.312C40.0329 175.232 39.6222 171.837 39.4379 171.31C39.4379 171.31 38.7587 170.315 36.2314 170.721C33.8674 171.105 33.5989 172.737 32.3668 170.463C31.2611 168.404 31.4981 162.514 34.8572 158.076C38.6903 153.048 37.4003 150.632 37.4003 150.632Z" fill="black"/>
<path d="M55.7335 93.0068L63.2574 79.2508C63.2574 79.2508 77.568 71.6858 81.659 66.2213C81.659 66.2213 82.8964 79.9089 82.0539 90.801C80.8798 105.963 78.5368 119.613 75.2356 124.709C71.9343 129.805 49.1573 151.479 49.1573 151.479C47.0881 151.453 41.5386 147.931 41.2596 144.356C41.2596 144.356 46.6879 133.601 48.7677 129.174C51.4845 123.383 53.3694 120.803 59.1979 115.486C57.9396 110.064 55.7335 93.0068 55.7335 93.0068Z" fill="#37474F"/>
<path d="M52.5692 108.037C49.5839 100.667 47.304 96.6604 46.1615 91.4696C44.5188 84.0994 45.2928 79.4351 46.1615 77.0029C48.5729 70.117 51.8689 67.0846 52.2849 64.6104C52.2849 64.6104 55.8389 68.7851 66.5008 69.222C78.6791 69.7485 81.696 66.2213 81.696 66.2213C81.5012 70.7013 81.2853 75.3709 80.0585 79.1613C77.5892 86.7737 72.6873 88.8427 72.6873 88.8427L77.0416 109.574C78.8423 120.472 79.3846 118.613 80.3902 140.145C80.8325 149.621 81.5275 164.593 81.5275 164.593C80.1059 165.577 73.1928 166.915 70.5707 165.946C70.5707 165.946 67.5907 156.338 65.7742 149.947C61.5199 135.017 62.2202 137.913 62.136 129.153C62.0833 129.153 55.9915 116.46 52.5692 108.037Z" fill="#455A64"/>
<path d="M57.9028 33.5871C58.4556 36.7774 62.0728 42.7104 63.2469 51.3073C64.421 59.9039 60.9565 98.8767 59.4402 104.873C55.2755 96.2129 49.826 94.6494 43.4605 91.7487C36.0366 88.3689 33.5673 83.6782 32.4037 76.8924C32.4037 76.8924 48.0253 67.6058 48.0253 62.6362C48.0253 59.5723 46.9723 48.5066 48.4097 41.3048C49.0273 38.5508 50.6516 36.1268 52.9641 34.5084L57.9028 33.5871Z" fill="#EA67A8"/>
<path opacity="0.15" d="M57.9028 33.5871C58.4556 36.7774 62.0728 42.7104 63.2469 51.3073C64.421 59.9039 60.9565 98.8767 59.4402 104.873C55.2755 96.2129 49.826 94.6494 43.4605 91.7487C36.0366 88.3689 33.5673 83.6782 32.4037 76.8924C32.4037 76.8924 48.0253 67.6058 48.0253 62.6362C48.0253 59.5723 46.9723 48.5066 48.4097 41.3048C49.0273 38.5508 50.6516 36.1268 52.9641 34.5084L57.9028 33.5871Z" fill="black"/>
<g opacity="0.5">
<path opacity="0.5" d="M23.5476 93.5123L22.6368 96.2077L23.7898 96.1656L23.5476 93.5123Z" fill="white"/>
</g>
<g opacity="0.3">
<path opacity="0.3" d="M23.7899 96.1655L23.1264 98.424L20.1622 96.2919L23.7899 96.1655Z" fill="white"/>
</g>
<path d="M0.586357 122.051L11.2377 95.8918C11.3876 95.6149 11.5924 95.3711 11.8395 95.1758C12.0866 94.98 12.3709 94.8368 12.6751 94.7546L13.6018 94.5177C13.7192 94.474 13.8448 94.4572 13.9696 94.4683C14.0944 94.4788 14.2151 94.5177 14.3231 94.5809L42.4653 114.449L28.776 142.424L0.665331 122.567C0.528437 122.488 0.491584 122.288 0.586357 122.051Z" fill="#37474F"/>
<path d="M34.1043 141.251L29.4341 142.462C28.8286 142.62 28.4917 142.366 28.6812 141.898L39.3326 115.739C39.4825 115.462 39.6872 115.218 39.9343 115.023C40.1815 114.827 40.4658 114.684 40.77 114.602L41.6967 114.365C42.3021 114.207 42.6918 114.465 42.5654 114.949L35.4311 140.098C35.3158 140.381 35.1356 140.632 34.9051 140.832C34.6747 141.032 34.4004 141.176 34.1043 141.251Z" fill="#263238"/>
<path d="M21.5048 134.802C21.5942 134.819 21.6869 134.808 21.7694 134.769C21.8518 134.73 21.9196 134.666 21.9629 134.586L27.1438 122.188C27.207 122.03 27.0964 121.872 26.8963 121.83C26.8044 121.807 26.7074 121.815 26.6206 121.853C26.5339 121.891 26.4623 121.957 26.4172 122.041L21.2363 134.444C21.1731 134.597 21.2837 134.76 21.4837 134.797L21.5048 134.802Z" fill="#263238"/>
<path d="M8.68419 125.92C8.77353 125.937 8.86562 125.924 8.94771 125.886C9.02979 125.847 9.09776 125.784 9.14225 125.704L14.3232 113.301C14.3863 113.149 14.2758 112.985 14.0757 112.949C13.9838 112.927 13.8871 112.935 13.8006 112.973C13.714 113.011 13.6424 113.077 13.5966 113.159L8.41566 125.557C8.35248 125.715 8.46305 125.873 8.66312 125.915L8.68419 125.92Z" fill="#263238"/>
<path d="M31.5191 127.663C32.5721 128.421 34.3991 127.995 34.8519 126.873L39.3273 115.734C39.4792 115.457 39.686 115.214 39.935 115.021C40.184 114.827 40.4699 114.686 40.7752 114.607L41.6914 114.365C41.9136 114.289 42.1563 114.3 42.3706 114.396L14.3231 94.5862C14.216 94.5209 14.0954 94.4809 13.9704 94.4688C13.8454 94.4572 13.7193 94.4736 13.6018 94.5178L12.6751 94.7547C12.3708 94.8384 12.0863 94.9816 11.8386 95.1769C11.5907 95.3722 11.3846 95.6154 11.2325 95.8918L6.79923 106.947C6.16741 108.527 6.72026 110.174 8.22609 111.238L31.5191 127.663Z" fill="#455A64"/>
<path d="M21.6786 119.561L18.3457 117.202L17.6297 118.866L20.973 121.23L21.6786 119.561Z" fill="#EA67A8"/>
<path d="M23.911 101.351C25.3062 98.9978 27.4386 95.2285 28.2916 95.2916L27.9441 94.1019C27.9441 94.1019 27.1069 93.8755 25.6748 95.9076C24.4954 97.5712 22.7158 100.509 22.7158 100.509L23.911 101.351Z" fill="#37474F"/>
<path d="M34.3728 100.377C35.7154 100.377 37.2054 99.0347 37.495 98.5293C37.7846 98.0239 37.8952 96.076 37.495 95.439C37.0949 94.802 35.3153 92.154 34.5676 92.233C33.82 92.312 32.4036 95.9497 32.7827 97.4975C33.1012 98.5598 33.6433 99.5416 34.3728 100.377Z" fill="#F0997A"/>
<path d="M52.9377 34.7032C49.0415 35.5297 45.7824 35.6613 43.3078 41.1048C40.7594 46.722 36.5631 55.5397 34.3991 61.4253C32.2351 67.311 28.8286 79.851 27.7966 83.7203C27.316 85.2723 26.943 86.8553 26.6804 88.4584C26.4694 90.2914 26.3885 92.1366 26.4382 93.9808C26.4154 94.4082 26.4997 94.8341 26.6836 95.2206C26.8675 95.6064 27.1452 95.9407 27.4913 96.1918C27.696 96.2956 27.89 96.4187 28.0704 96.5604C28.3916 96.8604 28.4653 97.34 28.7075 97.7033C29.0066 98.1144 29.4508 98.3966 29.9501 98.4929C30.1712 98.5509 30.3976 98.5819 30.6082 98.6556C31.3927 98.9452 31.8403 99.7827 32.5616 100.204C33.0798 100.569 33.7201 100.718 34.3465 100.619C34.6761 100.532 34.9969 100.413 35.3047 100.267C35.4732 100.188 35.9523 99.877 36.105 99.7875C34.9836 99.6559 34.3781 98.5924 34.1411 97.6817C33.8738 96.5946 33.8343 95.4632 34.0253 94.3598C34.0578 94.0982 34.1477 93.8465 34.2886 93.6233C34.3216 93.567 34.3695 93.5207 34.4272 93.4901C34.4848 93.4591 34.5499 93.4454 34.615 93.4491C34.7572 93.4754 34.8256 93.6338 34.8677 93.7707C35.1249 94.7194 35.557 95.6122 36.1419 96.403C36.3793 96.7372 36.7284 96.9762 37.1265 97.0763C37.3244 97.1205 37.5317 97.0873 37.7059 96.9836C37.8801 96.8799 38.0081 96.7136 38.0637 96.5188C38.0807 96.3572 38.0628 96.1934 38.011 96.0392C37.718 94.7736 37.5418 93.4838 37.4845 92.1856C37.4729 90.9816 37.3065 89.7839 36.9896 88.6215C36.6105 87.4055 35.4995 85.6419 35.9365 84.41C36.6315 82.3358 43.9922 66.5582 43.9922 66.5582C43.9922 66.5582 51.7373 53.018 53.6696 49.4121C56.0283 44.9478 55.8072 38.183 52.9377 34.7032Z" fill="#FFBDA7"/>
<path d="M35.8313 95.9449C35.7029 96.4019 35.6496 96.8762 35.6733 97.3506C35.9542 97.359 36.2259 97.4527 36.4525 97.619C36.1766 97.4901 35.8671 97.4511 35.568 97.5085L34.7203 98.1297L35.4522 97.3295C35.4522 97.3295 35.468 96.1661 35.8313 95.9449Z" fill="#B16668"/>
<path d="M52.9588 34.5084C50.1367 34.9927 45.7034 36.0877 44.2081 38.941C42.2653 42.6788 38.7271 50.5229 37.058 54.113C35.389 57.7034 31.6191 70.0907 31.6191 70.0907C31.6191 70.0907 32.5037 71.4436 35.7207 72.9598C38.9377 74.476 40.3172 74.4338 40.3172 74.4338L44.6872 65.8686C44.6872 65.8686 53.638 50.2596 54.5067 48.4223C55.3755 46.585 57.0445 38.0671 52.9588 34.5084Z" fill="#EA67A8"/>
<path d="M34.157 97.6712C34.5203 98.603 34.8362 100.035 33.7357 102.472C32.5353 105.105 31.6929 106.847 31.6929 106.847L33.0355 107.8C33.0355 107.8 34.7256 104.268 35.3785 102.572C36.0313 100.877 36.4315 98.503 35.4522 97.3079C35.2228 97.2727 34.9886 97.2864 34.7651 97.349C34.5417 97.4116 34.3343 97.5217 34.157 97.6712Z" fill="#37474F"/>
</svg>
