<svg width="41" height="60" viewBox="0 0 41 60" fill="none" xmlns="http://www.w3.org/2000/svg">
<path d="M24.47 42.9098H18.25C16.1888 42.919 14.1458 42.522 12.2381 41.7414C10.3303 40.9607 8.59504 39.8119 7.13146 38.3603C5.66787 36.9088 4.50465 35.1831 3.70826 33.2819C2.91186 31.3807 2.4979 29.3411 2.49004 27.2798V27.2798C2.46877 22.2928 4.42879 17.5015 7.9392 13.9592C11.4496 10.4169 16.223 8.41364 21.21 8.38982V8.38982C23.6802 8.37929 26.1283 8.85541 28.4144 9.79099C30.7006 10.7266 32.7801 12.1033 34.5342 13.8425C36.2883 15.5818 37.6826 17.6495 38.6376 19.9276C39.5926 22.2057 40.0896 24.6496 40.1 27.1198V27.1198C40.1132 29.1836 39.7191 31.2297 38.9402 33.141C38.1614 35.0522 37.0131 36.791 35.5612 38.2578C34.1093 39.7246 32.3823 40.8905 30.4791 41.6888C28.5759 42.487 26.5339 42.902 24.47 42.9098V42.9098Z" fill="#263238"/>
<path d="M16.34 3.99982C19.03 7.99982 16.18 10.6598 12.22 13.3498C8.26004 16.0398 4.71004 17.6798 2.02004 13.7298C-0.669959 9.77983 0.810041 5.35983 4.77004 2.72983C8.73004 0.0998279 13.66 0.0498245 16.34 3.99982Z" fill="#263238"/>
<path d="M6.66001 16.2397L2.66001 19.1797C2.45541 18.9275 2.30386 18.6367 2.21449 18.3245C2.12511 18.0123 2.09974 17.6853 2.1399 17.3631C2.18006 17.0408 2.28492 16.7301 2.44819 16.4494C2.61146 16.1687 2.82977 15.9239 3.09001 15.7297C3.63379 15.3316 4.31175 15.1621 4.97891 15.2574C5.64606 15.3527 6.24945 15.7053 6.66001 16.2397V16.2397Z" fill="#263238"/>
<path d="M32.84 16.7998C34.84 17.9598 37.31 22.9498 37.11 33.4298C36.94 42.3098 34.1101 44.5098 32.6301 45.1498C31.1501 45.7898 28.4001 45.4198 25.6901 44.9798L25.8501 50.3698C25.8501 50.3698 30.4101 54.1098 30.1901 56.5498C29.9701 58.9898 23.86 60.1198 20.34 57.7498C18.0461 56.1544 15.9217 54.3282 14 52.2998C13.9091 52.1981 13.8592 52.0662 13.86 51.9298V38.4898C13.86 38.4898 12.27 40.0498 9.56005 37.6898C7.32005 35.7498 6.56005 32.4598 8.28005 30.6898C8.72868 30.2669 9.27163 29.957 9.86389 29.7858C10.4562 29.6146 11.0807 29.587 11.6858 29.7053C12.2908 29.8236 12.859 30.0843 13.3432 30.4659C13.8274 30.8476 14.2137 31.3391 14.47 31.8998C14.47 31.8998 18.8 32.0398 24.54 28.8498C26.7739 27.6358 28.6898 25.9118 30.132 23.818C31.5742 21.7242 32.502 19.3197 32.84 16.7998Z" fill="#FFA8A7"/>
<path d="M27.1901 31.2396C27.1937 31.4593 27.1326 31.6752 27.0144 31.8604C26.8962 32.0457 26.7261 32.192 26.5253 32.2813C26.3245 32.3706 26.1019 32.3989 25.8852 32.3626C25.6685 32.3263 25.4672 32.227 25.3065 32.0772C25.1458 31.9274 25.0327 31.7336 24.9813 31.5199C24.9299 31.3063 24.9424 31.0823 25.0174 30.8757C25.0924 30.6692 25.2265 30.4893 25.403 30.3584C25.5795 30.2275 25.7906 30.1514 26.01 30.1396C26.3117 30.1314 26.6045 30.2422 26.8253 30.448C27.046 30.6538 27.177 30.9381 27.1901 31.2396Z" fill="#263238"/>
<path d="M27.5201 38.7598L30.12 39.5798C30.0729 39.7537 29.9913 39.9165 29.8803 40.0584C29.7692 40.2004 29.6308 40.3186 29.4733 40.4062C29.3158 40.4938 29.1424 40.549 28.9632 40.5685C28.784 40.588 28.6027 40.5715 28.43 40.5198C28.0819 40.3986 27.7935 40.1486 27.6242 39.8212C27.455 39.4937 27.4177 39.1139 27.5201 38.7598V38.7598Z" fill="#F28F8F"/>
<path d="M36.33 27.7699L34.06 26.2199C34.1535 26.066 34.2774 25.9328 34.4242 25.8286C34.571 25.7244 34.7375 25.6513 34.9136 25.6139C35.0897 25.5764 35.2716 25.5753 35.4481 25.6108C35.6246 25.6462 35.792 25.7174 35.94 25.8199C36.2413 26.034 36.4495 26.3551 36.522 26.7175C36.5945 27.0799 36.5258 27.4564 36.33 27.7699V27.7699Z" fill="#263238"/>
<path d="M35.82 30.4C35.8217 30.6193 35.7589 30.8342 35.6395 31.0182C35.52 31.2022 35.3493 31.347 35.1483 31.4348C34.9473 31.5225 34.7249 31.5494 34.5088 31.5119C34.2928 31.4745 34.0924 31.3744 33.9327 31.2241C33.7729 31.0739 33.6608 30.88 33.6102 30.6666C33.5597 30.4532 33.5729 30.2297 33.6482 30.0237C33.7235 29.8177 33.8577 29.6384 34.034 29.5079C34.2103 29.3775 34.421 29.3017 34.64 29.29C34.9434 29.2819 35.2376 29.394 35.4586 29.6019C35.6797 29.8098 35.8096 30.0967 35.82 30.4Z" fill="#263238"/>
<path d="M30.79 29.2197L30.76 36.4997L34.29 35.3897L30.79 29.2197Z" fill="#F28F8F"/>
<path d="M25.69 44.9999C22.83 44.6299 16.95 42.9999 16.03 40.6499C16.3923 41.8404 17.1156 42.8887 18.1 43.6499C19.86 45.1399 25.74 46.8299 25.74 46.8299L25.69 44.9999Z" fill="#F28F8F"/>
</svg>
