<svg width="500" height="500" viewBox="0 0 500 500" fill="none" xmlns="http://www.w3.org/2000/svg">
<path d="M250 481.9C370.63 481.9 468.42 425.439 468.42 355.79C468.42 286.141 370.63 229.68 250 229.68C129.37 229.68 31.5801 286.141 31.5801 355.79C31.5801 425.439 129.37 481.9 250 481.9Z" fill="#F5F5F5"/>
<path d="M109.89 386.75L56.6699 356.03L109.89 325.3L163.11 356.03L109.89 386.75Z" fill="#E0E0E0"/>
<path d="M156.45 394.26L116.92 371.45L156.45 348.63L195.97 371.45L156.45 394.26Z" fill="#E0E0E0"/>
<path d="M244.56 454.54C276.615 454.54 302.6 439.537 302.6 421.03C302.6 402.523 276.615 387.52 244.56 387.52C212.505 387.52 186.52 402.523 186.52 421.03C186.52 439.537 212.505 454.54 244.56 454.54Z" fill="#E0E0E0"/>
<path d="M406.6 401.21L181.12 271.42L211.39 253.95L436.86 383.74L406.6 401.21Z" fill="#E0E0E0"/>
<path d="M405.13 365.55L418.69 373.43C418.69 373.43 411.85 351.59 415.69 329.62C417.12 321.33 420.13 317.21 421.2 315C422.27 312.79 430.44 299.09 423.2 292.77C415.96 286.45 399.12 299.02 399.88 332.85C400.246 343.928 402.01 354.914 405.13 365.55Z" fill="#54A3FF"/>
<path opacity="0.3" d="M405.13 365.55L418.69 373.43C418.69 373.43 411.85 351.59 415.69 329.62C417.12 321.33 420.13 317.21 421.2 315C422.27 312.79 430.44 299.09 423.2 292.77C415.96 286.45 399.12 299.02 399.88 332.85C400.246 343.928 402.01 354.914 405.13 365.55Z" fill="black"/>
<path d="M411.43 369.71C411.329 369.708 411.231 369.675 411.149 369.616C411.067 369.558 411.004 369.475 410.97 369.38C410.92 369.24 405.8 355.03 406.07 332.22C406.34 309.41 418.38 297.09 418.5 297C418.593 296.909 418.718 296.858 418.848 296.859C418.979 296.86 419.103 296.912 419.195 297.005C419.286 297.098 419.337 297.223 419.336 297.354C419.335 297.484 419.283 297.609 419.19 297.7C419.07 297.81 407.32 309.77 407.06 332.26C406.8 354.75 411.85 368.94 411.9 369.07C411.922 369.131 411.932 369.196 411.929 369.261C411.926 369.326 411.91 369.389 411.882 369.448C411.854 369.506 411.814 369.559 411.766 369.602C411.718 369.646 411.661 369.679 411.6 369.7C411.545 369.718 411.486 369.722 411.43 369.71Z" fill="white"/>
<path d="M409 367.59L431.4 380.77C431.4 380.77 441.65 379.25 440.87 369.6C440.09 359.95 435.93 357.67 441.12 353.43C446.31 349.19 447.65 348.91 447.4 344.75C447.15 340.59 444.35 338.75 443.04 337.13C441.73 335.51 438.04 332.03 440.63 327.02C443.22 322.01 446.71 317.16 441.52 314.86C438.42 313.49 433.21 315.21 429.75 318.86C426.29 322.51 423.45 325.16 420.17 326.01C416.89 326.86 410.07 326.93 410.3 332.57C410.53 338.21 412 340.16 410.63 342.67C408 347.4 397 349.94 409 367.59Z" fill="#54A3FF"/>
<path d="M418.07 373.45C417.947 373.448 417.83 373.401 417.739 373.318C417.649 373.235 417.592 373.122 417.58 373C417.58 372.66 415.12 339.33 438.28 317.44C438.376 317.364 438.497 317.327 438.619 317.336C438.742 317.345 438.856 317.399 438.94 317.488C439.024 317.577 439.072 317.695 439.074 317.817C439.075 317.94 439.031 318.058 438.95 318.15C416.14 339.71 418.53 372.59 418.56 372.92C418.568 373.049 418.526 373.177 418.442 373.276C418.358 373.375 418.239 373.437 418.11 373.45H418.07Z" fill="white"/>
<path d="M422.08 344.83C421.958 344.83 421.84 344.784 421.751 344.7C421.662 344.616 421.608 344.502 421.6 344.38C421.417 341.803 420.715 339.289 419.536 336.99C418.357 334.69 416.726 332.653 414.74 331C414.687 330.963 414.643 330.916 414.609 330.862C414.574 330.807 414.552 330.747 414.541 330.683C414.531 330.62 414.534 330.555 414.549 330.493C414.564 330.43 414.592 330.371 414.63 330.32C414.705 330.214 414.818 330.142 414.945 330.12C415.073 330.097 415.204 330.126 415.31 330.2C417.432 331.925 419.172 334.071 420.422 336.504C421.671 338.936 422.403 341.601 422.57 344.33C422.576 344.394 422.568 344.459 422.549 344.521C422.529 344.582 422.497 344.639 422.455 344.689C422.414 344.738 422.362 344.778 422.305 344.808C422.247 344.837 422.185 344.855 422.12 344.86L422.08 344.83Z" fill="white"/>
<path d="M420.43 350.53C420.307 350.531 420.189 350.484 420.1 350.4C420.009 350.308 419.958 350.184 419.958 350.055C419.958 349.926 420.009 349.802 420.1 349.71C420.34 349.44 426.1 343.18 439.57 345.02C439.699 345.038 439.815 345.105 439.894 345.208C439.972 345.311 440.007 345.442 439.99 345.57C439.983 345.634 439.963 345.696 439.931 345.753C439.899 345.809 439.856 345.858 439.804 345.897C439.753 345.936 439.694 345.965 439.632 345.981C439.569 345.997 439.504 346 439.44 345.99C426.56 344.22 420.88 350.31 420.83 350.37C420.779 350.424 420.716 350.466 420.647 350.493C420.578 350.521 420.504 350.534 420.43 350.53Z" fill="white"/>
<path d="M412 196.26L305.5 23.21C304.141 20.9926 301.979 19.385 299.464 18.7218C296.949 18.0587 294.276 18.3911 292 19.65L196.85 72L412 196.26Z" fill="#54A3FF"/>
<path d="M412 196.26L196.85 72V259.33C196.852 262.483 197.684 265.58 199.264 268.308C200.844 271.036 203.116 273.3 205.85 274.87L397 385.22C398.528 386.081 400.254 386.528 402.007 386.516C403.76 386.505 405.48 386.035 406.996 385.154C408.512 384.272 409.771 383.01 410.649 381.492C411.527 379.974 411.993 378.253 412 376.5V196.26Z" fill="#54A3FF"/>
<g opacity="0.3">
<path opacity="0.3" d="M412 196.26L305.5 23.21C304.141 20.9926 301.979 19.385 299.464 18.7218C296.949 18.0587 294.276 18.3911 292 19.65L196.85 72L412 196.26Z" fill="white"/>
<path opacity="0.3" d="M412 196.26L196.85 72V259.33C196.852 262.483 197.684 265.58 199.264 268.308C200.844 271.036 203.116 273.3 205.85 274.87L397 385.22C398.528 386.081 400.254 386.528 402.007 386.516C403.76 386.505 405.48 386.035 406.996 385.154C408.512 384.272 409.771 383.01 410.649 381.492C411.527 379.974 411.993 378.253 412 376.5V196.26Z" fill="white"/>
</g>
<path d="M407 198.28L300.44 25.22C299.082 23.0183 296.931 21.4217 294.43 20.7593C291.929 20.097 289.27 20.4193 287 21.66L191.79 74L407 198.28Z" fill="#54A3FF"/>
<path opacity="0.5" d="M407 198.28L300.44 25.22C299.082 23.0183 296.931 21.4217 294.43 20.7593C291.929 20.097 289.27 20.4193 287 21.66L191.79 74L407 198.28Z" fill="white"/>
<path d="M407 198.28L191.79 74V261.34C191.797 264.493 192.632 267.589 194.211 270.318C195.791 273.047 198.059 275.313 200.79 276.89L391.89 387.23C393.42 388.112 395.155 388.576 396.921 388.576C398.687 388.576 400.422 388.112 401.952 387.229C403.481 386.347 404.752 385.078 405.636 383.549C406.521 382.02 406.988 380.286 406.99 378.52L407 198.28Z" fill="#54A3FF"/>
<path opacity="0.5" d="M407 198.28L191.79 74V261.34C191.797 264.493 192.632 267.589 194.211 270.318C195.791 273.047 198.059 275.313 200.79 276.89L391.89 387.23C393.42 388.112 395.155 388.576 396.921 388.576C398.687 388.576 400.422 388.112 401.952 387.229C403.481 386.347 404.752 385.078 405.636 383.549C406.521 382.02 406.988 380.286 406.99 378.52L407 198.28Z" fill="white"/>
<path d="M200.77 276.89L391.89 387.23C393.361 388.092 395.029 388.56 396.734 388.588C398.439 388.616 400.122 388.203 401.62 387.39L287.55 215.64L191.79 261.34C191.795 264.491 192.627 267.586 194.203 270.315C195.778 273.043 198.043 275.311 200.77 276.89Z" fill="#54A3FF"/>
<path opacity="0.7" d="M200.77 276.89L391.89 387.23C393.361 388.092 395.029 388.56 396.734 388.588C398.439 388.616 400.122 388.203 401.62 387.39L287.55 215.64L191.79 261.34C191.795 264.491 192.627 267.586 194.203 270.315C195.778 273.043 198.043 275.311 200.77 276.89Z" fill="white"/>
<path d="M191.79 74.03L284.97 232.87L406.99 198.28L191.79 74.03Z" fill="#54A3FF"/>
<path opacity="0.3" d="M191.79 74.03L284.97 232.87L406.99 198.28L191.79 74.03Z" fill="white"/>
<path d="M383.38 129.78V204.97L284.97 232.86L215.96 115.22V33.1101L383.38 129.78Z" fill="#F0F0F0"/>
<path d="M109.89 381.11L68 356.92V299.49L109.89 323.68V381.11Z" fill="#54A3FF"/>
<path d="M109.89 381.11V323.68L151.78 299.49V356.92L109.89 381.11Z" fill="#54A3FF"/>
<path opacity="0.5" d="M109.89 381.11L68 356.92V299.49L109.89 323.68V381.11Z" fill="black"/>
<path opacity="0.7" d="M109.89 381.11V323.68L151.78 299.49V356.92L109.89 381.11Z" fill="black"/>
<path d="M109.89 321.34L64.75 295.27L109.89 269.21L155.03 295.27L109.89 321.34Z" fill="#54A3FF"/>
<path opacity="0.1" d="M109.89 321.34L64.75 295.27L109.89 269.21L155.03 295.27L109.89 321.34Z" fill="black"/>
<path d="M84.3799 283.94L129.52 310L135.4 306.61L90.2599 280.54L84.3799 283.94Z" fill="#54A3FF"/>
<path opacity="0.3" d="M84.3799 283.94L129.52 310L135.4 306.61L90.2599 280.54L84.3799 283.94Z" fill="white"/>
<path d="M109.89 330.35L64.75 304.29V295.27L109.89 321.34V330.35Z" fill="#54A3FF"/>
<path d="M109.89 330.35V321.34L155.03 295.27V304.29L109.89 330.35Z" fill="#54A3FF"/>
<path opacity="0.3" d="M109.89 330.35L64.75 304.29V295.27L109.89 321.34V330.35Z" fill="black"/>
<path opacity="0.5" d="M109.89 330.35V321.34L155.03 295.27V304.29L109.89 330.35Z" fill="black"/>
<path d="M90.2599 369.81L84.3799 366.44V306.61L90.2599 310V369.81Z" fill="#54A3FF"/>
<path d="M129.52 369.81L135.4 366.44V306.61L129.52 310V369.81Z" fill="#54A3FF"/>
<path opacity="0.2" d="M90.2599 369.81L84.3799 366.44V306.61L90.2599 310V369.81Z" fill="black"/>
<path opacity="0.4" d="M129.52 369.81L135.4 366.44V306.61L129.52 310V369.81Z" fill="black"/>
<path d="M135.4 283.94L90.2599 310L84.3799 306.61L129.52 280.54L135.4 283.94Z" fill="#54A3FF"/>
<path opacity="0.3" d="M135.4 283.94L90.2599 310L84.3799 306.61L129.52 280.54L135.4 283.94Z" fill="white"/>
<path d="M156.45 389.59L125.84 371.92V329.96L156.45 347.63V389.59Z" fill="#54A3FF"/>
<path d="M156.45 389.59V347.63L187.05 329.96V371.92L156.45 389.59Z" fill="#54A3FF"/>
<path opacity="0.5" d="M156.45 389.59L125.84 371.92V329.96L156.45 347.63V389.59Z" fill="black"/>
<path opacity="0.7" d="M156.45 389.59V347.63L187.05 329.96V371.92L156.45 389.59Z" fill="black"/>
<path d="M156.45 345.92L123.46 326.88L156.45 307.84L189.43 326.88L156.45 345.92Z" fill="#54A3FF"/>
<path opacity="0.1" d="M156.45 345.92L123.46 326.88L156.45 307.84L189.43 326.88L156.45 345.92Z" fill="black"/>
<path d="M137.81 318.6L170.79 337.64L175.09 335.16L142.1 316.12L137.81 318.6Z" fill="#54A3FF"/>
<path opacity="0.3" d="M137.81 318.6L170.79 337.64L175.09 335.16L142.1 316.12L137.81 318.6Z" fill="white"/>
<path d="M156.45 352.51L123.46 333.46V326.88L156.45 345.92V352.51Z" fill="#54A3FF"/>
<path d="M156.45 352.51V345.92L189.43 326.88V333.46L156.45 352.51Z" fill="#54A3FF"/>
<path opacity="0.3" d="M156.45 352.51L123.46 333.46V326.88L156.45 345.92V352.51Z" fill="black"/>
<path opacity="0.5" d="M156.45 352.51V345.92L189.43 326.88V333.46L156.45 352.51Z" fill="black"/>
<path d="M142.1 381.33L137.81 378.87V335.16L142.1 337.64V381.33Z" fill="#54A3FF"/>
<path d="M170.79 381.33L175.09 378.87V335.16L170.79 337.64V381.33Z" fill="#54A3FF"/>
<path d="M175.09 318.6L142.1 337.64L137.81 335.16L170.79 316.12L175.09 318.6Z" fill="#54A3FF"/>
<path opacity="0.3" d="M175.09 318.6L142.1 337.64L137.81 335.16L170.79 316.12L175.09 318.6Z" fill="white"/>
<path d="M190.32 178.82L208.32 209.31L228.78 198.36C232.789 196.209 237.183 194.87 241.71 194.42L229.1 219.69L208.94 229.52C207.036 230.465 204.869 230.743 202.789 230.307C200.708 229.872 198.835 228.749 197.47 227.12C195.19 224.35 192.67 219.82 190.32 212.48C183.63 191.56 180.51 180.64 180.51 180.64L184.31 174.77L190.32 178.82Z" fill="#FFA8A7"/>
<path d="M236.45 383.06C236.51 382.57 236.56 382.06 236.62 381.65C237.62 373.44 243.44 346.65 242.62 334.65L260.39 267.06L231.16 262.15C231.16 262.15 219.16 305.49 217.68 329.15C216.87 342.15 217.91 365.08 219 383.05C224.628 385.142 230.82 385.145 236.45 383.06Z" fill="#455A64"/>
<path d="M226.46 416.13L234.46 404.36C234.46 404.36 235.46 391.41 236.41 383.06C230.787 385.165 224.595 385.182 218.96 383.11C219.86 397.8 220.79 409.2 220.79 409.2L226.46 416.13Z" fill="#FFA8A7"/>
<path d="M240.81 263.79L235.97 264.35C231.97 282.35 244.51 290.72 244.51 290.72C244.51 290.72 235.86 318.43 231.99 338.81C230.11 348.72 234.7 354.45 240.61 357.63C241.95 349.02 243.01 340.26 242.61 334.63L260.38 267.04L240.81 263.79Z" fill="#37474F"/>
<path d="M234.73 406.31C232.5 407.715 230.806 409.828 229.92 412.31C229.247 413.945 228.023 415.293 226.46 416.12C226.46 416.12 227.27 412.6 225.85 411.51C224.43 410.42 219.43 406.51 218.9 412.04C218.73 413.77 218.57 415.5 218.57 415.5C218.57 415.5 211.93 422.7 208.7 424.27C205.47 425.84 196.29 425.64 198.54 434.02C200.79 442.4 216.59 438.33 221.78 433.79C226.97 429.25 239.72 430.25 239.54 424.19C239.36 418.13 235.13 411.17 234.73 406.31Z" fill="#263238"/>
<path d="M234.5 404.36C232.255 405.775 230.553 407.907 229.67 410.41C228.986 412.059 227.748 413.417 226.17 414.25C226.17 414.25 226.99 410.71 225.56 409.6C224.13 408.49 219.1 404.6 218.56 410.14L218.23 413.63C218.23 413.63 211.55 420.87 208.3 422.45C205.05 424.03 195.8 423.83 198.07 432.27C200.34 440.71 216.24 436.61 221.47 432.04C226.7 427.47 239.53 428.47 239.34 422.37C239.15 416.27 234.91 409.25 234.5 404.36Z" fill="#37474F"/>
<path d="M223.43 420C223.328 419.998 223.23 419.964 223.15 419.903C223.069 419.842 223.009 419.757 222.98 419.66C222.652 418.418 222.04 417.27 221.191 416.307C220.342 415.344 219.28 414.591 218.09 414.11C218.029 414.093 217.971 414.063 217.922 414.024C217.872 413.984 217.831 413.934 217.801 413.878C217.771 413.822 217.753 413.761 217.748 413.697C217.742 413.634 217.75 413.57 217.77 413.51C217.809 413.39 217.894 413.29 218.006 413.232C218.118 413.173 218.249 413.162 218.37 413.2C219.709 413.723 220.907 414.555 221.866 415.627C222.825 416.698 223.518 417.981 223.89 419.37C223.91 419.43 223.918 419.493 223.913 419.556C223.908 419.618 223.891 419.68 223.862 419.736C223.833 419.792 223.793 419.841 223.745 419.881C223.696 419.922 223.64 419.952 223.58 419.97L223.43 420Z" fill="#F0F0F0"/>
<path d="M220.54 422.69C220.436 422.692 220.335 422.659 220.252 422.598C220.169 422.536 220.108 422.449 220.08 422.35C219.753 421.109 219.141 419.962 218.291 419C217.442 418.038 216.38 417.288 215.19 416.81C215.069 416.771 214.968 416.686 214.909 416.574C214.849 416.463 214.835 416.332 214.87 416.21C214.888 416.149 214.918 416.093 214.958 416.044C214.998 415.996 215.048 415.955 215.103 415.925C215.159 415.896 215.22 415.877 215.283 415.871C215.346 415.865 215.409 415.871 215.47 415.89C216.811 416.413 218.01 417.245 218.969 418.319C219.929 419.393 220.621 420.678 220.99 422.07C221.028 422.191 221.016 422.321 220.958 422.434C220.9 422.546 220.8 422.631 220.68 422.67L220.54 422.69Z" fill="#F0F0F0"/>
<path d="M217.68 425.57C217.577 425.569 217.478 425.535 217.395 425.474C217.313 425.413 217.251 425.328 217.22 425.23C216.897 423.988 216.286 422.839 215.436 421.876C214.587 420.914 213.523 420.165 212.33 419.69C212.21 419.651 212.11 419.566 212.052 419.454C211.994 419.341 211.982 419.211 212.02 419.09C212.038 419.03 212.068 418.973 212.108 418.925C212.148 418.876 212.198 418.835 212.254 418.805C212.309 418.776 212.37 418.757 212.433 418.751C212.496 418.745 212.56 418.752 212.62 418.77C213.96 419.295 215.158 420.128 216.117 421.202C217.076 422.275 217.769 423.559 218.14 424.95C218.158 425.01 218.165 425.074 218.159 425.137C218.153 425.2 218.134 425.261 218.105 425.317C218.075 425.372 218.034 425.422 217.986 425.462C217.937 425.502 217.88 425.532 217.82 425.55L217.68 425.57Z" fill="#F0F0F0"/>
<path d="M208.3 422.45C205.05 424.03 195.8 423.83 198.07 432.27C199.54 437.71 206.67 437.94 212.95 436.19C213.351 433.7 213.238 431.155 212.62 428.71C211.35 424 208.3 422.45 208.3 422.45Z" fill="#FAFAFA"/>
<path d="M298.3 345.38C299.076 347.9 300.679 350.084 302.85 351.58C304.252 352.66 305.234 354.195 305.63 355.92C305.63 355.92 302.44 354.22 301.01 355.31C299.58 356.4 294.56 360.22 299.73 362.16L302.98 363.38C302.98 363.38 308.2 371.65 308.88 375.18C309.56 378.71 306.98 387.52 315.66 387.52C324.34 387.52 324.51 371.21 321.48 365.02C318.45 358.83 322.72 346.78 316.82 345.38C310.92 343.98 303.09 346.25 298.3 345.38Z" fill="#263238"/>
<path d="M284.87 342.66C283.14 342.2 281.35 341.66 279.55 341.09C273.86 339.262 268.044 337.848 262.15 336.86C262.15 336.86 275.81 303.4 278.81 285.65C281.81 267.9 274.72 255.88 274.72 255.88L235.27 262.88C232.27 281.04 247.54 290.33 247.54 290.33C246.94 290.18 238.81 316.93 235.66 337.44C232.51 357.95 250.52 358.61 259.15 358.44C263.27 358.38 273.84 358.37 283.75 358.39C287 351.17 285.93 345.6 284.87 342.66Z" fill="#455A64"/>
<path d="M297 345.19C292.921 344.562 288.879 343.717 284.89 342.66C285.95 345.6 286.97 351.17 283.77 358.38L304.64 358.43C304.62 348.19 297 345.19 297 345.19Z" fill="#FFA8A7"/>
<path d="M296.35 345.09C297.138 347.625 298.754 349.823 300.94 351.33C302.35 352.419 303.34 353.963 303.74 355.7C303.74 355.7 300.53 353.99 299.09 355.09C297.65 356.19 292.59 360.03 297.79 361.98L301.07 363.21C301.07 363.21 306.33 371.54 307.01 375.09C307.69 378.64 305.1 387.52 313.84 387.52C322.58 387.52 322.75 371.1 319.69 364.87C316.63 358.64 320.94 346.5 315 345.09C309.06 343.68 301.18 346 296.35 345.09Z" fill="#37474F"/>
<path d="M301.07 363.69C300.981 363.692 300.894 363.667 300.82 363.62C300.766 363.587 300.719 363.544 300.682 363.493C300.645 363.442 300.618 363.383 300.604 363.322C300.59 363.26 300.589 363.196 300.6 363.134C300.611 363.072 300.635 363.013 300.67 362.96C301.521 361.8 302.633 360.858 303.918 360.209C305.202 359.561 306.621 359.226 308.06 359.23C308.123 359.226 308.187 359.235 308.247 359.256C308.306 359.277 308.361 359.31 308.408 359.353C308.455 359.396 308.492 359.448 308.518 359.506C308.544 359.564 308.559 359.626 308.56 359.69C308.562 359.753 308.553 359.816 308.531 359.875C308.509 359.934 308.476 359.989 308.433 360.035C308.391 360.082 308.339 360.119 308.282 360.146C308.225 360.172 308.163 360.187 308.1 360.19C306.816 360.18 305.549 360.471 304.399 361.041C303.249 361.611 302.249 362.443 301.48 363.47C301.435 363.538 301.374 363.593 301.302 363.632C301.231 363.67 301.151 363.69 301.07 363.69Z" fill="#F0F0F0"/>
<path d="M303 367.2C302.907 367.198 302.817 367.17 302.74 367.12C302.633 367.052 302.557 366.945 302.529 366.821C302.5 366.697 302.522 366.567 302.59 366.46C303.445 365.302 304.56 364.361 305.845 363.714C307.131 363.066 308.55 362.729 309.99 362.73C310.115 362.73 310.236 362.779 310.326 362.867C310.415 362.955 310.467 363.074 310.47 363.2C310.472 363.326 310.426 363.447 310.34 363.539C310.254 363.631 310.135 363.685 310.01 363.69C308.727 363.69 307.461 363.986 306.311 364.555C305.161 365.124 304.158 365.95 303.38 366.97C303.341 367.037 303.286 367.094 303.219 367.134C303.153 367.174 303.077 367.197 303 367.2Z" fill="#F0F0F0"/>
<path d="M305 370.7C304.913 370.703 304.828 370.683 304.752 370.641C304.676 370.598 304.614 370.536 304.571 370.461C304.529 370.385 304.508 370.299 304.512 370.213C304.515 370.126 304.542 370.042 304.59 369.97C305.443 368.81 306.558 367.868 307.844 367.22C309.13 366.572 310.55 366.236 311.99 366.24C312.053 366.236 312.117 366.245 312.177 366.266C312.237 366.287 312.292 366.32 312.338 366.363C312.385 366.406 312.423 366.458 312.449 366.516C312.475 366.574 312.489 366.637 312.49 366.7C312.493 366.827 312.446 366.949 312.361 367.043C312.275 367.136 312.156 367.192 312.03 367.2C310.746 367.193 309.478 367.486 308.327 368.055C307.176 368.625 306.174 369.455 305.4 370.48C305.357 370.548 305.298 370.603 305.228 370.642C305.158 370.68 305.08 370.7 305 370.7Z" fill="#F0F0F0"/>
<path d="M307 375.09C307.69 378.64 305.09 387.52 313.83 387.52C319.47 387.52 321.53 380.69 321.47 374.17C319.175 373.13 316.69 372.575 314.17 372.54C309.27 372.54 307 375.09 307 375.09Z" fill="#FAFAFA"/>
<path d="M277 151.5C277 151.5 277.18 142.39 279.73 142.21C282.28 142.03 280.43 148.49 280.43 148.49C280.43 148.49 283.09 146.72 284.1 148.31C285.11 149.9 279.18 152.5 279.18 152.5L277 151.5Z" fill="#263238"/>
<path d="M223.62 169.35C223.62 169.35 225.43 184.44 248.33 174.25C248.33 174.25 226.6 214.32 265.57 214.32C282.68 214.32 294.24 205.95 291.92 191.84C291.92 191.84 301.5 191.63 301.92 183.95C301.92 183.95 290.19 189.08 285.09 177.48C279.99 165.88 286.99 154.41 278.3 149.77C278.3 149.77 273.45 134.36 243.94 142.58C242.655 141.698 241.17 141.153 239.621 140.994C238.071 140.835 236.506 141.067 235.07 141.67C229.86 143.67 228.53 152.86 229.86 159.82C231.19 166.78 229.75 172.28 223.62 169.35Z" fill="#263238"/>
<path d="M271.22 197.49L275.85 198.75V229.34L271.22 244.09C273.368 249.783 275.099 255.625 276.4 261.57C269.286 265.974 261.096 268.333 252.73 268.39C238.99 268.39 231.16 262.17 231.16 262.17L229.42 241.81C229.42 241.81 219.23 235.3 224.23 222.3C229.23 209.3 241.74 194.42 241.74 194.42H246.24C246.24 194.42 256.67 200.7 271.22 197.49Z" fill="#54A3FF"/>
<path opacity="0.6" d="M271.22 197.49L275.85 198.75V229.34L271.22 244.09C273.368 249.783 275.099 255.625 276.4 261.57C269.286 265.974 261.096 268.333 252.73 268.39C238.99 268.39 231.16 262.17 231.16 262.17L229.42 241.81C229.42 241.81 219.23 235.3 224.23 222.3C229.23 209.3 241.74 194.42 241.74 194.42H246.24C246.24 194.42 256.67 200.7 271.22 197.49Z" fill="black"/>
<path d="M264.35 195.72L271.22 197.49C271.22 197.49 264.09 201.86 261.42 216C261.336 216.444 261.16 216.866 260.904 217.238C260.647 217.61 260.316 217.924 259.93 218.161C259.545 218.397 259.115 218.55 258.667 218.61C258.219 218.671 257.764 218.636 257.33 218.51L238.87 213.08C238.407 212.939 237.982 212.696 237.625 212.368C237.269 212.041 236.991 211.638 236.812 211.189C236.632 210.739 236.556 210.256 236.588 209.773C236.621 209.29 236.761 208.821 237 208.4C239.28 204.34 243.15 197.81 246.28 194.4H252.43L264.35 195.72Z" fill="#FFA8A7"/>
<path d="M264.35 195.72L248.33 194.52V174.25H264.35V195.72Z" fill="#FFA8A7"/>
<path d="M248.33 193.64C251.604 192.426 254.597 190.558 257.128 188.152C259.658 185.745 261.673 182.849 263.05 179.64V174.25H248.33V193.64Z" fill="#F28F8F"/>
<path d="M244.59 148C244.59 148 229.94 148.86 231.75 173.92C232.59 185.5 235.3 191.5 244.22 191.06C254.33 190.57 268.68 183.62 267.74 163.79C266.8 143.96 244.59 148 244.59 148Z" fill="#FFA8A7"/>
<path d="M264.35 174.25C264.35 174.25 260.35 175.31 260.35 169.55C260.35 169.55 242.5 168.34 238.56 150.63C238.56 150.63 240.32 145.32 251.46 145.32C262.6 145.32 271.98 155.18 269.07 168.73L264.35 174.25Z" fill="#263238"/>
<path d="M242.49 168.87V177.48L237.45 175.94L242.49 168.87Z" fill="#F28F8F"/>
<path d="M248.33 171.54C249.302 171.54 250.09 170.752 250.09 169.78C250.09 168.808 249.302 168.02 248.33 168.02C247.358 168.02 246.57 168.808 246.57 169.78C246.57 170.752 247.358 171.54 248.33 171.54Z" fill="#263238"/>
<path d="M238.54 168.56C238.542 168.908 238.44 169.25 238.248 169.54C238.056 169.831 237.782 170.058 237.46 170.193C237.139 170.328 236.785 170.364 236.443 170.297C236.101 170.23 235.786 170.064 235.539 169.818C235.292 169.572 235.123 169.259 235.055 168.917C234.986 168.575 235.02 168.221 235.153 167.899C235.286 167.576 235.512 167.301 235.801 167.107C236.091 166.913 236.431 166.81 236.78 166.81C237.245 166.81 237.691 166.994 238.021 167.322C238.351 167.65 238.537 168.095 238.54 168.56Z" fill="#263238"/>
<path d="M234.64 164.91L238.08 162.91C238.08 162.91 236.76 161.54 235.45 162.36C235.078 162.657 234.803 163.058 234.659 163.512C234.514 163.966 234.508 164.452 234.64 164.91Z" fill="#263238"/>
<path d="M242.93 180.34C244.93 180.477 246.918 179.942 248.58 178.82C248.58 178.82 248.96 181.82 246.47 182.37C243.98 182.92 242.93 180.34 242.93 180.34Z" fill="#F28F8F"/>
<path d="M262.93 174.9C262.869 173.442 263.139 171.989 263.72 170.65C264.39 169.16 265.57 167.65 267.62 167.6C272.12 167.47 272.73 171.81 272.67 173.35C272.51 177.4 269.23 181.78 263.12 181.95L262.93 174.9Z" fill="#FFA8A7"/>
<path d="M274.32 198.33C274.32 198.33 265.77 205.96 269.73 216.89C273.69 227.82 281.73 241.4 284 246.25C284 246.25 264.82 248.43 260 248.91L262.73 261.48C262.73 261.48 290.04 262.03 295.91 259.87C301.78 257.71 304.51 252.53 301.44 244.47C299.14 238.47 289.13 216.72 284.29 206.27C283.46 204.477 282.261 202.88 280.77 201.584C279.279 200.288 277.531 199.322 275.64 198.75L274.32 198.33Z" fill="#FFA8A7"/>
<path d="M128.81 152.94V245.12C128.81 246.906 129.281 248.661 130.174 250.207C131.068 251.754 132.353 253.038 133.9 253.93L248.15 319.77C248.849 320.171 249.64 320.38 250.446 320.378C251.251 320.375 252.041 320.16 252.737 319.754C253.433 319.349 254.009 318.767 254.408 318.067C254.807 317.368 255.015 316.575 255.01 315.77V223.74C255.01 221.494 254.419 219.287 253.295 217.342C252.172 215.397 250.556 213.782 248.61 212.66L136.88 148.28C136.062 147.808 135.134 147.559 134.19 147.559C133.245 147.559 132.318 147.808 131.5 148.28C130.682 148.752 130.003 149.432 129.531 150.25C129.058 151.068 128.81 151.995 128.81 152.94Z" fill="#54A3FF"/>
<path opacity="0.3" d="M128.81 152.94V245.12C128.81 246.906 129.281 248.661 130.174 250.207C131.068 251.754 132.353 253.038 133.9 253.93L248.15 319.77C248.849 320.171 249.64 320.38 250.446 320.378C251.251 320.375 252.041 320.16 252.737 319.754C253.433 319.349 254.009 318.767 254.408 318.067C254.807 317.368 255.015 316.575 255.01 315.77V223.74C255.01 221.494 254.419 219.287 253.295 217.342C252.172 215.397 250.556 213.782 248.61 212.66L136.88 148.28C136.062 147.808 135.134 147.559 134.19 147.559C133.245 147.559 132.318 147.808 131.5 148.28C130.682 148.752 130.003 149.432 129.531 150.25C129.058 151.068 128.81 151.995 128.81 152.94Z" fill="black"/>
<path d="M126.32 153.87V246.05C126.322 247.833 126.792 249.585 127.683 251.129C128.575 252.674 129.857 253.957 131.4 254.85L245.66 320.69C246.358 321.094 247.15 321.307 247.957 321.305C248.763 321.304 249.555 321.089 250.252 320.683C250.949 320.277 251.526 319.693 251.924 318.992C252.322 318.291 252.528 317.497 252.52 316.69V224.66C252.519 222.414 251.927 220.208 250.804 218.263C249.68 216.318 248.065 214.703 246.12 213.58L134.39 149.2C133.571 148.727 132.642 148.479 131.697 148.479C130.752 148.48 129.823 148.729 129.005 149.203C128.187 149.676 127.508 150.357 127.037 151.176C126.565 151.996 126.318 152.925 126.32 153.87Z" fill="#54A3FF"/>
<path d="M170.27 169.88L172.44 168.77L176.83 171.3L174.89 172.54L170.27 169.88Z" fill="#54A3FF"/>
<path d="M170.27 277.25L174.89 279.91V172.54L170.27 169.88V277.25Z" fill="#54A3FF"/>
<path opacity="0.4" d="M170.27 277.25L174.89 279.91V172.54L170.27 169.88V277.25Z" fill="white"/>
<path d="M192.27 180.19L187.66 177.53C187.66 177.53 186.77 178.85 186.12 185.31C185.58 190.7 166 179.31 174.24 168.96C179.43 162.47 195 175 192.27 180.19Z" fill="#FFA8A7"/>
<path d="M260 248.91C257.505 249.048 255.005 249.048 252.51 248.91C251.05 248.64 246.36 244.09 245.11 243.91C243.86 243.73 240.67 245.74 243.11 253.38C245.55 261.02 249.11 264.49 254.67 263.67C260.23 262.85 262.67 261.49 262.67 261.49L260 248.91Z" fill="#FFA8A7"/>
<path d="M260 248.91C258.413 247.646 256.742 246.49 255 245.45V251L260 248.91Z" fill="#FFA8A7"/>
<path d="M126.32 202.11L252.52 274.97V269.14L126.32 196.28V202.11Z" fill="#54A3FF"/>
<path opacity="0.4" d="M126.32 202.11L252.52 274.97V269.14L126.32 196.28V202.11Z" fill="white"/>
<path d="M171.76 222.71C171.76 222.71 166.52 205.02 170.6 203.62C173.89 202.49 177.23 205.5 176.03 212.07C175.316 216.291 174.829 220.547 174.57 224.82C174.854 224.986 175.171 225.088 175.499 225.117C175.827 225.147 176.157 225.104 176.467 224.991C176.776 224.878 177.057 224.699 177.289 224.465C177.521 224.232 177.699 223.95 177.81 223.64C179.81 218.11 184.22 209.47 181.59 202.87C179.72 198.17 171.83 191.81 165.92 194.39C160.01 196.97 162.21 209.81 168.54 222.31C168.54 222.31 169.71 225.13 171.76 222.71Z" fill="#54A3FF"/>
<path opacity="0.6" d="M171.76 222.71C171.76 222.71 166.52 205.02 170.6 203.62C173.89 202.49 177.23 205.5 176.03 212.07C175.316 216.291 174.829 220.547 174.57 224.82C174.854 224.986 175.171 225.088 175.499 225.117C175.827 225.147 176.157 225.104 176.467 224.991C176.776 224.878 177.057 224.699 177.289 224.465C177.521 224.232 177.699 223.95 177.81 223.64C179.81 218.11 184.22 209.47 181.59 202.87C179.72 198.17 171.83 191.81 165.92 194.39C160.01 196.97 162.21 209.81 168.54 222.31C168.54 222.31 169.71 225.13 171.76 222.71Z" fill="white"/>
<path d="M173.11 231.1C173.11 231.1 178.35 248.79 174.27 250.19C170.98 251.32 167.64 248.31 168.84 241.74C169.553 237.522 170.04 233.269 170.3 229C170.015 228.834 169.697 228.733 169.369 228.704C169.04 228.675 168.71 228.719 168.4 228.833C168.091 228.946 167.81 229.127 167.578 229.362C167.347 229.596 167.17 229.879 167.06 230.19C165.06 235.72 160.65 244.35 163.28 250.95C165.15 255.65 173.04 262.01 178.95 259.43C184.86 256.85 182.66 244.01 176.33 231.51C176.33 231.5 175.16 228.68 173.11 231.1Z" fill="#54A3FF"/>
<path opacity="0.6" d="M173.11 231.1C173.11 231.1 178.35 248.79 174.27 250.19C170.98 251.32 167.64 248.31 168.84 241.74C169.553 237.522 170.04 233.269 170.3 229C170.015 228.834 169.697 228.733 169.369 228.704C169.04 228.675 168.71 228.719 168.4 228.833C168.091 228.946 167.81 229.127 167.578 229.362C167.347 229.596 167.17 229.879 167.06 230.19C165.06 235.72 160.65 244.35 163.28 250.95C165.15 255.65 173.04 262.01 178.95 259.43C184.86 256.85 182.66 244.01 176.33 231.51C176.33 231.5 175.16 228.68 173.11 231.1Z" fill="white"/>
<path d="M175.1 235.07L169.16 231.64C168.355 231.176 167.686 230.509 167.221 229.705C166.756 228.901 166.51 227.989 166.51 227.06V220.9C166.509 220.413 166.637 219.934 166.88 219.512C167.123 219.09 167.474 218.74 167.896 218.497C168.317 218.253 168.796 218.125 169.283 218.126C169.77 218.127 170.248 218.256 170.67 218.5L175.75 221.43C176.627 221.938 177.357 222.667 177.866 223.544C178.374 224.421 178.645 225.416 178.65 226.43V233C178.652 233.417 178.545 233.827 178.338 234.189C178.132 234.551 177.834 234.852 177.474 235.062C177.114 235.272 176.705 235.383 176.288 235.385C175.871 235.386 175.461 235.278 175.1 235.07Z" fill="#54A3FF"/>
<path opacity="0.6" d="M175.1 235.07L169.16 231.64C168.355 231.176 167.686 230.509 167.221 229.705C166.756 228.901 166.51 227.989 166.51 227.06V220.9C166.509 220.413 166.637 219.934 166.88 219.512C167.123 219.09 167.474 218.74 167.896 218.497C168.317 218.253 168.796 218.125 169.283 218.126C169.77 218.127 170.248 218.256 170.67 218.5L175.75 221.43C176.627 221.938 177.357 222.667 177.866 223.544C178.374 224.421 178.645 225.416 178.65 226.43V233C178.652 233.417 178.545 233.827 178.338 234.189C178.132 234.551 177.834 234.852 177.474 235.062C177.114 235.272 176.705 235.383 176.288 235.385C175.871 235.386 175.461 235.278 175.1 235.07Z" fill="white"/>
<path d="M252.52 274.97L255.01 273.49V267.48L252.52 269.14V274.97Z" fill="#54A3FF"/>
</svg>
