<svg width="500" height="500" viewBox="0 0 500 500" fill="none" xmlns="http://www.w3.org/2000/svg">
<path d="M66.0902 403.46C-3.06982 348.78 8.78019 250 66.7302 172.7C155.59 54.1599 296 9.59988 401.37 83.4299C493.37 147.92 494.91 320.64 470.85 373.28C447.85 423.5 389.85 468.93 270.09 472.69C164.33 476 103.28 432.86 66.0902 403.46Z" fill="#37474F"/>
<path d="M344.94 84.1498C344.94 84.4584 344.849 84.76 344.677 85.0165C344.506 85.2731 344.262 85.473 343.977 85.5911C343.692 85.7092 343.379 85.7401 343.076 85.6799C342.773 85.6197 342.495 85.4711 342.277 85.2529C342.059 85.0348 341.91 84.7568 341.85 84.4542C341.79 84.1516 341.821 83.8379 341.939 83.5529C342.057 83.2678 342.257 83.0242 342.514 82.8528C342.77 82.6813 343.072 82.5898 343.38 82.5898C343.794 82.5898 344.191 82.7542 344.483 83.0468C344.776 83.3393 344.94 83.7361 344.94 84.1498Z" fill="white"/>
<path opacity="0.3" d="M138.39 139.92C139.252 139.92 139.95 139.221 139.95 138.36C139.95 137.498 139.252 136.8 138.39 136.8C137.529 136.8 136.83 137.498 136.83 138.36C136.83 139.221 137.529 139.92 138.39 139.92Z" fill="white"/>
<path d="M211.91 89.0998C211.91 89.4083 211.819 89.7099 211.647 89.9665C211.476 90.223 211.232 90.423 210.947 90.541C210.662 90.6591 210.348 90.69 210.046 90.6298C209.743 90.5696 209.465 90.4211 209.247 90.2029C209.029 89.9847 208.88 89.7067 208.82 89.4041C208.76 89.1015 208.791 88.7879 208.909 88.5028C209.027 88.2178 209.227 87.9741 209.483 87.8027C209.74 87.6313 210.042 87.5398 210.35 87.5398C210.764 87.5398 211.161 87.7041 211.453 87.9967C211.746 88.2893 211.91 88.6861 211.91 89.0998Z" fill="white"/>
<g opacity="0.3">
<path opacity="0.3" d="M387.33 110C387.484 110.06 387.618 110.165 387.712 110.301C387.807 110.438 387.86 110.599 387.863 110.765C387.867 110.931 387.821 111.094 387.732 111.234C387.643 111.374 387.514 111.484 387.362 111.551C387.21 111.618 387.042 111.638 386.879 111.61C386.715 111.581 386.564 111.504 386.444 111.39C386.324 111.275 386.24 111.128 386.204 110.966C386.168 110.804 386.18 110.635 386.24 110.48C386.28 110.377 386.339 110.282 386.416 110.202C386.492 110.122 386.584 110.058 386.685 110.013C386.786 109.969 386.895 109.945 387.006 109.942C387.117 109.94 387.227 109.96 387.33 110Z" fill="white"/>
<path opacity="0.3" d="M392.7 115.09C393.01 115.206 393.279 115.412 393.473 115.681C393.666 115.95 393.776 116.27 393.788 116.602C393.8 116.933 393.714 117.26 393.54 117.543C393.367 117.825 393.113 118.05 392.812 118.188C392.511 118.327 392.176 118.374 391.849 118.322C391.521 118.271 391.216 118.124 390.972 117.899C390.728 117.675 390.556 117.384 390.477 117.062C390.399 116.74 390.417 116.402 390.53 116.09C390.606 115.881 390.722 115.689 390.872 115.526C391.023 115.362 391.204 115.23 391.406 115.137C391.608 115.044 391.826 114.992 392.048 114.984C392.27 114.976 392.492 115.012 392.7 115.09Z" fill="white"/>
<g opacity="0.5">
<path opacity="0.5" d="M419 159.76C418.955 160.065 418.82 160.351 418.613 160.58C418.406 160.808 418.135 160.971 417.835 161.046C417.536 161.121 417.221 161.105 416.93 161.001C416.639 160.897 416.386 160.709 416.203 160.46C416.019 160.212 415.913 159.915 415.898 159.607C415.884 159.298 415.961 158.992 416.12 158.728C416.279 158.463 416.513 158.252 416.793 158.121C417.072 157.989 417.384 157.944 417.69 157.99C418.097 158.054 418.462 158.276 418.707 158.607C418.952 158.938 419.057 159.352 419 159.76Z" fill="white"/>
</g>
</g>
<g opacity="0.5">
<path opacity="0.5" d="M199.42 130.09C199.422 130.44 199.32 130.784 199.126 131.076C198.933 131.368 198.657 131.597 198.334 131.732C198.011 131.868 197.655 131.904 197.311 131.837C196.967 131.77 196.65 131.602 196.402 131.355C196.153 131.108 195.984 130.792 195.915 130.449C195.846 130.105 195.88 129.749 196.014 129.425C196.147 129.101 196.374 128.824 196.665 128.629C196.957 128.434 197.299 128.33 197.65 128.33C198.118 128.33 198.566 128.515 198.898 128.845C199.23 129.174 199.417 129.622 199.42 130.09Z" fill="white"/>
<path opacity="0.5" d="M194.15 134.91C194.162 135.122 194.11 135.333 194.001 135.515C193.891 135.697 193.73 135.843 193.537 135.932C193.344 136.021 193.128 136.05 192.919 136.015C192.709 135.981 192.515 135.884 192.361 135.737C192.207 135.591 192.1 135.401 192.056 135.193C192.011 134.986 192.029 134.769 192.109 134.572C192.189 134.375 192.326 134.207 192.503 134.088C192.679 133.97 192.887 133.908 193.1 133.91C193.236 133.903 193.371 133.924 193.498 133.971C193.625 134.018 193.741 134.091 193.84 134.184C193.938 134.278 194.016 134.39 194.069 134.515C194.123 134.64 194.15 134.774 194.15 134.91Z" fill="white"/>
<path opacity="0.5" d="M191.16 128.33C191.16 128.498 191.11 128.662 191.017 128.802C190.923 128.942 190.791 129.051 190.635 129.115C190.48 129.179 190.309 129.196 190.144 129.163C189.979 129.131 189.828 129.05 189.709 128.931C189.59 128.812 189.509 128.66 189.476 128.496C189.443 128.331 189.46 128.16 189.525 128.004C189.589 127.849 189.698 127.716 189.838 127.623C189.978 127.53 190.142 127.48 190.31 127.48C190.535 127.48 190.752 127.569 190.911 127.729C191.07 127.888 191.16 128.104 191.16 128.33Z" fill="white"/>
</g>
<g opacity="0.5">
<path opacity="0.5" d="M361.33 141C361.287 141.306 361.154 141.593 360.948 141.823C360.741 142.053 360.471 142.217 360.171 142.294C359.872 142.37 359.556 142.356 359.265 142.253C358.973 142.149 358.719 141.962 358.534 141.714C358.35 141.466 358.243 141.168 358.227 140.859C358.212 140.55 358.289 140.244 358.448 139.979C358.608 139.714 358.842 139.502 359.122 139.37C359.402 139.239 359.715 139.193 360.02 139.24C360.223 139.268 360.417 139.336 360.593 139.44C360.769 139.544 360.922 139.682 361.044 139.846C361.166 140.01 361.254 140.196 361.303 140.394C361.352 140.592 361.361 140.798 361.33 141Z" fill="white"/>
</g>
<path d="M69.3298 46.2499C69.3298 48.6299 73.0498 48.6299 73.0098 46.2499C72.9698 43.8699 69.2998 43.8599 69.3298 46.2499Z" fill="#E6E6E6"/>
<path d="M41.4998 70.4898L45.1098 71.7398C46.4098 76.8098 46.1098 76.7398 49.1898 72.5198C54.4798 72.8198 54.2498 73.1798 51.1898 68.8798C53.0998 63.9398 53.3698 64.2698 48.3398 65.8798C44.2298 62.5298 44.6298 62.3698 44.5798 67.6398C44.3998 67.9998 40.1098 69.8098 41.4998 70.4898Z" fill="#E6E6E6"/>
<path d="M123.32 83.37V83.5C122.84 88.399 120.936 93.0504 117.843 96.8801C114.751 100.71 110.604 103.55 105.916 105.051C101.228 106.552 96.203 106.647 91.4613 105.326C86.7195 104.004 82.4684 101.323 79.2325 97.6135C75.9966 93.904 73.9175 89.3283 73.2517 84.451C72.5859 79.5737 73.3626 74.6082 75.4859 70.1672C77.6091 65.7261 80.9862 62.0039 85.2002 59.4597C89.4143 56.9154 94.281 55.6606 99.1999 55.85C96.0706 56.8715 93.2435 58.6533 90.9721 61.0359C88.7006 63.4184 87.0557 66.3272 86.1846 69.5017C85.3136 72.6761 85.2436 76.0171 85.981 79.2253C86.7184 82.4334 88.2401 85.4085 90.4098 87.8841C92.5795 90.3596 95.3294 92.2583 98.4132 93.4099C101.497 94.5616 104.818 94.9303 108.08 94.4829C111.341 94.0356 114.44 92.7862 117.1 90.8468C119.76 88.9073 121.897 86.3383 123.32 83.37Z" fill="#54A3FF"/>
<path d="M162.75 59.61H157C157.031 59.4014 157.048 59.1909 157.05 58.9799V57.5299C157.05 56.2993 156.561 55.1191 155.691 54.249C154.821 53.3788 153.641 52.8899 152.41 52.8899C151.411 52.8871 150.439 53.2101 149.64 53.81C149.41 52.0658 148.527 50.4739 147.169 49.3552C145.811 48.2366 144.08 47.6745 142.324 47.7824C140.568 47.8902 138.918 48.66 137.707 49.9363C136.497 51.2127 135.815 52.9008 135.8 54.6599V56.8199C135.798 57.7811 135.999 58.7317 136.39 59.61H131.62C131.268 59.588 130.916 59.6384 130.584 59.7578C130.253 59.8773 129.95 60.0634 129.693 60.3047C129.436 60.546 129.231 60.8373 129.091 61.1606C128.952 61.484 128.879 61.8326 128.879 62.185C128.879 62.5373 128.952 62.8859 129.091 63.2093C129.231 63.5326 129.436 63.8239 129.693 64.0652C129.95 64.3064 130.253 64.4926 130.584 64.612C130.916 64.7315 131.268 64.7819 131.62 64.76H162.75C163.405 64.7191 164.02 64.43 164.47 63.9516C164.919 63.4732 165.169 62.8414 165.169 62.185C165.169 61.5285 164.919 60.8967 164.47 60.4183C164.02 59.9399 163.405 59.6508 162.75 59.61Z" fill="#E0E0E0"/>
<path d="M40.42 124.48L43.59 123.95V117.95C43.59 113.15 48 109.8 52.8 109.8C55.1021 109.8 57.3099 110.715 58.9377 112.342C60.5655 113.97 61.48 116.178 61.48 118.48V119.35C62.5995 118.406 64.0155 117.885 65.48 117.88C66.3003 117.879 67.1128 118.039 67.871 118.352C68.6293 118.665 69.3183 119.125 69.8988 119.704C70.4793 120.284 70.9399 120.972 71.2541 121.73C71.5683 122.488 71.73 123.3 71.73 124.12V124.52H76.15C77.2063 124.572 78.2021 125.028 78.9313 125.794C79.6604 126.56 80.0671 127.577 80.0671 128.635C80.0671 129.693 79.6604 130.71 78.9313 131.476C78.2021 132.242 77.2063 132.698 76.15 132.75H40.42C39.3637 132.698 38.3679 132.242 37.6388 131.476C36.9096 130.71 36.5029 129.693 36.5029 128.635C36.5029 127.577 36.9096 126.56 37.6388 125.794C38.3679 125.028 39.3637 124.572 40.42 124.52V124.48Z" fill="#E0E0E0"/>
<path d="M283 453.3L439.31 363.13C441.46 361.9 441.46 359.89 439.31 358.65L217.89 230.79C216.688 230.179 215.358 229.86 214.01 229.86C212.661 229.86 211.332 230.179 210.13 230.79L53.8198 321C51.6798 322.23 51.6798 324.24 53.8198 325.47L275.28 453.3C276.477 453.905 277.799 454.22 279.14 454.22C280.481 454.22 281.803 453.905 283 453.3Z" fill="#263238"/>
<path d="M314.43 240.24L307.55 236.27L314.43 234.28V240.24Z" fill="#54A3FF"/>
<path opacity="0.6" d="M314.43 240.24L307.55 236.27L314.43 234.28V240.24Z" fill="black"/>
<path d="M279.95 254.19V260.52L240.27 237.56V231.23L279.95 254.19Z" fill="#54A3FF"/>
<path opacity="0.6" d="M279.95 254.19V260.52L240.27 237.56V231.23L279.95 254.19Z" fill="black"/>
<path d="M236.83 181.55L276.51 204.51V256.18L236.83 233.21V181.55Z" fill="#54A3FF"/>
<path opacity="0.55" d="M236.83 181.55L276.51 204.51V256.18L236.83 233.21V181.55Z" fill="black"/>
<path d="M276.51 204.51L321.31 178.65V230.31L276.51 256.18V204.51Z" fill="#54A3FF"/>
<path opacity="0.45" d="M276.51 204.51L321.31 178.65V230.31L276.51 256.18V204.51Z" fill="black"/>
<path d="M321.31 178.65L281.63 155.68L236.83 181.55L276.51 204.51L321.31 178.65Z" fill="#54A3FF"/>
<path opacity="0.3" d="M321.31 178.65L281.63 155.68L236.83 181.55L276.51 204.51L321.31 178.65Z" fill="black"/>
<path d="M279.95 206.5L317.87 184.61V196.53L279.95 218.42V206.5Z" fill="#54A3FF"/>
<path opacity="0.2" d="M279.95 206.5L317.87 184.61V196.53L279.95 218.42V206.5Z" fill="black"/>
<path opacity="0.2" d="M279.95 222.4L317.87 200.5V228.32L279.95 250.22V222.4Z" fill="black"/>
<path d="M279.95 260.52L283.4 258.54V252.2L279.95 254.19V260.52Z" fill="#54A3FF"/>
<path opacity="0.55" d="M279.95 260.52L283.4 258.54V252.2L279.95 254.19V260.52Z" fill="black"/>
<path d="M314.43 240.24L317.87 238.26V232.29L314.43 234.28V240.24Z" fill="#54A3FF"/>
<path opacity="0.55" d="M314.43 240.24L317.87 238.26V232.29L314.43 234.28V240.24Z" fill="black"/>
<path d="M291.71 202.23C291.71 202.77 293.35 202.23 295.38 201.1L301.8 197.39C303.8 196.22 305.47 194.83 305.47 194.28V193.28L291.71 201.22V202.23Z" fill="#37474F"/>
<path opacity="0.2" d="M317.87 228.32L293.95 214.32L279.95 222.4V250.22L317.87 228.32Z" fill="black"/>
<path opacity="0.1" d="M310.168 128.19C314.015 111.887 303.919 95.5519 287.616 91.7041C271.313 87.8563 254.978 97.9531 251.13 114.256C247.282 130.559 257.379 146.894 273.682 150.742C289.984 154.59 306.32 144.493 310.168 128.19Z" fill="#54A3FF"/>
<path opacity="0.1" d="M319.773 130.457C324.873 108.849 311.491 87.1978 289.883 82.0979C268.275 76.9979 246.623 90.3804 241.523 111.989C236.423 133.597 249.806 155.248 271.414 160.348C293.022 165.448 314.673 152.065 319.773 130.457Z" fill="#54A3FF"/>
<path opacity="0.1" d="M329.389 132.727C335.743 105.808 319.071 78.8356 292.152 72.4822C265.234 66.1288 238.261 82.8003 231.908 109.719C225.554 136.638 242.226 163.61 269.145 169.964C296.063 176.317 323.036 159.646 329.389 132.727Z" fill="#54A3FF"/>
<path d="M290.55 172C290.558 171.734 290.532 171.469 290.47 171.21C289.83 168.303 288.116 165.746 285.67 164.05H275.67C273.23 165.752 271.517 168.307 270.87 171.21C270.817 171.47 270.793 171.735 270.8 172V172.13C270.89 173.52 271.8 174.89 273.68 175.95C275.849 177.05 278.248 177.623 280.68 177.623C283.112 177.623 285.511 177.05 287.68 175.95C289.51 174.89 290.46 173.52 290.56 172.13C290.54 172.13 290.55 172 290.55 172Z" fill="#263238"/>
<path d="M275.9 163.89C273.27 165.41 273.27 167.89 275.9 169.39C277.374 170.134 279.003 170.522 280.655 170.522C282.307 170.522 283.935 170.134 285.41 169.39C288.04 167.87 288.04 165.39 285.41 163.89C283.935 163.145 282.307 162.758 280.655 162.758C279.003 162.758 277.374 163.145 275.9 163.89Z" fill="#37474F"/>
<path d="M282 130.42H279.26V165.59C279.252 165.721 279.286 165.851 279.356 165.962C279.425 166.074 279.528 166.16 279.65 166.21C279.949 166.363 280.279 166.442 280.615 166.442C280.95 166.442 281.281 166.363 281.58 166.21C281.88 166.04 282.01 165.81 281.97 165.59L282 130.42Z" fill="#263238"/>
<path d="M300.17 129.24L291 105.8H270.32L261.13 129.24C259.83 132.91 261.62 136.87 266.55 139.71C274.34 144.21 286.96 144.21 294.74 139.71C299.68 136.87 301.48 132.91 300.17 129.24Z" fill="#54A3FF"/>
<path opacity="0.4" d="M300.17 129.24L291 105.8H270.32L261.13 129.24C259.83 132.91 261.62 136.87 266.55 139.71C274.34 144.21 286.96 144.21 294.74 139.71C299.68 136.87 301.48 132.91 300.17 129.24Z" fill="white"/>
<path d="M280.66 113.2C286.498 113.2 291.23 110.469 291.23 107.1C291.23 103.731 286.498 101 280.66 101C274.822 101 270.09 103.731 270.09 107.1C270.09 110.469 274.822 113.2 280.66 113.2Z" fill="#54A3FF"/>
<path opacity="0.7" d="M280.66 113.2C286.498 113.2 291.23 110.469 291.23 107.1C291.23 103.731 286.498 101 280.66 101C274.822 101 270.09 103.731 270.09 107.1C270.09 110.469 274.822 113.2 280.66 113.2Z" fill="white"/>
<path d="M280.66 111.7C278.404 111.754 276.173 111.227 274.18 110.17C272.67 109.3 271.84 108.17 271.84 107.1C271.84 106.03 272.67 104.9 274.18 104.03C276.188 103.017 278.406 102.49 280.655 102.49C282.904 102.49 285.122 103.017 287.13 104.03C288.65 104.9 289.48 106.03 289.48 107.1C289.48 108.17 288.65 109.3 287.13 110.17C285.14 111.226 282.912 111.753 280.66 111.7Z" fill="#54A3FF"/>
<path d="M79.5702 328.56L74.5702 325.66C73.8098 325.165 73.1765 324.497 72.7214 323.712C72.2663 322.927 72.0021 322.046 71.9502 321.14V243C72.0014 242.092 72.2652 241.21 72.7203 240.423C73.1754 239.636 73.8091 238.967 74.5702 238.47L220.17 154.4C220.979 153.99 221.873 153.777 222.78 153.777C223.687 153.777 224.581 153.99 225.39 154.4L230.44 157.29C231.204 157.785 231.839 158.453 232.294 159.24C232.75 160.028 233.012 160.912 233.06 161.82V240C233.012 240.908 232.75 241.792 232.294 242.58C231.839 243.367 231.204 244.035 230.44 244.53L84.8002 328.56C83.9893 328.97 83.0936 329.183 82.1852 329.183C81.2768 329.183 80.3811 328.97 79.5702 328.56Z" fill="#54A3FF"/>
<path opacity="0.3" d="M79.5702 328.56L74.5702 325.66C73.8098 325.165 73.1765 324.497 72.7214 323.712C72.2663 322.927 72.0021 322.046 71.9502 321.14V243C72.0014 242.092 72.2652 241.21 72.7203 240.423C73.1754 239.636 73.8091 238.967 74.5702 238.47L220.17 154.4C220.979 153.99 221.873 153.777 222.78 153.777C223.687 153.777 224.581 153.99 225.39 154.4L230.44 157.29C231.204 157.785 231.839 158.453 232.294 159.24C232.75 160.028 233.012 160.912 233.06 161.82V240C233.012 240.908 232.75 241.792 232.294 242.58C231.839 243.367 231.204 244.035 230.44 244.53L84.8002 328.56C83.9893 328.97 83.0936 329.183 82.1852 329.183C81.2768 329.183 80.3811 328.97 79.5702 328.56Z" fill="black"/>
<path d="M233.06 161.82V240C233.012 240.908 232.75 241.792 232.294 242.58C231.839 243.367 231.204 244.035 230.44 244.53L84.8002 328.56C83.3502 329.39 82.1802 328.71 82.1802 327.05V248.9C82.2298 247.992 82.4929 247.109 82.9481 246.321C83.4034 245.534 84.0379 244.866 84.8002 244.37L230.44 160.31C231.89 159.48 233.06 160.15 233.06 161.82Z" fill="#54A3FF"/>
<path opacity="0.45" d="M233.06 161.82V240C233.012 240.908 232.75 241.792 232.294 242.58C231.839 243.367 231.204 244.035 230.44 244.53L84.8002 328.56C83.3502 329.39 82.1802 328.71 82.1802 327.05V248.9C82.2298 247.992 82.4929 247.109 82.9481 246.321C83.4034 245.534 84.0379 244.866 84.8002 244.37L230.44 160.31C231.89 159.48 233.06 160.15 233.06 161.82Z" fill="black"/>
<path d="M84.19 328.83C83.4422 329.104 82.6457 329.221 81.8507 329.173C81.0557 329.124 80.2792 328.912 79.57 328.55L74.57 325.66C73.8109 325.164 73.1791 324.497 72.7257 323.711C72.2723 322.926 72.01 322.045 71.96 321.14V243C71.9903 242.093 72.2519 241.208 72.72 240.43L83 246.33C82.5319 247.108 82.2703 247.993 82.24 248.9V327.05C82.19 328.47 83.05 329.17 84.19 328.83Z" fill="#54A3FF"/>
<path opacity="0.55" d="M84.19 328.83C83.4422 329.104 82.6457 329.221 81.8507 329.173C81.0557 329.124 80.2792 328.912 79.57 328.55L74.57 325.66C73.8109 325.164 73.1791 324.497 72.7257 323.711C72.2723 322.926 72.01 322.045 71.96 321.14V243C71.9903 242.093 72.2519 241.208 72.72 240.43L83 246.33C82.5319 247.108 82.2703 247.993 82.24 248.9V327.05C82.19 328.47 83.05 329.17 84.19 328.83Z" fill="black"/>
<path d="M291.75 411.42L279.65 404.42C279.247 404.213 278.799 404.105 278.345 404.105C277.892 404.105 277.444 404.213 277.04 404.42L264.94 411.42C264.55 411.669 264.23 412.013 264.01 412.42C264.01 412.5 263.94 412.59 263.9 412.67C263.744 412.982 263.652 413.322 263.63 413.67V433.3C263.657 433.731 263.78 434.15 263.989 434.527C264.198 434.904 264.489 435.23 264.84 435.48C264.84 435.48 264.9 435.54 264.94 435.56L277.04 442.56C277.088 442.586 277.138 442.606 277.19 442.62C277.337 442.696 277.491 442.757 277.65 442.8C277.877 442.852 278.108 442.879 278.34 442.88C278.797 442.888 279.249 442.778 279.65 442.56L291.75 435.56C292.13 435.312 292.447 434.978 292.674 434.586C292.902 434.193 293.034 433.753 293.06 433.3V413.68C293.034 413.227 292.902 412.787 292.674 412.394C292.447 412.002 292.13 411.668 291.75 411.42Z" fill="#455A64"/>
<path d="M279.65 442.56L291.75 435.56C292.13 435.312 292.447 434.978 292.674 434.586C292.902 434.193 293.034 433.753 293.06 433.3V413.68C293.06 412.85 292.47 412.51 291.75 412.93L279.65 419.93C279.27 420.179 278.955 420.515 278.729 420.909C278.503 421.304 278.373 421.746 278.35 422.2V441.83C278.34 442.64 278.93 443 279.65 442.56Z" fill="#37474F"/>
<path d="M423 335.66L410.9 328.66C410.497 328.453 410.049 328.345 409.595 328.345C409.142 328.345 408.694 328.453 408.29 328.66L396.19 335.66C395.799 335.907 395.478 336.251 395.26 336.66C395.26 336.73 395.19 336.82 395.15 336.9C394.994 337.212 394.902 337.552 394.88 337.9V357.54C394.907 357.97 395.03 358.389 395.239 358.766C395.448 359.144 395.739 359.469 396.09 359.72C396.122 359.749 396.155 359.776 396.19 359.8L408.28 366.8C408.328 366.826 408.378 366.846 408.43 366.86C408.577 366.936 408.731 366.996 408.89 367.04C409.117 367.092 409.348 367.118 409.58 367.12C410.037 367.127 410.488 367.017 410.89 366.8L422.99 359.8C423.369 359.551 423.684 359.217 423.91 358.825C424.136 358.432 424.266 357.992 424.29 357.54V337.92C424.267 337.468 424.138 337.029 423.914 336.636C423.69 336.244 423.377 335.909 423 335.66Z" fill="#455A64"/>
<path d="M410.91 366.8L423.01 359.8C423.389 359.551 423.704 359.217 423.929 358.825C424.155 358.432 424.286 357.992 424.31 357.54V337.92C424.31 337.09 423.73 336.75 423.01 337.17L410.91 344.17C410.529 344.419 410.212 344.754 409.984 345.149C409.756 345.543 409.625 345.985 409.6 346.44V366.07C409.6 366.88 410.19 367.22 410.91 366.8Z" fill="#37474F"/>
<path d="M227.83 217.64L87.4102 298.69C85.8877 299.681 84.6206 301.016 83.7118 302.589C82.803 304.161 82.2782 305.926 82.1802 307.74V312.74C82.2775 314.555 82.8019 316.322 83.7106 317.896C84.6194 319.47 85.887 320.808 87.4102 321.8L273.12 429C274.739 429.824 276.529 430.253 278.345 430.253C280.161 430.253 281.952 429.824 283.57 429L423.99 348C425.513 347.008 426.781 345.67 427.69 344.096C428.599 342.522 429.123 340.755 429.22 338.94V333.94C429.122 332.126 428.597 330.362 427.689 328.789C426.78 327.216 425.513 325.881 423.99 324.89L238.28 217.64C236.662 216.816 234.871 216.387 233.055 216.387C231.239 216.387 229.449 216.816 227.83 217.64Z" fill="#455A64"/>
<path d="M429.22 333.92V338.92C429.121 340.733 428.596 342.498 427.687 344.07C426.779 345.643 425.512 346.979 423.99 347.97L283.57 429C281.963 429.849 280.167 430.276 278.35 430.24V413.24C280.168 413.278 281.966 412.847 283.57 411.99L424 330.9C426.69 329.33 426.87 326.9 424.53 325.2C425.902 326.222 427.033 327.532 427.844 329.039C428.654 330.546 429.124 332.212 429.22 333.92Z" fill="#263238"/>
<path d="M87.4202 304.73C84.6702 303.14 84.5302 300.63 87.0102 298.96C85.602 299.971 84.4376 301.285 83.602 302.804C82.7663 304.323 82.2806 306.009 82.1802 307.74V312.74C82.2775 314.555 82.8019 316.322 83.7106 317.896C84.6194 319.47 85.887 320.808 87.4102 321.8L273.12 429C274.727 429.86 276.528 430.29 278.35 430.25V413.25C276.528 413.289 274.727 412.858 273.12 412L87.4202 304.73Z" fill="#37474F"/>
<path d="M227.83 189.37L87.4102 270.42C85.8883 271.411 84.6216 272.747 83.7128 274.319C82.8041 275.892 82.279 277.656 82.1802 279.47V290.05C82.2775 291.865 82.8019 293.632 83.7106 295.206C84.6194 296.78 85.887 298.118 87.4102 299.11L273.12 406.32C274.739 407.144 276.529 407.573 278.345 407.573C280.161 407.573 281.952 407.144 283.57 406.32L423.99 325.32C425.513 324.328 426.781 322.99 427.69 321.416C428.599 319.842 429.123 318.075 429.22 316.26V305.64C429.121 303.826 428.596 302.062 427.688 300.489C426.779 298.917 425.512 297.581 423.99 296.59L238.28 189.37C236.66 188.552 234.87 188.125 233.055 188.125C231.24 188.125 229.45 188.552 227.83 189.37Z" fill="#54A3FF"/>
<path opacity="0.8" d="M87.4102 276.46L273.12 383.67C274.739 384.494 276.529 384.923 278.345 384.923C280.161 384.923 281.952 384.494 283.57 383.67L423.99 302.67C426.88 301 426.88 298.3 423.99 296.67L238.28 189.37C236.66 188.552 234.87 188.125 233.055 188.125C231.24 188.125 229.45 188.552 227.83 189.37L87.4102 270.42C84.5202 272.09 84.5202 274.79 87.4102 276.46Z" fill="white"/>
<path opacity="0.5" d="M429.22 305.65V316.23C429.114 318.035 428.585 319.789 427.676 321.353C426.768 322.916 425.505 324.244 423.99 325.23L283.57 406.33C281.963 407.179 280.167 407.606 278.35 407.57V384.92C280.167 384.956 281.963 384.529 283.57 383.68L424 302.63C426.69 301.06 426.87 298.63 424.53 296.93C425.901 297.953 427.032 299.263 427.842 300.77C428.652 302.276 429.123 303.942 429.22 305.65Z" fill="white"/>
<path opacity="0.6" d="M87.4202 276.46C84.6702 274.88 84.5302 272.36 87.0102 270.69C85.6031 271.702 84.4394 273.016 83.6039 274.535C82.7683 276.053 82.282 277.739 82.1802 279.47V290.05C82.2775 291.865 82.8019 293.632 83.7106 295.206C84.6194 296.78 85.887 298.118 87.4102 299.11L273.12 406.32C274.727 407.18 276.528 407.61 278.35 407.57V384.92C276.53 384.957 274.73 384.531 273.12 383.68L87.4202 276.46Z" fill="white"/>
<path d="M112 290.67V330.31L278.32 426.31V384.92C276.496 384.955 274.692 384.525 273.08 383.67L112 290.67Z" fill="#54A3FF"/>
<path opacity="0.3" d="M112 290.67V330.31L278.32 426.31V384.92C276.496 384.955 274.692 384.525 273.08 383.67L112 290.67Z" fill="black"/>
<path d="M424 302.63C426.69 301.06 426.87 298.63 424.53 296.93C425.903 297.952 427.036 299.262 427.848 300.768C428.66 302.275 429.132 303.941 429.23 305.65V339.25L278.35 426.33V384.92C280.167 384.954 281.963 384.527 283.57 383.68L424 302.63Z" fill="#54A3FF"/>
<path opacity="0.45" d="M424 302.63C426.69 301.06 426.87 298.63 424.53 296.93C425.903 297.952 427.036 299.262 427.848 300.768C428.66 302.275 429.132 303.941 429.23 305.65V339.25L278.35 426.33V384.92C280.167 384.954 281.963 384.527 283.57 383.68L424 302.63Z" fill="black"/>
<path d="M424 296.59L262.92 203.59L112 290.67L273.09 383.67C274.709 384.494 276.499 384.923 278.315 384.923C280.131 384.923 281.921 384.494 283.54 383.67L423.96 302.67C426.88 301 426.88 298.26 424 296.59Z" fill="#54A3FF"/>
<path opacity="0.2" d="M424 296.59L262.92 203.59L112 290.67L273.09 383.67C274.709 384.494 276.499 384.923 278.315 384.923C280.131 384.923 281.921 384.494 283.54 383.67L423.96 302.67C426.88 301 426.88 298.26 424 296.59Z" fill="black"/>
<path opacity="0.2" d="M131.65 302V341.71L134.11 343.05L134.1 303.41L131.65 302Z" fill="black"/>
<path opacity="0.1" d="M131.65 302L282.54 214.9L285.09 216.4L134.1 303.41L131.65 302Z" fill="black"/>
<path d="M262.83 213.26C264.53 207.05 262.03 203.81 258.6 198.04C255.17 192.27 247.22 181.12 243.96 176.34C240.7 171.56 237.07 166.87 235.11 166.21C233.15 165.55 231.85 164.77 226.68 166.63C221.51 168.49 210.79 174.87 197.51 182.19C184.23 189.51 166.51 199.91 165.71 207.07C165.21 211.51 188.59 250.52 194.27 251.07C206.92 252.37 220.27 242.94 227.27 238.69C239.01 231.61 247.41 226.38 255.55 220.87C259.25 218.4 262.05 216.14 262.83 213.26Z" fill="#F0F0F0"/>
<path d="M171.86 222.72C174.96 227.72 183.97 241.36 187.1 245.39C190.23 249.42 195.67 254 196.94 248.83C198.21 243.66 193.36 237.14 190.08 232.02C186.8 226.9 177.6 214.81 174.63 210.86C171.66 206.91 166.69 203.06 165.52 207.68C164.35 212.3 168.77 217.7 171.86 222.72Z" fill="#E0E0E0"/>
<path d="M192 254.61C193.7 248.4 191.19 245.16 187.76 239.39C184.33 233.62 176.39 222.47 173.13 217.69C169.87 212.91 166.24 208.22 164.28 207.56C162.32 206.9 161.01 206.12 155.85 207.98C150.69 209.84 139.95 216.22 126.68 223.54C113.41 230.86 95.6803 241.25 94.8803 248.42C94.3703 252.85 117.76 291.87 123.44 292.42C136.08 293.72 149.44 284.29 156.44 280.04C168.19 272.96 176.59 267.73 184.72 262.21C188.4 259.75 191.2 257.49 192 254.61Z" fill="#F0F0F0"/>
<path d="M101 264.07C104.09 269.07 113.11 282.71 116.24 286.74C119.37 290.77 124.81 295.34 126.07 290.18C127.33 285.02 122.5 278.49 119.21 273.37C115.92 268.25 106.74 256.16 103.76 252.21C100.78 248.26 95.8204 244.41 94.6504 249.03C93.4804 253.65 97.9304 259.05 101 264.07Z" fill="#E0E0E0"/>
<path opacity="0.2" d="M349.13 299.64C345.801 298.142 342.307 297.041 338.72 296.36C331.03 294.75 323.07 294.06 315.52 292.12C307.52 290.05 299.61 287.83 291.43 286.47C283.018 284.953 274.791 282.543 266.89 279.28L265.94 278.9C253.75 274 242 266.09 229.1 263.35C221.717 261.77 214.086 261.74 206.69 263.26C205.05 263.6 203.2 264.21 202.58 265.77C201.74 267.9 203.75 269.96 205.23 271.71C209.81 277.11 210.44 284.9 214.43 290.71C218.54 296.71 226.43 301.94 233.14 304.8C243.34 309.15 250.63 311.64 261.14 315.25C266.39 317.06 273.83 318.49 278.7 321.18C285.17 324.76 292.97 329.52 299.1 333.65C306.33 338.51 315.1 342.88 323.75 344.3C328.47 345.08 333.56 344.64 337.62 342.12C338.2 341.76 338.83 341.21 338.72 340.53C338.61 339.85 337.72 339.53 337.05 339.35L332.79 338.35C332.36 338.25 331.84 338.03 331.86 337.59C331.88 337.15 332.34 337 332.73 336.9C333.34 336.786 333.922 336.551 334.44 336.21C334.693 336.03 334.881 335.773 334.978 335.478C335.076 335.184 335.076 334.865 334.98 334.57C334.65 333.83 333.65 333.73 332.84 333.74C326.57 333.81 320.11 333.55 314.39 330.98C312.92 330.32 311.62 329.57 311.51 327.88C311.422 326.988 311.511 326.087 311.771 325.228C312.032 324.37 312.46 323.572 313.03 322.88C314.336 321.471 315.947 320.38 317.74 319.69C320.44 318.5 323.24 317.92 325.81 316.35C328.314 314.829 330.496 312.831 332.23 310.47C332.632 309.833 333.139 309.268 333.73 308.8C334.97 307.97 336.16 308.33 337.49 308.39C339.11 308.46 340.75 308.44 342.36 308.39C345.59 308.369 348.797 307.853 351.87 306.86C352.828 306.606 353.679 306.052 354.3 305.28C356 302.63 350.84 300.46 349.13 299.64Z" fill="black"/>
<path opacity="0.1" d="M370.039 273.819C381.884 261.974 381.884 242.77 370.039 230.926C358.195 219.081 338.991 219.081 327.146 230.926C315.302 242.77 315.302 261.974 327.146 273.819C338.991 285.663 358.195 285.663 370.039 273.819Z" fill="#54A3FF"/>
<path opacity="0.1" d="M377.019 280.798C392.718 265.099 392.718 239.645 377.019 223.946C361.32 208.247 335.866 208.247 320.167 223.946C304.468 239.645 304.468 265.099 320.167 280.798C335.866 296.497 361.32 296.497 377.019 280.798Z" fill="#54A3FF"/>
<path opacity="0.1" d="M398.036 260.404C402.467 233.103 383.928 207.378 356.627 202.947C329.326 198.515 303.601 217.055 299.17 244.356C294.738 271.657 313.277 297.381 340.578 301.813C367.88 306.244 393.604 287.705 398.036 260.404Z" fill="#54A3FF"/>
<path d="M317.08 242.68C316.98 246.22 316.83 249.76 316.51 253.28C316.399 256.166 315.8 259.013 314.74 261.7C313.381 264.543 311.227 266.933 308.54 268.58C305.854 270.205 302.891 271.32 299.8 271.87C296.019 272.655 292.083 272.13 288.64 270.38C285.84 268.89 283.57 266.08 283.46 262.91C283.35 259.74 285.93 256.5 289.1 256.55C288.199 255.785 287.516 254.796 287.119 253.683C286.721 252.569 286.624 251.371 286.837 250.208C287.05 249.046 287.565 247.959 288.331 247.059C289.097 246.159 290.087 245.476 291.2 245.08C292.702 244.668 294.245 244.43 295.8 244.37C297.74 244.13 299.5 243.77 300.88 242.28C301.764 241.237 302.479 240.063 303 238.8C304.19 236.23 305.18 233.57 306.56 231.11C307.872 228.582 309.859 226.467 312.3 225C314.299 223.799 316.664 223.359 318.96 223.76C320.29 223.95 321.21 224.08 320.56 225.85C320.27 226.64 318.49 228.38 318.32 229.23C317.818 231.275 317.444 233.349 317.2 235.44C317 237.81 317.14 240.28 317.08 242.68Z" fill="#263238"/>
<path d="M347 263.44C347.85 263.04 348.8 257.59 348.39 253.58C347.98 249.57 349.83 248.81 350.56 250.13C350.986 250.87 351.264 251.685 351.38 252.53C353.197 253.161 354.803 254.282 356.02 255.77C357.9 258.18 360.12 261.1 358.74 266.83C358.48 267.93 357.26 269.36 356.6 270.95C355.6 273.43 356.38 284.15 355.49 295.28C355.23 298.52 354.26 303.82 351.29 304.84C348 306 344 302.52 341.57 300C334.3 292.58 328.31 284.95 328.31 284.95L322.59 257.63C329.59 255.4 332.19 259.02 335.98 265.91C340.74 274.56 344.98 283.21 344.98 283.21C346.1 276.21 346.92 274.87 345.52 271.96" fill="#FFA8A7"/>
<path d="M360 253.36L341.57 241.83C341.4 241.707 341.2 241.631 340.991 241.61C340.782 241.588 340.571 241.623 340.38 241.71C340.09 241.87 338.93 242.44 338.61 242.59C338.43 242.677 338.275 242.81 338.161 242.974C338.047 243.139 337.978 243.33 337.96 243.53L336 254.78C335.941 255.284 336.019 255.795 336.227 256.258C336.435 256.721 336.764 257.119 337.18 257.41L355.62 268.94C355.778 269.055 355.962 269.129 356.156 269.155C356.35 269.181 356.547 269.159 356.73 269.09C357.06 268.95 358.32 268.33 358.65 268.15C358.809 268.053 358.944 267.92 359.043 267.762C359.142 267.604 359.202 267.425 359.22 267.24C359.71 264.42 360.67 258.82 361.15 256C361.215 255.497 361.143 254.986 360.941 254.521C360.738 254.056 360.413 253.655 360 253.36Z" fill="#54A3FF"/>
<path opacity="0.35" d="M358.15 254.27L339.71 242.74C339.536 242.609 339.327 242.53 339.11 242.513C338.892 242.495 338.674 242.539 338.48 242.64L338.58 242.58C338.91 242.44 340.07 241.86 340.36 241.71C340.549 241.621 340.759 241.585 340.967 241.606C341.175 241.627 341.373 241.705 341.54 241.83L360 253.37C360.255 253.541 360.475 253.758 360.65 254.01L358.83 254.9C358.83 254.9 358.83 254.9 358.88 254.99C358.694 254.699 358.444 254.453 358.15 254.27Z" fill="black"/>
<path opacity="0.45" d="M337.19 257.41L355.63 268.94C355.786 269.066 355.973 269.147 356.171 269.173C356.37 269.199 356.571 269.169 356.754 269.087C356.936 269.005 357.092 268.874 357.205 268.709C357.317 268.543 357.381 268.35 357.39 268.15C357.88 265.33 358.84 259.73 359.32 256.9C359.384 256.397 359.308 255.885 359.102 255.422C358.896 254.958 358.567 254.56 358.15 254.27L339.71 242.74C339.555 242.611 339.367 242.528 339.167 242.5C338.967 242.473 338.764 242.502 338.579 242.584C338.395 242.666 338.238 242.798 338.125 242.966C338.012 243.133 337.948 243.328 337.94 243.53L336 254.78C335.942 255.285 336.022 255.796 336.232 256.26C336.441 256.723 336.773 257.12 337.19 257.41Z" fill="black"/>
<path opacity="0.35" d="M357.4 261.21C357.573 261.344 357.708 261.52 357.792 261.721C357.876 261.923 357.907 262.143 357.88 262.36C357.877 262.445 357.85 262.528 357.802 262.599C357.755 262.67 357.688 262.727 357.61 262.762C357.532 262.797 357.446 262.81 357.361 262.799C357.277 262.788 357.196 262.754 357.13 262.7C356.954 262.569 356.818 262.393 356.735 262.19C356.652 261.988 356.626 261.766 356.66 261.55C356.661 261.465 356.686 261.381 356.732 261.309C356.779 261.238 356.845 261.181 356.922 261.145C357 261.109 357.086 261.097 357.171 261.108C357.255 261.12 357.335 261.155 357.4 261.21Z" fill="black"/>
<path d="M338.65 256.6C338.465 256.457 338.319 256.272 338.223 256.059C338.127 255.846 338.085 255.613 338.1 255.38L340.1 244.18L356.6 254.55C356.784 254.694 356.93 254.88 357.026 255.092C357.121 255.305 357.164 255.537 357.15 255.77L355.15 266.96L338.65 256.6Z" fill="#54A3FF"/>
<path opacity="0.7" d="M338.65 256.6C338.465 256.457 338.319 256.272 338.223 256.059C338.127 255.846 338.085 255.613 338.1 255.38L340.1 244.18L356.6 254.55C356.784 254.694 356.93 254.88 357.026 255.092C357.121 255.305 357.164 255.537 357.15 255.77L355.15 266.96L338.65 256.6Z" fill="white"/>
<path d="M355.23 266.49L355.15 266.96L338.64 256.6C338.459 256.455 338.316 256.268 338.222 256.056C338.128 255.843 338.086 255.612 338.1 255.38L340.1 244.18L340.5 244.44L338.57 255.17C338.556 255.403 338.599 255.635 338.695 255.848C338.791 256.06 338.937 256.246 339.12 256.39L355.23 266.49Z" fill="#54A3FF"/>
<path opacity="0.55" d="M361.16 256C360.68 258.82 359.71 264.42 359.23 267.24C359.215 267.426 359.155 267.606 359.056 267.764C358.957 267.923 358.821 268.055 358.66 268.15C358.33 268.33 357.07 268.95 356.75 269.15H356.67C356.875 269.07 357.052 268.934 357.181 268.757C357.311 268.579 357.387 268.369 357.4 268.15C357.88 265.33 358.84 259.73 359.32 256.9C359.417 256.191 359.23 255.472 358.8 254.9L360.64 254C361.061 254.577 361.246 255.292 361.16 256Z" fill="black"/>
<path d="M346.7 263.41C346.12 262.8 346.08 261.02 345.17 259.41C344.11 257.52 341.17 257.67 341.92 259.18C342.67 260.69 342.83 262.03 343.08 265.74C343.33 269.45 344.15 269.83 345.5 271.98L347.01 263.64L346.7 263.41Z" fill="#FFA8A7"/>
<path d="M357.17 245.48H357.1C357.002 245.472 356.906 245.445 356.818 245.4C356.731 245.355 356.653 245.293 356.59 245.218C356.526 245.142 356.479 245.055 356.45 244.961C356.42 244.867 356.41 244.768 356.42 244.67L356.96 238.85C356.977 238.651 357.073 238.467 357.226 238.339C357.379 238.21 357.576 238.148 357.775 238.165C357.974 238.182 358.158 238.278 358.286 238.431C358.415 238.583 358.477 238.781 358.46 238.98L357.91 244.81C357.893 244.994 357.807 245.165 357.67 245.289C357.533 245.412 357.355 245.481 357.17 245.48Z" fill="#54A3FF"/>
<path d="M361.9 247.63C361.736 247.632 361.577 247.575 361.45 247.47C361.293 247.349 361.19 247.171 361.163 246.974C361.137 246.777 361.19 246.578 361.31 246.42L365.22 241.36C365.34 241.216 365.508 241.122 365.693 241.097C365.878 241.071 366.066 241.115 366.22 241.22C366.299 241.28 366.364 241.355 366.414 241.44C366.463 241.526 366.494 241.62 366.506 241.718C366.518 241.816 366.511 241.915 366.484 242.01C366.457 242.105 366.412 242.193 366.35 242.27L362.45 247.34C362.384 247.424 362.301 247.494 362.206 247.544C362.112 247.594 362.007 247.623 361.9 247.63Z" fill="#54A3FF"/>
<path d="M364.78 252C364.603 252 364.431 251.936 364.296 251.821C364.16 251.706 364.07 251.547 364.042 251.372C364.013 251.197 364.047 251.017 364.138 250.865C364.23 250.712 364.372 250.597 364.54 250.54L370.37 248.54C370.558 248.475 370.765 248.488 370.944 248.575C371.123 248.662 371.26 248.817 371.325 249.005C371.39 249.193 371.378 249.4 371.29 249.579C371.203 249.758 371.048 249.895 370.86 249.96L365.03 251.96C364.95 251.988 364.865 252.001 364.78 252Z" fill="#54A3FF"/>
<path d="M345 283.2C344.07 286.44 342 292.01 343 294.72C343 294.72 340 290.66 343.71 280.6L345 283.2Z" fill="#F28F8F"/>
<path d="M225.57 206.41C227.091 206.961 228.44 207.902 229.48 209.14C230.6 210.669 231.09 212.57 230.85 214.45C230.66 215.97 229.97 217.74 229.96 219.26C230.17 221.342 230.623 223.393 231.31 225.37C233.62 232.783 236.482 240.013 239.87 247C242.8 253.33 246.27 259.92 247.63 266.83C255.4 268.23 263.34 270.26 266.89 271.04C269.714 271.005 272.527 271.403 275.23 272.22C287.23 276.6 288.53 286.48 291.96 292.47L283 301.23C270.85 294.37 244.81 282.23 238.38 279.23C231.95 276.23 229.71 275.66 228.08 272.9C226.7 270.251 225.713 267.414 225.15 264.48C223.3 256.64 222.69 247.94 221.21 240.01C220.42 235.77 219.63 231.53 218.81 227.3C218.501 225.574 218.08 223.871 217.55 222.2C216.759 219.957 215.611 217.857 214.15 215.98C211.77 212.78 209.29 209.67 207.08 206.32C206.163 205.058 205.485 203.637 205.08 202.13C204.779 200.174 205.028 198.172 205.8 196.35C206.43 194.61 207.02 192.92 207.6 191.16C207.733 190.611 208.009 190.107 208.4 189.7C209.6 188.7 211.4 189.87 212.1 190.9C212.561 191.663 213.072 192.395 213.63 193.09C214.062 193.498 214.527 193.869 215.02 194.2C216.495 195.308 217.738 196.694 218.68 198.28C219.68 199.89 220.24 201.62 221.32 203.16C222.448 204.577 223.908 205.693 225.57 206.41Z" fill="#FFA8A7"/>
<path d="M231.1 224.67L222.62 249C223.34 254.23 224.01 259.54 225.18 264.5C225.742 267.434 226.729 270.271 228.11 272.92C229.74 275.68 231.99 276.23 238.41 279.25L238.76 279.41L239.19 279.61L239.88 279.94L240.42 280.19L241 280.46L241.59 280.74L244.13 281.94L244.47 282.1L245.67 282.66L245.98 282.81L247.47 283.51H247.57L249.29 284.32H249.35L251.88 274.72C251.64 274.8 239.59 272.72 239.59 272.72C240.869 270.017 241.551 267.07 241.59 264.08C241.73 260.9 241.68 255.08 241.59 250.61C241 249.38 240.42 248.14 239.86 246.93C236.472 239.947 233.611 232.72 231.3 225.31L231.1 224.67Z" fill="#F28F8F"/>
<path d="M280.58 274.8C278.409 272.894 275.73 271.66 272.87 271.25C269.64 270.65 268.5 270.82 266.08 270.32C263.66 269.82 259.79 268.96 259.79 268.96C259.79 268.96 257.68 268.79 254.27 270.79C250.86 272.79 245.75 277.92 245.04 284.56C244.33 291.2 247.31 294.31 247.31 294.31L267.75 300.56L280.58 274.8Z" fill="#54A3FF"/>
<path opacity="0.3" d="M280.58 274.8C278.409 272.894 275.73 271.66 272.87 271.25C269.64 270.65 268.5 270.82 266.08 270.32C263.66 269.82 259.79 268.96 259.79 268.96C259.79 268.96 257.68 268.79 254.27 270.79C250.86 272.79 245.75 277.92 245.04 284.56C244.33 291.2 247.31 294.31 247.31 294.31L267.75 300.56L280.58 274.8Z" fill="white"/>
<path opacity="0.1" d="M272.69 278C267.42 273.71 258.79 276.34 258.79 276.34C258.79 276.34 252.17 274.85 249.85 274.53C249.063 275.392 248.351 276.318 247.72 277.3L250.33 281.66L259.88 283.55C259.88 283.55 278 282.24 272.69 278Z" fill="black"/>
<path d="M277.9 280.57L271.62 295.21L265.02 310.61C245.02 303.75 221.84 291.78 217.39 285.85C215.08 282.76 219.09 266.59 223.45 251.8C226.99 239.86 230.75 228.8 231.61 226.32C231.644 226.256 231.671 226.189 231.69 226.12C231.667 225.832 231.535 225.563 231.32 225.37C230.625 223.398 230.168 221.35 229.96 219.27C229.96 217.75 230.65 215.98 230.85 214.46C230.902 214.052 230.919 213.641 230.9 213.23C231.53 213.08 232.168 212.966 232.81 212.89C234.3 212.74 235.74 212.39 237.23 212.27C240 212.03 243.46 212.97 244.51 215.82C244.924 217.024 245.044 218.31 244.86 219.57C244.82 219.93 244.77 220.29 244.71 220.65C244.12 223.92 242.1 226.94 241.57 230.26C240.94 235.06 240.64 241.43 240.3 247.92C239.75 258.58 239.09 269.55 236.64 274.39C243.808 275.233 250.904 276.603 257.87 278.49C268.66 275 277.9 280.57 277.9 280.57Z" fill="#FFA8A7"/>
<path d="M230.85 214.47C230.65 215.99 229.97 217.75 229.96 219.27C230.167 221.354 230.624 223.405 231.32 225.38C231.535 225.573 231.668 225.842 231.69 226.13C231.731 224.495 231.604 222.859 231.31 221.25C231.02 219.03 232.45 215.65 232.23 212.98C231.8 213.05 231.36 213.13 230.9 213.24C230.919 213.651 230.902 214.062 230.85 214.47Z" fill="#F28F8F"/>
<path opacity="0.05" d="M227.07 275.74C233.25 276.24 236.64 274.38 236.64 274.38C237.585 272.242 238.231 269.984 238.56 267.67C236.73 273.09 227.07 275.74 227.07 275.74Z" fill="black"/>
<path d="M278.51 280.13C274.586 278.198 270.309 277.086 265.94 276.86C261.94 276.74 259.42 277.86 257.83 277.95C256.24 278.04 254.13 276.73 248.72 275.82C248.72 275.82 247.2 275.36 244.2 277.3C241.2 279.24 238.4 284.2 238.2 286.65C238.2 286.65 245.51 291.13 245.07 291.53C244.63 291.93 237.23 289.53 237.23 289.53C236.569 291.339 236.306 293.27 236.46 295.19C236.768 297.07 237.404 298.881 238.34 300.54C238.34 300.54 258.26 310.54 265.8 310.96C273.34 311.38 278.51 280.13 278.51 280.13Z" fill="#54A3FF"/>
<path opacity="0.5" d="M278.51 280.13C274.586 278.198 270.309 277.086 265.94 276.86C261.94 276.74 259.42 277.86 257.83 277.95C256.24 278.04 254.13 276.73 248.72 275.82C248.72 275.82 247.2 275.36 244.2 277.3C241.2 279.24 238.4 284.2 238.2 286.65C238.2 286.65 245.51 291.13 245.07 291.53C244.63 291.93 237.23 289.53 237.23 289.53C236.569 291.339 236.306 293.27 236.46 295.19C236.768 297.07 237.404 298.881 238.34 300.54C238.34 300.54 258.26 310.54 265.8 310.96C273.34 311.38 278.51 280.13 278.51 280.13Z" fill="white"/>
<path d="M311 258.35C305.521 259.19 300.178 260.753 295.11 263C291.43 264.89 289.68 277.29 287.19 280.92C285.278 278.472 283.029 276.308 280.51 274.49C278.12 274.27 269.97 277.95 265.41 286.87C260.56 296.36 261.52 305.93 264.68 311.22C272 313.49 280.68 316.53 295.27 315.44C301.93 314.95 311.5 309.44 316.1 306.04C319.1 303.83 320.38 302.76 322.83 300.78C333.14 298.65 333.51 289.66 331.66 282.04C329.44 272.94 328.82 267.51 325.21 261.59C323.62 258.94 318 257.45 311 258.35Z" fill="#455A64"/>
<path d="M318.34 300.51C315.5 302.26 311.24 302.32 307.34 300.9C303.44 299.48 301.21 295.02 301.34 291.53C301.34 291.53 299.15 299.53 306.19 302.53C313.68 305.78 318.19 301.48 318.34 300.51Z" fill="#37474F"/>
<path d="M336.18 253.019C344.078 249.747 347.829 240.692 344.558 232.793C341.286 224.895 332.231 221.144 324.332 224.416C316.433 227.687 312.683 236.743 315.954 244.641C319.226 252.54 328.281 256.291 336.18 253.019Z" fill="#263238"/>
<path d="M314.06 249.74L310.34 260.09L303.91 261.56C304.55 263.43 310.32 278.25 313.51 279.47C316.29 280.47 323.75 280.71 325.21 277.1C325.76 275.75 323.6 264.65 323.6 264.65L323.89 263.89L314.06 249.74Z" fill="#FFA8A7"/>
<path d="M329.74 253.13C330.74 252.44 331.74 251.69 333.03 252.38C333.585 252.725 334.061 253.181 334.43 253.72C336.229 256.137 337.163 259.088 337.08 262.1C337.029 263.851 336.631 265.574 335.91 267.17C335.24 268.66 334.1 269.84 333.63 271.41C332.99 273.53 333.45 275.8 333.69 278.01C333.87 279.114 333.825 280.242 333.559 281.328C333.292 282.414 332.81 283.435 332.14 284.33C331.919 282.518 331.366 280.762 330.51 279.15C329.624 277.841 328.62 276.616 327.51 275.49C326.077 273.938 324.872 272.191 323.93 270.3C323.405 269.235 322.999 268.115 322.72 266.96L323.93 263.89C324.85 261.77 325.11 260.22 325.93 258.08C326.341 256.98 326.85 255.919 327.45 254.91C328.084 254.166 328.863 253.56 329.74 253.13Z" fill="#263238"/>
<path d="M337.13 232.15L336.13 232.63C336.13 232.63 325.13 226.63 318.96 229.94C312.79 233.25 313.21 240.41 313.63 243.11L313.43 242.94C313.142 242.038 312.684 241.2 312.08 240.47C311.18 239.39 307.52 238.69 305.74 241.92C304.09 244.92 306.14 248.98 308.34 250.44C308.57 250.595 308.814 250.726 309.07 250.83C309.863 251.169 310.718 251.339 311.58 251.33C312.115 251.367 312.647 251.233 313.101 250.947C313.554 250.661 313.904 250.238 314.1 249.74L315.3 254C315.67 256.11 316.361 258.15 317.35 260.05C318.53 261.32 321.89 263.43 322.59 263.48L323.66 263.9C326.94 265 330.34 266.04 332.26 265.54C334.18 265.04 338.2 262.88 340.26 251.87C342.61 238.83 339.37 234 337.13 232.15Z" fill="#FFA8A7"/>
<path d="M309.73 236.08C309.73 235.83 309.63 234.17 309.73 233.95C312.1 225.61 317.87 221.86 327.88 221.83C331.145 222.053 334.303 223.084 337.07 224.83C341.21 227.38 339.92 233.17 338.18 237.54C337.721 238.835 336.936 239.991 335.901 240.894C334.866 241.798 333.616 242.42 332.27 242.7C332.066 242.76 331.85 242.764 331.644 242.711C331.438 242.658 331.25 242.551 331.1 242.4C330.977 242.156 330.931 241.881 330.97 241.61L331.21 237.24C329.725 239.666 327.702 241.719 325.297 243.238C322.892 244.757 320.169 245.702 317.34 246C316.643 246.099 315.933 246.062 315.25 245.89C313.87 245.47 313.94 244.56 313.51 243.43C313.235 242.669 312.876 241.942 312.44 241.26C311.87 240.42 310.72 240.1 310.11 239.35C309.819 238.863 309.634 238.32 309.568 237.756C309.503 237.192 309.558 236.621 309.73 236.08Z" fill="#263238"/>
<path d="M315 252.5C315 252.5 315.27 258.78 316.63 260.76C318.201 262.984 320.456 264.634 323.05 265.46L323.86 263.89C322.94 263.536 322.042 263.129 321.17 262.67C320.117 262.103 319.134 261.415 318.24 260.62C316.66 259.11 315.37 253.5 315 252.5Z" fill="#F28F8F"/>
<path d="M323.08 263.56C323.08 263.56 320.22 271.49 319.15 272.83C318.49 273.66 317.04 273.38 316.15 272.94C316.15 272.94 318.09 274.61 319.51 273.29C320.93 271.97 323.94 263.89 323.94 263.89L323.08 263.56Z" fill="#F28F8F"/>
<path d="M328.94 249.29C328.91 249.564 328.801 249.824 328.625 250.036C328.449 250.249 328.215 250.405 327.951 250.486C327.687 250.567 327.406 250.568 327.141 250.49C326.876 250.413 326.64 250.259 326.462 250.048C326.284 249.838 326.171 249.58 326.138 249.306C326.106 249.032 326.154 248.754 326.277 248.507C326.4 248.261 326.593 248.055 326.832 247.917C327.071 247.779 327.345 247.714 327.62 247.73C327.81 247.745 327.994 247.797 328.163 247.884C328.332 247.971 328.482 248.09 328.605 248.235C328.728 248.38 328.82 248.548 328.878 248.729C328.935 248.91 328.957 249.101 328.94 249.29Z" fill="#263238"/>
<path d="M328.61 244.46L325.25 245.28C325.155 244.823 325.237 244.348 325.481 243.95C325.724 243.552 326.11 243.263 326.56 243.14C326.782 243.086 327.012 243.077 327.237 243.115C327.462 243.153 327.677 243.236 327.869 243.359C328.061 243.483 328.225 243.644 328.353 243.833C328.48 244.023 328.568 244.236 328.61 244.46Z" fill="#263238"/>
<path d="M327.32 256.92L331.24 259.41C331.088 259.676 330.885 259.909 330.641 260.095C330.397 260.28 330.118 260.414 329.821 260.489C329.524 260.564 329.214 260.577 328.912 260.529C328.609 260.481 328.319 260.373 328.06 260.21C327.537 259.862 327.168 259.326 327.03 258.713C326.892 258.1 326.996 257.458 327.32 256.92Z" fill="#F28F8F"/>
<path d="M339.69 245.66L336.55 244.15C336.638 243.94 336.767 243.75 336.93 243.592C337.094 243.434 337.288 243.311 337.5 243.231C337.713 243.15 337.939 243.114 338.166 243.124C338.393 243.134 338.616 243.191 338.82 243.29C339.242 243.498 339.567 243.86 339.729 244.301C339.891 244.742 339.877 245.229 339.69 245.66Z" fill="#263238"/>
<path d="M338.72 249.29C338.712 249.479 338.667 249.665 338.588 249.837C338.508 250.009 338.396 250.163 338.256 250.291C338.117 250.419 337.954 250.519 337.776 250.584C337.598 250.649 337.409 250.678 337.22 250.67C336.838 250.634 336.485 250.45 336.238 250.156C335.991 249.862 335.87 249.483 335.9 249.1C335.908 248.911 335.953 248.726 336.033 248.555C336.112 248.384 336.225 248.23 336.365 248.102C336.504 247.975 336.667 247.877 336.845 247.813C337.023 247.749 337.212 247.721 337.4 247.73C337.782 247.763 338.134 247.946 338.382 248.238C338.629 248.53 338.751 248.908 338.72 249.29Z" fill="#263238"/>
<path d="M333 248.54L331.66 257.02L335.89 256.49L333 248.54Z" fill="#F28F8F"/>
<path d="M298.62 261.56C289.36 263.81 286.18 267.94 285.03 282.86C284.47 290.15 283.3 308.14 283.83 311.97C284.55 317.17 284.89 319.97 287.91 322.15C292.59 325.57 315.32 338.53 321.19 340.54C326.02 342.2 332.05 342.81 336.82 340.7C337.71 340.31 338.68 339.55 338.48 338.61C338.412 338.367 338.285 338.144 338.111 337.961C337.936 337.778 337.72 337.64 337.48 337.56C337.006 337.396 336.511 337.302 336.01 337.28C332.665 336.957 329.389 336.131 326.29 334.83C325.98 334.7 325.61 334.4 325.78 334.11C325.837 334.037 325.909 333.978 325.993 333.938C326.076 333.898 326.168 333.878 326.26 333.88C328.26 333.57 330.45 333.37 331.99 331.88C332.99 330.88 332.17 329.88 328.99 330.13C325.81 330.38 321.93 328.49 317.89 329.01L298.13 312.73L300.49 285.82C300.49 285.82 303.66 266.37 298.62 261.56Z" fill="#FFA8A7"/>
</svg>
