<svg width="500" height="500" viewBox="0 0 500 500" fill="none" xmlns="http://www.w3.org/2000/svg">
<path d="M250 482.63C373.392 482.63 473.42 424.879 473.42 353.64C473.42 282.401 373.392 224.65 250 224.65C126.609 224.65 26.5801 282.401 26.5801 353.64C26.5801 424.879 126.609 482.63 250 482.63Z" fill="#F0F0F0"/>
<path d="M335 363.48L362.21 379.18C363.176 379.673 364.245 379.93 365.33 379.93C366.414 379.93 367.484 379.673 368.45 379.18L424.91 346.58C426.63 345.58 426.63 343.97 424.91 342.98L397.71 327.27C396.742 326.782 395.673 326.528 394.59 326.528C393.506 326.528 392.437 326.782 391.47 327.27L335 359.87C333.27 360.87 333.27 362.48 335 363.48Z" fill="#E0E0E0"/>
<path d="M36.79 372.65L95.32 406.44L287.61 295.41L229.09 261.63L36.79 372.65Z" fill="#E0E0E0"/>
<path d="M278.45 354C303.38 354 323.59 342.332 323.59 327.94C323.59 313.547 303.38 301.88 278.45 301.88C253.519 301.88 233.31 313.547 233.31 327.94C233.31 342.332 253.519 354 278.45 354Z" fill="#E0E0E0"/>
<path d="M151.75 421.57C176.68 421.57 196.89 409.902 196.89 395.51C196.89 381.117 176.68 369.45 151.75 369.45C126.82 369.45 106.61 381.117 106.61 395.51C106.61 409.902 126.82 421.57 151.75 421.57Z" fill="#E0E0E0"/>
<path d="M279.25 154.96L467.37 263.56V130.11L279.25 21.5V154.96Z" fill="#EA67A8"/>
<path opacity="0.8" d="M279.25 154.96L467.37 263.56V130.11L279.25 21.5V154.96Z" fill="white"/>
<path d="M384.59 99.6499C385.236 98.6463 385.6 97.4872 385.644 96.2943C385.688 95.1014 385.41 93.9187 384.839 92.8703C384.269 91.8219 383.426 90.9465 382.401 90.3358C381.375 89.7252 380.204 89.4019 379.01 89.3999C378.481 89.4048 377.954 89.4719 377.44 89.5999H377.36C373.47 90.4699 363.11 93.7599 355.62 98.5999L365.38 114.72L365.7 114.52C370.95 111.36 380.19 104.27 383.53 100.85C383.841 100.541 384.126 100.207 384.38 99.8499L384.59 99.6499Z" fill="#E0E0E0"/>
<path d="M353.71 102.93C353.835 105.244 354.504 107.496 355.663 109.503C356.822 111.51 358.438 113.215 360.38 114.48C364.06 116.61 367.04 114.88 367.04 110.63C366.916 108.316 366.249 106.065 365.092 104.058C363.934 102.051 362.32 100.346 360.38 99.0798C356.69 96.9998 353.71 98.6698 353.71 102.93Z" fill="#EBEBEB"/>
<path d="M355.59 104C355.677 105.662 356.157 107.279 356.989 108.72C357.822 110.161 358.984 111.384 360.38 112.29C363.02 113.82 365.16 112.58 365.16 109.53C365.07 107.87 364.59 106.255 363.76 104.814C362.929 103.374 361.771 102.15 360.38 101.24C357.73 99.73 355.59 101 355.59 104Z" fill="#E0E0E0"/>
<path d="M395.031 88.3298L360.351 68.2998L371.341 102L395.031 88.3298Z" fill="#F0F0F0"/>
<path d="M395 125.29C395 125.29 350.09 151.23 344.31 154.55C338.53 157.87 328.4 162.55 320.67 163.22C312.08 163.99 308.82 162.22 306.97 160.71C303.13 157.63 305.52 150.64 309.63 146.85C310.459 142.853 312.309 139.139 315 136.07C319.46 130.95 333.57 122.66 345.92 115.42C358.27 108.18 395 88.3296 395 88.3296L427 106.81L395 125.29Z" fill="#FAFAFA"/>
<path d="M314.53 144.43L312.89 149.06C311.621 148.655 310.498 147.886 309.66 146.85C309.97 145.26 310.46 143.71 311.12 142.23C312.111 143.168 313.267 143.914 314.53 144.43Z" fill="#EA67A8"/>
<path d="M320.221 145.32L320.061 150.32C317.836 150.418 315.614 150.078 313.521 149.32L315.161 144.68C316.789 145.221 318.508 145.439 320.221 145.32Z" fill="#EA67A8"/>
<path d="M320.94 145.27C322.903 145.07 324.832 144.619 326.68 143.93V148.93C324.784 149.641 322.799 150.088 320.78 150.26L320.94 145.27Z" fill="#EA67A8"/>
<path d="M331.001 141.91V146.85C329.843 147.528 328.636 148.12 327.391 148.62V143.62C328.636 143.144 329.843 142.572 331.001 141.91Z" fill="#EA67A8"/>
<g opacity="0.7">
<path opacity="0.7" d="M314.53 144.429L312.89 149.059C311.621 148.654 310.498 147.886 309.66 146.85C309.97 145.259 310.46 143.709 311.12 142.229C312.111 143.168 313.267 143.914 314.53 144.429Z" fill="white"/>
<path opacity="0.7" d="M320.221 145.32L320.061 150.32C317.836 150.418 315.614 150.078 313.521 149.32L315.161 144.68C316.789 145.221 318.508 145.439 320.221 145.32Z" fill="white"/>
<path opacity="0.7" d="M320.94 145.27C322.903 145.07 324.832 144.619 326.68 143.93V148.93C324.784 149.641 322.799 150.088 320.78 150.26L320.94 145.27Z" fill="white"/>
<path opacity="0.7" d="M331.001 141.91V146.85C329.843 147.528 328.636 148.12 327.391 148.62V143.62C328.636 143.144 329.843 142.572 331.001 141.91Z" fill="white"/>
</g>
<path d="M343.41 149.09C343.225 149.09 343.042 149.041 342.88 148.95C342.684 148.819 342.526 148.638 342.424 148.425C342.322 148.212 342.279 147.975 342.3 147.74V137.74C342.325 137.19 342.482 136.654 342.757 136.178C343.032 135.701 343.417 135.297 343.88 135L346.88 133.25C347.067 133.1 347.295 133.01 347.534 132.992C347.773 132.974 348.012 133.029 348.22 133.149C348.427 133.269 348.594 133.448 348.697 133.664C348.801 133.881 348.837 134.123 348.8 134.36V144.36C348.773 144.91 348.615 145.446 348.338 145.923C348.062 146.4 347.675 146.803 347.21 147.1L344.21 148.85C343.97 148.999 343.694 149.082 343.41 149.09ZM347.7 133.64C347.534 133.65 347.372 133.701 347.23 133.79L344.23 135.53C343.868 135.773 343.566 136.096 343.348 136.474C343.129 136.852 343 137.274 342.97 137.71V147.71C342.957 147.83 342.974 147.951 343.02 148.063C343.065 148.174 343.138 148.273 343.23 148.35C343.342 148.389 343.461 148.401 343.578 148.384C343.695 148.366 343.805 148.32 343.9 148.25L346.9 146.5C347.264 146.26 347.566 145.939 347.785 145.563C348.004 145.186 348.132 144.764 348.16 144.33V134.33C348.176 134.211 348.162 134.09 348.118 133.978C348.074 133.866 348.003 133.767 347.91 133.69C347.845 133.657 347.773 133.64 347.7 133.64Z" fill="#E0E0E0"/>
<path d="M357.68 132.44V135.09C357.68 135.63 358.06 135.85 358.53 135.58L359.53 135.02C359.777 134.859 359.983 134.642 360.131 134.387C360.279 134.131 360.364 133.844 360.38 133.55V130.89C360.38 130.35 360 130.13 359.53 130.4L358.53 130.96C358.281 131.122 358.075 131.34 357.927 131.598C357.779 131.855 357.695 132.143 357.68 132.44Z" fill="#E0E0E0"/>
<path d="M373.69 123.19V125.84C373.69 126.39 374.07 126.61 374.54 126.34L375.54 125.78C375.789 125.618 375.995 125.399 376.143 125.142C376.291 124.885 376.376 124.596 376.39 124.3V121.65C376.39 121.11 376.01 120.89 375.54 121.16L374.54 121.72C374.293 121.88 374.087 122.097 373.939 122.353C373.791 122.608 373.706 122.895 373.69 123.19Z" fill="#E0E0E0"/>
<path d="M379 120.11V122.76C379 123.31 379.38 123.53 379.86 123.26L380.86 122.7C381.108 122.538 381.315 122.319 381.463 122.062C381.61 121.805 381.695 121.516 381.71 121.22V118.57C381.71 118.03 381.33 117.81 380.86 118.08L379.86 118.64C379.61 118.799 379.401 119.015 379.252 119.271C379.102 119.526 379.016 119.814 379 120.11Z" fill="#E0E0E0"/>
<path d="M384.36 117V119.65C384.36 120.2 384.74 120.42 385.21 120.15L386.21 119.59C386.46 119.428 386.668 119.21 386.818 118.953C386.967 118.696 387.054 118.407 387.07 118.11V115.46C387.07 114.92 386.68 114.7 386.21 114.97L385.21 115.53C384.963 115.69 384.757 115.907 384.609 116.163C384.461 116.418 384.376 116.705 384.36 117Z" fill="#E0E0E0"/>
<path d="M403 106.25V108.9C403 109.45 403.38 109.67 403.85 109.4L404.85 108.84C405.098 108.678 405.305 108.459 405.453 108.202C405.6 107.945 405.685 107.656 405.7 107.36V104.71C405.7 104.17 405.32 103.95 404.85 104.22L403.85 104.77C403.603 104.934 403.398 105.153 403.25 105.41C403.103 105.667 403.017 105.954 403 106.25Z" fill="#E0E0E0"/>
<path d="M408.37 103.17V105.82C408.37 106.37 408.75 106.59 409.22 106.31L410.22 105.76C410.469 105.598 410.675 105.379 410.823 105.122C410.97 104.865 411.055 104.576 411.07 104.28V101.63C411.07 101.09 410.69 100.87 410.22 101.14L409.22 101.69C408.973 101.854 408.768 102.073 408.621 102.33C408.473 102.586 408.387 102.874 408.37 103.17Z" fill="#E0E0E0"/>
<path d="M414.561 103.23L415.561 102.68C415.809 102.518 416.015 102.299 416.163 102.042C416.311 101.785 416.396 101.496 416.411 101.2V100.65L414.001 99.25C413.85 99.5053 413.764 99.7937 413.751 100.09V102.74C413.701 103.29 414.081 103.51 414.561 103.23Z" fill="#E0E0E0"/>
<path d="M389.69 114V116.65C389.69 117.2 390.08 117.42 390.55 117.15L391.55 116.59C391.799 116.428 392.005 116.209 392.153 115.952C392.301 115.695 392.386 115.406 392.4 115.11V112.46C392.4 111.92 392.02 111.7 391.55 111.97L390.55 112.52C390.302 112.683 390.096 112.902 389.946 113.159C389.797 113.416 389.71 113.704 389.69 114Z" fill="#E0E0E0"/>
<path d="M395 110.87V113.52C395 114.07 395.38 114.29 395.85 114.01L396.85 113.46C397.1 113.298 397.308 113.08 397.457 112.823C397.607 112.566 397.693 112.277 397.71 111.98V109.33C397.71 108.79 397.32 108.57 396.85 108.84L395.85 109.39C395.603 109.554 395.398 109.773 395.25 110.03C395.103 110.287 395.017 110.574 395 110.87Z" fill="#E0E0E0"/>
<path d="M363 129.35V132C363 132.54 363.38 132.76 363.85 132.49L364.85 131.93C365.098 131.768 365.305 131.549 365.453 131.292C365.6 131.035 365.685 130.746 365.7 130.45V127.8C365.7 127.26 365.32 127.04 364.85 127.31L363.85 127.87C363.601 128.031 363.394 128.25 363.246 128.507C363.099 128.764 363.014 129.053 363 129.35Z" fill="#E0E0E0"/>
<path d="M435.25 129C435.951 127.93 436.323 126.679 436.32 125.4C436.32 123.639 435.62 121.95 434.375 120.705C433.13 119.459 431.441 118.76 429.68 118.76C429.148 118.761 428.618 118.825 428.1 118.95H428.03C424.14 119.82 413.78 123.11 406.29 128L416.08 144L416.4 143.8C421.65 140.64 430.89 133.56 434.23 130.13C434.544 129.823 434.828 129.489 435.08 129.13L435.25 129Z" fill="#E0E0E0"/>
<path d="M404.36 132.22C404.484 134.531 405.15 136.78 406.303 138.787C407.457 140.793 409.066 142.5 411 143.77C414.69 145.9 417.67 144.17 417.67 139.92C417.546 137.606 416.877 135.354 415.718 133.347C414.559 131.34 412.942 129.635 411 128.37C407.35 126.24 404.36 128 404.36 132.22Z" fill="#EBEBEB"/>
<path d="M406.25 133.31C406.337 134.967 406.812 136.581 407.637 138.021C408.462 139.461 409.614 140.687 411 141.6C413.65 143.12 415.79 141.89 415.79 138.83C415.7 137.169 415.22 135.552 414.387 134.111C413.555 132.671 412.394 131.447 411 130.54C408.39 129 406.25 130.26 406.25 133.31Z" fill="#E0E0E0"/>
<path d="M392.36 123.56H456.06L424.37 105.27L392.36 123.56Z" fill="#F0F0F0"/>
<path d="M272.4 253.45L270.34 249.89L274.52 247.47C275.319 246.905 275.935 246.117 276.29 245.205C276.646 244.293 276.726 243.297 276.52 242.34L270.63 218.54C269.814 215.972 268.15 213.758 265.91 212.26L241.35 198.1C240.68 197.71 240.35 197.76 240.26 197.79C240.17 197.82 239.98 198.12 239.98 198.89V217.56C239.92 219.42 239.416 221.238 238.509 222.863C237.603 224.488 236.321 225.872 234.77 226.9L230.59 229.32L228.53 225.75L232.71 223.34C233.641 222.679 234.408 221.815 234.956 220.814C235.503 219.813 235.816 218.7 235.87 217.56V198.89C235.756 197.968 235.916 197.033 236.329 196.202C236.743 195.37 237.392 194.678 238.197 194.213C239.001 193.748 239.924 193.531 240.851 193.587C241.778 193.643 242.668 193.971 243.41 194.53L267.94 208.7C271.143 210.763 273.505 213.901 274.6 217.55L280.49 241.35C280.913 243.171 280.764 245.078 280.065 246.812C279.365 248.546 278.148 250.022 276.58 251.04L272.4 253.45Z" fill="#37474F"/>
<path d="M95.9996 347.69H90.8496V393.9C90.8787 394.117 90.9629 394.323 91.0942 394.498C91.2255 394.673 91.3995 394.811 91.5996 394.9C92.1592 395.183 92.7775 395.33 93.4046 395.33C94.0317 395.33 94.65 395.183 95.2096 394.9C95.4097 394.811 95.5837 394.673 95.715 394.498C95.8463 394.323 95.9305 394.117 95.9596 393.9L95.9996 347.69Z" fill="#37474F"/>
<path d="M62.5202 328.42H57.4102V374.62C57.4364 374.836 57.5184 375.042 57.6481 375.218C57.7778 375.393 57.9508 375.532 58.1502 375.62C58.7111 375.905 59.3312 376.053 59.9602 376.053C60.5891 376.053 61.2093 375.905 61.7702 375.62C61.9719 375.534 62.1475 375.396 62.2791 375.22C62.4108 375.045 62.4939 374.838 62.5202 374.62V328.42Z" fill="#37474F"/>
<path d="M138.81 323H133.69V369.21C133.716 369.427 133.797 369.633 133.927 369.809C134.057 369.984 134.231 370.122 134.43 370.21C134.991 370.495 135.611 370.643 136.24 370.643C136.869 370.643 137.49 370.495 138.05 370.21C138.252 370.123 138.427 369.985 138.558 369.81C138.69 369.634 138.773 369.428 138.8 369.21L138.81 323Z" fill="#37474F"/>
<path d="M105.36 303.68H100.25V349.88C100.276 350.098 100.359 350.305 100.491 350.481C100.623 350.656 100.798 350.794 101 350.88C101.56 351.163 102.178 351.311 102.805 351.311C103.432 351.311 104.05 351.163 104.61 350.88C104.812 350.794 104.987 350.656 105.119 350.481C105.251 350.305 105.334 350.098 105.36 349.88V303.68Z" fill="#37474F"/>
<path d="M181.65 298.22H176.54V344.42C176.567 344.638 176.651 344.844 176.782 345.02C176.914 345.195 177.089 345.333 177.29 345.42C177.85 345.703 178.468 345.851 179.095 345.851C179.722 345.851 180.34 345.703 180.9 345.42C181.101 345.333 181.276 345.195 181.408 345.02C181.539 344.844 181.623 344.638 181.65 344.42V298.22Z" fill="#37474F"/>
<path d="M148.21 278.94H143.1V325.14C143.12 325.366 143.201 325.582 143.333 325.766C143.464 325.951 143.643 326.097 143.85 326.19C144.409 326.473 145.028 326.62 145.655 326.62C146.282 326.62 146.9 326.473 147.46 326.19C147.666 326.097 147.845 325.951 147.977 325.766C148.108 325.582 148.189 325.366 148.21 325.14V278.94Z" fill="#37474F"/>
<path d="M224.5 273.48H219.39V319.68C219.417 319.897 219.5 320.104 219.632 320.28C219.763 320.455 219.938 320.593 220.14 320.68C220.699 320.963 221.318 321.11 221.945 321.11C222.572 321.11 223.19 320.963 223.75 320.68C223.951 320.593 224.126 320.455 224.257 320.28C224.389 320.104 224.472 319.897 224.5 319.68V273.48Z" fill="#37474F"/>
<path d="M191.06 254.2H185.94V300.4C185.961 300.626 186.042 300.842 186.173 301.027C186.305 301.211 186.484 301.357 186.69 301.45C187.251 301.735 187.871 301.883 188.5 301.883C189.129 301.883 189.75 301.735 190.31 301.45C190.517 301.357 190.696 301.211 190.827 301.027C190.959 300.842 191.04 300.626 191.06 300.4V254.2Z" fill="#37474F"/>
<path d="M267.35 248.74H262.23V294.94C262.257 295.158 262.34 295.365 262.471 295.541C262.603 295.716 262.779 295.854 262.98 295.94C263.541 296.225 264.161 296.373 264.79 296.373C265.419 296.373 266.04 296.225 266.6 295.94C266.802 295.854 266.978 295.716 267.109 295.541C267.241 295.365 267.324 295.158 267.35 294.94V248.74Z" fill="#37474F"/>
<path d="M233.9 229.46H228.79V275.66C228.819 275.877 228.903 276.083 229.035 276.258C229.166 276.433 229.34 276.571 229.54 276.66C230.1 276.943 230.718 277.09 231.345 277.09C231.972 277.09 232.59 276.943 233.15 276.66C233.35 276.571 233.524 276.433 233.655 276.258C233.787 276.083 233.871 275.877 233.9 275.66V229.46Z" fill="#37474F"/>
<path d="M245.97 252.06L220.29 237.71L91.1201 312.29V315.12L116.2 329.6L245.97 254.89V252.06Z" fill="#263238"/>
<path d="M91.1201 312.29L220.29 237.71L245.97 252.06L116.2 326.77L91.1201 312.29Z" fill="#455A64"/>
<path d="M60.8625 297.99L56.7637 298.407L59.0899 321.269L63.1888 320.852L60.8625 297.99Z" fill="#37474F"/>
<path d="M92.5764 281.653L88.4775 282.07L90.8038 304.932L94.9026 304.515L92.5764 281.653Z" fill="#37474F"/>
<path d="M156.11 325.67C153.369 320.929 149.431 316.991 144.69 314.25L106 291.88L51.5996 323.26V325.67L88.9296 347.23C93.6784 349.961 97.6188 353.901 100.35 358.65L154.7 327.27L156.11 325.67Z" fill="#EA67A8"/>
<path d="M51.5996 323.26L90.3396 345.62C95.0884 348.358 99.031 352.301 101.77 357.05L156.11 325.67C153.369 320.929 149.431 316.991 144.69 314.25L106 291.88L51.5996 323.26Z" fill="#EA67A8"/>
<path opacity="0.5" d="M101.77 357.05L100.35 358.65L154.7 327.27L156.11 325.67L101.77 357.05Z" fill="black"/>
<path opacity="0.2" d="M51.5996 325.67L88.9296 347.23C93.6784 349.961 97.6188 353.901 100.35 358.65L101.77 357.05L101.63 356.81C98.8952 352.168 95.0057 348.313 90.3396 345.62L51.5996 323.26V325.67Z" fill="black"/>
<path d="M101.77 284.64L93.4 217.06L91.14 215.75L36.79 247.13L45.15 314.71L47.42 316.02L101.77 284.64Z" fill="#EA67A8"/>
<path opacity="0.2" d="M36.79 247.13L39.06 248.44L47.42 316.02L45.15 314.71L36.79 247.13Z" fill="black"/>
<path d="M47.4196 316.02L101.77 284.64L93.3996 217.06L39.0596 248.44L47.4196 316.02Z" fill="#EA67A8"/>
<path opacity="0.4" d="M36.79 247.13L39.06 248.44L93.4 217.06L91.14 215.75L36.79 247.13Z" fill="white"/>
<path d="M123.566 261.788L119.467 262.205L121.793 285.067L125.892 284.65L123.566 261.788Z" fill="#37474F"/>
<path d="M155.279 245.452L151.181 245.869L153.507 268.731L157.606 268.314L155.279 245.452Z" fill="#37474F"/>
<path d="M218.81 289.47C216.072 284.727 212.133 280.788 207.39 278.05L168.65 255.68L114.31 287.06V289.47L151.64 311C156.385 313.736 160.324 317.675 163.06 322.42L217.4 291.04L218.81 289.47Z" fill="#EA67A8"/>
<path d="M114.31 287.06L153.05 309.42C157.793 312.162 161.732 316.104 164.47 320.85L218.81 289.47C216.072 284.727 212.133 280.788 207.39 278.05L168.65 255.68L114.31 287.06Z" fill="#EA67A8"/>
<path opacity="0.5" d="M164.47 320.85L163.06 322.45L217.4 291.07L218.81 289.47L164.47 320.85Z" fill="black"/>
<path opacity="0.2" d="M114.31 289.47L151.64 311C156.385 313.736 160.324 317.675 163.06 322.42L164.47 320.82L164.34 320.58C161.602 315.941 157.713 312.086 153.05 309.39L114.31 287.03V289.47Z" fill="black"/>
<path d="M164.47 248.44L156.11 180.86L153.84 179.55L99.5 210.93L107.86 278.51L110.13 279.82L164.47 248.44Z" fill="#EA67A8"/>
<path opacity="0.2" d="M99.5 210.93L101.77 212.24L110.13 279.82L107.86 278.51L99.5 210.93Z" fill="black"/>
<path d="M110.131 279.82L164.471 248.44L156.111 180.86L101.771 212.24L110.131 279.82Z" fill="#EA67A8"/>
<path opacity="0.4" d="M99.5 210.93L101.77 212.24L156.11 180.86L153.84 179.55L99.5 210.93Z" fill="white"/>
<path d="M186.269 225.577L182.17 225.994L184.496 248.856L188.595 248.439L186.269 225.577Z" fill="#37474F"/>
<path d="M217.983 209.25L213.884 209.667L216.21 232.529L220.309 232.112L217.983 209.25Z" fill="#37474F"/>
<path d="M281.52 253.27C278.782 248.524 274.844 244.582 270.1 241.84L231.36 219.48L177 250.85V253.27L214.33 274.82C219.073 277.558 223.012 281.497 225.75 286.24L280.1 254.87L281.52 253.27Z" fill="#EA67A8"/>
<path d="M177 250.85L215.74 273.22C220.486 275.958 224.428 279.896 227.17 284.64L281.51 253.27C278.772 248.524 274.834 244.582 270.09 241.84L231.35 219.48L177 250.85Z" fill="#EA67A8"/>
<path opacity="0.5" d="M227.18 284.64L225.76 286.24L280.11 254.87L281.52 253.27L227.18 284.64Z" fill="black"/>
<path opacity="0.2" d="M177 253.27L214.33 274.82C219.073 277.558 223.012 281.497 225.75 286.24L227.17 284.64L227.03 284.41C224.298 279.766 220.408 275.911 215.74 273.22L177 250.85V253.27Z" fill="black"/>
<path d="M227.18 212.24L218.81 144.66L216.54 143.35L162.2 174.72L170.56 242.3L172.83 243.61L227.18 212.24Z" fill="#EA67A8"/>
<path opacity="0.2" d="M162.2 174.72L164.47 176.03L172.83 243.61L170.56 242.3L162.2 174.72Z" fill="black"/>
<path d="M172.83 243.61L227.18 212.24L218.81 144.66L164.47 176.03L172.83 243.61Z" fill="#EA67A8"/>
<path opacity="0.4" d="M162.2 174.72L164.47 176.03L218.81 144.66L216.54 143.35L162.2 174.72Z" fill="white"/>
<path d="M92.9999 350L90.2899 351.56C89.3803 352.096 88.3455 352.382 87.2899 352.39C86.5829 352.39 85.8829 352.251 85.2299 351.98C84.3697 351.578 83.6142 350.983 83.0226 350.24C82.431 349.498 82.0194 348.628 81.8199 347.7L80.4899 342.34L79.7999 339.53L75.9299 323.9C75.1077 321.333 73.4451 319.117 71.2099 317.61L52.9999 307.1C52.3299 306.71 51.9999 306.76 51.9099 306.79C51.8199 306.82 51.6299 307.12 51.6299 307.89V326.56C51.6299 327.41 51.8699 327.74 51.9299 327.78C52.2171 327.779 52.4968 327.688 52.7299 327.52L53.7299 326.91L57.8499 329.29L54.7499 331.08C54.0274 331.558 53.1903 331.834 52.3253 331.88C51.4602 331.925 50.5987 331.739 49.8299 331.34C49.0504 330.822 48.4222 330.107 48.0094 329.267C47.5965 328.428 47.4138 327.493 47.4799 326.56V307.89C47.3716 306.972 47.5344 306.043 47.9483 305.217C48.3622 304.391 49.009 303.704 49.8089 303.241C50.6087 302.778 51.5266 302.56 52.4491 302.613C53.3716 302.666 54.2584 302.989 54.9999 303.54L73.2299 314.06C76.4346 316.125 78.7964 319.267 79.8899 322.92L84.7199 342.39L85.4199 345.21L85.7899 346.72C85.8305 347.027 85.9419 347.321 86.1155 347.578C86.289 347.835 86.5199 348.048 86.7899 348.2C87.0157 348.276 87.2563 348.299 87.4924 348.266C87.7285 348.233 87.9537 348.145 88.1499 348.01L89.1499 347.42C90.498 348.179 91.7852 349.042 92.9999 350Z" fill="#37474F"/>
<path d="M180.83 37.2101L73.3199 99.2901C72.984 99.509 72.7046 99.8043 72.5048 100.152C72.3049 100.5 72.1901 100.89 72.1699 101.29V132.34C72.1869 132.741 72.3003 133.133 72.5004 133.481C72.7006 133.829 72.9817 134.124 73.3199 134.34L77.4499 136.65C77.8082 136.83 78.2038 136.924 78.6049 136.924C79.006 136.924 79.4016 136.83 79.7599 136.65L187.27 74.5301C187.607 74.3123 187.887 74.0173 188.087 73.6694C188.287 73.3215 188.401 72.9309 188.42 72.5301V41.4901C188.401 41.0881 188.286 40.6966 188.084 40.3485C187.882 40.0005 187.599 39.706 187.26 39.4901L183.14 37.1801C182.779 37.0044 182.382 36.9157 181.981 36.9209C181.58 36.9261 181.186 37.0251 180.83 37.2101Z" fill="#EA67A8"/>
<path d="M78.6104 136V105C78.6306 104.6 78.7453 104.21 78.9452 103.862C79.1451 103.514 79.4244 103.219 79.7604 103L187.27 40.8301C187.91 40.4601 188.42 40.7601 188.42 41.4901V72.5401C188.402 72.9409 188.288 73.3316 188.088 73.6794C187.888 74.0273 187.607 74.3224 187.27 74.5401L79.7604 136.61C79.1204 137 78.6104 136.68 78.6104 136Z" fill="#EA67A8"/>
<path opacity="0.2" d="M79.7599 136.61C79.4007 136.787 79.0055 136.879 78.6049 136.879C78.2043 136.879 77.8091 136.787 77.4499 136.61L73.3199 134.3C72.9834 134.082 72.7036 133.786 72.5037 133.439C72.3037 133.091 72.1893 132.701 72.1699 132.3V101.28C72.1859 100.865 72.31 100.462 72.5299 100.11L78.9999 103.77C78.7919 104.111 78.6749 104.5 78.6599 104.9V135.9C78.6355 136.038 78.6523 136.179 78.7081 136.308C78.764 136.436 78.8565 136.545 78.974 136.62C79.0915 136.696 79.2287 136.736 79.3685 136.734C79.5084 136.732 79.6445 136.689 79.7599 136.61Z" fill="black"/>
<path opacity="0.4" d="M188.41 41.29C188.32 40.71 187.84 40.5 187.27 40.83L79.7603 102.91C79.4206 103.122 79.1415 103.418 78.9503 103.77L72.5303 100.11C72.7151 99.7706 72.988 99.4873 73.3203 99.29L180.83 37.21C181.189 37.0297 181.584 36.9358 181.985 36.9358C182.386 36.9358 182.782 37.0297 183.14 37.21L187.26 39.52C187.567 39.7158 187.829 39.9751 188.027 40.2804C188.225 40.5857 188.356 40.9299 188.41 41.29Z" fill="white"/>
<path d="M181.89 53.5001C181.72 53.3969 181.524 53.3423 181.325 53.3423C181.126 53.3423 180.931 53.3969 180.76 53.5001L172.03 58.5001C171.765 58.65 171.57 58.8991 171.489 59.1926C171.407 59.4861 171.445 59.7999 171.595 60.0651C171.745 60.3304 171.994 60.5252 172.288 60.6068C172.581 60.6883 172.895 60.65 173.16 60.5001L178.75 57.2801L171.32 73.0001C171.256 73.1347 171.219 73.2806 171.211 73.4294C171.204 73.5783 171.226 73.7272 171.276 73.8675C171.326 74.0079 171.404 74.1369 171.504 74.2472C171.604 74.3575 171.725 74.4469 171.86 74.5102C172.011 74.5796 172.174 74.6171 172.34 74.6202C172.551 74.6158 172.756 74.5527 172.933 74.4378C173.11 74.323 173.251 74.161 173.34 73.9701L180.16 59.5301V67.9102C180.145 68.0682 180.164 68.2275 180.214 68.378C180.264 68.5286 180.345 68.6669 180.452 68.7843C180.559 68.9016 180.689 68.9954 180.834 69.0595C180.98 69.1237 181.137 69.1568 181.295 69.1568C181.454 69.1568 181.611 69.1237 181.756 69.0595C181.901 68.9954 182.031 68.9016 182.138 68.7843C182.245 68.6669 182.326 68.5286 182.376 68.378C182.427 68.2275 182.445 68.0682 182.43 67.9102V54.4801C182.433 54.284 182.385 54.0905 182.29 53.9186C182.195 53.7468 182.058 53.6026 181.89 53.5001Z" fill="white"/>
<path d="M84.2698 124.28C84.6098 124.6 85.1698 123.5 85.1698 123.5L86.4898 125.31L86.6898 124.88L86.2098 121.45C86.2098 121.45 87.9198 118.86 89.9998 115L94.6898 119.5L94.9198 119.03L92.7198 112.81L93.2098 111.81C93.2998 111.62 93.2798 111.41 93.2098 111.34C93.1398 111.27 92.9198 111.34 92.8298 111.56L92.5298 112.19L92.1098 110.99C94.4198 106.16 95.6898 102.84 94.8298 101.99C93.9698 101.14 92.2998 104.09 90.0298 108.99L89.0898 108.88L89.3898 108.24C89.4324 108.151 89.4545 108.054 89.4545 107.955C89.4545 107.856 89.4324 107.759 89.3898 107.67C89.2998 107.54 89.1598 107.59 89.0698 107.78L88.5798 108.78L83.7198 108.2L83.4998 108.68L88.1798 113.21C86.4498 117.43 85.4098 120.67 85.4098 120.67L82.9998 121.3L82.7998 121.73L84.4698 122.8C84.4698 122.8 83.9398 124 84.2698 124.28Z" fill="white"/>
<path d="M104.85 100.16C105.206 99.9265 105.615 99.7855 106.04 99.75C106.193 99.7398 106.347 99.7612 106.491 99.8128C106.636 99.8644 106.768 99.9452 106.88 100.05C107.136 100.31 107.316 100.635 107.4 100.99C107.529 101.48 107.603 101.983 107.62 102.49C107.62 103.18 107.62 103.89 107.62 104.6C107.596 105.188 107.522 105.774 107.4 106.35C107.289 106.881 107.118 107.398 106.89 107.89C106.676 108.351 106.397 108.779 106.06 109.16C105.73 109.558 105.334 109.896 104.89 110.16L102.56 111.51C102.536 111.53 102.506 111.542 102.475 111.542C102.444 111.542 102.414 111.53 102.39 111.51C102.334 111.447 102.305 111.364 102.31 111.28V102C102.313 101.889 102.34 101.78 102.39 101.68C102.421 101.593 102.481 101.519 102.56 101.47L104.85 100.16ZM106.37 103.16C106.365 102.896 106.324 102.634 106.25 102.38C106.2 102.187 106.104 102.008 105.97 101.86C105.84 101.74 105.667 101.675 105.49 101.68C105.245 101.699 105.008 101.778 104.8 101.91L103.56 102.63V109.05L104.85 108.3C105.1 108.16 105.323 107.977 105.51 107.76C105.697 107.543 105.852 107.301 105.97 107.04C106.096 106.772 106.19 106.49 106.25 106.2C106.32 105.895 106.36 105.583 106.37 105.27C106.39 104.61 106.39 103.9 106.37 103.21V103.16Z" fill="white"/>
<path d="M113.61 103.3C113.635 103.279 113.667 103.267 113.7 103.267C113.733 103.267 113.765 103.279 113.79 103.3C113.817 103.332 113.837 103.368 113.849 103.408C113.861 103.447 113.865 103.489 113.86 103.53V104.53C113.861 104.637 113.837 104.743 113.79 104.84C113.755 104.931 113.692 105.008 113.61 105.06L109.55 107.41C109.525 107.431 109.493 107.443 109.46 107.443C109.427 107.443 109.395 107.431 109.37 107.41C109.342 107.381 109.32 107.347 109.306 107.309C109.292 107.271 109.287 107.23 109.29 107.19V98.0001C109.294 97.8922 109.321 97.7864 109.37 97.6901C109.408 97.6012 109.47 97.5249 109.55 97.4701L113.55 95.1701C113.561 95.1589 113.574 95.15 113.589 95.1439C113.604 95.1379 113.619 95.1348 113.635 95.1348C113.651 95.1348 113.666 95.1379 113.681 95.1439C113.696 95.15 113.709 95.1589 113.72 95.1701C113.776 95.2332 113.805 95.3158 113.8 95.4001V96.4001C113.797 96.5113 113.77 96.6205 113.72 96.7201C113.686 96.8055 113.626 96.8787 113.55 96.9301L110.55 98.6601V100.93L113.33 99.3201C113.355 99.2989 113.387 99.2873 113.42 99.2873C113.453 99.2873 113.485 99.2989 113.51 99.3201C113.537 99.3515 113.557 99.3882 113.569 99.4277C113.581 99.4673 113.585 99.509 113.58 99.5501V100.55C113.581 100.657 113.557 100.763 113.51 100.86C113.475 100.951 113.412 101.028 113.33 101.08L110.55 102.69V105.06L113.61 103.3Z" fill="white"/>
<path d="M118.2 92.4403C118.95 92.0103 119.53 91.9503 119.95 92.2503C120.193 92.5182 120.374 92.8361 120.481 93.1816C120.589 93.5271 120.619 93.8918 120.57 94.2503C120.604 95.1994 120.408 96.1427 120 97.0003C119.605 97.7658 118.997 98.4012 118.25 98.8303L116.77 99.6903V102.87C116.771 102.978 116.747 103.084 116.7 103.18C116.662 103.269 116.6 103.345 116.52 103.4L115.77 103.83C115.746 103.851 115.716 103.862 115.685 103.862C115.654 103.862 115.624 103.851 115.6 103.83C115.544 103.767 115.515 103.684 115.52 103.6V94.4103C115.523 94.299 115.55 94.1898 115.6 94.0903C115.634 94.0048 115.694 93.9317 115.77 93.8803L118.2 92.4403ZM116.72 97.9303L118.16 97.1103C118.5 96.91 118.788 96.6325 119 96.3003C119.226 95.9054 119.337 95.455 119.32 95.0003C119.32 94.4603 119.21 94.1603 119 94.0703C118.855 94.036 118.705 94.0343 118.56 94.0655C118.414 94.0966 118.278 94.1597 118.16 94.2503L116.72 95.0803V97.9303Z" fill="white"/>
<path d="M124.7 88.7003C124.8 88.6403 124.87 88.6403 124.92 88.7003C124.984 88.7861 125.029 88.8851 125.05 88.9903L127.32 96.6903C127.325 96.72 127.325 96.7505 127.32 96.7803C127.317 96.8915 127.29 97.0008 127.24 97.1003C127.205 97.1857 127.146 97.2589 127.07 97.3103L126.4 97.7003C126.28 97.7703 126.19 97.7803 126.14 97.7003C126.093 97.6486 126.059 97.5871 126.04 97.5203L125.64 96.1703L122.72 97.8603L122.32 99.6703C122.297 99.7702 122.263 99.8675 122.22 99.9603C122.158 100.074 122.069 100.17 121.96 100.24L121.29 100.62C121.265 100.641 121.233 100.653 121.2 100.653C121.167 100.653 121.135 100.641 121.11 100.62C121.057 100.556 121.032 100.473 121.04 100.39C121.035 100.354 121.035 100.317 121.04 100.28L123.33 90.0003C123.354 89.8486 123.398 89.7008 123.46 89.5603C123.505 89.4558 123.582 89.3683 123.68 89.3103L124.7 88.7003ZM125.21 94.7003L124.21 91.2303L123.21 95.8803L125.21 94.7003Z" fill="white"/>
<path d="M131.27 84.9002C132.05 84.4502 132.63 84.3902 133.03 84.7102C133.273 84.9775 133.454 85.2956 133.56 85.6415C133.665 85.9874 133.693 86.3524 133.64 86.7102C133.647 87.3901 133.539 88.0664 133.32 88.7102C133.125 89.3045 132.816 89.8549 132.41 90.3302L133.69 93.0002C133.7 93.0462 133.7 93.0941 133.69 93.1402C133.689 93.227 133.668 93.3125 133.63 93.3902C133.602 93.4628 133.553 93.5254 133.49 93.5702L132.7 94.0202C132.57 94.0901 132.48 94.1002 132.42 94.0202C132.368 93.9729 132.327 93.9149 132.3 93.8502L131.09 91.2202L129.86 91.9402V95.3002C129.857 95.4082 129.83 95.5143 129.78 95.6102C129.744 95.7007 129.681 95.7777 129.6 95.8302L128.85 96.2602C128.839 96.2713 128.825 96.2802 128.811 96.2863C128.796 96.2923 128.78 96.2954 128.765 96.2954C128.749 96.2954 128.733 96.2923 128.719 96.2863C128.704 96.2802 128.691 96.2713 128.68 96.2602C128.651 96.2295 128.629 96.1933 128.615 96.1536C128.602 96.114 128.596 96.072 128.6 96.0302V86.8102C128.601 86.7019 128.629 86.5956 128.68 86.5002C128.715 86.4125 128.774 86.3363 128.85 86.2802L131.27 84.9002ZM129.89 90.1902L131.23 89.4202C131.563 89.2288 131.85 88.9658 132.07 88.6502C132.299 88.2675 132.41 87.8257 132.39 87.3802C132.39 86.8502 132.28 86.5502 132.07 86.4902C131.772 86.453 131.471 86.5318 131.23 86.7102L129.89 87.4802V90.1902Z" fill="white"/>
<path d="M139.55 80.1202C139.575 80.099 139.607 80.0874 139.64 80.0874C139.673 80.0874 139.705 80.099 139.73 80.1202C139.782 80.1848 139.807 80.2673 139.8 80.3502V81.3502C139.801 81.4607 139.777 81.5701 139.73 81.6702C139.692 81.7563 139.629 81.8293 139.55 81.8802L137.89 82.8802V90.7002C137.887 90.8082 137.86 90.9143 137.81 91.0102C137.775 91.0978 137.716 91.174 137.64 91.2302L136.89 91.6602C136.865 91.6813 136.833 91.6929 136.8 91.6929C136.767 91.6929 136.735 91.6813 136.71 91.6602C136.658 91.5955 136.633 91.513 136.64 91.4302V83.5802L134.97 84.5802C134.944 84.5996 134.912 84.6102 134.88 84.6102C134.848 84.6102 134.816 84.5996 134.79 84.5802C134.738 84.5155 134.713 84.433 134.72 84.3502V83.3502C134.719 83.2396 134.743 83.1303 134.79 83.0302C134.825 82.9423 134.889 82.8684 134.97 82.8202L139.55 80.1202Z" fill="white"/>
<path d="M146.2 76.2798C146.225 76.2587 146.257 76.2471 146.29 76.2471C146.323 76.2471 146.355 76.2587 146.38 76.2798C146.432 76.3445 146.457 76.427 146.45 76.5098V82.3598C146.454 82.9271 146.4 83.4933 146.29 84.0498C146.182 84.5739 146.014 85.0839 145.79 85.5698C145.574 86.0322 145.291 86.4601 144.95 86.8398C144.62 87.217 144.227 87.5349 143.79 87.7798C143.442 88.0071 143.044 88.1445 142.63 88.1798C142.323 88.1893 142.025 88.078 141.8 87.8698C141.553 87.6035 141.384 87.2751 141.31 86.9198C141.192 86.4288 141.139 85.9246 141.15 85.4198V79.5798C141.15 79.4726 141.174 79.3668 141.22 79.2698C141.255 79.1819 141.318 79.1081 141.4 79.0598L142.15 78.6198C142.174 78.6012 142.204 78.5911 142.235 78.5911C142.266 78.5911 142.295 78.6012 142.32 78.6198C142.376 78.683 142.405 78.7656 142.4 78.8498V84.6298C142.39 84.9463 142.424 85.2625 142.5 85.5698C142.543 85.765 142.644 85.9427 142.79 86.0798C142.85 86.1308 142.92 86.1687 142.996 86.1911C143.072 86.2134 143.152 86.2198 143.23 86.2098C143.429 86.1798 143.62 86.1083 143.79 85.9998C144.003 85.8765 144.198 85.7252 144.37 85.5498C144.547 85.3571 144.698 85.1419 144.82 84.9098C144.949 84.6388 145.047 84.3535 145.11 84.0598C145.181 83.7111 145.214 83.3557 145.21 82.9998V77.2398C145.213 77.1286 145.24 77.0194 145.29 76.9198C145.324 76.8344 145.383 76.7612 145.46 76.7098L146.2 76.2798Z" fill="white"/>
<path d="M151 73.5403C151.77 73.0903 152.35 73.0303 152.75 73.3503C152.996 73.616 153.178 73.934 153.284 74.2804C153.39 74.6267 153.415 74.9925 153.36 75.3503C153.37 76.0297 153.265 76.706 153.05 77.3503C152.85 77.9424 152.542 78.4919 152.14 78.9703L153.41 81.7503C153.418 81.7966 153.418 81.844 153.41 81.8903C153.409 81.9803 153.388 82.069 153.35 82.1503C153.319 82.2187 153.271 82.2775 153.21 82.3203L152.42 82.7803C152.3 82.8503 152.2 82.8603 152.15 82.7803C152.095 82.7298 152.05 82.6685 152.02 82.6003L150.8 79.9003L149.57 80.6103V83.9303C149.567 84.0415 149.539 84.1508 149.49 84.2503C149.449 84.3347 149.391 84.4097 149.32 84.4703L148.57 84.9003C148.544 84.9198 148.512 84.9303 148.48 84.9303C148.447 84.9303 148.416 84.9198 148.39 84.9003C148.337 84.8356 148.312 84.7531 148.32 84.6703V75.4503C148.319 75.3397 148.343 75.2304 148.39 75.1303C148.428 75.0441 148.49 74.9711 148.57 74.9203L151 73.5403ZM149.61 78.8303L150.95 78.0503C151.285 77.8617 151.573 77.5982 151.79 77.2803C152.02 76.9016 152.131 76.4628 152.11 76.0203C152.11 75.4803 152 75.1903 151.79 75.1303C151.493 75.0882 151.192 75.1635 150.95 75.3403L149.61 76.1203V78.8303Z" fill="white"/>
<path d="M159.299 76.9202C159.325 76.899 159.357 76.8874 159.389 76.8874C159.422 76.8874 159.454 76.899 159.479 76.9202C159.506 76.9516 159.526 76.9883 159.539 77.0278C159.551 77.0674 159.554 77.1091 159.549 77.1502V78.1502C159.551 78.2576 159.527 78.3639 159.479 78.4602C159.444 78.5506 159.381 78.6277 159.299 78.6802L155.239 81.0302C155.214 81.0513 155.182 81.0629 155.149 81.0629C155.117 81.0629 155.085 81.0513 155.059 81.0302C155.031 81.0014 155.009 80.9669 154.995 80.9289C154.982 80.8909 154.976 80.8504 154.979 80.8102V71.6002C154.982 71.4889 155.01 71.3797 155.059 71.2802C155.095 71.1922 155.158 71.1184 155.239 71.0702L159.239 68.7602C159.263 68.7397 159.293 68.7285 159.324 68.7285C159.356 68.7285 159.386 68.7397 159.409 68.7602C159.465 68.8233 159.494 68.9059 159.489 68.9902V69.9902C159.487 70.1014 159.459 70.2106 159.409 70.3102C159.375 70.3956 159.316 70.4687 159.239 70.5201L156.239 72.2502V74.5201L158.999 72.9302C159.025 72.909 159.057 72.8974 159.089 72.8974C159.122 72.8974 159.154 72.909 159.179 72.9302C159.206 72.9616 159.226 72.9983 159.239 73.0378C159.251 73.0774 159.254 73.1191 159.249 73.1602V74.1602C159.25 74.2707 159.226 74.3801 159.179 74.4802C159.141 74.5663 159.079 74.6393 158.999 74.6902L156.219 76.3002V78.6702L159.299 76.9202Z" fill="white"/>
<path d="M163.39 66.2201C163.716 66.0059 164.091 65.8754 164.48 65.8401C164.756 65.8195 165.033 65.8859 165.27 66.0301C165.475 66.1742 165.637 66.3712 165.74 66.6001C165.849 66.8462 165.91 67.111 165.92 67.3801C165.931 67.4883 165.907 67.5974 165.85 67.6901C165.817 67.7798 165.753 67.8545 165.67 67.9001L165.03 68.2801C164.92 68.3401 164.84 68.3501 164.79 68.2801C164.728 68.2394 164.676 68.1845 164.64 68.1201C164.599 68.0313 164.541 67.9518 164.469 67.8864C164.397 67.821 164.312 67.7712 164.22 67.7401C164.03 67.6701 163.76 67.7401 163.39 67.9601C163.224 68.0553 163.069 68.1694 162.93 68.3001C162.784 68.433 162.656 68.5842 162.55 68.7501C162.439 68.9068 162.351 69.0785 162.29 69.2601C162.231 69.4341 162.2 69.6164 162.2 69.8001C162.19 69.9651 162.22 70.13 162.29 70.2801C162.319 70.3331 162.36 70.3781 162.411 70.4112C162.462 70.4443 162.519 70.4645 162.58 70.4701C162.762 70.4974 162.947 70.4974 163.13 70.4701L163.99 70.2801C164.316 70.1932 164.652 70.1528 164.99 70.1601C165.225 70.1593 165.453 70.2367 165.64 70.3801C165.822 70.5436 165.948 70.7606 166 71.0001C166.099 71.3237 166.143 71.6618 166.13 72.0001C166.13 72.4404 166.066 72.8783 165.94 73.3001C165.817 73.736 165.642 74.1556 165.42 74.5501C165.184 74.9513 164.898 75.3209 164.57 75.6501C164.24 75.9954 163.863 76.2917 163.45 76.5301C163.14 76.713 162.802 76.8416 162.45 76.9101C162.168 76.9661 161.876 76.9383 161.61 76.8301C161.361 76.7222 161.154 76.5361 161.02 76.3001C160.863 75.9896 160.777 75.6479 160.77 75.3001C160.768 75.1894 160.792 75.0799 160.84 74.9801C160.884 74.898 160.945 74.8264 161.02 74.7701L161.67 74.4001C161.783 74.3401 161.863 74.3201 161.91 74.3401C161.976 74.3822 162.025 74.4458 162.05 74.5201C162.097 74.6167 162.15 74.7103 162.21 74.8001C162.267 74.8896 162.357 74.9539 162.46 74.9801C162.587 75.016 162.722 75.016 162.85 74.9801C163.059 74.9319 163.259 74.8473 163.44 74.7301C163.632 74.6254 163.813 74.5014 163.98 74.3601C164.147 74.2211 164.298 74.0634 164.43 73.8901C164.559 73.7174 164.667 73.5293 164.75 73.3301C164.831 73.1335 164.871 72.9227 164.87 72.7101C164.885 72.5552 164.838 72.4007 164.74 72.2801C164.686 72.2325 164.622 72.1971 164.553 72.1763C164.484 72.1556 164.411 72.1501 164.34 72.1601C164.12 72.1747 163.902 72.2115 163.69 72.2701L162.79 72.4601C162.524 72.5167 162.251 72.5369 161.98 72.5201C161.767 72.5039 161.566 72.4158 161.41 72.2701C161.24 72.1035 161.122 71.8918 161.07 71.6601C160.992 71.3325 160.955 70.9967 160.96 70.6601C160.961 70.2239 161.021 69.7899 161.14 69.3701C161.266 68.9466 161.437 68.5377 161.65 68.1501C161.872 67.7889 162.133 67.4535 162.43 67.1501C162.697 66.7904 163.022 66.4763 163.39 66.2201Z" fill="white"/>
<path d="M376.05 245.24V193.34L379.51 191.34V243.24L376.05 245.24Z" fill="#455A64"/>
<path d="M372.59 191.33V247.23L376.05 245.24V193.33L372.59 191.33Z" fill="#263238"/>
<path d="M355.37 257.18L351.91 255.22L372.67 243.24L376.05 245.24L355.37 257.18Z" fill="#37474F"/>
<path d="M351.91 259.18V207.28L355.37 205.28V257.18L351.91 259.18Z" fill="#455A64"/>
<path d="M348.45 205.28V261.18L351.91 259.18V207.28L348.45 205.28Z" fill="#37474F"/>
<path d="M375.17 187.17C374.734 186.96 374.249 186.875 373.767 186.922C373.286 186.97 372.827 187.149 372.44 187.44L352.13 199.16C351.08 199.82 350.2 200.718 349.56 201.781C348.921 202.844 348.541 204.043 348.45 205.28V209.28L351.91 211.28L379.51 195.28V191.28C379.552 190.885 379.492 190.485 379.336 190.12C379.18 189.754 378.934 189.434 378.62 189.19C378 188.79 375.75 187.54 375.17 187.17Z" fill="#EA67A8"/>
<path d="M351.91 207.28C351.999 206.041 352.38 204.841 353.021 203.778C353.663 202.714 354.546 201.817 355.6 201.16L375.9 189.43C377.9 188.26 379.57 189.08 379.55 191.28V195.28L351.95 211.28L351.91 207.28Z" fill="#EA67A8"/>
<path opacity="0.2" d="M351.91 207.28C351.999 206.041 352.38 204.841 353.021 203.778C353.663 202.714 354.546 201.817 355.6 201.16L375.9 189.43C377.9 188.26 379.57 189.08 379.55 191.28V195.28L351.95 211.28L351.91 207.28Z" fill="black"/>
<path opacity="0.4" d="M353 203.89C352.382 204.916 352.038 206.083 352 207.28V211.28L348.54 209.28V205.28C348.588 204.081 348.95 202.915 349.59 201.9L353 203.89Z" fill="black"/>
<path d="M409.001 249.66L390.201 238.82C389.828 238.549 389.389 238.383 388.93 238.339C388.471 238.295 388.008 238.375 387.591 238.57L342.431 264.66L368.131 367.21L413.131 341.21C413.508 340.947 413.808 340.587 414 340.169C414.192 339.75 414.268 339.288 414.221 338.83V258.7C414.119 256.89 413.594 255.129 412.687 253.559C411.78 251.988 410.518 250.653 409.001 249.66Z" fill="#EA67A8"/>
<path opacity="0.2" d="M409.001 249.66L390.201 238.82C389.828 238.549 389.389 238.383 388.93 238.339C388.471 238.295 388.008 238.375 387.591 238.57L342.431 264.66L368.131 367.21L413.131 341.21C413.508 340.947 413.808 340.587 414 340.169C414.192 339.75 414.268 339.288 414.221 338.83V258.7C414.119 256.89 413.594 255.129 412.687 253.559C411.78 251.988 410.518 250.653 409.001 249.66Z" fill="black"/>
<path d="M345.22 355.24L365.52 367C367.52 368.17 369.21 367.21 369.21 364.87V284.67C369.104 282.866 368.577 281.112 367.67 279.549C366.763 277.986 365.503 276.658 363.99 275.67L345.22 264.83C343.22 263.66 341.53 264.62 341.53 266.96V348.89C341.609 350.163 341.983 351.399 342.624 352.502C343.264 353.604 344.153 354.542 345.22 355.24Z" fill="#EA67A8"/>
<path opacity="0.4" d="M345.22 355.24L365.52 367C367.52 368.17 369.21 367.21 369.21 364.87V284.67C369.104 282.866 368.577 281.112 367.67 279.549C366.763 277.986 365.503 276.658 363.99 275.67L345.22 264.83C343.22 263.66 341.53 264.62 341.53 266.96V348.89C341.609 350.163 341.983 351.399 342.624 352.502C343.264 353.604 344.153 354.542 345.22 355.24Z" fill="black"/>
<path d="M359.371 359C359.245 356.708 358.581 354.477 357.433 352.49C356.284 350.502 354.684 348.813 352.761 347.56C350.841 346.46 349.131 346.41 347.921 347.22L343.471 349.76L352.941 365.86L357.361 363.32C358.591 362.64 359.371 361.15 359.371 359Z" fill="#455A64"/>
<path d="M348.13 350.23C350.054 351.482 351.656 353.171 352.804 355.159C353.953 357.147 354.616 359.377 354.74 361.67C354.74 365.88 351.74 367.59 348.13 365.48C346.209 364.225 344.61 362.536 343.464 360.548C342.317 358.561 341.655 356.331 341.53 354.04C341.53 349.83 344.49 348.12 348.13 350.23Z" fill="#37474F"/>
<path d="M348.13 355C348.864 355.477 349.474 356.121 349.912 356.878C350.35 357.636 350.603 358.486 350.65 359.36C350.65 360.96 349.52 361.61 348.13 360.81C347.399 360.331 346.791 359.687 346.355 358.93C345.919 358.172 345.667 357.323 345.62 356.45C345.62 354.8 346.75 354.15 348.13 355Z" fill="#263238"/>
<path d="M362.29 365.1L365.86 367.19C366.213 367.393 366.613 367.501 367.02 367.501C367.427 367.501 367.827 367.393 368.18 367.19L373.94 363.87V359.8C373.939 359.654 373.9 359.511 373.826 359.386C373.752 359.26 373.647 359.156 373.52 359.084C373.393 359.012 373.25 358.975 373.104 358.976C372.959 358.977 372.816 359.016 372.69 359.09L369.2 361.09L363.53 357.8C363.404 357.728 363.261 357.691 363.116 357.691C362.971 357.692 362.829 357.731 362.703 357.804C362.578 357.876 362.474 357.981 362.401 358.107C362.329 358.232 362.29 358.375 362.29 358.52V365.1Z" fill="#37474F"/>
<path d="M369.21 364.83V361.1L363.54 357.81C363.414 357.738 363.271 357.701 363.126 357.702C362.981 357.702 362.838 357.741 362.713 357.814C362.588 357.887 362.483 357.991 362.411 358.117C362.338 358.242 362.3 358.385 362.3 358.53V365.09L365.51 366.94C365.832 367.158 366.195 367.306 366.577 367.377C366.959 367.447 367.352 367.438 367.73 367.35C367.862 367.311 367.99 367.258 368.11 367.19C368.486 366.93 368.786 366.574 368.979 366.159C369.173 365.744 369.252 365.286 369.21 364.83Z" fill="#263238"/>
<path d="M413.1 341.24C413.478 340.977 413.778 340.617 413.969 340.199C414.161 339.78 414.237 339.318 414.19 338.86V335.14L410.5 337.27C410.182 337.454 409.918 337.717 409.734 338.035C409.549 338.353 409.452 338.713 409.45 339.08V343.36L413.1 341.24Z" fill="#37474F"/>
<path d="M369.21 309.16C388.21 286.97 402.84 279.64 414.21 283.16V279.16C402.86 275.6 388.27 282.93 369.21 305.16V309.16Z" fill="#EA67A8"/>
<path opacity="0.3" d="M412 252.5L367 278.5C366.214 277.35 365.191 276.382 364 275.66L345.24 264.82C344.889 264.574 344.485 264.415 344.061 264.356C343.637 264.296 343.204 264.339 342.8 264.48L387.61 238.6C388.026 238.407 388.487 238.328 388.944 238.372C389.401 238.416 389.838 238.581 390.21 238.85L409 249.66C410.183 250.392 411.204 251.358 412 252.5Z" fill="#EA67A8"/>
<path d="M393.381 248.41C392.71 248.07 391.968 247.893 391.216 247.893C390.463 247.893 389.722 248.07 389.051 248.41L386.891 249.66V250.36L391.221 252.86L393.381 251.61C393.628 251.5 393.842 251.327 394.001 251.107C394.159 250.887 394.256 250.629 394.281 250.36V249.65C394.255 249.382 394.158 249.125 394 248.907C393.841 248.689 393.628 248.517 393.381 248.41Z" fill="#263238"/>
<path d="M386.891 249.66L389.051 248.41C389.722 248.07 390.463 247.893 391.216 247.893C391.968 247.893 392.71 248.07 393.381 248.41C393.642 248.498 393.869 248.667 394.029 248.891C394.19 249.115 394.276 249.384 394.276 249.66C394.276 249.936 394.19 250.205 394.029 250.429C393.869 250.653 393.642 250.821 393.381 250.91L391.221 252.16L386.891 249.66Z" fill="#455A64"/>
<path d="M391.221 248.75V252.16L386.891 249.66V246.25L391.221 248.75Z" fill="#37474F"/>
<path d="M369.57 261.3L391.22 248.75L386.89 246.25L365.24 258.75L369.57 261.3Z" fill="#455A64"/>
<path d="M365.24 262.15V258.75L369.57 261.3V264.65L365.24 262.15Z" fill="#37474F"/>
<path d="M369.561 264.65L365.231 262.15L363.071 263.4C362.825 263.508 362.613 263.68 362.456 263.898C362.3 264.116 362.204 264.373 362.181 264.64V265.37C362.203 265.638 362.298 265.894 362.455 266.113C362.612 266.331 362.824 266.503 363.071 266.61C363.741 266.952 364.483 267.131 365.236 267.131C365.988 267.131 366.73 266.952 367.401 266.61L369.561 265.36V264.65Z" fill="#263238"/>
<path d="M365.24 262.15L363.08 263.4C362.819 263.489 362.592 263.657 362.432 263.881C362.271 264.105 362.185 264.374 362.185 264.65C362.185 264.926 362.271 265.195 362.432 265.419C362.592 265.643 362.819 265.811 363.08 265.9C363.751 266.24 364.493 266.417 365.245 266.417C365.998 266.417 366.739 266.24 367.41 265.9L369.57 264.65L365.24 262.15Z" fill="#455A64"/>
<path d="M370.271 260.89V264.96L369.561 265.37V261.3L370.271 260.89Z" fill="#263238"/>
<path d="M391.22 248.75V252.86L390.5 253.27V249.17L391.22 248.75Z" fill="#263238"/>
<path d="M369.561 262.15L391.221 249.61V248.75L369.561 261.3V262.15Z" fill="#263238"/>
<path d="M390.5 253.27V250.02L387.7 251.65L390.5 253.27Z" fill="#37474F"/>
<path d="M221.762 159.466C222.414 158.168 222.949 156.698 223.966 155.647C224.983 154.595 226.327 154.05 227.5 153.258L231.275 150.716C235.84 148.015 235.403 141.84 234.17 138.659C231.419 131.553 223.738 129.111 218.991 129.011C210.039 128.811 205.749 131.313 204.979 136.071C201.602 136.071 200.076 138.307 199.326 139.398C197.149 142.472 196.471 147.782 197.416 151.468C198.753 156.651 202.345 159.453 204.419 161.209C206.16 162.7 207.874 163.478 208.931 166C208.931 165.967 220.458 162.114 221.762 159.466Z" fill="#37474F"/>
<path d="M226.65 173.85C236.04 173.34 239.08 184.58 242.8 191.32C247.25 199.37 255.86 214.57 255.86 214.57L246.43 220.35L228.07 193.12L226.65 173.85Z" fill="#FFA8A7"/>
<path d="M226.66 173.85C228.826 173.468 231.056 173.921 232.9 175.12C235.74 177.12 237.19 179.63 239.36 183.39C241.53 187.15 246.01 197.09 246.01 197.09C246.01 197.09 241.53 203.09 234.21 203.97L226.49 188.29L226.66 173.85Z" fill="#455A64"/>
<path d="M264.56 310.35C264.56 310.35 266.12 320.98 269.23 324.94C272.03 328.5 274.05 333.04 277.38 336.75C278.1 337.56 279.75 339.06 280.38 339.75C280.524 339.877 280.638 340.035 280.713 340.213C280.788 340.39 280.822 340.582 280.812 340.774C280.802 340.966 280.75 341.154 280.658 341.323C280.565 341.492 280.436 341.638 280.28 341.75C278.85 343.16 272.71 343.6 269.22 341.08C265.73 338.56 262.22 333.71 260.17 331.66C259.17 330.66 258.17 329.66 257.42 328.95C257.082 328.61 256.836 328.189 256.706 327.726C256.577 327.264 256.568 326.777 256.68 326.31C256.75 326.04 256.82 325.72 256.9 325.31C257.34 323.31 254.58 315.21 254.58 315.21L264.56 310.35Z" fill="#FFA8A7"/>
<path d="M257.16 331C257.157 331.652 257.272 332.299 257.5 332.91C257.84 333.67 259.62 334.8 260.75 335.33C262.348 336.088 263.615 337.404 264.31 339.03C265.622 341.601 267.76 343.658 270.38 344.87C273.834 346.272 277.632 346.589 281.27 345.78C285.8 344.87 286.12 342.19 286.12 342.19C286.12 342.19 286.31 339.66 285.17 339.28C284.03 338.9 257.16 331 257.16 331Z" fill="#263238"/>
<path d="M256 319.92C256.398 322.076 256.502 324.276 256.31 326.46C256.21 327.78 256.18 329.86 257.18 331.02C258.55 332.85 261.44 333.4 263.32 335.9C265.2 338.4 267.98 342.9 273.95 344C279.92 345.1 284.42 343.08 285.48 341.37C286.54 339.66 285.48 338.07 281.66 336.08C277.56 333.98 272.1 327.56 272.1 327.56C270.479 325.645 269.179 323.48 268.25 321.15L266.8 316.53C266.48 315.63 260.05 317.53 259.37 318.85L260.14 322.95L258.49 319.08C257.592 319.09 256.72 319.384 256 319.92Z" fill="#455A64"/>
<path d="M270.05 342.65C270.099 341.272 270.524 339.934 271.278 338.779C272.032 337.625 273.087 336.699 274.33 336.1C278.78 333.71 281.54 335.1 282.93 336.1C284.59 337.25 286.98 339.66 285.59 341.48C284.2 343.3 281.65 344.4 277.07 344.54C274.582 344.735 272.104 344.067 270.05 342.65Z" fill="#FAFAFA"/>
<path d="M263.631 328.85C263.709 328.845 263.786 328.822 263.855 328.784C263.924 328.746 263.984 328.694 264.031 328.63C264.531 327.91 267.741 325.19 270.921 326C271.071 325.64 270.801 325.26 270.141 324.89C268.813 324.889 267.501 325.173 266.294 325.724C265.086 326.274 264.011 327.078 263.141 328.08C263.104 328.134 263.078 328.195 263.065 328.26C263.051 328.324 263.051 328.39 263.064 328.455C263.078 328.519 263.103 328.58 263.141 328.634C263.178 328.689 263.225 328.735 263.281 328.77C263.387 328.831 263.509 328.859 263.631 328.85Z" fill="#FAFAFA"/>
<path d="M272.77 328.34C272.713 328.1 272.6 327.877 272.44 327.689C272.28 327.501 272.078 327.354 271.85 327.26C270.598 327.334 269.372 327.656 268.246 328.209C267.12 328.762 266.115 329.534 265.29 330.48C265.254 330.534 265.229 330.595 265.217 330.659C265.204 330.723 265.205 330.788 265.219 330.852C265.233 330.916 265.26 330.976 265.298 331.029C265.336 331.082 265.385 331.126 265.44 331.16C265.533 331.218 265.641 331.246 265.75 331.24C265.831 331.237 265.91 331.215 265.981 331.177C266.052 331.139 266.113 331.085 266.16 331.02C266.64 330.32 269.69 327.74 272.77 328.34Z" fill="#FAFAFA"/>
<path d="M269.49 323.85C269.541 323.728 269.565 323.596 269.56 323.464C269.555 323.331 269.52 323.202 269.459 323.084C269.398 322.967 269.312 322.864 269.206 322.784C269.101 322.704 268.979 322.648 268.85 322.62C265.22 321.83 261.69 324.75 261.04 325.69C261.002 325.743 260.976 325.804 260.963 325.869C260.949 325.933 260.95 325.999 260.964 326.063C260.978 326.127 261.006 326.188 261.045 326.24C261.083 326.293 261.133 326.337 261.19 326.37C261.28 326.434 261.389 326.466 261.5 326.46C261.58 326.456 261.658 326.433 261.727 326.393C261.797 326.353 261.856 326.297 261.9 326.23C262.44 325.46 266.11 322.38 269.49 323.85Z" fill="#FAFAFA"/>
<path d="M277.82 333.36C277.511 332.772 277.005 332.311 276.39 332.06C275.09 332.089 273.811 332.389 272.633 332.94C271.455 333.491 270.405 334.281 269.55 335.26C269.512 335.314 269.486 335.376 269.472 335.441C269.459 335.506 269.46 335.573 269.474 335.638C269.488 335.703 269.515 335.764 269.554 335.818C269.593 335.871 269.643 335.917 269.7 335.95C269.793 336.007 269.901 336.035 270.01 336.03C270.089 336.026 270.166 336.003 270.235 335.965C270.304 335.927 270.364 335.874 270.41 335.81C270.93 335.05 274.49 332.06 277.82 333.36Z" fill="#FAFAFA"/>
<path d="M267.881 333.63C267.961 333.63 268.039 333.61 268.109 333.572C268.179 333.533 268.238 333.478 268.281 333.41C268.771 332.7 271.931 330.04 275.061 330.77C274.978 330.513 274.838 330.279 274.65 330.085C274.463 329.891 274.234 329.742 273.981 329.65C272.729 329.726 271.504 330.05 270.378 330.602C269.252 331.155 268.247 331.926 267.421 332.87C267.383 332.923 267.356 332.984 267.343 333.049C267.33 333.113 267.331 333.179 267.345 333.243C267.359 333.307 267.387 333.368 267.425 333.42C267.464 333.473 267.514 333.517 267.571 333.55C267.662 333.611 267.771 333.64 267.881 333.63Z" fill="#FAFAFA"/>
<path d="M195.18 225.67C193.98 232.37 193.61 236.16 195.97 242.93C198.33 249.7 206.16 255.16 215.61 260.46C223.44 264.84 234.35 271.7 236.5 273.04C238.95 274.57 239.5 275.7 239.67 278.96C239.93 283.39 241.07 290.59 246.14 299.56C251.49 309.03 255.01 316.64 255.01 316.64C258.278 314.752 261.847 313.442 265.56 312.77C265.56 312.77 255.75 268.9 253.68 263.16C251.61 257.42 229.56 239.16 229.56 239.16C229.56 239.16 231.72 229.97 233.33 223.28L195.18 225.67Z" fill="#37474F"/>
<path d="M286.64 298.64C286.64 298.64 289.51 307.51 291.81 311.64C294.086 315.883 296.833 319.854 300 323.48C300.72 324.29 302.37 325.78 303 326.48C303.145 326.607 303.258 326.766 303.333 326.943C303.408 327.12 303.442 327.312 303.432 327.504C303.423 327.696 303.37 327.884 303.278 328.053C303.185 328.222 303.056 328.368 302.9 328.48C301.47 329.89 295.33 330.33 291.84 327.81C288.35 325.29 284.89 320.43 282.79 318.39L280 315.61C279.661 315.27 279.415 314.849 279.285 314.387C279.155 313.925 279.147 313.437 279.26 312.97C279.33 312.7 279.4 312.39 279.49 311.97C279.92 309.97 277.16 301.87 277.16 301.87L286.64 298.64Z" fill="#FFA8A7"/>
<path d="M217.76 212.4C216.57 219.1 216.2 222.89 218.55 229.66C220.9 236.43 226.4 247.17 235.86 252.47C243.69 256.85 255.54 261.32 257.86 262.35C259.66 263.15 260.26 265.09 261.02 269.95C261.71 274.33 263.83 279.11 268.9 288.08C274.26 297.55 277.6 303.36 277.6 303.36C280.545 301.397 283.914 300.163 287.43 299.76C287.43 299.76 276.19 257.84 274.13 252.1C272.07 246.36 257.13 237.92 250.68 234.22C244.23 230.52 240.68 228.22 233.34 223.22L217.76 212.4Z" fill="#37474F"/>
<path d="M261.28 261.79C260.59 260.06 253.13 256.79 253.13 256.79L237.45 243.6C241.03 239.6 241.63 233.12 241.63 233.12C240.129 237.292 237.443 240.934 233.9 243.6C237.2 246.16 251.43 259.69 251.46 259.72C254.52 260.98 256.94 261.93 257.85 262.34C259.65 263.14 260.25 265.08 261.01 269.94C261.458 272.483 262.234 274.958 263.32 277.3C262.917 275.754 262.686 274.167 262.63 272.57C262.683 268.932 262.229 265.303 261.28 261.79Z" fill="#263238"/>
<path d="M279.65 317.7C279.648 318.352 279.763 318.999 279.99 319.61C280.34 320.37 282.11 321.5 283.24 322.03C284.842 322.787 286.112 324.103 286.81 325.73C288.116 328.303 290.251 330.361 292.87 331.57C296.324 332.972 300.122 333.289 303.76 332.48C308.3 331.58 308.61 328.89 308.61 328.89C308.61 328.89 308.8 326.36 307.66 325.98C306.52 325.6 279.65 317.7 279.65 317.7Z" fill="#263238"/>
<path d="M278.48 306.6C278.876 308.757 278.977 310.957 278.78 313.14C278.69 314.46 278.66 316.54 279.65 317.7C281.03 319.53 283.91 320.08 285.79 322.58C287.67 325.08 290.45 329.58 296.43 330.68C302.41 331.78 306.89 329.76 307.96 328.05C309.03 326.34 307.96 324.75 304.13 322.77C300.04 320.66 294.58 314.24 294.58 314.24C292.954 312.329 291.653 310.164 290.73 307.83L289.51 303.47C289.19 302.57 282.66 304.25 281.98 305.53L282.78 309.53L281 305.78L278.48 306.6Z" fill="#455A64"/>
<path d="M292.54 329.33C292.59 327.951 293.016 326.612 293.772 325.457C294.529 324.303 295.586 323.377 296.83 322.78C301.27 320.4 304.03 321.78 305.42 322.78C307.08 323.92 309.47 326.33 308.09 328.15C306.71 329.97 304.15 331.07 299.57 331.21C297.081 331.405 294.6 330.742 292.54 329.33Z" fill="#FAFAFA"/>
<path d="M286.12 315.53C286.199 315.526 286.276 315.504 286.345 315.465C286.414 315.427 286.474 315.374 286.52 315.31C287.02 314.59 290.24 311.87 293.41 312.68C293.56 312.32 293.29 311.95 292.64 311.57C289.31 311.34 286.26 313.9 285.64 314.77C285.603 314.824 285.578 314.885 285.566 314.949C285.554 315.013 285.555 315.079 285.569 315.142C285.583 315.206 285.61 315.266 285.648 315.319C285.686 315.372 285.734 315.417 285.79 315.45C285.89 315.509 286.004 315.537 286.12 315.53Z" fill="#FAFAFA"/>
<path d="M295.26 315C295.205 314.761 295.093 314.538 294.935 314.35C294.777 314.162 294.576 314.015 294.35 313.92C293.097 313.995 291.873 314.318 290.746 314.871C289.62 315.424 288.615 316.195 287.79 317.14C287.752 317.193 287.726 317.254 287.713 317.319C287.699 317.383 287.7 317.449 287.714 317.513C287.728 317.577 287.756 317.638 287.795 317.69C287.833 317.743 287.883 317.787 287.94 317.82C288.031 317.881 288.14 317.909 288.25 317.9C288.329 317.898 288.407 317.876 288.476 317.838C288.546 317.8 288.605 317.746 288.65 317.68C289.13 317 292.19 314.42 295.26 315Z" fill="#FAFAFA"/>
<path d="M292 310.53C292.051 310.408 292.075 310.276 292.07 310.144C292.065 310.012 292.03 309.882 291.969 309.765C291.908 309.647 291.822 309.545 291.716 309.464C291.611 309.384 291.489 309.328 291.36 309.3C287.73 308.51 284.2 311.43 283.56 312.37C283.521 312.424 283.494 312.485 283.48 312.549C283.467 312.614 283.466 312.681 283.479 312.746C283.492 312.81 283.519 312.872 283.557 312.926C283.595 312.98 283.644 313.026 283.7 313.06C283.794 313.114 283.901 313.142 284.01 313.14C284.091 313.135 284.17 313.112 284.241 313.072C284.312 313.032 284.373 312.977 284.42 312.91C284.93 312.14 288.6 309.06 292 310.53Z" fill="#FAFAFA"/>
<path d="M300.32 320C300.004 319.414 299.496 318.955 298.88 318.7C297.566 318.735 296.274 319.047 295.088 319.616C293.902 320.184 292.85 320.997 292 322C291.964 322.054 291.939 322.115 291.926 322.179C291.914 322.243 291.915 322.309 291.929 322.372C291.943 322.436 291.97 322.496 292.008 322.549C292.046 322.602 292.094 322.647 292.15 322.68C292.244 322.735 292.352 322.763 292.46 322.76C292.54 322.755 292.619 322.733 292.689 322.695C292.76 322.657 292.822 322.604 292.87 322.54C293.43 321.73 297 318.74 300.32 320Z" fill="#FAFAFA"/>
<path d="M290.37 320.32C290.451 320.315 290.53 320.292 290.601 320.252C290.672 320.212 290.733 320.157 290.78 320.09C291.27 319.38 294.42 316.72 297.56 317.45C297.475 317.195 297.334 316.963 297.147 316.771C296.96 316.579 296.732 316.432 296.48 316.34C295.228 316.41 294.002 316.73 292.875 317.282C291.749 317.833 290.744 318.604 289.92 319.55C289.883 319.604 289.857 319.665 289.844 319.729C289.831 319.794 289.831 319.86 289.844 319.924C289.857 319.989 289.883 320.05 289.92 320.104C289.957 320.158 290.005 320.204 290.06 320.24C290.154 320.294 290.261 320.322 290.37 320.32Z" fill="#FAFAFA"/>
<path d="M234.301 233.13C232.869 235.243 231.285 237.248 229.561 239.13L230.911 240.26C232.525 238.145 233.68 235.717 234.301 233.13Z" fill="#37474F"/>
<path d="M209.9 175.13C205.534 175.967 201.222 177.069 196.99 178.43C196.99 178.43 200.65 185.43 200.21 191.32C200.019 193.471 199.333 195.55 198.206 197.392C197.078 199.235 195.539 200.791 193.71 201.94C194.24 206.94 194.78 213.06 195.18 219.58C194.207 224.938 193.715 230.373 193.71 235.82C193.71 235.82 205.62 242.06 219.22 239.23C233.35 236.29 237.8 227.39 237.8 227.39L231.8 218.08L234.12 206.4C235.951 204.776 237.287 202.668 237.973 200.319C238.66 197.969 238.669 195.474 238 193.12C235.15 182.56 226.65 173.85 226.65 173.85C223.99 173.78 219.57 174.1 217.65 174.2C217.67 174.2 214.64 174.46 209.9 175.13Z" fill="#F5F5F5"/>
<path d="M219.221 239.23C220.632 238.934 222.025 238.553 223.391 238.09C223.515 237.572 223.579 237.042 223.581 236.51C223.61 235.789 223.444 235.074 223.101 234.44C222.43 233.539 221.469 232.896 220.381 232.62C217.591 231.62 214.611 231.41 211.781 230.62C208.951 229.83 206.101 228.29 204.781 225.62C204.222 224.369 203.955 223.008 204.002 221.639C204.049 220.27 204.407 218.929 205.051 217.72C205.711 216.38 206.641 215.07 206.651 213.58C206.651 211.58 205.071 210 204.031 208.29C200.031 201.8 204.031 193 201.191 185.94C200.842 184.91 200.199 184.006 199.341 183.34L198.911 183.07C199.868 185.705 200.312 188.498 200.221 191.3C200.03 193.451 199.344 195.53 198.216 197.372C197.089 199.215 195.55 200.771 193.721 201.92C194.251 206.92 194.791 213.04 195.191 219.56C194.218 224.918 193.726 230.353 193.721 235.8C193.721 235.8 205.621 242.06 219.221 239.23Z" fill="#E6E6E6"/>
<path d="M230.11 140.23C232.3 141.61 234.77 145.29 234.19 157.04C233.69 167.04 230.4 169.38 228.75 170.04C227.1 170.7 224 170.19 220.97 169.6L220.8 173.73C220.8 173.73 224.44 178.87 222.99 181.93C222.33 183.32 219.16 184.33 214.86 181.85C212.12 180.17 209.631 178.11 207.47 175.73L207.92 161.91C207.92 161.91 206.08 163.6 203.11 160.91C200.67 158.65 199.92 154.91 201.93 153C202.45 152.543 203.07 152.215 203.74 152.045C204.411 151.874 205.112 151.865 205.787 152.018C206.461 152.171 207.09 152.483 207.621 152.926C208.152 153.37 208.57 153.933 208.84 154.57C208.84 154.57 208.84 149.57 216.09 147.22C221.53 145.47 227.81 145.14 230.11 140.23Z" fill="#FFA8A7"/>
<path d="M211.72 149.59C210.91 150.4 210.72 153.88 210.66 156.09C210.661 156.609 210.46 157.107 210.1 157.48C209.74 157.853 209.249 158.072 208.73 158.09L208.84 154.58C208.84 154.58 208.12 149.06 211.72 149.59Z" fill="#37474F"/>
<path d="M236.731 148.9H236.131C234.102 149.002 232.105 149.442 230.221 150.2C228.371 151.13 227.741 151.91 226.691 152.11C225.641 152.31 224.831 151.79 222.781 151.58C220.624 151.574 218.481 151.912 216.431 152.58L215.801 152.77C215.584 152.881 215.407 153.055 215.292 153.27C215.178 153.484 215.132 153.729 215.161 153.97C215.265 154.408 215.507 154.8 215.851 155.09C215.957 155.226 216.036 155.383 216.081 155.55C216.324 156.662 216.659 157.753 217.081 158.81C217.309 159.221 217.611 159.587 217.971 159.89C218.108 159.993 218.251 160.086 218.401 160.17L218.651 160.29C218.886 160.385 219.131 160.455 219.381 160.5H219.511H219.701H219.901C220.11 160.515 220.321 160.515 220.531 160.5H220.801L221.141 160.45C222.08 160.34 222.969 159.968 223.708 159.378C224.447 158.787 225.006 158.002 225.321 157.11C225.881 155.7 225.611 153.9 226.801 153.68H227.001C227.891 153.68 227.891 155.42 228.521 156.52C228.761 156.958 229.075 157.351 229.451 157.68L229.661 157.84L229.781 157.92L229.901 157.99L230.001 158.05L230.121 158.11H230.211H230.281C230.618 158.248 230.977 158.326 231.341 158.34H231.441C231.867 158.349 232.292 158.312 232.711 158.23C233.53 158.114 234.298 157.765 234.924 157.224C235.55 156.683 236.007 155.974 236.241 155.18C236.508 154.012 236.686 152.825 236.771 151.63C236.798 151.453 236.867 151.286 236.971 151.14C237.246 150.737 237.408 150.267 237.441 149.78C237.451 149.31 237.061 148.88 236.731 148.9ZM224.551 156C224.454 156.721 224.182 157.407 223.761 158C223.424 158.428 223.005 158.785 222.53 159.051C222.055 159.317 221.532 159.487 220.991 159.55C220.495 159.683 219.973 159.679 219.48 159.538C218.987 159.397 218.541 159.125 218.191 158.75C218.158 158.713 218.127 158.672 218.101 158.63C218.065 158.598 218.035 158.561 218.011 158.52C217.982 158.485 217.955 158.449 217.931 158.41L217.871 158.31C217.867 158.287 217.867 158.263 217.871 158.24V158.17L217.811 158.05L217.651 157.69C217.62 157.622 217.593 157.552 217.571 157.48C217.528 157.365 217.491 157.249 217.461 157.13V157.06V157C217.201 156.13 216.861 154.4 217.281 153.92C218.272 153.1 219.514 152.645 220.801 152.63H221.011C221.311 152.63 221.611 152.63 221.911 152.63H222.251C222.547 152.648 222.841 152.688 223.131 152.75L223.401 152.81L223.701 152.9H223.761H223.861C224.09 152.975 224.299 153.101 224.471 153.27C224.751 153.8 224.711 155 224.551 156ZM235.811 153.52C235.776 154.144 235.611 154.753 235.327 155.31C235.043 155.866 234.646 156.356 234.161 156.75C233.734 157.043 233.25 157.24 232.741 157.33C232.216 157.505 231.652 157.522 231.119 157.378C230.585 157.233 230.106 156.935 229.741 156.52L229.681 156.44L229.611 156.36C229.578 156.321 229.551 156.277 229.531 156.23L229.441 156.08V156.01V155.94C229.348 155.733 229.271 155.519 229.211 155.3C228.887 154.421 228.852 153.461 229.111 152.56C229.923 151.627 230.995 150.959 232.191 150.64C232.482 150.545 232.779 150.468 233.081 150.41H233.181H233.301H233.601H233.721H233.861H234.111H234.771H234.871H235.001L235.221 150.46C235.397 150.501 235.563 150.576 235.711 150.68C236.071 150.8 236.001 152.62 235.811 153.56V153.52Z" fill="#37474F"/>
<path d="M215.551 153L205.551 152C206.164 152.103 206.748 152.334 207.265 152.679C207.782 153.023 208.22 153.474 208.551 154L215.491 154.72L215.551 153Z" fill="#37474F"/>
<path d="M222.39 155C222.404 155.338 222.283 155.667 222.055 155.916C221.826 156.166 221.508 156.314 221.17 156.33C220.909 156.348 220.648 156.287 220.422 156.155C220.195 156.024 220.014 155.827 219.9 155.591C219.787 155.355 219.746 155.09 219.785 154.831C219.823 154.572 219.938 154.33 220.115 154.137C220.292 153.944 220.523 153.809 220.778 153.748C221.033 153.688 221.3 153.705 221.545 153.798C221.79 153.891 222.001 154.055 222.152 154.269C222.303 154.483 222.386 154.738 222.39 155Z" fill="#263238"/>
<path d="M222.721 162.91L226.241 164.14C226.17 164.376 226.053 164.595 225.896 164.784C225.739 164.973 225.546 165.129 225.328 165.242C225.109 165.355 224.87 165.423 224.625 165.441C224.38 165.46 224.134 165.429 223.901 165.35C223.434 165.166 223.053 164.813 222.834 164.361C222.616 163.908 222.575 163.391 222.721 162.91Z" fill="#F28F8F"/>
<path d="M233.19 148.51L229.94 148.05C230.001 147.619 230.231 147.23 230.579 146.968C230.927 146.707 231.364 146.594 231.795 146.655C232.226 146.716 232.615 146.946 232.877 147.293C233.139 147.641 233.251 148.079 233.19 148.51Z" fill="#263238"/>
<path d="M221.19 149.66L218.19 151.02C218.101 150.823 218.051 150.61 218.044 150.394C218.037 150.178 218.072 149.962 218.148 149.76C218.225 149.558 218.34 149.372 218.488 149.214C218.635 149.056 218.813 148.929 219.01 148.84C219.408 148.659 219.861 148.645 220.27 148.798C220.679 148.952 221.01 149.262 221.19 149.66Z" fill="#263238"/>
<path d="M232.291 153.67C232.285 153.915 232.207 154.152 232.068 154.353C231.928 154.554 231.732 154.709 231.505 154.8C231.278 154.891 231.029 154.913 230.79 154.864C230.55 154.815 230.33 154.697 230.157 154.524C229.984 154.351 229.866 154.131 229.817 153.891C229.767 153.651 229.79 153.403 229.88 153.175C229.971 152.948 230.127 152.753 230.328 152.613C230.529 152.474 230.766 152.396 231.011 152.39C231.35 152.39 231.676 152.525 231.916 152.765C232.156 153.005 232.291 153.331 232.291 153.67Z" fill="#263238"/>
<path d="M226.721 153.72L227.391 161.4L231.231 159.8L227.001 153.68C226.906 153.683 226.812 153.697 226.721 153.72Z" fill="#F28F8F"/>
<path d="M221.001 169.61C217.801 169.11 211.261 167.04 210.301 164.4C210.677 165.73 211.452 166.913 212.521 167.79C214.451 169.53 220.921 171.61 220.921 171.61L221.001 169.61Z" fill="#F28F8F"/>
<path d="M252.94 202.62C252.984 202.112 253.149 201.623 253.422 201.192C253.696 200.762 254.069 200.405 254.51 200.15C256.16 198.93 258.31 197.96 259.01 194.93L261.28 196.24L257.45 202.67L252.94 202.62Z" fill="#EA67A8"/>
<path opacity="0.75" d="M252.94 202.62C252.984 202.112 253.149 201.623 253.422 201.192C253.696 200.762 254.069 200.405 254.51 200.15C256.16 198.93 258.31 197.96 259.01 194.93L261.28 196.24L257.45 202.67L252.94 202.62Z" fill="white"/>
<path d="M252.94 202.62C252.94 202.62 250.46 201.37 245.03 202.49C239.6 203.61 235.16 205.07 224.73 204.84L227.44 206.4L254.53 204.83L252.94 202.62Z" fill="#EA67A8"/>
<path opacity="0.75" d="M252.94 202.62C252.94 202.62 250.46 201.37 245.03 202.49C239.6 203.61 235.16 205.07 224.73 204.84L227.44 206.4L254.53 204.83L252.94 202.62Z" fill="white"/>
<path d="M224.731 204.84L215.051 236.01L217.751 237.57L227.441 206.4L224.731 204.84Z" fill="#EA67A8"/>
<path opacity="0.8" d="M224.731 204.84L215.051 236.01L217.751 237.57L227.441 206.4L224.731 204.84Z" fill="white"/>
<path opacity="0.1" d="M224.731 204.84L215.051 236.01L217.751 237.57L227.441 206.4L224.731 204.84Z" fill="black"/>
<g opacity="0.1">
<path opacity="0.1" d="M259.001 196.61C258.748 197.26 258.371 197.854 257.891 198.36C257.402 198.86 256.881 199.328 256.331 199.76C255.782 200.176 255.273 200.641 254.811 201.15C254.594 201.408 254.412 201.694 254.271 202C254.132 202.286 254.067 202.602 254.081 202.92L253.751 202.97C253.742 202.587 253.831 202.208 254.011 201.87C254.172 201.549 254.377 201.253 254.621 200.99C255.11 200.483 255.649 200.027 256.231 199.63C256.793 199.222 257.327 198.778 257.831 198.3C258.329 197.819 258.726 197.245 259.001 196.61Z" fill="black"/>
<path opacity="0.1" d="M258.57 198.36C258.336 198.748 258.057 199.107 257.74 199.43C257.42 199.76 257.1 200.08 256.8 200.43C256.495 200.755 256.221 201.106 255.98 201.48C255.751 201.843 255.607 202.253 255.56 202.68H255.22C255.305 202.214 255.493 201.774 255.77 201.39C256.043 201.03 256.347 200.696 256.68 200.39L257.68 199.47C258.024 199.141 258.324 198.768 258.57 198.36Z" fill="black"/>
<path opacity="0.1" d="M235.16 205.07C236.644 204.934 238.12 204.717 239.58 204.42C241.04 204.13 242.49 203.76 243.94 203.42C245.395 203.07 246.884 202.879 248.38 202.85C249.131 202.825 249.883 202.855 250.63 202.94C251.008 202.98 251.383 203.05 251.75 203.15C252.141 203.242 252.506 203.42 252.82 203.67L252.58 203.91C252.313 203.694 252.002 203.537 251.67 203.45C251.319 203.348 250.962 203.271 250.6 203.22C249.868 203.125 249.129 203.085 248.39 203.1C246.903 203.097 245.421 203.262 243.97 203.59C242.52 203.9 241.06 204.23 239.6 204.5C238.132 204.77 236.649 204.96 235.16 205.07Z" fill="black"/>
<path opacity="0.1" d="M242.33 204.93C243.17 204.82 244 204.64 244.83 204.49C245.66 204.34 246.5 204.18 247.34 204.06C248.184 203.938 249.037 203.881 249.89 203.89C250.758 203.893 251.618 204.052 252.43 204.36L252.3 204.67C251.532 204.348 250.712 204.169 249.88 204.14C249.039 204.105 248.197 204.135 247.36 204.23C246.52 204.31 245.68 204.44 244.84 204.57C244 204.7 243.17 204.85 242.33 204.93Z" fill="black"/>
</g>
<path d="M261.281 194.68L256.821 202.3L246.431 235.72L247.781 236.5L252.241 227.17L262.631 195.46L261.281 194.68Z" fill="#EA67A8"/>
<path opacity="0.2" d="M258.17 203.08L262.63 195.46L252.24 227.17L247.78 236.5L258.17 203.08Z" fill="black"/>
<path d="M252.361 204.87L225.651 206.58L215.261 240L216.611 240.78L243.331 239.07L253.721 205.65L252.361 204.87Z" fill="#EA67A8"/>
<path opacity="0.2" d="M227 207.36L216.61 240.78L243.33 239.07L253.72 205.65L227 207.36Z" fill="black"/>
<path d="M221.31 239.23C221.286 239.229 221.262 239.224 221.239 239.214C221.217 239.203 221.197 239.188 221.18 239.17C221.168 239.145 221.162 239.118 221.162 239.09C221.162 239.062 221.168 239.035 221.18 239.01C221.265 238.744 221.281 238.461 221.229 238.187C221.177 237.913 221.057 237.656 220.88 237.44C220.712 237.216 220.491 237.038 220.235 236.922C219.98 236.807 219.7 236.758 219.42 236.78C219.394 236.783 219.367 236.78 219.342 236.769C219.318 236.759 219.296 236.742 219.28 236.72C219.268 236.697 219.262 236.671 219.262 236.645C219.262 236.619 219.268 236.593 219.28 236.57L227.18 211.15C227.19 211.117 227.21 211.088 227.237 211.067C227.264 211.045 227.296 211.033 227.33 211.03C228.059 210.981 228.757 210.714 229.331 210.262C229.906 209.811 230.331 209.197 230.55 208.5C230.56 208.467 230.58 208.438 230.607 208.417C230.634 208.395 230.666 208.383 230.7 208.38L249 207.21C249.027 207.205 249.054 207.209 249.079 207.219C249.104 207.23 249.125 207.248 249.14 207.27C249.155 207.292 249.162 207.318 249.162 207.345C249.162 207.372 249.155 207.398 249.14 207.42C249.057 207.687 249.04 207.971 249.091 208.246C249.141 208.521 249.258 208.78 249.43 209C249.603 209.221 249.827 209.396 250.084 209.51C250.34 209.623 250.621 209.671 250.9 209.65C250.953 209.651 251.003 209.672 251.04 209.71C251.06 209.761 251.06 209.819 251.04 209.87L243.14 235.29C243.129 235.321 243.108 235.348 243.082 235.367C243.055 235.387 243.023 235.398 242.99 235.4C242.261 235.451 241.563 235.72 240.989 236.173C240.414 236.626 239.99 237.242 239.77 237.94C239.76 237.972 239.74 237.999 239.713 238.019C239.686 238.039 239.654 238.05 239.62 238.05L221.27 239.23H221.31ZM219.62 236.45C219.916 236.456 220.206 236.528 220.471 236.66C220.735 236.792 220.967 236.981 221.15 237.214C221.332 237.446 221.461 237.716 221.527 238.004C221.593 238.292 221.594 238.591 221.53 238.88L239.53 237.73C239.782 237.015 240.231 236.387 240.826 235.918C241.421 235.449 242.137 235.158 242.89 235.08L250.69 209.99C250.397 209.974 250.111 209.895 249.851 209.759C249.591 209.624 249.363 209.434 249.182 209.203C249.001 208.972 248.872 208.705 248.803 208.42C248.733 208.135 248.726 207.838 248.78 207.55L230.78 208.71C230.527 209.423 230.077 210.049 229.482 210.516C228.888 210.984 228.173 211.273 227.42 211.35L219.62 236.45Z" fill="#FAFAFA"/>
<path opacity="0.3" d="M225.651 206.58L227.001 207.36L216.611 240.78L215.261 240L225.651 206.58Z" fill="black"/>
<path d="M253.72 205.65L258.17 203.08L247.78 236.5C247.09 238.3 245.56 239.11 243.33 239.07L253.72 205.65Z" fill="#EA67A8"/>
<path opacity="0.3" d="M253.72 205.65L258.17 203.08L247.78 236.5C247 238.41 245.43 239.13 243.33 239.07L253.72 205.65Z" fill="black"/>
<path d="M256.67 202.21C256.058 201.991 255.404 201.915 254.758 201.986C254.112 202.057 253.49 202.274 252.94 202.62C251.72 203.33 251.39 204.29 252.22 204.78L253.72 205.65L258.17 203.08L256.82 202.3L256.67 202.21Z" fill="#455A64"/>
<path d="M251.34 213.28C252.94 213.28 254.69 213.11 255.46 211.78L256.46 208.47C255.993 209.156 255.35 209.703 254.599 210.054C253.847 210.406 253.015 210.55 252.19 210.47L251.34 213.28Z" fill="#E0E0E0"/>
<path d="M256.82 202.3C256.55 203.58 254.91 204.38 252.36 204.87L253.72 205.65C254.617 205.622 255.492 205.373 256.269 204.925C257.045 204.476 257.698 203.842 258.17 203.08L256.82 202.3Z" fill="#EA67A8"/>
<path d="M197.89 179.3C193.89 179.54 189.6 180.87 187.77 188.15C185.94 195.43 183.15 218.95 182.77 222.21C182.39 225.47 182.31 228.13 190.19 230.65C199.08 233.49 213.45 234.65 217.51 234.83C225 235.23 229.99 233.03 232.38 228.73C234.77 224.43 235.44 218.73 228.74 221.47C221.61 224.47 218.62 224.47 218.62 224.47L219.98 220.07C217.75 221.07 215.88 224.07 213.64 224.47C211.64 224.8 196.55 219.57 196.55 219.57L199.8 199.21C199.8 199.21 204.18 184.75 197.89 179.3Z" fill="#FFA8A7"/>
<path d="M199.13 177.77C195.05 178.66 192.87 178.99 189.82 181.98C186.77 184.97 187 188 186 194.45C185 200.67 184.21 209.94 184.21 209.94C184.21 209.94 191.21 214.23 197.68 212.76C198.15 210.32 199.87 201.76 200.9 196.81C201.887 192.267 201.962 187.572 201.12 183C200.66 180.81 200 178.8 199.13 177.77Z" fill="#455A64"/>
<path d="M259.651 204.38C259.181 202.85 257.451 205.73 256.651 210.14C255.921 214.37 254.921 218.79 254.921 218.79L253.761 222.39C253.761 222.39 256.551 220.66 258.831 215.93C261.111 211.2 261.001 208.71 259.651 204.38Z" fill="#FFA8A7"/>
<path d="M96.9102 239C97.5083 241.684 97.9358 244.403 98.1902 247.14C98.7802 253.5 101.46 284.02 102.66 286.14C103.86 288.26 115.47 299.74 115.47 299.74C117.977 296.119 121.363 293.194 125.31 291.24L117.64 280.47C117.64 280.47 114.79 259.98 114.31 254.93C113.83 249.88 112.57 237.8 96.9102 239Z" fill="#EA67A8"/>
<path opacity="0.3" d="M96.9102 239C97.5083 241.684 97.9358 244.403 98.1902 247.14C98.7802 253.5 101.46 284.02 102.66 286.14C103.86 288.26 115.47 299.74 115.47 299.74C117.977 296.119 121.363 293.194 125.31 291.24L117.64 280.47C117.64 280.47 114.79 259.98 114.31 254.93C113.83 249.88 112.57 237.8 96.9102 239Z" fill="black"/>
<path d="M133 378.4C133 378.4 135.89 389.75 137.83 393.31C140.03 397.31 143.09 402.76 146.45 406.51C147.18 407.32 148.84 408.83 149.45 409.51C149.591 409.64 149.702 409.798 149.774 409.975C149.847 410.152 149.88 410.343 149.87 410.534C149.861 410.725 149.809 410.911 149.719 411.08C149.629 411.249 149.503 411.396 149.35 411.51C147.91 412.93 141.71 413.38 138.19 410.83C134.67 408.28 130.77 402.12 128.66 400.06L125.89 397.31C125.547 396.969 125.298 396.544 125.167 396.079C125.035 395.613 125.026 395.121 125.14 394.65C125.21 394.38 125.28 394.06 125.37 393.65C126.11 390.29 122.09 381.8 122.09 381.8C125 377.62 129.21 377.79 133 378.4Z" fill="#B16668"/>
<path d="M124.92 398.06C124.84 398.628 124.909 399.207 125.12 399.74C125.46 400.5 127.66 401.85 128.79 402.38C129.92 402.91 131.73 405.69 132.79 407.38C134.18 409.866 136.265 411.892 138.79 413.21C142.238 414.606 146.028 414.924 149.66 414.12C154.18 413.22 154.49 410.53 154.49 410.53C154.49 410.53 154.68 408.01 153.55 407.64L124.92 398.06Z" fill="#263238"/>
<path d="M124.75 390.29C124.794 390.693 124.794 391.098 124.75 391.5C124.63 392.75 124.53 393.5 124.48 394.97C124.419 396.024 124.586 397.078 124.97 398.06C126.34 399.88 129.51 400.43 131.38 402.92C133.25 405.41 136.38 411.22 142.38 412.28C148.38 413.34 152.82 411.37 153.88 409.66C154.94 407.95 153.88 406.37 150.06 404.39C145.98 402.29 140.14 394.61 140.14 394.61C139.64 394.03 139.2 393.38 138.76 392.77C138.211 392.094 137.766 391.339 137.44 390.53C137.156 389.667 136.995 388.768 136.96 387.86C136.963 387.781 136.939 387.703 136.89 387.64C136.835 387.593 136.763 387.568 136.69 387.57C134.469 387.359 132.239 387.879 130.34 389.05C130.14 389.157 129.963 389.304 129.82 389.48C129.729 389.643 129.661 389.818 129.62 390L129.23 391.44C129.213 391.642 129.15 391.836 129.046 392.01C128.942 392.183 128.8 392.33 128.63 392.44C128.19 392.63 127.71 392.32 127.34 392.03C126.97 391.74 126.7 391.03 126.34 390.74C126.12 390.56 125.866 390.427 125.592 390.35C125.319 390.272 125.032 390.252 124.75 390.29Z" fill="#455A64"/>
<path d="M69.28 297.21C67.28 312.31 67.67 316.78 74.85 324.02C78.64 327.83 83.58 331.5 91.67 337.08C100.51 343.17 102.49 343.7 104.67 345.24C105.915 346.035 106.989 347.069 107.831 348.283C108.672 349.497 109.263 350.866 109.57 352.31C110.33 356.26 111.04 360.17 114.9 368.36C117.9 374.8 121.32 380.7 123.02 383.97C125.59 384.41 132.02 383.17 133.69 380.97C132.76 376.09 127.44 341.51 125.16 336.38C122.88 331.25 104.87 315.87 104.87 315.87C104.87 315.87 103.44 306.57 104.87 300.51L69.28 297.21Z" fill="#37474F"/>
<path d="M161.64 363.8C161.64 363.8 164.54 375.15 166.48 378.71C168.68 382.71 171.74 388.17 175.1 391.91C175.83 392.73 177.49 394.24 178.1 394.91C178.243 395.039 178.355 395.197 178.429 395.374C178.503 395.551 178.536 395.743 178.526 395.934C178.517 396.126 178.464 396.313 178.373 396.482C178.282 396.651 178.155 396.797 178 396.91C176.56 398.34 170.36 398.78 166.84 396.24C163.32 393.7 159.42 387.52 157.31 385.46L154.54 382.72C154.195 382.378 153.944 381.952 153.813 381.484C153.681 381.016 153.674 380.522 153.79 380.05C153.86 379.78 153.93 379.46 154.01 379.05C154.76 375.68 150.74 367.19 150.74 367.19C153.64 363 157.87 363.19 161.64 363.8Z" fill="#B16668"/>
<path d="M153.59 383.46C153.51 384.032 153.579 384.614 153.79 385.15C154.13 385.91 156.33 387.26 157.46 387.78C158.59 388.3 160.39 391.09 161.41 392.78C162.82 395.05 164.9 397.49 167.46 398.6C170.907 400.002 174.699 400.319 178.33 399.51C182.85 398.61 183.16 395.93 183.16 395.93C183.16 395.93 183.35 393.41 182.21 393.03L153.59 383.46Z" fill="#263238"/>
<path d="M153.42 375.7C153.464 376.102 153.464 376.508 153.42 376.91C153.3 378.16 153.2 378.91 153.15 380.37C153.083 381.424 153.25 382.479 153.64 383.46C155.01 385.29 158.18 385.83 160.05 388.33C161.92 390.83 165.1 396.62 171.05 397.68C177 398.74 181.48 396.77 182.55 395.06C183.62 393.35 182.55 391.77 178.73 389.79C174.65 387.69 168.81 380.01 168.8 380.01C168.31 379.43 167.87 378.79 167.43 378.17C166.881 377.494 166.436 376.739 166.11 375.93C165.827 375.066 165.662 374.168 165.62 373.26C165.63 373.182 165.608 373.103 165.56 373.04C165.5 372.995 165.426 372.97 165.35 372.97C163.133 372.766 160.908 373.285 159.01 374.45C158.807 374.558 158.63 374.708 158.49 374.89C158.397 375.052 158.33 375.228 158.29 375.41L157.9 376.84C157.883 377.042 157.82 377.236 157.716 377.41C157.612 377.583 157.47 377.73 157.3 377.84C156.86 378.03 156.38 377.73 156.01 377.43C155.64 377.13 155.37 376.43 154.96 376.15C154.746 375.977 154.5 375.847 154.236 375.77C153.971 375.693 153.694 375.669 153.42 375.7Z" fill="#455A64"/>
<path d="M74.8805 300.63C73.8005 306.71 102.33 319 102.33 319C102.33 319 106.24 320.47 114.21 324.36C120.572 327.339 126.759 330.677 132.741 334.36C134.991 335.75 136.74 336.52 137.4 339.92C138.16 343.87 137.82 345.62 142.83 354.92C146.201 361.19 149.97 366.09 151.67 369.35C154.24 369.79 160.67 368.56 162.34 366.35C161.41 361.47 156.34 326.76 153.81 321.76C150.21 314.72 114 296.4 114 296.4L74.8805 300.63Z" fill="#37474F"/>
<path d="M114.41 324.41L107.41 314.94C111.33 312.085 114.01 307.838 114.9 303.07C114.9 303.07 114.8 311.2 110.49 315.07L114.41 324.41Z" fill="#263238"/>
<path d="M82.4605 240.49C73.6705 242.66 67.8605 244.92 66.2805 246.65C62.9505 254.65 68.2105 304.65 68.2105 304.65C78.2905 312.2 109.45 308.05 114.02 296.37C114.02 296.37 111.84 260.53 110.8 254.04C109.6 246.55 105.03 238.9 94.9405 238.91L82.4605 240.49Z" fill="#F5F5F5"/>
<path d="M79.5306 300.77C76.7306 296.97 75.6806 286.94 75.6806 286.94C75.6806 286.94 74.4106 260.76 73.0006 254.57L65.1006 265L68.2106 304.72C68.5006 304.94 68.8206 305.15 69.1406 305.35L69.4706 305.54L70.1806 305.92L70.6006 306.12L71.3206 306.44L71.7806 306.62L72.5806 306.91L73.0006 307C73.3406 307.114 73.6739 307.214 74.0006 307.3L74.3006 307.38C74.7506 307.5 75.2106 307.6 75.6906 307.7L76.0706 307.77L77.1406 307.96L77.6906 308.04L78.6906 308.17L79.2806 308.24L80.2806 308.33H80.8806L81.9806 308.39H82.4906C83.0306 308.39 83.5706 308.39 84.1106 308.39H84.3706H85.7706H86.3806C86.7406 308.39 87.1006 308.39 87.4606 308.33H88.1306L89.1306 308.24L89.8206 308.18L90.8706 308.06L91.5206 307.98L92.7806 307.8L93.2006 307.73C93.7506 307.64 94.2906 307.55 94.8306 307.44L95.4006 307.33L96.4806 307.1L97.1506 306.94C97.4706 306.87 97.7906 306.79 98.1006 306.7C98.4106 306.61 98.5606 306.58 98.7806 306.52L99.7006 306.26L100.361 306.06L101.361 305.75L101.921 305.56L103.341 305.03L103.761 304.86L104.761 304.44L105.311 304.18L106.111 303.8L106.661 303.51L107.391 303.11L107.911 302.8C108.151 302.66 108.381 302.51 108.611 302.36L109.071 302.06C109.361 301.87 109.631 301.67 109.891 301.47L110.141 301.28C96.2906 306.79 82.3406 304.57 79.5306 300.77Z" fill="#EBEBEB"/>
<path d="M110.9 252.85C114.9 252.55 124.27 257.96 125.85 260.99C127.43 264.02 135.15 306.53 131.98 310.86C127.98 316.29 109.39 327.45 100.16 327.7C92.5399 327.9 84.7199 322.61 83.4399 320.64C81.3499 317.42 81.0699 271.81 83.2599 267.84C86.8099 261.4 105.81 253.23 110.9 252.85Z" fill="#EA67A8"/>
<path opacity="0.3" d="M110.9 252.85C114.9 252.55 124.27 257.96 125.85 260.99C127.43 264.02 135.15 306.53 131.98 310.86C127.98 316.29 109.39 327.45 100.16 327.7C92.5399 327.9 84.7199 322.61 83.4399 320.64C81.3499 317.42 81.0699 271.81 83.2599 267.84C86.8099 261.4 105.81 253.23 110.9 252.85Z" fill="white"/>
<path opacity="0.35" d="M84.8906 322.1C87.7606 324.46 94.0306 327.86 100.161 327.71C109.391 327.45 128.021 316.29 131.981 310.86C135.141 306.54 127.521 264.17 125.851 260.99C124.181 257.81 114.851 252.56 110.911 252.85C106.971 253.14 94.2406 258.85 87.3406 263.77L91.4406 266.19C95.5506 268.19 98.0906 274.14 98.9106 288.61C99.7306 303.08 101.251 322.61 99.0606 324.85C96.8706 327.09 92.1206 325.94 91.8406 325.85C89.335 324.988 86.9873 323.721 84.8906 322.1Z" fill="white"/>
<path opacity="0.1" d="M103 323.61C103.674 322.523 104.053 321.279 104.1 320C104.112 319.76 104.074 319.52 103.99 319.295C103.906 319.07 103.777 318.864 103.61 318.69C103.316 318.466 102.974 318.312 102.61 318.24C99.7902 317.43 96.7502 317.14 94.2202 315.64C94.0092 315.532 93.8274 315.374 93.6902 315.18C93.6222 315.082 93.5858 314.965 93.5858 314.845C93.5858 314.726 93.6222 314.609 93.6902 314.51C93.8183 314.386 93.983 314.305 94.1602 314.28C94.9702 314.1 95.8102 314.14 96.6402 314.02C97.853 313.83 98.9832 313.288 99.8902 312.46C100.183 312.211 100.406 311.891 100.54 311.53C100.591 311.355 100.592 311.169 100.545 310.993C100.497 310.816 100.402 310.657 100.27 310.53C100.055 310.389 99.807 310.306 99.5502 310.29C96.9202 309.87 94.5502 308.59 91.9802 308.12C89.5902 307.69 87.0902 307.87 84.7902 307.12C83.7369 306.757 82.7604 306.201 81.9102 305.48C82.1702 313.36 82.6802 319.65 83.4102 320.77C84.4214 322.034 85.7862 322.967 87.3302 323.45C88.9602 324.15 90.6402 324.73 92.3302 325.32C94.1854 326.068 96.1453 326.524 98.1402 326.67C98.6868 326.693 99.2336 326.629 99.7602 326.48C101.166 325.971 102.324 324.944 103 323.61Z" fill="black"/>
<path opacity="0.1" d="M129.75 279.35C129.15 275.72 128.51 272.29 127.93 269.35C127.277 268.884 126.592 268.463 125.88 268.09L100.25 277.09L98.1504 280.46C98.4804 282.81 98.7404 285.46 98.9104 288.56C98.9804 289.78 99.0604 291.04 99.1304 292.33C101.207 293.265 103.536 293.483 105.75 292.95C105.822 294.3 106.023 295.639 106.35 296.95C106.78 298.11 109.16 300.1 110.13 297.31C110.67 295.252 110.67 293.089 110.13 291.03L120.4 285.75C120.4 285.75 120.29 289.26 120.94 290.26C121.59 291.26 123.74 291.74 124.62 289.46C125.5 287.18 124.62 283.34 124.62 283.34C126.486 282.224 128.209 280.884 129.75 279.35Z" fill="black"/>
<path d="M111.321 252.83C115.701 252.55 123.751 256.56 126.201 259.83C128.651 263.1 130.851 273.11 129.401 276.16C127.951 279.21 117.401 285.77 110.211 289.26C104.431 292.05 101.291 291.61 99.1008 290.26C97.7108 289.4 97.3008 286.57 97.1008 284.47C96.5008 279.08 96.7708 276.16 93.3108 273.19C89.8508 270.22 83.8708 267.9 83.0308 270.35C83.0308 270.35 81.5008 266.83 88.0308 262.94C98.8108 256.51 105.911 253.16 111.321 252.83Z" fill="#EA67A8"/>
<path opacity="0.7" d="M111.321 252.83C115.701 252.55 123.751 256.56 126.201 259.83C128.651 263.1 130.851 273.11 129.401 276.16C127.951 279.21 117.401 285.77 110.211 289.26C104.431 292.05 101.291 291.61 99.1008 290.26C97.7108 289.4 97.3008 286.57 97.1008 284.47C96.5008 279.08 96.7708 276.16 93.3108 273.19C89.8508 270.22 83.8708 267.9 83.0308 270.35C83.0308 270.35 81.5008 266.83 88.0308 262.94C98.8108 256.51 105.911 253.16 111.321 252.83Z" fill="white"/>
<path d="M109.57 280.16L105.75 281.89C105.75 281.89 106.97 291.36 107.25 296.03C107.25 296.03 108.25 298.03 109.16 298.26C110.07 298.49 111.01 296.21 111.09 294.52C110.837 289.71 110.33 284.917 109.57 280.16Z" fill="#455A64"/>
<path d="M109.741 281.08L105.851 282.7C105.751 282.757 105.639 282.787 105.524 282.788C105.41 282.789 105.297 282.76 105.197 282.705C105.097 282.65 105.012 282.57 104.952 282.473C104.891 282.376 104.856 282.265 104.851 282.15L104.581 280.23C104.559 280.015 104.603 279.797 104.709 279.608C104.815 279.418 104.976 279.266 105.171 279.17L109.081 277.48C109.18 277.424 109.292 277.394 109.407 277.393C109.521 277.392 109.634 277.421 109.734 277.476C109.835 277.531 109.919 277.611 109.98 277.708C110.04 277.805 110.075 277.916 110.081 278.03L110.351 280.03C110.378 280.248 110.333 280.469 110.223 280.659C110.113 280.848 109.943 280.997 109.741 281.08Z" fill="#37474F"/>
<path d="M109.07 292.65C108.759 292.817 108.501 293.068 108.324 293.373C108.148 293.679 108.06 294.027 108.07 294.38C108.058 294.519 108.084 294.659 108.146 294.784C108.207 294.91 108.301 295.016 108.418 295.092C108.535 295.168 108.671 295.211 108.81 295.216C108.95 295.221 109.088 295.188 109.21 295.12C109.523 294.955 109.782 294.705 109.959 294.399C110.136 294.093 110.223 293.743 110.21 293.39C110.16 292.7 109.65 292.36 109.07 292.65Z" fill="#E0E0E0"/>
<path d="M123.85 273L120.12 274.92C120.12 274.92 121.22 284.28 121.74 288.92C121.74 288.92 122.88 290.82 123.74 291.05C124.6 291.28 125.49 288.91 125.48 287.21C125.236 282.444 124.691 277.698 123.85 273Z" fill="#455A64"/>
<path d="M124.06 273.88L120.26 275.7C120.163 275.753 120.056 275.782 119.946 275.784C119.836 275.786 119.727 275.761 119.629 275.712C119.531 275.663 119.446 275.591 119.381 275.502C119.317 275.412 119.275 275.309 119.26 275.2L118.89 273.3C118.856 273.086 118.889 272.867 118.984 272.672C119.078 272.477 119.231 272.316 119.42 272.21L123.24 270.32C123.336 270.265 123.444 270.234 123.555 270.231C123.665 270.227 123.775 270.252 123.874 270.301C123.973 270.351 124.059 270.424 124.122 270.515C124.186 270.605 124.227 270.71 124.24 270.82L124.61 272.82C124.644 273.032 124.61 273.25 124.51 273.441C124.411 273.632 124.253 273.786 124.06 273.88Z" fill="#37474F"/>
<path d="M123.38 285.43C123.082 285.617 122.841 285.881 122.682 286.195C122.524 286.508 122.454 286.86 122.48 287.21C122.478 287.349 122.513 287.486 122.582 287.606C122.651 287.727 122.75 287.827 122.87 287.896C122.991 287.966 123.127 288.002 123.266 288C123.405 287.999 123.541 287.961 123.66 287.89C123.96 287.706 124.203 287.442 124.362 287.128C124.521 286.813 124.59 286.461 124.56 286.11C124.48 285.42 124 285.11 123.38 285.43Z" fill="#E0E0E0"/>
<path d="M129.49 295.47C129.82 300.24 130.04 302.2 129.96 304.47C129.994 305.414 129.785 306.35 129.352 307.189C128.92 308.028 128.278 308.741 127.49 309.26C125.28 311.05 115.63 316.92 112.76 318.51C109.26 320.44 105.4 321.83 105.28 319.03C105.19 316.58 104.81 311.37 104.7 309.6C104.56 307.4 105.53 305.91 109.88 303.6C114 301.37 123.12 295.47 125.67 294.11C127.82 293 129.39 294 129.49 295.47Z" fill="#EA67A8"/>
<path opacity="0.7" d="M129.49 295.47C129.82 300.24 130.04 302.2 129.96 304.47C129.994 305.414 129.785 306.35 129.352 307.189C128.92 308.028 128.278 308.741 127.49 309.26C125.28 311.05 115.63 316.92 112.76 318.51C109.26 320.44 105.4 321.83 105.28 319.03C105.19 316.58 104.81 311.37 104.7 309.6C104.56 307.4 105.53 305.91 109.88 303.6C114 301.37 123.12 295.47 125.67 294.11C127.82 293 129.39 294 129.49 295.47Z" fill="white"/>
<path d="M80.5507 214.8C80.5149 216.522 80.8186 218.234 81.4445 219.838C82.0705 221.442 83.0064 222.908 84.1988 224.15C85.3911 225.393 86.8166 226.388 88.3938 227.08C89.971 227.771 91.6689 228.145 93.3907 228.18C100.481 228.18 104.681 222.04 106.231 214.82C109.081 201.61 100.491 201.44 93.4007 201.43C89.9243 201.501 86.6183 202.949 84.2089 205.456C81.7995 207.963 80.4837 211.324 80.5507 214.8Z" fill="#263238"/>
<path d="M74 220.21C74 220.21 76 229.85 76.75 231.43C77.2678 232.385 78.1351 233.102 79.17 233.43L79 226.69L74 220.21Z" fill="#263238"/>
<path d="M76.48 206.4C76.48 206.4 75.06 206.05 73.56 208.4C72.27 210.4 71.98 214.92 74 220.22L77.71 220.66L76.48 206.4Z" fill="#263238"/>
<path d="M75.1108 208.35L70.5608 208.44C70.5199 208.141 70.5425 207.837 70.6271 207.547C70.7116 207.257 70.8563 206.988 71.0515 206.758C71.2468 206.528 71.4883 206.342 71.7604 206.211C72.0325 206.08 72.3291 206.008 72.6308 206C73.2638 206.009 73.8703 206.255 74.3298 206.691C74.7893 207.126 75.0681 207.718 75.1108 208.35Z" fill="#263238"/>
<path d="M74.5507 207.27L71.1807 204C71.3764 203.772 71.6172 203.587 71.888 203.456C72.1589 203.325 72.4539 203.252 72.7544 203.24C73.055 203.229 73.3546 203.28 73.6345 203.39C73.9144 203.5 74.1684 203.667 74.3807 203.88C74.839 204.315 75.1123 204.91 75.144 205.541C75.1756 206.172 74.9632 206.792 74.5507 207.27Z" fill="#263238"/>
<path d="M78.8208 220.66C78.0708 221.12 77.0108 219.66 76.1008 218.66C75.1908 217.66 72.3008 216.72 70.8008 219.99C69.3008 223.26 71.9108 226.4 73.9908 227.58C77.2608 229.42 78.6908 226.65 78.6908 226.65L79.3408 242C81.2408 247.29 96.5408 248.44 93.4108 241.73V237C94.9414 237.245 96.4963 237.303 98.0408 237.17C101.041 236.69 102.911 234.23 103.821 230.86C105.271 225.45 105.821 221.08 104.601 210.44C103.251 198.78 90.2308 198.65 83.1908 203.25C76.1508 207.85 78.8208 220.66 78.8208 220.66Z" fill="#B16668"/>
<path d="M95.0604 208.65C91.9504 208.34 88.8804 207.71 85.7604 207.47C85.0929 207.39 84.4166 207.424 83.7604 207.57C81.3704 208.21 81.6804 210.99 81.3004 212.93C80.6404 216.27 80.1004 221.93 78.8404 221.93C78.4604 221.93 77.0404 219.48 76.1204 218.6C75.6086 217.846 75.3208 216.962 75.2904 216.05C75.0504 214.66 74.9204 213.26 74.8204 211.86C74.7304 210.68 74.6104 209.47 74.6204 208.28C74.5574 206.939 74.6615 205.596 74.9304 204.28C75.2288 203.159 75.7989 202.129 76.5904 201.28L76.8304 201.02C78.4022 199.387 80.3046 198.109 82.4104 197.27C85.4378 196.154 88.6105 195.48 91.8304 195.27C95.0404 194.94 98.2704 194.77 101.44 194.12C101.62 194.065 101.811 194.065 101.99 194.12C102.12 194.189 102.23 194.291 102.309 194.416C102.388 194.54 102.433 194.683 102.44 194.83C102.564 195.567 102.479 196.324 102.194 197.015C101.91 197.706 101.437 198.304 100.83 198.74C102.98 198.91 105.45 197.79 107.52 197.24C107.688 197.168 107.868 197.131 108.05 197.131C108.233 197.131 108.413 197.168 108.58 197.24C108.783 197.386 108.929 197.598 108.99 197.84C109.14 198.402 109.161 198.99 109.05 199.56C108.856 201.27 108.214 202.898 107.19 204.28C105.591 206.363 103.33 207.841 100.78 208.47C98.8947 208.827 96.9648 208.888 95.0604 208.65Z" fill="#263238"/>
<path d="M93.4001 237C93.4001 237 85.8801 235.47 83.5501 234.17C82.165 233.415 81.042 232.258 80.3301 230.85C80.6758 232.265 81.2978 233.597 82.1601 234.77C83.8601 237.04 93.4001 238.85 93.4001 238.85V237Z" fill="#9A4A4D"/>
<path d="M92.0006 219.29C92.0086 219.472 91.9805 219.654 91.9179 219.825C91.8552 219.996 91.7593 220.153 91.6357 220.287C91.512 220.421 91.3631 220.529 91.1974 220.605C91.0318 220.681 90.8527 220.724 90.6706 220.73C90.3795 220.754 90.0878 220.69 89.8339 220.545C89.58 220.401 89.3756 220.183 89.2474 219.921C89.1193 219.658 89.0735 219.363 89.116 219.074C89.1584 218.785 89.2872 218.516 89.4854 218.301C89.6836 218.087 89.942 217.937 90.2267 217.872C90.5115 217.806 90.8093 217.829 91.0811 217.936C91.353 218.042 91.5862 218.229 91.7503 218.471C91.9144 218.712 92.0016 218.998 92.0006 219.29Z" fill="#263238"/>
<path d="M89.8501 213.53L87.0001 215.17C86.7945 214.763 86.7492 214.293 86.8733 213.855C86.9974 213.416 87.2818 213.039 87.6701 212.8C87.8589 212.694 88.0679 212.628 88.2835 212.608C88.4992 212.588 88.7167 212.613 88.9221 212.681C89.1275 212.75 89.3162 212.861 89.4761 213.007C89.6359 213.154 89.7633 213.332 89.8501 213.53Z" fill="#263238"/>
<path d="M93.0004 228.91L96.0004 230.1C95.9399 230.302 95.84 230.49 95.7063 230.652C95.5727 230.815 95.4081 230.95 95.222 231.048C95.036 231.147 94.8321 231.208 94.6224 231.227C94.4127 231.246 94.2013 231.223 94.0004 231.16C93.5791 230.982 93.2413 230.651 93.0555 230.233C92.8698 229.815 92.8501 229.342 93.0004 228.91Z" fill="#9A4A4D"/>
<path d="M104.26 214.76L101.65 212.67C101.768 212.488 101.922 212.333 102.104 212.214C102.285 212.095 102.489 212.016 102.703 211.981C102.917 211.946 103.136 211.957 103.346 212.012C103.555 212.067 103.751 212.165 103.92 212.3C104.27 212.596 104.498 213.011 104.561 213.465C104.624 213.919 104.517 214.38 104.26 214.76Z" fill="#263238"/>
<path d="M103.11 218.9C103.089 219.159 102.992 219.407 102.833 219.612C102.673 219.818 102.457 219.972 102.211 220.057C101.965 220.142 101.7 220.153 101.448 220.09C101.195 220.026 100.967 219.891 100.79 219.7C100.614 219.509 100.497 219.27 100.453 219.014C100.41 218.757 100.442 218.494 100.546 218.255C100.65 218.017 100.821 217.814 101.038 217.671C101.256 217.528 101.51 217.451 101.77 217.45C102.14 217.466 102.488 217.627 102.739 217.899C102.99 218.17 103.124 218.53 103.11 218.9Z" fill="#263238"/>
<path d="M95.96 217.78L96.11 226.22L100.9 225.13L95.96 217.78Z" fill="#9A4A4D"/>
<path d="M70.3707 244.59C63.1707 247.59 58.6107 247.69 56.7507 259.76C55.6807 266.7 50.6807 286.85 53.0207 291.09C57.1607 298.56 71.6107 316.09 78.6007 321.21C81.6007 323.42 84.7507 325.76 88.3107 327.02C91.5007 328.16 95.8407 328.37 98.9207 326.8C99.7242 326.386 100.435 325.812 101.009 325.114C101.583 324.416 102.009 323.609 102.261 322.74C102.424 322.315 102.482 321.856 102.429 321.404C102.377 320.951 102.216 320.518 101.961 320.14C101.442 319.641 100.782 319.312 100.071 319.2C97.3107 318.5 94.4307 317.86 92.1607 316.13C91.9307 315.95 91.6707 315.67 91.7707 315.39C91.9307 314.95 94.0207 315.22 94.4507 315.18C95.6492 315.108 96.828 314.841 97.9407 314.39C98.4646 314.2 98.9157 313.85 99.2307 313.39C99.3762 313.155 99.433 312.876 99.3908 312.603C99.3486 312.33 99.2103 312.081 99.0007 311.9C98.7752 311.767 98.5219 311.689 98.2607 311.67C96.2607 311.37 94.3007 311.014 92.3807 310.6C90.7107 310.25 89.0807 309.8 87.3807 309.6C86.212 309.539 85.0508 309.375 83.9107 309.11C81.1607 308.2 74.2107 300.41 72.0407 297.16C69.8815 293.92 68.0428 290.477 66.5507 286.88C67.2007 279.55 67.9207 273.88 70.1607 266.73C72.4007 259.58 73.9107 252.15 70.3707 244.59Z" fill="#B16668"/>
<path d="M71.0603 244C71.0603 244 61.4803 245.95 58.5003 251.6C55.5203 257.25 51.0003 287.88 51.6703 290.2C53.5103 296.72 70.2403 313.3 70.2403 313.3C70.2403 313.3 72.6203 306.3 79.2403 305.41L68.2403 286.94L73.2403 261.17C73.2403 261.17 75.3203 250.47 71.0603 244Z" fill="#EA67A8"/>
<g opacity="0.3">
<path opacity="0.3" d="M71.0603 244C71.0603 244 61.4803 245.95 58.5003 251.6C55.5203 257.25 51.0003 287.88 51.6703 290.2C53.5103 296.72 70.2403 313.3 70.2403 313.3C70.2403 313.3 72.6203 306.3 79.2403 305.41L68.2403 286.94L73.2403 261.17C73.2403 261.17 75.3203 250.47 71.0603 244Z" fill="black"/>
</g>
</svg>
