<svg width="54" height="72" viewBox="0 0 54 72" fill="none" xmlns="http://www.w3.org/2000/svg">
<path d="M43.164 53.8397C43.8566 48.6036 48.8433 42.9982 51.0134 38.3809C53.1096 33.9391 54.3286 30.4945 53.9223 26.3759C53.6914 23.9564 52.0754 20.7058 50.2284 20.0779C52.0015 10.9633 45.0663 7.00166 41.4278 6.22596C39.7267 5.95229 38.0454 5.56667 36.395 5.07163C34.4003 4.32362 33.9016 2.76297 32.2763 1.47936C29.5059 -0.736948 24.8886 -0.626132 23.2726 2.9292C21.3795 0.648245 18.9231 0.796001 16.1157 1.61788C14.9259 1.92865 13.8993 2.68162 13.2455 3.72323C12.5918 4.76485 12.3599 6.01664 12.5974 7.2233C8.72805 5.23785 5.33894 8.03594 5.07114 10.28C4.86798 11.933 5.26506 13.3089 4.24002 14.8234C3.08569 16.5226 0.795503 16.578 0.0567337 15.2574C-0.257243 17.6122 0.721633 19.3576 3.25192 19.136C2.84433 19.8014 2.58761 20.5482 2.49986 21.3236C2.41211 22.099 2.49544 22.8843 2.74401 23.624C3.08037 24.5496 3.69115 25.3505 4.49475 25.9198C5.29835 26.4891 6.25651 26.7996 7.24127 26.8099C7.35259 28.1225 7.81286 29.3815 8.57437 30.4563C9.33588 31.5312 10.3709 32.3829 11.5723 32.9232C15.4786 34.6132 19.7449 35.0657 23.9098 35.7675L28.8503 36.6171C29.1366 36.6633 30.6233 36.7002 30.808 36.9495L43.164 53.8397Z" fill="#263238"/>
<path d="M49.2219 46.8952C45.6481 49.2039 43.3856 47.1446 43.3856 47.1446L43.8381 65.2537C45.4265 68.181 35.244 71.5 29.5 71.5C28 71.5 22.4877 68.5 22.6262 62.2339L22.4877 59.6113C20.4231 59.7226 18.3535 59.7041 16.2912 59.5559C12.1911 59.1404 9.01435 55.9452 7.6938 51.568C6.20619 45.8692 5.82686 39.9378 6.57641 34.096C6.79952 32.675 6.82437 31.2298 6.65028 29.802C6.12391 26.025 6.72416 23.7994 7.57374 20.5673C11.9325 16.7996 22.266 15.202 32.1471 20.7428C31.2236 26.5421 33.6246 31.0209 37.891 33.071C37.7525 34.6317 37.6971 38.5656 40.2458 38.3994C42.0928 38.2793 42.0928 35.9707 43.9397 33.8652C45.7866 31.7597 50.1546 31.0948 51.9646 34.0037C54.5226 38.1223 53.1466 44.3557 49.2219 46.8952Z" fill="#C8856A"/>
<path d="M22.4875 59.6113C28.9518 58.6232 33.8092 57.7644 37.0136 52.9439C38.4948 50.4779 39.7112 47.8623 40.6428 45.1407C40.6428 45.1407 40.1811 50.8938 38.2049 54.8462C36.6812 57.8937 32.6641 60.5348 22.5984 61.763L22.4875 59.6113Z" fill="#AF6152"/>
<path d="M24.7409 34.4562C24.769 34.8196 24.9041 35.1665 25.129 35.4533C25.3539 35.7401 25.6587 35.9539 26.0049 36.0679C26.3511 36.1818 26.7233 36.1908 27.0746 36.0936C27.4259 35.9965 27.7406 35.7975 27.979 35.5219C28.2175 35.2462 28.3691 34.9062 28.4147 34.5446C28.4603 34.183 28.3979 33.816 28.2353 33.4897C28.0727 33.1635 27.8173 32.8927 27.5011 32.7114C27.1849 32.53 26.8222 32.4463 26.4585 32.4708C26.2149 32.4871 25.977 32.5516 25.7585 32.6605C25.54 32.7694 25.3452 32.9205 25.1855 33.1052C25.0258 33.2898 24.9042 33.5043 24.8279 33.7362C24.7516 33.9681 24.722 34.2128 24.7409 34.4562Z" fill="#263238"/>
<path d="M25.0178 28.4722L29.1919 29.9959C29.387 29.4272 29.3535 28.8049 29.0985 28.2605C28.8435 27.716 28.3869 27.2919 27.8252 27.0777C27.5496 26.9784 27.2569 26.9359 26.9645 26.9527C26.6721 26.9696 26.3861 27.0454 26.1238 27.1757C25.8615 27.306 25.6283 27.488 25.4383 27.7108C25.2482 27.9336 25.1052 28.1926 25.0178 28.4722Z" fill="#263238"/>
<path d="M9.38365 30.2452L13.53 28.5276C13.4311 28.2521 13.2772 27.9996 13.0778 27.7854C12.8783 27.5712 12.6375 27.3998 12.3698 27.2815C12.1021 27.1632 11.8131 27.1005 11.5205 27.0972C11.2278 27.0939 10.9375 27.1501 10.6673 27.2624C10.1114 27.4998 9.66803 27.9419 9.42909 28.4972C9.19014 29.0524 9.17388 29.6783 9.38365 30.2452Z" fill="#263238"/>
<path d="M10.5841 34.4654C10.643 34.8251 10.807 35.1594 11.0555 35.4261C11.304 35.6928 11.6259 35.8799 11.9805 35.9641C12.3352 36.0482 12.7069 36.0255 13.0486 35.8988C13.3904 35.7721 13.6871 35.5471 13.9013 35.2521C14.1154 34.9572 14.2375 34.6054 14.2522 34.2412C14.2668 33.877 14.1734 33.5166 13.9836 33.2054C13.7938 32.8942 13.5162 32.6461 13.1857 32.4923C12.8552 32.3386 12.4866 32.2861 12.1263 32.3415C11.885 32.3785 11.6535 32.463 11.4451 32.5901C11.2368 32.7172 11.0556 32.8843 10.9122 33.0818C10.7688 33.2793 10.666 33.5033 10.6097 33.7408C10.5533 33.9783 10.5446 34.2246 10.5841 34.4654Z" fill="#263238"/>
<path d="M13.4192 41.0497L19.8834 43.6262L21.3794 31.141C18.96 30.393 16.1434 36.2108 13.4192 41.0497Z" fill="#AF6152"/>
<path d="M25.8767 45.9902L18.332 47.9018C18.4357 48.4017 18.6383 48.8757 18.9281 49.296C19.2179 49.7162 19.5889 50.0742 20.0193 50.3488C20.4496 50.6233 20.9306 50.8089 21.4338 50.8946C21.9371 50.9803 22.4524 50.9643 22.9493 50.8477C23.9729 50.5773 24.8511 49.919 25.3975 49.0123C25.944 48.1055 26.1159 47.0216 25.8767 45.9902Z" fill="#AF6152"/>
<path d="M25.0087 47.2646C25.3155 47.2291 25.6253 47.2291 25.9321 47.2646C25.8703 48.0975 25.5522 48.8909 25.0214 49.5357C24.4907 50.1806 23.7733 50.6453 22.9678 50.8661C22.5603 50.9666 22.1384 50.9948 21.7211 50.9492C21.6874 50.0294 22.0108 49.1322 22.6235 48.4455C23.2363 47.7587 24.091 47.3355 25.0087 47.2646Z" fill="#FFA8A7"/>
</svg>
