<svg width="81" height="57" viewBox="0 0 81 57" fill="none" xmlns="http://www.w3.org/2000/svg">
<path d="M14.6673 25.4047V45.3232C14.6673 48.1911 17.1877 51.059 22.1893 53.2466C32.2122 57.6511 48.4651 57.6511 58.488 53.2466C63.5044 51.0492 66.0052 48.1764 66.0052 45.2987V25.4047C66.0639 22.4683 63.5582 19.5808 58.4929 17.359C48.47 12.9544 32.2171 12.9544 22.1942 17.359C17.1143 19.5662 14.6134 22.5025 14.6722 25.4047H14.6673Z" fill="#37474F"/>
<path d="M14.6722 25.4047C14.6134 22.4683 17.1192 19.5808 22.1893 17.359C32.2122 12.9544 48.4651 12.9544 58.488 17.359C63.5582 19.5808 66.059 22.4928 66.0003 25.4047V34.5026C66.0003 32.2465 63.9987 30.6315 58.072 32.8142C48.3575 36.3917 42.9007 42.2987 32.9952 45.2204C24.8027 47.6332 17.5449 46.6886 14.6624 43.6886V25.4047H14.6722Z" fill="#263238"/>
<path d="M14.6673 35.9463V38.2073C14.6673 41.0703 17.1877 43.9431 22.1893 46.1258C32.2122 50.5304 48.4651 50.5304 58.488 46.1258C63.5386 43.9186 66.0394 41.0116 66.0052 38.1143V35.9267C66.0052 38.7995 63.5044 41.6723 58.488 43.8746C48.4651 48.2791 32.2122 48.2791 22.1893 43.8746C17.1877 41.6821 14.6819 38.8191 14.6673 35.9463Z" fill="#55BA92"/>
<path d="M80.6676 19.0523L40.3362 0L0 19.0523V22.2285L40.3362 39.1666L80.6676 22.2285V19.0523Z" fill="#37474F"/>
<path opacity="0.2" d="M40.3362 39.1666V35.9904L80.6675 19.0523V22.2285L40.3362 39.1666Z" fill="#55BA92"/>
<path opacity="0.2" d="M40.3362 35.9904L80.0901 19.9968L80.6675 22.2285V19.0523L40.3362 35.9904Z" fill="#55BA92"/>
<path d="M40.3362 0L0 19.0523L40.3362 35.9904L80.6676 19.0523L40.3362 0Z" fill="#455A64"/>
<path d="M18.7097 34.6543C18.7097 34.39 18.5825 28.1991 19.1991 26.4373C19.8158 24.6755 22.1061 22.8892 26.8876 20.4618C30.306 18.7364 33.9101 17.4064 37.6299 16.4976L37.8256 17.3785C34.1785 18.2684 30.6449 19.5721 27.2938 21.2644C22.8011 23.545 20.5694 25.2334 20.0556 26.7309C19.5955 28.067 19.5906 32.8876 19.6298 34.6347L18.7097 34.6543Z" fill="#55BA92"/>
<path opacity="0.8" d="M18.7097 34.6543C18.7097 34.39 18.5825 28.1991 19.1991 26.4373C19.8158 24.6755 22.1061 22.8892 26.8876 20.4618C30.306 18.7364 33.9101 17.4064 37.6299 16.4976L37.8256 17.3785C34.1785 18.2684 30.6449 19.5721 27.2938 21.2644C22.8011 23.545 20.5694 25.2334 20.0556 26.7309C19.5955 28.067 19.5906 32.8876 19.6298 34.6347L18.7097 34.6543Z" fill="white"/>
<path d="M23.9512 53.5891C23.9512 48.9545 23.1828 40.6543 20.7505 38.2416H17.545C15.098 40.6543 14.3492 48.9545 14.3492 53.5891C14.3492 54.2988 14.8141 55.0084 15.7538 55.5467C16.8054 56.0806 17.9683 56.3589 19.1477 56.3589C20.3272 56.3589 21.49 56.0806 22.5417 55.5467C23.4814 55.0035 23.9512 54.2939 23.9512 53.5891Z" fill="#55BA92"/>
<path opacity="0.5" d="M23.9512 53.5891C23.9512 48.9545 23.1828 40.6543 20.7505 38.2416H17.545C15.098 40.6543 14.3492 48.9545 14.3492 53.5891C14.3492 54.2988 14.8141 55.0084 15.7538 55.5467C16.8054 56.0806 17.9683 56.3589 19.1477 56.3589C20.3272 56.3589 21.49 56.0806 22.5417 55.5467C23.4814 55.0035 23.9512 54.2939 23.9512 53.5891Z" fill="white"/>
<path opacity="0.6" d="M17.545 38.2416C17.3524 38.4404 17.1787 38.6567 17.0262 38.8876C17.6379 39.5336 18.5776 39.7 19.5123 39.7734C20.4471 39.8468 21.421 40.6054 21.837 44.408C22.253 48.2107 23.0605 53.0655 21.5531 54.5386C20.0458 56.0117 16.6836 56.0068 14.9169 54.9007C15.1632 55.1567 15.445 55.3759 15.7538 55.5516C16.8054 56.0855 17.9683 56.3638 19.1477 56.3638C20.3272 56.3638 21.49 56.0855 22.5417 55.5516C23.4814 55.0084 23.9512 54.2988 23.9512 53.594C23.9512 48.9594 23.1828 40.6592 20.7505 38.2465L17.545 38.2416Z" fill="#55BA92"/>
<path d="M21.5531 36.5532C21.5531 37.0296 21.4118 37.4953 21.147 37.8914C20.8822 38.2875 20.5058 38.5961 20.0656 38.7782C19.6253 38.9603 19.1409 39.0077 18.6737 38.9144C18.2065 38.8211 17.7775 38.5913 17.4409 38.254C17.1044 37.9168 16.8754 37.4873 16.7831 37.0199C16.6907 36.5525 16.7391 36.0682 16.9221 35.6283C17.1051 35.1884 17.4145 34.8127 17.8111 34.5487C18.2077 34.2848 18.6737 34.1444 19.1502 34.1453C19.4661 34.1453 19.779 34.2076 20.0709 34.3287C20.3627 34.4498 20.6278 34.6272 20.851 34.8509C21.0742 35.0745 21.2511 35.34 21.3716 35.6321C21.4921 35.9242 21.5538 36.2372 21.5531 36.5532Z" fill="#55BA92"/>
<path opacity="0.5" d="M21.5531 36.5532C21.5531 37.0296 21.4118 37.4953 21.147 37.8914C20.8822 38.2875 20.5058 38.5961 20.0656 38.7782C19.6253 38.9603 19.1409 39.0077 18.6737 38.9144C18.2065 38.8211 17.7775 38.5913 17.4409 38.254C17.1044 37.9168 16.8754 37.4873 16.7831 37.0199C16.6907 36.5525 16.7391 36.0682 16.9221 35.6283C17.1051 35.1884 17.4145 34.8127 17.8111 34.5487C18.2077 34.2848 18.6737 34.1444 19.1502 34.1453C19.4661 34.1453 19.779 34.2076 20.0709 34.3287C20.3627 34.4498 20.6278 34.6272 20.851 34.8509C21.0742 35.0745 21.2511 35.34 21.3716 35.6321C21.4921 35.9242 21.5538 36.2372 21.5531 36.5532Z" fill="white"/>
<path opacity="0.4" d="M20.545 34.6005C20.7211 34.8409 20.8461 35.1148 20.9123 35.4054C20.9786 35.696 20.9846 35.9971 20.93 36.29C20.8755 36.583 20.7615 36.8618 20.5951 37.109C20.4287 37.3563 20.2135 37.5668 19.9626 37.7277C19.4797 38.0444 18.8972 38.1725 18.326 38.0876C17.7548 38.0028 17.2347 37.711 16.8647 37.2677C16.978 37.6311 17.1761 37.9622 17.4428 38.2339C17.7094 38.5055 18.0369 38.7097 18.3981 38.8297C18.7593 38.9497 19.1439 38.982 19.52 38.9239C19.8962 38.8658 20.2531 38.719 20.5613 38.4957C20.8695 38.2723 21.1201 37.9788 21.2924 37.6394C21.4647 37.3 21.5537 36.9245 21.5521 36.5439C21.5505 36.1633 21.4583 35.7885 21.2832 35.4506C21.1081 35.1126 20.855 34.8212 20.545 34.6005Z" fill="#55BA92"/>
<path d="M37.0915 15.3475C37.1192 15.0631 37.2215 14.7911 37.3883 14.559C37.555 14.3269 37.7802 14.1431 38.0409 14.0261C38.7518 13.6666 39.5372 13.4793 40.3338 13.4793C41.1304 13.4793 41.9158 13.6666 42.6266 14.0261C42.8874 14.1431 43.1125 14.3269 43.2793 14.559C43.446 14.7911 43.5484 15.0631 43.5761 15.3475V16.4095C43.5489 16.6941 43.4467 16.9664 43.2799 17.1985C43.1131 17.4307 42.8877 17.6144 42.6266 17.7309C41.9158 18.0904 41.1304 18.2778 40.3338 18.2778C39.5372 18.2778 38.7518 18.0904 38.0409 17.7309C37.7799 17.6144 37.5545 17.4307 37.3877 17.1985C37.2209 16.9664 37.1187 16.6941 37.0915 16.4095V15.3475Z" fill="#263238"/>
<path d="M42.6364 16.6738C43.9039 15.9397 43.9039 14.7554 42.6364 14.0261C41.9256 13.6666 41.1402 13.4793 40.3436 13.4793C39.547 13.4793 38.7616 13.6666 38.0507 14.0261C36.7881 14.7554 36.7881 15.9397 38.0507 16.6738C38.7616 17.0333 39.547 17.2207 40.3436 17.2207C41.1402 17.2207 41.9256 17.0333 42.6364 16.6738Z" fill="#37474F"/>
</svg>
