<svg width="124" height="301" viewBox="0 0 124 301" fill="none" xmlns="http://www.w3.org/2000/svg">
<path d="M56.8928 252.76C57.0779 256.95 56.8928 261.892 56.8928 261.892L59.3309 262.022C60.487 262.086 61.5987 262.488 62.5277 263.179C63.4568 263.87 64.1619 264.819 64.5554 265.908L64.6207 266.06C64.8211 266.616 65.2282 267.074 65.7573 267.337C66.2865 267.601 66.8968 267.65 67.4614 267.475C67.7631 267.378 68.042 267.221 68.2814 267.013C68.5209 266.806 68.7158 266.552 68.8547 266.267L70.0954 255.742L56.8928 252.76Z" fill="#C8856A"/>
<path d="M53.3228 289.287C46.9337 292.019 37.1597 292.553 33.0999 286.022V287.785C37.1597 294.316 46.9337 293.772 53.3228 291.051C59.7119 288.33 58.3078 283.867 64.0329 281.473C66.1271 280.714 68.032 279.511 69.6166 277.946C69.6166 277.434 69.7254 276.781 69.8125 276.03C68.1187 277.589 66.1618 278.834 64.0329 279.709C58.3622 282.104 59.7119 286.566 53.3228 289.287Z" fill="#37474F"/>
<path d="M69.8124 270.229C69.5579 268.987 69.5579 267.705 69.8124 266.463C69.8887 266.182 69.9029 265.887 69.854 265.599C69.8051 265.312 69.6944 265.038 69.5294 264.798L69.0505 264.33L68.8219 266.267C68.6831 266.552 68.4882 266.806 68.2488 267.014C68.0093 267.221 67.7304 267.378 67.4288 267.475C66.8641 267.65 66.2538 267.601 65.7246 267.337C65.1955 267.074 64.7884 266.616 64.588 266.06L64.5227 265.908C64.1292 264.819 63.4241 263.87 62.4951 263.179C61.566 262.488 60.4542 262.086 59.2982 262.022L56.8275 261.881C56.4592 261.862 56.094 261.956 55.7807 262.15C55.4675 262.345 55.2213 262.631 55.0751 262.969C52.5282 269.119 46.1174 275.943 41.1868 279.067C37.5623 278.991 33.0671 281.995 33.0671 285.652V286.022C37.127 292.553 46.901 292.008 53.2901 289.287C59.6792 286.566 58.2751 282.104 64.0002 279.709C66.1291 278.834 68.086 277.589 69.7798 276.03C70.0658 274.108 70.0768 272.155 69.8124 270.229Z" fill="#A5A5A5"/>
<path d="M57.4587 275.279C57.5932 275.432 57.7809 275.527 57.9834 275.545C58.1858 275.563 58.3876 275.503 58.5471 275.377C58.7039 275.247 58.8057 275.063 58.832 274.861C58.8582 274.659 58.807 274.455 58.6886 274.289C57.7304 273.011 56.4582 272.003 54.9954 271.362C53.5327 270.722 51.9291 270.47 50.3404 270.632C50.0066 271.053 49.6438 271.466 49.252 271.873C50.7981 271.676 52.3687 271.888 53.8081 272.485C55.2476 273.083 56.506 274.046 57.4587 275.279Z" fill="white"/>
<path d="M59.9732 272.46C60.1155 272.605 60.3066 272.691 60.5092 272.703C60.7118 272.714 60.9114 272.65 61.069 272.522C61.2267 272.394 61.3311 272.212 61.3619 272.012C61.3927 271.811 61.3478 271.606 61.2358 271.437C60.2251 270.121 58.8945 269.084 57.3704 268.427C55.8464 267.77 54.1795 267.513 52.5284 267.682C52.2236 268.139 51.8971 268.596 51.5706 269.043C53.1482 268.819 54.7571 269.017 56.2332 269.617C57.7093 270.218 58.9998 271.199 59.9732 272.46Z" fill="white"/>
<path d="M54.8358 278.033C54.9717 278.183 55.1591 278.277 55.3608 278.295C55.5625 278.313 55.7637 278.255 55.9242 278.131C56.0816 278.001 56.183 277.816 56.2073 277.613C56.2316 277.41 56.177 277.206 56.0548 277.043C55.1236 275.792 53.89 274.799 52.4698 274.155C51.0496 273.512 49.4893 273.239 47.9352 273.364L46.6943 274.626C48.2305 274.436 49.7896 274.651 51.2175 275.248C52.6454 275.846 53.8926 276.806 54.8358 278.033Z" fill="white"/>
<path d="M41.2195 279.078C37.595 279.002 33.0999 282.006 33.0999 285.663V286.033C37.0944 292.455 46.6399 292.03 53.0289 289.407C52.5392 280.634 44.1147 279.045 41.2195 279.078Z" fill="white"/>
<path d="M52.1473 280.667C52.2897 280.812 52.4807 280.898 52.6833 280.91C52.8859 280.921 53.0855 280.856 53.2432 280.729C53.4008 280.601 53.5052 280.419 53.5361 280.219C53.5669 280.018 53.5219 279.813 53.4099 279.644C52.4797 278.392 51.2492 277.395 49.832 276.745C48.4148 276.094 46.8566 275.811 45.3011 275.921C44.7896 276.379 44.278 276.803 43.7773 277.206C45.3539 276.992 46.9591 277.199 48.4294 277.807C49.8997 278.415 51.1826 279.402 52.1473 280.667Z" fill="white"/>
<path d="M90.8408 260.52C91.015 264.722 90.8408 269.652 90.8408 269.652L93.2789 269.783C94.4345 269.848 95.5457 270.251 96.4744 270.941C97.4032 271.632 98.1087 272.58 98.5034 273.668L98.5578 273.821C98.7582 274.379 99.167 274.839 99.6987 275.103C100.23 275.366 100.843 275.414 101.409 275.236C101.711 275.144 101.989 274.99 102.228 274.784C102.466 274.577 102.658 274.324 102.792 274.038L104.043 263.503L90.8408 260.52Z" fill="#C8856A"/>
<path d="M87.2599 297.059C80.8817 299.78 71.1077 300.324 67.0479 293.794V295.513C71.1077 302.044 80.8817 301.5 87.2599 298.779C93.6381 296.057 92.2558 291.595 97.9701 289.2C100.064 288.436 101.971 287.233 103.565 285.674C103.565 285.151 103.673 284.498 103.76 283.747C102.065 285.312 100.104 286.562 97.9701 287.437C92.2558 289.875 93.649 294.327 87.2599 297.059Z" fill="#37474F"/>
<path d="M103.76 278C103.499 276.759 103.499 275.476 103.76 274.234C103.838 273.953 103.852 273.657 103.801 273.369C103.75 273.081 103.636 272.808 103.467 272.569L102.999 272.09L102.759 274.039C102.625 274.324 102.433 274.578 102.195 274.784C101.957 274.99 101.678 275.144 101.377 275.236C100.811 275.414 100.198 275.366 99.666 275.103C99.1344 274.839 98.7255 274.379 98.5251 273.821L98.4707 273.668C98.076 272.58 97.3705 271.632 96.4418 270.941C95.513 270.251 94.4018 269.848 93.2462 269.783L90.7646 269.652C90.3973 269.631 90.0324 269.724 89.7204 269.919C89.4084 270.114 89.1647 270.401 89.0231 270.741C86.4762 276.879 80.0654 283.704 75.1239 286.838C71.4994 286.751 67.0151 289.766 67.0151 293.369V293.728C71.075 300.259 80.849 299.715 87.2272 296.993C93.6054 294.272 92.2231 289.81 97.9373 287.415C100.072 286.54 102.033 285.29 103.728 283.726C104.002 281.828 104.013 279.901 103.76 278Z" fill="#A5A5A5"/>
<path d="M91.396 283.04C91.5318 283.19 91.7193 283.283 91.921 283.302C92.1227 283.32 92.3239 283.261 92.4844 283.138C92.6418 283.008 92.7431 282.822 92.7675 282.62C92.7918 282.417 92.7372 282.213 92.615 282.049C91.659 280.771 90.3891 279.762 88.9283 279.12C87.4676 278.477 85.8656 278.223 84.2776 278.381C83.9402 278.806 83.5919 279.219 83.1892 279.633C84.7355 279.435 86.3068 279.645 87.7467 280.242C89.1866 280.84 90.4447 281.805 91.396 283.04Z" fill="white"/>
<path d="M93.9211 280.275C94.0569 280.425 94.2444 280.519 94.4461 280.537C94.6478 280.555 94.849 280.497 95.0095 280.373C95.1669 280.243 95.2682 280.058 95.2926 279.855C95.3169 279.652 95.2623 279.448 95.1401 279.285C94.1301 277.967 92.7996 276.931 91.2754 276.273C89.7511 275.616 88.0839 275.36 86.4327 275.53C86.1279 275.987 85.8123 276.433 85.4749 276.89C87.0564 276.654 88.6723 276.844 90.1565 277.438C91.6408 278.033 92.9401 279.012 93.9211 280.275Z" fill="white"/>
<path d="M88.8383 285.794C88.9725 285.961 89.1678 286.068 89.3811 286.092C89.5944 286.115 89.8083 286.053 89.9757 285.919C90.1431 285.784 90.2504 285.589 90.2739 285.376C90.2973 285.163 90.2351 284.949 90.1009 284.781C89.1675 283.533 87.9336 282.541 86.514 281.898C85.0943 281.255 83.5351 280.981 81.9812 281.102C81.5676 281.538 81.154 281.951 80.7295 282.365C82.2622 282.187 83.8149 282.409 85.2361 283.01C86.6572 283.611 87.8984 284.57 88.8383 285.794Z" fill="white"/>
<path d="M75.1566 286.806C71.5322 286.719 67.0479 289.734 67.0479 293.336V293.695C71.0424 300.117 80.5879 299.693 86.9769 297.07C86.4763 288.395 78.0627 286.806 75.1566 286.806Z" fill="white"/>
<path d="M86.0842 288.428C86.2201 288.578 86.4076 288.671 86.6093 288.689C86.811 288.707 87.0122 288.649 87.1727 288.525C87.3301 288.396 87.4314 288.21 87.4557 288.007C87.48 287.805 87.4255 287.601 87.3033 287.437C86.3717 286.184 85.1365 285.189 83.7141 284.545C82.2917 283.902 80.7288 283.631 79.1727 283.758C78.6612 284.204 78.1496 284.64 77.6489 285.043C79.2288 284.808 80.8428 284.997 82.3252 285.592C83.8076 286.187 85.105 287.166 86.0842 288.428Z" fill="white"/>
<path d="M48.6426 120.276L49.829 201.767L53.682 258.801C63.4125 264.95 73.4696 259.127 73.4696 259.127C77.1594 232.101 77.3117 215.394 75.2981 204.151L76.4845 160.614L78.4111 205.609L87.5647 263.23C97.5456 269.707 108.408 263.024 108.408 263.024C108.408 242.344 110.531 217.702 104.827 202.757C108.854 156.608 102.073 121.125 102.073 121.125L48.6426 120.276Z" fill="#37474F"/>
<path opacity="0.3" d="M72.5116 144.222L76.5388 160.548L75.962 181.566L69.9321 147.716C61.2247 144.32 60.1362 139.531 60.1362 139.531C63.801 142.111 68.0575 143.724 72.5116 144.222Z" fill="black"/>
<path d="M47.5759 120.897V128.984C60.452 138.442 91.864 136.233 102.095 130.693L101.007 122.41L47.5759 120.897Z" fill="#55BA92"/>
<path opacity="0.2" d="M47.5759 120.897V128.984C60.452 138.442 91.864 136.233 102.095 130.693L101.007 122.41L47.5759 120.897Z" fill="white"/>
<path opacity="0.2" d="M101.018 122.453L47.5759 120.94V124.293C50.8412 127.079 55.1078 128.44 59.3092 129.332C71.0741 131.783 83.2544 131.388 94.8354 128.178C95.2496 128.062 95.684 128.037 96.1088 128.105C96.5336 128.172 96.9388 128.331 97.2965 128.57C97.6542 128.809 97.9561 129.122 98.1813 129.488C98.4066 129.855 98.5499 130.266 98.6014 130.693L98.7864 132.162C99.908 131.767 100.999 131.29 102.052 130.736L101.018 122.453Z" fill="black"/>
<path d="M18.8414 56.266C14.1958 55.5104 9.43924 56.6087 5.59521 59.3245C6.72718 60.2715 14.9666 60.1626 18.8414 56.266Z" fill="#55BA92"/>
<path opacity="0.2" d="M18.8414 56.266C14.1958 55.5104 9.43924 56.6087 5.59521 59.3245C6.72718 60.2715 14.9666 60.1626 18.8414 56.266Z" fill="black"/>
<path opacity="0.2" d="M18.8414 56.266C14.1958 55.5104 9.43924 56.6087 5.59521 59.3245C6.72718 60.2715 14.9666 60.1626 18.8414 56.266Z" fill="black"/>
<path d="M65.2738 51.8905C62.7413 50.4743 59.8248 49.8978 56.9439 50.244C54.063 50.5901 51.3662 51.8412 49.2413 53.817L31.6632 70.1434L26.9285 74.5625L22.5748 61.6102C22.3745 61.0094 22.0686 60.4491 21.6714 59.9558C21.1321 59.2923 20.4441 58.7652 19.6631 58.4173C18.8821 58.0693 18.0301 57.9103 17.1762 57.9531C13.3123 58.1925 8.71914 60.3041 6.90147 62.4047C4.55047 65.1367 6.49874 65.1911 7.9137 70.1217C9.32866 75.0522 14.3245 93.1963 18.798 95.0902C23.2714 96.9841 26.6782 95.4603 30.0088 93.3378C33.3394 91.2154 41.7529 85.2943 41.7529 85.2943L56.9365 72.157L67.8751 53.3817L65.2738 51.8905Z" fill="#55BA92"/>
<path opacity="0.2" d="M65.2738 51.8905C62.7413 50.4743 59.8248 49.8978 56.9439 50.244C54.063 50.5901 51.3662 51.8412 49.2413 53.817L31.6632 70.1434L26.9285 74.5625L22.5748 61.6102C22.3745 61.0094 22.0686 60.4491 21.6714 59.9558C21.1321 59.2923 20.4441 58.7652 19.6631 58.4173C18.8821 58.0693 18.0301 57.9103 17.1762 57.9531C13.3123 58.1925 8.71914 60.3041 6.90147 62.4047C4.55047 65.1367 6.49874 65.1911 7.9137 70.1217C9.32866 75.0522 14.3245 93.1963 18.798 95.0902C23.2714 96.9841 26.6782 95.4603 30.0088 93.3378C33.3394 91.2154 41.7529 85.2943 41.7529 85.2943L56.9365 72.157L67.8751 53.3817L65.2738 51.8905Z" fill="white"/>
<path opacity="0.2" d="M64.8925 58.6388C62.4327 57.5503 59.9728 56.5272 57.5456 55.5585C52.71 57.854 48.9529 61.935 47.0641 66.9435C45.2791 71.7543 45.3988 76.9135 45.5076 82.0944L57.0014 72.1462L64.8925 58.6388Z" fill="black"/>
<path opacity="0.2" d="M29.769 82.6604C30.7132 81.0317 31.2104 79.1825 31.2104 77.2999C31.2104 75.4173 30.7132 73.5681 29.769 71.9394L26.9282 74.5625C28.9034 76.7831 29.924 79.6925 29.769 82.6604Z" fill="black"/>
<path d="M13.0728 60.4129C15.064 60.0948 16.9244 59.2193 18.4388 57.8878C17.8665 56.646 17.3614 55.3743 16.9258 54.0783C18.2429 51.9454 19.2886 49.6566 20.0388 47.2647C20.7298 45.4449 20.8773 43.4635 20.4632 41.5614C19.9081 39.711 18.1449 38.1002 16.2293 38.2961C16.9694 34.258 17.3177 31.1887 17.9272 27.4118C18.0081 26.875 17.8854 26.3274 17.5834 25.8764C17.2813 25.4253 16.8217 25.1034 16.2946 24.9738C15.7576 24.8615 15.1981 24.9561 14.7279 25.2386C14.2577 25.5211 13.9115 25.9707 13.7585 26.4975C12.6701 30.59 11.7232 35.673 11.7232 35.673C11.5164 31.4608 11.2334 28.054 11.0157 25.9751C10.9352 25.3375 10.6177 24.7535 10.1262 24.3394C9.63474 23.9252 9.00538 23.7113 8.36334 23.7401C7.7213 23.7689 7.11364 24.0384 6.66124 24.4949C6.20885 24.9513 5.94488 25.5614 5.92185 26.2037C5.87122 30.3096 6.45119 34.3989 7.64155 38.3288L2.03616 42.1383C1.61816 44.8086 1.79666 47.5385 2.55882 50.1317C3.32098 52.7249 4.6479 55.1172 6.44429 57.1368C6.64021 57.9204 7.35857 59.9993 7.53272 60.7939C9.38304 61.7299 11.0266 60.7612 13.0728 60.4129Z" fill="#C8856A"/>
<path d="M16.229 38.3615L11.1351 39.058C10.3858 39.0833 9.66135 39.3336 9.05624 39.7764C8.68476 40.1844 8.47263 40.7126 8.45864 41.2642C8.44465 41.8159 8.62974 42.3541 8.98006 42.7805C9.34783 43.1915 9.8021 43.516 10.3102 43.7305C10.8184 43.9451 11.3677 44.0444 11.9188 44.0213C13.034 43.9783 14.1357 43.7616 15.1841 43.3791C13.413 44.3337 12.062 45.9151 11.3956 47.8135C10.7292 49.712 10.7955 51.7908 11.5814 53.643C10.7195 52.9174 10.0861 51.9578 9.7577 50.88C9.42935 49.8022 9.42011 48.6524 9.73108 47.5695C9.57831 48.0543 9.29386 48.487 8.90948 48.8195C8.5251 49.152 8.0559 49.3711 7.55423 49.4525C7.0422 49.4881 6.53065 49.377 6.07955 49.1321C5.62844 48.8873 5.25648 48.5189 5.0073 48.0702C4.67171 48.2883 4.30462 48.4534 3.91887 48.56C3.54558 48.6275 3.16044 48.5621 2.83044 48.375C2.67473 48.2801 2.54723 48.1453 2.46111 47.9845C2.375 47.8238 2.3334 47.6429 2.34065 47.4607L4.81139 41.1805L6.98824 38.8186L10.4603 38.0676C10.6505 38.0244 10.8256 37.9309 10.9673 37.7969C11.109 37.6628 11.2121 37.4932 11.2657 37.3057L11.6902 35.7383V37.273C11.6902 37.5617 11.8049 37.8385 12.009 38.0427C12.2131 38.2468 12.49 38.3615 12.7787 38.3615H16.229Z" fill="#AF6152"/>
<path d="M5.09457 46.96C4.89132 47.439 4.51584 47.8244 4.04228 48.04C3.56871 48.2556 3.03151 48.2858 2.53677 48.1246C2.0491 47.9431 1.6093 47.6527 1.25091 47.2754C0.89252 46.8982 0.624996 46.4441 0.468751 45.9478C0.170532 44.9523 0.0237733 43.9176 0.0333873 42.8784C-0.0415345 42.0157 0.00979867 41.1467 0.185766 40.2988C0.275963 39.8747 0.456915 39.4751 0.716195 39.1275C0.975475 38.7799 1.30692 38.4926 1.68778 38.2852C2.07482 38.0893 2.51867 38.0364 2.9409 38.136C3.36312 38.2356 3.73657 38.4812 3.99526 38.8294C3.9505 41.5795 4.3211 44.3206 5.09457 46.96Z" fill="#C8856A"/>
<path d="M3.99519 38.8403C3.88384 38.6819 3.74788 38.5423 3.59246 38.4267C2.319 40.7886 2.35166 45.2403 4.90947 47.3409C4.98833 47.2231 5.05059 47.0949 5.0945 46.96C4.32212 44.3241 3.95153 41.5867 3.99519 38.8403Z" fill="#AF6152"/>
<path d="M7.36921 37.6104C6.48759 37.0553 5.3774 36.522 4.48489 37.0444C4.18596 37.2773 3.94078 37.5719 3.76609 37.9081C3.5914 38.2443 3.49132 38.6143 3.47266 38.9927C2.99669 42.0908 3.62464 45.2576 5.24679 47.9396C5.50658 48.3453 5.90117 48.6463 6.36109 48.7897C6.82101 48.933 7.31676 48.9095 7.76105 48.7233C8.22947 48.5333 8.61156 48.1775 8.8344 47.7238C9.05723 47.2701 9.10521 46.7502 8.9692 46.2634C8.30526 43.8145 7.64133 41.0934 6.95562 38.8295L7.57602 38.405L7.36921 37.6104Z" fill="#C8856A"/>
<path d="M5.59521 59.3245C6.2212 60.6423 6.70994 62.0209 7.0537 63.4388C9.27233 64.1462 11.6398 64.2477 13.9108 63.7326C16.147 63.1803 18.1903 62.0289 19.8209 60.402C19.4835 59.1286 19.1788 57.5395 18.8414 56.266C14.9666 60.1626 6.72718 60.2714 5.59521 59.3245Z" fill="#55BA92"/>
<path opacity="0.2" d="M5.59521 59.3245C6.2212 60.6423 6.70994 62.0209 7.0537 63.4388C9.27233 64.1462 11.6398 64.2477 13.9108 63.7326C16.147 63.1803 18.1903 62.0289 19.8209 60.402C19.4835 59.1286 19.1788 57.5395 18.8414 56.266C14.9666 60.1626 6.72718 60.2714 5.59521 59.3245Z" fill="white"/>
<path opacity="0.2" d="M13.1925 63.3081C10.8368 63.4978 8.48507 62.8964 6.50952 61.5993C6.73077 62.1999 6.91256 62.8144 7.05374 63.4387C9.27236 64.1462 11.6398 64.2477 13.9108 63.7326C15.2041 63.4038 16.438 62.875 17.5679 62.1653C16.1833 62.7875 14.7045 63.1737 13.1925 63.3081Z" fill="black"/>
<path d="M67.5812 50.1491L63.0316 50.628C61.3909 50.7947 59.8076 51.3234 58.396 52.1761C56.9843 53.0287 55.7795 54.1839 54.8684 55.5585C50.1337 62.7748 47.9351 73.8768 49.1976 85.8821C50.1555 95.0249 47.6412 105.964 45.5079 113.093C44.7844 115.498 44.9848 118.086 46.0699 120.351C47.1551 122.616 49.0468 124.394 51.3745 125.338C66.6125 131.422 88.4899 128.712 99.7986 125.011C100.704 124.714 101.536 124.232 102.244 123.595C102.952 122.958 103.519 122.18 103.91 121.312C104.3 120.443 104.505 119.502 104.511 118.55C104.517 117.598 104.325 116.655 103.946 115.781C103.946 115.781 99.7116 96.9297 100.517 95.0358C102.389 90.6821 102.835 80.2114 103.282 73.6047C103.556 67.7414 102.331 61.9051 99.7224 56.647L82.3947 50.1164L67.5812 50.1491Z" fill="#55BA92"/>
<path opacity="0.2" d="M67.5812 50.1491L63.0316 50.628C61.3909 50.7947 59.8076 51.3234 58.396 52.1761C56.9843 53.0287 55.7795 54.1839 54.8684 55.5585C50.1337 62.7748 47.9351 73.8768 49.1976 85.8821C50.1555 95.0249 47.6412 105.964 45.5079 113.093C44.7844 115.498 44.9848 118.086 46.0699 120.351C47.1551 122.616 49.0468 124.394 51.3745 125.338C66.6125 131.422 88.4899 128.712 99.7986 125.011C100.704 124.714 101.536 124.232 102.244 123.595C102.952 122.958 103.519 122.18 103.91 121.312C104.3 120.443 104.505 119.502 104.511 118.55C104.517 117.598 104.325 116.655 103.946 115.781C103.946 115.781 99.7116 96.9297 100.517 95.0358C102.389 90.6821 102.835 80.2114 103.282 73.6047C103.556 67.7414 102.331 61.9051 99.7224 56.647L82.3947 50.1164L67.5812 50.1491Z" fill="white"/>
<path opacity="0.2" d="M100.517 95.0902C102.389 90.7365 102.835 80.2658 103.282 73.6591C103.385 72.0449 103.355 70.425 103.195 68.8156L94.1389 72.3856C93.9298 77.5163 94.4725 82.65 95.7497 87.6236C97.4203 94.1957 98.6278 100.877 99.3633 107.618L99.4177 108.119C99.6736 110.528 99.6736 112.958 99.4177 115.368L98.8518 120.94C98.6435 122.951 97.6548 124.799 96.098 126.089C97.415 125.751 98.6341 125.392 99.7551 125C100.66 124.703 101.493 124.221 102.201 123.584C102.909 122.947 103.476 122.169 103.866 121.301C104.257 120.432 104.461 119.492 104.467 118.539C104.474 117.587 104.281 116.644 103.902 115.77C103.902 115.77 99.7225 96.9841 100.517 95.0902Z" fill="black"/>
<path d="M97.7087 79.2754L105.426 103.221C103.575 119.678 105.807 137.539 104.011 147.901L101.399 151.297C100.638 152.284 100.202 153.482 100.149 154.728C100.096 155.973 100.43 157.204 101.105 158.252L101.725 159.22C101.495 159.478 101.323 159.781 101.219 160.109C101.115 160.438 101.082 160.785 101.122 161.128C101.162 161.471 101.274 161.801 101.451 162.097C101.629 162.393 101.867 162.648 102.15 162.845L104.207 164.271C104.989 164.818 105.919 165.117 106.874 165.129C107.829 165.14 108.766 164.864 109.562 164.336L116.092 160.048C116.946 159.482 117.597 158.659 117.949 157.697C118.302 156.736 118.338 155.687 118.051 154.703L115.167 144.908C117.344 127.852 118.955 116.151 119.956 109.327C120.685 104.411 120.49 99.4013 119.379 94.5569L115.026 75.4985L97.7087 79.2754Z" fill="#C8856A"/>
<path d="M103.488 139.422L102.803 145.811C104.722 147.359 107.057 148.304 109.512 148.529C111.968 148.753 114.435 148.247 116.604 147.074L116.974 141.218L103.488 139.422Z" fill="#55BA92"/>
<path opacity="0.2" d="M103.488 139.422L102.803 145.811C104.722 147.359 107.057 148.304 109.512 148.529C111.968 148.753 114.435 148.247 116.604 147.074L116.974 141.218L103.488 139.422Z" fill="white"/>
<path opacity="0.2" d="M104.86 143.786C105.741 144.246 106.677 144.59 107.646 144.81C108.876 145.147 110.148 145.308 111.423 145.289C113.287 145.149 115.109 144.669 116.8 143.874L116.974 141.218L103.488 139.422C103.38 140.412 103.271 141.403 103.173 142.393C103.642 142.96 104.214 143.433 104.86 143.786Z" fill="black"/>
<path d="M119.934 88.0699L113.045 67.7816C112.195 65.2695 110.746 63.0023 108.823 61.176C106.9 59.3497 104.561 58.0194 102.008 57.3L99.5046 56.5817C97.5455 59.1504 89.219 68.8265 98.2747 84.6196L101.148 94.1977L103.477 102.753C102.618 118.415 96.3047 139.4 104.566 142.339C112.827 145.278 116.234 143.427 118.617 141.457C121.001 139.487 123.134 104.625 123.145 100.511C123.156 96.3963 119.934 88.0699 119.934 88.0699Z" fill="#55BA92"/>
<path opacity="0.2" d="M119.934 88.0699L113.045 67.7816C112.195 65.2695 110.746 63.0023 108.823 61.176C106.9 59.3497 104.561 58.0194 102.008 57.3L99.5046 56.5817C97.5455 59.1504 89.219 68.8265 98.2747 84.6196L101.148 94.1977L103.477 102.753C102.618 118.415 96.3047 139.4 104.566 142.339C112.827 145.278 116.234 143.427 118.617 141.457C121.001 139.487 123.134 104.625 123.145 100.511C123.156 96.3963 119.934 88.0699 119.934 88.0699Z" fill="white"/>
<path opacity="0.2" d="M56.1856 102.753C66.8195 105.92 80.9146 104.331 80.9146 104.331C80.784 110.709 86.6289 114.029 88.2288 114.029V124.129C65.4916 127.591 54.7271 123.117 50.874 120.864V113.245C55.5543 111.906 56.1856 102.753 56.1856 102.753Z" fill="black"/>
<path d="M57.6765 52.0973L57.9486 51.9558C57.5374 51.7579 57.08 51.6756 56.6256 51.7178C56.1712 51.7599 55.7368 51.925 55.369 52.1953C54.321 52.8728 53.4488 53.7896 52.8244 54.87C52.1999 55.9505 51.841 57.1639 51.7772 58.4102C51.7385 58.8325 51.8059 59.2577 51.9731 59.6473C52.1404 60.037 52.4023 60.3787 52.735 60.6415C52.8272 58.9287 53.3228 57.2619 54.1816 55.7771C55.0403 54.2923 56.2378 53.0314 57.6765 52.0973Z" fill="#A5A5A5"/>
<path d="M55.3255 62.1109C55.4148 60.3972 55.908 58.7289 56.7649 57.2421C57.6218 55.7553 58.818 54.4922 60.2561 53.5559C60.7584 53.196 61.346 52.9736 61.9607 52.9106C62.5755 52.8476 63.1959 52.9462 63.7608 53.1967L61.2357 51.7708C60.7221 51.5177 60.1521 51.4007 59.5803 51.4312C59.0085 51.4617 58.4542 51.6386 57.9704 51.945L57.6983 52.0865C56.2597 53.0206 55.0621 54.2814 54.2034 55.7662C53.3446 57.2511 52.849 58.9178 52.7569 60.6306C52.6927 61.2452 52.7953 61.8656 53.0539 62.4268C53.3125 62.988 53.7174 63.4692 54.2262 63.8197L56.7731 65.2456C56.2794 64.8947 55.886 64.4208 55.6321 63.8709C55.3781 63.321 55.2724 62.7143 55.3255 62.1109Z" fill="#A5A5A5"/>
<path d="M63.8041 53.1967C63.2392 52.9462 62.6187 52.8476 62.004 52.9106C61.3893 52.9736 60.8017 53.196 60.2994 53.5558C58.8613 54.4922 57.6651 55.7553 56.8082 57.2421C55.9513 58.7289 55.4581 60.3972 55.3688 62.1109C55.248 62.7301 55.3244 63.3716 55.5874 63.945C55.8503 64.5185 56.2865 64.995 56.8346 65.3075C57.3826 65.62 58.0149 65.7527 58.6423 65.6869C59.2697 65.6211 59.8607 65.3602 60.332 64.9408C61.7721 64.0057 62.9705 62.7431 63.8293 61.2562C64.6882 59.7694 65.183 58.1004 65.2735 56.3858C65.3376 55.7712 65.235 55.1508 64.9764 54.5896C64.7179 54.0284 64.3129 53.5472 63.8041 53.1967ZM60.332 62.4592C58.7865 63.3408 57.5348 62.6333 57.5348 60.8592C57.5832 59.8948 57.8602 58.9557 58.3427 58.1193C58.8253 57.2828 59.4996 56.5731 60.3103 56.0484C61.8558 55.1558 63.1075 55.8633 63.1075 57.6374C63.0533 58.607 62.7694 59.5498 62.2793 60.3882C61.7892 61.2265 61.1068 61.9363 60.2885 62.4592H60.332Z" fill="#A5A5A5"/>
<path d="M60.2669 56.0592C59.4563 56.5839 58.7819 57.2937 58.2994 58.1302C57.8168 58.9666 57.5399 59.9057 57.4915 60.8701C57.4915 62.6442 58.7431 63.3517 60.2887 62.4701C61.0989 61.9423 61.7728 61.2304 62.2552 60.3923C62.7376 59.5543 63.0148 58.614 63.0642 57.6483C63.0642 55.8633 61.8125 55.1558 60.2669 56.0592Z" fill="#A5A5A5"/>
<path opacity="0.3" d="M57.6765 52.0973L57.9486 51.9558C57.5374 51.7579 57.08 51.6756 56.6256 51.7178C56.1712 51.7599 55.7368 51.925 55.369 52.1953C54.321 52.8728 53.4488 53.7896 52.8244 54.87C52.1999 55.9505 51.841 57.1639 51.7772 58.4102C51.7385 58.8325 51.8059 59.2577 51.9731 59.6473C52.1404 60.037 52.4023 60.3787 52.735 60.6415C52.8272 58.9287 53.3228 57.2619 54.1816 55.7771C55.0403 54.2923 56.2378 53.0314 57.6765 52.0973Z" fill="white"/>
<path opacity="0.2" d="M55.3255 62.1109C55.4148 60.3972 55.908 58.7289 56.7649 57.2421C57.6218 55.7553 58.818 54.4922 60.2561 53.5559C60.7584 53.196 61.346 52.9736 61.9607 52.9106C62.5755 52.8476 63.1959 52.9462 63.7608 53.1967L61.2357 51.7708C60.7221 51.5177 60.1521 51.4007 59.5803 51.4312C59.0085 51.4617 58.4542 51.6386 57.9704 51.945L57.6983 52.0865C56.2597 53.0206 55.0621 54.2814 54.2034 55.7662C53.3446 57.2511 52.849 58.9178 52.7569 60.6306C52.6927 61.2452 52.7953 61.8656 53.0539 62.4268C53.3125 62.988 53.7174 63.4692 54.2262 63.8197L56.7731 65.2456C56.2794 64.8947 55.886 64.4208 55.6321 63.8709C55.3781 63.321 55.2724 62.7143 55.3255 62.1109Z" fill="black"/>
<path opacity="0.3" d="M63.8041 53.1967C63.2392 52.9462 62.6187 52.8476 62.004 52.9106C61.3893 52.9736 60.8017 53.196 60.2994 53.5558C58.8613 54.4922 57.6651 55.7553 56.8082 57.2421C55.9513 58.7289 55.4581 60.3972 55.3688 62.1109C55.248 62.7301 55.3244 63.3716 55.5874 63.945C55.8503 64.5185 56.2865 64.995 56.8346 65.3075C57.3826 65.62 58.0149 65.7527 58.6423 65.6869C59.2697 65.6211 59.8607 65.3602 60.332 64.9408C61.7721 64.0057 62.9705 62.7431 63.8293 61.2562C64.6882 59.7694 65.183 58.1004 65.2735 56.3858C65.3376 55.7712 65.235 55.1508 64.9764 54.5896C64.7179 54.0284 64.3129 53.5472 63.8041 53.1967ZM60.332 62.4592C58.7865 63.3408 57.5348 62.6333 57.5348 60.8592C57.5832 59.8948 57.8602 58.9557 58.3427 58.1193C58.8253 57.2828 59.4996 56.5731 60.3103 56.0484C61.8558 55.1558 63.1075 55.8633 63.1075 57.6374C63.0533 58.607 62.7694 59.5498 62.2793 60.3882C61.7892 61.2265 61.1068 61.9363 60.2885 62.4592H60.332Z" fill="black"/>
<path opacity="0.5" d="M60.2669 56.0592C59.4563 56.5839 58.7819 57.2937 58.2994 58.1302C57.8168 58.9666 57.5399 59.9057 57.4915 60.8701C57.4915 62.6442 58.7431 63.3517 60.2887 62.4701C61.0989 61.9423 61.7728 61.2304 62.2552 60.3923C62.7376 59.5543 63.0148 58.614 63.0642 57.6483C63.0642 55.8633 61.8125 55.1558 60.2669 56.0592Z" fill="black"/>
<path d="M59.037 87.1338C58.9492 87.1344 58.8629 87.1119 58.7866 87.0685C58.7244 87.0365 58.6692 86.9923 58.6243 86.9385C58.5795 86.8847 58.5459 86.8225 58.5256 86.7555C58.5053 86.6884 58.4987 86.618 58.5061 86.5484C58.5136 86.4788 58.5349 86.4114 58.5689 86.3502C61.2552 81.4113 62.5139 75.8224 62.2043 70.2088C62.139 69.0333 61.9975 67.836 61.856 66.6714C61.6927 65.3218 61.5294 63.9395 61.475 62.5463C61.2358 59.8777 61.7646 57.1964 62.9989 54.8184C63.0318 54.7571 63.0767 54.703 63.131 54.6592C63.1852 54.6155 63.2475 54.583 63.3145 54.5638C63.3814 54.5445 63.4515 54.5388 63.5207 54.547C63.5898 54.5553 63.6567 54.5772 63.7172 54.6116C63.7789 54.6457 63.8333 54.6916 63.8771 54.7468C63.921 54.802 63.9535 54.8653 63.9727 54.9331C63.9919 55.0009 63.9975 55.0719 63.9892 55.1419C63.9808 55.2119 63.9586 55.2795 63.924 55.3409C62.7924 57.5485 62.313 60.0326 62.5417 62.5027C62.5961 63.8524 62.7594 65.2238 62.9118 66.5408C63.0641 67.8578 63.1948 68.9353 63.271 70.1544C63.5897 75.972 62.2859 81.7637 59.505 86.8835C59.4548 86.9617 59.3855 87.0258 59.3036 87.0696C59.2216 87.1134 59.1299 87.1355 59.037 87.1338Z" fill="white"/>
<path d="M61.7036 40.56C61.646 38.5033 62.4052 36.5075 63.8152 35.009C64.6817 34.3168 65.7319 33.8932 66.8363 33.7907C67.9407 33.6882 69.0509 33.9112 70.0301 34.4322C71.9844 35.523 73.4281 37.3423 74.0464 39.4934C74.6466 41.6149 74.8314 43.8323 74.5906 46.0239C74.5489 48.2523 73.9099 50.4287 72.7402 52.3259C71.543 54.013 68.1144 56.0592 66.2097 54.3286C64.0328 52.3803 62.7703 48.6361 62.1607 45.8933C61.768 44.1444 61.6143 42.3503 61.7036 40.56Z" fill="#263238"/>
<path d="M69.2465 58.5191C61.9214 48.4293 58.2098 24.8322 60.6044 16.4622L51.8317 19.8581C47.5759 42.1165 58.3622 57.6483 69.2465 58.5191Z" fill="#55BA92"/>
<path d="M54.2915 30.318C51.936 28.6345 50.295 26.1311 49.6908 23.2996C49.0867 20.4681 49.563 17.513 51.0262 15.0147C49.7102 14.4303 48.6344 13.4122 47.9786 12.1303C47.7023 11.5152 47.6167 10.8313 47.7328 10.167C47.8489 9.50268 48.1614 8.8884 48.63 8.40341C49.0985 7.91841 49.7017 7.58497 50.3616 7.44609C51.0216 7.30721 51.708 7.36927 52.3323 7.62426C51.9837 6.62363 51.9809 5.53499 52.3243 4.53256C52.6676 3.53013 53.3373 2.67184 54.2262 2.09505C55.1364 1.60636 56.1876 1.44775 57.2015 1.64615C58.2153 1.84455 59.1292 2.38774 59.788 3.18348C59.7639 2.52962 59.9525 1.88557 60.3253 1.34789C60.6981 0.810205 61.2352 0.407864 61.856 0.20119C63.1329 -0.133089 64.4834 -0.049162 65.7091 0.440645C66.9499 0.865131 68.1145 1.52907 69.3662 1.87737C71.5019 2.41547 73.6943 2.69682 75.8967 2.71545C78.1381 2.71393 80.3434 3.2793 82.3076 4.35898C84.1688 5.55625 85.8014 8.37528 84.8001 10.7916C85.1168 10.3875 85.515 10.0546 85.9688 9.81456C86.4226 9.57452 86.9218 9.43273 87.4341 9.39839C87.9414 9.38332 88.446 9.47759 88.9136 9.67479C89.3812 9.87198 89.801 10.1675 90.1443 10.5412C88.762 11.4011 87.4232 12.3154 86.0409 13.1752C86.8324 12.954 87.6747 12.9993 88.4379 13.3042C89.2011 13.6091 89.8428 14.1566 90.264 14.8623C90.9094 16.2518 91.1652 17.7904 91.0041 19.314C90.8161 25.1138 89.7859 30.8554 87.9456 36.3587C86.9987 39.1995 85.6382 42.2145 82.9389 43.5206L54.2915 30.318Z" fill="#263238"/>
<path d="M82.4273 38.6444V50.4647C82.4301 51.257 82.2635 52.0408 81.9387 52.7635C81.614 53.4862 81.1386 54.1311 80.5444 54.6552C77.4304 57.3741 73.3733 58.7616 69.2465 58.5191C68.4096 58.5372 67.589 58.2854 66.9064 57.8007C66.4787 57.3875 66.1794 56.8596 66.0442 56.2804C65.9091 55.7012 65.9439 55.0954 66.1445 54.5355C66.3446 53.9195 66.6343 53.3364 67.0044 52.8049C67.6081 51.9229 67.9341 50.8805 67.9404 49.8117V38.6444H82.4273Z" fill="#C8856A"/>
<path d="M73.8177 48.2226C71.8993 48.7916 69.9314 49.1779 67.9402 49.3763V38.6444H82.4271V41.1696C82.1024 41.8971 81.7049 42.59 81.2408 43.2376C79.356 45.6426 76.7571 47.3879 73.8177 48.2226Z" fill="#AF6152"/>
<path d="M53.5077 16.3208C52.4747 24.1998 52.9923 32.2048 55.0315 39.8852C55.4272 41.5789 56.0573 43.2091 56.9036 44.7287C57.761 46.2564 59.1063 47.4522 60.724 48.1246C62.7267 48.8756 64.9471 48.5056 67.0477 48.1246C70.8899 47.4498 74.8408 46.7314 78.1823 44.7178C81.5238 42.7043 84.1687 39.0362 83.8421 35.1506C84.7919 35.7412 85.8753 36.0827 86.992 36.1436C88.1088 36.2045 89.2229 35.9827 90.2312 35.4989C91.2221 34.955 92.0616 34.1725 92.6736 33.2222C93.2856 32.2719 93.6507 31.1838 93.7359 30.0567C93.8774 27.8799 92.6475 25.4527 90.4707 25.0173C89.8085 24.9229 89.1337 24.9711 88.4917 25.1588C87.8497 25.3466 87.2552 25.6694 86.7482 26.1057C85.7431 26.9839 84.8705 28.0031 84.1578 29.1316C83.826 29.6767 83.385 30.1474 82.8626 30.5139C82.6004 30.6955 82.289 30.7928 81.97 30.7928C81.6511 30.7928 81.3397 30.6955 81.0775 30.5139C80.8526 30.2477 80.6899 29.9347 80.6014 29.5976C80.5129 29.2605 80.5008 28.9079 80.566 28.5656L80.7945 23.635C80.8107 23.2559 80.7165 22.8803 80.5233 22.5538C80.33 22.2273 80.0462 21.9638 79.7061 21.7956C78.7044 21.2331 77.9335 20.3349 77.5292 19.2595C77.1712 18.3068 76.9619 17.3046 76.9089 16.2881C76.8957 16.0971 76.8373 15.912 76.7386 15.748C76.6398 15.584 76.5035 15.4459 76.3409 15.3449C76.1782 15.2439 75.9939 15.183 75.8032 15.1672C75.6124 15.1514 75.4206 15.1812 75.2436 15.2541C68.5933 17.9643 60.3321 18.0731 53.5077 16.3208Z" fill="#C8856A"/>
<path d="M64.3595 28.2825L59.9187 35.7492L65.2085 36.7396L64.3595 28.2825Z" fill="#AF6152"/>
<path d="M70.3348 39.3192L66.3076 41.2675C66.6523 41.7238 67.136 42.0555 67.6858 42.2126C68.2356 42.3697 68.8216 42.3436 69.3552 42.1383C69.8165 41.8515 70.1654 41.4151 70.3437 40.902C70.522 40.389 70.5189 39.8303 70.3348 39.3192Z" fill="#F28F8F"/>
<path d="M70.3348 39.3192L66.3076 41.2675C66.6523 41.7238 67.136 42.0555 67.6858 42.2126C68.2356 42.3697 68.8216 42.3436 69.3552 42.1383C69.8165 41.8515 70.1654 41.4151 70.3437 40.902C70.522 40.389 70.5189 39.8303 70.3348 39.3192Z" fill="#592C2C"/>
<path d="M67.9402 42.2689C68.4072 42.365 68.8923 42.3196 69.3334 42.1383C69.711 41.9251 70.0163 41.604 70.2102 41.2162C70.4042 40.8283 70.4778 40.3914 70.4218 39.9614C69.8018 39.9565 69.2029 40.1859 68.7448 40.6036C68.2867 41.0214 68.0032 41.5967 67.9511 42.2145L67.9402 42.2689Z" fill="#AF6152"/>
<path d="M72.0218 28.5765C72.0585 28.977 71.9365 29.3758 71.682 29.6873C71.4276 29.9987 71.0611 30.1978 70.6613 30.2418C70.4557 30.2761 70.2452 30.2679 70.0429 30.2177C69.8406 30.1674 69.6508 30.0762 69.4851 29.9496C69.3195 29.823 69.1816 29.6638 69.0799 29.4818C68.9783 29.2998 68.915 29.0989 68.8941 28.8915C68.8733 28.6841 68.8952 28.4746 68.9585 28.276C69.0218 28.0774 69.1252 27.8939 69.2622 27.7368C69.3993 27.5798 69.5672 27.4525 69.7554 27.3629C69.9436 27.2733 70.1482 27.2233 70.3565 27.2159C70.757 27.1793 71.1559 27.3013 71.4673 27.5558C71.7788 27.8102 71.9779 28.1767 72.0218 28.5765Z" fill="#263238"/>
<path d="M59.2767 29.371C59.3053 29.6687 59.2451 29.9682 59.1037 30.2317C58.9622 30.4952 58.7458 30.7109 58.4818 30.8515C58.2178 30.992 57.9181 31.0512 57.6205 31.0215C57.3229 30.9918 57.0408 30.8746 56.8098 30.6846C56.5788 30.4946 56.4093 30.2405 56.3226 29.9542C56.236 29.6679 56.2362 29.3624 56.3231 29.0763C56.4101 28.7901 56.5799 28.5361 56.8111 28.3464C57.0423 28.1567 57.3246 28.0398 57.6223 28.0105C57.8205 27.9895 58.021 28.0081 58.2119 28.0654C58.4029 28.1227 58.5806 28.2174 58.7346 28.344C58.8886 28.4706 59.0158 28.6267 59.1089 28.803C59.202 28.9793 59.259 29.1724 59.2767 29.371Z" fill="#263238"/>
<path d="M57.2086 23.5044L54.0848 26.1602C53.8982 25.7598 53.8379 25.3122 53.9118 24.8767C53.9856 24.4412 54.1903 24.0385 54.4984 23.7221C54.884 23.4347 55.3428 23.2618 55.8222 23.2233C56.3015 23.1848 56.782 23.2822 57.2086 23.5044Z" fill="#263238"/>
<path d="M70.1282 22.0132L73.7091 23.9942C73.8121 23.5644 73.7819 23.1135 73.6225 22.7013C73.4631 22.2892 73.182 21.9353 72.8166 21.6867C72.3828 21.4841 71.9009 21.4073 71.4256 21.465C70.9504 21.5227 70.5008 21.7127 70.1282 22.0132Z" fill="#263238"/>
<path d="M82.5361 57.8769C78.2496 59.3093 73.651 59.5315 69.2464 58.519C81.7306 43.6838 85.8013 22.4921 80.7728 10.4323C79.8482 8.34013 78.4392 6.49786 76.6621 5.05765C74.885 3.61743 72.7909 2.62059 70.5525 2.14942C69.8476 1.99749 69.1588 1.77882 68.4954 1.49636C77.6381 1.49636 86.8354 -0.593418 95.336 2.78071C98.4271 3.99974 101.496 5.66504 103.412 8.37522C105.356 11.4681 106.096 15.1672 105.491 18.7697C104.631 25.7683 100.767 31.9832 96.7836 37.7954C93.3006 42.8784 88.9904 48.2552 86.7156 54.0674C86.3443 54.9721 85.7768 55.7831 85.054 56.4419C84.3313 57.1007 83.4712 57.5908 82.5361 57.8769Z" fill="#55BA92"/>
<path opacity="0.2" d="M82.5361 57.8769C78.2496 59.3093 73.651 59.5315 69.2464 58.519C81.7306 43.6838 85.8013 22.4921 80.7728 10.4323C79.8482 8.34013 78.4392 6.49786 76.6621 5.05765C74.885 3.61743 72.7909 2.62059 70.5525 2.14942C69.8476 1.99749 69.1588 1.77882 68.4954 1.49636C77.6381 1.49636 86.8354 -0.593418 95.336 2.78071C98.4271 3.99974 101.496 5.66504 103.412 8.37522C105.356 11.4681 106.096 15.1672 105.491 18.7697C104.631 25.7683 100.767 31.9832 96.7836 37.7954C93.3006 42.8784 88.9904 48.2552 86.7156 54.0674C86.3443 54.9721 85.7768 55.7831 85.054 56.4419C84.3313 57.1007 83.4712 57.5908 82.5361 57.8769Z" fill="white"/>
<path opacity="0.2" d="M76.9744 54.3177C81.9803 46.5981 85.4093 37.9644 87.0641 28.9138C88.035 24.3223 88.1383 19.5897 87.3688 14.9602C86.5835 10.2978 84.1502 6.07229 80.5118 3.05283C95.5647 12.2065 91.7443 34.6063 76.9744 54.3177Z" fill="black"/>
<path d="M89.9265 52.2715L89.2517 51.2919C90.2639 53.3599 87.1728 57.4415 84.8979 59.2918L86.4217 60.5544C88.2387 58.9565 89.5668 56.8775 90.253 54.5572C90.352 54.1735 90.3741 53.774 90.3181 53.3817C90.2621 52.9894 90.129 52.6121 89.9265 52.2715Z" fill="#A5A5A5"/>
<path d="M89.2517 51.2919C89.0752 50.9194 88.7753 50.6194 88.4027 50.4429C88.0791 50.9708 87.7988 51.5241 87.5646 52.0973C87.5646 52.0973 87.815 55.0578 83.4722 58.5517L84.9307 59.2918C87.1728 57.4415 90.264 53.3599 89.2517 51.2919Z" fill="#A5A5A5"/>
<path opacity="0.5" d="M89.9265 52.2715L89.2517 51.2919C90.2639 53.3599 87.1728 57.4415 84.8979 59.2918L86.4217 60.5544C88.2387 58.9565 89.5668 56.8775 90.253 54.5572C90.352 54.1735 90.3741 53.774 90.3181 53.3817C90.2621 52.9894 90.129 52.6121 89.9265 52.2715Z" fill="black"/>
<path opacity="0.3" d="M89.2517 51.2919C89.0752 50.9194 88.7753 50.6194 88.4027 50.4429C88.0791 50.9708 87.7988 51.5241 87.5646 52.0973C87.5646 52.0973 87.815 55.0578 83.4722 58.5517L84.9307 59.2918C87.1728 57.4415 90.264 53.3599 89.2517 51.2919Z" fill="black"/>
<path d="M78.3457 67.8687C78.4345 66.1928 78.9186 64.5618 79.7586 63.109C80.5985 61.6561 81.7703 60.4227 83.1783 59.5095C83.6472 59.1792 84.189 58.9671 84.7576 58.8913C85.3261 58.8155 85.9045 58.8783 86.4436 59.0742L84.1252 57.7354H84.0491C83.5012 57.498 82.901 57.4072 82.3075 57.4721C81.714 57.537 81.1476 57.7553 80.664 58.1055C79.2556 59.0172 78.0841 60.2506 77.2458 61.7039C76.4074 63.1572 75.9264 64.7889 75.8423 66.4646C75.7786 67.0675 75.8796 67.6764 76.1345 68.2265C76.3894 68.7766 76.7887 69.2472 77.2899 69.5884L79.7606 71.0033C79.2696 70.6517 78.8802 70.1767 78.6317 69.6262C78.3832 69.0758 78.2845 68.4695 78.3457 67.8687Z" fill="#A5A5A5"/>
<path d="M80.7184 68.0864C80.7827 66.7783 81.1566 65.5042 81.8094 64.3688C82.4622 63.2335 83.3753 62.2694 84.4735 61.5558C84.8565 61.2792 85.3057 61.1084 85.7758 61.0606C86.2458 61.0128 86.7202 61.0898 87.151 61.2837C87.4773 61.4933 87.7707 61.7501 88.0218 62.0456C88.0478 61.5206 87.9501 60.9969 87.7365 60.5166C87.5228 60.0364 87.1992 59.6131 86.7918 59.281C86.6749 59.1981 86.5511 59.1253 86.4218 59.0633C85.8827 58.8674 85.3043 58.8047 84.7357 58.8805C84.1672 58.9563 83.6254 59.1684 83.1565 59.4987C81.7485 60.4119 80.5767 61.6453 79.7368 63.0981C78.8968 64.551 78.4127 66.182 78.3239 67.8578C78.267 68.4486 78.3645 69.0441 78.6068 69.5859C78.8491 70.1278 79.2279 70.5974 79.7062 70.9489C80.169 71.1886 80.6846 71.3082 81.2056 71.2968C81.7267 71.2854 82.2366 71.1433 82.6885 70.8836C82.3301 70.7777 81.9891 70.62 81.6763 70.4156C81.3386 70.1351 81.0747 69.7761 80.9077 69.3701C80.7407 68.964 80.6758 68.5233 80.7184 68.0864Z" fill="#A5A5A5"/>
<path d="M88.022 62.0565C87.7709 61.7609 87.4775 61.5042 87.1513 61.2946C86.7204 61.1007 86.246 61.0237 85.776 61.0715C85.3059 61.1192 84.8567 61.2901 84.4737 61.5667C83.3755 62.2803 82.4625 63.2444 81.8096 64.3797C81.1568 65.5151 80.7829 66.7892 80.7186 68.0973C80.6767 68.5378 80.7442 68.9819 80.9151 69.3901C81.0859 69.7984 81.3549 70.1581 81.6982 70.4374C82.0111 70.6418 82.3521 70.7995 82.7104 70.9054C83.1342 71.0838 83.5894 71.1757 84.0492 71.1757C84.509 71.1757 84.9642 71.0838 85.388 70.9054C86.4863 70.1911 87.4001 69.2271 88.0547 68.0921C88.7092 66.9571 89.0859 65.6833 89.154 64.3748C89.0459 63.4974 88.6474 62.6813 88.022 62.0565Z" fill="#A5A5A5"/>
<path opacity="0.2" d="M78.3457 67.8687C78.4345 66.1928 78.9186 64.5618 79.7586 63.109C80.5985 61.6561 81.7703 60.4227 83.1783 59.5095C83.6472 59.1792 84.189 58.9671 84.7576 58.8913C85.3261 58.8155 85.9045 58.8783 86.4436 59.0742L84.1252 57.7354H84.0491C83.5012 57.498 82.901 57.4072 82.3075 57.4721C81.714 57.537 81.1476 57.7553 80.664 58.1055C79.2556 59.0172 78.0841 60.2506 77.2458 61.7039C76.4074 63.1572 75.9264 64.7889 75.8423 66.4646C75.7786 67.0675 75.8796 67.6764 76.1345 68.2265C76.3894 68.7766 76.7887 69.2472 77.2899 69.5884L79.7606 71.0033C79.2696 70.6517 78.8802 70.1767 78.6317 69.6262C78.3832 69.0758 78.2845 68.4695 78.3457 67.8687Z" fill="black"/>
<path opacity="0.1" d="M80.7184 68.0864C80.7827 66.7783 81.1566 65.5042 81.8094 64.3688C82.4622 63.2335 83.3753 62.2694 84.4735 61.5558C84.8565 61.2792 85.3057 61.1084 85.7758 61.0606C86.2458 61.0128 86.7202 61.0898 87.151 61.2837C87.4773 61.4933 87.7707 61.7501 88.0218 62.0456C88.0478 61.5206 87.9501 60.9969 87.7365 60.5166C87.5228 60.0364 87.1992 59.6131 86.7918 59.281C86.6749 59.1981 86.5511 59.1253 86.4218 59.0633C85.8827 58.8674 85.3043 58.8047 84.7357 58.8805C84.1672 58.9563 83.6254 59.1684 83.1565 59.4987C81.7485 60.4119 80.5767 61.6453 79.7368 63.0981C78.8968 64.551 78.4127 66.182 78.3239 67.8578C78.267 68.4486 78.3645 69.0441 78.6068 69.5859C78.8491 70.1278 79.2279 70.5974 79.7062 70.9489C80.169 71.1886 80.6846 71.3082 81.2056 71.2968C81.7267 71.2854 82.2366 71.1433 82.6885 70.8836C82.3301 70.7777 81.9891 70.62 81.6763 70.4156C81.3386 70.1351 81.0747 69.7761 80.9077 69.3701C80.7407 68.964 80.6758 68.5233 80.7184 68.0864Z" fill="white"/>
<path opacity="0.3" d="M88.022 62.0565C87.7709 61.7609 87.4775 61.5042 87.1513 61.2946C86.7204 61.1007 86.246 61.0237 85.776 61.0715C85.3059 61.1192 84.8567 61.2901 84.4737 61.5667C83.3755 62.2803 82.4625 63.2444 81.8096 64.3797C81.1568 65.5151 80.7829 66.7892 80.7186 68.0973C80.6767 68.5378 80.7442 68.9819 80.9151 69.3901C81.0859 69.7984 81.3549 70.1581 81.6982 70.4374C82.0111 70.6418 82.3521 70.7995 82.7104 70.9054C83.1342 71.0838 83.5894 71.1757 84.0492 71.1757C84.509 71.1757 84.9642 71.0838 85.388 70.9054C86.4863 70.1911 87.4001 69.2271 88.0547 68.0921C88.7092 66.9571 89.0859 65.6833 89.154 64.3748C89.0459 63.4974 88.6474 62.6813 88.022 62.0565Z" fill="white"/>
<path d="M76.3649 93.5773H76.2669C76.1978 93.5656 76.1317 93.5401 76.0726 93.5023C76.0135 93.4645 75.9626 93.4151 75.923 93.3572C75.8834 93.2993 75.8558 93.234 75.842 93.1653C75.8281 93.0965 75.8283 93.0256 75.8424 92.9569C77.3964 84.554 76.7477 75.8919 73.9595 67.8143L73.6656 66.9979C72.9079 65.201 72.4696 63.2857 72.3704 61.3381C72.3704 59.1613 73.5459 56.4184 76.0384 55.7109C76.174 55.6741 76.3187 55.6924 76.441 55.7617C76.5633 55.8309 76.6533 55.9457 76.6914 56.081C76.7129 56.1474 76.7206 56.2176 76.714 56.2871C76.7074 56.3566 76.6866 56.424 76.653 56.4852C76.6193 56.5464 76.5735 56.6 76.5184 56.6428C76.4632 56.6856 76.3999 56.7167 76.3323 56.7341C74.4493 57.2674 73.4479 59.466 73.437 61.349C73.5413 63.1696 73.9573 64.9589 74.667 66.6388L74.9608 67.466C77.8125 75.7178 78.4763 84.568 76.8873 93.1528C76.8623 93.2729 76.7967 93.3806 76.7015 93.4579C76.6064 93.5352 76.4875 93.5774 76.3649 93.5773Z" fill="white"/>
</svg>
