<svg xmlns="http://www.w3.org/2000/svg" viewBox="0 0 80.25 80.55">
   <defs>
      <style>
      @media (prefers-color-scheme: light) {
      .cls-1{fill:#202223;}
      .cls-2{fill:#f16c6d;}
    }
      @media (prefers-color-scheme: dark) {
      .cls-1{fill:#F5F5F4;}
      .cls-2{fill:#557EBA;}
    }
      </style>
   </defs>
   <g id="Layer_2" data-name="Layer 2">
      <g id="Layer_1-2" data-name="Layer 1">
         <polygon class="cls-1" points="34.03 11.87 45.59 11.87 40.03 2.69 34.03 11.87"/>
         <polygon class="cls-1" points="14.42 45.55 25.98 45.55 20.51 36.09 14.42 45.55"/>
         <polygon class="cls-2" points="66.58 68.02 78.13 68.02 72.58 58.84 66.58 68.02"/>
         <polygon class="cls-2" points="27.11 46.11 33.55 35.42 20.74 35.45 27.11 46.11"/>
         <path class="cls-1" d="M45.65,80.07,20.3,36l.82-.47v-.86H71.87Zm-24-44.23,24,41.84L69.8,35.84Z"/>
         <path class="cls-1" d="M45.65,80.55,20,35.89l.91-.52v-1h51.4l-.2.36Zm-25-44.48,25,43.52,25.8-44.7H21.35v.71H70.21L70,36,45.65,78.16,21.25,35.71Zm1.38,0L45.65,77.2,69.39,36.08Z"/>
         <polygon class="cls-1" points="39.63 68.92 0.41 68.92 39.88 0.54 59.86 34.98 58.82 35.58 39.88 2.92 2.48 67.72 39.63 67.72 39.63 68.92"/>
         <path class="cls-1" d="M39.87,69.16H0l.21-.36L39.88.06l20.3,35-1.44.84-.12-.21L39.88,3.4,2.9,67.48h37Zm-39-.48H39.39V68H2.07l.21-.36L39.88,2.45l19,32.81.62-.36L39.88,1Z"/>
         <rect class="cls-1" x="14.48" y="44.73" width="11.88" height="1.2"/>
         <path class="cls-1" d="M26.6,46.16H14.24V44.49H26.6Zm-11.88-.48h11.4V45H14.72Z"/>
         <polygon class="cls-1" points="79.35 68.92 52.11 68.92 52.11 67.72 77.28 67.72 64.56 45.69 65.6 45.09 79.35 68.92"/>
         <path class="cls-1" d="M79.76,69.16H51.87V67.48h25L64.24,45.6l1.45-.84.12.21Zm-27.41-.48H78.93L65.51,45.42l-.62.35L77.69,68H52.35Z"/>
         <path class="cls-1" d="M59.93,54.63,28.45.28a2.57,2.57,0,0,0,1.31,5l.09,0,29.05,50Z"/>
         <path class="cls-1" d="M58.82,55.56,29.73,5.51A2.81,2.81,0,0,1,28.38.05l.18,0,.09.16L60.26,54.72ZM29.88,5l.17.14L59,54.9l.62-.36L28.34.57a2.31,2.31,0,0,0-1.46,2.75A2.33,2.33,0,0,0,29.71,5Z"/>
         <path class="cls-1" d="M79.23,47.77a2.45,2.45,0,0,0-1.1-.63L65.94,68.24l1,.61,9.8-16.77a2.55,2.55,0,0,0,2.51-.67A2.57,2.57,0,0,0,79.23,47.77Z"/>
         <path class="cls-1" d="M67.05,69.17l-1.44-.84.12-.21L78,46.86l.18,0a2.78,2.78,0,0,1,1.21.68h0a2.83,2.83,0,0,1,0,4,2.8,2.8,0,0,1-2.57.78Zm-.79-1,.62.36L76.65,51.8l.18.05a2.32,2.32,0,0,0,2.23-3.91h0a2.18,2.18,0,0,0-.82-.51Z"/>
         <path class="cls-1" d="M36.33,77.09a2.57,2.57,0,0,0-3.16-1.82h0L15.39,45l-1,.6L34.58,80.22A2.58,2.58,0,0,0,36.33,77.09Z"/>
         <path class="cls-1" d="M34.47,80.5,14,45.51l1.45-.85.12.21L33.26,75a2.83,2.83,0,0,1,3.3,2h0a2.79,2.79,0,0,1-1.91,3.42ZM14.69,45.68l20,34.25a2.33,2.33,0,0,0,1.41-2.78h0A2.3,2.3,0,0,0,35,75.73a2.33,2.33,0,0,0-1.77-.23l-.18,0-.12-.14L15.31,45.31Z"/>
         <rect class="cls-1" x="23.89" y="39.74" width="12.17" height="1.2" transform="translate(-20.13 44.24) rotate(-57.84)"/>
         <path class="cls-1" d="M27.32,46.14l-1.42-.89,6.73-10.71,1.42.89Zm-.76-1,.61.38,6.22-9.9-.61-.38Z"/>
      </g>
   </g>
</svg>