<svg width="500" height="500" viewBox="0 0 500 500" fill="none" xmlns="http://www.w3.org/2000/svg">
<path d="M99.2001 439.24C182.48 485.33 317.52 485.33 400.8 439.24C484.08 393.15 484.09 318.43 400.8 272.35C317.51 226.27 182.48 226.26 99.2001 272.35C15.9201 318.44 15.9101 393.15 99.2001 439.24Z" fill="#F5F5F5"/>
<path d="M428.6 248.85L419.71 243.7L419.58 243.61C412.91 239.85 403.77 240.4 393.64 246.25C384.16 251.71 375.52 260.83 369 271.38C361.47 283.52 356.73 297.58 356.73 310.19C356.73 321.94 360.84 330.19 367.5 334.06L376.59 339.25C383.32 343.53 392.82 343.15 403.35 337.07C423.74 325.3 440.27 296.67 440.27 273.13C440.26 260.94 435.77 252.49 428.6 248.85Z" fill="#37474F"/>
<path d="M376.32 339.16L367.49 334.11C360.83 330.25 356.72 321.99 356.72 310.23C356.72 297.63 361.46 283.58 368.99 271.43L378.71 277.06C371.18 289.2 366.46 303.24 366.46 315.83C366.42 327.05 370.18 335.09 376.32 339.16Z" fill="#263238"/>
<path d="M428.32 248.7C421.75 245.51 412.98 246.32 403.32 251.87C393.83 257.36 385.18 266.48 378.65 277.04L369 271.41C375.52 260.86 384.17 251.75 393.64 246.29C403.76 240.44 412.91 239.88 419.58 243.64L419.72 243.73L428.32 248.7Z" fill="#455A64"/>
<path d="M388.38 333.56C385.91 333.618 383.478 332.954 381.38 331.65L381.26 331.57L381.07 331.47C376.59 328.39 374.15 322.18 374.15 313.94C374.15 303.68 378 291.59 384.71 280.77C390.54 271.35 398 263.7 405.71 259.22C410.26 256.61 414.71 255.22 418.55 255.22C420.523 255.195 422.476 255.608 424.27 256.43L424.54 256.58C429.76 259.22 432.74 265.88 432.74 274.85C432.74 294.95 418.57 319.49 401.16 329.55C396.67 332.17 392.23 333.56 388.38 333.56Z" fill="#FAFAFA"/>
<path d="M406.14 293.45L404.99 293.55C403.427 293.722 401.846 293.559 400.351 293.072C398.856 292.585 397.483 291.785 396.321 290.725C395.16 289.665 394.239 288.37 393.617 286.926C392.996 285.482 392.69 283.922 392.72 282.35C392.776 279.14 394.007 276.062 396.18 273.697C398.352 271.333 401.316 269.847 404.51 269.52L406.61 269.34C408.111 269.175 409.631 269.332 411.067 269.8C412.504 270.268 413.824 271.036 414.94 272.054C416.057 273.072 416.944 274.316 417.542 275.703C418.14 277.091 418.436 278.589 418.41 280.1V280.1C418.349 283.44 417.067 286.642 414.807 289.102C412.546 291.562 409.463 293.108 406.14 293.45V293.45Z" fill="#263238"/>
<path d="M387 300C389.134 299.781 391.113 298.788 392.565 297.209C394.016 295.63 394.84 293.574 394.88 291.43V277C392.746 277.219 390.767 278.212 389.315 279.791C387.864 281.37 387.04 283.426 387 285.57V300Z" fill="#263238"/>
<path d="M410.45 297C407.4 300.15 409.14 304.53 414.79 318.13C417.265 315.321 419.525 312.329 421.55 309.18C420.08 303.88 417.76 295.78 410.45 297Z" fill="#FFA8A7"/>
<path d="M419.14 312.72C419.665 310.788 419.692 308.755 419.22 306.81C417.83 301.49 412.46 296.66 410.08 297.06L401.16 298.06C395.42 298.96 395.01 301.77 393.58 304.93C392.641 307.335 392.677 310.011 393.68 312.39L397.31 323.57C397.31 323.57 395.43 328.26 393.26 332.73L393.43 332.8C396.159 332.056 398.775 330.949 401.21 329.51C407.86 325.71 414 319.74 419.14 312.72Z" fill="#EBEBEB"/>
<path d="M393.8 272L395.54 274.64C395.378 274.78 395.188 274.885 394.983 274.947C394.778 275.01 394.563 275.029 394.35 275.004C394.137 274.978 393.932 274.909 393.748 274.8C393.564 274.691 393.404 274.544 393.28 274.37C393.055 273.981 392.984 273.523 393.08 273.084C393.177 272.646 393.433 272.259 393.8 272V272Z" fill="#263238"/>
<path d="M414.19 273.87C415.55 274.55 417.19 277.82 417.06 284.99C416.92 291.07 414.95 292.74 413.97 293.25C412.99 293.76 411.08 293.68 409.23 293.53V297.17C409.23 297.17 411.78 299.92 411.62 301.6C411.46 303.28 407.93 303.99 405.54 302.6C403.989 301.625 402.652 300.346 401.61 298.84V290C401.241 290.503 400.693 290.845 400.079 290.957C399.465 291.069 398.832 290.941 398.31 290.6C396.31 289.42 396.19 286.07 397.38 284.76C398.57 283.45 401.13 283.61 401.61 285.23C404.081 284.905 406.439 283.997 408.49 282.58C410.016 281.63 411.316 280.358 412.3 278.854C413.285 277.35 413.93 275.649 414.19 273.87V273.87Z" fill="#FFA8A7"/>
<path d="M409.61 284.12C409.618 284.33 409.549 284.536 409.417 284.7C409.284 284.864 409.097 284.974 408.89 285.01C408.791 285.023 408.691 285.014 408.595 284.986C408.5 284.957 408.411 284.908 408.336 284.843C408.261 284.778 408.2 284.698 408.157 284.608C408.115 284.518 408.092 284.42 408.09 284.32C408.08 284.109 408.147 283.902 408.28 283.738C408.413 283.574 408.602 283.464 408.81 283.43C408.909 283.417 409.009 283.426 409.105 283.454C409.2 283.483 409.288 283.531 409.364 283.597C409.439 283.662 409.5 283.742 409.542 283.832C409.585 283.922 409.608 284.02 409.61 284.12V284.12Z" fill="#263238"/>
<path d="M410.49 289.18L412.26 289.59C412.198 289.836 412.045 290.05 411.831 290.187C411.618 290.325 411.36 290.376 411.11 290.33C410.992 290.298 410.882 290.242 410.786 290.166C410.69 290.091 410.611 289.996 410.553 289.888C410.495 289.781 410.459 289.662 410.448 289.541C410.438 289.419 410.452 289.296 410.49 289.18V289.18Z" fill="#F28F8F"/>
<path d="M415.86 281.23L414.32 280.29C414.372 280.171 414.449 280.065 414.546 279.979C414.643 279.893 414.757 279.828 414.88 279.789C415.004 279.751 415.135 279.739 415.263 279.755C415.392 279.771 415.516 279.814 415.626 279.881C415.737 279.949 415.832 280.039 415.905 280.146C415.978 280.253 416.027 280.375 416.049 280.503C416.071 280.63 416.065 280.761 416.033 280.887C416 281.012 415.941 281.129 415.86 281.23Z" fill="#263238"/>
<path d="M415.51 283.05C415.517 283.262 415.447 283.469 415.313 283.633C415.178 283.797 414.989 283.906 414.78 283.94C414.681 283.954 414.581 283.947 414.486 283.92C414.39 283.892 414.302 283.845 414.226 283.781C414.15 283.716 414.089 283.637 414.047 283.547C414.004 283.457 413.981 283.359 413.98 283.26C413.969 283.048 414.037 282.839 414.169 282.674C414.302 282.508 414.49 282.396 414.7 282.36C414.799 282.347 414.9 282.356 414.996 282.384C415.092 282.413 415.181 282.461 415.257 282.526C415.333 282.591 415.395 282.671 415.438 282.761C415.482 282.852 415.506 282.95 415.51 283.05V283.05Z" fill="#263238"/>
<path d="M411.78 282.94L411.9 287.52L414.32 286.56L411.78 282.94Z" fill="#F28F8F"/>
<path d="M409.23 293.53C407.23 293.44 403.23 292.64 402.64 291.11C402.876 291.871 403.353 292.534 404 293C405.2 293.92 409.19 294.73 409.19 294.73L409.23 293.53Z" fill="#F28F8F"/>
<path d="M399.47 326.76C399.836 325.904 400.444 325.174 401.22 324.66C401.484 324.467 401.803 324.362 402.13 324.362C402.457 324.362 402.776 324.467 403.04 324.66C401.74 323.91 399.47 319.92 399.16 318.41L397.61 313.41C397.466 312.218 397.571 311.009 397.92 309.86L393.92 305.55L393.17 306.13C392.68 308.228 392.869 310.427 393.71 312.41L397.34 323.59C397.34 323.59 395.46 328.28 393.29 332.75L393.46 332.82C395.658 332.229 397.781 331.39 399.79 330.32C399.454 329.796 399.25 329.199 399.194 328.579C399.139 327.959 399.233 327.335 399.47 326.76V326.76Z" fill="#E0E0E0"/>
<path d="M396.26 314.06C399.49 311.56 402.1 303.9 398.98 298.61C394.38 299.53 389.75 303.06 384.73 322.09C384.28 323.83 384.14 328.31 384.19 332.94C385.546 333.361 386.96 333.57 388.38 333.56C389.453 333.551 390.524 333.451 391.58 333.26C391.65 329.82 391.74 326.65 391.81 325.39L396.26 314.06Z" fill="#FFA8A7"/>
<path d="M363.12 302.38C362.886 302.381 362.654 302.347 362.43 302.28L296.81 283.81C296.487 283.719 296.186 283.566 295.923 283.359C295.66 283.152 295.44 282.895 295.276 282.603C295.112 282.311 295.007 281.989 294.968 281.657C294.928 281.324 294.954 280.987 295.045 280.665C295.135 280.343 295.289 280.041 295.496 279.778C295.703 279.515 295.96 279.295 296.252 279.131C296.544 278.967 296.865 278.862 297.198 278.823C297.53 278.783 297.867 278.809 298.19 278.9L363.81 297.37C364.399 297.54 364.907 297.916 365.241 298.43C365.575 298.944 365.713 299.561 365.629 300.169C365.545 300.776 365.245 301.333 364.785 301.737C364.324 302.141 363.733 302.366 363.12 302.37V302.38Z" fill="#E0E0E0"/>
<path d="M399.77 250.21C399.093 250.21 398.445 249.941 397.967 249.463C397.488 248.985 397.22 248.336 397.22 247.66V183.77C397.22 183.094 397.488 182.445 397.967 181.967C398.445 181.489 399.093 181.22 399.77 181.22C400.446 181.22 401.095 181.489 401.573 181.967C402.051 182.445 402.32 183.094 402.32 183.77V247.66C402.32 248.336 402.051 248.985 401.573 249.463C401.095 249.941 400.446 250.21 399.77 250.21V250.21Z" fill="#E0E0E0"/>
<path d="M416.11 116L408.5 111.59L408.38 111.52C402.67 108.3 394.84 108.77 386.16 113.78C378 118.43 370.6 126.24 365 135.28C358.55 145.68 354.49 157.73 354.49 168.52C354.49 178.59 358.01 185.66 363.72 188.97L371.51 193.41C377.27 197.08 385.41 196.76 394.43 191.55C411.9 181.46 426.06 156.94 426.06 136.78C426.1 126.31 422.25 119.07 416.11 116Z" fill="#43BA8F"/>
<path opacity="0.1" d="M371.32 193.31L363.76 189C358.06 185.69 354.54 178.62 354.54 168.55C354.54 157.75 358.6 145.71 365.05 135.31L373.38 140.13C366.93 150.53 362.88 162.56 362.88 173.35C362.84 182.94 366.06 189.83 371.32 193.31Z" fill="black"/>
<path opacity="0.4" d="M415.87 115.82C410.24 113.09 402.73 113.82 394.47 118.54C386.21 123.26 378.94 131.06 373.34 140.1L365 135.28C370.59 126.28 378 118.43 386.11 113.76C394.78 108.76 402.62 108.27 408.33 111.49L408.45 111.56L415.87 115.82Z" fill="white"/>
<path d="M381.66 188.52C379.543 188.567 377.458 187.997 375.66 186.88L375.56 186.82L375.4 186.72C371.57 184.09 369.47 178.77 369.47 171.72C369.47 162.93 372.77 152.58 378.47 143.31C383.47 135.24 389.86 128.69 396.47 124.85C399.782 122.782 403.57 121.601 407.47 121.42C409.154 121.388 410.823 121.73 412.36 122.42L412.6 122.55C417.06 124.81 419.6 130.55 419.6 138.2C419.6 155.43 407.46 176.45 392.54 185.06C389.269 187.125 385.523 188.316 381.66 188.52V188.52Z" fill="#FAFAFA"/>
<path d="M412 159.56C408.23 155.69 406.52 155.18 403.27 155.11L408.09 169.26L408.64 169.76C410.514 167.068 412.185 164.24 413.64 161.3C413.11 160.68 412.54 160.1 412 159.56Z" fill="#37474F"/>
<path d="M408 170.69C407.9 167.45 407.83 164.82 407.83 163.77C407.83 160 405.74 155.67 399.96 155.85L392.5 156.73C390.77 157.3 387.27 158.18 386.5 161.73C385.56 165.97 385.25 175.05 385.25 175.05L385.04 188.15C387.725 187.556 390.299 186.543 392.67 185.15C398.722 181.439 403.942 176.515 408 170.69Z" fill="#F5F5F5"/>
<path d="M408.72 163.56C408.2 156.87 408.26 154.93 399.88 154.96V155.46C401.477 156.659 402.636 158.349 403.18 160.27C403.48 161.54 403.67 168.4 403.79 175.87C405.652 173.819 407.373 171.644 408.94 169.36C408.87 166.67 408.8 164.54 408.72 163.56Z" fill="#455A64"/>
<path d="M391 155.75L384.93 156.83C383.53 157.51 382.85 164.39 382.74 168.78C382.68 171.09 382.88 180.97 383.04 188.45C386.453 188.026 389.737 186.877 392.67 185.08C393.817 184.415 394.929 183.691 396 182.91C395.94 178.44 395.88 173.75 395.87 170.06C395.78 158.29 391 155.75 391 155.75Z" fill="#455A64"/>
<path d="M385.84 156.66C378.84 157.23 376.5 164.23 374.08 176.25C373.58 178.71 373.17 181.5 372.85 184.25C372.98 184.44 373.13 184.61 373.28 184.79C373.898 185.534 374.615 186.19 375.41 186.74L375.57 186.84L375.67 186.9C376.743 187.568 377.929 188.032 379.17 188.27C379.42 188.32 379.66 188.38 379.92 188.42C379.92 188.36 379.92 188.31 379.92 188.25C380.97 182.31 382.83 174.66 384.4 170.85C386.93 165.13 385.84 156.66 385.84 156.66Z" fill="#37474F"/>
<path d="M390.43 162.24L392.64 164.77L391.54 167.97L394.43 175.14L390.94 168.03L392.16 164.99L390.43 162.24Z" fill="#37474F"/>
<path d="M405.97 159.98L405.49 162.84L407.4 165.16L404.75 173.75L406.8 165.3L405.04 163.14L405.97 159.98Z" fill="#37474F"/>
<path d="M405.612 143.882C408.411 140.956 408.509 136.508 405.831 133.946C403.153 131.385 398.713 131.68 395.915 134.605C393.117 137.53 393.019 141.978 395.697 144.54C398.375 147.102 402.814 146.807 405.612 143.882Z" fill="#263238"/>
<path d="M388.63 145.28C389.05 147.334 389.581 149.363 390.22 151.36C390.371 151.614 390.574 151.835 390.815 152.007C391.056 152.179 391.33 152.299 391.62 152.36L391.54 148.61L388.63 145.28Z" fill="#263238"/>
<path d="M390.06 137.51C389.646 137.508 389.236 137.596 388.859 137.769C388.483 137.941 388.148 138.194 387.88 138.51C386.94 139.51 387.46 142.51 388.63 145.32L390.77 145.38L390.06 137.51Z" fill="#263238"/>
<path d="M391.41 145.28C390.98 145.58 390.41 144.81 389.84 144.28C389.606 144.063 389.321 143.908 389.012 143.828C388.703 143.749 388.379 143.748 388.069 143.825C387.759 143.903 387.473 144.056 387.238 144.272C387.002 144.487 386.824 144.758 386.72 145.06C386.409 145.944 386.457 146.914 386.853 147.763C387.25 148.611 387.963 149.271 388.84 149.6C391.19 150.13 391.54 148.6 391.54 148.6L391.71 157.3C393.33 159.24 396.98 161.36 398.94 160.84C400.5 160.42 400.84 157.74 399.35 156.14V153.57C400.405 153.642 401.464 153.602 402.51 153.45C404.24 153.03 405.32 151.57 405.84 149.66C406.68 146.59 407 144.14 406.29 138.31C405.51 131.91 397.99 132.51 393.93 135.43C389.87 138.35 391.41 145.28 391.41 145.28Z" fill="#FFA8A7"/>
<path d="M391.41 146C391.2 146 390.41 144.73 389.84 144.29C389.1 143.68 390.06 137.5 390.06 137.5C389.799 136.956 389.709 136.347 389.8 135.751C389.891 135.156 390.159 134.601 390.57 134.16C391.57 132.95 392.99 131.46 397.57 131.6C400.85 131.69 404.42 132.4 407.31 130.73C407.563 131.694 407.535 132.711 407.231 133.661C406.926 134.61 406.357 135.453 405.59 136.09C404.424 136.778 403.138 137.236 401.8 137.44C399.285 137.856 396.737 138.034 394.19 137.97C393.4 137.97 393.19 138.72 392.8 140.87C392.45 142.76 392.14 145.93 391.41 146Z" fill="#263238"/>
<path d="M390.06 138L387.46 136.84C387.617 136.466 387.915 136.169 388.289 136.014C388.664 135.859 389.084 135.857 389.46 136.01C389.632 136.099 389.784 136.222 389.908 136.371C390.032 136.52 390.124 136.693 390.18 136.878C390.236 137.064 390.254 137.259 390.234 137.451C390.213 137.644 390.154 137.831 390.06 138V138Z" fill="#263238"/>
<path d="M399.34 153.58C397.582 153.415 395.844 153.08 394.15 152.58C393.361 152.247 392.706 151.659 392.29 150.91C392.474 151.663 392.815 152.368 393.29 152.98C394.29 154.15 399.29 154.63 399.29 154.63L399.34 153.58Z" fill="#F28F8F"/>
<path d="M398.42 143.7C398.417 143.915 398.336 144.121 398.193 144.281C398.049 144.441 397.853 144.543 397.64 144.57C397.54 144.577 397.439 144.563 397.344 144.529C397.25 144.494 397.163 144.441 397.091 144.371C397.018 144.301 396.961 144.217 396.923 144.124C396.885 144.031 396.867 143.931 396.87 143.83C396.871 143.616 396.949 143.41 397.091 143.25C397.233 143.09 397.428 142.987 397.64 142.96C397.741 142.951 397.843 142.964 397.939 142.998C398.035 143.032 398.122 143.085 398.196 143.155C398.27 143.225 398.328 143.31 398.366 143.404C398.405 143.497 398.423 143.598 398.42 143.7Z" fill="#263238"/>
<path d="M397.6 140.86L396 141.92C395.873 141.69 395.842 141.42 395.913 141.167C395.984 140.915 396.152 140.7 396.38 140.57C396.479 140.508 396.589 140.466 396.704 140.447C396.819 140.428 396.937 140.433 397.05 140.46C397.164 140.487 397.271 140.536 397.365 140.605C397.46 140.673 397.539 140.76 397.6 140.86Z" fill="#263238"/>
<path d="M399 149L400.76 149.5C400.688 149.745 400.524 149.954 400.303 150.082C400.081 150.21 399.819 150.249 399.57 150.19C399.453 150.152 399.344 150.09 399.251 150.009C399.158 149.928 399.083 149.829 399.03 149.717C398.976 149.606 398.946 149.485 398.941 149.362C398.936 149.238 398.956 149.115 399 149V149Z" fill="#F28F8F"/>
<path d="M405.29 140.82L403.79 139.82C403.855 139.712 403.94 139.619 404.041 139.545C404.143 139.471 404.258 139.418 404.38 139.389C404.502 139.36 404.628 139.356 404.752 139.377C404.876 139.397 404.994 139.443 405.1 139.51C405.286 139.668 405.408 139.888 405.443 140.129C405.478 140.37 405.423 140.616 405.29 140.82V140.82Z" fill="#263238"/>
<path d="M404.83 142.91C404.829 143.124 404.751 143.33 404.609 143.49C404.467 143.65 404.272 143.753 404.06 143.78C403.959 143.787 403.859 143.773 403.764 143.739C403.67 143.704 403.583 143.651 403.511 143.581C403.438 143.511 403.381 143.427 403.343 143.334C403.305 143.241 403.287 143.141 403.29 143.04C403.291 142.826 403.369 142.62 403.511 142.46C403.653 142.3 403.848 142.197 404.06 142.17C404.16 142.163 404.261 142.177 404.356 142.211C404.45 142.246 404.537 142.299 404.609 142.369C404.682 142.439 404.739 142.523 404.777 142.616C404.815 142.709 404.833 142.809 404.83 142.91V142.91Z" fill="#263238"/>
<path d="M400.9 142.53L401.15 147.14L403.58 146.1L400.9 142.53Z" fill="#F28F8F"/>
<path d="M401.74 160.06C401.27 161.23 400.39 161.77 398.81 162.06C398.042 162.195 397.253 162.164 396.498 161.969C395.742 161.774 395.037 161.42 394.43 160.93L396.43 158.79L398.93 160.45L399.14 158.34L401.74 160.06Z" fill="#37474F"/>
<path d="M400.06 163.46C400.44 162.92 400.681 162.295 400.76 161.64C400.821 160.936 400.733 160.227 400.5 159.56L398.9 160.47L396.74 160.42C396.731 161.069 396.872 161.712 397.151 162.298C397.43 162.884 397.84 163.398 398.35 163.8C398.35 163.8 398.35 163.94 398.35 164.19C398.18 166.52 397.35 178.6 397.35 179.54C397.459 180.183 397.679 180.802 398 181.37C399.588 180.074 401.097 178.685 402.52 177.21C401.9 173.49 400.06 163.46 400.06 163.46Z" fill="#455A64"/>
<path d="M399.9 163.57C399.677 163.725 399.421 163.826 399.152 163.866C398.883 163.906 398.609 163.883 398.35 163.8C398.35 163.8 398.35 163.94 398.35 164.19C398.664 164.244 398.987 164.227 399.294 164.138C399.6 164.05 399.883 163.893 400.12 163.68V163.46L399.9 163.57Z" fill="#37474F"/>
<path d="M398.9 160.47L391.68 155.62V153.99C391.68 153.99 390 154.77 389.62 157.77C390.772 160.22 392.772 162.171 395.25 163.26L396.77 160.42L398.9 160.47Z" fill="#E0E0E0"/>
<path d="M399.34 154.05C399.792 154.082 400.233 154.207 400.635 154.419C401.036 154.631 401.389 154.924 401.67 155.28C402.39 156.41 402.23 160.98 402.23 160.98L400.5 159.56L398.9 160.47C399.05 158.94 399.35 156.15 399.35 156.15L399.34 154.05Z" fill="#E0E0E0"/>
<path d="M287.27 235.29C286.745 235.292 286.233 235.131 285.802 234.831C285.372 234.531 285.044 234.105 284.865 233.611C284.686 233.118 284.663 232.581 284.8 232.075C284.937 231.568 285.227 231.116 285.63 230.78L356.86 171.24C357.38 170.806 358.051 170.597 358.725 170.658C359.399 170.719 360.022 171.045 360.455 171.565C360.889 172.085 361.098 172.756 361.037 173.43C360.976 174.104 360.65 174.726 360.13 175.16L288.91 234.7C288.45 235.084 287.869 235.293 287.27 235.29Z" fill="#E0E0E0"/>
<path d="M368.76 140C368.464 139.999 368.169 139.948 367.89 139.85L273.59 105.56C273.263 105.455 272.961 105.286 272.701 105.061C272.442 104.837 272.23 104.563 272.079 104.255C271.927 103.947 271.84 103.611 271.822 103.269C271.803 102.926 271.854 102.583 271.971 102.261C272.088 101.938 272.269 101.643 272.503 101.392C272.737 101.141 273.02 100.94 273.333 100.801C273.647 100.662 273.985 100.587 274.328 100.582C274.671 100.577 275.012 100.641 275.33 100.77L369.63 135.05C370.196 135.253 370.672 135.65 370.973 136.17C371.275 136.689 371.384 137.299 371.28 137.891C371.176 138.484 370.866 139.02 370.405 139.406C369.944 139.791 369.361 140.002 368.76 140V140Z" fill="#E0E0E0"/>
<path d="M210.3 414L208.13 412.74C207.197 412.133 206.421 411.313 205.864 410.349C205.308 409.384 204.988 408.302 204.93 407.19V216.43C204.99 215.318 205.311 214.237 205.867 213.272C206.423 212.308 207.198 211.488 208.13 210.88L296.13 160.08C297.124 159.577 298.222 159.315 299.335 159.315C300.449 159.315 301.547 159.577 302.54 160.08L304.72 161.34C305.65 161.948 306.425 162.766 306.981 163.729C307.536 164.691 307.858 165.77 307.92 166.88V357.68C307.858 358.79 307.536 359.869 306.981 360.831C306.425 361.794 305.65 362.612 304.72 363.22L216.72 414.03C215.723 414.53 214.622 414.787 213.507 414.782C212.391 414.777 211.293 414.509 210.3 414Z" fill="#37474F"/>
<path d="M217.8 220.16L205.86 213.27C205.286 214.227 204.966 215.315 204.93 216.43V407.22C204.988 408.332 205.308 409.414 205.864 410.379C206.421 411.343 207.197 412.163 208.13 412.77L210.3 414C211.294 414.503 212.392 414.765 213.505 414.765C214.619 414.765 215.717 414.503 216.71 414L217.8 413.37V220.16Z" fill="#263238"/>
<path d="M213.51 221.38V412.18C213.51 414.18 214.94 415.05 216.71 414.03L304.71 363.22C305.641 362.612 306.415 361.794 306.971 360.831C307.527 359.869 307.848 358.79 307.91 357.68V166.88C307.91 164.88 306.47 164.01 304.71 165.03L216.71 215.84C215.778 216.446 215.003 217.264 214.447 218.227C213.891 219.189 213.57 220.27 213.51 221.38V221.38Z" fill="#455A64"/>
<path d="M220.54 233.44L300.54 187.25C302.05 186.38 303.28 187.09 303.28 188.84V341.05C303.229 342.001 302.954 342.927 302.478 343.753C302.002 344.578 301.338 345.279 300.54 345.8L220.54 391.99C219.03 392.87 217.8 392.16 217.8 390.41V238.2C217.853 237.248 218.128 236.321 218.604 235.494C219.08 234.667 219.743 233.964 220.54 233.44Z" fill="#FAFAFA"/>
<path d="M260.71 195.39C261.89 194.71 262.85 195.26 262.85 196.63C262.81 197.373 262.596 198.096 262.224 198.741C261.852 199.386 261.333 199.933 260.71 200.34C259.52 201.03 258.56 200.47 258.56 199.11C258.599 198.364 258.815 197.638 259.188 196.992C259.562 196.345 260.083 195.796 260.71 195.39Z" fill="#263238"/>
<path d="M254.51 206.11C258.87 203.7 266.65 199.11 270.94 196.54C271.67 196.11 272.26 196.41 272.26 197.2C272.228 197.646 272.092 198.078 271.863 198.462C271.634 198.846 271.318 199.17 270.94 199.41L254.48 208.91C253.74 209.34 253.15 209.04 253.15 208.24C253.188 207.801 253.331 207.378 253.568 207.007C253.805 206.636 254.128 206.328 254.51 206.11V206.11Z" fill="#263238"/>
<path d="M250.35 208.51C251.02 208.13 251.56 208.44 251.56 209.21C251.537 209.628 251.415 210.034 251.205 210.395C250.995 210.757 250.702 211.063 250.35 211.29C249.69 211.68 249.15 211.37 249.15 210.6C249.173 210.182 249.293 209.775 249.501 209.412C249.71 209.049 250.001 208.74 250.35 208.51V208.51Z" fill="#263238"/>
<path d="M260.71 373.76C263.08 372.39 265 373.5 265 376.24C264.919 377.728 264.488 379.177 263.743 380.467C262.998 381.758 261.959 382.856 260.71 383.67C258.34 385.04 256.42 383.93 256.42 381.19C256.502 379.702 256.933 378.253 257.678 376.963C258.423 375.672 259.462 374.575 260.71 373.76V373.76Z" fill="#263238"/>
<path d="M273.06 267.47C279.01 267.86 280.73 268.66 284.71 273.06C288.23 276.94 302.99 292.25 304.12 294.38C305.25 296.51 297.7 302.61 297.7 302.61L276.33 282.61L273.06 267.47Z" fill="#FFA8A7"/>
<path d="M248.29 235.43L243.93 233.09C244.069 232.796 244.266 232.534 244.51 232.319C244.753 232.103 245.038 231.94 245.347 231.838C245.655 231.736 245.981 231.698 246.305 231.726C246.629 231.753 246.944 231.847 247.23 232C247.814 232.326 248.25 232.864 248.447 233.503C248.645 234.141 248.588 234.832 248.29 235.43V235.43Z" fill="#263238"/>
<path d="M248.36 234.15L247 229.4C247.307 229.292 247.633 229.247 247.957 229.268C248.282 229.29 248.599 229.377 248.889 229.525C249.179 229.672 249.436 229.878 249.644 230.128C249.852 230.378 250.007 230.668 250.1 230.98C250.275 231.631 250.192 232.324 249.868 232.915C249.544 233.506 249.003 233.948 248.36 234.15Z" fill="#263238"/>
<path d="M283.88 244C283.89 246.925 283.319 249.823 282.202 252.527C281.085 255.23 279.442 257.685 277.37 259.75L262.26 260.28L262.31 265.94C253.41 265.94 244.89 257.74 244.89 245.94C244.766 240.872 246.657 235.963 250.147 232.287C253.638 228.611 258.443 226.469 263.51 226.33C274.05 226.05 283.59 233.48 283.88 244.02V244Z" fill="#263238"/>
<path d="M288.56 352.73L271.08 362.82L267.51 346.68C267.51 346.68 266.67 356.5 265.71 365.92L246.57 377C246.34 372.82 245.99 366.75 245.47 360C244.47 346.52 243.06 329.42 246.74 319.39L285.65 320.58C286.23 326.87 287.59 340.21 288.56 352.73Z" fill="#43BA8F"/>
<g opacity="0.5">
<path opacity="0.5" d="M288.56 352.73L271.65 362.49L271.08 362.82L267.51 346.68C267.51 346.68 266.67 356.5 265.71 365.92L246.57 377C246.34 372.82 245.99 366.75 245.47 360C244.47 346.52 243.06 329.42 246.74 319.39L285.65 320.58C286.23 326.87 287.59 340.21 288.56 352.73Z" fill="black"/>
</g>
<path opacity="0.5" d="M270.38 342L269.75 347.93L271.65 362.49L271.08 362.82L267.51 346.68L268.02 340.19C271.567 340.272 275.056 339.271 278.02 337.32C276.037 339.654 273.36 341.294 270.38 342V342Z" fill="black"/>
<path d="M257.15 269.51C255.041 269.786 252.953 270.203 250.9 270.76C254.21 278.56 249.75 288.59 249.75 288.59L254.25 304.64C250.07 309.35 248.44 312.46 246.76 319.34C249.58 322.6 266.92 330.34 285.65 320.57C285.65 320.57 283.94 308.27 283.21 301C286.02 289.26 285.33 286.74 284.52 283.63C282.26 274.89 279.86 273.43 273.06 267.47H268.93L257.15 269.51Z" fill="#43BA8F"/>
<g opacity="0.1">
<path opacity="0.1" d="M251.66 295.42L260.85 307.64L254.25 304.64L251.66 295.42Z" fill="black"/>
</g>
<path d="M275.5 234.5C277.55 235.63 280.18 240.64 280.22 251.27C280.22 260.27 277.4 262.59 275.95 263.27C274.5 263.95 271.67 263.64 268.9 263.27V267.49C268.9 267.49 273.9 272.43 273.71 274.91C273.52 277.39 267.37 278.69 263.71 276.36C261.172 274.567 258.937 272.379 257.09 269.88L256.69 256.97C256.69 256.97 255.11 258.58 252.3 256.26C249.98 254.34 249.13 251.03 250.85 249.19C251.301 248.763 251.846 248.447 252.44 248.266C253.035 248.086 253.663 248.047 254.275 248.152C254.888 248.256 255.467 248.502 255.968 248.87C256.469 249.238 256.877 249.717 257.16 250.27C257.16 250.27 261.55 250.27 267.3 246.94C269.552 245.661 271.469 243.867 272.894 241.705C274.32 239.543 275.213 237.074 275.5 234.5Z" fill="#FFA8A7"/>
<path d="M269 249.59C269.031 249.888 268.943 250.186 268.756 250.42C268.569 250.654 268.297 250.805 268 250.84C267.848 250.849 267.695 250.829 267.55 250.779C267.406 250.729 267.273 250.652 267.159 250.55C267.044 250.449 266.951 250.326 266.884 250.189C266.818 250.052 266.779 249.902 266.77 249.75C266.759 249.602 266.778 249.453 266.825 249.311C266.872 249.17 266.947 249.04 267.044 248.927C267.142 248.815 267.26 248.723 267.394 248.657C267.527 248.59 267.672 248.55 267.82 248.54C267.968 248.529 268.117 248.548 268.258 248.595C268.4 248.642 268.53 248.717 268.642 248.814C268.755 248.912 268.847 249.031 268.913 249.164C268.98 249.297 269.019 249.442 269.03 249.59H269Z" fill="#263238"/>
<path d="M269.5 257.21L272.16 257.98C272.118 258.159 272.041 258.327 271.932 258.475C271.824 258.623 271.686 258.747 271.528 258.841C271.37 258.934 271.195 258.994 271.013 259.018C270.832 259.042 270.647 259.029 270.47 258.98C270.111 258.867 269.811 258.619 269.63 258.29C269.449 257.96 269.403 257.573 269.5 257.21Z" fill="#F28F8F"/>
<path d="M278.19 245.85L275.85 244.33C275.941 244.172 276.064 244.035 276.21 243.927C276.356 243.819 276.523 243.742 276.7 243.701C276.877 243.659 277.061 243.655 277.24 243.687C277.418 243.72 277.589 243.789 277.74 243.89C278.054 244.095 278.276 244.414 278.36 244.779C278.444 245.145 278.383 245.528 278.19 245.85V245.85Z" fill="#263238"/>
<path d="M266.87 244.88L265.13 246.49C264.848 246.23 264.672 245.875 264.635 245.493C264.598 245.111 264.703 244.729 264.93 244.42C265.41 244 266.27 244.18 266.87 244.88Z" fill="#263238"/>
<path d="M277.73 248.53C277.761 248.829 277.674 249.128 277.487 249.364C277.3 249.599 277.028 249.752 276.73 249.79C276.496 249.825 276.256 249.789 276.042 249.687C275.829 249.584 275.651 249.42 275.532 249.214C275.414 249.009 275.359 248.773 275.377 248.537C275.394 248.301 275.482 248.075 275.629 247.89C275.777 247.704 275.976 247.567 276.203 247.497C276.429 247.426 276.671 247.425 276.898 247.494C277.124 247.563 277.325 247.699 277.473 247.884C277.622 248.069 277.711 248.294 277.73 248.53V248.53Z" fill="#263238"/>
<path d="M272.6 247.46L272.74 254.84L276.29 253.63L272.6 247.46Z" fill="#F28F8F"/>
<path d="M268.9 263.25C266 262.95 259.99 261.4 259 259.07C259.402 260.253 260.16 261.283 261.17 262.02C262.99 263.5 268.91 265.07 268.91 265.07L268.9 263.25Z" fill="#F28F8F"/>
<path d="M242.49 324.29C243.38 325.05 248 329.02 248.98 329.52C250.92 330.52 253.58 332.22 258.42 331.52C264.18 330.63 265.16 324.63 263 324.41C260.62 324.149 258.274 323.64 256 322.89C254.41 322.33 253.93 321.54 254.27 321.36C255.305 321.132 256.354 320.968 257.41 320.87C258.91 320.62 260.24 319.44 260.18 318.61C260.12 317.78 259.25 318.14 257.71 318.16C256.17 318.18 254.89 317.7 252.71 317.9C251.333 318.105 249.926 317.849 248.71 317.17C246.71 316.36 237.12 303.61 237.12 303.61L249.74 288.61C251.741 286.117 252.926 283.067 253.131 279.877C253.337 276.686 252.555 273.51 250.89 270.78C247.146 271.34 243.775 273.357 241.51 276.39C237.66 281.39 225.7 300.55 224.7 301.99C223.7 303.43 224.21 305.61 225.7 307.66C227.81 310.38 242.49 324.29 242.49 324.29Z" fill="#FFA8A7"/>
<path d="M242.44 282.42C248.91 283.56 254.15 279.24 254.15 272.78V258.19C247.68 257.05 242.44 261.36 242.44 267.83V282.42Z" fill="#263238"/>
<path d="M295.68 300.72C298.53 303.57 301.56 306.72 303.98 306.67C307.66 306.67 319.75 282.3 321.6 279.67C323.75 276.58 325.71 274.21 326.6 270.36C326.937 268.813 326.963 267.214 326.676 265.657C326.39 264.1 325.796 262.615 324.93 261.29C323.25 259.1 320.56 258.88 319.93 261.65C319.376 264.364 318.517 267.008 317.37 269.53C317.18 268.74 315.97 265.78 314.37 265.1C312.77 264.42 312.37 265.65 313.01 267.5C313.6 269.14 313.67 273.28 314.32 275.37C314.63 276.37 301.21 292.56 301.21 292.56L295.68 300.72Z" fill="#FFA8A7"/>
<path d="M258.56 189.43C257.883 189.43 257.235 189.161 256.757 188.683C256.278 188.205 256.01 187.556 256.01 186.88V128.61C256.01 127.934 256.278 127.285 256.757 126.807C257.235 126.329 257.883 126.06 258.56 126.06C259.236 126.06 259.885 126.329 260.363 126.807C260.841 127.285 261.11 127.934 261.11 128.61V186.88C261.11 187.556 260.841 188.205 260.363 188.683C259.885 189.161 259.236 189.43 258.56 189.43V189.43Z" fill="#E0E0E0"/>
<path d="M285.9 45.72L277.2 40.72L277 40.6C270.47 36.91 261.52 37.46 251.61 43.18C242.34 48.52 233.88 57.44 227.5 67.76C220.13 79.65 215.5 93.41 215.5 105.76C215.5 117.27 219.5 125.34 226.04 129.12L234.94 134.2C241.52 138.39 250.81 138.02 261.12 132.07C281.07 120.55 297.25 92.54 297.25 69.5C297.31 57.55 292.92 49.28 285.9 45.72Z" fill="#37474F"/>
<path d="M234.74 134.09L226.1 129.16C219.58 125.38 215.56 117.3 215.56 105.8C215.56 93.4699 220.2 79.7099 227.56 67.7999L237 73.3099C229.63 85.1899 225 98.9299 225 111.25C225.05 122.25 228.73 130.11 234.74 134.09Z" fill="#263238"/>
<path d="M285.63 45.57C279.2 42.45 270.63 43.24 261.18 48.68C251.9 54.05 243.44 63 237 73.31L227.49 67.8C233.87 57.47 242.33 48.56 251.6 43.22C261.55 37.49 270.5 37 277 40.63L277.14 40.71L285.63 45.57Z" fill="#455A64"/>
<path d="M246.54 128.61C244.131 128.66 241.758 128.01 239.71 126.74L239.59 126.67L239.41 126.57C235.03 123.57 232.64 117.48 232.64 109.41C232.64 99.4099 236.4 87.5499 242.97 76.9599C248.67 67.7399 255.97 60.2599 263.55 55.8699C268 53.3099 272.35 51.9999 276.12 51.9999C278.048 51.9705 279.958 52.3737 281.71 53.1799L281.98 53.3199C287.08 55.9099 289.98 62.4199 289.98 71.1999C289.98 90.8799 276.12 114.89 259.07 124.73C254.65 127.26 250.31 128.61 246.54 128.61Z" fill="#FAFAFA"/>
<path d="M278.94 100.47C277.47 95.76 276.3 93.06 274.51 91.47C271.83 89.09 267.11 89.73 267.11 89.73L269.11 99.49L272.8 111.78C273.131 111.831 273.465 111.861 273.8 111.87C276.024 109.183 278.055 106.343 279.88 103.37C279.55 102.36 279.21 101.35 278.94 100.47Z" fill="#43BA8F"/>
<path d="M276.11 109C276.05 104.73 276 101.15 276 99.77C276 99.57 276 99.37 276 99.16C275.905 97.6613 275.478 96.2024 274.75 94.8887C274.023 93.5749 273.013 92.4389 271.793 91.5627C270.573 90.6864 269.174 90.0918 267.697 89.8216C266.22 89.5513 264.701 89.6123 263.25 90L258.07 91.33L252.88 93C251.622 93.5557 250.631 94.5824 250.12 95.86C249.541 97.4413 249.259 99.1162 249.29 100.8V112L249.16 128.38C252.671 127.769 256.039 126.511 259.09 124.67C265.753 120.636 271.541 115.308 276.11 109V109Z" fill="#F0F0F0"/>
<path d="M267.54 80.06C271.875 80.06 275.39 76.5454 275.39 72.21C275.39 67.8745 271.875 64.36 267.54 64.36C263.205 64.36 259.69 67.8745 259.69 72.21C259.69 76.5454 263.205 80.06 267.54 80.06Z" fill="#263238"/>
<path d="M254 77.7899C254.472 80.1533 255.07 82.4899 255.79 84.7899C256.132 85.3692 256.677 85.8005 257.32 85.9999L257.23 81.7999L254 77.7899Z" fill="#263238"/>
<path d="M255.57 69.2299C255.125 69.1821 254.675 69.2346 254.253 69.3834C253.83 69.5322 253.447 69.7736 253.13 70.0899C252.13 71.1599 252.67 74.5099 253.97 77.7899L256.37 78.0699L255.57 69.2299Z" fill="#263238"/>
<path d="M257.09 78.0699C256.61 78.3599 255.92 77.4399 255.33 76.8199C255.098 76.5526 254.802 76.3488 254.469 76.228C254.137 76.1071 253.779 76.0731 253.429 76.1291C253.08 76.1852 252.751 76.3295 252.473 76.5484C252.194 76.7672 251.977 77.0534 251.84 77.3799C250.84 79.4499 252.69 82.1899 254.21 82.6699C256.84 83.4899 257.21 81.8099 257.21 81.8099L257.4 91.5599C260.67 95.7499 269.72 95.3899 265.95 91.0199V88.1399C267.12 88.3264 268.307 88.3867 269.49 88.3199C271.42 88.0299 272.63 86.4999 273.22 84.4099C274.16 81.0599 274.51 78.3499 273.72 71.7499C272.84 64.5199 264.43 64.4499 259.89 67.2999C255.35 70.1499 257.09 78.0699 257.09 78.0699Z" fill="#B16668"/>
<path d="M257.09 78.8799C256.85 78.8799 255.93 77.3599 255.33 76.8199C254.5 76.0599 255.57 69.2299 255.57 69.2299C255.352 68.6396 255.311 67.9982 255.453 67.385C255.595 66.7719 255.914 66.2138 256.37 65.7799C257.5 64.5299 258.74 63.7799 262.01 63.5699C263.93 63.4699 267.01 63.7699 268.72 63.8799C271.95 64.0999 273.14 63.3099 275 62.7799C276.42 62.3899 276.58 67.5099 273 69.2099C271.678 69.8701 270.235 70.2546 268.76 70.3399C265.921 70.551 263.069 70.4974 260.24 70.1799C259.35 70.0599 259.16 70.9199 258.68 73.2799C258.25 75.3499 257.9 78.8599 257.09 78.8799Z" fill="#263238"/>
<path d="M255.57 69.7699L252.67 68.2099C252.762 68.0138 252.894 67.8386 253.056 67.6947C253.218 67.5509 253.408 67.4416 253.613 67.3733C253.819 67.305 254.037 67.2793 254.253 67.2976C254.469 67.3159 254.679 67.378 254.87 67.4799C255.259 67.6977 255.55 68.0575 255.68 68.4842C255.811 68.911 255.771 69.3716 255.57 69.7699Z" fill="#263238"/>
<path d="M266 88.1399C264.016 87.7622 262.071 87.2032 260.19 86.4699C259.301 86.0133 258.575 85.294 258.11 84.4099C258.335 85.2911 258.737 86.1177 259.29 86.8399C260.39 88.2499 266 89.2899 266 89.2899V88.1399Z" fill="#9A4A4D"/>
<path d="M265.75 77C265.75 77.232 265.658 77.4546 265.493 77.6187C265.329 77.7828 265.107 77.875 264.875 77.875C264.643 77.875 264.42 77.7828 264.256 77.6187C264.092 77.4546 264 77.232 264 77C263.997 76.8841 264.018 76.7688 264.06 76.6609C264.103 76.553 264.166 76.4548 264.247 76.3718C264.328 76.2889 264.425 76.223 264.532 76.1781C264.639 76.1331 264.754 76.11 264.87 76.11C264.986 76.11 265.101 76.1331 265.209 76.1779C265.316 76.2228 265.414 76.2885 265.496 76.3713C265.577 76.454 265.642 76.5522 265.686 76.6601C265.729 76.7681 265.751 76.8836 265.75 77V77Z" fill="#263238"/>
<path d="M264.83 73.74L262.99 74.74C262.859 74.4866 262.831 74.1926 262.911 73.9189C262.991 73.6452 263.173 73.4129 263.42 73.27C263.542 73.2008 263.677 73.1581 263.816 73.1445C263.956 73.1309 264.097 73.1468 264.23 73.1911C264.363 73.2354 264.485 73.3072 264.588 73.4017C264.692 73.4963 264.774 73.6115 264.83 73.74Z" fill="#263238"/>
<path d="M265.57 83L267.57 83.74C267.531 83.8751 267.464 84.0005 267.374 84.108C267.284 84.2156 267.171 84.3029 267.045 84.3642C266.919 84.4255 266.781 84.4595 266.64 84.464C266.5 84.4684 266.36 84.4432 266.23 84.39C265.962 84.2885 265.743 84.0871 265.62 83.8279C265.497 83.5688 265.479 83.2721 265.57 83Z" fill="#9A4A4D"/>
<path d="M273.2 74.45L271.51 73.16C271.586 73.0423 271.687 72.9421 271.804 72.8658C271.922 72.7895 272.055 72.7389 272.193 72.7172C272.332 72.6955 272.474 72.7033 272.609 72.7399C272.745 72.7766 272.871 72.8413 272.98 72.93C273.203 73.1076 273.35 73.3638 273.391 73.6463C273.432 73.9288 273.364 74.2163 273.2 74.45V74.45Z" fill="#263238"/>
<path d="M272.68 76.7499C272.674 76.921 272.618 77.0865 272.518 77.2258C272.419 77.3651 272.28 77.4719 272.12 77.5328C271.96 77.5938 271.786 77.6062 271.619 77.5685C271.452 77.5308 271.3 77.4447 271.181 77.3209C271.063 77.1971 270.984 77.0412 270.954 76.8727C270.924 76.7042 270.944 76.5305 271.012 76.3735C271.081 76.2164 271.194 76.083 271.337 75.9899C271.481 75.8967 271.649 75.848 271.82 75.8499C271.935 75.8525 272.049 75.8778 272.155 75.9245C272.261 75.9711 272.357 76.0382 272.436 76.1217C272.516 76.2053 272.579 76.3038 272.621 76.4116C272.662 76.5194 272.683 76.6343 272.68 76.7499V76.7499Z" fill="#263238"/>
<path d="M268.28 75.9299L268.56 81.1199L271.27 80.1999L268.28 75.9299Z" fill="#9A4A4D"/>
<path d="M255.22 101.57C255.33 98.83 255.43 95.07 253.82 93.57C250.38 91.85 247.22 96.4 246.07 102.1C245.12 106.81 243.33 116.33 244.84 122.71C245.593 124.779 246.58 126.755 247.78 128.6C250.259 128.368 252.685 127.747 254.97 126.76C253.912 124.946 253.111 122.994 252.59 120.96C252.17 116.54 255.09 104.9 255.22 101.57Z" fill="#B16668"/>
<path d="M255.39 92.1999C253.75 92.0799 249.46 92.1999 247.22 96.3599C245.22 100.05 243.49 107.94 243.54 112.65C243.54 112.65 249.43 114.57 253.97 114.12C254.97 108.81 255.72 105.9 256.33 101.22C256.94 96.5399 256.32 93.4399 255.39 92.1999Z" fill="#43BA8F"/>
<path d="M140 351.44C139.439 351.439 138.893 351.254 138.448 350.912C138.003 350.569 137.683 350.09 137.538 349.547C137.394 349.005 137.432 348.43 137.647 347.911C137.863 347.393 138.243 346.96 138.73 346.68L207.78 307.07C208.071 306.891 208.394 306.773 208.731 306.722C209.069 306.671 209.413 306.688 209.743 306.772C210.074 306.856 210.384 307.006 210.656 307.212C210.928 307.418 211.155 307.677 211.325 307.972C211.495 308.268 211.604 308.595 211.645 308.934C211.687 309.272 211.66 309.616 211.566 309.944C211.472 310.272 211.314 310.578 211.1 310.843C210.886 311.109 210.621 311.329 210.32 311.49L141.32 351.1C140.919 351.331 140.463 351.448 140 351.44V351.44Z" fill="#E0E0E0"/>
<path d="M134.84 182C134.323 182.002 133.817 181.846 133.391 181.554C132.964 181.262 132.636 180.847 132.45 180.365C132.265 179.882 132.231 179.354 132.352 178.851C132.473 178.349 132.745 177.895 133.13 177.55L218 101.27C218.247 101.036 218.539 100.853 218.857 100.733C219.176 100.614 219.515 100.559 219.856 100.572C220.196 100.586 220.53 100.667 220.838 100.812C221.146 100.957 221.423 101.162 221.65 101.415C221.878 101.668 222.053 101.964 222.164 102.286C222.276 102.607 222.322 102.948 222.299 103.288C222.277 103.628 222.187 103.96 222.034 104.264C221.881 104.568 221.669 104.839 221.41 105.06L136.57 181.32C136.102 181.76 135.482 182.003 134.84 182V182Z" fill="#E0E0E0"/>
<path d="M208.14 249.34C207.818 249.343 207.498 249.282 207.2 249.16L129.66 218.5C129.335 218.387 129.036 218.21 128.782 217.979C128.527 217.748 128.322 217.468 128.179 217.155C128.035 216.843 127.956 216.504 127.947 216.161C127.937 215.817 127.998 215.475 128.124 215.155C128.25 214.835 128.439 214.544 128.681 214.299C128.923 214.055 129.211 213.861 129.529 213.731C129.848 213.601 130.189 213.536 130.533 213.541C130.876 213.546 131.216 213.62 131.53 213.76L209.08 244.42C209.631 244.639 210.089 245.043 210.374 245.563C210.66 246.083 210.755 246.686 210.644 247.268C210.532 247.851 210.221 248.377 209.765 248.755C209.308 249.133 208.733 249.34 208.14 249.34V249.34Z" fill="#E0E0E0"/>
<path d="M132.15 312.7L123.15 307.52L123.01 307.43C116.3 303.64 107.09 304.2 96.89 310.09C87.35 315.59 78.65 324.76 72.09 335.38C64.5 347.61 59.73 361.77 59.73 374.46C59.73 386.3 63.87 394.61 70.58 398.46L79.73 403.69C86.5 408 96.06 407.62 106.67 401.5C127.2 389.65 143.84 360.82 143.84 337.12C143.89 324.87 139.37 316.36 132.15 312.7Z" fill="#37474F"/>
<path d="M79.5198 403.63L70.6198 398.55C63.9198 394.67 59.7798 386.35 59.7798 374.55C59.7798 361.86 64.5498 347.71 72.1398 335.48L81.9298 341.15C74.3398 353.37 69.5898 367.51 69.5898 380.15C69.5498 391.44 73.3298 399.53 79.5198 403.63Z" fill="#263238"/>
<path d="M131.88 312.55C125.26 309.34 116.42 310.15 106.72 315.75C97.1701 321.27 88.4601 330.46 81.8901 341.09L72.1001 335.42C78.6601 324.79 87.3701 315.62 96.9001 310.12C107.1 304.23 116.31 303.67 123.03 307.46L123.17 307.55L131.88 312.55Z" fill="#455A64"/>
<path d="M91.6601 398C89.191 398.044 86.7611 397.378 84.6601 396.08L84.5401 396L84.3501 395.89C79.8401 392.8 77.3501 386.55 77.3501 378.25C77.3501 367.92 81.2301 355.75 87.9801 344.85C93.8501 335.37 101.37 327.67 109.16 323.16C113.74 320.52 118.16 319.16 122.09 319.16C124.073 319.134 126.036 319.547 127.84 320.37L128.12 320.52C133.37 323.18 136.38 329.89 136.38 338.92C136.38 359.16 122.11 383.87 104.57 393.99C100 396.59 95.5401 398 91.6601 398Z" fill="#FAFAFA"/>
<path d="M121.91 362.43C119.19 358.83 113.3 359.56 113.3 359.56C113.958 361.179 114.476 362.852 114.85 364.56C115.94 370.04 116.78 382.72 116.78 382.72C117.002 382.921 117.24 383.105 117.49 383.27C120.467 380 123.145 376.469 125.49 372.72C124.88 367.86 123.73 364.84 121.91 362.43Z" fill="#455A64"/>
<path d="M105.35 341C105.33 342.087 105.543 343.165 105.973 344.164C106.403 345.162 107.041 346.057 107.845 346.79C108.648 347.522 109.598 348.075 110.632 348.411C111.666 348.747 112.759 348.859 113.84 348.74C116.139 348.506 118.272 347.437 119.837 345.736C121.401 344.035 122.288 341.82 122.33 339.51C122.349 338.423 122.137 337.344 121.706 336.345C121.276 335.346 120.638 334.45 119.835 333.717C119.032 332.984 118.082 332.43 117.048 332.093C116.015 331.755 114.921 331.642 113.84 331.76C111.54 331.997 109.407 333.067 107.842 334.77C106.278 336.472 105.391 338.688 105.35 341V341Z" fill="#263238"/>
<path d="M121.5 378.53C121.38 374.3 121.21 370.8 121.01 369.43C119.82 361.54 116.01 359.02 112.14 359.65L102.91 361.78L99.6502 362.64C98.3599 362.99 97.1894 363.686 96.2644 364.651C95.3395 365.617 94.695 366.816 94.4002 368.12C94.0712 369.628 93.9069 371.167 93.9102 372.71V397.83C97.6807 397.266 101.303 395.965 104.57 394C111.162 389.989 116.912 384.735 121.5 378.53V378.53Z" fill="#43BA8F"/>
<path d="M99.1699 347.53C99.1699 347.53 100.54 353.87 101.1 354.89C101.283 355.197 101.528 355.463 101.819 355.671C102.11 355.879 102.44 356.025 102.79 356.1L102.69 351.57L99.1699 347.53Z" fill="#263238"/>
<path d="M100.89 338.12C100.394 338.112 99.9018 338.211 99.4477 338.411C98.9937 338.611 98.5885 338.908 98.2601 339.28C97.1301 340.54 97.7601 344.11 99.1701 347.53L101.76 347.6L100.89 338.12Z" fill="#263238"/>
<path d="M102.54 347.54C102.02 347.89 101.28 346.96 100.63 346.35C100.348 346.085 100.004 345.895 99.6303 345.798C99.2562 345.7 98.8635 345.698 98.4883 345.791C98.1131 345.885 97.7674 346.071 97.4829 346.333C97.1984 346.595 96.9841 346.924 96.8598 347.29C95.7998 349.62 97.7798 352.41 99.4298 352.78C102.26 353.42 102.69 351.57 102.69 351.57L102.91 361.78C103.536 363.1 104.507 364.226 105.719 365.041C106.932 365.855 108.341 366.328 109.8 366.41C114.8 366.65 113.8 362.59 112.14 360.71V357.59C113.418 357.684 114.702 357.637 115.97 357.45C118.06 356.95 119.37 355.19 119.97 352.87C120.97 349.15 121.37 346.19 120.51 339.13C119.57 331.39 110.51 332.13 105.51 335.63C100.51 339.13 102.54 347.54 102.54 347.54Z" fill="#FFA8A7"/>
<path d="M102.54 348.41C102.27 348.41 101.28 346.88 100.63 346.35C99.7398 345.61 100.89 338.12 100.89 338.12C100.655 337.468 100.612 336.763 100.767 336.087C100.921 335.412 101.265 334.795 101.76 334.31C102.99 332.85 105.04 332.52 108.54 331.67C110.38 331.22 113.17 330.46 115 329.96C117.19 329.36 119 328.77 120.55 329.96C121.165 330.458 121.603 331.143 121.798 331.91C121.993 332.678 121.934 333.488 121.63 334.22C121.473 334.582 121.264 334.919 121.01 335.22C120.59 335.752 120.048 336.174 119.43 336.45C119.43 336.45 118.43 337.38 115.15 338.07C112.107 338.572 109.023 338.783 105.94 338.7C104.94 338.7 104.77 339.61 104.25 342.21C103.79 344.49 103.41 348.32 102.54 348.41Z" fill="#263238"/>
<path d="M100.9 338.7L97.7598 337.29C97.9479 336.846 98.302 336.493 98.7465 336.306C99.1911 336.12 99.691 336.114 100.14 336.29C100.35 336.397 100.536 336.544 100.688 336.724C100.84 336.903 100.955 337.111 101.026 337.336C101.096 337.56 101.122 337.796 101.1 338.03C101.079 338.265 101.01 338.492 100.9 338.7Z" fill="#263238"/>
<path d="M112.13 357.59C110.002 357.374 107.899 356.955 105.85 356.34C104.9 355.935 104.107 355.234 103.59 354.34C103.835 355.258 104.271 356.113 104.87 356.85C106.06 358.27 112.13 358.85 112.13 358.85V357.59Z" fill="#F28F8F"/>
<path d="M111 345.63C111.002 345.889 110.908 346.139 110.736 346.333C110.564 346.527 110.327 346.65 110.07 346.68C109.949 346.69 109.827 346.674 109.712 346.633C109.597 346.593 109.493 346.528 109.405 346.444C109.317 346.36 109.248 346.258 109.202 346.145C109.157 346.033 109.135 345.911 109.14 345.79C109.126 345.528 109.216 345.271 109.39 345.075C109.564 344.878 109.808 344.758 110.07 344.74C110.191 344.731 110.312 344.748 110.426 344.79C110.54 344.831 110.644 344.895 110.732 344.979C110.819 345.063 110.888 345.164 110.935 345.276C110.981 345.388 111.003 345.509 111 345.63Z" fill="#263238"/>
<path d="M110 342.19L108 343.47C107.86 343.19 107.83 342.868 107.915 342.566C108 342.265 108.194 342.006 108.46 341.84C108.581 341.752 108.719 341.691 108.866 341.661C109.012 341.631 109.163 341.633 109.309 341.666C109.455 341.699 109.592 341.763 109.711 341.853C109.83 341.944 109.929 342.059 110 342.19V342.19Z" fill="#263238"/>
<path d="M111.71 352L113.84 352.61C113.749 352.907 113.549 353.159 113.28 353.315C113.011 353.471 112.693 353.519 112.39 353.45C112.248 353.402 112.118 353.326 112.006 353.226C111.895 353.127 111.804 353.005 111.741 352.87C111.677 352.735 111.642 352.588 111.636 352.438C111.631 352.289 111.656 352.14 111.71 352Z" fill="#F28F8F"/>
<path d="M119.34 342.15L117.52 340.91C117.679 340.65 117.935 340.464 118.231 340.393C118.528 340.322 118.84 340.371 119.1 340.53C119.344 340.715 119.506 340.988 119.551 341.291C119.596 341.594 119.52 341.902 119.34 342.15Z" fill="#263238"/>
<path d="M118.78 344.69C118.769 344.942 118.668 345.181 118.496 345.365C118.323 345.548 118.09 345.664 117.84 345.69C117.718 345.702 117.596 345.687 117.48 345.647C117.365 345.607 117.259 345.542 117.171 345.458C117.083 345.373 117.014 345.271 116.969 345.157C116.924 345.044 116.904 344.922 116.91 344.8C116.924 344.551 117.025 344.315 117.195 344.132C117.364 343.95 117.593 343.832 117.84 343.8C117.962 343.79 118.084 343.806 118.199 343.847C118.314 343.887 118.42 343.951 118.508 344.035C118.597 344.119 118.667 344.221 118.714 344.334C118.761 344.447 118.783 344.568 118.78 344.69Z" fill="#263238"/>
<path d="M114.02 344.22L114.33 349.8L117.26 348.55L114.02 344.22Z" fill="#F28F8F"/>
<path d="M96.7198 379.59C100.13 376.95 103.72 365.04 98.5798 363.03C93.6998 364.03 90.1498 370.68 84.8398 390.82C84.5183 392.491 84.3509 394.188 84.3398 395.89L84.5098 395.99L84.6298 396.07C86.7309 397.368 89.1607 398.034 91.6298 397.99H92.0998C92.1513 396.981 92.2817 395.978 92.4898 394.99L96.7198 379.59Z" fill="#FFA8A7"/>
<path d="M99.65 362.64C100.326 363.187 100.868 363.881 101.233 364.67C101.599 365.459 101.779 366.321 101.76 367.19C101.9 370.46 100.36 375.32 99.43 378.36C98.5 381.4 96.56 386.93 96.56 386.93C96.56 386.93 88.56 386.71 86.71 382.16C86.71 382.16 90.47 369.68 94.09 365.41C94.7578 364.57 95.6018 363.886 96.5625 363.408C97.5231 362.929 98.577 362.667 99.65 362.64V362.64Z" fill="#455A64"/>
<path d="M101.82 313.42C101.143 313.417 100.494 313.146 100.016 312.667C99.5384 312.187 99.27 311.537 99.27 310.86V237.06C99.27 236.384 99.5387 235.735 100.017 235.257C100.495 234.779 101.144 234.51 101.82 234.51C102.496 234.51 103.145 234.779 103.623 235.257C104.101 235.735 104.37 236.384 104.37 237.06V310.86C104.37 311.537 104.102 312.187 103.624 312.667C103.146 313.146 102.497 313.417 101.82 313.42V313.42Z" fill="#E0E0E0"/>
<path d="M132.91 166.58L125.29 162.17L125.17 162.1C119.45 158.88 111.62 159.35 102.94 164.36C94.8301 169.04 87.4201 176.85 81.8401 185.89C75.3901 196.29 71.3301 208.34 71.3301 219.13C71.3301 229.2 74.8501 236.27 80.5501 239.58L88.3401 244.02C94.1001 247.69 102.23 247.37 111.26 242.16C128.72 232.08 142.88 207.55 142.88 187.39C142.89 176.94 139.05 169.7 132.91 166.58Z" fill="#43BA8F"/>
<path opacity="0.1" d="M88.1199 243.94L80.5598 239.62C74.8598 236.31 71.3398 229.24 71.3398 219.17C71.3398 208.37 75.3398 196.34 81.8498 185.93L90.1798 190.75C83.7198 201.16 79.6798 213.18 79.6798 223.97C79.6398 233.57 82.8598 240.46 88.1199 243.94Z" fill="black"/>
<path opacity="0.4" d="M132.67 166.45C127.04 163.72 119.52 164.45 111.27 169.17C103.02 173.89 95.7301 181.69 90.1401 190.73L81.8101 185.91C87.3901 176.91 94.8101 169.07 102.91 164.39C111.59 159.39 119.43 158.9 125.14 162.12L125.26 162.19L132.67 166.45Z" fill="white"/>
<path d="M98.4498 239.15C96.3328 239.199 94.2476 238.629 92.4498 237.51L92.3498 237.45L92.1898 237.36C88.3498 234.72 86.2598 229.36 86.2598 222.36C86.2598 213.57 89.5598 203.22 95.2598 193.95C100.26 185.88 106.65 179.33 113.26 175.49C116.572 173.424 120.36 172.243 124.26 172.06C125.947 172.024 127.621 172.366 129.16 173.06L129.39 173.18C133.86 175.44 136.39 181.18 136.39 188.83C136.39 206.06 124.25 227.08 109.33 235.69C106.058 237.753 102.312 238.944 98.4498 239.15V239.15Z" fill="#FAFAFA"/>
<path d="M126.18 216.7C125.75 215.11 125.45 213.15 124.86 211.63C124.27 210.11 123 209 120 209C118.49 209.66 118.67 217.11 118.72 218.27C118.78 219.64 119.82 222.81 121.04 226.02C123.11 223.679 125.005 221.189 126.71 218.57L126.18 216.7Z" fill="#B16668"/>
<path d="M124.66 221.51C125.066 219.566 124.878 217.545 124.12 215.71C123.192 213.229 121.793 210.95 120 209C120 209 118.72 208.94 116.92 209L108.66 210L103 211C107.15 218.46 102.78 223.77 102.57 224.14L102.93 225.01L106.06 233.48C104.614 235.033 103.386 236.775 102.41 238.66C104.87 238.019 107.227 237.033 109.41 235.73C115.412 232.083 120.603 227.243 124.66 221.51V221.51Z" fill="#37474F"/>
<path d="M104.19 228.41L109.62 234.91L106.06 233.46L104.19 228.41Z" fill="#263238"/>
<path d="M102.56 224.12C105.32 221.98 107.19 212.61 102.99 210.98C97.6601 211.98 97.2401 216.91 92.9901 233.21C92.7198 234.638 92.5826 236.087 92.5801 237.54C94.3608 238.627 96.414 239.186 98.5001 239.15H98.8801C98.9204 238.302 99.0308 237.459 99.2101 236.63L102.56 224.12Z" fill="#B16668"/>
<path d="M125.7 207.3L115.45 208.2C113.726 208.388 111.982 208.206 110.334 207.668C108.685 207.129 107.17 206.246 105.89 205.077C104.609 203.908 103.592 202.479 102.905 200.887C102.219 199.294 101.88 197.574 101.91 195.84V195.84C101.969 192.602 103.213 189.499 105.406 187.116C107.599 184.734 110.588 183.237 113.81 182.91V182.91C115.324 182.745 116.855 182.904 118.302 183.377C119.749 183.85 121.08 184.625 122.204 185.651C123.329 186.677 124.222 187.931 124.825 189.329C125.428 190.727 125.726 192.238 125.7 193.76V207.3Z" fill="#263238"/>
<path d="M121.45 187.42C122.71 188.05 124.26 191.08 124.11 197.71C123.98 203.34 122.11 204.88 121.24 205.36C120.37 205.84 118.57 205.75 116.86 205.62V209C116.86 209 119.22 211.54 119.07 213.1C118.92 214.66 115.66 215.31 113.44 213.99C111.839 212.89 110.456 211.503 109.36 209.9V202.15C109.36 202.15 108.36 203.22 106.64 201.87C105.23 200.76 104.75 198.72 105.85 197.51C106.104 197.218 106.425 196.992 106.786 196.851C107.146 196.711 107.536 196.66 107.92 196.703C108.305 196.747 108.673 196.883 108.994 197.1C109.314 197.317 109.577 197.609 109.76 197.95C112.049 197.649 114.233 196.806 116.13 195.49C117.553 194.616 118.767 193.44 119.686 192.046C120.605 190.651 121.207 189.072 121.45 187.42V187.42Z" fill="#B16668"/>
<path d="M117.84 196.85C117.848 197.046 117.784 197.238 117.661 197.391C117.538 197.544 117.363 197.646 117.17 197.68C117.079 197.691 116.986 197.683 116.898 197.656C116.81 197.629 116.728 197.584 116.658 197.524C116.589 197.464 116.532 197.39 116.493 197.306C116.454 197.223 116.432 197.132 116.43 197.04C116.421 196.845 116.484 196.653 116.607 196.501C116.731 196.35 116.907 196.249 117.1 196.22C117.191 196.206 117.285 196.211 117.373 196.236C117.462 196.261 117.545 196.305 117.615 196.365C117.685 196.425 117.742 196.499 117.781 196.583C117.82 196.667 117.84 196.758 117.84 196.85V196.85Z" fill="#263238"/>
<g style="mix-blend-mode:multiply" opacity="0.5">
<g style="mix-blend-mode:multiply" opacity="0.5">
<path d="M118 201.59L119.64 201.97C119.581 202.198 119.437 202.394 119.239 202.521C119.04 202.647 118.801 202.693 118.57 202.65C118.461 202.622 118.358 202.571 118.269 202.501C118.18 202.431 118.107 202.344 118.053 202.245C118 202.145 117.967 202.035 117.958 201.923C117.949 201.81 117.963 201.697 118 201.59Z" fill="#9A4A4D"/>
</g>
</g>
<path d="M123.63 194.18L122.2 193.31C122.252 193.206 122.325 193.113 122.414 193.039C122.503 192.964 122.607 192.909 122.719 192.877C122.831 192.844 122.948 192.836 123.063 192.851C123.179 192.866 123.29 192.906 123.389 192.966C123.488 193.026 123.574 193.107 123.641 193.202C123.708 193.298 123.754 193.406 123.776 193.52C123.799 193.634 123.798 193.752 123.773 193.865C123.747 193.979 123.699 194.086 123.63 194.18Z" fill="#263238"/>
<path d="M123.3 195.86C123.31 196.056 123.247 196.25 123.124 196.403C123 196.556 122.824 196.658 122.63 196.69C122.538 196.703 122.445 196.696 122.356 196.67C122.267 196.643 122.185 196.598 122.115 196.538C122.045 196.477 121.989 196.402 121.95 196.318C121.911 196.234 121.891 196.143 121.89 196.05C121.88 195.855 121.944 195.663 122.067 195.511C122.191 195.36 122.367 195.259 122.56 195.23C122.651 195.217 122.744 195.224 122.832 195.25C122.92 195.275 123.002 195.319 123.072 195.379C123.142 195.438 123.198 195.512 123.237 195.595C123.277 195.678 123.298 195.768 123.3 195.86Z" fill="#263238"/>
<g style="mix-blend-mode:multiply" opacity="0.5">
<g style="mix-blend-mode:multiply" opacity="0.5">
<path d="M119.97 195.75L120.08 199.99L122.32 199.1L119.97 195.75Z" fill="#9A4A4D"/>
</g>
</g>
<g style="mix-blend-mode:multiply" opacity="0.5">
<g style="mix-blend-mode:multiply" opacity="0.5">
<path d="M116.86 205.62C115.05 205.54 111.34 204.8 110.76 203.38C110.984 204.096 111.442 204.715 112.06 205.14C113.17 205.99 116.86 206.74 116.86 206.74V205.62Z" fill="#9A4A4D"/>
</g>
</g>
<path d="M103.8 189.76L101.05 188.52C101.214 188.132 101.523 187.823 101.912 187.66C102.301 187.497 102.738 187.494 103.13 187.65C103.315 187.742 103.479 187.87 103.614 188.027C103.748 188.184 103.85 188.366 103.912 188.563C103.975 188.76 103.997 188.967 103.978 189.173C103.958 189.379 103.898 189.578 103.8 189.76Z" fill="#263238"/>
</svg>
