<svg width="500" height="500" viewBox="0 0 500 500" fill="none" xmlns="http://www.w3.org/2000/svg">
<path d="M250 467.97C372.861 467.97 472.46 410.465 472.46 339.53C472.46 268.594 372.861 211.09 250 211.09C127.139 211.09 27.54 268.594 27.54 339.53C27.54 410.465 127.139 467.97 250 467.97Z" fill="#F5F5F5"/>
<path d="M64.6095 386.28L79.4295 394.78C80.2034 395.176 81.0603 395.382 81.9295 395.382C82.7988 395.382 83.6556 395.176 84.4295 394.78L201.29 327.28C202.66 326.49 202.66 325.21 201.29 324.43L186.29 316C185.514 315.608 184.658 315.404 183.79 315.404C182.921 315.404 182.065 315.608 181.29 316L64.6095 383.42C63.2395 384.21 63.2395 385.49 64.6095 386.28Z" fill="#E0E0E0"/>
<path d="M434.089 386.28L419.269 394.78C418.495 395.174 417.638 395.38 416.769 395.38C415.901 395.38 415.044 395.174 414.269 394.78L297.409 327.28C296.039 326.49 296.049 325.21 297.409 324.43L312.409 316C313.185 315.608 314.041 315.404 314.909 315.404C315.778 315.404 316.634 315.608 317.409 316L434.089 383.4C435.459 384.21 435.459 385.49 434.089 386.28Z" fill="#E0E0E0"/>
<path d="M422.369 344.24C422.369 344.24 423.089 329.09 429.809 316.92C436.529 304.75 446.319 296.8 455.859 295.41C465.399 294.02 473.729 302.33 463.859 309.07C453.989 315.81 436.169 323.18 429.279 346.4L422.369 344.24Z" fill="#43BA8F"/>
<g opacity="0.2">
<path opacity="0.2" d="M422.369 344.24C422.369 344.24 423.089 329.09 429.809 316.92C436.529 304.75 446.319 296.8 455.859 295.41C465.399 294.02 473.729 302.33 463.859 309.07C453.989 315.81 436.169 323.18 429.279 346.4L422.369 344.24Z" fill="black"/>
</g>
<path d="M424.93 340.15H424.82C424.756 340.129 424.697 340.095 424.646 340.051C424.595 340.006 424.554 339.952 424.524 339.892C424.494 339.831 424.477 339.766 424.473 339.698C424.468 339.631 424.478 339.564 424.5 339.5C432.98 313.91 451.56 302.24 460.2 299.64C460.332 299.6 460.475 299.615 460.597 299.681C460.719 299.746 460.81 299.858 460.85 299.99C460.889 300.123 460.875 300.266 460.809 300.388C460.744 300.51 460.632 300.6 460.5 300.64C452.03 303.19 433.82 314.64 425.5 339.85C425.451 339.956 425.368 340.042 425.265 340.097C425.162 340.151 425.044 340.17 424.93 340.15Z" fill="white"/>
<path d="M477.449 339.65C476.669 341.79 474.449 343.03 472.449 344.02C470.449 345.01 468.159 346.07 467.139 348.11C465.139 352.24 469.249 357.58 467.039 361.61C466.512 362.423 465.825 363.12 465.021 363.66C464.216 364.2 463.311 364.571 462.359 364.75C460.789 365.077 459.204 365.324 457.609 365.49C456.849 365.535 456.088 365.535 455.329 365.49C453.119 365.31 450.729 365.37 448.799 366.62C445.799 368.62 445.049 372.62 443.329 375.86C442.264 377.754 440.8 379.394 439.039 380.667C437.278 381.939 435.261 382.814 433.129 383.23C431.719 383.51 429.129 383.94 427.599 383.23C427.49 383.184 427.386 383.127 427.289 383.06C427.079 382.85 426.809 382.58 426.689 382.43C426.569 382.28 426.689 382.37 426.629 382.34C425.929 380.34 426.709 378.11 426.629 375.98C426.629 375.84 426.629 375.72 426.629 375.59C426.369 373.12 426.139 370.67 425.919 368.2C425.505 363.667 425.172 359.123 424.919 354.57C424.759 351.62 424.189 348.41 425.249 345.57C426.439 342.42 429.869 342.13 430.979 339.04C431.419 337.81 431.609 336.51 432.029 335.27C432.693 333.445 433.847 331.838 435.364 330.624C436.881 329.411 438.702 328.638 440.629 328.39C446.629 327.69 452.319 332.19 458.289 331.39C459.839 331.16 461.289 330.59 462.829 330.21C467.639 328.98 473.349 329.99 476.359 333.93C476.986 334.726 477.413 335.661 477.603 336.657C477.793 337.653 477.74 338.679 477.449 339.65Z" fill="#43BA8F"/>
<path d="M425.449 372.87H425.399C425.267 372.844 425.15 372.766 425.075 372.653C425 372.541 424.973 372.403 424.999 372.27C431.249 340.59 463.759 333.93 471.469 333.98C471.605 333.985 471.733 334.042 471.828 334.139C471.922 334.235 471.977 334.365 471.979 334.5C471.979 334.568 471.966 334.635 471.939 334.698C471.913 334.76 471.875 334.817 471.826 334.864C471.778 334.912 471.72 334.949 471.657 334.974C471.594 334.999 471.527 335.012 471.459 335.01C463.919 334.96 432.119 341.47 426.009 372.47C425.983 372.595 425.91 372.705 425.807 372.779C425.703 372.853 425.576 372.886 425.449 372.87Z" fill="white"/>
<path d="M460.849 354.7C460.745 354.685 460.648 354.639 460.569 354.57C457.368 352.144 453.671 350.454 449.742 349.621C445.813 348.788 441.749 348.832 437.839 349.75C437.773 349.765 437.705 349.766 437.639 349.754C437.573 349.742 437.51 349.718 437.453 349.682C437.396 349.645 437.347 349.598 437.309 349.543C437.27 349.488 437.243 349.426 437.229 349.36C437.214 349.295 437.213 349.227 437.225 349.161C437.236 349.094 437.261 349.031 437.297 348.974C437.334 348.918 437.381 348.869 437.436 348.83C437.491 348.792 437.553 348.765 437.619 348.75C441.688 347.801 445.917 347.762 450.003 348.634C454.089 349.507 457.933 351.271 461.259 353.8C461.34 353.874 461.395 353.972 461.417 354.08C461.439 354.187 461.426 354.299 461.381 354.399C461.335 354.499 461.259 354.582 461.164 354.636C461.068 354.69 460.958 354.713 460.849 354.7Z" fill="white"/>
<path d="M74.9098 340.86C74.3766 334.34 72.8734 327.936 70.4498 321.86C66.4498 312.08 58.8698 302.22 50.0998 300.36C41.3298 298.5 37.5998 304.41 39.4498 310.21C41.0498 315.21 47.5698 319.35 52.5198 323.71C57.4698 328.07 66.7198 338.6 69.2898 348.78L74.2398 349.32L74.9098 340.86Z" fill="#43BA8F"/>
<g opacity="0.15">
<path opacity="0.15" d="M74.9098 340.86C74.3766 334.34 72.8734 327.936 70.4498 321.86C66.4498 312.08 58.8698 302.22 50.0998 300.36C41.3298 298.5 37.5998 304.41 39.4498 310.21C41.0498 315.21 47.5698 319.35 52.5198 323.71C57.4698 328.07 66.7198 338.6 69.2898 348.78L74.2398 349.32L74.9098 340.86Z" fill="black"/>
</g>
<path d="M71.5297 345.45C71.388 345.448 71.2524 345.392 71.1503 345.294C71.0482 345.195 70.9873 345.062 70.9797 344.92C70.0597 319.33 45.0397 305.03 44.7797 304.92C44.6471 304.849 44.5484 304.727 44.5052 304.583C44.4621 304.439 44.4781 304.283 44.5497 304.15C44.6213 304.018 44.7427 303.919 44.8871 303.876C45.0315 303.833 45.1871 303.849 45.3197 303.92C45.5797 304.07 71.1397 318.68 72.0897 344.92C72.0924 345.067 72.0373 345.209 71.9363 345.316C71.8353 345.422 71.6965 345.485 71.5497 345.49L71.5297 345.45Z" fill="white"/>
<path d="M71.8196 380.42C71.8196 380.42 66.6996 383.65 58.7096 382.28C56.127 381.942 53.7182 380.794 51.8296 379C49.7696 376.87 49.4396 374.73 48.8296 371.88C48.6713 370.691 48.2623 369.549 47.6296 368.53C45.9096 366.17 42.4896 366.21 39.6296 365.6C35.6296 364.73 31.8696 361.82 30.6996 357.86C29.5296 353.9 31.4296 349.06 35.2596 347.5L30.5596 344.5C29.1048 343.646 27.7613 342.614 26.5596 341.43C25.3546 340.22 24.6418 338.606 24.5596 336.9C24.6355 335.65 25.0635 334.446 25.7943 333.429C26.5251 332.411 27.5289 331.621 28.6896 331.15C31.0328 330.251 33.5732 329.992 36.0496 330.4C38.5535 330.699 41.0158 331.279 43.3896 332.13C44.037 332.424 44.7385 332.581 45.4496 332.59C46.3916 332.431 47.2729 332.02 47.9996 331.4C53.3796 327.85 62.1396 328.12 64.9996 334.81C65.4296 335.81 65.6796 336.81 66.1296 337.81C67.8096 341.41 72.5096 340.33 75.5396 342.01C76.4988 342.611 77.3135 343.417 77.9255 344.369C78.5374 345.322 78.9315 346.398 79.0796 347.52C79.6796 351.09 78.6896 355.15 78.0796 358.68C77.4696 362.21 76.5896 365.48 75.6296 368.82C74.8496 371.58 73.9896 374.31 73.0696 377.02C72.8096 377.63 72.3796 380.06 71.8196 380.42Z" fill="#43BA8F"/>
<path d="M75 372.17C72.3142 364.794 67.9091 358.164 62.1501 352.83C62.0907 352.704 61.9876 352.605 61.8601 352.55C60.2004 350.991 58.4614 349.519 56.6501 348.14C55.9709 343.399 56.5823 338.563 58.42 334.14C58.4509 334.074 58.4685 334.003 58.4719 333.931C58.4753 333.858 58.4644 333.786 58.4398 333.718C58.4152 333.649 58.3774 333.587 58.3285 333.533C58.2796 333.479 58.2207 333.436 58.155 333.405C58.0894 333.374 58.0183 333.357 57.9458 333.353C57.8733 333.35 57.8009 333.361 57.7327 333.385C57.6644 333.41 57.6017 333.448 57.548 333.497C57.4944 333.545 57.4509 333.604 57.42 333.67C55.6153 337.944 54.9271 342.607 55.42 347.22C48.0538 341.911 39.8832 337.819 31.22 335.1C31.1504 335.08 31.0776 335.075 31.0059 335.084C30.9342 335.093 30.865 335.117 30.8025 335.153C30.74 335.19 30.6855 335.238 30.6421 335.296C30.5988 335.354 30.5674 335.42 30.55 335.49C30.5304 335.559 30.5246 335.631 30.5331 335.702C30.5416 335.774 30.5642 335.842 30.5996 335.905C30.635 335.967 30.6824 336.022 30.7391 336.066C30.7959 336.109 30.8608 336.142 30.93 336.16C31.16 336.23 46.7701 340.65 59.6501 352.01C51.7501 350.62 42.3101 354.44 41.8801 354.62C41.7613 354.668 41.6631 354.756 41.6021 354.868C41.5412 354.981 41.5215 355.111 41.5464 355.237C41.5713 355.363 41.6392 355.475 41.7384 355.556C41.8377 355.637 41.962 355.681 42.09 355.68C42.1593 355.694 42.2308 355.694 42.3 355.68C42.41 355.63 53.49 351.15 61.3 353.58C66.9745 358.813 71.3153 365.328 73.96 372.58C73.9987 372.687 74.0693 372.78 74.1622 372.846C74.2551 372.912 74.366 372.949 74.4801 372.95H74.6601C74.7374 372.926 74.8086 372.886 74.869 372.832C74.9293 372.779 74.9773 372.712 75.0096 372.638C75.0419 372.564 75.0578 372.484 75.0561 372.403C75.0545 372.322 75.0353 372.243 75 372.17Z" fill="white"/>
<path d="M57.2799 181.15C55.9047 182.711 54.1264 183.863 52.1399 184.48L51.9299 184.53H51.7699L51.4199 184.59H51.0199H50.7599C50.7205 184.6 50.6792 184.6 50.6399 184.59C49.8422 184.593 49.0618 184.358 48.3989 183.914C47.7361 183.471 47.221 182.839 46.9199 182.1C46.6326 181.443 46.4504 180.744 46.3799 180.03C46.6899 179.89 46.9999 179.72 47.3199 179.54C49.6268 178.036 51.5463 176.008 52.9224 173.623C54.2986 171.237 55.0926 168.56 55.2399 165.81C55.2399 165.43 55.2399 165.07 55.2399 164.74C56.1135 164.324 57.0725 164.118 58.0399 164.14H58.2099H58.3499C58.3994 164.13 58.4504 164.13 58.4999 164.14C59.1863 164.244 59.834 164.524 60.3793 164.953C60.9245 165.383 61.3486 165.947 61.6099 166.59C63.2399 170.42 61.3199 176.89 57.2799 181.15Z" fill="#43BA8F"/>
<path d="M71.9304 169.13C71.8523 169.092 71.7671 169.072 71.6804 169.07L68.3004 168.88C68.2265 168.883 68.1528 168.87 68.0838 168.844C68.0147 168.818 67.9517 168.777 67.8985 168.726C67.8453 168.675 67.803 168.613 67.7741 168.545C67.7452 168.477 67.7304 168.404 67.7304 168.33C67.7804 167.79 67.8004 167.26 67.8104 166.75C67.8146 166.189 67.7879 165.628 67.7304 165.07C67.741 164.703 67.8749 164.351 68.1104 164.07L71.8804 159.49C71.9952 159.366 72.0765 159.214 72.1167 159.05C72.1569 158.885 72.1548 158.713 72.1104 158.55L70.3204 154.55C70.2975 154.499 70.259 154.457 70.2104 154.43C70.1071 154.395 69.9955 154.394 69.8914 154.427C69.7873 154.459 69.696 154.523 69.6304 154.61L65.6304 158.29C65.523 158.412 65.3771 158.493 65.2169 158.521C65.0568 158.548 64.8921 158.519 64.7504 158.44C64.232 158.02 63.6518 157.683 63.0304 157.44C62.8917 157.389 62.7751 157.291 62.7003 157.163C62.6256 157.036 62.5973 156.886 62.6204 156.74L63.8604 151.09C63.8795 151.014 63.8733 150.934 63.8426 150.861C63.8119 150.789 63.7585 150.729 63.6904 150.69C63.575 150.636 63.4469 150.615 63.3204 150.63L59.3204 151.02C59.139 151.042 58.9658 151.109 58.8159 151.213C58.6659 151.318 58.5439 151.457 58.4604 151.62L56.3204 157.36C56.1347 157.725 55.8319 158.017 55.4604 158.19C54.6016 158.593 53.7786 159.068 53.0004 159.61C52.6604 159.83 52.2904 159.85 52.1504 159.61L50.1504 156.52C50.0104 156.3 49.6804 156.35 49.4204 156.62L45.0904 161.2C44.9659 161.323 44.8706 161.472 44.8117 161.636C44.7528 161.801 44.7319 161.976 44.7504 162.15L45.9604 166.23C46.0111 166.579 45.9329 166.934 45.7404 167.23C45.0071 168.34 44.3393 169.492 43.7404 170.68C43.5288 171.028 43.1926 171.281 42.8004 171.39L39.0904 172.28C38.9053 172.323 38.7328 172.408 38.5868 172.53C38.4409 172.651 38.3256 172.806 38.2504 172.98L36.3804 179.26C36.3607 179.329 36.358 179.401 36.3724 179.471C36.3868 179.54 36.418 179.606 36.4633 179.661C36.5085 179.716 36.5665 179.759 36.6322 179.787C36.6979 179.815 36.7694 179.826 36.8404 179.82L40.2304 180.02C40.3047 180.016 40.379 180.027 40.4487 180.053C40.5184 180.079 40.582 180.119 40.6355 180.171C40.689 180.222 40.7313 180.284 40.7596 180.353C40.788 180.422 40.8019 180.496 40.8004 180.57C40.7055 181.655 40.7055 182.745 40.8004 183.83C40.7979 184.195 40.6708 184.547 40.4404 184.83L36.6604 189.41C36.5457 189.534 36.4644 189.686 36.4241 189.85C36.3839 190.015 36.3861 190.187 36.4304 190.35L38.2204 194.35C38.2462 194.402 38.2839 194.446 38.3304 194.48C38.3759 194.495 38.4249 194.495 38.4704 194.48C38.6382 194.468 38.7953 194.393 38.9104 194.27L42.9104 190.58C43.0191 190.46 43.1656 190.38 43.3257 190.355C43.4858 190.329 43.6498 190.359 43.7904 190.44C44.3075 190.862 44.888 191.199 45.5104 191.44C45.651 191.492 45.7691 191.591 45.844 191.721C45.9189 191.85 45.946 192.002 45.9204 192.15L44.6704 197.8C44.6559 197.873 44.6645 197.949 44.6949 198.017C44.7254 198.085 44.7762 198.142 44.8404 198.18C44.953 198.242 45.0828 198.267 45.2104 198.25L49.2104 197.86C49.3918 197.838 49.5651 197.771 49.715 197.667C49.8649 197.562 49.9869 197.423 50.0704 197.26L52.2104 191.52C52.398 191.154 52.7 190.859 53.0704 190.68C53.5024 190.484 53.9231 190.263 54.3304 190.02C54.7204 189.79 55.1204 189.54 55.5204 189.27C55.9204 189 56.2204 189.03 56.3604 189.27L58.3604 192.35C58.3859 192.388 58.4203 192.419 58.4604 192.44C58.6204 192.55 58.8804 192.44 59.0904 192.25L63.4204 187.68C63.5532 187.553 63.6527 187.396 63.7103 187.221C63.7678 187.047 63.7816 186.861 63.7504 186.68L62.5504 182.59C62.4907 182.241 62.5696 181.882 62.7704 181.59C63.5096 180.48 64.1776 179.324 64.7704 178.13C64.8819 177.952 65.0278 177.799 65.1996 177.679C65.3713 177.559 65.5654 177.474 65.7704 177.43L69.4704 176.54C69.6555 176.497 69.8281 176.412 69.974 176.29C70.1199 176.169 70.2352 176.014 70.3104 175.84L72.1804 169.56C72.1884 169.471 72.1687 169.382 72.1239 169.305C72.0791 169.228 72.0115 169.167 71.9304 169.13ZM52.1504 184.48L51.9304 184.53H51.7704L51.4204 184.59H51.0104H50.6404C49.8416 184.592 49.0604 184.356 48.3974 183.91C47.7344 183.464 47.22 182.831 46.9204 182.09C46.632 181.433 46.4497 180.734 46.3804 180.02C46.34 179.638 46.3199 179.254 46.3204 178.87C46.5626 174.667 48.2966 170.689 51.2104 167.65C52.0908 166.705 53.1009 165.891 54.2104 165.23C54.5333 165.04 54.8673 164.87 55.2104 164.72C56.0862 164.311 57.0442 164.11 58.0104 164.13H58.1804H58.3204H58.4804C59.165 164.235 59.8106 164.516 60.354 164.945C60.8974 165.375 61.32 165.938 61.5804 166.58C63.2504 170.28 61.3304 176.74 57.2904 181.01C55.9353 182.625 54.1545 183.827 52.1504 184.48Z" fill="#F5F5F5"/>
<path d="M56.2798 157.39C56.0823 157.735 55.7863 158.014 55.4298 158.19C54.5801 158.592 53.767 159.067 52.9998 159.61C52.6598 159.83 52.2898 159.85 52.1498 159.61L50.1498 156.53C50.1267 156.49 50.0917 156.459 50.0498 156.44L46.2598 154.25C46.6671 154.007 47.0878 153.786 47.5198 153.59L47.6598 153.51C47.8091 153.417 47.9468 153.306 48.0698 153.18L48.2198 153.02C48.2532 152.985 48.2802 152.944 48.2998 152.9L48.3598 152.79L56.2798 157.39Z" fill="#EBEBEB"/>
<path d="M46.0003 166.38C46.007 166.684 45.9235 166.984 45.7603 167.24C45.0288 168.351 44.361 169.503 43.7603 170.69C43.7108 170.789 43.6468 170.88 43.5703 170.96L35.5703 166.35C35.6127 166.312 35.6497 166.268 35.6803 166.22C35.7201 166.179 35.7538 166.131 35.7803 166.08C36.3731 164.886 37.0411 163.73 37.7803 162.62C37.8197 162.564 37.8533 162.504 37.8803 162.44C37.8803 162.44 37.8803 162.36 37.8803 162.32C37.8846 162.297 37.8846 162.273 37.8803 162.25C37.8839 162.194 37.8839 162.137 37.8803 162.08C37.8949 161.994 37.8949 161.906 37.8803 161.82L46.0003 166.38Z" fill="#EBEBEB"/>
<path d="M46.2 154.24L42.06 151.84C42.0057 151.807 41.9435 151.79 41.88 151.79C41.7924 151.796 41.7072 151.821 41.6297 151.862C41.5522 151.904 41.4842 151.961 41.43 152.03L38.84 154.77L37.1 156.6C36.9578 156.755 36.8518 156.939 36.79 157.14L42.88 160.64L44.77 161.72C44.8344 161.534 44.9365 161.364 45.07 161.22L45.13 161.16L49.4 156.64C49.4696 156.551 49.563 156.485 49.6693 156.447C49.7757 156.41 49.8904 156.404 50 156.43L46.2 154.24Z" fill="#F5F5F5"/>
<path d="M63.5798 150.68C63.4752 150.626 63.3556 150.609 63.2398 150.63L59.2398 151.02C58.9968 151.049 58.7691 151.154 58.5898 151.32L50.5898 146.72C50.7656 146.547 50.9945 146.438 51.2398 146.41L55.2398 146.02C55.374 145.999 55.5115 146.023 55.6298 146.09L56.6898 146.71L57.2198 147.01L60.5998 149.01L61.4298 149.49L62.0398 149.84L63.5798 150.68Z" fill="#F5F5F5"/>
<path d="M43.5199 171C43.3134 171.206 43.0592 171.357 42.7799 171.44L39.0699 172.33C38.7993 172.395 38.557 172.546 38.3799 172.76L30.3799 168.17C30.5616 167.945 30.8103 167.784 31.0899 167.71L34.7999 166.82C35.077 166.751 35.3275 166.601 35.5199 166.39L43.5199 171Z" fill="#E6E6E6"/>
<path d="M40.7006 184.29C40.6345 184.488 40.5365 184.674 40.4106 184.84L36.6306 189.42C36.5216 189.556 36.4401 189.713 36.3906 189.88L28.3906 185.27C28.4317 185.096 28.514 184.935 28.6306 184.8L32.4106 180.22C32.5365 180.061 32.6345 179.882 32.7006 179.69L40.7006 184.29Z" fill="#E6E6E6"/>
<path d="M30.4702 176.24L30.5802 176.31L30.4402 176.22L30.1602 176.06L30.4702 176.24Z" fill="#E0E0E0"/>
<path d="M57.2799 181.15C55.9047 182.711 54.1264 183.863 52.1399 184.48L51.9299 184.53H51.7699L51.4199 184.59H51.0199H50.7599C50.7205 184.6 50.6792 184.6 50.6399 184.59C49.8422 184.593 49.0618 184.358 48.3989 183.914C47.7361 183.471 47.221 182.839 46.9199 182.1C46.6326 181.443 46.4504 180.744 46.3799 180.03C46.6899 179.89 46.9999 179.72 47.3199 179.54C49.6268 178.036 51.5463 176.008 52.9224 173.623C54.2986 171.237 55.0926 168.56 55.2399 165.81C55.2399 165.43 55.2399 165.07 55.2399 164.74C56.1135 164.324 57.0725 164.118 58.0399 164.14H58.2099H58.3499C58.3994 164.13 58.4504 164.13 58.4999 164.14C59.1863 164.244 59.834 164.524 60.3793 164.953C60.9245 165.383 61.3486 165.947 61.6099 166.59C63.2399 170.42 61.3199 176.89 57.2799 181.15Z" fill="#E0E0E0"/>
<path d="M45.9997 166.38L37.9997 161.78C38.0094 161.731 38.0094 161.68 37.9997 161.63L36.7897 157.55C36.7511 157.416 36.7511 157.274 36.7897 157.14L42.8797 160.64L44.7697 161.72C44.7272 161.867 44.7272 162.023 44.7697 162.17L45.9797 166.25C45.992 166.292 45.9987 166.336 45.9997 166.38Z" fill="#E0E0E0"/>
<path d="M58.64 151.32C58.5493 151.404 58.4777 151.506 58.43 151.62L56.29 157.36L48.29 152.75L50.46 147C50.502 146.886 50.5747 146.785 50.67 146.71L58.64 151.32Z" fill="#E0E0E0"/>
<path d="M70.1399 154.42C70.0396 154.398 69.9353 154.405 69.8383 154.438C69.7413 154.472 69.6553 154.531 69.5899 154.61L65.5899 158.3C65.4798 158.421 65.3322 158.502 65.1708 158.529C65.0094 158.556 64.8436 158.529 64.6999 158.45C64.1814 158.03 63.6013 157.693 62.9799 157.45C62.8412 157.399 62.7246 157.301 62.6498 157.174C62.5751 157.046 62.5468 156.896 62.5699 156.75L63.8099 151.1C63.8308 151.024 63.8254 150.943 63.7945 150.871C63.7636 150.798 63.7092 150.738 63.6399 150.7L62.1299 149.82C62.176 149.81 62.2238 149.81 62.2699 149.82L62.3599 149.88L70.1399 154.42Z" fill="#E0E0E0"/>
<path d="M71.91 169.12C71.8318 169.082 71.7466 169.062 71.66 169.06L68.28 168.87C68.2061 168.873 68.1324 168.86 68.0633 168.834C67.9943 168.808 67.9313 168.767 67.8781 168.716C67.8248 168.665 67.7825 168.603 67.7537 168.535C67.7248 168.467 67.7099 168.394 67.71 168.32C67.76 167.78 67.79 167.25 67.79 166.73L71.91 169.12Z" fill="#E0E0E0"/>
<path d="M35.65 166.22C35.6194 166.268 35.5824 166.312 35.54 166.35C35.5818 166.311 35.6187 166.268 35.65 166.22Z" fill="#E0E0E0"/>
<path d="M30.3902 168.13C30.3354 168.204 30.2916 168.284 30.2602 168.37L30.0302 169.15L28.8102 173.25L28.4002 174.65C28.3757 174.725 28.3757 174.806 28.4002 174.88C28.4107 174.926 28.4275 174.97 28.4502 175.01C28.4809 175.046 28.5144 175.08 28.5502 175.11H28.6102L29.2402 175.48L29.4102 175.57L29.9102 175.85L30.1702 176.01L30.4802 176.19L30.5902 176.26L30.9202 176.44L32.7202 177.44L36.5202 179.64C36.444 179.592 36.386 179.519 36.3553 179.434C36.3245 179.349 36.3227 179.256 36.3502 179.17L38.0002 173.76L38.2302 172.98C38.2647 172.886 38.3155 172.798 38.3802 172.72L30.3902 168.13Z" fill="#E0E0E0"/>
<path d="M58.4703 192.45L54.3203 190C54.7103 189.77 55.1103 189.52 55.5103 189.25C55.9103 188.98 56.2103 189.01 56.3503 189.25L58.3503 192.34C58.3785 192.388 58.4203 192.426 58.4703 192.45Z" fill="#E0E0E0"/>
<path d="M46.0005 192.15L44.7505 197.81C44.736 197.883 44.7446 197.959 44.775 198.027C44.8055 198.095 44.8563 198.152 44.9205 198.19L38.5205 194.49C38.6869 194.473 38.8422 194.399 38.9605 194.28L42.9605 190.6C43.0677 190.478 43.2129 190.396 43.3727 190.367C43.5324 190.338 43.6973 190.364 43.8405 190.44C44.3555 190.865 44.9365 191.203 45.5605 191.44C45.7079 191.485 45.834 191.581 45.9151 191.712C45.9961 191.843 46.0265 191.999 46.0005 192.15Z" fill="#E0E0E0"/>
<path d="M40.7702 183.84C40.7818 183.993 40.7578 184.147 40.7002 184.29L32.7002 179.69C32.7533 179.543 32.7771 179.386 32.7702 179.23C32.7702 178.68 32.7002 178.12 32.7002 177.54L36.5002 179.74C36.5834 179.784 36.6759 179.808 36.7702 179.81L40.1602 180C40.2349 179.997 40.3095 180.01 40.3792 180.037C40.4489 180.064 40.5124 180.105 40.5657 180.157C40.6191 180.21 40.6612 180.273 40.6895 180.342C40.7177 180.411 40.7316 180.485 40.7302 180.56C40.6474 181.652 40.6608 182.75 40.7702 183.84Z" fill="#E0E0E0"/>
<path d="M38.2897 194.44L36.6697 193.5L36.3597 193.33L33.7497 191.81L33.0397 191.41L30.3597 189.85C30.3357 189.839 30.315 189.822 30.2997 189.8C30.2762 189.778 30.259 189.751 30.2497 189.72L28.4497 185.72C28.4139 185.613 28.4139 185.497 28.4497 185.39C28.4497 185.39 28.4497 185.3 28.4497 185.25L36.4497 189.86C36.3939 190.012 36.3939 190.178 36.4497 190.33L38.2397 194.33C38.249 194.37 38.266 194.407 38.2897 194.44Z" fill="#E0E0E0"/>
<path d="M83.34 88.4403C83.0781 88.9229 82.6679 89.3086 82.17 89.5403C81.0042 90.0982 79.8841 90.7469 78.82 91.4803C78.36 91.7903 77.82 91.8203 77.65 91.4803L74.89 87.2503C74.8556 87.1917 74.8029 87.146 74.74 87.1203L72 85.5203C72.58 85.1903 73.15 84.8803 73.72 84.6203L73.92 84.5103C74.1255 84.3853 74.3137 84.234 74.48 84.0603C74.5577 83.991 74.6281 83.914 74.69 83.8303C74.733 83.7852 74.77 83.7348 74.8 83.6803L74.88 83.5303L83.34 88.4403Z" fill="#EBEBEB"/>
<path d="M69.1498 100.79C69.1594 101.205 69.0444 101.612 68.8198 101.96C67.8148 103.489 66.8999 105.075 66.0798 106.71C66.0088 106.844 65.9177 106.965 65.8098 107.07L57.2998 102.16C57.361 102.108 57.4148 102.047 57.4598 101.98C57.5076 101.92 57.551 101.857 57.5898 101.79C58.3939 100.136 59.3059 98.5355 60.3198 97.0004C60.3748 96.9273 60.4186 96.8464 60.4498 96.7604C60.4851 96.7058 60.5089 96.6445 60.5198 96.5804C60.5253 96.5506 60.5253 96.5201 60.5198 96.4904C60.5198 96.4104 60.5198 96.3304 60.5198 96.2604C60.5441 96.1416 60.5441 96.0192 60.5198 95.9004L69.1498 100.79Z" fill="#EBEBEB"/>
<path d="M72.0005 85.5201L66.3105 82.2302C66.2381 82.186 66.1553 82.1619 66.0705 82.1602C65.947 82.1687 65.8266 82.2024 65.7165 82.2592C65.6065 82.3159 65.5092 82.3945 65.4305 82.4902L61.8705 86.2502L59.4805 88.7701C59.2859 88.9854 59.1424 89.2418 59.0605 89.5201L64.9705 92.9002L67.5705 94.3902C67.6539 94.1324 67.794 93.8966 67.9805 93.7001L68.0605 93.6202L73.9305 87.4102C74.0247 87.2879 74.1522 87.1954 74.2977 87.144C74.4432 87.0925 74.6005 87.0843 74.7505 87.1202L72.0005 85.5201Z" fill="#F5F5F5"/>
<path d="M93.3801 79.2202C93.2329 79.1537 93.0702 79.1294 92.9101 79.1502L87.4801 79.6902C87.1489 79.7342 86.8387 79.877 86.5901 80.1002L78.0801 75.1902C78.3291 74.9599 78.6437 74.8131 78.9801 74.7702L84.4101 74.2302C84.593 74.202 84.78 74.2373 84.9401 74.3302L86.4001 75.1802L87.1201 75.6002L89.3101 76.8702L90.4601 77.5402C90.7501 77.6902 91.0301 77.8602 91.2901 78.0102L93.3801 79.2202Z" fill="#F5F5F5"/>
<path d="M65.81 107.08C65.5373 107.367 65.1916 107.574 64.81 107.68L59.71 108.91C59.343 109.003 59.0164 109.214 58.78 109.51L50.25 104.61C50.5045 104.295 50.8562 104.074 51.25 103.98L56.34 102.76C56.7203 102.657 57.0658 102.453 57.34 102.17L65.81 107.08Z" fill="#E6E6E6"/>
<path d="M61.9405 125.4C61.8523 125.674 61.7132 125.928 61.5305 126.15L56.3505 132.44C56.1983 132.625 56.086 132.84 56.0205 133.07L47.5205 128.16C47.5778 127.926 47.6872 127.707 47.8405 127.52L53.0405 121.23C53.2148 121.01 53.347 120.759 53.4305 120.49L61.9405 125.4Z" fill="#E6E6E6"/>
<path d="M50.3302 115.75L50.4902 115.85L50.2902 115.73L49.9102 115.51L50.3302 115.75Z" fill="#E0E0E0"/>
<path d="M84.71 121.09C82.8386 123.225 80.4174 124.806 77.71 125.66L77.41 125.73C77.3403 125.739 77.2697 125.739 77.2 125.73L76.72 125.81C76.5346 125.84 76.3476 125.86 76.16 125.87H75.64C74.543 125.88 73.4684 125.558 72.558 124.946C71.6477 124.334 70.9441 123.46 70.54 122.44C70.143 121.535 69.8899 120.573 69.79 119.59C70.21 119.4 70.64 119.17 71.08 118.93C77.08 115.45 81.97 107.01 81.97 100.06C81.97 99.54 81.97 99.06 81.91 98.58C83.1105 98.0176 84.4247 97.7404 85.75 97.77H85.99H86.18C86.2497 97.7603 86.3204 97.7603 86.39 97.77C87.3335 97.9076 88.2243 98.2903 88.9736 98.8799C89.7229 99.4695 90.3044 100.245 90.66 101.13C92.91 106.34 90.27 115.23 84.71 121.09Z" fill="#E0E0E0"/>
<path d="M69.15 100.79L60.64 95.89C60.6501 95.8237 60.6501 95.7563 60.64 95.69L59 90.08C58.9466 89.8972 58.9466 89.7029 59 89.52L64.91 92.9L67.51 94.39C67.4333 94.5872 67.4125 94.8018 67.45 95.01L69.11 100.61C69.1339 100.667 69.1475 100.728 69.15 100.79Z" fill="#E0E0E0"/>
<path d="M86.5906 80.1004C86.4634 80.2167 86.3643 80.3603 86.3006 80.5204L83.3606 88.4004L74.8506 83.4904C74.8506 83.4904 74.8506 83.4904 74.8506 83.4304L77.7906 75.5504C77.8494 75.396 77.9456 75.2585 78.0706 75.1504L86.5906 80.1004Z" fill="#E0E0E0"/>
<path d="M102.39 84.36C102.249 84.3295 102.103 84.3386 101.967 84.3863C101.831 84.4339 101.711 84.5183 101.62 84.63L96.09 89.69C95.9385 89.8552 95.7359 89.9648 95.5146 90.0011C95.2934 90.0374 95.0664 89.9982 94.87 89.89C94.159 89.3085 93.3587 88.8459 92.5 88.52C92.305 88.4443 92.1425 88.3031 92.0403 88.1206C91.9381 87.9381 91.9026 87.7258 91.94 87.52L93.65 79.77C93.6785 79.6647 93.6702 79.5528 93.6266 79.4528C93.583 79.3529 93.5066 79.2707 93.41 79.22L91.29 78C91.3593 77.9857 91.4308 77.9857 91.5 78L91.62 78.07L102.39 84.36Z" fill="#E0E0E0"/>
<path d="M104.82 104.56C104.715 104.506 104.598 104.478 104.48 104.48L99.8299 104.22C99.7276 104.223 99.6257 104.205 99.5305 104.167C99.4353 104.13 99.3487 104.073 99.2759 104.001C99.203 103.929 99.1455 103.844 99.1066 103.749C99.0678 103.654 99.0485 103.553 99.0499 103.45C99.1099 102.72 99.1499 101.99 99.1499 101.28L104.82 104.56Z" fill="#E0E0E0"/>
<path d="M57.4598 102C57.4148 102.067 57.361 102.127 57.2998 102.18L57.4598 102Z" fill="#E0E0E0"/>
<path d="M50.2302 104.61C50.126 104.722 50.0476 104.855 50.0002 105L49.7302 106L48.0602 111.63L47.4902 113.56C47.4551 113.661 47.4551 113.77 47.4902 113.87C47.4984 113.932 47.5225 113.991 47.5602 114.04C47.5953 114.094 47.6393 114.141 47.6902 114.18C47.7164 114.205 47.7469 114.226 47.7802 114.24L48.6302 114.74L48.8702 114.87L49.5502 115.26L49.9202 115.48L50.3402 115.72L50.5002 115.82L50.9502 116.07L53.4302 117.5L56.2002 119.1C56.0948 119.033 56.0149 118.933 55.9733 118.815C55.9316 118.697 55.9305 118.569 55.9702 118.45L58.2202 110.88L58.5402 109.82C58.5784 109.684 58.6507 109.561 58.7502 109.46L50.2302 104.61Z" fill="#E0E0E0"/>
<path d="M86.3504 136.6L80.6504 133.29C81.1804 132.98 81.7404 132.63 82.2804 132.29C82.8204 131.95 83.2804 131.96 83.4404 132.29L86.2104 136.53C86.2531 136.561 86.3003 136.585 86.3504 136.6Z" fill="#E0E0E0"/>
<path d="M69.1501 136.2L67.4401 144C67.414 144.102 67.4224 144.209 67.4641 144.305C67.5057 144.401 67.5782 144.48 67.6701 144.53C67.3201 144.34 61.9601 141.23 58.8701 139.44C59.0961 139.418 59.3077 139.319 59.4701 139.16L65.0001 134.06C65.1497 133.896 65.3499 133.786 65.5691 133.748C65.7882 133.71 66.0138 133.746 66.2101 133.85C66.9207 134.437 67.7209 134.907 68.5801 135.24C68.7726 135.308 68.9352 135.441 69.0394 135.617C69.1436 135.792 69.1828 135.999 69.1501 136.2Z" fill="#E0E0E0"/>
<path d="M62.0006 124.78C62.012 124.992 61.9779 125.203 61.9006 125.4L53.3906 120.49C53.4699 120.29 53.5073 120.076 53.5006 119.86C53.4268 119.093 53.3934 118.322 53.4006 117.55L56.1706 119.15C56.2844 119.214 56.4107 119.251 56.5406 119.26L61.2006 119.52C61.3021 119.518 61.4031 119.535 61.4976 119.572C61.5921 119.609 61.6783 119.665 61.751 119.736C61.8237 119.807 61.8815 119.891 61.9209 119.985C61.9604 120.078 61.9807 120.179 61.9806 120.28C61.8511 121.778 61.8578 123.284 62.0006 124.78Z" fill="#E0E0E0"/>
<path d="M58.6302 139.35L56.4002 138.06L55.9802 137.81L52.3902 135.74C52.0502 135.54 51.7302 135.35 51.3902 135.18L50.1602 134.45C50.1265 134.432 50.0961 134.408 50.0702 134.38C50.0399 134.348 50.0162 134.311 50.0002 134.27L47.5302 128.81C47.4834 128.664 47.4834 128.506 47.5302 128.36C47.5261 128.297 47.5261 128.233 47.5302 128.17L56.0302 133.08C55.9555 133.294 55.9555 133.526 56.0302 133.74L58.4902 139.19C58.524 139.253 58.5719 139.308 58.6302 139.35Z" fill="#E0E0E0"/>
<path d="M410.76 109.36C412.127 110.926 413.903 112.079 415.89 112.69H416.11H416.26L416.61 112.75H417.02H417.27C417.309 112.76 417.35 112.76 417.39 112.75C418.187 112.753 418.968 112.518 419.631 112.074C420.293 111.63 420.809 110.999 421.11 110.26C421.398 109.603 421.58 108.904 421.65 108.19C421.35 108.05 421.03 107.88 420.72 107.7C418.41 106.198 416.487 104.171 415.109 101.785C413.731 99.3991 412.937 96.7213 412.79 93.9699C412.79 93.5899 412.79 93.2399 412.79 92.8999C411.916 92.4838 410.957 92.2783 409.99 92.2999H409.82H409.68H409.53C408.843 92.4033 408.196 92.6836 407.65 93.1131C407.105 93.5427 406.681 94.1068 406.42 94.7499C404.79 98.6299 406.71 105.1 410.76 109.36Z" fill="#43BA8F"/>
<path d="M395.9 97.8399L397.77 104.12C397.845 104.294 397.96 104.449 398.106 104.57C398.252 104.692 398.425 104.777 398.61 104.82L402.32 105.71C402.713 105.811 403.05 106.063 403.26 106.41C403.857 107.602 404.524 108.758 405.26 109.87C405.459 110.163 405.538 110.521 405.48 110.87L404.28 114.95C404.249 115.131 404.263 115.317 404.32 115.491C404.378 115.666 404.477 115.823 404.61 115.95L408.95 120.52C409.16 120.75 409.41 120.82 409.57 120.72C409.61 120.698 409.644 120.668 409.67 120.63L411.67 117.54C411.81 117.32 412.19 117.34 412.52 117.54C412.85 117.74 413.31 118.07 413.71 118.3C414.11 118.53 414.55 118.76 414.96 118.96C415.331 119.133 415.634 119.425 415.82 119.79L417.96 125.53C418.044 125.694 418.168 125.834 418.32 125.939C418.472 126.044 418.647 126.109 418.83 126.13L422.77 126.52C422.898 126.537 423.027 126.512 423.14 126.45C423.205 126.413 423.255 126.356 423.284 126.287C423.313 126.218 423.319 126.142 423.3 126.07L422.05 120.42C422.026 120.272 422.054 120.121 422.129 119.992C422.204 119.863 422.32 119.763 422.46 119.71C423.085 119.469 423.669 119.132 424.19 118.71C424.332 118.632 424.496 118.605 424.656 118.632C424.816 118.659 424.962 118.74 425.07 118.86L429.07 122.54C429.186 122.661 429.343 122.736 429.51 122.75C429.556 122.76 429.604 122.76 429.65 122.75C429.701 122.721 429.74 122.675 429.76 122.62L431.55 118.62C431.594 118.457 431.596 118.285 431.556 118.12C431.516 117.956 431.435 117.804 431.32 117.68L427.55 113.1C427.313 112.82 427.182 112.466 427.18 112.1C427.28 111.016 427.28 109.924 427.18 108.84C427.18 108.766 427.195 108.693 427.224 108.625C427.253 108.557 427.295 108.495 427.348 108.444C427.401 108.392 427.464 108.352 427.533 108.326C427.602 108.299 427.676 108.287 427.75 108.29L431.14 108.1C431.211 108.104 431.283 108.091 431.348 108.062C431.414 108.033 431.472 107.989 431.517 107.933C431.562 107.878 431.593 107.812 431.607 107.742C431.622 107.672 431.619 107.599 431.6 107.53L429.73 101.25C429.655 101.076 429.539 100.921 429.394 100.8C429.248 100.678 429.075 100.592 428.89 100.55L425.19 99.6599C424.798 99.5576 424.46 99.3066 424.25 98.9599C423.653 97.7676 422.985 96.6122 422.25 95.4999C422.055 95.2056 421.976 94.849 422.03 94.4999L423.24 90.4099C423.261 90.2361 423.241 90.0597 423.182 89.8949C423.123 89.73 423.026 89.5811 422.9 89.4599L418.57 84.8799C418.31 84.6099 417.99 84.5699 417.84 84.7899L415.84 87.8699C415.7 88.0899 415.33 88.0699 415 87.8699C414.222 87.3321 413.403 86.8573 412.55 86.4499C412.178 86.2773 411.876 85.985 411.69 85.6199L409.55 79.8799C409.468 79.7162 409.346 79.5756 409.196 79.4708C409.046 79.3661 408.872 79.3004 408.69 79.2799L404.75 78.8899C404.62 78.8761 404.489 78.8968 404.37 78.9499C404.302 78.989 404.248 79.0492 404.218 79.1214C404.187 79.1936 404.181 79.2738 404.2 79.3499L405.49 84.9999C405.514 85.1461 405.488 85.2963 405.415 85.4254C405.342 85.5545 405.228 85.6549 405.09 85.7099C404.463 85.9482 403.879 86.2858 403.36 86.7099C403.218 86.7876 403.054 86.815 402.894 86.7878C402.734 86.7605 402.588 86.6803 402.48 86.5599L398.48 82.8799C398.27 82.6899 398.05 82.6199 397.9 82.6999C397.856 82.73 397.822 82.7715 397.8 82.8199L396 86.8199C395.956 86.9833 395.953 87.1552 395.994 87.3196C396.034 87.484 396.115 87.6355 396.23 87.7599L400 92.2699C400.229 92.5542 400.358 92.9053 400.37 93.2699C400.313 93.828 400.286 94.3889 400.29 94.9499C400.29 95.4599 400.29 95.9499 400.37 96.5299C400.37 96.6039 400.355 96.6771 400.326 96.7451C400.297 96.8132 400.255 96.8747 400.202 96.9261C400.149 96.9774 400.086 97.0175 400.017 97.0439C399.948 97.0704 399.874 97.0826 399.8 97.0799L396.42 97.2699C396.334 97.2733 396.249 97.2937 396.17 97.3299C396.07 97.3663 395.987 97.4387 395.937 97.5329C395.887 97.6271 395.874 97.7366 395.9 97.8399ZM410.75 109.36C406.75 105.1 404.75 98.6299 406.47 94.9299C406.725 94.2848 407.146 93.7184 407.691 93.2882C408.235 92.858 408.883 92.5792 409.57 92.4799H409.72H409.86H410C410.963 92.4604 411.917 92.6623 412.79 93.0699C413.12 93.2199 413.46 93.3899 413.79 93.5799C414.902 94.2411 415.912 95.0596 416.79 96.0099C419.705 99.0434 421.44 103.019 421.68 107.22C421.691 107.604 421.671 107.989 421.62 108.37C421.551 109.084 421.368 109.783 421.08 110.44C420.78 111.18 420.266 111.814 419.603 112.26C418.94 112.705 418.159 112.942 417.36 112.94H417H416.59L416.24 112.88H416.09L415.87 112.82C413.875 112.165 412.102 110.967 410.75 109.36Z" fill="#F5F5F5"/>
<path d="M411.76 85.6002C411.942 85.9537 412.238 86.2355 412.6 86.4002C413.453 86.8076 414.272 87.2824 415.05 87.8202C415.38 88.0402 415.75 88.0602 415.89 87.8202L417.89 84.7402C417.912 84.6976 417.947 84.6628 417.99 84.6402L421.78 82.4502C421.36 82.2102 420.94 81.9802 420.53 81.7902C420.477 81.7697 420.426 81.7428 420.38 81.7102C420.23 81.617 420.093 81.5062 419.97 81.3802L419.82 81.2202C419.79 81.1826 419.763 81.1425 419.74 81.1002L419.68 80.9902L411.76 85.6002Z" fill="#EBEBEB"/>
<path d="M422.089 94.59C422.075 94.8904 422.156 95.1877 422.319 95.44C423.055 96.5523 423.723 97.7077 424.319 98.9C424.367 98.9997 424.435 99.0883 424.519 99.16L432.519 94.55C432.475 94.5141 432.438 94.47 432.409 94.42C432.37 94.3817 432.336 94.338 432.309 94.29C431.717 93.0923 431.049 91.9333 430.309 90.82C430.274 90.7667 430.243 90.7097 430.219 90.65C430.194 90.6105 430.177 90.5663 430.169 90.52C430.169 90.52 430.169 90.52 430.169 90.45C430.169 90.38 430.169 90.45 430.169 90.45C430.166 90.3934 430.166 90.3366 430.169 90.28C430.145 90.1951 430.145 90.105 430.169 90.02L422.089 94.59Z" fill="#EBEBEB"/>
<path d="M421.83 82.4498L425.97 80.0499C426.029 80.0342 426.091 80.0342 426.15 80.0499C426.239 80.0561 426.326 80.0807 426.405 80.122C426.484 80.1633 426.554 80.2204 426.61 80.2899L429.2 82.9999L430.94 84.8299C431.085 84.9866 431.191 85.1749 431.25 85.3798L425.16 88.8699L423.27 89.9498C423.211 89.7617 423.108 89.5903 422.97 89.4498L422.92 89.3899L418.64 84.8699C418.571 84.7802 418.478 84.7126 418.371 84.6753C418.265 84.638 418.15 84.6327 418.04 84.6599L421.83 82.4498Z" fill="#F5F5F5"/>
<path d="M404.45 78.89C404.562 78.8629 404.678 78.8629 404.79 78.89L408.74 79.28C408.984 79.3062 409.212 79.4116 409.39 79.58L417.39 74.98C417.212 74.8047 416.979 74.6953 416.73 74.67L412.78 74.28C412.646 74.2585 412.509 74.2832 412.39 74.35L411.33 74.97L410.81 75.27L407.43 77.27L406.59 77.76L406 78L404.45 78.89Z" fill="#F5F5F5"/>
<path d="M424.52 99.1701C424.723 99.3796 424.978 99.5315 425.26 99.6101L428.97 100.5C429.235 100.571 429.472 100.721 429.65 100.93L437.65 96.3401C437.467 96.1162 437.219 95.9553 436.94 95.8801L433.24 94.9901C432.961 94.9183 432.708 94.7692 432.51 94.5601L424.52 99.1701Z" fill="#E6E6E6"/>
<path d="M427.33 112.5C427.396 112.7 427.497 112.886 427.63 113.05L431.4 117.63C431.513 117.764 431.595 117.921 431.64 118.09L439.64 113.48C439.597 113.307 439.515 113.146 439.4 113.01L435.62 108.43C435.494 108.273 435.399 108.093 435.34 107.9L427.33 112.5Z" fill="#E6E6E6"/>
<path d="M437.56 104.45L437.45 104.52L437.59 104.44L437.87 104.28L437.56 104.45Z" fill="#E0E0E0"/>
<path d="M410.76 109.36C412.127 110.926 413.903 112.079 415.89 112.69H416.11H416.26L416.61 112.75H417.02H417.27C417.309 112.76 417.35 112.76 417.39 112.75C418.187 112.753 418.968 112.518 419.631 112.074C420.293 111.63 420.809 110.999 421.11 110.26C421.398 109.603 421.58 108.904 421.65 108.19C421.35 108.05 421.03 107.88 420.72 107.7C418.41 106.198 416.487 104.171 415.109 101.785C413.731 99.3991 412.937 96.7213 412.79 93.9699C412.79 93.5899 412.79 93.2399 412.79 92.8999C411.916 92.4838 410.957 92.2783 409.99 92.2999H409.82H409.68H409.53C408.843 92.4033 408.196 92.6836 407.65 93.1131C407.105 93.5427 406.681 94.1068 406.42 94.7499C404.79 98.6299 406.71 105.1 410.76 109.36Z" fill="#E0E0E0"/>
<path d="M422.09 94.5899L430.09 89.9899C430.08 89.9438 430.08 89.896 430.09 89.8499L431.3 85.7599C431.339 85.6294 431.339 85.4904 431.3 85.3599L425.21 88.8499L423.32 89.9299C423.362 90.0769 423.362 90.2329 423.32 90.3799L422.12 94.4599C422.099 94.5 422.089 94.5447 422.09 94.5899Z" fill="#E0E0E0"/>
<path d="M409.39 79.5302C409.481 79.6131 409.553 79.7156 409.6 79.8302L411.74 85.5702L419.74 80.9602L417.6 75.2202C417.558 75.1084 417.489 75.0088 417.4 74.9302L409.39 79.5302Z" fill="#E0E0E0"/>
<path d="M397.89 82.6299C397.991 82.6115 398.096 82.6192 398.194 82.6525C398.292 82.6857 398.38 82.7433 398.45 82.8199L402.45 86.5099C402.557 86.6318 402.703 86.7132 402.863 86.7405C403.023 86.7678 403.188 86.7393 403.33 86.6599C403.849 86.2358 404.433 85.8981 405.06 85.6599C405.198 85.6064 405.314 85.5063 405.387 85.3768C405.46 85.2472 405.486 85.0963 405.46 84.9499L404.22 79.2999C404.201 79.2238 404.207 79.1435 404.237 79.0713C404.268 78.9991 404.322 78.9389 404.39 78.8999L406 77.9999C405.95 77.9896 405.899 77.9896 405.85 77.9999C405.82 77.9946 405.789 77.9946 405.76 77.9999L397.89 82.6299Z" fill="#E0E0E0"/>
<path d="M396.12 97.3302C396.198 97.2927 396.283 97.2722 396.37 97.2702L399.76 97.0802C399.834 97.0829 399.907 97.0707 399.975 97.0441C400.044 97.0176 400.106 96.9773 400.159 96.9258C400.211 96.8743 400.252 96.8127 400.28 96.7447C400.308 96.6766 400.322 96.6037 400.32 96.5302C400.32 95.9902 400.25 95.4602 400.25 94.9502L396.12 97.3302Z" fill="#E0E0E0"/>
<path d="M432.38 94.4302C432.408 94.4801 432.445 94.5242 432.49 94.5602L432.38 94.4302Z" fill="#E0E0E0"/>
<path d="M437.64 96.3398C437.701 96.413 437.745 96.4982 437.77 96.5898L438 97.3598L439.22 101.46L439.64 102.87C439.66 102.945 439.66 103.024 439.64 103.1C439.632 103.143 439.615 103.184 439.59 103.22C439.566 103.258 439.535 103.291 439.5 103.32H439.43L438.81 103.69L438.63 103.78L438.14 104.07L437.87 104.23L437.56 104.4L437.45 104.47L437.12 104.65L435.32 105.65L431.52 107.85C431.598 107.801 431.658 107.727 431.689 107.639C431.72 107.552 431.72 107.457 431.69 107.37L430 102L429.77 101.23C429.74 101.13 429.689 101.038 429.62 100.96L437.64 96.3398Z" fill="#E0E0E0"/>
<path d="M409.56 120.66L413.71 118.25C413.33 118.02 412.92 117.77 412.53 117.5C412.14 117.23 411.83 117.26 411.69 117.5L409.69 120.59C409.653 120.625 409.608 120.649 409.56 120.66Z" fill="#E0E0E0"/>
<path d="M422.09 120.36L423.33 126.02C423.348 126.093 423.341 126.17 423.31 126.239C423.279 126.308 423.226 126.364 423.16 126.4C423.41 126.26 427.32 124.01 429.57 122.7C429.403 122.686 429.246 122.611 429.13 122.49L425.13 118.81C425.024 118.686 424.878 118.604 424.717 118.576C424.556 118.549 424.391 118.579 424.25 118.66C423.729 119.082 423.146 119.419 422.52 119.66C422.376 119.706 422.254 119.802 422.175 119.93C422.096 120.059 422.066 120.211 422.09 120.36Z" fill="#E0E0E0"/>
<path d="M427.26 112.05C427.251 112.204 427.275 112.357 427.33 112.5L435.33 107.9C435.272 107.754 435.245 107.597 435.25 107.44C435.303 106.882 435.327 106.321 435.32 105.76L431.52 107.96C431.436 108.004 431.344 108.028 431.25 108.03L427.86 108.23C427.786 108.228 427.712 108.24 427.643 108.266C427.574 108.293 427.511 108.333 427.458 108.384C427.405 108.435 427.362 108.497 427.333 108.565C427.304 108.633 427.29 108.706 427.29 108.78C427.375 109.869 427.365 110.963 427.26 112.05Z" fill="#E0E0E0"/>
<path d="M429.74 122.65L431.36 121.72L431.67 121.54L434.29 120.03L434.99 119.62L437.68 118.06C437.7 118.066 437.721 118.066 437.74 118.06L437.8 117.98L439.59 113.98C439.622 113.873 439.622 113.758 439.59 113.65V113.51L431.59 118.12C431.646 118.275 431.646 118.445 431.59 118.6L429.8 122.6C429.783 122.62 429.763 122.637 429.74 122.65Z" fill="#E0E0E0"/>
<path d="M426.31 150.4L428.88 159.03C428.978 159.276 429.134 159.495 429.334 159.669C429.534 159.843 429.772 159.967 430.03 160.03L435.12 161.26C435.668 161.41 436.135 161.769 436.42 162.26C437.231 163.898 438.143 165.485 439.15 167.01C439.416 167.407 439.526 167.887 439.46 168.36L437.8 173.97C437.772 174.208 437.798 174.448 437.878 174.674C437.958 174.899 438.088 175.103 438.26 175.27L444.21 181.56C444.5 181.87 444.85 181.97 445.08 181.83C445.132 181.798 445.177 181.753 445.21 181.7L447.99 177.46C448.18 177.16 448.7 177.18 449.15 177.46C449.6 177.74 450.24 178.18 450.78 178.46C451.32 178.74 451.93 179.1 452.5 179.36C453.009 179.607 453.426 180.01 453.69 180.51L456.63 188.39C456.741 188.618 456.909 188.815 457.117 188.96C457.325 189.105 457.567 189.195 457.82 189.22L463.24 189.76C463.415 189.781 463.592 189.749 463.75 189.67C463.842 189.62 463.914 189.541 463.956 189.445C463.997 189.349 464.006 189.242 463.98 189.14L462.27 181.38C462.226 181.174 462.259 180.959 462.362 180.775C462.465 180.591 462.631 180.451 462.83 180.38C463.687 180.046 464.486 179.581 465.2 179C465.395 178.894 465.62 178.857 465.839 178.893C466.058 178.929 466.259 179.037 466.41 179.2L471.95 184.27C472.111 184.433 472.322 184.535 472.55 184.56C472.616 184.559 472.681 184.542 472.74 184.51C472.809 184.474 472.863 184.414 472.89 184.34L475.36 178.89C475.415 178.665 475.414 178.43 475.359 178.206C475.303 177.981 475.193 177.773 475.04 177.6L469.85 171.31C469.53 170.921 469.353 170.434 469.35 169.93C469.485 168.44 469.485 166.94 469.35 165.45C469.35 165.349 469.37 165.248 469.409 165.155C469.449 165.061 469.507 164.976 469.579 164.906C469.652 164.835 469.738 164.779 469.833 164.742C469.927 164.705 470.028 164.688 470.13 164.69L474.78 164.43C474.879 164.439 474.978 164.424 475.07 164.385C475.162 164.347 475.243 164.286 475.306 164.21C475.369 164.133 475.413 164.041 475.432 163.944C475.452 163.846 475.448 163.746 475.42 163.65L472.88 155C472.775 154.763 472.617 154.554 472.417 154.389C472.218 154.224 471.982 154.108 471.73 154.05L466.64 152.82C466.092 152.67 465.625 152.311 465.34 151.82C464.527 150.183 463.615 148.597 462.61 147.07C462.339 146.676 462.228 146.193 462.3 145.72L463.96 140.11C463.988 139.873 463.962 139.632 463.882 139.406C463.802 139.181 463.671 138.977 463.5 138.81L457.55 132.52C457.19 132.15 456.74 132.08 456.55 132.38L453.77 136.62C453.58 136.92 453.07 136.9 452.61 136.62C451.541 135.886 450.418 135.234 449.25 134.67C448.74 134.432 448.325 134.031 448.07 133.53L445.13 125.65C445.019 125.423 444.853 125.228 444.647 125.083C444.44 124.938 444.201 124.847 443.95 124.82L438.52 124.28C438.345 124.265 438.169 124.296 438.01 124.37C437.916 124.424 437.841 124.506 437.798 124.605C437.755 124.704 437.745 124.815 437.77 124.92L439.48 132.68C439.522 132.885 439.49 133.098 439.389 133.281C439.288 133.465 439.125 133.606 438.93 133.68C438.069 134.007 437.269 134.474 436.56 135.06C436.362 135.167 436.135 135.205 435.913 135.167C435.692 135.129 435.49 135.017 435.34 134.85L429.8 129.79C429.708 129.675 429.583 129.591 429.442 129.548C429.301 129.505 429.15 129.506 429.01 129.55C428.947 129.595 428.896 129.653 428.86 129.72L426.4 135.18C426.341 135.404 426.338 135.639 426.392 135.864C426.446 136.089 426.555 136.298 426.71 136.47L431.9 142.75C432.225 143.137 432.406 143.625 432.41 144.13C432.34 144.88 432.31 145.65 432.31 146.44C432.31 147.23 432.36 147.87 432.42 148.61C432.421 148.712 432.402 148.812 432.363 148.906C432.324 149 432.266 149.084 432.193 149.155C432.119 149.225 432.033 149.28 431.938 149.315C431.842 149.35 431.741 149.366 431.64 149.36L426.99 149.63C426.871 149.628 426.755 149.656 426.65 149.71C426.518 149.764 426.411 149.864 426.349 149.991C426.286 150.118 426.272 150.263 426.31 150.4ZM446.71 166.23C441.16 160.37 438.52 151.49 440.82 146.4C441.173 145.515 441.752 144.738 442.5 144.147C443.247 143.555 444.137 143.17 445.08 143.03H445.29H445.49H445.73C447.055 143.001 448.369 143.278 449.57 143.84C450.039 144.048 450.496 144.281 450.94 144.54C452.457 145.45 453.838 146.571 455.04 147.87C459.21 152.27 461.74 158.36 461.77 163.28C461.775 163.808 461.745 164.336 461.68 164.86C461.583 165.84 461.333 166.798 460.94 167.7C460.535 168.722 459.83 169.597 458.918 170.209C458.005 170.821 456.928 171.143 455.83 171.13H455.32L454.76 171.08L454.28 171L454.06 170.95L453.76 170.87C451.027 170.002 448.588 168.396 446.71 166.23Z" fill="#F5F5F5"/>
<path d="M448.09 133.58C448.348 134.062 448.755 134.448 449.25 134.68C450.42 135.239 451.544 135.891 452.61 136.63C453.06 136.94 453.61 136.96 453.77 136.63L456.54 132.39C456.576 132.337 456.624 132.292 456.68 132.26H456.73L459.48 130.66C458.9 130.32 458.32 130.02 457.76 129.76L457.55 129.64C457.346 129.513 457.158 129.362 456.99 129.19C456.918 129.122 456.851 129.048 456.79 128.97C456.746 128.923 456.708 128.869 456.68 128.81L456.6 128.66L448.09 133.58Z" fill="#EBEBEB"/>
<path d="M462.28 145.93C462.271 146.347 462.386 146.758 462.61 147.11C463.613 148.636 464.528 150.219 465.35 151.85C465.418 151.984 465.51 152.106 465.62 152.21L474.13 147.3C474.069 147.247 474.015 147.187 473.97 147.12C473.92 147.065 473.876 147.004 473.84 146.94C473.029 145.298 472.117 143.708 471.11 142.18C471.053 142.104 471.009 142.02 470.98 141.93C470.942 141.88 470.918 141.822 470.91 141.76C470.904 141.727 470.904 141.693 470.91 141.66C470.91 141.66 470.91 141.5 470.86 141.43C470.836 141.311 470.836 141.189 470.86 141.07L462.28 145.93Z" fill="#EBEBEB"/>
<path d="M459.48 130.67L465.17 127.37C465.242 127.326 465.325 127.302 465.41 127.3C465.532 127.311 465.651 127.347 465.76 127.405C465.868 127.464 465.963 127.543 466.04 127.64L469.6 131.4L471.99 133.92C472.184 134.131 472.328 134.384 472.41 134.66L466.49 138.05L463.9 139.54C463.815 139.283 463.675 139.047 463.49 138.85L463.41 138.77L457.54 132.56C457.448 132.434 457.321 132.34 457.175 132.288C457.028 132.236 456.87 132.23 456.72 132.27L459.48 130.67Z" fill="#F5F5F5"/>
<path d="M438.05 124.36C438.199 124.299 438.36 124.275 438.52 124.29L443.94 124.84C444.277 124.873 444.593 125.017 444.84 125.25L453.35 120.34C453.104 120.103 452.788 119.952 452.45 119.91L447.02 119.37C446.837 119.345 446.651 119.381 446.49 119.47L445.02 120.32L444.31 120.74L442.11 122.02L440.97 122.68C440.68 122.84 440.4 123.01 440.13 123.15L438.05 124.36Z" fill="#F5F5F5"/>
<path d="M465.62 152.22C465.895 152.507 466.24 152.717 466.62 152.83L471.71 154.05C472.077 154.15 472.405 154.359 472.65 154.65L481.18 149.75C480.923 149.441 480.572 149.223 480.18 149.13L475.09 147.9C474.71 147.797 474.364 147.593 474.09 147.31L465.62 152.22Z" fill="#E6E6E6"/>
<path d="M469.479 170.54C469.574 170.814 469.712 171.071 469.889 171.3L475.079 177.59C475.232 177.775 475.344 177.989 475.409 178.22L483.909 173.31C483.851 173.071 483.738 172.848 483.579 172.66L478.389 166.37C478.212 166.15 478.076 165.899 477.989 165.63L469.479 170.54Z" fill="#E6E6E6"/>
<path d="M481.089 160.89L480.939 160.99L481.139 160.88L481.519 160.66L481.089 160.89Z" fill="#E0E0E0"/>
<path d="M446.71 166.23C448.597 168.378 451.04 169.963 453.77 170.81L454.06 170.88L454.27 170.93L454.76 171.01L455.32 171.06H455.67C455.723 171.07 455.777 171.07 455.83 171.06C456.929 171.073 458.006 170.752 458.918 170.139C459.83 169.527 460.535 168.652 460.94 167.63C461.336 166.728 461.589 165.77 461.69 164.79C461.27 164.59 460.84 164.37 460.4 164.12C454.4 160.64 449.51 152.21 449.51 145.26C449.51 144.73 449.51 144.26 449.57 143.78C448.368 143.21 447.05 142.93 445.72 142.96H445.49H445.29H445.08C444.137 143.1 443.248 143.485 442.5 144.077C441.753 144.668 441.173 145.445 440.82 146.33C438.52 151.49 441.16 160.37 446.71 166.23Z" fill="#E0E0E0"/>
<path d="M462.28 145.93L470.78 141.03C470.765 140.964 470.765 140.896 470.78 140.83L472.44 135.22C472.498 135.038 472.498 134.842 472.44 134.66L466.52 138.05L463.93 139.54C463.993 139.739 463.993 139.952 463.93 140.15L462.28 145.76C462.269 145.816 462.269 145.874 462.28 145.93Z" fill="#E0E0E0"/>
<path d="M444.84 125.25C444.966 125.363 445.065 125.503 445.13 125.66L448.07 133.55L456.58 128.64L453.64 120.75C453.58 120.599 453.483 120.465 453.36 120.36L444.84 125.25Z" fill="#E0E0E0"/>
<path d="M429 129.51C429.138 129.478 429.283 129.486 429.417 129.532C429.551 129.577 429.67 129.66 429.76 129.77L435.3 134.83C435.451 134.995 435.654 135.105 435.875 135.141C436.097 135.178 436.324 135.138 436.52 135.03C437.231 134.454 438.027 133.992 438.88 133.66C439.079 133.59 439.245 133.449 439.348 133.265C439.451 133.081 439.484 132.866 439.44 132.66L437.74 124.9C437.711 124.796 437.718 124.685 437.759 124.585C437.801 124.485 437.875 124.402 437.97 124.35L440.05 123.14C439.984 123.125 439.916 123.125 439.85 123.14L439.73 123.22L429 129.51Z" fill="#E0E0E0"/>
<path d="M426.61 149.7C426.717 149.65 426.833 149.623 426.95 149.62L431.6 149.36C431.804 149.36 431.999 149.281 432.145 149.139C432.291 148.997 432.375 148.803 432.38 148.6C432.32 147.86 432.27 147.13 432.27 146.42L426.61 149.7Z" fill="#E0E0E0"/>
<path d="M474 147.13C474.045 147.197 474.099 147.257 474.16 147.31L474 147.13Z" fill="#E0E0E0"/>
<path d="M481.199 149.75C481.282 149.85 481.344 149.965 481.379 150.09L481.699 151.16L483.369 156.79L483.939 158.72C483.975 158.824 483.975 158.936 483.939 159.04C483.927 159.097 483.903 159.152 483.869 159.2C483.84 159.258 483.795 159.306 483.739 159.34L483.649 159.4L482.789 159.9L482.559 160.04L481.869 160.44L481.509 160.66L481.079 160.89L480.929 160.99L480.479 161.24L477.999 162.67L475.229 164.28C475.337 164.214 475.419 164.114 475.462 163.997C475.506 163.879 475.508 163.75 475.469 163.63L473.219 156.05L472.899 154.99C472.859 154.855 472.787 154.732 472.689 154.63L481.199 149.75Z" fill="#E0E0E0"/>
<path d="M445.07 181.75L450.78 178.44C450.24 178.12 449.69 177.77 449.15 177.44C448.61 177.11 448.15 177.11 447.99 177.44L445.21 181.68C445.169 181.712 445.121 181.736 445.07 181.75Z" fill="#E0E0E0"/>
<path d="M462.28 181.35L463.99 189.12C464.013 189.22 464.004 189.325 463.962 189.419C463.921 189.513 463.85 189.591 463.76 189.64C464.1 189.45 469.47 186.35 472.56 184.55C472.33 184.53 472.115 184.431 471.95 184.27L466.42 179.21C466.27 179.046 466.07 178.936 465.851 178.898C465.632 178.86 465.406 178.896 465.21 179C464.494 179.583 463.691 180.049 462.83 180.38C462.639 180.452 462.479 180.588 462.379 180.765C462.278 180.943 462.243 181.15 462.28 181.35Z" fill="#E0E0E0"/>
<path d="M469.39 169.92C469.374 170.131 469.404 170.343 469.48 170.54L477.99 165.63C477.912 165.43 477.878 165.215 477.89 165C477.961 164.232 477.991 163.461 477.98 162.69L475.21 164.3C475.098 164.368 474.971 164.406 474.84 164.41L470.18 164.67C470.078 164.666 469.977 164.683 469.881 164.719C469.786 164.756 469.7 164.811 469.627 164.882C469.554 164.953 469.496 165.039 469.457 165.133C469.418 165.227 469.399 165.328 469.4 165.43C469.532 166.924 469.529 168.427 469.39 169.92Z" fill="#E0E0E0"/>
<path d="M472.79 184.49C472.97 184.39 473.85 183.89 475.03 183.2L475.45 182.96L479.04 180.88L480.04 180.32L481.28 179.6C481.316 179.585 481.347 179.561 481.37 179.53C481.397 179.499 481.42 179.465 481.44 179.43L483.9 174C483.948 173.85 483.948 173.69 483.9 173.54V173.36L475.4 178.27C475.475 178.484 475.475 178.716 475.4 178.93L472.93 184.37C472.897 184.424 472.848 184.466 472.79 184.49Z" fill="#E0E0E0"/>
<path d="M306.74 89.6304V322.2C306.812 323.501 307.188 324.766 307.837 325.895C308.487 327.024 309.392 327.985 310.48 328.7L413.61 388.23C415.67 389.43 417.35 388.45 417.35 386.06V153.5C417.278 152.2 416.903 150.935 416.253 149.806C415.604 148.677 414.698 147.716 413.61 147L310.48 87.4704C308.42 86.2704 306.74 87.2404 306.74 89.6304ZM312.13 117.39C312.13 115.39 313.57 114.51 315.35 115.54L409.11 169.66C410.047 170.273 410.826 171.097 411.385 172.067C411.945 173.036 412.268 174.123 412.33 175.24V357.41C412.33 359.47 410.88 360.29 409.11 359.27L315.35 305.14C313.57 304.14 312.13 302.81 312.13 300.77V117.39Z" fill="#43BA8F"/>
<path opacity="0.5" d="M306.74 89.6304V322.2C306.812 323.501 307.188 324.766 307.837 325.895C308.487 327.024 309.392 327.985 310.48 328.7L413.61 388.23C415.67 389.43 417.35 388.45 417.35 386.06V153.5C417.278 152.2 416.903 150.935 416.253 149.806C415.604 148.677 414.698 147.716 413.61 147L310.48 87.4704C308.42 86.2704 306.74 87.2404 306.74 89.6304ZM312.13 117.39C312.13 115.39 313.57 114.51 315.35 115.54L409.11 169.66C410.047 170.273 410.826 171.097 411.385 172.067C411.945 173.036 412.268 174.123 412.33 175.24V357.41C412.33 359.47 410.88 360.29 409.11 359.27L315.35 305.14C313.57 304.14 312.13 302.81 312.13 300.77V117.39Z" fill="black"/>
<path d="M414.07 388.46C415.184 388.93 416.387 389.153 417.596 389.113C418.804 389.074 419.99 388.772 421.07 388.23L425.36 385.75C426.456 385.041 427.368 384.082 428.022 382.952C428.675 381.822 429.052 380.553 429.12 379.25V146.7C429.1 145.732 428.878 144.778 428.47 143.9C428.34 143.592 428.193 143.292 428.03 143L416.23 149.81C416.479 150.254 416.696 150.715 416.88 151.19C417.161 151.932 417.313 152.717 417.33 153.51V386.07C417.35 388.27 415.92 389.27 414.07 388.46Z" fill="#43BA8F"/>
<path opacity="0.7" d="M414.07 388.46C415.184 388.93 416.387 389.153 417.596 389.113C418.804 389.074 419.99 388.772 421.07 388.23L425.36 385.75C426.456 385.041 427.368 384.082 428.022 382.952C428.675 381.822 429.052 380.553 429.12 379.25V146.7C429.1 145.732 428.878 144.778 428.47 143.9C428.34 143.592 428.193 143.292 428.03 143L416.23 149.81C416.479 150.254 416.696 150.715 416.88 151.19C417.161 151.932 417.313 152.717 417.33 153.51V386.07C417.35 388.27 415.92 389.27 414.07 388.46Z" fill="black"/>
<path d="M361.15 338C357.88 336.12 355.23 337.65 355.23 341.42C355.341 343.475 355.935 345.475 356.964 347.258C357.992 349.041 359.427 350.556 361.15 351.68C364.42 353.56 367.07 352.03 367.07 348.26C366.96 346.205 366.366 344.205 365.337 342.422C364.309 340.639 362.874 339.124 361.15 338Z" stroke="#E6E6E6" stroke-miterlimit="10"/>
<path d="M362 122.25C360.62 121.45 359.49 122.1 359.49 123.7C359.54 124.572 359.792 125.421 360.228 126.178C360.664 126.935 361.271 127.579 362 128.06C363.39 128.86 364.52 128.21 364.52 126.6C364.472 125.728 364.219 124.879 363.781 124.123C363.343 123.368 362.733 122.726 362 122.25Z" fill="black"/>
<path d="M371.75 137.54L352.34 126.33C351.18 125.67 350.24 126.14 350.24 127.39C350.291 128.096 350.508 128.78 350.873 129.386C351.238 129.993 351.74 130.505 352.34 130.88L371.75 142.08C372.91 142.75 373.85 142.28 373.85 141.02C373.798 140.316 373.58 139.634 373.216 139.03C372.851 138.425 372.349 137.915 371.75 137.54Z" fill="black"/>
<path d="M312.13 300.77C312.13 302.77 313.57 304.12 315.35 305.14L409.11 359.27C410.88 360.27 412.33 359.47 412.33 357.41V175.24C412.268 174.123 411.944 173.036 411.385 172.066C410.826 171.097 410.046 170.273 409.11 169.66L315.35 115.54C313.57 114.54 312.13 115.34 312.13 117.39V300.77Z" fill="#43BA8F"/>
<path opacity="0.5" d="M312.13 300.77C312.13 302.77 313.57 304.12 315.35 305.14L409.11 359.27C410.88 360.27 412.33 359.47 412.33 357.41V175.24C412.268 174.123 411.944 173.036 411.385 172.066C410.826 171.097 410.046 170.273 409.11 169.66L315.35 115.54C313.57 114.54 312.13 115.34 312.13 117.39V300.77Z" fill="white"/>
<path d="M318.4 131.17V129.46C318.4 129.09 318.55 128.87 318.73 128.97L318.82 129.03C318.935 129.139 319.023 129.272 319.08 129.419C319.138 129.565 319.161 129.723 319.15 129.88V131.59C319.15 131.96 319 132.18 318.82 132.07H318.73C318.61 131.955 318.518 131.815 318.461 131.659C318.404 131.503 318.383 131.336 318.4 131.17Z" fill="#455A64"/>
<path d="M319.891 132V129C319.891 128.63 320.031 128.41 320.211 128.52H320.301C320.414 128.631 320.503 128.765 320.56 128.914C320.617 129.062 320.641 129.221 320.631 129.38V132.33C320.631 132.7 320.481 132.91 320.301 132.81L320.211 132.76C320.01 132.557 319.896 132.285 319.891 132Z" fill="#455A64"/>
<path d="M321.37 132.88V128.68C321.37 128.31 321.52 128.1 321.7 128.2L321.79 128.25C321.904 128.362 321.992 128.496 322.049 128.644C322.106 128.793 322.13 128.952 322.12 129.11V133.31C322.12 133.68 321.97 133.89 321.79 133.79H321.7C321.58 133.673 321.488 133.531 321.431 133.373C321.374 133.215 321.353 133.047 321.37 132.88Z" fill="#455A64"/>
<path d="M322.86 133.73V126.49C322.86 126.12 323 125.9 323.18 126.01H323.27C323.383 126.122 323.471 126.256 323.528 126.404C323.585 126.553 323.61 126.712 323.6 126.87V134.11C323.6 134.48 323.45 134.7 323.27 134.59H323.18C323.067 134.479 322.98 134.344 322.925 134.196C322.87 134.047 322.847 133.888 322.86 133.73Z" fill="#455A64"/>
<path d="M326.88 136.55C326.845 136.465 326.828 136.373 326.83 136.28V135.22L325.17 134.22C325.128 134.198 325.091 134.166 325.061 134.128C325.032 134.09 325.011 134.047 325 134V133.62C324.992 133.557 324.992 133.493 325 133.43C325.014 133.383 325.03 133.336 325.05 133.29L326.82 130.5C326.82 130.5 326.88 130.42 326.91 130.41C326.94 130.4 326.97 130.41 327.02 130.41L327.25 130.55C327.322 130.585 327.379 130.646 327.41 130.72C327.428 130.813 327.428 130.908 327.41 131V134.72L327.78 134.93C327.845 134.968 327.897 135.023 327.93 135.09C327.947 135.186 327.947 135.284 327.93 135.38V135.63C327.951 135.702 327.951 135.778 327.93 135.85C327.93 135.85 327.85 135.85 327.78 135.85L327.41 135.64V136.7C327.431 136.772 327.431 136.848 327.41 136.92C327.41 136.92 327.33 136.92 327.25 136.92L326.97 136.76C326.918 136.702 326.886 136.628 326.88 136.55ZM326.94 134.38V131.73L325.73 133.73L326.94 134.38Z" fill="#455A64"/>
<path d="M328.851 137.05C328.507 136.178 328.34 135.247 328.361 134.31C328.286 133.553 328.458 132.792 328.851 132.14C329.184 131.76 329.644 131.74 330.231 132.08C330.723 132.359 331.131 132.767 331.411 133.26C331.425 133.309 331.425 133.361 331.411 133.41C331.414 133.443 331.414 133.477 331.411 133.51L331.261 133.89C331.261 133.89 331.261 133.95 331.201 133.94C331.171 133.916 331.147 133.885 331.131 133.85C330.919 133.506 330.627 133.218 330.281 133.01C329.881 132.78 329.561 132.79 329.341 133.06C329.06 133.555 328.941 134.125 329.001 134.69C328.98 135.372 329.092 136.051 329.331 136.69C329.497 137.153 329.814 137.548 330.231 137.81C330.358 137.889 330.496 137.95 330.641 137.99C330.749 138.019 330.862 138.019 330.971 137.99V136.3L330.281 135.9C330.213 135.862 330.16 135.802 330.131 135.73C330.112 135.638 330.112 135.543 330.131 135.45V135.21C330.131 135.09 330.131 135.02 330.131 134.99C330.131 134.96 330.211 134.99 330.281 134.99L331.381 135.63C331.46 135.674 331.52 135.745 331.551 135.83C331.586 135.937 331.603 136.048 331.601 136.16V138.62C331.609 138.687 331.609 138.754 331.601 138.82C331.592 138.857 331.571 138.889 331.541 138.91C331.32 138.988 331.083 139.008 330.852 138.969C330.622 138.931 330.404 138.835 330.221 138.69C329.598 138.307 329.117 137.731 328.851 137.05Z" fill="#455A64"/>
<path d="M404.74 174C404.636 173.604 404.404 173.252 404.08 173L399.08 170.12C398.65 169.87 398.32 170.36 398.32 171.24V175C398.326 175.519 398.421 176.033 398.6 176.52C398.672 176.715 398.763 176.903 398.87 177.08C398.968 177.247 399.102 177.39 399.26 177.5L404.26 180.38C404.69 180.62 405.03 180.13 405.03 179.25V175.52C405.021 175.001 404.923 174.487 404.74 174ZM398.8 176.25C398.724 176.039 398.687 175.815 398.69 175.59V171.86C398.69 171.21 398.96 170.81 399.27 171L404.27 173.88C404.357 173.932 404.429 174.004 404.48 174.09C404.513 174.148 404.54 174.208 404.56 174.27C404.636 174.485 404.674 174.712 404.67 174.94V178.66C404.67 179.31 404.4 179.71 404.09 179.52L399.09 176.64C398.943 176.543 398.839 176.393 398.8 176.22V176.25Z" fill="#455A64"/>
<path d="M401.94 173.18V177.59L399.26 176L399.17 175.93C399.176 175.88 399.176 175.83 399.17 175.78V172.43C399.17 171.96 399.38 171.66 399.61 171.79L401.94 173.18Z" fill="#455A64"/>
<path d="M405.271 175.66C405.461 175.76 405.611 176.47 405.611 177.23V177.92C405.611 178.69 405.461 179.24 405.271 179.15L404.931 178.99V175.47L405.271 175.66Z" fill="#455A64"/>
<path d="M392.9 172.41C392.9 173.23 392.47 173.65 391.9 173.34C391.587 173.099 391.334 172.788 391.161 172.432C390.987 172.077 390.898 171.686 390.9 171.29C390.9 170.47 391.33 170.06 391.9 170.36C392.215 170.601 392.469 170.911 392.642 171.267C392.816 171.623 392.904 172.014 392.9 172.41Z" fill="#455A64"/>
<path d="M391.93 167.93C391.741 167.795 391.523 167.706 391.292 167.673C391.062 167.64 390.827 167.662 390.608 167.739C390.388 167.815 390.19 167.944 390.031 168.113C389.871 168.282 389.754 168.487 389.69 168.71C389.652 168.842 389.641 168.98 389.658 169.116C389.676 169.252 389.72 169.383 389.79 169.5C389.97 169.82 390.24 169.9 390.35 169.64C390.391 169.479 390.47 169.331 390.582 169.208C390.694 169.086 390.835 168.993 390.992 168.938C391.149 168.884 391.316 168.869 391.48 168.896C391.644 168.922 391.799 168.989 391.93 169.09C392.732 169.662 393.295 170.51 393.51 171.47C393.62 171.85 393.89 172.09 394.08 171.97C394.16 171.878 394.212 171.765 394.229 171.645C394.247 171.524 394.23 171.401 394.18 171.29C393.858 169.937 393.059 168.744 391.93 167.93Z" fill="#455A64"/>
<path d="M391.93 165.55C391.653 165.348 391.334 165.21 390.997 165.147C390.66 165.084 390.313 165.098 389.982 165.187C389.651 165.277 389.344 165.439 389.084 165.663C388.824 165.887 388.618 166.166 388.48 166.48C388.433 166.616 388.416 166.761 388.429 166.904C388.443 167.047 388.488 167.186 388.56 167.31C388.73 167.63 388.99 167.71 389.11 167.48C389.221 167.223 389.389 166.995 389.6 166.812C389.812 166.629 390.062 166.496 390.332 166.423C390.602 166.35 390.885 166.338 391.16 166.39C391.435 166.441 391.695 166.554 391.92 166.72C393.293 167.689 394.289 169.102 394.74 170.72C394.86 171.08 395.12 171.31 395.29 171.19C395.45 171.09 395.48 170.77 395.37 170.45C394.816 168.472 393.602 166.743 391.93 165.55Z" fill="#455A64"/>
<path d="M306.771 89.0002C307.041 87.0002 308.601 86.3402 310.481 87.4302L413.611 147C414.719 147.691 415.632 148.655 416.261 149.8L428.061 142.99C427.425 141.849 426.51 140.889 425.401 140.2L322.291 80.6602C321.127 80.0683 319.841 79.7598 318.536 79.7598C317.23 79.7598 315.944 80.0683 314.781 80.6602L310.481 83.1302C309.479 83.7876 308.63 84.6514 307.991 85.6639C307.351 86.6763 306.935 87.8138 306.771 89.0002Z" fill="#43BA8F"/>
<path opacity="0.2" d="M306.771 89.0002C307.041 87.0002 308.601 86.3402 310.481 87.4302L413.611 147C414.719 147.691 415.632 148.655 416.261 149.8L428.061 142.99C427.425 141.849 426.51 140.889 425.401 140.2L322.291 80.6602C321.127 80.0683 319.841 79.7598 318.536 79.7598C317.23 79.7598 315.944 80.0683 314.781 80.6602L310.481 83.1302C309.479 83.7876 308.63 84.6514 307.991 85.6639C307.351 86.6763 306.935 87.8138 306.771 89.0002Z" fill="black"/>
<path d="M189.519 87.4699L86.3894 147C85.3013 147.716 84.3961 148.676 83.7466 149.805C83.0971 150.934 82.7213 152.199 82.6494 153.5V386.06C82.6494 388.45 84.3294 389.43 86.3894 388.23L189.519 328.7C190.608 327.984 191.513 327.023 192.162 325.895C192.812 324.766 193.188 323.5 193.259 322.2V89.6299C193.259 87.2399 191.579 86.2699 189.519 87.4699ZM187.869 300.77C187.869 302.77 186.429 304.12 184.649 305.14L90.8894 359.27C89.1194 360.27 87.6694 359.47 87.6694 357.41V175.24C87.7313 174.123 88.055 173.035 88.6143 172.066C89.1736 171.097 89.953 170.273 90.8894 169.66L184.649 115.54C186.429 114.54 187.869 115.34 187.869 117.39V300.77Z" fill="#43BA8F"/>
<path opacity="0.5" d="M189.519 87.4699L86.3894 147C85.3013 147.716 84.3961 148.676 83.7466 149.805C83.0971 150.934 82.7213 152.199 82.6494 153.5V386.06C82.6494 388.45 84.3294 389.43 86.3894 388.23L189.519 328.7C190.608 327.984 191.513 327.023 192.162 325.895C192.812 324.766 193.188 323.5 193.259 322.2V89.6299C193.259 87.2399 191.579 86.2699 189.519 87.4699ZM187.869 300.77C187.869 302.77 186.429 304.12 184.649 305.14L90.8894 359.27C89.1194 360.27 87.6694 359.47 87.6694 357.41V175.24C87.7313 174.123 88.055 173.035 88.6143 172.066C89.1736 171.097 89.953 170.273 90.8894 169.66L184.649 115.54C186.429 114.54 187.869 115.34 187.869 117.39V300.77Z" fill="black"/>
<path d="M85.9299 388.46C84.8159 388.93 83.6131 389.153 82.4046 389.113C81.1961 389.074 80.0106 388.772 78.9299 388.23L74.6399 385.75C73.5442 385.041 72.6321 384.082 71.9785 382.952C71.325 381.822 70.9485 380.553 70.8799 379.25V146.7C70.9005 145.732 71.1219 144.778 71.5299 143.9C71.6604 143.592 71.8073 143.292 71.9699 143L83.7699 149.81C83.521 150.254 83.3038 150.715 83.1199 151.19C82.8395 151.932 82.6873 152.717 82.6699 153.51V386.07C82.6499 388.27 84.0799 389.27 85.9299 388.46Z" fill="#43BA8F"/>
<path opacity="0.7" d="M85.9299 388.46C84.8159 388.93 83.6131 389.153 82.4046 389.113C81.1961 389.074 80.0106 388.772 78.9299 388.23L74.6399 385.75C73.5442 385.041 72.6321 384.082 71.9785 382.952C71.325 381.822 70.9485 380.553 70.8799 379.25V146.7C70.9005 145.732 71.1219 144.778 71.5299 143.9C71.6604 143.592 71.8073 143.292 71.9699 143L83.7699 149.81C83.521 150.254 83.3038 150.715 83.1199 151.19C82.8395 151.932 82.6873 152.717 82.6699 153.51V386.07C82.6499 388.27 84.0799 389.27 85.9299 388.46Z" fill="black"/>
<path d="M138.85 338C142.12 336.12 144.77 337.65 144.77 341.42C144.659 343.475 144.065 345.475 143.037 347.258C142.008 349.041 140.574 350.556 138.85 351.68C135.58 353.56 132.93 352.03 132.93 348.26C133.04 346.205 133.634 344.205 134.663 342.422C135.691 340.639 137.126 339.124 138.85 338V338Z" stroke="#E6E6E6" stroke-miterlimit="10"/>
<path d="M137.999 122.25C139.379 121.45 140.509 122.1 140.509 123.7C140.46 124.572 140.207 125.421 139.772 126.178C139.336 126.935 138.729 127.579 137.999 128.06C136.609 128.86 135.479 128.21 135.479 126.6C135.528 125.728 135.781 124.879 136.219 124.123C136.657 123.368 137.267 122.726 137.999 122.25Z" fill="black"/>
<path d="M128.249 137.54L147.659 126.33C148.819 125.67 149.759 126.14 149.759 127.39C149.708 128.096 149.492 128.78 149.127 129.386C148.762 129.993 148.259 130.505 147.659 130.88L128.249 142.08C127.089 142.75 126.149 142.28 126.149 141.02C126.202 140.316 126.419 139.634 126.784 139.03C127.149 138.425 127.651 137.915 128.249 137.54Z" fill="black"/>
<path d="M187.87 300.77C187.87 302.77 186.43 304.12 184.65 305.14L90.8899 359.27C89.1199 360.27 87.6699 359.47 87.6699 357.41V175.24C87.7318 174.123 88.0555 173.036 88.6148 172.066C89.1741 171.097 89.9535 170.273 90.8899 169.66L184.65 115.54C186.43 114.54 187.87 115.34 187.87 117.39V300.77Z" fill="#43BA8F"/>
<path opacity="0.9" d="M187.87 300.77C187.87 302.77 186.43 304.12 184.65 305.14L90.8899 359.27C89.1199 360.27 87.6699 359.47 87.6699 357.41V175.24C87.7318 174.123 88.0555 173.036 88.6148 172.066C89.1741 171.097 89.9535 170.273 90.8899 169.66L184.65 115.54C186.43 114.54 187.87 115.34 187.87 117.39V300.77Z" fill="white"/>
<path d="M163.47 139.57C163.47 140.4 163.9 140.81 164.47 140.5C164.779 140.265 165.029 139.963 165.203 139.616C165.376 139.27 165.467 138.888 165.47 138.5C165.47 137.68 165.04 137.26 164.47 137.57C164.161 137.804 163.91 138.107 163.737 138.453C163.563 138.8 163.472 139.182 163.47 139.57Z" fill="#455A64"/>
<path d="M162.19 138.47C162.14 138.581 162.123 138.704 162.141 138.825C162.158 138.945 162.21 139.058 162.29 139.15C162.48 139.26 162.75 139.02 162.86 138.64C163.081 137.681 163.642 136.836 164.44 136.26C164.572 136.159 164.727 136.092 164.892 136.066C165.056 136.04 165.225 136.056 165.381 136.112C165.538 136.167 165.679 136.261 165.79 136.385C165.902 136.509 165.981 136.658 166.02 136.82C166.13 137.07 166.4 137 166.58 136.67C166.651 136.551 166.697 136.418 166.714 136.281C166.731 136.143 166.719 136.003 166.68 135.87C166.615 135.647 166.497 135.443 166.337 135.275C166.177 135.107 165.979 134.98 165.759 134.905C165.54 134.829 165.305 134.808 165.076 134.842C164.846 134.876 164.628 134.964 164.44 135.1C163.309 135.916 162.51 137.113 162.19 138.47Z" fill="#455A64"/>
<path d="M161 137.63C160.89 137.95 160.92 138.27 161.08 138.37C161.25 138.48 161.51 138.26 161.63 137.9C162.086 136.284 163.081 134.873 164.45 133.9C164.676 133.735 164.936 133.622 165.212 133.571C165.487 133.521 165.771 133.533 166.041 133.607C166.311 133.681 166.561 133.815 166.772 133.999C166.983 134.183 167.15 134.413 167.26 134.67C167.38 134.89 167.64 134.82 167.81 134.5C167.881 134.375 167.923 134.236 167.936 134.093C167.948 133.95 167.929 133.806 167.88 133.67C167.743 133.357 167.537 133.079 167.277 132.856C167.018 132.633 166.711 132.472 166.381 132.384C166.051 132.295 165.705 132.282 165.369 132.346C165.033 132.409 164.715 132.548 164.44 132.75C162.771 133.938 161.558 135.66 161 137.63Z" fill="#455A64"/>
<path d="M93.5999 180.8V179.32C93.5963 179.167 93.6278 179.016 93.692 178.877C93.7561 178.738 93.8512 178.616 93.9699 178.52L94.0799 178.46C94.2799 178.34 94.4499 178.46 94.4499 178.82V180.3C94.4534 180.453 94.4219 180.604 94.3578 180.743C94.2936 180.882 94.1986 181.004 94.0799 181.1L93.9699 181.16C93.7599 181.28 93.5999 181.12 93.5999 180.8Z" fill="#455A64"/>
<path d="M95.3098 179.81V177.25C95.3063 177.097 95.3378 176.946 95.4019 176.807C95.4661 176.669 95.5612 176.546 95.6798 176.45L95.7898 176.39C95.9998 176.27 96.1698 176.39 96.1698 176.75V179.31C96.1722 179.464 96.1391 179.616 96.0732 179.755C96.0073 179.893 95.9104 180.015 95.7898 180.11L95.6798 180.17C95.4798 180.29 95.3098 180.13 95.3098 179.81Z" fill="#455A64"/>
<path d="M97 178.82V175.18C96.9992 175.028 97.033 174.878 97.0988 174.741C97.1647 174.604 97.2608 174.484 97.38 174.39L97.48 174.33C97.69 174.21 97.86 174.33 97.86 174.69V178.32C97.8624 178.474 97.8293 178.626 97.7634 178.765C97.6975 178.903 97.6005 179.025 97.48 179.12L97.38 179.18C97.19 179.3 97 179.14 97 178.82Z" fill="#455A64"/>
<path d="M98.7403 177.83V171.55C98.7383 171.399 98.7706 171.25 98.8346 171.113C98.8987 170.976 98.993 170.855 99.1103 170.76L99.2203 170.7C99.4303 170.58 99.6003 170.7 99.6003 171.06V177.33C99.6039 177.483 99.5724 177.635 99.5082 177.773C99.4441 177.912 99.349 178.034 99.2303 178.13L99.1203 178.19C98.9103 178.31 98.7403 178.15 98.7403 177.83Z" fill="#455A64"/>
<path d="M103.38 175.58C103.38 175.58 103.38 175.49 103.38 175.4V174.48L101.45 175.59C101.35 175.65 101.3 175.59 101.3 175.48V175.15C101.294 175.09 101.294 175.03 101.3 174.97L101.37 174.78L103.37 170.3C103.399 170.238 103.432 170.178 103.47 170.12C103.51 170.079 103.553 170.042 103.6 170.01L103.87 169.86C103.95 169.807 104.01 169.807 104.05 169.86C104.075 169.925 104.075 169.996 104.05 170.06V173.27L104.48 173.03C104.56 172.98 104.61 172.97 104.65 173.03C104.69 173.09 104.65 173.12 104.65 173.22V173.44C104.668 173.519 104.668 173.601 104.65 173.68C104.609 173.748 104.55 173.803 104.48 173.84L104.05 174.09V175C104.059 175.084 104.041 175.168 104 175.242C103.959 175.315 103.896 175.374 103.82 175.41L103.5 175.59C103.47 175.59 103.41 175.6 103.38 175.58ZM103.45 173.58V171.28L102.06 174.38L103.45 173.58Z" fill="#455A64"/>
<path d="M105.66 173.7C105.28 173.42 105.1 172.82 105.1 171.9C105.087 171.05 105.279 170.21 105.66 169.45C106.021 168.756 106.573 168.181 107.25 167.79C107.491 167.647 107.75 167.536 108.02 167.46C108.215 167.399 108.425 167.399 108.62 167.46C108.626 167.471 108.63 167.483 108.63 167.495C108.63 167.507 108.626 167.519 108.62 167.53C108.627 167.566 108.627 167.604 108.62 167.64L108.44 168.14C108.44 168.21 108.44 168.25 108.37 168.26H108.29C107.938 168.226 107.585 168.314 107.29 168.51C106.827 168.784 106.449 169.182 106.2 169.66C105.926 170.223 105.792 170.844 105.81 171.47C105.81 172.18 105.94 172.64 106.19 172.83C106.44 173.02 106.8 173 107.24 172.75C107.405 172.653 107.563 172.542 107.71 172.42C107.851 172.312 107.979 172.188 108.09 172.05V170.56L107.29 171.02C107.21 171.07 107.15 171.08 107.12 171.02C107.097 170.959 107.097 170.891 107.12 170.83V170.62C107.101 170.538 107.101 170.452 107.12 170.37C107.161 170.302 107.22 170.247 107.29 170.21L108.57 169.48C108.66 169.42 108.72 169.42 108.76 169.48C108.8 169.54 108.82 169.59 108.82 169.71V171.84C108.827 171.907 108.827 171.974 108.82 172.04C108.804 172.095 108.776 172.146 108.74 172.19C108.339 172.747 107.82 173.207 107.22 173.54C106.57 173.92 106 174 105.66 173.7Z" fill="#455A64"/>
<path d="M178.91 125.77C178.813 125.668 178.684 125.605 178.544 125.59C178.405 125.576 178.265 125.611 178.15 125.69L172.39 129C172.108 129.224 171.882 129.51 171.729 129.836C171.576 130.163 171.501 130.52 171.51 130.88V134.1C171.494 134.28 171.516 134.462 171.572 134.634C171.629 134.805 171.72 134.964 171.84 135.1C171.924 135.186 172.032 135.246 172.15 135.27C172.306 135.297 172.466 135.265 172.6 135.18L178.36 131.86C178.642 131.636 178.868 131.349 179.021 131.023C179.173 130.697 179.248 130.34 179.24 129.98V126.76C179.254 126.581 179.232 126.401 179.175 126.231C179.118 126.061 179.028 125.904 178.91 125.77ZM172.05 134.65C171.955 134.516 171.912 134.353 171.93 134.19V131C171.927 130.726 171.986 130.456 172.102 130.208C172.218 129.961 172.388 129.743 172.6 129.57L178.36 126.25C178.431 126.204 178.515 126.183 178.6 126.19H178.7C178.795 126.323 178.837 126.487 178.82 126.65V129.87C178.823 130.143 178.764 130.414 178.648 130.661C178.532 130.909 178.362 131.127 178.15 131.3L172.39 134.62C172.25 134.72 172.13 134.73 172.05 134.65Z" fill="#455A64"/>
<path d="M175.679 128.34V132.16L172.579 133.95H172.479C172.485 133.907 172.485 133.863 172.479 133.82V131C172.48 130.797 172.525 130.597 172.611 130.414C172.698 130.231 172.823 130.069 172.979 129.94L175.679 128.34Z" fill="#455A64"/>
<path d="M179.53 126.6C179.74 126.48 179.91 126.92 179.91 127.6V128.2C179.96 128.715 179.821 129.23 179.52 129.65L179.14 129.9V126.9L179.53 126.6Z" fill="#455A64"/>
<path d="M193.229 89.0001C192.959 87.0001 191.399 86.3401 189.519 87.4301L86.3895 147C85.2807 147.691 84.3682 148.655 83.7394 149.8L71.9395 143C72.5749 141.859 73.4903 140.899 74.5994 140.21L177.709 80.6601C178.871 80.0683 180.156 79.7598 181.459 79.7598C182.763 79.7598 184.048 80.0683 185.209 80.6601L189.519 83.1301C190.521 83.7875 191.37 84.6513 192.009 85.6637C192.649 86.6762 193.065 87.8137 193.229 89.0001Z" fill="#43BA8F"/>
<path opacity="0.2" d="M193.229 89.0001C192.959 87.0001 191.399 86.3401 189.519 87.4301L86.3895 147C85.2807 147.691 84.3682 148.655 83.7394 149.8L71.9395 143C72.5749 141.859 73.4903 140.899 74.5994 140.21L177.709 80.6601C178.871 80.0683 180.156 79.7598 181.459 79.7598C182.763 79.7598 184.048 80.0683 185.209 80.6601L189.519 83.1301C190.521 83.7875 191.37 84.6513 192.009 85.6637C192.649 86.6762 193.065 87.8137 193.229 89.0001Z" fill="black"/>
<path d="M383.11 312.58C383.11 312.58 372.42 323.28 358.21 319.19C358.21 319.19 362.49 323.41 372.56 320.58C379.35 318.67 383.11 312.58 383.11 312.58Z" fill="#43BA8F"/>
<path d="M404.33 247C404.33 247 409.79 261.1 400.33 272.44C400.33 272.44 405.92 270.24 407.4 259.88C408.37 252.86 404.33 247 404.33 247Z" fill="#43BA8F"/>
<path d="M382 317.07C392 306.78 396.35 294.77 396.45 282.5C396.45 282.5 399.36 289.8 394.82 301.32C390.28 312.84 382 317.07 382 317.07Z" fill="#43BA8F"/>
<path d="M106.131 302.19C106.131 302.19 106.001 317.31 118.881 324.58C118.881 324.58 112.881 324.48 107.881 315.32C104.431 309.14 106.131 302.19 106.131 302.19Z" fill="#43BA8F"/>
<path d="M102.87 308.25C100.647 295.459 103.57 282.307 111 271.66C111 271.66 104.42 275.95 101.5 287.99C98.5804 300.03 102.87 308.25 102.87 308.25Z" fill="#43BA8F"/>
<path d="M326.861 224L331.091 211.35C319.951 213.35 316.921 214.87 313.631 224.08L311.451 231.42L298.111 272.48C294.951 273.31 255.611 284.15 254.241 284.32C254.241 284.32 254.181 284.42 254.141 284.47C241.291 285.29 237.141 285.86 237.141 285.86C240.751 295.3 247.521 300.62 256.871 302.54V302.32V302.39C273.421 299.57 300.571 293.17 309.401 290.24C313.121 289.05 314.711 284.86 316.241 281.36C322.491 267.07 329.021 247.81 331.241 236.22C332.681 229.24 330.571 225.75 326.861 224Z" fill="#B16668"/>
<path d="M331.09 211.3C331.09 211.3 320.02 209.6 315.22 219.76C312 226.62 302.15 256 302.15 256C302.15 256 309.15 265 324.48 265.55C324.48 265.55 338.96 232.3 338.15 231.24C337.34 230.18 331.09 211.3 331.09 211.3Z" fill="#37474F"/>
<path d="M329.061 211.09C326.371 211.35 319.551 220.47 319.411 235.99C319.221 256.78 329.411 282.23 331.971 287.72C334.531 293.21 339.511 303.96 347.971 311.94C350.701 314.5 369.341 321.75 381.351 308.25C393.571 294.52 391.641 276.48 389.201 270.83C385.111 261.37 377.881 250.36 378.141 237.91C376.611 228.97 373.681 217.4 367.001 212.55C364.251 211.85 355.591 210.74 353.901 210.97L329.061 211.09Z" fill="#FAFAFA"/>
<path d="M364.261 227.59L360.851 231.87C361.851 238.66 367.001 248.47 372.991 256.3C377.661 262.41 387.161 268.71 390.991 279.5C390.883 276.536 390.299 273.609 389.261 270.83C385.171 261.37 377.941 250.36 378.201 237.91C377.951 236.43 377.651 234.91 377.311 233.3L374.111 230.4L364.261 227.59Z" fill="#EBEBEB"/>
<path d="M367.001 212.55C372.851 213.99 376.001 217.08 381.121 222.93C387.001 229.53 399.001 243.41 399.001 243.41C407.391 257.95 399.851 272.74 393.561 270.31C393.561 270.31 379.381 256.46 370.681 245.96C364.851 238.96 361.881 234.96 361.551 227.25C361.271 221.19 362.351 215 367.001 212.55Z" fill="#B16668"/>
<path d="M363.94 212C363.94 212 368.99 210.88 375.56 216.17C382.13 221.46 398.19 238.94 398.19 238.94C398.19 238.94 398.67 257.45 386.88 265.8C386.88 265.8 369.48 248.34 365.19 242.3C362.206 237.857 360.51 232.675 360.289 227.327C360.069 221.979 361.332 216.674 363.94 212Z" fill="#37474F"/>
<path d="M360.851 177C360.851 177 358.311 192.51 357.121 195.09C356.322 196.69 354.935 197.919 353.251 198.52L353.001 187.75L360.851 177Z" fill="#263238"/>
<path d="M352.601 154.49C352.601 154.49 356.791 152.38 359.661 155.05C362.531 157.72 362.721 166.9 360.561 178.79L353.341 178.41L352.601 154.49Z" fill="#263238"/>
<path d="M330.445 188.963C341.384 186.799 348.497 176.178 346.333 165.239C344.169 154.3 333.548 147.187 322.609 149.351C311.67 151.515 304.557 162.137 306.721 173.075C308.885 184.014 319.507 191.127 330.445 188.963Z" fill="#263238"/>
<path d="M353.2 156.06L359.45 150.32C359.093 149.892 358.653 149.54 358.157 149.287C357.66 149.034 357.117 148.884 356.561 148.846C356.005 148.809 355.446 148.885 354.92 149.069C354.394 149.254 353.911 149.543 353.5 149.92C352.67 150.708 352.175 151.786 352.12 152.93C352.064 154.074 352.451 155.195 353.2 156.06Z" fill="#263238"/>
<path d="M315.81 157.35C314.54 159.54 308.19 168.74 310.51 186.02C312.69 202.29 317.92 206.11 320.7 206.97C323.48 207.83 329.06 207.34 333.94 205.97L334.82 212.88C334.82 212.88 331.97 217.46 335.82 219.99C339.67 222.52 348.14 220.66 350.1 219.1C354.71 215.41 354.01 212.3 354.01 212.3L353.01 189.86C353.01 189.86 356.48 192.72 360.95 189.35C365.17 186.18 365.36 177.8 361.8 174.92C358.24 172.04 352.53 173.76 351.75 178.39C351.75 178.39 351.6 161.19 341.83 156.62C329.32 150.76 315.81 157.35 315.81 157.35Z" fill="#B16668"/>
<path d="M350.631 180.63C351.181 180.34 352.121 175.74 354.831 174.18C357.321 172.74 352.621 152.18 352.601 152.08C352.321 150.57 350.771 148.8 349.761 147.7C348.235 146.081 346.321 144.876 344.201 144.2C341.286 143.31 338.201 143.125 335.201 143.66C330.541 144.38 326.071 146.32 321.361 146.34C316.891 146.34 312.621 144.61 308.241 143.74C307.403 143.477 306.496 143.538 305.701 143.91C305.293 144.192 304.974 144.584 304.781 145.04C304.23 146.364 304.18 147.843 304.641 149.2C305.121 150.544 305.794 151.811 306.641 152.96C305.081 152.23 302.881 152.17 301.981 153.63C301.271 154.78 301.711 156.28 302.361 157.46C305.101 162.38 309.971 164.54 315.091 165.71C317.242 166.075 319.419 166.275 321.601 166.31C327.121 166.62 332.421 164.41 337.511 162.25C338.911 161.65 341.641 160.63 343.171 161.87C345.071 163.41 344.981 168.39 345.551 172.48C346.421 178.89 348.551 181.75 350.631 180.63Z" fill="#263238"/>
<path d="M333.001 193L327.431 195.49C327.578 195.866 327.8 196.209 328.084 196.497C328.367 196.785 328.706 197.013 329.079 197.167C329.453 197.321 329.854 197.398 330.258 197.394C330.662 197.389 331.061 197.303 331.431 197.14C332.174 196.783 332.751 196.155 333.044 195.384C333.336 194.613 333.321 193.76 333.001 193Z" fill="#9A4A4D"/>
<path d="M313.001 179.71C313.041 180.114 313.199 180.498 313.455 180.813C313.712 181.128 314.055 181.361 314.443 181.482C314.831 181.603 315.246 181.607 315.636 181.494C316.026 181.382 316.375 181.156 316.638 180.847C316.901 180.537 317.067 180.157 317.116 179.754C317.164 179.351 317.093 178.942 316.911 178.579C316.729 178.216 316.445 177.914 316.092 177.711C315.74 177.509 315.336 177.415 314.931 177.44C314.374 177.486 313.858 177.751 313.497 178.176C313.135 178.602 312.957 179.153 313.001 179.71Z" fill="#263238"/>
<path d="M329.06 178.72C329.1 179.125 329.258 179.508 329.515 179.823C329.771 180.138 330.115 180.371 330.503 180.492C330.89 180.613 331.305 180.618 331.695 180.505C332.086 180.392 332.434 180.167 332.697 179.857C332.96 179.548 333.127 179.168 333.175 178.764C333.224 178.361 333.153 177.952 332.971 177.589C332.789 177.226 332.504 176.924 332.152 176.722C331.8 176.519 331.396 176.425 330.99 176.45C330.714 176.472 330.445 176.548 330.198 176.674C329.952 176.799 329.732 176.973 329.553 177.184C329.373 177.395 329.238 177.639 329.153 177.903C329.068 178.167 329.037 178.444 329.06 178.72Z" fill="#263238"/>
<path d="M323.621 179.16L323.251 191.57L316.721 189.53L323.621 179.16Z" fill="#9A4A4D"/>
<path d="M333.94 206C338.04 205.06 346.06 201.61 347.58 198.61C347.58 198.61 347.73 200.52 345.3 203.42C342.87 206.32 334.35 209.22 334.35 209.22L333.94 206Z" fill="#9A4A4D"/>
<path d="M311.371 175.4L316.001 173.4C315.714 172.781 315.2 172.296 314.564 172.046C313.929 171.796 313.222 171.801 312.591 172.06C312.287 172.195 312.014 172.389 311.787 172.631C311.56 172.874 311.385 173.159 311.271 173.471C311.157 173.783 311.107 174.114 311.124 174.446C311.141 174.777 311.225 175.102 311.371 175.4Z" fill="#263238"/>
<path d="M330.311 172.41L334.731 174.81C335.046 174.205 335.113 173.5 334.916 172.847C334.72 172.193 334.277 171.642 333.681 171.31C333.389 171.152 333.068 171.054 332.738 171.024C332.407 170.994 332.074 171.032 331.759 171.135C331.443 171.238 331.152 171.404 330.903 171.623C330.654 171.842 330.453 172.11 330.311 172.41Z" fill="#263238"/>
<path d="M197.211 209.22H162.751C154.523 209.218 146.631 205.953 140.805 200.142C134.979 194.332 131.695 186.448 131.671 178.22V172.81C131.655 164.871 134.793 157.251 140.394 151.625C145.996 146 153.602 142.829 161.541 142.81H167.161C171.092 142.798 174.987 143.562 178.623 145.056C182.259 146.551 185.565 148.748 188.351 151.521C191.137 154.294 193.35 157.59 194.861 161.219C196.373 164.848 197.154 168.739 197.161 172.67L197.211 209.22Z" fill="#263238"/>
<path d="M168.691 211.16C181.051 210.23 188.841 215.96 189.101 227.45C189.241 233.24 184.221 256.29 184.221 256.29L168.691 211.16Z" fill="#FFA8A7"/>
<path d="M168.691 211.16C174.981 211.79 181.921 222.53 187.961 236.34C190.331 241.78 194.661 249.1 189.201 259.28C185.821 265.57 178.861 268.11 178.861 268.11C176.341 276.001 172.704 283.49 168.061 290.35C165.161 299.585 159.884 307.896 152.761 314.45C149.961 316.93 132.851 332.08 119.061 320.39C110.861 313.44 108.001 302.39 108.841 291.96C109.331 285.83 110.691 279.77 115.001 275.38C117.486 272.852 119.782 270.144 121.871 267.28C124.061 256.85 121.551 249.77 121.291 237.28C122.821 228.34 126.611 220.76 133.291 215.92C138.238 213.962 143.442 212.726 148.741 212.25L168.691 211.16Z" fill="#43BA8F"/>
<path opacity="0.1" d="M168.481 289.73L167.641 283C167.641 283 138.641 237.54 137.411 236.26C136.691 235.49 129.731 230.85 124.291 227.26C122.867 230.451 121.858 233.812 121.291 237.26C121.551 249.71 124.061 256.79 121.871 267.26C121.871 267.26 120.381 269.37 117.971 272.14C122.271 273.26 129.281 267.85 129.281 267.85C129.281 267.85 143.281 287.64 149.441 294.67C155.191 301.26 158.631 302.24 162.881 301.95C165.068 298.299 166.807 294.398 168.061 290.33C168.211 290.14 168.341 289.93 168.481 289.73Z" fill="black"/>
<path opacity="0.05" d="M189.201 259.28C189.491 258.73 189.761 258.19 190.001 257.65C184.371 261.97 180.451 258.93 175.731 258.02C170.851 257.08 167.231 264.02 158.101 263.16C146.101 262 141.751 254.45 141.751 254.45C141.751 254.45 141.431 267.52 156.301 270.39C166.241 272.31 169.891 266.94 172.641 266.94C173.841 266.94 174.911 267.87 178.861 268.11C178.861 268.11 185.821 265.57 189.201 259.28Z" fill="black"/>
<path d="M185.831 159C187.071 161.14 193.231 170.07 190.981 186.84C188.861 202.63 183.781 205.2 181.081 206.04C178.381 206.88 172.971 206.39 168.231 205.04L167.161 214.54C167.161 214.54 171.761 221.08 170.851 225.38C169.941 229.68 160.751 229.13 154.991 224.18C151.524 221.137 149.302 216.92 148.751 212.34L149.751 190.54C149.751 190.54 146.381 193.32 142.041 190.05C137.951 186.97 137.761 178.84 141.221 176.05C144.681 173.26 150.221 174.92 150.971 179.41C150.971 179.41 161.691 181.89 171.181 177.41C183.291 171.73 185.061 163.5 185.831 159Z" fill="#FFA8A7"/>
<path d="M151.171 185.4L150.881 175.48C152.229 175.476 153.526 175.995 154.499 176.928C155.472 177.86 156.047 179.133 156.101 180.48C156.112 181.13 155.992 181.775 155.747 182.378C155.503 182.98 155.141 183.528 154.68 183.987C154.22 184.446 153.672 184.808 153.069 185.051C152.466 185.293 151.821 185.412 151.171 185.4Z" fill="#263238"/>
<path d="M172.851 194.38L178.251 196.8C178.106 197.163 177.891 197.493 177.616 197.771C177.342 198.049 177.015 198.269 176.654 198.418C176.293 198.567 175.906 198.642 175.516 198.639C175.125 198.636 174.739 198.555 174.381 198.4C173.655 198.058 173.091 197.449 172.805 196.699C172.52 195.949 172.536 195.118 172.851 194.38Z" fill="#F28F8F"/>
<path d="M188.551 180.85C188.551 181.123 188.496 181.394 188.388 181.644C188.28 181.895 188.122 182.121 187.923 182.309C187.724 182.496 187.49 182.641 187.233 182.734C186.976 182.827 186.703 182.867 186.431 182.85C185.89 182.804 185.389 182.546 185.039 182.132C184.688 181.718 184.516 181.181 184.561 180.64C184.595 180.11 184.839 179.615 185.238 179.264C185.436 179.091 185.666 178.958 185.915 178.873C186.164 178.788 186.428 178.753 186.691 178.77C186.953 178.787 187.21 178.856 187.446 178.972C187.682 179.089 187.893 179.25 188.067 179.448C188.24 179.646 188.373 179.876 188.458 180.125C188.543 180.374 188.578 180.638 188.561 180.9L188.551 180.85Z" fill="#263238"/>
<path d="M174.061 182C174.019 182.389 173.864 182.758 173.615 183.06C173.365 183.362 173.033 183.584 172.659 183.699C172.285 183.814 171.885 183.816 171.509 183.706C171.133 183.595 170.798 183.377 170.545 183.079C170.293 182.78 170.133 182.413 170.086 182.024C170.04 181.636 170.108 181.242 170.284 180.892C170.459 180.542 170.733 180.251 171.072 180.055C171.411 179.859 171.8 179.767 172.191 179.79C172.461 179.806 172.725 179.877 172.967 179.998C173.209 180.119 173.424 180.288 173.599 180.495C173.774 180.701 173.905 180.941 173.984 181.2C174.064 181.459 174.09 181.731 174.061 182Z" fill="#263238"/>
<path d="M179.861 180.72L180.221 192.77L186.561 190.79L179.861 180.72Z" fill="#F28F8F"/>
<path d="M168.231 205C164.231 204.09 156.471 200.74 154.991 197.83C154.991 197.83 154.851 199.69 157.211 202.5C159.571 205.31 167.881 208.08 167.881 208.08L168.231 205Z" fill="#F28F8F"/>
<path d="M189.191 175.48L184.701 173.54C184.981 172.94 185.48 172.471 186.096 172.229C186.712 171.987 187.398 171.991 188.011 172.24C188.306 172.37 188.571 172.559 188.791 172.794C189.011 173.029 189.181 173.306 189.292 173.609C189.402 173.911 189.45 174.233 189.432 174.555C189.415 174.876 189.333 175.191 189.191 175.48Z" fill="#263238"/>
<path d="M162.301 298.43L172.061 279.76C175.301 280.23 178.541 280.68 181.781 281.13C188.231 282.02 212.601 285.01 213.981 285.03C216.671 284.988 219.326 284.41 221.791 283.33C225.651 281.88 228.511 279.56 231.631 278.92C233.076 278.635 234.556 278.568 236.021 278.72C237.871 278.85 237.391 279.84 239.221 280.16C239.746 280.207 240.246 280.405 240.661 280.73C241.361 281.39 240.851 281.79 240.481 282.33C240.088 283.013 239.836 283.768 239.741 284.55C239.601 285.22 239.051 287.5 240.001 287.87C244.611 289.66 245.131 292.3 251.111 297.43C253.971 299.88 255.511 301.65 257.441 302.9C258.651 304.73 258.741 305.9 254.441 308.42C251.581 310.12 246.441 313.42 238.031 310.78C228.871 307.91 224.181 302.78 221.821 302.67C205.081 301.73 171.411 300.34 162.301 298.43Z" fill="#FFA8A7"/>
<path d="M172.061 279.76L147.401 239.33C147.401 239.33 143.351 216.74 133.301 215.96C133.301 215.96 124.101 218.33 122.001 223.85C119.471 230.53 119.591 237.07 127.141 251.85C132.841 263.05 148.291 284.16 154.471 291.31C156.971 294.2 159.701 297.59 162.301 298.39" fill="#FFA8A7"/>
<path d="M222.121 302.7C223.066 302.938 223.947 303.382 224.701 304C226.243 303.723 227.681 303.032 228.861 302C233.481 298.63 249.361 305.4 245.451 309.75C242.611 312.91 239.841 313.75 235.311 312.34C228.631 310.3 221.511 307.25 222.121 302.7Z" fill="#B16668"/>
<path d="M237.52 279.28C232.26 280.19 226.8 284.03 223.95 285.19C221.1 286.35 218.16 287.04 220.78 289.55C223.4 292.06 229.78 289.55 234.19 287.99C237.19 286.91 240.98 287.99 242.67 288.69C243.91 289.2 243.25 285.85 243.25 285.85C242.25 284.39 254.66 285.85 254.25 284.41C247.69 284.69 241.76 278.31 237.52 279.28Z" fill="#B16668"/>
</svg>
