<svg width="500" height="500" viewBox="0 0 500 500" fill="none" xmlns="http://www.w3.org/2000/svg">
<path d="M412.31 256.39C502.54 306.12 503.01 386.75 413.37 436.48C323.73 486.21 177.92 486.21 87.7 436.48C-2.52003 386.75 -3.00002 306.12 86.63 256.38C176.26 206.64 322.08 206.65 412.31 256.39Z" fill="#F5F5F5"/>
<path d="M135.75 392.53L152.33 402.16C153.592 402.897 155.028 403.286 156.49 403.286C157.952 403.286 159.387 402.897 160.65 402.16L295.43 323.8C295.847 323.557 296.193 323.209 296.434 322.791C296.674 322.372 296.801 321.898 296.801 321.415C296.801 320.933 296.674 320.458 296.434 320.04C296.193 319.621 295.847 319.273 295.43 319.03L278.86 309.39C277.596 308.658 276.161 308.272 274.7 308.272C273.239 308.272 271.804 308.658 270.54 309.39L135.75 387.76C135.333 388.003 134.987 388.351 134.746 388.77C134.506 389.188 134.379 389.663 134.379 390.145C134.379 390.628 134.506 391.102 134.746 391.521C134.987 391.939 135.333 392.287 135.75 392.53Z" fill="#E6E6E6"/>
<path d="M364.66 368.2C384.59 379.71 384.66 398.37 364.89 409.87C345.12 421.37 312.89 421.38 292.94 409.87C272.99 398.36 272.94 379.71 292.71 368.2C312.48 356.69 344.72 356.69 364.66 368.2Z" fill="#E6E6E6"/>
<path d="M121.71 321.12C119.07 318.59 116.05 315.83 115.86 312.18C115.69 308.93 118.08 305.88 121.12 304.7C122.664 304.179 124.298 303.975 125.923 304.099C127.548 304.222 129.132 304.672 130.58 305.42C133.471 306.94 136.044 309.001 138.16 311.49C144.551 318.587 149.177 327.092 151.664 336.313C154.15 345.534 154.426 355.212 152.47 364.56C152.21 365.79 151.79 367.15 150.68 367.74C148.92 368.67 146.91 367.03 145.68 365.44C143.053 361.952 141.069 358.024 139.82 353.84C138.77 350.31 139.24 346.4 137.91 343.07C134.67 334.89 128 327.12 121.71 321.12Z" fill="#43BA8F"/>
<path d="M149.15 363C148.964 363 148.786 362.926 148.655 362.795C148.524 362.664 148.45 362.486 148.45 362.3C148.37 352.055 146.01 341.956 141.54 332.736C137.071 323.517 130.604 315.409 122.61 309C122.524 308.948 122.451 308.878 122.394 308.796C122.337 308.713 122.299 308.619 122.281 308.521C122.263 308.422 122.267 308.321 122.291 308.223C122.315 308.126 122.359 308.035 122.421 307.956C122.483 307.877 122.561 307.812 122.649 307.766C122.738 307.719 122.836 307.692 122.936 307.685C123.036 307.679 123.136 307.694 123.23 307.73C123.323 307.765 123.409 307.82 123.48 307.89C131.634 314.431 138.23 322.704 142.791 332.109C147.352 341.515 149.763 351.817 149.85 362.27C149.854 362.365 149.839 362.459 149.805 362.547C149.772 362.636 149.721 362.716 149.656 362.785C149.59 362.853 149.512 362.907 149.425 362.944C149.338 362.981 149.244 363 149.15 363Z" fill="white"/>
<path d="M140.5 391C136.05 392.43 130.5 391.5 127.9 387.6C124.9 383.02 126.77 375.96 122.71 372.26C120.45 370.19 117.11 369.99 114.11 369.36C111.11 368.73 107.76 367.08 107.31 364.04C106.72 360.04 111.67 356.67 110.97 352.66C110.27 348.65 104.82 347.47 103.21 343.8C101.74 340.45 104.34 336.39 107.78 335.15C111.22 333.91 115.05 334.76 118.48 336.03C121.91 337.3 125.25 338.98 128.88 339.43C132.66 339.89 137.02 339.15 139.8 341.75C143.51 345.22 141.39 351.84 144.26 356.03C146.18 358.83 149.8 359.81 152.57 361.78C154.295 363.029 155.694 364.673 156.651 366.575C157.609 368.477 158.095 370.581 158.07 372.71C157.98 377.32 155.55 380.65 152.07 383.3C148.38 386.08 145.07 389.48 140.5 391Z" fill="#43BA8F"/>
<path opacity="0.2" d="M140.5 391C136.05 392.43 130.5 391.5 127.9 387.6C124.9 383.02 126.77 375.96 122.71 372.26C120.45 370.19 117.11 369.99 114.11 369.36C111.11 368.73 107.76 367.08 107.31 364.04C106.72 360.04 111.67 356.67 110.97 352.66C110.27 348.65 104.82 347.47 103.21 343.8C101.74 340.45 104.34 336.39 107.78 335.15C111.22 333.91 115.05 334.76 118.48 336.03C121.91 337.3 125.25 338.98 128.88 339.43C132.66 339.89 137.02 339.15 139.8 341.75C143.51 345.22 141.39 351.84 144.26 356.03C146.18 358.83 149.8 359.81 152.57 361.78C154.295 363.029 155.694 364.673 156.651 366.575C157.609 368.477 158.095 370.581 158.07 372.71C157.98 377.32 155.55 380.65 152.07 383.3C148.38 386.08 145.07 389.48 140.5 391Z" fill="black"/>
<path d="M138.5 359.44L138.44 359.37C137.78 358.37 137.09 357.46 136.36 356.55C129.791 348.395 120.87 342.459 110.81 339.55C110.631 339.498 110.439 339.52 110.276 339.61C110.112 339.7 109.992 339.851 109.94 340.03C109.888 340.209 109.91 340.401 110 340.565C110.09 340.728 110.241 340.848 110.42 340.9C120.199 343.733 128.871 349.504 135.26 357.43C135.46 357.67 135.63 357.94 135.83 358.19C127.83 355.27 119.74 356.93 115.41 360.42C115.337 360.478 115.276 360.551 115.231 360.632C115.186 360.714 115.157 360.804 115.147 360.897C115.137 360.99 115.145 361.084 115.171 361.174C115.198 361.264 115.241 361.347 115.3 361.42C115.367 361.501 115.451 361.566 115.546 361.611C115.641 361.656 115.745 361.68 115.85 361.68C116.011 361.682 116.168 361.625 116.29 361.52C120.58 358.07 129.43 356.52 137.46 360.42C142.484 367.784 145.434 376.364 146 385.26C146.008 385.44 146.085 385.609 146.216 385.732C146.347 385.855 146.52 385.923 146.7 385.92C146.792 385.915 146.882 385.892 146.965 385.852C147.048 385.812 147.122 385.756 147.184 385.687C147.245 385.618 147.292 385.538 147.322 385.451C147.353 385.364 147.365 385.272 147.36 385.18C146.784 375.958 143.722 367.063 138.5 359.44Z" fill="white"/>
<path d="M108.14 75.6202C103.58 78.2502 99.6599 83.5402 97.7699 89.0202C96.5698 89.1656 95.4142 89.5644 94.3799 90.1902C94.1399 90.3302 93.8999 90.4802 93.6499 90.6502C89.5395 93.6591 86.7461 98.1357 85.8499 103.15C85.6288 104.434 85.6288 105.746 85.8499 107.03C85.8606 107.155 85.8362 107.28 85.7797 107.391C85.7232 107.502 85.6366 107.595 85.5299 107.66L80.8399 110.37C79.7642 111.071 78.8693 112.016 78.2281 113.128C77.5869 114.24 77.2174 115.488 77.1499 116.77C77.1499 119.13 78.8199 120.08 80.8699 118.89L126.73 92.4102C127.809 91.7124 128.707 90.7683 129.35 89.6557C129.994 88.5431 130.364 87.2937 130.43 86.0102C130.43 83.6602 128.76 82.7102 126.71 83.8902L119.2 88.2302C118.97 88.3602 118.81 88.2302 118.9 87.8902C119.588 85.7068 119.87 83.4154 119.73 81.1302C119.24 74.9202 114.64 72.3702 108.99 75.1302L108.14 75.6202Z" fill="#E6E6E6"/>
<path d="M82.7999 53.6201C79.4323 55.8011 76.9072 59.0633 75.6399 62.8701C74.811 62.97 74.0132 63.2462 73.2999 63.6801L72.7999 63.9901C69.9644 66.0731 68.0382 69.1665 67.4199 72.6301C67.2692 73.5171 67.2692 74.4231 67.4199 75.3101C67.4277 75.3941 67.4123 75.4787 67.3752 75.5546C67.3382 75.6304 67.281 75.6946 67.2099 75.7401L63.9999 77.6101C63.2528 78.086 62.6287 78.7317 62.1786 79.4946C61.7285 80.2575 61.4651 81.116 61.4099 82.0001C61.4099 83.6201 62.5599 84.2801 63.9799 83.4601L95.6299 65.2201C96.3743 64.7368 96.9941 64.0845 97.439 63.3165C97.8838 62.5485 98.1411 61.6863 98.1899 60.8001C98.1899 59.1701 97.0299 58.5201 95.6199 59.3301L90.4299 62.3301C90.2799 62.4301 90.1699 62.3301 90.2299 62.1001C90.7011 60.5942 90.8943 59.0152 90.7999 57.4401C90.4599 53.1501 87.2899 51.4401 83.3899 53.3201C83.1899 53.4101 82.9999 53.5101 82.7999 53.6201Z" fill="#E6E6E6"/>
<path d="M287.76 44.3897C286.86 41.2097 280.42 35.1797 274.01 35.3097C273.395 35.3259 272.786 35.4442 272.21 35.6597L147.71 106.49C145.63 107.674 143.959 109.463 142.92 111.62C142.119 113.244 141.698 115.029 141.69 116.84V386.17C141.69 393.03 149.6 399.58 157.02 396.43C157.185 396.381 157.346 396.318 157.5 396.24L282.02 325.24C283.842 324.197 285.356 322.692 286.41 320.876C287.463 319.061 288.019 316.999 288.02 314.9V45.6797C288.035 45.2353 287.946 44.7936 287.76 44.3897Z" fill="#37474F"/>
<path d="M159.05 145.31C159.053 144.26 159.331 143.228 159.858 142.319C160.384 141.41 161.14 140.655 162.05 140.13L277.65 74.36C278.108 74.1023 278.626 73.9697 279.152 73.9753C279.678 73.9809 280.193 74.1246 280.646 74.392C281.098 74.6594 281.473 75.041 281.732 75.4988C281.99 75.9565 282.124 76.4742 282.12 77V294.12C282.117 295.17 281.838 296.202 281.312 297.111C280.785 298.02 280.03 298.775 279.12 299.3L163.51 365.18C163.055 365.433 162.543 365.564 162.023 365.559C161.503 365.555 160.993 365.415 160.543 365.154C160.093 364.892 159.719 364.519 159.457 364.069C159.196 363.62 159.055 363.11 159.05 362.59V145.31Z" fill="#43BA8F"/>
<path opacity="0.5" d="M159.05 145.31C159.053 144.26 159.331 143.228 159.858 142.319C160.384 141.41 161.14 140.655 162.05 140.13L277.65 74.36C278.108 74.1023 278.626 73.9697 279.152 73.9753C279.678 73.9809 280.193 74.1246 280.646 74.392C281.098 74.6594 281.473 75.041 281.732 75.4988C281.99 75.9565 282.124 76.4742 282.12 77V294.12C282.117 295.17 281.838 296.202 281.312 297.111C280.785 298.02 280.03 298.775 279.12 299.3L163.51 365.18C163.055 365.433 162.543 365.564 162.023 365.559C161.503 365.555 160.993 365.415 160.543 365.154C160.093 364.892 159.719 364.519 159.457 364.069C159.196 363.62 159.055 363.11 159.05 362.59V145.31Z" fill="white"/>
<path d="M141.69 116.84V386.17C141.69 393.03 149.6 399.58 157.02 396.43C156.571 396.589 156.091 396.639 155.62 396.575C155.148 396.512 154.698 396.337 154.307 396.065C153.917 395.794 153.596 395.433 153.372 395.013C153.148 394.593 153.028 394.126 153.02 393.65V124.29C153.021 121.947 153.717 119.657 155.02 117.71L142.83 111.62C142.06 113.252 141.67 115.036 141.69 116.84Z" fill="#263238"/>
<path d="M274 35.2999C273.385 35.3162 272.776 35.4344 272.2 35.6499L147.71 106.49C145.63 107.674 143.959 109.463 142.92 111.62L155.11 117.71C156.127 116.153 157.498 114.858 159.11 113.93L283.63 43.0999C283.984 42.9052 284.374 42.7841 284.776 42.7438C285.178 42.7034 285.584 42.7448 285.97 42.8652C286.355 42.9857 286.713 43.1829 287.02 43.4449C287.328 43.7069 287.58 44.0283 287.76 44.3899C286.87 41.1999 280.43 35.1699 274 35.2999Z" fill="#455A64"/>
<path d="M235.94 87.5699C236.81 87.0599 237.53 87.4599 237.54 88.4599C237.513 89.0074 237.36 89.5414 237.093 90.0201C236.826 90.4989 236.452 90.9095 236 91.2199L211.57 105.32C210.69 105.83 209.99 105.4 209.98 104.4C210.009 103.852 210.167 103.32 210.442 102.845C210.717 102.37 211.1 101.968 211.56 101.67L235.94 87.5699Z" fill="#263238"/>
<path d="M205.23 105.3C206.11 104.79 206.81 105.19 206.82 106.2C206.792 106.749 206.634 107.284 206.359 107.76C206.085 108.236 205.701 108.641 205.24 108.94C204.37 109.45 203.64 109.03 203.64 108.03C203.672 107.482 203.833 106.95 204.109 106.475C204.386 106.001 204.769 105.599 205.23 105.3Z" fill="#263238"/>
<path d="M220.87 85.5197C222.62 84.5197 224.03 85.3097 224.03 87.3197C223.974 88.417 223.661 89.4858 223.115 90.4396C222.57 91.3933 221.807 92.2053 220.89 92.8097C219.14 93.8097 217.7 92.9897 217.69 90.9797C217.755 89.8841 218.076 88.819 218.629 87.8705C219.181 86.9221 219.949 86.1168 220.87 85.5197Z" fill="#263238"/>
<path d="M220.88 339.07C224.44 337.01 227.31 338.65 227.32 342.74C227.208 344.974 226.569 347.15 225.457 349.091C224.345 351.032 222.791 352.683 220.92 353.91C217.36 355.91 214.41 354.28 214.4 350.19C214.53 347.957 215.184 345.787 216.31 343.855C217.436 341.923 219.002 340.283 220.88 339.07Z" fill="#263238"/>
<path d="M211.23 121.63C212.76 120.75 213.6 121.31 213.6 123.13V129.05C213.63 129.901 213.427 130.743 213.013 131.487C212.599 132.231 211.989 132.847 211.25 133.27C209.72 134.15 208.88 133.6 208.88 131.78V125.86C208.85 125.008 209.053 124.164 209.467 123.418C209.881 122.673 210.491 122.055 211.23 121.63ZM212.06 130.07V123.91C212.06 123.1 211.75 122.97 211.26 123.26C210.988 123.419 210.768 123.652 210.624 123.932C210.481 124.212 210.42 124.527 210.45 124.84V131C210.45 131.81 210.77 131.93 211.26 131.65C211.53 131.49 211.748 131.256 211.89 130.976C212.031 130.696 212.09 130.382 212.06 130.07Z" fill="#43BA8F"/>
<path d="M218.96 117.31V118.93L217.34 119.87L217.37 129.62L215.81 130.52L215.78 120.77L214.15 121.71L214.14 120.08L218.96 117.31Z" fill="#43BA8F"/>
<path d="M223.88 114.46V116.09L221.2 117.64L221.21 120.81L223.34 119.57L223.35 121.2L221.21 122.44L221.22 125.77L223.91 124.22V125.84L219.67 128.29L219.64 116.91L223.88 114.46Z" fill="#43BA8F"/>
<path d="M228.59 111.74L228.62 121.5L231.18 120.01L231.19 121.64L227.07 124.02L227.04 112.64L228.59 111.74Z" fill="#43BA8F"/>
<path d="M233.39 108.97L233.42 120.35L231.86 121.25L231.83 109.87L233.39 108.97Z" fill="#43BA8F"/>
<path d="M236.61 107C238.13 106.13 238.91 106.72 238.91 108.54V108.9L237.44 109.74V109.27C237.44 108.46 237.16 108.27 236.66 108.6C236.394 108.76 236.18 108.993 236.043 109.271C235.906 109.55 235.853 109.862 235.89 110.17C235.89 111 236.2 111.43 237.23 111.87C237.77 112.032 238.238 112.377 238.551 112.846C238.865 113.315 239.006 113.879 238.95 114.44C238.987 115.287 238.79 116.128 238.38 116.871C237.971 117.613 237.366 118.229 236.63 118.65C235.1 119.53 234.31 118.95 234.31 117.12V116.42L235.79 115.57V116.39C235.79 117.2 236.1 117.32 236.59 117.03C236.861 116.874 237.082 116.643 237.226 116.364C237.37 116.086 237.43 115.772 237.4 115.46C237.4 114.63 237.08 114.19 236.06 113.76C235.517 113.598 235.049 113.251 234.735 112.78C234.421 112.309 234.281 111.743 234.34 111.18C234.298 110.342 234.488 109.509 234.888 108.771C235.289 108.034 235.884 107.421 236.61 107Z" fill="#43BA8F"/>
<path d="M244.17 102.75V104.37L242.54 105.31L242.57 115.07L241.02 115.96L240.99 106.21L239.36 107.15V105.53L244.17 102.75Z" fill="#43BA8F"/>
<path d="M229.66 141.83C230.81 141.17 231.44 141.59 231.44 142.96V147.39C231.464 148.028 231.313 148.662 231.002 149.22C230.692 149.779 230.235 150.242 229.68 150.56C228.53 151.23 227.9 150.81 227.9 149.44V145C227.88 144.362 228.033 143.73 228.343 143.172C228.653 142.614 229.108 142.15 229.66 141.83ZM230.29 148.15V143.54C230.29 142.93 230.06 142.84 229.69 143.05C229.485 143.169 229.319 143.345 229.211 143.555C229.103 143.766 229.057 144.004 229.08 144.24V148.85C229.08 149.46 229.31 149.56 229.68 149.34C229.884 149.22 230.049 149.044 230.157 148.833C230.265 148.623 230.311 148.386 230.29 148.15Z" fill="white"/>
<path d="M229.67 143.05C230.04 142.84 230.27 142.93 230.27 143.54V148.15C230.291 148.386 230.245 148.623 230.137 148.833C230.029 149.044 229.864 149.22 229.66 149.34C229.29 149.56 229.06 149.46 229.06 148.85V144.24C229.037 144.004 229.083 143.767 229.191 143.556C229.299 143.345 229.465 143.169 229.67 143.05Z" fill="#43BA8F"/>
<path d="M219.42 149.06C219.83 148.82 220.01 148.99 220.01 149.6V150.44C220.038 150.702 219.987 150.966 219.864 151.2C219.741 151.433 219.552 151.624 219.32 151.75L218.86 152.02V149.39L219.42 149.06Z" fill="#43BA8F"/>
<path d="M215.16 151.43C215.53 151.21 215.76 151.31 215.76 151.92V156.53C215.782 156.766 215.737 157.003 215.629 157.214C215.521 157.425 215.355 157.601 215.15 157.72C214.79 157.93 214.55 157.83 214.55 157.23V152.62C214.528 152.384 214.574 152.147 214.682 151.937C214.79 151.726 214.956 151.55 215.16 151.43Z" fill="#43BA8F"/>
<path d="M222.75 176.32L222.76 177.53L220.75 178.69V181.07L222.35 180.15V181.37L220.75 182.29L220.76 184.79L222.77 183.63L222.78 184.85L219.59 186.69L219.57 178.16L222.75 176.32Z" fill="white"/>
<path d="M226.75 174.01V175.23L225.53 175.93L225.55 183.25L224.38 183.92L224.36 176.6L223.14 177.31L223.13 176.1L226.75 174.01Z" fill="white"/>
<path d="M228.42 173.04L228.44 181.58L227.28 182.25L227.25 173.72L228.42 173.04Z" fill="white"/>
<path d="M232.97 170.42L232.99 178.95L231.79 179.65L230.34 174.29L230.32 174.3L230.34 180.48L229.28 181.09L229.26 172.56L230.72 171.72L231.92 176.14L231.94 176.13L231.92 171.02L232.97 170.42Z" fill="white"/>
<path d="M235.45 168.88C236.59 168.22 237.19 168.66 237.19 170.03V170.86L236.09 171.49V170.58C236.09 169.97 235.85 169.88 235.48 170.09C235.278 170.211 235.114 170.388 235.008 170.598C234.902 170.809 234.857 171.045 234.88 171.28V175.89C234.88 176.5 235.12 176.58 235.49 176.37C235.693 176.252 235.857 176.078 235.964 175.868C236.07 175.659 236.114 175.423 236.09 175.19V173.62L235.55 173.93V172.7L237.19 171.76V174.47C237.221 175.104 237.076 175.733 236.77 176.29C236.465 176.846 236.011 177.306 235.46 177.62C234.32 178.28 233.72 177.84 233.71 176.48V172C233.691 171.371 233.843 170.749 234.149 170.2C234.455 169.65 234.905 169.194 235.45 168.88Z" fill="white"/>
<path d="M224.75 206.68C225.11 206.47 225.35 206.57 225.35 207.18V211.79C225.37 212.026 225.324 212.262 225.216 212.473C225.108 212.683 224.943 212.859 224.74 212.98C224.37 213.19 224.14 213.1 224.14 212.48V207.87C224.118 207.634 224.164 207.397 224.272 207.187C224.38 206.976 224.546 206.8 224.75 206.68Z" fill="#43BA8F"/>
<path d="M218.89 208.85C220.04 208.19 220.67 208.6 220.67 209.97V214.41C220.688 215.049 220.532 215.681 220.221 216.239C219.909 216.796 219.453 217.26 218.9 217.58C217.75 218.24 217.12 217.81 217.12 216.45V212C217.099 211.364 217.254 210.734 217.566 210.178C217.878 209.623 218.336 209.164 218.89 208.85ZM219.51 215.16V210.55C219.51 209.95 219.28 209.85 218.9 210.06C218.7 210.184 218.539 210.361 218.433 210.571C218.327 210.781 218.281 211.016 218.3 211.25V215.86C218.3 216.48 218.53 216.57 218.9 216.35C219.106 216.233 219.274 216.058 219.38 215.846C219.487 215.634 219.529 215.396 219.5 215.16" fill="white"/>
<path d="M218.89 210.06C219.27 209.85 219.5 209.95 219.5 210.55V215.16C219.529 215.395 219.487 215.634 219.38 215.846C219.273 216.057 219.106 216.233 218.9 216.35C218.53 216.57 218.3 216.48 218.3 215.86V211.25C218.28 211.016 218.324 210.782 218.428 210.572C218.532 210.362 218.692 210.185 218.89 210.06Z" fill="#43BA8F"/>
<path d="M205.1 216.81C206.25 216.15 206.84 216.58 206.84 217.95V218.78L205.74 219.41V218.5C205.74 217.89 205.51 217.79 205.14 218.01C204.934 218.128 204.767 218.304 204.659 218.515C204.551 218.726 204.506 218.964 204.53 219.2V223.81C204.53 224.42 204.76 224.51 205.13 224.29C205.334 224.172 205.5 223.998 205.608 223.789C205.716 223.58 205.762 223.344 205.74 223.11V221.53L205.21 221.84V220.63L206.85 219.68V222.39C206.877 223.023 206.73 223.651 206.425 224.206C206.12 224.762 205.668 225.223 205.12 225.54C203.97 226.2 203.37 225.76 203.36 224.4V220C203.325 219.359 203.469 218.721 203.776 218.157C204.083 217.594 204.542 217.127 205.1 216.81Z" fill="white"/>
<path d="M216.71 210.2V211.43L215.49 212.13L215.51 219.45L214.34 220.12L214.32 212.8L213.1 213.51V212.29L216.71 210.2Z" fill="white"/>
<path d="M224.74 205.47C225.89 204.81 226.51 205.22 226.52 206.59V211C226.541 211.638 226.388 212.27 226.078 212.828C225.768 213.386 225.313 213.85 224.76 214.17C223.61 214.83 222.98 214.41 222.97 213.05V208.61C222.956 207.976 223.112 207.349 223.424 206.797C223.735 206.244 224.19 205.786 224.74 205.47ZM225.37 211.79V207.18C225.37 206.57 225.13 206.47 224.77 206.68C224.566 206.8 224.4 206.976 224.292 207.186C224.184 207.397 224.138 207.634 224.16 207.87V212.48C224.16 213.1 224.39 213.19 224.76 212.98C224.963 212.859 225.128 212.683 225.236 212.472C225.344 212.262 225.39 212.025 225.37 211.79Z" fill="white"/>
<path d="M234.01 200.22V201.44L232.09 202.55V205.12L233.6 204.25L233.61 205.47L232.1 206.34L232.11 209.86L230.94 210.54L230.92 202L234.01 200.22Z" fill="white"/>
<path d="M235.73 199.22L235.76 207.76L234.59 208.43L234.57 199.89L235.73 199.22Z" fill="white"/>
<path d="M238.23 197.68C239.37 197.02 239.97 197.46 239.97 198.82V199.65L238.87 200.29V199.37C238.87 198.77 238.63 198.67 238.26 198.88C238.057 199.001 237.893 199.177 237.787 199.388C237.68 199.598 237.636 199.835 237.66 200.07V204.68C237.66 205.29 237.9 205.38 238.27 205.16C238.473 205.042 238.638 204.868 238.744 204.658C238.85 204.449 238.894 204.214 238.87 203.98V202.77L239.97 202.13V203.27C240 203.902 239.855 204.53 239.549 205.085C239.244 205.639 238.791 206.098 238.24 206.41C237.1 207.07 236.5 206.63 236.5 205.27V200.83C236.469 200.196 236.614 199.566 236.919 199.01C237.225 198.454 237.679 197.994 238.23 197.68Z" fill="white"/>
<path d="M243.86 194.53L243.87 195.75L241.85 196.91V199.29L243.46 198.37V199.58L241.86 200.5L241.87 203.01L243.88 201.84L243.89 203.06L240.7 204.9L240.68 196.36L243.86 194.53Z" fill="white"/>
<path d="M231.36 232.14L231.37 233.36L230.15 234.06L230.17 241.38L229 242.06L228.98 234.74L227.76 235.44V234.22L231.36 232.14Z" fill="white"/>
<path d="M234.06 230.58L235.27 238.44L234.09 239.12L233.89 237.68L232.46 238.51L232.26 240.17L231.19 240.79L232.35 231.57L234.06 230.58ZM232.6 237.27L233.73 236.61L233.16 232.61L232.62 237.25" fill="white"/>
<path d="M233.14 232.63L233.16 232.62L233.73 236.62L232.6 237.26L233.14 232.63Z" fill="#43BA8F"/>
<path d="M210.06 244.34C211.21 243.68 211.84 244.09 211.85 245.46V249.9C211.869 250.539 211.714 251.171 211.402 251.729C211.091 252.287 210.634 252.751 210.08 253.07C208.93 253.73 208.31 253.31 208.3 251.95V247.51C208.278 246.872 208.43 246.239 208.74 245.681C209.05 245.122 209.507 244.659 210.06 244.34ZM210.69 250.66V246.05C210.69 245.44 210.46 245.34 210.09 245.56C209.886 245.68 209.72 245.856 209.612 246.066C209.504 246.277 209.458 246.514 209.48 246.75V251.36C209.48 251.97 209.72 252.06 210.08 251.85C210.285 251.731 210.451 251.555 210.559 251.344C210.667 251.133 210.713 250.896 210.69 250.66Z" fill="white"/>
<path d="M210.07 245.56C210.44 245.34 210.67 245.44 210.67 246.05V250.66C210.693 250.896 210.647 251.133 210.539 251.344C210.431 251.555 210.265 251.731 210.06 251.85C209.7 252.06 209.46 251.97 209.46 251.36V246.75C209.439 246.514 209.484 246.277 209.592 246.066C209.7 245.856 209.866 245.68 210.07 245.56Z" fill="#43BA8F"/>
<path d="M217.51 240.14V241.36L216.29 242.07L216.31 249.38L215.14 250.06L215.12 242.74L213.9 243.44V242.22L217.51 240.14Z" fill="white"/>
<path d="M221.7 237.72L221.72 246.26L220.53 246.95L220.52 243.29L219.19 244.05L219.21 247.71L218.04 248.38L218.02 239.84L219.18 239.17L219.19 242.83L220.52 242.07L220.51 238.41L221.7 237.72Z" fill="white"/>
<path d="M225.73 235.39V236.62L223.72 237.78V240.16L225.32 239.23L225.33 240.45L223.73 241.37L223.74 243.87L225.75 242.71V243.93L222.57 245.77L222.54 237.23L225.73 235.39Z" fill="white"/>
<path d="M237.36 228.58C238.49 227.93 239.08 228.37 239.08 229.73V230L237.98 230.64V230.28C237.98 229.67 237.76 229.57 237.39 229.78C237.191 229.901 237.03 230.076 236.927 230.285C236.825 230.494 236.784 230.729 236.81 230.96C236.81 231.58 237.05 231.91 237.81 232.24C238.216 232.361 238.567 232.62 238.803 232.973C239.038 233.325 239.143 233.748 239.1 234.17C239.127 234.804 238.979 235.433 238.672 235.989C238.365 236.545 237.911 237.005 237.36 237.32C236.21 237.98 235.62 237.54 235.62 236.18V235.65L236.73 235.02V235.62C236.73 236.24 236.97 236.32 237.34 236.11C237.543 235.989 237.707 235.813 237.813 235.603C237.92 235.392 237.964 235.155 237.94 234.92C237.94 234.3 237.71 233.97 236.94 233.65C236.534 233.529 236.183 233.27 235.947 232.917C235.712 232.565 235.607 232.142 235.65 231.72C235.619 231.09 235.762 230.464 236.063 229.91C236.365 229.356 236.814 228.896 237.36 228.58Z" fill="white"/>
<path d="M243.62 225.06L242 229.81L243.64 233.6L242.44 234.29L241.3 231.54L240.94 232.53L240.95 235.16L239.78 235.83L239.76 227.29L240.92 226.62L240.94 230.31L240.95 230.3L242.45 225.74L243.62 225.06Z" fill="white"/>
<path d="M188.63 254.18C189.63 253.58 190.5 254.06 190.5 255.25V264.57C190.465 265.219 190.278 265.851 189.953 266.414C189.628 266.977 189.175 267.455 188.63 267.81L180.2 272.68C179.2 273.27 178.32 272.79 178.32 271.61V262.28C178.355 261.632 178.543 261.002 178.868 260.441C179.193 259.88 179.646 259.403 180.19 259.05L188.63 254.18Z" fill="white"/>
<path d="M188.54 223.83C189.23 223.43 189.83 223.51 190.16 223.96L183.81 234.25L181.74 232.95L178.57 233.8L183.97 238.68L190.42 226.43V234.23C190.386 234.877 190.2 235.507 189.877 236.068C189.554 236.629 189.103 237.106 188.56 237.46L180.12 242.33C179.12 242.92 178.25 242.44 178.24 241.26V231.93C178.273 231.283 178.458 230.653 178.782 230.091C179.105 229.53 179.557 229.053 180.1 228.7L188.54 223.83Z" fill="white"/>
<path d="M253 286.1C253.268 285.904 253.583 285.783 253.913 285.748C254.243 285.713 254.577 285.765 254.88 285.9C255.88 286.5 255.88 288.43 254.88 290.22C254.439 291.036 253.795 291.725 253.01 292.22C252.741 292.414 252.425 292.533 252.095 292.567C251.765 292.6 251.432 292.546 251.13 292.41C250.13 291.82 250.13 289.89 251.13 288.1C251.568 287.281 252.213 286.592 253 286.1Z" fill="white"/>
<path d="M259.7 291.62C260.01 291.81 260.01 292.4 259.7 292.94C259.567 293.19 259.37 293.4 259.13 293.55C259.049 293.61 258.953 293.646 258.852 293.655C258.751 293.664 258.65 293.645 258.56 293.6L255.43 291.83C254.792 292.727 253.979 293.485 253.04 294.06C252.611 294.37 252.107 294.561 251.58 294.614C251.053 294.667 250.522 294.579 250.04 294.36C248.37 293.41 248.36 290.29 250.04 287.41C250.755 286.116 251.787 285.025 253.04 284.24C253.471 283.934 253.973 283.743 254.498 283.687C255.023 283.631 255.554 283.711 256.04 283.92C257.52 284.76 257.7 287.29 256.57 289.85L259.7 291.62ZM254.91 290.22C255.91 288.43 255.91 286.5 254.91 285.9C254.607 285.765 254.273 285.713 253.943 285.748C253.613 285.783 253.298 285.904 253.03 286.1C252.243 286.592 251.598 287.281 251.16 288.1C250.16 289.89 250.16 291.82 251.16 292.41C251.462 292.546 251.795 292.6 252.125 292.567C252.455 292.533 252.771 292.414 253.04 292.22C253.825 291.725 254.469 291.036 254.91 290.22Z" fill="#43BA8F"/>
<path d="M254.81 278.65C260.31 275.48 264.81 278.03 264.81 284.35C264.81 290.67 260.38 298.35 254.89 301.53C249.4 304.71 244.89 302.15 244.89 295.84C244.89 289.53 249.32 281.82 254.81 278.65ZM259.7 292.94C260.01 292.4 260.01 291.81 259.7 291.62L256.57 289.85C257.7 287.29 257.52 284.76 256.04 283.92C255.554 283.711 255.023 283.631 254.498 283.687C253.973 283.744 253.47 283.934 253.04 284.24C251.787 285.025 250.755 286.116 250.04 287.41C248.38 290.29 248.39 293.41 250.04 294.36C250.522 294.579 251.053 294.667 251.58 294.614C252.107 294.561 252.611 294.37 253.04 294.06C253.979 293.486 254.792 292.727 255.43 291.83L258.56 293.6C258.65 293.645 258.751 293.664 258.852 293.655C258.952 293.646 259.049 293.61 259.13 293.55C259.37 293.4 259.567 293.19 259.7 292.94Z" fill="white"/>
<path d="M195.5 216.78L190.42 226.43L183.97 238.68L178.57 233.8L181.74 232.95L183.81 234.25L190.16 223.96L193.09 219.22L195.5 216.78Z" fill="#455A64"/>
<path d="M230.35 202.33V203.55L228.44 204.66L228.45 207.22L229.95 206.35V207.58L228.45 208.44L228.46 211.97L227.29 212.65L227.26 204.11L230.35 202.33Z" fill="white"/>
<path d="M195.42 186.11L190.34 195.76L183.88 208.01L178.49 203.12L181.65 202.28L183.72 203.57L189.95 193.48L193 188.54L195.42 186.11Z" fill="#455A64"/>
<path d="M188.45 193.48C188.664 193.311 188.928 193.219 189.2 193.219C189.472 193.219 189.736 193.311 189.95 193.48L183.72 203.57L181.65 202.28L178.49 203.12L183.88 208.01L190.33 195.76V203.87C190.296 204.519 190.109 205.151 189.784 205.714C189.459 206.277 189.005 206.756 188.46 207.11L180.06 212C179.06 212.6 178.18 212.12 178.18 210.92V201.6C178.218 200.953 178.407 200.324 178.731 199.763C179.056 199.202 179.508 198.725 180.05 198.37L188.45 193.48Z" fill="white"/>
<path d="M212.89 151.61L212.09 160.62L210.54 161.51L210.12 157.21L209.7 162L208.09 162.93L207.24 154.88L208.37 154.22L209.01 160.6L209.56 153.53L210.69 152.88L211.28 159.33L211.88 152.2L212.89 151.61Z" fill="white"/>
<path d="M215.15 150.21C216.3 149.54 216.93 149.96 216.94 151.33V155.76C216.961 156.401 216.807 157.035 216.495 157.595C216.183 158.155 215.725 158.62 215.17 158.94C214.02 159.6 213.4 159.18 213.39 157.81V153.38C213.368 152.742 213.52 152.109 213.83 151.551C214.14 150.993 214.597 150.529 215.15 150.21ZM215.78 156.53V151.92C215.78 151.31 215.55 151.21 215.18 151.43C214.976 151.55 214.81 151.726 214.702 151.937C214.595 152.147 214.549 152.384 214.57 152.62V157.23C214.57 157.83 214.81 157.93 215.17 157.72C215.375 157.601 215.541 157.425 215.649 157.214C215.757 157.003 215.803 156.766 215.78 156.53Z" fill="white"/>
<path d="M221.2 154.33C221.182 154.652 221.226 154.975 221.33 155.28L220.14 155.97C220.04 155.647 220.006 155.307 220.04 154.97V153.64C220.04 152.84 219.8 152.64 219.27 152.99L218.86 153.22V156.7L217.7 157.37V148.84L219.47 147.84C220.67 147.14 221.19 147.49 221.2 148.84V149.52C221.233 150.311 220.961 151.084 220.44 151.68C221.03 151.62 221.22 152.15 221.22 153.04L221.2 154.33ZM220 150.44V149.6C220 148.99 219.82 148.82 219.41 149.06L218.84 149.39V152L219.3 151.73C219.532 151.605 219.721 151.413 219.844 151.18C219.967 150.947 220.018 150.682 219.99 150.42" fill="white"/>
<path d="M225.81 144.15L224.2 148.9L225.84 152.69L224.63 153.38L223.49 150.63L223.13 151.62L223.14 154.24L221.97 154.92L221.95 146.38L223.11 145.71L223.12 149.41L223.15 149.39L224.64 144.83L225.81 144.15Z" fill="white"/>
<path d="M239.68 136.15V137.36L238.46 138.07L238.48 145.38L237.32 146.06L237.29 138.74L236.07 139.45V138.23L239.68 136.15Z" fill="white"/>
<path d="M214.82 180.9L214.84 189.43L213.74 190.07L213.72 183.95L212.93 190.53L211.83 191.17L210.96 185.62V191.67L209.94 192.26L209.92 183.73L211.54 182.79L212.41 188.36L213.2 181.84L214.82 180.9Z" fill="white"/>
<path d="M235.62 138.49V144.99C235.646 145.624 235.497 146.253 235.19 146.808C234.883 147.363 234.43 147.824 233.88 148.14C232.73 148.8 232.14 148.37 232.13 147V140.5L233.3 139.83V146.42C233.3 147.02 233.54 147.11 233.91 146.89C234.111 146.772 234.275 146.6 234.381 146.392C234.487 146.185 234.532 145.952 234.51 145.72V139.13L235.62 138.49Z" fill="white"/>
<path d="M268.16 113.71C270.16 112.58 271.7 113.49 271.71 115.71V127.91C271.648 129.133 271.297 130.324 270.685 131.384C270.073 132.445 269.218 133.345 268.19 134.01L178.68 185.69C176.68 186.82 175.14 185.92 175.13 183.69V171.49C175.193 170.267 175.545 169.077 176.157 168.017C176.769 166.957 177.623 166.056 178.65 165.39L194.58 156.19L192.91 157.87L189.73 163C189.514 162.894 189.273 162.849 189.033 162.87C188.793 162.892 188.564 162.978 188.37 163.12L179.93 168C179.385 168.351 178.932 168.828 178.608 169.389C178.285 169.951 178.1 170.582 178.07 171.23V180.55C178.07 181.74 178.92 182.21 179.95 181.62L188.39 176.75C188.933 176.397 189.385 175.92 189.708 175.358C190.031 174.797 190.217 174.167 190.25 173.52V165.08L195.08 155.89L268.16 113.71ZM212.09 160.62L212.89 151.62L211.89 152.21L211.32 159.33L210.71 152.89L209.58 153.55L209.05 160.6L208.39 154.23L207.26 154.89L208.11 162.94L209.72 162.01L210.12 157.23L210.56 161.52L212.11 160.63L212.09 160.62ZM225.86 152.69L224.22 148.91L225.83 144.16L224.66 144.84L223.17 149.4V145.7L222.01 146.38V154.91L223.18 154.23V151.61L223.54 150.61L224.68 153.36L225.89 152.66L225.86 152.69ZM231.5 147.37V143C231.5 141.63 230.87 141.21 229.72 141.87C229.166 142.189 228.709 142.653 228.398 143.211C228.086 143.769 227.931 144.401 227.95 145.04V149.48C227.95 150.85 228.58 151.27 229.73 150.6C230.285 150.283 230.742 149.819 231.052 149.261C231.363 148.702 231.514 148.069 231.49 147.43L231.5 147.37ZM217 155.76V151.33C217 149.96 216.36 149.54 215.21 150.21C214.657 150.529 214.2 150.992 213.89 151.551C213.58 152.109 213.428 152.742 213.45 153.38V157.81C213.45 159.18 214.08 159.6 215.23 158.94C215.785 158.62 216.243 158.155 216.555 157.595C216.867 157.035 217.02 156.401 217 155.76ZM220.19 155.97L221.38 155.28C221.276 154.975 221.232 154.652 221.25 154.33V153C221.25 152.11 221.06 151.58 220.47 151.64C220.99 151.044 221.263 150.271 221.23 149.48V148.8C221.23 147.49 220.7 147.14 219.5 147.8L217.73 148.8V157.33L218.89 156.66V153.18L219.3 152.95C219.83 152.64 220.06 152.8 220.07 153.6V155C220.036 155.337 220.07 155.677 220.17 156L220.19 155.97ZM239.71 137.39V136.18L236.1 138.26V139.48L237.32 138.77V146.09L238.48 145.41V138.1L239.7 137.39H239.71ZM235.7 145.02V138.52L234.59 139.16V145.75C234.612 145.982 234.567 146.215 234.461 146.423C234.355 146.63 234.191 146.803 233.99 146.92C233.62 147.14 233.38 147.05 233.38 146.45V139.86L232.21 140.53V147.03C232.21 148.4 232.81 148.83 233.96 148.17C234.51 147.854 234.963 147.393 235.27 146.838C235.577 146.283 235.726 145.654 235.7 145.02Z" fill="#43BA8F"/>
<path d="M207.88 123.7L207.91 135.08L206.31 136L204.38 128.87L204.35 128.88L204.38 137.12L202.98 137.93L202.94 126.55L204.89 125.42L206.48 131.33L206.51 131.31L206.49 124.5L207.88 123.7Z" fill="#43BA8F"/>
<path d="M223.85 296.27C224.63 295.82 225.27 296.18 225.27 297.08V305.62L232.7 301.33C233.48 300.88 234.12 301.24 234.12 302.14C234.094 302.629 233.952 303.105 233.707 303.529C233.462 303.953 233.12 304.313 232.71 304.58L225.28 308.87V317.4C225.255 317.889 225.114 318.366 224.869 318.79C224.624 319.214 224.281 319.574 223.87 319.84C223.09 320.3 222.45 319.93 222.45 319.04V310.5L215.02 314.79C214.23 315.24 213.6 314.88 213.6 313.98C213.624 313.49 213.764 313.014 214.009 312.589C214.255 312.165 214.598 311.805 215.01 311.54L222.44 307.25V298.71C222.466 298.221 222.608 297.745 222.853 297.321C223.098 296.897 223.439 296.537 223.85 296.27Z" fill="#43BA8F"/>
<path d="M223.84 292.09C231.47 287.68 237.68 291.22 237.7 299.99C237.72 308.76 231.56 319.44 223.93 323.85C216.3 328.26 210.09 324.71 210.07 315.95C210.05 307.19 216.21 296.5 223.84 292.09ZM232.73 304.58C233.14 304.313 233.482 303.953 233.727 303.529C233.972 303.105 234.114 302.629 234.14 302.14C234.14 301.24 233.5 300.88 232.72 301.33L225.29 305.62V297.08C225.29 296.18 224.65 295.82 223.87 296.27C223.459 296.537 223.118 296.897 222.873 297.321C222.628 297.745 222.486 298.221 222.46 298.71V307.25L215 311.54C214.588 311.805 214.245 312.165 213.999 312.589C213.754 313.013 213.614 313.49 213.59 313.98C213.59 314.88 214.22 315.24 215.01 314.79L222.44 310.5V319.04C222.44 319.93 223.08 320.3 223.86 319.84C224.272 319.574 224.614 319.214 224.859 318.79C225.104 318.366 225.245 317.889 225.27 317.4V308.87L232.7 304.58" fill="white"/>
<path d="M192.9 318.45L194.86 321.87L199.23 320.08L196.08 325.44L196.84 330.01L192.93 329.9L189.03 334.51L189.76 329.09L186.59 327.38L190.96 324.12L192.9 318.45Z" fill="#43BA8F"/>
<path d="M192.88 314.41C198.38 311.23 202.88 313.78 202.88 320.1C202.88 326.42 198.46 334.1 192.96 337.29C187.46 340.48 182.96 337.91 182.96 331.6C182.96 325.29 187.39 317.58 192.88 314.41ZM196.88 330.01L196.12 325.44L199.27 320.08L194.9 321.87L192.9 318.45L191 324.12L186.63 327.38L189.8 329.09L189.07 334.51L192.97 329.9L196.88 330.01Z" fill="white"/>
<path d="M237.66 258.9V260.13L235.64 261.29L235.65 263.67L237.25 262.74V263.96L235.65 264.89L235.66 267.38L237.68 266.22V267.44L234.5 269.28L234.47 260.74L237.66 258.9Z" fill="white"/>
<path d="M233.62 261.23L233.64 269.77L232.54 270.41L232.52 264.28L231.73 270.87L230.63 271.51L229.77 265.96L229.74 265.98L229.76 272.01L228.74 272.6L228.72 264.06L230.34 263.13L231.21 268.7L232 262.17L233.62 261.23Z" fill="white"/>
<path d="M226.2 266.64C226.58 266.43 226.81 266.52 226.81 267.13V271.74C226.837 271.975 226.795 272.213 226.688 272.425C226.582 272.636 226.415 272.812 226.21 272.93C225.84 273.15 225.61 273.05 225.6 272.44V267.83C225.577 267.595 225.622 267.359 225.728 267.148C225.834 266.938 225.998 266.761 226.2 266.64Z" fill="#43BA8F"/>
<path d="M226.2 265.42C227.35 264.76 227.98 265.18 227.98 266.54V270.98C228 271.619 227.846 272.252 227.534 272.81C227.222 273.368 226.764 273.831 226.21 274.15C225.06 274.81 224.43 274.4 224.43 273.03V268.59C224.406 267.95 224.558 267.316 224.87 266.757C225.183 266.197 225.643 265.735 226.2 265.42ZM226.82 271.74V267.13C226.82 266.52 226.59 266.43 226.21 266.64C226.008 266.761 225.844 266.938 225.738 267.148C225.632 267.359 225.588 267.595 225.61 267.83V272.44C225.61 273.05 225.85 273.15 226.22 272.93C226.426 272.812 226.592 272.636 226.699 272.425C226.805 272.213 226.847 271.975 226.82 271.74Z" fill="white"/>
<path d="M223.68 266.97L223.7 275.51L222.51 276.2L222.5 272.54L221.18 273.3L221.19 276.96L220.02 277.64L219.99 269.1L221.16 268.42L221.18 272.08L222.5 271.32L222.49 267.66L223.68 266.97Z" fill="white"/>
<path d="M215.82 271.41C216.97 270.75 217.6 271.17 217.6 272.53V276.97C217.62 277.609 217.465 278.242 217.154 278.8C216.842 279.358 216.384 279.822 215.83 280.14C214.68 280.8 214.05 280.39 214.05 279.02V274.58C214.028 273.941 214.181 273.307 214.493 272.749C214.805 272.19 215.264 271.727 215.82 271.41ZM216.45 277.73V273.13C216.45 272.51 216.22 272.42 215.85 272.63C215.646 272.753 215.481 272.93 215.373 273.143C215.265 273.355 215.219 273.593 215.24 273.83V278.43C215.24 279.04 215.47 279.14 215.84 278.93C216.045 278.808 216.211 278.631 216.319 278.418C216.427 278.206 216.472 277.967 216.45 277.73Z" fill="white"/>
<path d="M215.83 272.63C216.2 272.42 216.43 272.51 216.43 273.13V277.73C216.452 277.967 216.406 278.206 216.298 278.418C216.191 278.63 216.025 278.808 215.82 278.93C215.45 279.14 215.22 279.04 215.22 278.43V273.83C215.199 273.593 215.245 273.354 215.353 273.142C215.461 272.93 215.626 272.753 215.83 272.63Z" fill="#43BA8F"/>
<path d="M211.65 273.82C212.8 273.16 213.4 273.6 213.4 274.96V275.79L212.29 276.43V275.52C212.29 274.9 212.06 274.81 211.69 275.02C211.487 275.141 211.323 275.317 211.216 275.528C211.11 275.738 211.066 275.975 211.09 276.21V280.82C211.09 281.43 211.33 281.51 211.7 281.3C211.901 281.18 212.064 281.006 212.171 280.797C212.277 280.588 212.322 280.353 212.3 280.12V278.55L211.77 278.86V277.64L213.41 276.69V279.4C213.436 280.034 213.287 280.663 212.98 281.218C212.673 281.774 212.22 282.234 211.67 282.55C210.52 283.21 209.93 282.78 209.92 281.41V277C209.888 276.362 210.032 275.728 210.337 275.167C210.643 274.606 211.097 274.14 211.65 273.82Z" fill="white"/>
<path d="M205.89 248.07C206.26 247.86 206.48 247.95 206.48 248.55V253C206.504 253.229 206.461 253.461 206.356 253.667C206.251 253.873 206.089 254.044 205.89 254.16L205.23 254.54V248.45L205.89 248.07Z" fill="#43BA8F"/>
<path d="M205.91 246.84C207.07 246.16 207.65 246.58 207.65 247.94V252.26C207.683 252.888 207.538 253.513 207.232 254.063C206.926 254.613 206.471 255.066 205.92 255.37L204.07 256.44V247.9L205.91 246.84ZM206.5 253V248.55C206.5 247.95 206.28 247.86 205.91 248.07L205.25 248.45V254.54L205.91 254.16C206.109 254.044 206.271 253.872 206.376 253.667C206.48 253.461 206.523 253.229 206.5 253Z" fill="white"/>
<path d="M188.71 284.52C189.71 283.93 190.59 284.41 190.59 285.59V294.92C190.554 295.568 190.367 296.198 190.042 296.759C189.717 297.32 189.264 297.797 188.72 298.15L180.31 303C179.31 303.6 178.44 303.12 178.44 301.93V292.6C178.475 291.952 178.663 291.322 178.988 290.761C179.313 290.2 179.766 289.723 180.31 289.37L188.71 284.52Z" fill="white"/>
<path d="M268.5 235.1C270.5 233.97 272.04 234.88 272.05 237.1V249.29C271.989 250.514 271.638 251.707 271.026 252.769C270.414 253.831 269.559 254.733 268.53 255.4L179.03 307.08C177.03 308.2 175.48 307.3 175.48 305.08V292.89C175.543 291.664 175.896 290.469 176.509 289.406C177.123 288.342 177.98 287.439 179.01 286.77L268.5 235.1ZM190.62 294.92V285.59C190.62 284.41 189.77 283.93 188.74 284.52L180.31 289.39C179.766 289.743 179.313 290.22 178.988 290.781C178.663 291.342 178.475 291.972 178.44 292.62V301.95C178.44 303.14 179.28 303.62 180.31 303.02L188.75 298.15C189.294 297.797 189.747 297.32 190.072 296.759C190.397 296.198 190.585 295.568 190.62 294.92ZM233.62 269.77V261.23L231.99 262.17L231.23 268.69L230.34 263.13L228.72 264.06V272.6L229.72 272.01V266.01L230.58 271.56L231.68 270.92L232.45 264.34V270.46L233.55 269.82L233.62 269.77ZM223.61 275.56V267.02L222.42 267.71V271.37L221.09 272.13V268.47L219.92 269.15V277.69L221.09 277.01V273.3L222.41 272.54V276.2L223.6 275.51L223.61 275.56ZM217.62 277V272.56C217.62 271.2 216.99 270.78 215.84 271.44C215.286 271.758 214.829 272.222 214.519 272.78C214.209 273.339 214.057 273.971 214.08 274.61V279C214.08 280.37 214.71 280.78 215.86 280.12C216.414 279.801 216.872 279.338 217.184 278.78C217.496 278.222 217.65 277.589 217.63 276.95L217.62 277ZM228 271V266.56C228 265.2 227.37 264.78 226.22 265.44C225.664 265.756 225.206 266.219 224.896 266.779C224.586 267.338 224.435 267.971 224.46 268.61V273C224.46 274.37 225.09 274.78 226.24 274.12C226.785 273.804 227.236 273.348 227.545 272.8C227.855 272.251 228.012 271.63 228 271ZM213.41 275.81V275C213.41 273.64 212.81 273.2 211.66 273.86C211.112 274.177 210.66 274.638 210.355 275.194C210.05 275.749 209.903 276.377 209.93 277.01V281.45C209.93 282.82 210.53 283.25 211.68 282.59C212.23 282.274 212.683 281.814 212.99 281.258C213.297 280.703 213.446 280.074 213.42 279.44V276.73L211.78 277.68V278.9L212.31 278.59V280.16C212.332 280.393 212.287 280.628 212.181 280.837C212.074 281.046 211.911 281.22 211.71 281.34C211.34 281.55 211.1 281.47 211.1 280.86V276.25C211.08 276.014 211.126 275.778 211.234 275.567C211.342 275.357 211.507 275.181 211.71 275.06C212.08 274.85 212.31 274.94 212.31 275.56V276.47L213.42 275.83L213.41 275.81ZM237.67 260.16V258.9L234.49 260.74V269.28L237.67 267.44V266.22L235.67 267.38V264.89L237.27 263.96V262.74L235.67 263.67V261.29L237.67 260.12" fill="#43BA8F"/>
<path d="M209.27 214.4C210.42 213.74 211.04 214.16 211.05 215.52V220C211.072 220.638 210.92 221.27 210.61 221.829C210.299 222.387 209.843 222.851 209.29 223.17C208.14 223.83 207.51 223.41 207.5 222.05V217.61C207.471 216.964 207.62 216.322 207.933 215.755C208.245 215.189 208.708 214.72 209.27 214.4ZM209.89 220.72V216.11C209.89 215.5 209.65 215.4 209.28 215.62C209.077 215.741 208.913 215.917 208.807 216.127C208.7 216.338 208.656 216.575 208.68 216.81V221.42C208.68 222.03 208.92 222.13 209.29 221.91C209.494 221.79 209.659 221.614 209.765 221.403C209.872 221.192 209.915 220.955 209.89 220.72Z" fill="white"/>
<path d="M209.27 215.62C209.64 215.4 209.88 215.5 209.88 216.11V220.72C209.905 220.955 209.861 221.192 209.755 221.403C209.649 221.614 209.484 221.79 209.28 221.91C208.91 222.13 208.68 222.03 208.67 221.42V216.81C208.646 216.575 208.69 216.338 208.796 216.127C208.903 215.917 209.067 215.741 209.27 215.62Z" fill="#43BA8F"/>
<path d="M268.42 204.75C270.37 203.62 271.96 204.53 271.96 206.75L272 219C271.935 220.223 271.582 221.414 270.971 222.476C270.359 223.538 269.506 224.44 268.48 225.11L179 276.76C177.05 277.89 175.46 276.98 175.45 274.76V262.57C175.517 261.346 175.871 260.154 176.485 259.093C177.098 258.031 177.953 257.129 178.98 256.46L268.42 204.75ZM190.53 264.57V255.25C190.53 254.06 189.69 253.58 188.66 254.18L180.22 259.05C179.676 259.403 179.223 259.88 178.898 260.441C178.573 261.002 178.385 261.632 178.35 262.28V271.61C178.35 272.79 179.2 273.27 180.23 272.68L188.66 267.81C189.205 267.455 189.658 266.977 189.983 266.414C190.308 265.851 190.495 265.219 190.53 264.57ZM234.09 239.12L235.27 238.44L234.06 230.58L232.35 231.58L231.19 240.8L232.26 240.18L232.46 238.52L233.89 237.69L234.09 239.13V239.12ZM243.64 233.61L242 229.81L243.62 225.06L242.45 225.74L241 230.3V226.61L239.84 227.28V235.82L241.01 235.15V232.52L241.37 231.52L242.51 234.26L243.71 233.57L243.64 233.61ZM221.79 246.23V237.69L220.6 238.38V242.04L219.27 242.8V239.14L218.11 239.81V248.35L219.28 247.68V244.02L220.6 243.26V247L221.79 246.31V246.23ZM211.93 249.95V245.51C211.93 244.14 211.29 243.73 210.14 244.39C209.587 244.709 209.13 245.172 208.82 245.731C208.51 246.289 208.358 246.922 208.38 247.56V252C208.38 253.36 209.01 253.78 210.16 253.12C210.714 252.801 211.171 252.337 211.482 251.779C211.794 251.221 211.949 250.589 211.93 249.95ZM217.58 241.41V240.19L213.97 242.27V243.5L215.19 242.79V250.11L216.36 249.43V242.12L217.58 241.41ZM230.24 241.41V234.09L231.45 233.39V232.17L227.85 234.25V235.47L229.07 234.77V242.09L230.24 241.41ZM207.73 252.29V247.97C207.73 246.61 207.15 246.19 205.99 246.87L204.14 247.93V256.47L205.99 255.4C206.541 255.096 206.996 254.644 207.302 254.094C207.608 253.544 207.753 252.918 207.72 252.29H207.73ZM237.43 237.35C237.981 237.035 238.435 236.575 238.742 236.019C239.049 235.463 239.197 234.834 239.17 234.2C239.213 233.778 239.108 233.355 238.873 233.003C238.637 232.65 238.286 232.391 237.88 232.27C237.11 231.94 236.88 231.61 236.88 230.99C236.854 230.758 236.895 230.524 236.997 230.315C237.1 230.106 237.261 229.931 237.46 229.81C237.83 229.6 238.05 229.7 238.05 230.31V230.67L239.15 230.03V229.76C239.15 228.4 238.56 227.96 237.43 228.61C236.884 228.925 236.435 229.386 236.133 229.939C235.832 230.493 235.689 231.12 235.72 231.75C235.677 232.171 235.782 232.595 236.017 232.947C236.253 233.3 236.604 233.559 237.01 233.68C237.78 234 238.01 234.33 238.01 234.95C238.034 235.185 237.99 235.422 237.883 235.632C237.777 235.843 237.613 236.019 237.41 236.14C237.04 236.35 236.8 236.27 236.8 235.65V235L235.69 235.63V236.16C235.69 237.52 236.28 237.96 237.43 237.3V237.35ZM225.79 236.6V235.37L222.6 237.21V245.75L225.78 243.91V242.69L223.78 243.85V241.35L225.38 240.43V239.21L223.78 240.13V237.76L225.78 236.6" fill="#43BA8F"/>
<path d="M218.85 178.57V179.78L216.84 180.95V183.33L218.45 182.4V183.62L216.84 184.55L216.85 187.05L218.87 185.89V187.1L215.69 188.94L215.67 180.41L218.85 178.57Z" fill="white"/>
<path d="M268.33 174.4C270.33 173.28 271.87 174.19 271.88 176.4V188.6C271.816 189.824 271.463 191.015 270.852 192.077C270.24 193.138 269.386 194.041 268.36 194.71L178.85 246.38C176.9 247.51 175.31 246.6 175.3 244.38V232.18C175.363 230.955 175.717 229.763 176.33 228.701C176.944 227.638 177.8 226.737 178.83 226.07L268.33 174.4ZM190.42 226.4L195.5 216.74L193.09 219.19L190.16 224C189.83 223.55 189.23 223.47 188.54 223.87L180.1 228.74C179.557 229.093 179.105 229.57 178.782 230.131C178.458 230.693 178.273 231.323 178.24 231.97V241.3C178.24 242.48 179.09 242.96 180.12 242.37L188.56 237.5C189.102 237.146 189.554 236.669 189.877 236.108C190.2 235.547 190.386 234.917 190.42 234.27V226.47V226.4ZM211.06 220V215.56C211.06 214.2 210.43 213.78 209.28 214.44C208.724 214.757 208.265 215.22 207.953 215.778C207.641 216.337 207.488 216.97 207.51 217.61V222C207.51 223.36 208.15 223.78 209.3 223.12C209.853 222.801 210.309 222.337 210.619 221.779C210.929 221.221 211.082 220.588 211.06 219.95V220ZM226.53 211V206.56C226.53 205.19 225.9 204.78 224.75 205.44C224.195 205.758 223.738 206.222 223.426 206.78C223.114 207.338 222.96 207.971 222.98 208.61V213.05C222.98 214.41 223.62 214.83 224.77 214.17C225.322 213.85 225.778 213.386 226.088 212.828C226.398 212.27 226.551 211.638 226.53 211ZM220.69 214.38V209.94C220.69 208.57 220.06 208.16 218.91 208.82C218.356 209.136 217.899 209.597 217.588 210.154C217.278 210.711 217.126 211.343 217.15 211.98V216.42C217.15 217.78 217.78 218.21 218.93 217.55C219.483 217.23 219.939 216.766 220.251 216.208C220.562 215.65 220.717 215.019 220.7 214.38H220.69ZM216.7 211.38V210.2L213.09 212.29V213.51L214.31 212.8V220.12L215.48 219.45V212.13L216.7 211.43V211.38ZM206.84 218.78V218C206.84 216.63 206.25 216.2 205.1 216.86C204.548 217.174 204.094 217.634 203.787 218.19C203.48 218.746 203.332 219.376 203.36 220.01V224.45C203.36 225.81 203.97 226.25 205.12 225.59C205.668 225.273 206.119 224.812 206.424 224.256C206.729 223.701 206.876 223.073 206.85 222.44V219.73L205.21 220.68V221.89L205.74 221.58V223.16C205.762 223.394 205.716 223.63 205.608 223.839C205.5 224.049 205.334 224.222 205.13 224.34C204.76 224.56 204.53 224.47 204.53 223.86V219.25C204.506 219.014 204.551 218.776 204.659 218.565C204.767 218.354 204.934 218.178 205.14 218.06C205.51 217.84 205.74 217.94 205.74 218.55V219.46L206.84 218.83V218.78ZM240 199.65V198.82C240 197.46 239.4 197.02 238.26 197.68C237.708 197.994 237.255 198.454 236.949 199.01C236.644 199.566 236.499 200.196 236.53 200.83V205.27C236.53 206.63 237.13 207.07 238.27 206.41C238.82 206.098 239.274 205.639 239.579 205.085C239.885 204.53 240.03 203.902 240 203.27V202.13L238.9 202.77V204C238.924 204.234 238.88 204.469 238.774 204.678C238.667 204.888 238.503 205.062 238.3 205.18C237.93 205.4 237.7 205.31 237.69 204.7V200.09C237.666 199.855 237.71 199.618 237.816 199.408C237.923 199.197 238.087 199.021 238.29 198.9C238.66 198.69 238.9 198.78 238.9 199.39V200.31L240 199.67V199.65ZM243.9 195.77V194.55L240.72 196.38V204.92L243.91 203.08V201.86L241.91 203.03V200.53L243.51 199.6V198.38L241.9 199.31V196.93L243.9 195.77ZM230.39 203.57V202.35L227.3 204.13V212.67L228.47 211.99V208.46L229.97 207.6V206.37L228.47 207.24V204.67L230.39 203.57ZM234.04 201.46V200.24L230.92 202V210.54L232.09 209.86V206.34L233.6 205.47V204.24L232.09 205.12V202.55L234.01 201.44L234.04 201.46ZM235.76 207.76V199.22L234.6 199.89V208.43L235.77 207.76" fill="#43BA8F"/>
<path d="M268.25 144.06C270.2 142.93 271.79 143.84 271.79 146.06V158.26C271.725 159.483 271.371 160.674 270.757 161.734C270.144 162.794 269.288 163.694 268.26 164.36L178.76 216.04C176.76 217.17 175.21 216.27 175.21 214.04V201.84C175.278 200.616 175.633 199.426 176.247 198.364C176.86 197.303 177.714 196.4 178.74 195.73L195.42 186.11L193 188.54L190 193.48C189.786 193.311 189.522 193.22 189.25 193.22C188.978 193.22 188.714 193.311 188.5 193.48L180 198.35C179.458 198.705 179.006 199.182 178.681 199.743C178.357 200.304 178.168 200.933 178.13 201.58V210.9C178.13 212.1 178.97 212.58 180.01 211.98L188.44 207.11C188.984 206.755 189.437 206.276 189.762 205.713C190.087 205.15 190.274 204.519 190.31 203.87V195.76L195.4 186.11L268.25 144.06ZM214.84 189.43V180.9L213.22 181.83L212.44 188.35L211.56 182.79L209.94 183.73V192.26L210.94 191.67V185.67L211.83 191.21L212.93 190.57L213.7 184V190.11L214.8 189.47L214.84 189.43ZM233 179V170.47L231.95 171.07V176.18L230.75 171.75L229.29 172.6V181.13L230.34 180.52V174.3L231.79 179.66L232.99 178.96L233 179ZM226.75 175.24V174L223.14 176.09V177.3L224.36 176.6V183.91L225.53 183.24V175.92L226.75 175.22V175.24ZM237.19 170.85V170C237.19 168.63 236.59 168.19 235.45 168.85C234.899 169.167 234.445 169.63 234.139 170.187C233.832 170.744 233.684 171.375 233.71 172.01V176.45C233.71 177.81 234.32 178.25 235.46 177.59C236.011 177.276 236.465 176.816 236.771 176.26C237.076 175.704 237.221 175.074 237.19 174.44V171.73L235.55 172.67V173.9L236.09 173.59V175.16C236.114 175.394 236.07 175.629 235.964 175.838C235.857 176.048 235.693 176.222 235.49 176.34C235.12 176.55 234.89 176.47 234.88 175.86V171.25C234.858 171.015 234.902 170.779 235.008 170.568C235.114 170.358 235.278 170.182 235.48 170.06C235.85 169.85 236.09 169.94 236.09 170.55V171.46L237.19 170.83V170.85ZM222.76 177.5V176.29L219.58 178.13V186.66L222.77 184.82V183.6L220.77 184.76V182.26L222.37 181.34V180.12L220.77 181.04V178.66L222.77 177.5H222.76ZM218.86 179.75V178.54L215.68 180.38V188.91L218.86 187.07V185.86L216.86 187.02V184.52L218.46 183.59V182.4L216.85 183.33V181L218.85 179.83L218.86 179.75ZM228.44 181.63V173.1L227.27 173.77V182.3L228.43 181.63" fill="#43BA8F"/>
<path d="M195.33 155.44L195.09 155.9L190.25 165.09L183.8 177.34L178.4 172.45L181.56 171.61L183.63 172.9L189.73 163.02L192.91 157.87L194.58 156.19L195.33 155.44Z" fill="#455A64"/>
<path d="M188.37 163.13C188.565 162.99 188.795 162.907 189.035 162.887C189.274 162.868 189.514 162.914 189.73 163.02L183.63 172.9L181.56 171.61L178.4 172.45L183.8 177.34L190.25 165.09V173.53C190.217 174.177 190.031 174.807 189.708 175.368C189.385 175.93 188.933 176.407 188.39 176.76L180 181.63C179 182.22 178.13 181.75 178.12 180.56V171.24C178.15 170.592 178.335 169.961 178.658 169.399C178.982 168.838 179.435 168.361 179.98 168.01L188.37 163.13Z" fill="white"/>
<path d="M334.75 404.17C333.96 406.65 331.24 408.07 328.64 408.28C326.04 408.49 323.48 407.75 320.92 407.28C315.18 406.28 309.65 407.28 303.92 407.14C302.04 407.153 300.164 406.948 298.33 406.53C296.486 406.1 294.819 405.116 293.55 403.71C292.831 402.852 292.358 401.815 292.18 400.71C292.063 401.541 292.124 402.388 292.36 403.193C292.597 403.999 293.002 404.744 293.55 405.38C294.819 406.786 296.486 407.77 298.33 408.2C300.164 408.615 302.04 408.816 303.92 408.8C309.65 408.94 315.18 407.91 320.92 408.95C323.48 409.41 326.05 410.14 328.64 409.95C331.23 409.76 333.96 408.32 334.75 405.84C334.997 404.979 335.065 404.078 334.95 403.19C334.914 403.522 334.847 403.85 334.75 404.17Z" fill="#263238"/>
<path d="M334.61 399.41C334.25 397.67 333.9 395.94 333.55 394.2C333.417 393.268 333.119 392.368 332.67 391.54C332.436 391.132 332.096 390.794 331.686 390.561C331.276 390.329 330.811 390.211 330.34 390.22C327.2 389.8 322.78 388.66 320.17 390.46C316.039 393.285 311.112 394.715 306.11 394.54C303.52 394.44 300.92 393.91 298.34 394.23C295.76 394.55 293.08 395.98 292.34 398.46C292.123 399.197 292.079 399.974 292.21 400.73C292.388 401.835 292.861 402.872 293.58 403.73C294.849 405.136 296.516 406.12 298.36 406.55C300.194 406.969 302.07 407.173 303.95 407.16C309.68 407.29 315.21 406.26 320.95 407.3C323.51 407.76 326.08 408.49 328.67 408.3C331.26 408.11 333.99 406.67 334.78 404.19C334.878 403.864 334.945 403.529 334.98 403.19C335.055 401.919 334.93 400.643 334.61 399.41Z" fill="#455A64"/>
<path d="M319.41 385L319.18 391.79C319.16 392.486 319.408 393.163 319.874 393.68C320.339 394.198 320.986 394.516 321.68 394.57C323.962 394.727 326.252 394.704 328.53 394.5C329.452 394.411 330.311 393.995 330.953 393.327C331.595 392.66 331.977 391.785 332.03 390.86L332.3 385.86L319.41 385Z" fill="#FFA8A7"/>
<path d="M363.76 381.38C363.734 382.385 363.418 383.361 362.85 384.19C362.045 385.168 360.904 385.81 359.65 385.99C358.144 386.256 356.593 386.09 355.177 385.511C353.762 384.933 352.539 383.965 351.65 382.72C350.8 381.48 350.31 380.03 349.5 378.72C348.279 377.024 346.769 375.555 345.04 374.38C343.312 373.206 341.794 371.749 340.55 370.07C339.96 369.251 339.574 368.303 339.425 367.304C339.275 366.306 339.366 365.286 339.69 364.33C339.523 364.553 339.382 364.795 339.27 365.05C338.887 366.057 338.76 367.143 338.9 368.211C339.04 369.279 339.442 370.295 340.07 371.17C341.344 372.894 342.895 374.394 344.66 375.61C346.425 376.824 347.965 378.337 349.21 380.08C350.04 381.39 350.53 382.89 351.4 384.16C352.296 385.433 353.534 386.426 354.971 387.024C356.408 387.622 357.985 387.801 359.52 387.54C360.805 387.352 361.972 386.688 362.79 385.68C363.525 384.519 363.859 383.149 363.74 381.78C363.78 381.67 363.77 381.53 363.76 381.38Z" fill="#263238"/>
<path d="M361.7 372.86C359.64 369.24 355.38 366.6 352.09 364.04C350.297 362.478 348.086 361.474 345.73 361.15C344.556 361.01 343.367 361.22 342.312 361.754C341.257 362.288 340.383 363.121 339.8 364.15C339.771 364.211 339.747 364.275 339.73 364.34C339.406 365.296 339.315 366.316 339.465 367.314C339.614 368.313 340 369.261 340.59 370.08C341.834 371.759 343.352 373.216 345.08 374.39C346.809 375.565 348.319 377.034 349.54 378.73C350.35 380 350.84 381.45 351.69 382.73C352.579 383.975 353.802 384.942 355.218 385.521C356.633 386.1 358.184 386.266 359.69 386C360.944 385.82 362.085 385.178 362.89 384.2C363.458 383.371 363.774 382.395 363.8 381.39C363.821 381.057 363.821 380.723 363.8 380.39C363.739 377.744 363.017 375.156 361.7 372.86Z" fill="#455A64"/>
<path d="M352.75 369.72V375.89C354.265 376.601 355.93 376.934 357.602 376.861C359.274 376.787 360.903 376.31 362.35 375.47L362.93 369.91L352.75 369.72Z" fill="#FFA8A7"/>
<path d="M364.55 257.71C366.41 263.26 364.13 289.65 363.05 314.97C367.05 324.53 365.98 351.7 363.67 370.97C363.67 370.97 359.67 373.44 352.4 370.97L343.29 317.72L342 287.65C342 287.65 339.71 314.35 337.09 331.48C339.56 344.6 338.94 347.07 332.85 387.42C330.731 388.486 328.392 389.041 326.02 389.041C323.648 389.041 321.309 388.486 319.19 387.42C315.74 330.73 317.01 279.06 317.66 260.48L364.55 257.71Z" fill="#37474F"/>
<path d="M366.52 224.44L369.18 230.06L362.82 237.06L363.28 253.79L383.81 236C384.731 235.202 385.363 234.124 385.609 232.93C385.855 231.737 385.701 230.496 385.17 229.4L378.91 216.4L366.52 224.44Z" fill="#FFA8A7"/>
<path d="M372.85 235.06C372.85 235.06 369.97 232.68 369.18 230.06L367.6 231.8C368.853 233.535 370.739 234.707 372.85 235.06Z" fill="#F28F8F"/>
<path d="M366 225.79C374.15 225.08 379.71 216.63 379.71 216.63C372.42 201.7 366.05 185.08 353.32 189.05L366 225.79Z" fill="#43BA8F"/>
<path d="M316.59 215.11V262C344.22 273.57 362.12 263.12 364.59 257.68C363.32 238.58 367.83 216.24 367.49 206.74C367.15 197.24 365.98 186.56 351.26 188.74L335.61 190.27L327.67 192.2L316.59 215.11Z" fill="#43BA8F"/>
<path opacity="0.4" d="M316.59 215.11V262C344.22 273.57 362.12 263.12 364.59 257.68C363.32 238.58 367.83 216.24 367.49 206.74C367.15 197.24 365.98 186.56 351.26 188.74L335.61 190.27L327.67 192.2L316.59 215.11Z" fill="white"/>
<path d="M269.11 202.92C269.331 203.531 269.609 204.12 269.94 204.68L287.38 233.89C288.002 234.941 288.849 235.842 289.859 236.528C290.869 237.215 292.018 237.669 293.225 237.86C294.431 238.051 295.665 237.974 296.838 237.633C298.01 237.293 299.094 236.697 300.01 235.89L311.11 226.03L299.85 214.03L294.21 219.89L278 199.16L275.51 188.29C275.341 187.549 275.015 186.852 274.554 186.246C274.094 185.641 273.509 185.141 272.84 184.78L265.94 181.07C265.682 180.929 265.385 180.877 265.095 180.92C264.804 180.963 264.536 181.1 264.33 181.31C264.19 181.454 264.083 181.627 264.017 181.817C263.951 182.007 263.929 182.209 263.951 182.409C263.973 182.609 264.039 182.802 264.144 182.973C264.25 183.144 264.392 183.29 264.56 183.4L269.56 186.65L263 190.53C262.623 190.752 262.312 191.072 262.101 191.456C261.89 191.839 261.786 192.272 261.8 192.71L261.87 195.86C261.885 196.516 262.141 197.144 262.589 197.624C263.037 198.103 263.646 198.401 264.3 198.46L265.38 198.56L265.63 199.22C266.253 200.86 267.496 202.189 269.09 202.92H269.11Z" fill="#FFA8A7"/>
<path d="M290.76 227.09C290.76 227.09 291.69 222.52 294.21 219.89L292.66 217.83C291.49 220 289.83 224.21 290.76 227.09Z" fill="#F28F8F"/>
<path d="M298.46 214.07L314.31 198.47C317.833 195.007 322.405 192.809 327.31 192.22H327.6C334.31 206.92 325.44 214.1 325.44 214.1L310.7 227.64C305.146 224.704 300.81 219.897 298.46 214.07Z" fill="#43BA8F"/>
<path d="M326.28 153.75C322.92 152.48 319.64 147.66 323 145.54C323.93 144.84 326.66 145.65 328.86 145.54C326.93 143.8 326.47 141.72 327.44 141.06C328.41 140.4 330.98 142.88 335.67 142.41C340.36 141.94 356.51 136.74 358.53 148.55C360.79 145.55 363.28 147.74 363.28 147.74L359.92 150.11C364.92 157.11 363.28 165.22 351.22 181.23C349.818 182.928 347.833 184.043 345.653 184.357C343.474 184.671 341.255 184.163 339.43 182.93L334.43 170.66L329.57 164.75L326.28 153.75Z" fill="#263238"/>
<path d="M325.16 163.56L321.92 169.19L325.47 170.5L325.16 163.56Z" fill="#F28F8F"/>
<path d="M326.28 153.75C324.126 161.551 323.804 169.744 325.34 177.69C325.514 179.058 326.026 180.36 326.83 181.48C327.359 182.05 327.995 182.511 328.702 182.835C329.409 183.159 330.173 183.341 330.95 183.37C332.503 183.428 334.056 183.28 335.57 182.93V190.26C341.13 191.57 346.86 192.09 351.22 188.73V181.23C348.08 182.234 344.741 182.444 341.5 181.84C337.66 179.76 336.89 172.74 337.43 170.84C337.772 171.29 338.239 171.63 338.772 171.818C339.305 172.006 339.881 172.035 340.43 171.9C340.96 171.753 341.455 171.5 341.885 171.156C342.315 170.812 342.67 170.385 342.93 169.9C343.446 168.933 343.762 167.872 343.86 166.78C344.132 165.466 343.93 164.099 343.29 162.92C342.804 162.258 342.125 161.762 341.347 161.499C340.569 161.236 339.728 161.219 338.94 161.45C337.361 161.946 336.042 163.046 335.27 164.51C335.021 164.963 334.807 165.434 334.63 165.92C334.565 166.109 334.436 166.27 334.266 166.376C334.095 166.481 333.894 166.525 333.695 166.499C333.497 166.473 333.313 166.379 333.176 166.234C333.038 166.088 332.955 165.9 332.94 165.7C332.745 163.595 333.125 161.476 334.04 159.57C333.406 159.504 332.794 159.296 332.251 158.962C331.707 158.628 331.246 158.176 330.9 157.64C330.534 157.14 330.29 156.562 330.185 155.951C330.081 155.34 330.121 154.713 330.3 154.12C328.949 154.225 327.59 154.099 326.28 153.75Z" fill="#FFA8A7"/>
<path opacity="0.3" d="M342.8 306L341.8 281.46C348.14 281.46 354.03 276.72 358.51 272.22C354.2 279.88 345.87 283.28 345.87 283.28L342.8 306Z" fill="black"/>
<path d="M342.94 263C351.17 234.15 358.68 192.28 352.42 188.61C353.145 188.016 354.037 187.665 354.972 187.606C355.907 187.546 356.837 187.782 357.63 188.28L357.95 188.49C365.9 197.65 348.19 265.05 348.19 265.05L342.94 263Z" fill="#43BA8F"/>
<path opacity="0.3" d="M342.94 263C351.17 234.15 358.68 192.28 352.42 188.61C353.145 188.016 354.037 187.665 354.972 187.606C355.907 187.546 356.837 187.782 357.63 188.28L357.95 188.49C365.9 197.65 348.19 265.05 348.19 265.05L342.94 263Z" fill="black"/>
<path d="M349 264.57C349.78 282.15 348.21 297.05 339.7 300.63C331.19 304.21 318.64 299.96 313.94 298.63C309.24 297.3 300.39 292.7 298.26 289.56C297.48 280.94 300.39 272.43 302.4 269.63C304.41 266.83 349 264.57 349 264.57Z" fill="#43BA8F"/>
<path opacity="0.2" d="M349 264.57C349.78 282.15 348.21 297.05 339.7 300.63C331.19 304.21 318.64 299.96 313.94 298.63C309.24 297.3 300.39 292.7 298.26 289.56C297.48 280.94 300.39 272.43 302.4 269.63C304.41 266.83 349 264.57 349 264.57Z" fill="black"/>
<path d="M316.55 253.71C326.63 255.62 339.38 259.48 349.04 264.57C347.1 268.94 344.39 273.39 342.45 277.76C341.87 279.376 340.945 280.847 339.74 282.07C337.52 284 334.25 284.01 331.32 283.72C323.097 282.887 315.104 280.513 307.76 276.72C305.25 275.42 302.64 273.72 301.76 271.04C301.07 268.81 301.76 266.4 302.64 264.24C303.21 262.83 303.87 261.3 304.64 259.77C305.673 257.583 307.403 255.8 309.559 254.703C311.715 253.606 314.174 253.257 316.55 253.71Z" fill="#43BA8F"/>
</svg>
