<svg width="500" height="500" viewBox="0 0 500 500" fill="none" xmlns="http://www.w3.org/2000/svg">
<path d="M416.38 472.16C443.309 472.16 465.14 459.557 465.14 444.01C465.14 428.464 443.309 415.86 416.38 415.86C389.451 415.86 367.62 428.464 367.62 444.01C367.62 459.557 389.451 472.16 416.38 472.16Z" fill="#EBEBEB"/>
<path d="M104.78 294.18C130.389 294.18 151.15 282.195 151.15 267.41C151.15 252.625 130.389 240.64 104.78 240.64C79.1705 240.64 58.41 252.625 58.41 267.41C58.41 282.195 79.1705 294.18 104.78 294.18Z" fill="#EBEBEB"/>
<path d="M177.95 336.79C203.559 336.79 224.32 324.805 224.32 310.02C224.32 295.235 203.559 283.25 177.95 283.25C152.341 283.25 131.58 295.235 131.58 310.02C131.58 324.805 152.341 336.79 177.95 336.79Z" fill="#EBEBEB"/>
<path d="M252.05 380.1C277.659 380.1 298.42 368.115 298.42 353.33C298.42 338.545 277.659 326.56 252.05 326.56C226.44 326.56 205.68 338.545 205.68 353.33C205.68 368.115 226.44 380.1 252.05 380.1Z" fill="#EBEBEB"/>
<path d="M327.39 422.96C352.999 422.96 373.76 410.975 373.76 396.19C373.76 381.405 352.999 369.42 327.39 369.42C301.781 369.42 281.02 381.405 281.02 396.19C281.02 410.975 301.781 422.96 327.39 422.96Z" fill="#EBEBEB"/>
<path d="M375.23 57.59L384.16 62.75C384.16 62.35 384.09 61.95 384.09 61.57V59C384.09 54.39 387.32 52.52 391.31 54.82C393.032 55.8853 394.503 57.3114 395.62 59C396.27 53.2 400.82 51 406.34 54.23C412.34 57.68 417.15 66.06 417.15 72.95V76.83C417.187 78.376 416.876 79.9105 416.24 81.32L423.66 85.6C424.824 86.3625 425.792 87.3879 426.487 88.5934C427.182 89.7988 427.584 91.1507 427.66 92.54C427.66 95.1 425.86 96.14 423.66 94.86L375.23 66.86C374.063 66.101 373.092 65.0765 372.397 63.8703C371.702 62.6641 371.302 61.3104 371.23 59.92C371.22 57.35 373 56.31 375.23 57.59Z" fill="#EBEBEB"/>
<path d="M337 83.63L343.74 87.53C343.74 87.22 343.69 86.93 343.69 86.63V84.68C343.69 81.2 346.13 79.79 349.14 81.53C350.438 82.3249 351.547 83.393 352.39 84.66C352.88 80.28 356.31 78.66 360.48 81.06C364.99 83.66 368.64 89.99 368.64 95.19V98.11C368.67 99.2776 368.434 100.437 367.95 101.5L373.55 104.74C374.425 105.315 375.153 106.089 375.674 106.997C376.195 107.906 376.495 108.924 376.55 109.97C376.55 111.9 375.19 112.69 373.55 111.72L337 90.62C336.125 90.0423 335.397 89.2672 334.876 88.3571C334.355 87.4469 334.055 86.4272 334 85.38C334 83.45 335.31 82.67 337 83.63Z" fill="#EBEBEB"/>
<path d="M434.05 430.62C436.47 427.76 442.99 425.17 451.15 424.62C459.31 424.07 467.58 423.08 466.42 418.22C465.17 412.98 457.85 411.68 450.22 413.59C441.89 415.67 434.92 422.82 434.09 427.82L434.05 430.62Z" fill="#37474F"/>
<path d="M434.16 428.88C434.267 428.895 434.377 428.879 434.476 428.835C434.575 428.791 434.659 428.72 434.72 428.63C442.58 417 456.91 417 461.24 418.3C461.312 418.323 461.388 418.332 461.464 418.325C461.539 418.318 461.613 418.297 461.68 418.261C461.747 418.226 461.806 418.177 461.854 418.119C461.902 418.06 461.938 417.993 461.96 417.92C462.004 417.774 461.989 417.617 461.918 417.482C461.846 417.347 461.725 417.246 461.58 417.2C457 415.81 442 415.79 433.76 428C433.679 428.128 433.65 428.283 433.679 428.432C433.709 428.581 433.795 428.713 433.92 428.8C433.994 428.842 434.075 428.87 434.16 428.88Z" fill="white"/>
<path d="M434.05 430.62C434.05 430.62 440 416.18 450.75 409.51C453.94 407.51 457.41 404.97 459.83 403.21C465.02 399.43 463.83 394.33 457.5 393.5C448.1 392.28 440.1 399.19 435.64 409.09C431.18 418.99 434.05 430.62 434.05 430.62Z" fill="#455A64"/>
<path d="M434.14 423.75C434.279 423.772 434.42 423.74 434.537 423.663C434.653 423.585 434.737 423.466 434.77 423.33C439 405.64 454 398.6 457.86 398.18C457.934 398.173 458.005 398.151 458.07 398.115C458.135 398.08 458.193 398.032 458.239 397.974C458.286 397.917 458.321 397.85 458.341 397.779C458.362 397.708 458.368 397.634 458.36 397.56C458.342 397.413 458.267 397.279 458.151 397.187C458.035 397.095 457.887 397.053 457.74 397.07C453.06 397.57 438.03 404.95 433.68 423.07C433.662 423.142 433.658 423.216 433.669 423.289C433.68 423.362 433.706 423.432 433.744 423.495C433.782 423.558 433.832 423.614 433.891 423.657C433.951 423.701 434.018 423.733 434.09 423.75H434.14Z" fill="white"/>
<path d="M437.13 258C441.92 256.87 445.03 260.91 448.13 268.44C451.23 275.97 456.72 294.31 458 299.34C458.58 301.59 444.31 321.76 444.92 321.46C445.11 321.37 439.35 311.74 439.35 311.74L446.35 298.34L441.35 286.16L437.13 258Z" fill="#FFA8A7"/>
<path d="M443.94 428C444.59 428.25 444.75 429.48 444.85 431.94C444.92 433.81 445.32 437.06 443.14 437.71C440.96 438.36 437.77 438.02 436.37 436.27C434.62 434.08 433.44 432.15 430.96 429.48C428.8 427.16 426.46 424.99 425.59 421.74C424.8 418.8 425.46 417.53 427.46 416.67C430.22 415.5 434.55 419.34 436.71 419.94C438.57 420.41 443.29 427.7 443.94 428Z" fill="#263238"/>
<path d="M443.94 424V428.72C442.807 429.448 441.496 429.852 440.149 429.889C438.803 429.926 437.472 429.595 436.3 428.93C436.17 428.64 435.79 424 435.79 424H443.94Z" fill="#FFA8A7"/>
<path d="M421.46 444C421.46 444 422.32 446.62 422.79 448.92C423.16 450.75 423.69 453.8 423.05 455.17C422.41 456.54 419.92 457.43 416.05 457.4C413.55 457.4 409.64 459.09 406.97 460.58C404.3 462.07 401.21 462.13 398.29 461.78C394.85 461.38 391.29 459.38 390.73 457.96C390.17 456.54 390.89 455.85 399 452.39C399.07 452.39 407.55 448.53 411.47 444.2L421.46 444Z" fill="#263238"/>
<path d="M421.46 440.74C421.46 440.74 421.46 442.98 421.46 444.26C421.46 445.54 419.95 447.45 416.04 447.31C413.29 447.21 411.36 446.47 411.47 444.21V440.94L421.46 440.74Z" fill="#FFA8A7"/>
<path d="M449 389.09C448.75 379.09 446.7 374.75 446.7 374.75C446.7 374.75 447.46 362.44 449.12 347.38C451.64 324.43 450.48 319.99 445.95 309.66C445.95 309.66 407.33 305.75 406.16 321.8C404.69 341.8 404.51 377.23 405.05 384.29C405.59 391.35 405.57 390.04 407.28 404.29C408.64 415.59 411.44 440.9 411.44 440.9C412.995 441.691 414.721 442.086 416.465 442.051C418.209 442.016 419.918 441.552 421.44 440.7C421.44 440.7 424.59 408.56 424.26 400.42C423.86 390.47 423.26 387.94 423.26 387.94C423.26 387.94 427.78 358.55 428.48 353.36C428.48 353.36 429.11 362.64 429.64 369.7C430.17 376.76 430.12 379.64 431.64 394.24C432.81 405.69 435.64 425.24 435.64 425.24C436.998 425.792 438.465 426.024 439.927 425.916C441.39 425.809 442.807 425.365 444.07 424.62C444.07 424.62 449.24 397.15 449 389.09Z" fill="#43BA8F"/>
<path d="M417.35 252.8L419.16 267.72L432.28 266.54L430.78 249.97L417.35 252.8Z" fill="#FFA8A7"/>
<path d="M445.08 265.21C443.64 261.29 440.33 257.21 435.29 258.11C433.97 258.36 432.82 258.55 431.58 258.8C431.47 262.23 424.99 264.01 418.53 261.93C416.59 262.49 414.81 263.05 413.2 263.63C408.58 265.28 406.73 272.95 406.62 285.78C406.51 298.61 405.16 330.62 405.16 330.62L410.56 332.32L413.08 322.95L414.08 334.17C420.215 335.601 426.599 335.57 432.72 334.08C446.6 331.08 450.91 323.56 450.91 323.56C448.622 314.506 444.898 305.877 439.88 298C446.84 279.53 447.22 271 445.08 265.21Z" fill="#37474F"/>
<path d="M407.6 233.84C406.814 232.058 406.493 230.106 406.668 228.166C406.843 226.226 407.508 224.363 408.6 222.75C413 215.84 421.49 214.66 431.6 217.35C435.111 218.428 438.205 220.564 440.458 223.465C442.711 226.366 444.014 229.891 444.19 233.56C444.67 240.94 424.09 246.38 424.56 251.43L407.6 233.84Z" fill="#263238"/>
<path d="M407.16 236.65C407.16 236.65 404.36 241.12 404.76 241.58C405.452 242.009 406.213 242.313 407.01 242.48L407.16 236.65Z" fill="#F28F8F"/>
<path d="M415.67 222.46C412.88 224 408.07 226.84 407.09 237.29C406.09 248.02 408.57 251.68 410.09 253.04C411.09 253.96 416.19 254.17 418.81 253.27C422.1 252.15 429.19 248.41 432.41 242.8C436.19 236.19 436.78 227.51 432.11 224.24C425.53 219.64 418 221.16 415.67 222.46Z" fill="#FFA8A7"/>
<path d="M415.66 223.73C414.03 227.657 413.018 231.813 412.66 236.05C411.374 236.064 410.096 235.857 408.88 235.44C408.88 235.44 408.83 230.94 410.04 228.38C408.879 230.442 408.132 232.712 407.84 235.06C406.545 234.954 405.306 234.49 404.26 233.72C403.26 228.91 406.26 218.99 414.81 217.41L415.66 223.73Z" fill="#263238"/>
<path d="M414.85 222.93C414.85 222.93 412.65 232.76 415.77 238.85C415.77 238.85 417.39 234.99 420.7 236C424.01 237.01 423.84 241.41 421.31 243.73C420.663 244.39 419.844 244.855 418.945 245.07C418.047 245.286 417.106 245.245 416.23 244.95C417.344 247.727 419.012 250.248 421.13 252.36C421.13 252.36 430.91 256.72 439.38 247.16C447.07 238.49 445.64 223.36 433.87 219.8C422.1 216.24 414.85 222.93 414.85 222.93Z" fill="#263238"/>
<path d="M447.41 245.08C449.73 247.54 449.29 251.72 446.41 254.42C443.53 257.12 439.35 257.32 437.03 254.87C434.71 252.42 435.15 248.22 438.03 245.52C440.91 242.82 445.08 242.62 447.41 245.08Z" fill="#263238"/>
<path d="M443.39 240.78C442.809 240.968 442.325 241.379 442.046 241.922C441.767 242.466 441.714 243.098 441.9 243.68L446.29 242.27C446.102 241.689 445.691 241.206 445.148 240.926C444.604 240.647 443.972 240.594 443.39 240.78Z" fill="#263238"/>
<path d="M380 287.26C378.09 285.09 377.78 280.26 375.24 276.98C372.7 273.7 373.16 270.34 371.57 271.82C369.98 273.3 371.17 278.73 371.17 278.73C371.17 278.73 368.22 284.21 367.96 287.01C367.7 289.81 375.14 296.86 375.14 296.86L380 287.26Z" fill="#FFA8A7"/>
<path d="M371.57 278.35C371.57 278.35 368.57 282.55 355.03 277.06C351.29 275.55 353.81 283.59 358.4 286.92C362.64 290 367.95 290.92 372.2 293.83C372.21 293.42 371.57 278.35 371.57 278.35Z" fill="#FFA8A7"/>
<path d="M414.35 263.23C410.49 264.57 407.12 266.13 403.52 272.89C398.89 281.59 390.52 298.61 390.52 298.61L380 287.26C380 287.26 378.47 285.11 375.63 289.8C372.79 294.49 374.05 295.8 374.05 295.8C374.05 295.8 386.25 312.13 388.48 314.21C390.71 316.29 394.4 314.67 396.8 311.41C399.2 308.15 411.61 285.66 411.61 285.66C411.61 285.66 419.8 271.45 414.35 263.23Z" fill="#FFA8A7"/>
<path opacity="0.2" d="M428.53 353.4L429.26 345.6C433.448 344.974 437.452 343.452 441 341.14C441 341.14 438.49 345.14 431.61 346.99L430.05 354.59L429.65 369.74L428.53 353.4Z" fill="black"/>
<path d="M406.45 294.64C406.45 294.64 411.3 286.15 411.61 285.64L406.06 307.17L406.45 294.64Z" fill="#263238"/>
<path d="M348.9 243.71C350.32 245.2 353.69 246.35 375.51 247.94C378.686 248.249 381.891 247.828 384.88 246.71C387.824 245.549 390.353 243.532 392.14 240.92C392.561 240.345 392.873 239.697 393.06 239.01C393.23 238.331 393.126 237.612 392.77 237.01C392.341 236.442 391.724 236.045 391.03 235.89C389.656 235.578 388.216 235.733 386.94 236.33C384.94 237.11 383.38 237.38 383.53 236.97C383.68 236.56 384.9 236.19 386.15 234.78C387.4 233.37 387.72 231.39 386.91 230.78C386.1 230.17 386.24 230.3 384.8 231.5C383.36 232.7 381.7 233.31 379.8 235.15C378.599 236.518 377.081 237.572 375.38 238.22C373.19 239.09 371.12 238.83 365.04 237.86C359.79 237.02 357.77 236.72 355.25 235.32C352.54 231.2 346 213.79 343.16 209.02C340.16 203.97 334.06 203.82 334.06 203.82C334.114 210.038 335.154 216.208 337.14 222.1C339.24 228 347.49 242.24 348.9 243.71Z" fill="#B16668"/>
<path d="M332.41 203.25C334.922 202.832 337.502 203.288 339.72 204.54C343.03 206.62 345.19 210.47 347.28 215.29C349.84 221.15 352.92 228.99 352.92 228.99C349.945 231.883 346.056 233.651 341.92 233.99L332.07 217.62L332.41 203.25Z" fill="#455A64"/>
<path d="M309.12 391.03H317.62V376.48H309.12V391.03Z" fill="#B16668"/>
<path d="M332.64 380.14L341.14 380.43L341.56 365.04L332.64 364.74V380.14Z" fill="#B16668"/>
<path d="M305.5 267.83C305.5 275.95 306.94 323.16 306.94 323.16C306.74 325.49 304.49 329.64 304.32 338.06C304.06 350.26 308.76 383.75 308.76 383.75C310.227 384.471 311.834 384.862 313.469 384.895C315.103 384.928 316.725 384.602 318.22 383.94C318.22 383.94 322.08 338.53 323.6 326.46C324.93 315.92 327.18 287.29 327.18 287.29L331.18 321.69C330.194 326.121 329.837 330.669 330.12 335.2C330.52 340.79 332.12 375.37 332.12 375.37C333.601 376.208 335.249 376.71 336.946 376.84C338.644 376.97 340.348 376.724 341.94 376.12C341.94 376.12 347.94 326.82 348.03 321.69C348.14 315.85 345.81 256.21 345.81 256.21L305.5 267.83Z" fill="#37474F"/>
<path d="M311.09 208.12C309.22 208.951 307.749 210.48 306.99 212.38C306.12 214.731 305.699 217.224 305.75 219.73V236.38L305.5 267.83C317.7 274.26 333.21 274.69 346.23 265.18C346.23 265.18 345.5 224.71 345.5 218.09C345.5 217.79 345.5 217.49 345.5 217.18C345.02 207.72 335.71 201.18 326.5 203.59L318.8 205.59L311.07 208.14L311.09 208.12Z" fill="#F0F0F0"/>
<path d="M341.176 185.41C345.737 180.849 345.737 173.453 341.176 168.892C336.614 164.331 329.219 164.331 324.658 168.892C320.096 173.453 320.096 180.849 324.658 185.41C329.219 189.971 336.614 189.971 341.176 185.41Z" fill="#263238"/>
<path d="M312.72 185.45C312.72 185.45 314.61 194.34 315.37 195.81C315.876 196.711 316.711 197.381 317.7 197.68L317.57 191.43L312.72 185.45Z" fill="#263238"/>
<path d="M315.09 172.71C314.429 172.633 313.759 172.708 313.131 172.93C312.504 173.152 311.936 173.515 311.47 173.99C309.91 175.58 310.78 180.57 312.72 185.45L316.28 185.86L315.09 172.71Z" fill="#263238"/>
<path d="M317.35 185.86C316.64 186.29 315.62 184.92 314.74 183.99C313.86 183.06 310.98 181.81 309.54 184.84C308.1 187.87 310.81 191.99 313.07 192.7C316.98 193.93 317.57 191.43 317.57 191.43L317.85 205.94C322.71 212.17 336.18 211.64 330.57 205.14V200.85C332.308 201.129 334.072 201.22 335.83 201.12C338.7 200.68 340.51 198.41 341.38 195.3C342.78 190.3 343.31 186.3 342.13 176.46C340.82 165.7 328.31 165.58 321.55 169.84C314.79 174.1 317.35 185.86 317.35 185.86Z" fill="#B16668"/>
<path d="M317.35 187.07C316.99 187.07 315.63 184.8 314.74 183.99C313.5 182.87 315.09 172.71 315.09 172.71C314.767 171.83 314.708 170.875 314.919 169.962C315.131 169.05 315.603 168.218 316.28 167.57C317.97 165.71 319.81 164.57 324.68 164.28C328.019 164.264 331.357 164.421 334.68 164.75C339.49 165.07 341.26 163.89 344.03 163.11C346.14 162.52 346.38 170.11 341.03 172.68C341.03 172.68 339.29 173.8 334.72 174.36C330.495 174.671 326.25 174.591 322.04 174.12C320.72 173.94 320.44 175.22 319.72 178.73C319.08 181.82 318.56 187 317.35 187.07Z" fill="#263238"/>
<path d="M315.1 173.5L310.78 171.18C310.918 170.889 311.114 170.629 311.355 170.416C311.596 170.203 311.878 170.041 312.184 169.94C312.49 169.839 312.813 169.801 313.133 169.829C313.454 169.856 313.766 169.948 314.05 170.1C314.628 170.423 315.059 170.957 315.255 171.59C315.45 172.223 315.395 172.907 315.1 173.5Z" fill="#263238"/>
<path d="M330.56 200.85C330.56 200.85 324.15 199.56 321.91 198.37C320.59 197.683 319.51 196.613 318.81 195.3C319.147 196.613 319.746 197.844 320.57 198.92C322.21 201.01 330.57 202.56 330.57 202.56L330.56 200.85Z" fill="#9A4A4D"/>
<path d="M330.24 184.26C330.228 184.51 330.143 184.752 329.996 184.954C329.848 185.156 329.644 185.311 329.41 185.399C329.175 185.487 328.92 185.504 328.676 185.448C328.431 185.392 328.209 185.265 328.036 185.084C327.863 184.903 327.747 184.675 327.702 184.428C327.657 184.182 327.686 183.928 327.784 183.697C327.883 183.467 328.046 183.27 328.255 183.132C328.464 182.994 328.709 182.92 328.96 182.92C329.132 182.922 329.303 182.959 329.461 183.028C329.619 183.097 329.762 183.197 329.881 183.322C330 183.447 330.093 183.594 330.155 183.755C330.216 183.916 330.245 184.088 330.24 184.26Z" fill="#263238"/>
<path d="M328.88 179.41L326.13 180.93C325.937 180.552 325.895 180.114 326.014 179.707C326.133 179.3 326.404 178.954 326.77 178.74C326.951 178.64 327.151 178.578 327.357 178.558C327.563 178.538 327.771 178.56 327.968 178.623C328.166 178.686 328.348 178.788 328.505 178.923C328.661 179.058 328.789 179.224 328.88 179.41Z" fill="#263238"/>
<path d="M330 193.13L332.93 194.24C332.869 194.44 332.768 194.626 332.633 194.786C332.498 194.946 332.332 195.076 332.145 195.17C331.958 195.264 331.754 195.318 331.545 195.33C331.336 195.342 331.127 195.311 330.93 195.24C330.53 195.079 330.209 194.769 330.035 194.374C329.861 193.98 329.849 193.533 330 193.13Z" fill="#9A4A4D"/>
<path d="M341.33 180.48L338.82 178.55C338.937 178.379 339.088 178.235 339.263 178.125C339.438 178.016 339.634 177.943 339.838 177.912C340.043 177.881 340.251 177.892 340.451 177.945C340.651 177.998 340.838 178.092 341 178.22C341.334 178.483 341.554 178.864 341.615 179.284C341.677 179.704 341.575 180.132 341.33 180.48Z" fill="#263238"/>
<path d="M340.56 183.89C340.576 184.068 340.554 184.247 340.497 184.417C340.439 184.586 340.347 184.742 340.226 184.874C340.106 185.006 339.959 185.112 339.795 185.184C339.631 185.256 339.454 185.293 339.275 185.293C339.096 185.293 338.919 185.256 338.755 185.184C338.591 185.112 338.444 185.006 338.324 184.874C338.203 184.742 338.111 184.586 338.053 184.417C337.996 184.247 337.974 184.068 337.99 183.89C337.985 183.718 338.014 183.546 338.076 183.386C338.137 183.225 338.231 183.079 338.35 182.955C338.469 182.831 338.612 182.732 338.77 182.664C338.928 182.596 339.098 182.561 339.27 182.56C339.442 182.562 339.612 182.599 339.77 182.667C339.928 182.735 340.071 182.834 340.19 182.957C340.31 183.081 340.405 183.227 340.468 183.387C340.531 183.547 340.563 183.718 340.56 183.89Z" fill="#263238"/>
<path d="M334.01 182.68L334.43 190.4L338.47 189.03L334.01 182.68Z" fill="#9A4A4D"/>
<path d="M317.62 386.83V385.62C318.43 385.97 320.32 393.18 323.7 396.26C326.38 398.7 330.04 401.53 330.97 404.26C331.9 406.99 325.87 408.66 323.37 408.26C320.46 407.74 315.37 405.69 314.15 403.79C312.93 401.89 312.29 399.09 311.26 397.7C310.23 396.31 307.86 394.75 307.26 393.14C306.96 392.26 307.32 390.32 307.75 388.68C308.18 387.04 308.57 385.53 309.08 385.68V386.6C310.288 387.555 311.79 388.064 313.33 388.04C314.61 388 317.63 387.78 317.62 386.83Z" fill="#263238"/>
<path d="M341.23 377.81C341.67 377.81 342.03 378.45 343 379.5C344.453 380.971 346.144 382.188 348 383.1C351.18 384.69 357.37 387.1 360.17 388.41C361.92 389.2 361.84 391.31 360.03 392.51C358.22 393.71 353.86 394.58 348.61 393.41C345.76 392.77 342.04 390.13 339.69 390.27C337.34 390.41 332.93 390.38 331.19 389.18C329.45 387.98 330.19 385.43 330.64 383.23C331.18 380.84 331.85 377.1 332.64 377.23V378.06C333.64 379.6 338.94 380.23 341.18 379.06L341.23 377.81Z" fill="#263238"/>
<path d="M327.18 287.29C331.57 285.92 335.605 283.602 339 280.5C339 280.5 336.72 284.78 329.92 288.76L330.83 318.76L327.18 287.29Z" fill="#263238"/>
<path d="M291.66 250.37C297.11 218.47 302.66 208.77 311.83 208.44C314.65 211.49 314.39 221.15 310.47 227.19C310.47 227.19 302.07 247.46 300.92 254.58C299.92 260.83 298.81 268.68 299.16 274C299.238 274.938 299.653 275.816 300.33 276.47C302.14 278.25 302.22 279.74 303.43 281.74C304.38 283.31 305.36 283.86 305.11 284.24C304.771 284.64 304.294 284.899 303.773 284.963C303.253 285.028 302.727 284.895 302.3 284.59C301.468 284.049 300.717 283.393 300.07 282.64C300.469 284.598 301.142 286.49 302.07 288.26C304.21 292.5 303.86 294.74 297.91 293.49C294.19 292.7 291.73 289.75 290.74 280.95C290.317 277.711 290.123 274.446 290.16 271.18C290.5 262.76 290.8 255.39 291.66 250.37Z" fill="#B16668"/>
<path d="M314.06 207.14C311.28 207.65 304.15 207.9 300.49 215.27C298.09 220.12 295.67 227.72 293.08 236.82C293.08 236.82 298.43 242.36 306.32 241.57L310.74 228.83C314.93 223.41 316 211.22 314.06 207.14Z" fill="#455A64"/>
<path d="M263.44 205C255.67 173.71 246.79 166.45 255.09 162.23C263.62 161.4 268.02 166.44 269.5 175.42C270.23 179.82 271.81 197.86 273.79 204.93C275.54 211.14 277.88 218.88 280.48 223.63C280.948 224.47 281.71 225.107 282.62 225.42C285.05 226.29 285.77 227.64 287.74 228.97C289.29 229.97 290.43 230.1 290.36 230.55C290.223 231.067 289.895 231.512 289.442 231.796C288.989 232.08 288.445 232.181 287.92 232.08C286.92 231.934 285.944 231.651 285.02 231.24C286.216 232.878 287.636 234.339 289.24 235.58C293.04 238.58 293.67 240.82 287.64 242.2C283.86 243.06 280.33 241.39 275.64 233.68C273.858 230.866 272.281 227.929 270.92 224.89C267.66 217 264.69 210.08 263.44 205Z" fill="#FFA8A7"/>
<path d="M236.63 344.55V343.34C237.11 344.76 239.33 350.89 242.7 353.96C245.38 356.41 249.03 359.23 249.96 361.96C250.89 364.69 244.88 365.74 242.37 365.3C239.47 364.79 235.71 363.14 233.66 360.62C232.22 358.85 231.3 356.76 230.27 355.37C229.24 353.98 226.88 352.42 226.27 350.81C225.97 349.93 226.33 347.99 226.76 346.36C227.19 344.73 227.58 343.2 228.09 343.36V344.28C229.302 345.228 230.801 345.736 232.34 345.72C233.63 345.74 236.64 345.5 236.63 344.55Z" fill="#263238"/>
<path d="M245.12 356.11C244.29 355.37 243.46 354.65 242.7 353.95C240.35 351.81 238.55 348.17 237.52 345.68C236.932 344.266 236.629 342.751 236.63 341.22V336.38H228.14V344.25V344.46C228.55 346.22 232.45 350.91 234.66 353.97C236.14 356.02 238.96 358.63 242.33 359.08C245.57 359.54 247.2 358.53 245.12 356.11Z" fill="#FFA8A7"/>
<path d="M269.75 336.18V335C270.22 336.42 272.45 342.55 275.81 345.62C278.49 348.07 282.15 350.89 283.07 353.62C283.99 356.35 277.99 357.4 275.49 356.96C272.58 356.45 268.82 354.8 266.77 352.28C265.33 350.51 264.42 348.42 263.39 347.03C262.36 345.64 259.99 344.08 259.44 342.47C259.13 341.59 259.49 339.65 259.92 338.02C260.35 336.39 260.74 334.87 261.26 335.02V335.94C262.468 336.889 263.964 337.397 265.5 337.38C266.74 337.37 269.76 337.13 269.75 336.18Z" fill="#263238"/>
<path d="M278.24 347.74C277.41 347 276.57 346.28 275.81 345.59C273.46 343.44 271.67 339.8 270.64 337.31C270.051 335.897 269.748 334.381 269.75 332.85V328H261.26V335.87V336.08C261.67 337.84 265.56 342.53 267.78 345.59C269.26 347.64 272.08 350.25 275.45 350.7C278.68 351.17 280.31 350.16 278.24 347.74Z" fill="#FFA8A7"/>
<path d="M229.83 212.61C223.25 226.98 230.07 277.61 230.07 277.61C229.87 279.94 227.2 284.54 226.21 294.8C225.03 306.93 228.05 337.4 228.05 337.4C229.344 338.151 230.803 338.574 232.298 338.633C233.793 338.693 235.28 338.386 236.63 337.74C236.63 337.74 244.72 291.86 246.24 279.8C247.57 269.27 250.12 246.12 250.12 246.12L257.36 279.74C256.302 283.131 255.536 286.607 255.07 290.13C254.38 297.22 261.26 330.26 261.26 330.26C261.26 330.26 264.19 331.33 269.75 330.51C269.75 330.51 272.18 286.68 272.82 278.13C273.89 263.78 270.08 218.99 267.45 210.49L229.83 212.61Z" fill="#43BA8F"/>
<path opacity="0.1" d="M250.12 246.13L252.26 232.78C252.26 232.78 261.26 230.91 265.4 227.05C265.4 227.05 261.1 232.41 254.71 234.16L252.31 244.44L256.5 275.56L250.12 246.13Z" fill="black"/>
<path d="M241.44 162.66C233 163.24 232.44 167.32 230.3 171.78C228.751 175.211 228.607 179.113 229.9 182.65L235.78 199.65C233.384 203.782 231.391 208.135 229.83 212.65C244.59 220.88 263.01 216.55 267.45 210.54C267.64 209.27 266.5 199.3 265.79 192.79C268.39 186.27 269.08 182.14 267.98 177.79C265.98 169.79 258.05 162 254.55 162.28L241.44 162.66Z" fill="#F5F5F5"/>
<path d="M251.47 154.91H245.25C243.189 154.919 241.146 154.522 239.238 153.741C237.33 152.961 235.595 151.812 234.131 150.36C232.668 148.909 231.505 147.183 230.708 145.282C229.912 143.381 229.498 141.341 229.49 139.28C229.469 134.293 231.429 129.501 234.939 125.959C238.45 122.417 243.223 120.414 248.21 120.39C250.68 120.379 253.128 120.855 255.414 121.791C257.701 122.727 259.78 124.103 261.534 125.843C263.288 127.582 264.683 129.649 265.638 131.928C266.593 134.206 267.09 136.65 267.1 139.12C267.113 141.184 266.719 143.23 265.94 145.141C265.161 147.052 264.013 148.791 262.561 150.258C261.109 151.725 259.382 152.89 257.479 153.689C255.576 154.487 253.534 154.902 251.47 154.91Z" fill="#263238"/>
<path d="M243.34 116C246.03 120 243.18 122.66 239.22 125.35C235.26 128.04 231.71 129.68 229.02 125.73C226.33 121.78 227.81 117.36 231.77 114.73C235.73 112.1 240.66 112.05 243.34 116Z" fill="#263238"/>
<path d="M233.66 128.24L229.66 131.18C229.455 130.928 229.304 130.637 229.214 130.324C229.125 130.012 229.1 129.685 229.14 129.363C229.18 129.041 229.285 128.73 229.448 128.449C229.611 128.169 229.83 127.924 230.09 127.73C230.634 127.332 231.312 127.162 231.979 127.257C232.646 127.353 233.249 127.705 233.66 128.24Z" fill="#263238"/>
<path d="M259.84 128.8C261.84 129.96 264.31 134.95 264.11 145.43C263.94 154.31 261.11 156.51 259.63 157.15C258.15 157.79 255.4 157.42 252.69 156.98L252.85 162.37C252.85 162.37 257.41 166.11 257.19 168.55C256.97 170.99 250.86 172.12 247.34 169.75C245.046 168.154 242.922 166.328 241 164.3C240.909 164.198 240.859 164.066 240.86 163.93V150.49C240.86 150.49 239.27 152.05 236.56 149.69C234.32 147.75 233.56 144.46 235.28 142.69C235.729 142.267 236.272 141.957 236.864 141.786C237.456 141.615 238.081 141.587 238.686 141.705C239.291 141.824 239.859 142.084 240.343 142.466C240.827 142.848 241.214 143.339 241.47 143.9C241.47 143.9 245.8 144.04 251.54 140.85C253.774 139.636 255.69 137.912 257.132 135.818C258.574 133.724 259.502 131.32 259.84 128.8Z" fill="#FFA8A7"/>
<path d="M254.19 143.24C254.194 143.459 254.133 143.675 254.014 143.86C253.896 144.046 253.726 144.192 253.525 144.281C253.325 144.371 253.102 144.399 252.885 144.363C252.668 144.326 252.467 144.227 252.306 144.077C252.146 143.927 252.033 143.734 251.981 143.52C251.93 143.306 251.942 143.082 252.017 142.876C252.092 142.669 252.227 142.489 252.403 142.358C252.58 142.227 252.791 142.151 253.01 142.14C253.312 142.131 253.605 142.242 253.825 142.448C254.046 142.654 254.177 142.938 254.19 143.24Z" fill="#263238"/>
<path d="M254.52 150.76L257.12 151.58C257.073 151.754 256.991 151.916 256.88 152.058C256.769 152.2 256.631 152.319 256.473 152.406C256.316 152.494 256.142 152.549 255.963 152.569C255.784 152.588 255.603 152.571 255.43 152.52C255.082 152.399 254.794 152.149 254.624 151.821C254.455 151.494 254.418 151.114 254.52 150.76Z" fill="#F28F8F"/>
<path d="M263.33 139.77L261.06 138.22C261.153 138.066 261.277 137.933 261.424 137.829C261.571 137.724 261.738 137.651 261.914 137.614C262.09 137.576 262.272 137.575 262.448 137.611C262.625 137.646 262.792 137.717 262.94 137.82C263.241 138.034 263.45 138.355 263.522 138.717C263.594 139.08 263.526 139.456 263.33 139.77Z" fill="#263238"/>
<path d="M262.82 142.4C262.822 142.619 262.759 142.834 262.639 143.018C262.52 143.202 262.349 143.347 262.148 143.435C261.947 143.523 261.725 143.549 261.509 143.512C261.293 143.474 261.092 143.374 260.933 143.224C260.773 143.074 260.661 142.88 260.61 142.667C260.56 142.453 260.573 142.23 260.648 142.024C260.724 141.818 260.858 141.638 261.034 141.508C261.21 141.378 261.421 141.302 261.64 141.29C261.943 141.282 262.238 141.394 262.459 141.602C262.68 141.81 262.81 142.097 262.82 142.4Z" fill="#263238"/>
<path d="M257.79 141.22L257.76 148.5L261.29 147.39L257.79 141.22Z" fill="#F28F8F"/>
<path d="M252.69 157C249.83 156.63 243.95 155 243.03 152.65C243.392 153.84 244.116 154.889 245.1 155.65C246.86 157.14 252.74 158.83 252.74 158.83L252.69 157Z" fill="#F28F8F"/>
<path d="M245.21 214.2C244.055 213.934 242.964 213.44 242.002 212.747C241.041 212.054 240.227 211.176 239.608 210.165C238.99 209.153 238.58 208.029 238.401 206.857C238.223 205.685 238.28 204.489 238.57 203.34C238.611 203.18 238.661 203.023 238.72 202.87C238.921 202.247 239.327 201.71 239.871 201.347C240.416 200.984 241.068 200.816 241.72 200.87C240.827 200.184 240.079 199.329 239.519 198.352C238.96 197.375 238.6 196.297 238.46 195.18L236.24 184.71C236.026 182.974 236.179 181.212 236.69 179.54L230.76 172.68L229.67 173.44C228.769 176.45 228.853 179.67 229.91 182.63L235.79 199.63C233.358 203.743 231.363 208.1 229.84 212.63C234.641 215.211 239.94 216.733 245.379 217.091C250.819 217.45 256.271 216.638 261.37 214.71C256 215.567 250.516 215.394 245.21 214.2Z" fill="#E0E0E0"/>
<path d="M242 239.3L220.54 227C220.54 227 210.1 241.34 217.21 245.39C224.32 249.44 231.37 253.57 238.45 257.66C246.47 254.56 242 239.3 242 239.3Z" fill="#37474F"/>
<path d="M238.45 241.34L221.66 231.63V232.56L238.45 242.37V241.34Z" fill="#43BA8F"/>
<path d="M242 239.3C240.62 243.8 236.47 256.55 238.46 257.7C240.45 258.85 246.6 254.89 246.46 252.5C246.11 245.77 242 239.3 242 239.3Z" fill="#455A64"/>
<path d="M236.07 162.62C236.948 162.533 237.831 162.727 238.591 163.175C239.352 163.622 239.95 164.3 240.3 165.11C243.73 171.63 241.37 238.95 241.37 238.95L239.05 237.62C239.05 237.62 239.86 215.92 239.78 196.16C239.72 181.65 239.18 167.95 238.56 166.46C238.264 165.602 237.685 164.871 236.918 164.386C236.151 163.9 235.242 163.69 234.34 163.79C234.525 163.48 234.776 163.215 235.075 163.013C235.374 162.811 235.714 162.677 236.07 162.62Z" fill="#263238"/>
<path d="M214.73 205C221.29 178.18 226.38 166.67 233.56 164C234.098 163.791 234.675 163.706 235.25 163.749C235.825 163.793 236.383 163.965 236.883 164.253C237.383 164.541 237.812 164.937 238.138 165.412C238.465 165.888 238.681 166.43 238.77 167C239.389 172.412 238.052 177.867 235 182.38C235 182.38 225.43 202.58 223.9 209.76C222.56 216.04 221.05 223.94 221.13 229.36C221.15 230.337 221.527 231.272 222.19 231.99C223.95 233.89 223.95 235.42 225.09 237.52C225.97 239.16 226.94 239.78 226.67 240.14C226.307 240.534 225.808 240.775 225.273 240.816C224.739 240.857 224.209 240.694 223.79 240.36C222.974 239.766 222.244 239.063 221.62 238.27C221.916 240.278 222.495 242.234 223.34 244.08C225.34 248.51 224.83 250.77 218.85 249.19C215.1 248.19 212.75 245.08 212.19 236.07C211.911 232.743 211.878 229.401 212.09 226.07C212.92 217.56 213.49 210.05 214.73 205Z" fill="#FFA8A7"/>
<path d="M210.34 167C210.94 161.14 210.94 158.66 210.76 157.93C209.94 154.6 207.62 151.93 205.18 147.93C201 141 194.68 130.18 191.77 126C189.47 122.72 186.99 120.8 183.2 121C180.56 121.15 182.61 131.6 185.2 139.13L199.15 158.38C199.609 159.009 199.82 159.785 199.74 160.56L198.38 174.28L202.83 180.23C202.83 180.23 209.57 174.47 210.34 167Z" fill="#FFA8A7"/>
<path d="M210.42 166.16C210.22 165.16 209.52 164.27 207.69 164.34C205.86 164.41 204.43 166.77 204.43 166.77L209.59 169.06C209.86 168.38 210.12 167.68 210.34 166.98C210.37 166.7 210.4 166.43 210.42 166.16Z" fill="#F28F8F"/>
<path d="M181.67 120.9C181.67 120.9 187.4 120.18 190.58 123.64C193.76 127.1 195.31 129.99 198.39 135.1C202.1 141.26 203.71 144.42 203.71 144.42C203.71 144.42 197.91 152.17 189.36 151.16L181.67 120.9Z" fill="#37474F"/>
<path d="M191.576 102.392C196.204 97.7647 196.204 90.2617 191.576 85.634C186.949 81.0063 179.446 81.0063 174.818 85.634C170.19 90.2617 170.19 97.7647 174.818 102.392C179.446 107.02 186.949 107.02 191.576 102.392Z" fill="#263238"/>
<path d="M154.83 308.77H163.18V294.48H154.83V308.77Z" fill="#FFA8A7"/>
<path d="M183.77 298.77L192.11 299.06L192.53 283.94L184.19 283.66L183.77 298.77Z" fill="#FFA8A7"/>
<path d="M155.38 181.23C155.38 189.23 154.38 237.5 154.38 237.5C154.18 239.79 152.04 244.02 152.5 252.83C153.13 264.83 154.17 295.89 154.17 295.89C154.17 295.89 158.08 299.77 163.6 295.89C163.6 295.89 171.16 252.89 172.66 241.01C173.96 230.66 176.18 202.55 176.18 202.55L180.8 241.55C180.8 241.55 179.44 249.33 179.14 254.82C178.84 260.31 183.67 288.17 183.67 288.17C185.021 289.016 186.57 289.493 188.163 289.555C189.756 289.616 191.338 289.259 192.75 288.52C192.75 288.52 196.35 246.03 197.21 241.07C198.07 236.11 194.44 181.21 194.44 181.21L155.38 181.23Z" fill="#EBEBEB"/>
<path d="M163.4 123.58C161.623 123.892 159.979 124.724 158.674 125.969C157.37 127.215 156.464 128.82 156.07 130.58C155.609 132.662 155.377 134.788 155.38 136.92V181.22C161.23 187.59 181.63 190.56 194.38 181.22C194.38 181.22 194.13 142.09 193.18 135.66C191.51 124.49 186.18 120.51 180.8 120.92L167.91 122.77L163.4 123.58Z" fill="#43BA8F"/>
<path d="M162.72 102.43C162.72 102.43 164.64 111.43 165.41 112.94C165.924 113.853 166.769 114.533 167.77 114.84L167.64 108.49L162.72 102.43Z" fill="#263238"/>
<path d="M165.13 89.51C164.458 89.4336 163.778 89.5109 163.14 89.7361C162.503 89.9613 161.925 90.3286 161.45 90.81C159.87 92.42 160.76 97.48 162.72 102.43L166.34 102.85L165.13 89.51Z" fill="#263238"/>
<path d="M167.42 102.85C166.7 103.29 165.67 101.85 164.77 100.96C163.87 100.07 160.96 98.7404 159.5 101.81C158.04 104.88 160.79 109.07 163.08 109.81C167.08 111.06 167.64 108.51 167.64 108.51L167.94 122.8C168.816 124.717 170.153 126.387 171.832 127.66C173.51 128.934 175.478 129.773 177.56 130.1C184.56 131.05 183.14 125.26 180.83 122.42V118.08C182.595 118.36 184.385 118.451 186.17 118.35C189.08 117.9 190.91 115.6 191.8 112.45C193.22 107.38 193.8 103.29 192.55 93.3304C191.23 82.4204 178.55 82.3304 171.68 86.6204C164.81 90.9104 167.42 102.85 167.42 102.85Z" fill="#FFA8A7"/>
<path d="M167.42 104.07C167.06 104.07 165.67 101.78 164.77 100.96C163.52 99.8201 165.13 89.5101 165.13 89.5101C164.803 88.6182 164.743 87.6501 164.958 86.7246C165.173 85.7991 165.653 84.9564 166.34 84.3001C168.05 82.4101 170.92 82.2001 175.81 81.4401C178.37 81.0301 182.26 80.3201 184.81 79.8401C187.87 79.2701 190.4 78.6701 192.56 80.5501C193.408 81.2822 194.007 82.2592 194.276 83.3465C194.544 84.4337 194.469 85.5775 194.06 86.6201C193.841 87.097 193.547 87.5358 193.19 87.9201C192.607 88.6134 191.847 89.1353 190.99 89.4301C190.99 89.4301 189.66 90.6201 184.99 91.1801C180.705 91.5022 176.4 91.4219 172.13 90.9401C170.79 90.7601 170.5 92.0601 169.78 95.6201C169.18 98.7501 168.65 104.05 167.42 104.07Z" fill="#263238"/>
<path d="M165.14 90.3101L160.76 88.0001C160.898 87.7042 161.095 87.4396 161.339 87.2224C161.583 87.0053 161.868 86.8402 162.178 86.7372C162.488 86.6342 162.816 86.5956 163.141 86.6236C163.466 86.6516 163.782 86.7457 164.07 86.9001C164.649 87.2258 165.081 87.7597 165.28 88.3932C165.479 89.0268 165.429 89.7122 165.14 90.3101Z" fill="#263238"/>
<path d="M180.82 118.06C180.82 118.06 174.32 116.75 172.04 115.54C170.705 114.842 169.611 113.759 168.9 112.43C169.246 113.761 169.855 115.008 170.69 116.1C172.35 118.22 180.82 119.79 180.82 119.79V118.06Z" fill="#F28F8F"/>
<path d="M179.26 101.23C179.276 101.411 179.254 101.594 179.195 101.766C179.137 101.938 179.044 102.096 178.921 102.23C178.798 102.364 178.649 102.471 178.483 102.544C178.316 102.617 178.137 102.655 177.955 102.655C177.773 102.655 177.594 102.617 177.427 102.544C177.261 102.471 177.112 102.364 176.989 102.23C176.866 102.096 176.773 101.938 176.714 101.766C176.656 101.594 176.634 101.411 176.65 101.23C176.646 101.056 176.677 100.883 176.74 100.721C176.803 100.558 176.898 100.41 177.019 100.285C177.14 100.159 177.284 100.059 177.444 99.9894C177.604 99.92 177.776 99.883 177.95 99.8804C178.302 99.8882 178.637 100.034 178.882 100.287C179.127 100.539 179.263 100.878 179.26 101.23Z" fill="#263238"/>
<path d="M177.87 96.31L175.09 97.85C174.888 97.4681 174.843 97.0226 174.965 96.6081C175.086 96.1936 175.364 95.8428 175.74 95.63C175.923 95.5291 176.125 95.4665 176.333 95.4462C176.542 95.4259 176.752 95.4483 176.951 95.5119C177.151 95.5755 177.335 95.6791 177.493 95.8163C177.651 95.9536 177.779 96.1215 177.87 96.31Z" fill="#263238"/>
<path d="M180.23 110.23L183.23 111.34C183.168 111.539 183.066 111.724 182.931 111.883C182.796 112.043 182.63 112.173 182.443 112.266C182.256 112.36 182.053 112.414 181.844 112.427C181.636 112.44 181.427 112.41 181.23 112.34C180.819 112.191 180.484 111.886 180.296 111.491C180.109 111.095 180.085 110.642 180.23 110.23Z" fill="#F28F8F"/>
<path d="M190.88 97.3901L188.33 95.3901C188.45 95.2189 188.603 95.0738 188.781 94.9638C188.959 94.8538 189.157 94.7812 189.364 94.7503C189.571 94.7194 189.782 94.731 189.984 94.7842C190.186 94.8375 190.375 94.9314 190.54 95.0601C190.889 95.328 191.119 95.7212 191.183 96.1562C191.246 96.5912 191.137 97.0338 190.88 97.3901Z" fill="#263238"/>
<path d="M190.09 100.86C190.078 101.114 189.992 101.359 189.842 101.565C189.693 101.771 189.486 101.928 189.247 102.017C189.009 102.107 188.75 102.124 188.502 102.067C188.253 102.011 188.027 101.882 187.852 101.698C187.676 101.514 187.558 101.283 187.512 101.032C187.467 100.782 187.496 100.524 187.596 100.29C187.696 100.056 187.862 99.856 188.074 99.7156C188.287 99.5752 188.535 99.5003 188.79 99.5C188.965 99.5039 189.137 99.5422 189.297 99.6126C189.457 99.6831 189.601 99.7844 189.722 99.9107C189.842 100.037 189.937 100.186 190 100.349C190.063 100.512 190.094 100.685 190.09 100.86Z" fill="#263238"/>
<path d="M183.45 99.6201L183.88 107.46L187.97 106.06L183.45 99.6201Z" fill="#F28F8F"/>
<path d="M163.18 304.65V303.46C163.98 303.81 165.83 310.88 169.18 313.9C171.82 316.3 175.41 319.08 176.32 321.75C177.23 324.42 171.32 326.08 168.86 325.64C166 325.13 161.05 323.12 159.86 321.26C158.67 319.4 158.03 316.64 157.02 315.26C156.01 313.88 153.68 312.37 153.13 310.79C152.83 309.92 153.19 308.02 153.61 306.41C154.03 304.8 154.42 303.31 154.92 303.41V304.32C156.11 305.249 157.58 305.746 159.09 305.73C160.23 305.82 163.19 305.58 163.18 304.65Z" fill="#263238"/>
<path d="M192.2 296.49C192.63 296.49 192.98 297.11 193.94 298.15C195.366 299.595 197.026 300.789 198.85 301.68C201.97 303.25 208.05 305.68 210.85 306.89C212.57 307.66 212.48 309.74 210.71 310.89C208.94 312.04 204.65 312.89 199.5 311.77C196.69 311.14 193.04 308.55 190.73 308.69C188.42 308.83 184.1 308.8 182.39 307.62C180.68 306.44 181.39 303.94 181.85 301.78C182.38 299.43 183.13 295.78 183.91 295.98V296.73C184.91 298.24 190.02 298.86 192.22 297.73L192.2 296.49Z" fill="#263238"/>
<path d="M176.15 202.55C180.463 201.205 184.429 198.932 187.77 195.89C187.77 195.89 185.52 200.09 178.86 203.99L180.77 241.57L176.15 202.55Z" fill="#E0E0E0"/>
<path d="M142.46 193.78C142.727 197.567 143.228 201.335 143.96 205.06C146.46 214.7 149.66 217.59 153.96 217.87C160.77 218.33 160.81 215.78 157.76 211.39C156.429 209.475 155.416 207.358 154.76 205.12C155.76 205.954 156.858 206.663 158.03 207.23C158.553 207.502 159.158 207.567 159.727 207.413C160.295 207.26 160.785 206.898 161.1 206.4C161.32 205.94 160.1 205.48 158.83 203.89C157.17 201.89 156.32 200.24 154.02 198.55C153.254 197.797 152.768 196.806 152.64 195.74C152.3 194.37 152.06 172.51 153.3 167.99L159.15 146.99C163.92 143.72 168.99 127.54 161.75 124.1C154.95 124.87 149.99 133.76 142.58 161.22C141.2 166.05 141.69 186.3 142.46 193.78Z" fill="#FFA8A7"/>
<path d="M163.18 123.67C164.112 124.498 164.856 125.514 165.363 126.653C165.87 127.791 166.128 129.024 166.12 130.27C166.31 134.85 164.12 141.45 162.87 145.58C161.62 149.71 158.87 157.18 158.87 157.18C158.87 157.18 147.68 155.9 145.13 149.33C145.13 149.33 150.38 132.33 155.42 126.85C156.382 125.759 157.583 124.905 158.928 124.353C160.274 123.802 161.729 123.568 163.18 123.67Z" fill="#37474F"/>
<path d="M209 159.79L208.11 159.03C207.977 158.942 207.825 158.887 207.667 158.87C207.509 158.852 207.349 158.873 207.2 158.93L197.64 161.53C197.158 161.688 196.717 161.949 196.346 162.294C195.975 162.64 195.683 163.061 195.49 163.53L188.6 183.39C188.519 183.551 188.489 183.732 188.512 183.91C188.535 184.088 188.611 184.255 188.73 184.39L189.64 185.18V184.52H189.71L199.28 181.92C199.762 181.762 200.203 181.501 200.574 181.156C200.945 180.81 201.237 180.389 201.43 179.92C202.78 176.01 206.96 163.92 208.32 160.05C208.357 159.936 208.38 159.819 208.39 159.7L209 159.79Z" fill="#455A64"/>
<path d="M189.45 184.18L196.33 164.31C196.524 163.842 196.816 163.421 197.187 163.076C197.558 162.731 197.999 162.47 198.48 162.31L208.05 159.71C208.94 159.47 209.41 159.98 209.11 160.84C207.76 164.75 203.58 176.84 202.23 180.71C202.034 181.177 201.742 181.597 201.371 181.942C201 182.287 200.56 182.549 200.08 182.71L190.51 185.31C189.62 185.55 189.15 185 189.45 184.18Z" fill="#263238"/>
<path d="M206.31 168.84C205.64 170.84 203.23 172.21 199.31 173.15C195.39 174.09 193.17 178.28 193.81 179.56C194.45 180.84 200.81 182.02 203.38 181.66C205.95 181.3 208.51 177.6 209.28 176.46C210.05 175.32 210.96 167.33 210.14 166.24C209.811 165.905 209.411 165.647 208.97 165.487C208.529 165.326 208.057 165.265 207.59 165.31L206.31 168.84Z" fill="#FFA8A7"/>
<path d="M132.93 140L108.34 125.94C108.34 125.94 96.34 142.39 104.52 147.04C112.7 151.69 120.76 156.41 128.87 161.1C138.07 157.49 132.93 140 132.93 140Z" fill="#43BA8F"/>
<path opacity="0.2" d="M132.93 140L108.34 125.94C108.34 125.94 96.34 142.39 104.52 147.04C112.7 151.69 120.76 156.41 128.87 161.1C138.07 157.49 132.93 140 132.93 140Z" fill="black"/>
<path d="M128.87 142.34L112.64 132.96V134.03L128.87 143.51V142.34Z" fill="#263238"/>
<path d="M132.93 140C131.35 145.17 126.59 159.78 128.87 161.1C131.15 162.42 138.21 157.88 138.07 155.1C137.66 147.41 132.93 140 132.93 140Z" fill="#43BA8F"/>
<path d="M96.68 34.6299H99.85C104.571 34.6299 109.098 36.5052 112.437 39.8434C115.775 43.1815 117.65 47.709 117.65 52.4299V90.2499H78.88V52.4299C78.88 47.709 80.7554 43.1815 84.0935 39.8434C87.4317 36.5052 91.9592 34.6299 96.68 34.6299Z" fill="#263238"/>
<path d="M133.17 121.11C135.49 118.95 134.54 116.43 131.32 109.52C128.1 102.61 120.44 86.6298 118.52 83.1998C115.17 77.1998 111.24 76.8998 105.33 76.9198C102.95 76.9198 108.98 83.7398 111.7 90.3498C114.15 96.3498 123.7 115.9 123.7 115.9L133.17 121.11Z" fill="#B16668"/>
<path d="M95.4 276C94.55 275.24 93.69 274.49 92.91 273.78C90.49 271.58 88.65 267.84 87.59 265.29C86.9884 263.834 86.6792 262.275 86.68 260.7V255.7H78V263.78V264H78.05C78.47 265.81 82.47 270.63 84.74 273.77C86.26 275.88 89.16 278.56 92.62 279.02C95.85 279.47 97.53 278.43 95.4 276Z" fill="#B16668"/>
<path d="M120.59 262.69C120.833 262.548 121.044 262.357 121.21 262.13C121.89 261.2 121.35 260.69 120.86 259.95C120.26 258.913 119.757 257.821 119.36 256.69C118.96 255.69 118.43 253.93 118.43 253.93C118.43 253.93 118.43 252.62 118.43 252.1V247.1H109.71V255.41C110.16 257.34 111.92 259.22 113.08 260.76C113.97 261.95 116.28 262.56 117.67 262.86C118.284 263.015 118.921 263.055 119.55 262.98C119.913 262.956 120.267 262.857 120.59 262.69Z" fill="#B16668"/>
<path d="M79.7 128.6C72.94 143.36 79.94 195.36 79.94 195.36C79.74 197.75 77 202.47 75.94 213.01C74.73 225.47 77.83 256.74 77.83 256.74C79.1589 257.512 80.6561 257.947 82.1916 258.008C83.7271 258.069 85.2542 257.754 86.64 257.09C86.64 257.09 95 210 96.55 197.6C97.91 186.79 100.55 163.03 100.55 163.03L105.75 197.59C104.663 201.069 103.877 204.636 103.4 208.25C102.69 215.54 109.75 249.46 109.75 249.46C109.75 249.46 112.75 250.56 118.47 249.72C118.47 249.72 120.96 204.72 121.62 195.93C122.73 181.19 121.05 135.17 118.34 126.44L79.7 128.6Z" fill="#37474F"/>
<path d="M100.53 163L102.72 149.29C102.72 149.29 112.01 147.37 116.22 143.41C116.22 143.41 111.8 148.9 105.22 150.7L102.76 161.26L104.96 192.56L100.53 163Z" fill="#263238"/>
<path d="M86.7 262.46V261.2C87.54 261.56 89.49 268.99 92.96 272.15C95.72 274.66 99.48 277.57 100.43 280.37C101.38 283.17 95.2 284.89 92.62 284.44C89.62 283.91 84.44 281.8 83.14 279.85C81.84 277.9 81.23 275.01 80.14 273.58C79.05 272.15 76.65 270.58 76.07 268.9C75.76 267.99 76.13 265.99 76.57 264.31C77.01 262.63 77.42 261.06 77.95 261.21V262.21C79.1922 263.186 80.7305 263.708 82.31 263.69C83.61 263.69 86.71 263.43 86.7 262.46Z" fill="#263238"/>
<path d="M118.43 253.93C118.88 253.93 119.37 254.63 120.37 255.71C121.866 257.22 123.603 258.47 125.51 259.41C128.78 261.05 135.14 263.57 138.02 264.87C139.82 265.68 139.74 267.87 137.88 269.08C136.02 270.29 131.53 271.21 126.14 270.01C123.2 269.35 119.38 266.64 116.96 266.78C114.54 266.92 110.02 266.9 108.23 265.66C106.44 264.42 107.16 261.8 107.66 259.55C108.21 257.08 108.9 253.24 109.72 253.4V254.25C110.72 255.84 116.19 256.49 118.5 255.32L118.43 253.93Z" fill="#263238"/>
<path d="M91.62 77.32C82.95 77.92 82.35 82.1 80.18 86.68C78.53 90.16 79.07 94.32 80.33 97.96L85.81 115.31C85.81 115.31 83 122.15 79.7 128.6C94.85 137.06 113.77 132.6 118.32 126.44C118.52 125.13 117.32 114.9 116.62 108.22C119.29 101.52 120 97.28 118.87 92.85C116.78 84.64 108.67 76.64 105.08 76.93L91.62 77.32Z" fill="#43BA8F"/>
<path d="M77.94 42.6299L80.56 46.8499C80.2916 47.035 79.9885 47.1639 79.6691 47.229C79.3496 47.2941 79.0203 47.2939 78.7008 47.2285C78.3814 47.1632 78.0785 47.0339 77.8103 46.8485C77.5421 46.6632 77.3141 46.4255 77.14 46.1499C76.7966 45.5725 76.6882 44.8852 76.8371 44.2301C76.986 43.575 77.3808 43.0022 77.94 42.6299Z" fill="#263238"/>
<path d="M111.29 42.4697C113.29 43.6797 115.87 48.8297 115.62 59.6297C115.4 68.7797 112.44 70.9997 111 71.6997C109.56 72.3997 106.64 71.9497 103.84 71.4897V76.9997C103.84 76.9997 107.7 81.4797 107.46 83.9997C107.22 86.5197 101.89 87.1097 98.27 84.6497C95.9306 82.9665 93.9234 80.8643 92.35 78.4497V65.1497C92.35 65.1497 90.46 67.6697 87.35 65.6197C84.24 63.5697 84.15 58.4997 85.94 56.6797C87.73 54.8597 91.58 55.4397 92.3 57.9997C92.3 57.9997 96.75 58.1697 102.68 54.9097C104.993 53.6602 106.978 51.8823 108.474 49.7206C109.971 47.559 110.935 45.0746 111.29 42.4697Z" fill="#B16668"/>
<path d="M104.37 57.3297C104.382 57.4837 104.364 57.6386 104.315 57.7853C104.267 57.932 104.189 58.0675 104.088 58.1839C103.986 58.3004 103.863 58.3954 103.724 58.4633C103.585 58.5313 103.434 58.5708 103.28 58.5797C102.978 58.5718 102.689 58.45 102.473 58.2387C102.257 58.0275 102.128 57.7423 102.113 57.4402C102.098 57.1382 102.197 56.8416 102.391 56.6097C102.585 56.3778 102.86 56.2278 103.16 56.1897C103.314 56.1843 103.468 56.2097 103.613 56.2642C103.758 56.3187 103.89 56.4014 104.003 56.5074C104.115 56.6134 104.206 56.7406 104.269 56.8818C104.332 57.0229 104.366 57.1751 104.37 57.3297Z" fill="#263238"/>
<path d="M105.7 65.0898L108.38 65.9398C108.338 66.1233 108.258 66.2961 108.146 66.4474C108.033 66.5986 107.891 66.7251 107.728 66.819C107.565 66.9128 107.384 66.972 107.197 66.9928C107.009 67.0136 106.82 66.9956 106.64 66.9398C106.27 66.8186 105.964 66.5558 105.788 66.209C105.612 65.8623 105.58 65.4598 105.7 65.0898Z" fill="#9A4A4D"/>
<path d="M113.81 53.7998L111.48 52.1798C111.578 52.024 111.707 51.8897 111.858 51.7851C112.01 51.6806 112.181 51.6078 112.361 51.5714C112.542 51.5349 112.728 51.5355 112.908 51.573C113.088 51.6105 113.259 51.6843 113.41 51.7898C113.723 52.0084 113.94 52.3397 114.014 52.7143C114.089 53.0889 114.016 53.4778 113.81 53.7998Z" fill="#263238"/>
<path d="M113.27 56.5001C113.282 56.6541 113.264 56.809 113.215 56.9557C113.167 57.1024 113.089 57.2379 112.988 57.3543C112.886 57.4708 112.763 57.5658 112.624 57.6337C112.485 57.7017 112.334 57.7412 112.18 57.7501C111.878 57.7422 111.59 57.6204 111.373 57.4091C111.157 57.1979 111.028 56.9127 111.013 56.6107C110.998 56.3086 111.097 56.012 111.291 55.7801C111.485 55.5482 111.76 55.3982 112.06 55.3601C112.214 55.3547 112.369 55.3801 112.513 55.4346C112.658 55.4891 112.79 55.5718 112.903 55.6778C113.015 55.7838 113.106 55.911 113.169 56.0522C113.232 56.1933 113.266 56.3455 113.27 56.5001Z" fill="#263238"/>
<path d="M107.65 55.8398L107.83 62.7698L111.48 61.6398L107.65 55.8398Z" fill="#9A4A4D"/>
<path d="M103.79 71.4897C100.85 71.0997 94.79 69.3597 93.85 66.9697C94.2377 68.1769 94.9885 69.2351 96 69.9997C97.81 71.5497 103.82 73.2997 103.82 73.2997L103.79 71.4897Z" fill="#9A4A4D"/>
<path opacity="0.1" d="M95.49 130.24C91.37 129.24 87.18 124.75 89.07 120.35C89.6051 119.11 90.5327 118.081 91.71 117.42C92.1406 117.173 92.6382 117.068 93.1319 117.12C93.6257 117.172 94.0904 117.378 94.46 117.71C92.46 116.41 89.07 110.08 88.61 107.77L86.27 99.9999C86.0505 98.2172 86.2073 96.4083 86.73 94.6899L80.64 87.6899L79.52 88.4699C78.52 91.4699 79.27 94.9699 80.33 98.0199L85.81 115.37C85.81 115.37 83 122.15 79.7 128.6C84.6289 131.25 90.0683 132.813 95.652 133.184C101.236 133.554 106.834 132.725 112.07 130.75C106.561 131.627 100.935 131.454 95.49 130.24Z" fill="black"/>
<path d="M65.9 118.81C72.46 91.9998 77.16 82.5198 82.35 79.3898C84.2831 78.2747 86.4784 77.6948 88.71 77.7098C89.4186 78.602 89.8466 79.6843 89.94 80.8198C90.5624 86.2218 89.2361 91.6685 86.2 96.1798C86.2 96.1798 76.63 116.38 75.1 123.56C73.76 129.84 72.25 137.74 72.33 143.16C72.3503 144.136 72.7274 145.072 73.39 145.79C75.15 147.69 75.15 149.22 76.29 151.32C77.17 152.96 78.14 153.57 77.87 153.94C77.5066 154.334 77.0065 154.576 76.4716 154.615C75.9366 154.654 75.4068 154.487 74.99 154.15C74.1717 153.563 73.4411 152.862 72.82 152.07C73.1163 154.078 73.6954 156.034 74.54 157.88C76.54 162.31 76.03 164.57 70.05 162.99C66.3 161.99 63.95 158.88 63.39 149.87C63.1113 146.543 63.0779 143.201 63.29 139.87C64.09 131.36 64.66 123.85 65.9 118.81Z" fill="#B16668"/>
<path d="M103.2 116.66C105 117.18 106.75 116.95 109.2 117.88C111.04 118.662 112.99 119.158 114.98 119.35C117.14 119.53 119.26 117.25 124.79 114.11C130.04 111.11 136.51 117.29 133.15 121.11C131.966 122.249 130.579 123.154 129.06 123.78C126.55 124.78 124.06 125.31 117.63 127.26C116.548 127.63 115.497 128.088 114.49 128.63C113.242 129.194 111.956 129.669 110.64 130.05C107.637 131.036 104.431 131.233 101.33 130.62C99.4108 130.306 97.6418 129.388 96.28 128C95.13 126.7 94.09 124.23 94.48 122.49C94.5822 121.963 94.8609 121.487 95.27 121.14C96.27 120.35 97.82 120.85 98.95 121.03C100.266 121.302 101.606 121.443 102.95 121.45C105.11 121.36 106.62 121 106.32 120.68C106.02 120.36 104.76 120.51 103.05 119.68C101.34 118.85 100.28 117.21 100.77 116.33C101.26 115.45 101.4 116.14 103.2 116.66Z" fill="#B16668"/>
<path d="M123.14 115C123.14 115 126.08 114.51 127.99 117.85C129.9 121.19 130.9 138.85 130.9 138.85L128.9 137.68C128.9 137.68 128.22 123.55 126.52 119.52C126.082 118.496 125.329 117.638 124.371 117.07C123.413 116.502 122.299 116.253 121.19 116.36C121.398 116.007 121.681 115.702 122.017 115.468C122.353 115.233 122.736 115.073 123.14 115Z" fill="#263238"/>
<path d="M55.38 162.36H46.64V298.66C46.6771 299.043 46.8151 299.41 47.04 299.722C47.2648 300.035 47.5684 300.283 47.92 300.44C48.8769 300.928 49.9358 301.182 51.01 301.182C52.0842 301.182 53.1431 300.928 54.1 300.44C54.4516 300.283 54.7552 300.035 54.9801 299.722C55.2049 299.41 55.3429 299.043 55.38 298.66V162.36Z" fill="#37474F"/>
<path d="M51.01 164.88C53.4235 164.88 55.38 163.752 55.38 162.36C55.38 160.968 53.4235 159.84 51.01 159.84C48.5965 159.84 46.64 160.968 46.64 162.36C46.64 163.752 48.5965 164.88 51.01 164.88Z" fill="#455A64"/>
<path d="M53.64 179.21C84.69 208.67 122.25 229.72 165.28 243.67V235C122.28 221 84.69 200 53.64 170.55V179.21Z" fill="#43BA8F"/>
<path opacity="0.7" d="M53.64 179.21C84.69 208.67 122.25 229.72 165.28 243.67V235C122.28 221 84.69 200 53.64 170.55V179.21Z" fill="white"/>
<path d="M167.17 227.25H158.44V363.54C158.473 363.926 158.61 364.295 158.835 364.61C159.06 364.925 159.366 365.174 159.72 365.33C160.677 365.813 161.733 366.065 162.805 366.065C163.877 366.065 164.933 365.813 165.89 365.33C166.244 365.174 166.55 364.925 166.775 364.61C167 364.295 167.137 363.926 167.17 363.54V227.25Z" fill="#37474F"/>
<path d="M159.72 229C160.677 229.483 161.733 229.735 162.805 229.735C163.877 229.735 164.934 229.483 165.89 229C167.6 228 167.6 226.42 165.89 225.43C164.934 224.947 163.877 224.695 162.805 224.695C161.733 224.695 160.677 224.947 159.72 225.43C158 226.45 158 228 159.72 229Z" fill="#455A64"/>
<path d="M164.91 243.29C195.96 272.75 233.52 293.8 276.55 307.75V299.1C233.55 285.1 195.96 264.1 164.91 234.64V243.29Z" fill="#43BA8F"/>
<path opacity="0.7" d="M164.91 243.29C195.96 272.75 233.52 293.8 276.55 307.75V299.1C233.55 285.1 195.96 264.1 164.91 234.64V243.29Z" fill="white"/>
<path d="M279 292.13H270.26V428.43C270.294 428.815 270.431 429.184 270.656 429.499C270.881 429.814 271.186 430.063 271.54 430.22C272.498 430.703 273.557 430.955 274.63 430.955C275.703 430.955 276.762 430.703 277.72 430.22C278.072 430.061 278.376 429.812 278.601 429.497C278.826 429.183 278.964 428.815 279 428.43V292.13Z" fill="#37474F"/>
<path d="M274.6 294.65C277.014 294.65 278.97 293.522 278.97 292.13C278.97 290.738 277.014 289.61 274.6 289.61C272.187 289.61 270.23 290.738 270.23 292.13C270.23 293.522 272.187 294.65 274.6 294.65Z" fill="#455A64"/>
</svg>
