<svg width="500" height="500" viewBox="0 0 500 500" fill="none" xmlns="http://www.w3.org/2000/svg">
<path d="M95.3513 462.887C4.21625 419.102 4.21625 348.146 95.3513 304.321C186.486 260.496 334.238 260.496 425.364 304.321C516.489 348.146 516.499 419.062 425.364 462.887C334.229 506.712 186.477 506.673 95.3513 462.887Z" fill="#F5F5F5"/>
<path d="M105.401 422.102L95.6036 416.448C95.4283 416.392 95.2754 416.281 95.1669 416.132C95.0584 415.983 95 415.804 95 415.62C95 415.435 95.0584 415.256 95.1669 415.107C95.2754 414.958 95.4283 414.847 95.6036 414.791L166.084 374.101C166.269 373.995 166.43 373.852 166.557 373.681C166.684 373.51 166.775 373.315 166.824 373.108C166.873 372.9 166.879 372.685 166.842 372.475C166.805 372.266 166.726 372.066 166.609 371.888C164.409 368.431 163.516 364.301 164.091 360.244C165.025 353.856 169.703 347.94 177.266 343.576C185.438 338.856 196.242 336.233 207.687 336.233C219.131 336.233 229.935 338.824 238.107 343.576C246.729 348.548 251.481 355.324 251.481 362.657C251.481 369.989 246.74 376.766 238.107 381.748C229.956 386.458 219.162 389.091 207.687 389.091C203.071 389.104 198.466 388.668 193.935 387.79C192.89 387.63 191.823 387.803 190.882 388.283L179.899 394.577C178.957 395.052 177.887 395.214 176.847 395.039L169.441 393.36C168.4 393.186 167.331 393.347 166.388 393.822L164.154 395.112C163.734 395.389 163.381 395.755 163.119 396.185C162.858 396.615 162.696 397.098 162.644 397.598L162.402 403.063C162.352 403.564 162.191 404.048 161.929 404.478C161.668 404.908 161.313 405.274 160.892 405.549L158.081 407.175C157.117 407.686 156.068 408.017 154.986 408.151L148.44 408.728C147.361 408.856 146.313 409.176 145.346 409.672L142.65 411.182C142.238 411.438 141.904 411.802 141.685 412.235C141.467 412.668 141.373 413.154 141.412 413.637L141.58 414.938C141.618 415.421 141.524 415.906 141.308 416.34C141.092 416.775 140.762 417.142 140.353 417.403L132.213 422.102C131.257 422.607 130.199 422.891 129.118 422.931H108.496C107.415 422.891 106.357 422.607 105.401 422.102V422.102ZM218.481 352.052C216.077 352 213.7 352.556 211.568 353.667C210.267 354.422 209.47 355.335 209.47 356.122C209.47 356.908 210.257 357.832 211.568 358.587C213.717 359.649 216.083 360.202 218.481 360.202C220.878 360.202 223.244 359.649 225.393 358.587C226.694 357.832 227.491 356.908 227.491 356.122C227.491 355.335 226.704 354.422 225.393 353.667C223.262 352.555 220.884 351.999 218.481 352.052V352.052Z" fill="#E0E0E0"/>
<path d="M358.512 412.729C405.74 412.729 444.025 390.628 444.025 363.365C444.025 336.101 405.74 314 358.512 314C311.285 314 273 336.101 273 363.365C273 390.628 311.285 412.729 358.512 412.729Z" fill="#E0E0E0"/>
<path d="M214.976 273.379C205.536 276.022 198.067 293.414 198.025 310.25C197.932 319.029 198.57 327.801 199.934 336.474L204.413 339.065L205.704 339.81L210.204 342.401L212.973 344.006C212.003 337.12 212.003 330.133 212.973 323.247V323.247C213.542 319.413 214.552 315.657 215.983 312.054C218.795 304.963 223.326 297.862 225.089 292.984C229.463 280.837 223.809 270.913 214.976 273.379Z" fill="#43BA8F"/>
<g opacity="0.65">
<path opacity="0.65" d="M214.976 273.379C205.536 276.022 198.067 293.414 198.025 310.25C197.932 319.029 198.57 327.801 199.934 336.474L204.413 339.065L205.704 339.81L210.204 342.401L212.973 344.006C212.003 337.12 212.003 330.133 212.973 323.247V323.247C213.542 319.413 214.552 315.657 215.983 312.054C218.795 304.963 223.326 297.862 225.089 292.984C229.463 280.837 223.809 270.913 214.976 273.379Z" fill="white"/>
</g>
<path d="M218.081 279.809C208.64 290.435 201.602 314.425 205.703 339.831L204.413 339.086C200.574 313.596 207.696 289.69 217.211 279.022C217.317 278.915 217.46 278.853 217.611 278.849C217.762 278.846 217.909 278.9 218.02 279.001C218.132 279.102 218.201 279.242 218.212 279.393C218.224 279.543 218.177 279.692 218.081 279.809Z" fill="white"/>
<path d="M226.725 303.558C224.627 304.607 219.666 309.044 218.071 311.876C215.987 315.497 214.252 319.308 212.889 323.257C210.814 329.421 209.889 335.914 210.162 342.412L212.931 344.017L214.221 344.761L215.396 345.433L220.001 348.087C220.998 343.793 222.512 339.637 224.512 335.709C229.925 324.999 239.9 317.121 240.656 311.131C241.6 303.935 236.166 298.69 226.725 303.558Z" fill="#43BA8F"/>
<path opacity="0.3" d="M226.725 303.558C224.627 304.607 219.666 309.044 218.071 311.876C215.987 315.497 214.252 319.308 212.889 323.257C210.814 329.421 209.889 335.914 210.162 342.412L212.931 344.017L214.221 344.761L215.396 345.433L220.001 348.087C220.998 343.793 222.512 339.637 224.512 335.709C229.925 324.999 239.9 317.121 240.656 311.131C241.6 303.935 236.166 298.69 226.725 303.558Z" fill="white"/>
<path d="M232.327 310.114C226.295 314.131 216.172 326.184 215.438 345.443L214.263 344.772C215.123 325.502 225.078 313.533 231.676 309.107C231.74 309.058 231.813 309.023 231.891 309.004C231.969 308.984 232.05 308.981 232.129 308.994C232.208 309.008 232.284 309.037 232.352 309.081C232.419 309.124 232.477 309.181 232.521 309.248C232.566 309.315 232.596 309.39 232.611 309.469C232.625 309.548 232.623 309.629 232.605 309.707C232.586 309.785 232.552 309.859 232.504 309.924C232.457 309.988 232.396 310.042 232.327 310.082V310.114Z" fill="white"/>
<path d="M234.403 345.621C218.732 336.579 193.346 336.579 177.675 345.621C171.119 349.408 167.007 351.915 165.947 356.887V362.006C166.081 366.179 167.826 370.137 170.815 373.052L100.533 408.539V413.637L108.411 418.179H130.439L139.083 413.196V408.371L145.975 404.521L155.552 403.682L159.37 401.479L159.758 392.92L166.839 388.829L177.213 391.178L190.724 383.374C205.263 386.857 222.634 385.199 234.456 378.37C242.313 373.839 246.225 367.881 246.204 361.944V356.887C245.439 351.569 241.411 349.691 234.403 345.621ZM224.616 360.307C222.125 361.565 219.372 362.22 216.581 362.22C213.79 362.22 211.038 361.565 208.546 360.307C204.109 357.737 204.109 353.583 208.546 351.024C211.038 349.766 213.79 349.111 216.581 349.111C219.372 349.111 222.125 349.766 224.616 351.024C229.054 353.541 229.054 357.695 224.627 360.265L224.616 360.307Z" fill="#43BA8F"/>
<path opacity="0.2" d="M234.403 345.621C218.732 336.579 193.346 336.579 177.675 345.621C171.119 349.408 167.007 351.915 165.947 356.887V362.006C166.081 366.179 167.826 370.137 170.815 373.052L100.533 408.539V413.637L108.411 418.179H130.439L139.083 413.196V408.371L145.975 404.521L155.552 403.682L159.37 401.479L159.758 392.92L166.839 388.829L177.213 391.178L190.724 383.374C205.263 386.857 222.634 385.199 234.456 378.37C242.313 373.839 246.225 367.881 246.204 361.944V356.887C245.439 351.569 241.411 349.691 234.403 345.621ZM224.616 360.307C222.125 361.565 219.372 362.22 216.581 362.22C213.79 362.22 211.038 361.565 208.546 360.307C204.109 357.737 204.109 353.583 208.546 351.024C211.038 349.766 213.79 349.111 216.581 349.111C219.372 349.111 222.125 349.766 224.616 351.024C229.054 353.541 229.054 357.695 224.627 360.265L224.616 360.307Z" fill="black"/>
<path d="M234.403 340.513C218.732 331.471 193.346 331.471 177.675 340.513C164.804 347.95 162.538 359.164 170.815 367.944L100.533 408.539L108.411 413.081H130.439L139.083 408.088L138.496 403.588L145.975 399.392L155.552 398.553L159.37 396.35L159.758 387.78L166.839 383.699L177.213 386.038L190.724 378.245C205.263 381.727 222.634 380.059 234.456 373.23C250.065 364.22 250.065 349.555 234.403 340.513ZM224.616 355.199C222.125 356.456 219.372 357.111 216.581 357.111C213.79 357.111 211.038 356.456 208.546 355.199C204.109 352.639 204.109 348.485 208.546 345.926C211.035 344.658 213.788 343.998 216.581 343.998C219.374 343.998 222.128 344.658 224.616 345.926C229.054 348.443 229.054 352.597 224.627 355.157L224.616 355.199Z" fill="#43BA8F"/>
<path opacity="0.3" d="M234.403 340.513C218.732 331.471 193.346 331.471 177.675 340.513C164.804 347.95 162.538 359.164 170.815 367.944L100.533 408.539L108.411 413.081H130.439L139.083 408.088L138.496 403.588L145.975 399.392L155.552 398.553L159.37 396.35L159.758 387.78L166.839 383.699L177.213 386.038L190.724 378.245C205.263 381.727 222.634 380.059 234.456 373.23C250.065 364.22 250.065 349.555 234.403 340.513ZM224.616 355.199C222.125 356.456 219.372 357.111 216.581 357.111C213.79 357.111 211.038 356.456 208.546 355.199C204.109 352.639 204.109 348.485 208.546 345.926C211.035 344.658 213.788 343.998 216.581 343.998C219.374 343.998 222.128 344.658 224.616 345.926C229.054 348.443 229.054 352.597 224.627 355.157L224.616 355.199Z" fill="white"/>
<path d="M206.039 375.433C196.126 375.433 186.875 373.241 179.983 369.276C173.983 365.804 170.542 361.293 170.542 356.887C170.542 352.482 173.983 347.971 179.983 344.509C186.875 340.534 196.126 338.342 206.039 338.342C215.952 338.342 225.204 340.534 232.096 344.509C238.096 347.971 241.537 352.492 241.537 356.887C241.537 361.283 238.096 365.804 232.096 369.276C225.204 373.241 215.952 375.433 206.039 375.433ZM206.039 339.768C196.378 339.768 187.378 341.866 180.707 345.737C175.168 348.936 171.99 352.996 171.99 356.866C171.99 360.737 175.137 364.797 180.707 368.007C187.378 371.856 196.368 373.975 206.039 373.975C215.711 373.975 224.701 371.877 231.372 368.007C236.911 364.797 240.089 360.748 240.089 356.866C240.089 352.985 236.942 348.936 231.372 345.737C224.701 341.866 215.7 339.768 206.039 339.768Z" fill="#43BA8F"/>
<path opacity="0.1" d="M220.431 378.486V383.594C210.6 385.725 200.419 385.649 190.62 383.374V378.276C200.419 380.553 210.601 380.625 220.431 378.486Z" fill="black"/>
<path opacity="0.1" d="M177.151 386.07V391.178L166.776 388.829V383.731L177.151 386.07Z" fill="black"/>
<path opacity="0.1" d="M159.696 387.822V392.92L159.308 401.479V396.381L159.696 387.822Z" fill="black"/>
<path opacity="0.1" d="M155.489 398.584V403.682L145.912 404.532V399.423L155.489 398.584Z" fill="black"/>
<path opacity="0.1" d="M130.376 413.081H108.4V418.19H130.376V413.081Z" fill="black"/>
<path opacity="0.15" d="M100.523 408.539V413.637L108.401 418.179V413.081L104.95 411.088V413.291L103.04 412.19V409.966L100.523 408.539Z" fill="black"/>
<path d="M103.041 409.966L104.95 411.088V413.291L103.041 412.189V409.966Z" fill="#43BA8F"/>
<path opacity="0.3" d="M103.041 409.966L104.95 411.088V413.291L103.041 412.189V409.966Z" fill="white"/>
<path d="M103.041 409.966V412.189L175.126 370.566L173.227 369.444L103.041 409.966Z" fill="#43BA8F"/>
<path opacity="0.15" d="M173.228 369.444V371.668L175.126 370.566L173.228 369.444Z" fill="black"/>
<path d="M358.234 156.926L363.273 147.463L359.218 135.776V128.625L371.609 135.776V142.938L366.279 152.155C366.198 152.299 366.072 152.413 365.921 152.479L358.234 156.926Z" fill="#43BA8F"/>
<path opacity="0.3" d="M358.234 156.926L363.273 147.463L359.218 135.776V128.625L371.609 135.776V142.938L366.279 152.155C366.198 152.299 366.072 152.413 365.921 152.479L358.234 156.926Z" fill="black"/>
<path d="M336 76.067C336.071 74.7802 336.443 73.5281 337.088 72.412C337.732 71.296 338.63 70.3472 339.709 69.6425L342.737 67.8884C343.889 67.3044 345.161 67 346.452 67C347.743 67 349.016 67.3044 350.167 67.8884L387.854 89.6088C388.939 90.3179 389.841 91.2737 390.486 92.3981C391.13 93.5224 391.5 94.7835 391.564 96.078V147.117C391.494 148.405 391.121 149.659 390.477 150.777C389.833 151.895 388.934 152.846 387.854 153.552L384.826 155.295C383.675 155.879 382.402 156.184 381.111 156.184C379.82 156.184 378.547 155.879 377.396 155.295L363.832 147.474L358.514 156.681C358.438 156.814 358.326 156.922 358.191 156.993C358.055 157.064 357.902 157.094 357.75 157.08C357.597 157.066 357.452 157.008 357.332 156.913C357.212 156.819 357.122 156.691 357.072 156.547L351.486 140.323L339.732 133.619C338.652 132.913 337.753 131.962 337.109 130.844C336.465 129.726 336.092 128.472 336.022 127.184L336 76.067Z" fill="#43BA8F"/>
<path opacity="0.3" d="M391.564 147.072C391.494 148.36 391.122 149.614 390.477 150.732C389.833 151.85 388.934 152.801 387.854 153.507L384.826 155.295C383.779 155.821 382.633 156.12 381.462 156.172C380.291 156.224 379.123 156.028 378.033 155.597C379.787 156.256 381.117 155.273 381.117 153.15V102.078C381.062 100.781 380.678 99.5198 380 98.4131L390.458 92.3796C391.136 93.482 391.521 94.7399 391.575 96.0332L391.564 147.072Z" fill="black"/>
<path opacity="0.3" d="M336.123 75.0168C336.558 73.4414 337.988 72.9386 339.709 73.8995L377.396 95.6199C378.498 96.2979 379.404 97.2534 380.022 98.3908L390.468 92.3574C389.845 91.2279 388.945 90.2746 387.854 89.5865L350.178 67.8884C349.023 67.3094 347.749 67.0079 346.458 67.0079C345.166 67.0079 343.892 67.3094 342.737 67.8884L339.709 69.6426C338.779 70.2493 337.982 71.0384 337.365 71.9621C336.749 72.8859 336.326 73.925 336.123 75.0168V75.0168Z" fill="white"/>
<path d="M344.927 94.6924C345.251 104.145 347.374 122.904 359.162 134.256C367.441 129.787 371.452 116.77 371.173 108.726C371.16 108.35 371.009 107.992 370.748 107.72C370.547 107.508 370.303 107.341 370.033 107.229C366.436 105.776 360.894 99.6756 358.19 93.564C358 93.1282 357.721 92.9941 357.43 93.1394C357.333 93.2003 357.247 93.2757 357.173 93.3628V93.4187C354.626 96.5919 349.419 96.7706 345.855 94.2232C345.587 94.0332 345.363 93.9774 345.218 94.0556C344.972 94.1785 344.905 94.3796 344.927 94.6924Z" fill="#FAFAFA"/>
<path d="M322.453 279C313.298 285.83 302.984 290.565 295.341 299.734C281.071 316.859 280.739 344.4 291.944 363.987C303.15 383.573 324.048 395.339 345.246 398.035C367.522 400.865 390.906 394.236 408.418 379.095C425.929 363.953 437.01 340.334 437 316.201C436.99 292.069 425.505 268.037 406.719 254.857C389.57 242.824 364.943 239.392 347.69 253.152C338.991 260.115 333.192 270.388 324.524 277.362C323.851 277.93 323.157 278.465 322.453 279Z" fill="#43BA8F"/>
<path opacity="0.2" d="M322.453 279C313.298 285.83 302.984 290.565 295.341 299.734C281.071 316.859 280.739 344.4 291.944 363.987C303.15 383.573 324.048 395.339 345.246 398.035C367.522 400.865 390.906 394.236 408.418 379.095C425.929 363.953 437.01 340.334 437 316.201C436.99 292.069 425.505 268.037 406.719 254.857C389.57 242.824 364.943 239.392 347.69 253.152C338.991 260.115 333.192 270.388 324.524 277.362C323.851 277.93 323.157 278.465 322.453 279Z" fill="black"/>
<path opacity="0.1" d="M322.453 279C313.298 285.83 302.984 290.565 295.341 299.734C281.071 316.859 280.739 344.4 291.944 363.987C303.15 383.573 324.048 395.339 345.246 398.035C367.522 400.865 390.906 394.236 408.418 379.095C425.929 363.953 437.01 340.334 437 316.201C436.99 292.069 425.505 268.037 406.719 254.857C389.57 242.824 364.943 239.392 347.69 253.152C338.991 260.115 333.192 270.388 324.524 277.362C323.851 277.93 323.157 278.465 322.453 279Z" fill="white"/>
<path opacity="0.1" d="M326.182 379.317L326.244 378.827C327.001 373.489 329.289 368.538 332.789 364.667C336.289 360.795 340.826 358.197 345.765 357.235C354.603 355.419 363.071 351.93 370.775 346.929C376.232 343.375 381.4 339.019 387.531 337.091C393.494 335.244 399.864 335.637 405.591 338.206C400.413 332.379 391.6 329.816 384.548 332.457C389.436 324.401 393.734 315.744 395.411 306.308C397.089 296.871 395.898 286.509 390.617 278.766C388.361 275.464 385.453 272.741 382.102 270.794C378.75 268.846 375.039 267.723 371.235 267.504C367.432 267.286 363.631 267.978 360.106 269.53C356.58 271.083 353.419 273.457 350.85 276.482C345.62 282.643 342.658 291.322 339.22 298.765C336.755 304.146 334.197 309.65 330.117 313.739C323.976 319.934 315.132 322.162 308.763 328.078C301.514 334.763 298.407 345.503 298.407 355.776C298.526 362.702 299.466 369.583 301.203 376.254C308.672 383.93 317.586 389.793 327.342 393.445C325.922 388.901 325.524 384.059 326.182 379.317V379.317Z" fill="black"/>
<path d="M425.007 312.903C424.728 296.237 418.962 280.217 408.736 267.695C398.509 255.173 384.484 246.96 369.158 244.517C367.034 244.732 364.927 245.104 362.851 245.631C378.965 246.55 394.157 254 405.37 266.484C416.584 278.967 422.986 295.557 423.288 312.915C423.692 335.376 413.481 358.271 395.969 374.192C382.237 386.637 364.011 394.893 343.962 397.868L345.246 398.046C347.048 398.28 348.86 398.436 350.672 398.536C368.474 394.826 384.598 386.927 397.077 375.607C414.993 359.352 425.432 335.922 425.007 312.903Z" fill="white"/>
<path d="M318.093 395.84L320.392 400.731C323.633 397.5 324.213 394.904 324.213 394.904C323.178 390.905 321.945 386.849 321.334 384.877C321.024 387.618 319.263 389.991 318.549 392.676C318.274 393.706 318.121 394.769 318.093 395.84V395.84Z" fill="#37474F"/>
<path d="M318.207 400.854L320.393 400.731L318.094 395.84C318.031 397.456 318.156 399.171 318.207 400.854Z" fill="#263238"/>
<path d="M319.864 379.095C319.072 377.861 318.162 376.718 317.151 375.685C317.726 377.818 317.726 380.082 317.151 382.214C316.468 385.055 315.235 387.718 314.624 390.57C313.868 394.035 314.044 397.768 312.677 401.021C311.999 402.594 310.991 403.976 309.734 405.061C308.476 406.145 307.003 406.902 305.428 407.271C304.266 407.618 303.023 407.458 301.969 406.826C301.515 406.49 301.179 406 301.017 405.433C300.329 406.976 299.496 408.44 298.531 409.8C297.444 411.305 296.108 412.953 296.398 414.825C296.578 415.59 296.963 416.281 297.504 416.813C298.045 417.346 298.719 417.697 299.442 417.822C300.898 418.048 302.381 417.915 303.782 417.432C306.856 416.723 309.79 415.437 312.449 413.633C315.124 411.803 317.081 408.98 317.948 405.7C318.265 404.109 318.38 402.479 318.29 400.854C318.29 399.172 318.114 397.511 318.176 395.84C318.204 394.769 318.357 393.706 318.632 392.676C319.367 389.991 321.107 387.618 321.418 384.877C321.418 384.721 321.47 384.576 321.48 384.431C321.49 382.512 320.923 380.64 319.864 379.095V379.095Z" fill="#455A64"/>
<path opacity="0.1" d="M319.864 379.095C319.072 377.861 318.162 376.718 317.151 375.685C317.726 377.818 317.726 380.082 317.151 382.214C316.468 385.055 315.235 387.718 314.624 390.57C313.868 394.035 314.044 397.768 312.677 401.021C311.999 402.594 310.991 403.976 309.734 405.061C308.476 406.145 307.003 406.902 305.428 407.271C304.266 407.618 303.023 407.458 301.969 406.826C301.515 406.49 301.179 406 301.017 405.433C300.329 406.976 299.496 408.44 298.531 409.8C297.444 411.305 296.108 412.953 296.398 414.825C296.578 415.59 296.963 416.281 297.504 416.813C298.045 417.346 298.719 417.697 299.442 417.822C300.898 418.048 302.381 417.915 303.782 417.432C306.856 416.723 309.79 415.437 312.449 413.633C315.124 411.803 317.081 408.98 317.948 405.7C318.265 404.109 318.38 402.479 318.29 400.854C318.29 399.172 318.114 397.511 318.176 395.84C318.204 394.769 318.357 393.706 318.632 392.676C319.367 389.991 321.107 387.618 321.418 384.877C321.418 384.721 321.47 384.576 321.48 384.431C321.49 382.512 320.923 380.64 319.864 379.095V379.095Z" fill="black"/>
<path d="M305.345 407.271C306.919 406.901 308.393 406.145 309.65 405.06C310.908 403.976 311.915 402.594 312.594 401.021C313.961 397.768 313.785 394.035 314.541 390.57C315.152 387.718 316.384 385.055 317.067 382.214C317.642 380.082 317.642 377.818 317.067 375.685L316.28 374.85C312.376 377.078 307.923 378.827 304.361 381.612C304.445 386.525 304.154 391.436 303.491 396.297C303.012 399.46 302.123 402.535 300.85 405.433C301.013 405.999 301.348 406.49 301.803 406.826C302.336 407.15 302.923 407.357 303.532 407.434C304.14 407.51 304.756 407.455 305.345 407.271V407.271Z" fill="#F28F8F"/>
<path d="M292.068 394.314C291.415 398.38 288.526 406.647 288.526 406.647C288.526 406.647 302.082 407.249 302.382 406.569L306.359 399.951L292.068 394.314Z" fill="#FFA8A7"/>
<path d="M332.644 297.662L298.065 318.352C294.921 320.228 292.405 323.12 290.872 326.619C289.339 330.117 288.866 334.046 289.522 337.849L296.232 376.733L290.733 395.54C295.476 402.38 306.381 402.737 306.381 402.737C312.501 389.657 316.955 384.086 320.413 373.056C323.872 362.026 326.171 354.472 326.171 354.472L354.878 346.038C361.447 344.111 367.327 340.108 371.758 334.546C376.189 328.985 378.967 322.121 379.732 314.842C380.219 310.163 380.25 306.976 380.25 306.976L332.644 297.662Z" fill="#455A64"/>
<path opacity="0.2" d="M332.903 308.113C332.905 312.269 334.273 316.29 336.766 319.466L312.377 335.888C308.795 338.295 306.143 342.015 304.911 346.361L296.274 376.744L304.02 342.863C304.919 338.974 307.193 335.617 310.358 333.504L332.882 318.53C330.625 312.369 332.903 308.113 332.903 308.113Z" fill="black"/>
<path d="M295.88 425.499L296.201 430.969C300.344 429.376 301.856 427.226 301.856 427.226C302.353 423.114 302.705 418.858 302.891 416.786C301.597 419.182 299.132 420.63 297.475 422.78C296.842 423.613 296.307 424.526 295.88 425.499V425.499Z" fill="#37474F"/>
<path d="M294.15 430.156L296.221 430.969L295.9 425.499C295.217 426.991 294.699 428.652 294.15 430.156Z" fill="#263238"/>
<path d="M303.626 410.825C303.347 409.354 302.931 407.917 302.383 406.536C302.11 408.74 301.267 410.817 299.949 412.53C298.292 414.847 296.18 416.775 294.575 419.137C292.617 422.011 291.406 425.51 288.962 427.916C287.761 429.081 286.324 429.929 284.766 430.393C283.207 430.857 281.57 430.925 279.983 430.59C278.785 430.413 277.699 429.737 276.959 428.707C276.671 428.204 276.54 427.614 276.586 427.025C275.396 428.156 274.097 429.15 272.713 429.989C271.16 430.913 269.327 431.872 268.913 433.71C268.8 434.49 268.901 435.288 269.205 436.007C269.508 436.726 270.001 437.333 270.621 437.754C271.882 438.574 273.298 439.081 274.764 439.236C277.838 439.871 280.992 439.927 284.084 439.403C287.215 438.852 290.048 437.083 292.048 434.434C292.912 433.101 293.608 431.651 294.119 430.122C294.678 428.562 295.155 426.958 295.848 425.465C296.269 424.494 296.797 423.581 297.423 422.747C299.079 420.596 301.565 419.148 302.839 416.753L303.056 416.374C303.793 414.638 303.993 412.693 303.626 410.825Z" fill="#455A64"/>
<path d="M279.983 430.624C281.57 430.958 283.207 430.891 284.766 430.427C286.324 429.962 287.76 429.114 288.962 427.95C291.406 425.543 292.617 422.045 294.574 419.17C296.18 416.808 298.292 414.881 299.949 412.563C301.267 410.85 302.11 408.773 302.383 406.569C302.238 406.202 302.103 405.834 301.958 405.455C297.567 405.801 292.824 405.567 288.496 406.625C286.785 411.167 284.734 415.553 282.365 419.739C280.763 422.441 278.818 424.89 276.586 427.014C276.54 427.603 276.671 428.193 276.959 428.696C277.691 429.742 278.778 430.435 279.983 430.624V430.624Z" fill="#FFA8A7"/>
<path d="M309.415 256.261L304.579 261.308C299.608 254.478 292.939 249.865 287.108 240.295C285.431 238.011 285.597 233.443 284.457 231.114C283.567 229.287 282.003 226.546 281.351 225.009C281.296 224.872 281.215 224.75 281.111 224.651C281.008 224.552 280.886 224.479 280.754 224.436C280.621 224.394 280.482 224.383 280.345 224.405C280.209 224.427 280.078 224.481 279.963 224.563C278.306 225.856 279.176 228.953 280.056 232.206C281.092 236.028 275.727 230.858 275.002 229.978C271.606 226.58 268.685 218.257 266.376 219.082C264.067 219.906 265.889 224.062 265.889 224.062C263.818 224.541 264.574 228.206 264.574 228.206C263.311 230.591 263.673 234.279 266.252 237.71C268.136 240.195 273.211 243.615 275.852 245.286C276.952 245.986 277.893 246.942 278.606 248.083L295.176 274.633C295.937 275.851 296.921 276.89 298.067 277.687C299.213 278.484 300.498 279.022 301.844 279.268C303.189 279.514 304.567 279.463 305.893 279.118C307.22 278.773 308.467 278.142 309.56 277.262L318.57 269.998L309.415 256.261Z" fill="#FFA8A7"/>
<path d="M292.567 247.826C295.622 251.737 301.017 254.166 304.445 260.36L308.805 256.015C315.837 248.439 328.326 232.384 337.522 232.819V255.425C331.519 261.134 325.201 266.447 318.602 271.335L308.38 278.933C307.293 279.743 306.062 280.305 304.765 280.584C303.467 280.863 302.131 280.852 300.837 280.554C299.544 280.255 298.321 279.675 297.244 278.848C296.167 278.021 295.259 276.966 294.576 275.747L282.915 254.99C284.997 254.935 287.019 254.228 288.733 252.956C290.448 251.684 291.78 249.901 292.567 247.826V247.826Z" fill="#43BA8F"/>
<path opacity="0.3" d="M292.567 247.826C295.622 251.737 301.017 254.166 304.445 260.36L308.805 256.015C315.837 248.439 328.326 232.384 337.522 232.819V255.425C331.519 261.134 325.201 266.447 318.602 271.335L308.38 278.933C307.293 279.743 306.062 280.305 304.765 280.584C303.467 280.863 302.131 280.852 300.837 280.554C299.544 280.255 298.321 279.675 297.244 278.848C296.167 278.021 295.259 276.966 294.576 275.747L282.915 254.99C284.997 254.935 287.019 254.228 288.733 252.956C290.448 251.684 291.78 249.901 292.567 247.826V247.826Z" fill="white"/>
<path d="M337.521 232.819C331.307 233.933 327.423 250.857 325.394 257.33C323.323 264.015 326.15 268.806 329.319 272.828C329.892 273.56 330.318 274.413 330.569 275.331C330.821 276.25 330.892 277.215 330.779 278.164L324.223 304.369C342.119 318.664 372.13 311.734 380.27 307.065C380.372 297.889 378.571 288.804 374.999 280.471C372.603 275.103 371.257 269.263 371.043 263.313L370.732 253.687L372.896 237.086L357.362 233.109L343.662 232.451C341.61 232.45 339.56 232.573 337.521 232.819Z" fill="#43BA8F"/>
<path opacity="0.5" d="M337.521 232.819C331.307 233.933 327.423 250.857 325.394 257.33C323.323 264.015 326.15 268.806 329.319 272.828C329.892 273.56 330.318 274.413 330.569 275.331C330.821 276.25 330.892 277.215 330.779 278.164L324.223 304.369C342.119 318.664 372.13 311.734 380.27 307.065C380.372 297.889 378.571 288.804 374.999 280.471C372.603 275.103 371.257 269.263 371.043 263.313L370.732 253.687L372.896 237.086L357.362 233.109L343.662 232.451C341.61 232.45 339.56 232.573 337.521 232.819Z" fill="white"/>
<path d="M331.929 211.561C329.882 209.331 328.613 206.41 328.336 203.29C328.058 200.171 328.79 197.043 330.407 194.437C329.547 194.058 328.821 193.395 328.334 192.544C327.846 191.693 327.622 190.698 327.693 189.702C327.792 188.711 328.183 187.78 328.809 187.046C329.435 186.312 330.264 185.814 331.173 185.624C332.716 185.323 334.28 185.969 335.781 186.326C338.405 186.833 341.091 186.833 343.714 186.326C346.355 185.913 348.965 185.301 351.616 185.1C354.27 184.791 356.954 185.201 359.424 186.292C360.654 186.849 361.75 187.7 362.627 188.781C363.505 189.863 364.141 191.145 364.488 192.532C366.559 191.941 368.962 193.356 370.277 195.139C371.514 197.009 372.177 199.249 372.172 201.545C372.265 203.773 371.965 206.079 371.862 208.352C371.664 210.617 371.937 212.9 372.659 215.037C373.612 217.499 375.496 219.494 376.107 222.09C376.387 223.285 376.371 224.537 376.063 225.724C375.755 226.911 375.164 227.99 374.35 228.856C373.535 229.723 372.525 230.345 371.419 230.663C370.312 230.981 369.148 230.983 368.04 230.669C368.503 228.855 368.713 226.978 368.662 225.098C368.454 227.605 366.135 229.554 363.929 230.401C361.68 231.095 359.328 231.318 357.001 231.059L348.778 230.713L339.23 230.334C337.519 230.384 335.816 230.07 334.218 229.41C331.484 228.05 329.941 224.73 329.765 221.499C329.589 218.268 330.748 214.547 331.929 211.561Z" fill="#263238"/>
<path d="M343.652 225.911V244.217L357.353 233.131V219.616L343.652 225.911Z" fill="#FFA8A7"/>
<path opacity="0.3" d="M357.353 219.616C355.282 226.301 347.587 231.46 343.652 232.474V225.878L357.353 219.616Z" fill="black"/>
<path d="M355.716 208.92C355.525 210.09 355.473 211.28 355.561 212.463C355.662 213.353 356.025 214.184 356.596 214.837C356.887 215.139 357.241 215.361 357.629 215.483C358.017 215.605 358.426 215.624 358.823 215.538C358.658 214.401 358.894 213.238 359.486 212.279C360.077 211.319 360.981 210.633 362.019 210.353C363.057 210.074 364.155 210.223 365.096 210.77C366.038 211.317 366.755 212.223 367.107 213.31C367.294 214.134 367.31 214.993 367.154 215.824C366.999 216.656 366.675 217.441 366.206 218.123C365.26 219.478 364.033 220.577 362.623 221.332C361.817 221.622 360.942 221.598 360.151 221.264C359.359 220.93 358.702 220.307 358.295 219.505C354.152 225.198 346.841 229.476 340.016 228.864C338.15 228.753 336.353 228.068 334.838 226.892C332.26 224.741 332.063 221.499 331.732 218.302C331.252 214.249 331.28 210.146 331.814 206.102C332.653 200.531 334.921 195.038 338.991 191.406C341.414 203.595 351.76 208.051 355.716 208.92Z" fill="#FFA8A7"/>
<path d="M341.508 207.55L336.838 213.745L341.187 215.349L341.508 207.55Z" fill="#F28F8F"/>
<path d="M345.174 218.369L341.54 219.605C341.775 220.065 342.142 220.429 342.587 220.644C343.031 220.859 343.529 220.913 344.004 220.797C344.423 220.59 344.765 220.239 344.977 219.799C345.189 219.359 345.258 218.856 345.174 218.369Z" fill="#F28F8F"/>
<path opacity="0.3" d="M345.174 218.369L341.54 219.605C341.775 220.065 342.142 220.429 342.587 220.644C343.031 220.859 343.529 220.913 344.004 220.797C344.423 220.59 344.765 220.239 344.977 219.799C345.189 219.359 345.258 218.856 345.174 218.369Z" fill="black"/>
<path d="M342.803 220.73C343.188 220.88 343.606 220.903 344.004 220.797C344.341 220.657 344.631 220.413 344.839 220.096C345.047 219.779 345.164 219.403 345.174 219.015C344.688 218.934 344.191 219.037 343.766 219.304C343.284 219.626 342.938 220.138 342.803 220.73Z" fill="#F28F8F"/>
<path d="M347.939 208.831C347.928 209.107 347.842 209.373 347.691 209.596C347.539 209.818 347.33 209.988 347.089 210.082C346.849 210.177 346.587 210.192 346.338 210.127C346.089 210.061 345.864 209.918 345.691 209.714C345.518 209.511 345.404 209.257 345.366 208.984C345.327 208.711 345.365 208.433 345.473 208.183C345.582 207.933 345.757 207.724 345.977 207.581C346.197 207.439 346.45 207.37 346.706 207.383C347.048 207.4 347.369 207.562 347.6 207.834C347.831 208.105 347.953 208.464 347.939 208.831V208.831Z" fill="#263238"/>
<path d="M337.086 207.862C337.073 208.137 336.985 208.402 336.833 208.623C336.68 208.844 336.471 209.012 336.23 209.105C335.989 209.198 335.728 209.212 335.479 209.145C335.231 209.078 335.007 208.934 334.835 208.73C334.663 208.526 334.551 208.272 334.513 208C334.475 207.728 334.513 207.449 334.622 207.2C334.731 206.951 334.906 206.743 335.125 206.601C335.344 206.459 335.598 206.39 335.853 206.403C336.024 206.411 336.19 206.456 336.344 206.534C336.498 206.612 336.637 206.722 336.751 206.857C336.866 206.993 336.954 207.151 337.011 207.324C337.069 207.496 337.094 207.679 337.086 207.862V207.862Z" fill="#263238"/>
<path d="M336.061 202.247L333.099 204.241C332.988 203.854 332.991 203.44 333.108 203.055C333.225 202.67 333.45 202.333 333.752 202.091C334.112 201.883 334.519 201.787 334.927 201.815C335.335 201.843 335.728 201.992 336.061 202.247V202.247Z" fill="#263238"/>
<path d="M347.152 202.614L349.938 204.843C350.08 204.464 350.112 204.048 350.028 203.65C349.945 203.252 349.751 202.891 349.472 202.614C349.124 202.381 348.722 202.258 348.312 202.258C347.902 202.258 347.5 202.381 347.152 202.614V202.614Z" fill="#263238"/>
<path d="M343.652 233.131C341.428 235.712 339.581 238.643 338.174 241.821C338.022 242.219 337.975 242.655 338.039 243.08C338.102 243.505 338.273 243.903 338.534 244.231C338.794 244.558 339.133 244.801 339.513 244.934C339.894 245.068 340.301 245.085 340.691 244.985L343.652 244.217V233.131Z" fill="#E0E0E0"/>
<path d="M343.652 244.217L357.353 233.131C357.58 240.105 354.442 246.267 352.485 249.397C352.312 249.68 352.082 249.919 351.814 250.096C351.545 250.273 351.244 250.385 350.931 250.423C350.618 250.461 350.301 250.425 350.002 250.317C349.704 250.209 349.431 250.032 349.202 249.798L343.652 244.217Z" fill="#E0E0E0"/>
<path d="M286.197 313.572L326.751 338.763L326.906 338.841H327L327.31 338.941L327.538 338.997H327.693H328.087H328.512H328.77L329.102 338.896C329.199 338.865 329.292 338.824 329.382 338.774L342.451 330.607L300.571 304.592L286.197 313.572Z" fill="#E0E0E0"/>
<path d="M324.731 306.642L317.109 311.477C316.993 311.55 316.897 311.654 316.83 311.779C316.763 311.904 316.728 312.046 316.728 312.19C316.728 312.335 316.763 312.476 316.83 312.602C316.897 312.727 316.993 312.831 317.109 312.903L328.501 319.989C328.694 320.109 328.914 320.173 329.138 320.173C329.361 320.173 329.581 320.109 329.775 319.989L337.407 315.154C337.523 315.081 337.619 314.977 337.686 314.852C337.753 314.727 337.789 314.585 337.789 314.441C337.789 314.296 337.753 314.154 337.686 314.029C337.619 313.904 337.523 313.8 337.407 313.728L326.015 306.642C325.82 306.522 325.599 306.458 325.373 306.458C325.148 306.458 324.927 306.522 324.731 306.642V306.642Z" fill="#E0E0E0"/>
<path opacity="0.4" d="M286.197 313.572L326.751 338.763L326.906 338.841H327L327.31 338.941L327.538 338.997H327.693H328.087H328.512H328.77L329.102 338.896C329.199 338.865 329.292 338.824 329.382 338.774L342.451 330.607L300.571 304.592L286.197 313.572Z" fill="black"/>
<path opacity="0.4" d="M324.731 306.642L317.109 311.477C316.993 311.55 316.897 311.654 316.83 311.779C316.763 311.904 316.728 312.046 316.728 312.19C316.728 312.335 316.763 312.476 316.83 312.602C316.897 312.727 316.993 312.831 317.109 312.903L328.501 319.989C328.694 320.109 328.914 320.173 329.138 320.173C329.361 320.173 329.581 320.109 329.775 319.989L337.407 315.154C337.523 315.081 337.619 314.977 337.686 314.852C337.753 314.727 337.789 314.585 337.789 314.441C337.789 314.296 337.753 314.154 337.686 314.029C337.619 313.904 337.523 313.8 337.407 313.728L326.015 306.642C325.82 306.522 325.599 306.458 325.373 306.458C325.148 306.458 324.927 306.522 324.731 306.642V306.642Z" fill="black"/>
<path d="M327.838 339.52L323.52 309.962C323.403 309.162 323.123 308.4 322.698 307.731C322.274 307.062 321.716 306.504 321.065 306.096L279.031 279.802C278.862 279.698 278.674 279.636 278.48 279.623C278.286 279.609 278.092 279.644 277.912 279.724V279.724L276.877 280.259L277.208 280.393C277.095 280.641 277.058 280.923 277.104 281.195L281.423 310.753C281.54 311.556 281.822 312.32 282.249 312.991C282.675 313.662 283.235 314.222 283.888 314.63L325.912 340.913C325.998 340.963 326.088 341.004 326.181 341.036V341.47L327.144 340.958C327.39 340.833 327.591 340.624 327.717 340.365C327.842 340.105 327.885 339.809 327.838 339.52V339.52Z" fill="#E0E0E0"/>
<path opacity="0.3" d="M327.838 339.52L323.52 309.962C323.403 309.162 323.123 308.4 322.698 307.731C322.274 307.062 321.716 306.504 321.065 306.096L279.031 279.802C278.862 279.698 278.674 279.636 278.48 279.623C278.286 279.609 278.092 279.644 277.912 279.724V279.724L276.877 280.259L277.208 280.393C277.095 280.641 277.058 280.923 277.104 281.195L281.423 310.753C281.54 311.556 281.822 312.32 282.249 312.991C282.675 313.662 283.235 314.222 283.888 314.63L325.912 340.913C325.998 340.963 326.088 341.004 326.181 341.036V341.47L327.144 340.958C327.39 340.833 327.591 340.624 327.717 340.365C327.842 340.105 327.885 339.809 327.838 339.52V339.52Z" fill="black"/>
<path d="M320.205 306.531L278.129 280.248C277.922 280.119 277.684 280.056 277.445 280.066C277.205 280.076 276.973 280.158 276.775 280.304C276.577 280.449 276.421 280.652 276.326 280.889C276.23 281.125 276.198 281.386 276.234 281.641L280.553 311.199C280.669 312.001 280.95 312.764 281.377 313.433C281.803 314.102 282.364 314.66 283.017 315.065L325.042 341.359C325.249 341.487 325.487 341.551 325.726 341.541C325.966 341.531 326.198 341.448 326.396 341.303C326.594 341.157 326.75 340.955 326.845 340.718C326.941 340.482 326.973 340.221 326.937 339.966L322.66 310.408C322.541 309.607 322.26 308.844 321.836 308.174C321.412 307.504 320.855 306.943 320.205 306.531Z" fill="#E0E0E0"/>
<path d="M299.878 307.299C300.937 308.021 301.849 308.966 302.561 310.076C303.273 311.186 303.769 312.44 304.02 313.761C304.29 316.068 302.881 316.925 300.841 315.666C299.781 314.943 298.868 313.997 298.156 312.885C297.444 311.772 296.948 310.517 296.699 309.193C296.388 306.887 297.807 306.096 299.878 307.299Z" fill="white"/>
<path d="M370.111 273.942L373.902 287.936L350.715 305.662L342.917 309.193C340.841 310.135 339.048 311.677 337.739 313.65L331.38 323.12C330.666 324.713 333.98 327.287 335.523 327.733C336.441 327.985 337.403 327.987 338.321 327.738C339.24 327.489 340.086 326.997 340.783 326.307L345.692 321.471L347.049 320.959C351.015 319.455 354.456 316.679 356.908 313.004V313.004L384.164 301.64C386.568 300.648 388.542 298.73 389.702 296.258C390.862 293.787 391.125 290.939 390.44 288.27L385.925 270.221L370.111 273.942Z" fill="#FFA8A7"/>
<path d="M358.771 299.489L373.901 287.935L370.37 276.794L363.649 255.169C363.649 255.169 363.432 236.228 370.898 236.807C378.365 237.387 382.165 242.055 387.913 270.154L391.31 286.933C391.984 290.263 391.498 293.744 389.944 296.714C388.39 299.684 385.876 301.936 382.88 303.043L363.639 310.151C363.928 308.053 363.617 305.909 362.748 304.005C361.879 302.101 360.492 300.526 358.771 299.489V299.489Z" fill="#43BA8F"/>
<path opacity="0.3" d="M358.771 299.489L373.901 287.935L370.37 276.794L363.649 255.169C363.649 255.169 363.432 236.228 370.898 236.807C378.365 237.387 382.165 242.055 387.913 270.154L391.31 286.933C391.984 290.263 391.498 293.744 389.944 296.714C388.39 299.684 385.876 301.936 382.88 303.043L363.639 310.151C363.928 308.053 363.617 305.909 362.748 304.005C361.879 302.101 360.492 300.526 358.771 299.489V299.489Z" fill="white"/>
</svg>
