<svg width="513" height="513" viewBox="0 0 513 513" fill="none" xmlns="http://www.w3.org/2000/svg">
<g clip-path="url(#clip0_384:463)">
<path d="M308.408 497.237H203.591V460.33C203.591 439.947 220.115 423.423 240.498 423.423H271.5C291.883 423.423 308.407 439.947 308.407 460.33V497.237H308.408Z" fill="#C7EADD"/>
<path d="M137.896 497.237H33.0791V460.33C33.0791 439.947 49.6031 423.423 69.9861 423.423H100.988C121.371 423.423 137.895 439.947 137.895 460.33V497.237H137.896Z" fill="#C7EADD"/>
<path d="M478.92 497.237H374.103V460.33C374.103 439.947 390.627 423.423 411.01 423.423H442.012C462.395 423.423 478.919 439.947 478.919 460.33V497.237H478.92Z" fill="#C7EADD"/>
<path d="M129.101 417.011C137.349 407.143 142.326 394.45 142.326 380.614C142.326 349.274 116.829 323.777 85.4891 323.777C54.1491 323.777 28.6521 349.274 28.6521 380.614C28.6521 394.451 33.6271 407.143 41.8771 417.011C27.7121 426.236 18.3181 442.202 18.3181 460.33V497.237C18.3181 505.391 24.9291 512 33.0811 512H137.898C146.05 512 152.661 505.391 152.661 497.237V460.33C152.659 442.202 143.266 426.236 129.101 417.011ZM85.4871 353.303C100.547 353.303 112.798 365.555 112.798 380.614C112.798 395.673 100.546 407.925 85.4871 407.925C70.4281 407.925 58.1761 395.673 58.1761 380.614C58.1761 365.554 70.4271 353.303 85.4871 353.303ZM123.133 482.474H47.8421V460.33C47.8421 448.12 57.7761 438.186 69.9861 438.186H100.988C113.198 438.186 123.132 448.12 123.132 460.33V482.474H123.133Z" fill="#43BA8F"/>
<path d="M470.126 417.011C478.374 407.143 483.351 394.45 483.351 380.614C483.351 349.274 457.854 323.777 426.514 323.777C395.174 323.777 369.677 349.274 369.677 380.614C369.677 394.451 374.652 407.143 382.902 417.011C368.737 426.236 359.343 442.202 359.343 460.33V497.237C359.343 505.391 365.954 512 374.106 512H478.923C487.075 512 493.686 505.391 493.686 497.237V460.33C493.683 442.202 484.291 426.236 470.126 417.011ZM426.511 353.303C441.571 353.303 453.822 365.555 453.822 380.614C453.822 395.673 441.57 407.925 426.511 407.925C411.451 407.925 399.2 395.673 399.2 380.614C399.2 365.554 411.452 353.303 426.511 353.303ZM464.157 482.474H388.866V460.33C388.866 448.12 398.8 438.186 411.01 438.186H442.012C454.222 438.186 464.156 448.12 464.156 460.33V482.474H464.157Z" fill="#43BA8F"/>
<path d="M241.399 117.893H282.7C309.601 117.893 331.41 139.701 331.41 166.603V238.602H180.59V166.603C180.59 139.702 202.398 117.893 229.3 117.893H270.601" fill="#C7EADD"/>
<path d="M413.225 223.839H374.103H346.173V166.603C346.173 142.212 332.336 121.003 312.107 110.38C317.37 102.48 320.447 93.004 320.447 82.819V49.846C320.447 41.692 313.836 35.083 305.684 35.083C297.532 35.083 290.921 41.692 290.921 49.846V82.819C290.921 93.965 281.896 103.037 270.773 103.13H241.228C230.104 103.037 221.08 93.965 221.08 82.819V49.846C221.08 38.642 230.196 29.526 241.4 29.526H270.603C278.755 29.526 285.366 22.917 285.366 14.763C285.366 6.609 278.753 0 270.601 0H241.398C213.914 0 191.552 22.36 191.552 49.846V82.819C191.552 93.002 194.627 102.479 199.892 110.38C179.662 121.003 165.826 142.212 165.826 166.603V223.839H137.894H98.774C90.622 223.839 84.011 230.448 84.011 238.602C84.011 246.756 90.622 253.365 98.774 253.365H125.248L152.852 431.098C153.97 438.291 160.161 443.595 167.441 443.595H191.626C189.822 448.848 188.828 454.474 188.828 460.332V497.239C188.828 505.393 195.439 512.002 203.591 512.002H308.408C316.56 512.002 323.171 505.393 323.171 497.239V460.332C323.171 454.474 322.177 448.848 320.373 443.595H344.558C351.838 443.595 358.029 438.291 359.147 431.098L386.751 253.365H413.225C421.377 253.365 427.988 246.756 427.988 238.602C427.988 230.448 421.378 223.839 413.225 223.839ZM195.352 166.603C195.352 147.885 210.58 132.656 229.299 132.656H241.056C241.117 132.656 241.176 132.66 241.236 132.66V185.634C241.236 193.788 247.847 200.397 255.999 200.397C264.151 200.397 270.762 193.788 270.762 185.634V132.66C270.823 132.66 270.882 132.656 270.942 132.656H282.7C301.419 132.656 316.647 147.884 316.647 166.603V223.839H195.352V166.603ZM255.999 407.926C240.939 407.926 228.688 395.674 228.688 380.615C228.688 365.555 240.94 353.304 255.999 353.304C271.059 353.304 283.31 365.556 283.31 380.615C283.311 395.674 271.059 407.926 255.999 407.926ZM293.645 482.474H218.354V460.33C218.354 448.12 228.288 438.186 240.498 438.186H271.5C283.71 438.186 293.644 448.12 293.644 460.33V482.474H293.645ZM331.912 414.068H301.909C308.772 404.674 312.838 393.112 312.838 380.614C312.838 349.274 287.341 323.777 256.001 323.777C224.661 323.777 199.164 349.274 199.164 380.614C199.164 393.112 203.228 404.675 210.093 414.068H180.09L155.129 253.364H180.589H331.41H356.87L331.912 414.068Z" fill="#43BA8F"/>
</g>
<defs>
<clipPath id="clip0_384:463">
<rect width="512.002" height="512.002" fill="white"/>
</clipPath>
</defs>
</svg>
