<svg width="42" height="50" viewBox="0 0 42 50" fill="none" xmlns="http://www.w3.org/2000/svg">
<path d="M32.8663 24.7771C37.4276 20.2158 37.4276 12.8204 32.8663 8.25906C28.305 3.69774 20.9096 3.69774 16.3483 8.25906C11.787 12.8204 11.787 20.2157 16.3483 24.7771C20.9096 29.3384 28.305 29.3384 32.8663 24.7771Z" fill="#263238"/>
<path d="M4.4104 24.8169C4.4104 24.8169 6.30039 33.7069 7.06039 35.1769C7.56639 36.0778 8.40137 36.7479 9.39041 37.0469L9.26041 30.7969L4.4104 24.8169Z" fill="#263238"/>
<path d="M6.78047 12.0772C6.1194 12.0001 5.44945 12.0754 4.82197 12.2972C4.19449 12.5191 3.62615 12.8817 3.16047 13.3572C1.60047 14.9472 2.47047 19.9372 4.41047 24.8172L7.97047 25.2272L6.78047 12.0772Z" fill="#263238"/>
<path d="M9.04043 25.2269C8.33043 25.6569 7.31041 24.2869 6.43041 23.3569C5.55041 22.4269 2.67043 21.1769 1.23043 24.2069C-0.209568 27.2369 2.50043 31.3569 4.76043 32.0669C8.67043 33.2969 9.26043 30.7969 9.26043 30.7969L9.54043 45.3069C14.4004 51.5369 27.8704 51.0069 22.2604 44.5069V40.2169C23.9989 40.4964 25.7625 40.5869 27.5204 40.4869C30.3904 40.0469 32.2004 37.7769 33.0704 34.6669C34.4704 29.6669 35.0004 25.6669 33.8204 15.8269C32.5104 5.06688 20.0004 4.94687 13.2404 9.20687C6.48041 13.4669 9.04043 25.2269 9.04043 25.2269Z" fill="#B16668"/>
<path d="M9.04043 26.4369C8.68043 26.4369 7.32041 24.1669 6.43041 23.3569C5.19041 22.2369 6.78042 12.0769 6.78042 12.0769C6.45768 11.1972 6.39835 10.2425 6.6097 9.32962C6.82105 8.41674 7.29391 7.58526 7.97042 6.93691C9.66042 5.07691 11.5004 3.9369 16.3704 3.6469C19.7096 3.63133 23.0474 3.78821 26.3704 4.1169C31.1804 4.4369 32.9504 3.2569 35.7204 2.4769C37.8304 1.8869 38.0704 9.47689 32.7204 12.0469C32.7204 12.0469 30.9804 13.1669 26.4104 13.7269C22.1854 14.0386 17.9406 13.9583 13.7304 13.4869C12.4104 13.3069 12.1304 14.5869 11.4104 18.0969C10.7704 21.1869 10.2504 26.3669 9.04043 26.4369Z" fill="#263238"/>
<path d="M6.79047 12.8669L2.47046 10.5469C2.60845 10.256 2.80401 9.99616 3.04532 9.78306C3.28662 9.56996 3.56864 9.40804 3.87433 9.30708C4.18002 9.20612 4.50304 9.16822 4.82379 9.19569C5.14455 9.22315 5.45637 9.31541 5.74045 9.46687C6.31849 9.79043 6.74994 10.3239 6.9454 10.9569C7.14087 11.5898 7.08541 12.2737 6.79047 12.8669V12.8669Z" fill="#263238"/>
<path d="M22.2504 40.217C22.2504 40.217 15.8404 38.927 13.6004 37.737C12.2809 37.05 11.2002 35.9797 10.5004 34.667C10.8378 35.9797 11.4364 37.2109 12.2604 38.287C13.9004 40.377 22.2604 41.927 22.2604 41.927L22.2504 40.217Z" fill="#9A4A4D"/>
<path d="M21.9304 23.6271C21.9187 23.8774 21.8337 24.1187 21.6861 24.3212C21.5386 24.5236 21.3348 24.6783 21.1001 24.7661C20.8654 24.8538 20.6102 24.8707 20.366 24.8148C20.1217 24.7588 19.8993 24.6324 19.7262 24.4512C19.5532 24.2701 19.4371 24.0421 19.3924 23.7956C19.3477 23.5491 19.3763 23.2948 19.4747 23.0644C19.5731 22.834 19.7369 22.6375 19.9459 22.4994C20.1549 22.3612 20.3999 22.2874 20.6504 22.2871C20.8229 22.2897 20.9931 22.3265 21.1511 22.3955C21.3092 22.4645 21.452 22.5643 21.5711 22.689C21.6902 22.8137 21.7833 22.9609 21.845 23.1219C21.9067 23.283 21.9357 23.4547 21.9304 23.6271V23.6271Z" fill="#263238"/>
<path d="M20.5705 18.7767L17.8205 20.2967C17.627 19.9191 17.5856 19.4817 17.7046 19.0744C17.8236 18.6671 18.0941 18.3208 18.4604 18.1067C18.6419 18.0073 18.8417 17.9457 19.0477 17.9256C19.2537 17.9056 19.4616 17.9276 19.6588 17.9902C19.8561 18.0528 20.0386 18.1548 20.1953 18.29C20.352 18.4252 20.4796 18.5908 20.5705 18.7767V18.7767Z" fill="#263238"/>
<path d="M21.6905 32.4971L24.6205 33.6071C24.5597 33.8073 24.4588 33.9931 24.3238 34.153C24.1889 34.3129 24.0227 34.4436 23.8356 34.5372C23.6484 34.6308 23.4441 34.6853 23.2352 34.6973C23.0263 34.7093 22.8171 34.6786 22.6205 34.6071C22.2206 34.4464 21.8995 34.1358 21.7257 33.7415C21.5519 33.3472 21.5393 32.9006 21.6905 32.4971V32.4971Z" fill="#9A4A4D"/>
<path d="M33.0204 19.8469L30.5104 17.917C30.6275 17.7466 30.7783 17.6021 30.9535 17.4924C31.1287 17.3827 31.3245 17.3101 31.5289 17.2792C31.7332 17.2483 31.9418 17.2596 32.1416 17.3126C32.3414 17.3655 32.5282 17.4589 32.6904 17.587C33.0242 17.8499 33.2445 18.2307 33.3059 18.6512C33.3673 19.0716 33.2651 19.4996 33.0204 19.8469V19.8469Z" fill="#263238"/>
<path d="M32.2504 23.2568C32.2662 23.435 32.2446 23.6146 32.1872 23.7841C32.1298 23.9537 32.0377 24.1093 31.9169 24.2413C31.796 24.3733 31.649 24.4788 31.4852 24.5509C31.3214 24.623 31.1444 24.6602 30.9654 24.6602C30.7864 24.6602 30.6094 24.623 30.4456 24.5509C30.2818 24.4788 30.1348 24.3733 30.014 24.2413C29.8931 24.1093 29.8011 23.9537 29.7436 23.7841C29.6862 23.6146 29.6647 23.435 29.6804 23.2568C29.6751 23.0849 29.7042 22.9136 29.766 22.7531C29.8278 22.5926 29.9211 22.4461 30.0403 22.3222C30.1596 22.1983 30.3024 22.0995 30.4604 22.0316C30.6185 21.9636 30.7884 21.928 30.9604 21.9268C31.1324 21.9294 31.3023 21.9658 31.4602 22.0341C31.6182 22.1023 31.7611 22.201 31.8809 22.3246C32.0007 22.4481 32.095 22.594 32.1584 22.7539C32.2218 22.9139 32.2531 23.0847 32.2504 23.2568V23.2568Z" fill="#263238"/>
<path d="M25.7004 22.0469L26.1204 29.7669L30.1604 28.3969L25.7004 22.0469Z" fill="#9A4A4D"/>
</svg>
