<svg width="508" height="508" viewBox="0 0 508 508" fill="none" xmlns="http://www.w3.org/2000/svg">
<path d="M206.8 4.3999L254 95.9999L236 131.2L175.2 12.3999C185.6 9.1999 196 6.3999 206.8 4.3999Z" fill="#2F3F39"/>
<path d="M286.4 122.4H276.4L272.8 129.2H286.4C290.8 129.2 294.4 132.8 294.4 137.6V138.8C294.4 143.2 290.8 146.8 286.4 146.8H221.6C217.2 146.8 213.6 143.2 213.6 138.8V137.6C213.6 133.2 217.2 129.2 221.6 129.2H236.8L240.4 122.4H221.6C213.2 122.4 206.4 129.2 206.4 137.6V138.8C206.4 147.2 213.2 154 221.6 154H286.4C294.8 154 301.6 147.2 301.6 138.8V137.6C301.2 129.2 294.8 122.4 286.4 122.4Z" fill="#324A5E"/>
<path d="M410.4 194H97.5998C90.3998 194 84.7998 200 84.7998 206.8V415.6C84.7998 422.8 90.7998 428.4 97.5998 428.4H410.4C417.6 428.4 423.2 422.4 423.2 415.6V206.8C423.2 199.6 417.6 194 410.4 194ZM290.8 219.2C289.6 220.4 288.4 220.8 286.4 220.8H221.6C218.4 220.8 215.6 218 215.6 214.8C215.6 213.2 216.4 211.6 217.2 210.4C218.4 209.2 219.6 208.8 221.6 208.8H286.4C289.6 208.8 292.4 211.6 292.4 214.8C292.4 216.4 291.6 218 290.8 219.2Z" fill="white"/>
<path d="M407.6 248.8H100.4V412.8H407.6V248.8Z" fill="#E6E9EE"/>
<path d="M281.6 142.8H226V215.2H281.6V142.8Z" fill="#43BA8F"/>
<path d="M236 131.2H272L332.8 12.3999C322.4 9.1999 312 6.3999 301.2 4.3999L236 131.2Z" fill="#415850"/>
<path d="M254 182C261.953 182 268.4 175.553 268.4 167.6C268.4 159.647 261.953 153.2 254 153.2C246.047 153.2 239.6 159.647 239.6 167.6C239.6 175.553 246.047 182 254 182Z" fill="#E6E9EE"/>
<path d="M246.406 160.034C244.688 161.753 244.055 163.905 244.992 164.843C245.93 165.78 248.083 165.147 249.801 163.428C251.519 161.71 252.152 159.557 251.215 158.619C250.277 157.682 248.125 158.315 246.406 160.034Z" fill="white"/>
<path d="M218.8 267.2H117.2V370H218.8V267.2Z" fill="#D9F1E9"/>
<path d="M150.8 338L122.8 351.6L116.8 370H219.2L213.2 351.6L185.2 338C184.8 335.6 181.6 332 181.6 332C182.4 330.4 184.8 326.4 185.6 325.2C186.8 324.8 188.4 323.6 189.2 322C190 320.4 190 318.8 189.6 317.6C193.2 308.8 196 296 185.2 285.6C177.2 278 168 277.6 168 277.6C169.6 278.8 168 280.4 168 280.4C164.8 276.8 159.6 278.8 159.6 278.8C163.2 280 164.4 281.6 164.4 281.6C152.8 277.6 146.8 288.8 146.8 288.8L151.6 288C142 296.8 144 308.8 146.8 316.8C146 318 146 320 146.8 322C147.6 324 149.2 325.2 150.8 325.2C151.6 327.6 152.8 330 154.4 332C154.4 332 151.6 335.6 150.8 338Z" fill="#43BA8F"/>
<path d="M390.4 270H250V278H390.4V270Z" fill="#CED5E0"/>
<path d="M390.4 294H250V302H390.4V294Z" fill="#CED5E0"/>
<path d="M390.4 318H250V326H390.4V318Z" fill="#CED5E0"/>
<path d="M390.4 342H250V350H390.4V342Z" fill="#CED5E0"/>
<path d="M390.4 366H250V374H390.4V366Z" fill="#CED5E0"/>
</svg>
