<svg width="63" height="77" viewBox="0 0 63 77" fill="none" xmlns="http://www.w3.org/2000/svg">
<path d="M52.14 14.3898C60.47 15.3098 62.48 28.9198 60.51 36.5998C56.69 51.4098 46.7 53.1498 46.31 59.4698L31.31 50.6898L19.7 43.8598C16.65 42.0698 14.59 41.4398 11.43 39.5498C9.92266 38.7388 8.68526 37.5049 7.87 35.9998C7.14 33.9998 7.13002 32.1698 8.45002 31.1098C6.60002 32.0498 5.31 32.1098 3.78 31.0498C3.23592 30.5799 2.83965 29.9625 2.6391 29.2721C2.43856 28.5817 2.44233 27.8481 2.65 27.1598C3.05 27.8798 4.65 27.8998 4.78 26.1598C4.95 24.1598 5.49 22.2698 8.56 20.9798C15.9 4.97982 30.96 1.03981 36.79 2.31981C43.32 3.76981 50.15 7.52981 52.14 14.3898Z" fill="#263238"/>
<path d="M46 65.3999L46.83 51.6699C48.0422 52.3008 49.4335 52.499 50.7737 52.2317C52.1138 51.9643 53.3226 51.2476 54.2 50.1999C58.31 45.9399 58.71 41.2999 56.47 38.3199C54 35.0299 48.53 36.3199 46.16 40.3199C42.59 41.1699 41.16 36.0699 43.85 30.8399C43.85 30.8399 25.53 39.4099 18.53 18.8399C16.36 16.8399 13.45 18.4599 12.27 21.1899C11.09 23.9199 9.03002 29.1899 9.35002 40.8599C9.72002 53.9199 13.41 57.8599 16.99 60.0299C19.22 61.3999 22.36 61.7999 26.19 61.8099L25.99 65.6199C25.91 67.5299 25.46 67.6199 23.81 67.6899L21.33 67.8299C21.33 67.8299 15.15 75.0799 26.98 76.6099C44.65 78.9099 54.25 70.1499 54.25 70.1499C54.25 70.1499 53.14 69.9599 50.12 69.5099C47.1 69.0599 46.21 67.9999 46 65.3999Z" fill="#FFBDA7"/>
<path d="M52.3 48.5101C52.292 48.864 52.1793 49.2076 51.976 49.4974C51.7728 49.7873 51.4882 50.0103 51.1582 50.1384C50.8281 50.2665 50.4676 50.2938 50.122 50.217C49.7765 50.1402 49.4614 49.9627 49.2168 49.7068C48.9721 49.451 48.8088 49.1283 48.7475 48.7797C48.6862 48.4311 48.7297 48.0721 48.8724 47.7481C49.0151 47.4242 49.2506 47.1498 49.5492 46.9597C49.8478 46.7696 50.1961 46.6723 50.55 46.6801C50.7851 46.6853 51.0168 46.7368 51.232 46.8316C51.4472 46.9264 51.6416 47.0626 51.8041 47.2326C51.9667 47.4025 52.0941 47.6028 52.1792 47.822C52.2643 48.0412 52.3053 48.275 52.3 48.5101Z" fill="#43BA8F"/>
<path d="M30.58 48L24.21 50.06C24.3268 50.4867 24.5285 50.8855 24.8029 51.2325C25.0774 51.5795 25.419 51.8675 25.8074 52.0795C26.1957 52.2914 26.6229 52.4228 27.0632 52.4658C27.5035 52.5089 27.9479 52.4627 28.37 52.33C29.2291 52.0373 29.9403 51.4214 30.3529 50.6131C30.7655 49.8047 30.8469 48.8674 30.58 48V48Z" fill="#B16668"/>
<path d="M30.18 49.4798C29.3297 49.4618 28.4994 49.7389 27.8303 50.264C27.1612 50.789 26.6947 51.5296 26.51 52.3598C27.1155 52.5496 27.7645 52.5496 28.37 52.3598C28.977 52.1567 29.5151 51.7877 29.9233 51.2946C30.3315 50.8016 30.5937 50.2041 30.68 49.5698C30.5165 49.5243 30.3491 49.4942 30.18 49.4798Z" fill="#F28F8F"/>
<path d="M12.13 32.2198L16.83 30.1198C16.7088 29.8067 16.5251 29.5215 16.29 29.2817C16.0549 29.0419 15.7734 28.8526 15.4627 28.7254C15.152 28.5981 14.8185 28.5355 14.4828 28.5414C14.1471 28.5473 13.8161 28.6216 13.51 28.7598C12.8797 29.049 12.3847 29.5696 12.1278 30.2137C11.8709 30.8579 11.8717 31.5762 12.13 32.2198V32.2198Z" fill="#263238"/>
<path d="M34.75 31.4L30.17 28.91C30.317 28.6033 30.525 28.3297 30.7814 28.1061C31.0377 27.8826 31.337 27.7136 31.6609 27.6097C31.9848 27.5058 32.3265 27.4691 32.6651 27.5018C33.0036 27.5345 33.332 27.636 33.63 27.8C34.2438 28.1409 34.7026 28.7052 34.9112 29.3757C35.1198 30.0461 35.0621 30.7711 34.75 31.4V31.4Z" fill="#263238"/>
<path d="M23.63 32.9097L22.98 46.4597L16.01 43.6097L23.63 32.9097Z" fill="#F0997A"/>
<path d="M17.69 35.3301C17.729 35.9053 17.5417 36.473 17.1681 36.912C16.7944 37.351 16.264 37.6267 15.69 37.6801C15.4133 37.7133 15.1327 37.6903 14.865 37.6124C14.5974 37.5346 14.3483 37.4035 14.1326 37.227C13.9169 37.0505 13.739 36.8322 13.6097 36.5853C13.4804 36.3384 13.4023 36.0679 13.38 35.7901C13.3411 35.216 13.5287 34.6495 13.9026 34.2121C14.2765 33.7747 14.8068 33.5011 15.38 33.4501C15.6562 33.4155 15.9365 33.4371 16.2041 33.5138C16.4717 33.5905 16.721 33.7206 16.9369 33.8963C17.1527 34.072 17.3308 34.2897 17.4602 34.5361C17.5897 34.7825 17.6678 35.0526 17.69 35.3301V35.3301Z" fill="#263238"/>
<path d="M33.24 35.65C33.2816 36.2258 33.0952 36.7949 32.7211 37.2345C32.3469 37.6741 31.815 37.9491 31.24 38C30.9687 38.0233 30.6956 37.9929 30.4361 37.9105C30.1767 37.8281 29.936 37.6953 29.7279 37.5197C29.5199 37.3442 29.3484 37.1293 29.2235 36.8874C29.0986 36.6455 29.0227 36.3813 29 36.11C28.9584 35.5343 29.1447 34.9652 29.5189 34.5256C29.893 34.086 30.425 33.811 31 33.76C31.2712 33.7367 31.5444 33.7672 31.8039 33.8496C32.0633 33.932 32.304 34.0648 32.5121 34.2404C32.7201 34.4159 32.8915 34.6308 33.0164 34.8727C33.1413 35.1146 33.2173 35.3787 33.24 35.65Z" fill="#263238"/>
<path d="M26.15 61.7998C34.31 60.9398 42.15 58.2398 43.92 54.5098C43.92 54.5098 43.97 58.5698 40.66 60.5098C36 63.2798 26 64.6898 26 64.6898L26.15 61.7998Z" fill="#F0997A"/>
<path d="M61.89 33C61.431 35.6133 60.5956 38.1463 59.41 40.52C58.9 39.75 58.3 38.99 57.69 38.24C54.1191 34.1102 49.8468 30.6436 45.07 28V28C34.02 21.71 20.07 18.78 8.59 21C9.18834 18.8038 10.0655 16.6933 11.2 14.72C14.4008 9.14236 19.464 4.87048 25.5009 2.6542C31.5377 0.437921 38.1622 0.418898 44.2117 2.60047C50.2611 4.78203 55.3488 9.02477 58.5816 14.5839C61.8144 20.143 62.9858 26.6632 61.89 33V33Z" fill="#43BA8F"/>
<path d="M52.29 4.92989C50.97 4.15989 44.29 1.55989 43.73 1.34989C40.25 -0.020111 34.53 -0.410109 28.26 3.94989C23.3697 7.41592 19.7291 12.3682 17.88 18.0699L25 20.9999L27.31 21.4099C28.6 16.1199 36.61 5.10989 46.58 5.46989C47.0525 5.47892 47.5238 5.52237 47.99 5.59989C49.2973 5.77252 50.5715 6.13992 51.77 6.68989C53.0471 7.74581 54.2531 8.88496 55.38 10.0999C55.3535 9.04506 55.0551 8.01494 54.5138 7.10922C53.9724 6.20349 53.2065 5.45284 52.29 4.92989V4.92989Z" fill="#43BA8F"/>
<path opacity="0.45" d="M52.29 4.92989C50.97 4.15989 44.29 1.55989 43.73 1.34989C40.25 -0.020111 34.53 -0.410109 28.26 3.94989C23.3697 7.41592 19.7291 12.3682 17.88 18.0699L25 20.9999L27.31 21.4099C28.6 16.1199 36.61 5.10989 46.58 5.46989C47.0525 5.47892 47.5238 5.52237 47.99 5.59989C49.2973 5.77252 50.5715 6.13992 51.77 6.68989C53.0471 7.74581 54.2531 8.88496 55.38 10.0999C55.3535 9.04506 55.0551 8.01494 54.5138 7.10922C53.9724 6.20349 53.2065 5.45284 52.29 4.92989V4.92989Z" fill="white"/>
<path d="M27.3 21.3597C28.82 15.1997 39.53 1.16974 51.77 6.62974C53.0499 7.67177 54.2592 8.79757 55.39 9.99973C55.3485 8.95511 55.0423 7.93815 54.5 7.04432C53.9578 6.15048 53.1973 5.40909 52.29 4.88973C49.13 3.05973 42.62 1.74973 35.37 6.79973C30.4644 10.2828 26.8247 15.2668 25 20.9997L27.3 21.3597Z" fill="#43BA8F"/>
<path opacity="0.3" d="M27.3 21.3597C28.82 15.1997 39.53 1.16974 51.77 6.62974C53.0499 7.67177 54.2592 8.79757 55.39 9.99973C55.3485 8.95511 55.0423 7.93815 54.5 7.04432C53.9578 6.15048 53.1973 5.40909 52.29 4.88973C49.13 3.05973 42.62 1.74973 35.37 6.79973C30.4644 10.2828 26.8247 15.2668 25 20.9997L27.3 21.3597Z" fill="black"/>
<path d="M45.42 25.86C44.93 25.35 42.82 19.67 34.14 14.1C28.78 10.66 17.32 9.59996 12.14 9.26996C3.14002 8.69996 0.810004 10.44 0.590004 11.76C0.540004 12.07 0.300018 13.52 0.230018 13.85C0.164136 14.1417 0.206791 14.4474 0.350014 14.71C1.54001 16.87 8.53001 20.99 8.53001 20.99C20.04 18.77 33.96 21.7 45.01 27.99L45.42 25.86Z" fill="#43BA8F"/>
<path opacity="0.15" d="M45.42 25.86C44.93 25.35 42.82 19.67 34.14 14.1C28.78 10.66 17.32 9.59996 12.14 9.26996C3.14002 8.69996 0.810004 10.44 0.590004 11.76C0.540004 12.07 0.300018 13.52 0.230018 13.85C0.164136 14.1417 0.206791 14.4474 0.350014 14.71C1.54001 16.87 8.53001 20.99 8.53001 20.99C20.04 18.77 33.96 21.7 45.01 27.99L45.42 25.86Z" fill="black"/>
<path d="M45 28C33.95 21.71 20 18.78 8.51998 21C8.51998 21 1.51998 16.88 0.339983 14.72C-0.290017 13.54 0.589987 10.72 11.75 11.41C16.9 11.74 28.36 12.8 33.75 16.24C42.45 21.8 44.55 27.48 45 28Z" fill="#43BA8F"/>
<path opacity="0.3" d="M45 28C33.95 21.71 20 18.78 8.51998 21C8.51998 21 1.51998 16.88 0.339983 14.72C-0.290017 13.54 0.589987 10.72 11.75 11.41C16.9 11.74 28.36 12.8 33.75 16.24C42.45 21.8 44.55 27.48 45 28Z" fill="black"/>
</svg>
