<svg width="75" height="75" viewBox="0 0 75 75" fill="none" xmlns="http://www.w3.org/2000/svg">
<mask id="mask0" style="mask-type:alpha" maskUnits="userSpaceOnUse" x="0" y="0" width="75" height="75">
<g clip-path="url(#clip0)">
<path d="M69.8862 61.3637H57.9545C50.4357 61.3637 44.3184 55.2465 44.3184 47.7277C44.3184 40.2088 50.4357 34.0916 57.9545 34.0916H69.8862C70.8284 34.0916 71.5908 33.3292 71.5908 32.387V27.2734C71.5908 23.6991 68.8182 20.7922 65.3153 20.5103L55.526 3.41185C54.6189 1.83048 53.154 0.700227 51.4012 0.230898C49.6566 -0.235234 47.8324 0.00957754 46.271 0.918352L12.7128 20.4553H6.81898C3.05876 20.4553 0.000854492 23.5131 0.000854492 27.2734V68.1819C0.000854492 71.9421 3.0586 75 6.81898 75H64.7726C68.5328 75 71.5908 71.9423 71.5908 68.1819V63.0683C71.5908 62.1261 70.8284 61.3637 69.8862 61.3637ZM57.64 13.9681L61.3541 20.4553H46.4974L57.64 13.9681ZM19.4883 20.4553L47.9871 3.86456C48.7578 3.41345 49.6582 3.2936 50.5189 3.52339C51.3895 3.75637 52.1153 4.31902 52.5664 5.10635L52.5699 5.11258L26.2176 20.4553H19.4883Z" fill="black"/>
<path d="M69.8858 37.5005H57.9541C52.3145 37.5005 47.727 42.088 47.727 47.7276C47.727 53.3672 52.3145 57.9547 57.9541 57.9547H69.8858C72.7056 57.9547 74.9994 55.661 74.9994 52.8412V42.614C74.9994 39.7942 72.7056 37.5005 69.8858 37.5005ZM57.9541 51.1366C56.0749 51.1366 54.5451 49.6068 54.5451 47.7276C54.5451 45.8484 56.0749 44.3186 57.9541 44.3186C59.8334 44.3186 61.3631 45.8484 61.3631 47.7276C61.3633 49.6068 59.8335 51.1366 57.9541 51.1366Z" fill="black"/>
</g>
</mask>
<g mask="url(#mask0)">
<rect y="2" width="75" height="75" fill="#EA6767"/>
<rect x="8" y="-5" width="61" height="26" rx="6" fill="#FFB8B8"/>
</g>
<defs>
<clipPath id="clip0">
<rect width="75" height="75" fill="white"/>
</clipPath>
</defs>
</svg>
