<svg width="75" height="75" viewBox="0 0 75 75" fill="none" xmlns="http://www.w3.org/2000/svg">
<mask id="mask0" style="mask-type:alpha" maskUnits="userSpaceOnUse" x="0" y="0" width="75" height="75">
<g clip-path="url(#clip0)">
<path d="M59.3749 21.875C59.3749 9.81299 49.5621 0 37.5 0C25.4378 0 15.625 9.81299 15.625 21.875C15.625 32.3209 23.4489 47.393 34.6198 49.6748L31.5629 53.7505C31.2074 54.2235 31.1509 54.8568 31.415 55.3863C31.6806 55.9159 32.2207 56.25 32.8127 56.25H35.7984C35.6042 57.25 35.2154 57.777 34.717 58.3985C33.8686 59.4605 32.8127 60.7803 32.8127 64.0626C32.8127 67.3449 33.8686 68.6647 34.717 69.7267C35.4266 70.6118 35.9377 71.251 35.9377 73.4376C35.9377 74.3013 36.6366 75.0001 37.5002 75.0001C38.3639 75.0001 39.0628 74.3013 39.0628 73.4376C39.0628 70.1555 38.0069 68.8355 37.1585 67.7735C36.4489 66.8884 35.9378 66.2492 35.9378 64.0626C35.9378 61.876 36.4491 61.2366 37.1585 60.3517C37.8552 59.4795 38.6827 58.4145 38.9594 56.2501H42.1875C42.7795 56.2501 43.3196 55.916 43.5852 55.3865C43.8492 54.8569 43.7928 54.2237 43.4373 53.7507L40.3804 49.6749C51.551 47.393 59.3749 32.321 59.3749 21.875ZM31.9457 10.6781C27.661 12.8114 24.9999 17.1021 24.9999 21.8751C24.9999 22.7388 24.301 23.4376 23.4373 23.4376C22.5736 23.4376 21.8748 22.7388 21.8748 21.8751C21.8748 15.9089 25.1997 10.547 30.554 7.87969C31.3261 7.49517 32.2645 7.81099 32.649 8.58311C33.0335 9.35522 32.7194 10.2936 31.9457 10.6781Z" fill="black"/>
<path d="M68.75 8.34346C68.75 7.25859 69.1818 6.78853 69.899 6.01187C70.7322 5.10703 71.875 3.86807 71.875 1.5624C71.875 0.698877 71.1762 0 70.3125 0C69.4488 0 68.75 0.698877 68.75 1.56255C68.75 2.64741 68.3181 3.11748 67.6009 3.89414C66.7679 4.79883 65.625 6.03794 65.625 8.34346C65.625 10.6491 66.7679 11.8881 67.6011 12.7929C68.3183 13.5696 68.7501 14.0395 68.7501 15.1229C68.7501 16.2047 68.3183 16.6731 67.6011 17.4483C66.7679 18.3532 65.625 19.5907 65.625 21.8933C65.625 22.7569 66.3239 23.4558 67.1875 23.4558C68.0512 23.4558 68.7501 22.7569 68.7501 21.8933C68.7501 20.8129 69.1819 20.3445 69.8975 19.5693C70.7322 18.6645 71.875 17.427 71.875 15.1229C71.875 12.8188 70.7336 11.5797 69.899 10.6749C69.1818 9.89839 68.75 9.42847 68.75 8.34346Z" fill="black"/>
<path d="M59.375 53.1249C61.1008 53.1249 62.4999 51.7258 62.4999 50C62.4999 48.2741 61.1008 46.875 59.375 46.875C57.6491 46.875 56.25 48.2741 56.25 50C56.25 51.7258 57.6491 53.1249 59.375 53.1249Z" fill="black"/>
<path d="M21.875 65.6251C23.6008 65.6251 24.9999 64.2261 24.9999 62.5002C24.9999 60.7743 23.6008 59.3752 21.875 59.3752C20.1491 59.3752 18.75 60.7743 18.75 62.5002C18.75 64.2261 20.1491 65.6251 21.875 65.6251Z" fill="black"/>
<path d="M7.8125 9.375C10.4013 9.375 12.5 7.27633 12.5 4.6875C12.5 2.09866 10.4013 0 7.8125 0C5.22366 0 3.125 2.09866 3.125 4.6875C3.125 7.27633 5.22366 9.375 7.8125 9.375Z" fill="black"/>
</g>
</mask>
<g mask="url(#mask0)">
<rect y="-1" width="75" height="78" fill="#EA6767"/>
<ellipse cx="7.5" cy="5" rx="6.5" ry="7" fill="#FFB8B8"/>
<ellipse cx="21.5" cy="63" rx="6.5" ry="7" fill="#FFB8B8"/>
<ellipse cx="59.5" cy="52" rx="6.5" ry="7" fill="#FFB8B8"/>
<ellipse cx="68.5" cy="12" rx="6.5" ry="18" fill="#FFB8B8"/>
</g>
<defs>
<clipPath id="clip0">
<rect width="75" height="75" fill="white"/>
</clipPath>
</defs>
</svg>
