<svg width="330" height="313" viewBox="0 0 330 313" fill="none" xmlns="http://www.w3.org/2000/svg">
<path d="M165 313C256.127 313 330 270.436 330 217.93C330 165.425 256.127 122.86 165 122.86C73.873 122.86 0 165.425 0 217.93C0 270.436 73.873 313 165 313Z" fill="#F0F0F0"/>
<path d="M176.194 255.901H169.945C169.376 255.901 168.829 255.682 168.418 255.289C168.007 254.896 167.764 254.359 167.74 253.792C167.591 247.72 166.979 241.668 165.909 235.689C165.833 235.275 165.878 234.848 166.037 234.459C166.197 234.07 166.465 233.735 166.809 233.493C167.154 233.251 167.561 233.113 167.982 233.095C168.403 233.076 168.82 233.179 169.184 233.39L234.641 271.107C234.975 271.301 235.253 271.58 235.447 271.915C235.64 272.25 235.741 272.629 235.741 273.016C235.741 273.402 235.64 273.782 235.447 274.117C235.253 274.452 234.975 274.73 234.641 274.924V274.924C234.222 275.162 233.892 275.53 233.703 275.973C233.514 276.415 233.475 276.907 233.592 277.374C233.709 277.84 233.977 278.255 234.353 278.556C234.73 278.856 235.194 279.025 235.676 279.037L276.477 280.274C276.789 280.284 277.1 280.227 277.389 280.107C277.677 279.988 277.937 279.808 278.151 279.581C278.364 279.353 278.527 279.083 278.629 278.788C278.73 278.494 278.767 278.18 278.738 277.87L276.625 254.368C276.59 253.999 276.464 253.645 276.256 253.338C276.049 253.031 275.768 252.78 275.438 252.61C275.109 252.439 274.742 252.353 274.371 252.361C274 252.368 273.636 252.469 273.314 252.653L269.644 254.762C269.308 254.955 268.926 255.057 268.538 255.057C268.15 255.057 267.768 254.955 267.432 254.762L206.35 219.554C205.921 219.305 205.588 218.919 205.405 218.458C205.223 217.997 205.201 217.488 205.343 217.013C205.485 216.538 205.784 216.125 206.19 215.84C206.597 215.555 207.087 215.414 207.583 215.442C217.002 215.962 227.441 216.257 239.036 216.327C239.619 216.331 240.177 216.564 240.589 216.976C241 217.388 241.232 217.946 241.234 218.528V219.435C241.234 219.813 241.332 220.186 241.518 220.516C241.704 220.846 241.971 221.123 242.295 221.32C242.619 221.517 242.989 221.627 243.368 221.641C243.747 221.654 244.123 221.57 244.46 221.396L274.519 205.81C274.878 205.624 275.178 205.343 275.388 204.997C275.598 204.652 275.709 204.256 275.709 203.852C275.709 203.448 275.598 203.052 275.388 202.707C275.178 202.362 274.878 202.081 274.519 201.894L244.46 186.336C244.124 186.163 243.748 186.079 243.37 186.092C242.991 186.105 242.622 186.215 242.298 186.411C241.975 186.607 241.707 186.883 241.52 187.212C241.334 187.541 241.235 187.913 241.234 188.291V189.156C241.234 189.447 241.176 189.735 241.064 190.004C240.952 190.272 240.788 190.516 240.581 190.721C240.374 190.927 240.129 191.089 239.859 191.199C239.589 191.309 239.3 191.365 239.008 191.363C175.229 190.66 154.398 178.364 137.569 168.409C136.09 167.538 134.639 166.68 133.188 165.843L81.3272 135.958C69.869 139.796 58.8134 144.741 48.3173 150.721C41.4684 154.625 34.9725 159.115 28.9031 164.142L85.8004 196.924C87.2515 197.761 88.7379 198.597 90.2524 199.448C107.596 209.178 127.137 220.145 129.095 253.581C129.113 253.881 129.07 254.182 128.967 254.465C128.865 254.748 128.705 255.007 128.499 255.226C128.292 255.445 128.043 255.62 127.766 255.74C127.49 255.859 127.192 255.921 126.89 255.922H120.881C120.404 255.923 119.94 256.079 119.559 256.365C119.178 256.651 118.899 257.053 118.765 257.51C118.631 257.967 118.649 258.455 118.816 258.901C118.983 259.347 119.29 259.727 119.691 259.985L147.34 277.687C147.695 277.915 148.108 278.036 148.53 278.036C148.952 278.036 149.366 277.915 149.721 277.687L177.377 259.985C177.788 259.732 178.104 259.351 178.277 258.901C178.451 258.452 178.472 257.958 178.338 257.495C178.204 257.032 177.922 256.626 177.535 256.338C177.147 256.05 176.676 255.896 176.194 255.901Z" fill="#E0E0E0"/>
<path d="M286.635 48.7196L292.228 51.9394C292.199 51.7061 292.183 51.4714 292.179 51.2364V49.6194C292.179 46.7441 294.201 45.5771 296.694 47.0112C297.768 47.6689 298.687 48.5516 299.385 49.5983C299.794 45.9848 302.64 44.635 306.091 46.6246C309.825 48.7758 312.847 54.0063 312.847 58.3088V60.671C312.875 61.6396 312.68 62.6017 312.276 63.4831L316.919 66.1546C317.647 66.6304 318.253 67.2701 318.689 68.0222C319.124 68.7743 319.377 69.6179 319.426 70.4852C319.426 72.081 318.299 72.7278 316.919 71.9334L286.628 54.4844C285.899 54.0094 285.293 53.3698 284.859 52.6174C284.424 51.8649 284.174 51.0209 284.127 50.1537C284.134 48.5719 285.254 47.9252 286.635 48.7196Z" fill="#E6E6E6"/>
<path d="M291.383 24.5918L288.297 22.2226V15.4455C288.297 10.0744 284.007 3.83859 279.344 1.15304C274.681 -1.53251 270.891 0.639828 270.891 6.01796V7.00219C269.914 5.41535 268.583 4.0752 267.002 3.08635V3.08635C263.642 1.15304 260.923 2.72078 260.923 6.60147V7.0514L256.626 4.56973C254.421 3.29726 252.625 4.3307 252.625 6.87565C252.701 8.26114 253.103 9.60925 253.798 10.811C254.493 12.0127 255.462 13.0344 256.626 13.7934L291.397 33.8225C293.602 35.095 295.398 34.0686 295.398 31.5166C295.322 30.1284 294.919 28.7776 294.221 27.5743C293.524 26.371 292.551 25.3491 291.383 24.5918V24.5918Z" fill="#E6E6E6"/>
<path d="M275.364 272.365V276.787L239.529 275.698V271.276L240.663 270.622L161.062 224.743C163.401 232.919 164.584 242.782 164.584 254.586H172.537V259.015L148.544 274.39L124.551 259.036V254.607H132.455C130.729 215.238 105.834 204.531 87.4627 193.943C82.4401 191.04 55.3264 175.418 31.7207 161.829V157.393C36.973 153.286 42.5148 149.562 48.3031 146.25C57.5863 140.958 67.3166 136.488 77.3822 132.893L131.532 164.1C150.552 175.074 169.847 190.112 244.496 190.112V185.5L271.151 199.328V203.75L244.496 217.572V212.967C224.011 212.967 206.886 212.299 192.698 210.956L268.489 254.628L273.455 251.76L275.364 272.365Z" fill="#EA6767"/>
<path opacity="0.15" d="M275.364 272.365V276.787L239.529 275.698V271.276L240.663 270.622L161.062 224.743C163.401 232.919 164.584 242.782 164.584 254.586H172.537V259.015L148.544 274.39L124.551 259.036V254.607H132.455C130.729 215.238 105.834 204.531 87.4627 193.943L31.7207 161.829V157.393C36.973 153.286 42.5148 149.562 48.3031 146.25C57.5863 140.958 67.3166 136.488 77.3822 132.893L77.5654 132.998L131.532 164.1C150.552 175.074 169.847 190.112 244.496 190.112V185.5L271.151 199.328V203.75L244.496 217.572V212.967C224.011 212.967 206.886 212.299 192.698 210.956L268.489 254.628L273.455 251.76L275.364 272.365Z" fill="black"/>
<path opacity="0.15" d="M132.554 254.593H132.455C130.722 215.224 105.827 204.516 87.4557 193.929L31.7207 161.836V157.4L87.4345 189.507C106.497 200.474 132.554 211.582 132.554 254.593Z" fill="black"/>
<path opacity="0.15" d="M244.517 208.517V212.932C224.032 212.932 206.907 212.264 192.719 210.921L183.174 205.445C191.099 206.471 200.081 207.237 210.295 207.75C220.509 208.264 231.865 208.517 244.517 208.517Z" fill="black"/>
<path d="M239.529 271.276L244.503 268.415L159.224 219.259C162.795 228.398 164.556 240.012 164.556 254.586H172.538L148.545 269.947L124.551 254.586H132.547C132.547 211.582 106.483 200.453 87.463 189.5L31.7703 157.414C37.0226 153.307 42.5644 149.584 48.3527 146.271C57.6358 140.979 67.3661 136.509 77.4318 132.914L77.6149 133.019L131.582 164.121C150.602 175.095 169.896 190.133 244.545 190.133V185.521L271.201 199.35L244.545 213.171V208.566C231.865 208.566 220.531 208.313 210.345 207.8C200.159 207.287 191.149 206.527 183.231 205.494L268.538 254.649L273.504 251.781L275.392 272.422L239.529 271.276Z" fill="#EA6767"/>
<path opacity="0.15" d="M244.517 268.414L240.678 270.629L161.076 224.749C160.485 222.64 159.872 220.876 159.238 219.266L244.517 268.414Z" fill="black"/>
<path opacity="0.15" d="M148.544 269.954V274.376L124.551 259.015V254.593L148.544 269.954Z" fill="black"/>
<path d="M206.872 34.2653C206.846 34.0556 206.768 33.8557 206.645 33.6837C206.522 33.5118 206.358 33.3734 206.167 33.2811C205.621 33.0061 205.018 32.8628 204.406 32.8628C203.794 32.8628 203.191 33.0061 202.645 33.2811C202.454 33.3718 202.288 33.5098 202.165 33.682C202.042 33.8542 201.965 34.055 201.941 34.2653V34.2653V214.042C201.941 214.816 203.054 215.448 204.427 215.448C205.801 215.448 206.914 214.816 206.914 214.042V34.2653H206.872Z" fill="#37474F"/>
<path d="M204.385 35.6715C205.758 35.6715 206.872 35.042 206.872 34.2654C206.872 33.4889 205.758 32.8594 204.385 32.8594C203.012 32.8594 201.898 33.4889 201.898 34.2654C201.898 35.042 203.012 35.6715 204.385 35.6715Z" fill="#455A64"/>
<path d="M232.492 66.1125L227.61 57.6762L195.178 39.0039L192.727 40.417V51.6583L225.159 70.3306L227.66 68.9527L232.492 66.1125Z" fill="#EA6767"/>
<path d="M192.727 40.417L225.159 59.0893L230.033 67.5256L225.159 70.3306L192.727 51.6583V40.417Z" fill="#EA6767"/>
<g opacity="0.3">
<path opacity="0.3" d="M192.727 40.417L225.159 59.0893L230.048 67.5467L225.159 70.3306L192.727 51.6583V40.417Z" fill="black"/>
</g>
<path opacity="0.1" d="M227.61 57.6762L225.159 59.0893L192.727 40.417L195.178 39.0039L227.61 57.6762Z" fill="black"/>
<path opacity="0.2" d="M225.159 59.0891L227.61 57.676L232.492 66.1123L230.048 67.5465L225.159 59.0891Z" fill="black"/>
<path d="M232.492 105.496L227.61 97.0595L195.178 78.3872L192.727 79.8003V91.0416L225.159 109.714L227.66 108.336L232.492 105.496Z" fill="#EA6767"/>
<path d="M192.727 79.8003L225.159 98.4726L230.033 106.902L225.159 109.714L192.727 91.0416V79.8003Z" fill="#EA6767"/>
<g opacity="0.3">
<path opacity="0.3" d="M192.727 79.8003L225.159 98.4726L230.048 106.93L225.159 109.714L192.727 91.0416V79.8003Z" fill="black"/>
</g>
<path opacity="0.1" d="M227.61 97.0595L225.159 98.4726L192.727 79.8003L195.178 78.3872L227.61 97.0595Z" fill="black"/>
<path opacity="0.2" d="M225.159 98.4727L227.61 97.0596L232.492 105.496L230.048 106.93L225.159 98.4727Z" fill="black"/>
<path d="M213.634 72.2075L181.202 53.5071L176.32 56.3192L181.202 64.7484L213.634 83.4488V72.2075Z" fill="#EA6767"/>
<path d="M181.202 53.5072L183.583 52.073L216.065 70.8086L213.634 72.2076L181.202 53.5072Z" fill="#EA6767"/>
<g opacity="0.4">
<path opacity="0.4" d="M181.202 53.5072L183.583 52.073L216.065 70.8086L213.634 72.2076L181.202 53.5072Z" fill="white"/>
</g>
<path d="M216.065 82.0499L213.634 83.4489V72.2076L216.065 70.8086V82.0499Z" fill="#EA6767"/>
<path opacity="0.1" d="M216.065 82.0499L213.634 83.4489V72.2076L216.065 70.8086V82.0499Z" fill="black"/>
<path d="M36.9476 175.207L42.9071 171.749C42.9071 171.749 44.3653 159.024 43.3931 149.175C42.0265 135.325 33.0661 118.663 22.3798 122.579C11.6935 126.495 27.2757 140.591 30.7485 152.338C34.2214 164.086 36.9476 175.207 36.9476 175.207Z" fill="#EA6767"/>
<path opacity="0.15" d="M36.9476 175.207L42.9071 171.749C42.9071 171.749 44.3653 159.024 43.3931 149.175C42.0265 135.325 33.0661 118.663 22.3798 122.579C11.6935 126.495 27.2757 140.591 30.7485 152.338C34.2214 164.086 36.9476 175.207 36.9476 175.207Z" fill="black"/>
<path d="M40.0825 173.766C40.0353 173.765 39.989 173.753 39.9461 173.734C39.9032 173.714 39.8646 173.686 39.8325 173.652C39.8005 173.617 39.7755 173.576 39.7592 173.532C39.7429 173.488 39.7354 173.441 39.7373 173.394C40.7799 142.622 25.4302 127.149 25.2753 126.994C25.2071 126.927 25.1684 126.836 25.1677 126.74C25.1671 126.645 25.2045 126.553 25.2717 126.485C25.339 126.416 25.4306 126.378 25.5264 126.377C25.6222 126.377 25.7143 126.414 25.7825 126.481C25.9445 126.636 41.5125 142.341 40.4559 173.422C40.4504 173.516 40.4085 173.605 40.3388 173.669C40.2692 173.734 40.1773 173.768 40.0825 173.766V173.766Z" fill="white"/>
<path d="M33.2071 177.373L37.4337 174.926C37.4337 174.926 38.1381 166.195 33.8692 155.593C30.1428 146.334 20.8724 138.707 16.2231 140.281C11.5738 141.856 11.6795 145.202 13.9478 148.654C16.2161 152.106 30.0371 160.36 33.2071 177.373Z" fill="#EA6767"/>
<path d="M35.4402 176.424C35.3924 176.424 35.3452 176.414 35.3011 176.396C35.257 176.377 35.2171 176.35 35.1837 176.316C35.1502 176.282 35.1239 176.242 35.1063 176.197C35.0886 176.153 35.08 176.106 35.081 176.058C35.1655 156.605 16.8643 143.459 16.6741 143.325C16.6357 143.298 16.6031 143.263 16.5783 143.222C16.5534 143.182 16.5368 143.137 16.5292 143.091C16.5217 143.044 16.5235 142.996 16.5344 142.95C16.5454 142.904 16.5653 142.861 16.593 142.823C16.6208 142.784 16.6558 142.752 16.6962 142.727C16.7365 142.702 16.7813 142.686 16.8281 142.678C16.8749 142.671 16.9227 142.672 16.9688 142.683C17.0148 142.694 17.0583 142.714 17.0967 142.742C17.2799 142.875 35.8911 156.24 35.7995 176.065C35.7995 176.16 35.7616 176.251 35.6943 176.319C35.6269 176.386 35.5355 176.424 35.4402 176.424Z" fill="white"/>
<path d="M292.432 172.184L287.297 169.218C287.297 169.218 284.24 156.563 285.459 145.132C287.17 129.089 297.751 123.057 301.773 124.442C305.796 125.827 306.965 130.488 300.308 140.042C296.377 145.68 291.552 157.421 292.432 172.184Z" fill="#EA6767"/>
<g opacity="0.15">
<path opacity="0.15" d="M292.432 172.184L287.297 169.218C287.297 169.218 284.24 156.563 285.459 145.132C287.17 129.089 297.751 123.057 301.773 124.442C305.796 125.827 306.965 130.488 300.308 140.042C296.377 145.68 291.552 157.421 292.432 172.184Z" fill="black"/>
</g>
<path d="M290.305 165.956H290.354C290.448 165.939 290.53 165.885 290.584 165.808C290.638 165.73 290.66 165.634 290.643 165.541C287.825 150.742 293.003 134.123 299.413 127.198C299.477 127.129 299.51 127.038 299.506 126.944C299.502 126.85 299.461 126.762 299.392 126.699C299.323 126.635 299.232 126.602 299.138 126.606C299.044 126.61 298.956 126.651 298.892 126.72C292.362 133.785 287.086 150.658 289.939 165.667C289.955 165.751 290.001 165.826 290.069 165.879C290.136 165.932 290.22 165.959 290.305 165.956V165.956Z" fill="white"/>
<path d="M305.894 179.939C306.704 180.354 308.86 178.533 309.466 178.062C310.492 177.278 311.304 176.248 311.826 175.067C312.402 173.724 312.545 172.235 312.234 170.807C312.071 170.052 311.854 169.309 311.586 168.585L310.846 166.434C310.558 165.741 310.412 164.997 310.417 164.247C310.529 162.75 311.826 161.632 312.967 160.669C314.249 159.607 315.573 158.222 315.475 156.451C315.31 155.062 314.685 153.768 313.699 152.774C312.784 151.727 311.713 150.813 310.882 149.709C310.226 148.94 309.856 147.969 309.832 146.96C309.882 146.34 310.059 145.737 310.353 145.188C311.028 144.038 311.608 142.834 312.086 141.589C312.467 140.309 312.319 138.777 311.29 137.905C310.836 137.598 310.324 137.385 309.786 137.278C309.247 137.172 308.693 137.175 308.155 137.286C307.144 137.467 306.183 137.863 305.338 138.446C302.562 140.176 301.111 143.635 298.131 145.013C296.946 145.446 295.734 145.806 294.503 146.088C293.888 146.235 293.31 146.509 292.807 146.891C292.304 147.274 291.886 147.757 291.58 148.31C290.58 150.588 292.785 153.231 292.122 155.614C291.538 157.723 289.544 158.63 288.502 160.571C288.076 161.423 287.937 162.389 288.107 163.326C288.295 164.916 288.773 166.457 289.516 167.875C290.346 169.335 291.263 170.744 292.263 172.093C292.263 172.093 305.746 179.876 305.894 179.939Z" fill="#EA6767"/>
<path d="M298.033 175.847C298.08 175.844 298.125 175.831 298.167 175.809C298.209 175.788 298.246 175.758 298.277 175.722C298.307 175.686 298.329 175.644 298.343 175.599C298.357 175.554 298.362 175.507 298.357 175.46C297.061 161.4 302.929 145.484 307.514 140.717C307.566 140.647 307.59 140.56 307.583 140.474C307.575 140.387 307.537 140.306 307.474 140.246C307.411 140.186 307.328 140.15 307.241 140.146C307.154 140.143 307.068 140.17 307 140.225C302.295 145.09 296.3 161.252 297.624 175.524C297.628 175.572 297.643 175.619 297.666 175.662C297.689 175.705 297.721 175.743 297.759 175.773C297.797 175.803 297.841 175.826 297.888 175.838C297.935 175.851 297.984 175.854 298.033 175.847V175.847Z" fill="white"/>
<path d="M299.407 158.497H299.512C302.819 157.39 306.237 156.648 309.705 156.282C309.799 156.273 309.886 156.228 309.947 156.155C310.008 156.083 310.037 155.989 310.029 155.895C310.027 155.848 310.015 155.802 309.993 155.76C309.972 155.717 309.942 155.68 309.906 155.65C309.87 155.619 309.828 155.597 309.782 155.583C309.737 155.57 309.689 155.566 309.642 155.572C306.123 155.932 302.653 156.672 299.294 157.779C299.248 157.788 299.203 157.806 299.164 157.832C299.125 157.858 299.091 157.891 299.064 157.93C299.038 157.969 299.019 158.012 299.01 158.058C299 158.104 299 158.152 299.008 158.198C299.017 158.244 299.035 158.288 299.061 158.327C299.087 158.367 299.12 158.4 299.159 158.427C299.198 158.453 299.242 158.472 299.288 158.481C299.334 158.491 299.381 158.491 299.428 158.483L299.407 158.497Z" fill="white"/>
</svg>
