<svg width="395" height="395" viewBox="0 0 395 395" fill="none" xmlns="http://www.w3.org/2000/svg">
<path d="M197.5 378.702C297.902 378.702 379.295 331.718 379.295 273.759C379.295 215.8 297.902 168.815 197.5 168.815C97.0974 168.815 15.7051 215.8 15.7051 273.759C15.7051 331.718 97.0974 378.702 197.5 378.702Z" fill="#F5F5F5"/>
<path d="M317.667 321.277C342.768 321.277 363.116 309.527 363.116 295.033C363.116 280.539 342.768 268.79 317.667 268.79C292.566 268.79 272.218 280.539 272.218 295.033C272.218 309.527 292.566 321.277 317.667 321.277Z" fill="#E0E0E0"/>
<path d="M154.951 351.732L42.1941 286.636C40.3455 285.569 40.3455 283.839 42.1941 282.765L205.203 188.66C206.24 188.13 207.388 187.854 208.552 187.854C209.717 187.854 210.865 188.13 211.902 188.66L324.627 253.74C326.476 254.807 326.476 256.537 324.627 257.603L161.65 351.732C160.612 352.258 159.464 352.532 158.3 352.532C157.136 352.532 155.989 352.258 154.951 351.732V351.732Z" fill="#E0E0E0"/>
<path d="M340.608 279.984C339.637 273.316 342.125 247.918 347.774 238.248C353.422 228.579 362.784 218.435 370.936 219.952C378.489 221.358 379.089 230.917 371.268 238.446C363.447 245.974 351.471 255.747 349.211 267.123L343.049 286.486L340.608 279.984Z" fill="#EA6767"/>
<path opacity="0.1" d="M340.608 279.984C339.637 273.316 342.125 247.918 347.774 238.248C353.422 228.579 362.784 218.435 370.936 219.952C378.489 221.358 379.089 230.917 371.268 238.446C363.447 245.974 351.471 255.747 349.211 267.123L343.049 286.486L340.608 279.984Z" fill="black"/>
<path d="M342.417 277.89C342.52 277.863 342.612 277.803 342.677 277.718C342.743 277.634 342.779 277.531 342.781 277.424C343.128 253.993 358.115 232.284 368.337 226.24C368.449 226.174 368.531 226.066 368.563 225.941C368.596 225.815 368.577 225.681 368.511 225.569C368.445 225.457 368.337 225.375 368.211 225.343C368.085 225.31 367.952 225.329 367.84 225.395C357.419 231.557 342.149 253.622 341.77 277.409C341.769 277.473 341.78 277.537 341.804 277.597C341.828 277.656 341.863 277.711 341.907 277.757C341.952 277.803 342.006 277.84 342.065 277.866C342.124 277.892 342.187 277.905 342.252 277.906C342.307 277.914 342.364 277.908 342.417 277.89V277.89Z" fill="white"/>
<path d="M346.083 290.12C346.605 286.217 349.338 279.486 355.516 272.819C363.084 264.65 375.645 260.179 377.399 255.439C379.492 249.735 374.705 245.84 366.536 248.439C355.563 251.931 343.318 265.63 343.476 283.254L346.083 290.12Z" fill="#EA6767"/>
<path d="M343.879 286.43C343.971 286.407 344.054 286.358 344.12 286.29C344.186 286.222 344.231 286.136 344.25 286.043C348.39 265.503 364.948 254.483 371.711 252.587C371.836 252.558 371.946 252.482 372.016 252.375C372.087 252.267 372.113 252.136 372.09 252.01C372.073 251.947 372.044 251.888 372.005 251.836C371.965 251.785 371.915 251.742 371.858 251.71C371.801 251.678 371.739 251.658 371.674 251.652C371.609 251.645 371.544 251.651 371.481 251.67C364.008 253.764 347.544 264.942 343.326 285.885C343.313 285.948 343.313 286.014 343.326 286.077C343.339 286.14 343.364 286.2 343.4 286.254C343.435 286.308 343.482 286.354 343.535 286.389C343.589 286.425 343.65 286.45 343.713 286.462C343.77 286.462 343.826 286.451 343.879 286.43V286.43Z" fill="white"/>
<path d="M115.585 58.7918L109.573 62.2678C109.604 62.0056 109.62 61.7419 109.621 61.4778V59.7398C109.621 56.6351 107.44 55.379 104.754 56.9274C103.602 57.6418 102.614 58.5922 101.855 59.7161C101.421 55.8135 98.3553 54.3599 94.6423 56.5087C90.6212 58.8313 87.3585 64.4719 87.3585 69.1487V71.7557C87.3354 72.7951 87.546 73.8264 87.9747 74.7735L82.9503 77.6175C82.1638 78.1296 81.5092 78.8199 81.0397 79.6326C80.5703 80.4452 80.2992 81.3572 80.2485 82.2943C80.2485 84.0165 81.4572 84.7117 82.9503 83.8743L115.554 65.0486C116.339 64.5374 116.993 63.8483 117.463 63.0371C117.932 62.2259 118.204 61.3155 118.255 60.3797C118.287 58.6338 117.078 57.9307 115.585 58.7918Z" fill="#E6E6E6"/>
<path d="M39.6108 66.5576L42.9288 63.9901V56.6905C42.9288 50.8919 47.5503 44.1611 52.5668 41.2618C57.5912 38.3625 61.6597 40.7167 61.6597 46.5153V47.5739C62.7162 45.8569 64.1612 44.4119 65.8783 43.3553C69.4886 41.2697 72.4195 42.9603 72.4195 47.1315V47.6134L77.0489 44.9432C79.4189 43.5686 81.3544 44.6825 81.3544 47.4317C81.2726 48.9255 80.8402 50.3791 80.0922 51.6747C79.3442 52.9703 78.3016 54.0716 77.0489 54.8893L39.6108 76.5037C37.2408 77.8783 35.2974 76.7644 35.2974 74.0152C35.3762 72.5198 35.8082 71.0644 36.558 69.7681C37.3077 68.4719 38.3539 67.3717 39.6108 66.5576V66.5576Z" fill="#E6E6E6"/>
<path d="M49.1538 277.677C49.244 278.904 49.6213 280.092 50.2553 281.146C50.8893 282.2 51.7622 283.09 52.8036 283.744L155.101 342.805C156.234 343.378 157.485 343.676 158.754 343.676C160.024 343.676 161.275 343.378 162.408 342.805L314.017 255.281C315.118 254.696 316.039 253.823 316.681 252.755C317.323 251.687 317.662 250.464 317.662 249.217C317.662 247.971 317.323 246.748 316.681 245.68C316.039 244.612 315.118 243.739 314.017 243.154L211.72 184.07C210.588 183.494 209.336 183.193 208.066 183.193C206.796 183.193 205.544 183.494 204.413 184.07L52.8036 271.618C51.7624 272.271 50.8894 273.159 50.2554 274.212C49.6213 275.264 49.2439 276.452 49.1538 277.677Z" fill="#37474F"/>
<path d="M158.79 335.75V343.65C157.519 343.678 156.262 343.379 155.14 342.781L52.8036 283.744C51.7347 283.18 50.8343 282.343 50.1941 281.317C49.5539 280.292 49.1968 279.116 49.1591 277.908C49.1214 276.699 49.4044 275.503 49.9793 274.44C50.5543 273.376 51.4007 272.485 52.4323 271.855C50.797 273.024 50.9234 274.746 52.8036 275.805L155.109 334.873C156.239 335.479 157.508 335.782 158.79 335.75V335.75Z" fill="#263238"/>
<path d="M45.7254 271.76C44.709 271.069 43.8697 270.148 43.2754 269.072C42.6812 267.996 42.3486 266.795 42.3047 265.566V143.472C42.3741 142.206 42.7406 140.974 43.3747 139.876C44.0088 138.778 44.8926 137.845 45.9545 137.152L197.563 49.6278C198.654 49.0476 199.867 48.733 201.102 48.7097C202.338 48.6863 203.561 48.9549 204.673 49.4935C205.688 50.1862 206.527 51.1074 207.121 52.1832C207.715 53.2589 208.048 54.459 208.094 55.6871V177.75C208.025 179.016 207.659 180.248 207.025 181.346C206.391 182.444 205.507 183.378 204.444 184.07L52.8038 271.618C51.7177 272.195 50.5111 272.508 49.2815 272.533C48.052 272.557 46.8338 272.293 45.7254 271.76V271.76Z" fill="#455A64"/>
<path d="M52.3772 271.839C51.3283 272.308 50.1897 272.542 49.0408 272.526C47.892 272.51 46.7605 272.243 45.7254 271.744C44.709 271.053 43.8697 270.132 43.2754 269.056C42.6812 267.98 42.3486 266.779 42.3047 265.551V143.472C42.345 142.201 42.7153 140.962 43.3791 139.877L50.2205 143.827C49.5669 144.913 49.1999 146.147 49.154 147.414V269.509C49.154 271.665 50.5602 272.637 52.3772 271.839Z" fill="#263238"/>
<path d="M49.1538 147.43V269.508C49.1538 271.878 50.7891 272.779 52.8036 271.618L204.413 184.07C205.475 183.378 206.359 182.444 206.993 181.346C207.627 180.248 207.994 179.016 208.062 177.75V55.687C208.062 53.3644 206.435 52.4164 204.413 53.5856L52.8036 141.102C51.7416 141.796 50.8578 142.731 50.2238 143.83C49.5897 144.93 49.2232 146.163 49.1538 147.43Z" fill="#37474F"/>
<path d="M52.8038 275.829L155.101 334.897C156.234 335.47 157.485 335.768 158.755 335.768C160.024 335.768 161.276 335.47 162.408 334.897L314.017 247.373C316.032 246.204 316.032 244.315 314.017 243.154L211.72 184.07C210.589 183.494 209.337 183.193 208.066 183.193C206.796 183.193 205.544 183.494 204.413 184.07L52.8038 271.618C50.7893 272.779 50.7893 274.667 52.8038 275.829Z" fill="#455A64"/>
<path d="M54.7709 145.794L201.355 61.1854C202.564 60.4902 203.552 61.059 203.552 62.4573V175.088C203.509 175.848 203.289 176.587 202.907 177.246C202.525 177.905 201.994 178.465 201.355 178.88L54.7709 263.489C53.5622 264.184 52.5747 263.615 52.5747 262.217V149.586C52.6169 148.826 52.8378 148.087 53.2194 147.428C53.6009 146.769 54.1325 146.209 54.7709 145.794Z" fill="#EA6767"/>
<path opacity="0.4" d="M54.7709 145.794L201.355 61.1854C202.564 60.4902 203.552 61.059 203.552 62.4573V175.088C203.509 175.848 203.289 176.587 202.907 177.246C202.525 177.905 201.994 178.465 201.355 178.88L54.7709 263.489C53.5622 264.184 52.5747 263.615 52.5747 262.217V149.586C52.6169 148.826 52.8378 148.087 53.2194 147.428C53.6009 146.769 54.1325 146.209 54.7709 145.794Z" fill="black"/>
<path d="M64.6773 272.668L206.245 190.951C206.81 190.662 207.436 190.512 208.07 190.512C208.705 190.512 209.33 190.662 209.895 190.951L216.539 194.782C217.542 195.367 217.542 196.307 216.539 196.892L74.9552 278.601C74.3901 278.89 73.7647 279.04 73.1303 279.04C72.4958 279.04 71.8704 278.89 71.3054 278.601L64.6773 274.778C63.674 274.193 63.674 273.253 64.6773 272.668Z" fill="#37474F"/>
<path d="M81.8048 282.559L223.365 200.834C223.93 200.545 224.555 200.395 225.19 200.395C225.824 200.395 226.45 200.545 227.015 200.834L267.889 224.431C268.9 225.016 268.9 225.964 267.889 226.54L126.479 308.163C125.912 308.449 125.286 308.598 124.65 308.598C124.015 308.598 123.389 308.449 122.822 308.163L81.8127 284.661C80.8015 284.084 80.7936 283.136 81.8048 282.559Z" fill="#263238"/>
<path d="M206.19 235.586L210.646 233.01C210.835 232.9 210.843 232.726 210.646 232.615L205.969 229.89C205.863 229.839 205.747 229.813 205.629 229.813C205.512 229.813 205.396 229.839 205.29 229.89L200.826 232.465C200.644 232.576 200.637 232.75 200.826 232.852L205.566 235.57C205.664 235.615 205.769 235.64 205.877 235.642C205.984 235.645 206.091 235.626 206.19 235.586ZM198.551 226.027L194.095 228.602C194.055 228.616 194.021 228.643 193.996 228.677C193.972 228.712 193.959 228.753 193.959 228.796C193.959 228.838 193.972 228.88 193.996 228.914C194.021 228.949 194.055 228.975 194.095 228.989L198.835 231.707C198.941 231.757 199.058 231.784 199.175 231.784C199.293 231.784 199.409 231.757 199.515 231.707L203.978 229.132C204.021 229.119 204.059 229.093 204.086 229.058C204.113 229.022 204.127 228.979 204.127 228.934C204.127 228.889 204.113 228.846 204.086 228.81C204.059 228.775 204.021 228.749 203.978 228.737L199.238 226.019C199.133 225.971 199.018 225.947 198.902 225.948C198.786 225.949 198.671 225.976 198.567 226.027H198.551ZM184.149 234.338L176.613 238.691C176.423 238.801 176.415 238.983 176.613 239.086L181.353 241.803C181.459 241.854 181.575 241.88 181.692 241.88C181.81 241.88 181.926 241.854 182.032 241.803L189.577 237.45C189.766 237.34 189.766 237.166 189.577 237.055L184.837 234.346C184.733 234.291 184.619 234.262 184.502 234.26C184.385 234.259 184.27 234.286 184.165 234.338H184.149ZM192.049 229.787L187.586 232.363C187.396 232.473 187.396 232.647 187.586 232.75L192.326 235.467C192.432 235.518 192.548 235.544 192.665 235.544C192.783 235.544 192.899 235.518 193.005 235.467L197.461 232.892C197.65 232.781 197.65 232.608 197.461 232.497L192.721 229.779C192.617 229.729 192.503 229.704 192.388 229.705C192.273 229.706 192.16 229.735 192.057 229.787H192.049ZM174.59 239.883L170.135 242.451C169.945 242.562 169.945 242.743 170.135 242.846L174.875 245.564C174.981 245.614 175.097 245.64 175.214 245.64C175.332 245.64 175.448 245.614 175.554 245.564L180.01 242.996C180.199 242.885 180.199 242.712 180.01 242.601L175.27 239.883C175.164 239.833 175.047 239.807 174.93 239.807C174.812 239.807 174.696 239.833 174.59 239.883V239.883ZM168.081 243.644L163.617 246.219C163.577 246.233 163.543 246.26 163.518 246.294C163.494 246.329 163.481 246.37 163.481 246.413C163.481 246.455 163.494 246.497 163.518 246.531C163.543 246.566 163.577 246.592 163.617 246.606L168.27 249.324C168.375 249.379 168.492 249.407 168.61 249.407C168.728 249.407 168.845 249.379 168.95 249.324L173.405 246.756C173.595 246.646 173.595 246.472 173.405 246.361L168.705 243.644C168.603 243.598 168.493 243.574 168.381 243.574C168.269 243.574 168.159 243.598 168.057 243.644H168.081ZM186.551 254.704L191.006 252.128C191.196 252.018 191.196 251.844 191.006 251.741L186.306 249.024C186.2 248.973 186.084 248.947 185.966 248.947C185.849 248.947 185.733 248.973 185.627 249.024L181.163 251.599C181.12 251.611 181.082 251.637 181.055 251.673C181.029 251.709 181.014 251.752 181.014 251.797C181.014 251.841 181.029 251.885 181.055 251.92C181.082 251.956 181.12 251.982 181.163 251.994L185.864 254.712C185.968 254.759 186.082 254.782 186.196 254.781C186.311 254.78 186.424 254.753 186.527 254.704H186.551ZM180.033 258.464L184.497 255.889C184.686 255.778 184.686 255.604 184.497 255.502L179.773 252.8C179.667 252.749 179.55 252.723 179.433 252.723C179.315 252.723 179.199 252.749 179.093 252.8L174.638 255.375C174.448 255.486 174.448 255.66 174.638 255.77L179.338 258.488C179.445 258.534 179.56 258.555 179.677 258.551C179.793 258.547 179.906 258.517 180.01 258.464H180.033ZM173.524 262.225L177.979 259.649C178.019 259.635 178.054 259.609 178.078 259.574C178.103 259.54 178.116 259.498 178.116 259.456C178.116 259.413 178.103 259.372 178.078 259.337C178.054 259.303 178.019 259.276 177.979 259.262L173.239 256.545C173.134 256.49 173.018 256.461 172.9 256.461C172.781 256.461 172.665 256.49 172.56 256.545L168.12 259.12C167.931 259.231 167.931 259.404 168.12 259.515L172.86 262.233C172.961 262.276 173.071 262.298 173.181 262.296C173.291 262.295 173.4 262.271 173.5 262.225H173.524ZM167.006 265.985L171.462 263.41C171.651 263.307 171.659 263.125 171.462 263.023L166.722 260.305C166.616 260.254 166.5 260.228 166.382 260.228C166.265 260.228 166.149 260.254 166.042 260.305L161.587 262.872C161.397 262.983 161.389 263.157 161.587 263.267L166.287 265.985C166.396 266.038 166.514 266.066 166.635 266.066C166.755 266.066 166.874 266.038 166.983 265.985H167.006ZM199.689 239.37L204.152 236.795C204.195 236.782 204.233 236.756 204.26 236.721C204.286 236.685 204.301 236.642 204.301 236.597C204.301 236.552 204.286 236.509 204.26 236.473C204.233 236.438 204.195 236.412 204.152 236.4L199.412 233.69C199.307 233.635 199.191 233.607 199.072 233.607C198.954 233.607 198.838 233.635 198.733 233.69L194.34 236.21C194.151 236.321 194.151 236.494 194.34 236.597L199.041 239.315C199.139 239.369 199.247 239.403 199.359 239.412C199.47 239.422 199.583 239.407 199.689 239.37V239.37ZM193.045 250.967L202.983 245.224C203.172 245.113 203.172 244.939 202.983 244.837L191.559 238.24C191.453 238.19 191.337 238.164 191.22 238.164C191.102 238.164 190.986 238.19 190.88 238.24L185.737 241.211C185.548 241.321 185.548 241.495 185.737 241.606L191.789 245.097C191.829 245.112 191.863 245.138 191.888 245.173C191.912 245.207 191.925 245.249 191.925 245.291C191.925 245.333 191.912 245.375 191.888 245.409C191.863 245.444 191.829 245.47 191.789 245.485L187.673 247.855C187.483 247.965 187.483 248.139 187.673 248.25L192.413 250.959C192.513 251.004 192.621 251.026 192.73 251.023C192.84 251.02 192.947 250.993 193.045 250.943V250.967ZM161.539 247.428L157.084 250.003C157.044 250.018 157.009 250.044 156.985 250.078C156.96 250.113 156.947 250.154 156.947 250.197C156.947 250.239 156.96 250.281 156.985 250.315C157.009 250.35 157.044 250.376 157.084 250.39L161.784 253.108C161.89 253.159 162.007 253.185 162.124 253.185C162.242 253.185 162.358 253.159 162.464 253.108L166.927 250.533C166.97 250.52 167.008 250.495 167.035 250.459C167.062 250.423 167.076 250.38 167.076 250.335C167.076 250.291 167.062 250.247 167.035 250.211C167.008 250.176 166.97 250.15 166.927 250.138L162.227 247.42C162.121 247.366 162.004 247.336 161.885 247.333C161.766 247.331 161.648 247.355 161.539 247.404V247.428ZM155.03 251.188L150.566 253.764C150.377 253.874 150.377 254.048 150.566 254.151L155.306 256.868C155.412 256.919 155.529 256.945 155.646 256.945C155.764 256.945 155.88 256.919 155.986 256.868L160.441 254.293C160.631 254.182 160.631 254.009 160.441 253.898L155.701 251.18C155.599 251.125 155.484 251.095 155.367 251.092C155.251 251.09 155.135 251.114 155.03 251.165V251.188ZM120.704 292.3C120.81 292.351 120.927 292.377 121.044 292.377C121.162 292.377 121.278 292.351 121.384 292.3L125.839 289.725C126.029 289.614 126.037 289.44 125.839 289.33L121.099 286.62C120.994 286.565 120.878 286.537 120.76 286.537C120.641 286.537 120.525 286.565 120.42 286.62L115.964 289.195C115.775 289.306 115.767 289.48 115.964 289.582L120.704 292.3ZM102.914 281.24L98.458 283.807C98.2684 283.918 98.2605 284.092 98.458 284.202L103.158 286.92C103.265 286.971 103.381 286.997 103.498 286.997C103.616 286.997 103.732 286.971 103.838 286.92L108.293 284.345C108.483 284.242 108.491 284.06 108.293 283.958L103.553 281.24C103.454 281.192 103.344 281.167 103.234 281.167C103.123 281.167 103.013 281.192 102.914 281.24V281.24ZM112.275 289.409C112.38 289.463 112.496 289.492 112.615 289.492C112.733 289.492 112.85 289.463 112.954 289.409L117.41 286.833C117.6 286.723 117.6 286.549 117.41 286.446L112.67 283.728C112.565 283.674 112.449 283.645 112.33 283.645C112.212 283.645 112.096 283.674 111.991 283.728L107.535 286.304C107.345 286.414 107.345 286.588 107.535 286.699L112.275 289.409ZM131.535 294.196L135.991 291.621C136.031 291.606 136.065 291.58 136.09 291.545C136.114 291.511 136.128 291.469 136.128 291.427C136.128 291.385 136.114 291.343 136.09 291.309C136.065 291.274 136.031 291.248 135.991 291.233L131.251 288.516C131.145 288.465 131.029 288.439 130.911 288.439C130.794 288.439 130.678 288.465 130.571 288.516L126.116 291.083C125.926 291.194 125.926 291.368 126.116 291.478L130.856 294.196C130.961 294.249 131.076 294.278 131.194 294.281C131.311 294.283 131.428 294.26 131.535 294.212V294.196ZM124.338 297.964C124.444 298.015 124.561 298.041 124.678 298.041C124.796 298.041 124.912 298.015 125.018 297.964L129.473 295.389C129.663 295.286 129.671 295.104 129.473 295.002L124.82 292.3C124.714 292.249 124.598 292.223 124.481 292.223C124.363 292.223 124.247 292.249 124.141 292.3L119.685 294.867C119.496 294.978 119.488 295.152 119.685 295.262L124.338 297.964ZM109.431 277.472L104.968 280.047C104.925 280.059 104.887 280.085 104.86 280.121C104.833 280.157 104.819 280.2 104.819 280.245C104.819 280.289 104.833 280.333 104.86 280.368C104.887 280.404 104.925 280.43 104.968 280.442L109.668 283.16C109.774 283.21 109.89 283.236 110.008 283.236C110.125 283.236 110.241 283.21 110.347 283.16L114.803 280.584C114.993 280.474 114.993 280.3 114.803 280.197L110.063 277.48C109.964 277.434 109.855 277.412 109.746 277.413C109.637 277.414 109.529 277.44 109.431 277.487V277.472ZM141.995 258.67L137.539 261.245C137.35 261.356 137.35 261.529 137.539 261.632L142.279 264.35C142.384 264.404 142.501 264.433 142.619 264.433C142.737 264.433 142.854 264.404 142.959 264.35L147.414 261.774C147.604 261.664 147.604 261.49 147.414 261.379L142.674 258.67C142.568 258.617 142.451 258.592 142.333 258.594C142.214 258.597 142.098 258.628 141.995 258.685V258.67ZM115.925 273.68L111.469 276.255C111.28 276.366 111.28 276.539 111.469 276.65L116.17 279.36C116.275 279.414 116.391 279.443 116.509 279.443C116.628 279.443 116.744 279.414 116.849 279.36L121.313 276.784C121.502 276.674 121.502 276.5 121.313 276.397L116.612 273.68C116.504 273.638 116.387 273.62 116.271 273.628C116.155 273.636 116.042 273.67 115.941 273.727L115.925 273.68ZM148.52 254.925L144.057 257.54C143.867 257.651 143.859 257.824 144.057 257.927L148.757 260.645C148.862 260.699 148.979 260.728 149.097 260.728C149.215 260.728 149.332 260.699 149.437 260.645L153.892 258.069C154.082 257.959 154.09 257.785 153.892 257.674L149.152 254.965C149.057 254.911 148.95 254.88 148.841 254.873C148.731 254.866 148.622 254.884 148.52 254.925V254.925ZM135.493 262.446L131.038 265.021C130.848 265.132 130.84 265.306 131.038 265.416L135.778 268.126C135.882 268.181 135.999 268.209 136.117 268.209C136.236 268.209 136.352 268.181 136.457 268.126L140.913 265.551C141.102 265.44 141.11 265.266 140.913 265.156L136.212 262.446C136.101 262.383 135.976 262.35 135.849 262.35C135.721 262.35 135.596 262.383 135.485 262.446H135.493ZM128.968 266.23L124.512 268.805C124.323 268.916 124.323 269.09 124.512 269.2L129.252 271.91C129.357 271.965 129.474 271.993 129.592 271.993C129.71 271.993 129.827 271.965 129.932 271.91L134.387 269.335C134.577 269.224 134.577 269.05 134.387 268.948L129.647 266.23C129.542 266.175 129.426 266.147 129.307 266.147C129.189 266.147 129.073 266.175 128.968 266.23ZM122.45 269.967L118.003 272.55C117.813 272.661 117.805 272.834 118.003 272.945L122.703 275.655C122.808 275.709 122.924 275.738 123.043 275.738C123.161 275.738 123.278 275.709 123.382 275.655L127.838 273.079C128.028 272.969 128.036 272.795 127.838 272.692L123.138 269.975C123.031 269.922 122.914 269.893 122.795 269.892C122.676 269.891 122.558 269.916 122.45 269.967ZM153.948 273.506L158.403 270.938C158.593 270.828 158.601 270.654 158.403 270.543L153.718 267.81C153.612 267.759 153.496 267.733 153.379 267.733C153.261 267.733 153.145 267.759 153.039 267.81L148.583 270.377C148.394 270.488 148.386 270.662 148.583 270.772L153.323 273.49C153.422 273.536 153.529 273.561 153.638 273.564C153.747 273.567 153.855 273.547 153.955 273.506H153.948ZM212.961 217.716L208.505 220.284C208.315 220.394 208.307 220.568 208.505 220.679L213.205 223.396C213.312 223.447 213.428 223.473 213.545 223.473C213.663 223.473 213.779 223.447 213.885 223.396L218.34 220.821C218.53 220.718 218.538 220.536 218.34 220.434L213.64 217.716C213.536 217.663 213.421 217.635 213.304 217.635C213.187 217.635 213.072 217.663 212.968 217.716H212.961ZM205.061 222.266L200.66 224.842C200.62 224.856 200.586 224.882 200.561 224.917C200.537 224.952 200.524 224.993 200.524 225.035C200.524 225.078 200.537 225.119 200.561 225.154C200.586 225.189 200.62 225.215 200.66 225.229L205.361 227.947C205.467 227.997 205.583 228.023 205.7 228.023C205.818 228.023 205.934 227.997 206.04 227.947L210.496 225.379C210.685 225.268 210.685 225.095 210.496 224.984L205.756 222.266C205.651 222.217 205.536 222.192 205.42 222.192C205.304 222.192 205.189 222.217 205.084 222.266H205.061ZM219.454 213.948L214.999 216.523C214.809 216.634 214.809 216.808 214.999 216.918L219.739 219.636C219.845 219.686 219.961 219.713 220.078 219.713C220.196 219.713 220.312 219.686 220.418 219.636L224.874 217.06C225.063 216.95 225.063 216.776 224.874 216.673L220.134 213.956C220.031 213.907 219.92 213.882 219.807 213.88C219.694 213.879 219.582 213.902 219.478 213.948H219.454ZM184.607 248.06L189.063 245.485C189.103 245.47 189.138 245.444 189.162 245.409C189.187 245.375 189.2 245.333 189.2 245.291C189.2 245.249 189.187 245.207 189.162 245.173C189.138 245.138 189.103 245.112 189.063 245.097L184.323 242.38C184.217 242.329 184.101 242.303 183.983 242.303C183.866 242.303 183.75 242.329 183.644 242.38L179.18 244.955C179.137 244.968 179.099 244.993 179.073 245.029C179.046 245.065 179.031 245.108 179.031 245.153C179.031 245.197 179.046 245.241 179.073 245.276C179.099 245.312 179.137 245.338 179.18 245.35L183.881 248.068C183.994 248.125 184.119 248.154 184.245 248.152C184.371 248.151 184.496 248.119 184.607 248.06ZM226.675 210.195C226.569 210.145 226.453 210.119 226.335 210.119C226.218 210.119 226.102 210.145 225.996 210.195L221.54 212.771C221.35 212.881 221.342 213.055 221.54 213.166L226.24 215.883C226.347 215.934 226.463 215.96 226.58 215.96C226.698 215.96 226.814 215.934 226.92 215.883L231.375 213.308C231.565 213.197 231.573 213.023 231.375 212.921L226.675 210.195ZM160.473 269.753L164.929 267.186C165.118 267.075 165.118 266.894 164.929 266.791L160.189 264.073C160.082 264.023 159.966 263.996 159.849 263.996C159.731 263.996 159.615 264.023 159.509 264.073L155.054 266.641C154.864 266.751 154.864 266.925 155.054 267.036L159.794 269.753C159.9 269.803 160.017 269.828 160.134 269.826C160.252 269.825 160.367 269.797 160.473 269.745V269.753ZM240.35 223.633L244.813 221.058C244.853 221.044 244.888 221.017 244.912 220.983C244.937 220.948 244.95 220.907 244.95 220.864C244.95 220.822 244.937 220.78 244.912 220.746C244.888 220.711 244.853 220.685 244.813 220.671L240.073 217.953C239.967 217.903 239.851 217.876 239.734 217.876C239.616 217.876 239.5 217.903 239.394 217.953L234.938 220.521C234.749 220.631 234.749 220.805 234.938 220.916L239.678 223.633C239.783 223.685 239.898 223.711 240.015 223.709C240.132 223.708 240.246 223.679 240.35 223.625V223.633ZM227.117 223.515L231.581 220.939C231.621 220.925 231.655 220.899 231.68 220.864C231.704 220.83 231.717 220.788 231.717 220.746C231.717 220.703 231.704 220.662 231.68 220.627C231.655 220.593 231.621 220.566 231.581 220.552L226.88 217.835C226.774 217.784 226.658 217.758 226.541 217.758C226.423 217.758 226.307 217.784 226.201 217.835L221.745 220.41C221.556 220.521 221.548 220.694 221.745 220.805L226.446 223.523C226.552 223.569 226.667 223.592 226.783 223.59C226.899 223.587 227.013 223.559 227.117 223.507V223.515ZM233.39 214.09C233.286 214.037 233.171 214.01 233.054 214.01C232.938 214.01 232.822 214.037 232.718 214.09L228.255 216.665C228.212 216.678 228.174 216.704 228.147 216.739C228.121 216.775 228.106 216.818 228.106 216.863C228.106 216.908 228.121 216.951 228.147 216.987C228.174 217.022 228.212 217.048 228.255 217.06L232.955 219.778C233.062 219.829 233.178 219.855 233.295 219.855C233.413 219.855 233.529 219.829 233.635 219.778L238.09 217.203C238.13 217.188 238.165 217.162 238.189 217.127C238.214 217.093 238.227 217.051 238.227 217.009C238.227 216.967 238.214 216.925 238.189 216.891C238.165 216.856 238.13 216.83 238.09 216.815L233.39 214.09ZM234.765 213.3L246.188 219.896C246.294 219.947 246.41 219.973 246.528 219.973C246.645 219.973 246.761 219.947 246.867 219.896L251.323 217.321C251.513 217.218 251.52 217.037 251.323 216.934L239.9 210.337C239.793 210.287 239.677 210.261 239.56 210.261C239.442 210.261 239.326 210.287 239.22 210.337L234.765 212.913C234.583 212.992 234.583 213.166 234.765 213.3ZM219.683 221.595L215.228 224.162C215.038 224.273 215.038 224.447 215.228 224.557L219.968 227.275C220.074 227.326 220.19 227.352 220.308 227.352C220.425 227.352 220.541 227.326 220.647 227.275L225.103 224.708C225.292 224.597 225.292 224.415 225.103 224.313L220.363 221.595C220.257 221.544 220.141 221.518 220.023 221.518C219.906 221.518 219.79 221.544 219.683 221.595V221.595ZM170.64 249.901L166.185 252.468C165.995 252.579 165.995 252.753 166.185 252.863L170.925 255.581C171.031 255.631 171.147 255.658 171.264 255.658C171.382 255.658 171.498 255.631 171.604 255.581L176.06 253.013C176.249 252.903 176.249 252.721 176.06 252.618L171.32 249.901C171.214 249.85 171.097 249.824 170.98 249.824C170.862 249.824 170.746 249.85 170.64 249.901V249.901ZM233.145 227.394C233.251 227.444 233.367 227.47 233.485 227.47C233.602 227.47 233.718 227.444 233.824 227.394L238.28 224.826C238.47 224.715 238.47 224.534 238.28 224.431L233.58 221.713C233.473 221.663 233.357 221.637 233.24 221.637C233.122 221.637 233.006 221.663 232.9 221.713L228.437 224.281C228.394 224.293 228.356 224.319 228.329 224.355C228.302 224.39 228.288 224.434 228.288 224.478C228.288 224.523 228.302 224.567 228.329 224.602C228.356 224.638 228.394 224.664 228.437 224.676L233.145 227.394ZM177.158 246.14L172.702 248.708C172.513 248.818 172.513 248.992 172.702 249.103L177.403 251.82C177.509 251.871 177.625 251.897 177.742 251.897C177.86 251.897 177.976 251.871 178.082 251.82L182.546 249.245C182.586 249.231 182.62 249.205 182.645 249.17C182.669 249.135 182.682 249.094 182.682 249.051C182.682 249.009 182.669 248.968 182.645 248.933C182.62 248.898 182.586 248.872 182.546 248.858L177.806 246.14C177.707 246.093 177.599 246.069 177.49 246.069C177.38 246.069 177.272 246.093 177.174 246.14H177.158ZM127.19 288.555C127.296 288.606 127.412 288.632 127.53 288.632C127.647 288.632 127.764 288.606 127.87 288.555L132.325 285.98C132.515 285.869 132.515 285.696 132.325 285.585L127.585 282.867C127.481 282.815 127.366 282.787 127.25 282.787C127.133 282.787 127.018 282.815 126.914 282.867L122.45 285.443C122.261 285.553 122.261 285.727 122.45 285.83L127.19 288.555ZM118.5 279.984L114.045 282.559C113.855 282.67 113.847 282.844 114.045 282.946L118.785 285.664C118.89 285.719 119.006 285.747 119.124 285.747C119.243 285.747 119.359 285.719 119.464 285.664L123.92 283.089C124.109 282.978 124.117 282.804 123.92 282.694L119.18 279.984C119.081 279.937 118.973 279.912 118.864 279.912C118.754 279.912 118.646 279.937 118.548 279.984H118.5ZM134.363 284.787L138.827 282.22C138.87 282.207 138.908 282.181 138.935 282.146C138.961 282.11 138.976 282.067 138.976 282.022C138.976 281.977 138.961 281.934 138.935 281.898C138.908 281.863 138.87 281.837 138.827 281.825L134.126 279.107C134.02 279.056 133.904 279.03 133.787 279.03C133.669 279.03 133.553 279.056 133.447 279.107L128.991 281.682C128.951 281.697 128.917 281.723 128.892 281.757C128.868 281.792 128.855 281.833 128.855 281.876C128.855 281.918 128.868 281.96 128.892 281.994C128.917 282.029 128.951 282.055 128.991 282.069L133.692 284.787C133.802 284.849 133.926 284.881 134.051 284.881C134.177 284.881 134.301 284.849 134.411 284.787H134.363ZM140.881 281.027L145.337 278.459C145.526 278.349 145.534 278.175 145.337 278.064L140.636 275.347C140.53 275.296 140.414 275.27 140.296 275.27C140.179 275.27 140.063 275.296 139.957 275.347L135.493 277.922C135.453 277.936 135.419 277.962 135.394 277.997C135.37 278.032 135.357 278.073 135.357 278.116C135.357 278.158 135.37 278.199 135.394 278.234C135.419 278.269 135.453 278.295 135.493 278.309L140.194 281.027C140.305 281.091 140.432 281.125 140.561 281.125C140.69 281.125 140.817 281.091 140.928 281.027H140.881ZM147.398 277.266L151.854 274.699C152.044 274.588 152.044 274.414 151.854 274.304L147.114 271.586C147.008 271.536 146.892 271.509 146.774 271.509C146.657 271.509 146.541 271.536 146.435 271.586L142.066 274.13C141.876 274.241 141.876 274.422 142.066 274.525L146.806 277.243C146.903 277.295 147.011 277.326 147.121 277.334C147.231 277.342 147.342 277.327 147.446 277.29L147.398 277.266ZM125.01 276.223L120.554 278.799C120.365 278.909 120.365 279.083 120.554 279.186L125.294 281.904C125.399 281.958 125.516 281.987 125.634 281.987C125.752 281.987 125.869 281.958 125.974 281.904L130.429 279.328C130.619 279.218 130.619 279.044 130.429 278.933L125.689 276.223C125.591 276.176 125.483 276.152 125.373 276.152C125.264 276.152 125.156 276.176 125.057 276.223H125.01ZM131.527 272.463L127.072 275.038C126.882 275.149 126.874 275.323 127.072 275.426L131.772 278.143C131.878 278.194 131.994 278.22 132.112 278.22C132.229 278.22 132.346 278.194 132.452 278.143L136.915 275.568C137.097 275.457 137.105 275.283 136.915 275.173L132.175 272.463C132.081 272.421 131.978 272.399 131.875 272.399C131.771 272.399 131.669 272.421 131.575 272.463H131.527ZM157.597 257.453L153.142 260.021C152.952 260.131 152.952 260.313 153.142 260.416L157.882 263.133C157.988 263.184 158.104 263.21 158.221 263.21C158.339 263.21 158.455 263.184 158.561 263.133L163.017 260.566C163.206 260.455 163.206 260.281 163.017 260.171L158.277 257.453C158.177 257.402 158.068 257.373 157.956 257.368C157.845 257.362 157.733 257.381 157.629 257.421L157.597 257.453ZM151.088 261.213L146.632 263.789C146.443 263.892 146.435 264.073 146.632 264.176L151.372 266.894C151.477 266.948 151.594 266.977 151.712 266.977C151.83 266.977 151.947 266.948 152.052 266.894L156.507 264.326C156.697 264.215 156.705 264.042 156.507 263.931L151.807 261.213C151.702 261.157 151.586 261.124 151.467 261.119C151.348 261.113 151.229 261.135 151.119 261.182L151.088 261.213ZM164.115 253.693L159.659 256.26C159.47 256.371 159.462 256.545 159.659 256.655L164.399 259.373C164.505 259.423 164.621 259.45 164.739 259.45C164.856 259.45 164.973 259.423 165.079 259.373L169.534 256.805C169.724 256.695 169.732 256.521 169.534 256.41L164.794 253.693C164.695 253.642 164.585 253.613 164.474 253.607C164.362 253.602 164.251 253.62 164.146 253.661L164.115 253.693ZM138.045 268.703L133.581 271.278C133.392 271.389 133.392 271.562 133.581 271.665L138.282 274.383C138.388 274.433 138.504 274.46 138.622 274.46C138.739 274.46 138.855 274.433 138.961 274.383L143.417 271.807C143.606 271.697 143.606 271.523 143.417 271.412L138.677 268.695C138.488 268.623 138.279 268.625 138.092 268.703H138.045ZM144.554 264.942L140.099 267.518C140.059 267.532 140.024 267.558 140 267.593C139.975 267.627 139.962 267.669 139.962 267.711C139.962 267.754 139.975 267.795 140 267.83C140.024 267.864 140.059 267.891 140.099 267.905L144.839 270.622C144.943 270.675 145.058 270.703 145.175 270.703C145.291 270.703 145.406 270.675 145.51 270.622L149.974 268.047C150.163 267.936 150.163 267.763 149.974 267.652L145.234 264.934C145.129 264.887 145.016 264.864 144.901 264.865C144.787 264.867 144.674 264.893 144.57 264.942H144.554ZM137.997 290.451L142.461 287.876C142.501 287.862 142.536 287.836 142.56 287.801C142.584 287.766 142.598 287.725 142.598 287.682C142.598 287.64 142.584 287.599 142.56 287.564C142.536 287.529 142.501 287.503 142.461 287.489L137.76 284.771C137.656 284.717 137.539 284.688 137.421 284.688C137.302 284.688 137.186 284.717 137.081 284.771L132.625 287.339C132.436 287.449 132.436 287.623 132.625 287.734L137.326 290.451C137.437 290.508 137.56 290.538 137.685 290.538C137.81 290.538 137.934 290.508 138.045 290.451H137.997ZM101.736 287.726L96.9965 285.008C96.8903 284.958 96.7743 284.931 96.6568 284.931C96.5392 284.931 96.4232 284.958 96.3171 285.008L91.9405 287.56C91.7509 287.671 91.7509 287.844 91.9405 287.955L96.6805 290.673C96.7866 290.723 96.9026 290.749 97.0202 290.749C97.1377 290.749 97.2537 290.723 97.3599 290.673L101.815 288.097C101.849 288.078 101.877 288.049 101.895 288.014C101.914 287.98 101.921 287.94 101.918 287.901C101.915 287.862 101.9 287.825 101.877 287.794C101.853 287.763 101.821 287.739 101.784 287.726H101.736ZM110.853 290.222L106.153 287.505C106.048 287.45 105.931 287.421 105.813 287.421C105.695 287.421 105.578 287.45 105.473 287.505L98.616 291.455C98.4264 291.565 98.4185 291.739 98.616 291.85L103.356 294.567C103.462 294.618 103.578 294.644 103.696 294.644C103.813 294.644 103.929 294.618 104.035 294.567L110.893 290.617C111.082 290.499 111.09 290.325 110.9 290.222H110.853ZM94.6107 282.425L89.8707 279.707C89.7645 279.657 89.6485 279.631 89.531 279.631C89.4134 279.631 89.2974 279.657 89.1913 279.707L83.7087 282.867C83.5191 282.978 83.5112 283.152 83.7087 283.262L88.4487 285.98C88.5548 286.031 88.6708 286.057 88.7884 286.057C88.9059 286.057 89.0219 286.031 89.1281 285.98L94.6581 282.82C94.8398 282.701 94.8398 282.528 94.6581 282.425H94.6107ZM98.8135 279.992C98.9183 280.046 99.0349 280.075 99.1532 280.075C99.2714 280.075 99.388 280.046 99.4929 279.992L103.948 277.416C104.138 277.306 104.138 277.132 103.948 277.021L99.2085 274.312C99.105 274.257 98.9897 274.228 98.8727 274.228C98.7557 274.228 98.6404 274.257 98.537 274.312L94.0735 276.887C93.8839 276.998 93.8839 277.171 94.0735 277.274L98.8135 279.992ZM119.338 293.09L114.598 290.38C114.493 290.326 114.376 290.297 114.258 290.297C114.14 290.297 114.023 290.326 113.918 290.38L105.347 295.326C105.157 295.436 105.157 295.618 105.347 295.721L110.087 298.438C110.193 298.489 110.309 298.515 110.426 298.515C110.544 298.515 110.66 298.489 110.766 298.438L119.338 293.493C119.519 293.39 119.519 293.216 119.338 293.09ZM122.972 298.754L118.232 296.037C118.126 295.986 118.009 295.96 117.892 295.96C117.774 295.96 117.658 295.986 117.552 296.037L112.07 299.197C112.03 299.211 111.995 299.237 111.971 299.272C111.946 299.306 111.933 299.348 111.933 299.39C111.933 299.433 111.946 299.474 111.971 299.509C111.995 299.543 112.03 299.57 112.07 299.584L116.81 302.301C116.915 302.356 117.031 302.385 117.149 302.385C117.268 302.385 117.384 302.356 117.489 302.301L122.972 299.141C123.153 299.054 123.153 298.881 122.972 298.77V298.754ZM147.296 252.01C147.402 252.061 147.518 252.087 147.635 252.087C147.753 252.087 147.869 252.061 147.975 252.01L152.431 249.435C152.471 249.42 152.505 249.394 152.53 249.359C152.554 249.325 152.567 249.283 152.567 249.241C152.567 249.199 152.554 249.157 152.53 249.123C152.505 249.088 152.471 249.062 152.431 249.047L147.691 246.33C147.585 246.279 147.469 246.253 147.351 246.253C147.234 246.253 147.117 246.279 147.011 246.33L142.556 248.897C142.366 249.008 142.366 249.182 142.556 249.292L147.296 252.01ZM134.3 259.554C134.404 259.607 134.519 259.635 134.636 259.635C134.753 259.635 134.868 259.607 134.972 259.554L139.435 256.987C139.478 256.975 139.516 256.949 139.543 256.913C139.57 256.878 139.584 256.834 139.584 256.789C139.584 256.745 139.57 256.701 139.543 256.666C139.516 256.63 139.478 256.604 139.435 256.592L134.695 253.874C134.589 253.824 134.473 253.798 134.356 253.798C134.238 253.798 134.122 253.824 134.016 253.874L129.56 256.442C129.371 256.552 129.371 256.726 129.56 256.837L134.3 259.554ZM105.402 276.231C105.507 276.286 105.623 276.315 105.742 276.315C105.86 276.315 105.977 276.286 106.081 276.231L110.545 273.656C110.588 273.644 110.626 273.618 110.653 273.582C110.679 273.547 110.694 273.503 110.694 273.458C110.694 273.414 110.679 273.37 110.653 273.335C110.626 273.299 110.588 273.273 110.545 273.261L105.844 270.551C105.74 270.497 105.623 270.468 105.505 270.468C105.386 270.468 105.27 270.497 105.165 270.551L100.709 273.127C100.52 273.237 100.52 273.411 100.709 273.514L105.402 276.231ZM140.81 255.794C140.916 255.845 141.032 255.871 141.15 255.871C141.267 255.871 141.383 255.845 141.489 255.794L145.945 253.227C146.134 253.116 146.142 252.934 145.945 252.832L141.205 250.114C141.099 250.063 140.983 250.037 140.865 250.037C140.748 250.037 140.632 250.063 140.525 250.114L136.07 252.681C135.88 252.792 135.872 252.966 136.07 253.076L140.81 255.794ZM127.783 263.315C127.889 263.365 128.005 263.392 128.122 263.392C128.24 263.392 128.356 263.365 128.462 263.315L132.918 260.747C133.107 260.637 133.107 260.463 132.918 260.352L128.217 257.635C128.111 257.584 127.995 257.558 127.878 257.558C127.76 257.558 127.644 257.584 127.538 257.635L123.074 260.21C123.034 260.224 123 260.251 122.975 260.285C122.951 260.32 122.938 260.361 122.938 260.404C122.938 260.446 122.951 260.488 122.975 260.522C123 260.557 123.034 260.583 123.074 260.597L127.783 263.315ZM126.4 299.141C126.294 299.091 126.178 299.065 126.061 299.065C125.943 299.065 125.827 299.091 125.721 299.141L118.864 303.091C118.674 303.202 118.666 303.376 118.864 303.478L123.564 306.196C123.67 306.247 123.786 306.273 123.904 306.273C124.021 306.273 124.137 306.247 124.244 306.196L131.101 302.246C131.141 302.232 131.175 302.206 131.2 302.171C131.224 302.136 131.237 302.095 131.237 302.053C131.237 302.01 131.224 301.969 131.2 301.934C131.175 301.899 131.141 301.873 131.101 301.859L126.4 299.141ZM118.445 268.711C118.551 268.761 118.667 268.787 118.785 268.787C118.902 268.787 119.018 268.761 119.124 268.711L123.58 266.135C123.77 266.025 123.77 265.851 123.58 265.74L118.84 263.023C118.734 262.972 118.618 262.946 118.5 262.946C118.383 262.946 118.267 262.972 118.161 263.023L113.705 265.598C113.515 265.709 113.515 265.882 113.705 265.985L118.445 268.711ZM111.927 272.471C112.032 272.526 112.149 272.554 112.267 272.554C112.385 272.554 112.502 272.526 112.607 272.471L117.062 269.896C117.252 269.785 117.26 269.611 117.062 269.501L112.362 266.791C112.257 266.736 112.141 266.708 112.022 266.708C111.904 266.708 111.787 266.736 111.683 266.791L107.187 269.39C107.006 269.501 106.998 269.674 107.187 269.777L111.927 272.471ZM247.081 229.463C246.975 229.413 246.858 229.387 246.741 229.387C246.623 229.387 246.507 229.413 246.401 229.463L235.428 235.783C235.388 235.798 235.354 235.824 235.329 235.858C235.305 235.893 235.292 235.934 235.292 235.977C235.292 236.019 235.305 236.061 235.329 236.095C235.354 236.13 235.388 236.156 235.428 236.17L240.168 238.888C240.273 238.943 240.39 238.971 240.508 238.971C240.626 238.971 240.743 238.943 240.848 238.888L251.813 232.568C252.002 232.457 252.01 232.284 251.813 232.173L247.081 229.463ZM232.639 237.79C232.535 237.735 232.418 237.707 232.3 237.707C232.181 237.707 232.065 237.735 231.96 237.79L227.52 240.357C227.331 240.468 227.331 240.642 227.52 240.752L232.221 243.462C232.326 243.517 232.442 243.545 232.56 243.545C232.679 243.545 232.795 243.517 232.9 243.462L237.364 240.887C237.407 240.875 237.444 240.849 237.471 240.813C237.498 240.777 237.513 240.734 237.513 240.689C237.513 240.645 237.498 240.601 237.471 240.566C237.444 240.53 237.407 240.504 237.364 240.492L232.639 237.79ZM144.57 286.691L149.026 284.116C149.215 284.005 149.223 283.831 149.026 283.728L144.325 281.011C144.219 280.96 144.103 280.934 143.986 280.934C143.868 280.934 143.752 280.96 143.646 281.011L139.182 283.61C139.001 283.721 138.993 283.894 139.182 284.005L143.883 286.723C143.992 286.769 144.111 286.791 144.23 286.786C144.349 286.78 144.465 286.748 144.57 286.691V286.691ZM219.62 245.303C219.514 245.252 219.398 245.226 219.281 245.226C219.163 245.226 219.047 245.252 218.941 245.303L214.485 247.878C214.296 247.989 214.288 248.163 214.485 248.273L219.186 250.983C219.291 251.038 219.407 251.066 219.525 251.066C219.644 251.066 219.76 251.038 219.865 250.983L224.321 248.408C224.51 248.297 224.518 248.123 224.321 248.02L219.62 245.303ZM253.59 225.703C253.484 225.652 253.368 225.626 253.251 225.626C253.133 225.626 253.017 225.652 252.911 225.703L248.416 228.31C248.376 228.324 248.341 228.35 248.317 228.385C248.292 228.42 248.279 228.461 248.279 228.504C248.279 228.546 248.292 228.587 248.317 228.622C248.341 228.657 248.376 228.683 248.416 228.697L253.156 231.415C253.262 231.465 253.378 231.491 253.495 231.491C253.613 231.491 253.729 231.465 253.835 231.415L258.291 228.847C258.48 228.737 258.48 228.563 258.291 228.452L253.59 225.703ZM264.808 224.66L253.345 218.04C253.239 217.989 253.123 217.963 253.006 217.963C252.888 217.963 252.772 217.989 252.666 218.04L248.21 220.607C248.021 220.718 248.021 220.892 248.21 221.002L259.634 227.599C259.74 227.65 259.856 227.676 259.973 227.676C260.091 227.676 260.207 227.65 260.313 227.599L264.769 225.031C264.95 224.945 264.958 224.771 264.769 224.66H264.808ZM195.288 259.357C195.183 259.302 195.067 259.274 194.949 259.274C194.83 259.274 194.714 259.302 194.609 259.357L189.118 262.517C188.929 262.628 188.929 262.801 189.118 262.912L193.858 265.63C193.964 265.68 194.081 265.706 194.198 265.706C194.316 265.706 194.432 265.68 194.538 265.63L200.02 262.47C200.21 262.359 200.218 262.185 200.02 262.082L195.288 259.357ZM211.744 249.877C211.638 249.826 211.522 249.8 211.404 249.8C211.287 249.8 211.171 249.826 211.065 249.877L204.207 253.827C204.018 253.938 204.01 254.111 204.207 254.214L208.947 256.932C209.053 256.982 209.17 257.008 209.287 257.008C209.405 257.008 209.521 256.982 209.627 256.932L216.484 252.982C216.674 252.879 216.681 252.697 216.484 252.595L211.744 249.877ZM180.199 268.086C180.093 268.036 179.977 268.01 179.86 268.01C179.742 268.01 179.626 268.036 179.52 268.086L142.84 289.266C142.651 289.377 142.643 289.551 142.84 289.653L147.541 292.371C147.646 292.426 147.762 292.454 147.88 292.454C147.999 292.454 148.115 292.426 148.22 292.371L184.86 271.175C184.903 271.163 184.941 271.137 184.968 271.102C184.995 271.066 185.009 271.023 185.009 270.978C185.009 270.933 184.995 270.89 184.968 270.854C184.941 270.819 184.903 270.793 184.86 270.78L180.199 268.086ZM141.489 290.459C141.384 290.405 141.268 290.376 141.15 290.376C141.031 290.376 140.915 290.405 140.81 290.459L135.327 293.619C135.138 293.73 135.13 293.904 135.327 294.014L140.067 296.724C140.172 296.779 140.289 296.807 140.407 296.807C140.525 296.807 140.642 296.779 140.747 296.724L146.277 293.564C146.32 293.552 146.357 293.526 146.384 293.49C146.411 293.455 146.426 293.411 146.426 293.366C146.426 293.322 146.411 293.278 146.384 293.243C146.357 293.207 146.32 293.181 146.277 293.169L141.489 290.459ZM187.775 263.734C187.67 263.679 187.554 263.65 187.436 263.65C187.317 263.65 187.201 263.679 187.096 263.734L181.613 266.894C181.424 267.004 181.416 267.178 181.613 267.289L186.353 270.006C186.459 270.057 186.576 270.083 186.693 270.083C186.811 270.083 186.927 270.057 187.033 270.006L192.515 266.846C192.705 266.743 192.713 266.562 192.515 266.459L187.775 263.734ZM133.945 294.812C133.839 294.762 133.723 294.735 133.605 294.735C133.488 294.735 133.371 294.762 133.265 294.812L127.783 297.972C127.593 298.083 127.593 298.257 127.783 298.367L132.523 301.085C132.627 301.138 132.742 301.165 132.859 301.165C132.975 301.165 133.09 301.138 133.194 301.085L138.685 297.925C138.874 297.814 138.874 297.64 138.685 297.538L133.945 294.812ZM202.856 255.028C202.752 254.973 202.635 254.945 202.517 254.945C202.398 254.945 202.282 254.973 202.177 255.028L196.694 258.188C196.505 258.298 196.505 258.472 196.694 258.583L201.434 261.292C201.539 261.347 201.656 261.376 201.774 261.376C201.892 261.376 202.009 261.347 202.114 261.292L207.596 258.132C207.786 258.022 207.786 257.848 207.596 257.737L202.856 255.028ZM226.169 241.598C226.064 241.543 225.948 241.515 225.83 241.515C225.711 241.515 225.595 241.543 225.49 241.598L220.987 244.11C220.797 244.221 220.797 244.394 220.987 244.505L225.727 247.215C225.832 247.269 225.948 247.298 226.067 247.298C226.185 247.298 226.301 247.269 226.406 247.215L230.862 244.639C231.052 244.529 231.052 244.355 230.862 244.252L226.169 241.598ZM240.603 231.328L245.066 228.76C245.256 228.65 245.256 228.476 245.066 228.365L240.326 225.648C240.22 225.597 240.104 225.571 239.986 225.571C239.869 225.571 239.753 225.597 239.647 225.648L235.191 228.215C235.002 228.326 235.002 228.507 235.191 228.61L239.931 231.328C240.033 231.363 240.142 231.376 240.25 231.365C240.358 231.354 240.462 231.32 240.555 231.265L240.603 231.328ZM212.771 231.881L217.227 229.313C217.416 229.203 217.416 229.029 217.227 228.918L212.487 226.201C212.38 226.15 212.264 226.124 212.147 226.124C212.029 226.124 211.913 226.15 211.807 226.201L207.352 228.776C207.162 228.887 207.162 229.06 207.352 229.163L212.092 231.881C212.195 231.918 212.305 231.932 212.415 231.921C212.524 231.91 212.63 231.875 212.724 231.818L212.771 231.881ZM196.71 256.608L209.737 249.079C209.777 249.065 209.812 249.039 209.836 249.004C209.861 248.969 209.874 248.928 209.874 248.886C209.874 248.843 209.861 248.802 209.836 248.767C209.812 248.732 209.777 248.706 209.737 248.692L204.997 245.974C204.892 245.92 204.776 245.891 204.658 245.891C204.539 245.891 204.423 245.92 204.318 245.974L191.291 253.495C191.251 253.509 191.216 253.536 191.192 253.57C191.167 253.605 191.154 253.646 191.154 253.689C191.154 253.731 191.167 253.773 191.192 253.807C191.216 253.842 191.251 253.868 191.291 253.882L196.031 256.6C196.136 256.652 196.252 256.679 196.37 256.681C196.487 256.682 196.604 256.657 196.71 256.608V256.608ZM233.398 235.033C233.504 235.083 233.62 235.11 233.738 235.11C233.855 235.11 233.971 235.083 234.077 235.033L238.533 232.465C238.722 232.355 238.722 232.181 238.533 232.07L233.793 229.353C233.687 229.302 233.571 229.276 233.453 229.276C233.336 229.276 233.22 229.302 233.113 229.353L228.65 231.928C228.61 231.942 228.575 231.969 228.551 232.003C228.526 232.038 228.513 232.079 228.513 232.122C228.513 232.164 228.526 232.206 228.551 232.24C228.575 232.275 228.61 232.301 228.65 232.315L233.398 235.033ZM227.354 231.146L231.818 228.579C232 228.468 232.007 228.294 231.818 228.184L227.117 225.466C227.011 225.415 226.895 225.389 226.778 225.389C226.66 225.389 226.544 225.415 226.438 225.466L221.99 228.041C221.801 228.152 221.793 228.326 221.99 228.436L226.691 231.154C226.791 231.196 226.899 231.217 227.008 231.216C227.116 231.215 227.224 231.191 227.323 231.146H227.354ZM190.224 260.376L194.68 257.801C194.87 257.69 194.87 257.516 194.68 257.406L189.94 254.688C189.834 254.638 189.718 254.611 189.6 254.611C189.483 254.611 189.367 254.638 189.261 254.688L184.797 257.263C184.607 257.374 184.607 257.548 184.797 257.651L189.498 260.368C189.602 260.416 189.715 260.441 189.829 260.441C189.944 260.441 190.057 260.416 190.161 260.368L190.224 260.376ZM218.965 243.32C219.069 243.375 219.186 243.403 219.304 243.403C219.423 243.403 219.539 243.375 219.644 243.32L224.1 240.745C224.289 240.634 224.297 240.46 224.1 240.35L219.399 237.64C219.294 237.585 219.178 237.557 219.059 237.557C218.941 237.557 218.825 237.585 218.72 237.64L214.264 240.215C214.074 240.326 214.067 240.5 214.264 240.61L218.965 243.32ZM157.589 279.146L162.045 276.571C162.235 276.46 162.243 276.287 162.045 276.184L157.345 273.466C157.24 273.412 157.123 273.383 157.005 273.383C156.887 273.383 156.77 273.412 156.665 273.466L152.21 276.042C152.02 276.152 152.012 276.326 152.21 276.437L156.95 279.146C157.048 279.198 157.156 279.228 157.267 279.232C157.378 279.236 157.488 279.215 157.589 279.17V279.146ZM164.107 275.386L168.563 272.811C168.752 272.7 168.752 272.526 168.563 272.424L163.823 269.706C163.718 269.651 163.601 269.623 163.483 269.623C163.365 269.623 163.248 269.651 163.143 269.706L158.688 272.281C158.498 272.392 158.498 272.566 158.688 272.676L163.428 275.386C163.531 275.444 163.646 275.477 163.764 275.481C163.883 275.485 164 275.461 164.107 275.41V275.386ZM151.08 282.907L155.535 280.331C155.725 280.221 155.725 280.047 155.535 279.944L150.795 277.227C150.689 277.176 150.573 277.15 150.456 277.15C150.338 277.15 150.222 277.176 150.116 277.227L145.66 279.802C145.471 279.913 145.471 280.087 145.66 280.197L150.4 282.915C150.505 282.968 150.621 282.997 150.738 282.999C150.856 283.002 150.973 282.979 151.08 282.931V282.907ZM177.15 267.897L181.605 265.321C181.795 265.211 181.795 265.037 181.605 264.926L176.865 262.217C176.762 262.162 176.647 262.134 176.53 262.134C176.413 262.134 176.297 262.162 176.194 262.217L171.73 264.792C171.541 264.903 171.541 265.077 171.73 265.179L176.47 267.897C176.574 267.948 176.688 267.973 176.803 267.972C176.918 267.971 177.032 267.942 177.134 267.889L177.15 267.897ZM170.64 271.649L175.096 269.074C175.285 268.963 175.293 268.79 175.096 268.679L170.356 265.969C170.251 265.915 170.134 265.886 170.016 265.886C169.898 265.886 169.781 265.915 169.676 265.969L165.221 268.545C165.031 268.655 165.023 268.829 165.221 268.94L169.961 271.649C170.066 271.704 170.182 271.733 170.301 271.733C170.419 271.733 170.535 271.704 170.64 271.649ZM183.667 264.129L188.131 261.553C188.174 261.541 188.212 261.515 188.238 261.479C188.265 261.444 188.28 261.4 188.28 261.356C188.28 261.311 188.265 261.268 188.238 261.232C188.212 261.196 188.174 261.17 188.131 261.158L183.391 258.448C183.286 258.394 183.169 258.365 183.051 258.365C182.933 258.365 182.816 258.394 182.711 258.448L178.256 261.024C178.066 261.134 178.066 261.308 178.256 261.411L182.956 264.129C183.062 264.185 183.18 264.214 183.3 264.214C183.42 264.214 183.538 264.185 183.644 264.129H183.667ZM216.35 210.14C216.455 210.195 216.571 210.223 216.689 210.223C216.808 210.223 216.924 210.195 217.029 210.14L221.493 207.565C221.682 207.454 221.682 207.28 221.493 207.177L220.244 206.451C220.138 206.4 220.022 206.374 219.905 206.374C219.787 206.374 219.671 206.4 219.565 206.451L215.109 209.026C214.92 209.137 214.92 209.31 215.109 209.421L216.35 210.14ZM184.141 230.759C184.245 230.812 184.36 230.839 184.477 230.839C184.594 230.839 184.709 230.812 184.813 230.759L189.276 228.184C189.466 228.073 189.466 227.899 189.276 227.789L184.536 225.071C184.43 225.02 184.314 224.994 184.197 224.994C184.079 224.994 183.963 225.02 183.857 225.071L179.401 227.646C179.361 227.661 179.327 227.687 179.302 227.721C179.278 227.756 179.265 227.797 179.265 227.84C179.265 227.882 179.278 227.924 179.302 227.958C179.327 227.993 179.361 228.019 179.401 228.033L184.141 230.759ZM197.168 223.238C197.275 223.289 197.391 223.315 197.508 223.315C197.626 223.315 197.742 223.289 197.848 223.238L202.303 220.671C202.493 220.56 202.493 220.386 202.303 220.276L197.563 217.558C197.457 217.508 197.341 217.481 197.224 217.481C197.106 217.481 196.99 217.508 196.884 217.558L192.428 220.133C192.388 220.148 192.354 220.174 192.329 220.209C192.305 220.243 192.292 220.285 192.292 220.327C192.292 220.369 192.305 220.411 192.329 220.445C192.354 220.48 192.388 220.506 192.428 220.521L197.168 223.238ZM176.17 235.349C176.275 235.404 176.392 235.432 176.51 235.432C176.628 235.432 176.745 235.404 176.85 235.349L181.305 232.773C181.495 232.663 181.495 232.489 181.305 232.378L176.565 229.669C176.46 229.614 176.344 229.586 176.226 229.586C176.107 229.586 175.991 229.614 175.886 229.669L171.486 232.26C171.296 232.371 171.296 232.544 171.486 232.655L176.17 235.349ZM190.635 226.999C190.74 227.053 190.857 227.082 190.975 227.082C191.093 227.082 191.21 227.053 191.315 226.999L195.77 224.431C195.96 224.32 195.968 224.147 195.77 224.036L191.03 221.318C190.924 221.268 190.808 221.242 190.69 221.242C190.573 221.242 190.457 221.268 190.351 221.318L185.895 223.894C185.706 223.997 185.698 224.178 185.895 224.281L190.635 226.999ZM163.143 242.87C163.247 242.924 163.362 242.953 163.479 242.953C163.596 242.953 163.711 242.924 163.815 242.87L168.278 240.294C168.468 240.184 168.468 240.01 168.278 239.907L163.538 237.19C163.433 237.135 163.317 237.106 163.198 237.106C163.08 237.106 162.964 237.135 162.859 237.19L158.403 239.765C158.214 239.876 158.214 240.049 158.403 240.16L163.143 242.87ZM169.653 239.109C169.758 239.164 169.874 239.193 169.992 239.193C170.111 239.193 170.227 239.164 170.332 239.109L174.788 236.534C174.977 236.423 174.985 236.249 174.788 236.147L170.087 233.429C169.982 233.374 169.866 233.346 169.748 233.346C169.629 233.346 169.513 233.374 169.408 233.429L164.952 236.005C164.763 236.115 164.755 236.289 164.952 236.4L169.653 239.109ZM203.307 217.684C203.412 217.739 203.528 217.768 203.646 217.768C203.765 217.768 203.881 217.739 203.986 217.684L208.45 215.109C208.631 214.998 208.639 214.825 208.45 214.722L207.201 213.995C207.095 213.945 206.979 213.918 206.862 213.918C206.744 213.918 206.628 213.945 206.522 213.995L202.066 216.563C201.877 216.673 201.869 216.847 202.066 216.958L203.307 217.684ZM222.851 206.403C222.956 206.458 223.073 206.487 223.191 206.487C223.309 206.487 223.426 206.458 223.531 206.403L227.986 203.828C228.176 203.717 228.184 203.543 227.986 203.433L226.73 202.714C226.624 202.663 226.508 202.637 226.391 202.637C226.273 202.637 226.157 202.663 226.051 202.714L221.587 205.289C221.544 205.302 221.507 205.328 221.48 205.363C221.453 205.399 221.438 205.442 221.438 205.487C221.438 205.531 221.453 205.575 221.48 205.611C221.507 205.646 221.544 205.672 221.587 205.684L222.851 206.403ZM232.734 212.107C232.839 212.162 232.956 212.19 233.074 212.19C233.192 212.19 233.309 212.162 233.414 212.107L237.869 209.532C238.059 209.421 238.059 209.247 237.869 209.145L233.129 206.427C233.026 206.372 232.911 206.344 232.793 206.344C232.676 206.344 232.561 206.372 232.458 206.427L227.994 209.002C227.805 209.113 227.805 209.287 227.994 209.397L232.734 212.107ZM247.073 227.52L251.528 224.952C251.718 224.842 251.726 224.668 251.528 224.557L246.828 221.84C246.722 221.789 246.606 221.763 246.488 221.763C246.371 221.763 246.255 221.789 246.148 221.84L241.74 224.399C241.551 224.51 241.543 224.684 241.74 224.794L246.441 227.512C246.54 227.557 246.647 227.581 246.756 227.582C246.865 227.583 246.973 227.562 247.073 227.52ZM209.84 213.94C209.945 213.995 210.061 214.023 210.18 214.023C210.298 214.023 210.415 213.995 210.519 213.94L214.975 211.364C215.165 211.254 215.165 211.08 214.975 210.977L213.719 210.251C213.614 210.196 213.498 210.167 213.379 210.167C213.261 210.167 213.144 210.196 213.04 210.251L208.56 212.81C208.371 212.921 208.371 213.095 208.56 213.205L209.84 213.94ZM156.641 246.646C156.746 246.701 156.863 246.729 156.981 246.729C157.099 246.729 157.216 246.701 157.321 246.646L161.776 244.07C161.966 243.96 161.966 243.786 161.776 243.683L157.084 240.95C156.978 240.899 156.862 240.873 156.744 240.873C156.627 240.873 156.511 240.899 156.404 240.95L151.941 243.525C151.759 243.636 151.751 243.81 151.941 243.92L156.641 246.646Z" fill="#455A64"/>
<path d="M180.499 284.929L220.647 261.751C221.326 261.408 222.075 261.229 222.836 261.229C223.596 261.229 224.345 261.408 225.024 261.751L248.06 275.038C249.269 275.742 249.269 276.871 248.06 277.574L207.92 300.745C207.242 301.092 206.49 301.273 205.728 301.273C204.966 301.273 204.215 301.092 203.536 300.745L180.515 287.457C179.33 286.77 179.33 285.624 180.499 284.929Z" fill="#263238"/>
<path d="M173.705 109.209C161.16 120.483 150.321 119.89 143.543 114.668C136.773 127.719 125.934 140.817 113.389 144.033L106.224 163.388C106.224 163.388 110.063 167.812 110.063 178.398C110.025 182.834 109.428 187.248 108.286 191.535C106.982 196.757 105.299 202.161 105.299 211.191C105.299 217.305 106.089 223.254 109.202 228.665C111.08 231.94 113.785 234.664 117.047 236.565L106.153 230.245C102.717 228.345 99.8633 225.546 97.8971 222.148C94.8003 216.728 94.0103 210.788 94.0103 204.665C94.0103 195.643 95.693 190.232 96.9965 185.002C98.1325 180.717 98.7218 176.305 98.7503 171.872C98.7503 161.286 94.9109 156.862 94.9109 156.862L102.068 137.507C114.613 134.292 125.452 121.194 132.223 108.143C139.001 113.365 149.84 113.957 162.385 102.684L173.705 109.209Z" fill="#EA6767"/>
<path opacity="0.8" d="M136.212 110.442L132.262 108.143C133.471 109.08 134.8 109.853 136.212 110.442Z" fill="white"/>
<path opacity="0.85" d="M162.4 102.7C152.075 111.975 142.911 113.215 136.212 110.458L143.543 114.684C150.321 119.906 161.16 120.499 173.705 109.225L162.4 102.7Z" fill="white"/>
<path opacity="0.65" d="M132.238 108.143C125.467 121.194 114.629 134.292 102.083 137.507L113.388 144.033C125.934 140.817 136.772 127.719 143.543 114.668L132.238 108.143Z" fill="white"/>
<path opacity="0.55" d="M102.084 137.507L94.9263 156.862L106.223 163.388L113.389 144.033L102.084 137.507Z" fill="white"/>
<path opacity="0.4" d="M109.202 228.665C106.105 223.254 105.299 217.305 105.299 211.191C105.299 202.161 106.982 196.757 108.285 191.535C109.428 187.248 110.025 182.834 110.063 178.398C110.063 167.812 106.223 163.388 106.223 163.388L94.9263 156.862C94.9263 156.862 98.7657 161.286 98.7657 171.872C98.727 176.307 98.1271 180.718 96.9803 185.002C95.6768 190.232 93.9941 195.643 93.9941 204.665C93.9941 210.788 94.7841 216.729 97.8967 222.14C99.863 225.538 102.717 228.337 106.152 230.238L117.046 236.558C113.786 234.658 111.081 231.937 109.202 228.665Z" fill="white"/>
<path opacity="0.05" d="M109.202 228.665C106.105 223.254 105.299 217.305 105.299 211.191C105.299 202.161 106.982 196.757 108.285 191.535C109.428 187.248 110.025 182.834 110.063 178.398C110.063 167.812 106.223 163.388 106.223 163.388L94.9263 156.862C94.9263 156.862 98.7657 161.286 98.7657 171.872C98.727 176.307 98.1271 180.718 96.9803 185.002C95.6768 190.232 93.9941 195.643 93.9941 204.665C93.9941 210.788 94.7841 216.729 97.8967 222.14C99.863 225.538 102.717 228.337 106.152 230.238L117.046 236.558C113.786 234.658 111.081 231.937 109.202 228.665Z" fill="black"/>
<path d="M143.543 241.922C124.804 242.135 114.068 237.182 109.194 228.665C106.105 223.254 105.299 217.305 105.299 211.183C105.299 202.161 106.974 196.765 108.285 191.535C109.427 187.251 110.025 182.84 110.063 178.406C110.063 167.82 106.223 163.396 106.223 163.396L113.388 144.033C125.934 140.817 136.772 127.711 143.543 114.668C150.321 119.89 161.16 120.483 173.705 109.209L180.87 120.269C178.408 126.46 177.104 133.05 177.023 139.711C176.957 143.475 177.561 147.22 178.808 150.771C180.112 154.484 181.795 157.952 181.795 166.974C181.774 174.473 180.454 181.912 177.892 188.96C173.01 203.148 162.289 220.489 143.543 241.922Z" fill="#EA6767"/>
<path opacity="0.75" d="M143.543 241.922C124.804 242.135 114.068 237.182 109.194 228.665C106.105 223.254 105.299 217.305 105.299 211.183C105.299 202.161 106.974 196.765 108.285 191.535C109.427 187.251 110.025 182.84 110.063 178.406C110.063 167.82 106.223 163.396 106.223 163.396L113.388 144.033C125.934 140.817 136.772 127.711 143.543 114.668C150.321 119.89 161.16 120.483 173.705 109.209L180.87 120.269C178.408 126.46 177.104 133.05 177.023 139.711C176.957 143.475 177.561 147.22 178.808 150.771C180.112 154.484 181.795 157.952 181.795 166.974C181.774 174.473 180.454 181.912 177.892 188.96C173.01 203.148 162.289 220.489 143.543 241.922Z" fill="white"/>
<path d="M141.323 237.055C126.811 236.881 117.426 233.247 113.428 226.256C111.169 222.306 110.166 217.661 110.166 211.183C110.165 205.534 110.963 199.915 112.536 194.49C112.686 193.889 112.844 193.305 112.986 192.712C114.235 188.045 114.882 183.237 114.913 178.405C114.913 170.687 113.065 165.639 111.595 162.842L117.125 147.99C130.555 143.322 140.265 130.057 145.407 121.36C148.178 122.537 151.158 123.139 154.169 123.129C160.236 123.129 166.406 120.87 172.568 116.406L175.451 120.878C173.351 126.949 172.242 133.319 172.165 139.743C172.095 144.063 172.79 148.361 174.219 152.438C174.369 152.865 174.527 153.291 174.685 153.718C175.838 156.878 176.928 159.856 176.928 167.022C176.902 173.979 175.672 180.88 173.294 187.419C168.499 201.339 157.747 218.04 141.323 237.055Z" fill="#EA6767"/>
<path opacity="0.4" d="M141.323 237.055C126.811 236.881 117.426 233.247 113.428 226.256C111.169 222.306 110.166 217.661 110.166 211.183C110.165 205.534 110.963 199.915 112.536 194.49C112.686 193.889 112.844 193.305 112.986 192.712C114.235 188.045 114.882 183.237 114.913 178.405C114.913 170.687 113.065 165.639 111.595 162.842L117.125 147.99C130.555 143.322 140.265 130.057 145.407 121.36C148.178 122.537 151.158 123.139 154.169 123.129C160.236 123.129 166.406 120.87 172.568 116.406L175.451 120.878C173.351 126.949 172.242 133.319 172.165 139.743C172.095 144.063 172.79 148.361 174.219 152.438C174.369 152.865 174.527 153.291 174.685 153.718C175.838 156.878 176.928 159.856 176.928 167.022C176.902 173.979 175.672 180.88 173.294 187.419C168.499 201.339 157.747 218.04 141.323 237.055Z" fill="white"/>
<path opacity="0.15" d="M141.323 237.055C126.811 236.881 117.426 233.247 113.428 226.256C111.169 222.306 110.166 217.661 110.166 211.183C110.165 205.534 110.963 199.915 112.536 194.49C112.686 193.889 112.844 193.305 112.986 192.712C114.235 188.045 114.882 183.237 114.913 178.405C114.913 170.687 113.065 165.639 111.595 162.842L117.125 147.99C130.555 143.322 140.265 130.057 145.407 121.36C148.178 122.537 151.158 123.139 154.169 123.129C160.236 123.129 166.406 120.87 172.568 116.406L175.451 120.878C173.351 126.949 172.242 133.319 172.165 139.743C172.095 144.063 172.79 148.361 174.219 152.438C174.369 152.865 174.527 153.291 174.685 153.718C175.838 156.878 176.928 159.856 176.928 167.022C176.902 173.979 175.672 180.88 173.294 187.419C168.499 201.339 157.747 218.04 141.323 237.055Z" fill="black"/>
<path opacity="0.8" d="M116.754 230.277C121.699 234.638 129.915 236.921 141.323 237.055L134.047 232.908C128.177 232.987 122.334 232.098 116.754 230.277V230.277Z" fill="white"/>
<path opacity="0.15" d="M171.651 118.689L175.443 120.878L172.56 116.406L170.909 117.544L171.651 118.689Z" fill="black"/>
<path d="M170.419 150.25C168.99 146.173 168.295 141.874 168.365 137.555C168.442 131.131 169.551 124.761 171.651 118.689L170.909 117.544C165.3 121.249 159.691 123.129 154.161 123.129C151.151 123.139 148.17 122.537 145.4 121.36C140.257 130.05 130.548 143.322 117.118 147.991L111.588 162.843C113.057 165.639 114.906 170.687 114.906 178.406C114.875 183.237 114.227 188.045 112.978 192.712C112.836 193.305 112.678 193.89 112.528 194.49C110.955 199.915 110.157 205.535 110.158 211.183C110.158 217.661 111.161 222.306 113.42 226.256C114.61 228.29 116.227 230.042 118.16 231.391C123.011 233.603 129.473 234.762 137.547 234.867C153.963 215.844 164.715 199.151 169.51 185.231C171.889 178.692 173.119 171.791 173.144 164.833C173.144 157.668 172.046 154.69 170.893 151.53C170.727 151.103 170.569 150.677 170.419 150.25Z" fill="#455A64"/>
<path d="M117.118 147.991L111.588 162.843C113.057 165.639 114.906 170.687 114.906 178.406C114.875 183.237 114.227 188.045 112.978 192.712C112.836 193.305 112.678 193.89 112.528 194.49C110.955 199.915 110.157 205.535 110.158 211.183C110.158 217.661 111.161 222.306 113.42 226.256C114.61 228.29 116.227 230.042 118.16 231.391C123.011 233.603 129.473 234.761 137.547 234.867V180.12L145.447 177.75V121.36C143.115 125.312 140.473 129.074 137.547 132.609C132.278 138.953 125.405 145.107 117.118 147.991Z" fill="#37474F"/>
<path d="M156.515 159.912C156.43 159.757 156.33 159.611 156.215 159.477L156.175 159.43C155.945 159.179 155.678 158.963 155.385 158.79L152.755 157.273C152.279 157.007 151.769 156.81 151.238 156.688C150.92 156.619 150.598 156.568 150.274 156.538V148.749C150.274 144.838 148.797 141.75 146.221 140.264C143.646 138.779 140.691 139.032 137.666 140.802C132.041 144.048 127.64 151.972 127.64 158.837V168.033L122.395 171.059C122.239 171.148 122.091 171.252 121.952 171.367L121.81 171.477C121.596 171.649 121.42 171.865 121.296 172.11C121.172 172.355 121.102 172.625 121.091 172.899V204.444C121.094 204.58 121.113 204.715 121.147 204.847C121.312 205.378 121.662 205.832 122.134 206.127L122.426 206.316L123.714 207.059L125.065 207.849C125.592 208.141 126.163 208.346 126.756 208.457C128.372 208.814 130.062 208.596 131.535 207.841L155.417 194.055C155.786 193.892 156.105 193.633 156.341 193.305C156.577 192.978 156.722 192.593 156.76 192.191V160.662C156.741 160.396 156.657 160.138 156.515 159.912ZM132.775 158.837C132.775 153.813 136.188 147.603 140.225 145.273C141.6 144.483 142.832 144.278 143.614 144.736C144.539 145.265 145.084 146.766 145.084 148.749V157.945L138.298 161.895L132.768 165.055L132.775 158.837Z" fill="#263238"/>
<path d="M159.485 162.052C159.447 161.65 159.303 161.265 159.067 160.938C158.831 160.61 158.512 160.351 158.142 160.188L155.511 158.663C154.51 158.152 153.401 157.885 152.276 157.885C151.151 157.885 150.043 158.152 149.041 158.663L125.159 172.449C124.79 172.614 124.47 172.874 124.234 173.203C123.998 173.532 123.854 173.918 123.816 174.321V205.866C123.852 206.27 123.995 206.657 124.231 206.986C124.468 207.316 124.788 207.575 125.159 207.738L127.79 209.263C128.793 209.769 129.901 210.033 131.025 210.033C132.149 210.033 133.257 209.769 134.26 209.263L158.142 195.469C158.511 195.306 158.83 195.047 159.066 194.719C159.302 194.392 159.447 194.007 159.485 193.605V193.605V162.052Z" fill="#EA6767"/>
<path opacity="0.4" d="M127.79 177.75L125.159 176.17C123.366 175.143 123.366 173.468 125.159 172.433L149.041 158.648C150.043 158.136 151.151 157.869 152.276 157.869C153.401 157.869 154.51 158.136 155.511 158.648L158.142 160.172C159.927 161.199 159.927 162.874 158.142 163.901L134.3 177.75C133.291 178.263 132.176 178.53 131.045 178.53C129.914 178.53 128.798 178.263 127.79 177.75V177.75Z" fill="white"/>
<path opacity="0.1" d="M131.029 178.485V210.029C129.9 210.046 128.785 209.774 127.79 209.239L125.152 207.77C124.78 207.606 124.46 207.345 124.225 207.014C123.99 206.683 123.849 206.294 123.816 205.89V174.321C123.852 174.723 123.995 175.108 124.23 175.435C124.465 175.763 124.783 176.022 125.152 176.186L127.79 177.71C128.785 178.243 129.901 178.51 131.029 178.485V178.485Z" fill="black"/>
<path d="M148.409 194.087L142.705 197.381L143.59 187.064C142.911 186.7 142.476 185.816 142.476 184.544C142.476 182.269 143.851 179.63 145.557 178.65C147.263 177.671 148.638 178.706 148.638 181.02C148.603 182.365 148.219 183.677 147.524 184.828L148.409 194.087Z" fill="#455A64"/>
<path d="M148.409 194.087L143.242 191.109L142.705 197.381L148.409 194.087Z" fill="#37474F"/>
<path d="M145.557 178.65C144.316 179.488 143.39 180.717 142.927 182.142L147.525 184.797C148.22 183.645 148.603 182.333 148.638 180.989C148.638 178.706 147.264 177.663 145.557 178.65Z" fill="#37474F"/>
<path d="M153.03 162.74V150.1C153.03 146.15 151.553 143.1 148.978 141.615C146.402 140.13 143.448 140.391 140.422 142.152C134.797 145.399 130.397 153.323 130.397 160.188V172.868C130.42 173.099 130.506 173.32 130.645 173.507C130.784 173.693 130.971 173.838 131.187 173.926C131.752 174.21 132.376 174.358 133.008 174.358C133.64 174.358 134.264 174.21 134.829 173.926C135.044 173.838 135.232 173.693 135.371 173.507C135.51 173.32 135.596 173.099 135.619 172.868V172.868V160.228C135.619 155.203 139.032 148.994 143.069 146.663C144.443 145.873 145.683 145.676 146.466 146.126C147.382 146.655 147.935 148.156 147.935 150.139V162.779C147.96 163.008 148.046 163.226 148.186 163.41C148.325 163.594 148.511 163.736 148.725 163.822C149.29 164.106 149.914 164.254 150.546 164.254C151.178 164.254 151.802 164.106 152.367 163.822C152.579 163.733 152.763 163.59 152.902 163.407C153.041 163.224 153.129 163.007 153.157 162.779L153.03 162.74Z" fill="#E0E0E0"/>
<path d="M183.73 218.206L187.206 216.199L188.581 214.524L185.105 216.531L183.73 218.206Z" fill="#EA6767"/>
<path opacity="0.4" d="M183.73 218.206L187.206 216.199L188.581 214.524L185.105 216.531L183.73 218.206Z" fill="black"/>
<path d="M193.187 223.665L196.663 221.658L199.57 219.083L196.094 221.089L193.187 223.665Z" fill="#EA6767"/>
<path opacity="0.4" d="M193.187 223.665L196.663 221.658L199.57 219.083L196.094 221.089L193.187 223.665Z" fill="black"/>
<path d="M222.78 230.601C223.603 231.704 224.101 233.014 224.218 234.385C223.402 233.279 222.904 231.97 222.78 230.601V230.601ZM230.862 230.704C229.693 222.74 225.419 214.904 220.315 211.917C217.866 210.503 215.575 210.456 213.79 211.515L210.519 213.403L210.33 213.513C210.184 213.592 210.044 213.682 209.911 213.782C209.631 213.965 209.367 214.171 209.121 214.398L209.01 214.501C208.908 214.603 208.805 214.722 208.71 214.833C208.615 214.943 208.465 215.117 208.362 215.259C208.127 215.57 207.913 215.898 207.723 216.239C207.628 216.413 207.525 216.594 207.438 216.784L178.848 200.281L175.372 202.279V204.499L175.672 204.665L175.949 204.831V205.297L175.372 205.629V206.917L179.575 215.804L183.73 218.174L185.105 216.499L188.77 218.696L190.872 222.298L193.194 223.633L196.094 221.058L199.657 223.12L200.857 228.057L206.83 231.509C207.133 232.768 207.511 234.008 207.96 235.222L208.094 235.61C210.085 240.824 213.245 245.295 216.784 247.357C217.215 247.604 217.664 247.818 218.127 247.997C218.372 248.094 218.623 248.178 218.877 248.25C219.096 248.311 219.317 248.361 219.541 248.4C220.241 248.53 220.958 248.53 221.658 248.4L221.951 248.329C222.089 248.305 222.224 248.265 222.353 248.21L222.661 248.092C222.773 248.05 222.881 248 222.985 247.941L223.278 247.791L223.428 247.704L223.499 247.665L226.777 245.777C229.416 244.244 231.13 240.373 231.13 234.899C231.133 233.487 231.03 232.076 230.822 230.68L230.862 230.704Z" fill="#EA6767"/>
<path d="M221.721 237.316C220.355 236.526 219.241 234.156 219.241 232.063C219.241 229.969 220.355 228.903 221.721 229.693C223.088 230.483 224.21 232.853 224.21 234.954C224.21 237.055 223.096 238.106 221.721 237.316ZM227.354 232.71C226.185 224.747 221.903 216.871 216.8 213.924C214.43 212.565 212.257 212.463 210.48 213.403L210.29 213.513C210.144 213.593 210.004 213.682 209.871 213.782C209.591 213.965 209.327 214.171 209.081 214.398L208.971 214.501C208.868 214.604 208.765 214.722 208.67 214.833C208.576 214.943 208.426 215.117 208.323 215.259C208.087 215.57 207.873 215.898 207.683 216.239C207.588 216.413 207.485 216.594 207.399 216.784C206.886 217.859 206.514 218.995 206.293 220.165L175.38 202.28V204.499L175.68 204.665L175.957 204.831V205.297L175.38 205.629V206.917L179.583 215.804L183.738 218.174L185.113 216.5L188.778 218.696L190.88 222.298L193.202 223.633L196.102 221.058L199.664 223.12L200.865 228.057L206.838 231.51C207.141 232.768 207.518 234.008 207.967 235.223L208.102 235.61C210.092 240.824 213.252 245.295 216.792 247.357C217.222 247.604 217.671 247.818 218.135 247.997C218.38 248.094 218.631 248.178 218.885 248.25C219.104 248.311 219.325 248.361 219.549 248.4C220.248 248.53 220.966 248.53 221.666 248.4L221.958 248.329C222.097 248.305 222.232 248.265 222.361 248.21L222.669 248.092C222.781 248.05 222.889 248 222.993 247.942L223.285 247.791L223.436 247.705L223.507 247.665C226.035 246.085 227.662 242.254 227.662 236.905C227.66 235.501 227.557 234.1 227.354 232.71V232.71Z" fill="#EA6767"/>
<path opacity="0.4" d="M224.21 234.922C224.21 237.039 223.096 238.082 221.729 237.292C220.363 236.502 219.241 234.132 219.241 232.039C219.241 229.945 220.355 228.879 221.729 229.669C222.137 229.907 222.494 230.224 222.78 230.601C222.901 231.971 223.398 233.281 224.218 234.385C224.227 234.564 224.224 234.743 224.21 234.922Z" fill="black"/>
<path opacity="0.4" d="M231.146 234.922C231.146 240.397 229.432 244.268 226.793 245.801L223.514 247.689C226.042 246.109 227.67 242.277 227.67 236.929C227.666 235.517 227.56 234.107 227.354 232.71C226.185 224.747 221.903 216.871 216.799 213.924C214.429 212.565 212.257 212.463 210.479 213.403L213.75 211.515C215.567 210.456 217.826 210.503 220.275 211.917C225.379 214.88 229.653 222.78 230.822 230.68C231.036 232.084 231.145 233.502 231.146 234.922V234.922Z" fill="white"/>
<path d="M227.67 236.929C227.67 242.277 226.043 246.093 223.515 247.689L226.793 245.801C229.432 244.268 231.146 240.397 231.146 234.922C231.146 234.717 231.146 234.511 231.146 234.314L227.678 236.321C227.662 236.518 227.67 236.723 227.67 236.929Z" fill="#EA6767"/>
<path opacity="0.1" d="M227.67 236.929C227.67 242.277 226.043 246.093 223.515 247.689L226.793 245.801C229.432 244.268 231.146 240.397 231.146 234.922C231.146 234.717 231.146 234.511 231.146 234.314L227.678 236.321C227.662 236.518 227.67 236.723 227.67 236.929Z" fill="black"/>
<path opacity="0.15" d="M206.459 222.44V223.57L175.372 205.629L175.949 205.297V204.823L206.459 222.44Z" fill="black"/>
<path opacity="0.15" d="M206.459 222.914V223.57L175.372 205.629L175.949 205.297V205.289L206.459 222.914Z" fill="black"/>
<path opacity="0.15" d="M219.983 245.832C218.806 245.8 217.659 245.456 216.658 244.837C211.586 241.906 207.462 233.2 207.462 225.426C207.462 220.892 208.837 217.526 211.23 216.12C212.905 215.156 214.88 215.275 216.95 216.468C222.014 219.399 226.138 228.105 226.138 235.878C226.138 240.413 224.763 243.778 222.369 245.184C221.647 245.611 220.822 245.834 219.983 245.832V245.832ZM213.663 216.057C212.926 216.056 212.201 216.249 211.562 216.618C209.382 217.874 208.086 221.168 208.086 225.426C208.086 233.018 212.036 241.495 216.989 244.331C218.87 245.421 220.639 245.54 222.124 244.687C224.305 243.431 225.6 240.136 225.6 235.878C225.6 228.286 221.65 219.802 216.697 216.973C215.772 216.4 214.712 216.084 213.624 216.057H213.663Z" fill="black"/>
<path opacity="0.5" d="M207.439 216.784C206.926 217.859 206.554 218.995 206.333 220.165L175.381 202.279L178.857 200.281L207.439 216.784Z" fill="white"/>
<path d="M325.48 304.15C325.598 305.232 325.749 308.266 331.247 309.024C336.745 309.783 340.206 307.958 341.675 305.311C343.144 302.665 342.805 300.508 343.034 298.059C343.263 295.61 345.293 294.307 345.878 293.043C346.731 291.186 345.483 288.303 345.483 288.303L325.48 304.15Z" fill="#263238"/>
<path d="M285.324 295.571C285.195 296.013 285.16 296.478 285.222 296.935C285.283 297.392 285.439 297.832 285.68 298.225C286.911 299.199 288.328 299.911 289.844 300.319C291.36 300.726 292.943 300.82 294.496 300.595C297.851 300.138 301.048 298.884 303.818 296.937C305.943 295.514 308.459 294.788 311.015 294.86C313.662 294.773 315.597 294.188 315.803 293.493C316.15 292.268 316.15 291.502 315.573 291.534L285.324 295.571Z" fill="#263238"/>
<path d="M344.172 284.068C343.484 289.085 333.759 288.682 334.549 284.677L332.819 272.503L343.824 272.842L344.172 284.068Z" fill="#FFA8A7"/>
<path d="M325.843 301.685C326.333 300.777 327.747 299.481 328.371 298.667C331.668 294.47 333.657 289.396 334.091 284.076C334.091 283.784 334.146 283.215 334.446 283.033C334.747 282.852 335.039 283.104 335.355 283.247C335.899 283.477 336.474 283.626 337.061 283.689C339.005 283.91 341.161 283.444 341.643 283.507C342.125 283.57 342.141 284.732 342.109 285.996C342.804 285.561 343.034 284.692 343.65 284.187C343.99 283.91 344.14 283.902 344.132 283.452C344.132 283.16 344.132 282.891 344.132 282.599C344.637 282.457 345.056 284.368 345.467 285.83C345.941 287.528 346.533 289.44 345.87 291.162C345.439 292.101 344.909 292.991 344.29 293.817C343.24 295.253 342.556 296.923 342.299 298.683C342.22 299.473 342.299 300.263 342.173 301.006C341.991 302.298 341.442 303.51 340.592 304.5C339.742 305.49 338.627 306.216 337.377 306.591C334.02 307.634 328.987 307.468 326.033 305.13C325.006 304.316 325.353 302.57 325.843 301.685Z" fill="#37474F"/>
<path d="M313.33 283.231C310.66 285.301 307.452 286.517 304.174 285.024L303.384 264.54L314.444 266.522L313.33 283.231Z" fill="#FFA8A7"/>
<path d="M287.56 292.032C288.295 291.795 289.014 291.534 289.725 291.242C291.711 290.433 293.629 289.466 295.46 288.35C296.25 287.86 297.04 287.347 297.83 286.77C298.62 286.193 299.41 285.569 300.2 284.937C300.611 284.576 300.985 284.174 301.314 283.737C301.979 282.921 302.537 282.024 302.973 281.066C303.039 280.841 303.185 280.647 303.384 280.521C303.518 280.474 303.661 280.464 303.8 280.492C303.939 280.52 304.068 280.584 304.174 280.679C304.364 280.834 304.567 280.972 304.782 281.09L305.43 281.359C306.121 281.641 306.851 281.819 307.594 281.888C310.391 282.133 310.478 281.572 310.596 282.473C310.623 282.809 310.623 283.147 310.596 283.484C312.074 283.239 313.235 282.765 313.298 282.204L313.472 280.419C314.941 280.284 315.052 282.915 315.526 285.87C315.913 288.24 316.49 289.985 315.826 291.747C313.606 293.683 309.688 293.217 307.46 293.58C304.3 294.101 302.823 296.44 298.438 297.957C291.328 300.406 286.896 297.585 285.569 296.377C284.708 294.852 284.534 292.995 287.56 292.032Z" fill="#37474F"/>
<path d="M341.067 162.092C341.628 170.782 342.647 183.509 343.002 193.55C343.666 212.415 343.405 233.927 343.405 233.927C344.46 237.883 345.14 241.93 345.435 246.014C345.886 258.069 345.807 285.135 345.807 285.135C345.807 285.135 340.806 290.167 333.333 286.217C333.333 286.217 326.704 248.297 324.856 236.384C323.086 225.047 319.634 202.414 319.634 202.414L318.054 234.583C319.253 239.637 319.65 244.849 319.231 250.027C318.828 255.557 315.676 282.82 315.676 282.82C312.8 285.514 304.426 284.044 302.594 281.904C302.594 281.904 299.663 241.614 299.331 235.783C298.628 223.199 296.756 176.265 297.696 168.981C298.636 161.697 341.067 162.092 341.067 162.092Z" fill="#263238"/>
<path d="M319.634 202.382L317.438 187.862C317.438 187.862 311.41 186.724 307.002 183.454C307.002 183.454 308.716 187.333 315.384 190.098L317.58 203.623L318.101 234.551L319.634 202.382Z" fill="black"/>
<path d="M331.95 103.83C332.353 105.465 335.11 105.212 336.343 104.904C337.074 104.751 337.723 104.335 338.168 103.735C338.614 103.136 338.824 102.394 338.76 101.649C339.384 101.483 339.946 101.14 340.38 100.662C340.671 100.277 340.838 99.8113 340.858 99.3284C340.878 98.8455 340.749 98.3681 340.49 97.9602C340.991 97.6041 341.384 97.1174 341.626 96.5531C341.868 95.9888 341.951 95.3688 341.865 94.7607C341.696 93.8805 341.213 93.0916 340.506 92.5408C339.822 91.9867 338.969 91.6829 338.089 91.6797C337.804 91.6797 337.52 92.2485 337.931 92.2959C338.571 92.42 339.174 92.6904 339.692 93.0859C340.232 93.4634 340.649 93.9907 340.893 94.6027C341.045 95.0886 341.045 95.6094 340.892 96.0951C340.74 96.5808 340.442 97.0084 340.04 97.3203C339.896 97.1393 339.734 96.9726 339.558 96.8226C339.009 96.3311 338.288 96.0756 337.551 96.1116C337.279 96.1049 337.011 96.1755 336.777 96.3154C336.544 96.4552 336.355 96.6585 336.232 96.9016C336.042 97.5178 336.682 98.0392 337.156 98.3078C337.5 98.5023 337.882 98.6213 338.276 98.6567C338.669 98.6921 339.066 98.6432 339.439 98.5132C339.501 98.4929 339.562 98.4692 339.621 98.4421C339.663 98.5242 339.7 98.6086 339.732 98.6949C340.158 99.8246 339.471 100.528 338.547 100.844C337.986 99.6824 336.469 98.8371 335.252 99.4454C335.098 99.5127 334.963 99.6173 334.859 99.7497C334.755 99.8822 334.685 100.038 334.656 100.204C334.627 100.37 334.64 100.541 334.693 100.7C334.746 100.86 334.838 101.005 334.96 101.12C335.466 101.598 336.136 101.864 336.832 101.863C337.151 101.886 337.47 101.886 337.788 101.863C337.859 102.369 337.741 102.884 337.457 103.308C337.17 103.632 336.815 103.888 336.418 104.058C336.02 104.227 335.59 104.306 335.158 104.288C334.177 104.367 333.204 104.058 332.448 103.427C332.219 103.229 331.887 103.585 331.95 103.83ZM339.163 97.7627C338.906 97.8358 338.636 97.851 338.372 97.8073C338.109 97.7636 337.858 97.662 337.638 97.5099C337.306 97.2887 336.935 96.9648 337.528 96.9253C337.846 96.929 338.16 97.0065 338.444 97.1518C338.727 97.2971 338.974 97.5062 339.163 97.7627ZM337.512 101.041C337.177 101.055 336.842 101.023 336.516 100.946C336.279 100.891 335.245 100.362 335.774 100.156C336.177 99.9747 336.888 100.378 337.172 100.63C337.303 100.752 337.417 100.89 337.512 101.041V101.041Z" fill="#263238"/>
<path d="M333.87 73.2726C334.043 73.2971 334.214 73.3313 334.384 73.3753C334.263 72.854 334.322 72.3071 334.551 71.8237C334.781 71.3404 335.167 70.9489 335.648 70.713C336.261 70.4667 336.947 70.4692 337.559 70.7199C338.171 70.9706 338.661 71.4498 338.926 72.056L335.347 73.6913C336.51 74.1051 337.48 74.9317 338.073 76.0139C339.052 78.0363 337.757 82.3339 336.453 87.6269C335.719 90.965 334.755 94.2486 333.57 97.4545C332.969 99.0345 331.887 99.0345 331.887 99.0345V93.7494L332.116 89.3649C332.116 89.3649 329.304 85.5176 328.996 82.3655C328.593 78.3128 329.446 76.6538 329.446 76.6538L333.87 73.2726Z" fill="#263238"/>
<path d="M314.42 68.73C316.186 68.7331 317.912 69.2602 319.378 70.2444C320.845 71.2286 321.987 72.6258 322.659 74.2591C323.331 75.8924 323.504 77.6884 323.155 79.4199C322.806 81.1514 321.952 82.7405 320.7 83.9861C319.447 85.2317 317.854 86.0779 316.12 86.4174C314.387 86.757 312.592 86.5748 310.962 85.8939C309.333 85.2129 307.942 84.0638 306.965 82.5919C305.989 81.1201 305.471 79.3917 305.477 77.6254C305.48 76.4541 305.714 75.2949 306.165 74.214C306.616 73.1331 307.276 72.1516 308.106 71.3256C308.937 70.4996 309.922 69.8452 311.005 69.3999C312.088 68.9545 313.249 68.7269 314.42 68.73V68.73Z" fill="#263238"/>
<path d="M331.95 88.6698C333.009 89.5862 333.87 87.2162 334.762 86.2998C335.655 85.3834 338.547 84.1115 339.984 87.1609C341.422 90.2103 338.657 94.4842 336.485 95.4875C333.325 96.9648 331.887 93.7653 331.887 93.7653V106.998C328.545 113.018 321.317 111.611 317.896 112.457C317.386 110.918 317.386 109.255 317.896 107.717V103.411C316.457 103.688 314.987 103.765 313.527 103.64C310.636 103.182 309.087 100.804 308.226 97.6758C306.836 92.6514 306.544 84.2063 308.479 74.4498C311.718 71.9534 322.66 72.3642 329.43 76.6302C328.956 85.3202 330.891 87.7534 331.95 88.6698Z" fill="#FFA8A7"/>
<path d="M317.904 103.411C317.904 103.411 324.35 102.139 326.594 100.946C327.936 100.269 329.039 99.1963 329.754 97.8733C329.41 99.1925 328.802 100.429 327.968 101.507C326.317 103.609 317.912 105.133 317.912 105.133L317.904 103.411Z" fill="#F28F8F"/>
<path d="M304.063 83.4477C304.118 83.9575 304.324 84.4391 304.656 84.8302C304.766 84.9796 304.846 85.1485 304.893 85.3279C305.059 86.5894 305.323 87.8361 305.683 89.0567C305.974 89.867 306.511 90.5658 307.22 91.0547C307.928 91.5436 308.772 91.7981 309.633 91.7822C310.088 91.8042 310.543 91.7751 310.992 91.6953C311.026 91.7006 311.06 91.7006 311.094 91.6953C311.487 91.6176 311.866 91.479 312.216 91.2845H312.279L312.382 91.2213L312.493 91.1344C312.534 91.1154 312.572 91.0886 312.603 91.0554C312.65 91.031 312.693 90.9989 312.73 90.9606L312.84 90.85L313.061 90.6367C313.436 90.2213 313.743 89.7494 313.97 89.2384C314.578 87.9507 314.46 86.1258 315.408 85.9441C315.447 85.9478 315.487 85.9478 315.526 85.9441H315.653C316.948 85.9915 316.759 87.9665 317.454 89.3964C317.839 90.3017 318.492 91.0672 319.325 91.5899C320.159 92.1125 321.132 92.3671 322.115 92.3194H322.47H322.763C322.988 92.3071 323.212 92.2807 323.434 92.2404L323.647 92.193L323.853 92.1377H323.979C324.253 92.0492 324.517 91.9355 324.769 91.798C324.856 91.7348 324.943 91.6874 325.03 91.6321C325.185 91.5142 325.332 91.3876 325.472 91.2529C325.843 90.878 326.138 90.4355 326.341 89.9494C326.726 88.7536 327.009 87.5274 327.187 86.2838C327.228 86.0953 327.302 85.916 327.408 85.7545C327.753 85.3928 327.981 84.936 328.064 84.4431C328.085 84.1854 328.019 83.9281 327.875 83.7129C327.732 83.4978 327.52 83.3375 327.274 83.2581L326.594 83.1475C324.39 82.8394 321.514 82.6656 319.784 83.1001C317.604 83.6452 316.838 84.3246 315.637 84.2851C314.436 84.2456 313.804 83.4951 311.758 82.792C310.178 82.2232 307.445 82.1995 305.391 82.3417C305.161 82.3417 304.964 82.3417 304.751 82.3891C304.411 82.3259 304.032 82.8552 304.063 83.4477ZM318.244 85.0751C318.414 84.8707 318.627 84.7062 318.868 84.5932C318.906 84.5691 318.945 84.5479 318.986 84.53H319.042C319.147 84.4904 319.249 84.4456 319.35 84.3957C319.437 84.3957 319.539 84.3325 319.634 84.293C319.939 84.181 320.25 84.0886 320.566 84.0165L320.938 83.9375C321.246 83.8822 321.57 83.8348 321.886 83.8032H322.115C324.193 83.6768 325.48 84.1903 325.938 84.5932C326.397 84.9961 326.16 86.9632 325.938 87.927C325.938 87.927 325.938 87.9823 325.938 87.9981C325.946 88.024 325.946 88.0512 325.938 88.0771C325.916 88.2083 325.885 88.3376 325.844 88.4642C325.827 88.5478 325.804 88.6297 325.773 88.7091V88.7091C325.725 88.8434 325.678 88.9777 325.622 89.1199C325.61 89.1681 325.588 89.2136 325.559 89.2542C325.553 89.2858 325.539 89.3155 325.52 89.3411C325.52 89.3411 325.52 89.3964 325.52 89.428L325.457 89.5465C325.457 89.5939 325.409 89.6334 325.378 89.6729C325.356 89.7221 325.327 89.7675 325.291 89.8072C325.266 89.8548 325.237 89.8998 325.204 89.9415C324.871 90.3963 324.426 90.7569 323.913 90.9882C323.399 91.2194 322.834 91.3134 322.273 91.2608C321.698 91.2966 321.123 91.2079 320.585 91.0006C320.048 90.7934 319.562 90.4725 319.16 90.06C318.667 89.4931 318.332 88.8065 318.189 88.0692C317.952 86.9395 317.825 85.6597 318.244 85.0751ZM306.038 83.8269C306.185 83.6855 306.36 83.5776 306.552 83.5109L306.773 83.424H306.907H307.026H307.105H307.223C307.383 83.3914 307.543 83.3677 307.705 83.3529H307.966H308.116C308.158 83.3606 308.201 83.3606 308.242 83.3529C308.353 83.3451 308.464 83.3451 308.574 83.3529H308.811C309.132 83.3697 309.451 83.4039 309.767 83.4556C311.244 83.7005 312.785 84.4194 313.172 85.0356C313.559 85.6518 313.449 86.9079 313.235 87.9981C313.186 88.2419 313.12 88.482 313.038 88.717C313.032 88.7349 313.032 88.7544 313.038 88.7723C313.041 88.7985 313.041 88.8251 313.038 88.8513C313.038 88.8513 313.038 88.8513 313.038 88.8987C313.026 88.9283 313.013 88.9573 312.998 88.9856C312.998 89.0488 312.943 89.1041 312.911 89.1594C312.888 89.2136 312.862 89.2664 312.832 89.3174V89.3648L312.769 89.4754L312.706 89.5623C312.362 90.0519 311.889 90.4371 311.34 90.6754C310.79 90.9138 310.186 90.996 309.593 90.9132C309.042 90.8998 308.501 90.7592 308.013 90.5024C306.56 89.7124 306.22 88.0692 306.054 87.3424C305.833 86.1732 305.588 84.2298 306.038 83.8269Z" fill="#263238"/>
<path d="M327.139 83.187L336.619 85.3121C335.764 85.5324 335.002 86.0228 334.447 86.7104L327.131 85.32L327.139 83.187Z" fill="#263238"/>
<path d="M318.188 88.0377C318.327 88.7862 318.662 89.4843 319.16 90.0601C319.552 90.47 320.026 90.792 320.552 91.0044C321.078 91.2169 321.643 91.3151 322.209 91.2925C322.77 91.345 323.335 91.2511 323.849 91.0199C324.363 90.7886 324.808 90.4279 325.14 89.9732C325.174 89.9315 325.203 89.8865 325.227 89.8389C325.263 89.7992 325.293 89.7538 325.314 89.7046C325.314 89.6651 325.362 89.6256 325.393 89.5782L325.456 89.4597C325.456 89.4597 325.456 89.4044 325.456 89.3728C325.476 89.3472 325.489 89.3175 325.496 89.2859C325.525 89.2452 325.546 89.1998 325.559 89.1516C325.614 89.0094 325.662 88.8751 325.709 88.7408C325.74 88.6614 325.764 88.5795 325.78 88.4959C325.821 88.3693 325.853 88.2399 325.875 88.1088C325.882 88.0829 325.882 88.0556 325.875 88.0298C325.875 88.0298 325.875 87.9824 325.875 87.9587C326.088 86.9949 326.349 85.0673 325.875 84.6249C325.401 84.1825 324.129 83.669 322.051 83.8349H321.822C321.506 83.8349 321.183 83.9139 320.874 83.9692L320.503 84.0482C320.187 84.1203 319.875 84.2127 319.571 84.3247C319.476 84.3247 319.373 84.3879 319.286 84.4274C319.186 84.4773 319.083 84.5221 318.978 84.5617H318.923C318.882 84.5796 318.842 84.6008 318.805 84.6249C318.564 84.7379 318.351 84.9024 318.181 85.1068C317.825 85.6598 317.951 86.9396 318.188 88.0377Z" fill="#37474F"/>
<path d="M313.748 87.5148C313.596 88.3128 313.227 89.0571 312.679 89.671C312.248 90.108 311.726 90.4512 311.148 90.6778C310.57 90.9043 309.948 91.009 309.325 90.9849C308.708 91.0409 308.087 90.9408 307.522 90.6942C306.956 90.4477 306.467 90.0631 306.101 89.5783C306.064 89.5338 306.032 89.4859 306.006 89.4351C305.966 89.3928 305.934 89.3444 305.91 89.2919C305.91 89.2498 305.858 89.2077 305.823 89.1572L305.754 89.0308C305.754 89.0308 305.754 88.9719 305.754 88.9382C305.732 88.9109 305.717 88.8792 305.71 88.8455C305.678 88.8022 305.655 88.7537 305.641 88.7024C305.58 88.5508 305.528 88.4076 305.476 88.2644C305.442 88.1798 305.415 88.0924 305.397 88.0033C305.352 87.8684 305.317 87.7304 305.293 87.5906C305.285 87.563 305.285 87.5339 305.293 87.5064C305.293 87.5064 305.293 87.4558 305.293 87.4306C305.058 86.403 304.772 84.3479 305.293 83.8763C305.814 83.4046 307.213 82.8571 309.499 83.034H309.751C310.098 83.034 310.455 83.1182 310.794 83.1772L311.202 83.2614C311.55 83.3383 311.893 83.4368 312.227 83.5562C312.332 83.5562 312.445 83.6236 312.54 83.6657C312.651 83.7189 312.764 83.7667 312.879 83.8089H312.94C312.985 83.828 313.029 83.8506 313.07 83.8763C313.335 83.9968 313.57 84.1721 313.757 84.39C314.148 84.9796 314.009 86.3441 313.748 87.5148Z" fill="#37474F"/>
<path d="M306.291 67.553C306.291 67.4503 306.291 67.3397 306.331 67.2291C306.344 67.0249 306.418 66.8295 306.544 66.6682C306.978 66.2179 307.847 67.3555 308.124 67.6162C308.42 67.8738 308.728 68.1164 309.048 68.343C309.35 68.4931 309.64 68.6647 309.917 68.8565C309.724 67.7828 309.724 66.6832 309.917 65.6096C310.051 64.8986 310.249 63.2396 311.134 63.0737C311.655 62.9631 312.113 63.4055 312.5 63.7689C316.032 67.0711 320.645 65.5464 324.896 65.6807C328.458 65.7913 332.748 67.2607 334.376 70.7051C335.11 72.2851 335.237 73.952 333.783 75.0422C332.851 75.7532 331.934 75.7216 331.413 76.8513C331.287 77.1278 330.473 80.4932 330.955 80.4616C330.082 80.5506 329.206 80.3271 328.483 79.8309C327.76 79.3347 327.236 78.598 327.005 77.7519C326.918 77.3806 326.72 76.7091 326.641 76.3299C326.622 76.2187 326.579 76.113 326.515 76.0199C326.452 75.9268 326.369 75.8484 326.272 75.79C326.176 75.7316 326.068 75.6946 325.955 75.6815C325.843 75.6683 325.73 75.6793 325.622 75.7137C324.54 75.9507 323.837 76.3931 322.818 76.6696C319.908 77.5065 316.848 77.6873 313.859 77.1989C311.72 76.7927 309.756 75.7393 308.234 74.1811C307.462 73.2754 306.89 72.2168 306.555 71.0746C306.22 69.9324 306.13 68.7323 306.291 67.553V67.553Z" fill="#263238"/>
<path d="M320.171 81.4412L323.331 81.9231C323.386 81.5002 323.276 81.0724 323.022 80.7293C322.769 80.3862 322.393 80.1544 321.973 80.0824C321.765 80.0513 321.553 80.0618 321.349 80.1136C321.146 80.1653 320.954 80.2571 320.787 80.3836C320.619 80.5101 320.478 80.6688 320.372 80.8504C320.267 81.032 320.198 81.2329 320.171 81.4412Z" fill="#263238"/>
<path d="M319.444 95.9614L316.813 96.6487C316.851 96.824 316.923 96.99 317.025 97.1369C317.128 97.2837 317.259 97.4084 317.411 97.5035C317.563 97.5986 317.732 97.6622 317.909 97.6904C318.086 97.7186 318.267 97.7109 318.441 97.6678C318.796 97.5677 319.099 97.3343 319.286 97.0163C319.473 96.6983 319.529 96.3204 319.444 95.9614V95.9614Z" fill="#F28F8F"/>
<path d="M308.337 81.623L311.497 81.2754C311.484 81.0682 311.43 80.8656 311.336 80.6802C311.243 80.4947 311.113 80.3301 310.954 80.1963C310.795 80.0626 310.611 79.9626 310.412 79.9023C310.214 79.8419 310.005 79.8226 309.799 79.8455C309.374 79.899 308.986 80.1129 308.714 80.4435C308.442 80.774 308.307 81.1961 308.337 81.623V81.623Z" fill="#263238"/>
<path d="M316 85.968L315.573 93.3387L311.465 92.2643L315.565 85.8811C315.715 85.8762 315.864 85.906 316 85.968V85.968Z" fill="#F28F8F"/>
<path d="M333.649 91.0872C333.647 91.4688 333.759 91.8422 333.97 92.1603C334.181 92.4783 334.481 92.7266 334.833 92.8737C335.185 93.0208 335.573 93.0601 335.948 92.9866C336.322 92.9131 336.666 92.7302 336.937 92.4609C337.207 92.1916 337.391 91.8482 337.466 91.4741C337.541 91.0999 337.504 90.712 337.358 90.3593C337.212 90.0066 336.965 89.7051 336.648 89.4929C336.331 89.2808 335.958 89.1675 335.577 89.1675C335.324 89.1665 335.073 89.2153 334.839 89.3113C334.606 89.4074 334.393 89.5486 334.214 89.727C334.035 89.9053 333.893 90.1173 333.796 90.3507C333.699 90.5842 333.649 90.8344 333.649 91.0872Z" fill="#263238"/>
<path d="M333.443 87.5717C333.609 86.9889 333.9 86.4495 334.297 85.9917C334.498 85.7994 334.738 85.6533 335.002 85.5632C335.265 85.4732 335.545 85.4415 335.821 85.4703C335.821 85.4703 335.877 85.5335 335.821 85.5493C335.608 85.6757 335.458 85.7468 335.245 85.8969C335.032 86.0407 334.836 86.2076 334.66 86.3946C334.505 86.5738 334.38 86.7765 334.289 86.995C334.175 87.2455 334.101 87.5119 334.067 87.785C334.016 88.2149 334.078 88.651 334.249 89.049C334.338 89.2696 334.46 89.4749 334.613 89.6572C334.777 89.791 334.92 89.948 335.039 90.1234C335.158 90.3683 334.818 90.7869 334.557 90.6447C334.063 90.3343 333.692 89.8626 333.507 89.3097C333.275 88.7572 333.253 88.1394 333.443 87.5717V87.5717Z" fill="#263238"/>
<path d="M306.062 113.815C303.392 115.569 299.702 117.844 298.802 120.317C297.901 122.79 295.302 137.128 295.018 141.75C297.385 142.865 299.921 143.58 302.523 143.867L306.062 113.815Z" fill="#455A64"/>
<path d="M337.606 106.982C344.369 110.695 351.036 116.241 352.474 118.374C352.474 118.374 348.524 131.543 345.04 137.792C341.556 144.041 339.692 162.519 339.692 162.519C339.692 162.519 315.866 170.419 308.4 171.043C300.935 171.667 299.987 168.491 299.987 168.491C299.987 168.491 299.829 147.833 301.567 134.047C303.305 120.262 302.925 116.162 306.085 113.815C308.132 112.307 316.948 108.483 316.948 108.483V112.433C321.767 112.528 337.606 106.982 337.606 106.982Z" fill="#37474F"/>
<path d="M315.092 114.55C314.655 113.659 314.479 112.662 314.586 111.674L316.577 110.229V112.733L315.092 114.55Z" fill="#EA6767"/>
<path opacity="0.25" d="M315.092 114.55C314.655 113.659 314.479 112.662 314.586 111.674L316.577 110.229V112.733L315.092 114.55Z" fill="black"/>
<path d="M318.962 113.025L324.113 110.087L327.984 113.152L320.163 116.399L318.962 113.025Z" fill="#EA6767"/>
<path opacity="0.25" d="M318.962 113.025L324.113 110.087L327.984 113.152L320.163 116.399L318.962 113.025Z" fill="black"/>
<path d="M331.887 101.389V102.431C331.689 103.419 329.746 105.71 324.84 107.906C319.934 110.102 317.896 112.449 317.896 112.449C319.221 112.484 320.533 112.727 321.783 113.168C324.019 113.958 327.732 116.802 328.79 116.77C329.849 116.738 331.31 113.815 334.083 110.9C336.453 108.451 337.607 106.95 337.607 106.95C337.607 106.95 333.799 101.412 331.887 101.389Z" fill="#455A64"/>
<path d="M317.896 112.449C316.119 112.646 314.452 113.879 314.017 113.239C313.583 112.599 315.092 106.65 317.88 104.841L317.896 112.449Z" fill="#455A64"/>
<path d="M300.674 143.622C300.674 143.622 300.461 147.311 300.405 148.575C300.35 149.839 302.459 171.485 302.459 171.485L295.018 174.645C295.018 174.645 294.117 166.303 293.825 161.658C293.584 156.874 293.798 152.078 294.465 147.335C295.049 143.385 295.255 141.868 295.255 141.868C296.996 142.637 298.812 143.225 300.674 143.622V143.622Z" fill="#F28F8F"/>
<path d="M295.618 185.223C295.618 185.223 295.618 185.555 295.618 186.803C295.804 188.892 296.223 190.954 296.866 192.95C297.332 194.119 298.446 196.686 299.031 196.987C299.583 197.295 300.223 197.409 300.848 197.31C302.025 197.2 303.257 197.808 304.371 197.271C304.803 197.036 305.258 196.848 305.73 196.71C306.417 196.544 307.207 196.75 307.824 196.386C308.219 196.157 308.464 195.73 308.851 195.493C309.419 195.146 310.17 195.272 310.778 194.996C311.018 194.873 311.23 194.704 311.402 194.498C311.575 194.291 311.704 194.052 311.782 193.795C312.129 192.752 311.782 191.575 311.576 190.532C311.941 190.019 312.127 189.4 312.105 188.771C312.129 187.421 311.972 186.074 311.639 184.765C311.379 183.975 305.975 180.902 305.975 180.902L304.909 180.199C302.642 179.694 300.267 180.076 298.273 181.266C295.105 183.28 295.618 185.223 295.618 185.223Z" fill="#FFA8A7"/>
<path d="M297.08 185.073C295.65 187.443 296.487 191.717 296.495 191.765C296.047 190.148 295.754 188.492 295.618 186.819C295.618 185.555 295.618 185.239 295.618 185.239C295.618 185.239 295.105 183.264 298.233 181.289C300.228 180.099 302.602 179.718 304.869 180.223C304.869 180.223 298.51 182.68 297.08 185.073Z" fill="#F28F8F"/>
<path d="M311.537 190.509C311.033 188.967 310.254 187.53 309.238 186.266C308.637 185.713 308.132 185.01 308.732 185.247C309.333 185.484 310.17 185.618 310.502 185.2C310.834 184.781 310.905 185.508 310.502 186.077C310.099 186.645 310.439 187.08 310.873 188.012C311.207 188.81 311.43 189.65 311.537 190.509V190.509Z" fill="#F28F8F"/>
<path d="M350.413 118.635C352.664 119.425 352.964 125.587 352.474 131.117C351.985 136.647 347.671 149.721 345.704 154.271C343.5 159.383 342.165 162.329 340.696 163.933C339.226 165.537 336.153 166.856 332.219 168.894C328.664 170.735 326.231 171.667 320.163 173.547C313.322 175.673 310.683 175.799 309.23 176.818C307.776 177.837 307.365 180.049 305.936 180.879L304.869 180.176C302.464 180.753 300.167 181.713 298.067 183.02C297.126 183.603 296.297 184.349 295.618 185.224V186.804C295.618 186.804 293.888 187.53 292.419 184.434C290.949 181.337 290.278 176.692 291.968 174.661C293.659 172.631 299.015 169.85 303.36 168.491C307.705 167.133 309.862 165.711 314.934 162.645C320.337 159.383 324.09 157.21 326.784 155.741C327.803 155.148 328.49 154.429 328.948 152.581C329.312 151.096 330.394 146.703 331.058 143.401C332.116 137.879 334.494 121.178 350.413 118.635Z" fill="#FFA8A7"/>
<path d="M352.475 118.374C352.475 118.374 353.525 118.555 353.667 122.932C353.854 127.073 353.656 131.223 353.075 135.327C352.498 138.685 349.125 148.599 349.125 148.599C349.125 148.599 339.432 151.759 329.509 147.991C329.509 147.991 331.84 133.692 332.717 129.9C333.594 126.108 345.878 114.408 352.475 118.374Z" fill="#455A64"/>
<path d="M318.173 118.658C317.62 122.213 316.861 130.658 316.861 142.579C316.861 145.502 312.595 151.435 311.592 151.309C310.589 151.183 308.748 145.605 308.487 142.366C308.89 134.529 313.63 122.371 315.7 118.216L318.173 118.658Z" fill="#EA6767"/>
<path opacity="0.15" d="M315.542 118.556C315.588 118.439 315.641 118.326 315.7 118.216L318.173 118.658L318.023 119.701C317.092 119.602 316.221 119.199 315.542 118.556V118.556Z" fill="black"/>
<path d="M318.963 113.025C318.186 112.843 317.391 112.747 316.593 112.741C315.963 113.231 315.446 113.851 315.076 114.558C315.006 115.807 315.214 117.056 315.684 118.216C316.039 118.465 316.444 118.634 316.871 118.71C317.299 118.787 317.737 118.769 318.157 118.658C319.028 118.116 319.72 117.331 320.148 116.399C320.208 115.163 319.783 113.952 318.963 113.025V113.025Z" fill="#EA6767"/>
</svg>
