<svg width="354" height="328" viewBox="0 0 354 328" fill="none" xmlns="http://www.w3.org/2000/svg">
<path d="M52.23 303.24C121.14 336.08 232.86 336.09 301.77 303.24C370.68 270.39 370.67 217.15 301.77 184.31C232.87 151.47 121.14 151.47 52.23 184.31C-16.68 217.15 -16.67 270.4 52.23 303.24Z" fill="#F5F5F5"/>
<path d="M301.53 278.97C314.221 278.97 324.51 274.068 324.51 268.02C324.51 261.973 314.221 257.07 301.53 257.07C288.838 257.07 278.55 261.973 278.55 268.02C278.55 274.068 288.838 278.97 301.53 278.97Z" fill="#EBEBEB"/>
<path d="M47 269.59L55.13 264.9C59.6692 261.196 63.1241 256.335 65.13 250.83C67.64 243.91 67.29 238.65 65.49 236.01C63.28 232.76 57.55 233.33 57.32 240.17C56.84 253.65 52.91 263 47 269.59Z" fill="#EA6767"/>
<path opacity="0.2" d="M47 269.59L55.13 264.9C59.6692 261.196 63.1241 256.335 65.13 250.83C67.64 243.91 67.29 238.65 65.49 236.01C63.28 232.76 57.55 233.33 57.32 240.17C56.84 253.65 52.91 263 47 269.59Z" fill="black"/>
<path d="M47 270.09C46.8941 270.089 46.7914 270.054 46.7066 269.99C46.6218 269.927 46.5594 269.838 46.5282 269.737C46.4971 269.636 46.4989 269.527 46.5333 269.427C46.5678 269.327 46.6331 269.241 46.72 269.18C65.52 256.18 61.88 238.05 61.84 237.87C61.8262 237.804 61.8255 237.737 61.8379 237.671C61.8502 237.605 61.8755 237.542 61.9122 237.486C61.9489 237.43 61.9962 237.381 62.0516 237.343C62.107 237.305 62.1693 237.279 62.235 237.265C62.3006 237.251 62.3684 237.251 62.4343 237.263C62.5003 237.275 62.5631 237.301 62.6193 237.337C62.6755 237.374 62.7239 237.421 62.7617 237.477C62.7996 237.532 62.8262 237.594 62.84 237.66C62.84 237.85 66.68 256.6 47.32 270C47.226 270.064 47.1136 270.096 47 270.09Z" fill="white"/>
<path d="M30.7101 279C30.7101 279 27.8801 276.7 28.5601 273.58C29.2401 270.46 31.0701 268.22 27.9401 264.2C24.8101 260.18 23.9401 254.82 27.6801 251.92C30.5301 249.67 34.9801 252.85 36.5801 246.92C37.7601 242.58 37.3601 232.97 42.8901 229.77C48.4201 226.57 51.8901 231.39 51.0201 237.91C50.2601 243.74 49.1801 249.35 50.0201 250.91C51.6401 253.91 54.4101 253.5 54.2801 258.98C54.1701 264.08 49.3401 268.3 49.3401 268.3L30.7101 279Z" fill="#EA6767"/>
<path d="M40 274.11C39.8777 274.109 39.76 274.063 39.6682 273.983C39.5765 273.902 39.5168 273.791 39.5 273.67C38.07 261.82 41.5 241.36 44.3 235.28C44.3236 235.212 44.3613 235.151 44.4107 235.099C44.4601 235.048 44.52 235.007 44.5863 234.981C44.6526 234.954 44.7239 234.942 44.7952 234.945C44.8666 234.949 44.9364 234.967 45 235C45.0597 235.027 45.1134 235.065 45.1579 235.113C45.2025 235.161 45.2369 235.218 45.2593 235.279C45.2817 235.341 45.2915 235.406 45.2882 235.471C45.2849 235.537 45.2685 235.601 45.24 235.66C42.47 241.66 39.16 262.18 40.53 273.51C40.544 273.641 40.5057 273.772 40.4233 273.875C40.3409 273.978 40.2211 274.045 40.09 274.06L40 274.11Z" fill="white"/>
<path d="M39.7301 264.88C39.6536 264.884 39.5775 264.866 39.5101 264.83C36.0401 263.14 33.8401 257.11 33.7501 256.83C33.7256 256.768 33.7138 256.701 33.7155 256.635C33.7171 256.568 33.7321 256.502 33.7596 256.441C33.7872 256.38 33.8266 256.325 33.8757 256.28C33.9247 256.234 33.9824 256.199 34.0453 256.177C34.1081 256.154 34.1749 256.144 34.2417 256.147C34.3084 256.151 34.3738 256.168 34.4339 256.197C34.4941 256.226 34.5477 256.267 34.5917 256.318C34.6357 256.368 34.6692 256.427 34.6901 256.49C34.6901 256.55 36.8401 262.39 39.9501 263.9C40.0522 263.949 40.1344 264.032 40.1833 264.134C40.2322 264.237 40.2449 264.352 40.2193 264.463C40.1937 264.573 40.1314 264.672 40.0425 264.742C39.9536 264.812 39.8435 264.85 39.7301 264.85V264.88Z" fill="white"/>
<path d="M39.6701 268.88C39.5699 268.88 39.4721 268.849 39.3898 268.792C39.3076 268.735 39.2449 268.654 39.2101 268.56C39.1603 268.438 39.1608 268.301 39.2113 268.179C39.2619 268.058 39.3585 267.961 39.4801 267.91C45.3201 265.57 48.9601 258.62 49.0001 258.54C49.0611 258.422 49.1665 258.333 49.2931 258.293C49.4196 258.252 49.5571 258.264 49.6751 258.325C49.7931 258.386 49.8821 258.491 49.9224 258.618C49.9627 258.745 49.9511 258.882 49.8901 259C49.7301 259.3 46.0401 266.36 39.8901 268.84C39.8216 268.872 39.7457 268.886 39.6701 268.88Z" fill="white"/>
<path d="M243.8 215.08C243.8 215.08 239.43 208 239 200.31C238.57 192.62 240.26 189.42 242.58 188.5C244.9 187.58 245.08 190.41 246.27 192.08C247.46 193.75 249.89 192.8 250.79 187.59C251.69 182.38 254.97 173.59 261.79 171.88C269.29 170.02 265.27 178.82 263.38 182.25C261.49 185.68 260.03 190.36 261.27 191.63C262.51 192.9 264.44 190.55 266.27 192.73C268.5 195.36 261.57 204.83 257.59 207.12L243.8 215.08Z" fill="#EA6767"/>
<path d="M249.79 212.11C249.724 212.107 249.66 212.092 249.6 212.064C249.54 212.037 249.487 211.998 249.442 211.949C249.398 211.901 249.363 211.845 249.34 211.783C249.318 211.721 249.307 211.656 249.31 211.59C249.987 199.22 253.845 187.233 260.51 176.79C260.548 176.736 260.596 176.689 260.652 176.654C260.708 176.619 260.771 176.596 260.836 176.585C260.902 176.575 260.969 176.578 261.033 176.594C261.097 176.611 261.157 176.64 261.21 176.68C261.315 176.758 261.385 176.874 261.406 177.003C261.426 177.131 261.395 177.263 261.32 177.37C254.774 187.66 250.986 199.462 250.32 211.64C250.316 211.706 250.299 211.77 250.271 211.829C250.242 211.888 250.202 211.941 250.153 211.985C250.103 212.029 250.046 212.062 249.984 212.084C249.922 212.105 249.856 212.114 249.79 212.11Z" fill="white"/>
<path d="M250.36 206.2C250.276 206.199 250.194 206.179 250.12 206.14C247.32 204.59 245.77 199.99 245.71 199.8C245.688 199.738 245.678 199.672 245.682 199.606C245.686 199.54 245.703 199.475 245.731 199.415C245.76 199.356 245.801 199.303 245.85 199.259C245.9 199.215 245.957 199.181 246.02 199.16C246.146 199.119 246.283 199.13 246.401 199.19C246.519 199.25 246.609 199.354 246.65 199.48C246.65 199.48 248.15 203.91 250.65 205.26C250.763 205.327 250.846 205.435 250.882 205.562C250.917 205.689 250.902 205.824 250.84 205.94C250.795 206.026 250.725 206.097 250.64 206.143C250.554 206.189 250.457 206.209 250.36 206.2Z" fill="white"/>
<path d="M250.85 203.17C250.739 203.169 250.632 203.131 250.545 203.062C250.458 202.993 250.397 202.897 250.37 202.79C250.354 202.727 250.35 202.661 250.359 202.597C250.369 202.532 250.391 202.47 250.424 202.414C250.458 202.358 250.502 202.31 250.554 202.271C250.607 202.233 250.667 202.205 250.73 202.19C257.95 200.36 260.45 196.58 260.47 196.54C260.506 196.484 260.552 196.436 260.606 196.398C260.66 196.36 260.721 196.333 260.785 196.318C260.85 196.304 260.917 196.303 260.982 196.314C261.047 196.325 261.109 196.349 261.165 196.385C261.221 196.42 261.269 196.466 261.307 196.521C261.345 196.575 261.372 196.636 261.387 196.7C261.401 196.765 261.402 196.832 261.391 196.897C261.38 196.962 261.356 197.024 261.32 197.08C261.21 197.25 258.61 201.22 250.98 203.16L250.85 203.17Z" fill="white"/>
<path d="M135 199.54C135 199.54 125.41 197.2 124.91 179.24C124.38 159.86 127.26 137.24 115.91 135.41C104.56 133.58 98.26 147.41 98.4 163.56C98.53 177.7 104.23 208.4 134.96 214.42L135 199.54Z" fill="#EA6767"/>
<path opacity="0.2" d="M135 199.54C135 199.54 125.41 197.2 124.91 179.24C124.38 159.86 127.26 137.24 115.91 135.41C104.56 133.58 98.26 147.41 98.4 163.56C98.53 177.7 104.23 208.4 134.96 214.42L135 199.54Z" fill="black"/>
<path d="M135 212.58H134.91C128 211.32 122.37 207.51 118.18 201.27C105.76 182.74 109.67 148.14 110.96 142.1C110.989 141.971 111.067 141.859 111.177 141.786C111.287 141.713 111.42 141.686 111.55 141.71C111.68 141.741 111.792 141.821 111.865 141.932C111.937 142.044 111.964 142.179 111.94 142.31C110.67 148.31 106.78 182.47 119.01 200.71C120.79 203.539 123.139 205.966 125.907 207.839C128.675 209.712 131.802 210.99 135.09 211.59C135.155 211.602 135.218 211.627 135.273 211.663C135.329 211.699 135.376 211.746 135.414 211.801C135.451 211.856 135.477 211.918 135.49 211.983C135.503 212.048 135.503 212.115 135.49 212.18C135.469 212.294 135.408 212.397 135.318 212.47C135.229 212.543 135.116 212.582 135 212.58Z" fill="white"/>
<path d="M135 258.67C125.09 260.01 109 259.99 99.7101 252.67C90.4201 245.35 92.3601 239.05 95.9301 236.42C99.5001 233.79 102.6 230.79 96.4601 224.95C90.3201 219.11 80.4601 209.73 77.2601 195.66C74.0601 181.59 75.6401 172.79 81.9201 169.86C88.0101 167.02 89.6201 171.54 93.3501 180.86C97.0801 190.18 105.47 182.19 112.65 185.1C119.83 188.01 119.54 193.77 119.99 198.72C120.44 203.67 122.81 205.04 126.88 205.04C130.95 205.04 135 207.38 135 212.04V258.67Z" fill="#EA6767"/>
<path d="M135 242.33C134.957 242.34 134.913 242.34 134.87 242.33C134.44 242.21 124.19 239.23 109.26 225.52C93.3601 210.92 85.8601 189.02 85.7801 188.8C85.7418 188.674 85.7537 188.538 85.8134 188.421C85.873 188.303 85.9758 188.213 86.1001 188.17C86.2248 188.129 86.3608 188.138 86.4787 188.196C86.5966 188.254 86.6869 188.356 86.7301 188.48C86.8001 188.7 94.2301 210.36 109.94 224.78C124.66 238.31 135.03 241.34 135.14 241.37C135.203 241.388 135.262 241.419 135.313 241.46C135.364 241.501 135.407 241.552 135.439 241.61C135.47 241.667 135.49 241.73 135.497 241.796C135.504 241.861 135.499 241.927 135.48 241.99C135.448 242.091 135.383 242.179 135.297 242.24C135.21 242.301 135.106 242.333 135 242.33Z" fill="white"/>
<path d="M113.43 229C113.33 229.002 113.231 228.972 113.149 228.914C113.066 228.857 113.004 228.775 112.97 228.68C109.76 220.44 109.03 202.81 108.97 202.06C108.967 201.928 109.016 201.8 109.105 201.703C109.195 201.606 109.318 201.548 109.45 201.54C109.581 201.542 109.706 201.592 109.802 201.681C109.898 201.769 109.958 201.89 109.97 202.02C109.97 202.2 110.72 220.23 113.87 228.32C113.894 228.382 113.906 228.448 113.904 228.514C113.903 228.58 113.888 228.645 113.861 228.706C113.834 228.766 113.795 228.821 113.747 228.866C113.699 228.911 113.642 228.947 113.58 228.97C113.532 228.987 113.481 228.997 113.43 229Z" fill="white"/>
<path d="M113.35 240.85C112.428 240.857 111.507 240.811 110.59 240.71C110.524 240.702 110.461 240.681 110.403 240.649C110.346 240.617 110.295 240.573 110.254 240.521C110.213 240.469 110.183 240.41 110.165 240.346C110.147 240.282 110.142 240.216 110.15 240.15C110.158 240.084 110.179 240.021 110.211 239.963C110.243 239.906 110.287 239.855 110.339 239.814C110.391 239.773 110.45 239.743 110.514 239.725C110.578 239.707 110.644 239.702 110.71 239.71C110.8 239.71 120.11 240.77 124.38 236.42C124.425 236.367 124.479 236.325 124.541 236.294C124.603 236.264 124.67 236.246 124.739 236.243C124.808 236.24 124.877 236.251 124.941 236.276C125.005 236.301 125.064 236.338 125.113 236.387C125.162 236.435 125.201 236.493 125.226 236.557C125.252 236.621 125.264 236.689 125.262 236.758C125.26 236.827 125.243 236.895 125.214 236.957C125.184 237.019 125.142 237.075 125.09 237.12C122 240.31 116.61 240.85 113.35 240.85Z" fill="white"/>
<path d="M106.15 51.4898L105.07 45.2598L99.5099 48.9198C99.0018 47.9198 98.2817 47.0428 97.3999 46.3498L100.06 39.1498L95.0599 38.0398L91.3999 45.0398C90.0757 45.2632 88.7918 45.681 87.5899 46.2798L85.9999 40.9998L80.0599 45.6698L80.4499 51.8698C79.2402 53.2248 78.1433 54.6763 77.1699 56.2098L72.2699 55.9598L68.8299 63.6698L73.0399 65.4698C72.6003 67.0645 72.3223 68.6994 72.2099 70.3498L66.8599 75.2698L67.9299 81.5098L73.4999 77.8498C74.005 78.8488 74.7257 79.7232 75.6099 80.4098L72.9999 87.6198L77.9999 88.7198L83.2399 83.6198C84.4499 83.4298 84.1499 81.1498 85.4699 80.4998L87.0599 85.7598L92.9899 81.0998L92.8399 78.6598C94.0399 77.3198 98.5799 74.3698 99.5599 72.8298L100.79 70.8298L104.23 63.1198L102.63 60.2198L100.85 56.4398L106.15 51.4898ZM87.9999 71.9998C83.4399 75.5798 81.9999 76.3698 81.2299 71.5798C80.4599 66.7898 83.0699 59.5098 87.6299 55.9198C92.1899 52.3298 93.9299 52.0798 94.7499 56.8598C95.5699 61.6398 92.5699 68.4598 87.9999 71.9998Z" fill="#E0E0E0"/>
<path d="M95.0999 38.0398L101.59 41.7798L97.9299 48.7598L91.4399 45.0198L95.0999 38.0398Z" fill="#F5F5F5"/>
<path d="M111.56 48.9998L106 52.6598L99.51 48.9198L105.07 45.2598L111.56 48.9998Z" fill="#F5F5F5"/>
<path d="M110.67 66.8298L106.46 65.0398L99.97 61.2998L104.18 63.0898L110.67 66.8298Z" fill="#E0E0E0"/>
<path d="M72.99 87.6199L79.48 91.3499L82.14 84.1499L75.65 80.4099L72.99 87.6199Z" fill="#E0E0E0"/>
<path d="M93.4899 89.5L87.0099 85.76L85.4199 80.5L91.9099 84.24L93.4899 89.5Z" fill="#E0E0E0"/>
<path d="M112.63 55.2298L111.56 48.9998L106 52.6598C105.488 51.6594 104.765 50.7824 103.88 50.0898L106.54 42.8898L101.59 41.7798L97.9199 48.7798C96.5957 49.0032 95.3119 49.421 94.1099 50.0198L92.5299 44.7598L86.5899 49.4298L86.9799 55.6298C85.7689 56.9943 84.6719 58.4559 83.6999 59.9998L78.7899 59.7498L75.3499 67.4598L79.5599 69.2598C79.1244 70.8588 78.8464 72.4966 78.7299 74.1498L73.3899 78.9998L74.4599 85.2398L80.0199 81.5798C80.5318 82.5773 81.2553 83.451 82.1399 84.1398L79.4799 91.3398L84.4799 92.4498L88.1399 85.4498C89.4692 85.2289 90.7572 84.8074 91.9599 84.1998L93.5399 89.4598L99.4799 84.7998L99.0899 78.5998C100.3 77.2448 101.396 75.7933 102.37 74.2598L107.28 74.4998L110.72 66.7898L106.45 64.9998C106.893 63.4019 107.174 61.7638 107.29 60.1098L112.63 55.2298ZM94.4999 75.7798C89.9499 79.3598 85.5899 78.3898 84.7599 73.6098C83.9299 68.8298 86.9599 62.0398 91.5199 58.4598C96.0799 54.8798 100.43 55.8598 101.26 60.6398C102.09 65.4198 99.0599 72.1998 94.4999 75.7798Z" fill="#EBEBEB"/>
<path d="M92.5301 44.74L86.0401 41L80.1001 45.67L86.5901 49.41L92.5301 44.74Z" fill="#F5F5F5"/>
<path d="M80.1001 45.6699L80.4901 51.8699L86.9801 55.6099L86.5901 49.4099L80.1001 45.6699Z" fill="#E0E0E0"/>
<path d="M83.7001 59.95L77.2101 56.21L72.3101 55.97L78.7901 59.71L83.7001 59.95Z" fill="#F5F5F5"/>
<path d="M72.3099 55.97L68.8699 63.67L75.3499 67.41L78.7899 59.71L72.3099 55.97Z" fill="#E0E0E0"/>
<path d="M78.7299 74.0898L72.2499 70.3499L66.8999 75.2699L73.3799 79.0098L78.7299 74.0898Z" fill="#F5F5F5"/>
<path d="M74.4599 85.2498L67.9699 81.5098L66.8999 75.2698L73.3799 79.0098L74.4599 85.2498Z" fill="#E0E0E0"/>
<path d="M101.59 41.7798L95.1001 38.0398L100.06 39.1498L106.54 42.8898L101.59 41.7798Z" fill="#F5F5F5"/>
<path d="M77.09 23.2099V13.8999L69.68 17.2399C69.2875 15.6603 68.6097 14.1658 67.68 12.8299L72.35 3.41988L66.65 0.129883L60.83 8.87988C59.2081 8.73819 57.5739 8.89753 56.01 9.34988L55.19 1.25989L47.13 5.91988L46.32 14.9199C44.5658 16.4742 42.9529 18.1809 41.5 20.0199L35.68 18.0199L29.98 27.8999L34.64 31.8999C33.7789 34.0774 33.1097 36.3259 32.64 38.6199L25.23 43.8299V53.1499L32.64 49.8099C33.0325 51.3894 33.7103 52.884 34.64 54.2199L30 63.6399L35.7 66.9299L41.52 58.1799C43.1419 58.3211 44.7759 58.1618 46.34 57.7099L47.15 65.7999L55.21 61.1399L56.03 52.1399C58.5456 51.222 60.7742 49.6559 62.49 47.5999L66.67 49.0699L72.37 39.1999L68.87 36.1999C69.6298 33.6982 69.9113 31.0758 69.7 28.4699L77.09 23.2099ZM51.16 46.4699C44.98 50.0399 41.16 47.4699 41.16 40.3599C41.16 33.2499 46.27 24.4599 52.46 20.8899C58.65 17.3199 62.39 19.8899 62.39 27.0599C62.39 34.2299 57.35 42.8899 51.16 46.4699Z" fill="#E0E0E0"/>
<path d="M73.1301 3.85989L66.6501 0.129883L60.8301 8.87988L67.3101 12.6199L73.1301 3.85989Z" fill="#F5F5F5"/>
<path d="M83.5799 17.6399L77.0899 13.8999L69.6799 17.2399L76.1699 20.9799L83.5799 17.6399Z" fill="#F5F5F5"/>
<path d="M53.6101 69.5399L47.1301 65.8L46.3201 57.71L52.8001 61.45L53.6101 69.5399Z" fill="#E0E0E0"/>
<path d="M29.97 63.64L36.46 67.38L41.13 57.97L34.64 54.23L29.97 63.64Z" fill="#E0E0E0"/>
<path d="M83.58 26.9999V17.6899L76.17 20.9999C75.7816 19.4189 75.1035 17.9236 74.17 16.5899L78.84 7.17989L73.14 3.87988L67.32 12.6399C65.6981 12.4933 64.063 12.6527 62.5 13.1099L61.68 4.99989L53.62 9.65989L52.8 18.6599C51.0484 20.2168 49.4356 21.9232 47.98 23.7599L42.16 21.7599L36.46 31.6399L41.13 35.6399C40.2644 37.8158 39.595 40.0648 39.13 42.3599L31.72 47.5699V56.8899L39.13 53.5499C39.5181 55.1309 40.1963 56.6263 41.13 57.9599L36.46 67.3699L42.16 70.6599L47.98 61.9099C49.6019 62.0516 51.236 61.8922 52.8 61.4399L53.62 69.5299L61.68 64.8699L62.49 55.8699C64.2441 54.3156 65.8571 52.6089 67.31 50.7699L73.13 52.7699L78.83 42.8999L74.16 38.8999C75.0253 36.7239 75.6946 34.4749 76.16 32.1799L83.58 26.9999ZM57.65 50.2599C51.46 53.8299 46.44 50.9299 46.44 43.7899C46.44 36.6499 51.44 27.9599 57.65 24.3799C63.86 20.7999 68.85 23.7099 68.85 30.8499C68.85 37.9899 63.83 46.6299 57.65 50.2099V50.2599Z" fill="#EBEBEB"/>
<path d="M41.4999 20.04L47.9799 23.78L42.1599 21.75L35.6799 18L41.4999 20.04Z" fill="#F0F0F0"/>
<path d="M35.6793 18.0102L29.9778 27.8936L36.4656 31.6363L42.1672 21.753L35.6793 18.0102Z" fill="#F5F5F5"/>
<path d="M29.97 27.8799L36.46 31.6199L41.13 35.6399L34.64 31.9099L29.97 27.8799Z" fill="#E0E0E0"/>
<path d="M32.64 38.6299L39.13 42.3699L31.72 47.5799L25.23 43.8399L32.64 38.6299Z" fill="#F5F5F5"/>
<path d="M25.23 43.8398L31.72 47.5798V56.8998L25.23 53.1599V43.8398Z" fill="#E0E0E0"/>
<path d="M61.6799 4.99976L55.1899 1.25977L47.1299 5.91976L53.6099 9.65977L61.6799 4.99976Z" fill="#F5F5F5"/>
<path d="M144.88 272.05L238.88 217.77C239.087 217.697 239.266 217.562 239.393 217.383C239.52 217.203 239.588 216.989 239.588 216.77C239.588 216.55 239.52 216.336 239.393 216.157C239.266 215.978 239.087 215.843 238.88 215.77L230.19 210.77C229.652 210.499 229.057 210.358 228.455 210.358C227.852 210.358 227.258 210.499 226.72 210.77L132.69 265C132.483 265.073 132.303 265.208 132.176 265.387C132.05 265.566 131.981 265.78 131.981 266C131.981 266.219 132.05 266.433 132.176 266.613C132.303 266.792 132.483 266.927 132.69 267L141.41 272C141.944 272.278 142.536 272.428 143.139 272.437C143.742 272.445 144.338 272.313 144.88 272.05Z" fill="#E0E0E0"/>
<path d="M236.3 8.19996L151.54 57.14C150.28 57.9622 149.231 59.0697 148.479 60.3727C147.727 61.6758 147.292 63.1376 147.21 64.64V265.71C147.21 268.47 149.15 269.59 151.54 268.21L236.3 219.27C237.562 218.449 238.611 217.342 239.364 216.039C240.116 214.736 240.55 213.273 240.63 211.77V10.7C240.63 7.93996 238.7 6.81996 236.3 8.19996Z" fill="#455A64"/>
<path d="M151.54 57.1399L236.3 8.19991C238.44 6.95991 240.21 7.72991 240.57 9.87991C240.37 8.52815 239.886 7.23405 239.15 6.08271C238.414 4.93137 237.443 3.94889 236.3 3.19991L232.78 1.19991C231.438 0.519106 229.954 0.164307 228.45 0.164307C226.945 0.164307 225.462 0.519106 224.12 1.19991L139.35 50.0999C138.073 50.9005 137.02 52.0118 136.29 53.3299L148.48 60.3299C149.21 59.0222 150.264 57.9238 151.54 57.1399Z" fill="#37474F"/>
<path d="M135 258.67C135.082 260.172 135.517 261.634 136.269 262.937C137.021 264.24 138.07 265.348 139.33 266.17L142.86 268.17C144.082 268.781 145.419 269.127 146.784 269.186C148.149 269.244 149.51 269.014 150.78 268.51C148.78 269.29 147.19 268.14 147.19 265.67V64.6399C147.24 63.1312 147.677 61.6607 148.46 60.3699L136.27 53.3699C135.498 54.6509 135.062 56.1056 135 57.5999V258.67Z" fill="#263238"/>
<path d="M153.87 83.93L234 37.68C235.44 36.86 236.6 37.53 236.6 39.18V188C236.552 188.902 236.291 189.78 235.839 190.562C235.387 191.344 234.757 192.008 234 192.5L153.9 238.75C152.46 239.58 151.3 238.91 151.3 237.25V88.43C151.345 87.5309 151.602 86.6552 152.048 85.8734C152.495 85.0917 153.119 84.426 153.87 83.93Z" fill="white"/>
<path d="M193.92 40.2899C193.478 40.5803 193.11 40.9704 192.846 41.4289C192.582 41.8875 192.429 42.4016 192.4 42.9299C192.4 43.9299 193.08 44.2999 193.92 43.8099C194.364 43.5213 194.733 43.1316 194.997 42.6727C195.262 42.2138 195.413 41.6987 195.44 41.1699C195.44 40.1999 194.76 39.8099 193.92 40.2899Z" fill="#37474F"/>
<path d="M193.92 222.74C192.172 223.883 190.718 225.423 189.675 227.233C188.633 229.043 188.031 231.074 187.92 233.16C187.92 236.99 190.61 238.55 193.92 236.63C195.668 235.486 197.121 233.946 198.164 232.136C199.206 230.326 199.808 228.296 199.92 226.21C199.94 222.38 197.24 220.82 193.92 222.74Z" fill="#37474F"/>
<path d="M179.53 55.77C178.651 56.3534 177.922 57.1352 177.4 58.0523C176.879 58.9695 176.581 59.9963 176.53 61.05C176.53 62.99 177.89 63.7799 179.53 62.8099C180.418 62.2321 181.157 61.4527 181.687 60.5352C182.217 59.6177 182.523 58.588 182.58 57.5299C182.58 55.5899 181.22 54.8 179.53 55.77Z" fill="#37474F"/>
<path d="M187 55.1098C187 56.4098 188 56.8998 189.17 56.2098L209.17 44.6398C209.79 44.2529 210.309 43.7252 210.686 43.0996C211.063 42.4741 211.287 41.7683 211.34 41.0398C211.34 39.7498 210.34 39.2598 209.17 39.9498L189.17 51.5198C188.552 51.9057 188.033 52.4319 187.656 53.0556C187.279 53.6793 187.054 54.383 187 55.1098Z" fill="#37474F"/>
<path d="M141.76 90.3699C142.469 90.8321 143.06 91.4551 143.484 92.1883C143.908 92.9215 144.153 93.7443 144.2 94.5899C144.2 96.1499 143.11 96.7799 141.76 95.9999C141.053 95.536 140.464 94.9124 140.042 94.1794C139.62 93.4464 139.376 92.6245 139.33 91.7799C139.33 90.2299 140.42 89.5999 141.76 90.3699Z" fill="#37474F"/>
<path d="M141.76 109.15C142.469 109.612 143.06 110.235 143.484 110.968C143.908 111.702 144.153 112.524 144.2 113.37C144.2 114.92 143.11 115.55 141.76 114.78C141.053 114.316 140.464 113.692 140.042 112.959C139.62 112.226 139.376 111.405 139.33 110.56C139.33 109 140.42 108.37 141.76 109.15Z" fill="#37474F"/>
<path d="M141 90.7499C141.709 91.2121 142.3 91.8351 142.724 92.5683C143.148 93.3015 143.393 94.1242 143.44 94.9699C143.44 96.5199 142.35 97.1499 141 96.3799C140.29 95.9176 139.699 95.2947 139.275 94.5615C138.852 93.8283 138.606 93.0055 138.56 92.1599C138.57 90.5999 139.66 89.9999 141 90.7499Z" fill="#455A64"/>
<path d="M141 109.52C141.711 109.983 142.302 110.608 142.726 111.343C143.15 112.078 143.395 112.902 143.44 113.75C143.44 115.3 142.35 115.93 141 115.15C140.288 114.689 139.696 114.067 139.272 113.333C138.848 112.6 138.604 111.776 138.56 110.93C138.57 109.38 139.66 108.75 141 109.52Z" fill="#455A64"/>
<path d="M252.82 43.8898C252.82 42.2298 251.66 41.5598 250.22 42.3898L240.63 47.9198L170.12 88.6398C169.362 89.1319 168.732 89.796 168.28 90.5781C167.828 91.3601 167.568 92.2379 167.52 93.1398V241.92C167.52 243.58 168.68 244.25 170.12 243.42L240.66 202.69L250.22 197.17C250.977 196.678 251.607 196.014 252.059 195.232C252.511 194.449 252.772 193.572 252.82 192.67V43.8898Z" fill="white"/>
<path d="M253.82 43.89C253.883 43.3885 253.796 42.8796 253.572 42.427C253.347 41.9743 252.994 41.5979 252.556 41.345C252.118 41.0921 251.616 40.9737 251.112 41.0049C250.607 41.036 250.123 41.2152 249.72 41.52L240.57 46.81L169.62 87.81C168.706 88.3866 167.947 89.1767 167.407 90.1123C166.867 91.0478 166.562 92.1006 166.52 93.18V241.92C166.48 242.419 166.576 242.92 166.798 243.369C167.019 243.818 167.359 244.199 167.78 244.47C168.138 244.678 168.546 244.785 168.96 244.78C169.546 244.762 170.118 244.593 170.62 244.29L241.62 203.29L250.75 198.02C251.658 197.438 252.414 196.646 252.953 195.712C253.492 194.778 253.8 193.728 253.85 192.65L253.82 43.89ZM240.59 201.58L239.77 202.06L169.66 242.54C169.542 242.631 169.406 242.694 169.26 242.725C169.115 242.756 168.964 242.754 168.82 242.72C168.69 242.64 168.56 242.36 168.56 241.9V93.14C168.612 92.4139 168.828 91.7091 169.191 91.0786C169.555 90.448 170.057 89.9083 170.66 89.5L240.7 49L250.7 43.21C250.818 43.1195 250.954 43.0564 251.1 43.0252C251.245 42.9941 251.395 42.9957 251.54 43.03C251.67 43.11 251.8 43.39 251.8 43.85V192.67C251.748 193.396 251.532 194.101 251.168 194.732C250.805 195.362 250.303 195.902 249.7 196.31L240.57 201.58H240.59Z" fill="#EA6767"/>
<path d="M210.17 78.46C219.17 73.28 226.42 77.46 226.42 87.85C226.42 98.24 219.14 110.85 210.17 115.99C201.2 121.13 193.92 116.99 193.92 106.61C193.92 96.2299 201.2 83.65 210.17 78.46Z" fill="#EA6767"/>
<path d="M210.17 86.6199C213.08 84.9399 215.44 86.2999 215.44 89.6199C215.341 91.4489 214.812 93.2287 213.897 94.8151C212.981 96.4014 211.704 97.7495 210.17 98.7499C207.26 100.43 204.9 99.0699 204.9 95.7499C204.999 93.9209 205.527 92.1411 206.443 90.5547C207.359 88.9684 208.636 87.6203 210.17 86.6199Z" fill="#EA6767"/>
<path d="M220.44 104.54C220.44 99.0198 216.57 96.7798 211.78 99.5398L208.78 101.27C204 104.03 200.12 110.75 200.12 116.27V117.76C202.89 118.67 206.37 118.18 210.12 115.99C214.274 113.427 217.787 109.949 220.39 105.82L220.44 104.54Z" fill="#EA6767"/>
<path opacity="0.7" d="M210.17 86.6199C213.08 84.9399 215.44 86.2999 215.44 89.6199C215.341 91.4489 214.812 93.2287 213.897 94.8151C212.981 96.4014 211.704 97.7495 210.17 98.7499C207.26 100.43 204.9 99.0699 204.9 95.7499C204.999 93.9209 205.527 92.1411 206.443 90.5547C207.359 88.9684 208.636 87.6203 210.17 86.6199Z" fill="white"/>
<path opacity="0.7" d="M220.44 104.54C220.44 99.0198 216.57 96.7798 211.78 99.5398L208.78 101.27C204 104.03 200.12 110.75 200.12 116.27V117.76C202.89 118.67 206.37 118.18 210.12 115.99C214.274 113.427 217.787 109.949 220.39 105.82L220.44 104.54Z" fill="white"/>
<path d="M178.73 138.84L199.64 126.77C200.64 126.22 201.37 126.66 201.37 127.77V128.46C201.338 129.061 201.165 129.646 200.865 130.167C200.564 130.689 200.144 131.132 199.64 131.46L178.73 143.53C177.78 144.08 177 143.63 177 142.53V141.84C177.032 141.239 177.206 140.654 177.507 140.133C177.807 139.612 178.226 139.169 178.73 138.84Z" fill="#EA6767"/>
<path opacity="0.1" d="M178.73 138.84L199.64 126.77C200.64 126.22 201.37 126.66 201.37 127.77V128.46C201.338 129.061 201.165 129.646 200.865 130.167C200.564 130.689 200.144 131.132 199.64 131.46L178.73 143.53C177.78 144.08 177 143.63 177 142.53V141.84C177.032 141.239 177.206 140.654 177.507 140.133C177.807 139.612 178.226 139.169 178.73 138.84Z" fill="black"/>
<path d="M177.87 153.41L241.13 116.89C241.6 116.61 241.99 116.83 241.99 117.39V124.77C241.972 125.069 241.886 125.361 241.736 125.621C241.587 125.881 241.38 126.103 241.13 126.27L177.87 162.79C177.39 163.07 177 162.84 177 162.29V154.91C177.017 154.609 177.105 154.317 177.256 154.056C177.407 153.796 177.617 153.574 177.87 153.41Z" fill="#EA6767"/>
<path opacity="0.2" d="M177.87 153.41L241.13 116.89C241.6 116.61 241.99 116.83 241.99 117.39V124.77C241.972 125.069 241.886 125.361 241.736 125.621C241.587 125.881 241.38 126.103 241.13 126.27L177.87 162.79C177.39 163.07 177 162.84 177 162.29V154.91C177.017 154.609 177.105 154.317 177.256 154.056C177.407 153.796 177.617 153.574 177.87 153.41Z" fill="white"/>
<path d="M178.73 171.67L199.64 159.6C200.64 159.05 201.37 159.5 201.37 160.6V161.29C201.339 161.891 201.166 162.476 200.866 162.998C200.565 163.519 200.145 163.962 199.64 164.29L178.73 176.36C177.78 176.92 177 176.47 177 175.36V174.67C177.034 174.07 177.208 173.485 177.509 172.964C177.809 172.444 178.227 172 178.73 171.67Z" fill="#EA6767"/>
<path opacity="0.1" d="M178.73 171.67L199.64 159.6C200.64 159.05 201.37 159.5 201.37 160.6V161.29C201.339 161.891 201.166 162.476 200.866 162.998C200.565 163.519 200.145 163.962 199.64 164.29L178.73 176.36C177.78 176.92 177 176.47 177 175.36V174.67C177.034 174.07 177.208 173.485 177.509 172.964C177.809 172.444 178.227 172 178.73 171.67Z" fill="black"/>
<path d="M177.87 186.24L241.13 149.72C241.6 149.44 241.99 149.67 241.99 150.22V157.6C241.972 157.899 241.886 158.191 241.736 158.451C241.587 158.711 241.38 158.933 241.13 159.1L177.87 195.62C177.39 195.9 177 195.68 177 195.12V187.74C177.017 187.439 177.105 187.147 177.256 186.886C177.407 186.626 177.617 186.404 177.87 186.24Z" fill="#EA6767"/>
<path opacity="0.2" d="M177.87 186.24L241.13 149.72C241.6 149.44 241.99 149.67 241.99 150.22V157.6C241.972 157.899 241.886 158.191 241.736 158.451C241.587 158.711 241.38 158.933 241.13 159.1L177.87 195.62C177.39 195.9 177 195.68 177 195.12V187.74C177.017 187.439 177.105 187.147 177.256 186.886C177.407 186.626 177.617 186.404 177.87 186.24Z" fill="white"/>
<path d="M203.1 190.43L228.1 176.02C229.1 175.46 229.84 175.91 229.84 177.02V184.74C229.807 185.342 229.632 185.927 229.33 186.449C229.028 186.97 228.606 187.413 228.1 187.74L203.1 202.16C202.1 202.71 201.37 202.26 201.37 201.16V193.43C201.405 192.83 201.579 192.246 201.88 191.725C202.18 191.204 202.598 190.761 203.1 190.43Z" fill="#EA6767"/>
<path opacity="0.1" d="M203.1 190.43L228.1 176.02C229.1 175.46 229.84 175.91 229.84 177.02V184.74C229.807 185.342 229.632 185.927 229.33 186.449C229.028 186.97 228.606 187.413 228.1 187.74L203.1 202.16C202.1 202.71 201.37 202.26 201.37 201.16V193.43C201.405 192.83 201.579 192.246 201.88 191.725C202.18 191.204 202.598 190.761 203.1 190.43Z" fill="black"/>
<path d="M262.3 157.85C262.3 157.85 250.02 140.91 249.3 138.85C248.73 137.33 249.3 135.07 249.48 134.02C249.66 132.97 249.82 130.63 250 130.02C250.3 128.88 248.83 129.11 248 130.15C247.17 131.19 246.89 133.27 246.46 133.61C246.03 133.95 242.76 129.18 241.05 126.98C239.34 124.78 238.27 123.44 237.22 124.26C236.47 124.85 237.03 126.13 238.27 128.01C238.994 129.022 239.662 130.074 240.27 131.16C240.46 131.57 239.44 131.6 238.89 132.45C238.46 133.11 238.89 134.18 238.29 134.69C237.921 134.971 237.668 135.378 237.579 135.833C237.491 136.289 237.573 136.761 237.81 137.16C238.923 138.908 240.359 140.428 242.04 141.64C243.88 142.91 244.62 143.36 245.71 145.09C246.8 146.82 256.58 164.49 257.24 165.55C257.9 166.61 259.17 168.77 261.1 168.83C263.03 168.89 278.83 155.29 279.64 154.61C282.24 152.44 283.07 152.13 283.51 154.08C283.662 154.773 283.775 155.474 283.85 156.18C284.16 158.66 285.85 167.52 285.85 167.52C285.85 167.52 293.85 171.39 300.42 169.52C306.99 167.65 309.21 164.86 309.21 164.86L305.92 159.5C306.81 157.29 310.92 148.33 312.25 142.06L291.65 138.73C291.23 138.64 290.55 138.47 289.65 138.24C288.52 137.94 285.65 136.95 283.48 138.85C276.4 145.02 262.32 157.85 262.32 157.85" fill="#FFA8A7"/>
<path d="M303.14 261.79L299.45 266.92C301.127 267.703 302.96 268.096 304.81 268.07C308.12 268.19 309.03 267.07 309.15 266.85C309.71 265.65 308.84 263.49 308.6 261.63L303.14 261.79Z" fill="#37474F"/>
<path d="M299.66 264.46C299.66 264.46 295.18 264.17 292.09 263.79C289 263.41 286.55 264.91 287.27 266.18C287.99 267.45 289.7 268.51 292.36 269.4C294.63 270.17 297.36 270.72 299.72 271.4C302.08 272.08 303.72 272.97 305.09 272.49C306.62 271.96 307.28 271.35 307.15 270.23C306.816 268.637 306.402 267.062 305.91 265.51L299.66 264.46Z" fill="#37474F"/>
<path d="M309.15 256.64C309.15 256.64 308.59 261.3 308.55 262.3C308.51 263.3 304 263.62 303.14 261.79L303 256.09L309.15 256.64Z" fill="#F28F8F"/>
<path d="M304.61 259.5L306.22 266.58C306.22 266.58 306.37 267.44 302.69 267.99C299.01 268.54 293.23 266.06 292.24 265.56C291.25 265.06 291.14 264.05 294.76 264.25C298.38 264.45 299.66 264.46 299.66 264.46L298.48 261.33L304.61 259.5Z" fill="#FFA8A7"/>
<path d="M312.19 142L314.74 141.29C314.74 141.29 320.07 158.16 320.66 159.79C321.25 161.42 321.92 163.14 320.77 165.15C319.4 167.54 312.19 177.15 312.19 177.15L307.61 172.67L312.81 163.15L308.21 153.85L312.19 142Z" fill="#F28F8F"/>
<path d="M286 120.09C285.402 118.968 285.099 117.712 285.118 116.441C285.137 115.169 285.479 113.924 286.11 112.82C288.65 108.11 294.31 105.82 301.05 106.69C304.17 107.1 307.85 109.69 309.86 113.56C312.08 117.85 312.29 126.49 312.86 129.76L286 120.09Z" fill="#37474F"/>
<path d="M285.82 121.94C285.82 121.94 284.22 124.99 284.5 125.27C284.914 125.512 285.368 125.681 285.84 125.77L285.82 121.94Z" fill="#FFA8A7"/>
<path d="M290.68 112.3C288.94 113.43 285.94 115.51 285.81 122.36C285.67 129.36 286.67 131.67 287.71 132.48C288.41 133.03 292.52 132.75 294.28 132.34C296.04 131.93 301.11 129.42 302.94 125.61C305.09 121.13 304.65 114.61 301.46 112.61C299.836 111.65 297.996 111.118 296.11 111.063C294.225 111.009 292.356 111.435 290.68 112.3Z" fill="#FFA8A7"/>
<path d="M309.15 164.82C312.23 169.62 315.15 173.82 315.79 179.24C317.11 190.63 312.79 203.65 311.86 212.08C313.609 214.478 314.617 217.335 314.76 220.3C314.76 223.79 309.15 256.64 309.15 256.64C309.15 256.64 305.07 257.88 303 256.09L299.15 195.66L301.15 188.3L309.15 164.82Z" fill="#EA6767"/>
<path opacity="0.2" d="M309.15 164.82C312.23 169.62 315.15 173.82 315.79 179.24C317.11 190.63 312.79 203.65 311.86 212.08C313.609 214.478 314.617 217.335 314.76 220.3C314.76 223.79 309.15 256.64 309.15 256.64C309.15 256.64 305.07 257.88 303 256.09L299.15 195.66L301.15 188.3L309.15 164.82Z" fill="black"/>
<path d="M299.15 195.66L301.15 188.3C304.979 187.292 308.673 185.825 312.15 183.93C312.15 183.93 310.07 187.72 304.09 189.8L301 199.25L300.74 220.9L299.15 195.66Z" fill="#EA6767"/>
<path opacity="0.3" d="M299.15 195.66L301.15 188.3C304.979 187.292 308.673 185.825 312.15 183.93C312.15 183.93 310.07 187.72 304.09 189.8L301 199.25L300.74 220.9L299.15 195.66Z" fill="black"/>
<path d="M309.15 164.82C310.8 167.52 314.74 172.12 313.9 176.55C312.9 181.91 310 185.68 301.18 188.3L292.9 218.3C292.9 218.3 297.21 222.3 298.53 226.17C299.85 230.04 304.61 259.52 304.61 259.52C304.61 259.52 303.13 261.93 298.48 261.35C298.48 261.35 282.27 224.35 281.13 221.94C279.746 219.499 279.261 216.651 279.76 213.89C280.27 210.01 285.76 167.54 285.76 167.54L309.15 164.82Z" fill="#EA6767"/>
<path opacity="0.2" d="M309.15 164.82C310.8 167.52 314.74 172.12 313.9 176.55C312.9 181.91 310 185.68 301.18 188.3L292.9 218.3C292.9 218.3 297.21 222.3 298.53 226.17C299.85 230.04 304.61 259.52 304.61 259.52C304.61 259.52 303.13 261.93 298.48 261.35C298.48 261.35 282.27 224.35 281.13 221.94C279.746 219.499 279.261 216.651 279.76 213.89C280.27 210.01 285.76 167.54 285.76 167.54L309.15 164.82Z" fill="black"/>
<path d="M312.19 142L291.59 138.67C291.17 138.58 290.49 138.41 289.59 138.18C289.59 138.18 288.71 151.1 283.42 154.06C283.55 154.68 283.66 155.37 283.76 156.16C284.07 158.64 285.76 167.5 285.76 167.5C285.76 167.5 293.76 171.37 300.33 169.5C306.9 167.63 309.12 164.84 309.12 164.84L305.83 159.48C306.75 157.25 310.89 148.29 312.19 142Z" fill="#EA6767"/>
<path opacity="0.7" d="M312.19 142L291.59 138.67C291.17 138.58 290.49 138.41 289.59 138.18C289.59 138.18 288.71 151.1 283.42 154.06C283.55 154.68 283.66 155.37 283.76 156.16C284.07 158.64 285.76 167.5 285.76 167.5C285.76 167.5 293.76 171.37 300.33 169.5C306.9 167.63 309.12 164.84 309.12 164.84L305.83 159.48C306.75 157.25 310.89 148.29 312.19 142Z" fill="white"/>
<path d="M306.76 157.35C304.024 158.993 301.158 160.407 298.19 161.58C300.884 161.526 303.521 160.797 305.86 159.46L306.76 157.35Z" fill="#EA6767"/>
<path d="M290.17 112.64C290.17 112.64 289.17 119.14 291.53 122.96C291.53 122.96 292.41 120.37 294.6 120.86C296.79 121.35 296.91 124.24 295.37 125.86C294.978 126.314 294.467 126.649 293.894 126.826C293.321 127.003 292.709 127.015 292.13 126.86C292.13 126.86 291.78 131.56 291.59 135.5C291.4 139.44 290.36 148.03 294.79 151.5C299.22 154.97 310.34 156.19 315.55 148.91C318.45 144.86 314.6 137.7 312.81 129.67C311.16 122.29 310.23 111.35 302.4 109.59C294.57 107.83 290.17 112.64 290.17 112.64Z" fill="#37474F"/>
<path d="M318.9 23.8301L317.25 24.8301C317.389 24.243 317.466 23.6431 317.48 23.0401C317.48 19.6901 315.13 18.3401 312.23 20.0401C311.348 20.5724 310.56 21.2484 309.9 22.0401C309.9 17.5401 306.74 15.7101 302.84 17.9601C300.785 19.3003 299.075 21.1062 297.848 23.2311C296.621 25.356 295.913 27.7401 295.78 30.1901C295.78 30.4201 295.78 30.6401 295.78 30.8601C294.775 30.7337 293.759 30.9675 292.91 31.5201C291.382 32.5158 290.11 33.8578 289.198 35.4372C288.286 37.0166 287.759 38.7889 287.66 40.6101C287.66 41.0334 287.703 41.4557 287.79 41.8701L286.91 42.3801C284.52 43.7601 282.58 46.4501 282.58 48.3801C282.58 50.3101 284.52 50.7701 286.91 49.3801L318.91 30.9301C321.3 29.5501 323.24 26.8601 323.24 24.9301C323.24 23.0001 321.29 22.4401 318.9 23.8301Z" fill="#EBEBEB"/>
</svg>
