<svg width="369" height="363" viewBox="0 0 369 363" fill="none" xmlns="http://www.w3.org/2000/svg">
<path d="M316.631 188.688C247.624 148.849 136.113 148.849 67.5518 188.688C-1.00899 228.528 -0.647087 293.124 68.3218 332.963C137.291 372.803 248.848 372.811 317.409 332.963C385.97 293.116 385.647 228.528 316.631 188.688Z" fill="#F5F5F5"/>
<path d="M72.0797 258.967L129.691 225.726L199.676 266.112C200.094 266.354 200.44 266.7 200.681 267.118C200.922 267.536 201.049 268.009 201.049 268.491C201.049 268.973 200.922 269.447 200.681 269.865C200.44 270.282 200.094 270.629 199.676 270.871L180.773 281.774C192.415 280.38 204.982 282.298 213.983 287.526C228.205 295.788 228.128 309.186 213.821 317.456C199.515 325.726 176.376 325.718 162.154 317.456C153.145 312.22 149.88 304.928 152.337 298.206L148.895 300.185C146.81 301.387 144.445 302.021 142.038 302.021C139.631 302.021 137.266 301.387 135.181 300.185L72.0797 263.725C71.6624 263.484 71.316 263.137 71.0751 262.719C70.8343 262.301 70.7075 261.828 70.7075 261.346C70.7075 260.864 70.8343 260.39 71.0751 259.973C71.316 259.555 71.6624 259.208 72.0797 258.967Z" fill="#E6E6E6"/>
<path d="M70.3242 319.15L108.747 296.966C109.006 296.817 109.221 296.602 109.371 296.343C109.521 296.084 109.6 295.79 109.6 295.491C109.6 295.192 109.521 294.899 109.371 294.64C109.221 294.381 109.006 294.166 108.747 294.017L74.8672 274.336C74.6091 274.185 74.3154 274.105 74.0164 274.105C73.7173 274.105 73.4237 274.185 73.1655 274.336L33.8801 297.012C33.621 297.161 33.4059 297.376 33.2562 297.635C33.1066 297.894 33.0278 298.188 33.0278 298.487C33.0278 298.786 33.1066 299.079 33.2562 299.338C33.4059 299.597 33.621 299.812 33.8801 299.961L66.89 319.142C67.4106 319.447 68.0028 319.608 68.6061 319.609C69.2094 319.611 69.8023 319.452 70.3242 319.15Z" fill="#E6E6E6"/>
<path d="M342.104 286.44C343.936 287.503 343.944 289.22 342.104 290.29L334.612 294.61C333.585 295.134 332.449 295.407 331.297 295.407C330.144 295.407 329.008 295.134 327.982 294.61L245.777 247.108C243.936 246.054 243.929 244.329 245.777 243.258L253.269 238.931C254.295 238.407 255.431 238.134 256.584 238.134C257.736 238.134 258.872 238.407 259.898 238.931L342.104 286.44Z" fill="#E6E6E6"/>
<path d="M319.034 293.231C320.874 294.294 320.882 296.011 319.034 297.081L311.542 301.409C310.516 301.933 309.38 302.206 308.227 302.206C307.075 302.206 305.939 301.933 304.912 301.409L234.688 260.845C232.856 259.79 232.84 258.066 234.688 256.995L242.18 252.668C243.207 252.144 244.343 251.871 245.495 251.871C246.648 251.871 247.784 252.144 248.81 252.668L319.034 293.231Z" fill="#E6E6E6"/>
<path d="M80.7344 75.3138L80.7883 95.8189L83.2754 97.2665L83.2061 73.8816L80.7344 75.3138Z" fill="#F0F0F0"/>
<path d="M53.9614 111.311L53.9691 114.183L83.2753 97.2664L80.7882 95.8188L53.9614 111.311Z" fill="#F5F5F5"/>
<path d="M86.2399 68.707L50.8892 89.0966L50.9739 119.35L86.2861 98.9603L86.2399 68.707ZM53.9692 114.183V111.311L53.8999 90.806L80.7344 75.3136L83.2061 73.9199L83.2754 97.3048L53.9692 114.183Z" fill="#E0E0E0"/>
<path d="M86.2021 68.7071L83.715 67.2595L48.4028 87.6491L50.8899 89.089L86.2021 68.7071Z" fill="#F5F5F5"/>
<path d="M48.4023 87.6492L48.487 117.926L50.9741 119.373L50.8894 89.0891L48.4023 87.6492Z" fill="#F0F0F0"/>
<path d="M80.7114 121.336L80.773 141.842L83.2601 143.281L83.1908 119.904L80.7114 121.336Z" fill="#F0F0F0"/>
<path d="M53.9463 157.326L53.954 160.206L83.2602 143.282L80.7731 141.842L53.9463 157.326Z" fill="#F5F5F5"/>
<path d="M86.1862 114.73L50.874 135.112L50.9587 165.388L86.2401 144.999L86.1862 114.73ZM53.954 160.206V157.326L53.9001 136.821L80.7269 121.337L83.2063 119.904L83.2756 143.282L53.954 160.206Z" fill="#E0E0E0"/>
<path d="M86.186 114.722L83.6989 113.282L48.3867 133.664L50.8738 135.112L86.186 114.722Z" fill="#F5F5F5"/>
<path d="M48.3867 133.664L48.4714 163.941L50.9585 165.388L50.8738 135.112L48.3867 133.664Z" fill="#F0F0F0"/>
<path d="M72.2107 83.0984L79.5257 88.8657L79.5411 94.4867L55.2014 108.539L55.186 102.91L59.8291 93.7013L63.9948 96.9353L62.5164 101.509L64.657 97.4435L72.2107 83.0984Z" fill="#E0E0E0"/>
<path d="M64.2101 85.9397C65.3574 85.2775 66.2891 85.8088 66.2968 87.1255C66.2577 87.8433 66.0498 88.5416 65.6898 89.1638C65.3299 89.786 64.8282 90.3144 64.2255 90.706C63.0782 91.3682 62.1465 90.8369 62.1465 89.5202C62.1841 88.8031 62.3906 88.1049 62.7492 87.4827C63.1078 86.8605 63.6084 86.3318 64.2101 85.9397Z" fill="#E0E0E0"/>
<path d="M72.1874 129.121L79.5024 134.881L79.5255 140.51L55.1858 154.562L55.1704 148.933L59.8058 139.717L63.9715 142.951L62.5008 147.524L64.6337 143.466L72.1874 129.121Z" fill="#E0E0E0"/>
<path d="M64.1949 131.955C65.3423 131.293 66.2739 131.824 66.2739 133.141C66.2382 133.858 66.0324 134.557 65.6737 135.18C65.3149 135.802 64.8133 136.331 64.2103 136.721C63.063 137.383 62.1313 136.852 62.1313 135.535C62.1671 134.818 62.3729 134.119 62.7316 133.496C63.0904 132.874 63.592 132.346 64.1949 131.955Z" fill="#E0E0E0"/>
<path d="M343.359 100.778C342.697 99.4139 341.64 98.2814 340.325 97.5283L261.277 52.5603C260.912 52.4206 260.527 52.3425 260.137 52.3293C256.071 52.2523 251.983 56.0792 251.405 58.0966C251.274 58.3515 251.206 58.6339 251.205 58.9205V229.822C251.205 231.157 251.558 232.467 252.229 233.621C252.9 234.775 253.864 235.73 255.024 236.39L334.072 281.435C334.17 281.483 334.27 281.524 334.373 281.558C339.093 283.56 344.113 279.402 344.113 275.044V104.104C344.119 102.952 343.861 101.814 343.359 100.778Z" fill="#263238"/>
<path d="M251.413 58.1046C251.991 56.0872 256.079 52.2603 260.145 52.3373C260.535 52.3506 260.92 52.4287 261.284 52.5683L340.34 97.5286C341.496 98.1959 342.459 99.1521 343.134 100.304C343.809 101.455 344.173 102.762 344.19 104.097V275.037C344.19 279.395 339.17 283.553 334.45 281.551C334.347 281.516 334.247 281.475 334.15 281.428L255.024 236.39C253.866 235.73 252.903 234.774 252.233 233.62C251.564 232.466 251.212 231.156 251.213 229.822V58.9285C251.213 58.6419 251.282 58.3595 251.413 58.1046Z" fill="#455A64"/>
<path d="M333.118 122.168C333.116 121.501 332.938 120.846 332.603 120.269C332.268 119.691 331.787 119.213 331.208 118.88L257.812 77.1309C257.525 76.9679 257.2 76.8831 256.87 76.8848C256.54 76.8865 256.216 76.9748 255.931 77.1408C255.646 77.3068 255.409 77.5447 255.245 77.8307C255.08 78.1168 254.994 78.441 254.994 78.771V216.64C254.995 217.306 255.172 217.961 255.507 218.537C255.842 219.113 256.324 219.59 256.903 219.92L330.33 261.746C330.618 261.909 330.944 261.993 331.275 261.991C331.606 261.989 331.93 261.9 332.216 261.733C332.502 261.567 332.739 261.328 332.904 261.041C333.069 260.754 333.156 260.429 333.156 260.098L333.118 122.168Z" fill="#EA6767"/>
<path opacity="0.2" d="M333.118 122.168C333.116 121.501 332.938 120.846 332.603 120.269C332.268 119.691 331.787 119.213 331.208 118.88L257.812 77.1309C257.525 76.9679 257.2 76.8831 256.87 76.8848C256.54 76.8865 256.216 76.9748 255.931 77.1408C255.646 77.3068 255.409 77.5447 255.245 77.8307C255.08 78.1168 254.994 78.441 254.994 78.771V216.64C254.995 217.306 255.172 217.961 255.507 218.537C255.842 219.113 256.324 219.59 256.903 219.92L330.33 261.746C330.618 261.909 330.944 261.993 331.275 261.991C331.606 261.989 331.93 261.9 332.216 261.733C332.502 261.567 332.739 261.328 332.904 261.041C333.069 260.754 333.156 260.429 333.156 260.098L333.118 122.168Z" fill="black"/>
<path opacity="0.3" d="M344.144 104.096V275.036C344.144 279.395 339.124 283.553 334.404 281.551C334.688 281.653 334.992 281.686 335.291 281.646C335.59 281.606 335.875 281.495 336.123 281.323C336.37 281.15 336.573 280.92 336.713 280.653C336.853 280.386 336.928 280.089 336.929 279.787V108.847C336.924 107.361 336.479 105.909 335.651 104.674L343.39 100.824C343.884 101.844 344.142 102.963 344.144 104.096Z" fill="black"/>
<path opacity="0.1" d="M260.137 52.3601C260.527 52.3734 260.912 52.4515 261.277 52.5911L340.34 97.5283C341.656 98.2815 342.713 99.414 343.374 100.778L335.636 104.628C334.987 103.64 334.117 102.818 333.095 102.225L254.039 57.2804C253.814 57.1538 253.566 57.0745 253.309 57.0476C253.053 57.0207 252.794 57.0466 252.548 57.1238C252.301 57.201 252.074 57.3279 251.879 57.4965C251.684 57.6652 251.525 57.872 251.413 58.1043C251.983 56.0792 256.072 52.2523 260.137 52.3601Z" fill="white"/>
<path d="M284.315 85.5163C283.761 85.1929 283.299 85.4393 283.299 86.0784C283.317 86.4296 283.418 86.7716 283.594 87.0766C283.769 87.3816 284.013 87.6411 284.308 87.834L299.815 96.7814C300.37 97.1048 300.816 96.8353 300.816 96.1962C300.8 95.8505 300.701 95.5137 300.528 95.2137C300.355 94.9138 300.114 94.6593 299.823 94.4714L284.315 85.5163Z" fill="#263238"/>
<path d="M303.804 96.766C303.249 96.4503 302.795 96.7044 302.795 97.3435C302.815 97.6915 302.916 98.0299 303.09 98.332C303.263 98.6341 303.505 98.8915 303.796 99.0837C304.35 99.4071 304.812 99.1376 304.812 98.5062C304.792 98.1575 304.69 97.8184 304.515 97.5161C304.34 97.2139 304.096 96.957 303.804 96.766Z" fill="#263238"/>
<path d="M293.878 84.2149C292.77 83.5758 291.869 84.084 291.869 85.3545C291.903 86.0519 292.102 86.7312 292.448 87.3374C292.795 87.9435 293.279 88.4592 293.863 88.8426C294.972 89.4817 295.888 88.9581 295.896 87.6799C295.855 86.9847 295.651 86.3088 295.3 85.7069C294.95 85.105 294.463 84.5939 293.878 84.2149Z" fill="#263238"/>
<path d="M293.871 245.168C291.615 243.867 289.79 244.899 289.782 247.478C289.854 248.896 290.258 250.277 290.963 251.509C291.668 252.741 292.654 253.79 293.84 254.57C296.104 255.871 297.975 254.809 297.983 252.206C297.898 250.793 297.481 249.419 296.767 248.196C296.052 246.974 295.06 245.936 293.871 245.168Z" fill="#263238"/>
<path d="M321.09 128.39C320.995 127.619 320.771 126.869 320.428 126.172C320.277 125.868 320.105 125.575 319.912 125.295C319.332 124.441 318.566 123.731 317.671 123.216L245.923 82.4057L245.815 82.3595C245.719 82.3275 245.621 82.3017 245.522 82.2825C245.312 82.2401 245.098 82.2143 244.883 82.2055C243.717 82.1976 242.565 82.4612 241.518 82.9755C240.495 83.48 239.553 84.1339 238.723 84.9159L238.284 85.3548C237.7 85.9308 237.248 86.6271 236.96 87.3953C236.904 87.5083 236.86 87.6271 236.829 87.7495C236.791 87.8769 236.773 88.0093 236.775 88.1422V243.32C236.778 244.53 237.101 245.718 237.709 246.765C238.317 247.811 239.19 248.678 240.24 249.28L311.989 290.167C312.078 290.21 312.171 290.246 312.266 290.275C316.547 292.092 321.105 288.319 321.105 284.361V129.183C321.116 128.919 321.111 128.654 321.09 128.39Z" fill="#EA6767"/>
<path d="M236.944 87.4344C237.468 85.6095 241.179 82.1291 244.868 82.2061C245.223 82.2144 245.574 82.2821 245.907 82.4063L317.656 123.216C318.848 123.906 319.808 124.935 320.412 126.173C320.876 127.109 321.118 128.139 321.121 129.184V284.37C321.121 288.327 316.562 292.07 312.281 290.283C312.186 290.254 312.094 290.218 312.004 290.175L240.24 249.265C239.188 248.665 238.314 247.798 237.706 246.752C237.097 245.705 236.776 244.516 236.775 243.305V88.1813C236.774 87.9227 236.832 87.6673 236.944 87.4344Z" fill="#EA6767"/>
<path opacity="0.2" d="M321.09 129.183V284.369C321.09 288.327 316.532 292.069 312.25 290.282C312.509 290.381 312.788 290.416 313.063 290.383C313.338 290.349 313.601 290.249 313.828 290.092C314.056 289.934 314.242 289.723 314.369 289.477C314.497 289.231 314.563 288.958 314.56 288.681V133.472C314.557 132.123 314.155 130.805 313.405 129.684L320.428 126.172C320.876 127.112 321.102 128.142 321.09 129.183Z" fill="white"/>
<path opacity="0.4" d="M244.86 82.1975C245.215 82.2059 245.567 82.2735 245.9 82.3977L317.648 123.208C318.84 123.898 319.8 124.927 320.405 126.165L313.39 129.683C312.802 128.785 312.011 128.039 311.08 127.504L239.331 86.6943C239.127 86.5792 238.9 86.5076 238.667 86.4843C238.433 86.4609 238.197 86.4862 237.973 86.5585C237.75 86.6308 237.544 86.7487 237.368 86.9046C237.192 87.0605 237.051 87.2511 236.952 87.4643C237.46 85.6009 241.172 82.1205 244.86 82.1975Z" fill="white"/>
<path opacity="0.3" d="M236.944 87.4344C237.468 85.6095 241.179 82.1291 244.868 82.2061C245.223 82.2144 245.574 82.2821 245.907 82.4063L317.656 123.216C318.848 123.906 319.808 124.935 320.412 126.173C320.876 127.109 321.118 128.139 321.121 129.184V284.37C321.121 288.327 316.562 292.07 312.281 290.283C312.186 290.254 312.094 290.218 312.004 290.175L240.24 249.265C239.188 248.665 238.314 247.798 237.706 246.752C237.097 245.705 236.776 244.516 236.775 243.305V88.1813C236.774 87.9227 236.832 87.6673 236.944 87.4344Z" fill="white"/>
<path d="M243.998 96.612L244.798 97.0816L244.814 93.6244L244.005 93.1624L243.998 96.612Z" fill="white"/>
<path d="M242.619 95.8188L243.42 96.2808L243.428 93.4857L242.627 93.0237L242.619 95.8188Z" fill="white"/>
<path d="M241.233 95.0181L242.034 95.4801L242.042 93.4088L241.241 92.9468L241.233 95.0181Z" fill="white"/>
<path d="M239.855 94.2249L240.656 94.6869V93.2855L239.855 92.8235V94.2249Z" fill="white"/>
<path d="M246.985 98.3446L251.906 101.186L251.913 98.283L246.993 95.4417L246.985 98.3446Z" fill="white"/>
<path d="M254.354 102.595L256.81 104.012L256.818 101.117L254.362 99.6997L254.354 102.595Z" fill="white"/>
<path d="M305.12 131.539L305.128 129.206L307.769 130.731L305.128 129.206L305.12 131.539Z" fill="white"/>
<path d="M305.12 131.539L307.761 133.064L307.769 130.731L305.128 129.206L305.12 131.539Z" fill="#EA6767"/>
<path d="M309.633 132.155V131.246L304.643 128.367V131.816L309.633 134.696V133.787L310.272 134.157V132.525L309.633 132.155ZM307.762 133.064L305.12 131.524V129.214L307.762 130.754V133.064Z" fill="white"/>
<path d="M297.497 127.451L302.417 130.284L302.425 127.389L297.505 124.548L297.497 127.451Z" fill="white"/>
<path d="M274.02 113.721L278.94 116.563L278.948 113.667L274.028 110.826L274.02 113.721Z" fill="white"/>
<path d="M301.44 141.303L229.144 99.5609C228.937 99.4167 228.697 99.3257 228.446 99.2962C228.194 99.2666 227.94 99.2994 227.704 99.3915H227.666L226.126 100.269L227.073 101.209L227.019 121.852V122.338V127.905C227.058 128.629 227.268 129.335 227.63 129.963C227.993 130.592 228.498 131.127 229.106 131.524L298.583 171.71L301.255 174.343L302.749 173.489C302.803 173.464 302.855 173.433 302.903 173.396H302.972C303.14 173.239 303.271 173.046 303.355 172.832C303.439 172.617 303.474 172.386 303.457 172.157V167.059V166.104L303.519 144.983C303.49 144.249 303.286 143.531 302.925 142.891C302.563 142.251 302.054 141.706 301.44 141.303Z" fill="#EA6767"/>
<path opacity="0.2" d="M301.44 141.303L229.144 99.5609C228.937 99.4167 228.697 99.3257 228.446 99.2962C228.194 99.2666 227.94 99.2994 227.704 99.3915H227.666L226.126 100.269L227.073 101.209L227.019 121.852V122.338V127.905C227.058 128.629 227.268 129.335 227.63 129.963C227.993 130.592 228.498 131.127 229.106 131.524L298.583 171.71L301.255 174.343L302.749 173.489C302.803 173.464 302.855 173.433 302.903 173.396H302.972C303.14 173.239 303.271 173.046 303.355 172.832C303.439 172.617 303.474 172.386 303.457 172.157V167.059V166.104L303.519 144.983C303.49 144.249 303.286 143.531 302.925 142.891C302.563 142.251 302.054 141.706 301.44 141.303Z" fill="black"/>
<path d="M299.892 142.173C300.5 142.57 301.005 143.104 301.368 143.733C301.73 144.362 301.939 145.067 301.979 145.792L301.917 166.905L225.433 122.753V123.716L301.917 167.86V172.95C301.917 174.282 300.97 174.821 299.815 174.151L227.504 132.44C226.898 132.044 226.393 131.51 226.03 130.883C225.668 130.256 225.458 129.552 225.417 128.829L225.494 101.655C225.494 100.331 226.434 99.7919 227.597 100.454L299.892 142.173Z" fill="#EA6767"/>
<path d="M301.917 166.905V167.868L225.433 123.716V122.753L301.917 166.905Z" fill="#EA6767"/>
<g opacity="0.2">
<path opacity="0.2" d="M301.917 166.905V167.868L225.433 123.716V122.753L301.917 166.905Z" fill="white"/>
</g>
<g opacity="0.6">
<path opacity="0.6" d="M264.557 148.718L264.549 151.074L227.843 129.876L227.851 127.527L264.557 148.718Z" fill="white"/>
</g>
<path d="M241.465 111.396C241.829 111.634 242.132 111.955 242.348 112.332C242.565 112.71 242.69 113.133 242.712 113.567V127.689C242.712 128.459 242.15 128.806 241.449 128.405L229.168 121.306C228.802 121.07 228.498 120.751 228.28 120.375C228.062 119.999 227.936 119.576 227.913 119.142L227.951 105.02C227.951 104.25 228.521 103.896 229.214 104.297L241.465 111.396Z" fill="white"/>
<g opacity="0.6">
<path opacity="0.6" d="M286.348 138.808L286.34 141.896L247.447 119.442L247.455 116.355L286.348 138.808Z" fill="white"/>
</g>
<g opacity="0.6">
<path opacity="0.6" d="M269.138 139.724L269.131 142.812L247.417 130.276L247.424 127.189L269.138 139.724Z" fill="white"/>
</g>
<g opacity="0.6">
<path opacity="0.6" d="M286.333 144.229L286.325 147.309L247.432 124.856L247.44 121.776L286.333 144.229Z" fill="white"/>
</g>
<g opacity="0.5">
<path opacity="0.5" d="M299.022 144.752L297.852 145.8L299.23 148.656L298.075 147.986L297.243 146.185L296.481 147.07L295.318 146.393L296.727 145.153L295.603 142.781L296.743 143.436L297.343 144.76L297.867 144.09L299.022 144.752Z" fill="white"/>
</g>
<path d="M301.44 179.764L229.144 138.023C228.936 137.88 228.696 137.79 228.445 137.762C228.194 137.734 227.939 137.768 227.704 137.861H227.666L226.126 138.739L227.073 139.678L227.019 160.322V160.807V166.374C227.059 167.097 227.269 167.801 227.632 168.429C227.994 169.056 228.499 169.589 229.106 169.985L298.637 210.133L301.309 212.766L302.803 211.904C302.857 211.882 302.909 211.853 302.957 211.819L303.026 211.781C303.194 211.624 303.325 211.431 303.409 211.216C303.493 211.002 303.528 210.771 303.511 210.541V205.444V204.481L303.573 183.368C303.526 182.642 303.309 181.937 302.938 181.311C302.567 180.684 302.054 180.155 301.44 179.764Z" fill="#EA6767"/>
<path opacity="0.2" d="M301.44 179.764L229.144 138.023C228.936 137.88 228.696 137.79 228.445 137.762C228.194 137.734 227.939 137.768 227.704 137.861H227.666L226.126 138.739L227.073 139.678L227.019 160.322V160.807V166.374C227.059 167.097 227.269 167.801 227.632 168.429C227.994 169.056 228.499 169.589 229.106 169.985L298.637 210.133L301.309 212.766L302.803 211.904C302.857 211.882 302.909 211.853 302.957 211.819L303.026 211.781C303.194 211.624 303.325 211.431 303.409 211.216C303.493 211.002 303.528 210.771 303.511 210.541V205.444V204.481L303.573 183.368C303.526 182.642 303.309 181.937 302.938 181.311C302.567 180.684 302.054 180.155 301.44 179.764Z" fill="black"/>
<path d="M299.892 180.642C300.5 181.039 301.005 181.573 301.368 182.202C301.73 182.831 301.94 183.536 301.979 184.261L301.917 205.374L225.433 161.223V162.177L301.917 206.36V211.45C301.917 212.782 300.97 213.321 299.815 212.651L227.52 170.909C226.913 170.513 226.408 169.98 226.046 169.352C225.683 168.725 225.473 168.021 225.433 167.298L225.51 140.125C225.51 138.793 226.45 138.254 227.612 138.923L299.892 180.642Z" fill="#EA6767"/>
<path d="M301.917 205.374V206.337L225.433 162.177V161.223L301.917 205.374Z" fill="#EA6767"/>
<g opacity="0.2">
<path opacity="0.2" d="M301.917 205.374V206.337L225.433 162.177V161.223L301.917 205.374Z" fill="white"/>
</g>
<path d="M241.465 149.865C241.829 150.103 242.132 150.424 242.348 150.801C242.565 151.179 242.69 151.602 242.712 152.036V166.151C242.712 166.921 242.15 167.267 241.449 166.874L229.168 159.775C228.801 159.539 228.496 159.218 228.278 158.841C228.06 158.463 227.935 158.039 227.913 157.604L227.951 143.489C227.951 142.719 228.521 142.365 229.214 142.766L241.465 149.865Z" fill="white"/>
<g opacity="0.6">
<path opacity="0.6" d="M286.348 177.277L286.34 180.365L247.447 157.904L247.455 154.816L286.348 177.277Z" fill="white"/>
</g>
<g opacity="0.5">
<path opacity="0.5" d="M299.022 183.221L297.852 184.269L299.23 187.118L298.075 186.455L297.243 184.654L296.481 185.531L295.318 184.862L296.727 183.622L295.603 181.25L296.743 181.905L297.343 183.229L297.867 182.559L299.022 183.221Z" fill="white"/>
</g>
<path opacity="0.6" d="M227.851 165.997L227.843 168.345L249.18 180.665V178.309L227.851 165.997Z" fill="white"/>
<path opacity="0.6" d="M247.44 160.237L247.432 163.325L265.981 174.028V170.94L247.44 160.237Z" fill="white"/>
<path d="M301.44 257.234L229.144 215.492C228.937 215.348 228.697 215.257 228.446 215.228C228.194 215.198 227.94 215.231 227.704 215.323H227.666L226.126 216.201L227.073 217.14L227.019 237.784V238.269V243.836C227.058 244.561 227.268 245.266 227.63 245.895C227.993 246.524 228.498 247.058 229.106 247.455L298.637 287.595L301.309 290.229L302.803 289.374L302.957 289.289L303.026 289.243C303.194 289.086 303.325 288.893 303.409 288.678C303.493 288.464 303.528 288.233 303.511 288.003V282.914V281.951L303.573 260.83C303.525 260.105 303.307 259.402 302.936 258.777C302.566 258.152 302.053 257.624 301.44 257.234Z" fill="#EA6767"/>
<path opacity="0.2" d="M301.44 257.234L229.144 215.492C228.937 215.348 228.697 215.257 228.446 215.228C228.194 215.198 227.94 215.231 227.704 215.323H227.666L226.126 216.201L227.073 217.14L227.019 237.784V238.269V243.836C227.058 244.561 227.268 245.266 227.63 245.895C227.993 246.524 228.498 247.058 229.106 247.455L298.637 287.595L301.309 290.229L302.803 289.374L302.957 289.289L303.026 289.243C303.194 289.086 303.325 288.893 303.409 288.678C303.493 288.464 303.528 288.233 303.511 288.003V282.914V281.951L303.573 260.83C303.525 260.105 303.307 259.402 302.936 258.777C302.566 258.152 302.053 257.624 301.44 257.234Z" fill="black"/>
<path d="M299.892 258.112C300.499 258.508 301.004 259.041 301.366 259.668C301.729 260.296 301.938 261 301.979 261.723L301.917 282.844L225.433 238.7V239.662L301.917 283.814V288.912C301.917 290.236 300.97 290.775 299.815 290.113L227.52 248.371C226.912 247.974 226.407 247.44 226.044 246.811C225.682 246.182 225.472 245.477 225.433 244.752L225.51 217.587C225.51 216.254 226.45 215.715 227.612 216.385L299.892 258.112Z" fill="#EA6767"/>
<path d="M301.917 282.844V283.799L225.433 239.647V238.685L301.917 282.844Z" fill="#EA6767"/>
<g opacity="0.2">
<path opacity="0.2" d="M301.917 282.844V283.799L225.433 239.647V238.685L301.917 282.844Z" fill="white"/>
</g>
<path d="M241.465 227.327C241.828 227.566 242.131 227.887 242.347 228.264C242.564 228.641 242.689 229.064 242.712 229.499V243.62C242.712 244.39 242.15 244.737 241.449 244.337L229.168 237.245C228.802 237.007 228.498 236.687 228.28 236.31C228.062 235.932 227.936 235.509 227.913 235.073L227.92 220.99C227.92 220.22 228.49 219.874 229.183 220.274L241.465 227.327Z" fill="white"/>
<g opacity="0.6">
<path opacity="0.6" d="M286.348 254.739L286.34 257.827L247.447 235.374L247.455 232.286L286.348 254.739Z" fill="white"/>
</g>
<g opacity="0.5">
<path opacity="0.5" d="M299.022 260.691L297.852 261.739L299.23 264.587L298.075 263.925L297.243 262.124L296.481 263.001L295.318 262.331L296.727 261.084L295.603 258.712L296.743 259.375L297.343 260.699L297.867 260.021L299.022 260.691Z" fill="white"/>
</g>
<path opacity="0.6" d="M227.851 243.458L227.843 245.815L249.18 258.127V255.771L227.851 243.458Z" fill="white"/>
<path opacity="0.6" d="M247.44 237.707L247.432 240.787L255.817 245.622V242.535L247.44 237.707Z" fill="white"/>
<path d="M301.44 218.233L229.144 176.492C228.938 176.345 228.697 176.253 228.445 176.225C228.193 176.196 227.938 176.233 227.704 176.33H227.666L226.126 177.216L227.073 178.147L227.019 198.799V199.284V204.851C227.059 205.574 227.269 206.278 227.632 206.905C227.994 207.533 228.499 208.066 229.106 208.462L298.637 248.61L301.309 251.243L302.803 250.381L302.957 250.296L303.026 250.258C303.195 250.1 303.327 249.906 303.411 249.69C303.495 249.474 303.529 249.241 303.511 249.01V243.921V242.958L303.573 221.845C303.527 221.117 303.31 220.411 302.94 219.783C302.569 219.156 302.055 218.624 301.44 218.233Z" fill="#EA6767"/>
<path opacity="0.2" d="M301.44 218.233L229.144 176.492C228.938 176.345 228.697 176.253 228.445 176.225C228.193 176.196 227.938 176.233 227.704 176.33H227.666L226.126 177.216L227.073 178.147L227.019 198.799V199.284V204.851C227.059 205.574 227.269 206.278 227.632 206.905C227.994 207.533 228.499 208.066 229.106 208.462L298.637 248.61L301.309 251.243L302.803 250.381L302.957 250.296L303.026 250.258C303.195 250.1 303.327 249.906 303.411 249.69C303.495 249.474 303.529 249.241 303.511 249.01V243.921V242.958L303.573 221.845C303.527 221.117 303.31 220.411 302.94 219.783C302.569 219.156 302.055 218.624 301.44 218.233Z" fill="black"/>
<path d="M299.892 219.111C300.499 219.507 301.004 220.041 301.366 220.668C301.729 221.295 301.938 221.999 301.979 222.723L301.917 243.844L225.433 199.684V200.647L301.917 244.806V249.896C301.917 251.228 300.97 251.759 299.815 251.097L227.52 209.355C226.913 208.959 226.408 208.426 226.046 207.799C225.683 207.171 225.473 206.467 225.433 205.744L225.51 178.571C225.51 177.239 226.45 176.7 227.612 177.37L299.892 219.111Z" fill="#EA6767"/>
<path d="M301.917 243.844V244.806L225.433 200.647V199.684L301.917 243.844Z" fill="#EA6767"/>
<g opacity="0.2">
<path opacity="0.2" d="M301.917 243.844V244.806L225.433 200.647V199.684L301.917 243.844Z" fill="white"/>
</g>
<g opacity="0.6">
<path opacity="0.6" d="M255.147 220.305L255.14 222.653L227.843 206.814L227.851 204.466L255.147 220.305Z" fill="white"/>
</g>
<path d="M241.465 188.327C241.828 188.565 242.131 188.886 242.347 189.263C242.564 189.641 242.689 190.064 242.712 190.498V204.62C242.712 205.39 242.15 205.736 241.449 205.336L229.168 198.244C228.801 198.008 228.496 197.688 228.278 197.31C228.06 196.932 227.935 196.508 227.913 196.073L227.951 181.959C227.951 181.189 228.521 180.835 229.214 181.235L241.465 188.327Z" fill="white"/>
<g opacity="0.6">
<path opacity="0.6" d="M286.348 215.739L286.34 218.826L247.447 196.373L247.455 193.285L286.348 215.739Z" fill="white"/>
</g>
<g opacity="0.6">
<path opacity="0.6" d="M279.487 222.699L279.479 225.787L247.417 207.215L247.424 204.127L279.487 222.699Z" fill="white"/>
</g>
<g opacity="0.6">
<path opacity="0.6" d="M286.333 221.16L286.325 224.247L247.432 201.794L247.44 198.706L286.333 221.16Z" fill="white"/>
</g>
<g opacity="0.5">
<path opacity="0.5" d="M299.022 221.691L297.852 222.738L299.23 225.587L298.075 224.925L297.243 223.123L296.481 224.001L295.318 223.331L296.727 222.091L295.603 219.719L296.743 220.374L297.343 221.698L297.867 221.028L299.022 221.691Z" fill="white"/>
</g>
<path d="M219.019 100.046L206.13 92.6541C205.005 92.0073 202.333 92.8851 202.333 94.7023C202.333 94.5552 202.371 94.4105 202.444 94.2828C202.518 94.1551 202.623 94.0489 202.75 93.9748C202.877 93.9007 203.022 93.8613 203.169 93.8606C203.316 93.8599 203.461 93.8979 203.589 93.9708L216.471 101.363C216.894 101.606 217.235 101.971 217.449 102.41L219.951 100.986C219.73 100.594 219.409 100.27 219.019 100.046Z" fill="#EA6767"/>
<path d="M217.448 102.41C217.632 102.757 217.729 103.142 217.733 103.534V118.326C217.732 118.472 217.693 118.616 217.619 118.743C217.546 118.869 217.44 118.974 217.313 119.048C217.186 119.121 217.042 119.16 216.896 119.16C216.749 119.16 216.605 119.122 216.478 119.05C216.85 119.282 217.276 119.412 217.714 119.426C218.151 119.44 218.585 119.339 218.971 119.132C219.357 118.925 219.682 118.62 219.912 118.247C220.142 117.874 220.27 117.447 220.282 117.009V102.225C220.278 101.793 220.164 101.369 219.951 100.993L217.448 102.41Z" fill="#EA6767"/>
<path opacity="0.4" d="M219.019 100.046L206.13 92.6541C205.005 92.0073 202.333 92.8851 202.333 94.7023C202.333 94.5552 202.371 94.4105 202.444 94.2828C202.518 94.1551 202.623 94.0489 202.75 93.9748C202.877 93.9007 203.022 93.8613 203.169 93.8606C203.316 93.8599 203.461 93.8979 203.589 93.9708L216.471 101.363C216.894 101.606 217.235 101.971 217.449 102.41L219.951 100.986C219.73 100.594 219.409 100.27 219.019 100.046Z" fill="white"/>
<path opacity="0.2" d="M217.448 102.41C217.632 102.757 217.729 103.142 217.733 103.534V118.326C217.732 118.472 217.693 118.616 217.619 118.743C217.546 118.869 217.44 118.974 217.313 119.048C217.186 119.121 217.042 119.16 216.896 119.16C216.749 119.16 216.605 119.122 216.478 119.05C216.85 119.282 217.276 119.412 217.714 119.426C218.151 119.44 218.585 119.339 218.971 119.132C219.357 118.925 219.682 118.62 219.912 118.247C220.142 117.874 220.27 117.447 220.282 117.009V102.225C220.278 101.793 220.164 101.369 219.951 100.993L217.448 102.41Z" fill="white"/>
<path d="M203.588 93.9402L216.47 101.332C216.855 101.551 217.174 101.868 217.396 102.251C217.618 102.634 217.734 103.069 217.733 103.511V118.303C217.732 118.449 217.693 118.593 217.619 118.72C217.546 118.846 217.44 118.952 217.313 119.025C217.186 119.098 217.042 119.137 216.896 119.137C216.749 119.137 216.605 119.099 216.478 119.027L203.596 111.666C203.212 111.446 202.892 111.129 202.67 110.746C202.449 110.364 202.332 109.929 202.333 109.486V94.7102C202.326 94.5598 202.359 94.4102 202.429 94.277C202.499 94.1438 202.604 94.032 202.732 93.9532C202.861 93.8745 203.008 93.8317 203.159 93.8294C203.309 93.8271 203.457 93.8654 203.588 93.9402Z" fill="#EA6767"/>
<path d="M220.836 111.55L217.756 112.127V108.154L220.96 111.188C220.987 111.217 221.006 111.252 221.014 111.291C221.023 111.329 221.02 111.369 221.008 111.406C220.995 111.444 220.972 111.477 220.942 111.502C220.912 111.527 220.875 111.544 220.836 111.55Z" fill="#EA6767"/>
<path d="M217.741 108.154L220.282 106.699L223.485 109.779C223.508 109.802 223.526 109.831 223.536 109.862C223.547 109.894 223.55 109.927 223.545 109.96C223.541 109.993 223.529 110.024 223.51 110.051C223.492 110.079 223.467 110.101 223.439 110.118L220.905 111.535L217.741 108.154Z" fill="#EA6767"/>
<path opacity="0.2" d="M217.741 108.154L220.282 106.699L223.485 109.779C223.508 109.802 223.526 109.831 223.536 109.862C223.547 109.894 223.55 109.927 223.545 109.96C223.541 109.993 223.529 110.024 223.51 110.051C223.492 110.079 223.467 110.101 223.439 110.118L220.905 111.535L217.741 108.154Z" fill="white"/>
<path d="M208.447 110.495C208.616 111.34 209.104 112.087 209.81 112.582H209.871C210.572 112.99 211.257 112.79 211.342 112.135L208.447 110.495Z" fill="white"/>
<path d="M206.422 107.138C206.649 106.758 206.776 106.326 206.791 105.883C206.838 105.236 206.853 104.566 206.876 103.904C206.922 102.541 207.469 101.825 208.532 101.763C208.786 101.763 208.84 101.663 208.801 101.309C208.732 100.716 208.901 100.362 209.302 100.293C209.516 100.262 209.734 100.308 209.918 100.423C210.165 100.571 210.378 100.771 210.541 101.009C210.724 101.228 210.861 101.48 210.946 101.753C211.031 102.025 211.06 102.311 211.034 102.595C211.001 102.735 211.009 102.881 211.055 103.017C211.101 103.153 211.185 103.274 211.296 103.365C212.097 104.305 212.629 105.443 212.836 106.66C212.885 107.064 212.908 107.471 212.905 107.877C212.895 108.591 212.942 109.304 213.044 110.01C213.148 110.762 213.411 111.484 213.814 112.127C213.953 112.32 214.026 112.552 214.022 112.79C214.022 113.136 213.883 113.221 213.567 113.044L209.887 110.88L206.891 109.148L206.506 108.924L206.114 108.701C205.962 108.612 205.845 108.473 205.783 108.308C205.659 108.008 205.713 107.631 205.898 107.538C206.11 107.463 206.293 107.323 206.422 107.138ZM209.271 107.061L210.526 107.785L210.849 104.512L208.97 103.427L209.271 107.061ZM209.894 109.64C210.433 109.956 210.811 109.74 210.811 109.209C210.791 108.908 210.696 108.616 210.537 108.359C210.377 108.103 210.156 107.89 209.894 107.738C209.355 107.43 208.978 107.615 208.978 108.154C208.999 108.458 209.093 108.752 209.252 109.011C209.412 109.27 209.632 109.486 209.894 109.64ZM209.894 101.301C209.687 101.178 209.509 101.301 209.509 101.525C209.521 101.656 209.561 101.782 209.628 101.896C209.694 102.009 209.785 102.106 209.894 102.179C209.931 102.207 209.975 102.224 210.021 102.227C210.066 102.23 210.112 102.219 210.152 102.196C210.191 102.172 210.223 102.138 210.243 102.097C210.263 102.055 210.271 102.009 210.264 101.963C210.264 101.83 210.229 101.699 210.163 101.582C210.097 101.466 210.002 101.369 209.887 101.301" fill="white"/>
<path d="M219.019 139.948L206.129 132.556C205.005 131.909 202.333 132.787 202.333 134.596C202.334 134.45 202.373 134.306 202.447 134.179C202.521 134.053 202.626 133.947 202.753 133.874C202.88 133.801 203.024 133.762 203.17 133.762C203.317 133.762 203.461 133.8 203.588 133.872L216.47 141.264C216.895 141.51 217.235 141.877 217.448 142.319L219.951 140.895C219.731 140.501 219.409 140.174 219.019 139.948Z" fill="#EA6767"/>
<path d="M217.448 142.319C217.632 142.666 217.729 143.051 217.733 143.443V158.235C217.732 158.381 217.693 158.525 217.619 158.652C217.546 158.778 217.44 158.884 217.313 158.957C217.186 159.03 217.042 159.069 216.896 159.069C216.749 159.069 216.605 159.031 216.478 158.959C216.85 159.191 217.277 159.321 217.716 159.335C218.154 159.349 218.588 159.247 218.975 159.039C219.361 158.831 219.685 158.525 219.915 158.151C220.144 157.777 220.271 157.349 220.282 156.911V142.127C220.279 141.694 220.165 141.27 219.951 140.895L217.448 142.319Z" fill="#EA6767"/>
<path opacity="0.4" d="M219.019 139.948L206.129 132.556C205.005 131.909 202.333 132.787 202.333 134.596C202.334 134.45 202.373 134.306 202.447 134.179C202.521 134.053 202.626 133.947 202.753 133.874C202.88 133.801 203.024 133.762 203.17 133.762C203.317 133.762 203.461 133.8 203.588 133.872L216.47 141.264C216.895 141.51 217.235 141.877 217.448 142.319L219.951 140.895C219.731 140.501 219.409 140.174 219.019 139.948Z" fill="white"/>
<path opacity="0.2" d="M217.448 142.319C217.632 142.666 217.729 143.051 217.733 143.443V158.235C217.732 158.381 217.693 158.525 217.619 158.652C217.546 158.778 217.44 158.884 217.313 158.957C217.186 159.03 217.042 159.069 216.896 159.069C216.749 159.069 216.605 159.031 216.478 158.959C216.85 159.191 217.277 159.321 217.716 159.335C218.154 159.349 218.588 159.247 218.975 159.039C219.361 158.831 219.685 158.525 219.915 158.151C220.144 157.777 220.271 157.349 220.282 156.911V142.127C220.279 141.694 220.165 141.27 219.951 140.895L217.448 142.319Z" fill="white"/>
<path d="M203.588 133.872L216.47 141.264C216.855 141.483 217.174 141.801 217.396 142.183C217.618 142.566 217.734 143.001 217.733 143.443V158.235C217.732 158.382 217.693 158.525 217.619 158.652C217.545 158.779 217.44 158.884 217.313 158.957C217.186 159.03 217.042 159.069 216.896 159.069C216.749 159.069 216.605 159.031 216.478 158.959L203.596 151.598C203.21 151.378 202.89 151.059 202.668 150.675C202.446 150.291 202.331 149.855 202.333 149.411V134.596C202.334 134.45 202.373 134.306 202.447 134.179C202.521 134.053 202.626 133.947 202.753 133.874C202.88 133.801 203.024 133.762 203.17 133.762C203.317 133.762 203.461 133.8 203.588 133.872Z" fill="#EA6767"/>
<path d="M220.836 151.451L217.756 152.029V148.056L220.96 151.089C220.987 151.118 221.006 151.153 221.014 151.192C221.023 151.23 221.02 151.27 221.008 151.308C220.995 151.345 220.972 151.378 220.942 151.403C220.912 151.429 220.875 151.445 220.836 151.451Z" fill="#EA6767"/>
<path d="M217.741 148.056L220.282 146.6L223.485 149.68C223.508 149.704 223.526 149.732 223.536 149.764C223.547 149.795 223.55 149.828 223.545 149.861C223.541 149.894 223.529 149.925 223.51 149.953C223.492 149.98 223.467 150.003 223.439 150.019L220.905 151.436L217.741 148.056Z" fill="#EA6767"/>
<path opacity="0.2" d="M217.741 148.056L220.282 146.6L223.485 149.68C223.508 149.704 223.526 149.732 223.536 149.764C223.547 149.795 223.55 149.828 223.545 149.861C223.541 149.894 223.529 149.925 223.51 149.953C223.492 149.98 223.467 150.003 223.439 150.019L220.905 151.436L217.741 148.056Z" fill="white"/>
<path d="M208.447 150.389C208.615 151.236 209.103 151.986 209.81 152.483H209.871C210.572 152.891 211.257 152.683 211.342 152.036L208.447 150.389Z" fill="white"/>
<path d="M206.422 147.07C206.65 146.693 206.777 146.263 206.791 145.823C206.837 145.176 206.853 144.506 206.876 143.844C206.922 142.473 207.469 141.765 208.532 141.703C208.786 141.703 208.84 141.603 208.801 141.249C208.732 140.656 208.901 140.302 209.302 140.232C209.516 140.198 209.736 140.244 209.917 140.363C210.165 140.511 210.378 140.711 210.541 140.949C210.724 141.167 210.861 141.42 210.946 141.692C211.03 141.965 211.06 142.251 211.034 142.535C211.001 142.675 211.009 142.821 211.055 142.957C211.101 143.093 211.185 143.214 211.296 143.305C212.097 144.244 212.629 145.383 212.836 146.6C212.885 147.004 212.908 147.41 212.905 147.817C212.895 148.53 212.942 149.244 213.044 149.95C213.148 150.702 213.411 151.424 213.814 152.067C213.953 152.26 214.026 152.492 214.022 152.73C214.022 153.076 213.883 153.161 213.567 152.984L209.848 150.835L206.853 149.103L206.468 148.88L206.075 148.656C205.923 148.567 205.806 148.428 205.744 148.264C205.621 147.963 205.675 147.586 205.86 147.494C206.09 147.421 206.289 147.272 206.422 147.07ZM209.271 147.001L210.526 147.717L210.849 144.452L208.97 143.366L209.271 147.001ZM209.894 149.58C210.433 149.888 210.811 149.68 210.811 149.149C210.79 148.848 210.696 148.556 210.536 148.299C210.377 148.043 210.156 147.829 209.894 147.678C209.355 147.363 208.978 147.555 208.978 148.094C208.999 148.398 209.093 148.692 209.252 148.951C209.412 149.21 209.632 149.426 209.894 149.58ZM209.894 141.241C209.686 141.118 209.509 141.241 209.509 141.457C209.519 141.589 209.559 141.717 209.626 141.832C209.693 141.947 209.784 142.045 209.894 142.119C209.931 142.147 209.975 142.163 210.021 142.166C210.066 142.169 210.112 142.159 210.152 142.135C210.191 142.112 210.223 142.078 210.243 142.037C210.263 141.995 210.27 141.949 210.264 141.903C210.264 141.77 210.229 141.638 210.163 141.522C210.097 141.406 210.002 141.309 209.887 141.241" fill="white"/>
<path d="M219.019 179.849L206.129 172.48C205.005 171.833 202.333 172.711 202.333 174.521C202.334 174.374 202.373 174.23 202.447 174.104C202.521 173.977 202.626 173.872 202.753 173.799C202.88 173.726 203.024 173.687 203.17 173.687C203.317 173.686 203.461 173.724 203.588 173.797L216.47 181.189C216.895 181.434 217.235 181.802 217.448 182.244L219.951 180.819C219.734 180.417 219.412 180.081 219.019 179.849Z" fill="#EA6767"/>
<path d="M217.448 182.221C217.632 182.567 217.729 182.953 217.733 183.345V198.129C217.734 198.276 217.695 198.421 217.622 198.548C217.549 198.676 217.444 198.782 217.316 198.856C217.189 198.931 217.045 198.97 216.898 198.971C216.751 198.971 216.606 198.933 216.478 198.86C216.85 199.093 217.277 199.223 217.716 199.237C218.154 199.251 218.588 199.149 218.975 198.941C219.361 198.733 219.685 198.426 219.915 198.052C220.144 197.679 220.271 197.251 220.282 196.812V182.028C220.279 181.596 220.165 181.172 219.951 180.796L217.448 182.221Z" fill="#EA6767"/>
<path opacity="0.4" d="M219.019 179.849L206.129 172.48C205.005 171.833 202.333 172.711 202.333 174.521C202.334 174.374 202.373 174.23 202.447 174.104C202.521 173.977 202.626 173.872 202.753 173.799C202.88 173.726 203.024 173.687 203.17 173.687C203.317 173.686 203.461 173.724 203.588 173.797L216.47 181.189C216.895 181.434 217.235 181.802 217.448 182.244L219.951 180.819C219.734 180.417 219.412 180.081 219.019 179.849Z" fill="white"/>
<path opacity="0.2" d="M217.448 182.221C217.632 182.567 217.729 182.953 217.733 183.345V198.129C217.734 198.276 217.695 198.421 217.622 198.548C217.549 198.676 217.444 198.782 217.316 198.856C217.189 198.931 217.045 198.97 216.898 198.971C216.751 198.971 216.606 198.933 216.478 198.86C216.85 199.093 217.277 199.223 217.716 199.237C218.154 199.251 218.588 199.149 218.975 198.941C219.361 198.733 219.685 198.426 219.915 198.052C220.144 197.679 220.271 197.251 220.282 196.812V182.028C220.279 181.596 220.165 181.172 219.951 180.796L217.448 182.221Z" fill="white"/>
<path d="M203.588 173.774L216.47 181.166C216.855 181.385 217.174 181.702 217.396 182.085C217.618 182.467 217.734 182.902 217.733 183.345V198.129C217.733 198.276 217.695 198.421 217.622 198.548C217.549 198.676 217.443 198.782 217.316 198.856C217.189 198.93 217.045 198.97 216.898 198.97C216.751 198.971 216.606 198.933 216.478 198.86L203.596 191.499C203.211 191.279 202.891 190.96 202.669 190.576C202.448 190.192 202.332 189.756 202.333 189.312V174.497C202.334 174.351 202.373 174.207 202.447 174.081C202.521 173.954 202.626 173.849 202.753 173.776C202.88 173.702 203.024 173.664 203.17 173.663C203.317 173.663 203.461 173.701 203.588 173.774Z" fill="#EA6767"/>
<path d="M220.836 191.353L217.756 191.93V187.957L220.96 190.983C220.989 191.011 221.01 191.047 221.02 191.087C221.029 191.127 221.028 191.168 221.015 191.207C221.002 191.246 220.978 191.28 220.947 191.306C220.915 191.331 220.877 191.348 220.836 191.353Z" fill="#EA6767"/>
<path d="M217.741 187.957L220.282 186.502L223.485 189.582C223.508 189.605 223.526 189.634 223.536 189.665C223.547 189.696 223.55 189.73 223.545 189.762C223.541 189.795 223.529 189.827 223.51 189.854C223.492 189.881 223.467 189.904 223.439 189.921L220.905 191.337L217.741 187.957Z" fill="#EA6767"/>
<path opacity="0.2" d="M217.741 187.957L220.282 186.502L223.485 189.582C223.508 189.605 223.526 189.634 223.536 189.665C223.547 189.696 223.55 189.73 223.545 189.762C223.541 189.795 223.529 189.827 223.51 189.854C223.492 189.881 223.467 189.904 223.439 189.921L220.905 191.337L217.741 187.957Z" fill="white"/>
<path d="M208.447 190.29C208.613 191.136 209.102 191.885 209.81 192.377H209.871C210.572 192.777 211.257 192.577 211.342 191.93L208.447 190.29Z" fill="white"/>
<path d="M206.422 186.933C206.65 186.556 206.777 186.126 206.791 185.686C206.837 185.039 206.853 184.369 206.876 183.707C206.922 182.336 207.469 181.628 208.531 181.566C208.786 181.566 208.84 181.466 208.801 181.112C208.732 180.519 208.901 180.165 209.301 180.095C209.516 180.061 209.736 180.107 209.917 180.226C210.165 180.374 210.378 180.574 210.541 180.812C210.724 181.03 210.862 181.283 210.946 181.555C211.031 181.828 211.061 182.114 211.034 182.398C211.001 182.538 211.009 182.684 211.055 182.82C211.101 182.956 211.185 183.077 211.296 183.168C212.097 184.108 212.629 185.246 212.836 186.463C212.885 186.867 212.908 187.273 212.905 187.68C212.895 188.391 212.942 189.102 213.044 189.805C213.149 190.56 213.411 191.284 213.814 191.93C213.954 192.122 214.027 192.355 214.022 192.593C214.022 192.939 213.883 193.024 213.567 192.847L209.848 190.698L206.853 188.966L206.468 188.743L206.075 188.519C205.922 188.428 205.805 188.287 205.744 188.119C205.621 187.826 205.675 187.449 205.86 187.349C206.089 187.279 206.287 187.132 206.422 186.933ZM209.271 186.864L210.526 187.58L210.849 184.315L208.97 183.26L209.271 186.895V186.864ZM209.894 189.474C210.433 189.782 210.811 189.566 210.811 189.043C210.79 188.741 210.696 188.449 210.536 188.193C210.377 187.936 210.156 187.723 209.894 187.572C209.355 187.256 208.978 187.449 208.978 187.98C208.997 188.285 209.091 188.581 209.251 188.841C209.41 189.101 209.631 189.319 209.894 189.474ZM209.894 181.135C209.686 181.012 209.509 181.135 209.509 181.351C209.518 181.482 209.558 181.61 209.624 181.723C209.691 181.837 209.784 181.933 209.894 182.005C210.095 182.121 210.264 182.005 210.264 181.782C210.263 181.649 210.227 181.52 210.161 181.405C210.095 181.29 210.001 181.195 209.887 181.127" fill="white"/>
<path d="M219.019 219.75L206.129 212.358C205.005 211.704 202.333 212.582 202.333 214.399C202.332 214.251 202.369 214.106 202.443 213.978C202.516 213.85 202.621 213.744 202.749 213.67C202.877 213.597 203.022 213.558 203.169 213.559C203.317 213.56 203.461 213.6 203.588 213.675L216.47 221.067C216.895 221.313 217.236 221.68 217.448 222.122L219.951 220.697C219.733 220.302 219.411 219.974 219.019 219.75Z" fill="#EA6767"/>
<path d="M217.448 222.122C217.632 222.469 217.729 222.854 217.733 223.246V238.03C217.734 238.177 217.695 238.322 217.622 238.45C217.549 238.577 217.444 238.684 217.316 238.758C217.189 238.832 217.045 238.871 216.898 238.872C216.751 238.873 216.606 238.835 216.478 238.762C216.85 238.994 217.277 239.124 217.716 239.138C218.154 239.152 218.588 239.05 218.975 238.842C219.361 238.634 219.685 238.328 219.915 237.954C220.144 237.58 220.271 237.152 220.282 236.714V221.93C220.279 221.497 220.165 221.073 219.951 220.698L217.448 222.122Z" fill="#EA6767"/>
<path opacity="0.4" d="M219.019 219.75L206.129 212.358C205.005 211.704 202.333 212.582 202.333 214.399C202.332 214.251 202.369 214.106 202.443 213.978C202.516 213.85 202.621 213.744 202.749 213.67C202.877 213.597 203.022 213.558 203.169 213.559C203.317 213.56 203.461 213.6 203.588 213.675L216.47 221.067C216.895 221.313 217.236 221.68 217.448 222.122L219.951 220.697C219.733 220.302 219.411 219.974 219.019 219.75Z" fill="white"/>
<path opacity="0.2" d="M217.448 222.122C217.632 222.469 217.729 222.854 217.733 223.246V238.03C217.734 238.177 217.695 238.322 217.622 238.45C217.549 238.577 217.444 238.684 217.316 238.758C217.189 238.832 217.045 238.871 216.898 238.872C216.751 238.873 216.606 238.835 216.478 238.762C216.85 238.994 217.277 239.124 217.716 239.138C218.154 239.152 218.588 239.05 218.975 238.842C219.361 238.634 219.685 238.328 219.915 237.954C220.144 237.58 220.271 237.152 220.282 236.714V221.93C220.279 221.497 220.165 221.073 219.951 220.698L217.448 222.122Z" fill="white"/>
<path d="M203.588 213.675L216.47 221.067C216.855 221.286 217.174 221.603 217.396 221.986C217.618 222.369 217.734 222.804 217.733 223.246V238.03C217.733 238.177 217.695 238.322 217.622 238.45C217.549 238.577 217.443 238.684 217.316 238.758C217.189 238.832 217.045 238.871 216.898 238.872C216.751 238.873 216.606 238.835 216.478 238.762L203.596 231.4C203.211 231.18 202.891 230.861 202.669 230.477C202.448 230.093 202.332 229.657 202.333 229.214V214.399C202.332 214.251 202.369 214.106 202.443 213.978C202.516 213.85 202.621 213.744 202.749 213.67C202.877 213.597 203.022 213.558 203.169 213.559C203.317 213.56 203.461 213.6 203.588 213.675Z" fill="#EA6767"/>
<path d="M220.836 231.254L217.756 231.832V227.858L220.96 230.884C220.989 230.913 221.01 230.949 221.02 230.988C221.029 231.028 221.028 231.07 221.015 231.108C221.002 231.147 220.978 231.181 220.947 231.207C220.915 231.233 220.877 231.249 220.836 231.254Z" fill="#EA6767"/>
<path d="M217.741 227.858L220.282 226.403L223.485 229.483C223.508 229.507 223.526 229.535 223.536 229.566C223.547 229.598 223.55 229.631 223.545 229.664C223.541 229.697 223.529 229.728 223.51 229.755C223.492 229.783 223.467 229.805 223.439 229.822L220.905 231.239L217.741 227.858Z" fill="#EA6767"/>
<path opacity="0.2" d="M217.741 227.858L220.282 226.403L223.485 229.483C223.508 229.507 223.526 229.535 223.536 229.566C223.547 229.598 223.55 229.631 223.545 229.664C223.541 229.697 223.529 229.728 223.51 229.755C223.492 229.783 223.467 229.805 223.439 229.822L220.905 231.239L217.741 227.858Z" fill="white"/>
<path d="M208.447 230.23C208.613 231.076 209.102 231.825 209.81 232.317H209.871C210.572 232.717 211.257 232.517 211.342 231.862L208.447 230.23Z" fill="white"/>
<path d="M206.422 226.834C206.65 226.457 206.777 226.028 206.791 225.587C206.837 224.933 206.853 224.27 206.876 223.6C206.922 222.238 207.469 221.529 208.531 221.468C208.786 221.468 208.84 221.367 208.801 221.006C208.732 220.413 208.901 220.066 209.301 219.997C209.515 219.963 209.733 220.007 209.917 220.12C210.164 220.273 210.376 220.475 210.541 220.713C210.724 220.932 210.862 221.184 210.946 221.457C211.031 221.729 211.061 222.015 211.034 222.299C211.001 222.439 211.009 222.585 211.055 222.722C211.101 222.858 211.185 222.978 211.296 223.069C212.098 224.008 212.631 225.147 212.836 226.365C212.885 226.768 212.908 227.175 212.905 227.581C212.895 228.292 212.942 229.003 213.044 229.707C213.148 230.459 213.411 231.18 213.814 231.824C213.954 232.019 214.027 232.254 214.022 232.494C214.022 232.84 213.883 232.925 213.567 232.748L209.848 230.6L206.853 228.867L206.468 228.644L206.075 228.413C205.923 228.324 205.806 228.185 205.744 228.02C205.621 227.728 205.675 227.35 205.86 227.25C206.087 227.177 206.285 227.031 206.422 226.834ZM209.271 226.757L210.526 227.481L210.849 224.216L208.97 223.131L209.271 226.757ZM209.894 229.345C210.433 229.653 210.811 229.437 210.811 228.913C210.792 228.611 210.699 228.319 210.539 228.062C210.379 227.805 210.157 227.592 209.894 227.443C209.355 227.127 208.978 227.32 208.978 227.851C208.997 228.156 209.091 228.451 209.251 228.712C209.41 228.972 209.631 229.189 209.894 229.345ZM209.894 220.998C209.857 220.968 209.811 220.95 209.763 220.946C209.715 220.943 209.667 220.954 209.625 220.978C209.584 221.002 209.55 221.038 209.53 221.081C209.509 221.125 209.502 221.174 209.509 221.221C209.518 221.353 209.558 221.48 209.624 221.594C209.691 221.708 209.784 221.804 209.894 221.876C210.095 221.991 210.264 221.876 210.264 221.652C210.26 221.52 210.223 221.39 210.157 221.274C210.092 221.159 209.999 221.061 209.887 220.99" fill="white"/>
<path d="M131.246 268.507L88.0647 243.251C86.6967 242.449 85.6654 241.179 85.1615 239.676C84.6575 238.173 84.7151 236.538 85.3235 235.073L87.5026 229.837L86.3322 232.648C85.7747 233.993 85.7285 235.496 86.2022 236.873C86.6759 238.25 87.6368 239.407 88.904 240.125L135.874 266.697C135.737 267.157 135.498 267.579 135.173 267.931C134.849 268.284 134.448 268.558 134.002 268.733C133.556 268.907 133.076 268.978 132.598 268.938C132.121 268.899 131.658 268.752 131.246 268.507Z" fill="#37474F"/>
<path d="M88.4346 216.008L92.2846 218.318L87.4952 229.868L85.3161 235.104C84.7077 236.568 84.6502 238.203 85.1541 239.707C85.658 241.21 86.6894 242.48 88.0573 243.281L131.239 268.537C131.651 268.781 132.112 268.927 132.589 268.966C133.066 269.004 133.545 268.933 133.99 268.759C134.435 268.584 134.835 268.311 135.159 267.959C135.483 267.607 135.722 267.186 135.859 266.728L138.939 268.46L196.889 234.927L198.76 254.562L195.719 255.016L195.495 253.684C195.403 253.157 195.186 252.661 194.861 252.236C194.536 251.811 194.113 251.471 193.629 251.245C193.144 251.018 192.613 250.911 192.078 250.934C191.544 250.956 191.023 251.107 190.56 251.374L147.84 275.953C146.097 276.956 144.679 278.44 143.756 280.227C142.833 282.014 142.444 284.029 142.635 286.032L142.781 287.572H139.701L139.07 283.845C138.815 282.319 138.225 280.869 137.342 279.599C136.459 278.329 135.306 277.27 133.965 276.499L84.6077 248.071C84.138 247.799 83.6171 247.628 83.0779 247.568C82.5387 247.508 81.9929 247.56 81.4749 247.721C80.9569 247.883 80.478 248.15 80.0683 248.505C79.6586 248.861 79.327 249.298 79.0945 249.788L74.4206 259.598C74.4206 259.598 72.8806 260.422 72.2954 258.943L88.4346 216.008Z" fill="#455A64"/>
<path d="M143.343 167.598L189.744 203.542C191.158 204.639 192.332 206.014 193.196 207.581C194.059 209.149 194.593 210.877 194.764 212.659L199.961 267.19C199.675 267.457 199.307 267.621 198.916 267.656C198.526 267.691 198.135 267.595 197.805 267.382L188.565 212.635C188.409 211.703 188.053 210.816 187.521 210.035C186.989 209.253 186.295 208.596 185.485 208.108L144.475 183.529C139.101 180.334 138.161 169.038 143.343 167.598Z" fill="#455A64"/>
<path opacity="0.3" d="M143.343 167.598L189.744 203.542C191.158 204.639 192.332 206.014 193.196 207.581C194.059 209.149 194.593 210.877 194.764 212.659L199.961 267.19C199.675 267.457 199.307 267.621 198.916 267.656C198.526 267.691 198.135 267.595 197.805 267.382L188.565 212.635C188.409 211.703 188.053 210.816 187.521 210.035C186.989 209.253 186.295 208.596 185.485 208.108L144.475 183.529C139.101 180.334 138.161 169.038 143.343 167.598Z" fill="white"/>
<path d="M90.1901 229.645C90.3965 229.09 90.7919 228.627 91.3067 228.336L137.83 201.478C138.813 200.907 139.931 200.606 141.068 200.606C142.205 200.606 143.322 200.907 144.306 201.478L190.506 228.32C191.023 228.616 191.418 229.085 191.622 229.645C192.947 232.093 193.393 237.653 191.545 241.195C191.302 241.658 190.937 242.046 190.49 242.319L143.99 269.176C143.006 269.746 141.889 270.045 140.752 270.045C139.615 270.045 138.499 269.746 137.514 269.176L91.3143 242.334C90.86 242.069 90.4974 241.671 90.2748 241.195C88.4191 237.653 88.8657 232.093 90.1901 229.645Z" fill="#EA6767"/>
<path opacity="0.3" d="M90.1901 229.645C90.3965 229.09 90.7919 228.627 91.3067 228.336L137.83 201.478C138.813 200.907 139.931 200.606 141.068 200.606C142.205 200.606 143.322 200.907 144.306 201.478L190.506 228.32C191.023 228.616 191.418 229.085 191.622 229.645C192.947 232.093 193.393 237.653 191.545 241.195C191.302 241.658 190.937 242.046 190.49 242.319L143.99 269.176C143.006 269.746 141.889 270.045 140.752 270.045C139.615 270.045 138.499 269.746 137.514 269.176L91.3143 242.334C90.86 242.069 90.4974 241.671 90.2748 241.195C88.4191 237.653 88.8657 232.093 90.1901 229.645Z" fill="white"/>
<path opacity="0.3" d="M90.1901 229.645C89.9691 230.218 89.9593 230.851 90.1624 231.431C90.3656 232.011 90.7685 232.5 91.299 232.809L137.499 259.652C138.483 260.221 139.6 260.52 140.737 260.52C141.874 260.52 142.99 260.221 143.975 259.652L190.498 232.786C191.028 232.482 191.433 231.998 191.639 231.423C191.845 230.847 191.839 230.217 191.622 229.645C192.947 232.093 193.393 237.653 191.545 241.195C191.302 241.658 190.937 242.046 190.49 242.319L143.99 269.177C143.006 269.746 141.889 270.045 140.752 270.045C139.615 270.045 138.499 269.746 137.514 269.177L91.3143 242.334C90.86 242.069 90.4974 241.672 90.2748 241.195C88.4191 237.653 88.8657 232.093 90.1901 229.645Z" fill="black"/>
<path d="M86.3478 178.64L130.338 153.23C130.729 153.003 131.172 152.88 131.624 152.876H131.839C135.859 152.914 139.008 155.309 141.341 158.127C141.378 158.159 141.412 158.195 141.441 158.235C141.676 158.525 141.846 158.86 141.942 159.221L154.562 206.191C154.937 207.525 154.858 208.946 154.338 210.231C153.819 211.515 152.887 212.591 151.69 213.29L107.708 238.7C107.242 238.97 106.704 239.091 106.168 239.046C101.132 238.523 98.1673 235.412 96.6812 233.772C96.3992 233.457 96.196 233.08 96.0883 232.671L83.468 185.701C83.1033 184.371 83.188 182.958 83.7087 181.681C84.2294 180.405 85.1571 179.335 86.3478 178.64Z" fill="#EA6767"/>
<path opacity="0.2" d="M86.3478 178.64L130.338 153.23C130.729 153.003 131.172 152.88 131.624 152.876H131.839C135.859 152.914 139.008 155.309 141.341 158.127C141.378 158.159 141.412 158.195 141.441 158.235C141.676 158.525 141.846 158.86 141.942 159.221L154.562 206.191C154.937 207.525 154.858 208.946 154.338 210.231C153.819 211.515 152.887 212.591 151.69 213.29L107.708 238.7C107.242 238.97 106.704 239.091 106.168 239.046C101.132 238.523 98.1673 235.412 96.6812 233.772C96.3992 233.457 96.196 233.08 96.0883 232.671L83.468 185.701C83.1033 184.371 83.188 182.958 83.7087 181.681C84.2294 180.405 85.1571 179.335 86.3478 178.64Z" fill="white"/>
<path opacity="0.1" d="M86.348 178.64L130.338 153.23C130.729 153.003 131.172 152.88 131.624 152.876H131.84C135.859 152.914 139.008 155.309 141.341 158.127C140.931 157.678 140.38 157.383 139.779 157.291C139.178 157.198 138.564 157.314 138.038 157.619L94.048 183.029C92.7973 183.756 91.8369 184.893 91.3299 186.248L83.6299 181.812C84.1465 180.475 85.1058 179.355 86.348 178.64Z" fill="black"/>
<path opacity="0.2" d="M91.3295 186.209C90.8583 187.439 90.7909 188.788 91.137 190.059L103.757 237.029C103.899 237.563 104.204 238.04 104.629 238.393C105.054 238.746 105.578 238.958 106.129 239C101.093 238.477 98.1286 235.366 96.6425 233.726C96.3606 233.411 96.1574 233.033 96.0496 232.625L83.4293 185.655C83.0903 184.382 83.163 183.034 83.6372 181.805L91.3295 186.209Z" fill="black"/>
<path d="M183.714 263.633C183.202 266.33 182.911 269.065 182.844 271.81L180.95 271.04C180.032 270.688 179.03 270.616 178.071 270.833C177.112 271.049 176.238 271.545 175.56 272.257L175.468 272.357C175.123 272.721 174.65 272.937 174.149 272.96C173.648 272.983 173.157 272.811 172.78 272.48C172.579 272.305 172.416 272.09 172.302 271.849C172.188 271.608 172.125 271.345 172.118 271.079L171.856 262.855L183.714 263.633Z" fill="#FFA8A7"/>
<path d="M176.261 294.179C180.265 298.467 187.649 302.217 193.008 298.56L192.408 299.923C187.018 303.58 179.664 299.83 175.66 295.549C171.656 291.268 174.251 288.288 170.647 284.484C169.286 283.187 168.223 281.611 167.529 279.864C167.691 279.456 167.837 278.917 168.029 278.324C168.807 280.11 169.897 281.742 171.248 283.144C174.851 286.925 172.249 289.897 176.261 294.179Z" fill="white"/>
<path d="M170 273.82C170.621 272.943 171.051 271.947 171.263 270.894C171.3 270.653 171.387 270.422 171.52 270.218C171.653 270.013 171.828 269.839 172.033 269.708L172.079 271.086C172.09 271.47 172.215 271.842 172.437 272.154C172.659 272.467 172.969 272.707 173.327 272.844C173.686 272.981 174.077 273.008 174.451 272.923C174.825 272.838 175.165 272.643 175.429 272.365L175.521 272.264C176.199 271.552 177.073 271.057 178.032 270.84C178.991 270.624 179.993 270.696 180.911 271.048L182.875 271.818C183.164 271.931 183.412 272.129 183.587 272.386C183.761 272.643 183.854 272.947 183.853 273.258C183.722 278.879 186.348 286.348 189.104 290.444C191.938 291.622 194.379 295.48 193.131 298.306L193.008 298.591C187.618 302.248 180.265 298.498 176.261 294.209C172.257 289.92 174.851 286.956 171.248 283.152C169.897 281.75 168.807 280.117 168.029 278.332C168.473 276.743 169.137 275.225 170 273.82Z" fill="#EA6767"/>
<path opacity="0.2" d="M170 273.82C170.621 272.943 171.051 271.947 171.263 270.894C171.3 270.653 171.387 270.422 171.52 270.218C171.653 270.013 171.828 269.839 172.033 269.708L172.079 271.086C172.09 271.47 172.215 271.842 172.437 272.154C172.659 272.467 172.969 272.707 173.327 272.844C173.686 272.981 174.077 273.008 174.451 272.923C174.825 272.838 175.165 272.643 175.429 272.365L175.521 272.264C176.199 271.552 177.073 271.057 178.032 270.84C178.991 270.624 179.993 270.696 180.911 271.048L182.875 271.818C183.164 271.931 183.412 272.129 183.587 272.386C183.761 272.643 183.854 272.947 183.853 273.258C183.722 278.879 186.348 286.348 189.104 290.444C191.938 291.622 194.379 295.48 193.131 298.306L193.008 298.591C187.618 302.248 180.265 298.498 176.261 294.209C172.257 289.92 174.851 286.956 171.248 283.152C169.897 281.75 168.807 280.117 168.029 278.332C168.473 276.743 169.137 275.225 170 273.82Z" fill="white"/>
<path d="M177.87 281.936C177.79 281.975 177.703 281.998 177.614 282.004C177.525 282.01 177.436 281.999 177.352 281.97C177.267 281.941 177.189 281.896 177.122 281.838C177.055 281.779 177.001 281.707 176.961 281.628C176.92 281.55 176.894 281.464 176.885 281.377C176.876 281.289 176.885 281.2 176.911 281.116C176.937 281.031 176.979 280.953 177.035 280.885C177.091 280.816 177.16 280.76 177.238 280.719C178.413 280.054 179.739 279.705 181.088 279.705C182.438 279.705 183.764 280.054 184.938 280.719C185.054 281.158 185.185 281.597 185.316 282.036C184.19 281.375 182.911 281.018 181.606 281.001C180.301 280.983 179.013 281.305 177.87 281.936Z" fill="white"/>
<path d="M176.861 278.894C176.7 278.978 176.512 278.994 176.339 278.939C176.166 278.884 176.021 278.763 175.937 278.601C175.854 278.44 175.837 278.252 175.892 278.079C175.947 277.906 176.069 277.761 176.23 277.677C177.46 277.006 178.841 276.659 180.243 276.671C181.645 276.684 183.02 277.054 184.238 277.747C184.315 278.201 184.415 278.663 184.515 279.125C182.174 277.893 179.818 277.4 176.861 278.894Z" fill="white"/>
<path d="M178.925 284.961C178.763 285.039 178.578 285.051 178.408 284.993C178.238 284.935 178.098 284.814 178.017 284.653C177.935 284.495 177.919 284.311 177.972 284.141C178.026 283.971 178.144 283.828 178.301 283.745C179.448 283.098 180.74 282.752 182.057 282.738C183.373 282.725 184.672 283.045 185.832 283.668C186.001 284.145 186.178 284.607 186.363 285.069C185.239 284.409 183.962 284.052 182.658 284.033C181.355 284.014 180.068 284.334 178.925 284.961Z" fill="white"/>
<path d="M189.104 290.413C191.938 291.591 194.379 295.449 193.131 298.275L193.008 298.56C187.726 302.163 180.496 298.56 176.445 294.371C179.818 287.757 186.871 289.405 189.104 290.413Z" fill="white"/>
<path d="M180.111 287.911C180.031 287.95 179.944 287.974 179.855 287.98C179.766 287.986 179.677 287.974 179.593 287.945C179.508 287.917 179.43 287.872 179.363 287.813C179.296 287.754 179.241 287.683 179.202 287.603C179.122 287.445 179.106 287.262 179.158 287.093C179.209 286.923 179.325 286.78 179.479 286.694C180.631 286.048 181.928 285.703 183.248 285.692C184.569 285.682 185.871 286.005 187.033 286.633C187.272 287.156 187.518 287.657 187.803 288.173C185.431 286.91 183.075 286.44 180.111 287.911Z" fill="white"/>
<path d="M192.138 279.972C192.753 282.636 193.585 285.244 194.625 287.772L192.569 287.887C191.591 287.939 190.649 288.279 189.863 288.864C189.077 289.449 188.481 290.253 188.15 291.175L188.103 291.299C187.934 291.77 187.588 292.158 187.139 292.381C186.689 292.603 186.171 292.643 185.693 292.492C185.439 292.415 185.203 292.286 185.001 292.112C184.8 291.938 184.637 291.724 184.523 291.483L180.95 284.061L192.138 279.972Z" fill="#FFA8A7"/>
<path d="M197.651 310.934C203.041 313.244 211.311 313.69 214.738 308.177V309.671C211.311 315.176 203.049 314.73 197.651 312.427C192.254 310.125 193.432 306.352 188.596 304.327C186.827 303.685 185.217 302.668 183.876 301.347C183.876 300.908 183.784 300.362 183.707 299.722C185.139 301.043 186.795 302.099 188.596 302.841C193.432 304.866 192.254 308.631 197.651 310.934Z" fill="white"/>
<path d="M183.707 294.833C183.929 293.782 183.929 292.696 183.707 291.645C183.645 291.406 183.634 291.157 183.677 290.914C183.719 290.671 183.814 290.44 183.953 290.236L184.554 291.483C184.667 291.724 184.83 291.938 185.032 292.112C185.234 292.286 185.469 292.415 185.724 292.492C186.202 292.643 186.72 292.603 187.17 292.381C187.619 292.158 187.965 291.77 188.134 291.299L188.18 291.175C188.511 290.253 189.107 289.449 189.894 288.864C190.68 288.279 191.622 287.939 192.6 287.887L194.695 287.772C195.005 287.761 195.312 287.844 195.574 288.01C195.837 288.176 196.043 288.418 196.165 288.704C198.321 293.893 203.734 299.661 207.908 302.31C210.988 302.233 214.769 304.781 214.769 307.869V308.177C211.342 313.69 203.08 313.236 197.682 310.934C192.285 308.631 193.463 304.866 188.627 302.841C186.826 302.099 185.17 301.043 183.738 299.722C183.501 298.102 183.491 296.456 183.707 294.833Z" fill="#EA6767"/>
<path opacity="0.2" d="M183.707 294.833C183.929 293.782 183.929 292.696 183.707 291.645C183.645 291.406 183.634 291.157 183.677 290.914C183.719 290.671 183.814 290.44 183.953 290.236L184.554 291.483C184.667 291.724 184.83 291.938 185.032 292.112C185.234 292.286 185.469 292.415 185.724 292.492C186.202 292.643 186.72 292.603 187.17 292.381C187.619 292.158 187.965 291.77 188.134 291.299L188.18 291.175C188.511 290.253 189.107 289.449 189.894 288.864C190.68 288.279 191.622 287.939 192.6 287.887L194.695 287.772C195.005 287.761 195.312 287.844 195.574 288.01C195.837 288.176 196.043 288.418 196.165 288.704C198.321 293.893 203.734 299.661 207.908 302.31C210.988 302.233 214.769 304.781 214.769 307.869V308.177C211.342 313.69 203.08 313.236 197.682 310.934C192.285 308.631 193.463 304.866 188.627 302.841C186.826 302.099 185.17 301.043 183.738 299.722C183.501 298.102 183.491 296.456 183.707 294.833Z" fill="white"/>
<path d="M194.156 299.091C194.041 299.233 193.875 299.324 193.694 299.343C193.513 299.363 193.331 299.309 193.189 299.195C193.047 299.081 192.957 298.915 192.937 298.733C192.918 298.552 192.971 298.371 193.085 298.229C193.898 297.153 194.973 296.305 196.209 295.765C197.444 295.226 198.797 295.014 200.138 295.149C200.423 295.511 200.716 295.857 201.016 296.204C199.721 296.05 198.407 296.235 197.205 296.741C196.002 297.248 194.951 298.057 194.156 299.091Z" fill="white"/>
<path d="M192.023 296.704C191.903 296.825 191.744 296.897 191.574 296.907C191.404 296.917 191.237 296.864 191.105 296.757C190.973 296.651 190.884 296.499 190.858 296.331C190.831 296.163 190.867 295.992 190.96 295.849C191.813 294.737 192.936 293.861 194.224 293.305C195.511 292.75 196.919 292.534 198.314 292.677C198.575 293.062 198.845 293.447 199.122 293.824C196.489 293.639 194.132 294.14 192.023 296.704Z" fill="white"/>
<path d="M196.35 301.416C196.231 301.537 196.071 301.61 195.901 301.62C195.732 301.629 195.564 301.576 195.432 301.469C195.3 301.363 195.212 301.211 195.185 301.043C195.158 300.876 195.195 300.704 195.287 300.562C196.08 299.513 197.124 298.682 198.323 298.143C199.522 297.605 200.838 297.377 202.148 297.482C202.494 297.851 202.849 298.205 203.203 298.552C201.91 298.396 200.6 298.579 199.399 299.081C198.197 299.583 197.147 300.387 196.35 301.416Z" fill="white"/>
<path d="M207.9 302.31C210.98 302.233 214.761 304.781 214.761 307.869V308.177C211.38 313.567 203.319 313.244 197.921 311.034C198.314 303.619 205.428 302.279 207.9 302.31Z" fill="white"/>
<path d="M198.66 303.642C198.544 303.776 198.381 303.861 198.204 303.877C198.028 303.894 197.851 303.841 197.713 303.73C197.574 303.62 197.484 303.46 197.461 303.284C197.438 303.108 197.484 302.93 197.59 302.787C198.385 301.735 199.432 300.901 200.636 300.363C201.839 299.824 203.159 299.599 204.473 299.707C204.905 300.092 205.328 300.477 205.759 300.793C203.103 300.577 200.747 301.07 198.66 303.642Z" fill="white"/>
<path d="M160.429 209.771L187.449 224.84C189.897 226.204 191.856 228.302 193.048 230.838C194.24 233.375 194.606 236.222 194.094 238.977L188.85 267.19L193.154 280.85C189.42 285.832 180.95 286.086 180.95 286.086C176.199 276.561 172.711 272.511 170.016 264.526C167.321 256.541 165.496 251.02 165.496 251.02L143.058 244.86C137.927 243.466 133.331 240.565 129.866 236.532C126.4 232.499 124.223 227.52 123.616 222.237C123.238 218.849 123.215 216.532 123.215 216.532L160.429 209.771Z" fill="#455A64"/>
<path d="M160.429 209.771L187.449 224.84C189.897 226.204 191.856 228.302 193.048 230.838C194.24 233.375 194.606 236.222 194.094 238.977L188.85 267.19L193.154 280.85C189.42 285.832 180.95 286.086 180.95 286.086C176.199 276.561 172.711 272.511 170.016 264.526C167.321 256.541 165.496 251.02 165.496 251.02L143.058 244.86C137.927 243.466 133.331 240.565 129.866 236.532C126.4 232.499 124.223 227.52 123.616 222.237C123.238 218.849 123.215 216.532 123.215 216.532L160.429 209.771Z" fill="#37474F"/>
<path opacity="0.2" d="M160.229 217.363C160.229 220.383 159.16 223.304 157.211 225.61L176.268 237.545C179.067 239.294 181.14 241.996 182.105 245.153L188.85 267.19L182.767 242.619C182.067 239.792 180.287 237.351 177.808 235.82L160.206 224.948C162.008 220.459 160.229 217.363 160.229 217.363Z" fill="black"/>
<path d="M157.511 163.363H158.204C162.87 163.409 168.776 166.59 171.664 174.728L182.875 196.442L170.078 202.117L163.071 181.628L157.511 163.363Z" fill="#EA6767"/>
<g opacity="0.2">
<path opacity="0.2" d="M157.511 163.363H158.204C162.87 163.409 168.776 166.59 171.664 174.728L182.875 196.442L170.078 202.117L163.071 181.628L157.511 163.363Z" fill="black"/>
</g>
<path opacity="0.2" d="M166.497 177.77C167.39 180.334 167.444 183.098 167.59 185.816C167.737 188.535 168.045 191.799 169.284 194.217C170.653 193.265 172.293 192.782 173.96 192.841C175.626 192.901 177.228 193.5 178.524 194.548C179.452 195.329 180.165 196.334 180.596 197.467L170.093 202.125L163.086 181.635L159.644 170.332C161.223 171.055 162.641 172.085 163.818 173.362C164.994 174.639 165.905 176.138 166.497 177.77Z" fill="black"/>
<path d="M169.955 198.206C170.445 196.999 171.234 195.937 172.246 195.118C173.259 194.3 174.463 193.751 175.745 193.524C177.082 193.39 178.432 193.586 179.676 194.096C180.919 194.607 182.018 195.415 182.875 196.45C184.269 198.136 184.053 200.423 183.168 202.425C182.431 203.982 181.177 205.235 179.62 205.972C178.064 206.709 176.3 206.884 174.628 206.468C171.325 205.544 168.707 201.409 169.955 198.206Z" fill="#EA6767"/>
<g opacity="0.2">
<path opacity="0.2" d="M169.955 198.206C170.445 196.999 171.234 195.937 172.246 195.118C173.259 194.3 174.463 193.751 175.745 193.524C177.082 193.39 178.432 193.586 179.676 194.096C180.919 194.607 182.018 195.415 182.875 196.45C184.269 198.136 184.053 200.423 183.168 202.425C182.431 203.982 181.177 205.235 179.62 205.972C178.064 206.709 176.3 206.884 174.628 206.468C171.325 205.544 168.707 201.409 169.955 198.206Z" fill="black"/>
</g>
<path d="M122.784 218.68C127.581 223.3 150.597 224.124 162.339 212.944C161.215 205.051 161.569 196.596 162.339 188.234C163.109 179.872 167.976 165.25 158.643 163.548C146.177 161.115 139.886 163.356 129.707 166.004C120.813 180.819 122.037 202.995 122.784 218.68Z" fill="#EA6767"/>
<path opacity="0.2" d="M122.784 218.68C127.581 223.3 150.597 224.124 162.339 212.944C161.215 205.051 161.569 196.596 162.339 188.234C163.109 179.872 167.976 165.25 158.643 163.548C146.177 161.115 139.886 163.356 129.707 166.004C120.813 180.819 122.037 202.995 122.784 218.68Z" fill="black"/>
<path opacity="0.2" d="M136.405 202.225C135.913 194.002 136.405 180.011 133.703 175.922L126.28 173.25C121.722 185.87 121.983 201.471 122.553 214.122C127.554 217.002 133.031 218.963 138.723 219.912C141.095 220.351 143.489 220.682 145.892 220.875C151.921 219.627 157.919 217.125 162.324 212.928C162.17 211.873 162.054 210.795 161.954 209.717C156.141 209.392 150.399 208.283 144.883 206.422C143.855 205.154 142.565 204.122 141.102 203.398C139.639 202.674 138.037 202.274 136.405 202.225Z" fill="black"/>
<path opacity="0.15" d="M156.749 218.126C156.749 218.126 156.749 218.126 156.749 218.087C156.749 218.049 156.749 218.087 156.749 218.041V218.002V217.956C156.749 217.956 156.749 217.956 156.749 217.91V217.872L165.127 202.279L166.282 203.596L157.904 219.188C157.851 219.276 157.814 219.372 157.796 219.473C157.788 219.502 157.787 219.533 157.793 219.563C157.8 219.593 157.814 219.62 157.835 219.643L156.68 218.334V218.272C156.68 218.272 156.68 218.233 156.68 218.218L156.749 218.126Z" fill="white"/>
<path opacity="0.2" d="M165.265 202.179V202.133V202.087V202.04V201.986V201.94V201.886L165.304 201.84V201.794V201.748V201.709L165.427 201.601H165.465H165.512H165.565H165.619H165.673L175.306 196.211H175.36H175.414H175.468H175.522H175.568H175.622H175.668H175.722H175.776H175.953C175.98 196.211 176.007 196.217 176.032 196.227C176.057 196.238 176.08 196.253 176.099 196.273L177.246 197.59C177.2 197.528 177.1 197.513 176.961 197.544C176.776 197.592 176.597 197.664 176.43 197.759L166.797 203.149C166.608 203.258 166.425 203.379 166.251 203.511C166.066 203.657 165.889 203.804 165.719 203.965C165.558 204.117 165.406 204.279 165.265 204.45C165.145 204.594 165.04 204.749 164.949 204.912L163.794 203.596L165.265 202.179Z" fill="white"/>
<path d="M170.108 208.108C170.108 208.108 164.025 211.188 161.33 209.494L162.755 206.845C158.927 206.786 155.197 208.054 152.198 210.433C146.446 209.381 140.83 207.684 135.458 205.374L133.549 204.604L123.87 212.651C130.469 216.925 161.6 219.851 164.834 217.856C168.068 215.862 170.547 211.904 170.108 208.108Z" fill="#FFA8A7"/>
<path d="M176.684 200.261C176.888 201.276 177.007 202.307 177.038 203.341C176.79 205.827 175.735 208.163 174.036 209.994C173.682 210.395 173.239 210.707 172.742 210.903C172.493 210.995 172.225 211.021 171.964 210.98C171.702 210.938 171.456 210.829 171.248 210.664C170.885 210.235 170.698 209.685 170.725 209.124C170.643 208.283 170.69 207.434 170.863 206.606C171.035 205.77 171.506 205.026 172.187 204.512C172.717 204.19 173.283 203.931 173.874 203.742C174.451 203.5 174.965 203.129 175.375 202.656L176.684 200.261Z" fill="#FFA8A7"/>
<path d="M133.549 204.581L133.841 178.555C133.881 175.038 133.016 171.571 131.331 168.484L129.706 166.012C128.411 166.141 127.168 166.593 126.092 167.326C125.016 168.059 124.141 169.05 123.546 170.208C121.295 174.075 120.252 178.526 120.551 182.99C120.551 182.99 119.527 209.817 123.87 212.628L133.549 204.581Z" fill="#EA6767"/>
<path d="M140.047 205.644L133.549 204.581L123.87 212.628C126.711 214.822 133.518 217.179 138.007 218.28C139.382 218.617 140.823 218.582 142.18 218.18L142.95 217.956L144.436 207.9C143.244 206.709 141.71 205.921 140.047 205.644Z" fill="#EA6767"/>
<g opacity="0.2">
<path opacity="0.2" d="M133.549 204.581L133.841 178.555C133.881 175.038 133.016 171.571 131.331 168.484L129.706 166.012C128.411 166.141 127.168 166.593 126.092 167.326C125.016 168.059 124.141 169.05 123.546 170.208C121.295 174.075 120.252 178.526 120.551 182.99C120.551 182.99 119.527 209.817 123.87 212.628L133.549 204.581Z" fill="black"/>
<path opacity="0.2" d="M140.047 205.644L133.549 204.581L123.87 212.628C126.711 214.822 133.518 217.179 138.007 218.28C139.382 218.617 140.823 218.582 142.18 218.18L142.95 217.956L144.436 207.9C143.244 206.709 141.71 205.921 140.047 205.644Z" fill="black"/>
</g>
<path d="M150.15 210.056C147.201 211.557 148.71 217.502 149.288 217.956L150.15 218.033C150.008 218.273 149.801 218.468 149.553 218.594C149.305 218.721 149.026 218.775 148.749 218.749C147.17 218.587 144.036 218.241 142.912 217.979C139.886 213.428 143.266 208.554 144.406 207.9C146.254 208.447 148.063 208.847 149.026 209.04C149.232 209.081 149.426 209.168 149.595 209.293C149.764 209.418 149.904 209.579 150.004 209.763L150.15 210.056Z" fill="#EA6767"/>
<path opacity="0.3" d="M150.15 210.056C147.201 211.557 148.71 217.502 149.288 217.956L150.15 218.033C150.008 218.273 149.801 218.468 149.553 218.594C149.305 218.721 149.026 218.775 148.749 218.749C147.17 218.587 144.036 218.241 142.912 217.979C139.886 213.428 143.266 208.554 144.406 207.9C146.254 208.447 148.063 208.847 149.026 209.04C149.232 209.081 149.426 209.168 149.595 209.293C149.764 209.418 149.904 209.579 150.004 209.763L150.15 210.056Z" fill="black"/>
<path d="M139.016 164.503C138.803 164.914 138.686 165.367 138.672 165.83C138.659 166.292 138.75 166.752 138.939 167.175C139.33 168.016 139.903 168.761 140.617 169.354C142.742 171.233 145.42 172.37 148.248 172.595C149.772 172.77 151.314 172.502 152.691 171.825C153.372 171.474 153.954 170.957 154.383 170.322C154.812 169.687 155.075 168.954 155.147 168.191C155.124 167.296 154.85 166.426 154.358 165.679C153.865 164.932 153.173 164.338 152.36 163.964C150.716 163.257 148.917 162.992 147.139 163.194C145.475 163.417 143.797 163.509 142.119 163.471C140.964 163.302 139.686 163.355 139.016 164.503Z" fill="#EA6767"/>
<path opacity="0.3" d="M139.016 164.503C138.803 164.914 138.686 165.367 138.672 165.83C138.659 166.292 138.75 166.752 138.939 167.175C139.33 168.016 139.903 168.761 140.617 169.354C142.742 171.233 145.42 172.37 148.248 172.595C149.772 172.77 151.314 172.502 152.691 171.825C153.372 171.474 153.954 170.957 154.383 170.322C154.812 169.687 155.075 168.954 155.147 168.191C155.124 167.296 154.85 166.426 154.358 165.679C153.865 164.932 153.173 164.338 152.36 163.964C150.716 163.257 148.917 162.992 147.139 163.194C145.475 163.417 143.797 163.509 142.119 163.471C140.964 163.302 139.686 163.355 139.016 164.503Z" fill="black"/>
<path d="M137.953 145.153L144.737 155.163H144.906L137.668 144.506C137.668 144.506 126.049 149.488 126.888 153.053C126.907 153.098 126.922 153.144 126.934 153.191L127.027 153.422C127.024 153.445 127.024 153.469 127.027 153.492L127.258 154.077C127.213 153.975 127.177 153.869 127.15 153.761C126.334 150.15 137.953 145.153 137.953 145.153Z" fill="#EA6767"/>
<path opacity="0.1" d="M137.953 145.153L144.737 155.163H144.906L137.668 144.506C137.668 144.506 126.049 149.488 126.888 153.053C126.907 153.098 126.922 153.144 126.934 153.191L127.027 153.422C127.024 153.445 127.024 153.469 127.027 153.492L127.258 154.077C127.213 153.975 127.177 153.869 127.15 153.761C126.334 150.15 137.953 145.153 137.953 145.153Z" fill="black"/>
<path d="M144.76 155.147L137.976 145.137C137.976 145.137 126.357 150.127 127.196 153.684C127.223 153.792 127.259 153.898 127.304 154C129.106 158.312 145.207 155.794 145.207 155.794L144.76 155.147Z" fill="#EA6767"/>
<path opacity="0.3" d="M144.76 155.147L137.976 145.137C137.976 145.137 126.357 150.127 127.196 153.684C127.223 153.792 127.259 153.898 127.304 154C129.106 158.312 145.207 155.794 145.207 155.794L144.76 155.147Z" fill="black"/>
<path d="M141.596 161.169C139.993 158.247 138.745 155.145 137.876 151.929C137.106 148.679 134.897 141.464 136.467 138.523C137.653 136.313 140.918 134.08 143.112 132.871C145.307 131.662 148.179 132.032 150.628 131.501C152.779 130.968 155.004 130.796 157.211 130.992C159.406 131.262 162.17 135.227 163.633 136.891C165.943 139.509 166.02 143.643 164.357 146.723C162.694 149.803 159.606 151.913 156.31 153.107C153.015 154.3 149.496 154.647 146.015 155.024C144.575 156.949 143.035 159.228 141.596 161.169Z" fill="#263238"/>
<path d="M160.037 129.26C156.618 126.18 151.451 125.564 146.947 126.75C143.135 127.758 138.715 128.936 136.513 132.14C134.311 135.343 135.428 139.901 135.682 144.46C139.659 141.285 144.369 139.156 149.38 138.269C149.973 138.161 150.581 138.084 151.197 138.022L150.897 136.529C150.809 136.103 150.813 135.664 150.91 135.24C151.006 134.817 151.193 134.419 151.456 134.074C151.72 133.728 152.054 133.444 152.437 133.239C152.82 133.034 153.243 132.914 153.677 132.887C154.367 132.848 155.06 132.864 155.748 132.933C156.705 133.031 157.608 133.426 158.33 134.063C159.052 134.699 159.557 135.545 159.775 136.482C159.929 137.175 160.083 137.876 160.229 138.508C161.933 138.807 163.614 139.229 165.257 139.77C164.133 136.02 162.955 131.893 160.037 129.26Z" fill="#455A64"/>
<path d="M159.667 136.167C156.765 135.511 153.764 135.422 150.828 135.905C150.826 136.115 150.846 136.324 150.889 136.529L151.19 138.023C154.208 137.775 157.247 137.939 160.222 138.508C160.076 137.876 159.922 137.176 159.768 136.483C159.737 136.375 159.698 136.29 159.667 136.167Z" fill="#37474F"/>
<path d="M152.645 160.16L152.198 165.134C152.181 165.521 152.28 165.905 152.483 166.235C152.758 166.754 152.863 167.345 152.784 167.927C152.705 168.508 152.447 169.05 152.044 169.477C151.406 169.968 150.625 170.239 149.819 170.247C148.305 170.328 146.79 170.089 145.374 169.545C143.959 169.001 142.674 168.164 141.603 167.09C141.388 166.863 141.22 166.596 141.109 166.304C140.998 166.012 140.946 165.701 140.956 165.388L141.28 152.776L152.645 160.16Z" fill="#FFA8A7"/>
<path d="M152.645 160.16L152.198 165.134C152.181 165.521 152.28 165.905 152.483 166.235C152.758 166.754 152.863 167.345 152.784 167.927C152.705 168.508 152.447 169.05 152.044 169.477C151.406 169.968 150.625 170.239 149.819 170.247C148.305 170.328 146.79 170.089 145.374 169.545C143.959 169.001 142.674 168.164 141.603 167.09C141.388 166.863 141.22 166.596 141.109 166.304C140.998 166.012 140.946 165.701 140.956 165.388L141.28 152.776L152.645 160.16Z" fill="#FFA8A7"/>
<path opacity="0.2" d="M144.983 162.632C146.238 163.713 147.763 164.431 149.395 164.711C150.362 164.844 151.346 164.747 152.267 164.426L152.645 160.168L141.28 152.76L141.164 157.38C141.972 159.426 143.286 161.233 144.983 162.632Z" fill="black"/>
<path d="M156.872 144.76C157.943 144.256 158.847 143.454 159.475 142.45C157.235 143.472 154.841 144.112 152.391 144.344C153.33 143.528 154.223 142.604 155.163 141.788C153.483 142.356 151.757 142.776 150.004 143.043C150.982 142.541 151.852 141.853 152.568 141.018C149.819 142.302 146.871 143.106 143.851 143.397C143.717 143.578 143.63 143.79 143.597 144.013L143.135 147.594C143.14 147.848 143.089 148.101 142.983 148.333C142.878 148.565 142.722 148.77 142.527 148.933C142.315 149.033 142.079 149.066 141.848 149.029C141.617 148.992 141.403 148.886 141.233 148.726C140.901 148.394 140.639 147.998 140.463 147.563C140.09 146.66 139.589 145.815 138.977 145.053C138.666 144.674 138.278 144.366 137.839 144.149C137.399 143.933 136.918 143.813 136.428 143.798C134.835 143.836 133.618 145.43 133.449 147.016C133.371 147.836 133.498 148.662 133.819 149.42C134.141 150.179 134.646 150.845 135.289 151.359C135.952 151.829 136.722 152.126 137.528 152.223C138.335 152.32 139.154 152.213 139.909 151.913C139.185 154.678 140.633 157.642 142.781 159.521C144.929 161.4 147.686 162.416 150.373 163.371C151.844 163.902 153.399 164.441 154.932 164.141C156.181 163.86 157.301 163.169 158.112 162.177C158.918 161.191 159.58 160.094 160.075 158.92C162.5 153.686 163.881 148.028 164.141 142.265C162.091 143.934 159.514 144.818 156.872 144.76Z" fill="#FFA8A7"/>
<path d="M154.87 150.396L157.118 156.341L153.184 156.387L154.87 150.396Z" fill="#F28F8F"/>
<path d="M148.825 157.534L152.953 159.236C152.637 159.712 152.174 160.073 151.635 160.263C151.096 160.453 150.51 160.463 149.965 160.291C148.956 159.906 148.61 158.62 148.825 157.534Z" fill="#F28F8F"/>
<path opacity="0.3" d="M148.825 157.534L152.953 159.236C152.637 159.712 152.174 160.073 151.635 160.263C151.096 160.453 150.51 160.463 149.965 160.291C148.956 159.906 148.61 158.62 148.825 157.534Z" fill="black"/>
<path d="M151.367 160.337C150.905 160.461 150.417 160.445 149.965 160.291C149.586 160.105 149.27 159.812 149.056 159.448C148.842 159.084 148.741 158.664 148.764 158.243C149.383 158.194 149.998 158.383 150.482 158.773C150.965 159.162 151.282 159.722 151.367 160.337Z" fill="#F28F8F"/>
<path d="M149.311 149.311C149.231 149.594 149.268 149.898 149.412 150.155C149.556 150.412 149.797 150.602 150.081 150.681C150.365 150.761 150.669 150.724 150.926 150.58C151.183 150.436 151.372 150.195 151.451 149.911C151.491 149.771 151.502 149.624 151.485 149.479C151.468 149.334 151.422 149.194 151.35 149.066C151.279 148.939 151.183 148.827 151.068 148.737C150.953 148.647 150.822 148.58 150.681 148.541C150.541 148.501 150.394 148.49 150.249 148.507C150.104 148.525 149.964 148.57 149.837 148.642C149.709 148.713 149.597 148.809 149.507 148.924C149.417 149.039 149.35 149.17 149.311 149.311Z" fill="#263238"/>
<path d="M158.181 151.166C158.101 151.45 158.138 151.754 158.282 152.011C158.427 152.268 158.667 152.457 158.951 152.537C159.235 152.617 159.539 152.58 159.796 152.436C160.053 152.291 160.242 152.051 160.322 151.767C160.361 151.626 160.372 151.479 160.355 151.334C160.338 151.19 160.292 151.049 160.22 150.922C160.149 150.795 160.053 150.683 159.938 150.593C159.824 150.502 159.692 150.436 159.552 150.396C159.411 150.357 159.264 150.346 159.119 150.363C158.974 150.38 158.834 150.426 158.707 150.497C158.58 150.569 158.468 150.665 158.377 150.78C158.287 150.894 158.22 151.026 158.181 151.166Z" fill="#263238"/>
<path d="M160.599 145.692L162.509 148.002C162.7 147.739 162.803 147.422 162.803 147.097C162.803 146.772 162.7 146.455 162.509 146.192C162.269 145.938 161.963 145.757 161.626 145.668C161.288 145.58 160.932 145.588 160.599 145.692Z" fill="#263238"/>
<path d="M150.766 143.859L147.932 144.837C147.906 144.515 147.982 144.193 148.15 143.917C148.317 143.64 148.567 143.423 148.864 143.297C149.202 143.203 149.559 143.206 149.895 143.305C150.232 143.405 150.533 143.597 150.766 143.859Z" fill="#263238"/>
<path d="M87.3181 200.077L133.711 236.02C135.126 237.116 136.302 238.49 137.166 240.059C138.029 241.627 138.562 243.355 138.731 245.137L143.936 299.669C143.649 299.936 143.282 300.1 142.891 300.135C142.501 300.17 142.11 300.073 141.78 299.861L132.54 245.114C132.385 244.18 132.03 243.292 131.498 242.509C130.966 241.726 130.271 241.067 129.46 240.579L88.45 216.008C83.0754 212.813 82.1283 201.517 87.3181 200.077Z" fill="#455A64"/>
<path opacity="0.3" d="M87.3181 200.077L133.711 236.02C135.126 237.116 136.302 238.49 137.166 240.059C138.029 241.627 138.562 243.355 138.731 245.137L143.936 299.669C143.649 299.936 143.282 300.1 142.891 300.135C142.501 300.17 142.11 300.073 141.78 299.861L132.54 245.114C132.385 244.18 132.03 243.292 131.498 242.509C130.966 241.726 130.271 241.067 129.46 240.579L88.45 216.008C83.0754 212.813 82.1283 201.517 87.3181 200.077Z" fill="white"/>
<path d="M156.749 218.172C156.749 218.172 156.749 218.21 156.749 218.226V218.287L157.904 219.596C157.904 219.596 157.904 219.542 157.904 219.512C157.95 219.712 158.243 219.704 158.743 219.427L168.376 214.037C169.121 213.604 169.754 213.003 170.224 212.281L178.64 196.666C178.771 196.404 178.771 196.25 178.64 196.181H178.679L177.531 194.864C177.512 194.844 177.49 194.829 177.465 194.818C177.439 194.807 177.412 194.802 177.385 194.802H177.208H177.154H177.1H177.054H177H176.954H176.9H176.846H176.792H176.738L167.106 200.192H167.052H166.998H166.944H166.898H166.859L166.736 200.3V200.339V200.385V200.431L166.697 200.477V200.531V200.577V200.631V200.677V200.724V200.77V200.816L158.32 216.408V216.447C158.32 216.447 158.32 216.447 158.32 216.493V216.539V216.578C158.32 216.578 158.32 216.578 158.32 216.624C158.32 216.67 158.32 216.624 158.32 216.663V216.724L156.749 218.172ZM178.363 196.157H178.401C178.401 196.157 178.44 196.157 178.471 196.157C178.435 196.15 178.398 196.15 178.363 196.157ZM167.159 202.595L167.429 202.371L167.159 202.595ZM166.705 203.08L166.821 202.957L166.705 203.08ZM157.904 219.45C157.922 219.349 157.959 219.253 158.012 219.165C157.955 219.262 157.919 219.369 157.904 219.481V219.45Z" fill="#455A64"/>
<path d="M100.192 294.163L103.48 296.073L103.465 292.277L100.192 294.163Z" fill="#E6E6E6"/>
<path d="M103.334 255.432L71.3945 273.866L103.334 255.432Z" fill="#CFCFCF"/>
<path d="M103.465 292.277V296.073L106.884 294.101L106.769 249.48L67.9375 271.902L68.0607 316.516L71.4795 314.545V310.749L100.193 294.14L103.465 292.277ZM71.3948 273.866L103.334 255.432L103.373 269.9L71.441 288.38L71.3948 273.866ZM71.4487 292.3L103.388 273.858V273.904V288.334L71.4872 306.768L71.4487 292.3Z" fill="#E0E0E0"/>
<path d="M103.426 288.334L103.388 273.904V273.866L71.4482 292.3L71.4867 306.768L103.426 288.334Z" fill="#E0E0E0"/>
<path d="M103.373 269.9L103.334 255.432L71.3945 273.866L71.4407 288.342L103.373 269.9Z" fill="#E0E0E0"/>
<path d="M67.9373 271.903L34.0342 252.198L34.1574 296.82L68.0605 316.516L67.9373 271.903Z" fill="#E0E0E0"/>
<path d="M67.9373 271.902L106.768 249.48L72.8653 229.776L34.0342 252.198L67.9373 271.902Z" fill="#E0E0E0"/>
<path opacity="0.2" d="M100.192 294.163L103.48 296.073L103.465 292.277L100.192 294.163Z" fill="white"/>
<path d="M103.334 255.432L71.3945 273.866L103.334 255.432Z" fill="#CFCFCF"/>
<path opacity="0.8" d="M103.426 288.334L103.388 273.904V273.866L71.4482 292.3L71.4867 306.768L103.426 288.334Z" fill="white"/>
<path opacity="0.8" d="M103.373 269.9L103.334 255.432L71.3945 273.866L71.4407 288.342L103.373 269.9Z" fill="white"/>
<path d="M92.9237 266.82L92.9083 264.826L81.8511 271.209L81.8588 273.211L92.9237 266.82Z" fill="#E0E0E0"/>
<path d="M92.9237 285L92.9083 282.998L81.8511 289.381L81.8588 291.383L92.9237 285Z" fill="#E0E0E0"/>
<path opacity="0.2" d="M67.9373 271.903L34.0342 252.198L34.1574 296.82L68.0605 316.516L67.9373 271.903Z" fill="white"/>
<path opacity="0.4" d="M67.9373 271.902L106.768 249.48L72.8653 229.776L34.0342 252.198L67.9373 271.902Z" fill="white"/>
<path opacity="0.05" d="M60.4067 241.287C64.7187 238.792 71.6872 238.792 75.9684 241.287C80.2496 243.782 80.2265 247.809 75.9145 250.304C71.6025 252.799 64.634 252.791 60.3528 250.304C56.0716 247.817 56.0947 243.774 60.4067 241.287Z" fill="black"/>
<path d="M56.6644 225.61L68.4916 225.957L80.3265 225.61C80.8347 233.603 79.2716 241.742 77.1233 245.722C76.6238 246.741 75.8154 247.577 74.8133 248.109C71.3252 250.127 65.6811 250.127 62.2161 248.109C61.1955 247.573 60.3827 246.711 59.9061 245.661C57.7039 241.665 56.1562 233.572 56.6644 225.61Z" fill="white"/>
<path d="M60.1601 220.774C55.5401 223.454 55.4939 227.789 60.0985 230.469C64.7031 233.148 72.1952 233.141 76.8306 230.469C81.466 227.797 81.4506 223.454 76.8845 220.774C72.3184 218.095 64.7955 218.102 60.1601 220.774Z" fill="#EBEBEB"/>
<path d="M61.9929 221.837C58.3739 223.931 58.3585 227.312 61.9467 229.398C65.5349 231.485 71.3869 231.485 75.0367 229.398C78.6865 227.312 78.6711 223.931 75.0829 221.837C71.4947 219.743 65.6042 219.75 61.9929 221.837Z" fill="#E0E0E0"/>
<g opacity="0.15">
<path opacity="0.15" d="M61.9929 221.837C58.3739 223.931 58.3585 227.312 61.9467 229.398C65.5349 231.485 71.3869 231.485 75.0367 229.398C78.6865 227.312 78.6711 223.931 75.0829 221.837C71.4947 219.743 65.6042 219.75 61.9929 221.837Z" fill="black"/>
</g>
<path d="M69.4849 225.957C68.5362 226.748 67.4138 227.303 66.2093 227.577C65.0049 227.852 63.7527 227.837 62.5549 227.535C61.4005 227.182 60.352 226.548 59.5038 225.689C58.6556 224.83 58.0344 223.774 57.6962 222.615C59.0966 221.949 60.3788 221.06 61.4923 219.981C59.7136 219.534 57.8446 219.601 56.1023 220.174C55.6207 219.417 55.3316 218.554 55.2605 217.66C55.1893 216.767 55.3383 215.869 55.6943 215.046C57.7132 214.147 59.9843 213.989 62.1084 214.599C61.2272 213.83 60.1962 213.251 59.0803 212.9C57.9645 212.549 56.7879 212.432 55.6249 212.559C55.452 209.167 55.9761 205.776 57.1649 202.595C61.577 202.826 65.8505 204.72 67.2981 206.091C67.3615 207.669 67.1955 209.249 66.8053 210.78C67.3748 210.488 67.8612 210.057 68.2193 209.526C68.5774 208.996 68.7956 208.383 68.8535 207.746C71.6178 208.439 72.7959 209.817 73.2271 210.865C72.8308 212.827 71.9313 214.652 70.6168 216.162C73.204 215.392 74.2589 212.489 74.2589 212.489C76.823 218.526 76.3379 225.364 69.4849 225.957Z" fill="#EA6767"/>
<path opacity="0.2" d="M69.4849 225.957C68.5362 226.748 67.4138 227.303 66.2093 227.577C65.0049 227.852 63.7527 227.837 62.5549 227.535C61.4005 227.182 60.352 226.548 59.5038 225.689C58.6556 224.83 58.0344 223.774 57.6962 222.615C59.0966 221.949 60.3788 221.06 61.4923 219.981C59.7136 219.534 57.8446 219.601 56.1023 220.174C55.6207 219.417 55.3316 218.554 55.2605 217.66C55.1893 216.767 55.3383 215.869 55.6943 215.046C57.7132 214.147 59.9843 213.989 62.1084 214.599C61.2272 213.83 60.1962 213.251 59.0803 212.9C57.9645 212.549 56.7879 212.432 55.6249 212.559C55.452 209.167 55.9761 205.776 57.1649 202.595C61.577 202.826 65.8505 204.72 67.2981 206.091C67.3615 207.669 67.1955 209.249 66.8053 210.78C67.3748 210.488 67.8612 210.057 68.2193 209.526C68.5774 208.996 68.7956 208.383 68.8535 207.746C71.6178 208.439 72.7959 209.817 73.2271 210.865C72.8308 212.827 71.9313 214.652 70.6168 216.162C73.204 215.392 74.2589 212.489 74.2589 212.489C76.823 218.526 76.3379 225.364 69.4849 225.957Z" fill="black"/>
<path opacity="0.3" d="M69.4849 225.957C68.5362 226.748 67.4138 227.303 66.2093 227.577C65.0049 227.852 63.7527 227.837 62.5549 227.535C61.4005 227.182 60.352 226.548 59.5038 225.689C58.6556 224.83 58.0344 223.774 57.6962 222.615C59.0966 221.949 60.3788 221.06 61.4923 219.981C59.7136 219.534 57.8446 219.601 56.1023 220.174C55.6207 219.417 55.3316 218.554 55.2605 217.66C55.1893 216.767 55.3383 215.869 55.6943 215.046C57.7132 214.147 59.9843 213.989 62.1084 214.599C61.2272 213.83 60.1962 213.251 59.0803 212.9C57.9645 212.549 56.7879 212.432 55.6249 212.559C55.452 209.167 55.9761 205.776 57.1649 202.595C61.577 202.826 65.8505 204.72 67.2981 206.091C67.3615 207.669 67.1955 209.249 66.8053 210.78C67.3748 210.488 67.8612 210.057 68.2193 209.526C68.5774 208.996 68.7956 208.383 68.8535 207.746C71.6178 208.439 72.7959 209.817 73.2271 210.865C72.8308 212.827 71.9313 214.652 70.6168 216.162C73.204 215.392 74.2589 212.489 74.2589 212.489C76.823 218.526 76.3379 225.364 69.4849 225.957Z" fill="white"/>
<path d="M69.6387 226.611C69.7061 226.603 69.7681 226.57 69.8123 226.519C69.8566 226.468 69.8798 226.402 69.8774 226.334C69.4539 220.767 66.2661 211.573 58.6662 204.004C58.6433 203.98 58.6157 203.961 58.5853 203.948C58.5549 203.935 58.5222 203.929 58.4891 203.929C58.4561 203.929 58.4234 203.935 58.393 203.948C58.3625 203.961 58.335 203.98 58.312 204.004C58.2881 204.027 58.269 204.056 58.256 204.087C58.243 204.118 58.2363 204.151 58.2363 204.185C58.2363 204.218 58.243 204.252 58.256 204.283C58.269 204.314 58.2881 204.342 58.312 204.366C65.8118 211.85 68.9534 220.905 69.3692 226.388C69.3721 226.42 69.3814 226.452 69.3966 226.48C69.4117 226.509 69.4324 226.535 69.4575 226.555C69.4825 226.576 69.5114 226.592 69.5425 226.601C69.5737 226.611 69.6064 226.614 69.6387 226.611Z" fill="#F5F5F5"/>
<path d="M67.5524 228.936C68.4368 229.659 69.4798 230.163 70.5961 230.405C71.7124 230.648 72.8702 230.623 73.975 230.332C75.0797 230.042 76.1 229.494 76.9524 228.733C77.8047 227.973 78.465 227.021 78.8791 225.957C77.6136 225.387 76.4547 224.606 75.4526 223.647C77.1303 223.247 78.8841 223.3 80.5346 223.801C81.0335 223.162 81.3605 222.407 81.4845 221.606C81.6085 220.805 81.5254 219.986 81.243 219.227C79.3221 218.436 77.1922 218.308 75.1908 218.865C76.9721 217.473 79.2142 216.808 81.4663 217.001C81.8516 214.011 81.5622 210.972 80.6193 208.108C76.4151 208.362 72.2571 210.102 70.8095 211.334C70.6476 212.723 70.7047 214.129 70.9789 215.5C70.4715 215.255 70.041 214.876 69.7341 214.403C69.4273 213.931 69.2559 213.383 69.2387 212.82C66.6053 213.459 65.3887 214.691 64.9498 215.623C65.1987 217.352 65.936 218.973 67.075 220.297C66.3367 220.029 65.6687 219.597 65.1207 219.035C64.5727 218.472 64.1589 217.793 63.9103 217.048C61.146 222.399 61.1922 228.421 67.5524 228.936Z" fill="#EA6767"/>
<path opacity="0.3" d="M67.5524 228.936C68.4368 229.659 69.4798 230.163 70.5961 230.405C71.7124 230.648 72.8702 230.623 73.975 230.332C75.0797 230.042 76.1 229.494 76.9524 228.733C77.8047 227.973 78.465 227.021 78.8791 225.957C77.6136 225.387 76.4547 224.606 75.4526 223.647C77.1303 223.247 78.8841 223.3 80.5346 223.801C81.0335 223.162 81.3605 222.407 81.4845 221.606C81.6085 220.805 81.5254 219.986 81.243 219.227C79.3221 218.436 77.1922 218.308 75.1908 218.865C76.9721 217.473 79.2142 216.808 81.4663 217.001C81.8516 214.011 81.5622 210.972 80.6193 208.108C76.4151 208.362 72.2571 210.102 70.8095 211.334C70.6476 212.723 70.7047 214.129 70.9789 215.5C70.4715 215.255 70.041 214.876 69.7341 214.403C69.4273 213.931 69.2559 213.383 69.2387 212.82C66.6053 213.459 65.3887 214.691 64.9498 215.623C65.1987 217.352 65.936 218.973 67.075 220.297C66.3367 220.029 65.6687 219.597 65.1207 219.035C64.5727 218.472 64.1589 217.793 63.9103 217.048C61.146 222.399 61.1922 228.421 67.5524 228.936Z" fill="white"/>
<path d="M67.383 229.545C67.4438 229.544 67.5024 229.522 67.5488 229.483C67.5952 229.443 67.6264 229.389 67.6371 229.329C68.3609 224.478 71.8798 216.424 79.4335 209.702C79.4575 209.678 79.4766 209.65 79.4895 209.619C79.5025 209.588 79.5092 209.555 79.5092 209.521C79.5092 209.487 79.5025 209.454 79.4895 209.423C79.4766 209.392 79.4575 209.364 79.4335 209.34C79.4106 209.316 79.383 209.297 79.3526 209.284C79.3222 209.272 79.2895 209.265 79.2564 209.265C79.2234 209.265 79.1907 209.272 79.1603 209.284C79.1298 209.297 79.1023 209.316 79.0793 209.34C71.4255 216.162 67.8527 224.34 67.1135 229.275C67.1047 229.342 67.1224 229.409 67.1628 229.462C67.2032 229.515 67.2629 229.551 67.3291 229.56L67.383 229.545Z" fill="white"/>
<path d="M153.454 60.1678L122.4 77.8778C121.7 78.2889 121.119 78.8749 120.714 79.5782C120.309 80.2815 120.094 81.078 120.09 81.8895V111.026C120.11 111.831 120.343 112.617 120.765 113.303C121.186 113.989 121.782 114.551 122.491 114.932C123.2 115.314 123.998 115.501 124.802 115.475C125.607 115.449 126.391 115.211 127.074 114.784L135.929 109.794L136.298 110.395C136.315 110.417 136.336 110.435 136.36 110.449H136.406C137.084 110.895 138.277 111.542 138.547 111.673C138.609 111.693 138.677 111.688 138.735 111.659C138.794 111.631 138.84 111.581 138.862 111.519L140.402 107.215L158.112 97.0739C158.817 96.6669 159.402 96.0808 159.808 95.375C160.214 94.6691 160.426 93.8686 160.422 93.0545V63.91C160.446 60.5913 155.541 58.9743 153.454 60.1678Z" fill="#EA6767"/>
<path opacity="0.2" d="M136.29 110.426C136.307 110.448 136.328 110.466 136.352 110.48H136.398C137.075 110.926 138.269 111.573 138.538 111.704C138.507 111.697 138.477 111.684 138.45 111.666C138.424 111.647 138.401 111.624 138.384 111.596L136.921 109.217L137.206 109.055L135.92 109.825L136.29 110.426Z" fill="white"/>
<path opacity="0.4" d="M125.279 82.2668C125.579 81.6719 126.001 81.1471 126.519 80.7268C126.695 80.5837 126.883 80.4549 127.081 80.3418L158.127 62.6318C158.362 62.4964 158.628 62.4253 158.899 62.4255C159.169 62.4258 159.435 62.4975 159.67 62.6334C159.904 62.7693 160.098 62.9645 160.233 63.1995C160.368 63.4345 160.438 63.7008 160.437 63.9717C160.437 60.6376 155.525 59.0205 153.446 60.214L122.391 77.924C121.67 78.3394 121.077 78.9438 120.674 79.6719L125.279 82.2668Z" fill="white"/>
<path opacity="0.2" d="M124.74 113.483V84.3459C124.728 84.1639 124.728 83.9813 124.74 83.7992C124.817 83.2631 124.981 82.743 125.225 82.2592L120.605 79.6489C120.214 80.3394 120.007 81.1191 120.004 81.9127V111.05C120.025 111.855 120.257 112.64 120.679 113.326C121.101 114.012 121.696 114.574 122.406 114.956C123.115 115.337 123.912 115.524 124.717 115.498C125.522 115.472 126.305 115.234 126.988 114.807C126.757 114.927 126.499 114.987 126.238 114.979C125.977 114.972 125.722 114.899 125.498 114.767C125.273 114.635 125.086 114.447 124.953 114.223C124.82 113.998 124.747 113.743 124.74 113.483Z" fill="white"/>
<path d="M146.901 97.5745C146.839 98.9605 145.361 101.247 143.913 102.133L143.79 102.21C142.25 103.095 140.764 102.656 140.571 101.232L146.901 97.5745Z" fill="white"/>
<path d="M152.46 91.1757C152.852 91.322 152.976 92.1459 152.706 92.8004C152.571 93.158 152.318 93.4592 151.99 93.6551L151.135 94.1556L150.281 94.6484L143.736 98.4214L135.612 103.118C134.935 103.503 134.65 103.319 134.619 102.564C134.612 102.042 134.774 101.531 135.081 101.109C135.966 99.7052 136.546 98.1311 136.783 96.4887C137.003 94.9588 137.106 93.4143 137.091 91.8687C137.072 90.9782 137.121 90.0876 137.237 89.2045C137.698 86.5348 138.887 84.0438 140.671 82.005C140.9 81.8028 141.073 81.5448 141.173 81.2561C141.273 80.9674 141.296 80.6577 141.241 80.3572C141.205 79.424 141.409 78.4972 141.834 77.6654C142.259 76.8336 142.889 76.1246 143.666 75.6063C144.07 75.3525 144.55 75.2515 145.022 75.3214C145.899 75.4831 146.269 76.2454 146.115 77.539C146.023 78.309 146.115 78.5015 146.708 78.5323C149.018 78.6709 150.227 80.2263 150.319 83.2062C150.365 84.6615 150.396 86.1168 150.496 87.5336C150.531 88.4995 150.812 89.4405 151.312 90.2671C151.586 90.6863 151.989 91.0052 152.46 91.1757ZM145.091 90.09L145.753 82.159L141.68 84.5152L142.38 91.6531L145.114 90.1131L145.091 90.09ZM143.759 95.7495C144.331 95.4111 144.813 94.9384 145.161 94.3722C145.51 93.8061 145.716 93.1636 145.761 92.5001C145.761 91.3297 144.937 90.9139 143.751 91.5992C143.178 91.9297 142.696 92.3963 142.347 92.9577C141.998 93.5191 141.792 94.1581 141.749 94.8178C141.749 95.9651 142.581 96.4348 143.759 95.7495ZM143.705 77.5313C143.463 77.6888 143.261 77.9013 143.116 78.1515C142.972 78.4018 142.889 78.6826 142.873 78.9712C142.873 79.4948 143.243 79.7027 143.697 79.4486C143.938 79.2919 144.14 79.0806 144.284 78.8318C144.428 78.583 144.512 78.3037 144.529 78.0164C144.529 77.4851 144.159 77.2464 143.697 77.5313" fill="white"/>
</svg>
