<svg width="500" height="500" viewBox="0 0 500 500" fill="none" xmlns="http://www.w3.org/2000/svg">
<path d="M85.5899 386.9C175.96 435.33 322.48 435.33 412.85 386.9C503.22 338.47 503.21 259.96 412.85 211.53C322.49 163.1 175.96 163.1 85.5899 211.53C-4.78009 259.96 -4.77009 338.48 85.5899 386.9Z" fill="#F5F5F5"/>
<path d="M115 73.54L108 77.54C108 77.23 108.06 76.92 108.06 76.62V74.62C108.06 71.04 105.54 69.62 102.44 71.38C101.102 72.1966 99.9588 73.2955 99.09 74.6C98.58 70.09 95.09 68.41 90.75 70.89C86.11 73.57 82.34 80.09 82.34 85.46V88.46C82.3257 89.6842 82.5925 90.8952 83.12 92L77.35 95.33C76.4425 95.9219 75.6871 96.7193 75.1451 97.6574C74.603 98.5956 74.2895 99.6482 74.23 100.73C74.23 102.73 75.63 103.53 77.35 102.53L115 80.74C115.908 80.1487 116.664 79.3515 117.206 78.4132C117.748 77.475 118.061 76.422 118.12 75.34C118.14 73.36 116.74 72.55 115 73.54Z" fill="#EBEBEB"/>
<path d="M144.77 93.8L139.52 96.8C139.534 96.5669 139.534 96.3331 139.52 96.1V94.61C139.52 91.91 137.62 90.81 135.28 92.16C134.273 92.781 133.411 93.6094 132.75 94.59C132.37 91.19 129.7 89.93 126.46 91.8C124.609 93.0031 123.069 94.6267 121.966 96.5384C120.862 98.4501 120.226 100.596 120.11 102.8V105.07C120.09 105.979 120.275 106.881 120.65 107.71L116.29 110.22C115.605 110.668 115.036 111.271 114.628 111.979C114.219 112.688 113.984 113.483 113.94 114.3C113.94 115.8 114.99 116.41 116.29 115.66L144.72 99.24C145.404 98.7943 145.974 98.1934 146.382 97.4862C146.79 96.779 147.026 95.9854 147.07 95.17C147.12 93.66 146.07 93.05 144.77 93.8Z" fill="#EBEBEB"/>
<path d="M425.75 121.07L420.5 124.07C420.515 123.837 420.515 123.603 420.5 123.37V121.85C420.5 119.15 418.6 118.05 416.26 119.41C415.249 120.025 414.385 120.855 413.73 121.84C413.35 118.44 410.73 117.17 407.44 119.04C405.591 120.244 404.053 121.868 402.951 123.78C401.849 125.692 401.215 127.837 401.1 130.04V132.31C401.074 133.219 401.256 134.122 401.63 134.95L397.28 137.46C396.594 137.907 396.023 138.51 395.613 139.219C395.203 139.927 394.966 140.723 394.92 141.54C394.92 143.04 395.98 143.65 397.28 142.9L425.71 126.48C426.394 126.034 426.964 125.434 427.372 124.726C427.78 124.019 428.016 123.226 428.06 122.41C428.1 120.93 427.05 120.32 425.75 121.07Z" fill="#EBEBEB"/>
<path d="M112.35 218.44L34.3601 263.47V267.22L105.85 308.49L183.84 263.47V259.72L112.35 218.44Z" fill="#EF5050"/>
<path opacity="0.15" d="M34.3601 263.47L105.85 304.74V308.49L34.3601 267.22V263.47Z" fill="black"/>
<path opacity="0.1" d="M105.85 304.74L183.84 259.72V263.47L105.85 308.49V304.74Z" fill="black"/>
<path d="M176.901 246.18L173.819 252.253L174.318 252.506L177.4 246.434L176.901 246.18Z" fill="#455A64"/>
<path d="M171.204 245.704L170.728 245.999L173.734 250.854L174.21 250.559L171.204 245.704Z" fill="#455A64"/>
<path d="M174.54 245.14V259.78C174.538 259.82 174.525 259.86 174.502 259.893C174.479 259.927 174.447 259.953 174.41 259.97C174.309 260.024 174.195 260.053 174.08 260.053C173.965 260.053 173.852 260.024 173.75 259.97C173.711 259.955 173.677 259.929 173.652 259.895C173.628 259.862 173.613 259.822 173.61 259.78V245.14H174.54Z" fill="#455A64"/>
<path d="M185.61 240.59C185.61 241.935 185.211 243.25 184.464 244.368C183.717 245.486 182.655 246.358 181.412 246.872C180.17 247.387 178.802 247.522 177.483 247.259C176.164 246.997 174.953 246.349 174.002 245.398C173.051 244.447 172.403 243.236 172.141 241.917C171.878 240.598 172.013 239.23 172.528 237.988C173.042 236.745 173.914 235.683 175.032 234.936C176.15 234.189 177.465 233.79 178.81 233.79C180.613 233.793 182.341 234.51 183.615 235.785C184.89 237.059 185.607 238.787 185.61 240.59Z" fill="#EF5050"/>
<path opacity="0.2" d="M180.94 238.85C181.82 236.09 182.75 235.01 182.16 234.67C181.034 234.031 179.749 233.727 178.456 233.793C177.163 233.859 175.916 234.293 174.861 235.044C173.806 235.795 172.987 236.831 172.501 238.031C172.015 239.231 171.882 240.545 172.117 241.818C172.352 243.091 172.945 244.271 173.828 245.219C174.71 246.166 175.845 246.842 177.098 247.167C178.352 247.491 179.672 247.451 180.903 247.052C182.135 246.652 183.226 245.909 184.05 244.91C182 245.5 179.8 242.43 180.94 238.85Z" fill="black"/>
<path d="M172.88 242.51C172.88 243.455 172.6 244.38 172.075 245.166C171.549 245.952 170.803 246.564 169.929 246.926C169.056 247.288 168.095 247.383 167.168 247.198C166.24 247.014 165.389 246.558 164.72 245.89C164.052 245.221 163.596 244.37 163.412 243.443C163.227 242.515 163.322 241.554 163.684 240.681C164.046 239.807 164.658 239.061 165.444 238.536C166.231 238.01 167.155 237.73 168.1 237.73C169.368 237.73 170.584 238.234 171.48 239.13C172.376 240.026 172.88 241.242 172.88 242.51Z" fill="#EF5050"/>
<path opacity="0.2" d="M168.1 237.73C167.097 237.73 166.12 238.049 165.31 238.64C165.18 241.55 167.66 244.4 166.96 245.36C166.26 246.32 164.57 245.73 163.96 244.91C164.381 245.635 164.986 246.237 165.713 246.655C166.44 247.073 167.265 247.292 168.104 247.29C168.942 247.288 169.766 247.066 170.492 246.645C171.217 246.225 171.819 245.62 172.237 244.893C172.656 244.166 172.875 243.342 172.874 242.503C172.873 241.665 172.651 240.841 172.231 240.115C171.81 239.389 171.207 238.787 170.48 238.368C169.753 237.949 168.929 237.729 168.09 237.73H168.1Z" fill="black"/>
<path d="M174.08 246.13C178.924 246.13 182.85 242.203 182.85 237.36C182.85 232.516 178.924 228.59 174.08 228.59C169.237 228.59 165.31 232.516 165.31 237.36C165.31 242.203 169.237 246.13 174.08 246.13Z" fill="#EF5050"/>
<path opacity="0.1" d="M182.61 239.36C182.279 240.78 181.599 242.095 180.632 243.186C179.665 244.277 178.441 245.11 177.071 245.609C175.701 246.108 174.228 246.257 172.785 246.044C171.343 245.83 169.977 245.261 168.81 244.386C167.643 243.512 166.713 242.36 166.103 241.036C165.493 239.711 165.223 238.256 165.318 236.801C165.412 235.346 165.868 233.937 166.643 232.703C167.419 231.468 168.49 230.446 169.76 229.73C169.019 230.167 168.345 230.709 167.76 231.34C167.324 233.215 167.518 235.181 168.311 236.934C169.104 238.688 170.453 240.132 172.149 241.042C173.844 241.953 175.793 242.279 177.693 241.972C179.593 241.664 181.338 240.739 182.66 239.34L182.61 239.36Z" fill="black"/>
<path d="M46.963 249.917L43.8809 255.99L44.3802 256.243L47.4624 250.171L46.963 249.917Z" fill="#455A64"/>
<path d="M41.2427 249.433L40.7666 249.728L43.7721 254.583L44.2483 254.288L41.2427 249.433Z" fill="#455A64"/>
<path d="M44.5902 248.87V263.51C44.5862 263.551 44.571 263.591 44.5464 263.624C44.5217 263.658 44.4885 263.684 44.4502 263.7C44.3472 263.75 44.2344 263.775 44.1202 263.775C44.0059 263.775 43.8931 263.75 43.7902 263.7C43.7531 263.683 43.7213 263.657 43.6983 263.623C43.6754 263.59 43.6622 263.55 43.6602 263.51V248.87H44.5902Z" fill="#455A64"/>
<path d="M55.6601 244.31C55.6601 245.655 55.2612 246.97 54.5141 248.088C53.7669 249.206 52.7048 250.078 51.4623 250.592C50.2198 251.107 48.8525 251.242 47.5334 250.979C46.2144 250.717 45.0027 250.069 44.0517 249.118C43.1007 248.167 42.4531 246.956 42.1907 245.637C41.9283 244.318 42.063 242.95 42.5777 241.708C43.0924 240.465 43.9639 239.403 45.0822 238.656C46.2004 237.909 47.5152 237.51 48.8601 237.51C50.6635 237.51 52.3931 238.226 53.6684 239.502C54.9436 240.777 55.6601 242.507 55.6601 244.31Z" fill="#EF5050"/>
<path opacity="0.2" d="M51.0001 242.57C51.8801 239.81 52.8101 238.73 52.2201 238.4C51.2012 237.814 50.0456 237.507 48.8701 237.51C47.7243 237.509 46.597 237.798 45.5928 238.35C44.5886 238.902 43.74 239.698 43.126 240.665C42.5119 241.633 42.1522 242.739 42.0803 243.883C42.0084 245.027 42.2266 246.17 42.7146 247.206C43.2027 248.243 43.9447 249.139 44.8719 249.813C45.7991 250.486 46.8814 250.914 48.0182 251.057C49.155 251.2 50.3095 251.053 51.3745 250.631C52.4395 250.208 53.3805 249.523 54.1101 248.64C52.0901 249.23 49.8501 246.15 51.0001 242.57Z" fill="black"/>
<path d="M42.9301 246.24C42.9301 247.185 42.6498 248.11 42.1245 248.896C41.5993 249.682 40.8528 250.294 39.9793 250.656C39.1059 251.018 38.1448 251.113 37.2176 250.928C36.2904 250.744 35.4386 250.288 34.7702 249.62C34.1017 248.951 33.6464 248.1 33.462 247.172C33.2775 246.245 33.3722 245.284 33.734 244.411C34.0958 243.537 34.7084 242.791 35.4945 242.266C36.2806 241.74 37.2047 241.46 38.1501 241.46C38.7782 241.459 39.4004 241.581 39.9809 241.821C40.5614 242.061 41.0889 242.413 41.533 242.857C41.9772 243.301 42.3292 243.829 42.5689 244.409C42.8087 244.99 42.9314 245.612 42.9301 246.24Z" fill="#EF5050"/>
<path opacity="0.2" d="M38.15 241.46C37.1481 241.456 36.1709 241.771 35.36 242.36C35.23 245.28 37.7 248.13 37.01 249.08C36.32 250.03 34.61 249.45 34.01 248.64C34.4311 249.365 35.0357 249.967 35.763 250.385C36.4903 250.803 37.3147 251.022 38.1534 251.02C38.9922 251.018 39.8157 250.796 40.5413 250.375C41.2669 249.955 41.8691 249.35 42.2873 248.623C42.7055 247.896 42.925 247.072 42.9238 246.233C42.9226 245.395 42.7008 244.571 42.2805 243.845C41.8603 243.119 41.2565 242.517 40.5297 242.098C39.8029 241.679 38.9787 241.459 38.14 241.46H38.15Z" fill="black"/>
<path d="M44.1201 249.85C48.9636 249.85 52.8901 245.923 52.8901 241.08C52.8901 236.236 48.9636 232.31 44.1201 232.31C39.2766 232.31 35.3501 236.236 35.3501 241.08C35.3501 245.923 39.2766 249.85 44.1201 249.85Z" fill="#EF5050"/>
<path opacity="0.1" d="M52.6502 243.09C52.3153 244.506 51.6332 245.815 50.6654 246.902C49.6975 247.988 48.4745 248.815 47.1067 249.31C45.7388 249.806 44.2692 249.952 42.8305 249.737C41.3918 249.522 40.0293 248.952 38.866 248.079C37.7027 247.205 36.7752 246.056 36.1672 244.734C35.5593 243.413 35.29 241.961 35.3837 240.509C35.4774 239.057 35.9311 237.652 36.7039 236.42C37.4767 235.187 38.5443 234.167 39.8102 233.45C39.0537 233.886 38.3634 234.428 37.7602 235.06C37.328 236.933 37.5235 238.895 38.3168 240.646C39.11 242.396 40.4568 243.837 42.1498 244.747C43.8427 245.656 45.7878 245.984 47.6853 245.679C49.5828 245.374 51.3273 244.454 52.6502 243.06V243.09Z" fill="black"/>
<path d="M130.05 279.51L140.94 273.23L150.71 278.87L139.83 285.14L130.05 279.51Z" fill="#F0F0F0"/>
<path d="M53.8701 263.47L53.8601 229.7L105.86 259.71V293.49L53.8701 263.47Z" fill="#F0F0F0"/>
<path d="M53.8601 243.1L105.86 273.13V259.71L53.8601 229.7V243.1Z" fill="#E0E0E0"/>
<path d="M164.34 259.71V226.88L144.84 222.19V218.44L105.86 259.71V293.49L164.34 259.71Z" fill="#FAFAFA"/>
<path d="M144.84 218.44V222.19L167.59 227.82V224.07L144.84 218.44Z" fill="#263238"/>
<path d="M115.61 194.05L167.59 224.07L144.84 218.44L92.8501 188.42L115.61 194.05Z" fill="#37474F"/>
<path d="M102.6 265.36L144.85 218.44V214.69L99.3501 267.22L102.6 265.36Z" fill="#37474F"/>
<path d="M92.8601 184.67L144.85 214.69L99.4301 267.27L47.3601 237.2L92.8601 184.67Z" fill="#455A64"/>
<path d="M76.55 233.31L83.1 237.09V246.58L76.55 242.83V233.31Z" fill="#263238"/>
<path d="M83.1001 237.09L89.6401 233.31V239.08L83.1001 246.58V237.09Z" fill="#37474F"/>
<path d="M83.1001 226.88L75.8701 231.05V232.94L83.1001 237.09L90.3201 232.94V231.05L83.1001 226.88Z" fill="#F5F5F5"/>
<path d="M75.8701 232.94L83.1001 237.09V235.2L75.8701 231.05V232.94Z" fill="#E0E0E0"/>
<path d="M90.3201 232.94L83.1001 237.09V235.2L90.3201 231.05V232.94Z" fill="#EBEBEB"/>
<path d="M78.3 231.05L83.1 228.28L87.9 231.05L83.1 233.81L78.3 231.05Z" fill="#EF5050"/>
<path d="M83.1 228.28V233.81L78.3 231.05L83.1 228.28Z" fill="#37474F"/>
<path d="M83.1001 228.28L87.9001 231.05L83.1001 233.81V228.28Z" fill="#263238"/>
<path d="M110.07 268.54L124.7 260.1V271.36L110.07 279.8V268.54Z" fill="#455A64"/>
<path d="M124.05 270.98V260.48L110.07 268.54V279.05L124.05 270.98Z" fill="#E0E0E0"/>
<path d="M124.7 271.36L124.05 270.98L110.07 279.05V279.8L124.7 271.36Z" fill="#37474F"/>
<path d="M110.07 274.17L124.7 265.73V264.97L110.07 273.41V274.17Z" fill="#455A64"/>
<path d="M145.82 247.89L160.44 239.45V250.71L145.82 259.15V247.89Z" fill="#455A64"/>
<path d="M159.79 250.33V239.83L145.82 247.89V258.4L159.79 250.33Z" fill="#E0E0E0"/>
<path d="M160.44 250.71L159.79 250.33L145.82 258.4V259.15L160.44 250.71Z" fill="#37474F"/>
<path d="M145.82 253.52L160.44 245.08V244.32L145.82 252.77V253.52Z" fill="#455A64"/>
<path d="M130.05 279.51V257L140.94 250.72V273.23L130.05 279.51Z" fill="#37474F"/>
<path d="M140.56 272.94V250.94L130.05 257V279L140.56 272.94Z" fill="#455A64"/>
<path d="M140.94 250.72L140.56 250.94V272.94L140.94 273.23V250.72Z" fill="#263238"/>
<path d="M93.9901 264.13L86.3501 259.72V270.97L93.9901 275.38V264.13Z" fill="#455A64"/>
<path d="M87 270.59V260.09L93.99 264.13V274.63L87 270.59Z" fill="#FAFAFA"/>
<path d="M86.3501 270.97L87.0001 270.59L93.9901 274.63V275.38L86.3501 270.97Z" fill="#37474F"/>
<path d="M93.9901 269.72L86.3501 265.34V264.58L93.9901 268.96V269.72Z" fill="#455A64"/>
<path d="M87 260.09L93.99 264.13V266.3L87 262.29V260.09Z" fill="#F5F5F5"/>
<path d="M71.2401 250.99L63.6001 246.58V257.84L71.2401 262.25V250.99Z" fill="#455A64"/>
<path d="M64.26 257.46V246.96L71.24 250.99V261.49L64.26 257.46Z" fill="#FAFAFA"/>
<path d="M63.6001 257.84L64.2601 257.46L71.2401 261.49V262.25L63.6001 257.84Z" fill="#37474F"/>
<path d="M71.2401 256.58L63.6001 252.2V251.44L71.2401 255.82V256.58Z" fill="#455A64"/>
<path d="M64.26 246.96L71.24 250.99V253.07L64.26 249.07V246.96Z" fill="#F5F5F5"/>
<path d="M382.86 215.16L304.87 260.19V263.94L382.86 308.97L460.86 263.94V260.19L382.86 215.16Z" fill="#EF5050"/>
<path opacity="0.15" d="M304.87 260.19L382.87 305.22L382.86 308.97L304.87 263.94V260.19Z" fill="black"/>
<path opacity="0.1" d="M382.87 305.22L460.86 260.19V263.94L382.86 308.97L382.87 305.22Z" fill="black"/>
<path d="M454.137 246.773L451.055 252.845L451.554 253.099L454.636 247.026L454.137 246.773Z" fill="#455A64"/>
<path d="M449.223 244.589L448.747 244.886L451.773 249.739L452.249 249.443L449.223 244.589Z" fill="#455A64"/>
<path d="M451.79 245.74V260.38C451.788 260.421 451.775 260.46 451.752 260.493C451.729 260.527 451.697 260.553 451.66 260.57C451.559 260.624 451.445 260.653 451.33 260.653C451.215 260.653 451.102 260.624 451 260.57C450.962 260.554 450.929 260.528 450.904 260.494C450.879 260.461 450.864 260.421 450.86 260.38V245.74H451.79Z" fill="#455A64"/>
<path d="M462.86 241.19C462.86 242.535 462.461 243.85 461.714 244.968C460.967 246.086 459.905 246.958 458.662 247.472C457.42 247.987 456.052 248.122 454.733 247.859C453.414 247.597 452.203 246.949 451.252 245.998C450.301 245.047 449.653 243.836 449.391 242.517C449.128 241.197 449.263 239.83 449.778 238.588C450.292 237.345 451.164 236.283 452.282 235.536C453.4 234.789 454.715 234.39 456.06 234.39C457.863 234.39 459.593 235.106 460.868 236.382C462.144 237.657 462.86 239.386 462.86 241.19Z" fill="#EF5050"/>
<path opacity="0.2" d="M458.19 239.45C459.07 236.69 460.01 235.61 459.41 235.27C458.283 234.632 456.998 234.329 455.705 234.397C454.412 234.465 453.166 234.9 452.112 235.652C451.058 236.404 450.24 237.441 449.755 238.641C449.271 239.841 449.138 241.155 449.375 242.428C449.611 243.701 450.205 244.88 451.089 245.827C451.972 246.773 453.107 247.448 454.361 247.772C455.614 248.095 456.934 248.055 458.165 247.654C459.396 247.253 460.487 246.509 461.31 245.51C459.29 246.1 457.06 243 458.19 239.45Z" fill="black"/>
<path d="M450.13 243.11C450.13 244.055 449.85 244.979 449.325 245.765C448.799 246.552 448.053 247.164 447.179 247.526C446.306 247.888 445.345 247.982 444.418 247.798C443.49 247.614 442.639 247.158 441.97 246.49C441.302 245.821 440.846 244.97 440.662 244.042C440.477 243.115 440.572 242.154 440.934 241.281C441.296 240.407 441.908 239.661 442.694 239.135C443.481 238.61 444.405 238.33 445.35 238.33C446.618 238.33 447.834 238.833 448.73 239.73C449.626 240.626 450.13 241.842 450.13 243.11Z" fill="#EF5050"/>
<path opacity="0.2" d="M445.35 238.33C444.347 238.331 443.371 238.65 442.56 239.24C442.43 242.15 444.91 245 444.22 245.96C443.53 246.92 441.82 246.33 441.22 245.51C441.641 246.235 442.246 246.837 442.973 247.255C443.701 247.672 444.525 247.892 445.364 247.89C446.202 247.888 447.026 247.666 447.752 247.245C448.477 246.824 449.079 246.22 449.497 245.493C449.916 244.766 450.135 243.942 450.134 243.103C450.133 242.264 449.911 241.441 449.491 240.715C449.071 239.989 448.467 239.386 447.74 238.968C447.013 238.549 446.189 238.329 445.35 238.33Z" fill="black"/>
<path d="M451.33 246.73C456.174 246.73 460.1 242.803 460.1 237.96C460.1 233.116 456.174 229.19 451.33 229.19C446.487 229.19 442.56 233.116 442.56 237.96C442.56 242.803 446.487 246.73 451.33 246.73Z" fill="#EF5050"/>
<path opacity="0.1" d="M459.86 240C459.521 241.414 458.835 242.722 457.865 243.806C456.895 244.89 455.67 245.715 454.301 246.208C452.932 246.7 451.462 246.844 450.024 246.627C448.586 246.41 447.224 245.839 446.061 244.965C444.898 244.091 443.971 242.941 443.364 241.619C442.756 240.298 442.487 238.846 442.58 237.394C442.673 235.942 443.126 234.536 443.897 233.303C444.669 232.07 445.735 231.048 447 230.33C446.237 230.76 445.542 231.303 444.94 231.94C444.504 233.815 444.698 235.781 445.491 237.534C446.284 239.288 447.633 240.731 449.329 241.642C451.024 242.552 452.973 242.879 454.873 242.571C456.773 242.264 458.518 241.339 459.84 239.94L459.86 240Z" fill="black"/>
<path d="M317.448 246.453L314.366 252.525L314.865 252.779L317.947 246.706L317.448 246.453Z" fill="#455A64"/>
<path d="M312.571 244.754L312.095 245.051L315.122 249.905L315.598 249.608L312.571 244.754Z" fill="#455A64"/>
<path d="M315.1 245.42V260.06C315.095 260.101 315.08 260.14 315.055 260.173C315.031 260.207 314.998 260.233 314.96 260.25C314.857 260.3 314.744 260.325 314.63 260.325C314.516 260.325 314.403 260.3 314.3 260.25C314.265 260.231 314.235 260.204 314.212 260.171C314.189 260.138 314.175 260.1 314.17 260.06V245.42H315.1Z" fill="#455A64"/>
<path d="M326.17 240.86C326.17 242.205 325.771 243.519 325.024 244.638C324.277 245.756 323.215 246.628 321.972 247.142C320.73 247.657 319.363 247.792 318.043 247.529C316.724 247.267 315.513 246.619 314.562 245.668C313.611 244.717 312.963 243.506 312.701 242.186C312.438 240.867 312.573 239.5 313.088 238.258C313.602 237.015 314.474 235.953 315.592 235.206C316.71 234.459 318.025 234.06 319.37 234.06C321.173 234.062 322.901 234.78 324.175 236.054C325.45 237.329 326.167 239.057 326.17 240.86Z" fill="#EF5050"/>
<path opacity="0.2" d="M321.5 239.12C322.38 236.36 323.31 235.28 322.72 234.94C321.594 234.302 320.309 233.999 319.017 234.066C317.725 234.133 316.478 234.568 315.424 235.319C314.37 236.069 313.552 237.105 313.066 238.305C312.581 239.504 312.447 240.818 312.682 242.09C312.917 243.363 313.51 244.542 314.391 245.489C315.273 246.437 316.406 247.113 317.659 247.439C318.912 247.764 320.231 247.725 321.462 247.327C322.693 246.929 323.786 246.187 324.61 245.19C322.6 245.77 320.36 242.7 321.5 239.12Z" fill="black"/>
<path d="M313.44 242.78C313.442 243.726 313.163 244.651 312.639 245.438C312.115 246.226 311.37 246.84 310.496 247.203C309.623 247.567 308.662 247.663 307.734 247.479C306.806 247.296 305.953 246.842 305.284 246.174C304.614 245.505 304.158 244.654 303.973 243.726C303.787 242.799 303.882 241.837 304.243 240.963C304.605 240.089 305.217 239.342 306.003 238.816C306.79 238.291 307.714 238.01 308.66 238.01C309.926 238.01 311.14 238.512 312.037 239.407C312.933 240.301 313.437 241.514 313.44 242.78Z" fill="#EF5050"/>
<path opacity="0.2" d="M308.66 238C307.658 237.996 306.681 238.312 305.87 238.9C305.74 241.82 308.22 244.66 307.52 245.62C306.82 246.58 305.12 245.99 304.52 245.18C304.941 245.905 305.546 246.507 306.273 246.925C307 247.343 307.825 247.562 308.663 247.56C309.502 247.558 310.326 247.336 311.051 246.915C311.777 246.495 312.379 245.89 312.797 245.163C313.215 244.436 313.435 243.612 313.434 242.773C313.433 241.935 313.211 241.111 312.791 240.385C312.37 239.659 311.766 239.057 311.04 238.638C310.313 238.219 309.489 237.999 308.65 238H308.66Z" fill="black"/>
<path d="M314.63 246.4C319.474 246.4 323.4 242.473 323.4 237.63C323.4 232.786 319.474 228.86 314.63 228.86C309.787 228.86 305.86 232.786 305.86 237.63C305.86 242.473 309.787 246.4 314.63 246.4Z" fill="#EF5050"/>
<path opacity="0.1" d="M323.17 239.64C322.837 241.059 322.156 242.372 321.188 243.462C320.22 244.551 318.996 245.383 317.626 245.88C316.256 246.378 314.784 246.526 313.342 246.311C311.9 246.097 310.535 245.527 309.369 244.652C308.203 243.778 307.274 242.626 306.665 241.302C306.056 239.978 305.786 238.523 305.88 237.069C305.975 235.614 306.43 234.206 307.205 232.972C307.981 231.738 309.051 230.717 310.32 230C309.562 230.433 308.871 230.976 308.27 231.61C307.843 233.482 308.042 235.443 308.838 237.192C309.633 238.94 310.98 240.379 312.672 241.287C314.364 242.196 316.308 242.524 318.204 242.221C320.101 241.918 321.845 241.001 323.17 239.61V239.64Z" fill="black"/>
<path d="M398.57 195.58L405.11 199.36V206.92L398.57 203.14V195.58Z" fill="#E0E0E0"/>
<path d="M405.11 199.36L411.66 195.58V210.69L405.11 206.92V199.36Z" fill="#F0F0F0"/>
<path d="M405.11 189.15L397.89 193.31V195.2L405.11 199.36L412.34 195.2V193.31L405.11 189.15Z" fill="#455A64"/>
<path d="M397.89 195.2L405.11 199.36V197.47L397.89 193.31V195.2Z" fill="#37474F"/>
<path d="M412.34 195.2L405.11 199.36V197.47L412.34 193.31V195.2Z" fill="#263238"/>
<path d="M400.31 193.31L405.11 190.55L409.92 193.31L405.11 196.08L400.31 193.31Z" fill="#EF5050"/>
<path d="M405.11 190.55V196.08L400.31 193.31L405.11 190.55Z" fill="#37474F"/>
<path d="M405.11 190.55L409.92 193.31L405.11 196.08V190.55Z" fill="#263238"/>
<path d="M382.87 271.45L382.86 237.68L402.33 248.93V282.7L382.87 271.45Z" fill="#F0F0F0"/>
<path d="M382.86 237.68L402.33 248.93V262.38L382.86 251.15V237.68Z" fill="#E0E0E0"/>
<path d="M441.36 260.19V226.42L421.82 215.16L402.33 248.93V282.7L441.36 260.19Z" fill="#FAFAFA"/>
<path d="M399.11 254.56L421.82 215.16V211.41L395.86 256.44L399.11 254.56Z" fill="#37474F"/>
<path d="M382.86 188.9L421.82 211.41L395.86 256.44L382.87 248.93L382.86 188.9Z" fill="#455A64"/>
<path d="M421.82 215.16L444.61 228.29L447.86 226.42L421.82 211.41V215.16Z" fill="#263238"/>
<path d="M429.97 244.95L437.61 240.57V251.83L429.97 256.21V244.95Z" fill="#455A64"/>
<path d="M436.96 251.45V240.95L429.97 244.95V255.45L436.96 251.45Z" fill="#E0E0E0"/>
<path d="M437.61 251.83L436.96 251.45L429.97 255.45V256.21L437.61 251.83Z" fill="#37474F"/>
<path d="M429.97 250.58L437.61 246.2V245.44L429.97 249.82V250.58Z" fill="#455A64"/>
<path d="M405.99 258.78L413.63 254.4V265.65L405.99 270.04V258.78Z" fill="#455A64"/>
<path d="M412.98 265.28V254.77L405.99 258.78V269.28L412.98 265.28Z" fill="#E0E0E0"/>
<path d="M413.63 265.65L412.98 265.28L405.99 269.28V270.04L413.63 265.65Z" fill="#37474F"/>
<path d="M405.99 264.41L413.63 260.03V259.27L405.99 263.65V264.41Z" fill="#455A64"/>
<path d="M416.95 232.05L426.7 226.42V234.86L416.95 240.49V232.05Z" fill="#455A64"/>
<path d="M426.05 234.48V226.79L416.95 232.05V239.74L426.05 234.48Z" fill="#E0E0E0"/>
<path d="M426.7 234.86L426.05 234.48L416.95 239.74V240.49L426.7 234.86Z" fill="#37474F"/>
<path d="M444.61 228.29H441.36V226.42L444.61 228.29Z" fill="black"/>
<path d="M416.38 274.58V252.07L427.27 245.79V268.3L416.38 274.58Z" fill="#37474F"/>
<path d="M426.89 268.01V246.01L416.38 252.07V274.07L426.89 268.01Z" fill="#455A64"/>
<path d="M427.27 245.79L426.89 246.01V268.01L427.27 268.3V245.79Z" fill="#263238"/>
<path d="M382.86 271.45V237.68L363.4 248.93V282.7L382.86 271.45Z" fill="#FAFAFA"/>
<path d="M382.86 237.68L363.4 248.93V262.38L382.87 251.15L382.86 237.68Z" fill="#F5F5F5"/>
<path d="M324.37 260.19V226.42L343.9 215.16L363.4 248.93V282.7L324.37 260.19Z" fill="#EBEBEB"/>
<path d="M366.62 254.56L343.9 215.16V211.41L369.87 256.44L366.62 254.56Z" fill="#455A64"/>
<path d="M382.86 188.9L343.9 211.41L369.87 256.44L382.86 248.93V188.9Z" fill="#37474F"/>
<path d="M343.9 215.16L321.12 228.29L317.87 226.42L343.9 211.41V215.16Z" fill="#263238"/>
<path d="M338.51 245.81L330.87 241.43V252.69L338.51 257.06V245.81Z" fill="#455A64"/>
<path d="M331.52 252.31V241.8L338.51 245.81V256.31L331.52 252.31Z" fill="#FAFAFA"/>
<path d="M331.52 241.8L338.51 245.84V247.23L331.52 243.22V241.8Z" fill="#F5F5F5"/>
<path d="M349.88 252.4L356.87 256.44V257.83L349.88 253.82V252.4Z" fill="#F5F5F5"/>
<path d="M330.87 252.69L331.52 252.31L338.51 256.31V257.06L330.87 252.69Z" fill="#37474F"/>
<path d="M338.51 251.44L330.87 247.06V246.3L338.51 250.68V251.44Z" fill="#455A64"/>
<path d="M348.78 232.05L339.03 226.42V234.86L348.78 240.49V232.05Z" fill="#455A64"/>
<path d="M339.68 234.48V226.79L348.78 232.05V239.74L339.68 234.48Z" fill="#FAFAFA"/>
<path d="M339.68 226.79L348.78 232.05V233.44L339.68 228.22V226.79Z" fill="#F5F5F5"/>
<path d="M339.03 234.86L339.68 234.48L348.78 239.74V240.49L339.03 234.86Z" fill="#37474F"/>
<path d="M321.12 228.29H324.37V226.42L321.12 228.29Z" fill="black"/>
<path d="M356.87 256.44L349.23 252.03V263.28L356.87 267.69V256.44Z" fill="#455A64"/>
<path d="M349.88 262.9V252.4L356.87 256.44V266.94L349.88 262.9Z" fill="#FAFAFA"/>
<path d="M349.23 263.28L349.88 262.9L356.87 266.94V267.69L349.23 263.28Z" fill="#37474F"/>
<path d="M356.87 262.03L349.23 257.65V256.89L356.87 261.27V262.03Z" fill="#455A64"/>
<path d="M349.88 252.4L356.87 256.44V257.83L349.88 253.82V252.4Z" fill="#F5F5F5"/>
<path d="M395.86 256.44L386.1 250.8V261.18L395.86 266.81V256.44Z" fill="#263238"/>
<path d="M386.7 260.83V251.15L395.86 256.44V266.12L386.7 260.83Z" fill="#FAFAFA"/>
<path d="M386.7 251.15V253.4L395.86 258.7V256.44L386.7 251.15Z" fill="#F0F0F0"/>
<path d="M386.1 261.18L386.7 260.83L395.86 266.12V266.81L386.1 261.18Z" fill="#37474F"/>
<path d="M386.1 255.99L386.7 255.64L395.86 260.93V261.63L386.1 255.99Z" fill="#37474F"/>
<path d="M390.78 263.88L391.38 264.22V253.85L390.78 253.5V263.88Z" fill="#37474F"/>
<path d="M376.19 279L377.92 278C378.397 275.188 378.467 272.322 378.13 269.49C377.26 263.97 373.49 262.06 372.13 262.61C370.77 263.16 370.45 264.8 372.92 267.99C375.153 271.219 376.299 275.076 376.19 279Z" fill="#EF5050"/>
<g opacity="0.2">
<path opacity="0.2" d="M376.19 279L377.92 278C378.397 275.188 378.467 272.322 378.13 269.49C377.26 263.97 373.49 262.06 372.13 262.61C370.77 263.16 370.45 264.8 372.92 267.99C375.153 271.219 376.299 275.076 376.19 279Z" fill="black"/>
</g>
<path d="M376.82 276.84C376.803 276.839 376.787 276.834 376.772 276.826C376.757 276.818 376.744 276.808 376.734 276.794C376.724 276.781 376.716 276.766 376.712 276.75C376.708 276.733 376.707 276.716 376.71 276.7C377.43 271.53 375.35 265.86 373.01 263.57C372.988 263.547 372.975 263.517 372.975 263.485C372.975 263.453 372.988 263.422 373.01 263.4C373.033 263.377 373.063 263.365 373.095 263.365C373.127 263.365 373.158 263.377 373.18 263.4C375.56 265.72 377.68 271.48 376.96 276.74C376.958 276.756 376.952 276.771 376.944 276.785C376.935 276.798 376.924 276.81 376.911 276.82C376.898 276.829 376.883 276.835 376.868 276.839C376.852 276.842 376.836 276.843 376.82 276.84Z" fill="white"/>
<path d="M371.39 281.81C371.11 281.97 370.55 281.63 370.33 281.48C369.962 281.226 369.666 280.882 369.47 280.48C369.248 280.028 369.172 279.518 369.25 279.02C369.294 278.756 369.354 278.496 369.43 278.24C369.51 277.98 369.58 277.73 369.65 277.48C369.741 277.234 369.778 276.972 369.76 276.71C369.692 276.458 369.573 276.223 369.412 276.019C369.25 275.814 369.049 275.645 368.82 275.52C368.563 275.371 368.344 275.164 368.181 274.916C368.018 274.668 367.915 274.385 367.88 274.09C367.913 273.604 368.106 273.143 368.43 272.78C368.73 272.4 369.08 272.07 369.35 271.67C369.535 271.454 369.644 271.185 369.662 270.902C369.68 270.619 369.606 270.337 369.45 270.1C369.197 269.712 368.976 269.304 368.79 268.88C368.699 268.667 368.671 268.433 368.708 268.205C368.745 267.976 368.846 267.763 369 267.59C369.152 267.476 369.324 267.394 369.508 267.348C369.692 267.301 369.883 267.292 370.07 267.32C370.425 267.361 370.767 267.48 371.07 267.67C372.07 268.22 372.63 269.4 373.68 269.82C374.096 269.953 374.52 270.056 374.95 270.13C375.166 270.168 375.372 270.252 375.553 270.376C375.734 270.501 375.887 270.662 376 270.85C376.39 271.62 375.67 272.57 375.94 273.39C376.21 274.21 376.89 274.39 377.28 275.05C377.447 275.333 377.514 275.664 377.47 275.99C377.435 276.546 377.299 277.092 377.07 277.6C376.809 278.099 376.515 278.58 376.19 279.04L371.39 281.81Z" fill="#EF5050"/>
<g opacity="0.1">
<path opacity="0.1" d="M371.39 281.81C371.11 281.97 370.55 281.63 370.33 281.48C369.962 281.226 369.666 280.882 369.47 280.48C369.248 280.028 369.172 279.518 369.25 279.02C369.294 278.756 369.354 278.496 369.43 278.24C369.51 277.98 369.58 277.73 369.65 277.48C369.741 277.234 369.778 276.972 369.76 276.71C369.692 276.458 369.573 276.223 369.412 276.019C369.25 275.814 369.049 275.645 368.82 275.52C368.563 275.371 368.344 275.164 368.181 274.916C368.018 274.668 367.915 274.385 367.88 274.09C367.913 273.604 368.106 273.143 368.43 272.78C368.73 272.4 369.08 272.07 369.35 271.67C369.535 271.454 369.644 271.185 369.662 270.902C369.68 270.619 369.606 270.337 369.45 270.1C369.197 269.712 368.976 269.304 368.79 268.88C368.699 268.667 368.671 268.433 368.708 268.205C368.745 267.976 368.846 267.763 369 267.59C369.152 267.476 369.324 267.394 369.508 267.348C369.692 267.301 369.883 267.292 370.07 267.32C370.425 267.361 370.767 267.48 371.07 267.67C372.07 268.22 372.63 269.4 373.68 269.82C374.096 269.953 374.52 270.056 374.95 270.13C375.166 270.168 375.372 270.252 375.553 270.376C375.734 270.501 375.887 270.662 376 270.85C376.39 271.62 375.67 272.57 375.94 273.39C376.21 274.21 376.89 274.39 377.28 275.05C377.447 275.333 377.514 275.664 377.47 275.99C377.435 276.546 377.299 277.092 377.07 277.6C376.809 278.099 376.515 278.58 376.19 279.04L371.39 281.81Z" fill="black"/>
</g>
<path d="M374.2 280.32C374.168 280.315 374.139 280.3 374.117 280.276C374.095 280.253 374.082 280.222 374.08 280.19C374.29 275.29 371.98 269.88 370.3 268.31C370.288 268.299 370.279 268.285 370.272 268.271C370.265 268.256 370.262 268.24 370.261 268.224C370.261 268.207 370.264 268.191 370.269 268.176C370.275 268.161 370.284 268.147 370.295 268.135C370.306 268.123 370.32 268.114 370.334 268.107C370.349 268.1 370.365 268.097 370.381 268.096C370.398 268.096 370.414 268.099 370.429 268.104C370.444 268.11 370.458 268.119 370.47 268.13C372.18 269.73 374.54 275.23 374.33 280.2C374.327 280.233 374.313 280.263 374.289 280.286C374.264 280.308 374.233 280.32 374.2 280.32Z" fill="white"/>
<path d="M373.46 274.53C372.297 274.214 371.104 274.023 369.9 273.96C369.884 273.96 369.867 273.957 369.852 273.95C369.837 273.943 369.823 273.934 369.812 273.921C369.8 273.909 369.792 273.895 369.786 273.879C369.781 273.863 369.779 273.847 369.78 273.83C369.783 273.797 369.798 273.767 369.822 273.744C369.846 273.722 369.877 273.71 369.91 273.71C371.135 273.774 372.349 273.972 373.53 274.3C373.545 274.305 373.559 274.312 373.572 274.322C373.584 274.332 373.594 274.344 373.601 274.358C373.609 274.372 373.613 274.388 373.615 274.403C373.616 274.419 373.615 274.435 373.61 274.45C373.599 274.479 373.578 274.503 373.55 274.518C373.523 274.533 373.491 274.537 373.46 274.53Z" fill="white"/>
<path d="M416.38 274.58L427.27 268.3L437.04 273.94L426.15 280.21L416.38 274.58Z" fill="#F0F0F0"/>
<path d="M240.28 290.9L145.22 345.78V350L243.93 406.99L338.98 352.11V347.89L240.28 290.9Z" fill="#EF5050"/>
<path d="M284.15 366.89L295.05 373.26L313.36 362.69L302.43 356.34L284.15 366.89Z" fill="#F0F0F0"/>
<path opacity="0.15" d="M145.22 345.78L243.93 402.77V406.99L145.22 350V345.78Z" fill="black"/>
<path opacity="0.1" d="M243.93 402.77L338.98 347.89V352.11L243.93 406.99V402.77Z" fill="black"/>
<path d="M328.299 329.202L324.063 337.549L324.75 337.897L328.986 329.551L328.299 329.202Z" fill="#263238"/>
<path d="M320.428 328.493L319.782 328.893L323.914 335.568L324.56 335.168L320.428 328.493Z" fill="#263238"/>
<path d="M325 327.72V347.83C324.994 347.886 324.974 347.94 324.94 347.986C324.907 348.031 324.862 348.067 324.81 348.09C324.669 348.162 324.513 348.199 324.355 348.199C324.197 348.199 324.041 348.162 323.9 348.09C323.85 348.067 323.806 348.03 323.775 347.985C323.743 347.939 323.724 347.885 323.72 347.83V327.72H325Z" fill="#263238"/>
<path d="M330.89 330.8C336.048 330.8 340.23 326.618 340.23 321.46C340.23 316.302 336.048 312.12 330.89 312.12C325.732 312.12 321.55 316.302 321.55 321.46C321.55 326.618 325.732 330.8 330.89 330.8Z" fill="#455A64"/>
<path d="M333.82 319.08C335.02 315.28 336.31 313.8 335.49 313.34C333.943 312.463 332.178 312.047 330.403 312.138C328.627 312.23 326.915 312.827 325.466 313.859C324.018 314.891 322.895 316.314 322.228 317.962C321.561 319.61 321.378 321.415 321.701 323.163C322.024 324.912 322.84 326.531 324.052 327.832C325.264 329.133 326.822 330.061 328.543 330.507C330.264 330.953 332.077 330.899 333.768 330.35C335.459 329.801 336.959 328.781 338.09 327.41C335.33 328.21 332.26 324 333.82 319.08Z" fill="#37474F"/>
<path d="M316.18 330.67C319.803 330.67 322.74 327.733 322.74 324.11C322.74 320.487 319.803 317.55 316.18 317.55C312.557 317.55 309.62 320.487 309.62 324.11C309.62 327.733 312.557 330.67 316.18 330.67Z" fill="#455A64"/>
<path d="M316.18 317.54C314.802 317.538 313.458 317.972 312.34 318.78C312.17 322.78 315.57 326.7 314.62 328.02C313.67 329.34 311.32 328.52 310.51 327.41C311.09 328.403 311.921 329.225 312.92 329.796C313.918 330.366 315.049 330.664 316.198 330.66C317.348 330.656 318.477 330.349 319.471 329.771C320.465 329.194 321.289 328.365 321.862 327.368C322.435 326.371 322.736 325.241 322.734 324.091C322.732 322.941 322.429 321.812 321.853 320.817C321.278 319.821 320.451 318.995 319.455 318.419C318.459 317.844 317.33 317.541 316.18 317.54Z" fill="#37474F"/>
<path d="M336.096 319.775C337.624 313.303 333.615 306.819 327.144 305.291C320.672 303.764 314.187 307.772 312.66 314.244C311.133 320.715 315.141 327.2 321.612 328.727C328.084 330.255 334.569 326.247 336.096 319.775Z" fill="#455A64"/>
<path d="M336.11 319.78C335.642 321.71 334.701 323.493 333.374 324.97C332.046 326.447 330.373 327.572 328.504 328.243C326.635 328.914 324.628 329.11 322.664 328.815C320.701 328.52 318.841 327.742 317.252 326.551C315.663 325.359 314.394 323.793 313.56 321.99C312.725 320.188 312.351 318.207 312.471 316.225C312.591 314.242 313.201 312.321 314.246 310.632C315.291 308.944 316.739 307.541 318.46 306.55C317.417 307.145 316.467 307.889 315.64 308.76C315.431 309.662 315.324 310.584 315.32 311.51C315.3 313.929 316.011 316.298 317.361 318.306C318.711 320.314 320.636 321.867 322.884 322.761C325.132 323.656 327.598 323.849 329.959 323.317C332.319 322.785 334.463 321.552 336.11 319.78Z" fill="#37474F"/>
<path d="M163.888 326.817L159.652 335.164L160.338 335.512L164.575 327.166L163.888 326.817Z" fill="#263238"/>
<path d="M156.037 326.153L155.391 326.553L159.523 333.228L160.169 332.828L156.037 326.153Z" fill="#263238"/>
<path d="M160.63 325.37V345.48C160.626 345.535 160.607 345.589 160.576 345.635C160.544 345.68 160.501 345.717 160.45 345.74C160.309 345.812 160.153 345.849 159.995 345.849C159.837 345.849 159.681 345.812 159.54 345.74C159.488 345.717 159.443 345.681 159.41 345.636C159.377 345.59 159.356 345.536 159.35 345.48V325.37H160.63Z" fill="#263238"/>
<path d="M166.5 328.46C171.658 328.46 175.84 324.278 175.84 319.12C175.84 313.962 171.658 309.78 166.5 309.78C161.342 309.78 157.16 313.962 157.16 319.12C157.16 324.278 161.342 328.46 166.5 328.46Z" fill="#455A64"/>
<path d="M169.43 316.73C170.63 312.93 171.91 311.45 171.1 310.99C169.553 310.113 167.788 309.697 166.013 309.789C164.237 309.881 162.524 310.477 161.076 311.509C159.628 312.541 158.505 313.964 157.838 315.612C157.171 317.261 156.988 319.065 157.311 320.813C157.634 322.562 158.45 324.182 159.661 325.483C160.873 326.784 162.432 327.712 164.153 328.158C165.874 328.604 167.687 328.549 169.378 328C171.069 327.452 172.569 326.432 173.7 325.06C170.94 325.87 167.86 321.65 169.43 316.73Z" fill="#37474F"/>
<path d="M151.79 328.32C155.413 328.32 158.35 325.383 158.35 321.76C158.35 318.137 155.413 315.2 151.79 315.2C148.167 315.2 145.23 318.137 145.23 321.76C145.23 325.383 148.167 328.32 151.79 328.32Z" fill="#455A64"/>
<path d="M151.79 315.2C150.413 315.198 149.07 315.628 147.95 316.43C147.77 320.43 151.18 324.35 150.23 325.67C149.28 326.99 146.93 326.17 146.11 325.06C146.689 326.054 147.518 326.878 148.516 327.451C149.514 328.023 150.644 328.323 151.794 328.32C152.944 328.317 154.074 328.012 155.069 327.436C156.064 326.859 156.89 326.031 157.464 325.034C158.038 324.038 158.34 322.908 158.34 321.758C158.339 320.608 158.037 319.478 157.462 318.482C156.887 317.486 156.061 316.658 155.065 316.082C154.07 315.506 152.94 315.202 151.79 315.2Z" fill="#37474F"/>
<path d="M168.506 323.196C173.208 318.494 173.208 310.871 168.506 306.169C163.804 301.467 156.181 301.467 151.479 306.169C146.777 310.871 146.777 318.494 151.479 323.196C156.181 327.898 163.804 327.898 168.506 323.196Z" fill="#455A64"/>
<path d="M171.71 317.43C171.243 319.361 170.303 321.146 168.975 322.624C167.648 324.102 165.974 325.227 164.104 325.899C162.234 326.571 160.227 326.767 158.262 326.472C156.297 326.176 154.437 325.397 152.847 324.205C151.258 323.013 149.989 321.445 149.155 319.642C148.322 317.839 147.949 315.856 148.07 313.873C148.191 311.89 148.803 309.968 149.85 308.28C150.897 306.591 152.347 305.19 154.07 304.2C153.024 304.79 152.073 305.535 151.25 306.41C151.041 307.312 150.934 308.234 150.93 309.16C150.912 311.577 151.624 313.944 152.974 315.949C154.323 317.955 156.247 319.506 158.493 320.4C160.739 321.294 163.202 321.488 165.561 320.958C167.919 320.429 170.063 319.199 171.71 317.43Z" fill="#37474F"/>
<path d="M189.09 333.12L265.87 377.44V309.9L189.09 265.58V333.12Z" fill="#F0F0F0"/>
<path d="M243.93 352.11V390.11L167.16 345.78V307.79L243.93 352.11Z" fill="#F0F0F0"/>
<path d="M167.16 320.45L243.93 364.78V352.11L167.16 307.79V320.45Z" fill="#E0E0E0"/>
<path d="M189.09 278.24L265.87 322.56V309.9L189.09 265.57V278.24Z" fill="#E0E0E0"/>
<path d="M265.87 309.9L317.05 280.35V347.89L265.87 377.44V309.9Z" fill="#FAFAFA"/>
<path d="M243.93 352.11L265.87 331.01V377.44L243.93 390.11V352.11Z" fill="#FAFAFA"/>
<path d="M291.46 265.57L265.87 309.9L317.05 280.35L291.46 265.57Z" fill="#FAFAFA"/>
<path d="M262.21 316.23L291.46 265.57V262.41L262.21 313.07V316.23Z" fill="#EF5050"/>
<path opacity="0.1" d="M262.21 316.23L291.46 265.57V262.41L262.21 313.07V316.23Z" fill="black"/>
<path d="M214.683 218.089L185.438 268.742L262.211 313.067L291.456 262.414L214.683 218.089Z" fill="#EF5050"/>
<path d="M185.44 268.74L262.21 313.07V316.23L185.44 271.91V268.74Z" fill="#EF5050"/>
<path opacity="0.15" d="M185.44 268.74L262.21 313.07V316.23L185.44 271.91V268.74Z" fill="black"/>
<path d="M291.46 262.41L323.45 280.88L320.7 282.46L291.46 265.57V262.41Z" fill="#EF5050"/>
<path opacity="0.15" d="M291.46 262.41L323.45 280.88L320.7 282.46L291.46 265.57V262.41Z" fill="black"/>
<path d="M320.7 282.46H317.05V280.35L320.7 282.46Z" fill="#EF5050"/>
<path opacity="0.3" d="M320.7 282.46H317.05V280.35L320.7 282.46Z" fill="black"/>
<path d="M200.87 268.14V252.94L209.62 247.89L218.34 262.99V278.24L200.87 268.14Z" fill="#F0F0F0"/>
<path opacity="0.2" d="M209.62 247.89L198.82 254.12L197.44 253.32L209.62 246.29V247.89Z" fill="black"/>
<path d="M218.34 278.24L227.07 263.1L231.53 255.36L218.34 262.99V278.24Z" fill="#FAFAFA"/>
<path opacity="0.4" d="M198.82 254.12H200.87V252.94L198.82 254.12Z" fill="black"/>
<path d="M220.42 266.59L209.62 247.89V246.29L221.77 267.37L220.42 266.59Z" fill="#EF5050"/>
<path opacity="0.1" d="M220.42 266.59L209.62 247.89V246.29L221.77 267.37L220.42 266.59Z" fill="black"/>
<path d="M221.77 267.37L209.62 246.29L222.19 239.03L234.34 260.11L221.77 267.37Z" fill="#EF5050"/>
<path opacity="0.3" d="M221.77 267.37L209.62 246.29L222.19 239.03L234.34 260.11L221.77 267.37Z" fill="white"/>
<path d="M213.98 260.55L205.24 255.5V265.58L213.98 270.63V260.55Z" fill="#455A64"/>
<path d="M206.13 265.06V256.01L213.98 260.55V269.59L206.13 265.06Z" fill="#E0E0E0"/>
<path d="M205.24 265.58L206.13 265.06L213.98 269.59V270.63L205.24 265.58Z" fill="#37474F"/>
<path d="M237.42 289.25V274.05L246.18 269L254.9 284.1V299.35L237.42 289.25Z" fill="#F0F0F0"/>
<path opacity="0.2" d="M246.18 269L235.38 275.23L233.99 274.43L246.18 267.4V269Z" fill="black"/>
<path d="M254.9 299.35L263.62 284.21L268.08 276.47L254.9 284.1V299.35Z" fill="#FAFAFA"/>
<path opacity="0.4" d="M235.38 275.23H237.42V274.05L235.38 275.23Z" fill="black"/>
<path d="M256.98 287.7L246.18 269V267.4L258.32 288.48L256.98 287.7Z" fill="#EF5050"/>
<path opacity="0.1" d="M256.98 287.7L246.18 269V267.4L258.32 288.48L256.98 287.7Z" fill="black"/>
<path d="M258.32 288.48L246.18 267.4L258.74 260.13L270.89 281.21L258.32 288.48Z" fill="#EF5050"/>
<path opacity="0.3" d="M258.32 288.48L246.18 267.4L258.74 260.13L270.89 281.21L258.32 288.48Z" fill="white"/>
<path d="M250.53 281.65L241.79 276.61V286.69L250.53 291.74V281.65Z" fill="#455A64"/>
<path d="M242.69 286.17V277.12L250.53 281.65V290.7L242.69 286.17Z" fill="#E0E0E0"/>
<path d="M241.79 286.69L242.69 286.17L250.53 290.7V291.74L241.79 286.69Z" fill="#37474F"/>
<path d="M189.09 283.83L265.87 328.15V331.01L240.28 358.45L163.5 314.12V311.27L189.09 283.83Z" fill="#EF5050"/>
<path d="M189.09 283.83L265.87 328.15L240.28 355.59L163.5 311.27L189.09 283.83Z" fill="#EF5050"/>
<path opacity="0.1" d="M240.28 355.59V358.45L265.87 331.01V328.15L240.28 355.59Z" fill="black"/>
<path opacity="0.15" d="M240.28 358.45L163.5 314.12V311.27L240.28 355.59V358.45Z" fill="black"/>
<path d="M196.41 333.11L178.13 322.56V341.98L196.41 352.53V333.11Z" fill="#263238"/>
<path d="M179.25 341.33V323.21L196.41 333.12V351.23L179.25 341.33Z" fill="#FAFAFA"/>
<path d="M179.25 323.21V327.44L196.41 337.34V333.11L179.25 323.21Z" fill="#F0F0F0"/>
<path d="M178.13 341.98L179.25 341.33L196.41 351.23V352.53L178.13 341.98Z" fill="#37474F"/>
<path d="M178.13 332.27L179.25 331.62L196.41 341.52V342.82L178.13 332.27Z" fill="#37474F"/>
<path d="M186.89 347.04L188.01 347.69V328.27L186.89 327.62V347.04Z" fill="#37474F"/>
<path d="M229.31 352.11L211.03 341.56V360.98L229.31 371.53V352.11Z" fill="#263238"/>
<path d="M212.15 360.33V342.21L229.31 352.11V370.23L212.15 360.33Z" fill="#FAFAFA"/>
<path d="M212.15 342.21V346.43L229.31 356.34V352.11L212.15 342.21Z" fill="#F0F0F0"/>
<path d="M211.03 360.98L212.15 360.33L229.31 370.23V371.53L211.03 360.98Z" fill="#37474F"/>
<path d="M211.03 351.27L212.15 350.62L229.31 360.52V361.82L211.03 351.27Z" fill="#37474F"/>
<path d="M219.79 366.04L220.91 366.69V347.27L219.79 346.62V366.04Z" fill="#37474F"/>
<path d="M254.9 354.23L273.18 343.67V363.09L254.9 373.64V354.23Z" fill="#263238"/>
<path d="M272.06 362.44V344.32L254.9 354.23V372.34L272.06 362.44Z" fill="#E6E6E6"/>
<path d="M272.06 344.32V346.18L254.9 356.08V354.23L272.06 344.32Z" fill="#E0E0E0"/>
<path d="M273.18 363.09L272.06 362.44L254.9 372.34V373.64L273.18 363.09Z" fill="#37474F"/>
<path d="M273.18 353.38L272.06 352.73L254.9 362.63V363.93L273.18 353.38Z" fill="#37474F"/>
<path d="M264.42 368.15L263.3 368.8V349.38L264.42 348.73V368.15Z" fill="#37474F"/>
<path d="M283.81 291.38L302.09 280.83V300.25L283.81 310.8V291.38Z" fill="#263238"/>
<path d="M300.97 299.6V281.48L283.81 291.38V309.5L300.97 299.6Z" fill="#E6E6E6"/>
<path d="M300.97 281.48V283.34L283.81 293.24V291.38L300.97 281.48Z" fill="#E0E0E0"/>
<path d="M302.09 300.25L300.97 299.6L283.81 309.5V310.8L302.09 300.25Z" fill="#37474F"/>
<path d="M302.09 290.54L300.97 289.89L283.81 299.8V301.1L302.09 290.54Z" fill="#37474F"/>
<path d="M293.33 305.31L292.21 305.96V286.54L293.33 285.89V305.31Z" fill="#37474F"/>
<path d="M284.15 366.89V333.12L302.43 322.56V356.34L284.15 366.89Z" fill="#37474F"/>
<path d="M301.76 355.83V322.95L284.15 333.12V366L301.76 355.83Z" fill="#455A64"/>
<path d="M302.43 322.56L301.76 322.95V355.83L302.43 356.34V322.56Z" fill="#263238"/>
<path d="M388.44 86.45C388.384 83.8017 387.705 81.2039 386.457 78.8671C385.21 76.5303 383.429 74.5203 381.26 73C379.26 71.73 377.34 71.54 375.94 72.26C367.49 76.5 308.11 114.57 304.32 116.45H304.27C303.87 116.715 303.549 117.082 303.338 117.512C303.127 117.943 303.034 118.422 303.07 118.9C303.093 120.235 303.433 121.545 304.06 122.724C304.688 123.902 305.585 124.915 306.68 125.68C307.059 125.976 307.51 126.165 307.986 126.228C308.462 126.292 308.947 126.227 309.39 126.04H309.45C315.45 122.73 374.06 97.75 386.04 91.33C387.45 90.55 388.36 88.87 388.44 86.45Z" fill="#EF5050"/>
<path opacity="0.1" d="M386.11 78.24C384.935 76.1312 383.272 74.3344 381.26 73C379.26 71.73 377.36 71.54 375.96 72.25L375.78 72.35C368.07 76.29 323.88 104.48 309.01 113.65L308.91 113.71L308.31 114.08L308.13 114.19L307.79 114.4L307.39 114.64C305.82 115.64 304.76 116.22 304.39 116.43H304.34C304.213 116.505 304.095 116.596 303.99 116.7C303.709 116.988 303.49 117.329 303.344 117.704C303.198 118.078 303.128 118.478 303.14 118.88C303.12 119.163 303.12 119.447 303.14 119.73C303.14 119.84 303.14 119.95 303.19 120.06C303.24 120.17 303.25 120.4 303.29 120.58C303.33 120.76 303.36 120.86 303.4 120.99C303.44 121.12 303.5 121.32 303.56 121.48C303.62 121.64 303.65 121.72 303.69 121.84V121.9L386.11 78.24Z" fill="black"/>
<path d="M306.67 125.69C305.58 124.927 304.686 123.919 304.059 122.746C303.432 121.573 303.089 120.269 303.06 118.94C303.15 116.5 304.89 115.56 306.96 116.85C308.051 117.614 308.946 118.624 309.573 119.798C310.2 120.973 310.542 122.279 310.57 123.61C310.49 126.05 308.74 127 306.67 125.69Z" fill="#EF5050"/>
<path d="M288.92 127.33C288.943 128.352 289.206 129.353 289.687 130.255C290.168 131.156 290.854 131.932 291.69 132.52C291.98 132.744 292.325 132.888 292.688 132.935C293.052 132.983 293.422 132.932 293.76 132.79L308.12 125.14C308.425 124.938 308.671 124.658 308.832 124.329C308.994 124.001 309.066 123.635 309.04 123.27C309.018 122.248 308.756 121.246 308.275 120.344C307.793 119.443 307.107 118.667 306.27 118.08C305.981 117.853 305.637 117.707 305.273 117.658C304.909 117.609 304.539 117.658 304.2 117.8L289.84 125.45C289.533 125.653 289.286 125.935 289.125 126.265C288.963 126.596 288.892 126.963 288.92 127.33Z" fill="#37474F"/>
<path d="M289.86 125.45C289.55 125.651 289.299 125.931 289.134 126.262C288.968 126.592 288.895 126.961 288.92 127.33C288.915 128.089 289.064 128.841 289.36 129.54L307.88 119.66C307.46 119.033 306.92 118.496 306.29 118.08C306.001 117.853 305.657 117.707 305.293 117.658C304.929 117.609 304.559 117.658 304.22 117.8L289.86 125.45Z" fill="#263238"/>
<path d="M307.35 140.07C307.35 130.87 301.27 121.67 289.1 114.65C264.78 100.6 225.34 100.6 201.01 114.65C188.85 121.65 182.77 130.87 182.77 140.07V157.07C182.77 166.27 188.85 175.47 201.02 182.5C225.34 196.5 264.78 196.5 289.1 182.5C301.27 175.5 307.35 166.27 307.35 157.07V140.07ZM204 119.86C214.86 113.59 229.43 110.14 245 110.14C260.57 110.14 275.17 113.59 286 119.86C295.82 125.53 301.23 132.71 301.23 140.08C301.23 147.45 295.82 154.62 286 160.29C275.14 166.56 260.57 170.01 245 170.01C229.43 170.01 214.83 166.56 204 160.29C194.17 154.62 188.77 147.44 188.77 140.08C188.77 132.72 194.2 125.53 204 119.86Z" fill="#EF5050"/>
<path opacity="0.3" d="M201 165.5C225.33 179.55 264.76 179.55 289.09 165.5C313.42 151.45 313.42 128.69 289.09 114.65C264.76 100.61 225.33 100.6 201 114.65C176.67 128.7 176.69 151.46 201 165.5ZM188.78 140.08C188.78 132.71 194.19 125.53 204.01 119.86C214.88 113.59 229.45 110.14 245.01 110.14C260.57 110.14 275.18 113.59 286.01 119.86C295.83 125.53 301.24 132.71 301.24 140.08C301.24 147.45 295.83 154.62 286.01 160.29C275.14 166.56 260.57 170.01 245.01 170.01C229.45 170.01 214.84 166.56 204.01 160.29C194.2 154.62 188.79 147.44 188.79 140.08H188.78Z" fill="white"/>
<path d="M188.79 140.07C188.825 143.066 189.664 145.998 191.22 148.56C193.69 144.28 198.04 140.27 204.03 136.82C214.88 130.54 229.46 127.09 245.03 127.09C260.6 127.09 275.2 130.54 286.03 136.82C292.03 140.27 296.37 144.28 298.85 148.56C300.398 145.996 301.233 143.065 301.27 140.07C301.27 132.71 295.86 125.53 286.03 119.86C275.18 113.59 260.6 110.14 245.03 110.14C229.46 110.14 214.85 113.59 204.03 119.86C194.2 125.53 188.79 132.71 188.79 140.07Z" fill="#EF5050"/>
<path opacity="0.1" d="M188.79 140.07C188.825 143.066 189.664 145.998 191.22 148.56C193.69 144.28 198.04 140.27 204.03 136.82C214.88 130.54 229.46 127.09 245.03 127.09C260.6 127.09 275.2 130.54 286.03 136.82C292.03 140.27 296.37 144.28 298.85 148.56C300.398 145.996 301.233 143.065 301.27 140.07C301.27 132.71 295.86 125.53 286.03 119.86C275.18 113.59 260.6 110.14 245.03 110.14C229.46 110.14 214.85 113.59 204.03 119.86C194.2 125.53 188.79 132.71 188.79 140.07Z" fill="black"/>
<path opacity="0.4" d="M204 127.54C214.87 121.27 229.44 117.81 245 117.81C260.56 117.81 275.17 121.27 286 127.54C294.1 132.22 299.19 137.92 300.73 143.91C299.19 149.91 294.1 155.61 286 160.29C275.13 166.56 260.56 170.01 245 170.01C229.44 170.01 214.83 166.56 204 160.29C195.9 155.61 190.81 149.9 189.27 143.91C190.83 137.92 195.92 132.22 204 127.54Z" fill="white"/>
<path opacity="0.1" d="M230.38 175V192C219.62 190.5 209.38 187.33 201.02 182.48C188.85 175.48 182.77 166.25 182.77 157.04V140.04C182.774 138.166 183.023 136.3 183.51 134.49C180.51 145.44 186.39 157.03 201 165.49C209.42 170.36 219.62 173.53 230.38 175Z" fill="black"/>
</svg>
