<svg width="500" height="500" viewBox="0 0 500 500" fill="none" xmlns="http://www.w3.org/2000/svg">
<path d="M89 403.23C179.13 450.32 325.26 450.32 415.39 403.23C505.52 356.14 505.52 279.81 415.39 232.72C325.26 185.63 179.13 185.64 89 232.72C-1.13 279.8 -1.12 356.15 89 403.23Z" fill="#FAFAFA"/>
<path d="M341.66 397.31C355 403.67 376.66 403.67 389.99 397.31C403.32 390.95 403.34 380.64 389.99 374.31C376.64 367.98 354.99 367.95 341.66 374.31C328.33 380.67 328.31 391 341.66 397.31Z" fill="#EBEBEB"/>
<path d="M75.5999 254.79L81.4699 251.44C81.4699 251.44 84.2799 235.94 82.1799 222.61C79.1799 203.87 66.46 197.41 61.83 199.27C57.2 201.13 56.1 206.68 64.47 217.51C69.41 223.9 75.7599 237.4 75.5999 254.79Z" fill="#E0E0E0"/>
<path d="M78.26 249C78.1829 248.996 78.1074 248.977 78.0378 248.944C77.9682 248.91 77.9059 248.863 77.8547 248.806C77.8035 248.748 77.7643 248.68 77.7395 248.607C77.7146 248.534 77.7046 248.457 77.71 248.38C79 225 74.58 211.23 62.77 202.19C62.7084 202.144 62.6566 202.086 62.6177 202.019C62.5787 201.953 62.5534 201.879 62.5431 201.803C62.5329 201.727 62.5379 201.649 62.558 201.575C62.5781 201.5 62.6128 201.431 62.66 201.37C62.7565 201.25 62.8954 201.172 63.048 201.151C63.2007 201.131 63.3554 201.17 63.48 201.26C75.63 210.56 80.23 224.68 78.84 248.45C78.8323 248.599 78.7678 248.739 78.6599 248.841C78.552 248.943 78.4088 249 78.26 249Z" fill="white"/>
<path d="M57.9 264.74C56.97 265.27 55.06 264.11 54.33 263.62C53.0751 262.765 52.0624 261.601 51.39 260.24C50.6237 258.693 50.3647 256.943 50.65 255.24C50.8008 254.347 51.0112 253.465 51.28 252.6C51.53 251.74 51.77 250.88 52.02 250.03C52.3181 249.201 52.4473 248.32 52.4 247.44C52.17 245.68 50.61 244.44 49.19 243.38C47.77 242.32 46 240.68 46 238.56C46.1174 236.919 46.771 235.363 47.86 234.13C48.86 232.85 50.08 231.72 50.99 230.37C51.7096 229.426 52.0869 228.266 52.06 227.08C51.9611 226.355 51.7162 225.658 51.34 225.03C50.4816 223.719 49.7292 222.341 49.09 220.91C48.7841 220.187 48.6885 219.393 48.8141 218.618C48.9397 217.843 49.2814 217.119 49.8 216.53C50.3164 216.145 50.904 215.867 51.5288 215.71C52.1537 215.554 52.8032 215.523 53.44 215.62C54.6419 215.771 55.7977 216.176 56.83 216.81C60.19 218.68 62.11 222.66 65.67 224.1C67.0908 224.537 68.5368 224.888 70 225.15C70.7296 225.285 71.4225 225.573 72.0341 225.993C72.6456 226.413 73.1621 226.957 73.55 227.59C74.86 230.2 72.43 233.42 73.35 236.2C74.17 238.65 76.55 239.59 77.89 241.8C78.4373 242.779 78.658 243.907 78.52 245.02C78.4042 246.898 77.9432 248.739 77.16 250.45C76.2846 252.153 75.2818 253.788 74.16 255.34C74.16 255.34 58 264.66 57.9 264.74Z" fill="#F0F0F0"/>
<path d="M67.5 259.78H67.43C67.3537 259.771 67.2797 259.747 67.2126 259.71C67.1455 259.672 67.0865 259.622 67.039 259.562C66.9916 259.501 66.9566 259.432 66.9362 259.358C66.9158 259.284 66.9103 259.206 66.92 259.13C68.62 245.68 62.2 227.55 52.63 218.71C52.5742 218.658 52.5292 218.596 52.4975 218.526C52.4658 218.457 52.448 218.382 52.4452 218.306C52.4424 218.23 52.4547 218.154 52.4812 218.083C52.5078 218.011 52.5482 217.946 52.6 217.89C52.6519 217.834 52.7143 217.789 52.7836 217.757C52.8528 217.726 52.9277 217.708 53.0038 217.705C53.08 217.702 53.1559 217.714 53.2273 217.741C53.2987 217.768 53.3642 217.808 53.42 217.86C63.42 227.07 69.85 245.27 68.08 259.28C68.0586 259.419 67.9885 259.545 67.8822 259.637C67.7759 259.728 67.6404 259.779 67.5 259.78Z" fill="white"/>
<path d="M65.8301 242.23C65.7033 242.23 65.5801 242.188 65.4801 242.11C60.3701 238.28 52.2301 239 52.1501 239C51.9962 239.015 51.8429 238.967 51.7238 238.869C51.6047 238.771 51.5296 238.629 51.5151 238.475C51.5005 238.321 51.5476 238.168 51.646 238.049C51.7445 237.93 51.8862 237.855 52.0401 237.84C52.3901 237.84 60.7201 237.09 66.1801 241.19C66.2417 241.236 66.2935 241.294 66.3324 241.361C66.3714 241.427 66.3967 241.501 66.407 241.577C66.4172 241.653 66.4122 241.731 66.3921 241.805C66.372 241.88 66.3373 241.949 66.2901 242.01C66.2363 242.08 66.1665 242.137 66.0865 242.175C66.0066 242.214 65.9187 242.232 65.8301 242.23Z" fill="white"/>
<path d="M65 238.87C64.8462 238.86 64.7022 238.791 64.5979 238.677C64.4937 238.564 64.4371 238.414 64.44 238.26C64.5583 236.184 65.0981 234.155 66.0265 232.294C66.9549 230.434 68.2525 228.782 69.84 227.44C69.962 227.345 70.117 227.301 70.2708 227.32C70.4245 227.339 70.5646 227.418 70.66 227.54C70.7555 227.662 70.7986 227.817 70.7799 227.971C70.7611 228.125 70.682 228.265 70.56 228.36C69.1083 229.604 67.9185 231.124 67.0601 232.833C66.2017 234.541 65.6917 236.403 65.56 238.31C65.5528 238.456 65.4915 238.594 65.388 238.698C65.2845 238.801 65.1462 238.863 65 238.87Z" fill="white"/>
<path d="M415.267 190.846L404.966 211.142L406.624 211.983L416.925 191.688L415.267 190.846Z" fill="#37474F"/>
<path d="M396.169 189.209L394.588 190.188L404.631 206.411L406.212 205.432L396.169 189.209Z" fill="#37474F"/>
<path d="M407.37 187.31V236.21C407.355 236.347 407.305 236.478 407.224 236.591C407.144 236.703 407.035 236.792 406.91 236.85C406.569 237.022 406.192 237.112 405.81 237.112C405.428 237.112 405.051 237.022 404.71 236.85C404.583 236.794 404.474 236.705 404.393 236.592C404.312 236.48 404.263 236.348 404.25 236.21V187.31H407.37Z" fill="#37474F"/>
<path d="M430.442 193.038C442.001 188.171 447.428 174.855 442.561 163.295C437.695 151.736 424.379 146.309 412.819 151.176C401.259 156.042 395.833 169.358 400.699 180.918C405.566 192.478 418.882 197.904 430.442 193.038Z" fill="#EF5050"/>
<path opacity="0.2" d="M428.74 166.28C431.67 157.06 434.79 153.45 432.81 152.33C429.048 150.2 424.756 149.187 420.439 149.412C416.122 149.637 411.958 151.089 408.438 153.598C404.917 156.107 402.186 159.569 400.566 163.577C398.945 167.585 398.502 171.972 399.288 176.223C400.075 180.474 402.058 184.413 405.006 187.575C407.954 190.738 411.743 192.993 415.928 194.077C420.113 195.16 424.52 195.026 428.632 193.691C432.744 192.356 436.39 189.875 439.14 186.54C432.42 188.51 425 178.24 428.74 166.28Z" fill="black"/>
<path d="M397.135 189.801C403.368 183.568 403.368 173.463 397.135 167.23C390.903 160.997 380.797 160.997 374.564 167.23C368.332 173.463 368.332 183.568 374.564 189.801C380.797 196.034 390.903 196.034 397.135 189.801Z" fill="#EF5050"/>
<path d="M385.85 162.56C382.502 162.556 379.238 163.605 376.52 165.56C376.09 175.31 384.37 184.82 382.05 188.01C379.73 191.2 374.05 189.25 372.05 186.53C373.456 188.964 375.478 190.986 377.913 192.39C380.348 193.794 383.11 194.533 385.921 194.53C388.732 194.528 391.492 193.785 393.925 192.376C396.357 190.967 398.376 188.942 399.777 186.506C401.178 184.069 401.913 181.306 401.906 178.495C401.9 175.684 401.154 172.924 399.742 170.493C398.33 168.063 396.302 166.047 393.864 164.649C391.425 163.251 388.661 162.52 385.85 162.53V162.56Z" fill="#EF5050"/>
<path opacity="0.2" d="M385.85 162.56C382.502 162.556 379.238 163.605 376.52 165.56C376.09 175.31 384.37 184.82 382.05 188.01C379.73 191.2 374.05 189.25 372.05 186.53C373.456 188.964 375.478 190.986 377.913 192.39C380.348 193.794 383.11 194.533 385.921 194.53C388.732 194.528 391.492 193.785 393.925 192.376C396.357 190.967 398.376 188.942 399.777 186.506C401.178 184.069 401.913 181.306 401.906 178.495C401.9 175.684 401.154 172.924 399.742 170.493C398.33 168.063 396.302 166.047 393.864 164.649C391.425 163.251 388.661 162.52 385.85 162.53V162.56Z" fill="black"/>
<path d="M405.81 190.59C421.981 190.59 435.09 177.481 435.09 161.31C435.09 145.139 421.981 132.03 405.81 132.03C389.639 132.03 376.53 145.139 376.53 161.31C376.53 177.481 389.639 190.59 405.81 190.59Z" fill="#EF5050"/>
<path opacity="0.1" d="M434.31 168C433.199 172.737 430.924 177.122 427.693 180.759C424.461 184.397 420.374 187.171 415.801 188.833C411.228 190.494 406.313 190.989 401.501 190.274C396.688 189.559 392.129 187.656 388.237 184.737C384.344 181.818 381.241 177.974 379.206 173.555C377.172 169.135 376.271 164.278 376.585 159.423C376.899 154.567 378.418 149.867 381.005 145.746C383.591 141.625 387.164 138.214 391.4 135.82C388.862 137.264 386.551 139.073 384.54 141.19C384.033 143.384 383.775 145.628 383.77 147.88C383.768 153.74 385.524 159.466 388.812 164.317C392.101 169.167 396.769 172.919 402.214 175.087C407.658 177.254 413.628 177.737 419.351 176.474C425.073 175.211 430.284 172.259 434.31 168Z" fill="black"/>
<path d="M429.62 253.83L222.72 373.28C222.049 373.62 221.307 373.797 220.555 373.797C219.803 373.797 219.061 373.62 218.39 373.28L48.05 274.94C47.4215 274.528 46.8986 273.974 46.5234 273.322C46.1482 272.671 45.9313 271.94 45.89 271.19V266.81C45.9297 266.059 46.146 265.328 46.5213 264.676C46.8966 264.025 47.4204 263.471 48.05 263.06L255 143.6C255.671 143.26 256.413 143.083 257.165 143.083C257.917 143.083 258.659 143.26 259.33 143.6L429.62 242C430.249 242.412 430.771 242.966 431.147 243.618C431.522 244.269 431.739 244.999 431.78 245.75V250.13C431.731 250.872 431.511 251.592 431.136 252.234C430.761 252.876 430.242 253.423 429.62 253.83Z" fill="#EF5050"/>
<path opacity="0.2" d="M429.62 253.83L222.72 373.28C222.049 373.62 221.307 373.797 220.555 373.797C219.803 373.797 219.061 373.62 218.39 373.28L48.05 274.94C47.4215 274.528 46.8986 273.974 46.5234 273.322C46.1482 272.671 45.9313 271.94 45.89 271.19V266.81C45.9297 266.059 46.146 265.328 46.5213 264.676C46.8966 264.025 47.4204 263.471 48.05 263.06L255 143.6C255.671 143.26 256.413 143.083 257.165 143.083C257.917 143.083 258.659 143.26 259.33 143.6L429.62 242C430.249 242.412 430.771 242.966 431.147 243.618C431.522 244.269 431.739 244.999 431.78 245.75V250.13C431.731 250.872 431.511 251.592 431.136 252.234C430.761 252.876 430.242 253.423 429.62 253.83Z" fill="black"/>
<g style="mix-blend-mode:multiply">
<path d="M431.78 245.7C431.739 244.949 431.522 244.219 431.147 243.568C430.771 242.916 430.249 242.362 429.62 241.95L427.72 240.86L220.55 360.46V373.8C221.303 373.815 222.047 373.636 222.71 373.28L429.61 253.83C430.239 253.418 430.761 252.863 431.137 252.212C431.512 251.561 431.729 250.83 431.77 250.08L431.78 245.7Z" fill="#EF5050"/>
</g>
<g style="mix-blend-mode:multiply" opacity="0.2">
<path d="M431.78 245.7C431.739 244.949 431.522 244.219 431.147 243.568C430.771 242.916 430.249 242.362 429.62 241.95L427.72 240.86L220.55 360.46V373.8C221.303 373.815 222.047 373.636 222.71 373.28L429.61 253.83C430.239 253.418 430.761 252.863 431.137 252.212C431.512 251.561 431.729 250.83 431.77 250.08L431.78 245.7Z" fill="black"/>
</g>
<path d="M48.05 265.56L218.39 363.9C219.061 364.24 219.803 364.417 220.555 364.417C221.307 364.417 222.049 364.24 222.72 363.9L429.62 244.45C429.881 244.361 430.108 244.193 430.269 243.969C430.429 243.745 430.516 243.476 430.516 243.2C430.516 242.924 430.429 242.655 430.269 242.431C430.108 242.207 429.881 242.039 429.62 241.95L259.28 143.6C258.609 143.26 257.867 143.083 257.115 143.083C256.363 143.083 255.621 143.26 254.95 143.6L48.05 263.06C47.7888 263.149 47.5619 263.317 47.4013 263.541C47.2406 263.765 47.1542 264.034 47.1542 264.31C47.1542 264.586 47.2406 264.855 47.4013 265.079C47.5619 265.303 47.7888 265.471 48.05 265.56Z" fill="#EF5050"/>
<path d="M138.78 290.41C143.54 287.66 143.54 283.16 138.78 280.41L117.19 268C116.962 267.869 116.772 267.679 116.64 267.451C116.508 267.223 116.438 266.964 116.438 266.7C116.438 266.436 116.508 266.177 116.64 265.949C116.772 265.721 116.962 265.532 117.19 265.4L127.13 259.67L110.88 250.29L91.1001 261.65C86.3401 264.4 86.3501 268.89 91.1001 271.65L112.75 284.09C112.979 284.222 113.168 284.411 113.3 284.639C113.432 284.867 113.502 285.126 113.502 285.39C113.502 285.654 113.432 285.913 113.3 286.141C113.168 286.369 112.979 286.559 112.75 286.69L98.6901 294.8L115 304.13L138.78 290.41Z" fill="#F5F5F5"/>
<path d="M196.18 219.75L248.99 189.26V245.55L196.18 276.03V219.75Z" fill="#E0E0E0"/>
<path d="M231.66 213.38L213.51 223.82C213.197 224.028 212.936 224.307 212.749 224.633C212.561 224.959 212.452 225.324 212.43 225.7V246.7C212.43 247.39 212.92 247.7 213.51 247.32L231.66 236.88C231.976 236.674 232.238 236.396 232.426 236.069C232.613 235.743 232.721 235.376 232.74 235V214C232.74 213.31 232.26 213 231.66 213.38Z" fill="#455A64"/>
<path d="M230.66 235.1C230.691 235.035 230.718 234.968 230.74 234.9V216.22L214.51 225.55C214.479 225.615 214.452 225.682 214.43 225.75V244.43L230.66 235.1Z" fill="#F5F5F5"/>
<path d="M232.74 223.3L212.43 235V237.34L232.74 225.65V223.3Z" fill="#455A64"/>
<path d="M223.6 218.01V241.51L221.57 242.64V219.19L223.6 218.01Z" fill="#455A64"/>
<path d="M196.18 276.03V280.72L248.99 250.24V245.55L196.18 276.03Z" fill="#263238"/>
<path d="M301.8 219.75L248.99 189.26V245.55L301.8 276.03V219.75Z" fill="#F0F0F0"/>
<path d="M266.32 213.38L284.47 223.82C284.783 224.028 285.044 224.307 285.231 224.633C285.419 224.959 285.528 225.324 285.55 225.7V246.7C285.55 247.39 285.06 247.7 284.47 247.32L266.32 236.88C266.005 236.674 265.742 236.396 265.555 236.069C265.367 235.743 265.259 235.376 265.24 235V214C265.24 213.31 265.72 213 266.32 213.38Z" fill="#455A64"/>
<path d="M267.32 235.1C267.32 235.1 267.25 234.96 267.23 234.9V216.22L283.46 225.55C283.491 225.615 283.518 225.682 283.54 225.75V244.43L267.32 235.1Z" fill="#F5F5F5"/>
<path d="M265.24 223.3L285.55 235V237.34L265.24 225.65V223.3Z" fill="#455A64"/>
<path d="M274.37 218.01V241.51L276.41 242.64V219.19L274.37 218.01Z" fill="#455A64"/>
<path d="M301.8 276.03V280.72L248.99 250.24V245.55L301.8 276.03Z" fill="#455A64"/>
<path d="M301.8 219.75L346.48 132.98L378.98 175.19L378.97 231.47L301.8 276.03V219.75Z" fill="#E0E0E0"/>
<path d="M332.22 216.22L314.07 226.66C313.755 226.867 313.493 227.144 313.306 227.471C313.118 227.798 313.01 228.164 312.99 228.54V249.54C312.99 250.23 313.47 250.54 314.07 250.17L332.22 239.72C332.534 239.515 332.796 239.239 332.983 238.914C333.171 238.589 333.279 238.225 333.3 237.85V216.85C333.3 216.16 332.82 215.88 332.22 216.22Z" fill="#455A64"/>
<path d="M331.22 237.94C331.251 237.875 331.278 237.808 331.3 237.74V219.06L315.07 228.4C315.039 228.461 315.012 228.525 314.99 228.59V247.28L331.22 237.94Z" fill="#F5F5F5"/>
<path d="M333.3 226.15L312.99 237.84V240.19L333.3 228.5V226.15Z" fill="#455A64"/>
<path d="M324.16 220.86V244.36L322.13 245.48V222.03L324.16 220.86Z" fill="#455A64"/>
<path d="M368.78 195.1L350.63 205.55C350.315 205.754 350.052 206.03 349.865 206.355C349.677 206.68 349.569 207.045 349.55 207.42V228.42C349.55 229.11 350.03 229.42 350.63 229.05L368.77 218.61C369.086 218.404 369.35 218.126 369.539 217.8C369.728 217.473 369.838 217.107 369.86 216.73V195.73C369.86 195 369.37 194.76 368.78 195.1Z" fill="#455A64"/>
<path d="M367.78 216.82C367.813 216.756 367.84 216.689 367.86 216.62V197.94L351.63 207.28C351.63 207.28 351.56 207.41 351.54 207.48V226.16L367.78 216.82Z" fill="#F5F5F5"/>
<path d="M369.86 205.03L349.55 216.72V219.07L369.86 207.38V205.03Z" fill="#455A64"/>
<path d="M360.72 199.74V223.24L358.69 224.36V200.91L360.72 199.74Z" fill="#455A64"/>
<path d="M337.41 164L347.41 158.21C348 157.87 348.49 158.15 348.49 158.84V179.84C348.468 180.216 348.359 180.581 348.171 180.907C347.984 181.233 347.723 181.512 347.41 181.72L337.41 187.5C336.81 187.85 336.32 187.57 336.32 186.88V165.88C336.342 165.503 336.452 165.137 336.641 164.81C336.83 164.484 337.094 164.206 337.41 164Z" fill="#455A64"/>
<path d="M338.32 165.92L338.45 165.74L346.51 161.09V179.83C346.472 179.891 346.429 179.948 346.38 180L338.33 184.65L338.32 165.92Z" fill="#F5F5F5"/>
<path d="M346.51 169.34L338.32 174.07V176.41L346.51 171.68V169.34Z" fill="#455A64"/>
<path d="M301.8 276.03L378.97 231.47L378.98 236.16L301.8 280.72V276.03Z" fill="#263238"/>
<path d="M196.18 219.75L151.5 132.98L119 175.19V231.47L196.18 276.03V219.75Z" fill="#F5F5F5"/>
<path d="M127.13 236.16V193.95L143.38 203.33V245.55L127.13 236.16Z" fill="#263238"/>
<path d="M160.71 213.38L178.85 223.82C179.166 224.026 179.43 224.304 179.619 224.63C179.808 224.957 179.918 225.323 179.94 225.7V246.7C179.94 247.39 179.45 247.7 178.85 247.32L160.71 236.88C160.395 236.674 160.132 236.396 159.945 236.069C159.757 235.743 159.649 235.376 159.63 235V214C159.62 213.31 160.11 213 160.71 213.38Z" fill="#455A64"/>
<path d="M161.71 235.1C161.675 235.036 161.645 234.969 161.62 234.9V216.22L177.85 225.55C177.885 225.614 177.915 225.681 177.94 225.75V244.43L161.71 235.1Z" fill="#F5F5F5"/>
<path d="M159.62 223.3L179.94 235V237.34L159.62 225.65V223.3Z" fill="#455A64"/>
<path d="M168.76 218.01V241.51L170.79 242.64V219.19L168.76 218.01Z" fill="#455A64"/>
<path d="M160.57 164L150.57 158.21C149.97 157.87 149.49 158.15 149.49 158.84V179.84C149.51 180.216 149.618 180.582 149.806 180.909C149.993 181.235 150.255 181.513 150.57 181.72L160.57 187.5C161.17 187.85 161.65 187.57 161.65 186.88V165.88C161.63 165.504 161.522 165.138 161.334 164.811C161.147 164.484 160.885 164.207 160.57 164Z" fill="#455A64"/>
<path d="M159.65 165.92L159.53 165.74L151.47 161.09V179.83C151.508 179.891 151.551 179.948 151.6 180L159.65 184.65V165.92Z" fill="#F5F5F5"/>
<path d="M151.47 169.34L159.66 174.07V176.41L151.47 171.68V169.34Z" fill="#455A64"/>
<path d="M302.67 222.61L248.99 191.61V79.03L347.35 135.84L302.67 222.61Z" fill="#455A64"/>
<path d="M346.48 132.98L345.55 134.78L381.18 173.92L383.04 172.84L346.48 132.98Z" fill="#455A64"/>
<path d="M381.18 173.92L378.98 175.19L345.72 139.01L347.05 136.43L381.18 173.92Z" fill="#263238"/>
<path d="M301.8 219.75L248.99 189.26V76.6899L346.48 132.98L301.8 219.75Z" fill="#37474F"/>
<path d="M195.31 222.61L248.99 191.61V79.03L150.63 135.84L195.31 222.61Z" fill="#455A64"/>
<path d="M151.5 132.98L152.43 134.78L116.8 173.92L114.94 172.84L151.5 132.98Z" fill="#455A64"/>
<path d="M116.8 173.92L119 175.19L152.26 139.01L150.93 136.43L116.8 173.92Z" fill="#263238"/>
<path d="M196.18 219.75L248.99 189.26V76.6899L151.5 132.98L196.18 219.75Z" fill="#263238"/>
<path d="M197.2 162.88L208.37 184.57V161.12L197.2 154.67V162.88Z" fill="#F0F0F0"/>
<path d="M208.37 161.12L220.55 140.01L228.68 149.39V172.84L208.37 184.57V161.12Z" fill="#E0E0E0"/>
<path d="M214.77 158.53L222.28 154.19C222.73 153.93 223.09 154.14 223.09 154.66V170.38C223.074 170.66 222.993 170.933 222.852 171.177C222.711 171.42 222.515 171.626 222.28 171.78L214.77 176.12C214.32 176.38 213.95 176.12 213.95 175.66V159.94C213.966 159.657 214.049 159.382 214.191 159.137C214.334 158.892 214.532 158.684 214.77 158.53Z" fill="#455A64"/>
<path d="M215.45 159.94C215.45 159.94 215.52 159.84 215.55 159.81L221.55 156.32V170.38L221.46 170.51L215.46 173.99L215.45 159.94Z" fill="#F5F5F5"/>
<path d="M221.59 162.51L215.45 166.05V167.81L221.59 164.26V162.51Z" fill="#455A64"/>
<path d="M220.55 140.01L224.62 142.36L232.74 151.74L228.68 149.39L220.55 140.01Z" fill="#263238"/>
<path d="M220.55 139.01L224.62 141.35L232.74 150.74L228.68 148.39L220.55 139.01Z" fill="#263238"/>
<path d="M224.62 142.36L208.37 165.81L192.12 156.43L208.37 132.97L224.62 142.36Z" fill="#37474F"/>
<path d="M224.62 141.35L208.37 164.81L192.12 155.43L208.37 131.97L224.62 141.35Z" fill="#37474F"/>
<path d="M224.62 141.35V142.36L232.74 151.74V150.74L224.62 141.35Z" fill="#455A64"/>
<path d="M224.62 141.35L208.37 164.81V165.81L224.62 142.36V141.35Z" fill="#455A64"/>
<path d="M192.12 155.43V156.43L208.37 165.81V164.81L192.12 155.43Z" fill="#263238"/>
<path d="M300.78 162.88L289.61 184.57V161.12L300.78 154.67V162.88Z" fill="#E0E0E0"/>
<path d="M289.61 161.12L277.42 140.01L269.3 149.39V172.84L289.61 184.57V161.12Z" fill="#F5F5F5"/>
<path d="M283.21 158.53L275.7 154.19C275.25 153.93 274.88 154.14 274.88 154.66V170.38C274.898 170.661 274.981 170.934 275.123 171.178C275.266 171.421 275.463 171.627 275.7 171.78L283.21 176.12C283.66 176.38 284.02 176.12 284.02 175.66V159.94C284.006 159.658 283.925 159.383 283.784 159.138C283.644 158.893 283.447 158.684 283.21 158.53Z" fill="#455A64"/>
<path d="M282.52 159.94C282.493 159.894 282.463 159.851 282.43 159.81L276.43 156.32V170.38C276.467 170.42 276.5 170.464 276.53 170.51L282.53 173.99L282.52 159.94Z" fill="#FAFAFA"/>
<path d="M276.38 162.51L282.52 166.05V167.81L276.38 164.26V162.51Z" fill="#455A64"/>
<path d="M277.42 140.01L273.36 142.36L265.24 151.74L269.3 149.39L277.42 140.01Z" fill="#263238"/>
<path d="M277.42 139.01L273.36 141.35L265.24 150.74L269.3 148.39L277.42 139.01Z" fill="#263238"/>
<path d="M273.36 142.36L289.61 165.81L305.86 156.43L289.61 132.97L273.36 142.36Z" fill="#37474F"/>
<path d="M273.36 141.35L289.61 164.81L305.86 155.43L289.61 131.97L273.36 141.35Z" fill="#455A64"/>
<path d="M273.36 141.35V142.36L265.24 151.74V150.74L273.36 141.35Z" fill="#455A64"/>
<path d="M273.36 141.35L289.61 164.81V165.81L273.36 142.36V141.35Z" fill="#455A64"/>
<path d="M305.86 155.43V156.43L289.61 165.81V164.81L305.86 155.43Z" fill="#263238"/>
<path d="M196.18 276.03L179.94 285.42V290.11L196.18 280.72V276.03Z" fill="#263238"/>
<path d="M179.94 285.42L102.76 240.85V245.55L179.94 290.11V285.42Z" fill="#455A64"/>
<path d="M119 231.47L102.76 240.85L179.94 285.42L196.18 276.03L119 231.47Z" fill="#37474F"/>
<path d="M177.87 279.55C177.888 279.728 177.953 279.898 178.058 280.042C178.164 280.186 178.306 280.299 178.47 280.37C178.924 280.602 179.426 280.723 179.935 280.723C180.444 280.723 180.946 280.602 181.4 280.37C181.564 280.299 181.706 280.186 181.812 280.042C181.917 279.898 181.982 279.728 182 279.55V221.55H177.85V279.55H177.87Z" fill="#263238"/>
<path d="M111 241.1C111.017 241.281 111.082 241.453 111.19 241.599C111.297 241.746 111.443 241.86 111.61 241.93C112.063 242.157 112.563 242.275 113.07 242.275C113.577 242.275 114.077 242.157 114.53 241.93C114.697 241.86 114.843 241.746 114.95 241.599C115.058 241.453 115.123 241.281 115.14 241.1V183.15H111V241.1Z" fill="#263238"/>
<path d="M196.18 219.75L114.94 172.84L98.6901 182.22L179.93 229.13L196.18 219.75Z" fill="#455A64"/>
<path d="M179.93 229.13V231.47L196.18 222.09V219.75L179.93 229.13Z" fill="#263238"/>
<path d="M179.93 229.13L98.6901 182.22V184.57L179.93 231.47V229.13Z" fill="#37474F"/>
<path d="M119.12 112.13L116.23 113.24V106.88C116.23 101.88 112.23 100.62 107.84 103.14C103.47 105.67 99.92 111.8 99.92 116.85V117.78C99.3062 117.587 98.6562 117.536 98.02 117.634C97.3838 117.731 96.7783 117.972 96.25 118.34C94.5901 119.42 93.2086 120.877 92.2181 122.592C91.2276 124.307 90.6561 126.232 90.55 128.21V128.63L86.55 130.95C85.459 131.663 84.551 132.623 83.8996 133.753C83.2481 134.882 82.8715 136.148 82.8 137.45C82.8 139.84 84.48 140.81 86.55 139.61L119.15 120.79C120.241 120.079 121.15 119.121 121.801 117.994C122.453 116.866 122.829 115.6 122.9 114.3C122.87 111.91 121.19 110.94 119.12 112.13Z" fill="#F0F0F0"/>
<path d="M86.4 114.24L81.17 117.24C81.17 117.01 81.17 116.77 81.17 116.55V115.03C81.17 112.33 79.27 111.23 76.93 112.58C75.9443 113.206 75.0997 114.03 74.45 115C74.07 111.6 71.45 110.34 68.17 112.21C66.3212 113.414 64.7832 115.038 63.6814 116.95C62.5796 118.861 61.9452 121.006 61.83 123.21V125.48C61.8041 126.387 61.9889 127.287 62.37 128.11L58 130.64C57.3176 131.085 56.7494 131.685 56.3412 132.39C55.933 133.095 55.6962 133.886 55.65 134.7C55.65 136.2 56.71 136.81 58 136.06L86.4 119.67C87.0843 119.224 87.6538 118.623 88.0621 117.916C88.4704 117.209 88.7061 116.415 88.75 115.6C88.75 114.1 87.7 113.5 86.4 114.24Z" fill="#F0F0F0"/>
<path d="M329.36 295.121C329.36 295.121 336.14 294.541 337.13 295.121C338.12 295.701 337.82 298.641 337.13 300.441C336.44 302.241 332.98 303.441 329.77 305.581C329.77 305.261 329.36 295.121 329.36 295.121Z" fill="#C8856A"/>
<path d="M353 250.641C350.84 257.011 346.23 276.011 346.23 276.011C346.23 276.011 337.44 287.701 335.02 289.931C333.68 291.171 330.65 293.401 330.65 293.401L333.17 295.261C333.17 295.261 337.37 293.981 337.72 296.261C342.099 292.737 346.242 288.929 350.12 284.861C351.099 283.839 351.789 282.576 352.12 281.201L355.87 265.071C355.87 265.071 355.87 252.071 357.87 250.371C359.87 248.671 359.08 244.821 359.08 244.821C357.71 244.861 354.7 245.651 353 250.641Z" fill="#C8856A"/>
<path d="M359.15 244.181C359.763 245.901 360.505 247.573 361.37 249.181C362.25 250.691 355.52 277.841 355.07 279.861C354.62 281.881 341.57 293.651 341.57 293.651C339.212 292.653 337.339 290.772 336.35 288.411L345.77 276.151C345.77 276.151 348.7 263.291 350.24 257.391C351.78 251.491 353.42 244.821 359.15 244.181Z" fill="#EF5050"/>
<path opacity="0.1" d="M359.15 244.181C359.763 245.901 360.505 247.573 361.37 249.181C362.25 250.691 355.52 277.841 355.07 279.861C354.62 281.881 341.57 293.651 341.57 293.651C339.212 292.653 337.339 290.772 336.35 288.411L345.77 276.151C345.77 276.151 348.7 263.291 350.24 257.391C351.78 251.491 353.42 244.821 359.15 244.181Z" fill="black"/>
<path d="M386.71 371.771H380.21V382.911H386.71V371.771Z" fill="#C8856A"/>
<path d="M360.11 374.471L353.61 374.701L353.29 362.911L360.11 362.691V374.471Z" fill="#C8856A"/>
<path d="M385.8 292.281C385.8 298.491 386.23 334.611 386.23 334.611C386.38 336.391 388.1 339.611 388.23 346.011C388.42 355.351 386.98 377.341 386.98 377.341C385.857 377.892 384.626 378.19 383.376 378.214C382.125 378.238 380.884 377.988 379.74 377.481C379.74 377.481 374.63 346.381 373.47 337.131C372.47 329.071 368.94 307.541 368.94 307.541L363.94 334.801C364.694 338.192 364.967 341.673 364.75 345.141C364.44 349.411 360.48 370.821 360.48 370.821C359.347 371.462 358.087 371.846 356.79 371.947C355.492 372.047 354.188 371.861 352.97 371.401C352.97 371.401 352.58 337.791 352.51 333.871C352.42 329.401 354.37 290.931 354.37 290.931L385.8 292.281Z" fill="#37474F"/>
<path d="M380.21 379.701V378.771C379.86 378.771 379.65 379.111 379.51 379.941C379.418 380.561 379.291 381.175 379.13 381.781C378.843 382.919 378.466 384.033 378 385.111C377.08 387.381 376.31 388.221 374.2 390.871C373.486 391.605 372.818 392.383 372.2 393.201C371.81 393.901 371.67 395.841 372.34 396.291C374.79 397.931 378.52 397.971 381.16 397.201C382.143 396.925 383.026 396.373 383.704 395.611C384.383 394.849 384.829 393.909 384.99 392.901C385.09 392.301 385.05 391.681 385.12 391.081C385.352 389.708 385.911 388.412 386.75 387.301C387.237 386.659 387.656 385.969 388 385.241C388.54 383.911 388.11 382.401 387.76 381.071C387.46 379.921 387.13 378.661 386.76 378.771V379.471C385.834 380.204 384.681 380.593 383.5 380.571C382.51 380.611 380.2 380.421 380.21 379.701Z" fill="#263238"/>
<path d="M353.54 372.691C353.2 372.691 352.93 373.181 352.18 373.991C351.066 375.111 349.776 376.04 348.36 376.741C345.92 377.961 341.19 379.831 339.04 380.801C337.7 381.401 337.77 383.021 339.15 383.941C340.53 384.861 343.88 385.521 347.89 384.631C350.07 384.141 352.89 382.121 354.72 382.231C356.55 382.341 359.89 382.311 361.22 381.391C362.55 380.471 362.02 378.521 361.64 376.841C361.23 375.011 360.72 372.141 360.11 372.271V372.901C359.33 374.091 355.29 374.571 353.58 373.701L353.54 372.691Z" fill="#263238"/>
<path d="M368.95 307.541C365.582 306.501 362.483 304.736 359.87 302.371C359.87 302.371 361.62 305.651 366.87 308.691L364.35 332.941L368.95 307.541Z" fill="#263238"/>
<path d="M374.52 244.621C376.74 245.161 381.2 245.891 382.2 250.301C383.4 255.591 383.79 267.121 383.79 267.121L384.2 292.781C379.72 296.041 363.27 297.781 353.84 290.931C353.84 290.931 355 260.131 355 255.331C355 250.531 357.66 244.771 365 244.331L374.52 244.621Z" fill="#F5F5F5"/>
<path d="M365.12 243.851C363.097 245.545 361.634 247.811 360.92 250.351C360.02 254.231 359.92 297.561 359.92 297.561C359.92 297.561 355.32 296.711 353.17 295.021C353.17 295.021 353.44 260.821 353.88 255.161C354.55 246.591 354.48 244.161 365.15 243.211L365.12 243.851Z" fill="#EF5050"/>
<path d="M376.46 243.211C376.46 243.211 370.33 246.981 370.26 261.991C370.2 274.991 369.77 297.561 369.77 297.561C369.77 297.561 379.92 299.051 386.35 295.211C386.35 295.211 387.12 263.751 386.99 258.881C386.85 253.301 385.55 246.091 383.76 245.371C381.384 244.47 378.944 243.748 376.46 243.211Z" fill="#EF5050"/>
<path d="M399.26 277.671C393.16 252.731 388.65 244.411 381.26 244.511C379.09 247.091 379.69 254.911 383.11 259.651C383.11 259.651 390.74 275.731 391.95 281.451C393.02 286.451 394.23 292.801 394.16 297.121C394.135 297.885 393.833 298.613 393.31 299.171C391.92 300.681 391.91 301.901 391.01 303.571C390.3 304.871 389.53 305.361 389.75 305.661C390.041 305.97 390.438 306.16 390.862 306.191C391.286 306.222 391.706 306.094 392.04 305.831C392.691 305.357 393.273 304.795 393.77 304.161C393.531 305.76 393.07 307.319 392.4 308.791C390.83 312.321 391.21 314.121 395.98 312.861C398.98 312.071 400.84 309.591 401.28 302.411C401.5 299.77 401.527 297.116 401.36 294.471C400.71 287.671 400.25 281.691 399.26 277.671Z" fill="#C8856A"/>
<path d="M379.97 244.101C379.97 244.101 384.88 243.881 387.54 246.571C390.2 249.261 393.79 254.921 397.27 267.291C400.75 279.661 401.82 288.701 401.99 295.661C401.99 295.661 397.63 297.661 393.61 295.381C393.61 295.381 391.83 284.611 390.25 278.881C388.67 273.151 382.78 261.081 382.78 261.081C382.78 261.081 377.15 252.711 379.97 244.101Z" fill="#EF5050"/>
<path opacity="0.1" d="M379.97 244.101C379.97 244.101 384.88 243.881 387.54 246.571C390.2 249.261 393.79 254.921 397.27 267.291C400.75 279.661 401.82 288.701 401.99 295.661C401.99 295.661 397.63 297.661 393.61 295.381C393.61 295.381 391.83 284.611 390.25 278.881C388.67 273.151 382.78 261.081 382.78 261.081C382.78 261.081 377.15 252.711 379.97 244.101Z" fill="black"/>
<path opacity="0.1" d="M377.15 251.421L374.34 254.891L375.75 258.851L372.06 268.311L376.5 258.851L374.95 255.111L377.15 251.421Z" fill="black"/>
<path opacity="0.1" d="M357.35 250.301L357.96 253.891L355.53 257.061L358.91 267.701L356.29 257.181L358.53 254.221L357.35 250.301Z" fill="black"/>
<path d="M372.831 224.689C373.622 219.816 370.312 215.223 365.438 214.432C360.565 213.641 355.973 216.951 355.182 221.824C354.39 226.698 357.7 231.29 362.574 232.081C367.447 232.872 372.039 229.563 372.831 224.689Z" fill="#263238"/>
<path d="M379.45 229.601C379.45 229.601 378 236.411 377.45 237.531C377.061 238.217 376.424 238.729 375.67 238.961L375.77 234.171L379.45 229.601Z" fill="#263238"/>
<path d="M376.964 218.396C377.55 218.328 378.144 218.4 378.699 218.606C379.254 218.812 379.755 219.146 380.165 219.584C381.536 221.033 380.776 225.524 379.014 230.003L375.87 230.371L376.964 218.396Z" fill="#263238"/>
<path d="M375.87 229.921C376.42 230.241 377.2 229.191 377.87 228.491C378.134 228.181 378.473 227.944 378.855 227.803C379.236 227.662 379.648 227.621 380.05 227.686C380.452 227.75 380.831 227.917 381.149 228.17C381.468 228.423 381.716 228.754 381.87 229.131C382.99 231.491 380.87 234.611 379.17 235.131C376.17 236.071 375.73 234.131 375.73 234.131L375.51 245.241C373.44 247.891 368.8 251.011 366.3 250.561C364.3 250.211 363.87 246.841 365.78 244.631V241.371C364.458 241.581 363.117 241.648 361.78 241.571C359.58 241.231 358.2 239.501 357.53 237.121C356.46 233.301 356.05 230.221 356.96 222.701C357.96 214.461 367.54 214.381 372.71 217.631C377.88 220.881 375.87 229.921 375.87 229.921Z" fill="#C8856A"/>
<path d="M375.87 230.841C376.15 230.841 377.2 229.111 377.87 228.491C378.81 227.631 377.59 219.851 377.59 219.851C377.917 219.167 378.029 218.4 377.913 217.65C377.797 216.901 377.458 216.204 376.94 215.651C375.65 214.231 366.87 213.371 359.87 216.371C355.69 216.861 358.87 219.371 357.87 217.871C357.53 219.071 355.982 222.686 356.37 223.871C356.758 225.056 356.726 219.075 357.71 219.841C359.217 220.589 360.86 221.024 362.54 221.121C365.772 221.365 369.02 221.305 372.24 220.941C373.24 220.801 373.47 221.781 374.02 224.471C374.58 226.821 374.98 230.821 375.87 230.841Z" fill="#263238"/>
<path d="M365.8 241.371C368.06 240.94 370.276 240.304 372.42 239.471C373.429 238.945 374.255 238.125 374.79 237.121C374.532 238.126 374.073 239.068 373.44 239.891C372.19 241.491 365.8 242.671 365.8 242.671V241.371Z" fill="#AF6152"/>
<path d="M366.98 228.691C366.98 228.956 367.085 229.21 367.273 229.398C367.46 229.586 367.715 229.691 367.98 229.691C368.245 229.691 368.5 229.586 368.687 229.398C368.875 229.21 368.98 228.956 368.98 228.691C368.98 228.426 368.875 228.171 368.687 227.984C368.5 227.796 368.245 227.691 367.98 227.691C367.715 227.691 367.46 227.796 367.273 227.984C367.085 228.171 366.98 228.426 366.98 228.691Z" fill="#263238"/>
<path d="M368.02 224.981L370.12 226.141C370.269 225.851 370.302 225.516 370.211 225.203C370.119 224.89 369.912 224.625 369.63 224.461C369.491 224.386 369.338 224.339 369.181 224.325C369.023 224.311 368.864 224.328 368.714 224.377C368.563 224.425 368.424 224.504 368.305 224.608C368.186 224.712 368.089 224.839 368.02 224.981Z" fill="#263238"/>
<path d="M366.24 235.481L364 236.321C364.047 236.472 364.125 236.612 364.228 236.733C364.331 236.853 364.457 236.952 364.599 237.022C364.741 237.092 364.896 237.132 365.055 237.141C365.213 237.149 365.371 237.126 365.52 237.071C365.822 236.95 366.066 236.717 366.2 236.421C366.334 236.124 366.348 235.788 366.24 235.481Z" fill="#AF6152"/>
<path d="M358.21 225.801L360.13 224.321C360.04 224.191 359.924 224.081 359.79 223.998C359.656 223.914 359.507 223.859 359.351 223.834C359.194 223.81 359.035 223.817 358.882 223.856C358.729 223.895 358.585 223.965 358.46 224.061C358.204 224.264 358.036 224.558 357.989 224.881C357.943 225.205 358.022 225.534 358.21 225.801Z" fill="#263238"/>
<path d="M358.8 228.371C358.8 228.636 358.905 228.89 359.093 229.078C359.28 229.265 359.535 229.371 359.8 229.371C360.065 229.371 360.32 229.265 360.507 229.078C360.695 228.89 360.8 228.636 360.8 228.371C360.8 228.106 360.695 227.851 360.507 227.664C360.32 227.476 360.065 227.371 359.8 227.371C359.535 227.371 359.28 227.476 359.093 227.664C358.905 227.851 358.8 228.106 358.8 228.371Z" fill="#263238"/>
<path d="M363.81 227.481L363.49 233.391L360.4 232.341L363.81 227.481Z" fill="#AF6152"/>
<path d="M362.74 249.921C363.34 251.361 364.46 251.921 366.47 252.171C367.487 252.234 368.506 252.089 369.466 251.745C370.425 251.401 371.304 250.865 372.05 250.171L369.55 247.681L366.36 250.071L366.09 247.401L362.74 249.921Z" fill="#EF5050"/>
<path opacity="0.1" d="M362.74 249.921C363.34 251.361 364.46 251.921 366.47 252.171C367.487 252.234 368.506 252.089 369.466 251.745C370.425 251.401 371.304 250.865 372.05 250.171L369.55 247.681L366.36 250.071L366.09 247.401L362.74 249.921Z" fill="black"/>
<path d="M364.32 249.141C364.025 250.005 363.913 250.921 363.99 251.831C364.086 252.641 364.396 253.411 364.89 254.061C365.207 254.265 365.567 254.393 365.942 254.435C366.317 254.476 366.696 254.43 367.05 254.301C367.697 253.745 368.217 253.056 368.574 252.281C368.932 251.507 369.118 250.664 369.12 249.811L366.36 250.121L364.32 249.141Z" fill="#EF5050"/>
<path d="M364.87 254.061C364.87 254.061 361.6 272.061 361.47 273.541C361.34 275.021 363.34 280.161 364.59 280.201C365.84 280.241 368.28 275.571 368.31 274.201C368.34 272.831 367.03 254.251 367.03 254.251L364.87 254.061Z" fill="#EF5050"/>
<path opacity="0.1" d="M367.05 254.301C366.701 254.455 366.317 254.514 365.938 254.472C365.558 254.43 365.197 254.288 364.89 254.061V254.351C365.202 254.6 365.569 254.77 365.961 254.846C366.353 254.923 366.757 254.904 367.14 254.791L367.05 254.301Z" fill="black"/>
<path d="M366.36 250.121L375.56 243.121V241.041C375.56 241.041 377.7 241.851 378.18 245.621C376.704 248.89 374.181 251.575 371.01 253.251L369.08 249.811L366.36 250.121Z" fill="#E0E0E0"/>
<path d="M365.8 241.991C364.598 242.181 363.519 242.839 362.8 243.821C361.88 245.331 362.09 251.141 362.09 251.141L364.29 249.141L366.29 250.141C366.1 248.211 365.72 244.691 365.72 244.691L365.8 241.991Z" fill="#E0E0E0"/>
<path d="M329.87 305.641C330.729 304.434 331.232 303.01 331.32 301.531C331.58 299.641 336.76 297.611 336.93 299.021C337.1 300.431 337.57 301.601 335.93 303.311C334.29 305.021 332.28 306.911 329.87 305.641Z" fill="#C8856A"/>
<path d="M330.14 293.431C328.9 295.031 328.14 298.141 327.48 299.191C326.82 300.241 326.04 301.191 327.48 301.341C328.92 301.491 331.01 298.731 331.79 297.031C332.092 296.358 332.552 295.768 333.13 295.311C333.357 295.128 333.61 294.98 333.88 294.871C333.21 294.641 333.56 291.941 333.09 291.571C333.09 291.571 330.65 292.571 330.14 293.431Z" fill="#C8856A"/>
</svg>
