<svg width="500" height="500" viewBox="0 0 500 500" fill="none" xmlns="http://www.w3.org/2000/svg">
<path d="M91.4599 439C180.22 484.38 324.12 484.39 412.88 439C501.64 393.61 501.64 320 412.88 274.66C324.12 229.32 180.22 229.28 91.4599 274.66C2.69989 320.04 2.69989 393.65 91.4599 439Z" fill="#F5F5F5"/>
<path d="M209.134 403.96L161.214 376.48L224.354 340.97L209.424 404.46" fill="#E0E0E0"/>
<path d="M298.224 379.34L340.894 403.98C342.484 404.784 344.242 405.203 346.024 405.203C347.806 405.203 349.563 404.784 351.154 403.98L437.154 354.34C439.984 352.7 439.984 350.05 437.154 348.42L394.484 323.78C392.893 322.976 391.136 322.557 389.354 322.557C387.572 322.557 385.814 322.976 384.224 323.78L298.224 373.42C295.384 375.09 295.384 377.71 298.224 379.34Z" fill="#E0E0E0"/>
<path d="M139.124 360.5C138.494 352.73 134.934 339.96 125.894 327.8C116.224 314.8 104.424 306.66 95.6637 310.46C87.5037 314.01 90.5937 325.27 104.664 336.39C114.514 344.18 124.734 354.33 130.234 366.58L139.144 382.17L139.124 360.5Z" fill="#EF5050"/>
<g opacity="0.1">
<path opacity="0.1" d="M139.124 360.5C138.494 352.73 134.934 339.96 125.894 327.8C116.224 314.8 104.424 306.66 95.6637 310.46C87.5037 314.01 90.5937 325.27 104.664 336.39C114.514 344.18 124.734 354.33 130.234 366.58L139.144 382.17L139.124 360.5Z" fill="black"/>
</g>
<path d="M138.334 366.43C138.219 366.43 138.108 366.394 138.014 366.328C137.921 366.261 137.851 366.168 137.814 366.06C129.984 344.51 113.684 322.7 99.8936 315.33C99.828 315.296 99.7697 315.249 99.7221 315.192C99.6745 315.135 99.6385 315.07 99.6162 314.999C99.594 314.929 99.5858 314.855 99.5922 314.781C99.5986 314.707 99.6195 314.635 99.6536 314.57C99.6878 314.504 99.7345 314.446 99.7912 314.398C99.8479 314.351 99.9134 314.315 99.9839 314.292C100.055 314.27 100.129 314.262 100.203 314.268C100.276 314.275 100.348 314.296 100.414 314.33C114.414 321.82 130.944 343.88 138.854 365.67C138.902 365.806 138.894 365.956 138.833 366.088C138.771 366.219 138.66 366.32 138.524 366.37C138.465 366.403 138.401 366.424 138.334 366.43Z" fill="white"/>
<path d="M138.334 387.09C133.81 390.647 128.43 392.95 122.734 393.77C112.904 395.31 108.604 390.61 108.604 390.61C108.604 390.61 112.474 381.39 118.064 378.8C112.022 380.152 106.254 382.519 101.004 385.8C101.004 385.8 95.0037 385.89 92.6137 376.73C92.6137 376.73 96.1637 371.22 108.094 368.24C108.094 368.24 100.844 366.41 90.3837 369.08C89.5937 369.39 86.2537 357.55 85.2437 352.08C84.2337 346.61 86.4237 346.67 90.6837 345.53C94.9437 344.39 109.444 343.68 112.114 346.03C114.784 348.38 116.114 356.38 116.114 356.38C116.114 356.38 118.664 351.85 118.054 347.8C121.026 346.951 124.186 347.028 127.114 348.02C131.904 349.68 131.594 352.02 131.594 355.5C131.614 359.007 131.133 362.499 130.164 365.87C130.164 365.87 133.474 363.01 133.584 352.47C133.584 352.47 140.054 358 142.654 362.76C145.254 367.52 144.604 379.97 138.334 387.09Z" fill="#EF5050"/>
<path d="M138.334 387.62C138.23 387.621 138.127 387.592 138.039 387.537C137.95 387.482 137.879 387.404 137.834 387.31C129.904 370.83 100.414 351.69 89.8337 349.63C89.6898 349.601 89.5631 349.516 89.4808 349.395C89.3985 349.273 89.3672 349.124 89.3937 348.98C89.408 348.909 89.4362 348.841 89.4767 348.781C89.5171 348.721 89.569 348.67 89.6294 348.63C89.6898 348.59 89.7575 348.562 89.8286 348.549C89.8997 348.535 89.9728 348.535 90.0437 348.55C100.804 350.64 130.774 370.09 138.834 386.83C138.896 386.963 138.904 387.115 138.855 387.253C138.806 387.391 138.705 387.505 138.574 387.57C138.499 387.605 138.417 387.623 138.334 387.62Z" fill="white"/>
<path d="M136.294 212.29V391.81L303.824 295.08V133.06L189.384 199.08L185.084 184.06L136.294 212.29Z" fill="#37474F"/>
<path d="M136.294 391.81L144.884 234.17L312.414 137.45L303.824 295.08L136.294 391.81Z" fill="#F0F0F0"/>
<path d="M136.294 391.81L151.464 238.56L318.994 141.84L303.824 295.08L136.294 391.81Z" fill="#455A64"/>
<path d="M208.814 404.66C208.344 404.66 208.274 404.12 208.274 403.8V173.16C208.309 172.56 208.484 171.976 208.784 171.456C209.085 170.935 209.502 170.491 210.004 170.16L371.864 76.7801C372.046 76.6614 372.256 76.5925 372.474 76.5801C372.934 76.5801 373.004 77.1201 373.004 77.4401V308.09C372.968 308.69 372.793 309.274 372.493 309.794C372.193 310.315 371.775 310.759 371.274 311.09L209.424 404.46C209.24 404.576 209.03 404.645 208.814 404.66Z" fill="#FAFAFA"/>
<path d="M372.394 77.18C372.408 77.2661 372.408 77.3539 372.394 77.44V308.09C372.352 308.586 372.202 309.066 371.953 309.496C371.704 309.927 371.363 310.297 370.954 310.58L209.134 403.96C209.056 404.007 208.972 404.04 208.884 404.06C208.876 403.974 208.876 403.886 208.884 403.8V173.16C208.922 172.665 209.07 172.184 209.317 171.753C209.565 171.323 209.905 170.953 210.314 170.67L372.154 77.28C372.229 77.2357 372.309 77.2021 372.394 77.18ZM372.474 76C372.155 76.0078 371.844 76.101 371.574 76.27L209.714 169.66C209.129 170.045 208.643 170.563 208.296 171.171C207.948 171.779 207.749 172.461 207.714 173.16V403.8C207.714 404.71 208.164 405.24 208.834 405.24C209.152 405.228 209.461 405.135 209.734 404.97L371.604 311.58C372.186 311.192 372.67 310.674 373.017 310.066C373.365 309.459 373.565 308.779 373.604 308.08V77.44C373.604 76.52 373.144 76 372.484 76H372.474Z" fill="#E6E6E6"/>
<path d="M221.914 179.04L269.314 151.67V206.4L221.914 233.77V179.04Z" fill="#EF5050"/>
<path d="M262.204 165.35V181.77L260.714 182.6V177.6C260.714 174.82 258.454 173.88 255.664 175.49L235.604 187.09C232.814 188.7 230.544 192.26 230.544 195.03V200.03L229.064 200.92V184.51L262.204 165.35Z" fill="#FAFAFA"/>
<path d="M253.064 207.2C250.624 208.61 248.654 207.13 248.654 203.91V177.57L242.604 180.89V207.43C242.604 210.65 240.604 214.43 238.194 215.8L233.794 218.34V220.09L257.494 206.4V204.66L253.064 207.2Z" fill="#FAFAFA"/>
<path d="M278.794 148.94C278.794 150.45 280.154 150.94 281.794 149.94L356.314 106.94C357.125 106.473 357.818 105.824 358.339 105.046C358.859 104.267 359.193 103.379 359.314 102.45C359.314 100.94 357.954 100.5 356.314 101.45L281.794 144.45C280.981 144.916 280.286 145.563 279.766 146.342C279.245 147.121 278.913 148.011 278.794 148.94Z" fill="#E0E0E0"/>
<path d="M278.794 165.35C278.794 166.87 280.154 167.35 281.794 166.35L356.314 123.35C357.125 122.883 357.818 122.235 358.339 121.456C358.859 120.677 359.193 119.789 359.314 118.86C359.314 117.35 357.954 116.86 356.314 117.86L281.794 160.86C280.981 161.326 280.286 161.973 279.766 162.752C279.245 163.532 278.913 164.421 278.794 165.35Z" fill="#E0E0E0"/>
<path d="M278.794 181.77C278.794 183.29 280.154 183.77 281.794 182.77L356.314 139.77C357.125 139.303 357.818 138.654 358.339 137.876C358.859 137.097 359.193 136.209 359.314 135.28C359.314 133.77 357.954 133.28 356.314 134.28L281.794 177.28C280.981 177.746 280.286 178.393 279.766 179.172C279.245 179.951 278.913 180.841 278.794 181.77Z" fill="#E0E0E0"/>
<path d="M278.794 198.19C278.794 199.7 280.154 200.19 281.794 199.19L356.314 156.19C357.125 155.723 357.818 155.074 358.339 154.296C358.859 153.517 359.193 152.629 359.314 151.7C359.314 150.19 357.954 149.75 356.314 150.7L281.794 193.7C280.981 194.166 280.286 194.813 279.766 195.592C279.245 196.371 278.913 197.261 278.794 198.19Z" fill="#E0E0E0"/>
<path d="M221.914 247.46C221.914 248.97 223.274 249.41 224.914 248.46L356.314 172.66C357.125 172.193 357.818 171.544 358.338 170.766C358.859 169.987 359.192 169.099 359.314 168.17C359.314 166.66 357.954 166.22 356.314 167.17L224.914 242.98C224.103 243.446 223.411 244.093 222.891 244.87C222.371 245.647 222.036 246.533 221.914 247.46Z" fill="#E0E0E0"/>
<path d="M221.914 263.88C221.914 265.39 223.274 265.88 224.914 264.88L356.344 189.09C357.155 188.623 357.848 187.974 358.368 187.196C358.889 186.417 359.222 185.529 359.344 184.6C359.344 183.09 357.984 182.65 356.344 183.6L224.944 259.39C224.126 259.854 223.428 260.501 222.902 261.279C222.376 262.058 222.038 262.948 221.914 263.88Z" fill="#E0E0E0"/>
<path d="M221.914 280.3C221.914 281.81 223.274 282.3 224.914 281.3L356.314 205.5C357.125 205.033 357.818 204.384 358.338 203.606C358.859 202.827 359.192 201.939 359.314 201.01C359.314 199.5 357.954 199.01 356.314 200.01L224.914 275.82C224.103 276.286 223.411 276.933 222.891 277.71C222.371 278.487 222.036 279.373 221.914 280.3Z" fill="#E0E0E0"/>
<path d="M221.914 296.71C221.914 298.22 223.274 298.71 224.914 297.71L356.314 221.9C357.125 221.435 357.819 220.789 358.339 220.012C358.86 219.235 359.193 218.348 359.314 217.42C359.314 215.9 357.954 215.42 356.314 216.42L224.914 292.23C224.102 292.694 223.408 293.341 222.888 294.118C222.367 294.895 222.034 295.782 221.914 296.71Z" fill="#E0E0E0"/>
<path d="M221.914 313.09C221.914 314.6 223.274 315.04 224.914 314.09L356.314 238.28C357.125 237.813 357.818 237.165 358.338 236.386C358.859 235.607 359.192 234.719 359.314 233.79C359.314 232.28 357.954 231.84 356.314 232.79L224.914 308.59C224.101 309.058 223.407 309.708 222.887 310.489C222.366 311.269 222.033 312.16 221.914 313.09Z" fill="#E0E0E0"/>
<path d="M221.914 329.55C221.914 331.06 223.274 331.55 224.914 330.55L356.314 254.75C357.125 254.283 357.818 253.634 358.338 252.856C358.859 252.077 359.192 251.189 359.314 250.26C359.314 248.75 357.954 248.26 356.314 249.26L224.944 325.09C224.13 325.551 223.434 326.193 222.908 326.966C222.383 327.74 222.042 328.624 221.914 329.55Z" fill="#E0E0E0"/>
<path d="M221.914 345.96C221.914 347.47 223.274 347.96 224.914 346.96L356.314 271.15C357.125 270.685 357.819 270.039 358.339 269.262C358.86 268.485 359.193 267.598 359.314 266.67C359.314 265.15 357.954 264.67 356.314 265.67L224.914 341.48C224.102 341.944 223.408 342.591 222.888 343.368C222.367 344.145 222.034 345.032 221.914 345.96Z" fill="#E0E0E0"/>
<path d="M221.914 362.38C221.914 363.89 223.274 364.33 224.914 363.38L356.314 287.57C357.125 287.103 357.818 286.455 358.338 285.676C358.859 284.897 359.192 284.009 359.314 283.08C359.314 281.57 357.954 281.08 356.314 282.08L224.914 357.88C224.101 358.348 223.407 358.998 222.887 359.779C222.366 360.559 222.033 361.45 221.914 362.38Z" fill="#E0E0E0"/>
<path d="M221.914 378.8C221.914 380.31 223.274 380.8 224.914 379.8L356.314 304C357.125 303.533 357.818 302.884 358.338 302.106C358.859 301.327 359.192 300.439 359.314 299.51C359.314 298 357.954 297.56 356.314 298.51L224.914 374.32C224.103 374.786 223.411 375.433 222.891 376.21C222.371 376.987 222.036 377.873 221.914 378.8Z" fill="#E0E0E0"/>
<path d="M424.274 260.55C424.312 254.723 425.974 249.023 429.074 244.09V234.8C429.116 234.326 429.042 233.849 428.859 233.41C428.676 232.972 428.389 232.583 428.024 232.28C427.933 232.217 427.836 232.163 427.734 232.12L397.604 214.69C397.148 214.491 396.648 214.414 396.154 214.467C395.66 214.52 395.188 214.7 394.784 214.99L371.034 228.7C369.889 229.49 368.939 230.531 368.258 231.745C367.577 232.958 367.182 234.311 367.104 235.7C366.834 242.5 364.614 255.09 352.604 262.02C340.594 268.95 338.344 258.8 338.094 252.32C337.994 249.74 336.404 248.7 334.174 249.99L310.414 263.7C309.245 264.471 308.274 265.507 307.579 266.723C306.884 267.939 306.485 269.301 306.414 270.7V279.99C306.414 279.99 311.214 281.33 311.214 290.91C311.214 300.49 303.794 317.86 303.794 341.97C303.794 354.04 307.624 364.12 315.664 368.75L345.854 386.17C353.854 390.89 366.114 390.17 382.984 380.39C416.564 361 431.824 327.18 431.824 303.08C431.824 278.98 424.274 270.09 424.274 260.55Z" fill="#EF5050"/>
<path d="M394.684 214.96L370.934 228.67C369.788 229.459 368.837 230.5 368.156 231.714C367.475 232.927 367.081 234.28 367.004 235.67C366.754 241.94 364.854 253.12 355.154 260.25L336.884 249.7L336.784 249.65C336.346 249.454 335.863 249.38 335.386 249.434C334.91 249.489 334.456 249.67 334.074 249.96L310.314 263.67C309.983 263.862 309.671 264.087 309.384 264.34C308.611 265.003 307.958 265.795 307.454 266.68C306.731 267.893 306.325 269.269 306.274 270.68V279.97L307.584 280.73C309.024 281.89 311.074 284.63 311.074 290.88C311.074 300.46 303.654 317.88 303.654 341.94C303.654 354.01 307.484 364.11 315.524 368.74L345.604 386.09C337.714 381.4 333.964 371.4 333.964 359.44C333.964 335.33 341.374 317.95 341.374 308.37C341.374 298.79 336.574 297.46 336.574 297.46V288.17C336.65 286.772 337.052 285.412 337.746 284.197C338.441 282.982 339.409 281.945 340.574 281.17L364.334 267.46C364.705 267.184 365.139 267.006 365.597 266.943C366.056 266.88 366.522 266.934 366.954 267.1H367.054C367.459 267.402 367.782 267.801 367.991 268.261C368.201 268.721 368.291 269.226 368.254 269.73C368.494 276.22 370.674 286.42 382.764 279.44C394.854 272.46 396.994 259.92 397.274 253.12C397.348 251.731 397.74 250.378 398.42 249.164C399.099 247.95 400.048 246.909 401.194 246.12L424.944 232.41C425.332 232.133 425.782 231.957 426.255 231.896C426.728 231.835 427.208 231.891 427.654 232.06L397.604 214.69C397.138 214.469 396.621 214.378 396.107 214.425C395.593 214.473 395.102 214.657 394.684 214.96Z" fill="#EF5050"/>
<path opacity="0.1" d="M307.604 280.72L336.604 297.45V288.16C336.649 286.746 337.059 285.368 337.794 284.16L307.454 266.69C306.729 267.902 306.323 269.278 306.274 270.69V279.98L307.604 280.72Z" fill="black"/>
<path opacity="0.4" d="M355.154 260.25L336.884 249.7L336.784 249.65C336.346 249.454 335.863 249.38 335.386 249.434C334.91 249.489 334.456 249.67 334.074 249.96L310.314 263.67C309.983 263.862 309.671 264.087 309.384 264.34C308.611 265.003 307.958 265.794 307.454 266.68L337.804 284.2C338.483 282.973 339.464 281.941 340.654 281.2L364.414 267.49C364.785 267.213 365.219 267.036 365.678 266.973C366.136 266.91 366.602 266.964 367.034 267.13L355.154 260.25Z" fill="white"/>
<path opacity="0.4" d="M427.734 232.09L397.604 214.69C397.143 214.477 396.633 214.389 396.128 214.437C395.622 214.484 395.137 214.665 394.724 214.96L370.974 228.67C369.804 229.407 368.851 230.442 368.214 231.67L398.554 249.18C399.191 247.952 400.144 246.917 401.314 246.18L425.064 232.47C425.445 232.195 425.887 232.017 426.352 231.95C426.817 231.884 427.291 231.932 427.734 232.09Z" fill="white"/>
<path opacity="0.1" d="M398.514 249.19C397.833 250.42 397.433 251.786 397.344 253.19C397.074 259.99 394.844 272.58 382.844 279.51C370.844 286.44 368.574 276.29 368.334 269.8C368.372 269.296 368.281 268.79 368.072 268.331C367.862 267.871 367.539 267.472 367.134 267.17H367.034L355.154 260.31C364.854 253.18 366.754 242 367.004 235.73C367.09 234.326 367.49 232.959 368.174 231.73L398.514 249.19Z" fill="black"/>
<path opacity="0.2" d="M345.604 386.09L315.484 368.72C307.484 364.09 303.614 353.99 303.614 341.92C303.614 317.82 311.034 300.44 311.034 290.86C311.034 284.66 309.034 281.92 307.584 280.73L336.584 297.46C336.584 297.46 341.384 298.8 341.384 308.37C341.384 317.94 333.974 335.37 333.974 359.44C334.004 371.41 337.754 381.41 345.604 386.09Z" fill="black"/>
<path d="M389.734 344.83L376.734 352.33L378.734 328.82C377.174 328 376.184 325.98 376.184 323.08C376.184 317.9 379.334 311.89 383.184 309.64C387.034 307.39 390.184 309.78 390.184 314.96C390.103 318.027 389.228 321.022 387.644 323.65L389.734 344.83Z" fill="#455A64"/>
<path d="M389.734 344.83L377.964 338.03L376.734 352.33L389.734 344.83Z" fill="#37474F"/>
<path d="M383.234 309.64C380.694 311.11 378.474 314.19 377.234 317.64L387.714 323.69C389.298 321.062 390.174 318.067 390.254 315C390.264 309.78 387.114 307.4 383.234 309.64Z" fill="#37474F"/>
<path d="M397.924 172.96C391.494 169.25 383.424 169.67 375.754 174.09L347.424 190.45C335.144 197.54 325.884 213.58 325.884 227.75V266C325.884 267.58 326.944 269.17 329.034 270.38C331.384 271.573 333.983 272.194 336.619 272.194C339.255 272.194 341.853 271.573 344.204 270.38C346.294 269.17 347.354 267.58 347.354 266V227.75C347.354 221.23 352.504 212.31 358.154 209.05L386.484 192.69H386.554V231.01C386.554 232.6 387.614 234.18 389.704 235.39C392.054 236.583 394.653 237.204 397.289 237.204C399.925 237.204 402.523 236.583 404.874 235.39C406.964 234.18 408.024 232.6 408.024 231.01V192.73C408.024 183.87 404.344 176.67 397.924 172.96Z" fill="#37474F"/>
<path d="M386.604 192.73V230.97C386.604 232.56 387.664 234.14 389.754 235.35C390.747 235.906 391.81 236.33 392.914 236.61V189.01L386.604 192.65V192.73Z" fill="#263238"/>
</svg>
