<svg width="500" height="500" viewBox="0 0 500 500" fill="none" xmlns="http://www.w3.org/2000/svg">
<path d="M96.13 443.56C182.19 488.56 321.73 488.56 407.79 443.56C493.85 398.56 493.85 325.7 407.79 280.74C321.73 235.78 182.19 235.74 96.13 280.74C10.07 325.74 10.07 398.6 96.13 443.56Z" fill="#F5F5F5"/>
<path d="M329.49 408.45C352.073 408.45 370.38 397.879 370.38 384.84C370.38 371.801 352.073 361.23 329.49 361.23C306.907 361.23 288.6 371.801 288.6 384.84C288.6 397.879 306.907 408.45 329.49 408.45Z" fill="#E0E0E0"/>
<path d="M404.21 367.7C424.186 367.7 440.38 358.352 440.38 346.82C440.38 335.288 424.186 325.94 404.21 325.94C384.234 325.94 368.04 335.288 368.04 346.82C368.04 358.352 384.234 367.7 404.21 367.7Z" fill="#E0E0E0"/>
<path d="M372.08 78.8401L378.48 82.5301C378.441 82.2484 378.421 81.9644 378.42 81.6801V79.8301C378.42 76.5301 380.74 75.2001 383.59 76.8301C384.826 77.5903 385.878 78.6148 386.67 79.8301C387.14 75.6801 390.39 74.1401 394.34 76.4201C396.59 77.8874 398.463 79.8645 399.806 82.1909C401.149 84.5174 401.925 87.1277 402.07 89.8101V92.5801C402.1 93.6888 401.878 94.7898 401.42 95.8001L406.73 98.8601C407.568 99.4085 408.265 100.147 408.764 101.016C409.263 101.885 409.549 102.859 409.6 103.86C409.6 105.69 408.31 106.43 406.73 105.51L372.08 85.5101C371.243 84.9611 370.548 84.2219 370.051 83.353C369.554 82.4841 369.269 81.5099 369.22 80.5101C369.22 78.6601 370.5 77.9201 372.08 78.8401Z" fill="#EBEBEB"/>
<path d="M344.72 97.47L349.55 100.25C349.518 100.038 349.502 99.8243 349.5 99.61V98.22C349.5 95.73 351.25 94.72 353.41 95.96C354.333 96.5346 355.124 97.298 355.73 98.2C356.08 95.07 358.54 93.91 361.52 95.63C363.219 96.7378 364.632 98.2308 365.645 99.9875C366.658 101.744 367.242 103.715 367.35 105.74V107.83C367.374 108.664 367.206 109.491 366.86 110.25L370.86 112.56C371.489 112.972 372.011 113.526 372.387 114.178C372.762 114.829 372.979 115.56 373.02 116.31C373.02 117.69 372.02 118.25 370.86 117.56L344.71 102.46C344.08 102.052 343.556 101.5 343.18 100.85C342.805 100.2 342.589 99.4698 342.55 98.72C342.56 97.34 343.52 96.78 344.72 97.47Z" fill="#EBEBEB"/>
<path d="M78.4801 395.78C77.8501 396.12 66.0701 399.47 61.7101 393.7C57.3501 387.93 64.5901 378.96 60.4901 375.65C56.3901 372.34 44.9401 375.65 42.1801 368.7C39.4201 361.75 47.6001 358.7 43.0001 351.7C40.1001 347.28 32.0001 344.84 32.3701 340.7C32.9101 334.7 43.9801 333.06 53.6601 339.51C63.3401 345.96 67.8401 340.67 70.9201 340.24C74.0001 339.81 80.6101 340.76 80.3901 351.54C80.1701 362.32 78.4801 395.78 78.4801 395.78Z" fill="#455A64"/>
<path d="M79.2601 380.45C79.108 380.449 78.9611 380.395 78.8457 380.296C78.7303 380.197 78.6538 380.06 78.6301 379.91C75.2601 359.45 51.4801 342.8 39.1101 339.23C38.9478 339.179 38.8114 339.067 38.7294 338.918C38.6474 338.769 38.6262 338.594 38.6701 338.43C38.6941 338.349 38.7339 338.274 38.7872 338.208C38.8405 338.143 38.9062 338.088 38.9806 338.048C39.0549 338.008 39.1365 337.984 39.2205 337.975C39.3045 337.967 39.3893 337.975 39.4701 338C52.1101 341.65 76.4701 358.71 79.9001 379.7C79.9262 379.868 79.8853 380.04 79.7862 380.178C79.6871 380.317 79.5377 380.411 79.3701 380.44L79.2601 380.45Z" fill="white"/>
<path d="M51.2201 363.32C51.1094 363.32 51.0006 363.292 50.9042 363.237C50.8078 363.183 50.7271 363.105 50.6701 363.01C50.5848 362.863 50.5601 362.689 50.6012 362.525C50.6423 362.361 50.7459 362.219 50.8901 362.13C51.2801 361.9 60.4301 356.55 69.4401 359.05C69.5217 359.072 69.5982 359.11 69.665 359.161C69.7319 359.213 69.7879 359.278 69.8297 359.351C69.8716 359.424 69.8984 359.506 69.9088 359.589C69.9192 359.673 69.9128 359.758 69.8901 359.84C69.8693 359.922 69.8321 359.999 69.7807 360.067C69.7293 360.135 69.6648 360.191 69.591 360.233C69.5172 360.275 69.4357 360.302 69.3513 360.312C69.267 360.321 69.1815 360.314 69.1001 360.29C60.6201 357.94 51.6401 363.18 51.5501 363.23C51.4505 363.29 51.3363 363.321 51.2201 363.32Z" fill="white"/>
<path d="M423.1 341.46L420 340C420 340 419 328.81 420 321.34C422 307.43 431.71 295.44 440.36 294.03C451.5 292.22 449.52 302.47 443.15 306.9C433 314 425.1 324.73 423.1 341.46Z" fill="#EF5050"/>
<g opacity="0.1">
<path opacity="0.1" d="M423.1 341.46L420 340C420 340 419 328.81 420 321.34C422 307.43 431.71 295.44 440.36 294.03C451.5 292.22 449.52 302.47 443.15 306.9C433 314 425.1 324.73 423.1 341.46Z" fill="black"/>
</g>
<path d="M421.92 337H422C422.141 336.973 422.265 336.892 422.345 336.774C422.426 336.656 422.456 336.511 422.43 336.37C420.27 324.94 429.68 303.75 442.27 297.73C442.403 297.668 442.505 297.555 442.555 297.417C442.605 297.28 442.597 297.128 442.535 296.995C442.473 296.862 442.36 296.76 442.223 296.71C442.085 296.661 441.933 296.668 441.8 296.73C428.8 302.93 419.14 324.73 421.36 336.55C421.382 336.681 421.451 336.799 421.554 336.882C421.658 336.965 421.788 337.007 421.92 337Z" fill="white"/>
<path d="M420 340C419.77 338.34 419.67 335.92 419.64 335.32C419.511 333.212 419.821 331.101 420.55 329.12C421.508 326.502 423.332 324.289 425.72 322.85C427.02 322.1 428.54 321.56 429.38 320.32C429.989 319.177 430.315 317.905 430.33 316.61C430.59 314.52 431.24 312.31 432.92 311.03C434.6 309.75 436.92 309.72 438.92 309.94C441.92 310.26 444.73 310.66 447.53 309.29C449.767 308.102 452.079 307.06 454.45 306.17C457.45 305.17 464.16 303.67 465.57 307.88C465.73 308.461 465.758 309.07 465.653 309.664C465.547 310.257 465.311 310.82 464.96 311.31C464.251 312.286 463.402 313.152 462.44 313.88L457.75 317.78C457.191 318.19 456.707 318.694 456.32 319.27C455.41 320.83 456.06 322.8 455.86 324.59C455.733 325.501 455.41 326.373 454.912 327.146C454.415 327.92 453.756 328.576 452.98 329.07C451.417 330.049 449.578 330.494 447.74 330.34C445.29 330.17 441.29 328.29 439.79 331.18C439.375 332.164 439.131 333.213 439.07 334.28C439.011 335.351 438.666 336.387 438.07 337.28C437.07 338.5 435.4 338.85 433.84 339.01C431.655 339.049 429.485 339.385 427.39 340.01C426.55 340.34 426.02 341.41 425.53 342.12C424 341.61 422.32 341 420 340Z" fill="#EF5050"/>
<path d="M421.37 339.16C421.295 339.179 421.216 339.179 421.14 339.16C421.016 339.109 420.917 339.011 420.865 338.887C420.812 338.764 420.811 338.624 420.86 338.5C427.16 322.85 447.26 311.64 459.24 307.92C459.304 307.9 459.371 307.893 459.437 307.899C459.504 307.906 459.568 307.925 459.627 307.957C459.686 307.989 459.737 308.032 459.779 308.084C459.821 308.136 459.852 308.196 459.87 308.26C459.908 308.387 459.895 308.524 459.833 308.642C459.771 308.759 459.666 308.848 459.54 308.89C447.75 312.55 427.97 323.55 421.8 338.89C421.758 338.968 421.696 339.034 421.62 339.081C421.545 339.128 421.459 339.155 421.37 339.16Z" fill="white"/>
<path d="M278.84 311.2C278.945 313.146 279.508 315.039 280.483 316.727C281.457 318.414 282.817 319.847 284.45 320.91C285.399 321.534 286.549 321.777 287.67 321.59C287.49 321.777 287.285 321.939 287.06 322.07L288.41 321.3L288.48 321.25L288.68 321.12C288.77 321.055 288.854 320.981 288.93 320.9L289.08 320.75C289.08 320.7 289.17 320.65 289.21 320.59C289.396 320.329 289.551 320.047 289.67 319.75L289.77 319.48C289.774 319.433 289.774 319.387 289.77 319.34C289.795 319.261 289.815 319.181 289.83 319.1C289.934 318.641 289.984 318.171 289.98 317.7C289.875 315.757 289.313 313.866 288.34 312.18C287.367 310.495 286.01 309.063 284.38 308C283.627 307.524 282.76 307.258 281.87 307.23H281.52L281.2 307.29L281.01 307.34H280.89C280.81 307.361 280.733 307.391 280.66 307.43L280.45 307.54L279.28 308.21C279.47 308.113 279.671 308.043 279.88 308C279.129 308.89 278.756 310.038 278.84 311.2ZM288.07 321.46H288.17H288.07Z" fill="#EF5050"/>
<path d="M162.43 375.72L170.34 389.46L171.68 388.68L287.06 322.07C287.284 321.939 287.49 321.777 287.67 321.59C288.394 320.707 288.752 319.579 288.67 318.44C288.562 316.495 287.998 314.603 287.023 312.916C286.049 311.229 284.691 309.795 283.06 308.73C282.304 308.261 281.439 307.999 280.55 307.97C280.311 307.966 280.072 307.993 279.84 308.05C279.631 308.093 279.43 308.163 279.24 308.26L279.14 308.31L162.43 375.72Z" fill="#EBEBEB"/>
<path d="M166.4 376.11C163.3 374.32 160.79 375.77 160.79 379.34C160.895 381.286 161.458 383.179 162.433 384.867C163.407 386.554 164.767 387.987 166.4 389.05C169.49 390.84 172 389.39 172 385.81C171.895 383.867 171.333 381.976 170.36 380.29C169.387 378.605 168.03 377.173 166.4 376.11Z" fill="#EF5050"/>
<path d="M154.35 384.44C154.389 384.38 154.436 384.326 154.49 384.28L161.64 376.41L161.7 376.35L161.83 376.21L161.9 376.13C162.9 375.13 164.54 375.07 166.38 376.13C168.01 377.193 169.367 378.625 170.34 380.311C171.313 381.996 171.875 383.887 171.98 385.83C171.98 387.91 171.13 389.26 169.82 389.69H169.74C169.606 389.73 169.469 389.76 169.33 389.78H169.24L158.88 392.04C158.249 392.145 157.602 392.006 157.07 391.65C156.137 391.044 155.36 390.227 154.802 389.264C154.244 388.302 153.921 387.221 153.86 386.11C153.827 385.514 154 384.924 154.35 384.44Z" fill="#E0E0E0"/>
<path d="M246 333.4L246.19 333.29C246.406 333.217 246.637 333.196 246.863 333.229C247.089 333.262 247.304 333.348 247.49 333.48C248.072 333.857 248.556 334.366 248.903 334.965C249.251 335.565 249.452 336.238 249.49 336.93C249.508 337.153 249.475 337.376 249.394 337.584C249.312 337.792 249.184 337.979 249.02 338.13L248.77 338.27L163.6 387.44L158 384.2L246 333.4Z" fill="#455A64"/>
<path d="M171.5 382.86L163.59 387.43L157.99 384.19L168.7 378C169.962 379.407 170.915 381.063 171.5 382.86Z" fill="#37474F"/>
<path d="M151.53 388.17L158 381L158.17 380.81C158.89 380.09 160.05 380.03 161.37 380.81C162.531 381.556 163.499 382.567 164.194 383.76C164.889 384.952 165.292 386.292 165.37 387.67C165.37 389.13 164.78 390.08 163.86 390.39H163.8L163.54 390.45L154 392.55C153.651 392.594 153.298 392.516 153 392.33C152.476 391.986 152.039 391.523 151.727 390.98C151.414 390.436 151.234 389.826 151.2 389.2C151.17 388.827 151.288 388.456 151.53 388.17Z" fill="#EF5050"/>
<path opacity="0.1" d="M151.53 388.17L158 381L158.17 380.81C158.89 380.09 160.05 380.03 161.37 380.81C162.531 381.556 163.499 382.567 164.194 383.76C164.889 384.952 165.292 386.292 165.37 387.67C165.37 389.13 164.78 390.08 163.86 390.39H163.8L163.54 390.45L154 392.55C153.651 392.594 153.298 392.516 153 392.33C152.476 391.986 152.039 391.523 151.727 390.98C151.414 390.436 151.234 389.826 151.2 389.2C151.17 388.827 151.288 388.456 151.53 388.17Z" fill="black"/>
<path d="M151.17 389.2C151.204 389.826 151.384 390.436 151.697 390.98C152.009 391.523 152.446 391.986 152.97 392.33C153.267 392.519 153.622 392.594 153.97 392.54L158.77 391.49C159.53 391.33 160.03 390.62 160.03 389.49C159.977 388.489 159.689 387.514 159.189 386.645C158.688 385.776 157.99 385.038 157.15 384.49C156.822 384.228 156.415 384.085 155.995 384.085C155.575 384.085 155.168 384.228 154.84 384.49L154.71 384.63L151.49 388.17C151.37 388.311 151.28 388.476 151.225 388.652C151.17 388.829 151.151 389.016 151.17 389.2Z" fill="#EF5050"/>
<path opacity="0.1" d="M153 388.16C152 387.59 151.2 388.05 151.2 389.16C151.234 389.786 151.414 390.396 151.727 390.94C152.039 391.483 152.476 391.946 153 392.29C154 392.86 154.8 392.39 154.8 391.24C154.759 390.622 154.575 390.023 154.262 389.488C153.95 388.954 153.518 388.499 153 388.16Z" fill="black"/>
<path d="M267.17 321.15C267.396 321.045 267.646 321.002 267.894 321.027C268.142 321.051 268.379 321.142 268.58 321.29C269.159 321.664 269.642 322.17 269.99 322.766C270.337 323.362 270.54 324.031 270.58 324.72C270.608 324.966 270.569 325.215 270.467 325.44C270.365 325.665 270.203 325.859 270 326L249 338.1C249.164 337.949 249.292 337.762 249.374 337.554C249.455 337.346 249.488 337.123 249.47 336.9C249.432 336.208 249.231 335.535 248.883 334.935C248.536 334.336 248.052 333.827 247.47 333.45C247.284 333.318 247.069 333.232 246.843 333.199C246.617 333.166 246.386 333.187 246.17 333.26L267.17 321.15Z" fill="#FAFAFA"/>
<path d="M266.59 322.43C266.63 323.12 266.832 323.791 267.18 324.388C267.527 324.986 268.01 325.493 268.59 325.87C268.779 326.044 269.019 326.153 269.275 326.181C269.53 326.209 269.788 326.155 270.011 326.027C270.234 325.899 270.41 325.703 270.514 325.468C270.618 325.233 270.645 324.971 270.59 324.72C270.55 324.031 270.347 323.362 270 322.766C269.652 322.17 269.169 321.664 268.59 321.29C268.401 321.118 268.162 321.01 267.908 320.982C267.654 320.953 267.398 321.006 267.176 321.133C266.953 321.259 266.777 321.453 266.672 321.686C266.567 321.919 266.538 322.18 266.59 322.43Z" fill="#F5F5F5"/>
<path d="M271 314H271.07L271.15 313.95L279.42 309.18L279.62 309.07C280.181 308.852 280.787 308.777 281.384 308.852C281.982 308.927 282.551 309.15 283.04 309.5C284.501 310.46 285.715 311.75 286.584 313.267C287.452 314.784 287.951 316.484 288.04 318.23C288.107 318.86 288.004 319.496 287.742 320.073C287.48 320.65 287.068 321.146 286.55 321.51L278.18 326.34H278.13C277.562 326.578 276.942 326.668 276.329 326.599C275.717 326.531 275.132 326.308 274.63 325.95C273.17 324.987 271.957 323.694 271.088 322.176C270.22 320.658 269.72 318.957 269.63 317.21C269.568 316.603 269.662 315.99 269.901 315.428C270.141 314.867 270.519 314.376 271 314Z" fill="#EF5050"/>
<path opacity="0.05" d="M271 314H271.07L271.15 313.95L279.42 309.18L279.62 309.07C280.181 308.852 280.787 308.777 281.384 308.852C281.982 308.927 282.551 309.15 283.04 309.5C284.501 310.46 285.715 311.75 286.584 313.267C287.452 314.784 287.951 316.484 288.04 318.23C288.107 318.86 288.004 319.496 287.742 320.073C287.48 320.65 287.068 321.146 286.55 321.51L278.18 326.34H278.13C277.562 326.578 276.942 326.668 276.329 326.599C275.717 326.531 275.132 326.308 274.63 325.95C273.17 324.987 271.957 323.694 271.088 322.176C270.22 320.658 269.72 318.957 269.63 317.21C269.568 316.603 269.662 315.99 269.901 315.428C270.141 314.867 270.519 314.376 271 314Z" fill="black"/>
<path opacity="0.1" d="M274.69 314.23C271.91 312.62 269.69 313.93 269.69 317.14C269.78 318.887 270.28 320.588 271.148 322.106C272.017 323.624 273.23 324.917 274.69 325.88C277.48 327.49 279.74 326.18 279.74 322.97C279.645 321.219 279.138 319.514 278.261 317.996C277.383 316.477 276.16 315.187 274.69 314.23Z" fill="black"/>
<path d="M148.88 391.18L152.3 389.12C152.405 389.063 152.524 389.038 152.642 389.046C152.761 389.055 152.875 389.098 152.97 389.17C153.242 389.342 153.469 389.577 153.631 389.856C153.793 390.135 153.885 390.448 153.9 390.77C153.909 390.885 153.89 391 153.842 391.105C153.795 391.21 153.722 391.301 153.63 391.37L150.22 393.43C150.023 393.534 149.803 393.589 149.58 393.59C149.233 393.59 148.899 393.452 148.654 393.206C148.408 392.961 148.27 392.627 148.27 392.28C148.27 392.06 148.326 391.844 148.433 391.651C148.54 391.459 148.694 391.297 148.88 391.18Z" fill="#455A64"/>
<path d="M148.68 391.33L148.86 391.18C148.961 391.15 149.068 391.143 149.172 391.16C149.276 391.178 149.374 391.219 149.46 391.28C149.731 391.453 149.955 391.689 150.116 391.967C150.276 392.246 150.366 392.559 150.38 392.88C150.392 392.992 150.374 393.106 150.328 393.209C150.283 393.313 150.211 393.403 150.12 393.47H150.05H149.98C149.847 393.523 149.703 393.547 149.56 393.54C149.213 393.54 148.879 393.402 148.634 393.156C148.388 392.911 148.25 392.577 148.25 392.23C148.271 391.886 148.425 391.563 148.68 391.33Z" fill="#263238"/>
<path d="M82.6701 400.31L79.1801 398.31C78.5991 397.932 78.1153 397.423 77.7678 396.824C77.4203 396.224 77.219 395.552 77.1801 394.86V136.29C77.2182 135.598 77.4192 134.925 77.7668 134.325C78.1143 133.726 78.5986 133.217 79.1801 132.84L239.58 40.2298C240.199 39.913 240.885 39.7478 241.58 39.7478C242.275 39.7478 242.961 39.913 243.58 40.2298L247.07 42.2298C247.651 42.6074 248.135 43.1165 248.482 43.7159C248.83 44.3153 249.031 44.9881 249.07 45.6798V304.25C249.033 304.942 248.832 305.615 248.484 306.215C248.137 306.815 247.652 307.324 247.07 307.7L86.6501 400.31C86.034 400.625 85.352 400.789 84.6601 400.789C83.9681 400.789 83.2861 400.625 82.6701 400.31Z" fill="#EF5050"/>
<path opacity="0.4" d="M249 45.3699C248.87 44.3699 248 43.9599 247 44.5399L86.65 137.15C86.065 137.519 85.5806 138.028 85.24 138.63L77.76 134.32C78.1006 133.718 78.585 133.209 79.17 132.84L239.58 40.2299C240.199 39.9115 240.884 39.7454 241.58 39.7454C242.276 39.7454 242.961 39.9115 243.58 40.2299L247.08 42.2299C247.606 42.5851 248.05 43.0493 248.382 43.5911C248.713 44.1328 248.924 44.7395 249 45.3699Z" fill="white"/>
<path opacity="0.15" d="M86.3001 400.47C86.2605 400.478 86.2197 400.478 86.1801 400.47L85.9801 400.54H85.9001C85.7801 400.54 85.6601 400.6 85.5301 400.63C84.7373 400.78 83.9189 400.714 83.1601 400.44C83.0091 400.383 82.8621 400.316 82.7201 400.24L79.2201 398.24C78.6408 397.861 78.1582 397.351 77.811 396.752C77.4637 396.153 77.2614 395.481 77.2201 394.79V136.29C77.2429 135.585 77.4423 134.897 77.8001 134.29L85.2801 138.6C84.9101 139.203 84.7065 139.893 84.6901 140.6V399.17C84.6684 399.545 84.778 399.916 85.0001 400.22C85.1232 400.375 85.2897 400.49 85.4784 400.551C85.6671 400.611 85.8696 400.615 86.0601 400.56C86.1428 400.538 86.2232 400.508 86.3001 400.47Z" fill="black"/>
<path d="M198.94 87.8398L198.65 87.6599L195.34 85.7598C194.136 85.0887 192.828 84.6256 191.47 84.3898C190.9 84.2598 190.39 84.1098 189.94 83.9598C189.441 83.7964 188.953 83.5993 188.48 83.3699L188.72 83.0598L185 80.8898C184.686 80.7147 184.35 80.5835 184 80.4998C182.59 80.1498 180.48 80.9699 178.38 80.7299C177.616 80.6552 176.877 80.413 176.217 80.0207C175.557 79.6284 174.991 79.0955 174.56 78.4598C173.28 76.7398 172.51 73.7299 171.38 71.2299L172.38 69.7798C172.28 69.7173 172.177 69.6605 172.07 69.6098L168.64 67.6098C168.061 67.269 167.402 67.0895 166.73 67.0898C165.448 67.1575 164.207 67.561 163.13 68.2599C154.92 73.0099 154.64 84.2598 151.68 91.6798C148.72 99.0998 144.53 101.41 142.25 104.6C139.97 107.79 139.81 110.15 134.76 117.11C129.71 124.07 129.51 125.77 129.51 127.11V137.48L133.25 139.64L200.47 100.81L198.94 87.8398ZM137.3 127.84C136.43 128.33 135.71 127.66 135.71 126.31C135.702 125.664 135.84 125.025 136.116 124.441C136.391 123.857 136.796 123.344 137.3 122.94C138.17 122.44 138.88 123.13 138.88 124.48C138.887 125.12 138.749 125.753 138.475 126.332C138.201 126.911 137.799 127.419 137.3 127.82V127.84ZM166.83 98.7299C166.406 99.0389 165.916 99.2452 165.399 99.3322C164.882 99.4193 164.352 99.3848 163.85 99.2316C163.349 99.0783 162.89 98.8104 162.51 98.4491C162.129 98.0878 161.839 97.643 161.66 97.1498C159.05 97.6498 157.11 95.1498 157.11 90.8098C157.11 85.7098 159.8 80.0399 163.11 78.1199C163.534 77.811 164.025 77.6052 164.543 77.5188C165.06 77.4323 165.591 77.4677 166.093 77.622C166.594 77.7762 167.053 78.0452 167.433 78.4076C167.812 78.77 168.103 79.2159 168.28 79.7098C170.89 79.1898 172.82 81.7098 172.82 86.0398C172.82 91.1198 170.15 96.7898 166.83 98.7098V98.7299ZM189.16 97.8898C188.28 98.3998 187.57 97.7199 187.57 96.3699C187.554 95.7231 187.689 95.0815 187.966 94.4964C188.242 93.9112 188.651 93.3988 189.16 92.9998C190.04 92.4898 190.75 93.1698 190.75 94.5198C190.762 95.1632 190.625 95.8005 190.349 96.3818C190.073 96.9631 189.666 97.4725 189.16 97.8699V97.8898Z" fill="#455A64"/>
<path opacity="0.5" d="M137 129.67L129.77 125.5C129.605 126.021 129.524 126.564 129.53 127.11V137.48L133.27 139.64L137 137.48V129.67Z" fill="#37474F"/>
<path opacity="0.5" d="M144.43 116.73L148.17 108.1L142.23 104.62C140.49 107.03 139.98 108.98 137.64 112.81L144.43 116.73Z" fill="#37474F"/>
<path opacity="0.5" d="M159.38 99.48L159.86 96.96C158.21 96.27 157.11 94.04 157.11 90.79C157.11 86.46 159.05 81.73 161.66 79.22L156.48 76.22C154.28 81.22 153.48 87.22 151.66 91.69C151.28 92.69 150.87 93.52 150.46 94.32L159.38 99.48Z" fill="#37474F"/>
<path d="M198.94 87.84L198.65 87.66C197.549 87.1491 196.391 86.773 195.2 86.54C193.245 86.1965 191.425 85.3172 189.94 84C189.564 83.6603 189.156 83.3588 188.72 83.1C188.41 82.9155 188.072 82.7806 187.72 82.7C185.46 82.15 181.34 84.62 178.38 80.78C178.345 80.7443 178.314 80.704 178.29 80.66C176.22 77.88 175.46 71.66 172.36 69.83C172.26 69.7674 172.157 69.7106 172.05 69.66C170.77 69.06 169.11 69.17 166.83 70.47C158.62 75.22 158.34 86.47 155.38 93.89C152.42 101.31 148.24 103.62 145.96 106.81C143.68 110 143.53 112.36 138.47 119.32C133.41 126.28 133.23 127.99 133.23 129.32V139.7L200.45 100.87V90.45C200.501 89.9119 200.383 89.3715 200.112 88.9037C199.841 88.4359 199.432 88.0641 198.94 87.84ZM141 130C140.12 130.51 139.41 129.83 139.41 128.47C139.398 127.825 139.535 127.186 139.811 126.604C140.087 126.021 140.494 125.509 141 125.11C141.88 124.6 142.58 125.29 142.58 126.64C142.593 127.284 142.458 127.922 142.184 128.505C141.91 129.088 141.505 129.599 141 130ZM166.8 98.74C166.376 99.049 165.887 99.2553 165.369 99.3424C164.852 99.4294 164.322 99.395 163.82 99.2417C163.319 99.0884 162.86 98.8205 162.48 98.4592C162.1 98.0979 161.809 97.6531 161.63 97.16C161.043 95.8434 160.763 94.4107 160.81 92.97C160.81 87.88 163.49 82.2 166.81 80.29C167.259 80.0213 167.749 79.8287 168.26 79.72C170.87 79.2 172.8 81.72 172.8 86.05C172.82 91.12 170.15 96.79 166.83 98.71L166.8 98.74ZM192.89 100C192.01 100.51 191.3 99.83 191.3 98.49C191.286 97.8449 191.422 97.2053 191.698 96.622C191.974 96.0387 192.382 95.5279 192.89 95.13C193.76 94.62 194.47 95.3 194.47 96.65C194.483 97.2923 194.347 97.9289 194.072 98.51C193.798 99.0911 193.394 99.601 192.89 100Z" fill="#37474F"/>
<path d="M172.82 85.9999C172.82 91.0999 170.15 96.7699 166.82 98.6899C166.396 98.999 165.907 99.2052 165.389 99.2923C164.872 99.3794 164.342 99.3449 163.84 99.1917C163.339 99.0384 162.88 98.7705 162.5 98.4092C162.119 98.0479 161.829 97.6031 161.65 97.1099C162.16 96.9969 162.649 96.8045 163.1 96.5399C166.41 94.6199 169.1 88.9499 169.1 83.8499C169.144 82.4127 168.863 80.9842 168.28 79.6699C170.89 79.1699 172.82 81.6799 172.82 85.9999Z" fill="#263238"/>
<path d="M141 130C140.12 130.5 139.41 129.82 139.41 128.48C139.398 127.834 139.535 127.193 139.811 126.609C140.087 126.024 140.494 125.511 141 125.11C141.87 124.6 142.58 125.3 142.58 126.64C142.591 127.283 142.454 127.921 142.18 128.503C141.907 129.086 141.503 129.598 141 130Z" fill="#263238"/>
<path d="M192.89 99.9999C192.01 100.5 191.3 99.8299 191.3 98.4799C191.288 97.8337 191.425 97.1934 191.701 96.6089C191.977 96.0244 192.384 95.5114 192.89 95.1099C193.76 94.6099 194.47 95.2999 194.47 96.6499C194.48 97.2919 194.343 97.9277 194.069 98.5085C193.795 99.0892 193.392 99.5994 192.89 99.9999Z" fill="#263238"/>
<path d="M97.0601 161.34L236.64 80.7498C237.011 80.5626 237.42 80.4651 237.835 80.4651C238.25 80.4651 238.66 80.5626 239.03 80.7498L240.38 81.5298C240.727 81.7571 241.016 82.063 241.223 82.4226C241.429 82.7823 241.548 83.1856 241.57 83.5998V296.54C241.55 296.954 241.432 297.358 241.225 297.718C241.018 298.078 240.728 298.384 240.38 298.61L100.8 379.2C100.43 379.387 100.02 379.485 99.6051 379.485C99.19 379.485 98.7806 379.387 98.4101 379.2L97.0601 378.42C96.7106 378.194 96.4197 377.889 96.2111 377.529C96.0025 377.169 95.8822 376.765 95.8601 376.35V163.41C95.8838 162.995 96.0047 162.591 96.2132 162.232C96.4216 161.872 96.7118 161.567 97.0601 161.34Z" fill="#F5F5F5"/>
<path d="M241.53 83.2398C241.38 82.7498 240.92 82.5898 240.38 82.9098L100.8 163.5C100.441 163.713 100.146 164.021 99.9501 164.39L96.2101 162.24C96.4121 161.872 96.7047 161.562 97.0601 161.34L236.64 80.7498C237.011 80.5626 237.42 80.4651 237.835 80.4651C238.25 80.4651 238.66 80.5626 239.03 80.7498L240.38 81.5298C240.676 81.7236 240.931 81.9748 241.128 82.2685C241.326 82.5622 241.462 82.8924 241.53 83.2398Z" fill="#FAFAFA"/>
<path d="M100.51 379.33C100.367 379.382 100.22 379.422 100.07 379.45H99.8401C99.5974 379.475 99.3528 379.475 99.1101 379.45C98.9608 379.421 98.8137 379.38 98.6701 379.33L98.4001 379.2L97.0601 378.43C96.7136 378.202 96.4255 377.896 96.2188 377.537C96.0121 377.177 95.8927 376.774 95.8701 376.36V163.41C95.8772 162.997 95.9946 162.593 96.2101 162.24L99.9501 164.39C99.7373 164.748 99.617 165.154 99.6001 165.57V378.51C99.6001 379.16 100 379.48 100.51 379.33Z" fill="#E0E0E0"/>
<path d="M210.13 110.91L206.41 108.76C205.826 108.474 205.181 108.334 204.531 108.353C203.882 108.372 203.246 108.55 202.68 108.87C198.34 110.78 196.46 111.65 194.22 112.59L192.6 113.24C191.72 113.59 189.97 113.29 190.51 110.24L196.28 94.7099H196.19L192.54 92.5999C192.355 92.4835 192.147 92.4085 191.93 92.3799C191.82 92.3799 191.68 92.3799 191.53 92.3799C189.17 92.3199 188.53 77.0899 188.48 76.6199L188.31 76.5299L184.7 74.4499C184.073 74.094 183.361 73.9144 182.64 73.9299C181.433 73.9855 180.258 74.3284 179.21 74.9299C173.54 77.9299 167.81 86.7399 166.41 94.6699C165.53 99.6699 160.5 107.37 157.59 110.21C154.68 113.05 154.48 115.41 154.48 115.41L152.22 128.23L151.49 132.34C150.96 135.4 147.82 138.34 147.82 138.34L136.11 147C128.78 153.08 126.71 159.23 125.31 166.83V166.89C125.31 167.16 125.31 167.34 125.44 167.41C125.459 167.422 125.482 167.429 125.505 167.429C125.528 167.429 125.551 167.422 125.57 167.41L127.07 166.56L207.63 120.1C207.82 119.971 207.982 119.805 208.107 119.613C208.232 119.421 208.318 119.205 208.36 118.98C208.82 116.21 210.16 110.98 210.16 110.98L210.13 110.91ZM186.84 87.3799C185.97 92.2499 182.46 97.6899 178.97 99.5199C176.56 100.78 174.8 99.9999 174.21 97.7799C173.777 97.9495 173.308 98.0072 172.847 97.9478C172.385 97.8884 171.946 97.7137 171.57 97.4399C170.45 96.5599 180.71 78.9399 181.57 79.3299C181.97 79.5406 182.317 79.8388 182.585 80.2025C182.854 80.5661 183.037 80.9857 183.12 81.4299C186 80.5599 187.61 82.9999 186.84 87.3799Z" fill="#455A64"/>
<path opacity="0.5" d="M137 155.56L131.13 152.17C127.73 156.65 126.36 161.36 125.35 166.83V166.89C125.35 167.16 125.35 167.34 125.48 167.41C125.499 167.422 125.522 167.429 125.545 167.429C125.568 167.429 125.591 167.422 125.61 167.41L130.24 163.75L137 155.56Z" fill="#37474F"/>
<path opacity="0.5" d="M151.1 133.53L159.38 138.3L163.11 116.73L155.65 112.42C155.056 113.273 154.657 114.246 154.48 115.27L152.22 128.09L151.49 132.2C151.408 132.656 151.277 133.102 151.1 133.53Z" fill="#37474F"/>
<path opacity="0.5" d="M170.33 84.23C168.443 87.4136 167.117 90.8975 166.41 94.53C165.816 97.1045 164.831 99.5731 163.49 101.85L170.58 105.95L174.11 97.8C173.689 97.9518 173.238 97.9984 172.795 97.9356C172.353 97.8728 171.932 97.7027 171.57 97.44C170.99 96.98 173.43 92.11 176.04 87.53L170.33 84.23Z" fill="#37474F"/>
<path d="M210.18 110.94H210.13C209.545 110.664 208.902 110.53 208.256 110.551C207.609 110.572 206.976 110.746 206.41 111.06C201.09 113.41 199.48 114.18 196.32 115.43C195.48 115.77 193.77 115.5 194.22 112.62C194.215 112.553 194.215 112.487 194.22 112.42L194.95 108.32L196.95 97.15C196.95 97.15 197.41 95.39 196.25 94.73H196.16C195.869 94.5954 195.551 94.5271 195.23 94.53C194.551 94.4483 193.898 94.2143 193.322 93.8455C192.745 93.4767 192.259 92.9826 191.9 92.4C191.277 91.4717 190.845 90.4283 190.631 89.331C190.416 88.2338 190.423 87.1047 190.65 86.01C191.5 81.22 190.57 77.86 188.45 76.61L188.28 76.51C186.91 75.78 185.07 75.9 182.92 77.03C177.24 80.03 171.51 88.84 170.12 96.77C169.23 101.77 164.2 109.48 161.29 112.31C158.38 115.14 158.19 117.51 158.19 117.51L156 130.26L155.28 134.36C154.74 137.42 151.6 140.36 151.6 140.36L139.9 149.14C135.231 152.857 131.859 157.958 130.27 163.71C130.27 163.71 125.88 167.12 125.61 167.39L127.11 166.54L207.9 120.1C207.9 120.1 208.82 119.59 209.03 119.46C209.24 119.33 212.49 116.26 212.49 116.26C212.31 113.64 211.53 111.75 210.18 110.94ZM186.84 87.38C185.97 92.25 182.46 97.69 178.97 99.52C176.56 100.78 174.8 100 174.21 97.78C173.947 96.5338 173.947 95.2462 174.21 94C175.08 89.12 178.6 83.69 182.09 81.87C182.41 81.6946 182.745 81.5473 183.09 81.43C186 80.56 187.61 83 186.84 87.38Z" fill="#37474F"/>
<path d="M186.84 87.3799C185.97 92.2499 182.46 97.6899 178.97 99.5199C176.56 100.78 174.8 99.9999 174.21 97.7799C174.554 97.6663 174.888 97.5259 175.21 97.3599C178.71 95.5299 182.21 90.0899 183.08 85.2099C183.343 83.9635 183.343 82.6762 183.08 81.4299C186 80.5599 187.61 82.9999 186.84 87.3799Z" fill="#263238"/>
<path d="M183.47 81.6399C183.797 81.6201 184.124 81.6853 184.418 81.8289C184.712 81.9726 184.965 82.19 185.15 82.4599C186.6 84.5199 185.21 89.7599 184.61 91.4599C183.78 93.7899 178.36 99.2699 176.87 99.2699C176.376 99.1885 175.905 99.0072 175.483 98.7373C175.062 98.4674 174.7 98.1144 174.42 97.6999C174.174 96.499 174.174 95.2607 174.42 94.0599C175.27 89.2399 178.75 83.8799 182.18 82.0599C182.486 81.8987 182.803 81.7616 183.13 81.6499H183.46L183.47 81.6399ZM183.46 81.4199H183.09C182.745 81.5372 182.41 81.6844 182.09 81.8599C178.6 83.6799 175.09 89.1099 174.21 93.9899C173.947 95.2361 173.947 96.5236 174.21 97.7699C174.511 98.2202 174.902 98.6036 175.358 98.8961C175.814 99.1886 176.325 99.3839 176.86 99.4699C178.48 99.4699 183.93 93.9399 184.8 91.4699C185.67 88.9999 187.56 81.3599 183.44 81.3599L183.46 81.4199Z" fill="#263238"/>
<path d="M125.57 167.42L207.85 120.12L208.99 119.49C209.19 119.37 212.44 116.28 212.44 116.28L130.22 163.74C130.22 163.74 125.24 167.6 125.57 167.42Z" fill="#263238"/>
<path d="M114.54 200.59V202.46C114.54 203.46 115.26 203.89 116.14 203.38L225 140.52C225.464 140.217 225.851 139.81 226.129 139.33C226.406 138.851 226.568 138.313 226.6 137.76V135.88C226.6 134.88 225.88 134.45 225 134.96L116.14 197.83C115.675 198.132 115.288 198.539 115.01 199.019C114.732 199.498 114.571 200.037 114.54 200.59Z" fill="#E0E0E0"/>
<path d="M114.54 211.9V213.77C114.54 214.77 115.26 215.2 116.14 214.69L225 151.82C225.465 151.518 225.852 151.11 226.13 150.631C226.408 150.151 226.569 149.613 226.6 149.06V147.18C226.6 146.18 225.88 145.76 225 146.26L116.14 209.14C115.675 209.442 115.288 209.849 115.01 210.329C114.732 210.808 114.571 211.346 114.54 211.9Z" fill="#E0E0E0"/>
<path d="M114.54 223.14V225C114.54 226 115.26 226.43 116.14 225.92L225 163.07C225.464 162.767 225.851 162.36 226.129 161.88C226.406 161.401 226.568 160.863 226.6 160.31V158.43C226.6 157.43 225.88 157 225 157.51L116.14 220.38C115.675 220.682 115.288 221.089 115.01 221.569C114.732 222.048 114.571 222.587 114.54 223.14Z" fill="#E0E0E0"/>
<path d="M114.54 248.05V249.92C114.54 250.92 115.26 251.35 116.14 250.84L225 188C225.465 187.698 225.852 187.291 226.13 186.811C226.408 186.332 226.569 185.793 226.6 185.24V183.36C226.6 182.36 225.88 181.94 225 182.44L116.14 245.29C115.675 245.592 115.288 245.999 115.01 246.479C114.732 246.958 114.571 247.497 114.54 248.05Z" fill="#E0E0E0"/>
<path d="M114.54 259.35V261.23C114.54 262.23 115.26 262.65 116.14 262.15L225 199.28C225.465 198.978 225.852 198.571 226.13 198.091C226.408 197.612 226.569 197.073 226.6 196.52V194.64C226.6 193.64 225.88 193.21 225 193.72L116.14 256.59C115.676 256.893 115.289 257.3 115.012 257.78C114.734 258.259 114.572 258.797 114.54 259.35Z" fill="#E0E0E0"/>
<path d="M114.54 270.6V272.47C114.54 273.47 115.26 273.9 116.14 273.39L225 210.52C225.465 210.218 225.852 209.811 226.13 209.331C226.408 208.852 226.569 208.313 226.6 207.76V205.88C226.6 204.88 225.88 204.46 225 204.96L116.14 267.84C115.675 268.142 115.288 268.549 115.01 269.029C114.732 269.508 114.571 270.047 114.54 270.6Z" fill="#E0E0E0"/>
<path d="M114.54 295.5V297.38C114.54 298.38 115.26 298.8 116.14 298.3L225 235.43C225.465 235.128 225.852 234.72 226.13 234.241C226.408 233.761 226.569 233.223 226.6 232.67V230.79C226.6 229.79 225.88 229.36 225 229.87L116.14 292.74C115.676 293.043 115.289 293.45 115.012 293.929C114.734 294.409 114.572 294.947 114.54 295.5Z" fill="#E0E0E0"/>
<path d="M114.54 306.81V308.68C114.54 309.68 115.26 310.11 116.14 309.6L225 246.73C225.464 246.43 225.851 246.025 226.13 245.547C226.408 245.069 226.569 244.532 226.6 243.98V242.1C226.6 241.1 225.88 240.67 225 241.18L116.14 304.05C115.675 304.352 115.288 304.759 115.01 305.239C114.732 305.718 114.571 306.257 114.54 306.81Z" fill="#E0E0E0"/>
<path d="M114.54 318.05V319.93C114.54 320.93 115.26 321.35 116.14 320.85L225 258C225.465 257.698 225.852 257.291 226.13 256.811C226.408 256.332 226.569 255.793 226.6 255.24V253.36C226.6 252.36 225.88 251.93 225 252.44L116.14 315.29C115.676 315.593 115.289 316 115.012 316.479C114.734 316.959 114.572 317.497 114.54 318.05Z" fill="#E0E0E0"/>
<path d="M170.58 319.56L226.63 287.21V288.29L170.58 320.64V319.56Z" fill="#E0E0E0"/>
<path d="M183.62 302.76C185.95 301.2 188.55 298.57 188.13 295.46C187.88 293.57 186.34 292.84 184.6 293.51C181.19 294.82 179.04 299.95 177.85 303.05C176.85 305.76 175.48 310.87 179.55 311.74C184.32 312.74 188.01 305.74 189.09 302.1C189.24 301.59 188.41 301.31 188.17 301.77C187.75 302.6 184.94 308.08 188.03 307.39C189.13 307.15 189.76 305.44 190.16 304.57C190.86 303.01 191.21 300.84 192.31 299.5L191.5 299.13C191.55 300.57 191.5 301.55 192.5 302.67C192.576 302.774 192.69 302.844 192.817 302.864C192.945 302.885 193.075 302.855 193.18 302.78C194.76 301.31 194.87 298.92 196.61 297.59L195.9 297.25C195.9 297.71 195.69 299.02 195.66 299.63C195.66 299.92 196.05 300.11 196.28 300.02C196.506 299.973 196.716 299.87 196.891 299.719C197.066 299.569 197.2 299.376 197.28 299.16L196.52 298.88C197.18 302.41 200.19 298.88 201.22 297.54C204.22 293.54 206.36 289.25 206.44 284.13C206.44 283.72 205.67 283.51 205.66 284C205.59 287.94 203.87 291.55 202.76 295.27C201.57 299.27 200.58 303.36 199.76 307.48L200.47 307.74C200.695 304.824 201.441 301.973 202.67 299.32C203.445 296.957 204.741 294.797 206.46 293L205.8 292.75C205.975 293.778 205.922 294.832 205.645 295.837C205.369 296.843 204.876 297.775 204.2 298.57C203.99 298.84 204.46 299.35 204.67 299.08C205.77 297.7 207.58 297.26 208.76 295.92C209.869 294.414 210.855 292.823 211.71 291.16L211.17 290.89C211.1 294.25 214.27 289.01 214.7 288.45L214.18 288.25C214.39 288.94 214.67 289.4 215.45 289.41C217 289.41 217.58 287.15 218.75 286.89C218.75 286.89 219.26 287.32 219.44 287.34C220.085 287.434 220.743 287.311 221.31 286.99C222.618 286.144 223.674 284.963 224.37 283.57C224.55 283.25 223.94 282.85 223.74 283.2C222.97 284.5 220.57 287.95 218.83 286.26C218.72 286.16 218.49 286.06 218.37 286.2C217.9 286.78 215.21 289.86 214.71 288.2C214.65 288 214.36 287.78 214.2 288C213.79 288.54 213.46 289.14 213.08 289.71C212.87 290.02 211.7 291.99 211.74 290.99C211.74 290.75 211.37 290.47 211.2 290.72C210.11 292.39 209.31 294.58 207.79 295.94C206.66 296.94 205.18 297.32 204.2 298.53L204.67 299.04C205.425 298.188 205.982 297.18 206.298 296.086C206.615 294.993 206.684 293.843 206.5 292.72C206.485 292.651 206.454 292.587 206.408 292.534C206.362 292.481 206.304 292.44 206.238 292.415C206.172 292.39 206.102 292.382 206.032 292.392C205.963 292.401 205.897 292.428 205.84 292.47C203.97 294.19 202.92 296.61 201.99 298.93C200.742 301.639 199.984 304.547 199.75 307.52C199.75 307.83 200.38 308.18 200.46 307.78C201.305 303.334 202.404 298.94 203.75 294.62C204.85 291.14 206.34 287.79 206.41 284.09L205.63 283.96C205.556 287.791 204.349 291.514 202.16 294.66C201.6 295.53 201.01 296.4 200.37 297.22C200.09 297.59 197.61 300.83 197.29 298.95C197.24 298.68 196.71 298.3 196.53 298.67L195.81 299.31L196.43 299.69C196.48 298.88 196.64 298.12 196.68 297.3C196.68 296.99 196.2 296.79 195.97 296.97C194.2 298.32 194.07 300.71 192.48 302.18L193.16 302.29C192.62 301.385 192.356 300.342 192.4 299.29C192.4 298.94 191.86 298.6 191.59 298.92C190.37 300.38 189.99 302.71 189.19 304.41C188.75 305.34 187.19 307.82 187.69 305.18C188.021 304.086 188.495 303.04 189.1 302.07L188.18 301.74C187.24 304.92 184.73 309.74 181.3 310.74C176.92 312.05 177.68 306.62 178.48 304.2C179.432 301.38 180.844 298.738 182.66 296.38C182.993 295.91 183.371 295.475 183.79 295.08C184.68 294.28 184.94 294.08 186.18 294.79C187.42 295.5 187.48 295.89 187.18 297.23C186.997 297.895 186.721 298.531 186.36 299.12C185.568 300.328 184.573 301.39 183.42 302.26C183.26 302.39 183.49 302.82 183.67 302.69L183.62 302.76Z" fill="#455A64"/>
<path d="M318 240.38C314.38 239.52 310.39 242.1 308.06 247.78C305.73 253.46 301.06 267.98 300.06 271.78C299.62 273.48 312.54 288.54 312.06 288.32C311.92 288.25 316.27 280.97 316.27 280.97L310 271.32L314 260.85L318 240.38Z" fill="#B16668"/>
<path d="M309.62 375.18C309.13 375.37 309 376.3 308.93 378.18C308.87 379.59 308.57 382.04 310.22 382.53C311.87 383.02 314.28 382.77 315.34 381.45C316.616 379.672 317.981 377.96 319.43 376.32C321.06 374.56 322.82 372.93 323.48 370.47C324.08 368.25 323.58 367.29 322.07 366.64C319.98 365.76 316.71 368.64 315.07 369.11C313.68 369.49 310.11 375 309.62 375.18Z" fill="#263238"/>
<path d="M309.62 373.46V375.74C310.477 376.288 311.466 376.592 312.483 376.621C313.499 376.649 314.504 376.4 315.39 375.9C315.49 375.68 315.99 372.63 315.99 372.63L309.62 373.46Z" fill="#B16668"/>
<path d="M326.6 387.31C326.205 388.533 325.871 389.774 325.6 391.03C325.31 392.41 324.91 394.72 325.4 395.75C325.89 396.78 327.76 397.46 330.69 397.44C332.58 397.44 335.53 398.71 337.55 399.84C339.58 400.835 341.876 401.154 344.1 400.75C346.7 400.44 349.4 398.93 349.82 397.86C350.24 396.79 349.7 396.26 343.57 393.65C343.51 393.65 337.11 390.73 334.14 387.46L326.6 387.31Z" fill="#263238"/>
<path d="M326.6 384.84C326.6 384.84 326.6 386.53 326.6 387.5C326.6 388.47 327.74 389.91 330.7 389.81C332.78 389.73 334.23 389.17 334.14 387.46V385L326.6 384.84Z" fill="#B16668"/>
<path d="M307.37 341.82C307.86 337.815 308.796 333.877 310.16 330.08C310.16 330.08 308.87 319.98 308.16 310.28C306.83 292.89 307.9 287.21 311.32 279.41C311.32 279.41 340.49 276.41 341.38 288.58C342.49 303.68 341.02 332.86 340.62 338.19C340.22 343.52 339.72 345.93 337.84 357.07C336.4 365.55 334.18 385 334.18 385C333.007 385.595 331.705 385.892 330.39 385.864C329.075 385.836 327.787 385.485 326.64 384.84C326.64 384.84 324.26 360.56 324.51 354.41C324.686 349.859 325.456 345.351 326.8 341C326.8 341 324.99 316.39 324.47 312.47C324.47 312.47 323.55 320.28 323.15 325.61C322.75 330.94 321.15 336.04 319.63 345.95C318.29 354.54 315.8 373.75 315.8 373.75C311.93 375.85 309.62 373.48 309.62 373.48C309.62 373.48 306.33 349.27 307.37 341.82Z" fill="#EF5050"/>
<g opacity="0.35">
<path opacity="0.35" d="M307.37 341.82C307.86 337.815 308.796 333.877 310.16 330.08C310.16 330.08 308.87 319.98 308.16 310.28C306.83 292.89 307.9 287.21 311.32 279.41C311.32 279.41 340.49 276.41 341.38 288.58C342.49 303.68 341.02 332.86 340.62 338.19C340.22 343.52 339.72 345.93 337.84 357.07C336.4 365.55 334.18 385 334.18 385C333.007 385.595 331.705 385.892 330.39 385.864C329.075 385.836 327.787 385.485 326.64 384.84C326.64 384.84 324.26 360.56 324.51 354.41C324.686 349.859 325.456 345.351 326.8 341C326.8 341 324.99 316.39 324.47 312.47C324.47 312.47 323.55 320.28 323.15 325.61C322.75 330.94 321.15 336.04 319.63 345.95C318.29 354.54 315.8 373.75 315.8 373.75C311.93 375.85 309.62 373.48 309.62 373.48C309.62 373.48 306.33 349.27 307.37 341.82Z" fill="black"/>
</g>
<path d="M332.91 236.45L331.54 247.72L321.63 246.83L322.76 234.32L332.91 236.45Z" fill="#B16668"/>
<path d="M310.75 246C311.84 243 315.55 239.73 319.36 240.44L322.16 240.95C322.24 243.55 327.16 244.89 332.02 243.32C333.48 243.74 334.83 244.17 336.02 244.6C339.51 245.85 340.91 251.6 341.02 261.34C341.13 271.08 342.13 295.21 342.13 295.21L338 296.52L336.1 289.45L335.33 297.92C330.693 299.002 325.866 298.978 321.24 297.85C310.76 295.56 307.5 289.91 307.5 289.91C308.782 283.37 311.33 277.143 315 271.58C309.76 257.61 309.14 250.43 310.75 246Z" fill="#EBEBEB"/>
<path d="M340.28 222.13C340.873 220.784 341.115 219.309 340.984 217.843C340.853 216.378 340.353 214.97 339.53 213.75C336.2 208.53 329.79 207.64 322.19 209.68C319.537 210.492 317.2 212.104 315.498 214.295C313.796 216.486 312.812 219.149 312.68 221.92C312.31 227.49 327.86 231.6 327.5 235.42L340.28 222.13Z" fill="#263238"/>
<path d="M340.61 224.25C340.61 224.25 342.72 227.63 342.42 227.98C341.897 228.304 341.322 228.534 340.72 228.66L340.61 224.25Z" fill="#9A4A4D"/>
<path d="M334.18 213.54C336.28 214.7 339.92 216.84 340.66 224.74C341.42 232.84 339.54 235.6 338.41 236.63C337.65 237.33 333.8 237.48 331.82 236.81C329.34 235.96 323.98 233.14 321.55 228.9C318.69 223.9 318.25 217.35 321.77 214.9C323.554 213.641 325.629 212.855 327.799 212.617C329.97 212.379 332.166 212.697 334.18 213.54Z" fill="#B16668"/>
<path d="M334.8 213.89C334.8 213.89 336.46 221.31 334.1 225.89C334.1 225.89 332.88 222.98 330.38 223.74C327.88 224.5 328.01 227.83 329.92 229.58C330.408 230.08 331.027 230.432 331.707 230.595C332.387 230.758 333.098 230.725 333.76 230.5C332.918 232.6 331.655 234.506 330.05 236.1C330.05 236.1 322.66 239.39 316.27 232.17C310.46 225.62 311.54 214.17 320.43 211.5C329.32 208.83 334.8 213.89 334.8 213.89Z" fill="#263238"/>
<path d="M313.73 214.66C314.08 214.96 314.296 215.386 314.331 215.846C314.367 216.305 314.219 216.76 313.92 217.11L311.28 214.84C311.429 214.666 311.61 214.524 311.814 214.421C312.018 214.318 312.24 214.256 312.468 214.24C312.695 214.223 312.924 214.251 313.141 214.323C313.357 214.396 313.558 214.51 313.73 214.66Z" fill="#263238"/>
<path d="M361.13 262.49C362.57 260.85 363.13 257.19 365.03 254.69C366.93 252.19 367.65 250.36 368.41 251.45C369.41 252.9 367.15 255.79 367.65 256.08C368.15 256.37 370.03 260.18 370.22 262.3C370.41 264.42 364.8 269.74 364.8 269.74L361.13 262.49Z" fill="#B16668"/>
<path d="M367.49 255.75C367.49 255.75 374.27 255.17 375.26 255.75C376.25 256.33 375.95 259.27 375.26 261.07C374.57 262.87 371.11 264.07 367.9 266.21C367.9 265.89 367.49 255.75 367.49 255.75Z" fill="#B16668"/>
<path d="M335.18 244.33C338.09 245.33 340.64 246.52 343.36 251.63C346.85 258.2 353.21 271.06 353.21 271.06L361.13 262.49C361.13 262.49 362.28 260.87 364.42 264.41C366.56 267.95 365.62 268.93 365.62 268.93C365.62 268.93 356.41 281.27 354.72 282.84C353.03 284.41 350.25 283.19 348.43 280.72C346.61 278.25 335.18 263.94 335.18 263.94C335.18 263.94 328.93 255.72 335.18 244.33Z" fill="#B16668"/>
<path opacity="0.2" d="M324.47 312.45L323.91 306.56C320.736 306.088 317.701 304.938 315.01 303.19C315.01 303.19 316.91 306.19 322.11 307.61L322.65 315.11L322.97 327.41L324.47 312.45Z" fill="black"/>
<path d="M303.7 242.77C305.05 242.774 306.388 242.511 307.637 241.998C308.886 241.484 310.021 240.729 310.978 239.776C311.935 238.823 312.694 237.691 313.213 236.444C313.731 235.197 313.999 233.86 314 232.51V216.92C312.823 216.538 311.573 216.44 310.351 216.634C309.129 216.828 307.97 217.308 306.97 218.036C305.969 218.764 305.155 219.718 304.593 220.82C304.032 221.923 303.74 223.143 303.74 224.38L303.7 242.77Z" fill="#263238"/>
<path d="M341.24 271.55C341.24 271.55 335.55 264.21 333.73 261.26L341.44 277.54L341.24 271.55Z" fill="#E0E0E0"/>
<path d="M391.13 211.27C388.97 217.64 384.36 236.64 384.36 236.64C384.36 236.64 375.57 248.33 373.15 250.56C371.81 251.8 368.78 254.03 368.78 254.03L371.3 255.89C371.3 255.89 375.5 254.61 375.85 256.89C380.229 253.367 384.372 249.558 388.25 245.49C389.229 244.468 389.919 243.205 390.25 241.83L394 225.7C394 225.7 394 212.7 396 211C398 209.3 397.21 205.45 397.21 205.45C395.84 205.49 392.83 206.28 391.13 211.27Z" fill="#B16668"/>
<path d="M397.28 204.81C397.893 206.53 398.635 208.202 399.5 209.81C400.38 211.32 393.65 238.47 393.2 240.49C392.75 242.51 379.7 254.28 379.7 254.28C377.342 253.282 375.469 251.401 374.48 249.04L383.9 236.78C383.9 236.78 386.83 223.92 388.37 218.02C389.91 212.12 391.55 205.45 397.28 204.81Z" fill="#EF5050"/>
<path opacity="0.1" d="M397.28 204.81C397.893 206.53 398.635 208.202 399.5 209.81C400.38 211.32 393.65 238.47 393.2 240.49C392.75 242.51 379.7 254.28 379.7 254.28C377.342 253.282 375.469 251.401 374.48 249.04L383.9 236.78C383.9 236.78 386.83 223.92 388.37 218.02C389.91 212.12 391.55 205.45 397.28 204.81Z" fill="black"/>
<path d="M424.84 332.4H418.34V343.54H424.84V332.4Z" fill="#B16668"/>
<path d="M398.24 335.1L391.74 335.33L391.42 323.54L398.24 323.32V335.1Z" fill="#B16668"/>
<path d="M423.93 252.91C423.93 259.12 424.36 295.24 424.36 295.24C424.51 297.02 426.23 300.24 426.36 306.64C426.55 315.98 425.11 337.97 425.11 337.97C423.987 338.521 422.756 338.819 421.506 338.843C420.255 338.868 419.014 338.617 417.87 338.11C417.87 338.11 412.76 307.01 411.6 297.76C410.6 289.7 407.07 268.17 407.07 268.17L402.07 295.43C402.824 298.822 403.097 302.302 402.88 305.77C402.57 310.04 398.61 331.45 398.61 331.45C397.477 332.091 396.217 332.476 394.92 332.576C393.622 332.676 392.318 332.49 391.1 332.03C391.1 332.03 390.71 298.42 390.64 294.5C390.55 290.03 392.5 251.56 392.5 251.56L423.93 252.91Z" fill="#37474F"/>
<path d="M418.34 340.33V339.4C417.99 339.4 417.78 339.74 417.64 340.57C417.548 341.19 417.421 341.804 417.26 342.41C416.973 343.549 416.596 344.662 416.13 345.74C415.21 348.01 414.44 348.85 412.33 351.5C411.616 352.234 410.948 353.012 410.33 353.83C409.94 354.53 409.8 356.47 410.47 356.92C412.92 358.56 416.65 358.6 419.29 357.83C420.273 357.554 421.156 357.003 421.834 356.241C422.513 355.478 422.959 354.538 423.12 353.53C423.22 352.93 423.18 352.31 423.25 351.71C423.482 350.338 424.042 349.041 424.88 347.93C425.367 347.288 425.786 346.598 426.13 345.87C426.67 344.54 426.24 343.03 425.89 341.7C425.59 340.55 425.26 339.29 424.89 339.4V340.1C423.964 340.833 422.811 341.222 421.63 341.2C420.64 341.24 418.33 341.05 418.34 340.33Z" fill="#263238"/>
<path d="M391.67 333.32C391.33 333.32 391.06 333.81 390.31 334.62C389.197 335.74 387.906 336.67 386.49 337.37C384.05 338.59 379.32 340.46 377.17 341.43C375.83 342.03 375.9 343.65 377.28 344.57C378.66 345.49 382.01 346.15 386.02 345.26C388.2 344.77 391.02 342.75 392.85 342.86C394.68 342.97 398.02 342.94 399.35 342.02C400.68 341.1 400.15 339.15 399.77 337.47C399.36 335.64 398.85 332.77 398.24 332.9V333.53C397.46 334.72 393.42 335.2 391.71 334.33L391.67 333.32Z" fill="#263238"/>
<path d="M407.08 268.17C403.712 267.13 400.613 265.365 398 263C398 263 399.75 266.28 405 269.32L402.48 293.57L407.08 268.17Z" fill="#263238"/>
<path d="M412.65 205.25C414.87 205.79 419.33 206.52 420.33 210.93C421.53 216.22 421.92 227.75 421.92 227.75L422.33 253.41C417.85 256.67 401.4 258.41 391.97 251.56C391.97 251.56 393.13 220.76 393.13 215.96C393.13 211.16 395.79 205.4 403.13 204.96L412.65 205.25Z" fill="#F5F5F5"/>
<path d="M403.25 204.48C401.227 206.174 399.764 208.44 399.05 210.98C398.15 214.86 398.05 258.19 398.05 258.19C398.05 258.19 393.45 257.34 391.3 255.65C391.3 255.65 391.57 221.45 392.01 215.79C392.68 207.22 392.61 204.79 403.28 203.84L403.25 204.48Z" fill="#EF5050"/>
<path d="M414.59 203.84C414.59 203.84 408.46 207.61 408.39 222.62C408.33 235.62 407.9 258.19 407.9 258.19C407.9 258.19 418.05 259.68 424.48 255.84C424.48 255.84 425.25 224.38 425.12 219.51C424.98 213.93 423.68 206.72 421.89 206C419.514 205.1 417.074 204.378 414.59 203.84Z" fill="#EF5050"/>
<path d="M437.39 238.3C431.29 213.36 426.78 205.04 419.39 205.14C417.22 207.72 417.82 215.54 421.24 220.28C421.24 220.28 428.87 236.36 430.08 242.08C431.15 247.08 432.36 253.43 432.29 257.75C432.265 258.514 431.963 259.242 431.44 259.8C430.05 261.31 430.04 262.53 429.14 264.2C428.43 265.5 427.66 265.99 427.88 266.29C428.171 266.6 428.568 266.789 428.992 266.82C429.416 266.852 429.836 266.723 430.17 266.46C430.821 265.986 431.403 265.424 431.9 264.79C431.661 266.39 431.2 267.948 430.53 269.42C428.96 272.95 429.34 274.75 434.11 273.49C437.11 272.7 438.97 270.22 439.41 263.04C439.63 260.399 439.657 257.745 439.49 255.1C438.84 248.3 438.38 242.32 437.39 238.3Z" fill="#B16668"/>
<path d="M418.1 204.73C418.1 204.73 423.01 204.51 425.67 207.2C428.33 209.89 431.92 215.55 435.4 227.92C438.88 240.29 439.95 249.33 440.12 256.29C440.12 256.29 435.76 258.29 431.74 256.01C431.74 256.01 429.96 245.24 428.38 239.51C426.8 233.78 420.91 221.71 420.91 221.71C420.91 221.71 415.28 213.34 418.1 204.73Z" fill="#EF5050"/>
<path opacity="0.1" d="M418.1 204.73C418.1 204.73 423.01 204.51 425.67 207.2C428.33 209.89 431.92 215.55 435.4 227.92C438.88 240.29 439.95 249.33 440.12 256.29C440.12 256.29 435.76 258.29 431.74 256.01C431.74 256.01 429.96 245.24 428.38 239.51C426.8 233.78 420.91 221.71 420.91 221.71C420.91 221.71 415.28 213.34 418.1 204.73Z" fill="black"/>
<path opacity="0.1" d="M415.28 212.05L412.47 215.52L413.88 219.48L410.19 228.94L414.63 219.48L413.08 215.74L415.28 212.05Z" fill="black"/>
<path opacity="0.1" d="M395.48 210.93L396.09 214.52L393.66 217.69L397.04 228.33L394.42 217.81L396.66 214.85L395.48 210.93Z" fill="black"/>
<path d="M410.961 185.318C411.752 180.445 408.442 175.853 403.568 175.061C398.695 174.27 394.103 177.58 393.312 182.454C392.52 187.327 395.83 191.919 400.704 192.71C405.577 193.502 410.169 190.192 410.961 185.318Z" fill="#263238"/>
<path d="M417.58 190.23C417.58 190.23 416.13 197.04 415.58 198.16C415.191 198.846 414.554 199.358 413.8 199.59L413.9 194.8L417.58 190.23Z" fill="#263238"/>
<path d="M415.094 179.025C415.68 178.957 416.274 179.029 416.829 179.235C417.384 179.441 417.885 179.776 418.295 180.213C419.666 181.662 418.906 186.153 417.144 190.632L414 191L415.094 179.025Z" fill="#263238"/>
<path d="M414 190.55C414.55 190.87 415.33 189.82 416 189.12C416.264 188.81 416.603 188.573 416.985 188.432C417.366 188.291 417.778 188.251 418.18 188.315C418.582 188.379 418.961 188.546 419.279 188.799C419.598 189.052 419.846 189.383 420 189.76C421.12 192.12 419 195.24 417.3 195.76C414.3 196.7 413.86 194.76 413.86 194.76L413.64 205.87C411.57 208.52 406.93 211.64 404.43 211.19C402.43 210.84 402 207.47 403.91 205.26V202C402.588 202.21 401.247 202.277 399.91 202.2C397.71 201.86 396.33 200.13 395.66 197.75C394.59 193.93 394.18 190.85 395.09 183.33C396.09 175.09 405.67 175.01 410.84 178.26C416.01 181.51 414 190.55 414 190.55Z" fill="#B16668"/>
<path d="M414 191.47C414.28 191.47 415.33 189.74 416 189.12C416.94 188.26 415.72 180.48 415.72 180.48C416.047 179.796 416.159 179.029 416.043 178.28C415.927 177.53 415.588 176.833 415.07 176.28C413.78 174.86 405 174 398 177C393.82 177.49 397 180 396 178.5C395.66 179.7 394.112 183.316 394.5 184.5C394.888 185.685 394.856 179.705 395.84 180.47C397.347 181.218 398.99 181.653 400.67 181.75C403.902 181.994 407.15 181.934 410.37 181.57C411.37 181.43 411.6 182.41 412.15 185.1C412.71 187.45 413.11 191.45 414 191.47Z" fill="#263238"/>
<path d="M403.93 202C406.19 201.569 408.406 200.933 410.55 200.1C411.559 199.574 412.385 198.754 412.92 197.75C412.662 198.755 412.203 199.698 411.57 200.52C410.32 202.12 403.93 203.3 403.93 203.3V202Z" fill="#9A4A4D"/>
<path d="M405.11 189.32C405.11 189.585 405.215 189.84 405.403 190.027C405.591 190.215 405.845 190.32 406.11 190.32C406.375 190.32 406.63 190.215 406.817 190.027C407.005 189.84 407.11 189.585 407.11 189.32C407.11 189.055 407.005 188.8 406.817 188.613C406.63 188.425 406.375 188.32 406.11 188.32C405.845 188.32 405.591 188.425 405.403 188.613C405.215 188.8 405.11 189.055 405.11 189.32Z" fill="#263238"/>
<path d="M406.15 185.61L408.25 186.77C408.399 186.481 408.432 186.145 408.341 185.832C408.249 185.52 408.042 185.254 407.76 185.09C407.621 185.015 407.468 184.969 407.311 184.954C407.153 184.94 406.994 184.957 406.844 185.006C406.693 185.054 406.554 185.133 406.435 185.237C406.316 185.341 406.219 185.468 406.15 185.61Z" fill="#263238"/>
<path d="M404.37 196.11L402.13 196.95C402.177 197.101 402.255 197.242 402.358 197.362C402.461 197.483 402.587 197.581 402.729 197.651C402.871 197.721 403.026 197.762 403.185 197.77C403.343 197.779 403.501 197.755 403.65 197.7C403.952 197.579 404.196 197.346 404.33 197.05C404.464 196.754 404.479 196.417 404.37 196.11Z" fill="#9A4A4D"/>
<path d="M396.34 186.43L398.26 184.95C398.17 184.82 398.054 184.711 397.92 184.627C397.786 184.543 397.637 184.488 397.481 184.463C397.325 184.439 397.165 184.447 397.012 184.486C396.859 184.525 396.716 184.594 396.59 184.69C396.334 184.893 396.166 185.187 396.119 185.51C396.073 185.834 396.152 186.163 396.34 186.43Z" fill="#263238"/>
<path d="M396.93 189C396.93 189.265 397.035 189.52 397.223 189.707C397.41 189.895 397.665 190 397.93 190C398.195 190 398.45 189.895 398.637 189.707C398.825 189.52 398.93 189.265 398.93 189C398.93 188.735 398.825 188.48 398.637 188.293C398.45 188.105 398.195 188 397.93 188C397.665 188 397.41 188.105 397.223 188.293C397.035 188.48 396.93 188.735 396.93 189Z" fill="#263238"/>
<path d="M401.94 188.11L401.62 194.02L398.53 192.97L401.94 188.11Z" fill="#9A4A4D"/>
<path d="M400.87 210.55C401.47 211.99 402.59 212.55 404.6 212.8C405.617 212.863 406.636 212.718 407.596 212.374C408.555 212.03 409.434 211.495 410.18 210.8L407.68 208.31L404.49 210.7L404.22 208.03L400.87 210.55Z" fill="#EF5050"/>
<path opacity="0.1" d="M400.87 210.55C401.47 211.99 402.59 212.55 404.6 212.8C405.617 212.863 406.636 212.718 407.596 212.374C408.555 212.03 409.434 211.495 410.18 210.8L407.68 208.31L404.49 210.7L404.22 208.03L400.87 210.55Z" fill="black"/>
<path d="M402.45 209.77C402.155 210.634 402.043 211.55 402.12 212.46C402.216 213.27 402.526 214.04 403.02 214.69C403.337 214.894 403.697 215.022 404.072 215.064C404.447 215.105 404.826 215.06 405.18 214.93C405.827 214.374 406.347 213.685 406.704 212.911C407.062 212.136 407.248 211.293 407.25 210.44L404.49 210.75L402.45 209.77Z" fill="#EF5050"/>
<path d="M403 214.69C403 214.69 399.73 232.69 399.6 234.17C399.47 235.65 401.47 240.79 402.72 240.83C403.97 240.87 406.41 236.2 406.44 234.83C406.47 233.46 405.16 214.88 405.16 214.88L403 214.69Z" fill="#EF5050"/>
<path opacity="0.1" d="M405.18 214.93C404.831 215.084 404.447 215.144 404.068 215.101C403.688 215.059 403.327 214.917 403.02 214.69V214.98C403.332 215.229 403.699 215.399 404.091 215.476C404.483 215.552 404.887 215.533 405.27 215.42L405.18 214.93Z" fill="black"/>
<path d="M404.49 210.75L413.69 203.75V201.67C413.69 201.67 415.83 202.48 416.31 206.25C414.834 209.519 412.311 212.204 409.14 213.88L407.21 210.44L404.49 210.75Z" fill="#E0E0E0"/>
<path d="M403.93 202.62C402.728 202.81 401.649 203.468 400.93 204.45C400.01 205.96 400.22 211.77 400.22 211.77L402.42 209.77L404.42 210.77C404.23 208.84 403.85 205.32 403.85 205.32L403.93 202.62Z" fill="#E0E0E0"/>
<path d="M368 266.27C368.859 265.063 369.362 263.639 369.45 262.16C369.71 260.27 374.89 258.24 375.06 259.65C375.23 261.06 375.7 262.23 374.06 263.94C372.42 265.65 370.41 267.54 368 266.27Z" fill="#B16668"/>
<path d="M368.27 254.06C367.03 255.66 366.27 258.77 365.61 259.82C364.95 260.87 364.17 261.82 365.61 261.97C367.05 262.12 369.14 259.36 369.92 257.66C370.222 256.988 370.682 256.398 371.26 255.94C371.487 255.758 371.74 255.609 372.01 255.5C371.34 255.27 371.69 252.57 371.22 252.2C371.22 252.2 368.78 253.2 368.27 254.06Z" fill="#B16668"/>
</svg>
