<svg width="500" height="500" viewBox="0 0 500 500" fill="none" xmlns="http://www.w3.org/2000/svg">
<path d="M250 492.86C385.299 492.86 494.98 429.535 494.98 351.42C494.98 273.305 385.299 209.98 250 209.98C114.701 209.98 5.02002 273.305 5.02002 351.42C5.02002 429.535 114.701 492.86 250 492.86Z" fill="#FAFAFA"/>
<path d="M378.82 397.55L453.28 354.55C457.96 351.85 457.96 347.47 453.28 344.77L406.64 317.84C401.96 315.14 394.29 314.99 389.52 317.52L311.42 358.85C306.64 361.38 306.57 365.62 311.25 368.32L361.87 397.55C366.55 400.25 374.14 400.25 378.82 397.55Z" fill="#E6E6E6"/>
<path d="M126.27 397.55L51.8 354.55C47.12 351.85 47.12 347.47 51.8 344.77L98.45 317.84C103.13 315.14 110.8 314.99 115.57 317.52L193.67 358.85C198.44 361.38 198.52 365.62 193.84 368.32L143.22 397.55C138.54 400.25 131 400.25 126.27 397.55Z" fill="#E6E6E6"/>
<path d="M252.83 475.69C312.068 475.69 360.09 447.963 360.09 413.76C360.09 379.557 312.068 351.83 252.83 351.83C193.592 351.83 145.57 379.557 145.57 413.76C145.57 447.963 193.592 475.69 252.83 475.69Z" fill="#E6E6E6"/>
<path d="M385.9 447.22L356.29 430.16C354.85 429.32 354.85 427.97 356.29 427.16L439.36 379.16C440.171 378.75 441.067 378.537 441.975 378.537C442.883 378.537 443.779 378.75 444.59 379.16L474.19 396.22C475.64 397.06 475.64 398.41 474.19 399.22L391.13 447.22C390.319 447.63 389.423 447.843 388.515 447.843C387.607 447.843 386.711 447.63 385.9 447.22Z" fill="#E6E6E6"/>
<path d="M63.5902 339.65C63.5902 339.65 65.3102 321.65 60.7102 307.21C56.1102 292.77 47.3202 282.21 37.4202 278.69C27.5202 275.17 16.8602 282.31 26.0002 291.6C35.1402 300.89 52.2602 318.76 54.7102 345L63.5902 339.65Z" fill="#EF5050"/>
<path opacity="0.65" d="M63.5902 339.65C63.5902 339.65 65.3102 321.65 60.7102 307.21C56.1102 292.77 47.3202 282.21 37.4202 278.69C27.5202 275.17 16.8602 282.31 26.0002 291.6C35.1402 300.89 52.2602 318.76 54.7102 345L63.5902 339.65Z" fill="white"/>
<path d="M58.1 335.53H58.22C58.3658 335.506 58.497 335.427 58.5877 335.311C58.6784 335.194 58.7221 335.047 58.71 334.9C57.42 304.67 40.57 286.9 31.89 282.26C31.7571 282.193 31.6031 282.18 31.4611 282.225C31.3191 282.27 31.2002 282.369 31.13 282.5C31.0625 282.63 31.0487 282.782 31.0917 282.922C31.1348 283.062 31.2311 283.18 31.36 283.25C39.87 287.76 56 305.48 57.6 335C57.6021 335.135 57.6546 335.264 57.7472 335.362C57.8397 335.46 57.9656 335.52 58.1 335.53Z" fill="white"/>
<path d="M8.91008 309.25C9.17008 311 10.6501 312.3 12.0601 313.38C13.4701 314.46 15.0101 315.63 15.4601 317.38C16.3501 320.86 12.3401 324.27 13.3901 327.7C13.6617 328.403 14.0729 329.044 14.5988 329.583C15.1247 330.123 15.7544 330.551 16.4501 330.84C17.5701 331.39 18.7801 331.72 19.9501 332.16C20.5255 332.311 21.1101 332.425 21.7001 332.5C23.4661 332.594 25.1526 333.265 26.5001 334.41C28.5001 336.41 28.4001 339.61 29.2001 342.33C30.1501 345.58 31.6401 348.48 34.6001 350.08C37.3592 351.474 40.4839 351.974 43.5401 351.51L54.7101 345C58.4401 343.87 58.6001 340.35 58.7101 336.5C58.6696 332.796 57.2671 329.236 54.7701 326.5C53.2096 324.892 51.4038 323.542 49.4201 322.5C48.3123 322.049 47.3134 321.368 46.4901 320.5C45.9727 319.583 45.6877 318.553 45.6601 317.5C45.5925 316.282 45.4084 315.073 45.1101 313.89C44.687 312.692 44.0943 311.56 43.3501 310.53C42.5852 309.366 41.4722 308.474 40.1701 307.98C38.2457 307.216 36.2279 306.711 34.1701 306.48C31.5501 306.2 28.7001 306.93 26.1701 306.09C23.6401 305.25 21.4201 303.91 18.8001 303.38C17.4268 303.031 15.9919 303.001 14.6051 303.292C13.2184 303.583 11.9168 304.188 10.8001 305.06C10.1729 305.556 9.67393 306.196 9.34506 306.925C9.01619 307.654 8.86703 308.452 8.91008 309.25Z" fill="#EF5050"/>
<path opacity="0.25" d="M8.91008 309.25C9.17008 311 10.6501 312.3 12.0601 313.38C13.4701 314.46 15.0101 315.63 15.4601 317.38C16.3501 320.86 12.3401 324.27 13.3901 327.7C13.6617 328.403 14.0729 329.044 14.5988 329.583C15.1247 330.123 15.7544 330.551 16.4501 330.84C17.5701 331.39 18.7801 331.72 19.9501 332.16C20.5255 332.311 21.1101 332.425 21.7001 332.5C23.4661 332.594 25.1526 333.265 26.5001 334.41C28.5001 336.41 28.4001 339.61 29.2001 342.33C30.1501 345.58 31.6401 348.48 34.6001 350.08C37.3592 351.474 40.4839 351.974 43.5401 351.51L54.7101 345C58.4401 343.87 58.6001 340.35 58.7101 336.5C58.6696 332.796 57.2671 329.236 54.7701 326.5C53.2096 324.892 51.4038 323.542 49.4201 322.5C48.3123 322.049 47.3134 321.368 46.4901 320.5C45.9727 319.583 45.6877 318.553 45.6601 317.5C45.5925 316.282 45.4084 315.073 45.1101 313.89C44.687 312.692 44.0943 311.56 43.3501 310.53C42.5852 309.366 41.4722 308.474 40.1701 307.98C38.2457 307.216 36.2279 306.711 34.1701 306.48C31.5501 306.2 28.7001 306.93 26.1701 306.09C23.6401 305.25 21.4201 303.91 18.8001 303.38C17.4268 303.031 15.9919 303.001 14.6051 303.292C13.2184 303.583 11.9168 304.188 10.8001 305.06C10.1729 305.556 9.67393 306.196 9.34506 306.925C9.01619 307.654 8.86703 308.452 8.91008 309.25Z" fill="white"/>
<path d="M41.0601 325.46C40.998 325.355 40.9278 325.254 40.8501 325.16C33.4901 314.25 21.3501 309.28 17.3701 308.47C17.3182 308.46 17.2648 308.46 17.213 308.471C17.1612 308.481 17.1121 308.502 17.0684 308.532C17.0247 308.562 16.9873 308.6 16.9584 308.644C16.9295 308.688 16.9097 308.738 16.9001 308.79C16.8794 308.893 16.9004 309.001 16.9584 309.089C17.0165 309.177 17.1069 309.238 17.2101 309.26C20.9901 310.02 32.2701 314.6 39.5101 324.61C36.7033 323.507 33.6996 322.993 30.6857 323.1C27.6718 323.206 24.712 323.931 21.9901 325.23C21.945 325.256 21.9055 325.29 21.874 325.332C21.8425 325.373 21.8195 325.42 21.8065 325.471C21.7934 325.521 21.7906 325.573 21.7981 325.625C21.8056 325.676 21.8233 325.726 21.8501 325.77C21.8798 325.828 21.924 325.876 21.9784 325.911C22.0328 325.947 22.0955 325.967 22.1601 325.97C22.2404 325.983 22.3226 325.965 22.3901 325.92C25.193 324.6 28.2498 323.906 31.348 323.887C34.4462 323.868 37.5113 324.524 40.3301 325.81C44.1169 331.515 46.0643 338.244 45.9101 345.09C45.9073 345.19 45.9431 345.288 46.0101 345.362C46.0771 345.437 46.1702 345.482 46.2701 345.49C46.3772 345.49 46.4799 345.448 46.5566 345.374C46.6332 345.299 46.6775 345.197 46.6801 345.09C46.8468 338.127 44.8863 331.28 41.0601 325.46Z" fill="white"/>
<path d="M439.92 343C439.92 343 437.55 317.2 451.29 292.16C458.97 278.16 470.67 272.38 477.45 272.31C485.05 272.23 491.97 279.06 484.23 288.06C476.87 296.61 464.23 299.26 454.37 322.37C451.292 329.403 449.105 336.794 447.86 344.37C447.62 345.96 445.51 346.72 444.04 345.75L439.92 343Z" fill="#EF5050"/>
<path opacity="0.5" d="M439.92 343C439.92 343 437.55 317.2 451.29 292.16C458.97 278.16 470.67 272.38 477.45 272.31C485.05 272.23 491.97 279.06 484.23 288.06C476.87 296.61 464.23 299.26 454.37 322.37C451.292 329.403 449.105 336.794 447.86 344.37C447.62 345.96 445.51 346.72 444.04 345.75L439.92 343Z" fill="white"/>
<path d="M445.19 337.82C445.249 337.825 445.308 337.819 445.364 337.801C445.42 337.784 445.472 337.755 445.517 337.716C445.561 337.678 445.598 337.631 445.624 337.579C445.651 337.526 445.666 337.469 445.67 337.41C445.67 308.13 464.47 285.24 477.82 278.34C477.871 278.317 477.916 278.284 477.952 278.242C477.989 278.2 478.015 278.151 478.031 278.097C478.046 278.044 478.049 277.988 478.04 277.933C478.032 277.878 478.011 277.826 477.98 277.78C477.906 277.683 477.801 277.614 477.682 277.587C477.563 277.56 477.439 277.575 477.33 277.63C463.79 284.63 444.72 307.81 444.72 337.41C444.724 337.468 444.739 337.524 444.765 337.576C444.79 337.628 444.826 337.675 444.87 337.713C444.913 337.751 444.964 337.78 445.019 337.798C445.074 337.817 445.132 337.824 445.19 337.82Z" fill="white"/>
<path d="M444.73 346.15C445.028 346.353 445.365 346.491 445.72 346.554C446.075 346.617 446.44 346.605 446.789 346.517C447.139 346.429 447.466 346.268 447.749 346.044C448.032 345.821 448.264 345.54 448.43 345.22C450.82 339.59 455.72 334.01 464.26 328.44C474.19 321.96 487.46 316.44 486.37 309.78C485.28 303.12 475.23 303.63 467.86 306.55C460.49 309.47 443.34 321.55 443.69 345.45L444.73 346.15Z" fill="#EF5050"/>
<path opacity="0.25" d="M444.73 346.15C445.028 346.353 445.365 346.491 445.72 346.554C446.075 346.617 446.44 346.605 446.789 346.517C447.139 346.429 447.466 346.268 447.749 346.044C448.032 345.821 448.264 345.54 448.43 345.22C450.82 339.59 455.72 334.01 464.26 328.44C474.19 321.96 487.46 316.44 486.37 309.78C485.28 303.12 475.23 303.63 467.86 306.55C460.49 309.47 443.34 321.55 443.69 345.45L444.73 346.15Z" fill="white"/>
<path d="M445.3 346.68C445.406 346.688 445.511 346.658 445.597 346.596C445.683 346.534 445.744 346.443 445.77 346.34C447.37 328.59 466.89 310.56 479.51 308.11C479.567 308.104 479.622 308.087 479.671 308.058C479.72 308.03 479.763 307.991 479.796 307.944C479.829 307.898 479.852 307.845 479.863 307.789C479.874 307.733 479.873 307.676 479.86 307.62C479.815 307.509 479.732 307.417 479.626 307.362C479.519 307.307 479.397 307.292 479.28 307.32C466.88 308.84 445.51 328.32 444.84 346.19C444.829 346.304 444.862 346.417 444.933 346.507C445.004 346.597 445.107 346.655 445.22 346.67L445.3 346.68Z" fill="white"/>
<path d="M313.31 363.06L321.88 270.37L329.83 269.97L317.32 363.05C317.288 363.199 317.223 363.34 317.132 363.462C317.041 363.585 316.924 363.686 316.79 363.76C316.362 364.007 315.882 364.15 315.388 364.176C314.894 364.202 314.402 364.111 313.95 363.91C313.778 363.84 313.629 363.723 313.519 363.573C313.41 363.423 313.344 363.245 313.33 363.06H313.31Z" fill="#263238"/>
<path d="M321.88 270.37L329.83 269.97L327.49 285.36C325.864 284.77 324.288 284.048 322.78 283.2C321.92 282.817 321.191 282.191 320.68 281.4L321.88 270.37Z" fill="#263238"/>
<path d="M427.54 258.46H435.54L448.28 346.63C448.276 346.815 448.22 346.995 448.12 347.151C448.019 347.306 447.877 347.43 447.71 347.51C447.269 347.732 446.783 347.847 446.29 347.847C445.797 347.847 445.311 347.732 444.87 347.51C444.732 347.442 444.609 347.345 444.511 347.226C444.413 347.107 444.341 346.969 444.3 346.82L427.54 258.46Z" fill="#37474F"/>
<path d="M435.5 258.46L438.59 279.87C436.646 281.382 434.54 282.673 432.31 283.72L427.54 258.46H435.5Z" fill="#263238"/>
<path d="M366.51 390.28L372.83 296.22L380.78 295.82L370.51 390.27C370.476 390.419 370.412 390.559 370.32 390.681C370.229 390.804 370.113 390.905 369.98 390.98C369.553 391.225 369.074 391.366 368.583 391.392C368.091 391.419 367.6 391.329 367.15 391.13C366.976 391.061 366.825 390.945 366.713 390.795C366.602 390.645 366.535 390.466 366.52 390.28H366.51Z" fill="#37474F"/>
<path d="M372 308.12L372.8 296.22L380.75 295.82L379.35 308.65C377.61 309.19 374.34 308.86 372 308.12Z" fill="#263238"/>
<path d="M384.09 233.2H392.09L404.83 323.1C404.823 323.284 404.765 323.463 404.663 323.617C404.561 323.77 404.418 323.893 404.25 323.97C403.813 324.197 403.328 324.316 402.835 324.316C402.343 324.316 401.857 324.197 401.42 323.97C401.282 323.904 401.16 323.809 401.061 323.692C400.963 323.575 400.891 323.437 400.85 323.29L384.09 233.2Z" fill="#263238"/>
<path d="M450.46 170.52C452.258 174.988 453.332 179.714 453.64 184.52C454.55 195.24 450.92 229.93 448.74 245.45C445.59 271.37 441.74 271.45 436.1 275.76C426.44 283.22 398.66 297.85 389.48 301.46C372.85 308.01 359.25 297.92 349.11 292.91C339.822 288.206 330.855 282.891 322.27 277C319.74 275.15 318.43 273.29 318.45 271.33C318.45 270.55 318.45 267.33 318.45 266.54C318.45 264.04 320.66 261.36 325.32 258.34C333.91 252.77 364.95 234.66 376.98 228C376.984 227.975 376.996 227.952 377.014 227.934C377.032 227.916 377.055 227.904 377.08 227.9C386.34 222.28 391.91 184.08 398.32 163.76C398.46 163.32 398.59 162.9 398.74 162.5C398.89 162.1 398.96 161.86 399.07 161.55C399.44 160.53 399.861 159.529 400.33 158.55" fill="#EF5050"/>
<path d="M318.44 266.52C318.44 264.02 320.65 261.34 325.31 258.32C333.9 252.75 364.94 234.64 376.97 227.98C376.974 227.955 376.986 227.932 377.004 227.914C377.022 227.896 377.045 227.884 377.07 227.88C386.33 222.26 391.9 184.06 398.31 163.74C398.689 162.47 399.136 161.222 399.65 160L399.77 159.73C399.89 159.46 400.01 159.18 400.14 158.9L400.32 158.49C401.331 156.171 402.785 154.072 404.6 152.31C405.225 151.722 405.928 151.224 406.69 150.83C407.69 150.25 409.92 149.03 410.47 148.71C416.76 144.95 425 149.46 435.28 155.09C441.67 158.6 447.13 162.76 450.45 170.52C452.248 174.988 453.322 179.714 453.63 184.52C454.54 195.24 450.91 229.93 448.73 245.45C445.58 271.37 441.73 271.45 436.09 275.76C426.43 283.22 398.65 297.85 389.47 301.46C372.84 308.01 359.24 297.92 349.1 292.91C339.815 288.206 330.852 282.891 322.27 277C319.74 275.15 318.43 273.29 318.45 271.33C318.46 270.53 318.44 267.34 318.44 266.52Z" fill="#EF5050"/>
<path opacity="0.25" d="M318.44 266.52C318.44 264.02 320.65 261.34 325.31 258.32C333.9 252.75 364.94 234.64 376.97 227.98C376.974 227.955 376.986 227.932 377.004 227.914C377.022 227.896 377.045 227.884 377.07 227.88C386.33 222.26 391.9 184.06 398.31 163.74C398.689 162.47 399.136 161.222 399.65 160L399.77 159.73C399.89 159.46 400.01 159.18 400.14 158.9L400.32 158.49C401.331 156.171 402.785 154.072 404.6 152.31C405.225 151.722 405.928 151.224 406.69 150.83C407.69 150.25 409.92 149.03 410.47 148.71C416.76 144.95 425 149.46 435.28 155.09C441.67 158.6 447.13 162.76 450.45 170.52C452.248 174.988 453.322 179.714 453.63 184.52C454.54 195.24 450.91 229.93 448.73 245.45C445.58 271.37 441.73 271.45 436.09 275.76C426.43 283.22 398.65 297.85 389.47 301.46C372.84 308.01 359.24 297.92 349.1 292.91C339.815 288.206 330.852 282.891 322.27 277C319.74 275.15 318.43 273.29 318.45 271.33C318.46 270.53 318.44 267.34 318.44 266.52Z" fill="white"/>
<path d="M349.13 288.06C339.834 283.359 330.86 278.044 322.27 272.15C316.51 267.97 317.04 263.68 325.27 258.32C336.75 250.88 383.55 224.32 383.55 224.32C383.55 224.32 442.71 259.24 440.16 265.68C437.61 272.12 401 292.07 389.46 296.61C372.85 303.16 359.26 293.07 349.13 288.06Z" fill="#EF5050"/>
<path opacity="0.6" d="M349.13 288.06C339.834 283.359 330.86 278.044 322.27 272.15C316.51 267.97 317.04 263.68 325.27 258.32C336.75 250.88 383.55 224.32 383.55 224.32C383.55 224.32 442.71 259.24 440.16 265.68C437.61 272.12 401 292.07 389.46 296.61C372.85 303.16 359.26 293.07 349.13 288.06Z" fill="white"/>
<path d="M406.7 150.83C412.93 147.57 421.02 152.01 431.03 157.49C437.45 161.01 442.91 165.17 446.23 172.97L450.46 170.52C447.14 162.76 441.68 158.6 435.29 155.09C425.01 149.46 416.77 144.95 410.48 148.71C409.93 149 407.74 150.25 406.7 150.83Z" fill="#EF5050"/>
<path opacity="0.5" d="M406.7 150.83C412.93 147.57 421.02 152.01 431.03 157.49C437.45 161.01 442.91 165.17 446.23 172.97L450.46 170.52C447.14 162.76 441.68 158.6 435.29 155.09C425.01 149.46 416.77 144.95 410.48 148.71C409.93 149 407.74 150.25 406.7 150.83Z" fill="white"/>
<path d="M377.07 227.88C377.07 227.88 383.07 229.88 404.63 240.43C413.46 244.76 419.27 249.14 427.54 254.34C439.72 262 438.79 267.69 438.79 267.69C444.79 262.69 450.87 204.51 449.39 186.9C449.078 181.854 447.904 176.9 445.92 172.25C445.76 171.91 445.59 171.57 445.42 171.25C445.25 170.93 445.19 170.78 445.06 170.55C445.006 170.44 444.946 170.334 444.88 170.23C444.416 169.386 443.905 168.568 443.35 167.78C443.22 167.58 443.08 167.39 442.95 167.21L442.52 166.65C442.39 166.47 442.24 166.29 442.09 166.11L441.72 165.68C441.036 164.88 440.305 164.122 439.53 163.41C439.35 163.223 439.16 163.046 438.96 162.88C437.739 161.822 436.45 160.847 435.1 159.96C434.9 159.81 434.69 159.68 434.48 159.55L433.64 159.02C433.4 158.88 433.17 158.73 432.93 158.6C432.3 158.23 431.67 157.87 431.03 157.52C423.38 153.33 416.85 149.74 411.41 149.74C408.901 149.73 406.477 150.654 404.61 152.33C400.61 155.87 398.45 163.33 398.31 163.76C391.9 184.06 386.33 222.26 377.07 227.88Z" fill="#EF5050"/>
<path opacity="0.4" d="M377.07 227.88C377.07 227.88 383.07 229.88 404.63 240.43C413.46 244.76 419.27 249.14 427.54 254.34C439.72 262 438.79 267.69 438.79 267.69C444.79 262.69 450.87 204.51 449.39 186.9C449.078 181.854 447.904 176.9 445.92 172.25C445.76 171.91 445.59 171.57 445.42 171.25C445.25 170.93 445.19 170.78 445.06 170.55C445.006 170.44 444.946 170.334 444.88 170.23C444.416 169.386 443.905 168.568 443.35 167.78C443.22 167.58 443.08 167.39 442.95 167.21L442.52 166.65C442.39 166.47 442.24 166.29 442.09 166.11L441.72 165.68C441.036 164.88 440.305 164.122 439.53 163.41C439.35 163.223 439.16 163.046 438.96 162.88C437.739 161.822 436.45 160.847 435.1 159.96C434.9 159.81 434.69 159.68 434.48 159.55L433.64 159.02C433.4 158.88 433.17 158.73 432.93 158.6C432.3 158.23 431.67 157.87 431.03 157.52C423.38 153.33 416.85 149.74 411.41 149.74C408.901 149.73 406.477 150.654 404.61 152.33C400.61 155.87 398.45 163.33 398.31 163.76C391.9 184.06 386.33 222.26 377.07 227.88Z" fill="white"/>
<path d="M354.61 311.23C360.3 310.45 365.2 314.99 365.67 316.45C366.3 318.45 366.1 322.4 363.8 327.33C361.785 332.231 360.939 337.535 361.33 342.82C361.76 347.32 363.94 358.54 359.42 364.2C354.9 369.86 344.82 374.8 341.21 367.09C340.03 364.56 342.36 355.79 343.4 349.4C345.45 336.66 347 324 347 324L354.61 311.23Z" fill="#263238"/>
<path d="M356.43 321.39C355.484 327.575 355.006 333.823 355 340.08C355.14 346.91 353.71 351.41 351.36 354.46C348.77 357.84 342.26 359.74 343.01 352.7C343.53 347.79 347.01 324 347.01 324L356.43 321.39Z" fill="#FFA8A7"/>
<path opacity="0.15" d="M363.77 314.2C364.04 318.41 361.77 329.59 356.15 338.96C350.59 348.16 342.45 358.96 340.91 365.53C340.75 362.53 342 357.01 342.91 352.1L342.97 351.78L343.12 350.93C343.12 350.8 343.17 350.67 343.19 350.54C343.26 350.18 343.32 349.82 343.37 349.47V349.4C344.01 345.4 344.61 341.4 345.12 337.86C345.53 335 345.9 332.38 346.19 330.21C346.33 329.13 346.46 328.21 346.57 327.32C346.63 326.91 346.68 326.52 346.72 326.18C346.9 324.79 347 324 347 324L354.58 311.23C354.948 311.184 355.319 311.158 355.69 311.15C358.66 311.173 361.525 312.255 363.77 314.2Z" fill="black"/>
<path d="M331.87 240C349.97 226.49 370.48 211.23 370.48 211.23L428.58 214.73L371.34 257.55L346.68 274.24C346.68 274.24 341.97 273.87 344.86 281.24C345.77 283.57 347.16 288.24 348.62 293.53L337.18 325.07C337.18 325.07 329.94 314.55 322.05 294.16C314.05 273.52 313.55 266.72 314.37 262.62C315.46 257.24 317.08 251 331.87 240Z" fill="#455A64"/>
<path d="M342.53 240.63C337.859 244.202 333.405 248.049 329.19 252.15C327.093 254.155 325.16 256.326 323.41 258.64C322.571 259.696 321.946 260.905 321.57 262.2C321.282 263.601 321.098 265.022 321.02 266.45C320.917 269.322 321.138 272.197 321.68 275.02C322.17 277.88 322.87 280.72 323.62 283.55C325.17 289.23 326.62 294.95 328.05 300.67C325.9 295.17 323.97 289.59 322.18 283.97C321.248 281.144 320.484 278.266 319.89 275.35C319.261 272.394 319.016 269.369 319.16 266.35C319.258 264.833 319.469 263.326 319.79 261.84C320.247 260.299 321.013 258.867 322.04 257.63C323.907 255.284 325.986 253.115 328.25 251.15C332.681 247.217 337.46 243.696 342.53 240.63Z" fill="#37474F"/>
<path d="M377.07 245.34C376.34 245.83 373.13 248.08 372.28 248.68C360.89 256.74 341.65 272.35 339.5 279.19C338.16 283.42 333.09 295.75 330.31 311.76C330.31 311.76 330.67 301.15 331.07 290.76C331.62 276.23 334.25 272.14 338.97 266.76C343.52 261.59 367.75 246.76 369.44 245.81C365.26 242.5 363.2 235.67 363.21 232.23C363.21 232.24 369.35 242.67 377.07 245.34Z" fill="#37474F"/>
<path d="M343.34 362.91C344.82 362.81 344.92 365.34 345.82 368.55C346.4 370.63 347.51 374.11 346.3 378.18C345.09 382.25 338.67 383.07 335.52 388.48C332.37 393.89 327.86 403.56 316.52 406.8C305.18 410.04 296.13 406.85 293.74 403.57C291.35 400.29 293.05 396.91 300.13 392.19C307.64 387.19 309.76 385.7 309.76 385.7L343.34 362.91Z" fill="#263238"/>
<path d="M328 343.8C328 343.8 325.14 356.54 322.26 363.8C319.38 371.06 314.49 378.17 308.99 384.8C307.8 386.25 305.06 388.96 304.08 390.13C303.847 390.361 303.669 390.641 303.557 390.949C303.444 391.257 303.402 391.586 303.431 391.913C303.461 392.239 303.562 392.556 303.728 392.839C303.894 393.122 304.12 393.364 304.39 393.55C306.96 395.89 317.61 396.22 323.48 391.61C329.35 387 334.5 377.41 338 373.73C339.3 372.35 340.53 370.94 341.69 369.44C342.811 368.093 343.42 366.393 343.41 364.64C343.133 362.35 343.231 360.029 343.7 357.77C344.43 354 345.21 352.53 346.3 348.86L328 343.8Z" fill="#FFA8A7"/>
<path d="M427.54 214.66C433.9 234.07 432.54 244.48 429.01 252.81C426.08 259.75 420.6 266.96 404.79 274.58C389.79 281.8 375.79 289.45 372.06 291.2C368.33 292.95 367.13 297.07 365.4 304.43C363.76 311.43 361.71 322.71 354.1 337.54C346.1 353.2 343.89 357.83 343.89 357.83C343.89 357.83 333 361.22 325.15 353.89C325.15 353.89 332.3 293.89 334.07 284.2C335.25 277.69 336.99 274.09 342.2 269.41C354.32 258.52 376.7 245.41 376.7 245.41C376.7 245.41 375.03 225.62 378.9 214.71L427.54 214.66Z" fill="#455A64"/>
<path d="M331.51 341.66C332.29 332.927 333.257 324.22 334.41 315.54C335.57 306.85 336.82 298.19 338.55 289.54C338.77 288.46 339.03 287.38 339.29 286.3L339.77 284.66L340.36 283.06C341.23 280.962 342.373 278.989 343.76 277.19C346.558 273.718 349.822 270.649 353.46 268.07C356.99 265.43 360.71 263.07 364.4 260.74C368.09 258.41 371.8 256.05 375.55 253.74C372.03 256.36 368.45 258.88 364.9 261.45C361.35 264.02 357.75 266.45 354.35 269.19C350.919 271.783 347.837 274.808 345.18 278.19C343.919 279.885 342.877 281.733 342.08 283.69L341.54 285.17L341.1 286.69C340.86 287.74 340.61 288.79 340.4 289.86C339.5 294.11 338.77 298.42 338.04 302.73L335.88 315.68C334.48 324.367 333.023 333.027 331.51 341.66Z" fill="#37474F"/>
<path d="M280.46 122.16C281.661 121.892 282.915 121.99 284.06 122.44C285.847 123.273 287.568 124.239 289.21 125.33C291.85 126.76 296.09 129.11 299.14 128.98C299.76 128.98 301.04 128.7 300.2 127.98C299.041 127.036 297.967 125.992 296.99 124.86C296.504 124.293 296.142 123.632 295.927 122.917C295.712 122.202 295.648 121.451 295.74 120.71C295.791 120.258 296.013 119.843 296.36 119.55C296.87 119.17 297.23 119.41 297.63 119.71C298.066 120.014 298.521 120.291 298.99 120.54C299.99 121.08 300.91 121.62 301.86 122.18C307.4 125.43 312.95 129.18 316.23 134.91C316.7 135.74 319.57 142.23 321.42 145.91C322.92 149.25 334.33 170.18 334.33 170.18L354.66 150.36C359.21 145.81 363.76 141.59 367.8 140.04C370.69 138.93 374.69 137.44 374.69 137.44L367.27 172.27C367.27 172.27 345.79 188.42 342.72 190.64C338.17 193.94 329.08 199.27 324.57 193.7C318.45 186.14 315.47 175.23 312.57 166.91C309.67 158.59 308.19 153.54 306.57 150.67C304.95 147.8 302.24 147.6 300.35 147.01C297.723 146.278 295.212 145.18 292.89 143.75C290.797 142.602 288.866 141.18 287.15 139.52C286.234 138.796 285.478 137.891 284.93 136.86C284.64 135.95 284.81 134.95 284.4 134.03C283.99 133.11 283.02 132.2 282.68 131.12C282.509 130.248 282.449 129.357 282.5 128.47C282.44 127.06 281.58 126.24 280.6 125.34C280.078 124.958 279.653 124.457 279.36 123.88C279 122.85 279.66 122.38 280.46 122.16Z" fill="#FFA8A7"/>
<path d="M325.65 153.38L322.82 148.65C321.658 151.458 319.638 153.827 317.05 155.42C312.47 158.47 309.37 157.36 309.37 157.36L311.04 163.05C311.04 163.05 314.5 164.34 319.97 160.73C325.44 157.12 325.65 153.38 325.65 153.38Z" fill="#EF5050"/>
<path d="M378.83 134.94C370.47 135.5 364.94 138.94 360.18 142.94C355.42 146.94 334.58 166.47 334.58 166.47L324.74 151.33C324.74 151.33 324.17 155.51 318.45 158.83C312.45 162.33 310.23 161.14 310.23 161.14C310.23 161.14 314.71 179.14 319.64 187.99C324.57 196.84 327.39 199.73 335.44 196.1C343.49 192.47 371 172 371 172L378.83 134.94Z" fill="#263238"/>
<path d="M302.62 131.63C303.89 135.11 307.4 139.05 309.43 140.2C309.43 140.2 306.1 139.86 304.36 137.61C303.668 136.79 303.155 135.834 302.856 134.804C302.556 133.774 302.476 132.693 302.62 131.63Z" fill="#F28F8F"/>
<path d="M334.58 166.48C338.02 172.48 339.1 180.12 338.38 184.04C340.88 177.73 341.06 171.09 336.81 164.4L334.58 166.48Z" fill="black"/>
<path d="M402.22 73.5C404.66 72.2066 407.361 71.4801 410.12 71.3745C412.88 71.2689 415.628 71.7869 418.16 72.89C425.09 76.26 426.48 80.06 427.34 88.1C428.63 100.18 429.58 103.81 431.1 106.52C431.75 107.702 432.628 108.743 433.684 109.582C434.74 110.422 435.952 111.043 437.25 111.41C436.246 112.071 435.09 112.465 433.891 112.554C432.692 112.643 431.491 112.425 430.4 111.92C431.8 117.7 433.66 122.53 432.4 128.73C431.52 132.91 429.51 137.73 426.4 140.73C423.77 143.35 419.9 144.25 416.68 145.78C418.73 140.98 419.77 136.47 418.07 131.2C416.2 125.39 412.07 120.52 410.17 114.66C407.48 106.55 404.44 98.17 403.48 89.66C402.63 82.47 402.33 78.44 402.22 73.5Z" fill="#263238"/>
<path d="M401.09 73C401.82 71.74 406.52 71 410.23 73.43C413.94 75.86 417 80.1 414.45 83.64C412.05 87 396.16 77.93 401.09 73Z" fill="#EF5050"/>
<path d="M415.9 137.83C422.9 140.58 423.63 140.83 423.63 140.83C425.09 144.65 431.57 155.15 429.86 165.41C428.15 175.67 422.86 197.41 424.01 201.68C425.16 205.95 431.07 217.86 433.18 230.68C433.18 230.68 428.98 233.19 425.18 234.88C425.18 234.88 422.81 220.03 418.88 214.76C419.205 221.139 419.205 227.531 418.88 233.91C407.229 237.846 394.657 238.149 382.83 234.78C362.34 228.89 360.83 218.43 360.83 218.43C360.83 218.43 364.39 205.2 364.39 198.43C364.39 191.66 363.16 180.8 363.16 180.8C363.16 180.8 354.36 172.16 357.32 162.52C360.13 153.38 375.55 138.08 378.81 134.94C381.843 134.993 384.874 134.752 387.86 134.22L415.9 137.83Z" fill="#37474F"/>
<path d="M408.82 137.22C407.82 142.22 405.82 143.45 400.15 149.67C394.48 155.89 376.74 172.84 375.15 180.2C374.08 173.89 372.64 165.44 374.3 158.05C375.96 150.66 380.01 140.86 386.37 135.87L408.3 134.94L408.82 137.22Z" fill="#EF5050"/>
<path d="M370.17 99.37C364.87 79.83 382.88 69.84 400.8 73C406.7 74 414.32 77.41 415.13 85.82C422.93 88.27 426.68 98.7 421.86 109.82C418.37 117.91 411.39 121.93 408.23 126.9L370.17 99.37Z" fill="#263238"/>
<path d="M415.49 102.16C410.49 99.9701 407.96 105.22 407.96 105.22C404.7 107.22 402.82 100.71 402.11 98.7501C400.86 95.3101 399.68 90.4101 395.87 88.9901C393.04 87.9301 389.87 88.9901 387.25 90.5301C386.481 90.9956 385.623 91.2971 384.732 91.4159C383.841 91.5346 382.934 91.4679 382.07 91.2201C380.52 90.8001 380.07 88.3701 378.62 87.6201C374.55 85.4301 371.39 92.1301 370.83 95.3401C370.087 99.6316 369.772 103.986 369.89 108.34C370.19 122.9 375.07 128.82 377.54 130.15C380.01 131.48 383.06 131.84 387.92 131.44L387.85 135.74C385.737 140.471 384.553 145.563 384.36 150.74C395.08 147.2 401.56 142.36 408.26 135.96V116.44C409.18 118.34 413.5 119.25 416.17 115.83C419.6 111.36 420.29 104.26 415.49 102.16Z" fill="#FFA8A7"/>
<path d="M389.76 117.84L382.96 119.94C383.077 120.395 383.285 120.821 383.571 121.193C383.858 121.565 384.216 121.876 384.625 122.107C385.034 122.337 385.485 122.483 385.951 122.535C386.418 122.587 386.89 122.545 387.34 122.41C388.256 122.109 389.019 121.465 389.47 120.613C389.922 119.761 390.025 118.767 389.76 117.84Z" fill="#B16668"/>
<path d="M389.31 119.4C388.408 119.369 387.523 119.65 386.805 120.197C386.087 120.744 385.58 121.522 385.37 122.4C386.021 122.606 386.719 122.606 387.37 122.4C388.019 122.191 388.596 121.805 389.038 121.285C389.479 120.766 389.768 120.134 389.87 119.46C389.686 119.424 389.498 119.404 389.31 119.4Z" fill="#F28F8F"/>
<path d="M387.92 131.42C392.64 130.7 401.25 128.42 402.68 124.52C402.68 124.52 402.9 127.67 399.25 130.45C396.2 132.77 387.88 134.22 387.88 134.22L387.92 131.42Z" fill="#F28F8F"/>
<path d="M372.61 96.13L377.46 97.58C377.57 97.2692 377.615 96.9393 377.594 96.6103C377.572 96.2813 377.484 95.9602 377.334 95.6664C377.184 95.3727 376.977 95.1125 376.723 94.9016C376.47 94.6908 376.176 94.5337 375.86 94.44C375.205 94.2542 374.503 94.3256 373.899 94.6398C373.295 94.9539 372.834 95.487 372.61 96.13Z" fill="#263238"/>
<path d="M394.42 99.0001L390 96.5601C390.144 96.2631 390.346 95.9985 390.596 95.7824C390.845 95.5663 391.136 95.4032 391.45 95.303C391.764 95.2029 392.096 95.1679 392.424 95.2C392.753 95.2322 393.071 95.3309 393.36 95.4901C393.953 95.8275 394.394 96.38 394.591 97.0333C394.789 97.6866 394.727 98.3908 394.42 99.0001Z" fill="#263238"/>
<path d="M373.48 104.88C373.471 105.28 373.58 105.675 373.793 106.014C374.006 106.353 374.314 106.622 374.678 106.789C375.042 106.955 375.447 107.011 375.843 106.95C376.239 106.888 376.608 106.712 376.905 106.444C377.202 106.175 377.414 105.825 377.514 105.437C377.614 105.05 377.599 104.641 377.47 104.262C377.341 103.883 377.103 103.55 376.787 103.305C376.471 103.059 376.089 102.911 375.69 102.88C375.413 102.864 375.136 102.903 374.874 102.995C374.612 103.087 374.371 103.231 374.166 103.417C373.96 103.603 373.793 103.828 373.676 104.079C373.558 104.331 373.491 104.603 373.48 104.88Z" fill="#263238"/>
<path d="M389 106C388.989 106.403 389.097 106.8 389.31 107.142C389.523 107.484 389.831 107.756 390.197 107.925C390.563 108.093 390.97 108.151 391.369 108.09C391.767 108.03 392.139 107.854 392.438 107.584C392.737 107.315 392.951 106.963 393.053 106.573C393.154 106.183 393.139 105.772 393.01 105.391C392.88 105.009 392.641 104.674 392.323 104.427C392.005 104.18 391.622 104.032 391.22 104C390.661 103.973 390.114 104.168 389.698 104.542C389.282 104.917 389.031 105.441 389 106Z" fill="#263238"/>
<path d="M364.48 99.9999C364.609 100.801 364.955 101.552 365.48 102.17C365.667 102.394 365.8 102.657 365.87 102.94C366.25 104.4 366.59 107.15 367.3 108.72C367.79 109.98 368.64 111.069 369.744 111.849C370.849 112.63 372.158 113.068 373.51 113.11C374.206 113.178 374.909 113.158 375.6 113.05H375.76C376.35 112.947 376.921 112.751 377.45 112.47L377.55 112.41L377.7 112.33L377.88 112.21C377.936 112.173 377.989 112.133 378.04 112.09C378.107 112.049 378.171 112.002 378.23 111.95L378.4 111.81C378.51 111.71 378.62 111.6 378.72 111.49C379.287 110.875 379.741 110.164 380.06 109.39C380.91 107.45 380.64 104.64 382.06 104.39H382.24H382.43C384.43 104.53 384.24 107.56 385.43 109.79C386.065 111.199 387.091 112.396 388.387 113.238C389.683 114.081 391.194 114.532 392.74 114.54H393.3H393.74C394.075 114.53 394.409 114.5 394.74 114.45L395.06 114.39L395.37 114.32H395.57C395.975 114.205 396.365 114.04 396.73 113.83C396.862 113.76 396.989 113.679 397.11 113.59C397.348 113.426 397.572 113.242 397.78 113.04C398.324 112.458 398.755 111.78 399.05 111.04C399.7 109.57 399.83 106.85 400.14 105.44C400.187 105.153 400.296 104.88 400.46 104.64C400.971 104.087 401.297 103.387 401.39 102.64C401.403 102.242 401.293 101.849 401.075 101.516C400.856 101.183 400.54 100.926 400.17 100.78L399.11 100.59C395.7 99.9899 391.27 99.5899 388.63 100.14C385.32 100.87 384.19 101.87 382.33 101.75C380.47 101.63 379.46 100.45 376.33 99.2499C373.81 98.2499 369.67 98.0999 366.51 98.2499L365.51 98.2999C365 98.2999 364.4 99.0899 364.48 99.9999ZM386.37 103.26C386.626 102.953 386.947 102.707 387.31 102.54L387.48 102.46H387.57L388.03 102.27L388.46 102.11C388.925 101.959 389.399 101.839 389.88 101.75L390.44 101.64C390.92 101.57 391.44 101.52 391.89 101.49H392.24C395.43 101.4 397.44 102.26 398.18 102.96C398.92 103.66 398.65 106.61 398.36 108.09C398.365 108.126 398.365 108.163 398.36 108.2C398.365 108.24 398.365 108.28 398.36 108.32C398.327 108.522 398.283 108.722 398.23 108.92L398.14 109.29C398.08 109.49 398.02 109.7 397.94 109.91L397.85 110.12C397.816 110.209 397.776 110.296 397.73 110.38C397.707 110.442 397.681 110.502 397.65 110.56L397.54 110.75C397.504 110.819 397.464 110.885 397.42 110.95L397.28 111.16C396.78 111.846 396.102 112.381 395.319 112.709C394.537 113.037 393.679 113.144 392.84 113.02C391.955 113.021 391.078 112.844 390.263 112.5C389.447 112.157 388.708 111.653 388.09 111.02C387.309 110.126 386.76 109.055 386.49 107.9C386 106.11 385.76 104.14 386.37 103.26ZM367.53 100.68C367.756 100.483 368.017 100.33 368.3 100.23H368.36C368.474 100.186 368.591 100.149 368.71 100.12L368.92 100.06H369.09H369.21H369.26H369.43C369.671 100.017 369.915 99.9901 370.16 99.9799H370.56H371H371.51H371.7H371.87C372.367 100.024 372.861 100.097 373.35 100.2C375.63 100.65 378.03 101.83 378.67 102.8C379.31 103.77 379.2 105.71 378.93 107.37C378.865 107.743 378.771 108.111 378.65 108.47C378.653 108.496 378.653 108.523 378.65 108.55C378.647 108.587 378.647 108.623 378.65 108.66V108.74C378.65 108.74 378.65 108.83 378.6 108.87L378.48 109.14L378.36 109.37C378.36 109.37 378.36 109.37 378.36 109.45L378.27 109.6L378.18 109.74C377.4 110.91 376 111.88 373.46 111.65C372.618 111.588 371.8 111.345 371.06 110.94C368.77 109.67 368.15 107.09 367.87 105.94C367.35 104.29 366.86 101.29 367.53 100.68Z" fill="#37474F"/>
<path d="M400.34 101.05L410.05 102.71C409.302 103.31 408.662 104.034 408.16 104.85L400.3 103.51L400.34 101.05Z" fill="#37474F"/>
<path d="M383.26 104.65L382 116.5L375 114.05L382.58 104.38C382.825 104.414 383.058 104.507 383.26 104.65Z" fill="#F28F8F"/>
<path d="M410.22 114C410.22 114.366 410.329 114.724 410.532 115.029C410.736 115.333 411.026 115.57 411.364 115.71C411.703 115.85 412.075 115.886 412.434 115.814C412.793 115.741 413.123 115.564 413.381 115.305C413.64 115.045 413.815 114.714 413.885 114.355C413.956 113.995 413.918 113.623 413.776 113.285C413.634 112.947 413.396 112.659 413.09 112.457C412.785 112.255 412.426 112.148 412.06 112.15C411.817 112.15 411.577 112.198 411.353 112.291C411.129 112.384 410.926 112.52 410.755 112.692C410.584 112.864 410.449 113.068 410.357 113.293C410.265 113.517 410.218 113.757 410.22 114Z" fill="#FAFAFA"/>
<path d="M408.26 132.7V134.94C404.232 140.565 399.892 145.96 395.26 151.1C386.66 160.59 379.31 167.81 376.67 174.39C374.914 179.159 373.683 184.104 373 189.14C375.158 181.657 379.628 175.048 385.77 170.26C392 165.26 402.07 161.44 403.97 158.26C405.76 155.26 402.16 151.1 402.16 151.1C402.16 151.1 408.29 149.15 412.04 146.43C415.79 143.71 415.88 137.83 415.88 137.83L408.26 132.7Z" fill="#263238"/>
<path d="M387.85 135.72C382.564 141.117 378.901 147.891 377.28 155.27C375.69 163.72 374.99 182.94 374.99 182.94C374.99 182.94 372.75 169.94 371.53 164.46C370.31 158.98 369.68 154.7 375.69 149.03C374.21 146.46 373.95 145.5 377.09 141.75C378.77 139.666 380.74 137.834 382.94 136.31L387.85 133.16V135.72Z" fill="#263238"/>
<path d="M375.37 208.19C372.02 207.85 368.79 204.76 364.48 203.12C360.17 201.48 356.48 201.43 353.48 200.23C352.26 200.92 352.89 203.5 354.34 204.61C356.6 206.34 360.04 207.42 359.22 208.34C358.01 209.7 353.36 208.76 351.95 208.47C347.6 207.57 342.95 204.96 338.45 205.92C337.968 205.988 337.527 206.23 337.21 206.6C337.057 206.904 337.009 207.25 337.072 207.584C337.135 207.918 337.307 208.223 337.56 208.45C338.071 208.893 338.631 209.275 339.23 209.59C339.527 209.754 339.784 209.982 339.982 210.257C340.181 210.532 340.317 210.847 340.38 211.18C340.43 211.8 340.06 212.4 340.14 213.01C340.216 213.403 340.395 213.769 340.66 214.07C341.123 214.645 341.669 215.147 342.28 215.56C342.802 215.854 343.3 216.188 343.77 216.56C344.748 217.318 345.631 218.191 346.4 219.16C348.78 223.03 353.88 224.16 358.02 224.91C366.87 226.45 370.93 224.59 376.15 224.69C381.37 224.79 403.59 224.11 415 223.29C426.95 222.44 428.4 220.22 431.77 208.81C435.616 195.444 438.605 181.846 440.72 168.1C442.61 153.77 436.06 146.01 425.59 141.91C423.11 144.1 417.65 154.42 415.25 173.41L410.14 202.03C410.14 202.03 378.73 208.54 375.37 208.19Z" fill="#FFA8A7"/>
<path d="M383.8 206.77L378.27 207.97C378.871 210.803 379.206 213.685 379.27 216.58C379.375 219.314 379.106 222.049 378.47 224.71L385.21 224.91C385.21 224.91 389 214.41 383.8 206.77Z" fill="#EF5050"/>
<path d="M423.63 140.81C430.07 143.08 434.8 145.53 438.08 150.7C441.36 155.87 442 162.27 440.61 173C439.22 183.73 432.61 209.68 430.78 215.62C428.95 221.56 427.78 222.9 421.48 224C415.18 225.1 382.69 225.4 382.69 225.4C382.69 225.4 383.91 221.93 383.43 215.7C382.95 209.47 381.73 206.8 381.73 206.8L409.73 201.7C409.73 201.7 414.18 174.94 415.73 166.54C417.28 158.14 418.81 150.7 423.63 140.81Z" fill="#263238"/>
<path d="M409.78 201.67C413.65 201.25 420.15 203.85 422.06 207.43C421.26 203.66 417.26 199.52 410.18 199.54L409.78 201.67Z" fill="black"/>
<path d="M192 362.66L183.36 269.24L175.36 268.84L187.97 362.65C188.004 362.802 188.069 362.944 188.162 363.068C188.255 363.193 188.374 363.295 188.51 363.37C188.941 363.616 189.423 363.757 189.918 363.781C190.414 363.806 190.908 363.713 191.36 363.51C191.534 363.442 191.685 363.325 191.797 363.175C191.908 363.025 191.975 362.847 191.99 362.66H192Z" fill="#263238"/>
<path d="M183.34 269.24L175.34 268.84L177.7 284.35C179.338 283.757 180.924 283.028 182.44 282.17C183.308 281.786 184.044 281.157 184.56 280.36L183.34 269.24Z" fill="#263238"/>
<path d="M76.86 257.24H68.86L56 346.1C56.0052 346.286 56.0622 346.467 56.1647 346.623C56.2671 346.778 56.411 346.902 56.58 346.98C57.0227 347.207 57.5128 347.325 58.01 347.325C58.5072 347.325 58.9973 347.207 59.44 346.98C59.5784 346.912 59.7008 346.815 59.7991 346.696C59.8973 346.577 59.9692 346.439 60.01 346.29L76.86 257.24Z" fill="#37474F"/>
<path d="M68.84 257.24L65.72 278.82C67.6802 280.341 69.8032 281.639 72.05 282.69L76.86 257.24H68.84Z" fill="#263238"/>
<path d="M138.37 390.09L132 295.3L124 294.89L134.35 390.08C134.384 390.232 134.449 390.374 134.542 390.498C134.635 390.623 134.754 390.725 134.89 390.8C135.321 391.046 135.803 391.187 136.298 391.211C136.793 391.236 137.287 391.143 137.74 390.94C137.914 390.872 138.065 390.756 138.177 390.605C138.288 390.455 138.355 390.277 138.37 390.09Z" fill="#37474F"/>
<path d="M132.81 307.29L132 295.29L124 294.88L125.4 307.82C127.18 308.37 130.47 308 132.81 307.29Z" fill="#263238"/>
<path d="M120.65 231.78H112.65L99.8101 322.38C99.8161 322.567 99.8746 322.749 99.9789 322.905C100.083 323.06 100.229 323.184 100.4 323.26C100.843 323.487 101.333 323.605 101.83 323.605C102.327 323.605 102.817 323.487 103.26 323.26C103.4 323.194 103.523 323.098 103.621 322.978C103.72 322.859 103.791 322.72 103.83 322.57L120.65 231.78Z" fill="#263238"/>
<path d="M53.7701 168.62C51.9522 173.115 50.8684 177.872 50.5601 182.71C49.6501 193.5 53.3001 228.47 55.5001 244.11C58.6701 270.23 62.5701 270.28 68.2301 274.65C77.9701 282.18 105.97 296.92 115.23 300.56C131.99 307.16 145.69 296.99 155.91 291.94C165.275 287.214 174.316 281.869 182.97 275.94C185.52 274.08 186.84 272.21 186.82 270.23C186.82 269.45 186.82 266.23 186.82 265.41C186.82 262.89 184.59 260.18 179.9 257.14C171.24 251.52 139.95 233.28 127.83 226.56C127.826 226.535 127.814 226.512 127.796 226.494C127.778 226.476 127.755 226.464 127.73 226.46C118.4 220.8 112.79 182.3 106.33 161.82C106.19 161.38 106.05 160.96 105.91 160.55C105.77 160.14 105.68 159.9 105.57 159.6C105.16 158.48 104.75 157.46 104.3 156.53" fill="#EF5050"/>
<path d="M186.81 265.37C186.81 262.85 184.58 260.14 179.89 257.1C171.23 251.48 139.94 233.24 127.82 226.52C127.816 226.495 127.804 226.472 127.786 226.454C127.768 226.436 127.745 226.424 127.72 226.42C118.39 220.76 112.78 182.26 106.32 161.78C105.946 160.498 105.505 159.237 105 158C105 157.91 104.92 157.82 104.89 157.73C104.77 157.46 104.65 157.18 104.52 156.9C104.39 156.62 104.4 156.61 104.33 156.48C103.312 154.143 101.848 152.027 100.02 150.25C99.3887 149.662 98.6786 149.164 97.9102 148.77C96.9102 148.18 94.6601 146.95 94.1101 146.63C87.7701 142.84 79.4601 147.39 69.1101 153.06C62.6701 156.59 57.1701 160.79 53.8301 168.61C52.0123 173.105 50.9284 177.862 50.6201 182.7C49.7101 193.49 53.3601 228.46 55.5601 244.1C58.7301 270.22 62.6301 270.27 68.2901 274.64C78.0301 282.17 106.03 296.91 115.29 300.55C132.05 307.15 145.75 296.98 155.97 291.93C165.336 287.204 174.376 281.859 183.03 275.93C185.58 274.07 186.9 272.2 186.88 270.22C186.79 269.41 186.81 266.19 186.81 265.37Z" fill="#EF5050"/>
<path opacity="0.25" d="M186.81 265.37C186.81 262.85 184.58 260.14 179.89 257.1C171.23 251.48 139.94 233.24 127.82 226.52C127.816 226.495 127.804 226.472 127.786 226.454C127.768 226.436 127.745 226.424 127.72 226.42C118.39 220.76 112.78 182.26 106.32 161.78C105.946 160.498 105.505 159.237 105 158C105 157.91 104.92 157.82 104.89 157.73C104.77 157.46 104.65 157.18 104.52 156.9C104.39 156.62 104.4 156.61 104.33 156.48C103.312 154.143 101.848 152.027 100.02 150.25C99.3887 149.662 98.6786 149.164 97.9102 148.77C96.9102 148.18 94.6601 146.95 94.1101 146.63C87.7701 142.84 79.4601 147.39 69.1101 153.06C62.6701 156.59 57.1701 160.79 53.8301 168.61C52.0123 173.105 50.9284 177.862 50.6201 182.7C49.7101 193.49 53.3601 228.46 55.5601 244.1C58.7301 270.22 62.6301 270.27 68.2901 274.64C78.0301 282.17 106.03 296.91 115.29 300.55C132.05 307.15 145.75 296.98 155.97 291.93C165.336 287.204 174.376 281.859 183.03 275.93C185.58 274.07 186.9 272.2 186.88 270.22C186.79 269.41 186.81 266.19 186.81 265.37Z" fill="white"/>
<path d="M155.88 287.07C165.267 282.321 174.327 276.953 183 271C188.81 266.78 188.27 262.47 179.94 257.06C168.38 249.56 121.22 222.8 121.22 222.8C121.22 222.8 61.5501 258 64.1101 264.52C66.6701 271.04 103.58 291.12 115.2 295.69C132 302.29 145.67 292.12 155.88 287.07Z" fill="#EF5050"/>
<path opacity="0.6" d="M155.88 287.07C165.267 282.321 174.327 276.953 183 271C188.81 266.78 188.27 262.47 179.94 257.06C168.38 249.56 121.22 222.8 121.22 222.8C121.22 222.8 61.5501 258 64.1101 264.52C66.6701 271.04 103.58 291.12 115.2 295.69C132 302.29 145.67 292.12 155.88 287.07Z" fill="white"/>
<path d="M97.86 148.78C91.58 145.48 83.43 149.96 73.34 155.49C66.88 159.03 61.34 163.23 58.03 171.08L53.77 168.62C57.11 160.8 62.61 156.62 69.05 153.07C79.41 147.4 87.72 142.85 94.05 146.64C94.61 147 96.81 148.19 97.86 148.78Z" fill="#EF5050"/>
<path opacity="0.5" d="M97.86 148.78C91.58 145.48 83.43 149.96 73.34 155.49C66.88 159.03 61.34 163.23 58.03 171.08L53.77 168.62C57.11 160.8 62.61 156.62 69.05 153.07C79.41 147.4 87.72 142.85 94.05 146.64C94.61 147 96.81 148.19 97.86 148.78Z" fill="white"/>
<path d="M106.32 161.78C106.18 161.34 104.02 153.83 99.9702 150.26C98.0846 148.572 95.6408 147.643 93.1102 147.65C87.6302 147.65 81.0502 151.27 73.3402 155.49C72.7002 155.85 72.0602 156.21 71.4302 156.58C71.1902 156.72 70.9502 156.86 70.7202 157.01L69.8602 157.54L69.2402 157.95C67.8788 158.863 66.5793 159.865 65.3502 160.95C65.1472 161.12 64.9536 161.3 64.7702 161.49C63.9919 162.206 63.2573 162.967 62.5702 163.77C62.4402 163.92 62.3102 164.06 62.2002 164.21L61.7602 164.75C61.6102 164.93 61.4802 165.12 61.3302 165.31C61.1802 165.5 61.0602 165.69 60.9302 165.89C60.3686 166.681 59.8511 167.502 59.3802 168.35L59.2002 168.68C59.0702 168.91 58.9602 169.14 58.8402 169.38C58.7202 169.62 58.5002 170.07 58.3402 170.38C56.338 175.067 55.1574 180.063 54.8502 185.15C53.3502 202.89 59.4302 261.51 65.5202 266.57C65.5202 266.57 64.5902 260.83 76.8602 253.11C85.2002 247.87 91.0502 243.46 99.9502 239.11C121.64 228.46 127.72 226.46 127.72 226.46C118.39 220.76 112.78 182.26 106.32 161.78Z" fill="#EF5050"/>
<path opacity="0.4" d="M106.32 161.78C106.18 161.34 104.02 153.83 99.9702 150.26C98.0846 148.572 95.6408 147.643 93.1102 147.65C87.6302 147.65 81.0502 151.27 73.3402 155.49C72.7002 155.85 72.0602 156.21 71.4302 156.58C71.1902 156.72 70.9502 156.86 70.7202 157.01L69.8602 157.54L69.2402 157.95C67.8788 158.863 66.5793 159.865 65.3502 160.95C65.1472 161.12 64.9536 161.3 64.7702 161.49C63.9919 162.206 63.2573 162.967 62.5702 163.77C62.4402 163.92 62.3102 164.06 62.2002 164.21L61.7602 164.75C61.6102 164.93 61.4802 165.12 61.3302 165.31C61.1802 165.5 61.0602 165.69 60.9302 165.89C60.3686 166.681 59.8511 167.502 59.3802 168.35L59.2002 168.68C59.0702 168.91 58.9602 169.14 58.8402 169.38C58.7202 169.62 58.5002 170.07 58.3402 170.38C56.338 175.067 55.1574 180.063 54.8502 185.15C53.3502 202.89 59.4302 261.51 65.5202 266.57C65.5202 266.57 64.5902 260.83 76.8602 253.11C85.2002 247.87 91.0502 243.46 99.9502 239.11C121.64 228.46 127.72 226.46 127.72 226.46C118.39 220.76 112.78 182.26 106.32 161.78Z" fill="white"/>
<path d="M141.73 347.58L149.11 349.03L149.65 343.77L143.85 344.92L141.73 347.58Z" fill="black"/>
<path d="M142.21 333C142.21 333 139.57 336.75 138.76 337.94C137.95 339.13 140.82 346.18 141.76 347.61L143.88 344.95C144.31 346.77 144.1 348.61 144.01 351.45C143.94 353.82 143.18 357.93 144.56 361.9C146.56 367.78 151.96 373.44 158.35 377.71C164.74 381.98 169.48 382.71 172.21 382.42C174.94 382.13 176.56 380.85 177.12 378.9C177.68 376.95 142.21 333 142.21 333Z" fill="#263238"/>
<path d="M167.9 330.46L169.38 328.24C170.6 328.95 168.73 332.32 168.71 336.24C168.71 341.57 169.19 348.55 170.66 353.69C173.56 363.82 177.13 371.26 178.41 375.81C180.13 381.89 169.6 383.38 159.3 376.2C154.19 372.63 146.42 364.2 145.71 359.41C145 354.62 146.38 348.77 145.71 345.18C145.04 341.59 141.87 336.51 142.25 332.94C142.46 330.94 145.03 327.67 147.31 324.94C149.42 322.42 152.11 318.24 153.45 319.55L152.69 321.03C152.58 322.63 152.82 325.54 156.69 328.89C158.52 330.59 164.76 334.7 167.9 330.46Z" fill="#37474F"/>
<path opacity="0.15" d="M160 331.14C162.14 332.22 164.75 332.9 166.74 331.59H166.81C166.212 332.301 165.784 333.138 165.558 334.04C165.333 334.941 165.316 335.882 165.51 336.79C166.04 340.2 168.38 363.38 168.38 363.38C168.38 363.38 165.17 343.47 164.53 339.7C163.58 334.12 162.83 333.07 159.98 331.18L160 331.14Z" fill="black"/>
<path opacity="0.15" d="M160.06 337C159.931 337.15 159.748 337.245 159.551 337.264C159.354 337.283 159.157 337.225 159.001 337.103C158.845 336.981 158.743 336.803 158.715 336.607C158.686 336.411 158.735 336.211 158.85 336.05C158.979 335.9 159.162 335.806 159.359 335.787C159.556 335.767 159.753 335.825 159.909 335.947C160.064 336.07 160.167 336.247 160.195 336.443C160.223 336.64 160.175 336.839 160.06 337Z" fill="black"/>
<path opacity="0.15" d="M161.06 342.38C160.932 342.538 160.748 342.64 160.546 342.665C160.345 342.689 160.141 342.633 159.98 342.51C159.9 342.445 159.835 342.364 159.786 342.273C159.738 342.182 159.708 342.082 159.699 341.979C159.689 341.877 159.699 341.773 159.73 341.675C159.76 341.576 159.809 341.485 159.875 341.405C159.941 341.326 160.021 341.26 160.112 341.212C160.203 341.163 160.303 341.134 160.406 341.124C160.508 341.114 160.612 341.125 160.71 341.155C160.809 341.185 160.9 341.235 160.98 341.3C161.131 341.435 161.223 341.623 161.238 341.824C161.253 342.026 161.189 342.225 161.06 342.38Z" fill="black"/>
<path opacity="0.15" d="M162.06 347.8C161.998 347.88 161.921 347.947 161.834 347.998C161.746 348.048 161.649 348.081 161.549 348.094C161.449 348.107 161.347 348.1 161.249 348.074C161.152 348.047 161.06 348.002 160.98 347.94C160.9 347.875 160.835 347.794 160.786 347.703C160.738 347.612 160.708 347.512 160.699 347.409C160.689 347.307 160.699 347.203 160.73 347.105C160.76 347.006 160.809 346.915 160.875 346.835C160.941 346.756 161.021 346.69 161.112 346.642C161.203 346.593 161.303 346.564 161.406 346.554C161.508 346.544 161.612 346.555 161.71 346.585C161.809 346.615 161.9 346.665 161.98 346.73C162.132 346.862 162.226 347.048 162.241 347.249C162.256 347.449 162.191 347.648 162.06 347.8Z" fill="black"/>
<path opacity="0.15" d="M163.06 353.23C162.966 353.35 162.839 353.44 162.694 353.487C162.549 353.534 162.393 353.538 162.247 353.497C162.1 353.456 161.969 353.372 161.869 353.257C161.77 353.141 161.708 352.999 161.689 352.847C161.671 352.696 161.698 352.543 161.767 352.407C161.836 352.271 161.944 352.159 162.077 352.084C162.209 352.009 162.361 351.976 162.513 351.988C162.665 351.999 162.81 352.056 162.93 352.15C163.09 352.276 163.194 352.461 163.218 352.663C163.243 352.866 163.186 353.07 163.06 353.23Z" fill="black"/>
<path opacity="0.15" d="M164.06 358.65C163.967 358.771 163.84 358.862 163.695 358.911C163.55 358.96 163.394 358.964 163.246 358.924C163.098 358.884 162.966 358.8 162.866 358.685C162.766 358.569 162.703 358.426 162.685 358.274C162.666 358.122 162.693 357.969 162.763 357.832C162.832 357.696 162.94 357.583 163.074 357.509C163.208 357.434 163.36 357.401 163.513 357.414C163.665 357.427 163.81 357.485 163.93 357.58C164.009 357.642 164.075 357.718 164.124 357.805C164.174 357.893 164.205 357.989 164.217 358.088C164.229 358.187 164.222 358.288 164.195 358.385C164.168 358.481 164.122 358.571 164.06 358.65Z" fill="black"/>
<path d="M159.27 336.73C159.208 336.688 159.165 336.623 159.15 336.55C159.132 336.471 159.146 336.387 159.189 336.318C159.232 336.249 159.301 336.199 159.38 336.18C159.6 336.13 164.6 335.04 168.56 337.82C168.623 337.868 168.666 337.938 168.679 338.016C168.692 338.094 168.674 338.174 168.63 338.24C168.583 338.308 168.512 338.354 168.432 338.369C168.351 338.384 168.268 338.366 168.2 338.32C164.46 335.7 159.56 336.77 159.51 336.78C159.469 336.789 159.426 336.788 159.385 336.78C159.344 336.771 159.305 336.754 159.27 336.73Z" fill="#263238"/>
<path d="M160.28 342.15C160.22 342.102 160.178 342.035 160.16 341.96C160.151 341.921 160.15 341.881 160.157 341.842C160.164 341.803 160.178 341.766 160.2 341.732C160.221 341.699 160.249 341.67 160.282 341.647C160.314 341.624 160.351 341.609 160.39 341.6C160.61 341.55 165.61 340.46 169.57 343.23C169.634 343.28 169.677 343.352 169.69 343.431C169.703 343.511 169.685 343.593 169.64 343.66C169.592 343.726 169.52 343.77 169.439 343.783C169.359 343.797 169.277 343.777 169.21 343.73C165.48 341.12 160.57 342.19 160.52 342.2C160.479 342.209 160.436 342.209 160.395 342.2C160.354 342.191 160.315 342.174 160.28 342.15Z" fill="#263238"/>
<path d="M161.27 347.58C161.21 347.536 161.168 347.472 161.15 347.4C161.135 347.32 161.151 347.236 161.196 347.167C161.241 347.098 161.31 347.049 161.39 347.03C161.6 347.03 166.6 345.89 170.57 348.66C170.603 348.682 170.632 348.711 170.654 348.744C170.676 348.778 170.69 348.815 170.697 348.855C170.703 348.894 170.702 348.935 170.692 348.974C170.682 349.012 170.664 349.049 170.64 349.08C170.593 349.148 170.522 349.194 170.442 349.209C170.361 349.224 170.278 349.206 170.21 349.16C166.48 346.55 161.57 347.61 161.52 347.62C161.478 347.632 161.434 347.634 161.391 347.627C161.348 347.62 161.307 347.604 161.27 347.58Z" fill="#263238"/>
<path d="M162.27 353C162.211 352.955 162.169 352.892 162.15 352.82C162.135 352.74 162.151 352.656 162.196 352.587C162.241 352.518 162.31 352.469 162.39 352.45C162.6 352.45 167.61 351.31 171.57 354.09C171.608 354.112 171.641 354.141 171.667 354.176C171.693 354.211 171.711 354.251 171.721 354.294C171.73 354.336 171.731 354.38 171.722 354.423C171.713 354.466 171.695 354.506 171.67 354.542C171.644 354.577 171.611 354.607 171.574 354.629C171.536 354.65 171.494 354.664 171.451 354.669C171.407 354.673 171.363 354.669 171.322 354.655C171.28 354.642 171.242 354.619 171.21 354.59C167.48 351.98 162.57 353.05 162.52 353.06C162.476 353.068 162.432 353.067 162.389 353.056C162.346 353.046 162.305 353.027 162.27 353Z" fill="#263238"/>
<path d="M163.28 358.43C163.249 358.41 163.222 358.383 163.202 358.352C163.181 358.321 163.167 358.287 163.16 358.25C163.15 358.211 163.147 358.17 163.154 358.129C163.16 358.089 163.174 358.05 163.195 358.016C163.217 357.981 163.245 357.951 163.279 357.928C163.312 357.905 163.35 357.888 163.39 357.88C163.6 357.83 168.61 356.74 172.57 359.51C172.636 359.558 172.68 359.63 172.693 359.711C172.706 359.791 172.687 359.874 172.64 359.94C172.592 360.006 172.521 360.05 172.441 360.065C172.361 360.08 172.278 360.064 172.21 360.02C168.48 357.4 163.57 358.47 163.53 358.48C163.487 358.491 163.443 358.492 163.399 358.483C163.356 358.474 163.315 358.456 163.28 358.43Z" fill="#263238"/>
<path d="M177.46 399.66L184.56 396.42L181.84 391.65L177.64 396.13L177.46 399.66Z" fill="black"/>
<path d="M169 387C169 387 169 391.76 169.06 393.26C169.12 394.76 175.79 398.97 177.42 399.63L177.6 396.1C179.06 397.38 179.99 399.1 181.6 401.51C182.97 403.51 184.8 407.51 188.36 410C193.64 413.74 201.58 415.28 209.56 415C217.54 414.72 221.96 412.48 224.1 410.6C226.24 408.72 226.83 406.66 226.1 404.68C225.37 402.7 169 387 169 387Z" fill="#263238"/>
<path d="M189.22 369.4L189.13 366.64C190.59 366.49 191.04 370.47 193.42 373.82C196.61 378.32 201.25 383.93 205.59 387.37C214.15 394.18 221.67 398.31 225.49 401.37C230.61 405.47 222.63 413.09 209.59 413.24C203.12 413.32 191.45 410.86 187.97 407.24C184.49 403.62 182.12 397.84 179.35 395.24C176.58 392.64 170.87 390.24 169.04 386.99C168.04 385.2 168.2 380.86 168.48 377.17C168.73 373.78 168.48 368.62 170.41 368.91L170.66 370.63C171.53 372.04 173.49 374.35 178.75 374.87C181.37 375.17 189.13 374.88 189.22 369.4Z" fill="#37474F"/>
<path d="M182.93 374.76C185.39 374.38 188.01 373.38 188.93 371.07C188.93 371.07 188.93 371.02 188.93 371C188.847 371.957 188.984 372.921 189.331 373.817C189.677 374.713 190.224 375.518 190.93 376.17C193.44 378.73 209.41 396.89 209.41 396.89C209.41 396.89 194.72 382 191.9 379.22C187.73 375.08 186.47 374.65 182.9 374.77L182.93 374.76Z" fill="#263238"/>
<path opacity="0.15" d="M186.52 379.62C186.516 379.725 186.492 379.828 186.448 379.923C186.404 380.018 186.341 380.103 186.264 380.174C186.187 380.244 186.096 380.299 185.998 380.335C185.899 380.37 185.795 380.385 185.69 380.38C185.479 380.37 185.28 380.277 185.136 380.122C184.992 379.967 184.914 379.762 184.92 379.55C184.924 379.445 184.948 379.343 184.992 379.248C185.036 379.153 185.099 379.067 185.176 378.996C185.253 378.926 185.344 378.871 185.442 378.836C185.541 378.8 185.645 378.785 185.75 378.79C185.961 378.8 186.16 378.893 186.304 379.048C186.448 379.203 186.525 379.409 186.52 379.62Z" fill="black"/>
<path opacity="0.15" d="M190.64 383.6C190.611 383.796 190.511 383.974 190.358 384.1C190.205 384.226 190.011 384.291 189.813 384.282C189.616 384.274 189.428 384.192 189.287 384.053C189.146 383.914 189.062 383.728 189.05 383.53C189.053 383.426 189.076 383.323 189.119 383.228C189.162 383.133 189.223 383.048 189.3 382.977C189.376 382.906 189.466 382.851 189.564 382.816C189.662 382.78 189.766 382.765 189.87 382.77C190.081 382.78 190.28 382.873 190.424 383.028C190.568 383.183 190.646 383.389 190.64 383.6Z" fill="black"/>
<path opacity="0.15" d="M194.76 387.57C194.756 387.675 194.732 387.778 194.688 387.873C194.644 387.968 194.581 388.053 194.504 388.124C194.427 388.195 194.336 388.249 194.238 388.285C194.139 388.32 194.035 388.336 193.93 388.33C193.826 388.326 193.724 388.302 193.63 388.259C193.536 388.215 193.451 388.154 193.38 388.078C193.309 388.002 193.255 387.912 193.219 387.815C193.182 387.718 193.166 387.614 193.17 387.51C193.178 387.3 193.268 387.101 193.422 386.957C193.575 386.813 193.78 386.735 193.99 386.74C194.201 386.751 194.4 386.843 194.544 386.998C194.688 387.154 194.765 387.359 194.76 387.57Z" fill="black"/>
<path opacity="0.15" d="M198.88 391.55C198.874 391.709 198.821 391.862 198.727 391.99C198.634 392.118 198.505 392.216 198.356 392.27C198.207 392.325 198.045 392.334 197.891 392.297C197.737 392.259 197.598 392.176 197.491 392.06C197.383 391.943 197.313 391.796 197.29 391.64C197.266 391.483 197.289 391.323 197.356 391.179C197.424 391.035 197.533 390.915 197.668 390.834C197.804 390.752 197.962 390.712 198.12 390.72C198.225 390.724 198.327 390.749 198.422 390.793C198.518 390.837 198.603 390.899 198.674 390.976C198.744 391.053 198.799 391.144 198.834 391.242C198.87 391.341 198.885 391.446 198.88 391.55Z" fill="black"/>
<path opacity="0.15" d="M203 395.52C202.989 395.731 202.897 395.93 202.742 396.074C202.587 396.218 202.381 396.296 202.17 396.29C202.012 396.284 201.859 396.231 201.731 396.138C201.603 396.046 201.505 395.917 201.45 395.769C201.395 395.62 201.386 395.459 201.422 395.305C201.459 395.151 201.54 395.012 201.656 394.904C201.772 394.797 201.918 394.726 202.074 394.701C202.23 394.676 202.39 394.698 202.534 394.763C202.678 394.829 202.799 394.936 202.882 395.071C202.964 395.206 203.006 395.362 203 395.52Z" fill="black"/>
<path d="M185.72 379.91C185.657 379.912 185.595 379.895 185.541 379.861C185.488 379.827 185.446 379.778 185.42 379.72C185.394 379.663 185.386 379.598 185.397 379.536C185.408 379.474 185.437 379.416 185.48 379.37C185.63 379.21 189.2 375.26 194.22 375.21C194.305 375.21 194.386 375.244 194.446 375.304C194.506 375.364 194.54 375.445 194.54 375.53C194.54 375.615 194.506 375.696 194.446 375.757C194.386 375.817 194.305 375.85 194.22 375.85C189.49 375.85 185.99 379.76 185.96 379.8C185.897 379.867 185.811 379.906 185.72 379.91Z" fill="#263238"/>
<path d="M189.84 383.87C189.763 383.87 189.688 383.841 189.63 383.79C189.571 383.73 189.538 383.649 189.538 383.565C189.538 383.481 189.571 383.4 189.63 383.34C189.78 383.17 193.35 379.22 198.37 379.17C198.455 379.17 198.536 379.204 198.596 379.264C198.656 379.324 198.69 379.405 198.69 379.49C198.69 379.575 198.656 379.656 198.596 379.716C198.536 379.776 198.455 379.81 198.37 379.81C193.65 379.86 190.14 383.72 190.11 383.76C190.077 383.799 190.035 383.829 189.988 383.848C189.941 383.867 189.891 383.875 189.84 383.87Z" fill="#263238"/>
<path d="M194 387.86C193.923 387.86 193.848 387.831 193.79 387.78C193.731 387.72 193.698 387.639 193.698 387.555C193.698 387.471 193.731 387.39 193.79 387.33C193.94 387.16 197.51 383.21 202.53 383.16C202.615 383.16 202.696 383.194 202.756 383.254C202.816 383.314 202.85 383.395 202.85 383.48C202.85 383.565 202.816 383.646 202.756 383.706C202.696 383.766 202.615 383.8 202.53 383.8C197.81 383.85 194.3 387.71 194.27 387.75C194.237 387.789 194.195 387.819 194.148 387.838C194.101 387.857 194.05 387.864 194 387.86Z" fill="#263238"/>
<path d="M198.08 391.84C198.002 391.836 197.927 391.804 197.87 391.75C197.811 391.69 197.778 391.609 197.778 391.525C197.778 391.441 197.811 391.36 197.87 391.3C198.02 391.13 201.59 387.19 206.61 387.14C206.695 387.14 206.776 387.174 206.836 387.234C206.896 387.294 206.93 387.375 206.93 387.46C206.93 387.545 206.896 387.626 206.836 387.686C206.776 387.746 206.695 387.78 206.61 387.78C201.89 387.83 198.38 391.69 198.35 391.78C198.312 391.81 198.269 391.83 198.222 391.841C198.175 391.851 198.127 391.851 198.08 391.84Z" fill="#263238"/>
<path d="M202.2 395.81C202.123 395.81 202.048 395.781 201.99 395.73C201.931 395.67 201.897 395.589 201.897 395.505C201.897 395.421 201.931 395.34 201.99 395.28C202.14 395.11 205.71 391.16 210.73 391.11C210.812 391.115 210.89 391.151 210.947 391.21C211.004 391.269 211.038 391.348 211.04 391.43C211.04 391.515 211.006 391.596 210.946 391.656C210.886 391.716 210.805 391.75 210.72 391.75C206 391.8 202.5 395.66 202.46 395.7C202.428 395.737 202.388 395.766 202.343 395.785C202.298 395.804 202.249 395.813 202.2 395.81Z" fill="#263238"/>
<path d="M182.15 328C184.57 319.69 188.24 307 190.58 298.49C194.31 284.93 196.87 270.83 195.58 264.24C193.91 255.35 185.23 246.24 172.67 237.75C159 228.5 141 216.42 141 216.42L66.87 217.42C67.08 229.37 65.19 238.72 69.46 250.08C73.23 260.08 79.54 265.83 98.88 277.26C112.61 285.36 128.68 294.5 132.15 296.78C136.55 299.66 140.7 301.97 142.04 309.48C143.32 316.64 144.72 329.06 151.82 344.48C159.94 362.16 167.19 377.89 167.19 377.89C167.19 377.89 183 381.43 193 369.79C193 369.79 187.82 349.53 182.15 328Z" fill="#455A64"/>
<path d="M181.9 326.06C176.56 305.87 171.14 285.89 169.48 281.56C165.93 272.37 129.78 244.71 128.66 243.82C128.66 243.82 135.93 239.89 140.22 228.87C139.89 237.87 135.88 241.87 134.58 244.13C140.05 248.65 152.42 258.24 157.97 263.13C164.97 269.24 172.28 276.5 174.61 285.97C176.34 293 180.08 315.07 181.9 326.06Z" fill="#37474F"/>
<path d="M174.89 166.12C185.22 157.22 188.19 154.75 189.2 151.7C190.21 148.65 190.12 145.97 190.61 141.1C191.1 136.23 191.75 131.67 192.06 129.1C192.38 126.39 194.06 125.56 196.06 128.1C197.76 130.33 197.26 133.9 197.48 136.35C197.73 139.25 199.28 138.97 200.91 137.01C202.54 135.05 210.21 125.26 212.98 122.42C215.75 119.58 217.89 120 218.79 121.28C219.31 122.01 217.88 123.72 214.53 128.19C211.18 132.66 209.35 134.82 209.67 135.06C209.99 135.3 211.91 133 215.9 128.96C219.57 125.23 220.63 124.12 222.58 123.19C224.89 122.09 226.15 124.42 224.98 125.93C223.81 127.44 222.98 128.56 217.84 134.23C214.27 138.17 214.04 138.72 214.33 139.01C214.62 139.3 216.33 137.84 220.19 134.5C224.34 130.95 226.47 129.81 227.92 130.89C228.132 131.111 228.271 131.392 228.316 131.695C228.36 131.998 228.309 132.307 228.17 132.58C227.046 134.279 225.642 135.777 224.02 137.01C221.42 139.23 220.59 140.08 219.28 141.22C217.97 142.36 217.79 142.85 218.1 143.17C218.41 143.49 220.8 142.06 225.66 138.28C227.39 136.94 229.66 139.28 226.44 142.23C224.72 143.82 217.33 151.33 213.17 155.15C208.51 159.44 205.03 160.76 201.3 164.57C198 168.05 185 182 185 182L174.89 166.12Z" fill="#C8856A"/>
<path d="M199.62 141.7C201.92 146.25 201.47 153.39 198.62 157.35C203.2 154.91 204.52 146.5 199.62 141.7Z" fill="#AF6152"/>
<path d="M125.76 171.15L121.15 130.41C131.15 131.81 135.4 134.34 142.66 144.41C146.66 150.01 155.83 162.21 164.36 173.28L184.8 155.7C184.8 155.7 194.92 163.05 197.5 171.29C197.5 171.29 173.7 196.29 168.35 200.78C163.47 204.86 159.75 207.35 151.66 199.71C143.57 192.07 128 174.3 125.76 171.15Z" fill="#F0F0F0"/>
<path d="M189.69 171.32C188.475 169.844 187.176 168.438 185.8 167.11C184.379 165.622 182.68 164.427 180.8 163.59C180.38 163.43 180.15 163.88 180.5 164.15C183.531 166.408 186.274 169.027 188.67 171.95C189.757 173.269 190.739 174.67 191.61 176.14C191.76 176.4 191.9 176.66 192.04 176.93L192.88 176.06C191.977 174.378 190.909 172.79 189.69 171.32Z" fill="#E0E0E0"/>
<path d="M164.36 173.25C160.03 176.83 156 183.25 155.7 188.06C155.36 180.55 157.9 175.37 162.75 171.15L164.36 173.25Z" fill="#E0E0E0"/>
<path d="M61.7499 141.85C61.7499 141.85 55.3399 152.42 59.3499 169.66C62.4899 183.19 65.1699 188.32 65.7399 202.45C66.4799 220.79 66.2099 237.26 66.2099 237.26C90.8499 245.52 133.82 231.37 140.95 216.42C140.95 216.42 138.39 204.22 133.76 153.95C133.34 149.382 132.008 144.945 129.842 140.901C127.676 136.858 124.72 133.29 121.15 130.41L108.47 128.89L90.7199 128.67L80.5899 132.57L61.7499 141.85Z" fill="#FAFAFA"/>
<path d="M124.14 75.1501C120.35 68.7701 114 65.0001 103 65.5701C89.66 66.2601 82.73 72.7601 81.78 78.2101C79.572 79.1135 77.7864 80.817 76.78 82.9801C75.51 85.3901 74.61 89.8101 78.03 102.43C79.3245 107.347 81.3469 112.042 84.03 116.36C84.816 117.759 86.1136 118.798 87.65 119.26L87.41 109.56L87.06 105.69C87.06 105.69 91.89 105.31 92 92.0001C92 90.2001 92.19 88.7301 92.12 87.5201L125.47 89.7501C125.47 89.7501 127.94 81.5301 124.14 75.1501Z" fill="#263238"/>
<path d="M78.6099 112.4C82.4099 114.4 85.9299 110.88 85.9299 110.88L86.6599 130.88C86.6599 130.88 87.0499 134.74 93.1899 138.13C101.91 142.95 107.42 143.61 111.19 148.75C114.01 140.13 115.42 135.8 109.85 129.26V123.87C112.594 123.964 115.338 123.692 118.01 123.06C123.31 121.53 125.29 118.72 126.29 113.57C127.7 106.31 127.22 96.93 124.56 84.79C124.085 82.4164 122.78 80.2895 120.88 78.79C115 74.35 106.26 78.62 98.8099 81.51C95.7299 82.7 89.6299 82.95 87.6599 82.02C90.2499 84.89 90.8499 92.02 89.3599 99.21C88.8399 101.69 87.9799 102.21 87.4399 102.21C85.2799 102.15 84.4399 99.49 83.1099 98.06C81.7799 96.63 76.6099 95.35 74.3899 100.06C73.8552 101.147 73.5401 102.329 73.4628 103.538C73.3856 104.747 73.5476 105.959 73.9396 107.106C74.3316 108.252 74.9459 109.31 75.7473 110.218C76.5487 111.127 77.5215 111.868 78.6099 112.4Z" fill="#C8856A"/>
<path d="M109.8 123.87C102.55 123.46 97.4099 122.2 94.6199 120.05C92.0706 117.901 89.9647 115.275 88.4199 112.32C88.4199 112.32 89.4999 119.17 93.4999 122.32C97.4999 125.47 102.22 127.24 109.81 127.24L109.8 123.87Z" fill="#AF6152"/>
<path d="M105.37 90.8001L100.06 91.5101C99.9847 90.7907 100.189 90.0699 100.63 89.4967C101.071 88.9234 101.715 88.5416 102.43 88.4301C102.78 88.3842 103.136 88.4098 103.476 88.5054C103.815 88.6009 104.132 88.7644 104.407 88.986C104.682 89.2075 104.909 89.4825 105.075 89.7943C105.24 90.1062 105.341 90.4483 105.37 90.8001Z" fill="#263238"/>
<path d="M101.67 96.8601C101.684 97.2913 101.826 97.7087 102.077 98.0593C102.329 98.4099 102.679 98.678 103.083 98.8296C103.487 98.9812 103.926 99.0096 104.347 98.911C104.767 98.8125 105.148 98.5915 105.442 98.2761C105.737 97.9607 105.931 97.565 106 97.1391C106.07 96.7132 106.011 96.2764 105.832 95.8838C105.653 95.4912 105.361 95.1607 104.994 94.9339C104.627 94.7072 104.201 94.5945 103.77 94.6101C103.193 94.6309 102.649 94.8794 102.255 95.3012C101.861 95.7229 101.651 96.2835 101.67 96.8601Z" fill="#263238"/>
<path d="M118 88.8101L123 90.6901C123.236 90.0063 123.2 89.2577 122.898 88.6002C122.596 87.9426 122.053 87.4268 121.38 87.1601C121.05 87.0395 120.699 86.9868 120.349 87.005C119.998 87.0232 119.655 87.112 119.339 87.266C119.023 87.4201 118.742 87.6362 118.512 87.9015C118.282 88.1669 118.108 88.4759 118 88.8101Z" fill="#263238"/>
<path d="M122.33 95.4601C122.314 95.8904 122.171 96.3063 121.919 96.6554C121.667 97.0045 121.317 97.2711 120.913 97.4216C120.51 97.572 120.071 97.5996 119.652 97.5009C119.232 97.4021 118.852 97.1815 118.558 96.8667C118.264 96.5519 118.07 96.1572 118 95.7322C117.93 95.3073 117.988 94.8712 118.166 94.479C118.344 94.0868 118.634 93.756 118.999 93.5284C119.365 93.3008 119.79 93.1865 120.22 93.2001C120.799 93.2209 121.346 93.4705 121.742 93.8941C122.137 94.3177 122.349 94.8808 122.33 95.4601Z" fill="#263238"/>
<path d="M110.39 91.4202L112.17 105.31L119.51 102.61C117.35 98.2422 114.232 94.4173 110.39 91.4202Z" fill="#AF6152"/>
<path d="M106.72 109L114.11 110.34C114.044 110.832 113.88 111.305 113.628 111.732C113.375 112.159 113.039 112.531 112.639 112.825C112.24 113.119 111.785 113.329 111.302 113.444C110.82 113.558 110.319 113.574 109.83 113.49C108.832 113.289 107.95 112.708 107.371 111.871C106.791 111.034 106.558 110.005 106.72 109Z" fill="#AF6152"/>
<path d="M107.65 110.2C107.348 110.164 107.042 110.164 106.74 110.2C106.85 111 107.206 111.747 107.76 112.335C108.314 112.923 109.038 113.323 109.83 113.48C110.227 113.55 110.633 113.55 111.03 113.48C110.992 112.605 110.62 111.778 109.992 111.168C109.364 110.558 108.526 110.212 107.65 110.2Z" fill="#F28F8F"/>
<path d="M114.29 147.21C114.29 147.21 117.14 140.75 116.98 138.3L112.73 134.47L112.17 144.75L114.29 147.21Z" fill="#EF5050"/>
<path opacity="0.2" d="M114.29 147.21C114.29 147.21 117.14 140.75 116.98 138.3L112.73 134.47L112.17 144.75L114.29 147.21Z" fill="black"/>
<path d="M108.7 145.38L101.63 141.24L96.23 145.41L106.99 150.02L108.7 145.38Z" fill="#EF5050"/>
<path opacity="0.2" d="M108.7 145.38L101.63 141.24L96.23 145.41L106.99 150.02L108.7 145.38Z" fill="black"/>
<path d="M110.5 197C109.57 175.16 110.4 158.49 109.64 153.21L113.33 152.6C116.33 158.79 125.84 177.15 126.66 192.23C127.2 197.47 124.66 209.58 121.15 209.95C117.64 210.32 110.64 200.24 110.5 197Z" fill="#EF5050"/>
<path opacity="0.1" d="M110.5 197C109.57 175.16 110.4 158.49 109.64 153.21L113.33 152.6C116.33 158.79 125.84 177.15 126.66 192.23C127.2 197.47 124.66 209.58 121.15 209.95C117.64 210.32 110.64 200.24 110.5 197Z" fill="white"/>
<path opacity="0.2" d="M113.71 153.41C113.55 153.09 113.44 152.87 113.33 152.63L109.64 153.24C109.71 153.69 109.75 154.13 109.81 154.84C111.232 154.805 112.603 154.302 113.71 153.41Z" fill="black"/>
<path d="M108.58 144.88C109.725 144.62 110.896 144.489 112.07 144.49C112.99 145.234 113.746 146.16 114.29 147.21C114.353 149.068 114.012 150.917 113.29 152.63C112.756 152.994 112.149 153.236 111.512 153.342C110.875 153.447 110.222 153.412 109.6 153.24C108.323 152.422 107.314 151.247 106.7 149.86C106.646 148.017 107.322 146.228 108.58 144.88Z" fill="#EF5050"/>
<path opacity="0.1" d="M108.58 144.88C109.725 144.62 110.896 144.489 112.07 144.49C112.99 145.234 113.746 146.16 114.29 147.21C114.353 149.068 114.012 150.917 113.29 152.63C112.756 152.994 112.149 153.236 111.512 153.342C110.875 153.447 110.222 153.412 109.6 153.24C108.323 152.422 107.314 151.247 106.7 149.86C106.646 148.017 107.322 146.228 108.58 144.88Z" fill="white"/>
<path d="M108.65 144.86C108.53 144.86 108.39 145.16 108.27 145.18C105.61 143.95 105.17 143.5 104.49 143.74C103.22 144.19 100.49 149.74 99.8401 151.58C99.1901 153.42 99.3201 153.34 96.8401 151.9C92.4813 149.351 88.6109 146.046 85.4101 142.14C83.2335 139.272 81.6031 136.028 80.6001 132.57C81.6331 131.259 82.5657 129.872 83.3901 128.42C84.7701 125.56 84.8401 124.26 86.3901 124.42L86.4601 126.35C86.8801 128.75 90.7301 130.9 94.2801 133.61C97.8301 136.32 103.47 138.77 104.83 139.94C106.301 141.417 107.584 143.069 108.65 144.86Z" fill="#E6E6E6"/>
<path d="M121 146.16C120.68 147.16 117.08 139.65 115.55 139.91C114.82 140.01 113.28 142.2 112.03 144.49H111.03C111.699 142.552 112.113 140.535 112.26 138.49C112.42 135.84 109.83 129.19 109.83 129.19V126.19C110.24 126.19 111.16 126.19 111.68 126.13C112.09 126.5 112.9 128.13 113.68 129.07C115.49 131.32 119.68 134.6 120.31 137.51C121.029 140.333 121.262 143.259 121 146.16Z" fill="#E6E6E6"/>
<path d="M66.19 139.67C56.67 142.95 49.08 147.13 46.79 156.38C44.5 165.63 42.45 187.84 41.23 201.22C40.23 212.69 41.57 222.85 45 227.22L67 213.73L72.88 177.2C72.88 177.2 76 149.67 66.19 139.67Z" fill="#F0F0F0"/>
<path d="M66.57 196.46C65 199.53 62.88 200.96 58.24 204.06C53.91 206.95 48.83 209.83 46.79 215.31C46.89 210.51 49.1 207.81 54.41 203.67C59.72 199.53 67.63 194.38 67.63 194.38L66.57 196.46Z" fill="#E0E0E0"/>
<path d="M66.5701 196.46C65.0001 199.53 62.8801 200.96 58.2401 204.06C53.9101 206.95 48.8301 209.83 46.7901 215.31C44.9901 220.14 42.8801 224.26 45.0001 227.25C46.4601 229.31 53.1901 229.72 59.3001 228.38C65.4101 227.04 68.8101 222.63 74.3601 217.27C79.1201 212.68 80.9201 210.8 80.9201 210.8L66.5701 196.46Z" fill="#F0F0F0"/>
<path d="M75.48 199.45C72.87 197.74 72.02 195.62 68.48 194.45C64.94 193.28 62.89 193.78 59.12 192.74C55.35 191.7 52.39 191.39 49.99 192.74C47.59 194.09 48.3 195.5 50.49 196.32C52.68 197.14 56.33 198.04 58.99 199.25C61.65 200.46 64.1 200.94 64.71 203.87C65.5594 208.545 66.1602 213.262 66.51 218C66.89 223 66.75 227.2 67.22 227.65C67.69 228.1 69.85 227.91 70.58 224.9C71.31 221.89 70.91 211.58 70.91 211.58C70.91 211.58 73.29 218.3 74.67 222.98C76.05 227.66 76.96 231.28 77.31 232.27C77.66 233.26 80.87 231.77 80.66 228.07C80.45 224.37 77.54 213.85 77.54 213.85C77.54 213.85 81.36 218.11 83.82 220.85C86.28 223.59 89.4 227.44 90.36 228.34C91.32 229.24 93.06 226.93 91.96 224.18C90.86 221.43 85.73 215.18 85.73 215.18C85.73 215.18 91.12 218.89 91.99 219.18C92.86 219.47 95.14 218.62 93.68 215.63C92.68 213.63 91.07 212.57 86.68 209.24C82.29 205.91 81.97 204.24 80.47 202.58C78.5 200.44 77.38 200.7 75.48 199.45Z" fill="#C8856A"/>
<path d="M67 202.94C70.86 203.78 74 201.47 74.3 200.49C74.57 203 70 205.41 67 202.94Z" fill="#AF6152"/>
<path d="M94.1499 217.45C93.8842 217.781 93.501 217.997 93.08 218.053C92.6591 218.109 92.2328 218 91.8899 217.75C90.8899 217.19 88.1299 215.18 86.8899 214.25C85.6499 213.32 81.3999 210 81.3999 210L85.7299 215.21C85.7299 215.21 91.1199 218.92 91.9899 219.21C92.2519 219.271 92.5245 219.272 92.7867 219.211C93.0489 219.15 93.2936 219.031 93.5023 218.861C93.7109 218.691 93.8777 218.475 93.99 218.231C94.1023 217.986 94.157 217.719 94.1499 217.45Z" fill="#AF6152"/>
<path d="M317.42 307.18L330.83 423.53C330.864 423.789 330.962 424.036 331.115 424.247C331.269 424.459 331.474 424.628 331.71 424.74C332.372 425.076 333.103 425.25 333.845 425.25C334.587 425.25 335.318 425.076 335.98 424.74C336.216 424.628 336.421 424.459 336.575 424.247C336.728 424.036 336.826 423.789 336.86 423.53L326 307.18C325.965 306.805 325.831 306.446 325.611 306.141C325.391 305.835 325.094 305.593 324.75 305.44C323.819 304.971 322.792 304.727 321.75 304.727C320.708 304.727 319.681 304.971 318.75 305.44C318.391 305.582 318.077 305.818 317.843 306.125C317.609 306.432 317.462 306.796 317.42 307.18ZM168.52 423.53C168.549 423.791 168.645 424.04 168.8 424.252C168.954 424.464 169.161 424.632 169.4 424.74C170.06 425.076 170.79 425.25 171.53 425.25C172.27 425.25 173 425.076 173.66 424.74C173.899 424.632 174.106 424.464 174.26 424.252C174.415 424.04 174.511 423.791 174.54 423.53L188 307.18C187.967 306.805 187.834 306.445 187.614 306.139C187.394 305.832 187.095 305.591 186.75 305.44C185.819 304.971 184.792 304.727 183.75 304.727C182.708 304.727 181.681 304.971 180.75 305.44C180.406 305.592 180.109 305.833 179.891 306.14C179.673 306.446 179.541 306.805 179.51 307.18L168.52 423.53ZM248.07 325.11L249.44 451.11C249.48 451.397 249.593 451.669 249.768 451.9C249.943 452.131 250.175 452.313 250.44 452.43C251.166 452.795 251.967 452.985 252.78 452.985C253.593 452.985 254.394 452.795 255.12 452.43C255.387 452.316 255.62 452.134 255.795 451.903C255.971 451.671 256.082 451.398 256.12 451.11L257.49 325.11C257.452 324.697 257.305 324.302 257.065 323.965C256.824 323.627 256.498 323.36 256.12 323.19C255.093 322.672 253.96 322.403 252.81 322.403C251.66 322.403 250.527 322.672 249.5 323.19C249.11 323.351 248.771 323.614 248.52 323.952C248.268 324.29 248.112 324.691 248.07 325.11Z" fill="#EF5050"/>
<g opacity="0.3">
<path opacity="0.3" d="M317.42 307.18L330.83 423.53C330.864 423.789 330.962 424.036 331.115 424.247C331.269 424.459 331.474 424.628 331.71 424.74C332.372 425.076 333.103 425.25 333.845 425.25C334.587 425.25 335.318 425.076 335.98 424.74C336.216 424.628 336.421 424.459 336.575 424.247C336.728 424.036 336.826 423.789 336.86 423.53L326 307.18C325.965 306.805 325.831 306.446 325.611 306.141C325.391 305.835 325.094 305.593 324.75 305.44C323.819 304.971 322.792 304.727 321.75 304.727C320.708 304.727 319.681 304.971 318.75 305.44C318.391 305.582 318.077 305.818 317.843 306.125C317.609 306.432 317.462 306.796 317.42 307.18ZM168.52 423.53C168.549 423.791 168.645 424.04 168.8 424.252C168.954 424.464 169.161 424.632 169.4 424.74C170.06 425.076 170.79 425.25 171.53 425.25C172.27 425.25 173 425.076 173.66 424.74C173.899 424.632 174.106 424.464 174.26 424.252C174.415 424.04 174.511 423.791 174.54 423.53L188 307.18C187.967 306.805 187.834 306.445 187.614 306.139C187.394 305.832 187.095 305.591 186.75 305.44C185.819 304.971 184.792 304.727 183.75 304.727C182.708 304.727 181.681 304.971 180.75 305.44C180.406 305.592 180.109 305.833 179.891 306.14C179.673 306.446 179.541 306.805 179.51 307.18L168.52 423.53ZM248.07 325.11L249.44 451.11C249.48 451.397 249.593 451.669 249.768 451.9C249.943 452.131 250.175 452.313 250.44 452.43C251.166 452.795 251.967 452.985 252.78 452.985C253.593 452.985 254.394 452.795 255.12 452.43C255.387 452.316 255.62 452.134 255.795 451.903C255.971 451.671 256.082 451.398 256.12 451.11L257.49 325.11C257.452 324.697 257.305 324.302 257.065 323.965C256.824 323.627 256.498 323.36 256.12 323.19C255.093 322.672 253.96 322.403 252.81 322.403C251.66 322.403 250.527 322.672 249.5 323.19C249.11 323.351 248.771 323.614 248.52 323.952C248.268 324.29 248.112 324.691 248.07 325.11Z" fill="black"/>
</g>
<g opacity="0.15">
<path opacity="0.15" d="M248.44 358.92L248.07 325.11C248.107 324.697 248.253 324.301 248.494 323.964C248.735 323.626 249.062 323.359 249.44 323.19C250.467 322.672 251.6 322.403 252.75 322.403C253.9 322.403 255.034 322.672 256.06 323.19C256.438 323.36 256.764 323.628 257.005 323.965C257.245 324.302 257.392 324.697 257.43 325.11L257.06 358.91C254.2 359 251.3 359 248.44 358.92Z" fill="black"/>
<path opacity="0.15" d="M179.44 307.18C179.471 306.805 179.603 306.446 179.821 306.14C180.039 305.833 180.336 305.592 180.68 305.44C181.611 304.971 182.638 304.727 183.68 304.727C184.722 304.727 185.749 304.971 186.68 305.44C187.025 305.591 187.324 305.832 187.544 306.139C187.764 306.445 187.897 306.805 187.93 307.18L183.83 343C183.2 342.65 182.56 342.32 181.94 342C180.05 340.91 178.2 339.7 176.49 338.55L179.44 307.18Z" fill="black"/>
<path opacity="0.15" d="M318.67 305.44C319.6 304.971 320.628 304.727 321.67 304.727C322.712 304.727 323.739 304.971 324.67 305.44C325.014 305.593 325.311 305.835 325.531 306.141C325.751 306.446 325.885 306.805 325.92 307.18L328.86 338.58C327.13 339.75 325.28 340.96 323.36 342.07C322.76 342.41 322.14 342.74 321.53 343.07L317.39 307.18C317.428 306.802 317.566 306.441 317.792 306.135C318.017 305.829 318.32 305.589 318.67 305.44Z" fill="black"/>
</g>
<path d="M323.64 251.71C284.44 229.08 220.88 229.08 181.64 251.71C162.04 263.02 152.26 277.85 152.26 292.71C152.26 295.71 152.26 292.54 152.26 295.59C152.26 310.42 162.04 325.25 181.64 336.59C220.84 359.23 284.4 359.23 323.64 336.59C343.24 325.27 353.02 310.44 353.01 295.59V292.71C353 277.85 343.24 263 323.64 251.71Z" fill="#EF5050"/>
<path opacity="0.2" d="M323.64 251.71C284.44 229.08 220.88 229.08 181.64 251.71C162.04 263.02 152.26 277.85 152.26 292.71C152.26 295.71 152.26 292.54 152.26 295.59C152.26 310.42 162.04 325.25 181.64 336.59C220.84 359.23 284.4 359.23 323.64 336.59C343.24 325.27 353.02 310.44 353.01 295.59V292.71C353 277.85 343.24 263 323.64 251.71Z" fill="black"/>
<path d="M323.72 244.19C284.52 221.55 220.97 221.55 181.72 244.19C162.12 255.5 152.34 270.33 152.34 285.19V290.14C152.34 304.97 162.12 319.8 181.72 331.14C220.92 353.78 284.47 353.78 323.72 331.14C343.32 319.83 353.11 302.94 353.1 288.14V285.26C353.11 270.33 343.32 255.5 323.72 244.19Z" fill="#EF5050"/>
<path opacity="0.4" d="M323.72 244.19C284.52 221.55 220.97 221.55 181.72 244.19C162.12 255.5 152.34 270.33 152.34 285.19V290.14C152.34 304.97 162.12 319.8 181.72 331.14C220.92 353.78 284.47 353.78 323.72 331.14C343.32 319.83 353.11 302.94 353.1 288.14V285.26C353.11 270.33 343.32 255.5 323.72 244.19Z" fill="white"/>
<path opacity="0.1" d="M323.72 244.19C284.52 221.55 220.97 221.55 181.72 244.19C162.12 255.5 152.34 270.33 152.34 285.19V290.14C152.34 304.97 162.12 319.8 181.72 331.14C220.92 353.78 284.47 353.78 323.72 331.14C343.32 319.83 353.11 302.94 353.1 288.14V285.26C353.11 270.33 343.32 255.5 323.72 244.19Z" fill="black"/>
<path d="M252.75 343.11C308.188 343.11 353.13 317.165 353.13 285.16C353.13 253.155 308.188 227.21 252.75 227.21C197.312 227.21 152.37 253.155 152.37 285.16C152.37 317.165 197.312 343.11 252.75 343.11Z" fill="#EF5050"/>
<path opacity="0.85" d="M252.75 343.11C308.188 343.11 353.13 317.165 353.13 285.16C353.13 253.155 308.188 227.21 252.75 227.21C197.312 227.21 152.37 253.155 152.37 285.16C152.37 317.165 197.312 343.11 252.75 343.11Z" fill="white"/>
<path opacity="0.2" d="M224.76 267L267.76 242.16C268.136 241.944 268.562 241.831 268.995 241.831C269.428 241.831 269.854 241.944 270.23 242.16L344.87 285.26C344.953 285.308 345.022 285.378 345.07 285.461C345.118 285.544 345.143 285.639 345.143 285.735C345.143 285.831 345.118 285.925 345.07 286.009C345.022 286.092 344.953 286.161 344.87 286.21L301.44 311.29L224.76 267Z" fill="#EF5050"/>
<path d="M228 261.73V262.73C228.002 263.43 228.188 264.117 228.539 264.722C228.89 265.327 229.394 265.83 230 266.18L299.53 306.31C300.137 306.663 300.828 306.847 301.53 306.84C302.232 306.842 302.921 306.659 303.53 306.31L341.42 284.5C342.025 284.151 342.527 283.65 342.878 283.046C343.229 282.443 343.416 281.758 343.42 281.06V279.72C343.421 279.807 343.398 279.893 343.354 279.969C343.31 280.045 343.246 280.107 343.17 280.15L301.55 304.15L228 261.73Z" fill="#37474F"/>
<path d="M228 261.72L269.23 237.92C269.591 237.714 269.999 237.605 270.415 237.605C270.831 237.605 271.239 237.714 271.6 237.92L343.11 279.22C343.189 279.267 343.254 279.334 343.299 279.413C343.344 279.493 343.368 279.583 343.368 279.675C343.368 279.767 343.344 279.857 343.299 279.937C343.254 280.016 343.189 280.083 343.11 280.13L301.5 304.13L228 261.72Z" fill="#455A64"/>
<path d="M301.85 300.66L324.09 287.84L259.07 250.3L236.72 263.06L301.85 300.66Z" fill="#37474F"/>
<path d="M236.72 263.06L237.57 263.55L259.07 251.28L323.23 288.33L324.08 287.84L259.07 250.3L236.72 263.06Z" fill="#263238"/>
<path d="M312.78 264.99L312.37 265.22L301.47 271.51L282.09 260.32L281.69 260.1L293 253.57L312.78 264.99Z" fill="#263238"/>
<path d="M312.37 265.22L301.47 271.51L282.09 260.32L293 254.03L312.37 265.22Z" fill="#37474F"/>
<path d="M301.47 304.16V306.8C300.768 306.807 300.077 306.623 299.47 306.27L230 266.14C229.394 265.79 228.89 265.287 228.539 264.682C228.188 264.077 228.002 263.39 228 262.69V261.69L301.47 304.16Z" fill="#263238"/>
<path d="M300.35 304.75C299.692 305.003 298.986 305.106 298.284 305.05C297.581 304.995 296.9 304.783 296.29 304.43L227.07 264.43C226.472 264.081 225.957 263.606 225.562 263.038C225.166 262.469 224.899 261.822 224.78 261.14L217.21 216C217.161 215.746 217.138 215.488 217.14 215.23C217.14 214.607 217.263 213.991 217.501 213.416C217.74 212.841 218.089 212.319 218.53 211.88L290.47 253.42C290.914 253.677 291.296 254.029 291.588 254.451C291.88 254.873 292.076 255.354 292.16 255.86L300.35 304.75Z" fill="#37474F"/>
<path d="M301.47 304.16L301 304.43C300.791 304.55 300.573 304.657 300.35 304.75L292.16 255.84C292.076 255.334 291.88 254.852 291.588 254.431C291.296 254.009 290.914 253.657 290.47 253.4L218.53 211.86C218.833 211.577 219.168 211.332 219.53 211.13L291.61 252.75C292.051 253.008 292.43 253.36 292.722 253.779C293.014 254.199 293.211 254.677 293.3 255.18L301.47 304.16Z" fill="#455A64"/>
<path d="M291.49 254.32L292.61 253.68C292.944 254.122 293.17 254.635 293.27 255.18L301.47 304.18L301 304.45C300.79 304.571 300.573 304.677 300.35 304.77L292.16 255.86C292.068 255.299 291.838 254.77 291.49 254.32Z" fill="#263238"/>
<path d="M261.37 263C260.86 260 257.73 256 254.37 254C251.01 252 248.72 253 249.23 256C249.74 259 252.86 263.05 256.23 265C259.6 266.95 261.87 266.05 261.37 263Z" fill="#EF5050"/>
<path d="M402.56 356.45H398.93V339.83C399.031 337.697 399.641 335.619 400.709 333.769C401.777 331.92 403.272 330.353 405.07 329.2L424.5 318C425.273 317.394 426.21 317.034 427.19 316.969C428.17 316.904 429.147 317.137 429.993 317.636C430.839 318.135 431.514 318.878 431.931 319.767C432.348 320.656 432.487 321.65 432.33 322.62L432 339.49L428.37 339.42L428.71 322.53C428.71 321.64 428.52 320.95 428.16 320.74C427.845 320.657 427.515 320.648 427.195 320.714C426.876 320.78 426.576 320.919 426.32 321.12L406.89 332.34C405.641 333.17 404.601 334.279 403.851 335.578C403.102 336.878 402.663 338.333 402.57 339.83L402.56 356.45Z" fill="#37474F"/>
<path d="M463.45 397.26L459.56 325.67C459.461 324.743 459.156 323.851 458.668 323.057C458.18 322.263 457.522 321.587 456.74 321.08L454.51 319.79C454.223 319.583 453.884 319.46 453.531 319.433C453.178 319.407 452.825 319.478 452.51 319.64L377.7 362.84L388 442.15L462.79 399C463.05 398.799 463.249 398.53 463.365 398.223C463.482 397.916 463.511 397.583 463.45 397.26Z" fill="#37474F"/>
<path d="M375 435.41L386.29 441.93C387.75 442.78 388.87 442.09 388.77 440.4L384.89 368.81C384.785 367.884 384.477 366.992 383.988 366.198C383.499 365.405 382.841 364.729 382.06 364.22L379.83 362.93C378.36 362.08 377.11 362.77 377.02 364.46L372.49 430.82C372.493 431.733 372.725 432.632 373.163 433.433C373.601 434.235 374.233 434.914 375 435.41Z" fill="#263238"/>
<path d="M414.32 420.38C414.055 420.38 413.801 420.275 413.613 420.087C413.425 419.9 413.32 419.645 413.32 419.38L411.32 385.84C411.309 385.702 411.327 385.563 411.372 385.433C411.417 385.302 411.489 385.182 411.583 385.081C411.677 384.979 411.791 384.898 411.918 384.843C412.045 384.788 412.182 384.76 412.32 384.76C412.458 384.749 412.597 384.767 412.727 384.812C412.858 384.857 412.978 384.929 413.08 385.023C413.181 385.117 413.262 385.231 413.317 385.358C413.372 385.485 413.401 385.622 413.4 385.76L415.4 419.3C415.411 419.438 415.394 419.577 415.348 419.707C415.303 419.838 415.231 419.958 415.137 420.059C415.043 420.161 414.929 420.242 414.802 420.297C414.675 420.352 414.538 420.38 414.4 420.38H414.32Z" fill="#EF5050"/>
<path d="M443 403.92C442.735 403.92 442.481 403.815 442.293 403.627C442.105 403.439 442 403.185 442 402.92L440 369.38C439.984 369.115 440.074 368.854 440.251 368.655C440.427 368.456 440.675 368.336 440.94 368.32C441.205 368.304 441.466 368.394 441.665 368.57C441.864 368.747 441.984 368.995 442 369.26L444 402.8C444.011 402.938 443.993 403.076 443.948 403.207C443.903 403.338 443.831 403.458 443.737 403.559C443.643 403.661 443.529 403.742 443.402 403.797C443.275 403.852 443.138 403.88 443 403.88V403.92Z" fill="#EF5050"/>
<path d="M394.5 401.86C393.697 402.32 392.79 402.567 391.865 402.578C390.94 402.589 390.027 402.363 389.214 401.922C388.401 401.482 387.713 400.84 387.217 400.059C386.721 399.278 386.433 398.384 386.38 397.46L384.84 368.8C384.731 367.876 384.421 366.988 383.93 366.198C383.439 365.408 382.78 364.736 382 364.23L379.78 362.94C379.519 362.756 379.217 362.637 378.9 362.594C378.584 362.55 378.261 362.583 377.96 362.69L452.54 319.63C452.85 319.455 453.205 319.375 453.561 319.4C453.917 319.425 454.257 319.553 454.54 319.77L456.79 321.06C457.568 321.571 458.224 322.247 458.712 323.041C459.199 323.834 459.506 324.725 459.61 325.65L461.09 354C461.239 356.763 460.622 359.513 459.305 361.947C457.988 364.381 456.024 366.403 453.63 367.79L394.5 401.86Z" fill="#455A64"/>
<path d="M420.68 383.49L431.52 377.23L431.99 383.23L421.12 389.51L420.68 383.49Z" fill="#EF5050"/>
<path d="M340.18 99L339.75 83C339.75 83 367.54 78.66 361.89 50.65C358.67 34.65 341.45 22.03 299.22 24.18C251.22 26.62 254.6 58.07 260.94 68.08C271.17 84.25 297.05 87.24 327.64 85.08L340.18 99Z" fill="#EF5050"/>
<path d="M333.39 44.1601H285C284.756 44.1601 284.522 44.0631 284.349 43.8906C284.177 43.7181 284.08 43.4841 284.08 43.2401C284.08 42.9961 284.177 42.7621 284.349 42.5895C284.522 42.417 284.756 42.3201 285 42.3201H333.38C333.624 42.3201 333.858 42.417 334.03 42.5895C334.203 42.7621 334.3 42.9961 334.3 43.2401C334.3 43.4841 334.203 43.7181 334.03 43.8906C333.858 44.0631 333.624 44.1601 333.38 44.1601H333.39Z" fill="white"/>
<path d="M339.15 55.71H279.25C278.985 55.71 278.73 55.6046 278.543 55.4171C278.355 55.2295 278.25 54.9752 278.25 54.71C278.25 54.4447 278.355 54.1904 278.543 54.0029C278.73 53.8153 278.985 53.71 279.25 53.71H339.15C339.415 53.71 339.67 53.8153 339.857 54.0029C340.045 54.1904 340.15 54.4447 340.15 54.71C340.15 54.9752 340.045 55.2295 339.857 55.4171C339.67 55.6046 339.415 55.71 339.15 55.71Z" fill="white"/>
<path d="M333.39 67.1501H285C284.756 67.1501 284.522 67.0531 284.349 66.8806C284.177 66.7081 284.08 66.4741 284.08 66.2301C284.08 65.9861 284.177 65.7521 284.349 65.5795C284.522 65.407 284.756 65.3101 285 65.3101H333.38C333.624 65.3101 333.858 65.407 334.03 65.5795C334.203 65.7521 334.3 65.9861 334.3 66.2301C334.3 66.4741 334.203 66.7081 334.03 66.8806C333.858 67.0531 333.624 67.1501 333.38 67.1501H333.39Z" fill="white"/>
<path d="M156.11 108.89L170.47 95.4C170.47 95.4 183.25 98 202.7 96.81C231.47 95.11 247.7 82.59 243.4 65.53C238.34 45.4 219.29 37.93 185 39.26C165.71 40.02 152.11 46.18 145.7 54.73C137.86 65.19 138.53 81.48 157.25 91.25L156.11 108.89Z" fill="#455A64"/>
<path d="M215.6 56.83H170.22C169.976 56.83 169.742 56.7331 169.57 56.5605C169.397 56.388 169.3 56.154 169.3 55.91C169.3 55.666 169.397 55.432 169.57 55.2594C169.742 55.0869 169.976 54.99 170.22 54.99H215.6C215.844 54.99 216.078 55.0869 216.251 55.2594C216.423 55.432 216.52 55.666 216.52 55.91C216.52 56.154 216.423 56.388 216.251 56.5605C216.078 56.7331 215.844 56.83 215.6 56.83Z" fill="white"/>
<path d="M221.36 68.3899H164.46C164.195 68.3899 163.94 68.2845 163.753 68.097C163.565 67.9095 163.46 67.6551 163.46 67.3899C163.46 67.1247 163.565 66.8703 163.753 66.6828C163.94 66.4952 164.195 66.3899 164.46 66.3899H221.36C221.625 66.3899 221.88 66.4952 222.067 66.6828C222.255 66.8703 222.36 67.1247 222.36 67.3899C222.36 67.6551 222.255 67.9095 222.067 68.097C221.88 68.2845 221.625 68.3899 221.36 68.3899Z" fill="white"/>
<path d="M215.6 79.82H170.22C169.976 79.82 169.742 79.723 169.57 79.5505C169.397 79.378 169.3 79.144 169.3 78.9C169.3 78.656 169.397 78.422 169.57 78.2494C169.742 78.0769 169.976 77.98 170.22 77.98H215.6C215.844 77.98 216.078 78.0769 216.251 78.2494C216.423 78.422 216.52 78.656 216.52 78.9C216.52 79.144 216.423 79.378 216.251 79.5505C216.078 79.723 215.844 79.82 215.6 79.82Z" fill="white"/>
</svg>
