<svg width="500" height="500" viewBox="0 0 500 500" fill="none" xmlns="http://www.w3.org/2000/svg">
<path d="M250 479.37C377.092 479.37 480.12 419.896 480.12 346.53C480.12 273.164 377.092 213.69 250 213.69C122.908 213.69 19.8799 273.164 19.8799 346.53C19.8799 419.896 122.908 479.37 250 479.37Z" fill="#F5F5F5"/>
<path d="M402.11 406.68C433.883 406.68 459.64 391.807 459.64 373.46C459.64 355.113 433.883 340.24 402.11 340.24C370.337 340.24 344.58 355.113 344.58 373.46C344.58 391.807 370.337 406.68 402.11 406.68Z" fill="#E0E0E0"/>
<path d="M196.14 445.23L53.41 362.83C51.07 361.48 51.07 359.29 53.41 357.93L259.75 238.81C261.063 238.139 262.516 237.79 263.99 237.79C265.464 237.79 266.917 238.139 268.23 238.81L410.92 321.19C413.26 322.54 413.26 324.73 410.92 326.08L204.62 445.23C203.306 445.896 201.853 446.243 200.38 446.243C198.907 446.243 197.454 445.896 196.14 445.23V445.23Z" fill="#E0E0E0"/>
<path d="M431.15 354.41C429.92 345.97 433.07 313.82 440.22 301.58C447.37 289.34 459.22 276.5 469.54 278.42C479.1 280.2 479.86 292.3 469.96 301.83C460.06 311.36 444.9 323.73 442.04 338.13L434.24 362.64L431.15 354.41Z" fill="#90CAF9"/>
<path opacity="0.1" d="M431.15 354.41C429.92 345.97 433.07 313.82 440.22 301.58C447.37 289.34 459.22 276.5 469.54 278.42C479.1 280.2 479.86 292.3 469.96 301.83C460.06 311.36 444.9 323.73 442.04 338.13L434.24 362.64L431.15 354.41Z" fill="black"/>
<path d="M433.44 351.76C433.57 351.725 433.686 351.649 433.769 351.542C433.852 351.436 433.898 351.305 433.9 351.17C434.34 321.51 453.31 294.03 466.25 286.38C466.392 286.296 466.495 286.16 466.536 286.001C466.577 285.841 466.554 285.672 466.47 285.53C466.386 285.388 466.25 285.285 466.091 285.244C465.931 285.203 465.762 285.226 465.62 285.31C452.43 293.11 433.1 321.04 432.62 351.15C432.619 351.231 432.633 351.312 432.663 351.388C432.693 351.464 432.738 351.533 432.794 351.591C432.851 351.65 432.919 351.697 432.993 351.729C433.068 351.761 433.149 351.779 433.23 351.78C433.301 351.789 433.372 351.783 433.44 351.76V351.76Z" fill="white"/>
<path d="M438.08 367.24C438.74 362.3 442.2 353.78 450.02 345.34C459.6 335 475.5 329.34 477.72 323.34C480.37 316.12 474.31 311.19 463.97 314.48C450.08 318.9 434.58 336.24 434.78 358.55L438.08 367.24Z" fill="#90CAF9"/>
<path d="M435.29 362.57C435.407 362.541 435.512 362.479 435.595 362.392C435.679 362.306 435.736 362.198 435.76 362.08C441 336.08 461.96 322.13 470.52 319.73C470.679 319.694 470.818 319.598 470.907 319.462C470.997 319.326 471.03 319.16 471 319C470.979 318.92 470.943 318.845 470.892 318.78C470.842 318.715 470.779 318.661 470.707 318.62C470.635 318.58 470.556 318.555 470.474 318.546C470.392 318.538 470.309 318.546 470.23 318.57C460.77 321.22 439.93 335.37 434.59 361.88C434.574 361.96 434.574 362.043 434.59 362.123C434.606 362.203 434.638 362.279 434.683 362.347C434.729 362.415 434.787 362.473 434.855 362.518C434.924 362.563 435 362.594 435.08 362.61C435.152 362.61 435.223 362.596 435.29 362.57V362.57Z" fill="white"/>
<path d="M146.31 74.42L138.7 78.82C138.739 78.4881 138.759 78.1542 138.76 77.82V75.62C138.76 71.69 136 70.1 132.6 72.06C131.141 72.9642 129.89 74.1673 128.93 75.59C128.38 70.65 124.5 68.81 119.8 71.53C114.71 74.47 110.58 81.61 110.58 87.53V90.83C110.551 92.1457 110.817 93.4511 111.36 94.65L105 98.25C104.004 98.8981 103.176 99.772 102.581 100.801C101.987 101.829 101.644 102.984 101.58 104.17C101.58 106.35 103.11 107.23 105 106.17L146.27 82.34C147.264 81.6929 148.092 80.8205 148.686 79.7937C149.28 78.7669 149.624 77.6145 149.69 76.43C149.73 74.22 148.2 73.33 146.31 74.42Z" fill="#E6E6E6"/>
<path d="M50.1399 84.25L54.3399 81V71.76C54.3399 64.42 60.1899 55.9 66.5399 52.23C72.8999 48.56 78.0499 51.54 78.0499 58.88V60.22C79.3874 58.0465 81.2164 56.2174 83.3899 54.88C87.9599 52.24 91.6699 54.38 91.6699 59.66V60.27L97.5299 56.89C100.53 55.15 102.98 56.56 102.98 60.04C102.876 61.9309 102.329 63.7709 101.382 65.4109C100.435 67.0509 99.1157 68.4449 97.5299 69.48L50.1399 96.84C47.1399 98.58 44.6799 97.17 44.6799 93.69C44.7798 91.7971 45.3266 89.9548 46.2757 88.314C47.2247 86.6731 48.5489 85.2805 50.1399 84.25V84.25Z" fill="#E6E6E6"/>
<path d="M62.22 351.49C62.3341 353.043 62.8117 354.547 63.6142 355.881C64.4168 357.215 65.5217 358.342 66.84 359.17L196.33 433.93C197.764 434.655 199.348 435.033 200.955 435.033C202.562 435.033 204.146 434.655 205.58 433.93L397.49 323.14C398.883 322.4 400.049 321.295 400.862 319.943C401.675 318.591 402.104 317.043 402.104 315.465C402.104 313.887 401.675 312.339 400.862 310.987C400.049 309.635 398.883 308.53 397.49 307.79L268 233C266.567 232.27 264.983 231.89 263.375 231.89C261.767 231.89 260.182 232.27 258.75 233L66.84 343.82C65.522 344.646 64.4169 345.771 63.6143 347.103C62.8117 348.436 62.334 349.939 62.22 351.49Z" fill="#37474F"/>
<path d="M201 425V435C199.391 435.036 197.8 434.657 196.38 433.9L66.8402 359.17C65.4871 358.456 64.3474 357.396 63.537 356.098C62.7267 354.8 62.2746 353.311 62.2269 351.782C62.1791 350.252 62.5374 348.738 63.2652 347.392C63.9929 346.046 65.0643 344.917 66.3702 344.12C64.3002 345.6 64.4602 347.78 66.8402 349.12L196.34 423.89C197.771 424.658 199.377 425.04 201 425V425Z" fill="#263238"/>
<path d="M57.8801 344C56.5935 343.125 55.5311 341.959 54.7788 340.597C54.0266 339.235 53.6056 337.715 53.55 336.16V181.61C53.6379 180.007 54.1019 178.448 54.9045 177.058C55.7072 175.668 56.8259 174.487 58.17 173.61L250.08 62.82C251.461 62.0856 252.996 61.6874 254.56 61.6578C256.124 61.6283 257.672 61.9682 259.08 62.65C260.365 63.5269 261.426 64.693 262.178 66.0547C262.93 67.4164 263.352 68.9355 263.41 70.49V225C263.323 226.603 262.859 228.162 262.057 229.552C261.254 230.942 260.135 232.124 258.79 233L66.84 343.82C65.4652 344.55 63.9379 344.947 62.3815 344.978C60.8251 345.01 59.2831 344.674 57.8801 344V344Z" fill="#455A64"/>
<path d="M66.3001 344.1C64.9723 344.693 63.531 344.99 62.0768 344.969C60.6226 344.949 59.1904 344.611 57.8801 343.98C56.5935 343.105 55.5311 341.939 54.7788 340.577C54.0266 339.215 53.6056 337.695 53.55 336.14V181.61C53.6011 180.001 54.0698 178.433 54.91 177.06L63.57 182.06C62.7428 183.435 62.2782 184.997 62.2201 186.6V341.15C62.2201 343.88 64.0001 345.11 66.3001 344.1Z" fill="#263238"/>
<path d="M62.22 186.62V341.15C62.22 344.15 64.29 345.29 66.84 343.82L258.75 233C260.095 232.124 261.214 230.942 262.017 229.552C262.819 228.162 263.283 226.603 263.37 225V70.49C263.37 67.55 261.31 66.35 258.75 67.83L66.84 178.61C65.4956 179.489 64.3769 180.672 63.5744 182.064C62.7718 183.455 62.3078 185.016 62.22 186.62Z" fill="#37474F"/>
<path d="M66.84 349.15L196.33 423.92C197.764 424.645 199.348 425.023 200.955 425.023C202.562 425.023 204.146 424.645 205.58 423.92L397.49 313.13C400.04 311.65 400.04 309.26 397.49 307.79L268 233C266.567 232.27 264.983 231.89 263.375 231.89C261.767 231.89 260.183 232.27 258.75 233L66.84 343.82C64.29 345.29 64.29 347.68 66.84 349.15Z" fill="#455A64"/>
<path d="M69.33 184.55L254.88 77.45C256.41 76.57 257.66 77.29 257.66 79.06V221.63C257.607 222.592 257.327 223.528 256.844 224.362C256.361 225.196 255.688 225.905 254.88 226.43L69.33 333.53C67.8 334.41 66.55 333.69 66.55 331.92V189.35C66.6035 188.388 66.883 187.452 67.3661 186.618C67.8491 185.784 68.522 185.075 69.33 184.55Z" fill="#90CAF9"/>
<path opacity="0.4" d="M69.33 184.55L254.88 77.45C256.41 76.57 257.66 77.29 257.66 79.06V221.63C257.607 222.592 257.327 223.528 256.844 224.362C256.361 225.196 255.688 225.905 254.88 226.43L69.33 333.53C67.8 334.41 66.55 333.69 66.55 331.92V189.35C66.6035 188.388 66.883 187.452 67.3661 186.618C67.8491 185.784 68.522 185.075 69.33 184.55Z" fill="black"/>
<path d="M81.87 345.15L261.07 241.71C261.785 241.345 262.577 241.154 263.38 241.154C264.183 241.154 264.975 241.345 265.69 241.71L274.1 246.56C275.37 247.3 275.37 248.49 274.1 249.23L94.88 352.66C94.1647 353.025 93.3731 353.216 92.57 353.216C91.7669 353.216 90.9752 353.025 90.26 352.66L81.87 347.82C80.6 347.08 80.6 345.89 81.87 345.15Z" fill="#37474F"/>
<path d="M103.55 357.67L282.74 254.22C283.455 253.855 284.247 253.664 285.05 253.664C285.853 253.664 286.645 253.855 287.36 254.22L339.1 284.09C340.38 284.83 340.38 286.03 339.1 286.76L160.1 390.08C159.382 390.442 158.589 390.631 157.785 390.631C156.981 390.631 156.188 390.442 155.47 390.08L103.56 360.33C102.28 359.6 102.27 358.4 103.55 357.67Z" fill="#263238"/>
<path d="M261 298.21L266.64 294.95C266.88 294.81 266.89 294.59 266.64 294.45L260.72 291C260.586 290.936 260.439 290.903 260.29 290.903C260.141 290.903 259.994 290.936 259.86 291L254.21 294.26C253.98 294.4 253.97 294.62 254.21 294.75L260.21 298.19C260.334 298.247 260.467 298.278 260.603 298.281C260.739 298.285 260.874 298.26 261 298.21ZM251.33 286.11L245.69 289.37C245.64 289.388 245.596 289.421 245.565 289.465C245.534 289.509 245.517 289.561 245.517 289.615C245.517 289.669 245.534 289.721 245.565 289.765C245.596 289.809 245.64 289.842 245.69 289.86L251.69 293.3C251.824 293.364 251.971 293.397 252.12 293.397C252.269 293.397 252.416 293.364 252.55 293.3L258.2 290.04C258.254 290.024 258.302 289.992 258.336 289.947C258.37 289.901 258.389 289.846 258.389 289.79C258.389 289.733 258.37 289.679 258.336 289.633C258.302 289.588 258.254 289.555 258.2 289.54L252.2 286.1C252.066 286.039 251.921 286.008 251.774 286.01C251.627 286.012 251.482 286.046 251.35 286.11H251.33ZM233.1 296.63L223.56 302.14C223.32 302.28 223.31 302.51 223.56 302.64L229.56 306.08C229.694 306.144 229.841 306.177 229.99 306.177C230.139 306.177 230.286 306.144 230.42 306.08L239.97 300.57C240.21 300.43 240.21 300.21 239.97 300.07L233.97 296.64C233.839 296.571 233.694 296.534 233.546 296.532C233.399 296.53 233.252 296.564 233.12 296.63H233.1ZM243.1 290.87L237.45 294.13C237.21 294.27 237.21 294.49 237.45 294.62L243.45 298.06C243.584 298.124 243.731 298.157 243.88 298.157C244.029 298.157 244.176 298.124 244.31 298.06L249.95 294.8C250.19 294.66 250.19 294.44 249.95 294.3L243.95 290.86C243.819 290.796 243.675 290.764 243.529 290.766C243.383 290.768 243.24 290.803 243.11 290.87H243.1ZM221 303.65L215.36 306.9C215.12 307.04 215.12 307.27 215.36 307.4L221.36 310.84C221.494 310.904 221.641 310.937 221.79 310.937C221.939 310.937 222.086 310.904 222.22 310.84L227.86 307.59C228.1 307.45 228.1 307.23 227.86 307.09L221.86 303.65C221.726 303.586 221.579 303.553 221.43 303.553C221.281 303.553 221.134 303.586 221 303.65V303.65ZM212.76 308.41L207.11 311.67C207.06 311.688 207.016 311.721 206.985 311.765C206.954 311.809 206.937 311.861 206.937 311.915C206.937 311.969 206.954 312.021 206.985 312.065C207.016 312.109 207.06 312.142 207.11 312.16L213 315.6C213.133 315.669 213.28 315.705 213.43 315.705C213.58 315.705 213.727 315.669 213.86 315.6L219.5 312.35C219.74 312.21 219.74 311.99 219.5 311.85L213.55 308.41C213.421 308.352 213.281 308.322 213.14 308.322C212.999 308.322 212.859 308.352 212.73 308.41H212.76ZM236.14 322.41L241.78 319.15C242.02 319.01 242.02 318.79 241.78 318.66L235.83 315.22C235.696 315.156 235.549 315.123 235.4 315.123C235.251 315.123 235.104 315.156 234.97 315.22L229.32 318.48C229.266 318.496 229.218 318.528 229.184 318.573C229.15 318.619 229.132 318.673 229.132 318.73C229.132 318.786 229.15 318.841 229.184 318.887C229.218 318.932 229.266 318.964 229.32 318.98L235.27 322.42C235.403 322.479 235.546 322.509 235.691 322.507C235.836 322.506 235.979 322.472 236.11 322.41H236.14ZM227.89 327.17L233.54 323.91C233.78 323.77 233.78 323.55 233.54 323.42L227.56 320C227.426 319.936 227.279 319.903 227.13 319.903C226.981 319.903 226.834 319.936 226.7 320L221.06 323.26C220.82 323.4 220.82 323.62 221.06 323.76L227.01 327.2C227.145 327.258 227.292 327.285 227.438 327.28C227.585 327.275 227.729 327.237 227.86 327.17H227.89ZM219.65 331.93L225.29 328.67C225.341 328.652 225.385 328.619 225.416 328.575C225.446 328.531 225.463 328.479 225.463 328.425C225.463 328.371 225.446 328.319 225.416 328.275C225.385 328.231 225.341 328.198 225.29 328.18L219.29 324.74C219.157 324.671 219.01 324.635 218.86 324.635C218.71 324.635 218.563 324.671 218.43 324.74L212.81 328C212.57 328.14 212.57 328.36 212.81 328.5L218.81 331.94C218.938 331.995 219.077 332.022 219.216 332.021C219.356 332.019 219.493 331.988 219.62 331.93H219.65ZM211.4 336.69L217.04 333.43C217.28 333.3 217.29 333.07 217.04 332.94L211.04 329.5C210.906 329.436 210.759 329.403 210.61 329.403C210.461 329.403 210.314 329.436 210.18 329.5L204.54 332.75C204.3 332.89 204.29 333.11 204.54 333.25L210.49 336.69C210.627 336.757 210.778 336.792 210.93 336.792C211.083 336.792 211.233 336.757 211.37 336.69H211.4ZM252.77 303L258.42 299.74C258.474 299.724 258.522 299.692 258.556 299.647C258.59 299.601 258.609 299.546 258.609 299.49C258.609 299.433 258.59 299.379 258.556 299.333C258.522 299.288 258.474 299.255 258.42 299.24L252.42 295.81C252.287 295.741 252.14 295.705 251.99 295.705C251.84 295.705 251.693 295.741 251.56 295.81L246 299C245.76 299.14 245.76 299.36 246 299.49L251.95 302.93C252.074 302.999 252.211 303.041 252.353 303.053C252.494 303.065 252.636 303.047 252.77 303V303ZM244.36 317.68L256.94 310.41C257.18 310.27 257.18 310.05 256.94 309.92L242.48 301.57C242.346 301.506 242.199 301.473 242.05 301.473C241.901 301.473 241.754 301.506 241.62 301.57L235.11 305.33C234.87 305.47 234.87 305.69 235.11 305.83L242.77 310.25C242.821 310.268 242.865 310.301 242.896 310.345C242.926 310.389 242.943 310.441 242.943 310.495C242.943 310.549 242.926 310.601 242.896 310.645C242.865 310.689 242.821 310.722 242.77 310.74L237.56 313.74C237.32 313.88 237.32 314.1 237.56 314.24L243.56 317.67C243.687 317.726 243.824 317.754 243.962 317.75C244.101 317.747 244.237 317.713 244.36 317.65V317.68ZM204.48 313.2L198.84 316.46C198.79 316.478 198.746 316.511 198.715 316.555C198.684 316.599 198.667 316.651 198.667 316.705C198.667 316.759 198.684 316.811 198.715 316.855C198.746 316.899 198.79 316.932 198.84 316.95L204.79 320.39C204.924 320.454 205.071 320.487 205.22 320.487C205.369 320.487 205.516 320.454 205.65 320.39L211.3 317.13C211.354 317.114 211.402 317.082 211.436 317.037C211.47 316.991 211.489 316.936 211.489 316.88C211.489 316.823 211.47 316.768 211.436 316.723C211.402 316.678 211.354 316.645 211.3 316.63L205.35 313.19C205.216 313.121 205.068 313.084 204.917 313.08C204.767 313.077 204.617 313.108 204.48 313.17V313.2ZM196.24 317.96L190.59 321.22C190.35 321.36 190.35 321.58 190.59 321.71L196.59 325.15C196.724 325.214 196.871 325.247 197.02 325.247C197.169 325.247 197.316 325.214 197.45 325.15L203.09 321.89C203.33 321.75 203.33 321.53 203.09 321.39L197.09 317.95C196.96 317.88 196.815 317.842 196.668 317.838C196.52 317.835 196.373 317.866 196.24 317.93V317.96ZM152.79 370C152.924 370.064 153.071 370.097 153.22 370.097C153.369 370.097 153.516 370.064 153.65 370L159.29 366.74C159.53 366.6 159.54 366.38 159.29 366.24L153.29 362.81C153.157 362.741 153.01 362.705 152.86 362.705C152.71 362.705 152.563 362.741 152.43 362.81L146.79 366.07C146.55 366.21 146.54 366.43 146.79 366.56L152.79 370ZM130.27 356L124.63 359.25C124.39 359.39 124.38 359.61 124.63 359.75L130.58 363.19C130.714 363.254 130.861 363.287 131.01 363.287C131.159 363.287 131.306 363.254 131.44 363.19L137.08 359.93C137.32 359.8 137.33 359.57 137.08 359.44L131.08 356C130.954 355.939 130.815 355.907 130.675 355.907C130.535 355.907 130.396 355.939 130.27 356V356ZM142.12 366.34C142.253 366.409 142.4 366.445 142.55 366.445C142.7 366.445 142.847 366.409 142.98 366.34L148.62 363.08C148.86 362.94 148.86 362.72 148.62 362.59L142.62 359.15C142.487 359.081 142.34 359.045 142.19 359.045C142.04 359.045 141.893 359.081 141.76 359.15L136.12 362.41C135.88 362.55 135.88 362.77 136.12 362.91L142.12 366.34ZM166.5 372.4L172.14 369.14C172.191 369.122 172.235 369.089 172.266 369.045C172.296 369.001 172.313 368.949 172.313 368.895C172.313 368.841 172.296 368.789 172.266 368.745C172.235 368.701 172.191 368.668 172.14 368.65L166.14 365.21C166.006 365.146 165.859 365.113 165.71 365.113C165.561 365.113 165.414 365.146 165.28 365.21L159.64 368.46C159.4 368.6 159.4 368.82 159.64 368.96L165.64 372.4C165.773 372.467 165.919 372.504 166.068 372.507C166.217 372.511 166.364 372.481 166.5 372.42V372.4ZM157.39 377.17C157.524 377.234 157.671 377.267 157.82 377.267C157.969 377.267 158.116 377.234 158.25 377.17L163.89 373.91C164.13 373.78 164.14 373.55 163.89 373.42L158 370C157.866 369.936 157.719 369.903 157.57 369.903C157.421 369.903 157.274 369.936 157.14 370L151.5 373.25C151.26 373.39 151.25 373.61 151.5 373.75L157.39 377.17ZM138.52 351.23L132.87 354.49C132.816 354.505 132.768 354.538 132.734 354.583C132.7 354.629 132.682 354.683 132.682 354.74C132.682 354.796 132.7 354.851 132.734 354.897C132.768 354.942 132.816 354.974 132.87 354.99L138.82 358.43C138.954 358.494 139.101 358.527 139.25 358.527C139.399 358.527 139.546 358.494 139.68 358.43L145.32 355.17C145.56 355.03 145.56 354.81 145.32 354.68L139.32 351.24C139.194 351.183 139.057 351.154 138.919 351.156C138.781 351.157 138.645 351.19 138.52 351.25V351.23ZM179.74 327.43L174.1 330.69C173.86 330.83 173.86 331.05 174.1 331.18L180.1 334.62C180.233 334.689 180.38 334.725 180.53 334.725C180.68 334.725 180.827 334.689 180.96 334.62L186.6 331.36C186.84 331.22 186.84 331 186.6 330.86L180.6 327.43C180.466 327.364 180.317 327.331 180.168 327.335C180.018 327.338 179.871 327.378 179.74 327.45V327.43ZM146.74 346.43L141.1 349.69C140.86 349.83 140.86 350.05 141.1 350.19L147.05 353.62C147.183 353.689 147.33 353.725 147.48 353.725C147.63 353.725 147.777 353.689 147.91 353.62L153.56 350.36C153.8 350.22 153.8 350 153.56 349.87L147.61 346.43C147.473 346.377 147.325 346.355 147.178 346.365C147.031 346.375 146.889 346.418 146.76 346.49L146.74 346.43ZM188 322.69L182.35 326C182.11 326.14 182.1 326.36 182.35 326.49L188.3 329.93C188.433 329.999 188.58 330.035 188.73 330.035C188.88 330.035 189.027 329.999 189.16 329.93L194.8 326.67C195.04 326.53 195.05 326.31 194.8 326.17L188.8 322.74C188.679 322.673 188.544 322.633 188.406 322.624C188.267 322.616 188.129 322.638 188 322.69V322.69ZM171.51 332.21L165.87 335.47C165.63 335.61 165.62 335.83 165.87 335.97L171.87 339.4C172.003 339.469 172.15 339.505 172.3 339.505C172.45 339.505 172.597 339.469 172.73 339.4L178.37 336.14C178.61 336 178.62 335.78 178.37 335.64L172.42 332.21C172.28 332.13 172.121 332.088 171.96 332.088C171.799 332.088 171.64 332.13 171.5 332.21H171.51ZM163.25 337L157.61 340.26C157.37 340.4 157.37 340.62 157.61 340.76L163.61 344.19C163.743 344.259 163.89 344.295 164.04 344.295C164.19 344.295 164.337 344.259 164.47 344.19L170.11 340.93C170.35 340.79 170.35 340.57 170.11 340.44L164.11 337C163.977 336.931 163.83 336.895 163.68 336.895C163.53 336.895 163.383 336.931 163.25 337ZM155 341.73L149.37 345C149.13 345.14 149.12 345.36 149.37 345.5L155.32 348.93C155.453 348.999 155.6 349.035 155.75 349.035C155.9 349.035 156.047 348.999 156.18 348.93L161.82 345.67C162.06 345.53 162.07 345.31 161.82 345.18L155.87 341.74C155.735 341.673 155.587 341.637 155.436 341.635C155.286 341.634 155.137 341.666 155 341.73ZM194.87 346.21L200.51 342.96C200.75 342.82 200.76 342.6 200.51 342.46L194.58 339C194.446 338.936 194.299 338.903 194.15 338.903C194.001 338.903 193.854 338.936 193.72 339L188.08 342.25C187.84 342.39 187.83 342.61 188.08 342.75L194.08 346.19C194.205 346.248 194.34 346.28 194.478 346.283C194.616 346.287 194.753 346.262 194.88 346.21H194.87ZM269.57 275.59L263.93 278.84C263.69 278.98 263.68 279.2 263.93 279.34L269.88 282.78C270.014 282.844 270.161 282.877 270.31 282.877C270.459 282.877 270.606 282.844 270.74 282.78L276.38 279.52C276.62 279.39 276.63 279.16 276.38 279.03L270.43 275.59C270.299 275.522 270.153 275.487 270.005 275.487C269.857 275.487 269.712 275.522 269.58 275.59H269.57ZM259.57 281.35L254 284.61C253.95 284.628 253.906 284.661 253.875 284.705C253.844 284.749 253.827 284.801 253.827 284.855C253.827 284.909 253.844 284.961 253.875 285.005C253.906 285.049 253.95 285.082 254 285.1L259.95 288.54C260.084 288.604 260.231 288.637 260.38 288.637C260.529 288.637 260.676 288.604 260.81 288.54L266.45 285.29C266.69 285.15 266.69 284.93 266.45 284.79L260.45 281.35C260.317 281.288 260.172 281.255 260.025 281.255C259.878 281.255 259.733 281.288 259.6 281.35H259.57ZM277.79 270.82L272.15 274.08C271.91 274.22 271.91 274.44 272.15 274.58L278.15 278.02C278.284 278.084 278.431 278.117 278.58 278.117C278.729 278.117 278.876 278.084 279.01 278.02L284.65 274.76C284.89 274.62 284.89 274.4 284.65 274.27L278.65 270.83C278.521 270.769 278.379 270.736 278.236 270.735C278.093 270.733 277.951 270.762 277.82 270.82H277.79ZM233.68 314L239.32 310.74C239.371 310.722 239.415 310.689 239.446 310.645C239.476 310.601 239.493 310.549 239.493 310.495C239.493 310.441 239.476 310.389 239.446 310.345C239.415 310.301 239.371 310.268 239.32 310.25L233.32 306.81C233.186 306.746 233.039 306.713 232.89 306.713C232.741 306.713 232.594 306.746 232.46 306.81L226.81 310.07C226.756 310.085 226.708 310.118 226.674 310.163C226.64 310.208 226.622 310.263 226.622 310.32C226.622 310.376 226.64 310.431 226.674 310.477C226.708 310.522 226.756 310.554 226.81 310.57L232.76 314.01C232.903 314.082 233.061 314.119 233.221 314.117C233.381 314.115 233.539 314.075 233.68 314ZM286.93 266.07C286.796 266.006 286.649 265.973 286.5 265.973C286.351 265.973 286.204 266.006 286.07 266.07L280.43 269.33C280.19 269.47 280.18 269.69 280.43 269.83L286.38 273.27C286.514 273.334 286.661 273.367 286.81 273.367C286.959 273.367 287.106 273.334 287.24 273.27L292.88 270.01C293.12 269.87 293.13 269.65 292.88 269.52L286.93 266.07ZM203.13 341.46L208.77 338.21C209.01 338.07 209.01 337.84 208.77 337.71L202.77 334.27C202.636 334.206 202.489 334.173 202.34 334.173C202.191 334.173 202.044 334.206 201.91 334.27L196.27 337.52C196.03 337.66 196.03 337.88 196.27 338.02L202.27 341.46C202.405 341.522 202.552 341.554 202.701 341.552C202.85 341.55 202.997 341.516 203.13 341.45V341.46ZM304.24 283.08L309.89 279.82C309.941 279.802 309.985 279.769 310.016 279.725C310.046 279.681 310.063 279.629 310.063 279.575C310.063 279.521 310.046 279.469 310.016 279.425C309.985 279.381 309.941 279.348 309.89 279.33L303.89 275.89C303.756 275.826 303.609 275.793 303.46 275.793C303.311 275.793 303.164 275.826 303.03 275.89L297.39 279.14C297.15 279.28 297.15 279.5 297.39 279.64L303.39 283.08C303.523 283.145 303.669 283.178 303.816 283.177C303.964 283.175 304.109 283.138 304.24 283.07V283.08ZM287.49 282.93L293.14 279.67C293.191 279.652 293.235 279.619 293.266 279.575C293.296 279.531 293.313 279.479 293.313 279.425C293.313 279.371 293.296 279.319 293.266 279.275C293.235 279.231 293.191 279.198 293.14 279.18L287.19 275.74C287.056 275.676 286.909 275.643 286.76 275.643C286.611 275.643 286.464 275.676 286.33 275.74L280.69 279C280.45 279.14 280.44 279.36 280.69 279.5L286.64 282.94C286.775 282.999 286.92 283.028 287.067 283.025C287.214 283.021 287.359 282.986 287.49 282.92V282.93ZM295.43 271C295.298 270.933 295.153 270.898 295.005 270.898C294.857 270.898 294.712 270.933 294.58 271L288.93 274.26C288.876 274.275 288.828 274.308 288.794 274.353C288.76 274.399 288.742 274.453 288.742 274.51C288.742 274.566 288.76 274.621 288.794 274.667C288.828 274.712 288.876 274.744 288.93 274.76L294.88 278.2C295.014 278.264 295.161 278.297 295.31 278.297C295.459 278.297 295.606 278.264 295.74 278.2L301.38 274.94C301.431 274.922 301.475 274.889 301.506 274.845C301.536 274.801 301.553 274.749 301.553 274.695C301.553 274.641 301.536 274.589 301.506 274.545C301.475 274.501 301.431 274.468 301.38 274.45L295.43 271ZM297.17 270L311.63 278.35C311.764 278.414 311.911 278.447 312.06 278.447C312.209 278.447 312.356 278.414 312.49 278.35L318.13 275.09C318.37 274.96 318.38 274.73 318.13 274.6L303.67 266.25C303.536 266.186 303.389 266.153 303.24 266.153C303.091 266.153 302.944 266.186 302.81 266.25L297.17 269.51C296.94 269.61 296.94 269.83 297.17 270ZM278.08 280.5L272.44 283.75C272.2 283.89 272.2 284.11 272.44 284.25L278.44 287.69C278.574 287.754 278.721 287.787 278.87 287.787C279.019 287.787 279.166 287.754 279.3 287.69L284.94 284.44C285.18 284.3 285.18 284.07 284.94 283.94L278.94 280.5C278.806 280.436 278.659 280.403 278.51 280.403C278.361 280.403 278.214 280.436 278.08 280.5V280.5ZM216 316.33L210.36 319.58C210.12 319.72 210.12 319.94 210.36 320.08L216.36 323.52C216.494 323.584 216.641 323.617 216.79 323.617C216.939 323.617 217.086 323.584 217.22 323.52L222.86 320.27C223.1 320.13 223.1 319.9 222.86 319.77L216.86 316.33C216.726 316.266 216.579 316.233 216.43 316.233C216.281 316.233 216.134 316.266 216 316.33V316.33ZM295.12 287.84C295.254 287.904 295.401 287.937 295.55 287.937C295.699 287.937 295.846 287.904 295.98 287.84L301.62 284.59C301.86 284.45 301.86 284.22 301.62 284.09L295.67 280.65C295.536 280.586 295.389 280.553 295.24 280.553C295.091 280.553 294.944 280.586 294.81 280.65L289.16 283.9C289.106 283.915 289.058 283.948 289.024 283.993C288.99 284.039 288.972 284.093 288.972 284.15C288.972 284.206 288.99 284.261 289.024 284.307C289.058 284.352 289.106 284.384 289.16 284.4L295.12 287.84ZM224.25 311.57L218.61 314.82C218.37 314.96 218.37 315.18 218.61 315.32L224.56 318.76C224.694 318.824 224.841 318.857 224.99 318.857C225.139 318.857 225.286 318.824 225.42 318.76L231.07 315.5C231.121 315.482 231.165 315.449 231.196 315.405C231.226 315.361 231.243 315.309 231.243 315.255C231.243 315.201 231.226 315.149 231.196 315.105C231.165 315.061 231.121 315.028 231.07 315.01L225.07 311.57C224.945 311.51 224.809 311.48 224.67 311.48C224.532 311.48 224.395 311.51 224.27 311.57H224.25ZM161 365.26C161.134 365.324 161.281 365.357 161.43 365.357C161.579 365.357 161.726 365.324 161.86 365.26L167.5 362C167.74 361.86 167.74 361.64 167.5 361.5L161.5 358.06C161.368 357.993 161.223 357.958 161.075 357.958C160.927 357.958 160.782 357.993 160.65 358.06L155 361.32C154.76 361.46 154.76 361.68 155 361.81L161 365.26ZM150 354.41L144.36 357.67C144.12 357.81 144.11 358.03 144.36 358.16L150.36 361.6C150.493 361.669 150.64 361.705 150.79 361.705C150.94 361.705 151.087 361.669 151.22 361.6L156.86 358.34C157.1 358.2 157.11 357.98 156.86 357.84L150.86 354.41C150.735 354.35 150.599 354.32 150.46 354.32C150.322 354.32 150.185 354.35 150.06 354.41H150ZM170.08 360.49L175.73 357.24C175.784 357.224 175.832 357.192 175.866 357.147C175.9 357.101 175.919 357.046 175.919 356.99C175.919 356.933 175.9 356.879 175.866 356.833C175.832 356.788 175.784 356.755 175.73 356.74L169.78 353.3C169.646 353.236 169.499 353.203 169.35 353.203C169.201 353.203 169.054 353.236 168.92 353.3L163.28 356.56C163.23 356.578 163.186 356.611 163.155 356.655C163.124 356.699 163.107 356.751 163.107 356.805C163.107 356.859 163.124 356.911 163.155 356.955C163.186 356.999 163.23 357.032 163.28 357.05L169.23 360.49C169.369 360.568 169.526 360.609 169.685 360.609C169.844 360.609 170.001 360.568 170.14 360.49H170.08ZM178.33 355.73L183.97 352.48C184.21 352.34 184.22 352.12 183.97 351.98L178.02 348.54C177.886 348.476 177.739 348.443 177.59 348.443C177.441 348.443 177.294 348.476 177.16 348.54L171.51 351.8C171.46 351.818 171.416 351.851 171.385 351.895C171.354 351.939 171.337 351.991 171.337 352.045C171.337 352.099 171.354 352.151 171.385 352.195C171.416 352.239 171.46 352.272 171.51 352.29L177.46 355.73C177.602 355.812 177.762 355.855 177.925 355.855C178.088 355.855 178.249 355.812 178.39 355.73H178.33ZM186.58 350.97L192.22 347.72C192.46 347.58 192.46 347.36 192.22 347.22L186.22 343.78C186.086 343.716 185.939 343.683 185.79 343.683C185.641 343.683 185.494 343.716 185.36 343.78L179.83 347C179.59 347.14 179.59 347.37 179.83 347.5L185.83 350.94C185.953 351.006 186.089 351.046 186.229 351.056C186.368 351.066 186.508 351.047 186.64 351L186.58 350.97ZM158.24 349.65L152.6 352.91C152.36 353.05 152.36 353.27 152.6 353.4L158.6 356.84C158.733 356.909 158.88 356.945 159.03 356.945C159.18 356.945 159.327 356.909 159.46 356.84L165.1 353.58C165.34 353.44 165.34 353.22 165.1 353.08L159.1 349.65C158.975 349.59 158.839 349.56 158.7 349.56C158.562 349.56 158.425 349.59 158.3 349.65H158.24ZM166.49 344.89L160.85 348.15C160.61 348.29 160.6 348.51 160.85 348.64L166.8 352.08C166.934 352.144 167.081 352.177 167.23 352.177C167.379 352.177 167.526 352.144 167.66 352.08L173.31 348.82C173.54 348.68 173.55 348.46 173.31 348.32L167.31 344.89C167.191 344.836 167.061 344.809 166.93 344.809C166.799 344.809 166.67 344.836 166.55 344.89H166.49ZM199.49 325.89L193.85 329.14C193.61 329.28 193.61 329.51 193.85 329.64L199.85 333.08C199.984 333.144 200.131 333.177 200.28 333.177C200.429 333.177 200.576 333.144 200.71 333.08L206.35 329.83C206.59 329.69 206.59 329.47 206.35 329.33L200.35 325.89C200.224 325.826 200.086 325.789 199.944 325.782C199.803 325.775 199.662 325.798 199.53 325.85L199.49 325.89ZM191.25 330.65L185.61 333.91C185.37 334.04 185.36 334.27 185.61 334.4L191.61 337.84C191.743 337.909 191.89 337.945 192.04 337.945C192.19 337.945 192.337 337.909 192.47 337.84L198.11 334.59C198.35 334.45 198.36 334.23 198.11 334.09L192.16 330.65C192.028 330.578 191.88 330.537 191.73 330.53C191.579 330.523 191.429 330.551 191.29 330.61L191.25 330.65ZM207.74 321.13L202.1 324.38C201.86 324.52 201.85 324.74 202.1 324.88L208.1 328.32C208.234 328.384 208.381 328.417 208.53 328.417C208.679 328.417 208.826 328.384 208.96 328.32L214.6 325.07C214.84 324.93 214.85 324.71 214.6 324.57L208.6 321.13C208.474 321.066 208.336 321.029 208.194 321.022C208.053 321.015 207.912 321.038 207.78 321.09L207.74 321.13ZM174.74 340.13L169.09 343.39C168.85 343.53 168.85 343.75 169.09 343.88L175.04 347.32C175.174 347.384 175.321 347.417 175.47 347.417C175.619 347.417 175.766 347.384 175.9 347.32L181.54 344.06C181.78 343.92 181.78 343.7 181.54 343.56L175.54 340.12C175.301 340.029 175.036 340.032 174.8 340.13H174.74ZM182.98 335.37L177.34 338.63C177.29 338.648 177.246 338.681 177.215 338.725C177.184 338.769 177.167 338.821 177.167 338.875C177.167 338.929 177.184 338.981 177.215 339.025C177.246 339.069 177.29 339.102 177.34 339.12L183.34 342.56C183.472 342.627 183.617 342.662 183.765 342.662C183.913 342.662 184.058 342.627 184.19 342.56L189.84 339.3C190.08 339.16 190.08 338.94 189.84 338.8L183.84 335.36C183.708 335.301 183.564 335.271 183.419 335.272C183.274 335.274 183.131 335.307 183 335.37H182.98ZM174.68 367.66L180.33 364.4C180.381 364.382 180.425 364.349 180.456 364.305C180.486 364.261 180.503 364.209 180.503 364.155C180.503 364.101 180.486 364.049 180.456 364.005C180.425 363.961 180.381 363.928 180.33 363.91L174.38 360.47C174.247 360.401 174.1 360.365 173.95 360.365C173.8 360.365 173.653 360.401 173.52 360.47L167.88 363.72C167.64 363.86 167.64 364.08 167.88 364.22L173.83 367.66C173.971 367.732 174.127 367.769 174.285 367.769C174.443 367.769 174.599 367.732 174.74 367.66H174.68ZM128.78 364.21L122.78 360.77C122.646 360.706 122.499 360.673 122.35 360.673C122.201 360.673 122.054 360.706 121.92 360.77L116.38 364C116.14 364.14 116.14 364.36 116.38 364.5L122.38 367.94C122.514 368.004 122.661 368.037 122.81 368.037C122.959 368.037 123.106 368.004 123.24 367.94L128.88 364.68C128.923 364.655 128.958 364.619 128.981 364.575C129.004 364.531 129.014 364.482 129.01 364.432C129.006 364.383 128.988 364.336 128.958 364.296C128.927 364.257 128.887 364.227 128.84 364.21H128.78ZM140.32 367.37L134.37 363.93C134.237 363.861 134.09 363.825 133.94 363.825C133.79 363.825 133.643 363.861 133.51 363.93L124.83 368.93C124.59 369.07 124.58 369.29 124.83 369.43L130.83 372.87C130.964 372.934 131.111 372.967 131.26 372.967C131.409 372.967 131.556 372.934 131.69 372.87L140.37 367.87C140.61 367.72 140.62 367.5 140.38 367.37H140.32ZM119.76 357.5L113.76 354.06C113.626 353.996 113.479 353.963 113.33 353.963C113.181 353.963 113.034 353.996 112.9 354.06L105.96 358.06C105.72 358.2 105.71 358.42 105.96 358.56L111.96 362C112.094 362.064 112.241 362.097 112.39 362.097C112.539 362.097 112.686 362.064 112.82 362L119.82 358C120.05 357.85 120.05 357.63 119.82 357.5H119.76ZM125.08 354.42C125.213 354.489 125.36 354.525 125.51 354.525C125.66 354.525 125.807 354.489 125.94 354.42L131.58 351.16C131.82 351.02 131.82 350.8 131.58 350.66L125.58 347.23C125.449 347.161 125.303 347.125 125.155 347.125C125.007 347.125 124.861 347.161 124.73 347.23L119.08 350.49C118.84 350.63 118.84 350.85 119.08 350.98L125.08 354.42ZM151.06 371L145.06 367.57C144.927 367.501 144.78 367.465 144.63 367.465C144.48 367.465 144.333 367.501 144.2 367.57L133.35 373.83C133.11 373.97 133.11 374.2 133.35 374.33L139.35 377.77C139.484 377.834 139.631 377.867 139.78 377.867C139.929 377.867 140.076 377.834 140.21 377.77L151.06 371.51C151.29 371.38 151.29 371.16 151.06 371ZM155.66 378.17L149.66 374.73C149.526 374.666 149.379 374.633 149.23 374.633C149.081 374.633 148.934 374.666 148.8 374.73L141.86 378.73C141.81 378.748 141.766 378.781 141.735 378.825C141.704 378.869 141.687 378.921 141.687 378.975C141.687 379.029 141.704 379.081 141.735 379.125C141.766 379.169 141.81 379.202 141.86 379.22L147.86 382.66C147.993 382.729 148.14 382.765 148.29 382.765C148.44 382.765 148.587 382.729 148.72 382.66L155.66 378.66C155.89 378.55 155.89 378.33 155.66 378.19V378.17ZM186.45 319C186.584 319.064 186.731 319.097 186.88 319.097C187.029 319.097 187.176 319.064 187.31 319L192.95 315.74C193.001 315.722 193.045 315.689 193.076 315.645C193.106 315.601 193.123 315.549 193.123 315.495C193.123 315.441 193.106 315.389 193.076 315.345C193.045 315.301 193.001 315.268 192.95 315.25L186.95 311.81C186.816 311.746 186.669 311.713 186.52 311.713C186.371 311.713 186.224 311.746 186.09 311.81L180.45 315.06C180.21 315.2 180.21 315.42 180.45 315.56L186.45 319ZM170 328.55C170.132 328.617 170.277 328.652 170.425 328.652C170.573 328.652 170.718 328.617 170.85 328.55L176.5 325.3C176.554 325.284 176.602 325.252 176.636 325.207C176.67 325.161 176.689 325.106 176.689 325.05C176.689 324.993 176.67 324.939 176.636 324.893C176.602 324.848 176.554 324.815 176.5 324.8L170.5 321.36C170.366 321.296 170.219 321.263 170.07 321.263C169.921 321.263 169.774 321.296 169.64 321.36L164 324.61C163.76 324.75 163.76 324.97 164 325.11L170 328.55ZM133.42 349.66C133.553 349.729 133.7 349.765 133.85 349.765C134 349.765 134.147 349.729 134.28 349.66L139.93 346.4C139.984 346.384 140.032 346.352 140.066 346.307C140.1 346.261 140.119 346.206 140.119 346.15C140.119 346.093 140.1 346.039 140.066 345.993C140.032 345.948 139.984 345.915 139.93 345.9L133.98 342.47C133.847 342.401 133.7 342.365 133.55 342.365C133.4 342.365 133.253 342.401 133.12 342.47L127.48 345.73C127.24 345.87 127.24 346.09 127.48 346.22L133.42 349.66ZM178.24 323.79C178.374 323.854 178.521 323.887 178.67 323.887C178.819 323.887 178.966 323.854 179.1 323.79L184.74 320.54C184.98 320.4 184.99 320.17 184.74 320.04L178.74 316.6C178.606 316.536 178.459 316.503 178.31 316.503C178.161 316.503 178.014 316.536 177.88 316.6L172.24 319.85C172 319.99 171.99 320.21 172.24 320.35L178.24 323.79ZM161.75 333.31C161.884 333.374 162.031 333.407 162.18 333.407C162.329 333.407 162.476 333.374 162.61 333.31L168.25 330.06C168.49 329.92 168.49 329.7 168.25 329.56L162.3 326.12C162.166 326.056 162.019 326.023 161.87 326.023C161.721 326.023 161.574 326.056 161.44 326.12L155.79 329.38C155.74 329.398 155.696 329.431 155.665 329.475C155.634 329.519 155.617 329.571 155.617 329.625C155.617 329.679 155.634 329.731 155.665 329.775C155.696 329.819 155.74 329.852 155.79 329.87L161.75 333.31ZM160 378.66C159.866 378.596 159.719 378.563 159.57 378.563C159.421 378.563 159.274 378.596 159.14 378.66L150.46 383.66C150.22 383.8 150.21 384.02 150.46 384.15L156.41 387.59C156.544 387.654 156.691 387.687 156.84 387.687C156.989 387.687 157.136 387.654 157.27 387.59L165.95 382.59C166.001 382.572 166.045 382.539 166.076 382.495C166.106 382.451 166.123 382.399 166.123 382.345C166.123 382.291 166.106 382.239 166.076 382.195C166.045 382.151 166.001 382.118 165.95 382.1L160 378.66ZM149.93 340.14C150.064 340.204 150.211 340.237 150.36 340.237C150.509 340.237 150.656 340.204 150.79 340.14L156.43 336.88C156.67 336.74 156.67 336.52 156.43 336.38L150.43 332.94C150.296 332.876 150.149 332.843 150 332.843C149.851 332.843 149.704 332.876 149.57 332.94L143.93 336.2C143.69 336.34 143.69 336.56 143.93 336.69L149.93 340.14ZM141.68 344.9C141.813 344.969 141.96 345.005 142.11 345.005C142.26 345.005 142.407 344.969 142.54 344.9L148.18 341.64C148.42 341.5 148.43 341.28 148.18 341.14L142.23 337.71C142.097 337.641 141.95 337.605 141.8 337.605C141.65 337.605 141.503 337.641 141.37 337.71L135.68 341C135.45 341.14 135.44 341.36 135.68 341.49L141.68 344.9ZM312.76 290.46C312.626 290.396 312.479 290.363 312.33 290.363C312.181 290.363 312.034 290.396 311.9 290.46L298.01 298.46C297.96 298.478 297.916 298.511 297.885 298.555C297.854 298.599 297.837 298.651 297.837 298.705C297.837 298.759 297.854 298.811 297.885 298.855C297.916 298.899 297.96 298.932 298.01 298.95L304.01 302.39C304.143 302.459 304.29 302.495 304.44 302.495C304.59 302.495 304.737 302.459 304.87 302.39L318.75 294.39C318.99 294.25 319 294.03 318.75 293.89L312.76 290.46ZM294.48 301C294.347 300.931 294.2 300.895 294.05 300.895C293.9 300.895 293.753 300.931 293.62 301L288 304.25C287.76 304.39 287.76 304.61 288 304.75L293.95 308.18C294.083 308.249 294.23 308.285 294.38 308.285C294.53 308.285 294.677 308.249 294.81 308.18L300.46 304.92C300.514 304.904 300.562 304.872 300.596 304.827C300.63 304.781 300.649 304.726 300.649 304.67C300.649 304.613 300.63 304.559 300.596 304.513C300.562 304.468 300.514 304.436 300.46 304.42L294.48 301ZM183 362.9L188.64 359.64C188.88 359.5 188.89 359.28 188.64 359.15L182.69 355.71C182.556 355.646 182.409 355.613 182.26 355.613C182.111 355.613 181.964 355.646 181.83 355.71L176.18 359C175.95 359.14 175.94 359.36 176.18 359.5L182.13 362.94C182.269 362.999 182.419 363.027 182.57 363.02C182.72 363.013 182.868 362.972 183 362.9V362.9ZM278 310.51C277.866 310.446 277.719 310.413 277.57 310.413C277.421 310.413 277.274 310.446 277.14 310.51L271.5 313.77C271.26 313.91 271.25 314.13 271.5 314.27L277.45 317.7C277.583 317.769 277.73 317.805 277.88 317.805C278.03 317.805 278.177 317.769 278.31 317.7L283.95 314.44C284.19 314.3 284.2 314.08 283.95 313.95L278 310.51ZM321 285.7C320.866 285.636 320.719 285.603 320.57 285.603C320.421 285.603 320.274 285.636 320.14 285.7L314.45 289C314.4 289.018 314.356 289.051 314.325 289.095C314.294 289.139 314.277 289.191 314.277 289.245C314.277 289.299 314.294 289.351 314.325 289.395C314.356 289.439 314.4 289.472 314.45 289.49L320.45 292.93C320.584 292.994 320.731 293.027 320.88 293.027C321.029 293.027 321.176 292.994 321.31 292.93L326.95 289.68C327.19 289.54 327.19 289.32 326.95 289.18L321 285.7ZM335.2 284.38L320.69 276C320.556 275.936 320.409 275.903 320.26 275.903C320.111 275.903 319.964 275.936 319.83 276L314.19 279.25C313.95 279.39 313.95 279.61 314.19 279.75L328.65 288.1C328.784 288.164 328.931 288.197 329.08 288.197C329.229 288.197 329.376 288.164 329.51 288.1L335.15 284.85C335.38 284.74 335.39 284.52 335.15 284.38H335.2ZM247.2 328.3C247.067 328.231 246.92 328.195 246.77 328.195C246.62 328.195 246.473 328.231 246.34 328.3L239.39 332.3C239.15 332.44 239.15 332.66 239.39 332.8L245.39 336.24C245.524 336.304 245.671 336.337 245.82 336.337C245.969 336.337 246.116 336.304 246.25 336.24L253.19 332.24C253.43 332.1 253.44 331.88 253.19 331.75L247.2 328.3ZM268.03 316.3C267.896 316.236 267.749 316.203 267.6 316.203C267.451 316.203 267.304 316.236 267.17 316.3L258.49 321.3C258.25 321.44 258.24 321.66 258.49 321.79L264.49 325.23C264.624 325.294 264.771 325.327 264.92 325.327C265.069 325.327 265.216 325.294 265.35 325.23L274.03 320.23C274.27 320.1 274.28 319.87 274.03 319.74L268.03 316.3ZM228.1 339.35C227.966 339.286 227.819 339.253 227.67 339.253C227.521 339.253 227.374 339.286 227.24 339.35L180.81 366.16C180.57 366.3 180.56 366.52 180.81 366.65L186.76 370.09C186.893 370.159 187.04 370.195 187.19 370.195C187.34 370.195 187.487 370.159 187.62 370.09L234 343.26C234.054 343.244 234.102 343.212 234.136 343.167C234.17 343.121 234.189 343.066 234.189 343.01C234.189 342.953 234.17 342.899 234.136 342.853C234.102 342.808 234.054 342.775 234 342.76L228.1 339.35ZM179.1 367.67C178.967 367.601 178.82 367.565 178.67 367.565C178.52 367.565 178.373 367.601 178.24 367.67L171.3 371.67C171.06 371.81 171.05 372.03 171.3 372.17L177.3 375.6C177.433 375.669 177.58 375.705 177.73 375.705C177.88 375.705 178.027 375.669 178.16 375.6L185.16 371.6C185.214 371.584 185.262 371.552 185.296 371.507C185.33 371.461 185.349 371.406 185.349 371.35C185.349 371.293 185.33 371.238 185.296 371.193C185.262 371.148 185.214 371.115 185.16 371.1L179.1 367.67ZM237.69 333.84C237.557 333.771 237.41 333.735 237.26 333.735C237.11 333.735 236.963 333.771 236.83 333.84L229.89 337.84C229.65 337.98 229.64 338.2 229.89 338.34L235.89 341.78C236.024 341.844 236.171 341.877 236.32 341.877C236.469 341.877 236.616 341.844 236.75 341.78L243.69 337.78C243.93 337.65 243.94 337.42 243.69 337.29L237.69 333.84ZM169.55 373.18C169.416 373.116 169.269 373.083 169.12 373.083C168.971 373.083 168.824 373.116 168.69 373.18L161.75 377.18C161.51 377.32 161.51 377.54 161.75 377.68L167.75 381.12C167.882 381.187 168.027 381.222 168.175 381.222C168.323 381.222 168.468 381.187 168.6 381.12L175.55 377.12C175.79 376.98 175.79 376.76 175.55 376.63L169.55 373.18ZM256.78 322.82C256.647 322.751 256.5 322.715 256.35 322.715C256.2 322.715 256.053 322.751 255.92 322.82L248.98 326.82C248.74 326.96 248.74 327.18 248.98 327.32L254.98 330.75C255.113 330.819 255.26 330.855 255.41 330.855C255.56 330.855 255.707 330.819 255.84 330.75L262.78 326.75C263.02 326.61 263.02 326.39 262.78 326.25L256.78 322.82ZM286.29 305.82C286.157 305.751 286.01 305.715 285.86 305.715C285.71 305.715 285.563 305.751 285.43 305.82L279.73 309C279.49 309.14 279.49 309.36 279.73 309.5L285.73 312.93C285.863 312.999 286.01 313.035 286.16 313.035C286.31 313.035 286.457 312.999 286.59 312.93L292.23 309.67C292.47 309.53 292.47 309.31 292.23 309.18L286.29 305.82ZM304.56 292.82L310.21 289.57C310.45 289.43 310.45 289.21 310.21 289.07L304.21 285.63C304.076 285.566 303.929 285.533 303.78 285.533C303.631 285.533 303.484 285.566 303.35 285.63L297.71 288.88C297.47 289.02 297.47 289.25 297.71 289.38L303.71 292.82C303.84 292.865 303.978 292.881 304.114 292.867C304.25 292.854 304.382 292.81 304.5 292.74L304.56 292.82ZM269.33 293.52L274.97 290.27C275.21 290.13 275.21 289.91 274.97 289.77L268.97 286.33C268.836 286.266 268.689 286.233 268.54 286.233C268.391 286.233 268.244 286.266 268.11 286.33L262.47 289.59C262.23 289.73 262.23 289.95 262.47 290.08L268.47 293.52C268.601 293.567 268.741 293.585 268.879 293.571C269.018 293.557 269.151 293.512 269.27 293.44L269.33 293.52ZM249 324.82L265.49 315.29C265.541 315.272 265.585 315.239 265.615 315.195C265.646 315.151 265.663 315.099 265.663 315.045C265.663 314.991 265.646 314.939 265.615 314.895C265.585 314.851 265.541 314.818 265.49 314.8L259.49 311.36C259.357 311.291 259.21 311.255 259.06 311.255C258.91 311.255 258.763 311.291 258.63 311.36L242.14 320.88C242.09 320.898 242.046 320.931 242.015 320.975C241.984 321.019 241.967 321.071 241.967 321.125C241.967 321.179 241.984 321.231 242.015 321.275C242.046 321.319 242.09 321.352 242.14 321.37L248.14 324.81C248.274 324.876 248.42 324.91 248.569 324.912C248.718 324.914 248.865 324.882 249 324.82V324.82ZM295.44 297.51C295.574 297.574 295.721 297.607 295.87 297.607C296.019 297.607 296.166 297.574 296.3 297.51L301.94 294.26C302.18 294.12 302.18 293.9 301.94 293.76L295.94 290.32C295.806 290.256 295.659 290.223 295.51 290.223C295.361 290.223 295.214 290.256 295.08 290.32L289.43 293.58C289.38 293.598 289.336 293.631 289.305 293.675C289.274 293.719 289.257 293.771 289.257 293.825C289.257 293.879 289.274 293.931 289.305 293.975C289.336 294.019 289.38 294.052 289.43 294.07L295.44 297.51ZM287.79 292.59L293.44 289.34C293.67 289.2 293.68 288.98 293.44 288.84L287.49 285.4C287.356 285.336 287.209 285.303 287.06 285.303C286.911 285.303 286.764 285.336 286.63 285.4L281 288.66C280.76 288.8 280.75 289.02 281 289.16L286.95 292.6C287.077 292.653 287.214 292.68 287.351 292.678C287.489 292.677 287.625 292.647 287.75 292.59H287.79ZM240.79 329.59L246.43 326.33C246.67 326.19 246.67 325.97 246.43 325.83L240.43 322.39C240.296 322.326 240.149 322.293 240 322.293C239.851 322.293 239.704 322.326 239.57 322.39L233.92 325.65C233.68 325.79 233.68 326.01 233.92 326.14L239.87 329.58C240.002 329.641 240.145 329.672 240.29 329.672C240.435 329.672 240.579 329.641 240.71 329.58L240.79 329.59ZM277.17 308C277.303 308.069 277.45 308.105 277.6 308.105C277.75 308.105 277.897 308.069 278.03 308L283.67 304.74C283.91 304.6 283.92 304.38 283.67 304.24L277.72 300.81C277.587 300.741 277.44 300.705 277.29 300.705C277.14 300.705 276.993 300.741 276.86 300.81L271.22 304.07C270.98 304.21 270.97 304.43 271.22 304.57L277.17 308ZM199.48 353.35L205.12 350.09C205.36 349.95 205.37 349.73 205.12 349.6L199.17 346.16C199.037 346.091 198.89 346.055 198.74 346.055C198.59 346.055 198.443 346.091 198.31 346.16L192.67 349.42C192.43 349.56 192.42 349.78 192.67 349.92L198.67 353.35C198.794 353.416 198.931 353.453 199.072 353.458C199.212 353.463 199.352 353.436 199.48 353.38V353.35ZM207.73 348.59L213.37 345.33C213.61 345.19 213.61 344.97 213.37 344.84L207.37 341.4C207.237 341.331 207.09 341.295 206.94 341.295C206.79 341.295 206.643 341.331 206.51 341.4L200.87 344.66C200.63 344.8 200.63 345.02 200.87 345.16L206.87 348.59C207 348.664 207.147 348.705 207.296 348.71C207.446 348.716 207.595 348.685 207.73 348.62V348.59ZM191.24 358.11L196.88 354.85C197.12 354.71 197.12 354.49 196.88 354.36L190.88 350.92C190.746 350.856 190.599 350.823 190.45 350.823C190.301 350.823 190.154 350.856 190.02 350.92L184.38 354.18C184.14 354.32 184.14 354.54 184.38 354.68L190.38 358.12C190.513 358.187 190.659 358.224 190.808 358.227C190.957 358.231 191.104 358.201 191.24 358.14V358.11ZM224.24 339.11L229.88 335.85C230.12 335.71 230.12 335.49 229.88 335.35L223.88 331.92C223.749 331.851 223.603 331.815 223.455 331.815C223.307 331.815 223.161 331.851 223.03 331.92L217.38 335.18C217.14 335.32 217.14 335.54 217.38 335.67L223.38 339.11C223.511 339.174 223.655 339.207 223.801 339.205C223.947 339.203 224.091 339.167 224.22 339.1L224.24 339.11ZM216 343.86L221.64 340.6C221.88 340.46 221.89 340.24 221.64 340.1L215.64 336.67C215.507 336.601 215.36 336.565 215.21 336.565C215.06 336.565 214.913 336.601 214.78 336.67L209.14 339.93C208.9 340.07 208.89 340.29 209.14 340.43L215.14 343.86C215.273 343.929 215.42 343.965 215.57 343.965C215.72 343.965 215.867 343.929 216 343.86ZM232.49 334.34L238.14 331.08C238.194 331.064 238.242 331.032 238.276 330.987C238.31 330.941 238.329 330.886 238.329 330.83C238.329 330.773 238.31 330.719 238.276 330.673C238.242 330.628 238.194 330.595 238.14 330.58L232.14 327.15C232.007 327.081 231.86 327.045 231.71 327.045C231.56 327.045 231.413 327.081 231.28 327.15L225.64 330.41C225.4 330.55 225.4 330.77 225.64 330.9L231.59 334.34C231.724 334.411 231.873 334.448 232.025 334.448C232.177 334.448 232.326 334.411 232.46 334.34H232.49ZM273.86 266C273.993 266.069 274.14 266.105 274.29 266.105C274.44 266.105 274.587 266.069 274.72 266L280.37 262.74C280.61 262.6 280.61 262.38 280.37 262.25L278.79 261.33C278.656 261.266 278.509 261.233 278.36 261.233C278.211 261.233 278.064 261.266 277.93 261.33L272.29 264.59C272.05 264.73 272.05 264.95 272.29 265.09L273.86 266ZM233.09 292.1C233.222 292.167 233.367 292.202 233.515 292.202C233.663 292.202 233.808 292.167 233.94 292.1L239.59 288.84C239.83 288.7 239.83 288.48 239.59 288.34L233.59 284.9C233.456 284.836 233.309 284.803 233.16 284.803C233.011 284.803 232.864 284.836 232.73 284.9L227.09 288.16C227.04 288.178 226.996 288.211 226.965 288.255C226.934 288.299 226.917 288.351 226.917 288.405C226.917 288.459 226.934 288.511 226.965 288.555C226.996 288.599 227.04 288.632 227.09 288.65L233.09 292.1ZM249.58 282.58C249.714 282.644 249.861 282.677 250.01 282.677C250.159 282.677 250.306 282.644 250.44 282.58L256.08 279.33C256.32 279.19 256.32 278.97 256.08 278.83L250.08 275.39C249.946 275.326 249.799 275.293 249.65 275.293C249.501 275.293 249.354 275.326 249.22 275.39L243.58 278.65C243.53 278.668 243.486 278.701 243.455 278.745C243.424 278.789 243.407 278.841 243.407 278.895C243.407 278.949 243.424 279.001 243.455 279.045C243.486 279.089 243.53 279.122 243.58 279.14L249.58 282.58ZM223 297.91C223.133 297.979 223.28 298.015 223.43 298.015C223.58 298.015 223.727 297.979 223.86 297.91L229.5 294.65C229.74 294.51 229.74 294.29 229.5 294.15L223.5 290.72C223.367 290.651 223.22 290.615 223.07 290.615C222.92 290.615 222.773 290.651 222.64 290.72L217.07 294C216.83 294.14 216.83 294.36 217.07 294.5L223 297.91ZM241.31 287.34C241.443 287.409 241.59 287.445 241.74 287.445C241.89 287.445 242.037 287.409 242.17 287.34L247.81 284.09C248.05 283.95 248.06 283.73 247.81 283.59L241.81 280.15C241.676 280.086 241.529 280.053 241.38 280.053C241.231 280.053 241.084 280.086 240.95 280.15L235.31 283.41C235.07 283.54 235.06 283.77 235.31 283.9L241.31 287.34ZM206.51 307.43C206.641 307.499 206.787 307.535 206.935 307.535C207.083 307.535 207.229 307.499 207.36 307.43L213.01 304.17C213.25 304.03 213.25 303.81 213.01 303.68L207.01 300.24C206.877 300.171 206.73 300.135 206.58 300.135C206.43 300.135 206.283 300.171 206.15 300.24L200.51 303.5C200.27 303.64 200.27 303.86 200.51 304L206.51 307.43ZM214.75 302.67C214.883 302.739 215.03 302.775 215.18 302.775C215.33 302.775 215.477 302.739 215.61 302.67L221.25 299.41C221.49 299.27 221.5 299.05 221.25 298.92L215.3 295.48C215.167 295.411 215.02 295.375 214.87 295.375C214.72 295.375 214.573 295.411 214.44 295.48L208.8 298.74C208.56 298.88 208.55 299.1 208.8 299.24L214.75 302.67ZM257.35 275.55C257.483 275.619 257.63 275.655 257.78 275.655C257.93 275.655 258.077 275.619 258.21 275.55L263.86 272.29C264.09 272.15 264.1 271.93 263.86 271.8L262.28 270.88C262.146 270.816 261.999 270.783 261.85 270.783C261.701 270.783 261.554 270.816 261.42 270.88L255.78 274.13C255.54 274.27 255.53 274.49 255.78 274.63L257.35 275.55ZM282.09 261.27C282.223 261.339 282.37 261.375 282.52 261.375C282.67 261.375 282.817 261.339 282.95 261.27L288.59 258.01C288.83 257.87 288.84 257.65 288.59 257.51L287 256.6C286.866 256.536 286.719 256.503 286.57 256.503C286.421 256.503 286.274 256.536 286.14 256.6L280.49 259.86C280.436 259.875 280.388 259.908 280.354 259.953C280.32 259.999 280.302 260.053 280.302 260.11C280.302 260.166 280.32 260.221 280.354 260.267C280.388 260.312 280.436 260.344 280.49 260.36L282.09 261.27ZM294.6 268.49C294.733 268.559 294.88 268.595 295.03 268.595C295.18 268.595 295.327 268.559 295.46 268.49L301.1 265.23C301.34 265.09 301.34 264.87 301.1 264.74L295.1 261.3C294.969 261.231 294.823 261.195 294.675 261.195C294.527 261.195 294.381 261.231 294.25 261.3L288.6 264.56C288.36 264.7 288.36 264.92 288.6 265.06L294.6 268.49ZM312.75 288L318.39 284.75C318.63 284.61 318.64 284.39 318.39 284.25L312.44 280.81C312.306 280.746 312.159 280.713 312.01 280.713C311.861 280.713 311.714 280.746 311.58 280.81L306 284.05C305.76 284.19 305.75 284.41 306 284.55L311.95 287.99C312.076 288.047 312.211 288.077 312.349 288.078C312.487 288.08 312.623 288.053 312.75 288ZM265.62 270.81C265.753 270.879 265.9 270.915 266.05 270.915C266.2 270.915 266.347 270.879 266.48 270.81L272.12 267.55C272.36 267.41 272.36 267.19 272.12 267.06L270.53 266.14C270.397 266.071 270.25 266.035 270.1 266.035C269.95 266.035 269.803 266.071 269.67 266.14L264 269.38C263.76 269.52 263.76 269.74 264 269.88L265.62 270.81ZM198.28 312.21C198.413 312.279 198.56 312.315 198.71 312.315C198.86 312.315 199.007 312.279 199.14 312.21L204.78 308.95C205.02 308.81 205.02 308.59 204.78 308.46L198.84 305C198.706 304.936 198.559 304.903 198.41 304.903C198.261 304.903 198.114 304.936 197.98 305L192.33 308.26C192.1 308.4 192.09 308.62 192.33 308.76L198.28 312.21Z" fill="#455A64"/>
<path d="M228.48 360.67L279.3 331.33C280.159 330.896 281.108 330.67 282.07 330.67C283.032 330.67 283.981 330.896 284.84 331.33L314 348.15C315.53 349.04 315.53 350.47 314 351.36L263.19 380.69C262.331 381.129 261.38 381.358 260.415 381.358C259.45 381.358 258.499 381.129 257.64 380.69L228.5 363.87C227 363 227 361.55 228.48 360.67Z" fill="#263238"/>
<path d="M219.88 138.24C204 152.51 190.28 151.76 181.7 145.15C173.13 161.67 159.41 178.25 143.53 182.32L134.46 206.82C134.46 206.82 139.32 212.42 139.32 225.82C139.272 231.436 138.516 237.023 137.07 242.45C135.42 249.06 133.29 255.9 133.29 267.33C133.29 275.07 134.29 282.6 138.23 289.45C140.608 293.595 144.032 297.043 148.16 299.45L134.37 291.45C130.021 289.045 126.409 285.501 123.92 281.2C120 274.34 119 266.82 119 259.07C119 247.65 121.13 240.8 122.78 234.18C124.218 228.756 124.964 223.171 125 217.56C125 204.16 120.14 198.56 120.14 198.56L129.2 174.06C145.08 169.99 158.8 153.41 167.37 136.89C175.95 143.5 189.67 144.25 205.55 129.98L219.88 138.24Z" fill="#90CAF9"/>
<path opacity="0.8" d="M172.42 139.8L167.42 136.89C168.951 138.076 170.632 139.054 172.42 139.8Z" fill="white"/>
<path opacity="0.85" d="M205.57 130C192.5 141.74 180.9 143.31 172.42 139.82L181.7 145.17C190.28 151.78 204 152.53 219.88 138.26L205.57 130Z" fill="white"/>
<path opacity="0.65" d="M167.39 136.89C158.82 153.41 145.1 169.99 129.22 174.06L143.53 182.32C159.41 178.25 173.13 161.67 181.7 145.15L167.39 136.89Z" fill="white"/>
<path opacity="0.55" d="M129.22 174.06L120.16 198.56L134.46 206.82L143.53 182.32L129.22 174.06Z" fill="white"/>
<path opacity="0.4" d="M138.23 289.45C134.31 282.6 133.29 275.07 133.29 267.33C133.29 255.9 135.42 249.06 137.07 242.45C138.516 237.023 139.272 231.436 139.32 225.82C139.32 212.42 134.46 206.82 134.46 206.82L120.16 198.56C120.16 198.56 125.02 204.16 125.02 217.56C124.971 223.173 124.212 228.758 122.76 234.18C121.11 240.8 118.98 247.65 118.98 259.07C118.98 266.82 119.98 274.34 123.92 281.19C126.409 285.491 130.021 289.035 134.37 291.44L148.16 299.44C144.033 297.036 140.609 293.591 138.23 289.45Z" fill="white"/>
<path opacity="0.05" d="M138.23 289.45C134.31 282.6 133.29 275.07 133.29 267.33C133.29 255.9 135.42 249.06 137.07 242.45C138.516 237.023 139.272 231.436 139.32 225.82C139.32 212.42 134.46 206.82 134.46 206.82L120.16 198.56C120.16 198.56 125.02 204.16 125.02 217.56C124.971 223.173 124.212 228.758 122.76 234.18C121.11 240.8 118.98 247.65 118.98 259.07C118.98 266.82 119.98 274.34 123.92 281.19C126.409 285.491 130.021 289.035 134.37 291.44L148.16 299.44C144.033 297.036 140.609 293.591 138.23 289.45Z" fill="black"/>
<path d="M181.7 306.23C157.98 306.5 144.39 300.23 138.22 289.45C134.31 282.6 133.29 275.07 133.29 267.32C133.29 255.9 135.41 249.07 137.07 242.45C138.516 237.027 139.272 231.443 139.32 225.83C139.32 212.43 134.46 206.83 134.46 206.83L143.53 182.32C159.41 178.25 173.13 161.66 181.7 145.15C190.28 151.76 204 152.51 219.88 138.24L228.95 152.24C225.833 160.076 224.183 168.418 224.08 176.85C223.996 181.614 224.761 186.355 226.34 190.85C227.99 195.55 230.12 199.94 230.12 211.36C230.094 220.852 228.423 230.269 225.18 239.19C219 257.15 205.43 279.1 181.7 306.23Z" fill="#90CAF9"/>
<path opacity="0.75" d="M181.7 306.23C157.98 306.5 144.39 300.23 138.22 289.45C134.31 282.6 133.29 275.07 133.29 267.32C133.29 255.9 135.41 249.07 137.07 242.45C138.516 237.027 139.272 231.443 139.32 225.83C139.32 212.43 134.46 206.83 134.46 206.83L143.53 182.32C159.41 178.25 173.13 161.66 181.7 145.15C190.28 151.76 204 152.51 219.88 138.24L228.95 152.24C225.833 160.076 224.183 168.418 224.08 176.85C223.996 181.614 224.761 186.355 226.34 190.85C227.99 195.55 230.12 199.94 230.12 211.36C230.094 220.852 228.423 230.269 225.18 239.19C219 257.15 205.43 279.1 181.7 306.23Z" fill="white"/>
<path d="M178.89 300.07C160.52 299.85 148.64 295.25 143.58 286.4C140.72 281.4 139.45 275.52 139.45 267.32C139.449 260.17 140.459 253.057 142.45 246.19C142.64 245.43 142.84 244.69 143.02 243.94C144.601 238.032 145.421 231.946 145.46 225.83C145.46 216.06 143.12 209.67 141.26 206.13L148.26 187.33C165.26 181.42 177.55 164.63 184.06 153.62C187.567 155.111 191.34 155.873 195.15 155.86C202.83 155.86 210.64 153 218.44 147.35L222.09 153.01C219.432 160.695 218.027 168.758 217.93 176.89C217.841 182.358 218.721 187.799 220.53 192.96C220.72 193.5 220.92 194.04 221.12 194.58C222.58 198.58 223.96 202.35 223.96 211.42C223.926 220.227 222.37 228.963 219.36 237.24C213.29 254.86 199.68 276 178.89 300.07Z" fill="#90CAF9"/>
<path opacity="0.4" d="M178.89 300.07C160.52 299.85 148.64 295.25 143.58 286.4C140.72 281.4 139.45 275.52 139.45 267.32C139.449 260.17 140.459 253.057 142.45 246.19C142.64 245.43 142.84 244.69 143.02 243.94C144.601 238.032 145.421 231.946 145.46 225.83C145.46 216.06 143.12 209.67 141.26 206.13L148.26 187.33C165.26 181.42 177.55 164.63 184.06 153.62C187.567 155.111 191.34 155.873 195.15 155.86C202.83 155.86 210.64 153 218.44 147.35L222.09 153.01C219.432 160.695 218.027 168.758 217.93 176.89C217.841 182.358 218.721 187.799 220.53 192.96C220.72 193.5 220.92 194.04 221.12 194.58C222.58 198.58 223.96 202.35 223.96 211.42C223.926 220.227 222.37 228.963 219.36 237.24C213.29 254.86 199.68 276 178.89 300.07Z" fill="white"/>
<path opacity="0.15" d="M178.89 300.07C160.52 299.85 148.64 295.25 143.58 286.4C140.72 281.4 139.45 275.52 139.45 267.32C139.449 260.17 140.459 253.057 142.45 246.19C142.64 245.43 142.84 244.69 143.02 243.94C144.601 238.032 145.421 231.946 145.46 225.83C145.46 216.06 143.12 209.67 141.26 206.13L148.26 187.33C165.26 181.42 177.55 164.63 184.06 153.62C187.567 155.111 191.34 155.873 195.15 155.86C202.83 155.86 210.64 153 218.44 147.35L222.09 153.01C219.432 160.695 218.027 168.758 217.93 176.89C217.841 182.358 218.721 187.799 220.53 192.96C220.72 193.5 220.92 194.04 221.12 194.58C222.58 198.58 223.96 202.35 223.96 211.42C223.926 220.227 222.37 228.963 219.36 237.24C213.29 254.86 199.68 276 178.89 300.07Z" fill="black"/>
<path opacity="0.8" d="M147.79 291.49C154.05 297.01 164.45 299.9 178.89 300.07L169.68 294.82C162.25 294.921 154.854 293.796 147.79 291.49V291.49Z" fill="white"/>
<path opacity="0.15" d="M217.28 150.24L222.08 153.01L218.43 147.35L216.34 148.79L217.28 150.24Z" fill="black"/>
<path d="M215.72 190.19C213.911 185.029 213.031 179.588 213.12 174.12C213.217 165.988 214.622 157.925 217.28 150.24L216.34 148.79C209.24 153.48 202.14 155.86 195.14 155.86C191.33 155.873 187.557 155.111 184.05 153.62C177.54 164.62 165.25 181.42 148.25 187.33L141.25 206.13C143.11 209.67 145.45 216.06 145.45 225.83C145.411 231.946 144.591 238.032 143.01 243.94C142.83 244.69 142.63 245.43 142.44 246.19C140.449 253.057 139.439 260.17 139.44 267.32C139.44 275.52 140.71 281.4 143.57 286.4C145.076 288.975 147.123 291.193 149.57 292.9C155.71 295.7 163.89 297.167 174.11 297.3C194.89 273.22 208.5 252.09 214.57 234.47C217.581 226.193 219.137 217.458 219.17 208.65C219.17 199.58 217.78 195.81 216.32 191.81C216.11 191.27 215.91 190.73 215.72 190.19Z" fill="#455A64"/>
<path d="M148.25 187.33L141.25 206.13C143.11 209.67 145.45 216.06 145.45 225.83C145.411 231.946 144.591 238.032 143.01 243.94C142.83 244.69 142.63 245.43 142.44 246.19C140.449 253.057 139.439 260.17 139.44 267.32C139.44 275.52 140.71 281.4 143.57 286.4C145.076 288.975 147.123 291.193 149.57 292.9C155.71 295.7 163.89 297.167 174.11 297.3V228L184.11 225V153.62C181.158 158.623 177.814 163.385 174.11 167.86C167.44 175.89 158.74 183.68 148.25 187.33Z" fill="#37474F"/>
<path d="M198.12 202.42C198.013 202.224 197.886 202.039 197.74 201.87L197.69 201.81C197.398 201.492 197.061 201.219 196.69 201L193.36 199.08C192.759 198.743 192.112 198.494 191.44 198.34C191.038 198.252 190.63 198.188 190.22 198.15V188.29C190.22 183.34 188.35 179.43 185.09 177.55C181.83 175.67 178.09 175.99 174.26 178.23C167.14 182.34 161.57 192.37 161.57 201.06V212.7L154.93 216.53C154.733 216.644 154.545 216.774 154.37 216.92L154.19 217.06C153.918 217.277 153.696 217.551 153.539 217.861C153.382 218.172 153.294 218.512 153.28 218.86V258.79C153.284 258.962 153.307 259.133 153.35 259.3C153.559 259.972 154.003 260.547 154.6 260.92L154.97 261.16L156.6 262.1L158.31 263.1C158.978 263.469 159.7 263.729 160.45 263.87C162.496 264.322 164.636 264.046 166.5 263.09L196.73 245.64C197.197 245.433 197.601 245.105 197.9 244.69C198.199 244.276 198.382 243.789 198.43 243.28V203.37C198.406 203.033 198.3 202.706 198.12 202.42ZM168.07 201.06C168.07 194.7 172.39 186.84 177.5 183.89C179.24 182.89 180.8 182.63 181.79 183.21C182.96 183.88 183.65 185.78 183.65 188.29V199.93L175.06 204.93L168.06 208.93L168.07 201.06Z" fill="#263238"/>
<path d="M201.88 205.13C201.833 204.621 201.65 204.134 201.351 203.719C201.052 203.304 200.648 202.976 200.18 202.77L196.85 200.84C195.582 200.192 194.179 199.854 192.755 199.854C191.331 199.854 189.928 200.192 188.66 200.84L158.43 218.29C157.962 218.499 157.558 218.828 157.259 219.245C156.96 219.661 156.778 220.15 156.73 220.66V260.59C156.775 261.101 156.956 261.591 157.255 262.008C157.554 262.425 157.96 262.754 158.43 262.96L161.76 264.89C163.03 265.531 164.433 265.865 165.855 265.865C167.277 265.865 168.68 265.531 169.95 264.89L200.18 247.43C200.647 247.223 201.051 246.895 201.35 246.48C201.649 246.066 201.832 245.579 201.88 245.07V245.07V205.13Z" fill="#90CAF9"/>
<path opacity="0.4" d="M161.76 225L158.43 223C156.16 221.7 156.16 219.58 158.43 218.27L188.66 200.82C189.928 200.172 191.331 199.834 192.755 199.834C194.179 199.834 195.582 200.172 196.85 200.82L200.18 202.75C202.44 204.05 202.44 206.17 200.18 207.47L170 225C168.724 225.649 167.312 225.987 165.88 225.987C164.448 225.987 163.036 225.649 161.76 225V225Z" fill="white"/>
<path opacity="0.1" d="M165.86 225.93V265.86C164.43 265.881 163.019 265.537 161.76 264.86L158.42 263C157.95 262.792 157.545 262.462 157.247 262.043C156.95 261.624 156.771 261.132 156.73 260.62V220.66C156.775 221.168 156.956 221.655 157.253 222.07C157.551 222.485 157.953 222.813 158.42 223.02L161.76 224.95C163.019 225.624 164.432 225.962 165.86 225.93V225.93Z" fill="black"/>
<path d="M187.86 245.68L180.64 249.85L181.76 236.79C180.9 236.33 180.35 235.21 180.35 233.6C180.35 230.72 182.09 227.38 184.25 226.14C186.41 224.9 188.15 226.21 188.15 229.14C188.106 230.842 187.62 232.503 186.74 233.96L187.86 245.68Z" fill="#455A64"/>
<path d="M187.86 245.68L181.32 241.91L180.64 249.85L187.86 245.68Z" fill="#37474F"/>
<path d="M184.25 226.14C182.678 227.201 181.506 228.756 180.92 230.56L186.74 233.92C187.62 232.463 188.106 230.802 188.15 229.1C188.15 226.21 186.41 224.89 184.25 226.14Z" fill="#37474F"/>
<path d="M193.71 206V190C193.71 185 191.84 181.14 188.58 179.26C185.32 177.38 181.58 177.71 177.75 179.94C170.63 184.05 165.06 194.08 165.06 202.77V218.82C165.089 219.113 165.198 219.393 165.374 219.629C165.55 219.865 165.787 220.049 166.06 220.16C166.775 220.52 167.565 220.707 168.365 220.707C169.166 220.707 169.955 220.52 170.67 220.16C170.943 220.049 171.18 219.865 171.356 219.629C171.532 219.393 171.641 219.113 171.67 218.82V218.82V202.82C171.67 196.46 175.99 188.6 181.1 185.65C182.84 184.65 184.41 184.4 185.4 184.97C186.56 185.64 187.26 187.54 187.26 190.05V206.05C187.292 206.34 187.401 206.616 187.577 206.848C187.753 207.081 187.989 207.261 188.26 207.37C188.975 207.73 189.765 207.917 190.565 207.917C191.366 207.917 192.155 207.73 192.87 207.37C193.138 207.258 193.372 207.076 193.548 206.845C193.723 206.613 193.834 206.339 193.87 206.05L193.71 206Z" fill="#E0E0E0"/>
<path d="M232.57 276.21L236.97 273.67L238.71 271.55L234.31 274.09L232.57 276.21Z" fill="#90CAF9"/>
<path opacity="0.4" d="M232.57 276.21L236.97 273.67L238.71 271.55L234.31 274.09L232.57 276.21Z" fill="black"/>
<path d="M244.54 283.12L248.94 280.58L252.62 277.32L248.22 279.86L244.54 283.12Z" fill="#90CAF9"/>
<path opacity="0.4" d="M244.54 283.12L248.94 280.58L252.62 277.32L248.22 279.86L244.54 283.12Z" fill="black"/>
<path d="M282 291.9C283.041 293.296 283.672 294.955 283.82 296.69C282.787 295.29 282.157 293.633 282 291.9V291.9ZM292.23 292.03C290.75 281.95 285.34 272.03 278.88 268.25C275.78 266.46 272.88 266.4 270.62 267.74L266.48 270.13L266.24 270.27C266.055 270.37 265.878 270.484 265.71 270.61C265.356 270.842 265.021 271.103 264.71 271.39L264.57 271.52C264.44 271.65 264.31 271.8 264.19 271.94C264.07 272.08 263.88 272.3 263.75 272.48C263.451 272.874 263.181 273.288 262.94 273.72C262.82 273.94 262.69 274.17 262.58 274.41L226.39 253.52L221.99 256.05V258.86L222.37 259.07L222.72 259.28V259.87L221.99 260.29V261.92L227.31 273.17L232.57 276.17L234.31 274.05L238.95 276.83L241.61 281.39L244.55 283.08L248.22 279.82L252.73 282.43L254.25 288.68L261.81 293.05C262.194 294.643 262.672 296.213 263.24 297.75L263.41 298.24C265.93 304.84 269.93 310.5 274.41 313.11C274.955 313.423 275.524 313.694 276.11 313.92C276.421 314.043 276.738 314.15 277.06 314.24C277.337 314.318 277.617 314.381 277.9 314.43C278.786 314.595 279.694 314.595 280.58 314.43L280.95 314.34C281.125 314.31 281.296 314.26 281.46 314.19L281.85 314.04C281.991 313.987 282.128 313.924 282.26 313.85L282.63 313.66L282.82 313.55L282.91 313.5L287.06 311.11C290.4 309.17 292.57 304.27 292.57 297.34C292.574 295.553 292.443 293.768 292.18 292L292.23 292.03Z" fill="#90CAF9"/>
<path d="M280.66 300.4C278.93 299.4 277.52 296.4 277.52 293.75C277.52 291.1 278.93 289.75 280.66 290.75C282.39 291.75 283.81 294.75 283.81 297.41C283.81 300.07 282.4 301.4 280.66 300.4ZM287.79 294.57C286.31 284.49 280.89 274.52 274.43 270.79C271.43 269.07 268.68 268.94 266.43 270.13L266.19 270.27C266.005 270.37 265.828 270.484 265.66 270.61C265.306 270.842 264.971 271.103 264.66 271.39L264.52 271.52C264.39 271.65 264.26 271.8 264.14 271.94C264.02 272.08 263.83 272.3 263.7 272.48C263.401 272.874 263.131 273.288 262.89 273.72C262.77 273.94 262.64 274.17 262.53 274.41C261.881 275.77 261.41 277.209 261.13 278.69L222 256.05V258.86L222.38 259.07L222.73 259.28V259.87L222 260.29V261.92L227.32 273.17L232.58 276.17L234.32 274.05L238.96 276.83L241.62 281.39L244.56 283.08L248.23 279.82L252.74 282.43L254.26 288.68L261.82 293.05C262.204 294.643 262.682 296.213 263.25 297.75L263.42 298.24C265.94 304.84 269.94 310.5 274.42 313.11C274.965 313.423 275.534 313.694 276.12 313.92C276.431 314.043 276.748 314.15 277.07 314.24C277.347 314.318 277.627 314.381 277.91 314.43C278.796 314.595 279.704 314.595 280.59 314.43L280.96 314.34C281.135 314.31 281.306 314.26 281.47 314.19L281.86 314.04C282.001 313.987 282.138 313.924 282.27 313.85L282.64 313.66L282.83 313.55L282.92 313.5C286.12 311.5 288.18 306.65 288.18 299.88C288.177 298.103 288.047 296.328 287.79 294.57V294.57Z" fill="#90CAF9"/>
<path opacity="0.4" d="M283.81 297.37C283.81 300.05 282.4 301.37 280.67 300.37C278.94 299.37 277.52 296.37 277.52 293.72C277.52 291.07 278.93 289.72 280.67 290.72C281.187 291.022 281.638 291.423 282 291.9C282.153 293.634 282.783 295.292 283.82 296.69C283.831 296.917 283.828 297.144 283.81 297.37Z" fill="black"/>
<path opacity="0.4" d="M292.59 297.37C292.59 304.3 290.42 309.2 287.08 311.14L282.93 313.53C286.13 311.53 288.19 306.68 288.19 299.91C288.185 298.123 288.051 296.338 287.79 294.57C286.31 284.49 280.89 274.52 274.43 270.79C271.43 269.07 268.68 268.94 266.43 270.13L270.57 267.74C272.87 266.4 275.73 266.46 278.83 268.25C285.29 272 290.7 282 292.18 292C292.451 293.777 292.588 295.572 292.59 297.37V297.37Z" fill="white"/>
<path d="M288.19 299.91C288.19 306.68 286.13 311.51 282.93 313.53L287.08 311.14C290.42 309.2 292.59 304.3 292.59 297.37C292.59 297.11 292.59 296.85 292.59 296.6L288.2 299.14C288.18 299.39 288.19 299.65 288.19 299.91Z" fill="#90CAF9"/>
<path opacity="0.1" d="M288.19 299.91C288.19 306.68 286.13 311.51 282.93 313.53L287.08 311.14C290.42 309.2 292.59 304.3 292.59 297.37C292.59 297.11 292.59 296.85 292.59 296.6L288.2 299.14C288.18 299.39 288.19 299.65 288.19 299.91Z" fill="black"/>
<path opacity="0.15" d="M261.34 281.57V283L221.99 260.29L222.72 259.87V259.27L261.34 281.57Z" fill="black"/>
<path opacity="0.15" d="M261.34 282.17V283L221.99 260.29L222.72 259.87V259.86L261.34 282.17Z" fill="black"/>
<path opacity="0.15" d="M278.46 311.18C276.97 311.139 275.517 310.704 274.25 309.92C267.83 306.21 262.61 295.19 262.61 285.35C262.61 279.61 264.35 275.35 267.38 273.57C269.5 272.35 272 272.5 274.62 274.01C281.03 277.72 286.25 288.74 286.25 298.58C286.25 304.32 284.51 308.58 281.48 310.36C280.565 310.9 279.522 311.183 278.46 311.18V311.18ZM270.46 273.49C269.526 273.488 268.609 273.733 267.8 274.2C265.04 275.79 263.4 279.96 263.4 285.35C263.4 294.96 268.4 305.69 274.67 309.28C277.05 310.66 279.29 310.81 281.17 309.73C283.93 308.14 285.57 303.97 285.57 298.58C285.57 288.97 280.57 278.23 274.3 274.65C273.129 273.924 271.787 273.524 270.41 273.49H270.46Z" fill="black"/>
<path opacity="0.5" d="M262.58 274.41C261.931 275.77 261.46 277.209 261.18 278.69L222 256.05L226.4 253.52L262.58 274.41Z" fill="white"/>
<path d="M412 385C412.15 386.37 412.34 390.21 419.3 391.17C426.26 392.13 430.64 389.82 432.5 386.47C434.36 383.12 433.93 380.39 434.22 377.29C434.51 374.19 437.08 372.54 437.82 370.94C438.9 368.59 437.32 364.94 437.32 364.94L412 385Z" fill="#263238"/>
<path d="M361.17 374.14C361.007 374.701 360.963 375.289 361.04 375.868C361.117 376.446 361.315 377.002 361.62 377.5C363.178 378.733 364.972 379.634 366.891 380.15C368.81 380.666 370.814 380.785 372.78 380.5C377.027 379.921 381.073 378.334 384.58 375.87C387.27 374.069 390.454 373.15 393.69 373.24C397.04 373.13 399.49 372.39 399.75 371.51C400.19 369.96 400.19 368.99 399.46 369.03L361.17 374.14Z" fill="#263238"/>
<path d="M435.66 359.58C434.79 365.93 422.48 365.42 423.48 360.35L421.29 344.94L435.22 345.37L435.66 359.58Z" fill="#FFA8A7"/>
<path d="M412.46 381.88C413.08 380.73 414.87 379.09 415.66 378.06C419.833 372.747 422.351 366.324 422.9 359.59C422.9 359.22 422.97 358.5 423.35 358.27C423.73 358.04 424.1 358.36 424.5 358.54C425.189 358.832 425.916 359.02 426.66 359.1C429.12 359.38 431.85 358.79 432.46 358.87C433.07 358.95 433.09 360.42 433.05 362.02C433.93 361.47 434.22 360.37 435 359.73C435.43 359.38 435.62 359.37 435.61 358.8C435.61 358.43 435.61 358.09 435.61 357.72C436.25 357.54 436.78 359.96 437.3 361.81C437.9 363.96 438.65 366.38 437.81 368.56C437.265 369.748 436.595 370.874 435.81 371.92C434.481 373.737 433.616 375.852 433.29 378.08C433.19 379.08 433.29 380.08 433.13 381.02C432.9 382.655 432.206 384.19 431.13 385.443C430.054 386.696 428.642 387.615 427.06 388.09C422.81 389.41 416.44 389.2 412.7 386.24C411.4 385.21 411.84 383 412.46 381.88Z" fill="#37474F"/>
<path d="M396.62 358.52C393.24 361.14 389.18 362.68 385.03 360.79L384.03 334.86L398.03 337.37L396.62 358.52Z" fill="#FFA8A7"/>
<path d="M364 369.66C364.93 369.36 365.84 369.03 366.74 368.66C369.254 367.636 371.682 366.412 374 365C375 364.38 376 363.73 377 363C378 362.27 379 361.48 380 360.68C380.521 360.223 380.993 359.713 381.41 359.16C382.252 358.128 382.958 356.992 383.51 355.78C383.593 355.494 383.778 355.249 384.03 355.09C384.199 355.031 384.382 355.018 384.558 355.053C384.733 355.088 384.897 355.17 385.03 355.29C385.271 355.486 385.528 355.66 385.8 355.81L386.62 356.15C387.495 356.508 388.419 356.733 389.36 356.82C392.9 357.13 393.01 356.42 393.16 357.56C393.194 357.986 393.194 358.414 393.16 358.84C395.03 358.53 396.5 357.93 396.58 357.22L396.8 354.96C398.66 354.79 398.8 358.12 399.4 361.86C399.89 364.86 400.62 367.07 399.78 369.3C396.97 371.75 392.01 371.16 389.19 371.62C385.19 372.28 383.32 375.24 377.77 377.16C368.77 380.26 363.16 376.69 361.48 375.16C360.39 373.23 360.17 370.88 364 369.66Z" fill="#37474F"/>
<path d="M431.73 205.18C432.44 216.18 433.73 232.29 434.18 245C435.02 268.88 434.69 296.11 434.69 296.11C436.026 301.118 436.886 306.241 437.26 311.41C437.83 326.67 437.73 360.93 437.73 360.93C437.73 360.93 431.4 367.3 421.94 362.3C421.94 362.3 413.55 314.3 411.21 299.22C408.97 284.87 404.6 256.22 404.6 256.22L402.6 296.94C404.118 303.338 404.621 309.935 404.09 316.49C403.58 323.49 399.59 358 399.59 358C395.95 361.41 385.35 359.55 383.03 356.84C383.03 356.84 379.32 305.84 378.9 298.46C378.01 282.53 375.64 223.12 376.83 213.9C378.02 204.68 431.73 205.18 431.73 205.18Z" fill="#263238"/>
<path d="M404.6 256.18L401.82 237.8C401.82 237.8 394.19 236.36 388.61 232.22C388.61 232.22 390.78 237.13 399.22 240.63L402 257.75L402.66 296.9L404.6 256.18Z" fill="black"/>
<path d="M420.19 131.43C420.7 133.5 424.19 133.18 425.75 132.79C426.675 132.596 427.498 132.069 428.061 131.31C428.625 130.551 428.891 129.612 428.81 128.67C429.599 128.459 430.311 128.025 430.86 127.42C431.229 126.932 431.441 126.343 431.466 125.732C431.491 125.121 431.328 124.516 431 124C431.634 123.549 432.131 122.933 432.438 122.219C432.745 121.505 432.849 120.72 432.74 119.95C432.526 118.836 431.915 117.837 431.02 117.14C430.154 116.439 429.075 116.054 427.96 116.05C427.6 116.05 427.24 116.77 427.76 116.83C428.571 116.987 429.334 117.329 429.99 117.83C430.673 118.308 431.202 118.975 431.51 119.75C431.702 120.365 431.702 121.024 431.509 121.639C431.316 122.254 430.939 122.795 430.43 123.19C430.247 122.961 430.043 122.75 429.82 122.56C429.125 121.938 428.212 121.614 427.28 121.66C426.936 121.651 426.596 121.741 426.3 121.918C426.005 122.095 425.765 122.352 425.61 122.66C425.37 123.44 426.18 124.1 426.78 124.44C427.216 124.686 427.699 124.837 428.197 124.882C428.695 124.926 429.198 124.865 429.67 124.7C429.748 124.674 429.825 124.644 429.9 124.61C429.953 124.714 430 124.821 430.04 124.93C430.58 126.36 429.71 127.25 428.54 127.65C427.83 126.18 425.91 125.11 424.37 125.88C424.175 125.965 424.003 126.098 423.872 126.265C423.74 126.433 423.652 126.631 423.615 126.841C423.579 127.051 423.595 127.266 423.662 127.469C423.729 127.671 423.845 127.854 424 128C424.641 128.605 425.489 128.942 426.37 128.94C426.773 128.97 427.177 128.97 427.58 128.94C427.669 129.581 427.52 130.232 427.16 130.77C426.798 131.18 426.349 131.504 425.845 131.719C425.342 131.933 424.797 132.033 424.25 132.01C423.008 132.11 421.777 131.718 420.82 130.92C420.53 130.67 420.11 131.12 420.19 131.43ZM429.32 123.75C428.995 123.842 428.653 123.862 428.319 123.806C427.986 123.751 427.668 123.623 427.39 123.43C426.97 123.15 426.5 122.74 427.25 122.69C427.654 122.695 428.051 122.793 428.41 122.977C428.769 123.161 429.081 123.425 429.32 123.75ZM427.23 127.9C426.807 127.918 426.383 127.877 425.97 127.78C425.67 127.71 424.36 127.04 425.03 126.78C425.54 126.55 426.44 127.06 426.8 127.38C426.966 127.534 427.11 127.708 427.23 127.9V127.9Z" fill="#263238"/>
<path d="M422.62 92.75C422.839 92.781 423.056 92.8244 423.27 92.88C423.117 92.2201 423.192 91.5279 423.483 90.9161C423.773 90.3042 424.262 89.8086 424.87 89.51C425.647 89.1983 426.515 89.2014 427.29 89.5188C428.064 89.8361 428.685 90.4427 429.02 91.21L424.49 93.28C425.962 93.8039 427.189 94.8502 427.94 96.22C429.18 98.78 427.54 104.22 425.89 110.92C424.96 115.145 423.74 119.302 422.24 123.36C421.48 125.36 420.11 125.36 420.11 125.36V118.67L420.4 113.12C420.4 113.12 416.84 108.25 416.45 104.26C415.94 99.13 417.02 97.03 417.02 97.03L422.62 92.75Z" fill="#263238"/>
<path d="M398 87C400.236 87.004 402.42 87.6711 404.277 88.9169C406.133 90.1627 407.579 91.9313 408.43 93.9988C409.281 96.0663 409.499 98.3397 409.058 100.531C408.616 102.723 407.534 104.735 405.949 106.311C404.364 107.888 402.347 108.959 400.153 109.389C397.959 109.819 395.686 109.588 393.624 108.726C391.561 107.864 389.8 106.41 388.564 104.547C387.328 102.684 386.672 100.496 386.68 98.26C386.684 96.7774 386.98 95.31 387.551 93.9418C388.122 92.5735 388.957 91.3311 390.008 90.2855C391.059 89.2399 392.306 88.4116 393.677 87.8479C395.049 87.2842 396.518 86.996 398 87V87Z" fill="#263238"/>
<path d="M420.19 112.24C421.53 113.4 422.62 110.4 423.75 109.24C424.88 108.08 428.54 106.47 430.36 110.33C432.18 114.19 428.68 119.6 425.93 120.87C421.93 122.74 420.11 118.69 420.11 118.69V135.44C415.88 143.06 406.73 141.28 402.4 142.35C401.754 140.402 401.754 138.298 402.4 136.35V130.9C400.579 131.25 398.718 131.347 396.87 131.19C393.21 130.61 391.25 127.6 390.16 123.64C388.4 117.28 388.03 106.59 390.48 94.24C394.58 91.08 408.43 91.6 417 97C416.4 108 418.85 111.08 420.19 112.24Z" fill="#FFA8A7"/>
<path d="M402.41 130.9C402.41 130.9 410.57 129.29 413.41 127.78C415.109 126.922 416.505 125.565 417.41 123.89C416.974 125.56 416.206 127.125 415.15 128.49C413.06 131.15 402.42 133.08 402.42 133.08L402.41 130.9Z" fill="#F28F8F"/>
<path d="M384.89 105.63C384.959 106.275 385.22 106.885 385.64 107.38C385.779 107.569 385.881 107.783 385.94 108.01C386.151 109.607 386.485 111.185 386.94 112.73C387.308 113.756 387.988 114.64 388.885 115.259C389.782 115.878 390.85 116.2 391.94 116.18C392.516 116.208 393.093 116.171 393.66 116.07C393.703 116.077 393.747 116.077 393.79 116.07C394.288 115.972 394.767 115.796 395.21 115.55H395.29L395.42 115.47L395.56 115.36C395.613 115.336 395.66 115.302 395.7 115.26C395.76 115.229 395.814 115.189 395.86 115.14L396 115L396.28 114.73C396.754 114.204 397.142 113.607 397.43 112.96C398.2 111.33 398.05 109.02 399.25 108.79C399.3 108.795 399.35 108.795 399.4 108.79H399.56C401.2 108.85 400.96 111.35 401.84 113.16C402.327 114.306 403.154 115.275 404.209 115.937C405.264 116.598 406.496 116.92 407.74 116.86H408.19H408.56C408.845 116.844 409.129 116.811 409.41 116.76L409.68 116.7L409.94 116.63H410.1C410.446 116.518 410.781 116.374 411.1 116.2C411.21 116.12 411.32 116.06 411.43 115.99C411.626 115.841 411.813 115.681 411.99 115.51C412.459 115.036 412.832 114.475 413.09 113.86C413.577 112.346 413.935 110.794 414.16 109.22C414.212 108.981 414.307 108.754 414.44 108.55C414.877 108.092 415.166 107.514 415.27 106.89C415.297 106.564 415.213 106.238 415.031 105.966C414.85 105.693 414.582 105.49 414.27 105.39L413.41 105.25C410.62 104.86 406.98 104.64 404.79 105.19C402.03 105.88 401.06 106.74 399.54 106.69C398.02 106.64 397.22 105.69 394.63 104.8C392.63 104.08 389.17 104.05 386.57 104.23C386.28 104.23 386.03 104.23 385.76 104.29C385.33 104.21 384.85 104.88 384.89 105.63ZM402.84 107.69C403.056 107.431 403.325 107.223 403.63 107.08C403.678 107.05 403.728 107.023 403.78 107H403.85C403.983 106.95 404.113 106.893 404.24 106.83C404.35 106.83 404.48 106.75 404.6 106.7C404.985 106.558 405.38 106.441 405.78 106.35L406.25 106.25C406.64 106.18 407.05 106.12 407.45 106.08H407.74C410.37 105.92 412 106.57 412.58 107.08C413.16 107.59 412.86 110.08 412.58 111.3C412.58 111.3 412.58 111.37 412.58 111.39C412.589 111.423 412.589 111.457 412.58 111.49C412.552 111.656 412.512 111.82 412.46 111.98C412.439 112.086 412.409 112.19 412.37 112.29V112.29C412.31 112.46 412.25 112.63 412.18 112.81C412.164 112.871 412.137 112.929 412.1 112.98C412.092 113.02 412.075 113.058 412.05 113.09C412.05 113.09 412.05 113.16 412.05 113.2L411.97 113.35C411.97 113.41 411.91 113.46 411.87 113.51C411.843 113.572 411.806 113.63 411.76 113.68C411.729 113.74 411.692 113.797 411.65 113.85C411.229 114.426 410.666 114.882 410.016 115.175C409.365 115.468 408.65 115.587 407.94 115.52C407.213 115.565 406.484 115.453 405.804 115.191C405.124 114.928 404.509 114.522 404 114C403.376 113.282 402.952 112.413 402.77 111.48C402.47 110.05 402.31 108.43 402.84 107.69ZM387.39 106.11C387.575 105.931 387.797 105.795 388.04 105.71L388.32 105.6H388.49H388.64H388.74H388.89C389.092 105.559 389.295 105.529 389.5 105.51H389.83H390.02C390.073 105.52 390.127 105.52 390.18 105.51C390.32 105.5 390.46 105.5 390.6 105.51H390.9C391.305 105.531 391.709 105.575 392.11 105.64C393.98 105.95 395.93 106.86 396.42 107.64C396.91 108.42 396.77 110.01 396.5 111.39C396.437 111.699 396.354 112.003 396.25 112.3C396.242 112.323 396.242 112.347 396.25 112.37C396.254 112.403 396.254 112.437 396.25 112.47C396.25 112.47 396.25 112.47 396.25 112.53C396.235 112.568 396.219 112.604 396.2 112.64C396.2 112.72 396.13 112.79 396.09 112.86C396.061 112.929 396.027 112.995 395.99 113.06V113.12L395.91 113.26L395.83 113.37C395.394 113.99 394.796 114.477 394.1 114.779C393.405 115.081 392.641 115.185 391.89 115.08C391.192 115.063 390.508 114.885 389.89 114.56C388.05 113.56 387.62 111.48 387.41 110.56C387.13 109.08 386.82 106.62 387.39 106.11Z" fill="#263238"/>
<path d="M414.1 105.3L426.1 107.99C425.017 108.269 424.053 108.89 423.35 109.76L414.09 108L414.1 105.3Z" fill="#263238"/>
<path d="M402.77 111.44C402.945 112.387 403.37 113.271 404 114C404.496 114.519 405.097 114.926 405.762 115.195C406.428 115.464 407.143 115.589 407.86 115.56C408.57 115.627 409.285 115.508 409.936 115.215C410.586 114.922 411.149 114.466 411.57 113.89C411.613 113.837 411.649 113.78 411.68 113.72C411.726 113.67 411.763 113.612 411.79 113.55C411.79 113.5 411.85 113.45 411.89 113.39L411.97 113.24C411.97 113.24 411.97 113.17 411.97 113.13C411.995 113.098 412.012 113.06 412.02 113.02C412.057 112.969 412.084 112.911 412.1 112.85C412.17 112.67 412.23 112.5 412.29 112.33C412.329 112.23 412.36 112.126 412.38 112.02C412.432 111.86 412.472 111.696 412.5 111.53C412.509 111.497 412.509 111.463 412.5 111.43C412.5 111.43 412.5 111.37 412.5 111.34C412.77 110.12 413.1 107.68 412.5 107.12C411.9 106.56 410.29 105.91 407.66 106.12H407.37C406.97 106.12 406.56 106.22 406.17 106.29L405.7 106.39C405.3 106.481 404.906 106.598 404.52 106.74C404.4 106.74 404.27 106.82 404.16 106.87C404.033 106.933 403.903 106.99 403.77 107.04H403.7C403.648 107.063 403.598 107.089 403.55 107.12C403.245 107.263 402.976 107.471 402.76 107.73C402.31 108.43 402.47 110.05 402.77 111.44Z" fill="#37474F"/>
<path d="M386.772 110.644C386.85 111.656 387.199 112.629 387.783 113.464C388.248 114.063 388.836 114.558 389.509 114.915C390.181 115.272 390.922 115.484 391.683 115.535C392.425 115.686 393.194 115.642 393.913 115.41C394.633 115.177 395.279 114.764 395.789 114.209C395.839 114.158 395.885 114.103 395.924 114.043C395.978 113.996 396.024 113.94 396.059 113.878C396.065 113.826 396.134 113.78 396.183 113.722L396.284 113.574C396.284 113.574 396.292 113.501 396.297 113.459C396.327 113.428 396.349 113.39 396.362 113.349C396.406 113.3 396.442 113.243 396.466 113.181C396.56 113 396.642 112.829 396.725 112.658C396.778 112.557 396.821 112.452 396.855 112.344C396.928 112.182 396.988 112.015 397.037 111.844C397.05 111.811 397.054 111.775 397.048 111.74C397.048 111.74 397.055 111.677 397.058 111.645C397.481 110.399 398.104 107.882 397.534 107.228C396.963 106.574 395.336 105.71 392.535 105.631L392.229 105.598C393.286 105.458 391.807 105.553 392.229 105.598L391.5 105.5C391.067 105.55 390.423 105.395 390 105.5C389.873 105.486 388.204 105.558 388.083 105.598C387.941 105.65 388.146 105.654 388 105.691L388.847 105.825C388.679 105.321 387.837 105.799 387.783 105.825C387.445 105.94 387.32 106.241 387 106.5C386.446 107.182 386.612 109.155 386.772 110.644Z" fill="#37474F"/>
<path d="M387.71 85.51C387.71 85.38 387.71 85.24 387.76 85.1C387.777 84.8416 387.871 84.5942 388.03 84.39C388.58 83.82 389.68 85.26 390.03 85.59C390.404 85.9161 390.795 86.2232 391.2 86.51C391.582 86.7 391.95 86.9172 392.3 87.16C392.055 85.801 392.055 84.409 392.3 83.05C392.47 82.15 392.72 80.05 393.84 79.84C394.5 79.7 395.08 80.26 395.57 80.72C400.04 84.9 405.88 82.97 411.26 83.14C415.77 83.28 421.2 85.14 423.26 89.5C424.19 91.5 424.35 93.61 422.51 94.99C421.33 95.89 420.17 95.85 419.51 97.28C419.35 97.63 418.32 101.89 418.93 101.85C417.826 101.963 416.717 101.68 415.801 101.052C414.886 100.424 414.223 99.491 413.93 98.42C413.82 97.95 413.57 97.1 413.47 96.62C413.446 96.4793 413.391 96.3455 413.31 96.2276C413.23 96.1098 413.125 96.0105 413.003 95.9366C412.88 95.8627 412.744 95.8159 412.602 95.7992C412.46 95.7825 412.316 95.7964 412.18 95.84C410.81 96.14 409.92 96.7 408.63 97.05C404.946 98.1094 401.073 98.3383 397.29 97.72C394.582 97.2059 392.096 95.8724 390.17 93.9C389.193 92.7535 388.468 91.4135 388.044 89.9677C387.62 88.5219 387.506 87.0028 387.71 85.51V85.51Z" fill="#263238"/>
<path d="M405.28 103.09L409.28 103.7C409.35 103.165 409.21 102.623 408.889 102.189C408.568 101.754 408.092 101.461 407.56 101.37C407.297 101.331 407.029 101.344 406.771 101.409C406.513 101.475 406.271 101.591 406.059 101.751C405.847 101.911 405.668 102.112 405.535 102.342C405.401 102.572 405.314 102.826 405.28 103.09Z" fill="#263238"/>
<path d="M404.36 121.47L401.03 122.34C401.077 122.562 401.168 122.772 401.298 122.958C401.428 123.144 401.594 123.302 401.786 123.422C401.979 123.542 402.193 123.623 402.417 123.659C402.641 123.694 402.87 123.685 403.09 123.63C403.539 123.503 403.923 123.208 404.159 122.805C404.396 122.403 404.468 121.924 404.36 121.47V121.47Z" fill="#F28F8F"/>
<path d="M390.3 103.32L394.3 102.88C394.284 102.618 394.215 102.361 394.097 102.127C393.979 101.892 393.814 101.683 393.613 101.514C393.412 101.345 393.179 101.218 392.927 101.142C392.676 101.066 392.411 101.041 392.15 101.07C391.613 101.138 391.121 101.409 390.777 101.827C390.433 102.245 390.263 102.78 390.3 103.32V103.32Z" fill="#263238"/>
<path d="M400 108.82L399.46 118.15L394.26 116.79L399.45 108.71C399.64 108.704 399.828 108.741 400 108.82V108.82Z" fill="#F28F8F"/>
<path d="M422.34 115.3C422.338 115.783 422.48 116.256 422.746 116.658C423.013 117.061 423.394 117.375 423.839 117.561C424.285 117.748 424.776 117.797 425.25 117.704C425.724 117.611 426.16 117.38 426.502 117.039C426.844 116.698 427.078 116.263 427.172 115.79C427.267 115.316 427.22 114.825 427.035 114.379C426.851 113.932 426.538 113.55 426.137 113.282C425.735 113.013 425.263 112.87 424.78 112.87C424.46 112.869 424.143 112.931 423.847 113.052C423.551 113.174 423.282 113.352 423.055 113.578C422.829 113.804 422.649 114.072 422.526 114.368C422.403 114.663 422.34 114.98 422.34 115.3Z" fill="#263238"/>
<path d="M422.08 110.85C422.289 110.112 422.658 109.43 423.16 108.85C423.415 108.607 423.719 108.422 424.052 108.308C424.386 108.194 424.74 108.154 425.09 108.19C425.09 108.19 425.16 108.27 425.09 108.29C424.82 108.45 424.63 108.54 424.36 108.73C424.091 108.912 423.843 109.123 423.62 109.36C423.424 109.587 423.266 109.843 423.15 110.12C423.006 110.437 422.912 110.774 422.87 111.12C422.804 111.664 422.884 112.216 423.1 112.72C423.212 112.999 423.367 113.259 423.56 113.49C423.768 113.659 423.95 113.858 424.1 114.08C424.25 114.39 423.82 114.92 423.49 114.74C422.865 114.347 422.395 113.75 422.16 113.05C421.867 112.351 421.838 111.569 422.08 110.85V110.85Z" fill="#263238"/>
<path d="M387.42 144.07C384.04 146.29 379.37 149.17 378.23 152.3C377.09 155.43 373.8 173.58 373.44 179.43C376.437 180.842 379.647 181.747 382.94 182.11L387.42 144.07Z" fill="#455A64"/>
<path d="M427.35 135.42C435.91 140.12 444.35 147.14 446.17 149.84C446.17 149.84 441.17 166.51 436.76 174.42C432.35 182.33 429.99 205.72 429.99 205.72C429.99 205.72 399.83 215.72 390.38 216.51C380.93 217.3 379.73 213.28 379.73 213.28C379.73 213.28 379.53 187.13 381.73 169.68C383.93 152.23 383.45 147.04 387.45 144.07C390.04 142.16 401.2 137.32 401.2 137.32V142.32C407.3 142.44 427.35 135.42 427.35 135.42Z" fill="#37474F"/>
<path d="M398.85 145C398.297 143.872 398.075 142.609 398.21 141.36L400.73 139.53V142.7L398.85 145Z" fill="#90CAF9"/>
<path opacity="0.25" d="M398.85 145C398.297 143.872 398.075 142.609 398.21 141.36L400.73 139.53V142.7L398.85 145Z" fill="black"/>
<path d="M403.75 143.07L410.27 139.35L415.17 143.23L405.27 147.34L403.75 143.07Z" fill="#90CAF9"/>
<path opacity="0.25" d="M403.75 143.07L410.27 139.35L415.17 143.23L405.27 147.34L403.75 143.07Z" fill="black"/>
<path d="M420.11 128.34V129.66C419.86 130.91 417.4 133.81 411.19 136.59C404.98 139.37 402.4 142.34 402.4 142.34C404.078 142.385 405.738 142.692 407.32 143.25C410.15 144.25 414.85 147.85 416.19 147.81C417.53 147.77 419.38 144.07 422.89 140.38C425.89 137.28 427.35 135.38 427.35 135.38C427.35 135.38 422.53 128.37 420.11 128.34Z" fill="#455A64"/>
<path d="M402.4 142.34C400.15 142.59 398.04 144.15 397.49 143.34C396.94 142.53 398.85 135 402.38 132.71L402.4 142.34Z" fill="#455A64"/>
<path d="M380.6 181.8C380.6 181.8 380.33 186.47 380.26 188.07C380.19 189.67 382.86 217.07 382.86 217.07L373.44 221.07C373.44 221.07 372.3 210.51 371.93 204.63C371.625 198.575 371.896 192.504 372.74 186.5C373.48 181.5 373.74 179.58 373.74 179.58C375.944 180.554 378.243 181.297 380.6 181.8V181.8Z" fill="#F28F8F"/>
<path d="M374.2 234.46C374.2 234.46 374.2 234.88 374.2 236.46C374.436 239.104 374.966 241.713 375.78 244.24C376.37 245.72 377.78 248.97 378.52 249.35C379.219 249.74 380.029 249.884 380.82 249.76C382.31 249.62 383.87 250.39 385.28 249.71C385.826 249.412 386.403 249.174 387 249C387.87 248.79 388.87 249.05 389.65 248.59C390.15 248.3 390.46 247.76 390.95 247.46C391.67 247.02 392.62 247.18 393.39 246.83C393.693 246.675 393.962 246.461 394.18 246.199C394.398 245.938 394.562 245.636 394.66 245.31C395.1 243.99 394.66 242.5 394.4 241.18C394.862 240.53 395.098 239.747 395.07 238.95C395.099 237.241 394.901 235.536 394.48 233.88C394.15 232.88 387.31 228.99 387.31 228.99L385.96 228.1C383.09 227.461 380.085 227.944 377.56 229.45C373.55 232 374.2 234.46 374.2 234.46Z" fill="#FFA8A7"/>
<path d="M376.05 234.27C374.24 237.27 375.3 242.68 375.31 242.74C374.743 240.693 374.372 238.597 374.2 236.48C374.2 234.88 374.2 234.48 374.2 234.48C374.2 234.48 373.55 231.98 377.51 229.48C380.035 227.974 383.04 227.491 385.91 228.13C385.91 228.13 377.86 231.24 376.05 234.27Z" fill="#F28F8F"/>
<path d="M394.35 241.15C393.712 239.199 392.726 237.38 391.44 235.78C390.68 235.08 390.04 234.19 390.8 234.49C391.56 234.79 392.62 234.96 393.04 234.43C393.46 233.9 393.55 234.82 393.04 235.54C392.53 236.26 392.96 236.81 393.51 237.99C393.932 239 394.215 240.063 394.35 241.15V241.15Z" fill="#F28F8F"/>
<path d="M443.56 150.17C446.41 151.17 446.79 158.97 446.17 165.97C445.55 172.97 440.09 189.52 437.6 195.28C434.81 201.75 433.12 205.48 431.26 207.51C429.4 209.54 425.51 211.21 420.53 213.79C416.03 216.12 412.95 217.3 405.27 219.68C396.61 222.37 393.27 222.53 391.43 223.82C389.59 225.11 389.07 227.91 387.26 228.96L385.91 228.07C382.866 228.801 379.959 230.017 377.3 231.67C376.109 232.408 375.059 233.353 374.2 234.46V236.46C374.2 236.46 372.01 237.38 370.15 233.46C368.29 229.54 367.44 223.66 369.58 221.09C371.72 218.52 378.5 215 384 213.28C389.5 211.56 392.23 209.76 398.65 205.88C405.49 201.75 410.24 199 413.65 197.14C414.94 196.39 415.81 195.48 416.39 193.14C416.85 191.26 418.22 185.7 419.06 181.52C420.4 174.53 423.41 153.39 443.56 150.17Z" fill="#FFA8A7"/>
<path d="M446.17 149.84C446.17 149.84 447.5 150.07 447.68 155.61C447.917 160.852 447.666 166.105 446.93 171.3C446.2 175.55 441.93 188.1 441.93 188.1C441.93 188.1 429.66 192.1 417.1 187.33C417.1 187.33 420.05 169.23 421.16 164.43C422.27 159.63 437.82 144.82 446.17 149.84Z" fill="#455A64"/>
<path d="M402.75 150.2C402.05 154.7 401.09 165.39 401.09 180.48C401.09 184.18 395.69 191.69 394.42 191.53C393.15 191.37 390.82 184.31 390.49 180.21C391 170.29 397 154.9 399.62 149.64L402.75 150.2Z" fill="#90CAF9"/>
<path opacity="0.15" d="M399.42 150.07C399.479 149.923 399.546 149.78 399.62 149.64L402.75 150.2L402.56 151.52C401.383 151.395 400.279 150.885 399.42 150.07V150.07Z" fill="black"/>
<path d="M403.75 143.07C402.767 142.839 401.761 142.718 400.75 142.71C399.953 143.331 399.299 144.115 398.83 145.01C398.742 146.591 399.005 148.173 399.6 149.64C400.05 149.956 400.563 150.169 401.103 150.266C401.644 150.363 402.199 150.34 402.73 150.2C403.832 149.514 404.709 148.52 405.25 147.34C405.327 145.775 404.788 144.243 403.75 143.07V143.07Z" fill="#90CAF9"/>
</svg>
