<svg width="500" height="500" viewBox="0 0 500 500" fill="none" xmlns="http://www.w3.org/2000/svg">
<path d="M250 479.27C382.355 479.27 489.65 417.324 489.65 340.91C489.65 264.496 382.355 202.55 250 202.55C117.645 202.55 10.3501 264.496 10.3501 340.91C10.3501 417.324 117.645 479.27 250 479.27Z" fill="#F5F5F5"/>
<path d="M44.3418 400.523L34.5418 394.863C34.3841 394.811 34.2469 394.71 34.1496 394.575C34.0524 394.441 34 394.279 34 394.113C34 393.947 34.0524 393.785 34.1496 393.65C34.2469 393.515 34.3841 393.415 34.5418 393.363L217.922 287.473C218.325 287.27 218.77 287.165 219.222 287.165C219.673 287.165 220.118 287.27 220.522 287.473L230.322 293.133C231.042 293.553 231.042 294.223 230.322 294.633L46.9218 400.523C46.5209 400.722 46.0794 400.825 45.6318 400.825C45.1842 400.825 44.7427 400.722 44.3418 400.523V400.523Z" fill="#E0E0E0"/>
<path d="M223.862 235.003C223.862 235.003 221.792 218.003 226.972 203.153C232.152 188.303 241.562 177.603 251.972 174.253C262.382 170.903 273.192 178.583 263.472 187.963C253.752 197.343 235.292 208.963 232.002 236.103L223.862 235.003Z" fill="#90CAF9"/>
<g opacity="0.3">
<path opacity="0.3" d="M223.862 235.003C223.862 235.003 221.792 218.003 226.972 203.153C232.152 188.303 241.562 177.603 251.972 174.253C262.382 170.903 273.192 178.583 263.472 187.963C253.752 197.343 235.292 208.963 232.002 236.103L223.862 235.003Z" fill="black"/>
</g>
<path d="M225.922 229.963H225.802C225.726 229.952 225.653 229.926 225.588 229.887C225.522 229.848 225.465 229.796 225.419 229.735C225.374 229.673 225.341 229.603 225.322 229.529C225.304 229.455 225.3 229.378 225.312 229.303C229.922 199.183 248.422 182.653 257.562 178.123C257.687 178.095 257.818 178.11 257.934 178.165C258.05 178.22 258.145 178.311 258.203 178.426C258.261 178.54 258.28 178.67 258.256 178.797C258.233 178.923 258.168 179.037 258.072 179.123C249.072 183.563 231.002 199.793 226.462 229.443C226.446 229.579 226.383 229.705 226.285 229.8C226.186 229.894 226.058 229.952 225.922 229.963V229.963Z" fill="white"/>
<path d="M277.922 222.443C276.062 227.073 267.922 226.583 267.852 232.313C267.852 233.843 268.522 235.313 268.672 236.833C269.142 241.533 265.262 244.603 261.102 245.273C256.942 245.943 251.902 243.483 247.932 245.943C245.032 247.753 244.242 251.533 242.752 254.613C241.245 257.6 238.923 260.099 236.054 261.819C233.185 263.54 229.886 264.411 226.542 264.333C224.542 264.263 222.812 263.503 223.162 261.333C223.432 260.591 223.512 259.793 223.392 259.013C223.162 257.903 222.652 256.853 222.332 255.773C220.872 251.003 219.532 246.033 216.802 241.773C214.072 237.513 216.142 231.153 219.802 228.153C223.212 225.353 228.152 224.543 230.902 221.083C232.272 219.373 232.902 217.203 234.072 215.343C235.263 213.497 236.923 212 238.882 211.006C240.841 210.011 243.029 209.555 245.222 209.683C248.432 209.903 251.372 211.333 254.462 212.103C257.15 212.627 259.903 212.729 262.622 212.403C267.542 212.083 273.622 212.133 276.862 216.583C277.506 217.398 277.939 218.358 278.124 219.38C278.309 220.402 278.239 221.454 277.922 222.443V222.443Z" fill="#90CAF9"/>
<g opacity="0.1">
<path opacity="0.1" d="M277.922 222.443C276.062 227.073 267.922 226.583 267.852 232.313C267.852 233.843 268.522 235.313 268.672 236.833C269.142 241.533 265.262 244.603 261.102 245.273C256.942 245.943 251.902 243.483 247.932 245.943C245.032 247.753 244.242 251.533 242.752 254.613C241.245 257.6 238.923 260.099 236.054 261.819C233.185 263.54 229.886 264.411 226.542 264.333C224.542 264.263 222.812 263.503 223.162 261.333C223.432 260.591 223.512 259.793 223.392 259.013C223.162 257.903 222.652 256.853 222.332 255.773C220.872 251.003 219.532 246.033 216.802 241.773C214.072 237.513 216.142 231.153 219.802 228.153C223.212 225.353 228.152 224.543 230.902 221.083C232.272 219.373 232.902 217.203 234.072 215.343C235.263 213.497 236.923 212 238.882 211.006C240.841 210.011 243.029 209.555 245.222 209.683C248.432 209.903 251.372 211.333 254.462 212.103C257.15 212.627 259.903 212.729 262.622 212.403C267.542 212.083 273.622 212.133 276.862 216.583C277.506 217.398 277.939 218.358 278.124 219.38C278.309 220.402 278.239 221.454 277.922 222.443V222.443Z" fill="black"/>
</g>
<path d="M224.782 254.283H224.732C224.666 254.268 224.604 254.239 224.549 254.2C224.494 254.16 224.447 254.11 224.412 254.052C224.377 253.995 224.353 253.931 224.343 253.864C224.333 253.797 224.336 253.728 224.352 253.663C231.532 222.083 264.352 216.343 272.042 216.663C272.119 216.641 272.201 216.637 272.28 216.652C272.359 216.666 272.434 216.699 272.498 216.748C272.562 216.796 272.614 216.859 272.65 216.931C272.686 217.003 272.705 217.082 272.705 217.163C272.705 217.243 272.686 217.323 272.65 217.395C272.614 217.467 272.562 217.529 272.498 217.578C272.434 217.626 272.359 217.659 272.28 217.674C272.201 217.689 272.119 217.685 272.042 217.663C264.472 217.393 232.412 223.003 225.382 253.903C225.351 254.032 225.271 254.143 225.159 254.214C225.047 254.285 224.912 254.31 224.782 254.283V254.283Z" fill="white"/>
<path d="M260.802 237.083C260.696 237.065 260.599 237.017 260.522 236.943C257.388 234.427 253.738 232.631 249.832 231.684C245.926 230.737 241.86 230.661 237.922 231.463C237.787 231.483 237.649 231.451 237.537 231.373C237.426 231.295 237.348 231.176 237.322 231.043C237.309 230.976 237.309 230.908 237.322 230.842C237.336 230.776 237.363 230.713 237.401 230.657C237.439 230.601 237.488 230.553 237.545 230.517C237.601 230.48 237.665 230.455 237.732 230.443C241.838 229.61 246.078 229.693 250.149 230.687C254.22 231.681 258.021 233.561 261.282 236.193C261.33 236.24 261.369 236.297 261.395 236.36C261.422 236.422 261.435 236.49 261.435 236.558C261.435 236.626 261.422 236.693 261.395 236.756C261.369 236.818 261.33 236.875 261.282 236.923C261.222 236.988 261.146 237.037 261.062 237.065C260.978 237.093 260.889 237.099 260.802 237.083V237.083Z" fill="white"/>
<path d="M153.632 360.043L179.922 344.843C182.622 343.283 183.982 341.233 183.982 339.183C183.982 337.133 183.982 335.523 183.982 335.523L159.252 321.523C158.488 321.028 157.853 320.36 157.398 319.572C156.942 318.785 156.68 317.901 156.632 316.993V284.593L110.732 311.113V343.483C110.78 344.391 111.042 345.275 111.498 346.062C111.953 346.85 112.588 347.518 113.352 348.013L134.012 360.013C139.432 363.173 148.212 363.173 153.632 360.043Z" fill="#263238"/>
<path opacity="0.15" d="M121.762 349.223V352.863L113.342 348.013C112.582 347.515 111.951 346.845 111.497 346.058C111.044 345.272 110.782 344.389 110.732 343.483V311.083L119.482 306.083C119.662 308.303 119.852 310.603 120.032 312.833L113.922 316.333V341.683C113.967 342.591 114.227 343.475 114.681 344.262C115.135 345.05 115.769 345.718 116.532 346.213L121.762 349.223Z" fill="black"/>
<path d="M113.922 341.683C113.972 342.592 114.235 343.477 114.69 344.266C115.145 345.054 115.779 345.725 116.542 346.223L134.032 356.413C139.442 359.543 148.232 359.543 153.652 356.413L179.952 341.213C185.372 338.083 185.372 333.013 179.952 329.883L162.432 319.683C161.67 319.186 161.036 318.518 160.581 317.731C160.126 316.944 159.862 316.06 159.812 315.153V289.813L113.922 316.333V341.683Z" fill="#37474F"/>
<path opacity="0.15" d="M167.752 322.743L162.432 319.683C161.67 319.186 161.036 318.518 160.581 317.731C160.126 316.944 159.862 316.06 159.812 315.153V289.813L113.922 316.333V341.683C113.972 342.592 114.235 343.477 114.69 344.266C115.145 345.054 115.779 345.725 116.542 346.223L121.772 349.223L167.752 322.743Z" fill="black"/>
<path opacity="0.15" d="M183.992 335.523V339.183C183.992 341.233 182.632 343.273 179.922 344.843L153.632 360.033C150.754 361.576 147.537 362.377 144.272 362.363V358.683C147.537 358.697 150.754 357.896 153.632 356.353L179.922 341.193C182.632 339.683 183.992 337.583 183.992 335.523Z" fill="black"/>
<path d="M40.1918 376.613C41.1827 377.095 42.2733 377.336 43.375 377.317C44.4767 377.298 45.5583 377.019 46.5318 376.503C69.1018 363.503 201.532 287.023 224.072 274.003C225.023 273.38 225.814 272.542 226.382 271.557C226.95 270.572 227.279 269.468 227.342 268.333V112.933C227.381 111.817 227.116 110.711 226.575 109.734C226.034 108.758 225.237 107.947 224.269 107.388C223.302 106.83 222.201 106.546 221.085 106.566C219.968 106.586 218.878 106.91 217.932 107.503L40.3918 210.003C39.4396 210.627 38.6474 211.466 38.0794 212.453C37.5114 213.439 37.1833 214.546 37.1218 215.683V371.083C37.1636 372.181 37.4633 373.254 37.9966 374.214C38.53 375.175 39.282 375.997 40.1918 376.613V376.613Z" fill="#455A64"/>
<path d="M46.5317 376.493L224.072 273.993C225.022 273.372 225.814 272.536 226.382 271.553C226.95 270.57 227.279 269.466 227.342 268.333V112.933C227.342 110.843 225.872 110.003 224.072 111.043L46.5317 213.543C45.5786 214.163 44.7856 215.001 44.2173 215.986C43.649 216.971 43.3216 218.077 43.2617 219.213V374.603C43.2617 376.683 44.7217 377.543 46.5317 376.493Z" fill="#90CAF9"/>
<path d="M46.5317 376.493L224.072 273.993C225.022 273.372 225.814 272.536 226.382 271.553C226.95 270.57 227.279 269.466 227.342 268.333V112.933C227.342 110.843 225.872 110.003 224.072 111.043L46.5317 213.543C45.5786 214.163 44.7856 215.001 44.2173 215.986C43.649 216.971 43.3216 218.077 43.2617 219.213V374.603C43.2617 376.683 44.7217 377.543 46.5317 376.493Z" fill="#37474F"/>
<path d="M46.0519 377.143C45.1005 377.636 44.0364 377.87 42.966 377.823C41.8956 377.775 40.8564 377.448 39.9524 376.872C39.0483 376.297 38.3111 375.495 37.8144 374.546C37.3176 373.596 37.0788 372.533 37.1219 371.463V353.983L43.2519 357.533V375.013C43.2519 376.913 44.4619 377.783 46.0519 377.143Z" fill="black"/>
<path d="M43.2517 369.143V375.013C43.2517 377.093 44.7117 377.943 46.5217 376.893L224.062 274.393C225.013 273.772 225.805 272.937 226.373 271.953C226.941 270.97 227.269 269.867 227.332 268.733V262.863L43.2517 369.143Z" fill="#263238"/>
<path d="M49.3918 356.003V221.243C49.4329 220.558 49.6356 219.893 49.9832 219.302C50.3309 218.711 50.8136 218.211 51.3918 217.843L219.272 120.923C220.352 120.293 221.272 120.803 221.272 122.053V256.813C221.233 257.498 221.031 258.164 220.684 258.755C220.336 259.346 219.852 259.846 219.272 260.213L51.3518 357.133C50.2718 357.763 49.3918 357.253 49.3918 356.003Z" fill="#90CAF9"/>
<path d="M135.302 319.013C134.815 319.33 134.409 319.759 134.119 320.263C133.829 320.767 133.662 321.332 133.632 321.913C133.632 322.973 134.372 323.403 135.302 322.913C135.787 322.596 136.191 322.169 136.481 321.667C136.771 321.165 136.939 320.602 136.972 320.023C136.972 318.913 136.222 318.483 135.302 319.013Z" fill="#90CAF9"/>
<path d="M44.2218 215.973C43.6295 216.951 43.2862 218.061 43.2218 219.203V369.143L37.0918 365.593V215.683C37.1453 214.539 37.4894 213.427 38.0918 212.453L44.2218 215.973Z" fill="#263238"/>
<path d="M121.832 283.183C118.89 283.189 115.976 282.621 113.252 281.513C105.162 278.213 98.9518 270.103 95.7618 258.683C95.4965 257.74 95.6167 256.73 96.0959 255.876C96.575 255.022 97.3739 254.393 98.3167 254.128C99.2596 253.863 100.269 253.983 101.123 254.462C101.978 254.941 102.607 255.74 102.872 256.683C105.432 265.863 110.112 272.253 116.042 274.683C121.102 276.753 127.132 275.913 133.452 272.253C148.582 263.523 162.332 240.653 167.672 215.353C167.772 214.877 167.965 214.425 168.24 214.024C168.515 213.622 168.867 213.279 169.274 213.014C169.682 212.748 170.138 212.565 170.616 212.476C171.095 212.387 171.586 212.392 172.062 212.493C172.538 212.593 172.989 212.786 173.391 213.061C173.792 213.336 174.135 213.688 174.401 214.095C174.667 214.503 174.849 214.959 174.939 215.437C175.028 215.916 175.022 216.407 174.922 216.883C169.082 244.533 154.262 268.783 137.172 278.653C132.547 281.487 127.255 283.05 121.832 283.183V283.183Z" fill="#FAFAFA"/>
<path d="M120.512 222.173C120.512 227.093 117.922 232.573 114.732 234.413C111.542 236.253 108.952 233.763 108.952 228.853C108.952 223.943 111.542 218.453 114.732 216.613C117.922 214.773 120.512 217.263 120.512 222.173Z" fill="#FAFAFA"/>
<path d="M157.112 201.043C157.112 205.963 154.522 211.443 151.332 213.283C148.142 215.123 145.552 212.633 145.552 207.723C145.552 202.813 148.142 197.333 151.332 195.483C154.522 193.633 157.112 196.133 157.112 201.043Z" fill="#FAFAFA"/>
<path d="M63.9219 173.543L60.0619 162.543L63.1619 153.543V148.063L53.6719 153.543V159.023L57.7519 169.813C57.8166 169.923 57.9146 170.011 58.0319 170.063V170.063L63.9219 173.543Z" fill="#90CAF9"/>
<path opacity="0.3" d="M63.9219 173.543L60.0619 162.543L63.1619 153.543V148.063L53.6719 153.543V159.023L57.7519 169.813C57.8166 169.923 57.9146 170.011 58.0319 170.063V170.063L63.9219 173.543Z" fill="black"/>
<path d="M86.6318 89.4527C86.578 88.4647 86.2919 87.5034 85.7967 86.6467C85.3015 85.7901 84.6111 85.0624 83.7818 84.5227L81.4718 83.1927C80.5888 82.7439 79.6123 82.51 78.6218 82.51C77.6313 82.51 76.6548 82.7439 75.7718 83.1927L40.2318 103.753C39.4003 104.29 38.7082 105.017 38.2127 105.874C37.7172 106.731 37.4325 107.694 37.3818 108.683V162.883C37.4325 163.871 37.7172 164.834 38.2127 165.691C38.7082 166.548 39.4003 167.275 40.2318 167.813L42.5418 169.153C43.4248 169.602 44.4013 169.835 45.3918 169.835C46.3823 169.835 47.3588 169.602 48.2418 169.153L59.6718 162.553L63.7418 173.323C63.8003 173.423 63.8861 173.504 63.9892 173.557C64.0922 173.61 64.2082 173.633 64.3236 173.622C64.439 173.612 64.549 173.569 64.6408 173.498C64.7326 173.427 64.8023 173.332 64.8418 173.223L69.1518 157.073L83.7818 148.593C84.6134 148.055 85.3054 147.328 85.8009 146.471C86.2964 145.614 86.5812 144.651 86.6318 143.663V89.4527Z" fill="#90CAF9"/>
<path opacity="0.2" d="M37.3818 162.883C37.4325 163.871 37.7172 164.834 38.2127 165.691C38.7082 166.548 39.4003 167.275 40.2318 167.813L42.5418 169.153C43.3451 169.556 44.2244 169.785 45.1223 169.824C46.0201 169.864 46.9162 169.713 47.7518 169.383C46.4118 169.893 45.3918 169.133 45.3918 167.513V113.303C45.4265 112.314 45.7121 111.351 46.2218 110.503L38.2218 105.873C37.7121 106.724 37.4265 107.691 37.3918 108.683L37.3818 162.883Z" fill="black"/>
<path opacity="0.3" d="M86.5419 88.6827C86.2119 87.4727 85.1019 87.0827 83.7919 87.8427L48.2419 108.403C47.3982 108.923 46.708 109.658 46.2419 110.533L38.2419 105.913C38.7111 105.04 39.4006 104.306 40.2419 103.783L75.7819 83.2227C76.6649 82.7739 77.6414 82.54 78.6319 82.54C79.6224 82.54 80.5989 82.7739 81.4819 83.2227L83.8019 84.5627C84.5142 85.0277 85.1245 85.6327 85.5955 86.341C86.0666 87.0493 86.3886 87.846 86.5419 88.6827V88.6827Z" fill="white"/>
<path d="M50.9218 147.683L81.7818 129.863C82.3918 129.513 82.8818 129.763 82.8818 130.423C82.8544 130.791 82.7406 131.148 82.5494 131.464C82.3583 131.78 82.0953 132.047 81.7818 132.243L50.9218 150.063C50.3118 150.413 49.8218 150.173 49.8218 149.513C49.8476 149.142 49.9608 148.784 50.1519 148.466C50.3431 148.147 50.607 147.879 50.9218 147.683V147.683Z" fill="#FAFAFA"/>
<path d="M50.9218 152.483L81.7418 134.683C82.3518 134.333 82.8418 134.583 82.8418 135.243C82.816 135.613 82.7028 135.972 82.5116 136.29C82.3204 136.608 82.0566 136.876 81.7418 137.073L50.9218 154.873C50.3118 155.223 49.8218 154.973 49.8218 154.313C49.8476 153.942 49.9608 153.584 50.1519 153.266C50.3431 152.947 50.607 152.679 50.9218 152.483V152.483Z" fill="#FAFAFA"/>
<path d="M50.9218 157.293L81.7818 139.473C82.3918 139.123 82.8818 139.373 82.8818 140.023C82.8559 140.393 82.7428 140.752 82.5516 141.07C82.3604 141.388 82.0966 141.656 81.7818 141.853L50.9218 159.683C50.3118 160.033 49.8218 159.783 49.8218 159.133C49.8461 158.761 49.9585 158.4 50.1497 158.08C50.341 157.76 50.6056 157.49 50.9218 157.293V157.293Z" fill="#FAFAFA"/>
<path d="M74.9219 102.683C74.3117 102.427 73.625 102.423 73.012 102.672C72.399 102.921 71.9099 103.403 71.6519 104.013L62.2218 126.463L59.9719 124.273C59.4898 123.852 58.8649 123.633 58.2258 123.659C57.5867 123.686 56.9821 123.956 56.5362 124.414C56.0904 124.873 55.8373 125.485 55.8291 126.125C55.8208 126.764 56.058 127.383 56.4919 127.853L61.3619 132.593C61.8296 133.042 62.4532 133.293 63.1018 133.293C63.2682 133.307 63.4355 133.307 63.6018 133.293C64.0002 133.212 64.3726 133.035 64.6865 132.777C65.0004 132.519 65.246 132.188 65.4019 131.813L76.2518 106.003C76.3865 105.698 76.4589 105.369 76.4647 105.036C76.4705 104.703 76.4097 104.372 76.2858 104.063C76.1619 103.753 75.9774 103.472 75.7432 103.235C75.5089 102.998 75.2297 102.81 74.9219 102.683Z" fill="#FAFAFA"/>
<path d="M130.272 135.223L126.422 124.223L129.522 115.273V109.783L120.022 115.273V120.753L124.102 131.543C124.167 131.653 124.265 131.741 124.382 131.793V131.793L130.272 135.223Z" fill="#90CAF9"/>
<path opacity="0.3" d="M130.272 135.223L126.422 124.223L129.522 115.273V109.783L120.022 115.273V120.753L124.102 131.543C124.167 131.653 124.265 131.741 124.382 131.793V131.793L130.272 135.223Z" fill="black"/>
<path d="M152.922 51.1427C152.867 50.1549 152.581 49.1938 152.086 48.3373C151.591 47.4808 150.901 46.753 150.072 46.2127L147.752 44.8727C146.871 44.424 145.896 44.1901 144.907 44.1901C143.918 44.1901 142.943 44.424 142.062 44.8727L106.542 65.4327C105.713 65.973 105.023 66.7008 104.528 67.5573C104.033 68.4138 103.746 69.3749 103.692 70.3627V124.573C103.747 125.56 104.034 126.521 104.529 127.378C105.024 128.234 105.714 128.962 106.542 129.503L108.862 130.843C109.745 131.287 110.719 131.518 111.707 131.518C112.695 131.518 113.669 131.287 114.552 130.843L125.982 124.233L130.062 135.013C130.121 135.112 130.208 135.193 130.311 135.246C130.415 135.298 130.531 135.32 130.647 135.308C130.762 135.296 130.872 135.252 130.963 135.18C131.055 135.109 131.124 135.012 131.162 134.903L135.472 118.753L150.102 110.283C150.93 109.742 151.62 109.014 152.115 108.158C152.61 107.301 152.897 106.34 152.952 105.353L152.922 51.1427Z" fill="#90CAF9"/>
<path opacity="0.2" d="M103.692 124.573C103.747 125.56 104.034 126.521 104.529 127.378C105.024 128.234 105.714 128.962 106.542 129.503L108.862 130.843C109.665 131.246 110.544 131.475 111.442 131.514C112.34 131.554 113.236 131.404 114.072 131.073C112.732 131.573 111.712 130.823 111.712 129.193V74.9927C111.742 74.0002 112.028 73.0322 112.542 72.1827L104.542 67.5527C104.026 68.4022 103.737 69.3696 103.702 70.3627L103.692 124.573Z" fill="black"/>
<path opacity="0.3" d="M152.852 50.3327C152.522 49.1227 151.422 48.7427 150.102 49.4927L114.552 70.0627C113.713 70.5845 113.024 71.3149 112.552 72.1827L104.552 67.5627C105.023 66.6944 105.713 65.9638 106.552 65.4427L142.092 44.8727C142.976 44.4285 143.952 44.1972 144.942 44.1972C145.932 44.1972 146.908 44.4285 147.792 44.8727L150.112 46.2127C150.825 46.6772 151.435 47.2822 151.906 47.9905C152.377 48.6989 152.699 49.4958 152.852 50.3327V50.3327Z" fill="white"/>
<path d="M117.012 109.463L147.922 91.6827C148.532 91.3227 149.032 91.5727 149.032 92.2327C149.003 92.6034 148.888 92.9623 148.695 93.2802C148.502 93.5981 148.238 93.8661 147.922 94.0627L117.062 111.883C116.452 112.233 115.962 111.983 115.962 111.323C115.979 110.952 116.083 110.591 116.266 110.268C116.448 109.945 116.704 109.669 117.012 109.463V109.463Z" fill="#FAFAFA"/>
<path d="M117.012 114.273L147.922 96.4527C148.532 96.1027 149.032 96.3527 149.032 97.0127C149.003 97.3832 148.887 97.7418 148.694 98.0595C148.501 98.3773 148.237 98.6456 147.922 98.8427L117.012 116.683C116.402 117.043 115.912 116.793 115.912 116.133C115.933 115.757 116.044 115.392 116.235 115.069C116.427 114.745 116.693 114.472 117.012 114.273Z" fill="#FAFAFA"/>
<path d="M117.012 119.073L147.922 101.253C148.532 100.903 149.032 101.153 149.032 101.813C149.01 102.19 148.897 102.557 148.704 102.883C148.511 103.208 148.243 103.482 147.922 103.683L117.062 121.503C116.452 121.853 115.962 121.603 115.962 120.943C115.976 120.57 116.079 120.206 116.261 119.881C116.444 119.556 116.701 119.279 117.012 119.073V119.073Z" fill="#FAFAFA"/>
<path d="M141.062 64.5027C140.76 64.3745 140.436 64.3072 140.108 64.3047C139.78 64.3022 139.454 64.3645 139.15 64.4881C138.847 64.6117 138.57 64.7941 138.337 65.0249C138.104 65.2556 137.919 65.5302 137.792 65.8327L128.362 88.2727L126.112 86.0927C125.637 85.6326 124.999 85.3799 124.338 85.3902C123.677 85.4005 123.047 85.673 122.587 86.1477C122.127 86.6225 121.874 87.2606 121.884 87.9216C121.895 88.5827 122.167 89.2126 122.642 89.6727L127.512 94.4027C127.739 94.629 128.009 94.8082 128.306 94.93C128.603 95.0519 128.921 95.114 129.242 95.1127C129.41 95.1109 129.577 95.0942 129.742 95.0627C130.14 94.9816 130.512 94.8043 130.826 94.5463C131.139 94.2883 131.385 93.9575 131.542 93.5827L142.392 67.7627C142.52 67.4615 142.587 67.1379 142.589 66.8106C142.592 66.4833 142.529 66.1588 142.406 65.8558C142.282 65.5527 142.1 65.2771 141.869 65.0449C141.638 64.8127 141.364 64.6284 141.062 64.5027V64.5027Z" fill="#FAFAFA"/>
<path d="M196.572 96.9827L192.712 85.9827L195.812 76.9827V71.4927L186.322 76.9827V82.4627L190.402 93.2527C190.464 93.3631 190.563 93.4481 190.682 93.4927L196.572 96.9827Z" fill="#90CAF9"/>
<path opacity="0.3" d="M196.572 96.9827L192.712 85.9827L195.812 76.9827V71.4927L186.322 76.9827V82.4627L190.402 93.2527C190.464 93.3631 190.563 93.4481 190.682 93.4927L196.572 96.9827Z" fill="black"/>
<path d="M219.242 12.9027C219.191 11.9152 218.907 10.9538 218.413 10.097C217.92 9.24024 217.23 8.51232 216.402 7.97272L214.082 6.68272C213.199 6.23392 212.222 6 211.232 6C210.241 6 209.265 6.23392 208.382 6.68272L172.842 27.1927C172.011 27.7312 171.32 28.4586 170.825 29.3155C170.329 30.1724 170.044 31.1343 169.992 32.1227V86.3327C170.046 87.3207 170.332 88.2821 170.827 89.1387C171.322 89.9953 172.012 90.7231 172.842 91.2627L175.152 92.6027C176.036 93.0469 177.012 93.2782 178.002 93.2782C178.991 93.2782 179.967 93.0469 180.852 92.6027L192.282 85.9927L196.352 96.7727C196.411 96.8725 196.498 96.9533 196.601 97.0056C196.705 97.0579 196.821 97.0795 196.937 97.0679C197.052 97.0564 197.162 97.0121 197.253 96.9404C197.344 96.8686 197.413 96.7723 197.452 96.6627L201.762 80.5127L216.402 72.0427C217.229 71.5014 217.917 70.773 218.41 69.9166C218.903 69.0601 219.188 68.0996 219.242 67.1127V12.9027Z" fill="#90CAF9"/>
<path opacity="0.2" d="M169.992 86.3327C170.046 87.3207 170.332 88.2821 170.827 89.1387C171.322 89.9953 172.012 90.723 172.842 91.2627L175.152 92.6027C175.955 93.0058 176.834 93.2347 177.732 93.2744C178.63 93.314 179.526 93.1635 180.362 92.8327C179.022 93.3327 178.002 92.5827 178.002 90.9527V36.7527C178.036 35.761 178.322 34.7942 178.832 33.9427L170.832 29.3127C170.323 30.1647 170.038 31.1312 170.002 32.1227L169.992 86.3327Z" fill="black"/>
<path opacity="0.3" d="M219.152 12.0927C218.822 10.8827 217.712 10.4927 216.402 11.2527L180.852 31.8227C180.008 32.339 179.318 33.0708 178.852 33.9427L170.852 29.3227C171.324 28.4549 172.013 27.7245 172.852 27.2027L208.382 6.68272C209.266 6.23854 210.242 6.00723 211.232 6.00723C212.221 6.00723 213.197 6.23854 214.082 6.68272L216.402 8.02272C217.11 8.48196 217.718 9.07897 218.19 9.77819C218.663 10.4774 218.99 11.2645 219.152 12.0927V12.0927Z" fill="white"/>
<path d="M183.142 71.2527L214.012 53.4327C214.612 53.0827 215.112 53.3327 215.112 53.9927C215.083 54.3623 214.969 54.7203 214.778 55.038C214.587 55.3557 214.325 55.6244 214.012 55.8227L183.142 73.6827C182.532 74.0327 182.042 73.7827 182.042 73.1227C182.061 72.7456 182.171 72.3787 182.363 72.0532C182.554 71.7277 182.821 71.4531 183.142 71.2527V71.2527Z" fill="#FAFAFA"/>
<path d="M183.142 76.0527L214.012 58.2427C214.612 57.8827 215.112 58.1327 215.112 58.7927C215.083 59.1623 214.969 59.5203 214.778 59.838C214.587 60.1557 214.325 60.4244 214.012 60.6227L183.142 78.4427C182.532 78.7927 182.042 78.5427 182.042 77.8827C182.069 77.5129 182.183 77.1547 182.374 76.8368C182.565 76.519 182.828 76.2504 183.142 76.0527V76.0527Z" fill="#FAFAFA"/>
<path d="M183.142 80.8627L214.012 63.0427C214.612 62.6927 215.112 62.9427 215.112 63.6027C215.083 63.9723 214.969 64.3303 214.778 64.648C214.587 64.9657 214.325 65.2344 214.012 65.4327L183.142 83.2527C182.532 83.6027 182.042 83.3527 182.042 82.6927C182.067 82.3225 182.18 81.9637 182.372 81.6456C182.563 81.3275 182.827 81.0592 183.142 80.8627V80.8627Z" fill="#FAFAFA"/>
<path d="M207.192 26.2827C206.582 26.0265 205.895 26.0226 205.282 26.2719C204.669 26.5212 204.18 27.0034 203.922 27.6127L194.482 50.0627L192.242 47.8727C191.76 47.4524 191.135 47.2328 190.496 47.2591C189.856 47.2855 189.252 47.5558 188.806 48.0145C188.36 48.4731 188.107 49.0852 188.099 49.7248C188.091 50.3643 188.328 50.9827 188.762 51.4527L193.632 56.1927C194.098 56.6439 194.723 56.8951 195.372 56.8927C195.534 56.9128 195.699 56.9128 195.862 56.8927C196.261 56.8149 196.635 56.6401 196.95 56.3837C197.266 56.1274 197.514 55.7973 197.672 55.4227L208.522 29.6027C208.656 29.2979 208.729 28.9693 208.734 28.6361C208.74 28.303 208.679 27.972 208.556 27.6627C208.432 27.3534 208.247 27.072 208.013 26.835C207.779 26.598 207.499 26.4102 207.192 26.2827V26.2827Z" fill="#FAFAFA"/>
<path d="M454.029 289.258C454.45 288.933 454.919 288.677 455.419 288.498C456.285 288.095 457.195 287.794 458.129 287.598C459.074 287.406 460.057 287.547 460.909 287.998C462.159 288.738 462.719 290.228 463.149 291.618C463.789 293.688 464.349 295.778 465.149 297.788C466.425 300.634 468.109 303.279 470.149 305.638C471.266 307.346 471.993 309.279 472.278 311.299C472.563 313.319 472.4 315.378 471.799 317.328C471.525 318.408 470.952 319.389 470.145 320.159C469.338 320.928 468.331 321.455 467.239 321.678L464.109 314.678C461.949 309.851 459.793 305.018 457.639 300.178C456.813 298.305 455.979 296.435 455.139 294.568C454.779 293.758 454.419 292.938 454.049 292.128C453.599 291.128 452.859 290.338 453.899 289.378L454.029 289.258Z" fill="#37474F"/>
<path d="M453.389 288.068L453.599 288.018C455.379 287.538 457.229 286.758 458.949 287.828C460.023 288.552 460.833 289.605 461.259 290.828C461.683 292.044 461.997 293.296 462.199 294.568C462.443 295.729 462.777 296.869 463.199 297.978C463.652 298.997 464.227 299.957 464.909 300.838C465.849 302.268 468.389 305.178 469.209 306.688C469.85 307.907 470.305 309.215 470.559 310.568C470.895 312.043 470.973 313.566 470.789 315.068C470.439 317.388 469.099 320.628 467.049 321.798C466.51 322.146 465.9 322.368 465.263 322.447C464.627 322.526 463.98 322.46 463.373 322.254C462.765 322.048 462.212 321.708 461.754 321.258C461.296 320.809 460.946 320.262 460.729 319.658C460.359 318.768 459.989 317.878 459.669 316.958C459.048 315.204 458.23 313.527 457.229 311.958C455.926 309.98 454.392 308.164 452.659 306.548C452.469 306.378 452.279 306.178 452.089 306.028C449.899 304.328 447.619 302.798 447.469 301.848C447.349 301.058 448.399 293.088 446.819 291.028C446.659 290.772 446.599 290.466 446.649 290.168C446.729 289.738 446.739 289.798 447.229 289.658L449.389 289.078L453.389 288.068Z" fill="#455A64"/>
<path d="M363.919 220.498C361.569 233.888 360.789 237.578 358.799 245.498C355.866 259.155 353.705 272.967 352.329 286.868C351.989 290.378 355.329 298.818 356.739 302.028C365.159 320.748 378.989 350.628 378.989 350.628C380.157 353.153 380.66 355.934 380.449 358.708C380.062 362.861 379.079 366.936 377.529 370.808C377.035 372.177 376.454 373.513 375.789 374.808C374.269 378.668 376.709 379.208 380.449 377.318C384.389 375.318 386.739 370.918 387.689 367.768C389.099 363.068 391.889 355.638 391.639 353.298L391.549 353.038L390.729 348.428C390.729 348.428 386.949 334.258 383.779 317.958C380.949 303.468 379.469 298.718 372.279 288.518L396.099 231.108L363.919 220.498Z" fill="#FFA8A7"/>
<path d="M396.959 356.518C397.557 357.301 397.905 358.245 397.959 359.228C397.459 362.668 393.879 365.228 392.509 367.438C391.139 369.648 389.839 374.438 389.009 377.248C388.826 377.862 388.578 378.456 388.269 379.018C388.045 379.531 387.795 380.031 387.519 380.518C386.622 381.558 385.51 382.39 384.259 382.958C381.807 384.205 379.079 384.814 376.329 384.728C374.247 384.799 372.2 384.177 370.509 382.958C370.145 382.716 369.853 382.38 369.663 381.986C369.473 381.592 369.392 381.154 369.429 380.718C369.629 379.788 370.619 379.298 371.509 378.948C373.369 378.228 375.269 377.598 377.089 376.778C378.609 376.123 380.026 375.255 381.299 374.198C382.442 373.125 383.48 371.947 384.399 370.678C386.399 368.178 388.399 365.678 390.489 363.228C390.899 362.758 396.389 355.978 396.959 356.518Z" fill="#37474F"/>
<path d="M394.049 350.998C395.269 352.678 398.049 355.228 396.989 358.318C396.039 360.998 393.469 363.628 391.779 365.798C390.997 366.989 390.407 368.295 390.029 369.668C389.169 371.898 388.689 374.268 387.819 376.498C386.729 379.238 383.729 381.008 380.979 381.768C378.226 382.456 375.358 382.541 372.569 382.018C371.448 381.949 370.386 381.489 369.569 380.718C369.233 380.286 369.01 379.778 368.919 379.239C368.828 378.699 368.873 378.146 369.049 377.628C369.418 376.597 370.016 375.664 370.799 374.898C371.969 373.638 373.339 372.568 374.539 371.338C376.749 369.068 377.449 366.338 378.229 363.338C378.769 361.238 379.569 358.218 379.229 356.858C378.992 356.192 378.854 355.494 378.819 354.788C378.851 354.571 378.937 354.365 379.07 354.19C379.203 354.015 379.378 353.877 379.579 353.788C380.638 353.365 381.786 353.21 382.919 353.338C383.919 353.338 384.919 353.578 385.919 353.628C386.585 353.615 387.242 353.47 387.851 353.199C388.46 352.929 389.009 352.54 389.466 352.054C389.922 351.569 390.277 350.997 390.509 350.373C390.742 349.748 390.847 349.084 390.819 348.418L390.509 347.468C391.409 346.638 392.669 349.108 394.049 350.998Z" fill="#455A64"/>
<path d="M450.799 295.478C450.049 291.538 448.329 290.968 448.329 290.968L435.779 291.208V291.488L435.559 304.188L448.699 301.848C449.554 301.047 450.195 300.044 450.562 298.931C450.929 297.818 451.01 296.631 450.799 295.478V295.478Z" fill="#FFA8A7"/>
<path d="M436.129 290.658L406.919 290.958C406.919 290.958 412.229 251.768 410.469 228.828L384.389 225.828L364.109 219.168C361.719 226.408 354.669 262.528 354.669 262.528C353.299 272.708 352.399 277.088 351.669 284.898C350.939 292.708 352.899 295.558 356.889 304.178C360.879 312.798 376.779 345.968 376.779 345.968C376.779 345.968 378.779 347.568 383.219 345.648C385.659 344.714 387.687 342.941 388.939 340.648C388.939 340.648 384.189 318.468 382.509 309.088C380.829 299.708 375.289 290.528 372.969 288.498L383.349 263.498C384.009 273.658 384.679 291.948 386.839 302.388C388.269 309.318 392.379 313.328 399.959 312.118C410.519 310.438 438.419 304.178 438.419 304.178C444.049 303.408 442.649 292.938 436.129 290.658Z" fill="#37474F"/>
<path d="M406.919 290.958C406.919 290.958 407.319 296.248 405.059 300.198C406.652 298.707 407.892 296.879 408.689 294.848C409.889 291.578 419.259 292.358 426.259 290.798L406.919 290.958Z" fill="#263238"/>
<path d="M383.319 263.608L382.579 249.608C378.564 247.318 374.996 244.32 372.049 240.758C374.314 244.36 377.132 247.582 380.399 250.308L381.319 263.308L372.999 288.488L383.319 263.608Z" fill="#263238"/>
<path d="M346.279 95.498C346.237 93.6935 346.331 91.8885 346.559 90.098C347.009 86.858 348.129 82.428 351.639 81.288C352.309 81.1765 352.953 80.9426 353.539 80.598C354.109 80.138 354.329 79.318 354.939 78.908C355.889 78.278 357.209 78.908 358.269 78.558H358.389C359.174 78.0982 359.745 77.347 359.979 76.468C360.606 74.9547 361.229 73.4447 361.849 71.938L362.779 69.678C362.969 69.208 363.049 68.398 363.509 68.108C363.643 68.0371 363.792 68 363.944 68C364.096 68 364.245 68.0371 364.379 68.108C364.761 68.365 365.072 68.7141 365.284 69.123C365.495 69.532 365.6 69.9877 365.589 70.448C365.605 72.6788 365.169 74.8897 364.309 76.948C363.489 79.3061 362.821 81.7144 362.309 84.158C362.169 84.798 361.689 87.098 362.809 86.928C363.68 86.6878 364.455 86.1849 365.029 85.488C365.646 84.9123 366.379 84.4758 367.179 84.208C367.979 83.938 369.829 83.988 369.299 85.308C369.178 85.5774 369.013 85.8243 368.809 86.038C367.759 87.278 366.809 88.558 365.719 89.768C365.189 90.368 364.639 90.958 364.069 91.528C363.769 91.828 363.469 92.118 363.169 92.398C362.959 92.588 362.389 92.928 362.299 93.178C361.495 93.8568 360.765 94.6176 360.119 95.448C358.999 96.858 358.909 98.448 358.699 100.448C358.619 101.218 358.409 104.188 358.409 104.188C357.899 111.078 358.789 132.578 359.049 134.428C359.159 135.436 359.468 136.411 359.959 137.298C362.019 140.778 374.259 162.048 374.259 162.048C374.259 162.048 382.339 176.308 370.209 181.488C365.929 175.198 348.489 150.198 346.619 146.688C344.931 143.708 343.997 140.361 343.899 136.938C343.669 124.728 346.299 97.558 346.279 95.498Z" fill="#FFA8A7"/>
<path d="M359.059 79.958C360.289 81.138 361.119 82.588 360.999 83.738C360.728 85.5068 360.32 87.252 359.779 88.958C359.479 89.678 358.849 90.608 357.779 90.328C357.53 90.6702 357.186 90.9326 356.79 91.0834C356.394 91.2343 355.963 91.2672 355.549 91.178C355.277 91.5272 354.913 91.7936 354.498 91.9473C354.083 92.101 353.633 92.1359 353.199 92.048C352.948 92.3165 352.633 92.5176 352.283 92.6329C351.934 92.7482 351.561 92.774 351.199 92.708C351.548 92.9057 351.947 92.9968 352.347 92.9702C352.747 92.9435 353.13 92.8002 353.449 92.558C353.87 92.6704 354.315 92.6478 354.723 92.4935C355.13 92.3392 355.479 92.061 355.719 91.698C356.115 91.8096 356.534 91.8038 356.927 91.6813C357.319 91.5588 357.667 91.3249 357.929 91.008C358.367 91.0878 358.819 91.025 359.219 90.8288C359.618 90.6326 359.945 90.3133 360.149 89.918C360.874 88.3352 361.343 86.6476 361.539 84.918C361.799 83.438 362.149 81.848 359.059 79.958Z" fill="#F28F8F"/>
<path d="M353.999 159.258C357.859 164.498 365.329 175.308 367.259 181.338C368.879 184.728 373.179 181.858 375.039 174.748C377.629 164.838 385.399 159.848 381.979 159.338C377.769 158.718 365.579 144.338 365.579 144.338C363.219 141.338 359.529 135.338 359.529 135.338L358.309 113.138C358.309 113.138 352.589 115.788 345.059 111.788C345.059 111.788 343.829 120.238 343.279 129.978C342.729 139.718 342.859 142.218 344.889 145.758C347.672 150.424 350.713 154.931 353.999 159.258V159.258Z" fill="#90CAF9"/>
<path d="M417.949 177.538L411.849 207.288L411.099 233.168C397.269 239.638 375.549 237.408 361.649 226.228C361.649 226.228 363.749 180.678 366.649 170.588C369.549 160.498 374.649 158.428 381.789 158.658C389.339 158.888 399.039 159.958 399.039 159.958L412.369 162.568C412.369 162.568 418.119 173.948 417.949 177.538Z" fill="#455A64"/>
<path d="M445.189 206.198C445.189 206.198 443.499 219.318 441.819 225.628C440.649 230.008 437.899 239.218 435.049 243.068C427.969 252.618 421.459 248.458 419.829 247.248C417.959 245.848 417.829 243.888 422.159 239.078C423.123 237.99 423.974 236.808 424.699 235.548C425.069 234.918 426.429 233.158 425.129 232.838C424.726 232.777 424.313 232.833 423.939 232.998L421.209 233.908C420.63 234.158 419.997 234.254 419.369 234.188C419.058 234.149 418.772 233.997 418.566 233.761C418.36 233.525 418.247 233.221 418.249 232.908C418.319 232.358 418.829 231.998 419.249 231.708C422.069 229.968 424.956 228.341 427.909 226.828C428.509 226.518 429.659 226.248 429.999 225.658C430.178 225.29 430.306 224.9 430.379 224.498C430.499 223.698 430.599 222.898 430.699 222.088C430.949 219.918 431.179 217.738 431.389 215.568C431.689 212.568 431.759 206.568 432.019 203.568L414.149 183.408C414.149 183.408 409.629 177.558 409.629 162.018C412.695 162.195 415.703 162.923 418.509 164.168C423.649 166.568 440.709 192.168 442.949 194.688C445.189 197.208 446.039 198.788 445.189 206.198Z" fill="#FFA8A7"/>
<path d="M408.509 161.848C409.679 162.078 414.189 161.848 417.179 163.138C420.169 164.428 422.489 166.068 426.299 171.198C430.109 176.328 442.299 192.548 444.149 195.038C445.999 197.528 446.639 198.718 446.009 203.638C445.379 208.558 443.059 219.938 443.059 219.938C439.003 220.284 434.926 219.596 431.209 217.938L431.409 203.748L412.339 182.828C412.339 182.828 406.279 174.848 408.509 161.848Z" fill="#90CAF9"/>
<path d="M396.789 127.848C396.67 130.403 395.795 132.864 394.277 134.922C392.758 136.98 390.663 138.541 388.257 139.408C385.852 140.275 383.243 140.409 380.76 139.793C378.278 139.178 376.034 137.84 374.313 135.949C372.591 134.058 371.469 131.699 371.088 129.17C370.707 126.641 371.084 124.056 372.172 121.742C373.261 119.427 375.011 117.488 377.201 116.168C379.392 114.849 381.925 114.208 384.479 114.328C387.904 114.491 391.123 116.007 393.431 118.542C395.739 121.076 396.947 124.423 396.789 127.848V127.848Z" fill="#263238"/>
<path d="M405.769 137.438C405.769 137.438 403.209 147.178 402.299 148.758C401.704 149.747 400.746 150.465 399.629 150.758L400.099 143.848L405.769 137.438Z" fill="#263238"/>
<path d="M403.809 123.228C404.546 123.178 405.284 123.296 405.969 123.573C406.653 123.85 407.265 124.279 407.759 124.828C409.399 126.668 408.169 132.138 405.759 137.438L401.759 137.708L403.809 123.228Z" fill="#263238"/>
<path d="M400.589 137.658C401.359 138.168 402.589 136.658 403.589 135.728C404.589 134.798 407.859 133.508 409.289 136.928C410.719 140.348 407.509 144.778 404.969 145.448C400.589 146.598 400.069 143.798 400.069 143.798L398.989 159.798C393.299 166.428 378.269 166.418 384.819 159.518L385.209 153.518C383.268 153.729 381.31 153.729 379.369 153.518C377.781 153.202 376.332 152.396 375.226 151.214C374.119 150.032 373.41 148.533 373.199 146.928C372.199 140.718 372.199 136.768 373.689 125.928C375.339 114.038 389.549 114.618 396.799 119.678C404.049 124.738 400.589 137.658 400.589 137.658Z" fill="#FFA8A7"/>
<path d="M400.589 138.988C400.989 138.988 402.589 136.578 403.649 135.728C405.069 134.548 403.839 123.228 403.839 123.228C404.358 122.262 404.573 121.163 404.457 120.073C404.341 118.983 403.899 117.953 403.189 117.118C401.484 114.967 399.031 113.539 396.319 113.118C392.159 112.408 387.889 112.638 384.029 110.618C383.294 110.169 382.513 109.801 381.699 109.518C381.292 109.376 380.858 109.329 380.429 109.381C380.001 109.433 379.591 109.582 379.229 109.818C378.91 110.075 378.654 110.401 378.481 110.772C378.307 111.143 378.221 111.549 378.229 111.958C378.251 112.766 378.4 113.566 378.669 114.328C377.58 114.104 376.459 114.073 375.359 114.238C374.805 114.324 374.284 114.554 373.847 114.905C373.41 115.256 373.073 115.716 372.869 116.238C372.646 117.397 372.86 118.597 373.469 119.608C374.919 122.828 378.869 123.508 382.019 124.048C386.663 124.615 391.351 124.746 396.019 124.438C397.489 124.308 397.739 125.748 398.349 129.668C398.919 133.088 399.229 138.898 400.589 138.988Z" fill="#263238"/>
<path d="M403.759 124.098L408.659 121.758C408.522 121.429 408.319 121.132 408.063 120.883C407.808 120.635 407.504 120.441 407.172 120.313C406.839 120.185 406.484 120.125 406.128 120.138C405.771 120.151 405.422 120.236 405.099 120.388C404.444 120.718 403.94 121.286 403.691 121.976C403.441 122.666 403.466 123.426 403.759 124.098V124.098Z" fill="#263238"/>
<path d="M385.239 153.548C385.239 153.548 392.389 152.458 394.939 151.248C396.432 150.563 397.681 149.44 398.519 148.028C398.08 149.458 397.355 150.785 396.389 151.928C394.459 154.168 385.109 155.468 385.109 155.468L385.239 153.548Z" fill="#F28F8F"/>
<path d="M387.809 135.278C387.793 135.47 387.815 135.664 387.874 135.847C387.933 136.03 388.029 136.2 388.154 136.346C388.28 136.493 388.434 136.612 388.606 136.698C388.779 136.785 388.967 136.835 389.159 136.848C389.453 136.874 389.748 136.811 390.007 136.667C390.265 136.524 390.474 136.306 390.608 136.043C390.741 135.779 390.793 135.482 390.756 135.189C390.719 134.895 390.595 134.62 390.4 134.398C390.206 134.176 389.949 134.017 389.663 133.942C389.377 133.867 389.076 133.879 388.797 133.977C388.518 134.075 388.275 134.254 388.099 134.491C387.923 134.728 387.822 135.013 387.809 135.308V135.278Z" fill="#263238"/>
<path d="M389.589 129.978L392.589 131.808C392.826 131.4 392.895 130.916 392.784 130.457C392.672 129.999 392.387 129.602 391.989 129.348C391.793 129.223 391.573 129.139 391.342 129.103C391.112 129.067 390.877 129.079 390.652 129.138C390.426 129.197 390.216 129.303 390.033 129.447C389.85 129.592 389.699 129.772 389.589 129.978Z" fill="#263238"/>
<path d="M387.449 144.188L382.959 145.638C383.041 145.938 383.184 146.219 383.377 146.464C383.57 146.708 383.811 146.911 384.084 147.06C384.358 147.209 384.658 147.302 384.969 147.333C385.279 147.363 385.592 147.331 385.889 147.238C386.49 147.026 386.987 146.591 387.277 146.024C387.567 145.457 387.629 144.799 387.449 144.188V144.188Z" fill="#F28F8F"/>
<path d="M375.329 130.498L378.199 128.498C378.078 128.305 377.919 128.138 377.731 128.009C377.543 127.879 377.331 127.789 377.107 127.744C376.884 127.7 376.653 127.701 376.43 127.748C376.207 127.795 375.996 127.887 375.809 128.018C375.428 128.292 375.166 128.702 375.077 129.163C374.987 129.624 375.078 130.101 375.329 130.498V130.498Z" fill="#263238"/>
<path d="M376.009 134.318C375.987 134.699 376.117 135.074 376.37 135.361C376.622 135.647 376.978 135.822 377.359 135.848C377.653 135.874 377.949 135.811 378.207 135.667C378.465 135.524 378.674 135.306 378.808 135.043C378.941 134.779 378.993 134.482 378.956 134.189C378.919 133.895 378.795 133.62 378.601 133.398C378.406 133.176 378.149 133.017 377.863 132.942C377.578 132.867 377.276 132.879 376.997 132.977C376.719 133.075 376.476 133.254 376.3 133.491C376.123 133.728 376.022 134.013 376.009 134.308V134.318Z" fill="#263238"/>
<path d="M383.309 133.308L382.439 141.828L378.049 140.098L383.309 133.308Z" fill="#F28F8F"/>
<path d="M266.218 421.127L265.418 439.067C276.498 432.897 286.948 423.587 295.838 412.567L287.128 402.927C281.311 410.203 274.227 416.369 266.218 421.127Z" fill="#90CAF9"/>
<path opacity="0.8" d="M266.218 421.127L265.418 439.067C276.498 432.897 286.948 423.587 295.838 412.567L287.128 402.927C281.311 410.203 274.227 416.369 266.218 421.127Z" fill="white"/>
<path d="M255.098 413.997L254.298 431.937L265.418 439.067L266.218 421.127L255.098 413.997Z" fill="#90CAF9"/>
<path opacity="0.65" d="M255.098 413.997L254.298 431.937L265.418 439.067L266.218 421.127L255.098 413.997Z" fill="white"/>
<path d="M255.098 413.997L254.298 431.937L265.418 439.067L266.218 421.127L255.098 413.997Z" fill="#90CAF9"/>
<path opacity="0.05" d="M255.098 413.997L254.298 431.937L265.418 439.067L266.218 421.127L255.098 413.997Z" fill="black"/>
<path d="M266.218 421.127C274.228 416.369 281.311 410.203 287.128 402.927L275.998 395.797C270.183 403.071 263.103 409.236 255.098 413.997L266.218 421.127Z" fill="#90CAF9"/>
<path opacity="0.6" d="M266.218 421.127C274.228 416.369 281.311 410.203 287.128 402.927L275.998 395.797C270.183 403.071 263.103 409.236 255.098 413.997L266.218 421.127Z" fill="white"/>
<path d="M242.008 426.367L232.008 445.727C240.318 447.817 250.408 446.447 261.448 441.137L262.248 423.137C254.698 426.707 247.778 427.687 242.008 426.367Z" fill="#90CAF9"/>
<path opacity="0.65" d="M242.008 426.367L232.008 445.727C240.318 447.817 250.408 446.447 261.448 441.137L262.248 423.137C254.698 426.707 247.778 427.687 242.008 426.367Z" fill="white"/>
<path d="M230.878 419.237L220.878 438.597L232.008 445.727L242.008 426.367L230.878 419.237Z" fill="#90CAF9"/>
<path opacity="0.55" d="M230.878 419.237L220.878 438.597L232.008 445.727L242.008 426.367L230.878 419.237Z" fill="white"/>
<path d="M230.878 419.237L220.878 438.597L232.008 445.727L242.008 426.367L230.878 419.237Z" fill="#90CAF9"/>
<path opacity="0.1" d="M230.878 419.237L220.878 438.597L232.008 445.727L242.008 426.367L230.878 419.237Z" fill="black"/>
<path d="M251.118 416.057C243.568 419.577 236.648 420.557 230.878 419.237L242.008 426.367C247.778 427.687 254.698 426.707 262.248 423.187L251.118 416.057Z" fill="#90CAF9"/>
<path opacity="0.55" d="M251.118 416.057C243.568 419.577 236.648 420.557 230.878 419.237L242.008 426.367C247.778 427.687 254.698 426.707 262.248 423.187L251.118 416.057Z" fill="white"/>
<path d="M227.088 412.307L211.668 425.737C214.858 435.217 220.908 441.737 228.918 444.737L238.918 425.397C233.478 423.217 229.368 418.717 227.088 412.307Z" fill="#90CAF9"/>
<path opacity="0.55" d="M227.088 412.307L211.668 425.737C214.858 435.217 220.908 441.737 228.918 444.737L238.918 425.397C233.478 423.217 229.368 418.717 227.088 412.307Z" fill="white"/>
<path d="M211.668 425.737L200.538 418.607C203.018 425.957 207.218 431.487 212.718 435.067L223.838 442.197C218.338 438.657 214.138 433.087 211.668 425.737Z" fill="#90CAF9"/>
<path opacity="0.45" d="M211.668 425.737L200.538 418.607C203.018 425.957 207.218 431.487 212.718 435.067L223.838 442.197C218.338 438.657 214.138 433.087 211.668 425.737Z" fill="white"/>
<path d="M215.958 405.177L200.538 418.607L211.668 425.737L227.088 412.307L215.958 405.177Z" fill="#90CAF9"/>
<path opacity="0.55" d="M215.958 405.177L200.538 418.607L211.668 425.737L227.088 412.307L215.958 405.177Z" fill="white"/>
<path d="M215.958 405.177L200.538 418.607L211.668 425.737L227.088 412.307L215.958 405.177Z" fill="#90CAF9"/>
<path opacity="0.1" d="M215.958 405.177L200.538 418.607L211.668 425.737L227.088 412.307L215.958 405.177Z" fill="black"/>
<path d="M290.458 398.627L299.158 408.257C307.797 396.673 314.473 383.747 318.918 369.997L303.998 372.327C300.88 381.744 296.312 390.618 290.458 398.627V398.627Z" fill="#90CAF9"/>
<path opacity="0.85" d="M290.458 398.627L299.158 408.257C307.797 396.673 314.473 383.747 318.918 369.997L303.998 372.327C300.88 381.744 296.312 390.618 290.458 398.627V398.627Z" fill="white"/>
<path d="M307.838 362.867L292.918 365.197L304.038 372.327L318.958 369.997L307.838 362.867Z" fill="#90CAF9"/>
<path opacity="0.75" d="M307.838 362.867L292.918 365.197L304.038 372.327L318.958 369.997L307.838 362.867Z" fill="white"/>
<path d="M307.838 362.867L292.918 365.197L304.038 372.327L318.958 369.997L307.838 362.867Z" fill="#90CAF9"/>
<path d="M292.918 365.197C289.792 374.617 285.206 383.489 279.328 391.487L290.458 398.617C296.326 390.61 300.908 381.737 304.038 372.317L292.918 365.197Z" fill="#90CAF9"/>
<path opacity="0.65" d="M292.918 365.197C289.792 374.617 285.206 383.489 279.328 391.487L290.458 398.617C296.326 390.61 300.908 381.737 304.038 372.317L292.918 365.197Z" fill="white"/>
<path d="M290.458 398.627L279.328 391.497L288.028 401.127L299.158 408.257L290.458 398.627Z" fill="#90CAF9"/>
<path opacity="0.75" d="M290.458 398.627L279.328 391.497L288.028 401.127L299.158 408.257L290.458 398.627Z" fill="white"/>
<path d="M290.458 398.627L279.328 391.497L288.028 401.127L299.158 408.257L290.458 398.627Z" fill="#90CAF9"/>
<path d="M323.378 346.237C323.055 352.616 322.049 358.942 320.378 365.107L305.458 367.487C306.568 363.233 307.238 358.877 307.458 354.487C307.58 351.899 307.48 349.307 307.158 346.737L320.008 323.737C320.328 324.487 320.608 325.287 320.888 326.087C320.888 326.087 321.518 328.017 321.888 329.717C323.165 335.125 323.667 340.687 323.378 346.237V346.237Z" fill="#90CAF9"/>
<path opacity="0.9" d="M323.378 346.237C323.055 352.616 322.049 358.942 320.378 365.107L305.458 367.487C306.568 363.233 307.238 358.877 307.458 354.487C307.58 351.899 307.48 349.307 307.158 346.737L320.008 323.737C320.328 324.487 320.608 325.287 320.888 326.087C320.888 326.087 321.518 328.017 321.888 329.717C323.165 335.125 323.667 340.687 323.378 346.237V346.237Z" fill="white"/>
<path d="M308.908 316.567L296.058 339.607L307.188 346.737L320.038 323.697L308.908 316.567Z" fill="#90CAF9"/>
<path opacity="0.85" d="M308.908 316.567L296.058 339.607L307.188 346.737L320.038 323.697L308.908 316.567Z" fill="white"/>
<path d="M308.908 316.567L296.058 339.607L307.188 346.737L320.038 323.697L308.908 316.567Z" fill="#90CAF9"/>
<path d="M307.188 346.737L296.058 339.607C296.383 342.176 296.487 344.769 296.368 347.357C296.145 351.73 295.474 356.069 294.368 360.307L305.458 367.487C306.568 363.233 307.238 358.877 307.458 354.487C307.59 351.9 307.5 349.307 307.188 346.737V346.737Z" fill="#90CAF9"/>
<path opacity="0.7" d="M307.558 346.977L296.438 339.847C296.764 342.416 296.865 345.009 296.738 347.597C296.523 351.987 295.853 356.344 294.738 360.597L305.858 367.727C306.967 363.473 307.638 359.117 307.858 354.727C307.985 352.139 307.885 349.546 307.558 346.977V346.977Z" fill="white"/>
<path d="M318.508 312.867C318.408 312.807 313.198 309.137 313.198 309.137C313.101 309.068 312.997 309.011 312.888 308.967L302.508 304.677C301.994 304.479 301.427 304.471 300.908 304.654C300.39 304.838 299.953 305.2 299.678 305.677L257.758 380.837L241.088 371.677C240.615 371.423 240.063 371.36 239.544 371.499C239.026 371.639 238.58 371.97 238.298 372.427L230.118 385.367C229.853 385.793 229.767 386.306 229.88 386.795C229.992 387.284 230.294 387.709 230.718 387.977C230.718 387.977 235.198 391.187 236.028 391.707C236.061 391.736 236.098 391.759 236.138 391.777L265.138 407.777C265.368 407.904 265.62 407.985 265.881 408.015C266.142 408.045 266.407 408.023 266.66 407.95C266.912 407.878 267.148 407.756 267.354 407.593C267.559 407.429 267.731 407.227 267.858 406.997L319.048 315.227C319.284 314.841 319.36 314.378 319.259 313.936C319.159 313.495 318.889 313.111 318.508 312.867V312.867Z" fill="#263238"/>
<path d="M318.508 312.867C318.408 312.807 313.198 309.137 313.198 309.137C313.101 309.068 312.997 309.011 312.888 308.967L302.508 304.677C302.195 304.554 301.859 304.502 301.523 304.524C301.188 304.547 300.862 304.643 300.568 304.807L318.678 315.927L319.068 315.217C319.3 314.829 319.371 314.367 319.266 313.928C319.161 313.489 318.889 313.108 318.508 312.867V312.867Z" fill="#455A64"/>
<path d="M318.198 312.707L307.808 308.417C307.296 308.222 306.731 308.215 306.214 308.398C305.698 308.582 305.263 308.942 304.988 309.417L263.058 384.587L246.398 375.427C245.927 375.17 245.375 375.104 244.856 375.241C244.337 375.379 243.89 375.71 243.608 376.167L235.428 389.167C235.29 389.387 235.199 389.633 235.16 389.89C235.122 390.147 235.136 390.409 235.203 390.66C235.269 390.912 235.386 391.146 235.547 391.351C235.708 391.555 235.909 391.723 236.138 391.847L265.138 407.847C265.368 407.974 265.621 408.055 265.882 408.085C266.143 408.115 266.407 408.093 266.66 408.02C266.912 407.948 267.148 407.826 267.354 407.663C267.559 407.499 267.731 407.297 267.858 407.067L319.048 315.297C319.194 315.078 319.289 314.83 319.325 314.569C319.36 314.309 319.336 314.044 319.254 313.794C319.173 313.545 319.035 313.317 318.852 313.129C318.669 312.94 318.445 312.796 318.198 312.707V312.707Z" fill="#37474F"/>
<path d="M257.758 380.827L263.048 384.577L246.398 375.407C245.925 375.146 245.368 375.081 244.848 375.227L239.548 371.487C239.804 371.413 240.072 371.39 240.336 371.421C240.6 371.452 240.856 371.536 241.088 371.667L257.758 380.827Z" fill="#455A64"/>
<path d="M225.098 397.297C225.318 392.906 225.988 388.55 227.098 384.297L212.218 386.677C210.547 392.841 209.541 399.168 209.218 405.547C208.911 411.106 209.392 416.682 210.648 422.107L226.048 408.697C225.226 404.956 224.907 401.122 225.098 397.297V397.297Z" fill="#90CAF9"/>
<path d="M225.098 397.297C225.318 392.906 225.988 388.55 227.098 384.297L212.218 386.677C210.547 392.841 209.541 399.168 209.218 405.547C208.911 411.106 209.392 416.682 210.648 422.107L226.048 408.697C225.226 404.956 224.907 401.122 225.098 397.297V397.297Z" fill="#90CAF9"/>
<path d="M215.998 377.217L201.088 379.547L212.218 386.677L227.128 384.347L215.998 377.217Z" fill="#90CAF9"/>
<path opacity="0.15" d="M215.998 377.217L201.088 379.547L212.218 386.677L227.128 384.347L215.998 377.217Z" fill="black"/>
<path d="M212.218 386.677L201.088 379.547C199.427 385.714 198.421 392.039 198.088 398.417C197.784 403.977 198.269 409.552 199.528 414.977L210.648 422.107C209.392 416.682 208.911 411.106 209.218 405.547C209.541 399.168 210.547 392.841 212.218 386.677V386.677Z" fill="#90CAF9"/>
<path opacity="0.3" d="M212.218 386.677L201.088 379.547C199.427 385.714 198.421 392.039 198.088 398.417C197.784 403.977 198.269 409.552 199.528 414.977L210.648 422.107C209.392 416.682 208.911 411.106 209.218 405.547C209.541 399.168 210.547 392.841 212.218 386.677V386.677Z" fill="white"/>
<path d="M290.568 325.427L300.568 306.027C291.928 303.897 281.678 305.607 271.108 310.677L270.318 328.577C277.578 325.207 284.578 324.087 290.568 325.427Z" fill="#90CAF9"/>
<path opacity="0.3" d="M290.568 325.427L300.568 306.027C291.928 303.897 281.678 305.607 271.108 310.677L270.318 328.577C277.578 325.207 284.578 324.087 290.568 325.427Z" fill="black"/>
<path d="M260.008 303.547L259.208 321.447L270.338 328.577L271.138 310.677L260.008 303.547Z" fill="#90CAF9"/>
<path opacity="0.42" d="M260.008 303.547L259.208 321.447L270.338 328.577L271.138 310.677L260.008 303.547Z" fill="black"/>
<path d="M271.128 310.677C281.698 305.607 291.948 303.897 300.588 306.027L289.468 298.897C280.828 296.767 270.568 298.477 260.008 303.547L271.128 310.677Z" fill="#90CAF9"/>
<path opacity="0.2" d="M271.128 310.677C281.698 305.607 291.948 303.897 300.588 306.027L289.468 298.897C280.828 296.767 270.568 298.477 260.008 303.547L271.128 310.677Z" fill="black"/>
<path d="M266.368 330.657L267.158 312.717C256.088 318.887 245.638 328.187 236.748 339.217L245.458 348.847C251.278 341.575 258.361 335.413 266.368 330.657Z" fill="#90CAF9"/>
<path opacity="0.2" d="M266.368 330.657L267.158 312.717C256.088 318.887 245.638 328.187 236.748 339.217L245.458 348.847C251.278 341.575 258.361 335.413 266.368 330.657Z" fill="black"/>
<path d="M256.038 305.587C244.918 311.757 234.508 321.057 225.618 332.087L236.748 339.217C245.638 328.217 256.088 318.887 267.158 312.717L256.038 305.587Z" fill="#90CAF9"/>
<path opacity="0.1" d="M256.038 305.587C244.918 311.757 234.508 321.057 225.618 332.087L236.748 339.217C245.638 328.217 256.088 318.887 267.158 312.717L256.038 305.587Z" fill="black"/>
<path d="M236.748 339.217L225.618 332.087L234.328 341.717L245.458 348.847L236.748 339.217Z" fill="#90CAF9"/>
<path opacity="0.35" d="M236.748 339.217L225.618 332.087L234.328 341.717L245.458 348.847L236.748 339.217Z" fill="black"/>
<path d="M242.128 353.147L233.428 343.487C224.772 355.082 218.079 368.021 213.618 381.787L228.548 379.487C231.673 370.052 236.255 361.165 242.128 353.147V353.147Z" fill="#90CAF9"/>
<path opacity="0.1" d="M242.128 353.147L233.428 343.487C224.772 355.082 218.079 368.021 213.618 381.787L228.548 379.487C231.673 370.052 236.255 361.165 242.128 353.147V353.147Z" fill="black"/>
<path d="M213.618 381.787C218.079 368.021 224.772 355.082 233.428 343.487L222.298 336.397C213.645 347.978 206.956 360.904 202.498 374.657L213.618 381.787Z" fill="#90CAF9"/>
</svg>
