<svg width="500" height="500" viewBox="0 0 500 500" fill="none" xmlns="http://www.w3.org/2000/svg">
<path d="M97.76 419.94C181.84 463.87 318.16 463.87 402.24 419.94C486.32 376.01 486.33 304.8 402.24 260.87C318.15 216.94 181.84 216.95 97.75 260.87C13.66 304.79 13.67 376 97.76 419.94Z" fill="#F5F5F5"/>
<path d="M204 381.79C226.66 392.59 263.39 392.59 286 381.79C308.61 370.99 308.66 353.49 286 342.69C263.34 331.89 226.62 331.89 204 342.69C181.38 353.49 181.3 371 204 381.79Z" fill="#EBEBEB"/>
<path d="M400.16 355.06L319.16 401.81C318.489 402.15 317.747 402.327 316.995 402.327C316.243 402.327 315.501 402.15 314.83 401.81L213.58 343.33C213.319 343.241 213.092 343.073 212.931 342.849C212.77 342.625 212.684 342.356 212.684 342.08C212.684 341.804 212.77 341.535 212.931 341.311C213.092 341.087 213.319 340.919 213.58 340.83L294.58 294.08C295.251 293.74 295.993 293.563 296.745 293.563C297.497 293.563 298.239 293.74 298.91 294.08L400.19 352.56C400.45 352.652 400.675 352.823 400.833 353.049C400.991 353.275 401.074 353.545 401.071 353.821C401.068 354.097 400.978 354.365 400.815 354.587C400.651 354.809 400.422 354.975 400.16 355.06Z" fill="#EBEBEB"/>
<path d="M422.7 98.07V119.54C422.7 119.54 413.88 123.67 397.7 123.67C381.52 123.67 372.7 119.53 372.7 119.53V98.53L389.58 50.76C389.35 52.26 390.23 53.76 392.21 54.94C393.658 55.834 395.305 56.3573 397.004 56.4637C398.702 56.5701 400.401 56.2563 401.95 55.55C402.385 55.379 402.806 55.1751 403.21 54.94C405.31 53.73 406.21 52.07 405.8 50.49L422.7 98.07Z" fill="#F5F5F5"/>
<path opacity="0.5" d="M422.7 98.07V119.54C422.7 119.54 413.88 123.67 397.7 123.67C381.52 123.67 372.7 119.53 372.7 119.53V98.53L389.58 50.76C389.35 52.26 390.23 53.76 392.21 54.94C393.658 55.834 395.305 56.3573 397.004 56.4637C398.702 56.5701 400.401 56.2563 401.95 55.55C402.385 55.379 402.806 55.1751 403.21 54.94C405.31 53.73 406.21 52.07 405.8 50.49L422.7 98.07Z" fill="white"/>
<path d="M420.76 248.57C419.31 250.479 417.474 252.061 415.37 253.21C405.59 258.86 389.74 258.86 379.97 253.21C377.863 252.062 376.022 250.48 374.57 248.57C373.442 247.07 372.774 245.273 372.65 243.4V254.55C372.83 258.11 375.26 261.64 379.97 264.36C389.74 270 405.59 270 415.37 264.36C420.25 261.54 422.7 257.84 422.7 254.14V243C422.663 245.016 421.983 246.967 420.76 248.57V248.57Z" fill="#F5F5F5"/>
<path d="M420.76 237.42C419.31 239.329 417.474 240.911 415.37 242.06C414.79 242.39 414.2 242.7 413.59 242.99C404.36 247.39 390.97 247.39 381.75 242.99C381.14 242.7 380.54 242.39 379.97 242.06C377.863 240.912 376.022 239.33 374.57 237.42C373.442 235.923 372.775 234.13 372.65 232.26V243.4C372.774 245.273 373.442 247.07 374.57 248.57C376.022 250.48 377.863 252.062 379.97 253.21C389.74 258.86 405.59 258.86 415.37 253.21C417.474 252.061 419.31 250.479 420.76 248.57C421.983 246.967 422.663 245.016 422.7 243V231.85C422.663 233.866 421.984 235.818 420.76 237.42Z" fill="#EBEBEB"/>
<path d="M420.76 226.27C419.309 228.181 417.473 229.765 415.37 230.92C414.79 231.25 414.2 231.55 413.59 231.85C404.36 236.25 390.97 236.25 381.75 231.85C381.14 231.55 380.54 231.25 379.97 230.92C377.865 229.765 376.025 228.181 374.57 226.27C373.442 224.773 372.775 222.98 372.65 221.11V232.26C372.775 234.13 373.442 235.923 374.57 237.42C376.022 239.33 377.863 240.912 379.97 242.06C380.54 242.39 381.14 242.7 381.75 242.99C390.97 247.39 404.36 247.39 413.59 242.99C414.2 242.7 414.79 242.39 415.37 242.06C417.474 240.911 419.31 239.329 420.76 237.42C421.984 235.818 422.663 233.866 422.7 231.85V220.7C422.665 222.716 421.985 224.668 420.76 226.27V226.27Z" fill="#F5F5F5"/>
<path d="M372.65 98.49V221.11C372.775 222.98 373.442 224.773 374.57 226.27C376.025 228.181 377.865 229.765 379.97 230.92C380.54 231.25 381.14 231.55 381.75 231.85C384.167 232.977 386.713 233.806 389.33 234.32L384.8 105.09L372.65 98.49Z" fill="#F5F5F5"/>
<path d="M410.54 105.09L406 234.32C408.617 233.806 411.162 232.977 413.58 231.85C414.19 231.55 414.78 231.25 415.36 230.92C417.463 229.765 419.299 228.181 420.75 226.27C421.975 224.668 422.655 222.716 422.69 220.7V98.07L410.54 105.09Z" fill="#F5F5F5"/>
<path d="M372.65 98.49V221.11C372.775 222.98 373.442 224.773 374.57 226.27C376.025 228.181 377.865 229.765 379.97 230.92C380.54 231.25 381.14 231.55 381.75 231.85C384.167 232.977 386.713 233.806 389.33 234.32L384.8 105.09L372.65 98.49Z" fill="#E0E0E0"/>
<path d="M410.54 105.09L406 234.32C408.617 233.806 411.162 232.977 413.58 231.85C414.19 231.55 414.78 231.25 415.36 230.92C417.463 229.765 419.299 228.181 420.75 226.27C421.975 224.668 422.655 222.716 422.69 220.7V98.07L410.54 105.09Z" fill="#E0E0E0"/>
<path d="M384.8 105.09V233.09C386.281 233.602 387.794 234.016 389.33 234.33C392.075 234.885 394.869 235.163 397.67 235.16C400.47 235.158 403.264 234.88 406.01 234.33C407.545 234.016 409.059 233.602 410.54 233.09V105.09H384.8Z" fill="#EBEBEB"/>
<path d="M403.17 54.89C402.766 55.1251 402.345 55.329 401.91 55.5C400.361 56.2063 398.662 56.5201 396.964 56.4137C395.265 56.3073 393.618 55.784 392.17 54.89C390.17 53.75 389.31 52.21 389.54 50.71L395.3 34.58C395.49 34.1083 395.817 33.705 396.24 33.423C396.663 33.141 397.162 32.9936 397.67 33V33C398.18 32.9929 398.68 33.14 399.104 33.4219C399.529 33.7039 399.859 34.1075 400.05 34.58L405.75 50.42C406.14 52 405.27 53.68 403.17 54.89Z" fill="#E0E0E0"/>
<path d="M415.37 264.36C406.97 269.21 394.09 269.88 384.43 266.36C383.89 266.173 383.36 265.963 382.84 265.73L382.12 265.43C381.37 265.09 380.65 264.72 379.97 264.33C375.26 261.61 372.83 258.08 372.65 254.52V284.9C372.47 288.74 374.9 292.61 379.97 295.53C380.57 295.88 381.2 296.21 381.85 296.53C382.09 296.65 382.35 296.74 382.59 296.85C383.01 297.03 383.42 297.22 383.85 297.38C384.28 297.54 384.52 297.62 384.85 297.73C385.18 297.84 385.56 297.99 385.93 298.1C386.3 298.21 386.75 298.33 387.16 298.44C387.57 298.55 387.79 298.62 388.11 298.69C388.43 298.76 389.06 298.9 389.54 298.99C389.81 298.99 390.08 299.11 390.35 299.15C390.89 299.25 391.44 299.32 391.99 299.4L392.64 299.49C393.25 299.56 393.86 299.61 394.47 299.65H394.95C395.62 299.7 396.29 299.72 396.95 299.73H397.27C397.99 299.73 398.71 299.73 399.43 299.73H399.59C400.35 299.73 401.11 299.64 401.87 299.57C406.324 299.192 410.662 297.949 414.64 295.91V295.91C414.86 295.79 415.09 295.69 415.31 295.56C420.19 292.74 422.64 289.04 422.64 285.34V254.14C422.7 257.84 420.25 261.54 415.37 264.36Z" fill="#E0E0E0"/>
<path d="M113.48 282.08C110.59 281.35 95.1599 272.57 93.5899 271.5C92.0199 270.43 88.9199 268.22 88.9199 264.41C88.9199 261.04 89.2699 229.26 92.0299 213.91C92.9367 209.135 94.8105 204.596 97.5363 200.572C100.262 196.548 103.782 193.124 107.88 190.51C117.48 184.56 127.13 180.25 135.26 183.63C143.39 187.01 150.81 193.22 154.01 200.72C157.21 208.22 159.4 223.24 159.63 229.05C159.86 234.86 159.63 254.78 159.63 256.55C159.63 258.32 159.31 260.62 149.78 266.55C140.25 272.48 127.09 279.55 123.02 281.38C119.993 282.611 116.654 282.856 113.48 282.08V282.08Z" fill="#37474F"/>
<path d="M111.1 194.64C110.22 195.14 107.68 193.89 107.3 193.26C106.92 192.63 106.82 187.18 108.72 184.17C110.62 181.16 122.47 175.61 125.4 176.02C126.497 176.199 127.547 176.599 128.484 177.198C129.421 177.796 130.226 178.58 130.85 179.5C131.21 180.27 131.61 185.34 130.85 186.38C130.09 187.42 127.38 185.82 127.14 185.38C126.9 184.94 128.03 181.23 126.14 180.46C124.4 179.76 116.14 183.27 112.78 186.09C111.32 187.32 111.39 190.37 111.46 191.88C111.53 193.39 111.54 194.38 111.1 194.64Z" fill="#455A64"/>
<path d="M108.72 230.42C110.42 213.91 113.48 204.27 129.63 197.08C145.78 189.89 152.05 196.01 154.34 201.52C157.34 209.24 159.41 223.44 159.63 229.05C159.86 234.86 159.63 254.78 159.63 256.55C159.63 258.32 159.31 260.62 149.78 266.55C140.25 272.48 127.09 279.55 123.02 281.38C119.996 282.621 116.658 282.876 113.48 282.11C112.842 281.916 112.22 281.672 111.62 281.38C106.59 274.92 107.16 245.5 108.72 230.42Z" fill="#455A64"/>
<path d="M146.37 190.63C142.15 188.16 135.23 186.53 125.07 191.06C106.91 199.15 102.3 209.28 100.47 227.06C100.14 230.32 99.65 234.2 99.47 238.37L97.97 237.46C98.18 232.96 98.62 229.11 98.97 225.63C100.97 207.72 106.34 197.82 123.69 190.09C133.3 185.81 139.61 186.37 143.79 188.48C144.688 189.15 145.549 189.868 146.37 190.63Z" fill="#263238"/>
<path d="M147 191.09C142.79 188.62 135.86 186.99 125.71 191.52C107.54 199.61 102.93 209.74 101.1 227.52C100.77 230.78 100.28 234.66 100.1 238.83L98.5999 237.92C98.8099 233.42 99.2499 229.57 99.5999 226.09C101.6 208.18 106.97 198.27 124.32 190.55C133.93 186.27 140.41 186.98 144.59 189.08C145.43 189.704 146.235 190.375 147 191.09V191.09Z" fill="#455A64"/>
<path d="M141.12 206.79L135.63 203.65C135.359 203.498 135.039 203.459 134.74 203.541C134.44 203.624 134.185 203.821 134.03 204.09L128.4 213.88C128.243 214.149 128.199 214.47 128.278 214.772C128.357 215.073 128.552 215.332 128.82 215.49L134.24 218.65C134.509 218.807 134.83 218.851 135.132 218.772C135.433 218.693 135.692 218.498 135.85 218.23L141.55 208.38C141.628 208.248 141.679 208.101 141.7 207.949C141.72 207.797 141.71 207.643 141.67 207.494C141.63 207.346 141.561 207.207 141.466 207.087C141.372 206.966 141.254 206.865 141.12 206.79V206.79Z" fill="#263238"/>
<path d="M135.23 217.53L140.64 208.2C140.679 208.133 140.704 208.059 140.714 207.983C140.724 207.906 140.719 207.828 140.698 207.754C140.678 207.679 140.643 207.609 140.595 207.549C140.547 207.488 140.487 207.437 140.42 207.4L135.42 204.56C135.284 204.484 135.124 204.464 134.975 204.506C134.825 204.547 134.697 204.645 134.62 204.78L129.27 214.07C129.194 214.205 129.174 214.365 129.215 214.515C129.257 214.665 129.355 214.792 129.49 214.87L134.4 217.74C134.468 217.783 134.543 217.811 134.622 217.824C134.701 217.837 134.782 217.833 134.86 217.813C134.938 217.794 135.01 217.758 135.074 217.71C135.138 217.661 135.191 217.6 135.23 217.53V217.53Z" fill="#455A64"/>
<path d="M136.39 213.07C136.534 212.983 136.656 212.863 136.746 212.721C136.836 212.579 136.892 212.418 136.91 212.25V207.78C136.91 207.49 136.68 207.4 136.39 207.56C136.246 207.647 136.124 207.767 136.034 207.909C135.943 208.051 135.887 208.212 135.87 208.38V212.85C135.87 213.14 136.1 213.23 136.39 213.07Z" fill="#37474F"/>
<path d="M133.49 214.75C133.634 214.66 133.755 214.539 133.846 214.395C133.936 214.251 133.992 214.089 134.01 213.92V209.46C134.01 209.17 133.77 209.07 133.49 209.24C133.345 209.326 133.222 209.445 133.132 209.588C133.041 209.73 132.986 209.892 132.97 210.06V214.53C133 214.81 133.2 214.91 133.49 214.75Z" fill="#37474F"/>
<path d="M116.2 244.38C116.2 244.38 118.92 246.62 120.88 255.06C122.84 263.5 124.02 274.13 121.88 275.41C119.74 276.69 116.65 274.01 115.88 273.09C114.3 271.2 114.69 251.14 116.2 244.38Z" fill="#263238"/>
<path d="M116.2 244.38C116.2 244.38 118.92 246.62 120.88 255.06C122.84 263.5 124.02 274.13 121.88 275.41L154.88 255.95C157.04 254.67 157.57 243.5 155.62 235.06C154.33 229.51 151.96 226.87 150.5 225.71C150.165 225.451 149.76 225.299 149.338 225.272C148.916 225.245 148.495 225.346 148.13 225.56L116.2 244.38Z" fill="#37474F"/>
<path d="M149.82 227C151.4 227.78 154.08 229.93 155.29 235.64C155.494 236.417 155.476 237.236 155.237 238.003C154.998 238.771 154.549 239.456 153.94 239.98C152.84 240.76 129.22 254.19 126.09 256.06C123.39 257.67 121.99 255.53 121.4 254.19C120.4 251.81 119.54 249.96 118.8 248.54C118.235 246.991 117.353 245.578 116.21 244.39L147.68 227.09C148.002 226.901 148.366 226.794 148.739 226.778C149.112 226.762 149.483 226.839 149.82 227V227Z" fill="#263238"/>
<path d="M100.49 239.76C100.947 241.479 101.245 243.236 101.38 245.01C101.38 245.37 100.89 245.56 100.75 245.56C99.6063 245.33 98.5479 244.79 97.6899 244C97.8502 242.488 98.1243 240.991 98.5099 239.52L100.49 239.76Z" fill="#263238"/>
<path d="M101.51 238.35C101.51 237.972 101.398 237.603 101.188 237.289C100.978 236.975 100.68 236.73 100.331 236.585C99.9819 236.441 99.5978 236.403 99.2273 236.477C98.8568 236.55 98.5165 236.732 98.2494 236.999C97.9823 237.267 97.8003 237.607 97.7266 237.977C97.6529 238.348 97.6908 238.732 97.8353 239.081C97.9799 239.43 98.2247 239.728 98.5388 239.938C98.8529 240.148 99.2222 240.26 99.5999 240.26C100.107 240.26 100.592 240.059 100.951 239.701C101.309 239.342 101.51 238.857 101.51 238.35V238.35Z" fill="#263238"/>
<path d="M125.4 180.37C127.49 180.17 129.46 180.37 129.96 182.46C130.46 184.55 130.28 186.46 129.96 186.72C128.901 186.586 127.913 186.116 127.14 185.38C126.9 184.93 128.03 181.23 126.14 180.46C125.908 180.383 125.663 180.352 125.42 180.37H125.4Z" fill="#263238"/>
<path d="M148.33 225.45C148.653 225.259 149.019 225.151 149.394 225.135C149.769 225.12 150.142 225.197 150.48 225.36C152.06 226.14 154.74 228.29 155.95 234C156.153 234.777 156.134 235.596 155.895 236.363C155.657 237.13 155.208 237.815 154.6 238.34C153.5 239.12 129.89 252.55 126.76 254.42C124.06 256.03 122.65 253.89 122.06 252.55C118.79 245.71 116.2 244.38 116.2 244.38L148.33 225.45Z" fill="#37474F"/>
<path d="M142.67 341.79L116.19 326.51C115.499 326.057 114.923 325.449 114.51 324.733C114.096 324.018 113.857 323.215 113.81 322.39V322.69C113.855 321.865 114.094 321.061 114.508 320.346C114.921 319.63 115.498 319.021 116.19 318.57L169.44 287.83C170.176 287.455 170.989 287.26 171.815 287.26C172.641 287.26 173.455 287.455 174.19 287.83L200.67 303.12C201.364 303.568 201.941 304.174 202.355 304.889C202.768 305.603 203.007 306.406 203.05 307.23V306.93C203.006 307.755 202.769 308.557 202.357 309.273C201.945 309.989 201.371 310.597 200.68 311.05L147.43 341.79C146.693 342.165 145.877 342.36 145.05 342.36C144.223 342.36 143.407 342.165 142.67 341.79V341.79Z" fill="#71AAE2"/>
<path opacity="0.7" d="M142.67 341.79L116.19 326.51C115.499 326.057 114.923 325.449 114.51 324.733C114.096 324.018 113.857 323.215 113.81 322.39V322.69C113.855 321.865 114.094 321.061 114.508 320.346C114.921 319.63 115.498 319.021 116.19 318.57L169.44 287.83C170.176 287.455 170.989 287.26 171.815 287.26C172.641 287.26 173.455 287.455 174.19 287.83L200.67 303.12C201.364 303.568 201.941 304.174 202.355 304.889C202.768 305.603 203.007 306.406 203.05 307.23V306.93C203.006 307.755 202.769 308.557 202.357 309.273C201.945 309.989 201.371 310.597 200.68 311.05L147.43 341.79C146.693 342.165 145.877 342.36 145.05 342.36C144.223 342.36 143.407 342.165 142.67 341.79V341.79Z" fill="black"/>
<path d="M145 301.91L116.15 318.57C115.457 319.021 114.881 319.63 114.468 320.346C114.054 321.061 113.815 321.865 113.77 322.69V322.39C113.817 323.215 114.056 324.018 114.47 324.733C114.883 325.449 115.459 326.057 116.15 326.51L142.63 341.79C143.362 342.179 144.181 342.376 145.01 342.36L145 301.91Z" fill="#71AAE2"/>
<path opacity="0.7" d="M145 301.91L116.15 318.57C115.457 319.021 114.881 319.63 114.468 320.346C114.054 321.061 113.815 321.865 113.77 322.69V322.39C113.817 323.215 114.056 324.018 114.47 324.733C114.883 325.449 115.459 326.057 116.15 326.51L142.63 341.79C143.362 342.179 144.181 342.376 145.01 342.36L145 301.91Z" fill="black"/>
<path d="M116.18 321.32L142.65 336.61C143.389 336.98 144.204 337.172 145.03 337.172C145.856 337.172 146.671 336.98 147.41 336.61L200.66 305.86C201.98 305.1 201.98 303.86 200.66 303.12L174.18 287.83C173.444 287.455 172.631 287.26 171.805 287.26C170.979 287.26 170.165 287.455 169.43 287.83L116.18 318.57C114.86 319.33 114.86 320.56 116.18 321.32Z" fill="#71AAE2"/>
<path opacity="0.5" d="M116.18 321.32L142.65 336.61C143.389 336.98 144.204 337.172 145.03 337.172C145.856 337.172 146.671 336.98 147.41 336.61L200.66 305.86C201.98 305.1 201.98 303.86 200.66 303.12L174.18 287.83C173.444 287.455 172.631 287.26 171.805 287.26C170.979 287.26 170.165 287.455 169.43 287.83L116.18 318.57C114.86 319.33 114.86 320.56 116.18 321.32Z" fill="black"/>
<path d="M116.18 316.29V318.83L143.66 334.7C144.078 334.94 144.552 335.067 145.035 335.067C145.517 335.067 145.992 334.94 146.41 334.7L200.66 303.37V300.75L145.03 327.75L116.18 316.29Z" fill="#71AAE2"/>
<path d="M142.66 331.58L116.18 316.29C115.486 315.84 114.909 315.232 114.495 314.516C114.082 313.8 113.844 312.996 113.8 312.17V307.28C113.844 306.454 114.082 305.65 114.495 304.934C114.909 304.218 115.486 303.61 116.18 303.16L169.43 272.41C170.166 272.035 170.979 271.84 171.805 271.84C172.631 271.84 173.444 272.035 174.18 272.41L200.66 287.7C201.354 288.15 201.931 288.758 202.345 289.474C202.758 290.19 202.997 290.994 203.04 291.82V296.72C202.99 297.528 202.748 298.312 202.334 299.008C201.92 299.704 201.346 300.291 200.66 300.72L147.41 331.55C146.677 331.93 145.864 332.13 145.039 332.135C144.213 332.141 143.398 331.95 142.66 331.58Z" fill="#71AAE2"/>
<path opacity="0.6" d="M142.66 331.58L116.18 316.29C115.486 315.84 114.909 315.232 114.495 314.516C114.082 313.8 113.844 312.996 113.8 312.17V307.28C113.844 306.454 114.082 305.65 114.495 304.934C114.909 304.218 115.486 303.61 116.18 303.16L169.43 272.41C170.166 272.035 170.979 271.84 171.805 271.84C172.631 271.84 173.444 272.035 174.18 272.41L200.66 287.7C201.354 288.15 201.931 288.758 202.345 289.474C202.758 290.19 202.997 290.994 203.04 291.82V296.72C202.99 297.528 202.748 298.312 202.334 299.008C201.92 299.704 201.346 300.291 200.66 300.72L147.41 331.55C146.677 331.93 145.864 332.13 145.039 332.135C144.213 332.141 143.398 331.95 142.66 331.58Z" fill="black"/>
<path d="M145 286.5L116.15 303.16C115.456 303.61 114.879 304.218 114.465 304.934C114.052 305.65 113.813 306.454 113.77 307.28V312.17C113.813 312.996 114.052 313.8 114.465 314.516C114.879 315.232 115.456 315.84 116.15 316.29L142.63 331.58C143.358 331.971 144.174 332.167 145 332.15V286.5Z" fill="#71AAE2"/>
<path opacity="0.7" d="M145 286.5L116.15 303.16C115.456 303.61 114.879 304.218 114.465 304.934C114.052 305.65 113.813 306.454 113.77 307.28V312.17C113.813 312.996 114.052 313.8 114.465 314.516C114.879 315.232 115.456 315.84 116.15 316.29L142.63 331.58C143.358 331.971 144.174 332.167 145 332.15V286.5Z" fill="black"/>
<path d="M116.18 305.9L142.65 321.19C143.387 321.565 144.203 321.76 145.03 321.76C145.857 321.76 146.673 321.565 147.41 321.19L200.66 290.45C201.98 289.69 201.98 288.45 200.66 287.7L174.18 272.41C173.444 272.035 172.631 271.84 171.805 271.84C170.979 271.84 170.165 272.035 169.43 272.41L116.18 303.16C114.86 303.92 114.86 305.15 116.18 305.9Z" fill="#71AAE2"/>
<path opacity="0.5" d="M116.18 305.9L142.65 321.19C143.387 321.565 144.203 321.76 145.03 321.76C145.857 321.76 146.673 321.565 147.41 321.19L200.66 290.45C201.98 289.69 201.98 288.45 200.66 287.7L174.18 272.41C173.444 272.035 172.631 271.84 171.805 271.84C170.979 271.84 170.165 272.035 169.43 272.41L116.18 303.16C114.86 303.92 114.86 305.15 116.18 305.9Z" fill="black"/>
<path d="M153.11 293.75C150.18 295.45 150.18 298.18 153.11 299.86C154.758 300.688 156.576 301.12 158.42 301.12C160.264 301.12 162.083 300.688 163.73 299.86C166.66 298.18 166.66 295.45 163.73 293.75C162.084 292.917 160.265 292.483 158.42 292.483C156.575 292.483 154.756 292.917 153.11 293.75V293.75Z" fill="#71AAE2"/>
<path d="M196.35 295.54C196.078 295.718 195.852 295.957 195.691 296.239C195.529 296.52 195.436 296.836 195.42 297.16C195.42 297.76 195.84 298.01 196.35 297.72C196.622 297.542 196.847 297.303 197.009 297.021C197.171 296.74 197.264 296.424 197.28 296.1C197.28 295.5 196.86 295.25 196.35 295.54Z" fill="#71AAE2"/>
<path d="M196.35 299.13C196.078 299.308 195.852 299.547 195.691 299.829C195.529 300.11 195.436 300.426 195.42 300.75C195.42 301.35 195.84 301.6 196.35 301.31C196.625 301.136 196.854 300.898 197.016 300.615C197.178 300.333 197.268 300.015 197.28 299.69C197.28 299.09 196.86 298.84 196.35 299.13Z" fill="#71AAE2"/>
<path d="M131.57 362C131.448 362 131.327 361.969 131.22 361.91L105.56 347C104.896 346.615 104.344 346.062 103.961 345.397C103.577 344.732 103.375 343.978 103.375 343.21C103.375 342.442 103.577 341.688 103.961 341.023C104.344 340.358 104.896 339.805 105.56 339.42L124.37 328.56C124.53 328.479 124.714 328.462 124.886 328.513C125.057 328.564 125.203 328.679 125.293 328.834C125.382 328.989 125.409 329.172 125.368 329.346C125.326 329.52 125.22 329.672 125.07 329.77L106.27 340.6C105.822 340.866 105.451 341.243 105.194 341.696C104.936 342.148 104.801 342.659 104.801 343.18C104.801 343.701 104.936 344.212 105.194 344.664C105.451 345.117 105.822 345.494 106.27 345.76L131.93 360.65C132.016 360.695 132.092 360.758 132.152 360.835C132.212 360.911 132.256 360.999 132.279 361.094C132.303 361.188 132.306 361.287 132.289 361.383C132.272 361.478 132.235 361.57 132.18 361.65C132.12 361.758 132.031 361.848 131.924 361.91C131.816 361.972 131.694 362.003 131.57 362V362Z" fill="#71AAE2"/>
<path d="M163.71 347.6L158.15 325.28C158.071 324.972 157.967 324.671 157.84 324.38L159.46 324.15L155.93 322.15C155.189 321.747 154.353 321.554 153.511 321.591C152.669 321.628 151.853 321.894 151.15 322.36L128 335.76C126.411 336.801 125.089 338.202 124.142 339.849C123.195 341.496 122.65 343.343 122.55 345.24V372.08C122.55 374.22 123.07 375.69 124.14 376.2L127.46 378.12L126.66 376L126.84 375.93C130.65 374.11 132.03 370.79 133.17 367.5L137.58 354.75C138.72 351.46 141.58 347.69 143.92 346.32C146.26 344.95 149.6 346.32 151.32 349.32L153.54 353.2C154.218 354.432 155.239 355.439 156.48 356.1L159.86 358.1L159 356.76C159.703 356.762 160.393 356.575 161 356.22C163.31 354.84 164.55 351 163.71 347.6Z" fill="#71AAE2"/>
<path opacity="0.7" d="M163.71 347.6L158.15 325.28C158.071 324.972 157.967 324.671 157.84 324.38L159.46 324.15L155.93 322.15C155.189 321.747 154.353 321.554 153.511 321.591C152.669 321.628 151.853 321.894 151.15 322.36L128 335.76C126.411 336.801 125.089 338.202 124.142 339.849C123.195 341.496 122.65 343.343 122.55 345.24V372.08C122.55 374.22 123.07 375.69 124.14 376.2L127.46 378.12L126.66 376L126.84 375.93C130.65 374.11 132.03 370.79 133.17 367.5L137.58 354.75C138.72 351.46 141.58 347.69 143.92 346.32C146.26 344.95 149.6 346.32 151.32 349.32L153.54 353.2C154.218 354.432 155.239 355.439 156.48 356.1L159.86 358.1L159 356.76C159.703 356.762 160.393 356.575 161 356.22C163.31 354.84 164.55 351 163.71 347.6Z" fill="black"/>
<path d="M157.84 324.38L159.46 324.15L155.93 322.15C155.189 321.747 154.353 321.554 153.511 321.591C152.669 321.628 151.853 321.894 151.15 322.36L128 335.76C126.707 336.566 125.602 337.64 124.76 338.91L130.27 342.27L158.45 326.35L158.18 325.28C158.091 324.971 157.977 324.67 157.84 324.38V324.38Z" fill="#71AAE2"/>
<path opacity="0.5" d="M157.84 324.38L159.46 324.15L155.93 322.15C155.189 321.747 154.353 321.554 153.511 321.591C152.669 321.628 151.853 321.894 151.15 322.36L128 335.76C126.707 336.566 125.602 337.64 124.76 338.91L130.27 342.27L158.45 326.35L158.18 325.28C158.091 324.971 157.977 324.67 157.84 324.38V324.38Z" fill="black"/>
<path d="M164.53 358.3C162.16 359.67 158.83 358.3 157.1 355.3L154.89 351.42C153.16 348.42 149.89 347.05 147.48 348.42C145.07 349.79 142.28 353.55 141.14 356.85L136.74 369.59C135.6 372.88 134.21 376.2 130.4 378.02C127.52 379.4 126.13 377.66 126.13 374.18V347.32C126.233 345.424 126.781 343.578 127.73 341.933C128.678 340.288 130.001 338.889 131.59 337.85L154.78 324.4C155.405 323.962 156.131 323.692 156.889 323.613C157.648 323.535 158.414 323.651 159.115 323.952C159.816 324.252 160.429 324.726 160.895 325.33C161.361 325.933 161.666 326.646 161.78 327.4L167.34 349.73C168.16 353.07 166.91 356.93 164.53 358.3Z" fill="#71AAE2"/>
<path opacity="0.6" d="M164.53 358.3C162.16 359.67 158.83 358.3 157.1 355.3L154.89 351.42C153.16 348.42 149.89 347.05 147.48 348.42C145.07 349.79 142.28 353.55 141.14 356.85L136.74 369.59C135.6 372.88 134.21 376.2 130.4 378.02C127.52 379.4 126.13 377.66 126.13 374.18V347.32C126.233 345.424 126.781 343.578 127.73 341.933C128.678 340.288 130.001 338.889 131.59 337.85L154.78 324.4C155.405 323.962 156.131 323.692 156.889 323.613C157.648 323.535 158.414 323.651 159.115 323.952C159.816 324.252 160.429 324.726 160.895 325.33C161.361 325.933 161.666 326.646 161.78 327.4L167.34 349.73C168.16 353.07 166.91 356.93 164.53 358.3Z" fill="black"/>
<path d="M155.54 332.13L156.12 335.42L158.69 333.78L159.26 337.07L156.7 338.72L157.28 342.01L154.72 343.65L154.14 340.36L151.58 342.01L151 338.71L153.56 337.07L152.98 333.78L155.54 332.13Z" fill="#263238"/>
<path d="M156.28 332.52L156.86 335.81L159.42 334.17L160 337.46L157.44 339.11L158.02 342.4L155.46 344.04L154.88 340.75L152.32 342.39L151.74 339.1L154.3 337.46L153.72 334.17L156.28 332.52Z" fill="#71AAE2"/>
<path d="M136.14 343.78C136.208 344.243 136.152 344.717 135.976 345.151C135.8 345.585 135.512 345.965 135.14 346.25C134.43 346.7 133.73 346.33 133.57 345.42C133.498 344.956 133.554 344.482 133.73 344.047C133.906 343.612 134.196 343.233 134.57 342.95C135.27 342.5 136 342.87 136.14 343.78Z" fill="#263238"/>
<path d="M137.3 350.36C137.372 350.824 137.317 351.298 137.141 351.733C136.964 352.168 136.674 352.547 136.3 352.83C135.59 353.28 134.89 352.91 134.73 352.01C134.657 351.546 134.712 351.072 134.888 350.637C135.064 350.201 135.355 349.822 135.73 349.54C136.43 349.08 137.14 349.45 137.3 350.36Z" fill="#263238"/>
<path d="M139.28 345.42C139.353 345.884 139.298 346.358 139.122 346.793C138.946 347.229 138.655 347.608 138.28 347.89C137.57 348.35 136.87 347.98 136.71 347.07C136.637 346.606 136.692 346.132 136.868 345.697C137.044 345.261 137.335 344.882 137.71 344.6C138.42 344.15 139.12 344.51 139.28 345.42Z" fill="#263238"/>
<path d="M134.16 348.71C134.233 349.174 134.178 349.648 134.002 350.083C133.826 350.519 133.535 350.898 133.16 351.18C132.45 351.64 131.75 351.27 131.59 350.36C131.518 349.896 131.574 349.422 131.75 348.987C131.926 348.552 132.216 348.173 132.59 347.89C133.3 347.44 134 347.8 134.16 348.71Z" fill="#263238"/>
<path d="M136.19 343.81C136.262 344.274 136.206 344.748 136.03 345.183C135.854 345.618 135.564 345.997 135.19 346.28C134.48 346.73 133.78 346.37 133.62 345.46C133.547 344.996 133.602 344.522 133.778 344.087C133.954 343.651 134.245 343.272 134.62 342.99C135.33 342.53 136 342.9 136.19 343.81Z" fill="#263238"/>
<path d="M137.35 350.39C137.423 350.854 137.368 351.328 137.192 351.763C137.016 352.199 136.725 352.578 136.35 352.86C135.64 353.32 134.94 352.95 134.78 352.04C134.707 351.576 134.762 351.102 134.938 350.667C135.114 350.231 135.405 349.852 135.78 349.57C136.49 349.12 137.19 349.48 137.35 350.39Z" fill="#263238"/>
<path d="M139.33 345.46C139.401 345.922 139.345 346.395 139.169 346.828C138.993 347.261 138.703 347.638 138.33 347.92C137.63 348.38 136.92 348.01 136.76 347.1C136.69 346.637 136.747 346.163 136.922 345.728C137.098 345.294 137.388 344.915 137.76 344.63C138.47 344.18 139.17 344.55 139.33 345.46Z" fill="#263238"/>
<path d="M134.21 348.75C134.282 349.214 134.227 349.688 134.051 350.123C133.874 350.558 133.584 350.937 133.21 351.22C132.51 351.67 131.8 351.3 131.64 350.39C131.572 349.927 131.628 349.453 131.804 349.019C131.98 348.585 132.268 348.205 132.64 347.92C133.35 347.47 134.05 347.84 134.21 348.75Z" fill="#263238"/>
<path d="M136.24 343.84C136.313 344.304 136.258 344.778 136.082 345.213C135.906 345.649 135.615 346.028 135.24 346.31C134.54 346.77 133.83 346.4 133.67 345.49C133.601 345.026 133.657 344.553 133.833 344.118C134.008 343.684 134.298 343.305 134.67 343.02C135.38 342.57 136.08 342.93 136.24 343.84Z" fill="#263238"/>
<path d="M137.4 350.43C137.471 350.892 137.415 351.365 137.239 351.798C137.063 352.231 136.773 352.608 136.4 352.89C135.7 353.35 134.99 352.98 134.83 352.07C134.76 351.607 134.817 351.133 134.993 350.698C135.168 350.264 135.458 349.885 135.83 349.6C136.54 349.15 137.24 349.52 137.4 350.43Z" fill="#263238"/>
<path d="M139.39 345.49C139.459 345.954 139.403 346.427 139.227 346.862C139.051 347.296 138.762 347.675 138.39 347.96C137.68 348.41 136.98 348.04 136.82 347.14C136.747 346.676 136.802 346.202 136.978 345.767C137.154 345.331 137.445 344.952 137.82 344.67C138.52 344.21 139.23 344.58 139.39 345.49Z" fill="#263238"/>
<path d="M134.27 348.78C134.34 349.244 134.283 349.717 134.107 350.152C133.932 350.586 133.642 350.965 133.27 351.25C132.56 351.7 131.86 351.34 131.7 350.43C131.627 349.966 131.682 349.492 131.858 349.057C132.034 348.621 132.325 348.242 132.7 347.96C133.4 347.5 134.11 347.87 134.27 348.78Z" fill="#263238"/>
<path d="M136.3 343.88C136.369 344.344 136.313 344.817 136.137 345.252C135.961 345.686 135.672 346.065 135.3 346.35C134.59 346.8 133.89 346.43 133.73 345.52C133.659 345.058 133.715 344.585 133.891 344.152C134.067 343.719 134.357 343.342 134.73 343.06C135.43 342.6 136.14 343 136.3 343.88Z" fill="#263238"/>
<path d="M137.46 350.46C137.529 350.924 137.473 351.397 137.297 351.832C137.122 352.266 136.832 352.645 136.46 352.93C135.75 353.38 135.05 353.02 134.89 352.11C134.817 351.646 134.872 351.172 135.048 350.737C135.224 350.301 135.515 349.922 135.89 349.64C136.59 349.18 137.3 349.55 137.46 350.46Z" fill="#263238"/>
<path d="M139.44 345.52C139.513 345.984 139.458 346.458 139.282 346.893C139.106 347.329 138.815 347.708 138.44 347.99C137.73 348.45 137.03 348.08 136.87 347.17C136.798 346.706 136.853 346.232 137.029 345.797C137.205 345.362 137.496 344.983 137.87 344.7C138.58 344.25 139.28 344.61 139.44 345.52Z" fill="#263238"/>
<path d="M134.32 348.81C134.393 349.274 134.338 349.748 134.162 350.183C133.986 350.619 133.695 350.998 133.32 351.28C132.61 351.74 131.91 351.37 131.75 350.46C131.678 349.996 131.733 349.522 131.909 349.087C132.086 348.652 132.376 348.273 132.75 347.99C133.46 347.54 134.16 347.9 134.32 348.81Z" fill="#263238"/>
<path d="M136.35 343.91C136.422 344.374 136.366 344.848 136.19 345.283C136.014 345.718 135.724 346.097 135.35 346.38C134.64 346.83 133.94 346.47 133.78 345.56C133.707 345.096 133.762 344.622 133.938 344.187C134.114 343.751 134.405 343.372 134.78 343.09C135.49 342.63 136.19 343 136.35 343.91Z" fill="#263238"/>
<path d="M137.51 350.49C137.583 350.954 137.528 351.428 137.352 351.863C137.176 352.299 136.885 352.678 136.51 352.96C135.8 353.42 135.1 353.05 134.94 352.14C134.868 351.676 134.923 351.202 135.099 350.767C135.275 350.332 135.566 349.953 135.94 349.67C136.65 349.22 137.35 349.58 137.51 350.49Z" fill="#263238"/>
<path d="M139.49 345.56C139.56 346.024 139.505 346.498 139.329 346.932C139.153 347.367 138.863 347.746 138.49 348.03C137.78 348.48 137.08 348.11 136.92 347.2C136.848 346.736 136.903 346.262 137.079 345.827C137.255 345.392 137.546 345.013 137.92 344.73C138.63 344.28 139.33 344.65 139.49 345.56Z" fill="#263238"/>
<path d="M134.37 348.85C134.442 349.314 134.386 349.788 134.21 350.223C134.034 350.658 133.744 351.037 133.37 351.32C132.67 351.77 131.96 351.4 131.8 350.49C131.731 350.028 131.788 349.556 131.964 349.123C132.14 348.691 132.428 348.313 132.8 348.03C133.51 347.57 134.21 347.94 134.37 348.85Z" fill="#263238"/>
<path d="M136.4 343.94C136.473 344.404 136.418 344.878 136.242 345.313C136.066 345.749 135.775 346.128 135.4 346.41C134.7 346.87 133.99 346.5 133.83 345.59C133.76 345.126 133.817 344.653 133.993 344.218C134.168 343.784 134.458 343.405 134.83 343.12C135.54 342.67 136.24 343 136.4 343.94Z" fill="#263238"/>
<path d="M137.56 350.53C137.63 350.994 137.575 351.468 137.399 351.902C137.223 352.337 136.933 352.716 136.56 353C135.86 353.45 135.15 353.08 134.99 352.17C134.92 351.707 134.977 351.233 135.152 350.798C135.328 350.364 135.618 349.985 135.99 349.7C136.7 349.25 137.4 349.62 137.56 350.53Z" fill="#263238"/>
<path d="M139.54 345.59C139.612 346.054 139.556 346.528 139.38 346.963C139.204 347.398 138.914 347.777 138.54 348.06C137.84 348.51 137.13 348.15 136.97 347.24C136.899 346.776 136.955 346.302 137.131 345.868C137.307 345.433 137.597 345.054 137.97 344.77C138.68 344.31 139.38 344.68 139.54 345.59Z" fill="#263238"/>
<path d="M134.43 348.88C134.499 349.344 134.443 349.817 134.267 350.252C134.092 350.686 133.802 351.065 133.43 351.35C132.72 351.8 132.02 351.44 131.86 350.53C131.787 350.066 131.842 349.592 132.018 349.157C132.194 348.721 132.485 348.342 132.86 348.06C133.56 347.6 134.27 348 134.43 348.88Z" fill="#263238"/>
<path d="M136.46 344C136.529 344.464 136.473 344.937 136.297 345.372C136.122 345.806 135.832 346.185 135.46 346.47C134.75 346.92 134.05 346.55 133.89 345.65C133.817 345.186 133.872 344.712 134.048 344.277C134.224 343.841 134.515 343.462 134.89 343.18C135.59 342.7 136.3 343.07 136.46 344Z" fill="#263238"/>
<path d="M137.62 350.56C137.689 351.024 137.633 351.497 137.457 351.932C137.281 352.366 136.992 352.745 136.62 353.03C135.91 353.48 135.21 353.12 135.05 352.21C134.977 351.746 135.032 351.272 135.208 350.837C135.384 350.401 135.675 350.022 136.05 349.74C136.75 349.28 137.46 349.65 137.62 350.56Z" fill="#263238"/>
<path d="M139.6 345.62C139.671 346.084 139.615 346.558 139.439 346.992C139.263 347.427 138.973 347.806 138.6 348.09C137.89 348.55 137.19 348.18 137.03 347.27C136.958 346.806 137.013 346.332 137.19 345.897C137.366 345.462 137.656 345.083 138.03 344.8C138.73 344.35 139.44 344.71 139.6 345.62Z" fill="#263238"/>
<path d="M134.48 348.91C134.553 349.374 134.498 349.848 134.322 350.283C134.146 350.719 133.855 351.098 133.48 351.38C132.77 351.84 132.07 351.47 131.91 350.56C131.838 350.096 131.893 349.622 132.069 349.187C132.245 348.752 132.536 348.373 132.91 348.09C133.62 347.64 134.32 348 134.48 348.91Z" fill="#263238"/>
<path d="M136.51 344C136.583 344.464 136.528 344.938 136.352 345.373C136.176 345.809 135.885 346.188 135.51 346.47C134.8 346.93 134.1 346.56 133.94 345.65C133.867 345.186 133.922 344.712 134.098 344.277C134.274 343.841 134.565 343.462 134.94 343.18C135.65 342.73 136.35 343.1 136.51 344Z" fill="#263238"/>
<path d="M137.67 350.59C137.743 351.054 137.688 351.528 137.512 351.963C137.336 352.399 137.045 352.778 136.67 353.06C135.96 353.52 135.26 353.15 135.1 352.24C135.028 351.776 135.083 351.302 135.259 350.867C135.435 350.432 135.726 350.053 136.1 349.77C136.81 349.32 137.51 349.68 137.67 350.59Z" fill="#263238"/>
<path d="M139.65 345.66C139.722 346.124 139.667 346.598 139.49 347.033C139.314 347.468 139.024 347.847 138.65 348.13C137.94 348.58 137.24 348.21 137.08 347.3C137.009 346.838 137.065 346.365 137.241 345.932C137.417 345.499 137.707 345.122 138.08 344.84C138.79 344.38 139.49 344.75 139.65 345.66Z" fill="#263238"/>
<path d="M134.53 349C134.602 349.464 134.547 349.938 134.371 350.373C134.194 350.808 133.904 351.187 133.53 351.47C132.83 351.92 132.12 351.55 131.96 350.65C131.887 350.186 131.942 349.712 132.118 349.277C132.294 348.841 132.585 348.462 132.96 348.18C133.67 347.67 134.37 348 134.53 349Z" fill="#263238"/>
<path d="M136.56 344.05C136.631 344.512 136.575 344.985 136.399 345.418C136.223 345.851 135.933 346.228 135.56 346.51C134.85 346.97 134.15 346.6 133.99 345.69C133.918 345.226 133.973 344.752 134.149 344.317C134.326 343.882 134.616 343.503 134.99 343.22C135.7 342.77 136.4 343.14 136.56 344.05Z" fill="#263238"/>
<path d="M137.72 350.63C137.792 351.094 137.737 351.568 137.561 352.003C137.384 352.438 137.094 352.817 136.72 353.1C136.02 353.55 135.31 353.18 135.15 352.27C135.079 351.808 135.135 351.335 135.311 350.902C135.487 350.469 135.777 350.092 136.15 349.81C136.86 349.35 137.56 349.72 137.72 350.63Z" fill="#263238"/>
<path d="M139.7 345.69C139.772 346.154 139.717 346.628 139.541 347.063C139.365 347.498 139.074 347.877 138.7 348.16C138 348.61 137.29 348.25 137.13 347.34C137.059 346.876 137.115 346.402 137.291 345.968C137.467 345.533 137.757 345.154 138.13 344.87C138.84 344.41 139.54 344.78 139.7 345.69Z" fill="#263238"/>
<path d="M134.58 349C134.653 349.464 134.598 349.938 134.422 350.373C134.246 350.809 133.955 351.188 133.58 351.47C132.88 351.93 132.18 351.56 132.01 350.65C131.939 350.186 131.995 349.712 132.171 349.278C132.347 348.843 132.637 348.464 133.01 348.18C133.72 347.7 134.42 348.07 134.58 349Z" fill="#263238"/>
<path d="M136.61 344.08C136.682 344.544 136.627 345.018 136.45 345.453C136.274 345.888 135.984 346.267 135.61 346.55C134.91 347 134.2 346.63 134.04 345.73C133.969 345.266 134.025 344.792 134.201 344.358C134.377 343.923 134.667 343.544 135.04 343.26C135.75 342.8 136.45 343.17 136.61 344.08Z" fill="#263238"/>
<path d="M137.77 350.66C137.842 351.124 137.787 351.598 137.611 352.033C137.434 352.468 137.144 352.847 136.77 353.13C136.07 353.58 135.37 353.22 135.21 352.31C135.137 351.846 135.192 351.372 135.368 350.937C135.544 350.501 135.835 350.122 136.21 349.84C136.91 349.38 137.61 349.75 137.77 350.66Z" fill="#263238"/>
<path d="M139.76 345.72C139.83 346.184 139.775 346.658 139.599 347.092C139.423 347.527 139.133 347.906 138.76 348.19C138.05 348.65 137.35 348.28 137.19 347.37C137.118 346.906 137.173 346.432 137.349 345.997C137.525 345.562 137.816 345.183 138.19 344.9C138.89 344.45 139.6 344.82 139.76 345.72Z" fill="#263238"/>
<path d="M134.64 349C134.709 349.462 134.652 349.934 134.476 350.367C134.3 350.799 134.012 351.177 133.64 351.46C132.93 351.92 132.23 351.55 132.07 350.64C131.998 350.176 132.054 349.702 132.23 349.267C132.406 348.832 132.696 348.453 133.07 348.17C133.77 347.74 134.48 348.11 134.64 349Z" fill="#263238"/>
<path d="M136.67 344.11C136.74 344.574 136.685 345.048 136.509 345.482C136.333 345.917 136.043 346.296 135.67 346.58C134.96 347.04 134.26 346.67 134.1 345.76C134.028 345.296 134.083 344.822 134.259 344.387C134.435 343.952 134.726 343.573 135.1 343.29C135.8 342.84 136.51 343.2 136.67 344.11Z" fill="#263238"/>
<path d="M137.83 350.69C137.901 351.154 137.845 351.628 137.669 352.062C137.493 352.497 137.203 352.876 136.83 353.16C136.12 353.62 135.42 353.25 135.26 352.34C135.188 351.876 135.243 351.402 135.42 350.967C135.596 350.532 135.886 350.153 136.26 349.87C137 349.42 137.67 349.79 137.83 350.69Z" fill="#263238"/>
<path d="M139.81 345.76C139.882 346.224 139.827 346.698 139.651 347.133C139.474 347.568 139.184 347.947 138.81 348.23C138.1 348.68 137.4 348.31 137.24 347.41C137.167 346.946 137.222 346.472 137.398 346.037C137.574 345.601 137.865 345.222 138.24 344.94C139 344.48 139.65 344.85 139.81 345.76Z" fill="#263238"/>
<path d="M134.69 349.05C134.762 349.514 134.706 349.988 134.53 350.423C134.354 350.858 134.064 351.237 133.69 351.52C132.98 351.97 132.28 351.6 132.12 350.7C132.047 350.236 132.102 349.762 132.278 349.327C132.454 348.891 132.745 348.512 133.12 348.23C133.83 347.77 134.53 348.14 134.69 349.05Z" fill="#263238"/>
<path d="M136.72 344.15C136.79 344.614 136.735 345.088 136.559 345.522C136.383 345.957 136.093 346.336 135.72 346.62C135.01 347.07 134.31 346.7 134.15 345.79C134.078 345.326 134.133 344.852 134.309 344.417C134.485 343.982 134.776 343.603 135.15 343.32C135.86 342.87 136.56 343.24 136.72 344.15Z" fill="#263238"/>
<path d="M137.88 350.73C137.952 351.194 137.896 351.668 137.72 352.103C137.544 352.538 137.254 352.917 136.88 353.2C136.17 353.65 135.47 353.28 135.31 352.38C135.237 351.916 135.292 351.442 135.468 351.007C135.644 350.571 135.935 350.192 136.31 349.91C137 349.45 137.72 349.82 137.88 350.73Z" fill="#263238"/>
<path d="M139.86 345.79C139.933 346.254 139.878 346.728 139.702 347.163C139.526 347.599 139.235 347.978 138.86 348.26C138.16 348.72 137.45 348.35 137.29 347.44C137.219 346.976 137.275 346.502 137.451 346.068C137.627 345.633 137.917 345.254 138.29 344.97C139 344.51 139.7 344.88 139.86 345.79Z" fill="#263238"/>
<path d="M134.74 349.08C134.813 349.544 134.758 350.018 134.582 350.453C134.406 350.889 134.115 351.268 133.74 351.55C133.04 352.01 132.33 351.64 132.17 350.73C132.101 350.267 132.157 349.793 132.333 349.358C132.508 348.924 132.798 348.545 133.17 348.26C133.88 347.81 134.58 348.17 134.74 349.08Z" fill="#263238"/>
<path d="M155.54 332.13L156.28 332.52L153.72 334.17L152.98 333.78L155.54 332.13Z" fill="#263238"/>
<path d="M153.56 337.07L154.3 337.46L151.74 339.1L151 338.71L153.56 337.07Z" fill="#263238"/>
<path d="M156.86 335.81L156.72 335.04L158.69 333.78L159.42 334.17L156.86 335.81Z" fill="#263238"/>
<path d="M151 338.71L151.74 339.1L152.32 342.39L151.58 342.01L151 338.71Z" fill="#263238"/>
<path d="M154.72 343.65L155.46 344.04L154.88 340.75L154.28 341.14L154.72 343.65Z" fill="#263238"/>
<path d="M136.72 344.15C136.79 344.614 136.735 345.088 136.559 345.522C136.383 345.957 136.093 346.336 135.72 346.62C135.01 347.07 134.31 346.7 134.15 345.79C134.078 345.326 134.133 344.852 134.309 344.417C134.485 343.982 134.776 343.603 135.15 343.32C135.86 342.87 136.56 343.24 136.72 344.15Z" fill="#71AAE2"/>
<path d="M137.88 350.73C137.952 351.194 137.896 351.668 137.72 352.103C137.544 352.538 137.254 352.917 136.88 353.2C136.17 353.65 135.47 353.28 135.31 352.38C135.237 351.916 135.292 351.442 135.468 351.007C135.644 350.571 135.935 350.192 136.31 349.91C137 349.45 137.72 349.82 137.88 350.73Z" fill="#71AAE2"/>
<path d="M139.86 345.79C139.933 346.254 139.878 346.728 139.702 347.163C139.526 347.599 139.235 347.978 138.86 348.26C138.16 348.72 137.45 348.35 137.29 347.44C137.219 346.976 137.275 346.502 137.451 346.068C137.627 345.633 137.917 345.254 138.29 344.97C139 344.51 139.7 344.88 139.86 345.79Z" fill="#71AAE2"/>
<path d="M134.74 349.08C134.813 349.544 134.758 350.018 134.582 350.453C134.406 350.889 134.115 351.268 133.74 351.55C133.04 352.01 132.33 351.64 132.17 350.73C132.101 350.267 132.157 349.793 132.333 349.358C132.508 348.924 132.798 348.545 133.17 348.26C133.88 347.81 134.58 348.17 134.74 349.08Z" fill="#71AAE2"/>
<path d="M161.32 64.69L150.57 70.89C150.63 70.419 150.66 69.9447 150.66 69.47V66.36C150.66 60.82 146.77 58.57 141.98 61.36C139.909 62.6287 138.141 64.3353 136.8 66.36C136.01 59.36 130.55 56.8 123.91 60.63C116.73 64.78 110.91 74.86 110.91 83.14V87.8C110.864 89.66 111.24 91.5061 112.01 93.2L103.08 98.35C101.678 99.2658 100.51 100.499 99.6731 101.95C98.8357 103.4 98.3517 105.028 98.26 106.7C98.26 109.77 100.42 111.02 103.08 109.48L161.32 75.86C162.722 74.9442 163.89 73.7111 164.727 72.2604C165.564 70.8098 166.048 69.1824 166.14 67.51C166.14 64.4 164 63.15 161.32 64.69Z" fill="#F0F0F0"/>
<path d="M384.67 344.11L382.67 342.98L384.09 342.34C384.09 342.34 385.2 342.64 385.23 342.69C385.221 342.948 385.194 343.205 385.15 343.46L384.67 344.11Z" fill="#E0E0E0"/>
<path d="M384.67 344.11L382.67 342.98L384.09 342.34C384.09 342.34 385.2 342.64 385.23 342.69C385.221 342.948 385.194 343.205 385.15 343.46L384.67 344.11Z" fill="#71AAE2"/>
<path opacity="0.1" d="M384.67 344.11L382.67 342.98L384.09 342.34C384.09 342.34 385.2 342.64 385.23 342.69C385.221 342.948 385.194 343.205 385.15 343.46L384.67 344.11Z" fill="white"/>
<path d="M310.25 381.6C311.137 382.049 312.116 382.283 313.11 382.283C314.104 382.283 315.083 382.049 315.97 381.6L380.11 344.6L284.11 289.16L281.87 287.87L217.73 324.87C216.16 325.78 216.16 327.27 217.73 328.17L310.25 381.6Z" fill="#71AAE2"/>
<path opacity="0.8" d="M310.25 381.6C311.137 382.049 312.116 382.283 313.11 382.283C314.104 382.283 315.083 382.049 315.97 381.6L380.11 344.6L284.11 289.16L281.87 287.87L217.73 324.87C216.16 325.78 216.16 327.27 217.73 328.17L310.25 381.6Z" fill="white"/>
<path d="M334.34 311.64L356.71 324.51L371.19 316.15L388 325.89V338C388 339.47 386.35 341.56 385.75 341.22C384.64 341.488 383.561 341.87 382.53 342.36C380.848 343.316 379.287 344.471 377.88 345.8L326.48 316.13L334.34 311.64Z" fill="#E0E0E0"/>
<path d="M334.34 311.64L356.71 324.51L371.19 316.15L388 325.89V338C388 339.47 386.35 341.56 385.75 341.22C384.64 341.488 383.561 341.87 382.53 342.36C380.848 343.316 379.287 344.471 377.88 345.8L326.48 316.13L334.34 311.64Z" fill="#71AAE2"/>
<path opacity="0.1" d="M334.34 311.64L356.71 324.51L371.19 316.15L388 325.89V338C388 339.47 386.35 341.56 385.75 341.22C384.64 341.488 383.561 341.87 382.53 342.36C380.848 343.316 379.287 344.471 377.88 345.8L326.48 316.13L334.34 311.64Z" fill="white"/>
<path d="M316 381.59L319.87 379.35L377.94 345.83C377.984 345.072 378.26 344.346 378.73 343.75C379.416 342.839 380.28 342.076 381.27 341.51C382.098 341.003 383.04 340.711 384.01 340.66C384.659 340.651 385.292 340.859 385.81 341.25C386.566 339.766 386.934 338.115 386.88 336.45H389.08C389.08 339.45 388.08 342.53 386.85 343.23L385.74 343.88C385.11 344.24 384.61 344.26 384.61 343.88V343.29C384.61 342.63 383.61 342.66 382.37 343.38C381.13 344.1 380.14 345.2 380.14 345.86V346.46C380.14 346.8 379.28 347.56 378.24 348.16L322.08 380.59L316 384.09C315.12 384.545 314.141 384.775 313.15 384.76V382.22C314.139 382.26 315.121 382.043 316 381.59V381.59Z" fill="#71AAE2"/>
<path opacity="0.6" d="M316 381.59L319.87 379.35L377.94 345.83C377.984 345.072 378.26 344.346 378.73 343.75C379.416 342.839 380.28 342.076 381.27 341.51C382.098 341.003 383.04 340.711 384.01 340.66C384.659 340.651 385.292 340.859 385.81 341.25C386.566 339.766 386.934 338.115 386.88 336.45H389.08C389.08 339.45 388.08 342.53 386.85 343.23L385.74 343.88C385.11 344.24 384.61 344.26 384.61 343.88V343.29C384.61 342.63 383.61 342.66 382.37 343.38C381.13 344.1 380.14 345.2 380.14 345.86V346.46C380.14 346.8 379.28 347.56 378.24 348.16L322.08 380.59L316 384.09C315.12 384.545 314.141 384.775 313.15 384.76V382.22C314.139 382.26 315.121 382.043 316 381.59V381.59Z" fill="white"/>
<path d="M216.53 326.47V329.06C216.563 329.406 216.685 329.737 216.885 330.021C217.085 330.305 217.356 330.532 217.67 330.68V330.68L304.14 380.6L310.21 384.1C311.09 384.555 312.069 384.785 313.06 384.77V382.23C312.063 382.254 311.077 382.016 310.2 381.54L306.34 379.31L217.67 328.1C217.354 327.951 217.083 327.723 216.883 327.437C216.683 327.151 216.561 326.818 216.53 326.47Z" fill="#71AAE2"/>
<path opacity="0.1" d="M216.53 326.47V329.06C216.563 329.406 216.685 329.737 216.885 330.021C217.085 330.305 217.356 330.532 217.67 330.68V330.68L304.14 380.6L310.21 384.1C311.09 384.555 312.069 384.785 313.06 384.77V382.23C312.063 382.254 311.077 382.016 310.2 381.54L306.34 379.31L217.67 328.1C217.354 327.951 217.083 327.723 216.883 327.437C216.683 327.151 216.561 326.818 216.53 326.47Z" fill="white"/>
<path d="M313.11 365.16V380C313.772 380.02 314.427 379.865 315.01 379.55L322.01 375.49L375.6 344.55V329.07L313.11 365.16Z" fill="white"/>
<path d="M219.32 312.86V324.27C219.355 324.931 219.546 325.574 219.876 326.147C220.206 326.72 220.666 327.208 221.22 327.57L304.22 375.47L311.22 379.53C311.803 379.843 312.458 379.999 313.12 379.98V366.73L219.32 312.86Z" fill="#F0F0F0"/>
<path d="M375.64 344.53C375.693 343.771 375.976 343.045 376.45 342.45C377.139 341.544 378.003 340.786 378.99 340.22C379.812 339.705 380.752 339.409 381.72 339.36C382.372 339.355 383.007 339.562 383.53 339.95V324.5L375.66 329.05L375.64 344.53Z" fill="#455A64"/>
<path d="M378.79 340.35C377.879 340.888 377.084 341.602 376.45 342.45C375.976 343.045 375.693 343.771 375.64 344.53V329.77H378.78L378.79 340.35Z" fill="#F5F5F5"/>
<path d="M284.09 271L380.09 326.44V327.73C380.09 328.44 381.09 328.73 382.32 327.99C383.55 327.25 384.56 326.39 384.56 325.16L384.68 323.94L286.85 267.46L286.46 267.23C286.358 267.411 286.3 267.613 286.29 267.82V268.42C286.31 269.16 285.32 270.31 284.09 271Z" fill="#71AAE2"/>
<path opacity="0.6" d="M284.09 271L380.09 326.44V327.73C380.09 328.44 381.09 328.73 382.32 327.99C383.55 327.25 384.56 326.39 384.56 325.16L384.68 323.94L286.85 267.46L286.46 267.23C286.358 267.411 286.3 267.613 286.29 267.82V268.42C286.31 269.16 285.32 270.31 284.09 271Z" fill="white"/>
<path d="M316 363.51L378.72 327.29C379.51 326.88 380.24 326.54 380.55 326.7L380.14 326.47L284.14 271.03L283.02 270.38C282.517 270.237 281.989 270.203 281.471 270.281C280.954 270.358 280.459 270.545 280.02 270.83L217.79 306.77C216.22 307.68 216.22 309.16 217.79 310.07L310.33 363.51C311.21 363.951 312.181 364.18 313.165 364.18C314.149 364.18 315.12 363.951 316 363.51V363.51Z" fill="#71AAE2"/>
<path opacity="0.8" d="M316 363.51L378.72 327.29C379.51 326.88 380.24 326.54 380.55 326.7L380.14 326.47L284.14 271.03L283.02 270.38C282.517 270.237 281.989 270.203 281.471 270.281C280.954 270.358 280.459 270.545 280.02 270.83L217.79 306.77C216.22 307.68 216.22 309.16 217.79 310.07L310.33 363.51C311.21 363.951 312.181 364.18 313.165 364.18C314.149 364.18 315.12 363.951 316 363.51V363.51Z" fill="white"/>
<path d="M286.48 267.26L286.87 267.49L384.7 324C384.749 323.896 384.821 323.804 384.91 323.73L385.24 323.54L385.95 323.14L386.82 322.63C386.989 322.518 387.191 322.467 387.393 322.485C387.594 322.503 387.784 322.589 387.93 322.73C387.971 322.758 388.008 322.791 388.04 322.83C388.158 322.95 388.256 323.089 388.33 323.24C388.436 323.413 388.524 323.598 388.59 323.79C388.667 323.996 388.73 324.206 388.78 324.42C388.84 324.67 388.88 324.91 388.93 325.17C388.957 325.319 388.974 325.469 388.98 325.62C388.98 325.74 388.98 325.85 388.98 325.99C388.98 326.13 388.98 326.55 388.98 326.84V324.09C388.877 323.187 388.564 322.32 388.068 321.558C387.572 320.796 386.905 320.16 386.12 319.7L293.57 266.26C292.808 265.81 291.951 265.542 291.068 265.478C290.185 265.414 289.299 265.555 288.48 265.89L287.31 266.57L286.81 266.85C286.665 266.955 286.551 267.096 286.48 267.26Z" fill="#71AAE2"/>
<path opacity="0.8" d="M286.48 267.26L286.87 267.49L384.7 324C384.749 323.896 384.821 323.804 384.91 323.73L385.24 323.54L385.95 323.14L386.82 322.63C386.989 322.518 387.191 322.467 387.393 322.485C387.594 322.503 387.784 322.589 387.93 322.73C387.971 322.758 388.008 322.791 388.04 322.83C388.158 322.95 388.256 323.089 388.33 323.24C388.436 323.413 388.524 323.598 388.59 323.79C388.667 323.996 388.73 324.206 388.78 324.42C388.84 324.67 388.88 324.91 388.93 325.17C388.957 325.319 388.974 325.469 388.98 325.62C388.98 325.74 388.98 325.85 388.98 325.99C388.98 326.13 388.98 326.55 388.98 326.84V324.09C388.877 323.187 388.564 322.32 388.068 321.558C387.572 320.796 386.905 320.16 386.12 319.7L293.57 266.26C292.808 265.81 291.951 265.542 291.068 265.478C290.185 265.414 289.299 265.555 288.48 265.89L287.31 266.57L286.81 266.85C286.665 266.955 286.551 267.096 286.48 267.26Z" fill="white"/>
<path d="M316 363.52L319.88 361.27L364.49 335.53L378.73 327.31C379.73 326.71 380.57 326.5 380.62 326.81V327.45C380.62 328.17 381.62 328.17 382.85 327.45C383.306 327.252 383.706 326.943 384.013 326.552C384.32 326.161 384.525 325.7 384.61 325.21V324.51C384.595 324.354 384.618 324.197 384.675 324.051C384.732 323.905 384.823 323.774 384.94 323.67L385.27 323.48L385.98 323.08L386.85 322.57C387.019 322.458 387.221 322.407 387.423 322.425C387.625 322.443 387.814 322.529 387.96 322.67C388.002 322.698 388.039 322.731 388.07 322.77C388.145 322.848 388.208 322.935 388.26 323.03C388.303 323.073 388.336 323.124 388.36 323.18C388.467 323.353 388.554 323.538 388.62 323.73C388.697 323.936 388.76 324.146 388.81 324.36C388.87 324.61 388.91 324.85 388.96 325.11C388.987 325.259 389.004 325.409 389.01 325.56C389.01 325.68 389.01 325.79 389.01 325.93C389.01 326.07 389.01 326.49 389.01 326.78V336.42H386.81V326.78C386.81 326.55 386.81 326.32 386.81 326.1L386.75 325.55C386.755 325.534 386.755 325.516 386.75 325.5C386.55 327.25 384.88 328.81 383.43 329.63C382.625 330.138 381.701 330.428 380.75 330.47C380.017 330.479 379.305 330.22 378.75 329.74L378.55 329.85L378.17 330.08L322.01 362.51L316 366.05C315.134 366.493 314.173 366.716 313.2 366.7V364.16C314.172 364.181 315.134 363.961 316 363.52V363.52Z" fill="#71AAE2"/>
<path opacity="0.6" d="M316 363.52L319.88 361.27L364.49 335.53L378.73 327.31C379.73 326.71 380.57 326.5 380.62 326.81V327.45C380.62 328.17 381.62 328.17 382.85 327.45C383.306 327.252 383.706 326.943 384.013 326.552C384.32 326.161 384.525 325.7 384.61 325.21V324.51C384.595 324.354 384.618 324.197 384.675 324.051C384.732 323.905 384.823 323.774 384.94 323.67L385.27 323.48L385.98 323.08L386.85 322.57C387.019 322.458 387.221 322.407 387.423 322.425C387.625 322.443 387.814 322.529 387.96 322.67C388.002 322.698 388.039 322.731 388.07 322.77C388.145 322.848 388.208 322.935 388.26 323.03C388.303 323.073 388.336 323.124 388.36 323.18C388.467 323.353 388.554 323.538 388.62 323.73C388.697 323.936 388.76 324.146 388.81 324.36C388.87 324.61 388.91 324.85 388.96 325.11C388.987 325.259 389.004 325.409 389.01 325.56C389.01 325.68 389.01 325.79 389.01 325.93C389.01 326.07 389.01 326.49 389.01 326.78V336.42H386.81V326.78C386.81 326.55 386.81 326.32 386.81 326.1L386.75 325.55C386.755 325.534 386.755 325.516 386.75 325.5C386.55 327.25 384.88 328.81 383.43 329.63C382.625 330.138 381.701 330.428 380.75 330.47C380.017 330.479 379.305 330.22 378.75 329.74L378.55 329.85L378.17 330.08L322.01 362.51L316 366.05C315.134 366.493 314.173 366.716 313.2 366.7V364.16C314.172 364.181 315.134 363.961 316 363.52V363.52Z" fill="white"/>
<path d="M216.53 308.39V311C216.561 311.348 216.683 311.681 216.883 311.967C217.083 312.253 217.354 312.481 217.67 312.63V312.63L304.14 362.55L310.21 366.06C311.09 366.515 312.069 366.745 313.06 366.73V364.19C312.064 364.212 311.079 363.978 310.2 363.51L306.34 361.28L217.67 310.07C217.347 309.917 217.071 309.681 216.871 309.385C216.671 309.09 216.553 308.746 216.53 308.39Z" fill="#71AAE2"/>
<path opacity="0.1" d="M216.53 308.39V311C216.561 311.348 216.683 311.681 216.883 311.967C217.083 312.253 217.354 312.481 217.67 312.63V312.63L304.14 362.55L310.21 366.06C311.09 366.515 312.069 366.745 313.06 366.73V364.19C312.064 364.212 311.079 363.978 310.2 363.51L306.34 361.28L217.67 310.07C217.347 309.917 217.071 309.681 216.871 309.385C216.671 309.09 216.553 308.746 216.53 308.39Z" fill="white"/>
<path d="M279.94 270.83C280.379 270.545 280.874 270.358 281.392 270.281C281.909 270.203 282.437 270.237 282.94 270.38L284.06 271.03C285.29 270.31 286.28 269.16 286.28 268.45V267.85C286.29 267.643 286.348 267.441 286.45 267.26C286.529 267.098 286.65 266.959 286.8 266.86L287.3 266.58L288.47 265.9C289.29 265.565 290.176 265.424 291.059 265.488C291.942 265.552 292.798 265.82 293.56 266.27L386.11 319.71L386.21 319.77L320.9 357.48C320.31 357.781 319.657 357.938 318.995 357.938C318.333 357.938 317.68 357.781 317.09 357.48L223.94 303.17L279.94 270.83Z" fill="#263238"/>
<path d="M326.13 352L323.66 350.58C324.325 350.349 325.039 350.297 325.73 350.43C326.39 350.77 326.13 352 326.13 352Z" fill="#71AAE2"/>
<path opacity="0.7" d="M326.13 352L323.66 350.58C324.325 350.349 325.039 350.297 325.73 350.43C326.39 350.77 326.13 352 326.13 352Z" fill="black"/>
<path d="M327.83 350.47C327.549 350.165 327.208 349.922 326.829 349.756C326.449 349.59 326.039 349.504 325.625 349.504C325.211 349.504 324.801 349.59 324.422 349.756C324.042 349.922 323.701 350.165 323.42 350.47C321.01 352.68 320.89 354.87 319.89 354.84C318.89 354.81 318.89 337.19 318.89 337.19L328.4 346L327.83 350.47Z" fill="#71AAE2"/>
<path opacity="0.7" d="M327.83 350.47C327.549 350.165 327.208 349.922 326.829 349.756C326.449 349.59 326.039 349.504 325.625 349.504C325.211 349.504 324.801 349.59 324.422 349.756C324.042 349.922 323.701 350.165 323.42 350.47C321.01 352.68 320.89 354.87 319.89 354.84C318.89 354.81 318.89 337.19 318.89 337.19L328.4 346L327.83 350.47Z" fill="black"/>
<path d="M228.41 286.42L228.25 286.33L229.77 285.45L295.25 247.65L390.66 309.39C392.23 310.3 392.51 311.62 391.28 312.32L389.05 313.61L327.85 349L327.41 348.68L228.41 286.42Z" fill="#71AAE2"/>
<path opacity="0.5" d="M228.41 286.42L228.25 286.33L229.77 285.45L295.25 247.65L390.66 309.39C392.23 310.3 392.51 311.62 391.28 312.32L389.05 313.61L327.85 349L327.41 348.68L228.41 286.42Z" fill="black"/>
<path d="M319.68 328.85L324.42 327.85V346.85C321.56 348.07 319.74 349.21 319.42 351.6L319.68 328.85Z" fill="#455A64"/>
<path d="M326.51 347.1L387.14 312.1C387.696 311.739 388.158 311.252 388.49 310.679C388.822 310.105 389.014 309.462 389.05 308.8V290.09L327.83 325.74C327.83 325.74 327.1 328.39 324.93 329.22C322.76 330.05 324.42 330.9 324.42 330.9V346.9C326.29 346.63 326.51 347.1 326.51 347.1Z" fill="#F0F0F0"/>
<path d="M320.92 328.2C321.55 327.84 322.05 327.82 322.05 328.2V328.79C322.05 329.45 323.05 329.42 324.29 328.7C325.53 327.98 326.53 326.88 326.53 326.22V325.62C326.53 325.28 327.38 324.52 328.42 323.92L229.78 267.4L228.25 268.28C228.038 268.505 227.905 268.793 227.87 269.1V269.7C227.87 270.36 226.87 271.47 225.64 272.18C224.41 272.89 223.4 272.93 223.4 272.27V271.67C223.4 271.33 222.9 271.36 222.28 271.72L320.92 328.2Z" fill="#71AAE2"/>
<path opacity="0.6" d="M320.92 328.2C321.55 327.84 322.05 327.82 322.05 328.2V328.79C322.05 329.45 323.05 329.42 324.29 328.7C325.53 327.98 326.53 326.88 326.53 326.22V325.62C326.53 325.28 327.38 324.52 328.42 323.92L229.78 267.4L228.25 268.28C228.038 268.505 227.905 268.793 227.87 269.1V269.7C227.87 270.36 226.87 271.47 225.64 272.18C224.41 272.89 223.4 272.93 223.4 272.27V271.67C223.4 271.33 222.9 271.36 222.28 271.72L320.92 328.2Z" fill="black"/>
<path d="M228.41 268.33L228.25 268.24L229.77 267.36L295.25 229.56L390.66 284.66C392.23 285.57 392.51 286.88 391.28 287.59L389.05 288.87L327.83 325.74L228.41 268.33Z" fill="#71AAE2"/>
<path opacity="0.5" d="M228.41 268.33L228.25 268.24L229.77 267.36L295.25 229.56L390.66 284.66C392.23 285.57 392.51 286.88 391.28 287.59L389.05 288.87L327.83 325.74L228.41 268.33Z" fill="black"/>
<path d="M223.38 271.06L322 328L318.55 330.7L220.3 273.98C220.54 273.251 220.997 272.612 221.61 272.15L223.38 271.06Z" fill="#71AAE2"/>
<path opacity="0.5" d="M223.38 271.06L322 328L318.55 330.7L220.3 273.98C220.54 273.251 220.997 272.612 221.61 272.15L223.38 271.06Z" fill="black"/>
<path d="M220.63 299.43C220.569 299.392 220.512 299.349 220.46 299.3C220.415 299.278 220.377 299.243 220.35 299.2C220.269 299.121 220.202 299.03 220.15 298.93C220.106 298.892 220.072 298.844 220.05 298.79C219.943 298.618 219.859 298.433 219.8 298.24C219.717 298.032 219.65 297.818 219.6 297.6C219.54 297.36 219.5 297.12 219.46 296.86C219.425 296.712 219.405 296.562 219.4 296.41V296.04C219.4 295.77 219.4 295.48 219.4 295.19V278.9C219.382 277.19 219.695 275.492 220.32 273.9L318.57 330.62L318.98 356.14L220.74 299.4L220.63 299.43Z" fill="#71AAE2"/>
<path opacity="0.7" d="M220.63 299.43C220.569 299.392 220.512 299.349 220.46 299.3C220.415 299.278 220.377 299.243 220.35 299.2C220.269 299.121 220.202 299.03 220.15 298.93C220.106 298.892 220.072 298.844 220.05 298.79C219.943 298.618 219.859 298.433 219.8 298.24C219.717 298.032 219.65 297.818 219.6 297.6C219.54 297.36 219.5 297.12 219.46 296.86C219.425 296.712 219.405 296.562 219.4 296.41V296.04C219.4 295.77 219.4 295.48 219.4 295.19V278.9C219.382 277.19 219.695 275.492 220.32 273.9L318.57 330.62L318.98 356.14L220.74 299.4L220.63 299.43Z" fill="black"/>
<path opacity="0.79" d="M318.5 330.66C318.5 330.66 241.12 294.45 234.08 291.13C229.43 288.94 227.15 293.54 228.25 298.3C229.25 302.46 233.32 306.75 233.32 306.75L220.67 299.44C220.609 299.402 220.552 299.359 220.5 299.31C220.455 299.288 220.417 299.253 220.39 299.21C220.309 299.131 220.242 299.04 220.19 298.94C220.146 298.902 220.112 298.854 220.09 298.8C219.983 298.628 219.899 298.443 219.84 298.25C219.757 298.042 219.69 297.828 219.64 297.61C219.58 297.37 219.54 297.13 219.5 296.87C219.466 296.722 219.445 296.572 219.44 296.42V296.05C219.44 295.78 219.44 295.49 219.44 295.2V278.9C219.422 277.19 219.735 275.492 220.36 273.9L318.5 330.66Z" fill="#263238"/>
<path d="M317.59 335.63H319.79C319.739 333.967 320.103 332.317 320.85 330.83C321.373 331.218 322.009 331.425 322.66 331.42C323.629 331.371 324.568 331.075 325.39 330.56C326.38 329.997 327.244 329.239 327.93 328.33C327.982 328.267 328.029 328.201 328.07 328.13C328.459 327.577 328.684 326.925 328.72 326.25L386.79 292.73L388.79 291.58L391.31 290.13C391.529 290.03 391.717 289.872 391.853 289.672C391.989 289.473 392.067 289.241 392.08 289V286.43C392.069 286.675 391.992 286.913 391.856 287.117C391.721 287.321 391.532 287.485 391.31 287.59V287.59L384.64 291.43L328.49 323.86C327.44 324.46 326.59 325.22 326.59 325.56V326.16C326.528 326.54 326.345 326.891 326.07 327.16C325.588 327.74 325.005 328.227 324.35 328.6C323.11 329.32 322.11 329.35 322.11 328.69V328.1C322.11 327.75 321.62 327.78 320.99 328.1L319.88 328.75C318.59 329.55 317.59 332.6 317.59 335.63Z" fill="#71AAE2"/>
<path d="M319.79 335.63V351.92C319.79 352.15 319.79 352.38 319.79 352.6L319.84 353.15C319.835 353.166 319.835 353.184 319.84 353.2C320.04 351.45 321.71 349.89 323.16 349.07C323.968 348.561 324.896 348.271 325.85 348.23C326.584 348.221 327.295 348.48 327.85 348.96L328.04 348.85L328.43 348.62L384.58 316.19L387.81 314.33L388.73 313.79L391.45 312.22C391.629 312.108 391.777 311.954 391.882 311.77C391.987 311.587 392.044 311.381 392.05 311.17V313.74C392.043 313.939 391.988 314.134 391.89 314.307C391.793 314.481 391.656 314.629 391.49 314.74V314.74C391.17 314.93 390.83 315.11 390.49 315.32L389.86 315.69L388.78 316.31C388.54 316.46 388.32 316.59 388.11 316.7C387.9 316.81 387.78 316.9 387.64 316.97L386.81 317.46L342.2 343.2L327.96 351.42C326.96 352.02 326.13 352.23 326.07 351.92C326.067 351.883 326.067 351.847 326.07 351.81V351.24C326.07 350.52 325.07 350.52 323.84 351.24C323.384 351.438 322.985 351.747 322.677 352.138C322.37 352.529 322.165 352.99 322.08 353.48V354.18C322.095 354.336 322.073 354.493 322.015 354.639C321.958 354.785 321.867 354.916 321.75 355.02L321.42 355.21L320.72 355.61L319.85 356.12C319.681 356.232 319.479 356.283 319.278 356.265C319.076 356.247 318.886 356.161 318.74 356.02C318.695 355.998 318.657 355.963 318.63 355.92C318.55 355.845 318.482 355.757 318.43 355.66V355.66C318.391 355.618 318.358 355.571 318.33 355.52C318.223 355.348 318.139 355.163 318.08 354.97C317.996 354.766 317.929 354.555 317.88 354.34C317.82 354.09 317.78 353.85 317.74 353.59C317.705 353.442 317.685 353.292 317.68 353.14C317.68 353.02 317.68 352.91 317.68 352.77C317.68 352.63 317.68 352.21 317.68 351.92V335.63H319.79Z" fill="#71AAE2"/>
<g opacity="0.6">
<path opacity="0.6" d="M317.59 335.63H319.79C319.739 333.967 320.103 332.317 320.85 330.83C321.373 331.218 322.009 331.425 322.66 331.42C323.629 331.371 324.568 331.075 325.39 330.56C326.38 329.997 327.244 329.239 327.93 328.33C327.982 328.267 328.029 328.201 328.07 328.13C328.459 327.577 328.684 326.925 328.72 326.25L386.79 292.73L388.79 291.58L391.31 290.13C391.529 290.03 391.717 289.872 391.853 289.672C391.989 289.473 392.067 289.241 392.08 289V286.43C392.069 286.675 391.992 286.913 391.856 287.117C391.721 287.321 391.532 287.485 391.31 287.59V287.59L384.64 291.43L328.49 323.86C327.44 324.46 326.59 325.22 326.59 325.56V326.16C326.528 326.54 326.345 326.891 326.07 327.16C325.588 327.74 325.005 328.227 324.35 328.6C323.11 329.32 322.11 329.35 322.11 328.69V328.1C322.11 327.75 321.62 327.78 320.99 328.1L319.88 328.75C318.59 329.55 317.59 332.6 317.59 335.63Z" fill="black"/>
<path opacity="0.6" d="M319.79 335.63V351.92C319.79 352.15 319.79 352.38 319.79 352.6L319.84 353.15C319.835 353.166 319.835 353.184 319.84 353.2C320.04 351.45 321.71 349.89 323.16 349.07C323.968 348.561 324.896 348.271 325.85 348.23C326.584 348.221 327.295 348.48 327.85 348.96L328.04 348.85L328.43 348.62L384.58 316.19L387.81 314.33L388.73 313.79L391.45 312.22C391.629 312.108 391.777 311.954 391.882 311.77C391.987 311.587 392.044 311.381 392.05 311.17V313.74C392.043 313.939 391.988 314.134 391.89 314.307C391.793 314.481 391.656 314.629 391.49 314.74V314.74C391.17 314.93 390.83 315.11 390.49 315.32L389.86 315.69L388.78 316.31C388.54 316.46 388.32 316.59 388.11 316.7C387.9 316.81 387.78 316.9 387.64 316.97L386.81 317.46L342.2 343.2L327.96 351.42C326.96 352.02 326.13 352.23 326.07 351.92C326.067 351.883 326.067 351.847 326.07 351.81V351.24C326.07 350.52 325.07 350.52 323.84 351.24C323.384 351.438 322.985 351.747 322.677 352.138C322.37 352.529 322.165 352.99 322.08 353.48V354.18C322.095 354.336 322.073 354.493 322.015 354.639C321.958 354.785 321.867 354.916 321.75 355.02L321.42 355.21L320.72 355.61L319.85 356.12C319.681 356.232 319.479 356.283 319.278 356.265C319.076 356.247 318.886 356.161 318.74 356.02C318.695 355.998 318.657 355.963 318.63 355.92C318.55 355.845 318.482 355.757 318.43 355.66V355.66C318.391 355.618 318.358 355.571 318.33 355.52C318.223 355.348 318.139 355.163 318.08 354.97C317.996 354.766 317.929 354.555 317.88 354.34C317.82 354.09 317.78 353.85 317.74 353.59C317.705 353.442 317.685 353.292 317.68 353.14C317.68 353.02 317.68 352.91 317.68 352.77C317.68 352.63 317.68 352.21 317.68 351.92V335.63H319.79Z" fill="black"/>
</g>
<path d="M220.25 273.93L313.63 327.85L384.21 287.1C384.441 287.023 384.641 286.875 384.783 286.678C384.925 286.48 385.002 286.243 385.002 286C385.002 285.757 384.925 285.52 384.783 285.322C384.641 285.125 384.441 284.977 384.21 284.9L291.81 231.54L229.81 267.36L228.28 268.25C228.073 268.473 227.943 268.757 227.91 269.06V269.66C227.91 270.32 226.91 271.43 225.68 272.14C225.618 272.181 225.55 272.215 225.48 272.24L223.42 271.05L222.42 271.61L222.28 271.68L221.56 272.1C220.948 272.563 220.491 273.201 220.25 273.93V273.93Z" fill="#263238"/>
<path d="M379 287.5L376.19 286L378.75 285.39C378.996 285.677 379.151 286.031 379.196 286.407C379.24 286.783 379.172 287.163 379 287.5V287.5Z" fill="#E0E0E0"/>
<g style="mix-blend-mode:multiply" opacity="0.5">
<path d="M379 287.5L376.19 286L378.75 285.39C378.996 285.677 379.151 286.031 379.196 286.407C379.24 286.783 379.172 287.163 379 287.5V287.5Z" fill="#E0E0E0"/>
</g>
<path d="M304.53 325C305.415 325.449 306.393 325.683 307.385 325.683C308.377 325.683 309.355 325.449 310.24 325L374.38 288L278.38 227.31L276.13 226.01L212 268.25C210.43 269.16 210.43 270.64 212 271.55L304.53 325Z" fill="#71AAE2"/>
<path d="M328.61 249.77L377.07 282.61L350.98 262.61L365.46 254.25L382.3 264V281.39C382.3 282.87 380.65 284.96 380.05 284.62C378.94 284.888 377.861 285.27 376.83 285.76C375.148 286.716 373.587 287.871 372.18 289.2L320.79 254.27L328.61 249.77Z" fill="#71AAE2"/>
<path opacity="0.2" d="M328.61 249.77L377.07 282.61L350.98 262.61L365.46 254.25L382.3 264V281.39C382.3 282.87 380.65 284.96 380.05 284.62C378.94 284.888 377.861 285.27 376.83 285.76C375.148 286.716 373.587 287.871 372.18 289.2L320.79 254.27L328.61 249.77Z" fill="black"/>
<path d="M307.38 303.29V323.37C308.045 323.385 308.702 323.23 309.29 322.92L316.29 318.86L369.89 287.92V267.18L307.38 303.29Z" fill="white"/>
<path d="M213.59 251V267.67C213.627 268.33 213.818 268.973 214.148 269.546C214.478 270.119 214.937 270.607 215.49 270.97L298.49 318.87L305.49 322.93C306.075 323.239 306.729 323.394 307.39 323.38V304.86L213.59 251Z" fill="#F0F0F0"/>
<path d="M369.92 287.92C369.969 287.161 370.248 286.436 370.72 285.84C371.403 284.929 372.268 284.17 373.26 283.61C374.086 283.095 375.029 282.799 376 282.75C376.63 282.686 377.263 282.834 377.8 283.17V262.63L369.93 267.18L369.92 287.92Z" fill="#455A64"/>
<path d="M373.06 283.73C372.153 284.278 371.359 284.995 370.72 285.84C370.248 286.436 369.969 287.161 369.92 287.92V267.92H373.05L373.06 283.73Z" fill="#F5F5F5"/>
<path d="M278.37 209.16L374.37 264.61V265.89C374.37 266.61 375.37 266.89 376.6 266.16C377.83 265.43 378.85 264.55 378.85 263.32L378.97 262.1L281.14 205.62L280.74 205.39C280.639 205.574 280.585 205.78 280.58 205.99V206.58C280.59 207.29 279.6 208.44 278.37 209.16Z" fill="#71AAE2"/>
<path opacity="0.2" d="M278.37 209.16L374.37 264.61V265.89C374.37 266.61 375.37 266.89 376.6 266.16C377.83 265.43 378.85 264.55 378.85 263.32L378.97 262.1L281.14 205.62L280.74 205.39C280.639 205.574 280.585 205.78 280.58 205.99V206.58C280.59 207.29 279.6 208.44 278.37 209.16Z" fill="black"/>
<path d="M310.24 301.64L373 265.43C373.8 265.01 374.53 264.67 374.83 264.83L374.42 264.61L278.42 209.16L277.29 208.52C276.788 208.371 276.258 208.334 275.74 208.412C275.222 208.489 274.727 208.68 274.29 208.97L212 244.9C210.43 245.81 210.43 247.3 212 248.2L304.55 301.64C305.432 302.086 306.407 302.318 307.395 302.318C308.383 302.318 309.358 302.086 310.24 301.64V301.64Z" fill="#71AAE2"/>
<path d="M280.75 205.39L281.15 205.62L379 262.1C379.049 261.996 379.121 261.904 379.21 261.83L379.54 261.65L380.24 261.24L381.11 260.73C381.279 260.62 381.481 260.569 381.682 260.588C381.884 260.606 382.073 260.691 382.22 260.83C382.261 260.858 382.298 260.892 382.33 260.93C382.446 261.054 382.546 261.192 382.63 261.34C382.733 261.514 382.817 261.698 382.88 261.89C382.959 262.099 383.025 262.313 383.08 262.53C383.13 262.77 383.18 263.01 383.22 263.27C383.25 263.422 383.27 263.575 383.28 263.73V264.09C383.28 264.36 383.28 264.65 383.28 264.95V262.2C383.18 261.294 382.869 260.425 382.372 259.661C381.875 258.897 381.207 258.259 380.42 257.8L287.87 204.36C287.107 203.911 286.25 203.645 285.367 203.582C284.484 203.52 283.599 203.663 282.78 204L281.61 204.68L281.12 204.97C280.959 205.072 280.831 205.218 280.75 205.39V205.39Z" fill="#71AAE2"/>
<path d="M310.24 325L314.11 322.76L372.18 289.23C372.231 288.472 372.51 287.747 372.98 287.15C373.667 286.242 374.531 285.483 375.52 284.92C376.345 284.413 377.283 284.121 378.25 284.07C378.903 284.057 379.541 284.265 380.06 284.66C380.806 283.169 381.17 281.516 381.12 279.85H383.32C383.32 282.85 382.32 285.93 381.09 286.64L379.98 287.29C379.35 287.65 378.86 287.67 378.86 287.29V286.7C378.86 286.04 377.86 286.07 376.61 286.78C375.36 287.49 374.38 288.61 374.38 289.27V289.86C374.38 290.2 373.53 290.96 372.48 291.57L316.32 324L310.24 327.51C309.36 327.965 308.381 328.195 307.39 328.18V325.64C308.379 325.674 309.36 325.453 310.24 325V325Z" fill="#71AAE2"/>
<path opacity="0.4" d="M310.24 325L314.11 322.76L372.18 289.23C372.231 288.472 372.51 287.747 372.98 287.15C373.667 286.242 374.531 285.483 375.52 284.92C376.345 284.413 377.283 284.121 378.25 284.07C378.903 284.057 379.541 284.265 380.06 284.66C380.806 283.169 381.17 281.516 381.12 279.85H383.32C383.32 282.85 382.32 285.93 381.09 286.64L379.98 287.29C379.35 287.65 378.86 287.67 378.86 287.29V286.7C378.86 286.04 377.86 286.07 376.61 286.78C375.36 287.49 374.38 288.61 374.38 289.27V289.86C374.38 290.2 373.53 290.96 372.48 291.57L316.32 324L310.24 327.51C309.36 327.965 308.381 328.195 307.39 328.18V325.64C308.379 325.674 309.36 325.453 310.24 325V325Z" fill="black"/>
<path d="M310.22 301.65L314.09 299.41L358.7 273.67L373 265.43C374 264.84 374.84 264.63 374.9 264.94V265.59C374.9 266.3 375.9 266.3 377.13 265.59C377.587 265.391 377.988 265.081 378.295 264.688C378.602 264.295 378.807 263.832 378.89 263.34V262.64C378.875 262.484 378.898 262.327 378.955 262.181C379.012 262.035 379.103 261.904 379.22 261.8L379.55 261.62L380.25 261.21L381.12 260.7C381.29 260.59 381.491 260.539 381.693 260.558C381.894 260.576 382.083 260.661 382.23 260.8C382.271 260.828 382.308 260.862 382.34 260.9C382.418 260.981 382.485 261.072 382.54 261.17C382.578 261.213 382.612 261.26 382.64 261.31C382.743 261.484 382.827 261.668 382.89 261.86C382.969 262.069 383.035 262.283 383.09 262.5C383.14 262.74 383.19 262.98 383.23 263.24C383.261 263.392 383.281 263.545 383.29 263.7V264.06C383.29 264.33 383.29 264.62 383.29 264.92V279.8H381.09V265C381.09 264.77 381.09 264.53 381.09 264.31L381.04 263.76C380.84 265.51 379.17 267.07 377.71 267.89C376.906 268.401 375.982 268.691 375.03 268.73C374.297 268.739 373.585 268.48 373.03 268L372.84 268.11L372.45 268.34L316.29 300.77L310.21 304.28C309.341 304.724 308.376 304.947 307.4 304.93V302.39C308.387 302.383 309.357 302.129 310.22 301.65V301.65Z" fill="#71AAE2"/>
<path opacity="0.4" d="M310.22 301.65L314.09 299.41L358.7 273.67L373 265.43C374 264.84 374.84 264.63 374.9 264.94V265.59C374.9 266.3 375.9 266.3 377.13 265.59C377.587 265.391 377.988 265.081 378.295 264.688C378.602 264.295 378.807 263.832 378.89 263.34V262.64C378.875 262.484 378.898 262.327 378.955 262.181C379.012 262.035 379.103 261.904 379.22 261.8L379.55 261.62L380.25 261.21L381.12 260.7C381.29 260.59 381.491 260.539 381.693 260.558C381.894 260.576 382.083 260.661 382.23 260.8C382.271 260.828 382.308 260.862 382.34 260.9C382.418 260.981 382.485 261.072 382.54 261.17C382.578 261.213 382.612 261.26 382.64 261.31C382.743 261.484 382.827 261.668 382.89 261.86C382.969 262.069 383.035 262.283 383.09 262.5C383.14 262.74 383.19 262.98 383.23 263.24C383.261 263.392 383.281 263.545 383.29 263.7V264.06C383.29 264.33 383.29 264.62 383.29 264.92V279.8H381.09V265C381.09 264.77 381.09 264.53 381.09 264.31L381.04 263.76C380.84 265.51 379.17 267.07 377.71 267.89C376.906 268.401 375.982 268.691 375.03 268.73C374.297 268.739 373.585 268.48 373.03 268L372.84 268.11L372.45 268.34L316.29 300.77L310.21 304.28C309.341 304.724 308.376 304.947 307.4 304.93V302.39C308.387 302.383 309.357 302.129 310.22 301.65V301.65Z" fill="black"/>
<path d="M210.81 246.52V249.1C210.84 249.447 210.961 249.779 211.159 250.065C211.357 250.351 211.626 250.58 211.94 250.73V250.73L298.42 300.65L304.49 304.16C305.367 304.614 306.343 304.844 307.33 304.83V302.29C306.337 302.312 305.356 302.078 304.48 301.61L300.62 299.38L212 248.2C211.664 248.06 211.374 247.828 211.164 247.531C210.953 247.234 210.831 246.883 210.81 246.52V246.52Z" fill="#71AAE2"/>
<path opacity="0.2" d="M210.81 246.52V249.1C210.84 249.447 210.961 249.779 211.159 250.065C211.357 250.351 211.626 250.58 211.94 250.73V250.73L298.42 300.65L304.49 304.16C305.367 304.614 306.343 304.844 307.33 304.83V302.29C306.337 302.312 305.356 302.078 304.48 301.61L300.62 299.38L212 248.2C211.664 248.06 211.374 247.828 211.164 247.531C210.953 247.234 210.831 246.883 210.81 246.52V246.52Z" fill="black"/>
<path d="M210.81 269.86V272.44C210.84 272.787 210.961 273.119 211.159 273.405C211.357 273.691 211.626 273.92 211.94 274.07L298.46 324L304.53 327.51C305.407 327.964 306.383 328.194 307.37 328.18V325.64C306.377 325.662 305.396 325.428 304.52 324.96L300.66 322.73L212 271.54C211.664 271.4 211.374 271.168 211.164 270.871C210.953 270.574 210.831 270.223 210.81 269.86V269.86Z" fill="#71AAE2"/>
<path opacity="0.2" d="M210.81 269.86V272.44C210.84 272.787 210.961 273.119 211.159 273.405C211.357 273.691 211.626 273.92 211.94 274.07L298.46 324L304.53 327.51C305.407 327.964 306.383 328.194 307.37 328.18V325.64C306.377 325.662 305.396 325.428 304.52 324.96L300.66 322.73L212 271.54C211.664 271.4 211.374 271.168 211.164 270.871C210.953 270.574 210.831 270.223 210.81 269.86V269.86Z" fill="black"/>
<path d="M250.75 179.13L241.57 195.49L254.95 202.61L264.69 188.11L250.75 179.13Z" fill="#FFA8A7"/>
<path d="M283.32 142.28C278.22 141.41 270.5 141.18 265.48 149.79C260.46 158.4 249.64 179.65 249.64 179.65C249.64 179.65 255.96 187.83 265.11 189.32L280.06 165.6L283.32 142.28Z" fill="#71AAE2"/>
<path d="M271.27 342.64H259.85V362.19H271.27V342.64Z" fill="#FFA8A7"/>
<path d="M238.21 337.88L226.79 338.27L226.22 317.58L237.63 317.19L238.21 337.88Z" fill="#FFA8A7"/>
<path d="M259.85 356.55V354.92C258.76 355.39 256.22 365.08 251.69 369.21C248.09 372.5 243.18 376.29 241.93 379.95C240.63 383.76 248.77 385.87 252.13 385.27C256.04 384.58 262.82 381.83 264.52 379.27C266.22 376.71 267.02 372.96 268.4 371.09C269.78 369.22 272.97 367.09 273.72 364.96C274.13 363.77 273.64 361.17 273.07 358.96C272.54 356.96 271.96 354.72 271.27 354.91V356.15C270.44 357.07 268.15 357.98 265.56 358.08C263.89 358.16 259.84 357.83 259.85 356.55Z" fill="#263238"/>
<path d="M226.67 334.75C226.08 334.75 225.6 335.61 224.29 337.02C222.336 338.994 220.064 340.627 217.57 341.85C213.29 344 205 347.29 201.22 349C198.87 350.06 198.98 352.9 201.41 354.52C203.84 356.14 209.7 357.3 216.75 355.72C220.58 354.86 225.58 351.32 228.75 351.51C231.92 351.7 237.83 351.66 240.16 350.05C242.49 348.44 241.56 345.05 240.9 342.05C240.18 338.83 239.15 333.9 238.08 334.12V335.12C236.71 337.2 229.72 338.05 226.7 336.52L226.67 334.75Z" fill="#263238"/>
<path d="M317.27 223.75C319.77 241.4 316.4 244.75 299.63 261.69C290.63 270.78 276.08 284.11 276.08 284.11C276.08 284.11 276.29 289.75 276.4 302.39C276.51 313.52 271.86 349.74 271.86 349.74C271.86 349.74 264.28 352.93 259.08 349.62C259.08 349.62 256.73 322.67 255.46 308.62C253.74 289.62 252.84 280.04 253.81 275.95C254.67 272.34 271.74 250.78 275.68 244.74L239.4 265.82C240.103 271.161 240.458 276.543 240.46 281.93C240.06 297.04 238.2 327.22 238.2 327.22C238.2 327.22 229.9 330.93 225.78 327.73C225.78 327.73 215.33 261.73 215.33 256.31C215.33 248.08 251.07 223.51 257.84 217.79C261.7 214.53 266 211 266 211L317.27 223.75Z" fill="#455A64"/>
<path d="M275.68 244.75C271.864 241.66 268.992 237.562 267.39 232.92C267.59 235.949 268.021 238.957 268.68 241.92C269.68 245.84 239.4 265.82 239.4 265.82L275.68 244.75Z" fill="#37474F"/>
<path d="M295.844 110.715C297.887 101.998 292.477 93.2764 283.76 91.2336C275.044 89.1908 266.322 94.6008 264.279 103.317C262.236 112.034 267.646 120.756 276.363 122.798C285.079 124.841 293.801 119.431 295.844 110.715Z" fill="#263238"/>
<path d="M314.12 152.1C314.12 152.1 318.12 155.38 318.12 165.74V188.11L317.55 225.73C309.55 234.44 273.55 231.14 264.64 212.14C264.64 212.14 264.71 172.43 264.71 163.53C264.71 154.63 269.71 143.08 283.31 142.28L300.93 146.38L314.12 152.1Z" fill="#263238"/>
<path d="M308.08 118.54C308.08 118.54 305.45 130.88 304.4 132.91C303.7 134.161 302.542 135.093 301.17 135.51L301.35 126.83L308.08 118.54Z" fill="#263238"/>
<path d="M304.78 100.86C305.693 100.757 306.618 100.863 307.484 101.17C308.35 101.477 309.135 101.976 309.78 102.63C311.94 104.84 310.73 111.76 308.04 118.54L303.09 119.11L304.78 100.86Z" fill="#263238"/>
<path d="M301.65 119.11C302.65 119.7 304.06 117.8 305.28 116.52C306.5 115.24 310.5 113.52 312.49 117.69C314.48 121.86 310.73 127.62 307.59 128.61C302.17 130.31 301.35 126.83 301.35 126.83L300.94 146.38C296.27 151.6 280.3 150.38 283.31 145.86V139.86C283.31 139.86 278.4 140.61 276.01 140.24C272.01 139.62 269.51 136.48 268.3 132.16C266.36 125.23 265.62 119.64 267.3 106.01C269.11 91.07 286.48 90.92 295.86 96.82C305.24 102.72 301.65 119.11 301.65 119.11Z" fill="#FFA8A7"/>
<path d="M287.84 122.53H287C285.533 122.53 284.127 121.947 283.09 120.91C282.053 119.873 281.47 118.467 281.47 117C281.47 115.533 282.053 114.127 283.09 113.09C284.127 112.053 285.533 111.47 287 111.47H287.85C289.317 111.47 290.723 112.053 291.76 113.09C292.797 114.127 293.38 115.533 293.38 117C293.38 118.467 292.797 119.873 291.76 120.91C290.723 121.947 289.317 122.53 287.85 122.53H287.84ZM287 112.4C285.78 112.4 284.61 112.885 283.747 113.747C282.885 114.61 282.4 115.78 282.4 117C282.4 118.22 282.885 119.39 283.747 120.253C284.61 121.115 285.78 121.6 287 121.6H287.85C289.07 121.6 290.24 121.115 291.103 120.253C291.965 119.39 292.45 118.22 292.45 117C292.45 115.78 291.965 114.61 291.103 113.747C290.24 112.885 289.07 112.4 287.85 112.4H287Z" fill="#263238"/>
<path d="M271 122.53H270.15C268.683 122.53 267.277 121.947 266.24 120.91C265.203 119.873 264.62 118.467 264.62 117C264.62 115.533 265.203 114.127 266.24 113.09C267.277 112.053 268.683 111.47 270.15 111.47H271C272.467 111.47 273.873 112.053 274.91 113.09C275.948 114.127 276.53 115.533 276.53 117C276.53 118.467 275.948 119.873 274.91 120.91C273.873 121.947 272.467 122.53 271 122.53V122.53ZM270.15 112.4C268.93 112.4 267.76 112.885 266.897 113.747C266.035 114.61 265.55 115.78 265.55 117C265.55 118.22 266.035 119.39 266.897 120.253C267.76 121.115 268.93 121.6 270.15 121.6H271C272.22 121.6 273.39 121.115 274.253 120.253C275.115 119.39 275.6 118.22 275.6 117C275.6 115.78 275.115 114.61 274.253 113.747C273.39 112.885 272.22 112.4 271 112.4H270.15Z" fill="#263238"/>
<path d="M281.53 115.91C281.193 115.452 280.753 115.078 280.246 114.82C279.739 114.561 279.179 114.424 278.61 114.42C278.136 114.372 277.658 114.438 277.214 114.612C276.771 114.786 276.375 115.063 276.06 115.42L275.32 114.86C275.725 114.381 276.241 114.009 276.824 113.778C277.406 113.546 278.037 113.461 278.66 113.53C279.381 113.537 280.09 113.716 280.728 114.052C281.366 114.387 281.916 114.87 282.33 115.46L281.53 115.91Z" fill="#263238"/>
<path d="M304.62 115.87H292.86V116.8H304.62V115.87Z" fill="#263238"/>
<path d="M301.65 120.78C302.15 120.78 304.04 117.64 305.28 116.52C306.99 114.96 304.78 100.86 304.78 100.86C304.78 100.86 306.43 97.35 303.13 93.73C300.79 91.15 296.87 90.86 290.18 89.81C286.67 89.26 281.35 88.27 277.84 87.62C273.66 86.84 270.19 86.02 267.24 88.62C266.082 89.6238 265.263 90.9616 264.896 92.4496C264.529 93.9376 264.632 95.5027 265.19 96.93C266.037 98.71 267.543 100.091 269.39 100.78C269.39 100.78 271.21 102.4 277.56 103.17C283.91 103.94 293.8 103.03 295.15 102.84C296.99 102.59 297.38 104.37 298.38 109.25C299.25 113.5 300 120.75 301.65 120.78Z" fill="#263238"/>
<path d="M304.77 102L310.77 98.77C310.578 98.3667 310.306 98.0065 309.971 97.711C309.636 97.4155 309.244 97.191 308.82 97.0508C308.396 96.9106 307.948 96.8578 307.503 96.8955C307.058 96.9332 306.625 97.0606 306.23 97.27C305.428 97.7222 304.83 98.4645 304.558 99.3442C304.287 100.224 304.362 101.174 304.77 102V102Z" fill="#263238"/>
<path d="M283.32 139.91C283.32 139.91 292.22 138.12 295.32 136.47C297.149 135.515 298.648 134.03 299.62 132.21C299.149 134.023 298.32 135.723 297.18 137.21C294.9 140.12 283.31 142.26 283.31 142.26L283.32 139.91Z" fill="#F28F8F"/>
<path d="M285.46 116.89C285.474 117.241 285.591 117.58 285.796 117.866C286.001 118.151 286.286 118.369 286.615 118.494C286.943 118.618 287.301 118.643 287.644 118.566C287.987 118.488 288.299 118.311 288.542 118.058C288.785 117.804 288.948 117.484 289.01 117.138C289.073 116.792 289.032 116.436 288.893 116.113C288.754 115.79 288.524 115.515 288.23 115.323C287.936 115.13 287.592 115.028 287.24 115.03C287.001 115.035 286.765 115.087 286.547 115.184C286.328 115.28 286.13 115.418 285.965 115.591C285.8 115.764 285.67 115.968 285.583 116.19C285.497 116.413 285.455 116.651 285.46 116.89V116.89Z" fill="#263238"/>
<path d="M288.32 109.51L292.14 111.61C292.398 111.09 292.449 110.492 292.284 109.935C292.119 109.379 291.75 108.906 291.25 108.61C291 108.472 290.724 108.385 290.44 108.355C290.155 108.326 289.867 108.354 289.594 108.438C289.321 108.522 289.067 108.66 288.848 108.844C288.629 109.029 288.45 109.255 288.32 109.51V109.51Z" fill="#263238"/>
<path d="M284.13 129.2L280.06 130.73C280.148 131.003 280.29 131.256 280.477 131.473C280.665 131.69 280.895 131.867 281.152 131.993C281.41 132.119 281.691 132.192 281.977 132.207C282.264 132.222 282.551 132.179 282.82 132.08C283.369 131.863 283.812 131.441 284.056 130.904C284.3 130.367 284.327 129.756 284.13 129.2Z" fill="#F28F8F"/>
<path d="M269.1 111.07L272.58 108.4C272.418 108.167 272.211 107.969 271.97 107.818C271.73 107.668 271.461 107.568 271.181 107.524C270.9 107.48 270.614 107.493 270.339 107.563C270.064 107.633 269.806 107.758 269.58 107.93C269.112 108.291 268.8 108.819 268.711 109.404C268.622 109.989 268.761 110.585 269.1 111.07Z" fill="#263238"/>
<path d="M270.63 116.38C270.644 116.731 270.761 117.07 270.966 117.356C271.171 117.641 271.456 117.859 271.785 117.984C272.113 118.108 272.471 118.133 272.814 118.056C273.157 117.978 273.469 117.801 273.712 117.548C273.955 117.294 274.118 116.974 274.18 116.628C274.243 116.282 274.202 115.926 274.063 115.603C273.924 115.28 273.694 115.005 273.4 114.813C273.106 114.62 272.761 114.518 272.41 114.52C272.171 114.525 271.935 114.577 271.717 114.674C271.498 114.77 271.3 114.908 271.135 115.081C270.969 115.254 270.84 115.458 270.753 115.68C270.667 115.903 270.625 116.141 270.63 116.38V116.38Z" fill="#263238"/>
<path d="M279.44 114.95L279.24 125.76L272.85 124.35L279.44 114.95Z" fill="#F28F8F"/>
<path d="M268.52 204.82V205.82C268.519 206.331 268.384 206.833 268.128 207.276C267.872 207.718 267.503 208.085 267.06 208.34L239.29 224.34C238.848 224.595 238.346 224.73 237.835 224.73C237.324 224.73 236.822 224.595 236.38 224.34L185.43 194.93C184.987 194.675 184.618 194.308 184.362 193.866C184.106 193.423 183.971 192.921 183.97 192.41V191.7L237.83 222.79L268.52 204.82Z" fill="#71AAE2"/>
<path opacity="0.6" d="M268.52 204.82V205.82C268.519 206.331 268.384 206.833 268.128 207.276C267.872 207.718 267.503 208.085 267.06 208.34L239.29 224.34C238.848 224.595 238.346 224.73 237.835 224.73C237.324 224.73 236.822 224.595 236.38 224.34L185.43 194.93C184.987 194.675 184.618 194.308 184.362 193.866C184.106 193.423 183.971 192.921 183.97 192.41V191.7L237.83 222.79L268.52 204.82Z" fill="black"/>
<path d="M184 191.71L214.21 174.27C214.475 174.117 214.775 174.037 215.08 174.037C215.385 174.037 215.685 174.117 215.95 174.27L268.35 204.53C268.408 204.565 268.456 204.614 268.489 204.672C268.523 204.731 268.54 204.797 268.54 204.865C268.54 204.933 268.523 204.999 268.489 205.058C268.456 205.116 268.408 205.165 268.35 205.2L237.86 222.8L184 191.71Z" fill="#71AAE2"/>
<path opacity="0.5" d="M184 191.71L214.21 174.27C214.475 174.117 214.775 174.037 215.08 174.037C215.385 174.037 215.685 174.117 215.95 174.27L268.35 204.53C268.408 204.565 268.456 204.614 268.489 204.672C268.523 204.731 268.54 204.797 268.54 204.865C268.54 204.933 268.523 204.999 268.489 205.058C268.456 205.116 268.408 205.165 268.35 205.2L237.86 222.8L184 191.71Z" fill="black"/>
<path d="M238.11 220.24L254.4 210.84L206.76 183.34L190.38 192.69L238.11 220.24Z" fill="#263238"/>
<path d="M246.12 194.1L245.82 194.27L237.83 198.88L223.63 190.68L223.34 190.51L231.62 185.73L246.12 194.1Z" fill="#263238"/>
<path d="M245.82 194.27L237.83 198.88L223.63 190.68L231.62 186.07L245.82 194.27Z" fill="#263238"/>
<path opacity="0.7" d="M237.83 222.8V224.74C237.321 224.74 236.821 224.605 236.38 224.35L185.43 194.94C184.987 194.685 184.618 194.318 184.362 193.876C184.106 193.433 183.971 192.931 183.97 192.42V191.71L237.83 222.8Z" fill="black"/>
<path d="M237 223.23C236.516 223.423 235.993 223.502 235.473 223.463C234.953 223.423 234.449 223.265 234 223L183.28 193.72C182.839 193.467 182.46 193.12 182.17 192.703C181.879 192.287 181.685 191.811 181.6 191.31L176.05 158.19C176.019 158.005 176.002 157.818 176 157.63C175.994 156.71 176.354 155.825 177 155.17L229.71 185.61C230.045 185.794 230.334 186.05 230.557 186.36C230.78 186.669 230.931 187.025 231 187.4L237 223.23Z" fill="#71AAE2"/>
<path opacity="0.5" d="M237 223.23C236.516 223.423 235.993 223.502 235.473 223.463C234.953 223.423 234.449 223.265 234 223L183.28 193.72C182.839 193.467 182.46 193.12 182.17 192.703C181.879 192.287 181.685 191.811 181.6 191.31L176.05 158.19C176.019 158.005 176.002 157.818 176 157.63C175.994 156.71 176.354 155.825 177 155.17L229.71 185.61C230.045 185.794 230.334 186.05 230.557 186.36C230.78 186.669 230.931 187.025 231 187.4L237 223.23Z" fill="black"/>
<path d="M237.83 222.8L237.49 223C237.336 223.089 237.176 223.166 237.01 223.23L231.01 187.4C230.947 187.029 230.803 186.676 230.589 186.367C230.375 186.058 230.095 185.799 229.77 185.61L177.06 155.17C177.269 154.964 177.505 154.786 177.76 154.64L230.58 185.13C230.905 185.319 231.185 185.578 231.399 185.887C231.613 186.196 231.757 186.549 231.82 186.92L237.83 222.8Z" fill="#E0E0E0"/>
<path d="M208.44 192.66C208.07 190.45 205.78 187.5 203.33 186.09C200.88 184.68 199.19 185.32 199.57 187.54C199.95 189.76 202.23 192.7 204.68 194.12C207.13 195.54 208.82 194.88 208.44 192.66Z" fill="#71AAE2"/>
<path d="M218.83 214.22C218.724 212.785 218.446 211.368 218 210C217.22 207.55 214.9 198.11 209.6 196.69C208.97 196.501 208.301 196.48 207.66 196.63C206.19 197.03 205.52 198.56 205.23 199.93C204.96 201.954 204.96 204.006 205.23 206.03C204.415 205.098 203.461 204.299 202.4 203.66C201.46 202.952 200.326 202.547 199.15 202.5C198.986 202.492 198.823 202.524 198.675 202.594C198.527 202.664 198.398 202.769 198.3 202.9C198.11 203.25 198.3 203.69 198.6 204C199.13 204.64 199.78 205.18 200.31 205.82C200.725 206.378 201.109 206.959 201.46 207.56C202.13 208.64 202.88 209.66 203.63 210.69C205.071 212.83 206.879 214.699 208.97 216.21C211.375 217.838 214.104 218.926 216.97 219.4C220.84 219.88 224.6 219.82 227.04 218.97L218.83 214.22Z" fill="#FFA8A7"/>
<path d="M313.06 152.39C309.49 150.55 304.27 157.84 305.93 165.46C307.59 173.08 315.77 199.87 315.77 199.87C315.77 199.87 278.82 203.17 275.68 203.56C273.49 203.82 271.04 202.71 269.01 202.04C266.25 201.12 263.46 200.48 260.74 199.48C260.267 199.263 259.751 199.153 259.23 199.16C258.968 199.171 258.718 199.269 258.517 199.437C258.317 199.605 258.177 199.834 258.12 200.09C258.107 200.403 258.187 200.713 258.35 200.98C259.222 202.76 260.534 204.288 262.16 205.42C262.948 205.886 263.697 206.414 264.4 207C264.83 207.43 265.78 208.62 265.4 209.27L250.72 217.72C250.72 217.72 254.1 220.66 266.34 217.23C270.752 216.076 275.058 214.547 279.21 212.66C279.21 212.66 322.75 214.47 330.62 212.09C333.4 211.24 334.4 209.27 332.52 200.31C330.37 189.93 324.2 171 322.8 166C319.73 155.17 319 155.42 313.06 152.39Z" fill="#FFA8A7"/>
<path d="M311.22 150.84C311.22 150.84 317.12 152.5 319.66 155.84C322.2 159.18 332 191.49 332 191.49C329.438 193.627 326.443 195.181 323.221 196.044C319.998 196.907 316.627 197.06 313.34 196.49C313.34 196.49 305.46 174.14 304.62 168.17C303.13 158.92 307.65 151.64 311.22 150.84Z" fill="#71AAE2"/>
<path d="M279.38 172.52C278.9 170.02 280.46 168.67 282.87 169.52C284.145 170.044 285.28 170.86 286.183 171.902C287.086 172.944 287.733 174.183 288.07 175.52C288.55 178.05 279.85 175 279.38 172.52Z" fill="#71AAE2"/>
<path d="M295.87 180.31L288.78 175.8C289.14 177.72 286.55 177.45 284.22 176.64C281.89 175.83 279.04 174.19 278.67 172.27L272.49 172.19C271.92 172.19 271.91 172.93 272.49 173.54C274.02 175.25 277.58 178.28 285.06 180.89C292.54 183.5 295.41 182.69 296.49 181.89C296.84 181.59 296.52 180.72 295.87 180.31Z" fill="#71AAE2"/>
</svg>
